<?xml version="1.0" ?><svg data-name="Layer 1" id="Layer_1" viewBox="0 0 500 500" xmlns="http://www.w3.org/2000/svg"><defs><style>.cls-1{fill:#cb9964;}.cls-2{fill:#513b2c;}.cls-3{fill:none;stroke:#000;stroke-linecap:round;stroke-linejoin:round;stroke-width:20px;}.cls-4{opacity:0.15;}</style></defs><title/><polygon class="cls-1" points="444.92 450.88 55.08 450.88 55.08 375.62 250 79.7 444.92 375.62 444.92 450.88"/><path class="cls-2" d="M250,287.34h0a57.33,57.33,0,0,1,57.33,57.33V450.88a0,0,0,0,1,0,0H192.67a0,0,0,0,1,0,0V344.67A57.33,57.33,0,0,1,250,287.34Z"/><line class="cls-3" x1="270.25" x2="9.78" y1="49.12" y2="442.57"/><line class="cls-3" x1="9.78" x2="9.78" y1="449.51" y2="398.05"/><line class="cls-3" x1="229.75" x2="490.22" y1="49.12" y2="442.57"/><line class="cls-3" x1="490.22" x2="490.22" y1="449.51" y2="398.05"/><line class="cls-3" x1="250" x2="250" y1="287.34" y2="79.7"/><polygon class="cls-4" points="444.92 450.88 444.92 375.62 250 79.7 358.39 449.51 444.92 450.88"/><polygon class="cls-3" points="444.92 450.88 55.08 450.88 55.08 375.62 250 79.7 444.92 375.62 444.92 450.88"/><path class="cls-3" d="M250,287.34h0a57.33,57.33,0,0,1,57.33,57.33V450.88a0,0,0,0,1,0,0H192.67a0,0,0,0,1,0,0V344.67A57.33,57.33,0,0,1,250,287.34Z"/></svg>