<?xml version="1.0" ?><svg data-name="Layer 1" id="Layer_1" viewBox="0 0 500 500" xmlns="http://www.w3.org/2000/svg"><defs><style>.cls-1{fill:#b3814b;}.cls-2{opacity:0.15;}.cls-3{fill:#cececd;}.cls-4{fill:#fff;}.cls-5{fill:#513b2c;}.cls-6{fill:none;stroke:#000;stroke-linecap:round;stroke-linejoin:round;stroke-width:20px;}</style></defs><title/><rect class="cls-1" height="208.54" rx="104.27" ry="104.27" width="477.95" x="11.03" y="254.53"/><path class="cls-2" d="M450.11,277.8A103.14,103.14,0,0,1,461,323.88c0,57.35-46.92,104.27-104.27,104.27H87.36A103.67,103.67,0,0,1,22,404.88c17.1,34.37,52.53,58.19,93.34,58.19H384.7C442.05,463.07,489,416.14,489,358.8A104.15,104.15,0,0,0,450.11,277.8Z"/><path class="cls-3" d="M334.58,254.53h50.13a104,104,0,0,1,78.21,35.66L345.23,124.33l-73-30.26L276.7,173Z"/><path class="cls-2" d="M345.23,124.33l-73-30.26,1.82,32.09,29.27,12.13,82.52,116.3a104,104,0,0,1,77.07,35.6Z"/><path class="cls-3" d="M115.29,254.53h34.39V175.58A138.66,138.66,0,0,0,11,36.93V358.8C11,301.45,58,254.53,115.29,254.53Z"/><path class="cls-4" d="M115.29,254.53h34.39V175.58A138.66,138.66,0,0,0,11,36.93V43A138.7,138.7,0,0,1,109.1,175.58v78.95"/><circle class="cls-5" cx="110.79" cy="358.8" r="30.44"/><path class="cls-4" d="M261.27,254.53h115a0,0,0,0,1,0,0v12.54a31.43,31.43,0,0,1-31.43,31.43H292.7a31.43,31.43,0,0,1-31.43-31.43V254.53A0,0,0,0,1,261.27,254.53Z"/><rect class="cls-6" height="208.54" rx="104.27" ry="104.27" width="477.95" x="11.03" y="254.53"/><path class="cls-6" d="M334.58,254.53h50.13a104,104,0,0,1,78.21,35.66L345.23,124.33l-73-30.26L276.7,173Z"/><path class="cls-6" d="M115.29,254.53h34.39V175.58A138.66,138.66,0,0,0,11,36.93V358.8C11,301.45,58,254.53,115.29,254.53Z"/><path class="cls-6" d="M115.29,254.53h34.39V175.58A138.66,138.66,0,0,0,11,36.93V43A138.7,138.7,0,0,1,109.1,175.58v78.95"/><circle class="cls-6" cx="110.79" cy="358.8" r="30.44"/><path class="cls-6" d="M261.27,254.53h115a0,0,0,0,1,0,0v12.54a31.43,31.43,0,0,1-31.43,31.43H292.7a31.43,31.43,0,0,1-31.43-31.43V254.53A0,0,0,0,1,261.27,254.53Z"/></svg>