<?xml version="1.0" ?><svg data-name="Layer 1" id="Layer_1" viewBox="0 0 500 500" xmlns="http://www.w3.org/2000/svg"><defs><style>.cls-1{fill:#f8e6c5;}.cls-2{opacity:0.15;}.cls-3{fill:#faae3b;}.cls-4{fill:#ee3734;}.cls-5{fill:none;stroke:#000;stroke-linecap:round;stroke-linejoin:round;stroke-width:20px;}</style></defs><title/><rect class="cls-1" height="319.7" width="363.27" x="118.85" y="168.58"/><rect class="cls-2" height="319.7" transform="translate(914.54 656.87) rotate(180)" width="49.7" x="432.42" y="168.58"/><rect class="cls-3" height="156.87" width="302.5" x="149.23" y="11.72"/><rect class="cls-2" height="156.87" transform="translate(853.77 180.3) rotate(180)" width="49.7" x="402.04" y="11.72"/><path class="cls-3" d="M357,282.74c.59,9.87-17.85,38.91-17.85,38.91-11.15-47.58-70.52-82.46-70.52-82.46s14.05,16.65-15.86,65.37-16.49,79.12-16.49,79.12h0C242.73,407.31,269,425,300.35,425s54.79-19,64.1-41.32h0C383.77,340.64,357,282.74,357,282.74Z"/><path class="cls-4" d="M270.76,394.9c0-16.62,29.35-51,29.35-51s29.34,34.4,29.34,51S316.32,425,300.11,425,270.76,411.53,270.76,394.9Z"/><path class="cls-4" d="M235.88,113.32H187.22l-3.57-40.15a28,28,0,0,1,27.9-30.49h0a28,28,0,0,1,27.9,30.49Z"/><rect class="cls-1" height="54.98" width="31.39" x="195.07" y="113.32"/><path class="cls-4" d="M324,113.32H275.36l-3.57-40.15a28,28,0,0,1,27.9-30.49h0a28,28,0,0,1,27.89,30.49Z"/><rect class="cls-1" height="54.98" width="31.39" x="283.2" y="113.32"/><path class="cls-4" d="M412.15,113.32H363.49l-3.57-40.15a28,28,0,0,1,27.9-30.49h0a28,28,0,0,1,27.9,30.49Z"/><rect class="cls-1" height="54.98" width="31.39" x="371.34" y="113.32"/><path class="cls-4" d="M70.22,141.53H21.56L18,101.39A28,28,0,0,1,45.89,70.9h0a28,28,0,0,1,27.9,30.49Z"/><rect class="cls-1" height="325.25" width="31.39" x="29.41" y="141.53"/><rect class="cls-5" height="319.7" width="363.27" x="118.85" y="168.58"/><rect class="cls-5" height="156.87" width="302.5" x="149.23" y="11.72"/><path class="cls-5" d="M357,282.74c.59,9.87-17.85,38.91-17.85,38.91-11.15-47.58-70.52-82.46-70.52-82.46s14.05,16.65-15.86,65.37-16.49,79.12-16.49,79.12h0C242.73,407.31,269,425,300.35,425s54.79-19,64.1-41.32h0C383.77,340.64,357,282.74,357,282.74Z"/><path class="cls-5" d="M270.76,394.9c0-16.62,29.35-51,29.35-51s29.34,34.4,29.34,51S316.32,425,300.11,425,270.76,411.53,270.76,394.9Z"/><path class="cls-5" d="M235.88,113.32H187.22l-3.57-40.15a28,28,0,0,1,27.9-30.49h0a28,28,0,0,1,27.9,30.49Z"/><rect class="cls-5" height="54.98" width="31.39" x="195.07" y="113.32"/><path class="cls-5" d="M324,113.32H275.36l-3.57-40.15a28,28,0,0,1,27.9-30.49h0a28,28,0,0,1,27.89,30.49Z"/><rect class="cls-5" height="54.98" width="31.39" x="283.2" y="113.32"/><path class="cls-5" d="M412.15,113.32H363.49l-3.57-40.15a28,28,0,0,1,27.9-30.49h0a28,28,0,0,1,27.9,30.49Z"/><rect class="cls-5" height="54.98" width="31.39" x="371.34" y="113.32"/><path class="cls-5" d="M70.22,141.53H21.56L18,101.39A28,28,0,0,1,45.89,70.9h0a28,28,0,0,1,27.9,30.49Z"/><rect class="cls-5" height="325.25" width="31.39" x="29.41" y="141.53"/></svg>