<?xml version="1.0" ?><svg data-name="Layer 1" id="Layer_1" viewBox="0 0 500 500" xmlns="http://www.w3.org/2000/svg"><defs><style>.cls-1{fill:#b3814b;}.cls-2{opacity:0.2;}.cls-3{fill:#ee3734;}.cls-4{fill:#fff;}.cls-5{fill:none;stroke:#000;stroke-linecap:round;stroke-linejoin:round;stroke-width:20px;}</style></defs><title/><path class="cls-1" d="M214.79,84V32.13H124.53V97.87A776,776,0,0,0,214.79,84Z"/><path class="cls-1" d="M124.53,269.94V488.71h90.26V283.83A774.16,774.16,0,0,0,124.53,269.94Z"/><rect class="cls-2" height="456.58" width="45.13" x="169.66" y="32.13"/><path class="cls-3" d="M77.16,100.92v166s208.78,3.31,296.76,89.62c0,0,48.92-61.41,48.92-172.61S373.92,11.29,373.92,11.29C285.94,97.6,77.16,100.92,77.16,100.92Z"/><path class="cls-4" d="M373.92,11.29c-12.35,12.12-27.14,22.55-43.35,31.62,13.84,28.71,30.34,76.38,30.34,141s-16.5,112.28-30.34,141c16.21,9.06,31,19.49,43.35,31.61,0,0,48.92-61.41,48.92-172.61S373.92,11.29,373.92,11.29Z"/><path class="cls-5" d="M214.79,84V32.13H124.53V97.87A776,776,0,0,0,214.79,84Z"/><path class="cls-5" d="M124.53,269.94V488.71h90.26V283.83A774.16,774.16,0,0,0,124.53,269.94Z"/><path class="cls-5" d="M77.16,100.92v166s208.78,3.31,296.76,89.62c0,0,48.92-61.41,48.92-172.61S373.92,11.29,373.92,11.29C285.94,97.6,77.16,100.92,77.16,100.92Z"/><path class="cls-5" d="M373.92,11.29c-12.35,12.12-27.14,22.55-43.35,31.62,13.84,28.71,30.34,76.38,30.34,141s-16.5,112.28-30.34,141c16.21,9.06,31,19.49,43.35,31.61,0,0,48.92-61.41,48.92-172.61S373.92,11.29,373.92,11.29Z"/></svg>