<?xml version="1.0" ?><svg data-name="Layer 1" id="Layer_1" viewBox="0 0 500 500" xmlns="http://www.w3.org/2000/svg"><defs><style>.cls-1{fill:#88a451;}.cls-2{fill:#cececd;}.cls-3{opacity:0.15;}.cls-4,.cls-8{fill:none;stroke-linecap:round;stroke-linejoin:round;}.cls-4{stroke:#000;stroke-width:20px;}.cls-5{fill:#f8e6c5;}.cls-6{fill:#fff;}.cls-7{fill:#ee3734;}.cls-8{stroke:#2f2f31;stroke-width:20.43px;}</style></defs><title/><circle class="cls-1" cx="217.44" cy="282.56" r="206.7"/><path class="cls-2" d="M363.6,136.4a209,209,0,0,1,20.53,23.88l18.52-18.52a31.39,31.39,0,0,0,0-44.41h0a31.39,31.39,0,0,0-44.41,0l-18.52,18.52A209,209,0,0,1,363.6,136.4Z"/><path class="cls-3" d="M402.65,97.35h0a31,31,0,0,0-11.44-7.21,31.19,31.19,0,0,1-9,24.38L363.7,133l-2,1.53c.62.61,1.25,1.21,1.86,1.83a209,209,0,0,1,20.53,23.88l18.52-18.52A31.39,31.39,0,0,0,402.65,97.35Z"/><path class="cls-4" d="M406,137.73A64.85,64.85,0,1,0,362.28,94"/><circle class="cls-5" cx="217.44" cy="282.56" r="153.43"/><path class="cls-3" d="M363.6,136.4a205.8,205.8,0,0,0-66.89-44.76C362.23,172.81,357.3,292,281.87,367.43c-60.94,60.95-150.47,75.84-225.43,44.76a208.86,208.86,0,0,0,14.84,16.53c80.72,80.73,211.6,80.73,292.32,0S444.32,217.12,363.6,136.4Z"/><polygon class="cls-6" points="217.44 193.66 177.29 282.56 217.44 282.56 257.59 282.56 217.44 193.66"/><polygon class="cls-7" points="217.44 371.46 177.29 282.56 217.44 282.56 257.59 282.56 217.44 371.46"/><line class="cls-8" x1="325.93" x2="303" y1="174.07" y2="197"/><line class="cls-4" x1="325.93" x2="303" y1="174.07" y2="197"/><line class="cls-4" x1="108.94" x2="131.88" y1="391.06" y2="368.12"/><line class="cls-4" x1="325.93" x2="303" y1="391.06" y2="368.12"/><line class="cls-4" x1="108.94" x2="131.88" y1="174.07" y2="197"/><line class="cls-4" x1="217.44" x2="217.44" y1="436" y2="403.56"/><line class="cls-4" x1="217.44" x2="217.44" y1="129.13" y2="161.56"/><line class="cls-4" x1="64" x2="96.44" y1="282.56" y2="282.56"/><line class="cls-4" x1="370.87" x2="338.44" y1="282.56" y2="282.56"/><circle class="cls-4" cx="217.44" cy="282.56" r="206.7"/><path class="cls-4" d="M363.6,136.4a209,209,0,0,1,20.53,23.88l18.52-18.52a31.39,31.39,0,0,0,0-44.41h0a31.39,31.39,0,0,0-44.41,0l-18.52,18.52A209,209,0,0,1,363.6,136.4Z"/><circle class="cls-4" cx="217.44" cy="282.56" r="153.43"/><polygon class="cls-4" points="217.44 193.66 177.29 282.56 217.44 282.56 257.59 282.56 217.44 193.66"/><polygon class="cls-4" points="217.44 371.46 177.29 282.56 217.44 282.56 257.59 282.56 217.44 371.46"/></svg>