<?xml version="1.0" ?><svg data-name="Layer 1" id="Layer_1" viewBox="0 0 500 500" xmlns="http://www.w3.org/2000/svg"><defs><style>.cls-1{fill:#fff;}.cls-2{fill:#513b2c;}.cls-3{opacity:0.15;}.cls-4,.cls-5{fill:none;stroke:#000;stroke-linecap:round;stroke-linejoin:round;stroke-width:20px;}.cls-5{stroke-dasharray:14.41 36.02;}</style></defs><title/><ellipse class="cls-1" cx="98.48" cy="164.26" rx="87.46" ry="146.51"/><path class="cls-1" d="M401.52,17.75h-303c48.3,0,87.46,65.59,87.46,146.51s-39.16,146.5-87.46,146.5h303c48.3,0,87.45-65.59,87.45-146.5S449.82,17.75,401.52,17.75Z"/><ellipse class="cls-2" cx="98.48" cy="164.26" rx="33.06" ry="55.39"/><polyline class="cls-1" points="185.79 164.26 185.79 482.25 488.97 482.25 488.97 164.26"/><path class="cls-3" d="M401.52,17.75H327.26c48.3,0,87.46,65.59,87.46,146.51v318H489v-318C489,83.34,449.82,17.75,401.52,17.75Z"/><line class="cls-4" x1="185.94" x2="193.36" y1="207.11" y2="207.11"/><line class="cls-5" x1="229.39" x2="463.54" y1="207.11" y2="207.11"/><line class="cls-4" x1="481.55" x2="488.97" y1="207.11" y2="207.11"/><ellipse class="cls-4" cx="98.48" cy="164.26" rx="87.46" ry="146.51"/><ellipse class="cls-4" cx="98.48" cy="164.26" rx="33.06" ry="55.39"/><polyline class="cls-4" points="185.79 164.26 185.79 482.25 488.97 482.25 488.97 164.26"/><polygon class="cls-4" points="98.48 310.76 98.48 310.76 98.48 310.76 98.48 310.76"/><path class="cls-4" d="M489,164.26c0-80.92-39.15-146.51-87.45-146.51h-303c48.3,0,87.46,65.59,87.46,146.51s-39.16,146.5-87.46,146.5h87.31"/></svg>