<?xml version="1.0" ?><svg data-name="Layer 1" id="Layer_1" viewBox="0 0 500 500" xmlns="http://www.w3.org/2000/svg"><defs><style>.cls-1{fill:#faae3b;}.cls-2{fill:#f8e6c5;}.cls-3{fill:#88a451;}.cls-4{opacity:0.15;}.cls-5{fill:none;stroke:#000;stroke-linecap:round;stroke-linejoin:round;stroke-width:20px;}.cls-6{fill:#b3814b;}.cls-7{opacity:0.1;}</style></defs><title/><rect class="cls-1" height="42.78" width="37.4" x="403.7" y="265.22"/><rect class="cls-2" height="61.99" width="32.59" x="441.1" y="246.01"/><path class="cls-3" d="M96.3,173.87H403.7a0,0,0,0,1,0,0V440.72a48.54,48.54,0,0,1-48.54,48.54H144.84A48.54,48.54,0,0,1,96.3,440.72V173.87A0,0,0,0,1,96.3,173.87Z"/><path class="cls-4" d="M356.51,173.87V440.72A48.55,48.55,0,0,1,308,489.27h47.19a48.55,48.55,0,0,0,48.54-48.55V173.87Z"/><path class="cls-3" d="M403.7,308V440.72a48.55,48.55,0,0,1-48.54,48.55h79.17a48.55,48.55,0,0,0,48.54-48.55V308Z"/><path class="cls-4" d="M442.42,308V440.72a48.55,48.55,0,0,1-48.54,48.55h40.45a48.55,48.55,0,0,0,48.54-48.55V308Z"/><path class="cls-3" d="M96.3,440.72V308H17.13V440.72a48.55,48.55,0,0,0,48.54,48.55h79.17A48.55,48.55,0,0,1,96.3,440.72Z"/><rect class="cls-1" height="123.37" rx="48.54" ry="48.54" width="424.74" x="37.63" y="50.49"/><rect class="cls-2" height="123.37" width="35.96" x="130.89" y="50.49"/><rect class="cls-2" height="123.37" transform="translate(702.26 224.36) rotate(-180)" width="35.96" x="333.15" y="50.49"/><path class="cls-5" d="M231.33,10.73h37.34a39.76,39.76,0,0,1,39.76,39.76v0a0,0,0,0,1,0,0H191.57a0,0,0,0,1,0,0v0A39.76,39.76,0,0,1,231.33,10.73Z"/><rect class="cls-6" height="119.23" width="35.96" x="164.04" y="281.84"/><rect class="cls-6" height="119.23" width="35.96" x="300" y="281.84"/><path class="cls-2" d="M49.77,246H71.31a25,25,0,0,1,25,25v37a0,0,0,0,1,0,0H24.79a0,0,0,0,1,0,0V271A25,25,0,0,1,49.77,246Z"/><path class="cls-3" d="M96.3,173.87v119a48.54,48.54,0,0,0,48.54,48.54H164V281.84h36v59.61H300V281.84h36v59.61h19.2a48.54,48.54,0,0,0,48.54-48.54v-119Z"/><g class="cls-4"><path d="M363.25,173.87v119A48.51,48.51,0,0,1,336,336.5v4.95h19.2a48.54,48.54,0,0,0,48.54-48.54v-119Z"/></g><path class="cls-7" d="M413.83,126.67H86.17A48.53,48.53,0,0,1,38.79,88.58,48.66,48.66,0,0,0,37.63,99v26.29a48.54,48.54,0,0,0,48.54,48.54H413.83a48.54,48.54,0,0,0,48.54-48.54V99a48.66,48.66,0,0,0-1.16-10.46A48.53,48.53,0,0,1,413.83,126.67Z"/><path class="cls-7" d="M96.3,440.72V247.32H55.85v193.4a48.55,48.55,0,0,0,48.54,48.55h40.45A48.55,48.55,0,0,1,96.3,440.72Z"/><rect class="cls-5" height="42.78" width="37.4" x="403.7" y="265.22"/><rect class="cls-5" height="61.99" width="32.59" x="441.1" y="246.01"/><path class="cls-5" d="M96.3,173.87H403.7a0,0,0,0,1,0,0V440.72a48.54,48.54,0,0,1-48.54,48.54H144.84A48.54,48.54,0,0,1,96.3,440.72V173.87A0,0,0,0,1,96.3,173.87Z"/><path class="cls-5" d="M403.7,308V440.72a48.55,48.55,0,0,1-48.54,48.55h79.17a48.55,48.55,0,0,0,48.54-48.55V308Z"/><path class="cls-5" d="M96.3,440.72V308H17.13V440.72a48.55,48.55,0,0,0,48.54,48.55h79.17A48.55,48.55,0,0,1,96.3,440.72Z"/><rect class="cls-5" height="123.37" rx="48.54" ry="48.54" width="424.74" x="37.63" y="50.49"/><rect class="cls-5" height="123.37" width="35.96" x="130.89" y="50.49"/><rect class="cls-5" height="123.37" transform="translate(702.26 224.36) rotate(-180)" width="35.96" x="333.15" y="50.49"/><rect class="cls-5" height="119.23" width="35.96" x="164.04" y="281.84"/><rect class="cls-5" height="119.23" width="35.96" x="300" y="281.84"/><path class="cls-5" d="M49.77,246H71.31a25,25,0,0,1,25,25v37a0,0,0,0,1,0,0H24.79a0,0,0,0,1,0,0V271A25,25,0,0,1,49.77,246Z"/><path class="cls-5" d="M96.3,173.87v119a48.54,48.54,0,0,0,48.54,48.54H164V281.84h36v59.61H300V281.84h36v59.61h19.2a48.54,48.54,0,0,0,48.54-48.54v-119Z"/></svg>