<?xml version="1.0" ?><svg data-name="Layer 1" id="Layer_1" viewBox="0 0 500 500" xmlns="http://www.w3.org/2000/svg"><defs><style>.cls-1{fill:#88a451;}.cls-2{opacity:0.15;}.cls-3{fill:#f8e6c5;}.cls-4{fill:none;stroke:#000;stroke-linecap:round;stroke-linejoin:round;stroke-width:20px;}</style></defs><title/><path class="cls-1" d="M327.53,489.05H154.2a53.06,53.06,0,0,1-52.85-48.33L83.06,236A104.28,104.28,0,0,1,187.27,127.89H294.45A104.29,104.29,0,0,1,398.67,236l-18.29,204.7A53.06,53.06,0,0,1,327.53,489.05Z"/><path class="cls-2" d="M294.45,127.89H239.63A104.3,104.3,0,0,1,343.85,236l-18.29,204.7a53.06,53.06,0,0,1-52.85,48.33h54.82a53.06,53.06,0,0,0,52.85-48.33L398.67,236A104.29,104.29,0,0,0,294.45,127.89Z"/><rect class="cls-3" height="33.19" width="115.75" x="178.71" y="94.7"/><rect class="cls-2" height="33.19" transform="translate(554.65 222.6) rotate(180)" width="34.26" x="260.19" y="94.7"/><path class="cls-1" d="M196.78,10.95h79.6a33.28,33.28,0,0,1,33.28,33.28V94.7a0,0,0,0,1,0,0H163.5a0,0,0,0,1,0,0V44.23A33.28,33.28,0,0,1,196.78,10.95Z"/><path class="cls-2" d="M276.38,11h-48a33.28,33.28,0,0,1,33.28,33.28V94.7h48V44.23A33.28,33.28,0,0,0,276.38,11Z"/><path class="cls-4" d="M294.45,98.73l95.79-9c14.32-1.34,26.78,8.88,26.78,22h0c0,12.95-12.18,23.13-26.36,22l-96.21-7.44"/><line class="cls-4" x1="195.45" x2="195.45" y1="94.7" y2="63.8"/><line class="cls-4" x1="236.56" x2="236.56" y1="94.7" y2="63.8"/><line class="cls-4" x1="277.68" x2="277.68" y1="94.7" y2="63.8"/><line class="cls-4" x1="166.79" x2="136.74" y1="94.7" y2="94.7"/><path class="cls-4" d="M327.53,489.05H154.2a53.06,53.06,0,0,1-52.85-48.33L83.06,236A104.28,104.28,0,0,1,187.27,127.89H294.45A104.29,104.29,0,0,1,398.67,236l-18.29,204.7A53.06,53.06,0,0,1,327.53,489.05Z"/><rect class="cls-4" height="33.19" width="115.75" x="178.71" y="94.7"/><path class="cls-4" d="M196.78,10.95h79.6a33.28,33.28,0,0,1,33.28,33.28V94.7a0,0,0,0,1,0,0H163.5a0,0,0,0,1,0,0V44.23A33.28,33.28,0,0,1,196.78,10.95Z"/></svg>