<?xml version="1.0" ?><svg style="enable-background:new 0 0 48 48;" version="1.1" viewBox="0 0 48 48" xml:space="preserve" xmlns="http://www.w3.org/2000/svg" xmlns:xlink="http://www.w3.org/1999/xlink"><g id="Icons"><g id="Icons_3_"><g><path d="M34.955,10.525h-21.91c-1.39,0-2.52,1.13-2.52,2.52v21.91c0,1.39,1.13,2.52,2.52,2.52h21.91     c1.39,0,2.52-1.13,2.52-2.52v-21.91C37.475,11.655,36.345,10.525,34.955,10.525z M30.565,25.365c-0.99,1.71-2.43,2.79-4.44,3     c-1.33,0.14-2.49-0.2-3.35-1.31c-0.02,0-0.02,0-0.04,0.01c-0.54,1.86-0.76,3.82-1.95,5.46l-0.82,1.37     c-0.2,0.27-0.62,0.12-0.62-0.21l0.04-1.69c0-0.17-0.01-0.33,0.01-0.5c0.05-0.62,0.05-1.25,0.18-1.85     c0.46-2.09,0.97-4.16,1.45-6.24c0.03-0.13,0.02-0.27-0.03-0.4c-0.29-0.83-0.38-1.68-0.17-2.54c0.19-0.81,0.57-1.49,1.35-1.87     c1.1-0.55,2.24,0.08,2.3,1.29c0.03,0.5-0.06,1.02-0.18,1.51c-0.23,0.93-0.54,1.84-0.78,2.78c-0.23,0.93,0.3,1.89,1.23,2.14     c0.8,0.21,1.51-0.01,2.14-0.49c0.53-0.41,0.93-0.97,1.22-1.57c0.68-1.42,0.92-2.94,0.78-4.5c-0.13-1.53-0.91-2.7-2.35-3.33     c-0.51-0.22-1.08-0.35-1.63-0.42c-1.37-0.17-2.68,0.04-3.86,0.79c-1.57,0.98-2.38,2.45-2.52,4.28c-0.06,0.78-0.02,1.58,0.49,2.19     c0.2,0.24,0.35,0.53,0.39,0.84c0.05,0.39-0.1,0.77-0.23,1.13c-0.13,0.34-0.37,0.38-0.68,0.23c-0.73-0.33-1.26-0.86-1.63-1.56     c-0.58-1.12-0.74-2.32-0.56-3.54c0.33-2.31,1.56-4.03,3.54-5.22c1.18-0.71,2.49-1.05,3.86-1.15c1.79-0.13,3.49,0.18,5.02,1.17     c1.7,1.1,2.78,2.66,2.99,4.7C31.915,21.795,31.555,23.665,30.565,25.365z" style="fill:#E52046;"/></g></g></g></svg>