<?xml version="1.0" ?><svg style="enable-background:new 0 0 48 48;" version="1.1" viewBox="0 0 48 48" xml:space="preserve" xmlns="http://www.w3.org/2000/svg" xmlns:xlink="http://www.w3.org/1999/xlink"><g id="Icons"><g><path d="M23.99505,14.57c-5.2,0-9.4201,4.22-9.4201,9.43c0,5.2,4.2201,9.43,9.4201,9.43    c5.2099,0,9.43-4.23,9.43-9.43C33.42505,18.79,29.20505,14.57,23.99505,14.57z" style="fill:#E52046;"/><path d="M24.87315,24.872h3.22c0.48,0,0.88-0.39,0.88-0.87c0-0.49-0.4-0.88-0.88-0.88h-3.22v-3.22    c0-0.48-0.39-0.87-0.88-0.87c-0.48,0-0.87,0.39-0.87,0.87v3.22h-3.22c-0.49,0-0.88,0.39-0.88,0.88c0,0.48,0.39,0.87,0.88,0.87    h3.22v3.22c0,0.49,0.39,0.88,0.87,0.88c0.49,0,0.88-0.39,0.88-0.88V24.872" style="fill:#FFFFFF;"/></g></g></svg>