<?xml version="1.0" ?><svg style="enable-background:new 0 0 48 48;" version="1.1" viewBox="0 0 48 48" xml:space="preserve" xmlns="http://www.w3.org/2000/svg" xmlns:xlink="http://www.w3.org/1999/xlink"><g id="Icons"><g id="Icons_1_"><g><path d="M17.89421,38.9735c-0.3048,0.3985-0.9414,0.1812-0.9392-0.3205l0.0698-2.5575     c0-0.2546-0.0178-0.5039,0.0031-0.7499c0.0798-0.9394,0.0756-1.899,0.277-2.8126c0.6946-3.1506,1.4657-6.2843,2.1954-9.4272     c0.0473-0.2036,0.0298-0.4162-0.0392-0.6135c-0.4407-1.2589-0.5782-2.5396-0.2678-3.843     c0.2899-1.2177,0.8677-2.2571,2.0442-2.834c1.6676-0.8178,3.3851,0.1246,3.4836,1.9634c0.0403,0.7529-0.0894,1.5371-0.2718,2.275     c-0.3494,1.4131-0.8228,2.7956-1.18,4.2068c-0.3558,1.4059,0.4564,2.866,1.8576,3.2398     c1.2155,0.3243,2.2859-0.0081,3.2433-0.7422c0.8014-0.6146,1.4026-1.4581,1.838-2.3694     c1.0307-2.1568,1.4003-4.4517,1.1899-6.8073c-0.2076-2.3256-1.3898-4.0816-3.559-5.0348     c-0.7709-0.3388-1.6308-0.5407-2.47-0.6458c-2.0648-0.2585-4.0482,0.068-5.8357,1.1912c-2.3824,1.4972-3.604,3.7072-3.82,6.484     c-0.0912,1.172-0.0206,2.386,0.7413,3.3103c0.7701,0.934,0.6438,1.8691,0.2779,2.9392     c-0.1848,0.5403-0.5821,0.6132-1.0668,0.3914c-1.0932-0.5002-1.9013-1.3048-2.4522-2.3618     c-0.8802-1.6886-1.1296-3.5044-0.8606-5.3611c0.5045-3.4818,2.366-6.0865,5.3595-7.891c1.7912-1.0797,3.7638-1.5927,5.8361-1.741     c2.7116-0.1941,5.2843,0.2674,7.5945,1.7666c2.5821,1.6756,4.2103,4.0303,4.5268,7.1109     c0.3012,2.9309-0.2432,5.7545-1.7383,8.3305c-1.4977,2.5805-3.6772,4.2124-6.7097,4.5289     c-2.0139,0.2102-3.7778-0.2936-5.0786-1.9758c-0.0272,0.0044-0.0316,0.0051-0.0588,0.0094     c-0.8139,2.8138-1.1515,5.7788-2.9491,8.2711L17.89421,38.9735z" style="fill:#E52046;"/></g></g></g></svg>