<?xml version="1.0" ?><svg style="enable-background:new 0 0 48 48;" version="1.1" viewBox="0 0 48 48" xml:space="preserve" xmlns="http://www.w3.org/2000/svg" xmlns:xlink="http://www.w3.org/1999/xlink"><g id="Icons"><g id="Icons_16_"><g><circle cx="24" cy="24.00002" r="9.42803" style="fill:#E52046;"/><path d="M28.3032,23.64985h-3.9531v-3.9526c0-0.1934-0.1563-0.3501-0.3496-0.3501     c-0.1934,0-0.3497,0.1567-0.3497,0.3501v3.9526h-3.9541c-0.1933,0-0.3496,0.1568-0.3496,0.3501     c0,0.1934,0.1563,0.3501,0.3496,0.3501h3.9541v3.9531c0,0.1934,0.1563,0.3501,0.3497,0.3501     c0.1933,0,0.3496-0.1567,0.3496-0.3501v-3.9531h3.9531c0.1934,0,0.3496-0.1567,0.3496-0.3501     C28.6528,23.80665,28.4966,23.64985,28.3032,23.64985z" style="fill:#FFFFFF;"/></g></g></g></svg>