<?xml version="1.0" ?><svg style="enable-background:new 0 0 48 48;" version="1.1" viewBox="0 0 48 48" xml:space="preserve" xmlns="http://www.w3.org/2000/svg" xmlns:xlink="http://www.w3.org/1999/xlink"><g id="Icons"><g><path d="M35.405,13.39001H12.60495c-0.56995,0-1.01996,0.46002-1.01996,1.02002v16.19995    c0,0.56006,0.45001,1.01001,1.01001,1.01001h7.44995l-0.87994,2.98999L22.99496,31.62H35.405    c0.54999,0,1.01001-0.45996,1.01001-1.01001V14.40002C36.41501,13.84003,35.95499,13.39001,35.405,13.39001z" style="fill:#E52046;"/><path d="M24.86727,23.10283h3.22c0.48,0,0.88-0.39,0.88-0.87c0-0.49-0.4-0.88-0.88-0.88h-3.22v-3.22    c0-0.48-0.39-0.87-0.88-0.87c-0.48,0-0.87,0.39-0.87,0.87v3.22h-3.22c-0.49,0-0.88,0.39-0.88,0.88c0,0.48,0.39,0.87,0.88,0.87    h3.22v3.22c0,0.49,0.39,0.88,0.87,0.88c0.49,0,0.88-0.39,0.88-0.88V23.10283L24.86727,23.10283z" style="fill:#FFFFFF;"/><g><g><path d="M36.41501,14.40002V16.12H11.58499v-1.70996c0-0.56,0.45001-1.02002,1.01996-1.02002H35.405      C35.95499,13.39001,36.41501,13.84003,36.41501,14.40002z" style="fill:#EF4B72;"/></g></g></g></g></svg>