<?xml version="1.0" ?><svg style="enable-background:new 0 0 48 48;" version="1.1" viewBox="0 0 48 48" xml:space="preserve" xmlns="http://www.w3.org/2000/svg" xmlns:xlink="http://www.w3.org/1999/xlink"><g id="Icons"><g><g><path d="M30.6735,39.0482H17.3301c-1.081,0-1.9573-0.8763-1.9573-1.9573v-0.9204l8.463-0.9203     l8.795,0.9203v0.9204C32.6308,38.1719,31.7545,39.0482,30.6735,39.0482z" style="fill:#E52046;"/><polygon points="15.3728,12.75 24.2411,11.9451 32.6308,12.75 32.6308,36.17 15.3728,36.17    " style="fill:#E9F5FF;"/><circle cx="24.00183" cy="37.56393" r="0.64535" style="fill:#FFFFFF;"/><g><g><path d="M20.1592,12.75l-4.79,4.43v1.1l6-5.53H20.1592z M23.1892,12.75l-7.82,7.2v2.9l10.96-10.1       H23.1892z" style="fill:#E9F5FF;"/></g><g><g><g><g style="opacity:0.5;"><polygon points="21.3692,12.75 15.3692,18.28 15.3692,17.18 20.1592,12.75         " style="fill:#FFFFFF;"/><polygon points="26.3292,12.75 15.3692,22.85 15.3692,19.95 23.1892,12.75         " style="fill:#FFFFFF;"/></g></g></g></g></g><g><path d="M30.1678,8.9518H17.8359c-1.3603,0-2.4631,1.1156-2.4631,2.4917v1.3157h17.258v-1.3157      C32.6308,10.0674,31.5281,8.9518,30.1678,8.9518z" style="fill:#E52046;"/><g><g><ellipse cx="26.88467" cy="10.8256" rx="0.36535" ry="0.3287" style="fill:#FFFFFF;"/></g><g><path d="M24.4768,11.1757h-3.7232c-0.1933,0-0.3501-0.1568-0.3501-0.3501        c0-0.1934,0.1568-0.3501,0.3501-0.3501h3.7232c0.1933,0,0.3501,0.1567,0.3501,0.3501        C24.8269,11.0189,24.6701,11.1757,24.4768,11.1757z" style="fill:#FFFFFF;"/></g></g></g></g><g id="Icons_5_"><g><path d="M21.9084,29.5941c-0.1044,0.1365-0.3225,0.0621-0.3217-0.1097l0.0239-0.8761      c0-0.0872-0.0061-0.1726,0.0011-0.2569c0.0273-0.3218,0.0259-0.6505,0.0949-0.9635c0.2379-1.0792,0.502-2.1527,0.752-3.2293      c0.0162-0.0697,0.0102-0.1426-0.0134-0.2101c-0.151-0.4313-0.1981-0.87-0.0917-1.3165      c0.0993-0.4171,0.2972-0.7732,0.7002-0.9708c0.5713-0.2801,1.1596,0.0427,1.1933,0.6726      c0.0138,0.2579-0.0306,0.5265-0.0931,0.7793c-0.1196,0.4841-0.2818,0.9576-0.4042,1.4411      c-0.1219,0.4815,0.1564,0.9817,0.6363,1.1098c0.4164,0.1111,0.7831-0.0028,1.1111-0.2543      c0.2745-0.2105,0.4804-0.4995,0.6296-0.8116c0.3531-0.7389,0.4796-1.525,0.4076-2.3319      c-0.0712-0.7967-0.4761-1.3982-1.2192-1.7247c-0.2641-0.116-0.5586-0.1852-0.8461-0.2212      c-0.7073-0.0886-1.3867,0.0233-1.999,0.4081c-0.8161,0.5128-1.2346,1.2699-1.3086,2.2211      c-0.0312,0.4015-0.007,0.8173,0.254,1.1339c0.2418,0.2933,0.257,0.5687,0.128,0.8903      c-0.0094,0.0234-0.0129,0.0492-0.0197,0.0738c-0.0609,0.2219-0.1687,0.2729-0.3786,0.1768      c-0.3745-0.1713-0.6513-0.4469-0.84-0.809c-0.3015-0.5785-0.387-1.2005-0.2948-1.8365      c0.1728-1.1927,0.8105-2.0849,1.8359-2.7031c0.6136-0.3698,1.2893-0.5455,1.9992-0.5964      c0.9289-0.0665,1.8101,0.0917,2.6015,0.6052c0.8845,0.574,1.4423,1.3806,1.5507,2.4359      c0.1032,1.0039-0.0833,1.9712-0.5955,2.8536c-0.513,0.884-1.2596,1.443-2.2984,1.5514      c-0.6899,0.072-1.2941-0.1006-1.7397-0.6768c-0.0093,0.0015-0.0108,0.0017-0.0201,0.0032      c-0.2788,0.9639-0.3945,1.9796-1.0102,2.8333L21.9084,29.5941z" style="fill:#E52046;"/></g></g></g></g></svg>