<?xml version="1.0" ?><svg style="enable-background:new 0 0 48 48;" version="1.1" viewBox="0 0 48 48" xml:space="preserve" xmlns="http://www.w3.org/2000/svg" xmlns:xlink="http://www.w3.org/1999/xlink"><g id="Icons"><g id="Icons_9_"><g><path d="M19.22423,32.65406l14.0414-7.4678c0.9611-0.5111,0.9612-1.8884,0.0002-2.3997l-13.8682-7.3789     c-0.2795-0.1487-0.6021-0.1952-0.9122-0.1314l-3.3565,0.6905c-0.9496,0.1953-1.3952,1.2936-0.8501,2.0953l2.9996,4.412     c0.2987,0.4393,0.7828,0.717,1.3128,0.753l11.1421,0.7576l-11.3849,0.8471c-0.4139,0.0308-0.7911,0.2491-1.024,0.5927     l-3.0756,4.5366c-0.5484,0.8088-0.0895,1.9147,0.8704,2.0976l3.5578,0.6782     C18.86353,32.77246,19.05663,32.74316,19.22423,32.65406z" style="fill:#E52046;"/></g></g></g></svg>