<?xml version="1.0" ?><svg style="enable-background:new 0 0 48 48;" version="1.1" viewBox="0 0 48 48" xml:space="preserve" xmlns="http://www.w3.org/2000/svg" xmlns:xlink="http://www.w3.org/1999/xlink"><g id="Icons"><g id="Icons_14_"><g><path d="M35.255,22.4901l-5-8c-0.38-0.6201-1.05-0.9901-1.78-0.9901h-8.96c-0.73,0-1.4,0.37-1.78,0.9901     l-4.99,8c-0.41,0.6599-0.42,1.4899-0.04,2.1599l5.1,8.8c0.37,0.65,1.07,1.05,1.81,1.05h8.81c0.75,0,1.45-0.41,1.82-1.06     l5.05-8.79C35.675,23.98,35.665,23.15,35.255,22.4901z M23.995,28.34c-2.4,0-4.35-1.94-4.35-4.34c0-2.3999,1.95-4.35,4.35-4.35     s4.35,1.95,4.35,4.35S26.395,28.34,23.995,28.34z" style="fill:#E52046;"/></g></g></g></svg>