<?xml version="1.0" ?><svg style="enable-background:new 0 0 48 48;" version="1.1" viewBox="0 0 48 48" xml:space="preserve" xmlns="http://www.w3.org/2000/svg" xmlns:xlink="http://www.w3.org/1999/xlink"><g id="Icons"><g><g><path d="M24.041,38.3764c-0.17,0-0.315-0.1211-0.3448-0.2891l-0.6171-3.4941l-0.0054-9.9092     c0-0.1934,0.1567-0.3496,0.3501-0.3496h1.2226c0.1934,0,0.3501,0.1562,0.3501,0.3496v9.8486l-0.6108,3.5537     c-0.0288,0.168-0.1743,0.2901-0.3442,0.2901H24.041z" style="fill:#CCCCCC;"/></g><g><rect height="1.9531" style="opacity:0.1;" width="1.9228" x="23.0737" y="27.3355"/></g><path d="M32.076,27.6854c0.0116-0.0699,0.0116-0.1514,0.0116-0.2213c0-0.4248-0.0861-0.8483-0.2529-1.2391    c-0.1621-0.3801-0.399-0.7274-0.6926-1.0182c-0.2366-0.2345-0.5061-0.4211-0.7987-0.5786    c-0.2807-0.1512-0.6116-0.2098-0.9102-0.3277c-0.8526-0.3368-1.6804-0.8418-2.2632-1.5598    c-0.2837-0.3495-0.2296-0.6862-0.2296-1.1094c0-0.2792,0-0.5584,0-0.8377c0-0.3442,0-0.6885,0-1.0327c0-0.3823,0-0.7647,0-1.147    c0-0.3935,0-0.787,0-1.1804c0-0.3777,0-0.7554,0-1.1331c0-0.335,0-0.67,0-1.005c0-0.2653,0-0.5307,0-0.796    c0-0.1933,0.0002-0.3865-0.0008-0.5798c-0.0007-0.1227,0.0968-0.2369,0.1631-0.3353c0.0773-0.1149,0.1617-0.2251,0.2527-0.3296    c0.1803-0.2071,0.3865-0.3916,0.6133-0.5464c0.1756-0.1198,0.3624-0.2227,0.5561-0.31c0.1693-0.0763,0.3527-0.1098,0.5319-0.1541    c0.1763-0.0435,0.338-0.117,0.4811-0.2304c0.1915-0.1517,0.3409-0.355,0.427-0.5837c0.0561-0.1491,0.0849-0.308,0.0849-0.4673    c0-0.7336-0.6055-1.3392-1.3392-1.3392h-1.7701h-5.939h-1.7236c-0.7254,0-1.3391,0.6137-1.3392,1.3392    c0,0.5322,0.3386,1.0258,0.8287,1.2293c0.0881,0.0365,0.1804,0.0633,0.2745,0.0794c0.2685,0.0458,0.5131,0.1709,0.7466,0.3102    c0.2245,0.134,0.4338,0.2932,0.6206,0.4761c0.1295,0.1267,0.2479,0.2647,0.3541,0.4115c0.092,0.1271,0.2402,0.2958,0.2392,0.4587    c-0.0017,0.2667-0.001,0.5333-0.001,0.8c0,0.2924,0,0.5847,0,0.8771c0,0.3536,0,0.7071,0,1.0607c0,0.3872,0,0.7744,0,1.1616    c0,0.3932,0,0.7865,0,1.1798c0,0.3719,0,0.7437,0,1.1155c0,0.3229,0,0.6457,0,0.9686c0,0.2463,0,0.4926,0,0.7389    c0,0.2651,0.0298,0.4953-0.1312,0.7231c-0.6068,0.8582-1.596,1.4932-2.5821,1.8248c-0.559,0.1514-1.0481,0.4426-1.444,0.8269    c-0.5706,0.5822-0.9316,1.3857-0.9316,2.2591c0,0.0699,0,0.1514,0.0116,0.2213H32.076z" style="fill:#E52046;"/><path d="M20.6885,12.2234c0.9301,0.4651,1.1328,1.7171,1.1328,1.7171v8.3601    c0,0.3556-0.1092,0.7071-0.3135,0.9985c-0.1963,0.2798-0.4579,0.5068-0.7125,0.7318c-0.26,0.2298-0.537,0.429-0.8432,0.5934    c-0.1599,0.0858-0.3257,0.1659-0.495,0.2312c-0.2717,0.1049-0.5637,0.1342-0.8452,0.2026    c-0.6448,0.1566-1.2248,0.5323-1.5119,1.1456c-0.0851,0.1818-0.1433,0.3767-0.1722,0.5754    c-0.0018,0.0125-0.0255,0.2436-0.0183,0.2436h0.7066c-0.0267,0,0.0671-0.4182,0.0809-0.4567    c0.046-0.1279,0.1124-0.2478,0.196-0.355c0.2082-0.2672,0.5109-0.4446,0.8258-0.5581c0.409-0.1473,0.8462-0.1604,1.2498-0.3323    c0.0824-0.0351,0.1535-0.0861,0.2389-0.1183c1.1021-0.5599,1.7048-1.305,2.0033-1.7894c0.1677-0.272,0.2501-0.5827,0.2468-0.9023    l-0.0877-8.4985C22.3699,12.5453,20.6885,12.2234,20.6885,12.2234z" style="fill:#F73161;"/></g></g></svg>