<?xml version="1.0" ?><svg style="enable-background:new 0 0 48 48;" version="1.1" viewBox="0 0 48 48" xml:space="preserve" xmlns="http://www.w3.org/2000/svg" xmlns:xlink="http://www.w3.org/1999/xlink"><g id="Icons"><g><g id="Icons_11_"><g><path d="M36.41498,14.77002v15.46997c0,0.76001-0.62,1.38-1.38,1.38H23.29498      c-0.19,0-0.38,0.06-0.52997,0.17999l-3.60004,2.81l0.81-2.73999c0.04004-0.12-0.06-0.25-0.19-0.25h-6.81995      c-0.76001,0-1.38-0.62-1.38-1.38V14.77997c0-0.76996,0.62-1.38995,1.38995-1.38995h22.06      C35.79498,13.39001,36.41498,14.01001,36.41498,14.77002z" style="fill:#E52046;"/><path d="M28.30486,22.07696h-3.9526v-3.9541c0-0.1934-0.1567-0.3496-0.3501-0.3496      c-0.1934,0-0.3501,0.1562-0.3501,0.3496v3.9541h-3.9531c-0.1934,0-0.3501,0.1563-0.3501,0.3496      c0,0.1934,0.1567,0.3496,0.3501,0.3496h3.9531v3.9532c0,0.1933,0.1567,0.3496,0.3501,0.3496      c0.1934,0,0.3501-0.1563,0.3501-0.3496v-3.9532h3.9526c0.1934,0,0.3501-0.1562,0.3501-0.3496      C28.65496,22.23326,28.49826,22.07696,28.30486,22.07696z" style="fill:#FFFFFF;"/></g></g><g><path d="M36.41498,14.77002v1.39996H11.58502v-1.39001c0-0.76996,0.62-1.38995,1.38995-1.38995h22.06     C35.79498,13.39001,36.41498,14.01001,36.41498,14.77002z" style="fill:#EF4B72;"/></g></g></g></svg>