<?xml version="1.0" ?><svg id="Layer_1" style="enable-background:new 0 0 48 48;" version="1.1" viewBox="0 0 48 48" xml:space="preserve" xmlns="http://www.w3.org/2000/svg" xmlns:xlink="http://www.w3.org/1999/xlink"><path d="M20.03821,28.99101c-0.1978,0.2585-0.6109,0.1176-0.6094-0.2079l0.0452-1.6595  c0-0.1652-0.0115-0.327,0.0021-0.4866c0.0517-0.6095,0.049-1.2322,0.1797-1.825c0.4507-2.0443,0.951-4.0776,1.4245-6.117  c0.0307-0.1321,0.0194-0.27-0.0254-0.398c-0.286-0.8169-0.3752-1.6479-0.1738-2.4936c0.1882-0.7901,0.563-1.4646,1.3264-1.8389  c1.0821-0.5306,2.1965,0.0808,2.2604,1.274c0.0261,0.4885-0.058,0.9974-0.1763,1.4761c-0.2268,0.917-0.534,1.814-0.7657,2.7297  c-0.2309,0.9122,0.2961,1.8596,1.2053,2.1022c0.7887,0.2104,1.4833-0.0053,2.1045-0.4816c0.52-0.3988,0.91-0.9461,1.1926-1.5374  c0.6688-1.3995,0.9086-2.8886,0.7721-4.417c-0.1348-1.509-0.9018-2.6484-2.3093-3.2669c-0.5003-0.2198-1.0582-0.3509-1.6027-0.4191  c-1.3398-0.1677-2.6268,0.0442-3.7866,0.773c-1.5459,0.9714-2.3385,2.4054-2.4787,4.2072c-0.0591,0.7605-0.0133,1.5482,0.4811,2.148  c0.4801,0.5823,0.4495,1.2174,0.1843,1.8945c-0.0401,0.1025-0.088,0.2062-0.1707,0.279c-0.1568,0.1381-0.3599,0.0633-0.5256-0.0125  c-0.7093-0.3246-1.2336-0.8466-1.5911-1.5325c-0.5711-1.0956-0.7329-2.2738-0.5584-3.4786  c0.3273-2.2592,1.5352-3.9493,3.4776-5.1201c1.1622-0.7006,2.4422-1.0335,3.7868-1.1297c1.7595-0.126,3.4288,0.1735,4.9278,1.1463  c1.6754,1.0872,2.7319,2.6151,2.9373,4.614c0.1954,1.9017-0.1578,3.7339-1.1279,5.4053c-0.9719,1.6744-2.386,2.7333-4.3537,2.9387  c-1.3068,0.1364-2.4513-0.1905-3.2954-1.282c-0.0176,0.0028-0.0205,0.0032-0.0381,0.006c-0.5281,1.8258-0.7472,3.7497-1.9136,5.3668  L20.03821,28.99101z" style="fill:#E52046;"/><g><path d="M16.94952,34.23706c0.07764,0.06732,0.17413,0.11285,0.28656,0.11383   c0.07306,0.00061,0.14294-0.01489,0.20697-0.04266c0.14594-0.06195,0.25165-0.19153,0.29712-0.34863   c0.01459-0.04846,0.03088-0.09662,0.03143-0.14948c0.00281-0.27148-0.19171-0.4787-0.45178-0.4812   c-0.20984-0.00214-0.39209,0.12787-0.47943,0.31177c-0.03418,0.07001-0.05762,0.1463-0.06036,0.22931   C16.78003,34.02216,16.8476,34.1499,16.94952,34.23706z" style="fill:#E52046;"/><path d="M16.133,33.51941c-0.33789-0.71143-0.91467-1.11462-1.67438-1.27271   c-0.11859-0.02472-0.23999-0.0354-0.36023-0.05261c-0.10931,0-0.21869,0-0.328,0c-0.02246,0.00409-0.04486,0.00879-0.06738,0.01221   c-0.17419,0.02612-0.35199,0.03772-0.52197,0.08038c-0.80011,0.20074-1.37793,0.6665-1.65704,1.45612   c-0.22626,0.64032-0.18488,1.26453,0.17853,1.85193c0.11578,0.18719,0.2652,0.34186,0.46741,0.43805   c0.07928,0.03784,0.11151,0.02264,0.13269-0.0614c0.03448-0.13629,0.06732-0.27295,0.10071-0.40955   c0.01227-0.05011-0.00031-0.0921-0.02942-0.13593c-0.05219-0.07843-0.1051-0.15802-0.14313-0.24371   c-0.31836-0.71771-0.06226-1.58508,0.59631-2.01978c0.41791-0.27582,0.8808-0.34741,1.36481-0.25903   c0.5672,0.10364,0.9707,0.42133,1.17389,0.97125c0.1004,0.27179,0.11084,0.5542,0.08344,0.83948   c-0.03174,0.3299-0.11133,0.64569-0.28632,0.93097c-0.18512,0.3017-0.435,0.51654-0.79822,0.56854   c-0.48425,0.06927-0.81989-0.31024-0.68457-0.7467c0.06891-0.22241,0.13257-0.44653,0.19672-0.67041   c0.05945-0.20801,0.12115-0.41559,0.1073-0.63641c-0.0213-0.33746-0.29871-0.54041-0.62482-0.45306   c-0.21521,0.05756-0.3537,0.20599-0.44421,0.3999c-0.16022,0.34308-0.14221,0.69226-0.02032,1.04266   c0.00983,0.0282,0.01843,0.06219,0.01202,0.08984c-0.12061,0.51929-0.24432,1.03784-0.3656,1.55695   c-0.05151,0.22064-0.11212,0.43921-0.1217,0.66821c-0.01477,0.35022,0.01593,0.69702,0.06714,1.0426   c0.00348,0.02368,0.02356,0.0448,0.03589,0.0672c0.01898-0.0141,0.04401-0.02429,0.05615-0.04279   c0.203-0.30719,0.39911-0.6203,0.52374-0.96753c0.09619-0.26776,0.16077-0.547,0.23816-0.82147   c0.03162-0.112,0.05994-0.22498,0.09271-0.34882c0.11053,0.1748,0.26172,0.28003,0.43823,0.3526   c0.3147,0.12939,0.6344,0.1106,0.9516,0.01831c0.54639-0.159,0.92651-0.5202,1.19067-1.01239   c0.1908-0.35541,0.28369-0.7384,0.30951-1.13989C16.34772,34.23212,16.29681,33.86444,16.133,33.51941z" style="fill:#E52046;"/><path d="M36.46997,36.67999c-0.06995-0.01001-0.14996,0-0.21997,0   c-0.07001-0.01001-0.09998,0.02002-0.13,0.09003c-0.02997,0.08997-0.08002,0.19-0.13,0.27997   c-0.06,0.09003-0.14996,0.15002-0.26001,0.16998c-0.22998,0.05005-0.38-0.06995-0.37-0.29999   C35.37,36.87,35.37,36.81,35.39001,36.76001C35.46997,36.44,35.54999,36.12,35.63,35.78998   c0.03998-0.16998,0.08997-0.34998,0.13-0.52997h0.58997c0.12,0,0.15002-0.03003,0.18005-0.14001   c0.02997-0.09998,0.04999-0.20001,0.07996-0.31c0.02002-0.10999-0.01001-0.14001-0.12-0.14001h-0.58002   c0.02002-0.08997,0.04004-0.15997,0.06-0.22998c0.07001-0.27002,0.14001-0.53998,0.15002-0.82001   c0.03003-0.53998-0.28998-1.02997-0.78998-1.26001c-0.29999-0.14001-0.62-0.17999-0.94-0.14001   c-0.40002,0.05005-0.75,0.20001-1.02002,0.51001c-0.42999,0.48004-0.51001,1.23004-0.20001,1.81   c0.01001,0.02002,0.02002,0.04004,0.03003,0.06c-0.03003,0-0.04999,0.01001-0.08002,0c-0.25,0-0.5,0.03003-0.72998,0.13   c-0.44,0.20001-0.66003,0.64001-0.54999,1.10004c0.06,0.26001,0.22998,0.42999,0.45996,0.53998   c0.20001,0.09998,0.40002,0.16003,0.60004,0.23999C33.01001,36.65002,33.12,36.69,33.21997,36.75   c0.11005,0.06,0.17004,0.15997,0.16003,0.29999c-0.02002,0.13-0.10999,0.20001-0.22003,0.23004   c-0.33997,0.07996-0.64996,0.06-0.94995-0.13c-0.04004-0.03003-0.08002-0.07001-0.12-0.11005   C32.09998,37.02002,32.10999,37.01001,32.12,37c0.15002-0.19,0.03998-0.46997-0.20001-0.52002   c-0.18549-0.02527-0.33478,0.0752-0.42969,0.23932l-0.01031-0.00928c-0.32996,0.38995-0.87,0.62-1.35999,0.56   c-0.40002-0.04004-0.60999-0.36005-0.58997-0.79004c0.00995,0,0.00995,0,0.01996,0s0.02002,0.01001,0.04004,0.01001   c0.40997,0.10999,0.81995,0.10999,1.22998-0.02997c0.54999-0.19,0.72998-0.64001,0.67999-1.10004   c-0.03003-0.32996-0.25-0.53998-0.54999-0.64996c-0.47003-0.16003-0.92999-0.10004-1.35999,0.14996   c-0.40387,0.2348-0.64465,0.56976-0.78058,0.98199c-0.05957-0.01233-0.13721-0.03326-0.18945-0.04199   c0-0.02997,0.01001-0.04999,0.01001-0.07001c0.02002-0.13,0.06-0.26001,0.06-0.38995   c0.02997-0.42004-0.26001-0.76001-0.78003-0.72003c-0.27997,0.03003-0.5,0.16998-0.69,0.37c-0.06,0.06-0.12,0.13-0.18994,0.21002   c0.03998-0.13,0.06995-0.25,0.09998-0.35999c0.02002-0.10004-0.01001-0.15002-0.12-0.15002H26.5   c-0.09998,0-0.14001,0.02997-0.16998,0.13c-0.10004,0.39001-0.19,0.78998-0.29999,1.17999   c-0.04004,0.16998-0.07001,0.34998-0.16003,0.51001c-0.27997,0.5-0.91998,0.83002-1.48999,0.76001   c-0.41003-0.05005-0.60999-0.36005-0.59003-0.79004c0.01001,0,0.01001,0,0.01001,0c0.02002,0,0.03003,0.01001,0.04999,0.01001   c0.41003,0.10004,0.82001,0.10999,1.23004-0.02997C25.63,36.26001,25.81,35.81,25.76001,35.34998   c-0.03003-0.32996-0.25-0.53998-0.54999-0.63995c-0.47003-0.17004-0.92999-0.11005-1.36005,0.13995   c-0.53998,0.32001-0.79999,0.82001-0.88995,1.42004c-0.04004,0.26001-0.13,0.5-0.30005,0.70996   c-0.08997,0.11005-0.19,0.21002-0.33997,0.23999c-0.20001,0.05005-0.35004-0.06-0.35004-0.26996   c0-0.04999,0.01001-0.10999,0.02002-0.16998c0.12-0.49005,0.23999-0.98004,0.37-1.48004   c0.01001-0.03998,0.03003-0.03998,0.06-0.03998h0.51001c0.09003,0,0.13-0.03003,0.15002-0.12   c0.02997-0.10999,0.06-0.22003,0.07996-0.33002c0.03003-0.09998,0-0.14001-0.10999-0.14001h-0.45996   c-0.02002,0-0.04004-0.01001-0.07001-0.01001c0.01001-0.01996,0.01001-0.03998,0.01001-0.06   C22.58002,34.40002,22.63,34.20001,22.67999,34c0.03003-0.12,0.06-0.23999,0.09003-0.35999   c0.02997-0.10999-0.02002-0.17004-0.14001-0.16003c-0.02002,0-0.03998,0.01001-0.04999,0.01001   c-0.14001,0.03003-0.28003,0.06-0.41003,0.08002s-0.20001,0.08997-0.22998,0.21002c-0.06,0.26996-0.13,0.53998-0.19,0.81   c-0.02002,0.06-0.03998,0.07996-0.09998,0.07996c-0.13-0.01001-0.25-0.01001-0.37,0c-0.09003,0-0.13,0.03003-0.15002,0.11005   c-0.03003,0.10999-0.06,0.22998-0.09003,0.34998c-0.01996,0.08002,0.02002,0.13,0.11005,0.13h0.41998   c0,0.02002,0,0.03998-0.01001,0.04999c-0.09003,0.37-0.17999,0.72998-0.27002,1.09998c-0.06,0.21002-0.13,0.42004-0.25,0.60004   c-0.07001,0.09998-0.13995,0.17999-0.25995,0.20996C20.60999,37.27002,20.46002,37.17999,20.45001,37   c-0.01001-0.06-0.01001-0.13,0-0.19c0.06-0.27002,0.13-0.53998,0.20001-0.81c0.06-0.22998,0.12-0.45001,0.10999-0.67999   c-0.02002-0.35999-0.22003-0.60999-0.56-0.67999c-0.41003-0.07001-0.75,0.06-1.04999,0.33997   C19.14001,34.98999,19.13,35.01001,19.12,35.02002c0,0-0.01001-0.01001-0.02002-0.01001   c0.02002-0.06,0.04004-0.10999,0.05005-0.16998c0.02997-0.10004-0.01001-0.15002-0.11005-0.15002h-0.48999   c-0.13,0-0.15997,0.02002-0.20001,0.15002c-0.10999,0.44-0.21997,0.87-0.32996,1.31c-0.06,0.25995-0.13,0.50995-0.29004,0.72998   c-0.08997,0.14001-0.19995,0.26001-0.37,0.33002C17.12,37.29999,16.95001,37.19,16.96997,36.91998   C16.97998,36.81,17,36.69,17.03003,36.57001c0.14996-0.57001,0.28998-1.15002,0.43994-1.72003   c0.03003-0.12,0-0.15997-0.12994-0.15997h-0.48004c-0.12,0-0.14996,0.02997-0.17999,0.14001   c-0.15997,0.63-0.32001,1.26001-0.47998,1.89996c-0.04999,0.20001-0.10004,0.41003-0.06,0.63   c0.03998,0.23004,0.15997,0.40002,0.39001,0.47003c0.09998,0.01996,0.19995,0.02997,0.28998,0.02997   c0.32001,0,0.58002-0.14001,0.79999-0.35999c0.02002-0.01001,0.03998-0.03003,0.04999-0.04999   c0,0.07001-0.01001,0.14001-0.02997,0.20001C17.62,37.75,17.65002,37.78998,17.75,37.78998   c0.16998,0.01001,0.34003,0.01001,0.51001,0c0.10999,0,0.14996-0.01996,0.17999-0.13c0.10999-0.46997,0.22998-0.94,0.34998-1.40997   c0.05005-0.17999,0.10004-0.37,0.17999-0.54999c0.10004-0.23999,0.29004-0.40002,0.55005-0.44   c0.23999-0.03003,0.39996,0.08002,0.41998,0.28998c0,0.04999-0.01001,0.10004-0.02002,0.15002   c-0.07996,0.34998-0.16998,0.70001-0.25,1.04999C19.62,36.94,19.59003,37.14001,19.62,37.34998   c0.04999,0.27002,0.21002,0.45001,0.47998,0.5c0.36005,0.06,0.68005-0.03998,0.95001-0.28998   c0.04004-0.03998,0.08002-0.08002,0.10999-0.12c0.01001,0.01001,0.02002,0.01001,0.02002,0.02002   c0,0.00995,0.01001,0.01996,0.01001,0.02997c0.07001,0.17999,0.20001,0.29004,0.39001,0.34003   C21.75,37.88,21.91998,37.87,22.09003,37.84003c0.37-0.07001,0.63995-0.29004,0.84998-0.59003   c0.02997-0.03003,0.04999-0.07001,0.08002-0.10999c0.01001,0.01001,0.01996,0.01996,0.01996,0.02997   c0.17999,0.37,0.48004,0.59003,0.88,0.66003c0.60004,0.10999,1.14001-0.04004,1.61005-0.42004   c0.06-0.04999,0.12-0.10999,0.18994-0.16998C25.67999,37.38,25.65002,37.51001,25.62,37.64001   c-0.02997,0.12,0,0.15997,0.12,0.15997h0.47998c0.12006,0,0.16003-0.02997,0.19-0.14001   c0.05005-0.20996,0.10004-0.40997,0.15002-0.60999c0.09998-0.39001,0.21002-0.76996,0.38-1.14001   c0.09003-0.19,0.20001-0.37994,0.35999-0.52997c0.09003-0.08002,0.19-0.14001,0.32001-0.16003   c0.20001-0.02997,0.33002,0.10004,0.29999,0.31006c0,0.01996-0.01001,0.03998-0.01001,0.06995   c-0.00995,0.04004-0.02997,0.06-0.08997,0.05005c-0.21002-0.02002-0.35004,0.08997-0.38,0.27997   c-0.03003,0.16998,0.08002,0.32001,0.27002,0.37c0.19995,0.06,0.38995,0.02002,0.57996-0.08002   c0.02002-0.00995,0.05005-0.01996,0.08002-0.00995c0.09003,0.00995,0.19,0.03998,0.28003,0.06   c0.03046,0,0.04932,0.02972,0.05878,0.05756c-0.03326,0.27063-0.04749,0.61169,0.07123,0.84241   c0.17999,0.38,0.47998,0.60004,0.87994,0.67004c0.60004,0.09998,1.14001-0.05005,1.61005-0.43005   c0.05353-0.04456,0.14404-0.11176,0.2132-0.16864L31.51001,37.31C31.63,37.5,31.81,37.63,32.02002,37.71997   c0.33997,0.14001,0.69995,0.18005,1.06,0.13c0.23999-0.02997,0.46997-0.09998,0.66998-0.23999   c0.31-0.22998,0.44-0.54999,0.38-0.92999c-0.03998-0.25-0.20001-0.41998-0.41003-0.52997   c-0.21997-0.11005-0.44995-0.19-0.66998-0.28003c-0.10999-0.04999-0.21997-0.08997-0.31-0.14001   c-0.12-0.07001-0.17999-0.17999-0.15997-0.31c0.01996-0.13995,0.12-0.20996,0.25-0.23999   c0.17999-0.03998,0.35999-0.02002,0.53998,0.02002c0.04999,0.01001,0.08002,0.02997,0.09998,0.08002   c0.06006,0.13995,0.16003,0.25995,0.33002,0.31c0.22003,0.06995,0.40002-0.03003,0.44-0.24005   c0.02002-0.12-0.01001-0.22998-0.08002-0.31995c-0.06-0.07001-0.12994-0.13-0.19-0.20001   c-0.08997-0.09003-0.17999-0.17999-0.25995-0.28003c-0.22003-0.28998-0.26001-0.62-0.22003-0.96997   c0.03003-0.23999,0.12-0.45001,0.29004-0.62c0.26996-0.28003,0.60999-0.34003,0.96997-0.28003   c0.29999,0.04999,0.5,0.22998,0.59003,0.52002C35.37,33.32001,35.38,33.44,35.37,33.56c-0.02002,0.37-0.13,0.71002-0.23999,1.06   c-0.01001,0.03998-0.03003,0.04999-0.06,0.04999c-0.13,0-0.27002-0.01001-0.40002,0c-0.07996,0-0.10999,0.03003-0.13,0.10004   c-0.03998,0.12-0.07001,0.23999-0.08997,0.35999c-0.02002,0.08002,0.01001,0.13,0.08997,0.13h0.42999   c-0.00995,0.02002-0.00995,0.03998-0.00995,0.04999c-0.12,0.47003-0.24005,0.94-0.35004,1.40997   c-0.04999,0.18005-0.08997,0.36005-0.07001,0.55005c0.02002,0.28998,0.20001,0.51996,0.49005,0.57001   c0.37,0.06995,0.71997-0.01001,1.01996-0.25c0.26001-0.22003,0.40002-0.51001,0.5-0.82001   C36.56,36.71002,36.53003,36.67999,36.46997,36.67999z M29.85999,35.42999c0.16003-0.15997,0.35004-0.21997,0.57001-0.17999   c0.14001,0.03003,0.22998,0.13,0.25,0.27002c0.03003,0.26001-0.09998,0.46997-0.34998,0.56   c-0.22003,0.07001-0.42999,0.04999-0.65002,0c-0.03998-0.01001-0.07001-0.02002-0.10999-0.03003   C29.60999,35.81,29.69,35.59998,29.85999,35.42999z M24.12,35.41998c0.16003-0.15997,0.34998-0.21997,0.57001-0.17999   c0.14001,0.03003,0.22998,0.13,0.25,0.27002c0.02997,0.26001-0.09998,0.46997-0.34998,0.56   c-0.22003,0.08002-0.44,0.04999-0.65002,0c-0.03998,0-0.07001-0.01001-0.10999-0.03003   C23.87,35.81,23.95001,35.59003,24.12,35.41998z" style="fill:#E52046;"/></g></svg>