<?xml version="1.0" ?><svg style="enable-background:new 0 0 48 48.00004;" version="1.1" viewBox="0 0 48 48.00004" xml:space="preserve" xmlns="http://www.w3.org/2000/svg" xmlns:xlink="http://www.w3.org/1999/xlink"><g id="Icons"><g id="Icons_4_"><g><path d="M39.345,24.00502c0,8.47-6.87,15.34-15.35,15.34c-1.39,0-2.7401-0.19-4.02-0.53     c1.18-2.12,2.0299-6.64,2.5999-8.58c0.0201-0.01,0.0201-0.01,0.0401-0.01c0.97,1.25,2.2799,1.63,3.7799,1.47     c2.2601-0.23,3.8801-1.45,4.99-3.37c1.12-1.92,1.5201-4.02,1.3001-6.2c-0.2401-2.29-1.45-4.05-3.3701-5.29     c-1.7199-1.12-3.6399-1.46-5.6499-1.32c-1.55,0.11-3.01,0.49-4.3501,1.3c-2.2299,1.34-3.61,3.28-3.99,5.87     c-0.1999,1.38-0.01,2.73,0.6401,3.99c0.41,0.79,1.01,1.39,1.83,1.76c0.2099,0.1,0.5,0.18,0.67-0.05     c0.06-0.08,0.0999-0.19,0.13-0.29c0.25-0.79,0.3499-1.45-0.2101-2.14c-0.57-0.69-0.62-1.59-0.56-2.46     c0.1601-2.07,1.07-3.72,2.8501-4.83c1.3299-0.84,2.8-1.08,4.3399-0.89c0.63,0.08,1.2701,0.23,1.8401,0.48     c1.61,0.71,2.49,2.02,2.6499,3.75c0.1601,1.75-0.12,3.46-0.8899,5.07c-0.32,0.68-0.77,1.3-1.3601,1.76     c-0.7199,0.55-1.5099,0.8-2.4199,0.55c-1.04-0.27-1.65-1.36-1.38-2.41c0.26-1.05,0.62-2.08,0.88-3.13     c0.13-0.55,0.2299-1.13,0.2-1.69c-0.07-1.37-1.35-2.07-2.5901-1.46c-0.88,0.43-1.31,1.2-1.5299,2.11     c-0.23,0.97-0.12,1.92,0.2,2.86c0.05,0.14,0.07,0.3,0.0299,0.45c-0.2099,0.9-0.4199,1.79-0.63,2.69     c-0.26,1.1-0.5299,2.2001-0.7899,3.3c-0.23,1-0.4701,2.01-0.7,3.0201c-0.23,1.0099-0.31,2.0199-0.4,3.0499     c-5.5601-2.2999-9.47-7.78-9.47-14.1699c0-8.4801,6.87-15.3501,15.34-15.3501C32.475,8.65502,39.345,15.52502,39.345,24.00502z" style="fill:#E52046;"/></g></g></g></svg>