<?xml version="1.0" ?><svg style="enable-background:new 0 0 48 48;" version="1.1" viewBox="0 0 48 48" xml:space="preserve" xmlns="http://www.w3.org/2000/svg" xmlns:xlink="http://www.w3.org/1999/xlink"><g id="Icons"><g><path d="M24.04095,38.3764c-0.1699,0-0.3149-0.1211-0.3447-0.2891l-0.6172-3.4941l-0.0054-9.9092    c0-0.1933,0.1568-0.3496,0.3501-0.3496h1.2227c0.1933,0,0.3501,0.1563,0.3501,0.3496v9.8486l-0.6109,3.5538    c-0.0288,0.1679-0.1743,0.29-0.3442,0.29H24.04095z" style="fill:#CCCCCC;"/><path d="M29.05675,12.2442c0.1763-0.0435,0.338-0.117,0.4811-0.2304    c0.1915-0.1517,0.3408-0.3549,0.4269-0.5837c0.0561-0.149,0.0849-0.308,0.0849-0.4673c0-0.7337-0.6055-1.3392-1.3391-1.3392    h-1.7701h-5.9391h-1.7235c-0.7255,0-1.3392,0.6137-1.3392,1.3392c0,0.5322,0.3386,1.0258,0.8286,1.2293    c0.0882,0.0365,0.1804,0.0633,0.2745,0.0794h9.9019C28.98135,12.2626,29.01915,12.2535,29.05675,12.2442z" style="fill:#E6E6E6;"/><rect height="1.9531" style="opacity:0.1;" width="1.9229" x="23.07365" y="27.2277"/><path d="M31.83475,26.225c-0.1622-0.3801-0.3991-0.7274-0.6926-1.0182    c-0.2367-0.2345-0.5062-0.4211-0.7988-0.5786c-0.2807-0.1512-0.6115-0.2097-0.9101-0.3277    c-0.8526-0.3368-1.6805-0.8418-2.2633-1.5598c-0.2836-0.3495-0.2295-0.6862-0.2295-1.1093c0-0.2793,0-0.5585,0-0.8378    c0-0.3442,0-0.6884,0-1.0327c0-0.3824,0-0.7647,0-1.147c0-0.3935,0-0.787,0-1.1804c0-0.3778,0-0.7555,0-1.1331    c0-0.335,0-0.67,0-1.005c0-0.2653,0-0.5307,0-0.796c0-0.1932,0.0002-0.3865-0.0009-0.5798    c-0.0006-0.1227,0.0969-0.2369,0.1631-0.3353c0.0774-0.1149,0.1618-0.2252,0.2528-0.3297    c0.1803-0.207,0.3865-0.3915,0.6133-0.5463c0.1755-0.1198,0.3624-0.2227,0.5561-0.31c0.1338-0.0603,0.2764-0.0935,0.4188-0.1268    h-9.9019c0.2686,0.0458,0.5131,0.1709,0.7467,0.3102c0.2244,0.1339,0.4337,0.2932,0.6206,0.4761    c0.1295,0.1267,0.2478,0.2647,0.354,0.4115c0.092,0.1271,0.2403,0.2958,0.2393,0.4587c-0.0017,0.2667-0.001,0.5334-0.001,0.8    c0,0.2924,0,0.5848,0,0.8771c0,0.3536,0,0.7071,0,1.0607c0,0.3872,0,0.7744,0,1.1615c0,0.3934,0,0.7867,0,1.1799    c0,0.3719,0,0.7437,0,1.1156c0,0.3228,0,0.6456,0,0.9685c0,0.2463,0,0.4926,0,0.7388c0,0.2652,0.0297,0.4954-0.1313,0.7232    c-0.6067,0.8583-1.5959,1.4932-2.5821,1.8249c-0.5589,0.1514-1.048,0.4425-1.444,0.8268    c-0.5706,0.5822-0.9316,1.3858-0.9316,2.2591c0,0.0699,0,0.1514,0.0117,0.2213h16.1519c0.0117-0.0699,0.0117-0.1514,0.0117-0.2212    C32.08765,27.0393,32.00145,26.6159,31.83475,26.225z" style="fill:#E52046;"/><path d="M20.69825,12.2715c0.9302,0.4651,1.1231,1.6691,1.1231,1.6691v8.36    c0,0.3557-0.1093,0.7072-0.3136,0.9985c-0.1962,0.2799-0.4579,0.5069-0.7124,0.7318c-0.2601,0.2298-0.537,0.429-0.8433,0.5935    c-0.1598,0.0858-0.3256,0.1658-0.4949,0.2312c-0.2718,0.1049-0.5638,0.1342-0.8452,0.2025    c-0.6449,0.1566-1.2249,0.5323-1.512,1.1456c-0.0851,0.1818-0.1433,0.3768-0.1721,0.5754    c-0.0019,0.0126-0.0255,0.2436-0.0183,0.2436c0.0003,0,0.7065,0,0.7065,0c-0.0267,0,0.0671-0.4182,0.0809-0.4566    c0.046-0.128,0.1125-0.2479,0.196-0.3551c0.2083-0.2671,0.5109-0.4446,0.8258-0.5581c0.409-0.1473,0.8463-0.1604,1.2498-0.3323    c0.0824-0.0351,0.1536-0.0861,0.2389-0.1183c1.1022-0.5598,1.7048-1.305,2.0033-1.7893c0.1677-0.2721,0.2501-0.5828,0.2468-0.9023    l-0.0877-8.4986C22.36985,12.5454,20.69825,12.2715,20.69825,12.2715z" style="fill:#F73161;"/></g></g></svg>