<?xml version="1.0" ?><!DOCTYPE svg  PUBLIC '-//W3C//DTD SVG 1.1//EN'  'http://www.w3.org/Graphics/SVG/1.1/DTD/svg11.dtd'><svg style="enable-background:new 0 0 499.997 499.992;" version="1.1" viewBox="0 0 499.997 499.992" xml:space="preserve" xmlns="http://www.w3.org/2000/svg" xmlns:xlink="http://www.w3.org/1999/xlink"><g id="cpu-processoe"><g><path d="M250.001,0C111.93,0,0,111.92,0,249.996c0,138.066,111.93,249.996,250.001,249.996    c138.066,0,249.996-111.93,249.996-249.996C499.997,111.92,388.067,0,250.001,0z" style="fill:#656D78;"/><g id="_x33_3"><path d="M323.162,153.642H177.286c-13.563,0-24.604,11.036-24.604,24.609v145.871     c0,13.553,11.041,24.584,24.604,24.584h145.876c13.553,0,24.589-11.031,24.589-24.584V178.251     C347.751,164.678,336.716,153.642,323.162,153.642z M332.626,323.788c0,5.414-4.385,9.813-9.794,9.813H177.596     c-5.404,0-9.784-4.4-9.784-9.813V178.552c0-5.39,4.38-9.789,9.784-9.789h145.236c5.409,0,9.794,4.4,9.794,9.789V323.788z" style="fill:#FFFFFF;"/><path d="M197.888,145.9h-18.38v-16.149c0-2.183,1.766-3.944,3.939-3.944h10.492     c2.183,0,3.949,1.761,3.949,3.944V145.9z M238.902,129.751c0-2.183-1.775-3.944-3.944-3.944h-10.492     c-2.183,0-3.939,1.761-3.939,3.944V145.9h18.375V129.751z M279.917,129.751c0-2.183-1.766-3.944-3.944-3.944h-10.497     c-2.183,0-3.939,1.761-3.939,3.944V145.9h18.38V129.751z M316.992,125.808H306.49c-2.178,0-3.944,1.761-3.944,3.944V145.9h18.375     v-16.149C320.921,127.569,319.161,125.808,316.992,125.808z M125.818,306.053v10.488c0,2.173,1.766,3.949,3.939,3.949h16.158     v-18.385h-16.158C127.584,302.104,125.818,303.875,125.818,306.053z M125.818,265.029v10.497c0,2.178,1.766,3.949,3.939,3.949     h16.158V261.09h-16.158C127.584,261.09,125.818,262.86,125.818,265.029z M125.818,224.019v10.507     c0,2.178,1.766,3.929,3.939,3.929h16.158V220.09h-16.158C127.584,220.09,125.818,221.841,125.818,224.019z M125.818,183v10.512     c0,2.173,1.766,3.929,3.939,3.929h16.158v-18.375h-16.158C127.584,179.066,125.818,180.827,125.818,183z M302.114,370.235     c0,2.183,1.766,3.944,3.939,3.944h10.502c2.173,0,3.939-1.761,3.939-3.944v-16.153h-18.38V370.235z M261.1,370.235     c0,2.183,1.761,3.944,3.934,3.944h10.502c2.183,0,3.939-1.761,3.939-3.944v-16.153H261.1V370.235z M220.085,370.235     c0,2.183,1.766,3.944,3.944,3.944h10.497c2.183,0,3.934-1.761,3.934-3.944v-16.153h-18.376V370.235z M179.081,370.235     c0,2.183,1.761,3.944,3.929,3.944h10.502c2.178,0,3.939-1.761,3.939-3.944v-16.153h-18.37V370.235z M370.245,179.498h-16.158     v18.39h16.158c2.173,0,3.939-1.775,3.939-3.953v-10.488C374.184,181.273,372.418,179.498,370.245,179.498z M370.245,220.522     h-16.158v18.375h16.158c2.173,0,3.939-1.775,3.939-3.944v-10.492C374.184,222.283,372.418,220.522,370.245,220.522z      M370.245,261.531h-16.158v18.366h16.158c2.173,0,3.939-1.751,3.939-3.929v-10.507     C374.184,263.292,372.418,261.531,370.245,261.531z M370.245,302.546h-16.158v18.37h16.158c2.173,0,3.939-1.756,3.939-3.929     v-10.512C374.184,304.307,372.418,302.546,370.245,302.546z" style="fill:#848A93;"/><path d="M180.517,194.783v112.774c0,7.334,5.996,13.32,13.301,13.32h112.783     c7.33,0,13.311-5.986,13.311-13.32V194.783c0-7.305-5.981-13.306-13.311-13.306H193.818     C186.513,181.477,180.517,187.477,180.517,194.783z" style="fill:#DFC97A;"/><path d="M227.241,270.53c-1.81,0.902-5.879,1.872-11.176,1.872c-15.043,0-22.795-9.362-22.795-21.761     c0-14.854,10.589-23.119,23.765-23.119c5.103,0,8.979,1.033,10.72,1.935l-2.003,7.815c-1.999-0.839-4.778-1.615-8.266-1.615     c-7.81,0-13.883,4.715-13.883,14.402c0,8.717,5.166,14.208,13.951,14.208c2.968,0,6.262-0.645,8.198-1.421L227.241,270.53z      M233.692,228.812c3.037-0.514,7.3-0.902,13.306-0.902c6.069,0,10.396,1.159,13.301,3.488c2.78,2.193,4.652,5.812,4.652,10.071     c0,4.264-1.422,7.883-4.007,10.333c-3.357,3.168-8.329,4.589-14.14,4.589c-1.29,0-2.454-0.068-3.356-0.194v15.562h-9.755V228.812     z M243.448,248.574c0.839,0.194,1.872,0.257,3.289,0.257c5.234,0,8.46-2.649,8.46-7.102c0-4.007-2.775-6.393-7.684-6.393     c-1.998,0-3.357,0.194-4.065,0.388V248.574z M281.027,228.23v25.06c0,7.49,2.843,11.298,7.878,11.298     c5.167,0,8.009-3.614,8.009-11.298v-25.06h9.813v24.415c0,13.427-6.781,19.821-18.147,19.821     c-10.978,0-17.434-6.069-17.434-19.952V228.23H281.027z" style="fill:#E9D9A2;"/></g></g></g><g id="Layer_1"/></svg>