<?xml version="1.0" ?><!DOCTYPE svg  PUBLIC '-//W3C//DTD SVG 1.1//EN'  'http://www.w3.org/Graphics/SVG/1.1/DTD/svg11.dtd'><svg style="enable-background:new 0 0 499.997 500.002;" version="1.1" viewBox="0 0 499.997 500.002" xml:space="preserve" xmlns="http://www.w3.org/2000/svg" xmlns:xlink="http://www.w3.org/1999/xlink"><g id="microphone"><g><path d="M250.001,0C111.925,0,0,111.93,0,249.996c0,138.076,111.925,250.006,250.001,250.006    c138.062,0,249.996-111.93,249.996-250.006C499.997,111.93,388.063,0,250.001,0z" style="fill:#F2955C;"/><g id="_x33_1"><path d="M134.404,220.076c19.603,21.946,53.292,23.837,75.243,4.22     c21.936-19.603,23.832-53.287,4.22-75.233c-19.612-21.941-53.292-23.833-75.243-4.23     C116.684,164.451,114.797,198.135,134.404,220.076z" style="fill:#656D78;"/><path d="M134.991,220.706l79.283-71.167c4.589,5.258,7.946,11.176,10.124,17.386l-73.214,65.72     C145.241,229.807,139.72,225.838,134.991,220.706z" style="fill:#CCD1D9;"/><path d="M133.332,226.615c2.683,2.998,7.296,3.255,10.303,0.577l76.237-68.131     c3.012-2.687,3.27-7.305,0.587-10.313l-2.086-2.328c-2.697-3.003-7.31-3.265-10.318-0.582l-76.232,68.126     c-3.003,2.692-3.269,7.301-0.577,10.313L133.332,226.615z" style="fill:#CFD5E1;"/><path d="M299.732,319.98c10.304,12.307,20.898,24.429,32.123,35.901     c11.686,11.934,28.655,3.42,26.001-13.282c-1.193-7.548-6.495-15.552-9.256-22.76c-11.491-30.047-10.449-64.017,26.19-72.487     c4.385-1.019,6.243,5.724,1.858,6.743c-24.662,5.695-31.211,24.095-26.375,47.204c1.926,9.129,5.346,17.967,9.101,26.471     c3.226,7.344,7.572,15.217,5.491,23.546c-3.754,15.043-19.777,22.212-33.141,13.844c-8.756-5.496-16.037-16.193-22.824-23.852     c-4.773-5.389-9.479-10.861-14.111-16.376C291.927,321.494,296.836,316.521,299.732,319.98L299.732,319.98z" style="fill:#EFEFF0;"/><path d="M286.005,344.23c1.528,1.485,4.07,1.552,5.661,0.131l27.999-25.031     c1.601-1.416,1.819-3.958,0.51-5.636l-87.501-111.833c-1.309-1.669-2.823-0.786-4.41,0.631l-42.465,37.953     c-1.591,1.416-2.765,2.92-1.247,4.424L286.005,344.23z" style="fill:#FFFFFF;"/><path d="M235.196,270.511l-12.307-13.718c-2.508-2.78-2.28-7.092,0.509-9.595l7.694-6.913     c2.794-2.504,7.102-2.28,9.605,0.519l12.312,13.709c2.508,2.799,2.28,7.107-0.519,9.61l-7.689,6.908     C242.012,273.533,237.694,273.31,235.196,270.511z M225.344,249.356c-1.596,1.436-1.727,3.905-0.296,5.501l12.307,13.714     c1.441,1.596,3.905,1.737,5.506,0.301l7.689-6.903c1.6-1.445,1.732-3.905,0.296-5.501l-12.307-13.714     c-1.436-1.605-3.905-1.737-5.506-0.296L225.344,249.356z" style="fill:#EFEFF0;"/><path d="M236.278,269.536c1.97,2.198,5.36,2.396,7.548,0.408l7.698-6.898     c2.197-1.974,2.377-5.351,0.402-7.558l-12.307-13.709c-1.97-2.197-5.36-2.382-7.553-0.407l-7.689,6.908     c-2.207,1.97-2.387,5.351-0.412,7.543L236.278,269.536z" style="fill:#DFC97A;"/><path d="M235.031,197.16c0.708,0.8,0.641,2.023-0.15,2.736l-52.409,46.835     c-0.796,0.713-2.023,0.65-2.731-0.151l-5.36-6.001c-0.703-0.786-0.635-2.008,0.155-2.726l52.414-46.835     c0.791-0.713,2.023-0.645,2.731,0.151L235.031,197.16z" style="fill:#848A93;"/><path d="M183.554,238.005l48.926-43.711l2.551,2.867c0.708,0.8,0.641,2.023-0.15,2.736l-52.409,46.835     c-0.796,0.713-2.023,0.65-2.731-0.151l-1.771-1.965c1.339-1.567,2.639-3.163,3.949-4.691     C182.467,239.295,183.015,238.655,183.554,238.005z" style="fill:#E6E9ED;"/></g></g></g><g id="Layer_1"/></svg>