<?xml version="1.0" ?><!DOCTYPE svg  PUBLIC '-//W3C//DTD SVG 1.1//EN'  'http://www.w3.org/Graphics/SVG/1.1/DTD/svg11.dtd'><svg style="enable-background:new 0 0 499.997 499.993;" version="1.1" viewBox="0 0 499.997 499.993" xml:space="preserve" xmlns="http://www.w3.org/2000/svg" xmlns:xlink="http://www.w3.org/1999/xlink"><g id="memory-card"><g><path d="M249.996,0C111.93,0,0,111.93,0,249.997c0,138.066,111.93,249.996,249.996,249.996    c138.071,0,250.001-111.93,250.001-249.996C499.997,111.93,388.067,0,249.996,0z" style="fill:#7DBEBD;"/><g id="_x31_2"><g><path d="M366.704,187.172v148.493c0,16.319-13.224,29.557-29.562,29.557H162.83      c-16.318,0-29.566-13.238-29.566-29.557V164.334c0-16.331,13.248-29.568,29.566-29.568h156.5c0,0,9.891,0.051,14.155,2.093      c4.269,2.047,7.757,6.946,7.757,6.946l20.374,26.569c0,0,2.329,2.998,3.852,6.903      C366.985,181.179,366.704,187.172,366.704,187.172z" style="fill:#FFFFFF;"/><path d="M358.807,192.234v137.625c0,15.215-12.336,27.565-27.568,27.565H168.734      c-15.217,0-27.558-12.35-27.558-27.565V170.133c0-15.229,12.34-27.57,27.558-27.57h147.72c0,0,8.479-0.386,11.623,1.681      c3.134,2.061,6.379,6.119,6.379,6.119l19.802,25.987c0,0,2.401,2.697,3.58,6.495      C359.015,186.631,358.807,192.234,358.807,192.234z" style="fill:#FFFFFF;"/><path d="M335.513,271.241c0,13.182-10.682,23.874-23.871,23.874h-123.32      c-13.185,0-23.871-10.692-23.871-23.874v-83.566c0-13.182,10.687-23.874,23.871-23.874h123.32      c13.189,0,23.871,10.692,23.871,23.874V271.241z" style="fill:#DFC97A;"/><path d="M335.542,232.305c-0.01,0-0.01,0-0.019,0l0.019,3.058c-9.329,3.364-20.437,6.619-42.3,6.619      c-45.361-0.007-49.698-15.535-91.546-15.52c-15.247,0-27.626,1.889-37.226,4.276l-0.019-3.514c0.01,0,0.01,0,0.01-0.007      l-0.01-3.044c9.629-2.401,22.023-4.29,37.245-4.29c41.941,0.014,46.278,15.537,91.546,15.527c21.882,0,32.957-3.257,42.28-6.621      L335.542,232.305z M198.751,214.248c41.849,0,46.19,15.523,91.546,15.523c21.868,0,32.977-3.238,42.3-6.605v-0.701      c0.999-0.34,1.984-0.67,2.945-1.011l-0.019-2.916c-0.403,0.139-0.83,0.301-1.247,0.456v-38.863      c-0.8-2.346-1.319-3.279-2.877-5.862v45.698c-0.019,0-0.039,0.007-0.058,0.007v-45.705c-0.917-1.683-1.955-2.382-2.882-3.386      v49.986c-2.988,0.878-6.267,1.688-10.07,2.367c-4.633,0.835-10.051,1.444-16.557,1.737v-61.257h-2.862v61.359      c-0.019,0-0.049,0-0.068,0v-61.299h-2.882v61.349c-0.926,0.01-1.805,0.039-2.779,0.039c-10.25,0-18.395-0.8-25.371-2.03v-59.419      h-2.862v58.876c-0.024-0.01-0.054-0.01-0.073-0.019v-58.796h-2.872v58.107c-10.464-2.411-18.569-5.654-28.15-8.227v-49.94      h-2.882v49.2c-0.019,0-0.034,0-0.053-0.009v-49.13h-2.877v48.511c-7.204-1.55-15.494-2.636-26.408-2.636      c-0.602,0-1.159,0.007-1.742,0.007v-45.943h-2.877v47.656c-0.019,0-0.044,0-0.063,0v-47.595h-2.867v50.042h0.01l-0.01,0.495      C195.656,214.279,197.179,214.248,198.751,214.248z M304.419,248.497c0.82-0.027,1.688-0.061,2.469-0.107l-0.009,2.554v44.204      h-2.459v0.009h-2.877v-43.58c-1.892,0.046-3.755,0.107-5.846,0.107c-9.013,0-16.382-0.613-22.775-1.596v45.06h-2.464v0.009      h-2.877v-46.032c-11.075-2.229-19.263-5.499-28.635-8.218v54.24h-2.459v0.009h-2.867v-55.669      c-7.708-1.89-16.6-3.248-28.63-3.308v58.968h-2.469v0.009h-2.857v-58.87c-11.045,0.281-20.553,1.499-28.397,3.17v48.497      c-1.208-1.332-1.94-2.164-2.464-2.988v0.075c-0.146-0.213-0.233-0.41-0.364-0.618c-0.01-0.014-0.024-0.041-0.039-0.061      c-1.154-1.833-2.081-3.551-2.469-4.783v-42.244c-0.485,0.126-1.004,0.233-1.48,0.349v-2.978      c9.619-2.401,22.018-4.281,37.245-4.281c41.941,0,46.278,15.513,91.546,15.513c4.089,0,7.8-0.107,11.191-0.315l-0.014,2.554      V248.497z M190.902,233.743c-8.397,0.512-15.765,1.591-22.101,2.945v0.378C175.069,235.599,182.432,234.401,190.902,233.743z" style="fill:#E5D495;"/></g><g><path d="M221.041,318.785c-0.112-2.195-0.262-4.819-0.233-6.794h-0.073      c-0.543,1.843-1.189,3.808-1.989,5.986l-2.77,7.63h-1.533l-2.552-7.492c-0.737-2.224-1.377-4.257-1.814-6.124h-0.049      c-0.053,1.975-0.165,4.599-0.315,6.956l-0.407,6.743h-1.936l1.096-15.722h2.586l2.682,7.606c0.65,1.938,1.193,3.658,1.591,5.288      h0.063c0.403-1.591,0.961-3.313,1.669-5.288l2.794-7.606h2.595l0.97,15.722h-1.979L221.041,318.785z" style="fill:#E9E9EA;"/><path d="M227.769,320.424c0.049,2.772,1.824,3.917,3.88,3.917c1.465,0,2.353-0.252,3.124-0.587      l0.345,1.47c-0.723,0.327-1.96,0.698-3.75,0.698c-3.483,0-5.564-2.289-5.564-5.695c0-3.405,2.013-6.085,5.307-6.085      c3.672,0,4.672,3.248,4.672,5.321c0,0.415-0.058,0.745-0.087,0.961H227.769z M233.784,318.947      c0.024-1.302-0.533-3.335-2.842-3.335c-2.067,0-2.988,1.909-3.153,3.335H233.784z" style="fill:#E9E9EA;"/><path d="M238.325,317.46c0-1.169-0.019-2.137-0.087-3.058h1.785l0.097,1.814h0.082      c0.616-1.069,1.673-2.074,3.536-2.074c1.533,0,2.707,0.924,3.192,2.261h0.044c0.359-0.633,0.796-1.126,1.266-1.47      c0.669-0.512,1.426-0.791,2.493-0.791c1.499,0,3.716,0.978,3.716,4.9v6.648h-2.008v-6.393c0-2.168-0.786-3.481-2.459-3.481      c-1.159,0-2.066,0.871-2.421,1.873c-0.097,0.289-0.155,0.65-0.155,1.023v6.978h-2.013v-6.765c0-1.797-0.8-3.11-2.357-3.11      c-1.281,0-2.217,1.024-2.537,2.067c-0.131,0.293-0.165,0.642-0.165,1.006v6.801h-2.008V317.46z" style="fill:#E9E9EA;"/><path d="M268.027,319.958c0,4.17-2.901,5.989-5.642,5.989c-3.051,0-5.404-2.239-5.404-5.811      c0-3.789,2.474-5.994,5.603-5.994C265.819,314.142,268.027,316.497,268.027,319.958z M259.057,320.065      c0,2.472,1.422,4.341,3.429,4.341c1.965,0,3.43-1.848,3.43-4.383c0-1.909-0.961-4.336-3.381-4.336      C260.11,315.687,259.057,317.919,259.057,320.065z" style="fill:#E9E9EA;"/><path d="M270.617,317.919c0-1.329-0.029-2.474-0.097-3.517h1.795l0.068,2.214h0.092      c0.519-1.516,1.761-2.474,3.129-2.474c0.238,0,0.398,0.017,0.582,0.076v1.93c-0.209-0.053-0.408-0.07-0.699-0.07      c-1.45,0-2.474,1.089-2.745,2.634c-0.053,0.289-0.092,0.604-0.092,0.968v6.01h-2.032V317.919z" style="fill:#E9E9EA;"/><path d="M279.582,314.402l2.479,6.668c0.252,0.749,0.533,1.635,0.713,2.314h0.049      c0.209-0.679,0.437-1.54,0.728-2.365l2.241-6.616h2.168l-3.08,8.04c-1.47,3.881-2.484,5.862-3.871,7.073      c-1.009,0.892-2.008,1.237-2.518,1.336l-0.514-1.727c0.514-0.162,1.184-0.492,1.785-1.004c0.567-0.444,1.266-1.23,1.732-2.289      c0.092-0.207,0.16-0.374,0.16-0.485c0-0.121-0.039-0.289-0.131-0.543l-4.181-10.4H279.582z" style="fill:#E9E9EA;"/><path d="M220.43,335.787h-0.044l-2.629,1.419l-0.412-1.567l3.318-1.763h1.747v15.164h-1.979V335.787z" style="fill:#E9E9EA;"/><path d="M227.934,349.04v-1.261l1.62-1.56c3.871-3.684,5.622-5.658,5.651-7.933      c0-1.54-0.743-2.964-3.018-2.964c-1.368,0-2.517,0.698-3.206,1.286l-0.665-1.453c1.058-0.878,2.547-1.535,4.298-1.535      c3.265,0,4.642,2.234,4.642,4.412c0,2.792-2.032,5.062-5.224,8.133l-1.213,1.126v0.046h6.806v1.705H227.934z" style="fill:#E9E9EA;"/><path d="M239.741,345.19c0-1.921,1.131-3.27,3.008-4.063l-0.019-0.073      c-1.688-0.791-2.416-2.091-2.416-3.408c0-2.401,2.037-4.029,4.701-4.029c2.94,0,4.409,1.838,4.409,3.738      c0,1.278-0.631,2.656-2.494,3.531v0.077c1.877,0.745,3.051,2.081,3.051,3.92c0,2.637-2.266,4.409-5.162,4.409      C241.652,349.294,239.741,347.41,239.741,345.19z M247.905,345.098c0-1.843-1.281-2.736-3.328-3.309      c-1.79,0.507-2.736,1.674-2.736,3.117c-0.077,1.545,1.096,2.888,3.032,2.888C246.717,347.795,247.905,346.655,247.905,345.098z       M242.259,337.519c0,1.506,1.145,2.326,2.891,2.792c1.305-0.442,2.314-1.378,2.314-2.755c0-1.21-0.728-2.472-2.571-2.472      C243.2,335.083,242.259,336.206,242.259,337.519z" style="fill:#E9E9EA;"/><path d="M264.592,348.341c-0.903,0.315-2.707,0.866-4.832,0.866c-2.377,0-4.336-0.607-5.869-2.086      c-1.359-1.302-2.207-3.396-2.207-5.843c0.029-4.691,3.26-8.132,8.518-8.132c1.824,0,3.245,0.398,3.929,0.73l-0.49,1.652      c-0.844-0.374-1.887-0.679-3.483-0.679c-3.822,0-6.325,2.382-6.325,6.318c0,3.992,2.406,6.355,6.068,6.355      c1.329,0,2.241-0.187,2.707-0.417v-4.691h-3.197v-1.63h5.181V348.341z" style="fill:#E9E9EA;"/><path d="M267.542,349.04c0.054-0.769,0.092-1.918,0.092-2.913v-13.658h2.028v7.102h0.048      c0.728-1.261,2.033-2.086,3.852-2.086c2.813,0,4.788,2.341,4.764,5.77c0,4.033-2.547,6.039-5.064,6.039      c-1.635,0-2.945-0.638-3.779-2.123h-0.068l-0.102,1.868H267.542z M269.662,344.516c0,0.252,0.048,0.512,0.097,0.745      c0.388,1.433,1.591,2.401,3.076,2.401c2.153,0,3.439-1.754,3.439-4.337c0-2.27-1.174-4.206-3.361-4.206      c-1.407,0-2.707,0.963-3.134,2.52c-0.039,0.232-0.116,0.512-0.116,0.844V344.516z" style="fill:#E9E9EA;"/></g></g></g></g><g id="Layer_1"/></svg>