<?xml version="1.0" ?><!DOCTYPE svg  PUBLIC '-//W3C//DTD SVG 1.1//EN'  'http://www.w3.org/Graphics/SVG/1.1/DTD/svg11.dtd'><svg style="enable-background:new 0 0 500 499.992;" version="1.1" viewBox="0 0 500 499.992" xml:space="preserve" xmlns="http://www.w3.org/2000/svg" xmlns:xlink="http://www.w3.org/1999/xlink"><g id="baterries"><g><path d="M250.001,0C111.93,0,0,111.93,0,249.996s111.93,249.996,250.001,249.996    C388.07,499.992,500,388.062,500,249.996S388.07,0,250.001,0z" style="fill:#DFC97A;"/><g id="_x33_0"><g id="_x32_6"><g><path d="M354.312,197.597c0,4.802-3.89,8.693-8.695,8.693h-34.301c-4.802,0-8.693-3.89-8.693-8.693       v-19.831c0-4.812,3.89-8.703,8.693-8.703h34.301c4.805,0,8.695,3.89,8.695,8.703V197.597z" style="fill:#656D78;"/><polygon points="343.521,209.452 333.601,209.452 333.601,199.964 333.601,165.813 333.601,165.813        343.521,165.813 343.521,165.813      " style="fill:#DFE0E1;"/><path d="M339.548,218.484c0,13.35-10.82,24.177-24.172,24.177H169.854       c-13.347,0-24.17-10.827-24.17-24.177v-61.791c0-13.34,10.822-24.158,24.17-24.158h145.522       c13.352,0,24.172,10.817,24.172,24.158V218.484z" style="fill:#FFFFFF;"/></g><path d="M192.498,152.066v73.307c0,3.774-3.056,6.83-6.828,6.83h-9.343c-3.762,0-6.818-3.056-6.818-6.83      v-73.307c0-3.774,3.056-6.83,6.818-6.83h9.343C189.442,145.236,192.498,148.292,192.498,152.066z M215.159,145.236h-9.333      c-3.777,0-6.828,3.056-6.828,6.83v73.307c0,3.774,3.051,6.83,6.828,6.83h9.333c3.767,0,6.823-3.056,6.823-6.83v-73.307      C221.982,148.292,218.926,145.236,215.159,145.236z M244.641,145.236h-9.331c-3.767,0-6.823,3.056-6.823,6.83v73.307      c0,3.774,3.056,6.83,6.823,6.83h9.331c3.771,0,6.828-3.056,6.828-6.83v-73.307C251.468,148.292,248.412,145.236,244.641,145.236      z" style="fill:#EFEFF0;"/></g><g id="_x32_6_1_"><g><path d="M354.312,322.391c0,4.812-3.89,8.703-8.695,8.703h-34.301c-4.802,0-8.693-3.89-8.693-8.703       V302.56c0-4.812,3.89-8.702,8.693-8.702h34.301c4.805,0,8.695,3.89,8.695,8.702V322.391z" style="fill:#F1F3F4;"/><polygon points="343.521,334.246 333.601,334.246 333.601,324.758 333.601,290.608 333.601,290.608        343.521,290.608 343.521,290.608      " style="fill:#9399A0;"/><path d="M339.548,343.298c0,13.34-10.82,24.148-24.172,24.148H169.854       c-13.347,0-24.17-10.808-24.17-24.148v-61.8c0-13.34,10.822-24.168,24.17-24.168h145.522c13.352,0,24.172,10.827,24.172,24.168       V343.298z" style="fill:#656D78;"/></g><path d="M192.498,276.87v73.307c0,3.764-3.056,6.83-6.828,6.83h-9.343c-3.762,0-6.818-3.066-6.818-6.83      V276.87c0-3.774,3.056-6.83,6.818-6.83h9.343C189.442,270.04,192.498,273.096,192.498,276.87z M215.159,270.04h-9.333      c-3.777,0-6.828,3.056-6.828,6.83v73.307c0,3.764,3.051,6.83,6.828,6.83h9.333c3.767,0,6.823-3.066,6.823-6.83V276.87      C221.982,273.096,218.926,270.04,215.159,270.04z M244.641,270.04h-9.331c-3.767,0-6.823,3.056-6.823,6.83v73.307      c0,3.764,3.056,6.83,6.823,6.83h9.331c3.771,0,6.828-3.066,6.828-6.83V276.87C251.468,273.096,248.412,270.04,244.641,270.04z" style="fill:#7C838C;"/></g></g></g></g><g id="Layer_1"/></svg>