<?xml version="1.0" ?><!DOCTYPE svg  PUBLIC '-//W3C//DTD SVG 1.1//EN'  'http://www.w3.org/Graphics/SVG/1.1/DTD/svg11.dtd'><svg style="enable-background:new 0 0 500 499.992;" version="1.1" viewBox="0 0 500 499.992" xml:space="preserve" xmlns="http://www.w3.org/2000/svg" xmlns:xlink="http://www.w3.org/1999/xlink"><g id="cpu-chip"><g><path d="M250.001,0C111.93,0,0,111.93,0,249.996c0,138.076,111.93,249.996,250.001,249.996    C388.07,499.992,500,388.072,500,249.996C500,111.93,388.07,0,250.001,0z" style="fill:#656D78;"/><g id="_x32_6_2_"><path d="M303.991,169.306H195.938c-15.174,0-27.526,12.34-27.526,27.524v105.168     c0,15.188,12.353,27.538,27.526,27.538h108.054c15.183,0,27.526-12.35,27.526-27.538V196.83     C331.518,181.647,319.174,169.306,303.991,169.306z M317.394,292.888c0,12.564-10.216,22.775-22.765,22.775h-89.327     c-12.554,0-22.772-10.211-22.772-22.775v-86.943c0-12.554,10.218-22.766,22.772-22.766h89.327     c12.549,0,22.765,10.211,22.765,22.766V292.888z" style="fill:#848A93;"/><g><path d="M285.078,120.846c-2.103,0-3.794,1.693-3.794,3.794v23.027c0,1.562-1.281,2.852-2.857,2.852      h-8.695c-1.579,0-2.85-1.29-2.85-2.852v-23.027c0-2.101-1.705-3.794-3.801-3.794c-2.088,0-3.784,1.693-3.784,3.794v23.027      c0,5.749,4.684,10.429,10.434,10.429h8.695c5.758,0,10.434-4.681,10.434-10.429v-23.027      C288.861,122.538,287.166,120.846,285.078,120.846z" style="fill:#DFC97A;"/><path d="M236.916,120.846c-2.096,0-3.786,1.693-3.786,3.794v23.027c0,1.562-1.286,2.852-2.865,2.852      h-8.688c-1.579,0-2.857-1.29-2.857-2.852v-23.027c0-2.101-1.7-3.794-3.794-3.794s-3.789,1.693-3.789,3.794v23.027      c0,5.749,4.689,10.429,10.439,10.429h8.688c5.766,0,10.446-4.681,10.446-10.429v-23.027      C240.711,122.538,239.009,120.846,236.916,120.846z" style="fill:#DFC97A;"/><path d="M278.427,341.897h-8.695c-5.751,0-10.434,4.671-10.434,10.429v23.037      c0,2.081,1.696,3.784,3.784,3.784c2.095,0,3.801-1.703,3.801-3.784v-23.037c0-1.562,1.271-2.843,2.85-2.843h8.695      c1.577,0,2.857,1.281,2.857,2.843v23.037c0,2.081,1.69,3.784,3.794,3.784c2.088,0,3.784-1.703,3.784-3.784v-23.037      C288.861,346.568,284.185,341.897,278.427,341.897z" style="fill:#DFC97A;"/><path d="M230.265,341.897h-8.688c-5.751,0-10.439,4.671-10.439,10.429v23.037      c0,2.081,1.695,3.784,3.789,3.784s3.794-1.703,3.794-3.784v-23.037c0-1.562,1.278-2.843,2.857-2.843h8.688      c1.579,0,2.865,1.281,2.865,2.843v23.037c0,2.081,1.69,3.784,3.786,3.784c2.093,0,3.796-1.703,3.796-3.784v-23.037      C240.711,346.568,236.03,341.897,230.265,341.897z" style="fill:#DFC97A;"/><path d="M375.358,233.125h-23.023c-1.569,0-2.847-1.281-2.847-2.877v-8.683      c0-1.567,1.278-2.848,2.847-2.848h23.023c2.093,0,3.791-1.702,3.791-3.803c0-2.081-1.698-3.784-3.791-3.784h-23.023      c-5.746,0-10.434,4.691-10.434,10.434v8.683c0,5.773,4.689,10.454,10.434,10.454h23.023c2.093,0,3.791-1.703,3.791-3.784      C379.149,234.813,377.451,233.125,375.358,233.125z" style="fill:#DFC97A;"/><path d="M352.335,266.868h23.023c2.093,0,3.791-1.698,3.791-3.794c0-2.1-1.698-3.793-3.791-3.793h-23.023      c-5.746,0-10.434,4.681-10.434,10.439v8.698c0,5.753,4.689,10.434,10.434,10.434h23.023c2.093,0,3.791-1.693,3.791-3.794      c0-2.076-1.698-3.784-3.791-3.784h-23.023c-1.569,0-2.847-1.281-2.847-2.857v-8.698      C349.488,268.148,350.766,266.868,352.335,266.868z" style="fill:#DFC97A;"/><path d="M147.669,211.131h-23.03c-2.093,0-3.791,1.703-3.791,3.784c0,2.101,1.698,3.803,3.791,3.803      h23.03c1.562,0,2.85,1.281,2.85,2.848v8.683c0,1.596-1.288,2.877-2.85,2.877h-23.03c-2.093,0-3.791,1.688-3.791,3.794      c0,2.081,1.698,3.784,3.791,3.784h23.03c5.746,0,10.427-4.681,10.427-10.454v-8.683      C158.096,215.821,153.414,211.131,147.669,211.131z" style="fill:#DFC97A;"/><path d="M147.669,259.281h-23.03c-2.093,0-3.791,1.693-3.791,3.793c0,2.096,1.698,3.794,3.791,3.794      h23.03c1.562,0,2.85,1.281,2.85,2.852v8.698c0,1.577-1.288,2.857-2.85,2.857h-23.03c-2.093,0-3.791,1.707-3.791,3.784      c0,2.101,1.698,3.794,3.791,3.794h23.03c5.746,0,10.427-4.681,10.427-10.434v-8.698      C158.096,263.962,153.414,259.281,147.669,259.281z" style="fill:#DFC97A;"/></g><path d="M297.156,218.985v60.864c0,8.78-7.141,15.935-15.925,15.935h-62.536     c-8.783,0-15.928-7.155-15.928-15.935v-60.864c0-8.78,7.145-15.926,15.928-15.926h62.536     C290.016,203.059,297.156,210.204,297.156,218.985z" style="fill:#FFFFFF;"/></g></g></g><g id="Layer_1"/></svg>