<?xml version="1.0" ?><!DOCTYPE svg  PUBLIC '-//W3C//DTD SVG 1.1//EN'  'http://www.w3.org/Graphics/SVG/1.1/DTD/svg11.dtd'><svg style="enable-background:new 0 0 499.997 499.992;" version="1.1" viewBox="0 0 499.997 499.992" xml:space="preserve" xmlns="http://www.w3.org/2000/svg" xmlns:xlink="http://www.w3.org/1999/xlink"><g id="atm-machine"><g><path d="M250.001,0C111.93,0,0,111.92,0,249.996c0,138.066,111.93,249.996,250.001,249.996    c138.066,0,249.996-111.93,249.996-249.996C499.997,111.92,388.067,0,250.001,0z" style="fill:#F2955C;"/><g id="_x39_"><path d="M360.33,148.166H139.684c-9.348,0-16.981,7.046-16.981,15.666v172.331     c0,8.617,7.633,15.663,16.981,15.663H360.33c9.326,0,16.959-7.046,16.959-15.663V163.832     C377.289,155.212,369.656,148.166,360.33,148.166z" style="fill:#FFFFFF;"/><path d="M251.039,328.918c0,1.928-2.62,3.504-5.831,3.504h-96.958c-3.201,0-5.836-1.576-5.836-3.504     V318.36c0-1.931,2.634-3.507,5.836-3.507h96.958c3.211,0,5.831,1.577,5.831,3.507V328.918z" style="fill:#7DBEBD;"/><path d="M251.039,252.439c0,4.671-3.81,8.482-8.484,8.482h-91.651c-4.662,0-8.489-3.81-8.489-8.482     v-76.373c0-4.676,3.827-8.489,8.489-8.489h91.651c4.674,0,8.484,3.813,8.484,8.489V252.439z" style="fill:#656D78;"/><path d="M278.136,238.143h14.177c1.872,0,3.4,1.537,3.4,3.398v14.192c0,1.87-1.528,3.398-3.4,3.398     h-14.177c-1.873,0-3.391-1.528-3.391-3.398v-14.192C274.745,239.68,276.264,238.143,278.136,238.143z" style="fill:#EFEFF0;"/><path d="M274.745,224.835v-14.204c0-1.875,1.518-3.396,3.391-3.396h14.177c1.872,0,3.4,1.52,3.4,3.396     v14.204c0,1.875-1.528,3.395-3.4,3.395h-14.177C276.264,228.23,274.745,226.709,274.745,224.835z" style="fill:#EFEFF0;"/><path d="M278.136,269.043h14.177c1.872,0,3.4,1.54,3.4,3.4v14.179c0,1.873-1.528,3.393-3.4,3.393h-14.177     c-1.873,0-3.391-1.52-3.391-3.393v-14.179C274.745,270.583,276.264,269.043,278.136,269.043z" style="fill:#EFEFF0;"/><path d="M326.568,286.623c0,1.873-1.526,3.393-3.391,3.393H309.01c-1.868,0-3.401-1.52-3.401-3.393     v-14.179c0-1.86,1.533-3.4,3.401-3.4h14.167c1.865,0,3.391,1.54,3.391,3.4V286.623z" style="fill:#EFEFF0;"/><path d="M326.568,255.732c0,1.87-1.526,3.398-3.391,3.398H309.01c-1.868,0-3.401-1.528-3.401-3.398     v-14.192c0-1.86,1.533-3.398,3.401-3.398h14.167c1.865,0,3.391,1.537,3.391,3.398V255.732z" style="fill:#EFEFF0;"/><path d="M326.568,224.835c0,1.875-1.526,3.395-3.391,3.395H309.01c-1.868,0-3.401-1.521-3.401-3.395     v-14.204c0-1.875,1.533-3.396,3.401-3.396h14.167c1.865,0,3.391,1.52,3.391,3.396V224.835z" style="fill:#EFEFF0;"/><path d="M357.409,286.623c0,1.873-1.525,3.393-3.395,3.393h-14.153c-1.865,0-3.396-1.52-3.396-3.393     v-14.179c0-1.86,1.53-3.4,3.396-3.4h14.153c1.87,0,3.395,1.54,3.395,3.4V286.623z" style="fill:#EFEFF0;"/><path d="M357.409,255.732c0,1.87-1.525,3.398-3.395,3.398h-14.153c-1.865,0-3.396-1.528-3.396-3.398     v-14.192c0-1.86,1.53-3.398,3.396-3.398h14.153c1.87,0,3.395,1.537,3.395,3.398V255.732z" style="fill:#EFEFF0;"/><path d="M357.409,224.835c0,1.875-1.525,3.395-3.395,3.395h-14.153c-1.865,0-3.396-1.521-3.396-3.395     v-14.204c0-1.875,1.53-3.396,3.396-3.396h14.153c1.87,0,3.395,1.52,3.395,3.396V224.835z" style="fill:#EFEFF0;"/><path d="M357.579,181.635c0,1.928-2.001,3.507-4.448,3.507h-74.107c-2.452,0-4.448-1.579-4.448-3.507     v-10.561c0-1.928,1.996-3.497,4.448-3.497h74.107c2.447,0,4.448,1.569,4.448,3.497V181.635z" style="fill:#AAB2BC;"/><g><path d="M280.814,306.909l-9.939,25.513h5.467l2.101-5.799h10.199l2.229,5.799h5.606l-10.221-25.513      H280.814z M280.038,322.325l3.432-9.462l3.529,9.462H280.038z" style="fill:#F2F3F3;"/><polygon points="300.079,311.231 307.647,311.231 307.647,332.422 312.803,332.422 312.803,311.231       320.361,311.231 320.361,306.909 300.079,306.909     " style="fill:#F2F3F3;"/><polygon points="345.869,306.909 341.295,324.314 336.67,306.909 328.954,306.909 328.954,332.422       333.745,332.422 333.745,312.335 338.792,332.422 343.752,332.422 348.812,312.335 348.812,332.422 353.6,332.422       353.6,306.909     " style="fill:#F2F3F3;"/></g></g></g></g><g id="Layer_1"/></svg>