<?xml version="1.0" ?><!DOCTYPE svg  PUBLIC '-//W3C//DTD SVG 1.1//EN'  'http://www.w3.org/Graphics/SVG/1.1/DTD/svg11.dtd'><svg style="enable-background:new 0 0 499.997 499.997;" version="1.1" viewBox="0 0 499.997 499.997" xml:space="preserve" xmlns="http://www.w3.org/2000/svg" xmlns:xlink="http://www.w3.org/1999/xlink"><g id="ipad"><g><path d="M250.001,0C111.93,0,0,111.93,0,249.996c0,138.071,111.93,250.001,250.001,250.001    c138.066,0,249.996-111.93,249.996-250.001C499.997,111.93,388.067,0,250.001,0z" style="fill:#7DBEBD;"/><g id="_x33_"><path d="M338.2,113.397H161.787c-9.44,0-17.167,7.728-17.167,17.17v238.858     c0,9.442,7.727,17.175,17.167,17.175H338.2c9.444,0,17.172-7.732,17.172-17.175V130.567     C355.372,121.125,347.645,113.397,338.2,113.397z M249.608,120.817c1.504,0,2.731,1.215,2.731,2.724     c0,1.514-1.227,2.731-2.731,2.731c-1.509,0-2.736-1.217-2.736-2.731C246.872,122.032,248.1,120.817,249.608,120.817z      M263.263,374.735c0,1.375-1.12,2.499-2.498,2.499h-19.976c-1.377,0-2.503-1.123-2.503-2.499v-1.249     c0-1.378,1.126-2.501,2.503-2.501h19.976c1.378,0,2.498,1.123,2.498,2.501V374.735z" style="fill:#FFFFFF;"/><path d="M249.613,118.998c2.508,0,4.545,2.032,4.545,4.543c0,2.522-2.037,4.558-4.545,4.558     c-2.517,0-4.56-2.035-4.56-4.558C245.053,121.03,247.096,118.998,249.613,118.998z" style="fill:#DFE0E1;"/><path d="M263.263,374.735c0,1.375-1.12,2.499-2.498,2.499h-19.976c-1.377,0-2.503-1.123-2.503-2.499     v-1.249c0-1.378,1.126-2.501,2.503-2.501h19.976c1.378,0,2.498,1.123,2.498,2.501V374.735z" style="fill:#DFE0E1;"/><rect height="213.915" style="fill:#656D78;" width="172.984" x="163.504" y="143.044"/></g></g></g><g id="Layer_1"/></svg>