<?xml version="1.0" ?><!DOCTYPE svg  PUBLIC '-//W3C//DTD SVG 1.1//EN'  'http://www.w3.org/Graphics/SVG/1.1/DTD/svg11.dtd'><svg style="enable-background:new 0 0 499.992 499.997;" version="1.1" viewBox="0 0 499.992 499.997" xml:space="preserve" xmlns="http://www.w3.org/2000/svg" xmlns:xlink="http://www.w3.org/1999/xlink"><g id="floppy-disk"><g><path d="M249.996,0C111.92,0,0,111.925,0,250.001c0,138.056,111.92,249.996,249.996,249.996    c138.066,0,249.996-111.94,249.996-249.996C499.992,111.925,388.062,0,249.996,0z" style="fill:#7DBEBD;"/><g id="_x31_9"><path d="M154.065,361.237c-12.806,0-23.284-10.478-23.284-23.299V162.059     c0-12.816,10.478-23.304,23.284-23.304h191.853c12.807,0,23.294,10.488,23.294,23.304v175.879     c0,12.821-10.488,23.299-23.294,23.299H154.065z" style="fill:#656D78;"/><path d="M190.66,254.241c-7.674,0-13.942-6.272-13.942-13.946v-87.442c0-7.67,6.268-13.937,13.942-13.937     h118.672c7.655,0,13.932,6.267,13.932,13.937v87.442c0,7.674-6.277,13.946-13.932,13.946H190.66z" style="fill:#4C525A;"/><g><g><g><g><path d="M192.61,252.285c-7.665,0-13.932-6.272-13.932-13.941v-85.648         c0-7.665,6.267-13.941,13.932-13.941h114.772c7.665,0,13.932,6.277,13.932,13.941v85.648c0,7.669-6.267,13.941-13.932,13.941         H192.61z" style="fill:#DFC97A;"/></g></g></g></g><path d="M309.332,277.078H190.66c-7.674,0-13.942,6.268-13.942,13.932v56.29     c0,7.674,8.227,13.936,15.892,13.936h114.772c7.665,0,15.882-6.262,15.882-13.936v-56.29     C323.264,283.346,316.987,277.078,309.332,277.078z" style="fill:#FFFFFF;"/><g><g><g><g><path d="M197.781,354.737c-6.452,0-11.73-5.282-11.73-11.734v-45.734         c0-6.457,5.278-11.734,11.73-11.734h26.156c6.442,0,11.729,5.278,11.729,11.734v45.734c0,6.452-5.287,11.734-11.729,11.734         H197.781z" style="fill:#747C85;"/></g></g></g></g><g><rect height="3.91" style="fill:#ECDFAF;" width="108.117" x="195.938" y="156.199"/><rect height="3.914" style="fill:#ECDFAF;" width="108.117" x="195.938" y="173.861"/><rect height="3.91" style="fill:#ECDFAF;" width="108.117" x="195.938" y="191.523"/><rect height="3.9" style="fill:#ECDFAF;" width="108.117" x="195.938" y="209.2"/><rect height="3.9" style="fill:#ECDFAF;" width="108.117" x="195.938" y="226.857"/></g></g></g></g><g id="Layer_1"/></svg>