<?xml version="1.0" ?><!DOCTYPE svg  PUBLIC '-//W3C//DTD SVG 1.1//EN'  'http://www.w3.org/Graphics/SVG/1.1/DTD/svg11.dtd'><svg style="enable-background:new 0 0 500 499.997;" version="1.1" viewBox="0 0 500 499.997" xml:space="preserve" xmlns="http://www.w3.org/2000/svg" xmlns:xlink="http://www.w3.org/1999/xlink"><g id="ipod-player"><g><path d="M250.001,0C111.93,0,0,111.93,0,250.001c0,138.066,111.93,249.996,250.001,249.996    C388.07,499.997,500,388.067,500,250.001C500,111.93,388.07,0,250.001,0z" style="fill:#DFC97A;"/><g id="_x31_4"><g><path d="M331.962,361.676c0,12.697-10.301,23.003-23.011,23.003H191.045      c-12.695,0-23.005-10.306-23.005-23.003V138.328c0-12.707,10.31-23.01,23.005-23.01h117.906      c12.709,0,23.011,10.303,23.011,23.01V361.676z" style="fill:#FFFFFF;"/><g><path d="M249.804,272.451c-25.404,0-46.008,20.592-46.008,46.008c0,25.414,20.604,46.011,46.008,46.011       c25.407,0,46.021-20.597,46.021-46.011C295.825,293.043,275.211,272.451,249.804,272.451z M249.804,350.982       c-17.953,0-32.528-14.56-32.528-32.523c0-17.96,14.575-32.523,32.528-32.523c17.965,0,32.533,14.563,32.533,32.523       C282.337,336.422,267.77,350.982,249.804,350.982z" style="fill:#EFEFF0;"/><path d="M260.064,324.186c0,2.379-1.928,4.315-4.32,4.315h-11.496c-2.387,0-4.315-1.936-4.315-4.315       v-11.506c0-2.372,1.928-4.308,4.315-4.308h11.496c2.392,0,4.32,1.936,4.32,4.308V324.186z" style="fill:#EFEFF0;"/></g><rect height="106.255" style="fill:#656D78;" width="133.429" x="183.286" y="137.04"/></g></g></g></g><g id="Layer_1"/></svg>