<?xml version="1.0" ?><!DOCTYPE svg  PUBLIC '-//W3C//DTD SVG 1.1//EN'  'http://www.w3.org/Graphics/SVG/1.1/DTD/svg11.dtd'><svg style="enable-background:new 0 0 499.997 499.997;" version="1.1" viewBox="0 0 499.997 499.997" xml:space="preserve" xmlns="http://www.w3.org/2000/svg" xmlns:xlink="http://www.w3.org/1999/xlink"><g id="_x33_d-glasses"><g><path d="M249.996,0C111.93,0,0,111.93,0,249.996c0,138.071,111.93,250.001,249.996,250.001    c138.071,0,250.001-111.93,250.001-250.001C499.997,111.93,388.067,0,249.996,0z" style="fill:#DFC97A;"/><g id="_x35_"><path d="M383.619,268.653v50.609v3.895v11.681c0,4.303-34.635,19.476-38.928,19.476h-70.095     c-4.283,0-10.056-2.668-12.848-5.923l-13.233-15.426c-2.782-3.255-7.352-3.255-10.129,0l-13.238,15.426     c-2.767,3.255-8.555,5.923-12.847,5.923h-70.079c-4.305,0-38.935-15.174-38.935-19.476v-11.681v-3.895v-50.609H383.619z" style="fill:#FFFFFF;"/><path d="M220.093,288.119c0-4.283-3.5-7.786-7.793-7.786H150c-4.283,0-7.779,3.503-7.779,7.786v42.829     c0,4.283,3.495,7.79,7.779,7.79h62.3c4.293,0,7.793-3.507,7.793-7.79V288.119z" style="fill:#7DBEBD;"/><path d="M344.691,288.119c0-4.283-3.507-7.786-7.8-7.786h-62.295c-4.283,0-7.783,3.503-7.783,7.786v42.829     c0,4.283,3.5,7.79,7.783,7.79h62.295c4.293,0,7.8-3.507,7.8-7.79V288.119z" style="fill:#F2955C;"/><g><path d="M201.921,204.383l-2.282,1.266l-96.353,53.248h54.507l50.59-36.139      C208.203,212.527,205.38,204.383,201.921,204.383z" style="fill:#FFFFFF;"/><path d="M287.256,205.649l-2.278-1.266c-3.459,0-6.272,8.145-6.466,18.375l50.595,36.139h54.512      L287.256,205.649z" style="fill:#FFFFFF;"/></g><path d="M396.712,190.795c0,21.335-15.349,39.156-35.955,43.857l-15.911-8.785     c1.693,0.214,3.386,0.374,5.137,0.374c20.427,0,37.054-15.896,37.054-35.446c0-19.544-16.627-35.45-37.054-35.45     s-37.053,15.906-37.053,35.45c0,8.217,2.954,15.766,7.863,21.781l-15.484-8.562c-1.329-4.182-2.05-8.62-2.05-13.219     c0-24.914,20.91-45.108,46.724-45.108C375.783,145.687,396.712,165.881,396.712,190.795z M340.465,190.805     c2.995-0.447,4.739-1.95,5.271-4.846l1.011-5.613c0.053-0.364,0.094-0.728,0.094-1.058c0-2.964-2.678-4.468-8.467-4.468     c-6.299,0-9.794,1.795-10.415,5.414l-0.885,5.2h4.315l0.723-4.312c0.213-1.14,1.547-1.708,4.033-1.708     c2.188,0,3.209,0.49,3.209,1.426c0,0.121-0.041,0.194-0.041,0.282l-0.854,4.919c-0.402,2.241-1.174,2.852-2.554,2.852h-3.708     l-0.771,4.23h3.709c1.079,0,1.693,0.335,1.693,1.581c0,0.33-0.032,0.738-0.109,1.184l-0.863,4.997     c-0.194,1.14-1.492,1.717-3.898,1.717c-2.319,0-3.461-0.485-3.461-1.465c0-0.082,0-0.165,0.044-0.252l0.728-4.303h-4.308     l-0.897,5.205c-0.078,0.33-0.078,0.694-0.078,0.97c0,2.974,2.809,4.434,7.931,4.434c7.075,0,10.575-1.828,11.264-5.53     l1.009-5.603c0.131-0.616,0.131-1.149,0.162-1.644C344.351,192.193,343.18,191.13,340.465,190.805z M350.238,202.229     l3.939-22.402h-2.147l0.813-4.594h16.015c4.116,0,5.981,0.936,5.981,4.055c0,0.66-0.073,1.392-0.24,2.241l-3.381,19.326     c-0.808,4.589-2.968,5.933-7.803,5.933h-16.146l0.818-4.56H350.238z M358.732,202.229h1.916c1.434,0,1.87-0.442,2.156-2.033     l3.257-18.458c0.037-0.286,0.078-0.572,0.078-0.776c0-0.853-0.395-1.135-1.543-1.135h-1.906L358.732,202.229z" style="fill:#656D78;"/></g></g></g><g id="Layer_1"/></svg>