<?xml version="1.0" ?><!DOCTYPE svg  PUBLIC '-//W3C//DTD SVG 1.1//EN'  'http://www.w3.org/Graphics/SVG/1.1/DTD/svg11.dtd'><svg style="enable-background:new 0 0 500 500.002;" version="1.1" viewBox="0 0 500 500.002" xml:space="preserve" xmlns="http://www.w3.org/2000/svg" xmlns:xlink="http://www.w3.org/1999/xlink"><g id="headset"><g><path d="M250.001,0C111.93,0,0,111.94,0,250.006c0,138.076,111.93,249.996,250.001,249.996    C388.07,500.002,500,388.082,500,250.006C500,111.94,388.07,0,250.001,0z" style="fill:#F2955C;"/><g id="_x31_8"><g><path d="M350.143,295.837c0.211-0.805,6.357,0.339,6.527-0.466l-10.066-2.552      c-0.32,1.95-0.703,3.9-1.201,5.841c-7.41,29.232-32.3,49.411-60.687,52.196l-0.657,3.532      C315.445,351.759,341.22,331.065,350.143,295.837z" style="fill:#FFFFFF;"/><path d="M293.572,361.237c-2.566,8.993-11.95,14.194-20.939,11.613      c-8.984-2.581-14.191-11.953-11.611-20.946c2.581-8.984,11.955-14.184,20.949-11.604      C290.955,342.882,296.157,352.253,293.572,361.237z" style="fill:#656D78;"/><g><path d="M250.001,129.616c-58.075,0-105.16,47.078-105.16,105.158h15.184l0,0       c0-49.693,40.284-89.984,89.977-89.984c49.693,0,89.968,40.291,89.968,89.984l0,0h15.193       C355.162,176.694,308.076,129.616,250.001,129.616z" style="fill:#FFFFFF;"/></g><path d="M250.001,126.502c-29.348,0-55.941,11.72-75.436,30.697l15.116,15.106l0,0l0.902-0.844      c15.545-14.597,36.406-23.546,59.419-23.546c23.006,0,43.874,8.95,59.409,23.546l0.907,0.844l0,0l15.101-15.106      C305.937,138.222,279.344,126.502,250.001,126.502z" style="fill:#656D78;"/></g><g><path d="M180.578,229.972c0-3.085-2.525-5.627-5.62-5.627h-6.837c-3.095,0-5.625,2.542-5.625,5.627      v78.565c0,3.095,2.53,5.627,5.625,5.627h6.837c3.095,0,5.62-2.532,5.62-5.627V229.972z" style="fill:#656D78;"/><path d="M150.779,307.829c-20.643,0-37.379-16.745-37.379-37.381c0-20.655,16.736-37.386,37.379-37.386      V307.829z" style="fill:#FFFFFF;"/><path d="M135.268,232.625c0-2.886,2.355-5.244,5.234-5.244h22.625v83.746h-22.625      c-2.879,0-5.234-2.358-5.234-5.239V232.625z" style="fill:#E6E9ED;"/><rect height="83.746" style="fill:#E6E9ED;" width="7.987" x="155.139" y="227.381"/></g><g><path d="M319.425,229.972c0-3.085,2.525-5.627,5.62-5.627h6.837c3.095,0,5.625,2.542,5.625,5.627v78.565      c0,3.095-2.53,5.627-5.625,5.627h-6.837c-3.095,0-5.62-2.532-5.62-5.627V229.972z" style="fill:#656D78;"/><path d="M349.224,307.829c20.643,0,37.379-16.745,37.379-37.381c0-20.655-16.735-37.386-37.379-37.386      V307.829z" style="fill:#FFFFFF;"/><path d="M364.735,232.625c0-2.886-2.355-5.244-5.234-5.244h-22.625v83.746h22.625      c2.879,0,5.234-2.358,5.234-5.239V232.625z" style="fill:#E6E9ED;"/><rect height="83.746" style="fill:#E6E9ED;" width="7.987" x="336.876" y="227.381"/></g></g></g></g><g id="Layer_1"/></svg>