<?xml version="1.0" ?><!DOCTYPE svg  PUBLIC '-//W3C//DTD SVG 1.1//EN'  'http://www.w3.org/Graphics/SVG/1.1/DTD/svg11.dtd'><svg style="enable-background:new 0 0 499.997 499.997;" version="1.1" viewBox="0 0 499.997 499.997" xml:space="preserve" xmlns="http://www.w3.org/2000/svg" xmlns:xlink="http://www.w3.org/1999/xlink"><g id="desktop-monitor_x5F_screen"><g><path d="M249.996,0C111.93,0,0,111.93,0,249.996c0,138.071,111.93,250.001,249.996,250.001    c138.071,0,250.001-111.93,250.001-250.001C499.997,111.93,388.067,0,249.996,0z" style="fill:#656D78;"/><g id="_x31_"><g><rect height="26.148" style="fill:#FFFFFF;" width="82.785" x="208.606" y="325.639"/><polygon points="291.391,340.301 208.606,335.784 208.606,321.123 291.391,321.123     " style="fill:#DFE0E1;"/><polygon points="295.155,359.513 205.215,359.513 208.814,351.788 291.556,351.788     " style="fill:#EDEDEE;"/><path d="M293.649,361.761c-1.504,0-85.044,0-86.55,0c-1.509,0-1.885-2.248-1.885-2.248h89.94      C295.155,359.513,295.155,361.761,293.649,361.761z" style="fill:#FFFFFF;"/></g><path d="M377.948,138.231H122.051c-4.138,0-7.524,3.391-7.524,7.526V300.05v18.819     c0,4.133,3.386,7.518,7.524,7.518h255.897c4.138,0,7.526-3.386,7.526-7.518V300.05V145.758     C385.475,141.622,382.086,138.231,377.948,138.231z" style="fill:#FFFFFF;"/><rect height="151.824" style="fill:#7DBEBD;" width="237.83" x="131.084" y="154.787"/></g></g></g><g id="Layer_1"/></svg>