<?xml version="1.0" ?><!DOCTYPE svg  PUBLIC '-//W3C//DTD SVG 1.1//EN'  'http://www.w3.org/Graphics/SVG/1.1/DTD/svg11.dtd'><svg style="enable-background:new 0 0 499.997 500.002;" version="1.1" viewBox="0 0 499.997 500.002" xml:space="preserve" xmlns="http://www.w3.org/2000/svg" xmlns:xlink="http://www.w3.org/1999/xlink"><g id="calculator"><g><path d="M249.996,0C111.925,0,0,111.93,0,249.997c0,138.076,111.925,250.005,249.996,250.005    c138.066,0,250.001-111.93,250.001-250.005C499.997,111.93,388.062,0,249.996,0z" style="fill:#F2955C;"/><g id="_x32_4"><path d="M354.538,360.102c0,5.462-4.434,9.877-9.891,9.877H162.054c-5.457,0-9.886-4.414-9.886-9.877     V146.604c0-5.452,4.429-9.877,9.886-9.877h182.593c5.457,0,9.891,4.424,9.891,9.877V360.102z" style="fill:#FFFFFF;"/><g><path d="M178.426,208.638c-3.245,0-5.904-2.659-5.904-5.913v-30.362c0-3.25,2.659-5.909,5.904-5.909      h149.849c3.255,0,5.913,2.659,5.913,5.909v30.362c0,3.255-2.658,5.913-5.913,5.913H178.426z" style="fill:#EFEFF0;"/><path d="M331.971,200.513c0,3.255-2.668,5.913-5.918,5.913h-145.41c-3.25,0-5.909-2.659-5.909-5.913      v-25.928c0-3.25,2.659-5.913,5.909-5.913h145.41c3.25,0,5.918,2.663,5.918,5.913V200.513z" style="fill:#656D78;"/></g><g><path d="M222.225,277.161c0,4.793-3.89,8.683-8.683,8.683h-33.52c-4.783,0-8.678-3.89-8.678-8.683v-33.52      c0-4.802,3.895-8.693,8.678-8.693h33.52c4.793,0,8.683,3.89,8.683,8.693V277.161z" style="fill:#DFE0E1;"/><path d="M279.019,277.161c0,4.793-3.89,8.683-8.678,8.683h-33.524c-4.793,0-8.688-3.89-8.688-8.683      v-33.52c0-4.802,3.895-8.693,8.688-8.693h33.524c4.788,0,8.678,3.89,8.678,8.693V277.161z" style="fill:#DFE0E1;"/><path d="M222.225,333.65c0,4.797-3.89,8.688-8.683,8.688h-33.52c-4.783,0-8.678-3.89-8.678-8.688v-33.51      c0-4.797,3.895-8.688,8.678-8.688h33.52c4.793,0,8.683,3.89,8.683,8.688V333.65z" style="fill:#DFE0E1;"/><path d="M279.019,333.65c0,4.797-3.89,8.688-8.678,8.688h-33.524c-4.793,0-8.688-3.89-8.688-8.688v-33.51      c0-4.797,3.895-8.688,8.688-8.688h33.524c4.788,0,8.678,3.89,8.678,8.688V333.65z" style="fill:#DFE0E1;"/><path d="M335.377,332.675c0,4.792-3.895,8.678-8.693,8.678h-33.51c-4.797,0-8.698-3.886-8.698-8.678      v-89.033c0-4.802,3.9-8.693,8.698-8.693h33.51c4.797,0,8.693,3.89,8.693,8.693V332.675z" style="fill:#7DBEBD;"/><g><path d="M209.161,256.191h-8.169v-8.178c0-0.587-0.48-1.067-1.067-1.067h-6.277       c-0.597,0-1.072,0.48-1.072,1.067v8.178h-8.179c-0.592,0-1.067,0.475-1.067,1.067v6.277c0,0.597,0.475,1.072,1.067,1.072h8.179       v8.179c0,0.582,0.475,1.067,1.072,1.067h6.277c0.587,0,1.067-0.485,1.067-1.067v-8.179h8.169c0.592,0,1.077-0.475,1.077-1.072       v-6.277C210.238,256.666,209.753,256.191,209.161,256.191z" style="fill:#FFFFFF;"/><path d="M202.734,317.177l5.782-5.782c0.407-0.422,0.407-1.096,0-1.509l-4.443-4.443       c-0.412-0.417-1.096-0.417-1.504,0l-5.787,5.782l-5.783-5.782c-0.422-0.417-1.086-0.417-1.509,0l-4.443,4.443       c-0.407,0.412-0.407,1.087,0,1.509l5.787,5.782l-5.787,5.787c-0.407,0.408-0.407,1.087,0,1.504l4.443,4.443       c0.422,0.412,1.087,0.412,1.509,0l5.792-5.782l5.777,5.782c0.408,0.412,1.092,0.412,1.504,0l4.443-4.443       c0.407-0.417,0.407-1.096,0-1.504L202.734,317.177z" style="fill:#FFFFFF;"/><path d="M265.961,256.191h-24.769c-0.602,0-1.077,0.475-1.077,1.067v6.277       c0,0.597,0.475,1.072,1.077,1.072h24.769c0.597,0,1.062-0.475,1.062-1.072v-6.277       C267.023,256.666,266.557,256.191,265.961,256.191z" style="fill:#FFFFFF;"/><path d="M323.376,275.978v6.277c0,0.587-0.471,1.067-1.067,1.067h-24.759       c-0.592,0-1.067-0.48-1.067-1.067v-6.277c0-0.592,0.475-1.067,1.067-1.067h24.759       C322.905,274.911,323.376,275.386,323.376,275.978z M322.308,288.367h-24.759c-0.592,0-1.067,0.47-1.067,1.058v6.292       c0,0.587,0.475,1.062,1.067,1.062h24.759c0.597,0,1.067-0.475,1.067-1.062v-6.292       C323.376,288.838,322.905,288.367,322.308,288.367z" style="fill:#FFFFFF;"/><path d="M241.832,324.186c-0.407-0.417-0.407-1.106,0-1.518l17.531-17.507       c0.408-0.417,1.087-0.417,1.504,0l4.443,4.444c0.417,0.412,0.417,1.086,0,1.499l-17.512,17.526       c-0.417,0.408-1.106,0.408-1.504,0L241.832,324.186z" style="fill:#FFFFFF;"/></g></g></g></g></g><g id="Layer_1"/></svg>