<?xml version="1.0" ?><!DOCTYPE svg  PUBLIC '-//W3C//DTD SVG 1.1//EN'  'http://www.w3.org/Graphics/SVG/1.1/DTD/svg11.dtd'><svg style="enable-background:new 0 0 499.997 499.997;" version="1.1" viewBox="0 0 499.997 499.997" xml:space="preserve" xmlns="http://www.w3.org/2000/svg" xmlns:xlink="http://www.w3.org/1999/xlink"><g id="dvd-disc-drive"><g><path d="M249.996,0C111.93,0,0,111.925,0,250.001c0,138.062,111.93,249.996,249.996,249.996    c138.076,0,250.001-111.934,250.001-249.996C499.997,111.925,388.072,0,249.996,0z" style="fill:#656D78;"/><g id="_x31_6"><path d="M386.602,345.418c0.048,11.977-9.619,22.63-21.582,22.678H135.214     c-11.962,0.039-21.708-9.609-21.756-21.587l-0.058-16.1c-0.054-11.967,9.614-21.708,21.577-21.756h229.812     c11.957-0.048,21.703,8.693,21.741,20.651L386.602,345.418z" style="fill:#FFFFFF;"/><path d="M352.694,357.235c0.01,1.217-0.97,2.207-2.193,2.207l-11.657,0.054     c-1.213,0-2.207-0.98-2.207-2.202l0,0c0-1.213,0.975-2.202,2.193-2.207l11.652-0.049     C351.7,355.028,352.694,356.013,352.694,357.235L352.694,357.235z" style="fill:#F2955C;"/><g><path d="M363.051,337.516c0.034,6.432-5.162,12.471-11.604,12.505H148.641      c-6.432,0.029-11.666-5.166-11.691-11.603l0,0c-0.029-6.437,5.161-11.666,11.603-11.691H351.36      C357.797,326.698,363.036,331.079,363.051,337.516L363.051,337.516z" style="fill:#E9E9EA;"/><rect height="2.93" style="fill:#BBC1C9;" width="225.698" x="137.353" y="336.294"/></g><g><g><g><g><path d="M253.775,131.901c-45.768,0-82.868,37.104-82.868,82.878c0,45.768,37.1,82.863,82.868,82.863         c45.768,0,82.868-37.094,82.868-82.863C336.643,169.005,299.543,131.901,253.775,131.901z M253.775,235.138         c-11.254,0-20.373-9.115-20.373-20.359c0-11.249,9.12-20.369,20.373-20.369c11.245,0,20.36,9.12,20.36,20.369         C274.134,226.023,265.019,235.138,253.775,235.138z" style="fill:#E5E6E7;"/></g><g><path d="M253.775,187.871c-14.858,0-26.903,12.04-26.903,26.908c0,14.853,12.045,26.893,26.903,26.893         c14.859,0,26.904-12.04,26.904-26.893C280.678,199.91,268.633,187.871,253.775,187.871z M253.775,229.792         c-8.295,0-15.023-6.723-15.023-15.013c0-8.305,6.728-15.023,15.023-15.023c8.295,0,15.014,6.718,15.014,15.023         C268.788,223.069,262.07,229.792,253.775,229.792z" style="fill:#AAB2BC;"/></g><g><path d="M226.639,230.879l-39.006,23.168c1.373,2.323,2.862,4.564,4.478,6.728l36.372-27.132         C227.822,232.751,227.206,231.839,226.639,230.879z" style="fill:#FFFFFF;"/><path d="M284.321,206.842l43.925-11.409c-0.747-2.906-1.688-5.744-2.76-8.504l-42.29,16.416         C283.637,204.48,284.011,205.649,284.321,206.842z" style="fill:#FFFFFF;"/><path d="M281.74,200.119l40.17-21.043c-7.296-13.908-18.729-25.307-32.661-32.559l-20.917,40.243         C274.052,189.743,278.742,194.41,281.74,200.119z" style="fill:#FFFFFF;"/></g></g></g></g></g></g></g><g id="Layer_1"/></svg>