<?xml version="1.0" ?><!DOCTYPE svg  PUBLIC '-//W3C//DTD SVG 1.1//EN'  'http://www.w3.org/Graphics/SVG/1.1/DTD/svg11.dtd'><svg style="enable-background:new 0 0 500 499.992;" version="1.1" viewBox="0 0 500 499.992" xml:space="preserve" xmlns="http://www.w3.org/2000/svg" xmlns:xlink="http://www.w3.org/1999/xlink"><g id="fax"><g><path d="M250.001,0C111.93,0,0,111.93,0,249.996c0,138.071,111.93,249.996,250.001,249.996    C388.07,499.992,500,388.067,500,249.996C500,111.93,388.07,0,250.001,0z" style="fill:#7DBEBD;"/><g id="_x36_"><path d="M361.763,231.058v132.677c0,9.474-8.06,17.16-18.021,17.16H156.255     c-9.961,0-18.021-7.686-18.021-17.16V231.058c0-9.474,8.059-17.148,18.021-17.148h21.128v-79.266     c0-8.576,6.973-15.547,15.545-15.547h116.407c8.567,0,15.535,6.971,15.535,15.547v79.266h18.872     C353.703,213.91,361.763,221.584,361.763,231.058z" style="fill:#FFFFFF;"/><path d="M174.314,346.056h-11.741c-0.512,0-0.922,0.41-0.922,0.912v11.751c0,0.502,0.41,0.91,0.922,0.91     h11.741c0.512,0,0.912-0.407,0.912-0.91v-11.751C175.226,346.466,174.826,346.056,174.314,346.056z" style="fill:#EFEFF0;"/><path d="M248.398,346.056h-11.742c-0.507,0-0.921,0.41-0.921,0.912v11.751c0,0.502,0.415,0.91,0.921,0.91     h11.742c0.512,0,0.919-0.407,0.919-0.91v-11.751C249.317,346.466,248.909,346.056,248.398,346.056z" style="fill:#EFEFF0;"/><path d="M248.398,314.113h-11.742c-0.507,0-0.921,0.407-0.921,0.905v11.751     c0,0.502,0.415,0.912,0.921,0.912h11.742c0.512,0,0.919-0.41,0.919-0.912v-11.751     C249.317,314.52,248.909,314.113,248.398,314.113z" style="fill:#EFEFF0;"/><path d="M184.518,213.91h133.216v-79.266c0-4.642-3.772-8.414-8.399-8.414H192.927     c-4.635,0-8.409,3.771-8.409,8.414V213.91z" style="fill:#F5F6F6;"/><rect height="19.003" style="fill:#E8E9EB;" width="147.494" x="177.378" y="194.906"/><path d="M179.6,345.588c0-2.154-1.756-3.9-3.905-3.9h-14.502c-2.166,0-3.905,1.746-3.905,3.9v14.507     c0,2.151,1.739,3.905,3.905,3.905h14.502c2.149,0,3.905-1.754,3.905-3.905V345.588z" style="fill:#EFEFF0;"/><path d="M179.6,313.637c0-2.151-1.756-3.905-3.905-3.905h-14.502c-2.166,0-3.905,1.753-3.905,3.905v14.509     c0,2.151,1.739,3.9,3.905,3.9h14.502c2.149,0,3.905-1.749,3.905-3.9V313.637z" style="fill:#EFEFF0;"/><path d="M179.6,281.699c0-1.484-0.858-2.734-2.074-3.393c-0.553-0.308-1.166-0.522-1.831-0.522h-14.502     c-2.166,0-3.905,1.758-3.905,3.915v14.497c0,2.163,1.739,3.91,3.905,3.91h14.502c2.149,0,3.905-1.747,3.905-3.91V284.83V281.699z     " style="fill:#EFEFF0;"/><path d="M216.653,345.588c0-2.154-1.763-3.9-3.92-3.9h-14.497c-2.164,0-3.92,1.746-3.92,3.9v14.507     c0,2.151,1.756,3.905,3.92,3.905h14.497c2.156,0,3.92-1.754,3.92-3.905V345.588z" style="fill:#EFEFF0;"/><path d="M216.653,313.637c0-2.151-1.763-3.905-3.92-3.905h-14.497c-2.164,0-3.92,1.753-3.92,3.905v14.509     c0,2.151,1.756,3.9,3.92,3.9h14.497c2.156,0,3.92-1.749,3.92-3.9V313.637z" style="fill:#EFEFF0;"/><path d="M216.653,281.699c0-2.156-1.763-3.915-3.92-3.915h-14.497c-2.164,0-3.92,1.758-3.92,3.915v3.662     v3.57v3.57v3.694c0,2.163,1.756,3.91,3.92,3.91h14.497c2.156,0,3.92-1.747,3.92-3.91v-3.694v-3.57v-3.57V281.699z" style="fill:#EFEFF0;"/><path d="M253.683,345.588c0-2.154-1.749-3.9-3.905-3.9h-14.504c-2.156,0-3.902,1.746-3.902,3.9v14.507     c0,2.151,1.746,3.905,3.902,3.905h14.504c2.156,0,3.905-1.754,3.905-3.905V345.588z" style="fill:#EFEFF0;"/><path d="M253.683,313.637c0-2.151-1.749-3.905-3.905-3.905h-14.504c-2.156,0-3.902,1.753-3.902,3.905     v14.509c0,2.151,1.746,3.9,3.902,3.9h14.504c2.156,0,3.905-1.749,3.905-3.9V313.637z" style="fill:#EFEFF0;"/><path d="M253.683,281.699c0-2.156-1.749-3.915-3.905-3.915h-14.504c-2.156,0-3.902,1.758-3.902,3.915     v3.662v3.57v3.57v3.694c0,2.163,1.746,3.91,3.902,3.91h14.504c2.156,0,3.905-1.747,3.905-3.91v-3.694v-3.57v-3.57V281.699z" style="fill:#EFEFF0;"/><path d="M174.314,314.113h-11.741c-0.512,0-0.922,0.407-0.922,0.905v11.751     c0,0.502,0.41,0.912,0.922,0.912h11.741c0.512,0,0.912-0.41,0.912-0.912v-11.751C175.226,314.52,174.826,314.113,174.314,314.113     z" style="fill:#EFEFF0;"/><path d="M211.354,314.113h-11.737c-0.512,0-0.922,0.407-0.922,0.905v11.751     c0,0.502,0.41,0.912,0.922,0.912h11.737c0.512,0,0.919-0.41,0.919-0.912v-11.751C212.273,314.52,211.865,314.113,211.354,314.113     z" style="fill:#EFEFF0;"/><path d="M211.354,346.056h-11.737c-0.512,0-0.922,0.41-0.922,0.912v11.751c0,0.502,0.41,0.91,0.922,0.91     h11.737c0.512,0,0.919-0.407,0.919-0.91v-11.751C212.273,346.466,211.865,346.056,211.354,346.056z" style="fill:#EFEFF0;"/><path d="M174.314,282.162h-11.741c-0.512,0-0.922,0.41-0.922,0.912v11.741c0,0.507,0.41,0.917,0.922,0.917     h11.741c0.512,0,0.912-0.41,0.912-0.917v-11.741C175.226,282.572,174.826,282.162,174.314,282.162z" style="fill:#EFEFF0;"/><path d="M211.354,282.162h-11.737c-0.512,0-0.922,0.41-0.922,0.912v2.971v2.886v2.896v2.988     c0,0.507,0.41,0.917,0.922,0.917h11.737c0.512,0,0.919-0.41,0.919-0.917v-2.988v-2.896v-2.886v-2.971     C212.273,282.572,211.865,282.162,211.354,282.162z" style="fill:#EFEFF0;"/><path d="M248.398,282.162h-11.742c-0.507,0-0.921,0.41-0.921,0.912v2.971v2.886v2.896v2.988     c0,0.507,0.415,0.917,0.921,0.917h11.742c0.512,0,0.919-0.41,0.919-0.917v-2.988v-2.896v-2.886v-2.971     C249.317,282.572,248.909,282.162,248.398,282.162z" style="fill:#EFEFF0;"/><path d="M255.133,243.559c0-2.433-0.512-4.113-0.99-5.147c-0.216-0.471-0.441-0.847-0.597-1.024h-47.91     h-21.119h-3.565h-3.571h-16.284c-0.509,0.548-1.569,2.627-1.569,6.17v12.757c0,3.544,1.06,5.618,1.569,6.161h16.284h3.571h3.565     h69.028c0.485-0.502,1.434-2.431,1.548-5.605c0-0.197,0.039-0.35,0.039-0.556v-4.474V243.559z" style="fill:#AAB2BC;"/><path d="M351.656,232.479c0-6.316-5.571-11.429-12.443-11.429H324.87h-3.57h-3.566h-18.455     c-6.874,0-12.443,5.113-12.443,11.429v0.893v5.04v13.43v5.03v28.489v3.57v3.57v65.264c0,6.32,5.569,11.443,12.443,11.443h39.935     c6.871,0,12.443-5.123,12.443-11.443V232.479z" style="fill:#EFEFF0;"/><g><rect height="5.037" style="fill:#E0E2E4;" width="91.277" x="205.637" y="149.037"/><rect height="5.03" style="fill:#E0E2E4;" width="91.277" x="205.637" y="167.509"/><rect height="5.038" style="fill:#E0E2E4;" width="91.277" x="205.637" y="185.974"/></g><path d="M335.289,227.133h-10.42h-3.57h-3.566h-14.536c-4.082,0-7.587,2.571-9.134,6.239     c-0.548,1.288-0.866,2.712-0.866,4.208v0.832v13.43v5.03v28.489v3.57v3.57v59.484c0,5.761,4.478,10.432,10,10.432h32.091     c5.518,0,9.995-4.671,9.995-10.432V237.58C345.285,231.812,340.807,227.133,335.289,227.133z" style="fill:#FFFFFF;"/></g></g></g><g id="Layer_1"/></svg>