<?xml version="1.0" ?><!DOCTYPE svg  PUBLIC '-//W3C//DTD SVG 1.1//EN'  'http://www.w3.org/Graphics/SVG/1.1/DTD/svg11.dtd'><svg style="enable-background:new 0 0 499.997 499.998;" version="1.1" viewBox="0 0 499.997 499.998" xml:space="preserve" xmlns="http://www.w3.org/2000/svg" xmlns:xlink="http://www.w3.org/1999/xlink"><g id="email-enveloppe"><g><path d="M250.001,0C111.93,0,0,111.93,0,250.001c0,138.066,111.93,249.996,250.001,249.996    c138.066,0,249.996-111.93,249.996-249.996C499.997,111.93,388.067,0,250.001,0z" style="fill:#DFC97A;"/><g id="_x31_1"><g id="icon"><g id="envelope_1_"><path d="M347.407,181.451l-112.255,86.072l112.255,86.069c5.21,0,9.488-4.273,9.488-9.488V190.941       C356.895,185.722,352.617,181.451,347.407,181.451z" style="fill:#E6E6E6;"/><path d="M122.888,181.451c-5.215,0-9.489,4.271-9.489,9.491v153.163c0,5.215,4.274,9.488,9.489,9.488       l112.265-86.069L122.888,181.451z" style="fill:#FCFCFC;"/><polygon points="120.521,353.592 349.779,353.592 235.153,251.338      " style="fill:#CDCDCD;"/><polygon points="122.888,353.592 347.407,353.592 235.153,256.085      " style="fill:#F0F0F0;"/><polygon points="347.407,183.832 122.888,183.832 237.515,300.308      " style="fill:#CCD1D9;"/><polygon points="347.407,181.451 122.888,181.451 235.143,278.959      " style="fill:#FFFFFF;"/></g><g id="pointer"><path d="M339.175,146.405c-26.19,0-47.418,17.589-47.418,39.295c0,10.915,5.365,20.791,14.053,27.919       l-2.988,20.134l18.002-11.812c5.646,1.962,11.855,3.049,18.351,3.049c26.2,0,47.427-17.592,47.427-39.29       C386.602,163.995,365.375,146.405,339.175,146.405z" style="fill:#F2955C;"/><g id="shadow_2_"><polygon id="color_2_" points="298.083,233.753 356.895,276.322 356.895,252.601       " style="fill:#CCD1D9;"/></g><g><path d="M350.677,206.906c-3.929,2.071-7.921,2.857-12.704,2.857c-11.706,0-21.625-8.567-21.625-22.27        c0-14.698,10.206-27.403,26.049-27.403c12.418,0,20.771,8.707,20.771,20.623c0,10.706-5.996,16.986-12.709,16.986        c-2.853,0-5.491-1.926-5.278-6.28h-0.287c-2.498,4.21-5.782,6.28-10.065,6.28c-4.138,0-7.703-3.352-7.703-8.991        c0-8.85,6.99-16.915,16.915-16.915c3.065,0,5.777,0.643,7.635,1.502l-2.431,12.916c-1.067,5.426-0.209,7.924,2.144,7.994        c3.638,0.071,7.708-4.781,7.708-13.061c0-10.347-6.209-17.771-17.269-17.771c-11.637,0-21.417,9.207-21.417,23.694        c0,11.919,7.781,19.27,18.346,19.27c4.07,0,7.849-0.856,10.774-2.498L350.677,206.906z M346.748,176.076        c-0.713-0.213-1.926-0.5-3.566-0.5c-6.282,0-11.346,5.923-11.346,12.846c0,3.141,1.572,5.426,4.711,5.426        c4.138,0,7.921-5.283,8.707-9.707L346.748,176.076z" style="fill:#F7BF9D;"/></g></g></g></g></g></g><g id="Layer_1"/></svg>