<?xml version="1.0" ?><!DOCTYPE svg  PUBLIC '-//W3C//DTD SVG 1.1//EN'  'http://www.w3.org/Graphics/SVG/1.1/DTD/svg11.dtd'><svg style="enable-background:new 0 0 500 499.997;" version="1.1" viewBox="0 0 500 499.997" xml:space="preserve" xmlns="http://www.w3.org/2000/svg" xmlns:xlink="http://www.w3.org/1999/xlink"><g id="latop"><g><path d="M250.001,0C111.93,0,0,111.93,0,249.996c0,138.071,111.93,250.001,250.001,250.001    C388.07,499.997,500,388.067,500,249.996C500,111.93,388.07,0,250.001,0z" style="fill:#F2955C;"/><g id="_x32_"><path d="M126.055,330.885c-5.486,0-9.971-4.487-9.971-9.971V173.041c0-5.484,4.485-9.971,9.971-9.971     h247.891c5.486,0,9.973,4.487,9.973,9.971v147.873c0,5.484-4.487,9.971-9.973,9.971H126.055z" style="fill:#FFFFFF;"/><path d="M389.205,325.016H110.799H74.364c0,0,0,11.911,11.906,11.911c11.912,0,315.549,0,327.456,0     c11.912,0,11.912-11.911,11.912-11.911H389.205z" style="fill:#EFEFF0;"/><rect height="139.708" style="fill:#656D78;" width="239.727" x="130.14" y="177.121"/></g></g></g><g id="Layer_1"/></svg>