<?xml version="1.0" ?><!DOCTYPE svg  PUBLIC '-//W3C//DTD SVG 1.1//EN'  'http://www.w3.org/Graphics/SVG/1.1/DTD/svg11.dtd'><svg style="enable-background:new 0 0 499.997 499.997;" version="1.1" viewBox="0 0 499.997 499.997" xml:space="preserve" xmlns="http://www.w3.org/2000/svg" xmlns:xlink="http://www.w3.org/1999/xlink"><g id="usb"><g><path d="M250.001,0C111.93,0,0,111.93,0,249.996c0,138.071,111.93,250.001,250.001,250.001    c138.066,0,249.996-111.93,249.996-250.001C499.997,111.93,388.067,0,250.001,0z" style="fill:#656D78;"/><g id="_x37_"><g><path d="M202.157,270.777c-2.765,0-5.03-2.27-5.03-5.04V119.551c0-2.77,2.265-5.045,5.03-5.045h95.674      c2.77,0,5.045,2.275,5.045,5.045v146.186c0,2.77-2.275,5.04-5.045,5.04H202.157z" style="fill:#FFFFFF;"/><path d="M197.126,171.004v102.194c0,2.77,2.265,5.04,5.03,5.04h95.674c2.77,0,5.045-2.27,5.045-5.04      V171.004H197.126z" style="fill:#E6E9ED;"/><path d="M182.569,385.487c-3.905,0-7.082-3.187-7.082-7.102v-187.4c0-3.91,3.178-7.102,7.082-7.102      h134.841c3.91,0,7.097,3.192,7.097,7.102v187.4c0,3.915-3.187,7.102-7.097,7.102H182.569z" style="fill:#FFFFFF;"/></g><g><path d="M237.093,149.878c0,3.241-2.634,5.855-5.86,5.855h-7.538c-3.24,0-5.85-2.614-5.85-5.855v-13.073      c0-3.236,2.61-5.855,5.85-5.855h7.538c3.226,0,5.86,2.619,5.86,5.855V149.878z" style="fill:#AAB2BC;"/><path d="M282.158,149.878c0,3.241-2.625,5.855-5.855,5.855h-7.533c-3.231,0-5.864-2.614-5.864-5.855      v-13.073c0-3.236,2.634-5.855,5.864-5.855h7.533c3.231,0,5.855,2.619,5.855,5.855V149.878z" style="fill:#AAB2BC;"/></g><path d="M239.605,338.506c-13.17-0.034-23.808-10.75-23.769-23.925l0.077-23.677l-6.209-0.024     c-0.854,0-1.572-0.713-1.557-1.577l0.059-19.855c0-0.873,0.703-1.567,1.576-1.567l19.85,0.063c0.873,0,1.562,0.703,1.562,1.581     l-0.054,19.85c-0.009,0.868-0.708,1.572-1.581,1.572l-5.797-0.024l-0.068,23.677c-0.009,4.429,1.756,8.411,4.652,11.322     c2.887,2.911,6.859,4.72,11.288,4.725l4.269,0.005l0.228-74.107c-5.195-1.683-8.96-6.573-8.94-12.341     c0.014-7.131,5.831-12.904,12.961-12.874c7.131,0.009,12.894,5.816,12.87,12.952c-0.01,5.758-3.799,10.633-9.013,12.283     l-0.242,74.117l2.154,0.004c4.448,0.015,8.407-1.751,11.336-4.637c2.896-2.896,4.706-6.873,4.706-11.298l0.048-13.68     l-9.862-0.029c-1.455-0.01-1.955-0.98-1.135-2.164l13.345-19.21c0.82-1.193,2.159-1.193,2.973,0.015l13.219,19.292     c0.81,1.184,0.31,2.154-1.126,2.154l-9.552-0.029l-0.034,13.675c-0.044,13.18-10.759,23.818-23.93,23.784L239.605,338.506z" style="fill:#EFEFF0;"/></g></g></g><g id="Layer_1"/></svg>