<?xml version="1.0" ?><!DOCTYPE svg  PUBLIC '-//W3C//DTD SVG 1.1//EN'  'http://www.w3.org/Graphics/SVG/1.1/DTD/svg11.dtd'><svg style="enable-background:new 0 0 500 499.992;" version="1.1" viewBox="0 0 500 499.992" xml:space="preserve" xmlns="http://www.w3.org/2000/svg" xmlns:xlink="http://www.w3.org/1999/xlink"><g id="photo-camera"><g><path d="M250.001,0C111.93,0,0,111.92,0,249.996c0,138.066,111.93,249.996,250.001,249.996    C388.07,499.992,500,388.062,500,249.996C500,111.92,388.07,0,250.001,0z" style="fill:#F2955C;"/><g id="_x33_4"><path d="M356.697,166.92H143.305c-9.654,0-17.487,7.829-17.487,17.482V326.66     c0,9.653,7.834,17.492,17.487,17.492h213.391c9.648,0,17.487-7.839,17.487-17.492V184.402     C374.184,174.749,366.345,166.92,356.697,166.92z" style="fill:#FFFFFF;"/><path d="M297.807,318.49c-33.161,0-60.049-26.869-60.049-60.045c0-33.16,26.889-60.044,60.049-60.044     s60.049,26.884,60.049,60.044C357.856,291.622,330.967,318.49,297.807,318.49z" style="fill:#F1F2F6;"/><path d="M297.807,209.161c-27.213,0-49.285,22.067-49.285,49.285c0,27.214,22.072,49.28,49.285,49.28     c27.218,0,49.285-22.066,49.285-49.28C347.092,231.228,325.025,209.161,297.807,209.161z M297.807,290.52     c-17.71,0-32.07-14.354-32.07-32.075c0-17.72,14.359-32.074,32.07-32.074c17.706,0,32.069,14.354,32.069,32.074     C329.876,276.166,315.512,290.52,297.807,290.52z" style="fill:#DBDFE4;"/><path d="M297.807,236.365c-12.195,0-22.077,9.877-22.077,22.081c0,12.195,9.881,22.086,22.077,22.086     c12.19,0,22.076-9.891,22.076-22.086C319.883,246.241,309.997,236.365,297.807,236.365z" style="fill:#CCD1D9;"/><path d="M192.508,164.581c-0.834-4.958-5.122-8.742-10.323-8.742h-25.797     c-5.191,0-9.484,3.784-10.313,8.742H192.508z" style="fill:#656D78;"/><path d="M209.787,202.632v-10.774c0-2.134,1.746-3.876,3.861-3.876h29.227     c2.125,0,3.866,1.742,3.866,3.876v10.774c0,2.13-1.742,3.871-3.866,3.871h-29.227     C211.533,206.503,209.787,204.761,209.787,202.632z" style="fill:#DBDFE4;"/></g></g></g><g id="Layer_1"/></svg>