<?xml version="1.0" ?><!DOCTYPE svg  PUBLIC '-//W3C//DTD SVG 1.1//EN'  'http://www.w3.org/Graphics/SVG/1.1/DTD/svg11.dtd'><svg style="enable-background:new 0 0 499.997 500.002;" version="1.1" viewBox="0 0 499.997 500.002" xml:space="preserve" xmlns="http://www.w3.org/2000/svg" xmlns:xlink="http://www.w3.org/1999/xlink"><g id="speech-bubble"><g><path d="M250.001,0C111.93,0,0,111.94,0,249.997c0,138.076,111.93,250.005,250.001,250.005    c138.066,0,249.996-111.93,249.996-250.005C499.997,111.94,388.067,0,250.001,0z" style="fill:#656D78;"/><g id="_x32_3"><path d="M160.463,236.991h66.031c21.883,0,39.622,17.74,39.622,39.627v16.513     c0,21.882-17.74,39.622-39.622,39.622h-38.841l-26.467,26.142c-5.064,5.016-9.212,3.269-9.212-3.856v-23.207     c-17.807-3.895-31.148-19.734-31.148-38.7v-16.513C120.826,254.731,138.571,236.991,160.463,236.991z" style="fill:#F2955C;"/><path d="M319.515,138.232h-85.065c-32.948,0-59.662,26.719-59.662,59.656v24.856     c0,32.943,26.714,59.652,59.662,59.652h44.124l39.83,39.361c7.645,7.553,13.893,4.933,13.893-5.807v-34.936     c26.806-5.855,46.869-29.712,46.869-58.269v-24.856C379.166,164.95,352.452,138.232,319.515,138.232z" style="fill:#FFFFFF;"/><g><g><path d="M207.614,211.014c0,8.077,6.549,14.63,14.621,14.63c8.077,0,14.625-6.553,14.625-14.63       s-6.548-14.62-14.625-14.62C214.163,196.394,207.614,202.938,207.614,211.014z" style="fill:#EFEFF0;"/></g><g><path d="M259.732,211.014c0,8.077,6.544,14.63,14.621,14.63c8.072,0,14.625-6.553,14.625-14.63       s-6.553-14.62-14.625-14.62C266.276,196.394,259.732,202.938,259.732,211.014z" style="fill:#EFEFF0;"/></g><g><path d="M311.836,211.014c0,8.077,6.553,14.63,14.63,14.63c8.076,0,14.616-6.553,14.616-14.63       s-6.539-14.62-14.616-14.62C318.389,196.394,311.836,202.938,311.836,211.014z" style="fill:#EFEFF0;"/></g></g></g></g></g><g id="Layer_1"/></svg>