<?xml version="1.0" ?><!DOCTYPE svg  PUBLIC '-//W3C//DTD SVG 1.1//EN'  'http://www.w3.org/Graphics/SVG/1.1/DTD/svg11.dtd'><svg style="enable-background:new 0 0 499.997 500.002;" version="1.1" viewBox="0 0 499.997 500.002" xml:space="preserve" xmlns="http://www.w3.org/2000/svg" xmlns:xlink="http://www.w3.org/1999/xlink"><g id="shared-folder_x5F_network"><g><path d="M250.001,0C111.93,0,0,111.93,0,249.997c0,138.066,111.93,250.005,250.001,250.005    c138.066,0,249.996-111.939,249.996-250.005C499.997,111.93,388.067,0,250.001,0z" style="fill:#F2955C;"/><g id="_x32_5"><g><rect height="5.811" style="fill:#EFEFF0;" width="62.548" x="293.841" y="341.838"/><rect height="5.811" style="fill:#EFEFF0;" width="62.555" x="143.606" y="341.838"/><polygon points="244.723,318.152 255.284,318.152 255.284,336.328 289.017,336.328 289.017,353.927       210.995,353.927 210.995,336.328 244.723,336.328     " style="fill:#656D78;"/></g><g><path d="M369.214,177.708v134.103H130.783V201.497c0-8.64,7.07-15.717,15.724-15.717h121.268      c5.579,0,10.243-3.958,11.339-9.216c0.066-0.306,0.122-0.636,0.158-0.956l0,0c1.033-7.655,7.623-13.616,15.562-13.616h58.662      C362.144,161.991,369.214,169.059,369.214,177.708z" style="fill:#FFFFFF;"/></g></g></g></g><g id="Layer_1"/></svg>