<?xml version="1.0" ?><!DOCTYPE svg  PUBLIC '-//W3C//DTD SVG 1.1//EN'  'http://www.w3.org/Graphics/SVG/1.1/DTD/svg11.dtd'><svg style="enable-background:new 0 0 499.997 499.992;" version="1.1" viewBox="0 0 499.997 499.992" xml:space="preserve" xmlns="http://www.w3.org/2000/svg" xmlns:xlink="http://www.w3.org/1999/xlink"><g id="video-camera"><g><path d="M249.996,0C111.935,0,0,111.92,0,249.996c0,138.066,111.935,249.996,249.996,249.996    c138.076,0,250.001-111.93,250.001-249.996C499.997,111.92,388.072,0,249.996,0z" style="fill:#DFC97A;"/><g id="_x33_6"><path d="M136.64,178.164c-5.283,0-9.6,4.298-9.6,9.59v110.382H103.96c-4.371,0-7.946-3.561-7.946-7.926     V186.071c0-4.37,3.575-7.907,7.946-7.907H136.64z" style="fill:#656D78;"/><rect height="72.39" style="fill:#656D78;" width="30.876" x="311.103" y="199.148"/><polygon points="345.147,196.054 345.147,199.149 345.147,271.539 345.147,274.619 386.51,292.034      388.581,292.927 388.581,177.722 386.51,178.629    " style="fill:#656D78;"/><polygon points="391.924,176.733 391.924,178.629 391.924,292.034 391.924,293.955 403.988,293.955      403.988,176.733    " style="fill:#656D78;"/><g><path d="M307.431,187.754v11.395v72.39v42.106c0,5.312-4.298,9.614-9.605,9.614H141.612      c-5.317,0-9.59-4.303-9.59-9.614v-15.509V187.754c0-5.292,4.274-9.59,9.59-9.59h96.479h59.734      C303.133,178.164,307.431,182.462,307.431,187.754z" style="fill:#656D78;"/><path d="M259.625,240.309c0-2.887-2.334-5.244-5.23-5.244h-8.377h-97.775      c-2.877,0-5.229,2.357-5.229,5.244v57.828v10.784c0,2.886,2.353,5.224,5.229,5.224h106.152c2.896,0,5.23-2.338,5.23-5.224      V240.309z" style="fill:#848A93;"/><polygon points="286.315,221.511 255.919,191.125 246.018,191.125 143.014,191.125 143.014,221.511       246.018,221.511     " style="fill:#848A93;"/></g><path d="M238.305,247.066h-73.971c-2.003,0-3.624,1.033-3.624,2.338v30.861     c0,1.291,1.62,2.382,3.624,2.382h73.971c1.994,0,3.667-1.091,3.667-2.382v-30.861     C241.973,248.099,240.299,247.066,238.305,247.066z" style="fill:#FFFFFF;"/><g><path d="M276.996,305.675c-3.934,0-7.121-3.202-7.121-7.141c0-3.953,3.187-7.121,7.121-7.121      c3.944,0,7.141,3.168,7.141,7.121C284.136,302.473,280.94,305.675,276.996,305.675z" style="fill:#DFC97A;"/><path d="M276.996,278.684c-3.934,0-7.121-3.206-7.121-7.136c0-3.949,3.187-7.106,7.121-7.106      c3.944,0,7.141,3.158,7.141,7.106C284.136,275.478,280.94,278.684,276.996,278.684z" style="fill:#F2955C;"/><path d="M276.996,251.713c-3.934,0-7.121-3.206-7.121-7.146c0-3.915,3.187-7.131,7.121-7.131      c3.944,0,7.141,3.216,7.141,7.131C284.136,248.507,280.94,251.713,276.996,251.713z" style="fill:#7DBEBD;"/></g></g></g></g><g id="Layer_1"/></svg>