<?xml version="1.0" ?><!DOCTYPE svg  PUBLIC '-//W3C//DTD SVG 1.1//EN'  'http://www.w3.org/Graphics/SVG/1.1/DTD/svg11.dtd'><svg style="enable-background:new 0 0 499.997 499.997;" version="1.1" viewBox="0 0 499.997 499.997" xml:space="preserve" xmlns="http://www.w3.org/2000/svg" xmlns:xlink="http://www.w3.org/1999/xlink"><g id="modem"><g><path d="M249.996,0C111.93,0,0,111.93,0,249.996c0,138.076,111.93,250.001,249.996,250.001    c138.076,0,250.001-111.925,250.001-250.001C499.997,111.93,388.072,0,249.996,0z" style="fill:#F2955C;"/><g id="_x38_"><path d="M322.503,279.586h-2.775v-4.317c0-3.061-2.489-5.54-5.545-5.54H306.8l-1.562-73.297     c5.02-1.955,8.6-6.83,8.6-12.559c0-7.456-6.049-13.51-13.515-13.51c-7.455,0-13.5,6.054-13.5,13.51     c0,5.729,3.57,10.604,8.591,12.559l-1.562,73.297h-7.388c-3.061,0-5.53,2.479-5.53,5.54v4.317h-2.78     c-3.07,0-5.54,2.484-5.54,5.549v4.764h55.426v-4.764C328.042,282.07,325.568,279.586,322.503,279.586z" style="fill:#FFFFFF;"/><g><path d="M238.868,140.21c-17.424,27.267-16.333,61.063,0,86.637l12.782-8.169      c-13.257-20.748-14.14-48.16,0-70.285L238.868,140.21z" style="fill:#F6B58D;"/><path d="M265.218,157.067c-10.638,16.644-9.974,37.313,0,52.938l12.631-8.072      c-6.941-10.856-7.393-25.205,0-36.794L265.218,157.067z" style="fill:#F6B58D;"/><path d="M361.518,140.21l-12.777,8.184c14.141,22.125,13.253,49.537,0,70.285l12.777,8.169      C377.856,201.274,378.948,167.477,361.518,140.21z" style="fill:#F6B58D;"/><path d="M322.527,165.139c7.407,11.589,6.941,25.938,0,36.794l12.636,8.072      c9.973-15.625,10.648-36.294,0-52.938L322.527,165.139z" style="fill:#F6B58D;"/></g><path d="M372.714,328.163c0,17.463-14.16,31.618-31.619,31.618H157.441     c-17.468,0-31.623-14.155-31.623-31.618c0-17.473,14.155-31.618,31.623-31.618h183.655     C358.554,296.545,372.714,310.69,372.714,328.163z" style="fill:#FFFFFF;"/><path d="M164.766,328.707c0-6.064-4.904-10.953-10.939-10.953c-6.059,0-10.958,4.89-10.958,10.953     c0,6.034,4.899,10.944,10.958,10.944C159.861,339.65,164.766,334.741,164.766,328.707z" style="fill:#AAB2BC;"/><path d="M195.482,328.707c0-6.064-4.899-10.953-10.944-10.953c-6.049,0-10.944,4.89-10.944,10.953     c0,6.034,4.895,10.944,10.944,10.944C190.582,339.65,195.482,334.741,195.482,328.707z" style="fill:#7DBEBD;"/><path d="M226.203,328.707c0-6.064-4.89-10.953-10.944-10.953c-6.039,0-10.944,4.89-10.944,10.953     c0,6.034,4.904,10.944,10.944,10.944C221.313,339.65,226.203,334.741,226.203,328.707z" style="fill:#DFC97A;"/></g></g></g><g id="Layer_1"/></svg>