<?xml version="1.0" ?><!DOCTYPE svg  PUBLIC '-//W3C//DTD SVG 1.1//EN'  'http://www.w3.org/Graphics/SVG/1.1/DTD/svg11.dtd'><svg style="enable-background:new 0 0 500 500.002;" version="1.1" viewBox="0 0 500 500.002" xml:space="preserve" xmlns="http://www.w3.org/2000/svg" xmlns:xlink="http://www.w3.org/1999/xlink"><g id="memory-sd-card"><g><path d="M250.001,0C111.93,0,0,111.94,0,250.006c0,138.076,111.93,249.996,250.001,249.996    C388.07,500.002,500,388.082,500,250.006C500,111.94,388.07,0,250.001,0z" style="fill:#7DBEBD;"/><g id="_x32_2"><path d="M153.948,366.656c-8.673-0.019-15.695-7.039-15.712-15.712l0,0v-128.5     c0.152-7.81,3.837-16.712,9.246-22.339l0,0l57.512-57.517c5.632-5.394,14.533-9.086,22.346-9.241l0,0v4.492v4.487     c-4.55-0.165-12.891,3.308-15.988,6.626l0,0l-57.517,57.498c-3.318,3.109-6.779,11.448-6.619,15.993l0,0v128.5     c0.009,3.662,3.066,6.723,6.733,6.723l0,0h192.106c3.667,0,6.723-3.061,6.728-6.723l0,0V149.059     c-0.005-3.662-3.061-6.728-6.728-6.728l0,0H227.34v-0.005v-4.487v-4.502l118.714,0.01c8.668,0.019,15.697,7.034,15.712,15.712     l0,0v201.885c-0.015,8.673-7.044,15.693-15.712,15.712l0,0H153.948L153.948,366.656z" style="fill:#656D78;"/><g><path d="M227.726,139.735c-6.071,0-14.55,3.517-18.839,7.8l-56.53,56.542      c-4.298,4.293-7.807,12.772-7.807,18.831v126.323c0,6.059,4.972,11.026,11.035,11.026h188.838      c6.062,0,11.033-4.967,11.033-11.026v-198.46c0-6.059-4.972-11.036-11.033-11.036H227.726z" style="fill:#656D78;"/></g><g><path d="M181.385,318.341h-17.728c-1.344,0-2.445,1.096-2.445,2.444v39.38c7.381,0,15.021,0,22.598,0      v-39.38C183.81,319.437,182.709,318.341,181.385,318.341z" style="fill:#7C838C;"/><path d="M220.231,318.341h-17.72c-1.349,0-2.44,1.096-2.44,2.444v39.38c7.374,0,15.009,0,22.595,0v-39.38      C222.666,319.437,221.565,318.341,220.231,318.341z" style="fill:#7C838C;"/><path d="M259.084,318.341h-17.733c-1.336,0-2.425,1.096-2.425,2.444v39.38c7.369,0,15.006,0,22.588,0      v-39.38C261.514,319.437,260.414,318.341,259.084,318.341z" style="fill:#7C838C;"/><path d="M297.933,318.341h-17.725c-1.341,0-2.435,1.096-2.435,2.444v39.38c7.376,0,15.013,0,22.598,0      v-39.38C300.37,319.437,299.274,318.341,297.933,318.341z" style="fill:#7C838C;"/><path d="M336.788,318.341h-17.727c-1.334,0-2.433,1.096-2.433,2.444v39.38c7.378,0,15.009,0,22.593,0      v-39.38C339.221,319.437,338.125,318.341,336.788,318.341z" style="fill:#7C838C;"/></g><path d="M304.867,288.711c0,2.935-2.406,5.351-5.356,5.351h-95.085c-2.952,0-5.363-2.416-5.363-5.351     v-91.323c0-2.939,2.411-5.355,5.363-5.355h95.085c2.95,0,5.356,2.416,5.356,5.355V288.711z" style="fill:#FFFFFF;"/><g><path d="M227.949,230.709c-0.104-2.057-0.245-4.516-0.218-6.37h-0.071      c-0.505,1.722-1.111,3.566-1.863,5.613l-2.597,7.155h-1.441l-2.391-7.024c-0.696-2.086-1.293-3.992-1.705-5.744h-0.044      c-0.053,1.853-0.157,4.313-0.296,6.525l-0.385,6.325h-1.817l1.031-14.756h2.431l2.515,7.141c0.609,1.82,1.116,3.434,1.492,4.967      h0.061c0.374-1.499,0.898-3.119,1.565-4.967l2.622-7.141h2.43l0.914,14.756h-1.855L227.949,230.709z" style="fill:#E9E9EA;"/><path d="M234.262,232.252c0.044,2.595,1.712,3.672,3.641,3.672c1.375,0,2.209-0.238,2.93-0.548      l0.327,1.378c-0.682,0.301-1.843,0.655-3.517,0.655c-3.272,0-5.225-2.149-5.225-5.351c0-3.187,1.887-5.704,4.977-5.704      c3.449,0,4.385,3.046,4.385,4.997c0,0.383-0.054,0.693-0.078,0.902H234.262z M239.906,230.864      c0.024-1.217-0.5-3.134-2.668-3.134c-1.938,0-2.801,1.795-2.959,3.134H239.906z" style="fill:#E9E9EA;"/><path d="M244.167,229.463c0-1.091-0.022-1.994-0.082-2.862h1.676l0.087,1.698h0.078      c0.582-1.004,1.574-1.945,3.318-1.945c1.443,0,2.544,0.868,2.995,2.125h0.044c0.337-0.592,0.745-1.058,1.189-1.382      c0.628-0.475,1.336-0.742,2.338-0.742c1.407,0,3.486,0.912,3.486,4.594v6.243h-1.885v-5.996c0-2.042-0.735-3.27-2.307-3.27      c-1.086,0-1.938,0.82-2.268,1.756c-0.095,0.272-0.151,0.611-0.151,0.956v6.553h-1.885v-6.35c0-1.688-0.752-2.915-2.214-2.915      c-1.201,0-2.079,0.965-2.379,1.94c-0.124,0.272-0.158,0.602-0.158,0.936v6.388h-1.882V229.463z" style="fill:#E9E9EA;"/><path d="M272.036,231.815c0,3.91-2.722,5.613-5.292,5.613c-2.865,0-5.072-2.096-5.072-5.448      c0-3.556,2.321-5.627,5.256-5.627C269.965,226.353,272.036,228.56,272.036,231.815z M263.622,231.912      c0,2.319,1.332,4.075,3.216,4.075c1.843,0,3.221-1.742,3.221-4.118c0-1.785-0.905-4.065-3.175-4.065      C264.609,227.803,263.622,229.899,263.622,231.912z" style="fill:#E9E9EA;"/><path d="M274.467,229.899c0-1.247-0.027-2.324-0.09-3.299h1.683l0.061,2.076h0.087      c0.49-1.422,1.654-2.324,2.94-2.324c0.224,0,0.371,0.019,0.543,0.073v1.804c-0.194-0.044-0.38-0.063-0.652-0.063      c-1.364,0-2.321,1.024-2.579,2.469c-0.051,0.277-0.085,0.577-0.085,0.912v5.641h-1.908V229.899z" style="fill:#E9E9EA;"/><path d="M282.875,226.6l2.326,6.253c0.237,0.703,0.504,1.533,0.67,2.168h0.048      c0.197-0.635,0.41-1.441,0.682-2.212l2.103-6.209h2.035l-2.888,7.538c-1.382,3.643-2.333,5.506-3.636,6.646      c-0.946,0.834-1.885,1.154-2.36,1.247l-0.485-1.625c0.485-0.146,1.113-0.451,1.676-0.936c0.533-0.417,1.189-1.159,1.625-2.149      c0.087-0.194,0.152-0.349,0.152-0.456c0-0.111-0.039-0.267-0.129-0.514l-3.917-9.75H282.875z" style="fill:#E9E9EA;"/><path d="M227.379,246.659h-0.044l-2.469,1.334l-0.383-1.47l3.114-1.659h1.635v14.237h-1.853V246.659z" style="fill:#E9E9EA;"/><path d="M234.417,259.102v-1.184l1.521-1.47c3.631-3.454,5.275-5.302,5.3-7.437      c0-1.45-0.693-2.789-2.828-2.789c-1.286,0-2.362,0.655-3.008,1.213l-0.623-1.368c0.989-0.82,2.387-1.441,4.033-1.441      c3.058,0,4.351,2.101,4.351,4.138c0,2.624-1.906,4.749-4.902,7.631l-1.138,1.057v0.044h6.386v1.606H234.417z" style="fill:#E9E9EA;"/><path d="M245.497,255.483c0-1.795,1.06-3.061,2.818-3.808l-0.017-0.063      c-1.586-0.752-2.266-1.97-2.266-3.202c0-2.251,1.914-3.784,4.41-3.784c2.758,0,4.138,1.722,4.138,3.512      c0,1.194-0.594,2.489-2.341,3.309v0.073c1.766,0.698,2.865,1.96,2.865,3.682c0,2.469-2.124,4.138-4.841,4.138      C247.289,259.339,245.497,257.569,245.497,255.483z M253.156,255.4c0-1.732-1.206-2.571-3.126-3.11      c-1.673,0.475-2.566,1.577-2.566,2.93c-0.07,1.445,1.031,2.712,2.848,2.712C252.041,257.932,253.156,256.86,253.156,255.4z       M247.857,248.284c0,1.422,1.074,2.188,2.717,2.625c1.222-0.422,2.168-1.295,2.168-2.59c0-1.131-0.686-2.314-2.413-2.314      C248.74,246.004,247.857,247.052,247.857,248.284z" style="fill:#E9E9EA;"/><path d="M268.813,258.446c-0.846,0.291-2.542,0.81-4.531,0.81c-2.232,0-4.07-0.567-5.511-1.96      c-1.274-1.222-2.069-3.192-2.069-5.476c0.027-4.405,3.056-7.64,7.989-7.64c1.712,0,3.046,0.374,3.689,0.684l-0.458,1.552      c-0.793-0.349-1.771-0.631-3.272-0.631c-3.582,0-5.933,2.231-5.933,5.923c0,3.745,2.258,5.962,5.695,5.962      c1.249,0,2.106-0.175,2.54-0.393v-4.4h-2.998v-1.523h4.859V258.446z" style="fill:#E9E9EA;"/><path d="M271.58,259.102c0.049-0.728,0.09-1.805,0.09-2.736v-12.811h1.901v6.66h0.044      c0.681-1.184,1.906-1.96,3.616-1.96c2.637,0,4.489,2.198,4.465,5.413c0,3.784-2.386,5.671-4.751,5.671      c-1.53,0-2.763-0.602-3.544-1.998h-0.066l-0.097,1.761H271.58z M273.571,254.852c0,0.238,0.044,0.485,0.087,0.703      c0.366,1.339,1.494,2.251,2.886,2.251c2.02,0,3.226-1.649,3.226-4.075c0-2.12-1.099-3.944-3.153-3.944      c-1.317,0-2.54,0.902-2.938,2.367c-0.039,0.219-0.109,0.485-0.109,0.796V254.852z" style="fill:#E9E9EA;"/></g></g></g></g><g id="Layer_1"/></svg>