<?xml version="1.0" ?><!DOCTYPE svg  PUBLIC '-//W3C//DTD SVG 1.1//EN'  'http://www.w3.org/Graphics/SVG/1.1/DTD/svg11.dtd'><svg style="enable-background:new 0 0 499.997 499.992;" version="1.1" viewBox="0 0 499.997 499.992" xml:space="preserve" xmlns="http://www.w3.org/2000/svg" xmlns:xlink="http://www.w3.org/1999/xlink"><g id="television"><g><path d="M250.001,0C111.925,0,0,111.93,0,249.996s111.925,249.996,250.001,249.996    c138.062,0,249.996-111.93,249.996-249.996S388.063,0,250.001,0z" style="fill:#7DBEBD;"/><g id="_x33_5"><path d="M203.495,287.518c-3.046,0-5.545,2.493-5.545,5.545v28.276c0,3.056-1.557,7.499-3.468,9.872     l-22.969,29.038c1.489,1.722,0.102,2.556,3.148,2.556h154.171c0.17,0.16,1.261,0.015,3.338-2.512l-19.078-28.819     c-1.708-2.517-3.115-7.077-3.115-10.133v-28.276c0-3.051-2.493-5.545-5.545-5.545H203.495z" style="fill:#4C525A;"/><path d="M332.18,365.491v-5.21h-5.996H171.48v5.312c0,0.019,0,0.034,0,0.043v0.068h0.019     c0.077,0.538,0.8,1.024,1.955,1.024h156.791C331.026,366.728,332.287,366.204,332.18,365.491z" style="fill:#656D78;"/><path d="M370.095,321.523c0,16.799-13.621,30.425-30.43,30.425H160.317     c-16.798,0-30.42-13.626-30.42-30.425V173.613c0-16.803,13.621-30.415,30.42-30.415h179.348c16.808,0,30.43,13.611,30.43,30.415     V321.523z" style="fill:#656D78;"/><path d="M353.243,298.088c0,14.441-11.715,26.156-26.161,26.156H172.896     c-14.432,0-26.156-11.715-26.156-26.156V186.08c0-14.437,11.725-26.151,26.156-26.151h154.186     c14.446,0,26.161,11.715,26.161,26.151V298.088z" style="fill:#747C85;"/><path d="M348.091,295.303c0,13.708-11.128,24.841-24.856,24.841H176.738     c-13.713,0-24.842-11.133-24.842-24.841V188.884c0-13.728,11.128-24.846,24.842-24.846h146.497     c13.728,0,24.856,11.118,24.856,24.846V295.303z" style="fill:#F5F7FA;"/><g><rect height="157.431" style="fill:#E7EAF0;" width="35.048" x="179.629" y="162.714"/><rect height="157.431" style="fill:#CFD5E1;" width="35.028" x="214.677" y="162.714"/><path d="M176.738,162.714c-13.713,0-24.842,11.215-24.842,25.055V295.09      c0,13.83,11.128,25.055,24.842,25.055h2.891V162.714H176.738z" style="fill:#F5F7FA;"/><path d="M323.235,162.714h-3.454v157.431h3.454c13.728,0,24.856-11.225,24.856-25.055V187.768      C348.091,173.929,336.963,162.714,323.235,162.714z" style="fill:#7DBEBD;"/><rect height="157.431" style="fill:#F2955C;" width="35.034" x="249.705" y="162.714"/><rect height="157.431" style="fill:#DFC97A;" width="35.043" x="284.738" y="162.714"/></g><g><path d="M256.797,334.829c0,3.808-3.076,6.883-6.884,6.883c-3.808,0-6.888-3.075-6.888-6.883      c0-3.808,3.08-6.888,6.888-6.888C253.722,327.94,256.797,331.021,256.797,334.829z" style="fill:#CCD1D9;"/><path d="M255.376,334.829c0,3.022-2.444,5.467-5.462,5.467c-3.012,0-5.462-2.445-5.462-5.467      c0-3.017,2.45-5.462,5.462-5.462C252.931,329.366,255.376,331.811,255.376,334.829z" style="fill:#E8EAEE;"/></g><polygon points="348.091,278.277 348.091,275.439 151.896,275.439 151.896,278.291    " style="fill:#CFD5E1;"/><path d="M150.956,295.73c0,14.189,11.21,25.705,25.026,25.705h147.55c13.81,0,25.03-11.516,25.03-25.705     v-17.507l-197.606,0.077V295.73z" style="fill:#F5F7FA;"/></g></g></g><g id="Layer_1"/></svg>