<?xml version="1.0" ?><!DOCTYPE svg  PUBLIC '-//W3C//DTD SVG 1.1//EN'  'http://www.w3.org/Graphics/SVG/1.1/DTD/svg11.dtd'><svg style="enable-background:new 0 0 500 499.988;" version="1.1" viewBox="0 0 500 499.988" xml:space="preserve" xmlns="http://www.w3.org/2000/svg" xmlns:xlink="http://www.w3.org/1999/xlink"><g id="printer"><g><path d="M250.001,0C111.93,0,0,111.925,0,249.992c0,138.071,111.93,249.996,250.001,249.996    C388.07,499.988,500,388.063,500,249.992C500,111.925,388.07,0,250.001,0z" style="fill:#656D78;"/><g id="_x31_0"><g><g><path d="M323.909,289.444c0,7.019-5.668,12.699-12.685,12.699h-123.46       c-7.017,0-12.695-5.68-12.695-12.699V138.513c0-7.014,5.678-12.704,12.695-12.704h123.46c7.017,0,12.685,5.69,12.685,12.704       V289.444z" style="fill:#FFFFFF;"/><path d="M187.764,129.592c-4.914,0-8.921,4.002-8.921,8.921v150.931c0,4.919,4.007,8.921,8.921,8.921       h123.46c4.899,0,8.906-4.002,8.906-8.921V138.513c0-4.919-4.007-8.921-8.906-8.921H187.764L187.764,129.592z" style="fill:#FFFFFF;"/></g><g><rect height="5.341" style="fill:#E0E2E4;" width="120.4" x="189.801" y="150.723"/><rect height="5.336" style="fill:#E0E2E4;" width="120.4" x="189.801" y="170.311"/><rect height="5.34" style="fill:#E0E2E4;" width="120.4" x="189.801" y="189.894"/><rect height="5.336" style="fill:#E0E2E4;" width="120.4" x="189.801" y="209.482"/><rect height="5.346" style="fill:#E0E2E4;" width="120.4" x="189.801" y="229.065"/><rect height="5.336" style="fill:#E0E2E4;" width="120.4" x="189.801" y="248.648"/></g></g><path d="M183.463,221.342c-5.195,0-9.449,1.421-9.449,3.178v53.767c0,1.751,4.254,3.177,9.449,3.177     h130.848c5.198,0,9.442-1.426,9.442-3.177V224.52c0-1.756-4.245-3.178-9.442-3.178H183.463L183.463,221.342z" style="fill:#E0E2E4;"/><g><path d="M346.18,354.495H153.812c-3.857,0-6.976,3.129-6.976,6.976c0,3.856,3.119,6.98,6.976,6.98h6.527      c-0.01,0.17-0.049,0.325-0.049,0.495c0,2.891,2.348,5.229,5.234,5.229h42.846c2.896,0,5.232-2.338,5.232-5.229      c0-0.17-0.034-0.325-0.044-0.495h72.866c-0.01,0.17-0.041,0.325-0.041,0.495c0,2.891,2.333,5.229,5.229,5.229h42.846      c2.91,0,5.239-2.338,5.239-5.229c0-0.17-0.034-0.325-0.046-0.495h6.53c3.849,0,6.98-3.124,6.98-6.98      C353.16,357.624,350.029,354.495,346.18,354.495z" style="fill:#848A93;"/><path d="M351.547,246.77H148.44c-17.236,0-31.231,13.665-31.231,30.522v40.714      c0,16.857,13.995,30.541,31.231,30.541h203.107c17.25,0,31.245-13.685,31.245-30.541v-40.714      C382.792,260.435,368.797,246.77,351.547,246.77z" style="fill:#FFFFFF;"/><g><path d="M353.17,297.152c0,4.25-3.454,7.694-7.696,7.694c-4.255,0-7.696-3.444-7.696-7.694       c0-4.249,3.441-7.698,7.696-7.698C349.716,289.453,353.17,292.903,353.17,297.152z" style="fill:#7DBEBD;"/></g><g><path d="M319.565,297.142c0,4.259-3.442,7.713-7.706,7.713c-4.24,0-7.686-3.454-7.686-7.713       c0-4.245,3.447-7.698,7.686-7.698C316.124,289.444,319.565,292.898,319.565,297.142z" style="fill:#F2955C;"/></g></g></g></g></g><g id="Layer_1"/></svg>