<?xml version="1.0" ?><!DOCTYPE svg  PUBLIC '-//W3C//DTD SVG 1.1//EN'  'http://www.w3.org/Graphics/SVG/1.1/DTD/svg11.dtd'><svg style="enable-background:new 0 0 499.997 500.002;" version="1.1" viewBox="0 0 499.997 500.002" xml:space="preserve" xmlns="http://www.w3.org/2000/svg" xmlns:xlink="http://www.w3.org/1999/xlink"><g id="mp3-player"><g><path d="M250.001,0C88.67,0,0,113.909,0,250.006c0,138.076,111.93,249.996,250.001,249.996    c138.066,0,249.996-111.92,249.996-249.996C499.997,111.94,388.067,0,250.001,0z" style="fill:#F2955C;"/><g id="_x31_5"><path d="M333.325,133.269H166.677c-18.453,0.039-33.365,14.96-33.408,33.399v166.657     c0.044,18.453,14.956,33.369,33.408,33.408h166.648c18.453-0.039,33.379-14.955,33.399-33.408V166.668     C366.704,148.229,351.778,133.308,333.325,133.269z" style="fill:#FFFFFF;"/><g><path d="M292.611,302.459c0,23.881-19.365,43.236-43.246,43.236s-43.246-19.355-43.246-43.236      c0-23.881,19.365-43.251,43.246-43.251S292.611,278.578,292.611,302.459z" style="fill:#EFEFF0;"/><path d="M271.02,302.459c0,11.957-9.692,21.65-21.655,21.65c-11.953,0-21.645-9.692-21.645-21.65      s9.692-21.655,21.645-21.655C261.328,280.804,271.02,290.502,271.02,302.459z" style="fill:#FFFFFF;"/><path d="M260.858,302.459c0,6.34-5.142,11.492-11.492,11.492c-6.35,0-11.497-5.152-11.497-11.492      c0-6.35,5.147-11.497,11.497-11.497C255.715,290.962,260.858,296.109,260.858,302.459z" style="fill:#EFEFF0;"/></g><g><polygon points="243.084,331.729 254.464,331.729 248.769,339.908     " style="fill:#BBC1C9;"/><path d="M279.708,307.577v-10.071l7.223,5.035L279.708,307.577z M280.508,302.541l-7.228-5.035v10.071      L280.508,302.541z M286.276,307.232h1.3v-9.416h-1.3V307.232L286.276,307.232z" style="fill:#BBC1C9;"/><path d="M243.685,307.577v-10.071l7.219,5.035L243.685,307.577z M254.852,307.232h1.295v-9.416h-1.295      V307.232L254.852,307.232z M252.102,307.232h1.286v-9.416h-1.286V307.232L252.102,307.232z" style="fill:#BBC1C9;"/><path d="M219.038,297.506v10.071l-7.232-5.035L219.038,297.506z M218.237,302.541l7.223,5.035v-10.071      L218.237,302.541z M212.45,297.865h-1.295v9.401h1.295V297.865L212.45,297.865z" style="fill:#BBC1C9;"/><path d="M254.377,277.191h-1.281v-7.383c0-0.582,0.039-1.29,0.111-2.139h-0.029      c-0.131,0.495-0.238,0.849-0.325,1.062l-3.769,8.46h-0.63l-3.75-8.397c-0.107-0.252-0.214-0.621-0.32-1.125h-0.029      c0.039,0.437,0.049,1.154,0.049,2.158v7.364h-1.237v-11.007h1.703l3.376,7.675c0.262,0.577,0.427,1.028,0.505,1.309h0.048      c0.224-0.602,0.398-1.048,0.529-1.344l3.449-7.64h1.601V277.191z" style="fill:#BBC1C9;"/></g><path d="M339.112,221.677c0,10.652-8.654,19.292-19.302,19.292H180.177     c-10.653,0-19.297-8.64-19.297-19.292v-42.29c0-10.647,8.644-19.292,19.297-19.292H319.81c10.648,0,19.302,8.645,19.302,19.292     V221.677z" style="fill:#EFEFF0;"/><path d="M334.596,220.6c0,10.114-8.203,18.322-18.327,18.322H183.723     c-10.123,0-18.326-8.208-18.326-18.322v-40.137c0-10.109,8.203-18.312,18.326-18.312h132.546     c10.124,0,18.327,8.203,18.327,18.312V220.6z" style="fill:#656D78;"/><path d="M302.231,237.554v-2.499h7.616v2.499H302.231z M302.231,234.575h7.616v-4.764h-7.616V234.575z      M302.231,229.346h7.616v-4.764h-7.616V229.346z M295.901,237.554v-2.499h-7.621v2.499H295.901z M288.28,234.575h7.621v-4.764     h-7.621V234.575z M288.28,229.346h7.621v-4.764h-7.621V229.346z M281.939,237.554v-2.499h-7.63v2.499H281.939z M274.309,234.575     h7.63v-4.764h-7.63V234.575z M274.309,229.346h7.63v-4.764h-7.63V229.346z M267.979,237.554v-2.499h-7.616v2.499H267.979z      M260.363,234.575h7.616v-4.764h-7.616V234.575z M260.363,229.346h7.616v-4.764h-7.616V229.346z M254.028,237.554v-2.499h-7.621     v2.499H254.028z M246.407,234.575h7.621v-4.764h-7.621V234.575z M246.407,229.346h7.621v-4.764h-7.621V229.346z M240.066,237.554     v-2.499h-7.621v2.499H240.066z M232.445,234.575h7.621v-4.764h-7.621V234.575z M232.445,229.346h7.621v-4.764h-7.621V229.346z      M226.115,237.554v-2.499h-7.63v2.499H226.115z M218.485,234.575h7.63v-4.764h-7.63V234.575z M218.485,229.346h7.63v-4.764h-7.63     V229.346z M212.149,237.554v-2.499h-7.621v2.499H212.149z M204.529,234.575h7.621v-4.764h-7.621V234.575z M204.529,229.346h7.621     v-4.764h-7.621V229.346z M190.563,234.575h7.63v-4.764h-7.63V234.575z M190.563,229.346h7.63v-4.764h-7.63V229.346z" style="fill:#848A93;"/><path d="M198.193,206.226h-7.62v-4.764h7.62V206.226z M198.193,206.712h-7.62v4.759h7.62V206.712z      M198.193,211.941h-7.62v4.764h7.62V211.941z M198.193,217.18h-7.62v4.769h7.62V217.18z M212.149,195.749h-7.621v-4.764h7.621     V195.749z M212.149,196.229h-7.621v4.759h7.621V196.229z M212.149,201.463h-7.621v4.764h7.621V201.463z M212.149,206.712h-7.621     v4.759h7.621V206.712z M212.149,211.941h-7.621v4.764h7.621V211.941z M212.149,217.18h-7.621v4.769h7.621V217.18z      M226.115,211.47h-7.621v-4.759h7.621V211.47z M226.115,211.941h-7.621v4.764h7.621V211.941z M226.115,217.18h-7.621v4.769h7.621     V217.18z M240.066,206.226h-7.616v-4.764h7.616V206.226z M240.066,206.712h-7.616v4.759h7.616V206.712z M240.066,196.117h-7.616     v4.764h7.616V196.117z M240.066,211.941h-7.616v4.764h7.616V211.941z M240.066,217.18h-7.616v4.769h7.616V217.18z      M254.028,190.514h-7.621v-4.763h7.621V190.514z M254.028,180.357h-7.621v4.764h7.621V180.357z M254.028,190.985h-7.621v4.764     h7.621V190.985z M254.028,196.229h-7.621v4.759h7.621V196.229z M254.028,201.463h-7.621v4.764h7.621V201.463z M254.028,206.712     h-7.621v4.759h7.621V206.712z M254.028,211.941h-7.621v4.764h7.621V211.941z M254.028,217.18h-7.621v4.769h7.621V217.18z      M267.979,195.749h-7.616v-4.764h7.616V195.749z M267.979,196.229h-7.616v4.759h7.616V196.229z M267.979,201.463h-7.616v4.764     h7.616V201.463z M267.979,206.712h-7.616v4.759h7.616V206.712z M267.979,211.941h-7.616v4.764h7.616V211.941z M267.979,217.18     h-7.616v4.769h7.616V217.18z M281.939,206.226h-7.63v-4.764h7.63V206.226z M281.939,206.712h-7.63v4.759h7.63V206.712z      M281.939,211.941h-7.63v4.764h7.63V211.941z M281.939,217.18h-7.63v4.769h7.63V217.18z M295.901,211.47h-7.621v-4.759h7.621     V211.47z M295.901,211.941h-7.621v4.764h7.621V211.941z M295.901,217.18h-7.621v4.769h7.621V217.18z M309.847,216.705h-7.611     v-4.764h7.611V216.705z M309.847,217.18h-7.611v4.769h7.611V217.18z" style="fill:#AAB2BC;"/></g></g></g><g id="Layer_1"/></svg>