<?xml version="1.0" ?><!DOCTYPE svg  PUBLIC '-//W3C//DTD SVG 1.1//EN'  'http://www.w3.org/Graphics/SVG/1.1/DTD/svg11.dtd'><svg style="enable-background:new 0 0 499.992 499.993;" version="1.1" viewBox="0 0 499.992 499.993" xml:space="preserve" xmlns="http://www.w3.org/2000/svg" xmlns:xlink="http://www.w3.org/1999/xlink"><g id="mouse"><g><path d="M249.996,0C111.92,0,0,111.93,0,249.996c0,138.067,111.92,249.997,249.996,249.997    c138.066,0,249.996-111.93,249.996-249.997C499.992,111.93,388.062,0,249.996,0z" style="fill:#DFC97A;"/><g id="_x32_7"><path d="M205.077,173.032c-5.433-8.247-6.655-16.619-5.045-24.74c2.115-10.623,7.403-18.705,19.549-27.543     c13.059-9.479,17.259-27.941,17.075-34.082c-0.194-6.151-9.324-5.588-9.159-0.262c0.155,5.326-2.542,19.666-13.049,26.739     c-11.012,7.412-20.674,19.85-23.43,33.335c-2.096,10.255-0.379,21.46,6.413,31.618c15.843,23.867,31.065,44.832,31.085,44.851     l7.441-5.394c-0.009-0.019-3.784-5.2-9.537-13.379C220.658,196.006,212.935,184.858,205.077,173.032z" style="fill:#EFEFF0;"/><path d="M334.547,279.694c17.366,35.256,2.872,77.915-32.384,95.291l0,0     c-35.257,17.366-77.925,2.872-95.291-32.384l-41.427-84.076c-17.376-35.247-2.881-77.915,32.385-95.291l0,0     c35.247-17.376,77.925-2.872,95.291,32.385L334.547,279.694z" style="fill:#FFFFFF;"/><path d="M232.989,230.447l64.498-31.337l-2.61-4.453c-17.609-35.731-60.472-50.731-96.407-34.063     L232.989,230.447z" style="fill:#AAB2BC;"/><polygon points="297.302,198.722 232.94,230.428 198.547,160.652 195.792,162.001 230.185,231.786      166.541,263.152 167.9,265.907 298.66,201.478    " style="fill:#EFEFF0;"/><path d="M203.204,191.669c-1.843-3.745-0.301-8.285,3.434-10.119l0,0     c3.745-1.843,8.276-0.301,10.129,3.444l11.263,22.838c1.843,3.745,0.291,8.276-3.444,10.119l0,0     c-3.745,1.843-8.285,0.301-10.119-3.434L203.204,191.669z" style="fill:#656D78;"/></g></g></g><g id="Layer_1"/></svg>