<?xml version="1.0" ?><!DOCTYPE svg  PUBLIC '-//W3C//DTD SVG 1.1//EN'  'http://www.w3.org/Graphics/SVG/1.1/DTD/svg11.dtd'><svg style="enable-background:new 0 0 499.997 500.002;" version="1.1" viewBox="0 0 499.997 500.002" xml:space="preserve" xmlns="http://www.w3.org/2000/svg" xmlns:xlink="http://www.w3.org/1999/xlink"><g id="security-camera"><g><path d="M249.996,0C111.93,0,0,111.93,0,250.006c0,138.057,111.93,249.996,249.996,249.996    c138.071,0,250.001-111.939,250.001-249.996C499.997,111.93,388.067,0,249.996,0z" style="fill:#656D78;"/><g id="_x31_7"><path d="M304.375,288.09l68.616-39.132l-196.598-82.243l-9.381,22.435l-1.392-0.888     c-2.935-1.872-6.801-1.572-9.421,0.776l-29.765,26.583v-40.185c0-0.466-0.044-0.922-0.082-1.363h-12.869     c-0.044,0.441-0.082,0.897-0.082,1.363v115.257c0,0.451,0.039,0.907,0.082,1.358h12.869c0.039-0.451,0.082-0.907,0.082-1.358     v-54.068l33.093-29.571l-7.281,17.386L304.375,288.09z" style="fill:#FFFFFF;"/><polygon points="372.559,276.274 352.326,324.642 366.37,330.511 386.602,282.158    " style="fill:#9399A0;"/><polygon points="371.671,263.065 369.314,262.08 305.025,298.748 164.155,239.814 157.407,255.943      194.744,271.559 197.296,284.132 254.11,307.635 264.801,300.868 342.299,333.281    " style="fill:#AAB2BC;"/></g></g></g><g id="Layer_1"/></svg>