<?xml version="1.0" ?><!DOCTYPE svg  PUBLIC '-//W3C//DTD SVG 1.1//EN'  'http://www.w3.org/Graphics/SVG/1.1/DTD/svg11.dtd'><svg style="enable-background:new 0 0 499.997 499.997;" version="1.1" viewBox="0 0 499.997 499.997" xml:space="preserve" xmlns="http://www.w3.org/2000/svg" xmlns:xlink="http://www.w3.org/1999/xlink"><g id="smartphone"><g><path d="M249.996,499.997c138.071,0,250.001-111.93,250.001-250.001C499.997,111.93,388.067,0,249.996,0    C111.93,0,0,111.93,0,249.996C0,388.067,111.93,499.997,249.996,499.997z" style="fill:#DFC97A;"/><g id="_x34_"><g><path d="M298.083,113.397h-96.164c-15.63,0-28.417,12.789-28.417,28.41v216.382      c0,15.63,12.787,28.412,28.417,28.412h96.164c15.629,0,28.412-12.782,28.412-28.412V141.807      C326.495,126.187,313.712,113.397,298.083,113.397z" style="fill:#FFFFFF;"/><path d="M232.514,121.699c0-0.958,1.572-1.746,3.493-1.746h27.985c1.921,0,3.493,0.788,3.493,1.746v0.876      c0,0.963-1.572,1.753-3.493,1.753h-27.985c-1.921,0-3.493-0.791-3.493-1.753V121.699z" style="fill:#DFE0E1;"/><path d="M253.28,131.978c0,1.805-1.474,3.274-3.279,3.274c-1.815,0-3.279-1.47-3.279-3.274      c0-1.812,1.465-3.281,3.279-3.281C251.806,128.697,253.28,130.167,253.28,131.978z" style="fill:#DFE0E1;"/><path d="M267.483,372.178c0,1.921-1.572,3.5-3.493,3.5h-27.985c-1.921,0-3.493-1.579-3.493-3.5v-1.749      c0-1.918,1.572-3.497,3.493-3.497h27.985c1.921,0,3.493,1.579,3.493,3.497V372.178z" style="fill:#DFE0E1;"/></g><rect height="216.382" style="fill:#656D78;" width="121.728" x="189.132" y="141.807"/></g></g></g><g id="Layer_1"/></svg>