<?xml version="1.0" ?><!DOCTYPE svg  PUBLIC '-//W3C//DTD SVG 1.1//EN'  'http://www.w3.org/Graphics/SVG/1.1/DTD/svg11.dtd'><svg style="enable-background:new 0 0 499.992 499.997;" version="1.1" viewBox="0 0 499.992 499.997" xml:space="preserve" xmlns="http://www.w3.org/2000/svg" xmlns:xlink="http://www.w3.org/1999/xlink"><g id="telephone"><g><path d="M249.996,0C111.93,0,0,111.939,0,250.001c0,138.076,111.93,249.996,249.996,249.996    c138.076,0,249.996-111.92,249.996-249.996C499.992,111.939,388.072,0,249.996,0z" style="fill:#DFC97A;"/><g id="_x32_0"><path d="M167.604,333.946h-10.755c-17.114,0-31.036-13.922-31.036-31.036V162.088     c0-17.114,13.922-31.036,31.036-31.036h10.755c17.109,0,31.031,13.922,31.031,31.036v140.822     C198.634,320.024,184.712,333.946,167.604,333.946z" style="fill:#FFFFFF;"/><path d="M274.803,341.013c-2.353,0-4.245,1.897-4.245,4.24v5.535c0,5.326-4.351,9.678-9.692,9.678h-81.898     c-5.34,0-9.687-4.351-9.687-9.678v-6.335c0-2.348-1.897-4.245-4.24-4.245c-2.343,0-4.245,1.897-4.245,4.245v6.335     c0,10.008,8.15,18.157,18.172,18.157h81.898c10.022,0,18.167-8.149,18.167-18.157v-5.535     C279.034,342.91,277.151,341.013,274.803,341.013z" style="fill:#EFEFF0;"/><path d="M374.179,162.088v140.822c0,17.114-13.922,31.036-31.031,31.036h-95.544     c-17.114,0-31.031-13.922-31.031-31.036V162.088c0-17.114,13.917-31.036,31.031-31.036h95.544     C360.257,131.052,374.179,144.974,374.179,162.088z" style="fill:#FFFFFF;"/><g><path d="M266.106,295.109h-17.57c-3.143,0-5.704,2.562-5.704,5.709v4.177      c0,3.148,2.561,5.714,5.704,5.714h17.57c3.144,0,5.705-2.566,5.705-5.714v-4.177      C271.811,297.671,269.249,295.109,266.106,295.109z" style="fill:#EFEFF0;"/><path d="M266.106,272.237h-17.57c-3.143,0-5.704,2.566-5.704,5.71v4.181c0,3.148,2.561,5.705,5.704,5.705      h17.57c3.144,0.014,5.705-2.557,5.705-5.705v-4.181C271.811,274.803,269.249,272.237,266.106,272.237z" style="fill:#EFEFF0;"/><path d="M266.106,249.37h-17.57c-3.143,0-5.704,2.561-5.704,5.714v4.177c0,3.148,2.561,5.709,5.704,5.709      h17.57c3.144,0,5.705-2.561,5.705-5.709v-4.177C271.811,251.931,269.249,249.37,266.106,249.37z" style="fill:#EFEFF0;"/><path d="M266.106,226.508h-17.57c-3.143,0-5.704,2.556-5.704,5.714v4.167      c0,3.163,2.561,5.719,5.704,5.719h17.57c3.144,0,5.705-2.556,5.705-5.719v-4.167      C271.811,229.064,269.249,226.508,266.106,226.508z" style="fill:#EFEFF0;"/><path d="M304.166,295.109h-17.565c-3.158,0-5.719,2.562-5.719,5.709v4.177      c0,3.148,2.562,5.714,5.719,5.714h17.565c3.139,0,5.705-2.566,5.705-5.714v-4.177      C309.871,297.671,307.305,295.109,304.166,295.109z" style="fill:#EFEFF0;"/><path d="M304.166,272.237h-17.565c-3.158,0-5.719,2.566-5.719,5.71v4.181      c0,3.148,2.562,5.705,5.719,5.705h17.565c3.139,0.014,5.705-2.557,5.705-5.705v-4.181      C309.871,274.803,307.305,272.237,304.166,272.237z" style="fill:#EFEFF0;"/><path d="M304.166,249.37h-17.565c-3.158,0-5.719,2.561-5.719,5.714v4.177      c0,3.148,2.562,5.709,5.719,5.709h17.565c3.139,0,5.705-2.561,5.705-5.709v-4.177      C309.871,251.931,307.305,249.37,304.166,249.37z" style="fill:#EFEFF0;"/><path d="M304.166,226.508h-17.565c-3.158,0-5.719,2.556-5.719,5.714v4.167      c0,3.163,2.562,5.719,5.719,5.719h17.565c3.139,0,5.705-2.556,5.705-5.719v-4.167      C309.871,229.064,307.305,226.508,304.166,226.508z" style="fill:#EFEFF0;"/><path d="M342.216,295.109h-17.575c-3.143,0-5.709,2.562-5.709,5.709v4.177      c0,3.148,2.566,5.714,5.709,5.714h17.575c3.143,0,5.714-2.566,5.714-5.714v-4.177      C347.931,297.671,345.36,295.109,342.216,295.109z" style="fill:#EFEFF0;"/><path d="M342.216,272.237h-17.575c-3.143,0-5.709,2.566-5.709,5.71v4.181      c0,3.148,2.566,5.705,5.709,5.705h17.575c3.143,0.014,5.714-2.557,5.714-5.705v-4.181      C347.931,274.803,345.36,272.237,342.216,272.237z" style="fill:#EFEFF0;"/><path d="M342.216,249.37h-17.575c-3.143,0-5.709,2.561-5.709,5.714v4.177      c0,3.148,2.566,5.709,5.709,5.709h17.575c3.143,0,5.714-2.561,5.714-5.709v-4.177C347.931,251.931,345.36,249.37,342.216,249.37      z" style="fill:#EFEFF0;"/><path d="M342.216,226.508h-17.575c-3.143,0-5.709,2.556-5.709,5.714v4.167      c0,3.163,2.566,5.719,5.709,5.719h17.575c3.143,0,5.714-2.556,5.714-5.719v-4.167      C347.931,229.064,345.36,226.508,342.216,226.508z" style="fill:#EFEFF0;"/></g><path d="M356.507,168.617c0-9.454-7.694-17.153-17.143-17.153h-87.986     c-9.449,0-17.143,7.698-17.143,17.153v12.554c0,9.45,7.694,17.143,17.143,17.143h87.986c9.449,0,17.143-7.693,17.143-17.143     V168.617z" style="fill:#AAB2BC;"/></g></g></g><g id="Layer_1"/></svg>