<?xml version="1.0" ?><!DOCTYPE svg  PUBLIC '-//W3C//DTD SVG 1.1//EN'  'http://www.w3.org/Graphics/SVG/1.1/DTD/svg11.dtd'><svg style="enable-background:new 0 0 499.997 499.992;" version="1.1" viewBox="0 0 499.997 499.992" xml:space="preserve" xmlns="http://www.w3.org/2000/svg" xmlns:xlink="http://www.w3.org/1999/xlink"><g id="satelite"><g><path d="M249.996,0C111.93,0,0,111.92,0,249.996c0,138.066,111.93,249.996,249.996,249.996    c138.071,0,250.001-111.93,250.001-249.996C499.997,111.92,388.067,0,249.996,0z" style="fill:#656D78;"/><g id="_x33_2"><path d="M184.912,311.142v-41.664c0-2.193,1.77-3.968,3.963-3.968c2.188,0,3.973,1.776,3.973,3.968v41.664     c0,12.375,10.061,22.45,22.45,22.45h21.781c2.193,0,3.973,1.78,3.973,3.973c0,2.178-1.78,3.953-3.973,3.953h-21.781     C198.538,341.518,184.912,327.887,184.912,311.142z" style="fill:#FFFFFF;"/><path d="M174.637,361.761c-6.078,0-10.997-4.919-10.997-10.983v-0.757c0-6.064,4.919-11.002,10.997-11.002     h110.13c6.074,0,11.002,4.938,11.002,11.002v0.757c0,6.064-4.928,10.983-11.002,10.983H174.637z" style="fill:#CFD5E1;"/><path d="M265.8,201.177l35.703-28.13c-1.106-2.129-1.737-4.555-1.737-7.126     c0-8.562,6.937-15.513,15.513-15.513c8.552,0,15.504,6.951,15.504,15.513c0,8.572-6.951,15.508-15.504,15.508     c-2.193,0-4.279-0.466-6.17-1.281l-29.232,35.101c-8.756,8.765-12.447,19.321-3.682,28.091l15.407,15.407     c1.547,1.542,1.547,4.055,0,5.603c-1.547,1.543-4.06,1.543-5.603,0l-15.411-15.406     C258.747,237.083,253.959,213.032,265.8,201.177z" style="fill:#CFD5E1;"/><path d="M207.488,139.619c-6.005-5.996-21.063,9.357-21.32,9.61c-40.782,40.786-40.772,106.894,0,147.676     c40.782,40.787,106.899,40.787,147.686,0c0.257-0.252,15.615-15.309,8.824-22.076     C335.915,268.056,223.214,155.365,207.488,139.619z" style="fill:#FFFFFF;"/></g></g></g><g id="Layer_1"/></svg>