<?xml version="1.0" ?><svg style="enable-background:new 0 0 48 48;" version="1.1" viewBox="0 0 48 48" xml:space="preserve" xmlns="http://www.w3.org/2000/svg" xmlns:xlink="http://www.w3.org/1999/xlink"><g id="Padding__x26__Artboard"/><g id="Icons"><g><path d="M34.95239,10.17334H13.04761c-1.58496,0-2.87451,1.28906-2.87451,2.87402v21.90527    c0,1.58496,1.28955,2.87402,2.87451,2.87402h21.90479c1.58496,0,2.87451-1.28906,2.87451-2.87402V13.04736    C37.8269,11.4624,36.53735,10.17334,34.95239,10.17334z M17.97681,15.14795c0.62549-0.03223,1.20117,0.22656,1.62891,0.65137    c0.42529,0.42188,0.66064,0.99805,0.66162,1.62305c0.00195,1.28906-0.979,2.27051-2.28271,2.2832    c-0.00781,0-0.01514,0.00098-0.02295,0.00098c-0.58838,0-1.14551-0.23145-1.57129-0.65332    c-0.43359-0.42871-0.68213-1.02148-0.68213-1.62695c0,0,0,0,0-0.00098C15.71069,16.15479,16.70728,15.15381,17.97681,15.14795z     M16.28638,12.70752c0-0.19336,0.15674-0.34961,0.3501-0.34961h6.65186c0.19336,0,0.3501,0.15625,0.3501,0.34961    s-0.15674,0.34961-0.3501,0.34961h-6.65186C16.44312,13.05713,16.28638,12.90088,16.28638,12.70752z M19.99536,26.03955    l-0.00049,1.18164c-0.00049,1.29297-0.00098,2.58594,0.00488,3.87988c0.00049,0.12305-0.01465,0.30176-0.15186,0.43848    c-0.13184,0.13086-0.30127,0.14844-0.42188,0.14844c-0.00488,0-0.00928,0-0.01416,0c-0.95166-0.00684-1.90625-0.00488-2.86084,0    c-0.13672,0.00977-0.29932-0.01465-0.43652-0.15039c-0.1377-0.1377-0.15381-0.31445-0.15381-0.43652    c0.00537-3.38086,0.00537-6.7627,0-10.14355c0-0.12207,0.01611-0.29785,0.15381-0.43555    c0.13721-0.13672,0.30127-0.13281,0.4375-0.15039c0.95508,0.00488,1.90918,0.00684,2.8623,0    c0.11475,0.00195,0.29688,0.0127,0.43311,0.14844c0.15332,0.15234,0.15234,0.36133,0.15186,0.44043    c-0.00537,1.30176-0.00488,2.60449-0.00439,3.90625L19.99536,26.03955z M32.15112,31.54834    c-0.13867,0.13574-0.30664,0.13672-0.50098,0.13672l-2.81445-0.00098c-0.42627,0-0.59277-0.16699-0.59277-0.59668    l-0.00049-5.13672c-0.00037-0.34717-0.02313-0.68262-0.0791-1.00891c-0.01868-0.10846-0.02625-0.22034-0.05762-0.32507    c-0.17383-0.58301-0.50977-0.83594-1.12305-0.84766c-0.57227-0.00391-0.91064,0.10742-1.1748,0.39355    c-0.2207,0.24023-0.35254,0.55859-0.40137,0.9707c-0.04541,0.37891-0.06934,0.76562-0.07129,1.15234    c-0.00781,1.6084-0.00586,3.2168,0.00049,4.8252c0.00049,0.11816-0.01416,0.29297-0.14941,0.42871    c-0.13232,0.13184-0.30078,0.14844-0.41846,0.14844c-0.00244,0-0.00488,0-0.00732,0c-0.96045-0.00586-1.9209-0.00586-2.88135,0    c-0.00244,0-0.00488,0-0.00732,0c-0.11865,0-0.2876-0.0166-0.4209-0.14941c-0.15283-0.15137-0.15283-0.36035-0.15283-0.42871    c0.00439-3.3877,0.00488-6.77539,0-10.16309c0-0.01685,0-0.04236,0.00232-0.07355    c0.00696-0.09351,0.03516-0.23798,0.14905-0.35223c0.13623-0.13574,0.29248-0.17578,0.43213-0.14941    c0.91797,0.00586,1.83545,0.00586,2.75439,0c0.06055-0.00488,0.27734-0.00195,0.43164,0.15527s0.14941,0.36719,0.14795,0.43555    c-0.00146,0.05957-0.00293,0.11914-0.00342,0.17773c0.47119-0.42773,1.0293-0.72266,1.66797-0.87891    c1.10742-0.27148,2.19092-0.18262,3.21826,0.26172c0.94141,0.4082,1.55908,1.16992,1.8877,2.32812    c0.17871,0.62793,0.27197,1.29102,0.27734,1.96875c0.01074,1.5166,0.01611,3.0332,0.02197,4.54883l0.00684,1.67578    C32.29272,31.23193,32.29321,31.40869,32.15112,31.54834z M25.64673,12.70752c0-0.19336,0.15674-0.34961,0.3501-0.34961h2.15088    c0.19336,0,0.3501,0.15625,0.3501,0.34961s-0.15674,0.34961-0.3501,0.34961h-2.15088    C25.80347,13.05713,25.64673,12.90088,25.64673,12.70752z" style="fill:#303030;"/></g></g></svg>