<?xml version="1.0" ?><svg style="enable-background:new 0 0 48 48;" version="1.1" viewBox="0 0 48 48" xml:space="preserve" xmlns="http://www.w3.org/2000/svg" xmlns:xlink="http://www.w3.org/1999/xlink"><g id="Padding__x26__Artboard"/><g id="Icons"><g><g><path d="M33.41838,26.89795c-0.00684-1.81738-0.01367-3.63477-0.02686-5.45312     c-0.00586-0.79297-0.11523-1.57031-0.32471-2.30762c-0.3833-1.34863-1.1001-2.23438-2.19287-2.70801     c-1.19922-0.51953-2.46436-0.62109-3.75928-0.30469c-0.79199,0.19434-1.47803,0.57031-2.04834,1.12402     c0.00049-0.12012,0.00244-0.23926,0.00537-0.3584c0.00146-0.0752,0.00732-0.30273-0.15576-0.46875     s-0.38379-0.15918-0.46484-0.16504c-1.08447,0.00781-2.16895,0.00781-3.25244,0c-0.11963,0.01758-0.32031,0.01465-0.46436,0.1582     c-0.16113,0.16113-0.16064,0.38477-0.16064,0.45703c0.00537,3.99902,0.00537,7.99902,0,11.99805     c0,0.12891,0.0166,0.31738,0.16162,0.46094c0.1416,0.14062,0.32471,0.1582,0.45361,0.1582c0.00195,0,0.00439,0,0.00684,0     c1.1333-0.00781,2.2666-0.00879,3.40088,0c0.00439,0,0.00879,0,0.01318,0c0.12744,0,0.30664-0.01855,0.44482-0.15625     c0.14404-0.14258,0.15967-0.33203,0.15918-0.46191c-0.00732-1.89941-0.00977-3.79785-0.00049-5.69629     c0.00244-0.45898,0.03076-0.91895,0.08447-1.36719c0.05957-0.50098,0.22021-0.8877,0.49023-1.18164     c0.3252-0.35254,0.75244-0.47852,1.43408-0.48535c0.74609,0.01367,1.17334,0.33691,1.38525,1.04492     c0.15088,0.50586,0.16357,1.04297,0.16406,1.59473l0.00098,6.06348c0,0.47266,0.1665,0.64062,0.63672,0.6416h3.3208     c0.22656,0,0.40527,0,0.55176-0.14648c0.14551-0.14648,0.14502-0.33105,0.14404-0.54492v-0.00092v-0.00006L33.41838,26.89795z" style="fill:#303030;"/><path d="M18.75383,16.4126c-0.14404-0.14355-0.33594-0.15039-0.46631-0.15723     c-1.12646,0.00977-2.25293,0.00879-3.37842,0.00098c-0.12744,0.01953-0.32617,0.01367-0.47266,0.1582     c-0.14648,0.14551-0.16357,0.33691-0.16357,0.46973c0.00635,3.99121,0.00635,7.9834,0.00049,11.97363     c0,0.13281,0.0166,0.32617,0.16309,0.47168c0.07135,0.07086,0.1535,0.11047,0.23438,0.13257     c0.04193,0.01154,0.07898,0.01056,0.11908,0.01422c0.03473,0.00323,0.07336,0.01239,0.10358,0.01239     c0.00439,0,0.00879,0,0.01318,0c1.12646-0.00781,2.25293-0.00781,3.37842,0c0.00439,0,0.00879,0,0.01367,0     c0.13086,0,0.31494-0.01855,0.45508-0.15723c0.14502-0.14453,0.16113-0.33887,0.16064-0.47266     c-0.00684-1.55566-0.00635-3.11133-0.00586-4.66699l0.00049-1.30762l-0.00049-1.3125     c-0.00049-1.56152-0.00098-3.12305,0.00586-4.68457C18.91496,16.74073,18.89738,16.55616,18.75383,16.4126z" style="fill:#303030;"/><path d="M16.60783,10.08936c-0.00586,0-0.01172,0-0.01758,0     c-1.46387,0.00781-2.61279,1.16113-2.61572,2.625c0,0.00098,0,0.00098,0,0.00098     c0.00049,0.69824,0.28711,1.38184,0.78711,1.87695c0.49072,0.48535,1.13281,0.75195,1.81006,0.75195     c0.00879,0,0.01758-0.00098,0.02637-0.00098c1.50342-0.01465,2.63525-1.14551,2.63232-2.63086     c-0.00098-0.7207-0.27197-1.38574-0.76221-1.87207C17.97942,10.35499,17.31975,10.08936,16.60783,10.08936z" style="fill:#303030;"/></g><path d="M33.04607,35.80707c0.10693-0.11615,0.24591-0.14233,0.39594-0.13953    c0.20941,0.00397,0.3399,0.1015,0.39972,0.30194c0.03857,0.12921,0.04169,0.26202,0.04175,0.39514    c0.00024,0.47137,0,0.94275,0.00018,1.41412c0,0.06586,0.00214,0.06799,0.06689,0.06805    c0.25818,0.00018,0.51636,0.00012,0.77448,0.00006c0.08051,0,0.08093-0.00012,0.08063-0.07947    c-0.00238-0.57111-0.00391-1.14221-0.008-1.71332c-0.00122-0.17499-0.02472-0.34796-0.07263-0.51666    c-0.07336-0.25818-0.21155-0.46881-0.46533-0.5788c-0.26556-0.11505-0.54364-0.13586-0.82483-0.06689    c-0.24261,0.05951-0.43445,0.19574-0.57831,0.40631c0-0.10297-0.00171-0.20605,0.00079-0.30896    c0.00116-0.04694-0.01385-0.06458-0.06256-0.06421c-0.25311,0.00183-0.50635,0.00171-0.75952,0.00006    c-0.04639-0.00031-0.06372,0.01233-0.06366,0.06183c0.00134,0.93274,0.00128,1.86554,0.00006,2.79828    c-0.00006,0.04846,0.01538,0.06299,0.06281,0.06268c0.26483-0.00171,0.52966-0.00189,0.79449,0.00012    c0.04822,0.00037,0.06171-0.01453,0.06152-0.0625c-0.00171-0.44305-0.00226-0.88611-0.00012-1.32916    c0.00055-0.10944,0.00726-0.21936,0.0202-0.328C32.92473,36.00959,32.96269,35.89746,33.04607,35.80707z" style="fill:#303030;"/><path d="M31.35747,34.92469c-0.26312,0.0022-0.52631,0.00208-0.78943,0.00012    c-0.04932-0.00037-0.06592,0.01343-0.06586,0.06482c0.00146,0.93097,0.0014,1.86194,0.00006,2.79297    c-0.00012,0.0509,0.01556,0.06561,0.06543,0.06525c0.26312-0.00201,0.52625-0.00201,0.78937,0    c0.04993,0.00043,0.06458-0.01361,0.06433-0.06488c-0.00208-0.46466-0.00122-0.92932-0.00122-1.39398    c0-0.46631-0.00085-0.93262,0.00116-1.39893C31.42155,34.93946,31.40807,34.92432,31.35747,34.92469z" style="fill:#303030;"/><path d="M30.96141,33.48658c-0.31537,0.00183-0.52826,0.25421-0.52881,0.53101    c0.00006,0.29077,0.23822,0.53424,0.52942,0.53131c0.30048-0.00299,0.53363-0.22931,0.53308-0.53192    C31.49455,33.70911,31.25719,33.48487,30.96141,33.48658z" style="fill:#303030;"/><path d="M28.49138,35.19507c-0.09589-0.10675-0.20422-0.18457-0.33282-0.23413    c-0.51288-0.19745-1.21863-0.06812-1.5708,0.55847c-0.30627,0.54486-0.31427,1.11938-0.0531,1.68378    c0.23291,0.50323,0.69403,0.75439,1.24353,0.7002c0.32129-0.03168,0.58813-0.17023,0.76965-0.44861    c0.00665-0.01025,0.01685-0.01813,0.03369-0.03595c0.01373,0.14917,0.02637,0.28644,0.039,0.42316c0.27661,0,0.54779,0,0.80524,0    c0-1.34723,0-2.6897,0-4.03204c-0.32031,0-0.62506,0-0.93439,0C28.49138,34.27472,28.49138,34.73487,28.49138,35.19507z     M28.46849,36.76844c-0.04376,0.22412-0.22369,0.38513-0.43988,0.41791c-0.24927,0.03778-0.47705-0.06415-0.60022-0.26868    c-0.12286-0.2041-0.14313-0.42792-0.12238-0.65826c0.01428-0.1579,0.05756-0.3075,0.14886-0.44006    c0.13544-0.19672,0.37079-0.28528,0.61572-0.23163c0.20795,0.04547,0.37842,0.22253,0.41095,0.44879    C28.4973,36.14576,28.49382,36.63898,28.46849,36.76844z" style="fill:#303030;"/><path d="M20.68413,33.80933c0,1.34637,0,2.68878,0,4.03333c0.30804,0,0.61255,0,0.92114,0.00006    c0-0.02539,0-0.04669,0-0.06793c0-0.26086-0.00037-0.52173,0.00067-0.78259c0.00012-0.02209,0.00366-0.04883,0.01617-0.06537    c0.0683-0.09039,0.13989-0.17834,0.21454-0.27234c0.01416,0.02222,0.02582,0.03986,0.03674,0.05792    c0.21967,0.36182,0.43982,0.72327,0.65784,1.08606c0.02209,0.03674,0.04529,0.04962,0.08789,0.04938    c0.33734-0.00183,0.67468-0.00104,1.01202-0.00104c0.0188,0,0.0376,0,0.06909,0c-0.41034-0.58252-0.81348-1.15491-1.21704-1.72778    c0.35474-0.39166,0.70508-0.7785,1.05768-1.16785c-0.01263-0.00555-0.01599-0.00836-0.01935-0.00836    c-0.35107-0.00037-0.70215-0.0011-1.05322,0.00098c-0.02026,0.00012-0.047,0.01855-0.05963,0.03638    c-0.25806,0.36249-0.51447,0.72607-0.7713,1.08942c-0.00739,0.0105-0.01569,0.02026-0.03418,0.04401    c0-0.77924,0-1.54224,0-2.30426C21.29271,33.80933,20.98955,33.80933,20.68413,33.80933z" style="fill:#303030;"/><path d="M25.07884,36.68195c0.34711,0.00098,0.69415,0.00159,1.0412,0.00409    c0.0434,0.00037,0.05963-0.01074,0.06573-0.05701c0.03894-0.29547,0.02814-0.58704-0.06238-0.87244    c-0.11548-0.36414-0.33313-0.64038-0.69513-0.7868c-0.22455-0.09088-0.45941-0.1109-0.69879-0.09113    c-0.43573,0.03607-0.79584,0.21564-1.05133,0.57599c-0.28711,0.40491-0.35693,0.85834-0.26636,1.33917    c0.06671,0.35419,0.2428,0.64258,0.54523,0.84595c0.26141,0.17578,0.5564,0.25452,0.86621,0.26062    c0.23035,0.00452,0.4621-0.01276,0.69159-0.03656c0.1803-0.01874,0.35663-0.06763,0.52753-0.14258    c-0.04071-0.20343-0.08093-0.40424-0.12146-0.60675c-0.01526,0.0033-0.0249,0.00446-0.03406,0.00745    c-0.28687,0.09308-0.58203,0.12317-0.88184,0.11066c-0.16003-0.00671-0.31482-0.04169-0.45593-0.12109    c-0.16492-0.09277-0.27124-0.22693-0.28894-0.42871c0.02112-0.00098,0.03467-0.0022,0.0481-0.00214    C24.56511,36.68097,24.82201,36.68128,25.07884,36.68195z M24.25688,36.05524c0.01599-0.39215,0.36505-0.66235,0.72693-0.56323    c0.21368,0.05859,0.30719,0.22076,0.35034,0.42255c0.00568,0.02673,0.00873,0.05408,0.01135,0.08136    c0.00165,0.0174,0.00031,0.0351,0.00031,0.05933C24.97978,36.05524,24.61839,36.05524,24.25688,36.05524z" style="fill:#303030;"/><path d="M20.29704,37.84278c0.00085-0.01929,0.00214-0.03473,0.00214-0.05011    c0.00006-0.51587,0.0014-1.03174-0.00122-1.54755c-0.00055-0.10938-0.00812-0.21991-0.02551-0.32782    c-0.08276-0.51349-0.39246-0.86749-0.92072-0.914c-0.36182-0.0318-0.67065,0.06915-0.89465,0.37158    c-0.01544,0.02081-0.0307,0.04175-0.04608,0.06262c-0.00372-0.00153-0.00745-0.00311-0.01117-0.0047    c0-0.12067,0-0.24133,0-0.36542c-0.31024,0-0.61493,0-0.92139,0c0,0.92792,0,1.85211,0,2.77448c0.30945,0,0.61426,0,0.92255,0    c0-0.02826,0-0.05157,0-0.07489c0.00024-0.50604,0.0011-1.01208,0.00024-1.51813    c-0.00024-0.14978,0.05725-0.27289,0.15839-0.38019c0.19183-0.20355,0.67108-0.22986,0.77771,0.19952    c0.02618,0.10529,0.03534,0.21698,0.03625,0.32593c0.00385,0.45892,0.00165,0.91791,0.00165,1.37689    c0,0.02301,0,0.04602,0,0.07178C19.6859,37.84278,19.9904,37.84278,20.29704,37.84278z" style="fill:#303030;"/><path d="M13.19432,37.8443c0.85199,0,1.70038,0,2.55243,0c0-0.27826,0-0.55371,0-0.83362    c-0.54181,0-1.08051,0-1.62988,0c0-1.07227,0-2.13617,0-3.20105c-0.31104,0-0.61578,0-0.92255,0    C13.19432,35.15631,13.19432,36.49878,13.19432,37.8443z" style="fill:#303030;"/><path d="M16.12279,37.84247c0.30835,0,0.61292,0,0.91913,0c0-0.92676,0-1.84912,0-2.77515    c-0.30664,0-0.60986,0-0.91913,0C16.12279,35.99463,16.12279,36.91858,16.12279,37.84247z" style="fill:#303030;"/><path d="M16.58195,33.72077c-0.01721,0.0011-0.04877,0.0011-0.07965,0.00543    c-0.19006,0.02692-0.33795,0.11566-0.40588,0.30219c-0.06689,0.18396-0.0379,0.35687,0.0976,0.50195    c0.12354,0.13226,0.28491,0.16302,0.45795,0.14844c0.30078-0.02545,0.49359-0.27228,0.44397-0.56683    C17.05644,33.87738,16.86235,33.72559,16.58195,33.72077z" style="fill:#303030;"/></g></g></svg>