<?xml version="1.0" ?><svg style="enable-background:new 0 0 48 48;" version="1.1" viewBox="0 0 48 48" xml:space="preserve" xmlns="http://www.w3.org/2000/svg" xmlns:xlink="http://www.w3.org/1999/xlink"><g id="Padding__x26__Artboard"/><g id="Icons"><g><path d="M12.39713,17.60254v17.21094c0,0.19336,0.15674,0.34961,0.3501,0.34961h17.21045    c0.19336,0,0.3501-0.15625,0.3501-0.34961V23.64355c0-0.19336-0.15674-0.34961-0.3501-0.34961s-0.3501,0.15625-0.3501,0.34961    v10.82031H13.09732V17.95215h12.5542c0.19336,0,0.3501-0.15625,0.3501-0.34961s-0.15674-0.34961-0.3501-0.34961h-12.9043    C12.55387,17.25293,12.39713,17.40918,12.39713,17.60254z" style="fill:#303030;"/><g><path d="M32.10873,15.41229c0,0-0.14795-0.34955-0.06842-0.92078L17.40836,29.11328     c-0.02783,0.02734-0.05078,0.05957-0.06787,0.0957l-1.31152,2.72852c-0.06445,0.13379-0.03711,0.29492,0.06885,0.39941     c0.06689,0.06738,0.15625,0.10156,0.24658,0.10156c0.05225,0,0.10498-0.01172,0.15381-0.03516l2.73682-1.33789     c0.03467-0.0166,0.06641-0.03906,0.09326-0.06641l14.578-14.55249c-0.24464,0.03935-0.5766,0.05001-0.91028-0.07996     C32.52425,16.18717,32.24838,15.85944,32.10873,15.41229z" style="fill:#303030;"/><path d="M35.39957,13.79101l-0.75928-0.75c-0.17139-0.1709-0.4248-0.2373-0.69189-0.18848     c-0.22314,0.04297-0.44531,0.16602-0.625,0.34668l-0.60694,0.61621c-0.05167,0.26169-0.08464,0.6426-0.06287,0.97123     c0.07842,0.62365,0.34144,0.90383,0.89735,1.0256c0,0,0.35065,0.08685,0.95203,0.03827l0.73157-0.74018     c0.17969-0.17969,0.30371-0.40039,0.34912-0.62109C35.63932,14.21777,35.57291,13.96484,35.39957,13.79101z" style="fill:#303030;"/></g></g></g></svg>