<?xml version="1.0" ?><svg style="enable-background:new 0 0 48 48;" version="1.1" viewBox="0 0 48 48" xml:space="preserve" xmlns="http://www.w3.org/2000/svg" xmlns:xlink="http://www.w3.org/1999/xlink"><g id="Padding__x26__Artboard"/><g id="Icons"><g><circle cx="32.05432" cy="20.60962" r="0.99524" style="fill:#303030;"/><path d="M36.52783,13.4834H11.47217c-0.59619,0-1.08105,0.48438-1.08105,1.08008v11.45386l0.7002-0.79431    l5.11133-5.8324c0.125-0.14355,0.34229-0.15918,0.48682-0.03906l11.49219,9.5625l4.04834-2.42871    c0.12012-0.07129,0.27051-0.06543,0.38428,0.01562l4.29443,3.07898l0.7002,0.53741V14.56348    C37.60889,13.96777,37.12402,13.4834,36.52783,13.4834z M32.0542,22.30469c-0.93457,0-1.69482-0.76074-1.69482-1.69531    s0.76025-1.69434,1.69482-1.69434s1.69531,0.75977,1.69531,1.69434S32.98877,22.30469,32.0542,22.30469z" style="fill:#303030;"/><path d="M36.90869,30.44098l-4.51562-3.23785L28.3291,29.6416    c-0.12842,0.07715-0.29053,0.0625-0.40381-0.03027l-11.4209-9.50293l-5.3374,6.08984    c-0.02014,0.02307-0.05164,0.02106-0.07568,0.03754v0.04541l-0.7002,0.76752v6.38782c0,0.5957,0.48486,1.08008,1.08105,1.08008    h25.05566c0.59619,0,1.08105-0.48438,1.08105-1.08008v-2.44135L36.90869,30.44098z" style="fill:#303030;"/><path d="M11.09131,26.23578v0.04541l0.07568-0.08295C11.14685,26.22131,11.11536,26.2193,11.09131,26.23578    z" style="fill:#303030;"/></g></g></svg>