<?xml version="1.0" ?><svg style="enable-background:new 0 0 48 48;" version="1.1" viewBox="0 0 48 48" xml:space="preserve" xmlns="http://www.w3.org/2000/svg" xmlns:xlink="http://www.w3.org/1999/xlink"><g id="Padding__x26__Artboard"/><g id="Icons"><g><path d="M37.85254,20.97021L24.2124,9.31006c-0.13086-0.11328-0.32422-0.11328-0.45508,0L10.14746,20.97021    c-0.08838,0.0752-0.1333,0.19043-0.12012,0.30566s0.08301,0.2168,0.18652,0.27051l3.30078,1.71161v13.30792    c0,1.21777,0.9917,2.20898,2.21045,2.20898h6.67969c0.19336,0,0.3501-0.15625,0.3501-0.34961v-5.61035h2.49023v5.61035    c0,0.19336,0.15674,0.34961,0.3501,0.34961h6.68994c1.21289,0,2.19971-0.99121,2.19971-2.20898V23.258l3.30127-1.71161    c0.10352-0.05371,0.17334-0.15527,0.18652-0.27051S37.94092,21.04541,37.85254,20.97021z M15.44434,19.51025    c-0.12891-0.14355-0.1167-0.36523,0.02734-0.49414l0.58643-0.52539c0.14355-0.12793,0.36426-0.11719,0.49414,0.02734    c0.12891,0.14355,0.1167,0.36523-0.02734,0.49414l-0.58643,0.52539c-0.06689,0.05957-0.1499,0.08887-0.2334,0.08887    C15.60938,19.62646,15.51367,19.5874,15.44434,19.51025z M17.48291,17.93408c-0.09668,0-0.19287-0.03906-0.26172-0.11719    c-0.12842-0.14453-0.11523-0.36621,0.0293-0.49414l4.92188-4.36426c0.14502-0.12891,0.3667-0.11621,0.49414,0.0293    c0.12842,0.14453,0.11523,0.36621-0.0293,0.49414l-4.92188,4.36426C17.64844,17.90576,17.56543,17.93408,17.48291,17.93408z" style="fill:#303030;"/></g></g></svg>