<?xml version="1.0" ?><svg style="enable-background:new 0 0 48 48;" version="1.1" viewBox="0 0 48 48" xml:space="preserve" xmlns="http://www.w3.org/2000/svg" xmlns:xlink="http://www.w3.org/1999/xlink"><g id="Padding__x26__Artboard"/><g id="Icons"><g><path d="M24,8.30664C15.34668,8.30664,8.30615,15.34668,8.30615,24S15.34668,39.69336,24,39.69336    S39.69385,32.65332,39.69385,24S32.65332,8.30664,24,8.30664z M32.1543,32.12695    c-0.13916,0.13965-0.30908,0.13965-0.50537,0.13965h-2.81348c-0.42627,0-0.59277-0.16699-0.59277-0.59668l-0.00049-5.13672    c-0.00049-0.46289-0.01123-0.91309-0.13672-1.33496c-0.17383-0.58203-0.50977-0.83496-1.12305-0.84668    c-0.56494,0.00879-0.91064,0.10742-1.1748,0.39355c-0.2207,0.24023-0.35254,0.55859-0.40137,0.9707    c-0.04541,0.37891-0.06934,0.76562-0.07129,1.15234c-0.00781,1.6084-0.00586,3.2168,0.00049,4.82422    c0,0.00031,0,0.00067,0,0.00067c0.00049,0.11847-0.01416,0.29327-0.14941,0.42902    c-0.13232,0.13184-0.30078,0.14844-0.41846,0.14844c-0.00244,0-0.00488,0-0.00732,0    c-0.96045-0.00488-1.9209-0.00391-2.88232-0.00098c-0.06934,0.00293-0.27393,0.00293-0.42676-0.14746    c-0.15332-0.15137-0.15332-0.36133-0.15332-0.42969c0.00439-3.3877,0.00488-6.77539,0-10.16309    c0-0.01685,0-0.04236,0.00232-0.07355c0.00696-0.09351,0.03516-0.23798,0.14905-0.35223    c0.13623-0.13574,0.29297-0.14453,0.43213-0.14941c0.91797,0.00586,1.83545,0.00586,2.75439,0    c0.05957-0.00098,0.27783-0.00195,0.43164,0.15527c0.1543,0.15625,0.14941,0.36621,0.14795,0.43555    c-0.00146,0.05957-0.00293,0.11914-0.00342,0.17773c0.47119-0.42773,1.0293-0.72266,1.66797-0.87891    c1.104-0.27246,2.18896-0.18457,3.21826,0.26172c0.94141,0.4082,1.55908,1.16992,1.8877,2.32812    c0.17871,0.62891,0.27197,1.29102,0.27734,1.96875c0.01074,1.5166,0.01611,3.0332,0.02197,4.54883l0.00684,1.67578    C32.29248,31.8125,32.29297,31.98828,32.1543,32.12695z M23.62354,11.27734c0.00977,0.19238-0.13867,0.35742-0.33203,0.36719    c-0.52246,0.02637-1.05029,0.08691-1.56934,0.17969c-0.021,0.00391-0.0415,0.00488-0.06201,0.00488    c-0.1665,0-0.31396-0.11816-0.34424-0.28809c-0.03369-0.19043,0.09277-0.37207,0.2832-0.40625    c0.54785-0.09766,1.10547-0.16113,1.65723-0.18945C23.43555,10.94238,23.61328,11.08301,23.62354,11.27734z M15.00732,14.40234    c1.16406-1.00195,3.01758-2.3291,5.23877-2.95703c0.18945-0.0498,0.38037,0.05664,0.43213,0.24219    c0.05225,0.18555-0.05566,0.37891-0.2417,0.43164c-2.09814,0.59277-3.86182,1.85742-4.97217,2.81445    c-0.06641,0.05664-0.14746,0.08398-0.22852,0.08398c-0.09814,0-0.1958-0.04102-0.26514-0.12109    C14.84473,14.75,14.86084,14.5293,15.00732,14.40234z M19.99512,26.62207l-0.00049,1.18164    c-0.00049,1.29297-0.00098,2.58594,0.00488,3.87988c0,0.12305-0.01514,0.30078-0.15186,0.4375    c-0.1333,0.13281-0.30566,0.14941-0.42676,0.14941c-0.00244,0-0.00488,0-0.00732,0c-0.9541-0.00781-1.9082-0.00781-2.8623,0    c-0.13281,0.02051-0.2998-0.01465-0.43701-0.15039c-0.1377-0.1377-0.15381-0.31445-0.15381-0.43652    c0.00537-3.38184,0.00537-6.7627,0-10.14355c0-0.06104,0.00403-0.13556,0.02527-0.21198    c0.01007-0.03644,0.04175-0.07013,0.06104-0.10608c0.0213-0.03973,0.03131-0.0813,0.0675-0.11749l0.00061-0.00037l0.00037-0.00061    c0.00214-0.00208,0.00482-0.00177,0.00696-0.00378c0.13568-0.13037,0.29626-0.15808,0.42957-0.14563    c0.00067,0,0.00128,0,0.00128,0c0.95233,0.00586,1.90741,0.00586,2.86102,0c0.11816-0.00781,0.29688,0.0127,0.43311,0.14844    c0.15332,0.15234,0.15234,0.36133,0.15186,0.44043c-0.00586,1.2832-0.00488,2.56738-0.00439,3.85156L19.99512,26.62207z     M17.98438,20.28809c-0.00781,0-0.01514,0.00098-0.02295,0.00098c-0.58838,0-1.14551-0.23145-1.5708-0.65332    c-0.43359-0.42871-0.68262-1.02246-0.68262-1.62793c0,0,0,0,0-0.00098c0.00244-1.26953,0.99902-2.27051,2.26855-2.27734    c0.00439,0,0.00879,0,0.01318,0c0.61865,0,1.19189,0.23145,1.61621,0.65234c0.42529,0.42188,0.66016,0.99902,0.66113,1.62305    C20.26904,19.29395,19.28809,20.27539,17.98438,20.28809z" style="fill:#303030;"/></g></g></svg>