<?xml version="1.0" ?><svg style="enable-background:new 0 0 48 48;" version="1.1" viewBox="0 0 48 48" xml:space="preserve" xmlns="http://www.w3.org/2000/svg" xmlns:xlink="http://www.w3.org/1999/xlink"><g id="Padding__x26__Artboard"/><g id="Icons"><g><path d="M29.08813,15.71484c0-1.08887-0.88574-1.97461-1.97412-1.97461H21.5603    c-1.08838,0-1.97363,0.88574-1.97363,1.97461v0.92969h9.50146V15.71484z" style="fill:none;"/><g><path d="M10.90601,22.65137h-0.7002v10.09375c0,1.2207,0.99365,2.21387,2.21436,2.21387h23.16016     c1.2207,0,2.21387-0.99316,2.21387-2.21387V22.65137h-0.7002H10.90601z M12.41772,24.1748     c0-0.19336,0.15674-0.34961,0.3501-0.34961s0.3501,0.15625,0.3501,0.34961v3.55176c0,0.19336-0.15674,0.34961-0.3501,0.34961     s-0.3501-0.15625-0.3501-0.34961V24.1748z M12.41772,29.29102c0-0.19336,0.15674-0.34961,0.3501-0.34961     s0.3501,0.15625,0.3501,0.34961v0.92383c0,0.19336-0.15674,0.34961-0.3501,0.34961s-0.3501-0.15625-0.3501-0.34961V29.29102z" style="fill:#303030;"/><path d="M35.58032,16.64453h-5.79199v-0.92969c0-1.47461-1.19971-2.67383-2.67432-2.67383H21.5603     c-1.47412,0-2.67383,1.19922-2.67383,2.67383v0.92969h-6.46631c-1.2207,0-2.21436,0.99316-2.21436,2.21387v3.09375h0.7002     h26.18799h0.7002V18.8584C37.79419,17.6377,36.80103,16.64453,35.58032,16.64453z M19.58667,15.71484     c0-1.08887,0.88525-1.97461,1.97363-1.97461h5.55371c1.08838,0,1.97412,0.88574,1.97412,1.97461v0.92969h-9.50146V15.71484z" style="fill:#303030;"/></g></g></g></svg>