<?xml version="1.0" ?><svg style="enable-background:new 0 0 48 48;" version="1.1" viewBox="0 0 48 48" xml:space="preserve" xmlns="http://www.w3.org/2000/svg" xmlns:xlink="http://www.w3.org/1999/xlink"><g id="Padding__x26__Artboard"/><g id="Icons"><g><path d="M30.6412,34.00549c-0.00732-0.26074-0.00488-0.53125-0.00293-0.80371    c0.01123-1.3291,0.02393-2.83496-1.12598-3.81348c-0.40967-0.35059-0.92285-0.63965-1.56982-0.88281    c-0.01172-0.00488-0.0249-0.00879-0.03809-0.01172c-0.354-0.1377-0.71924-0.25293-1.08301-0.36816    c-0.34277-0.10938-0.68408-0.2168-1.0166-0.3457c-0.35986-0.13379-0.73193-0.2373-1.10303-0.34082    c-0.46729-0.12988-0.90918-0.25293-1.32227-0.43555c-0.26514-0.11914-0.42383-0.25879-0.48535-0.42676    c-0.07812-0.21387-0.01904-0.51758,0.17969-0.92871c0.1665-0.34082,0.34619-0.68262,0.52588-1.02539    c0.62744-1.19531,1.27588-2.43164,1.44043-3.73633c0.20508-1.59082,0.28711-3.63281-0.90869-5.30566    c-0.11768-0.16699-0.24512-0.32422-0.3877-0.4668c-0.91675-0.94495-2.49414-1.53406-4.16284-1.47443    c-0.00024,0-0.00049-0.00018-0.00049-0.00018c-0.00452-0.00018-0.00873,0.00024-0.013,0.00006    c-0.00128,0.00006-0.00256-0.00012-0.00385-0.00006l-0.00024,0.00006c-1.64697-0.07422-3.24603,0.52954-4.15942,1.47064    c-0.14697,0.14648-0.27441,0.30371-0.39062,0.46875c-1.19727,1.6748-1.11523,3.7168-0.91016,5.30664    c0.16504,1.30566,0.81348,2.54199,1.44043,3.7373c0.18018,0.34277,0.35938,0.68457,0.52539,1.02441    c0.19922,0.41211,0.2583,0.71582,0.18018,0.92969c-0.06104,0.16797-0.21973,0.30762-0.4834,0.42578    c-0.41406,0.18359-0.85449,0.30566-1.3208,0.43555c-0.37256,0.10352-0.74561,0.20801-1.10938,0.34375    c-0.33691,0.12988-0.68848,0.24121-1.04102,0.35254c-0.93701,0.29785-1.90576,0.60449-2.66309,1.25293    c-1.15039,0.97949-1.1377,2.48535-1.12646,3.81445c0.00195,0.27246,0.00439,0.54297-0.00293,0.80371    c-0.00293,0.09473,0.03271,0.18652,0.09863,0.25488c0.06592,0.06738,0.15625,0.10547,0.25098,0.10547h13.56348h7.87646    c0.00342,0,0.00684,0,0.01025,0c0.02313-0.00067,0.04303-0.01019,0.06476-0.01514c0.02216-0.005,0.04541-0.00635,0.06573-0.01532    c0.01971-0.00867,0.03485-0.02332,0.05243-0.03528c0.01971-0.01343,0.04108-0.02429,0.05762-0.04138    c0.01337-0.01385,0.02118-0.0318,0.03217-0.04767c0.01459-0.02112,0.03107-0.04047,0.04083-0.06464    c0.00714-0.01764,0.00726-0.03772,0.01141-0.05664c0.00543-0.02448,0.01489-0.04742,0.01489-0.07355    c0-0.0022-0.00122-0.00403-0.00128-0.00623C30.6404,34.00842,30.64126,34.00707,30.6412,34.00549z M17.25008,15.44396    c0.17383-0.08105,0.38379-0.00879,0.46631,0.16602c0.08301,0.17383,0.00928,0.38184-0.16406,0.46582    c-0.06201,0.03027-1.51514,0.76855-1.31738,2.94531c0.01758,0.19238-0.12451,0.3623-0.3169,0.37988    c-0.01074,0.00098-0.02148,0.00098-0.03223,0.00098c-0.17871,0-0.33154-0.13574-0.34814-0.31836    C15.29452,16.40588,17.17049,15.48205,17.25008,15.44396z M15.85555,21.26037l-0.19287-0.77148    c-0.04688-0.1875,0.06689-0.37793,0.25439-0.4248c0.18652-0.04297,0.37744,0.06738,0.42432,0.25488l0.19287,0.77148    c0.04688,0.1875-0.06689,0.37793-0.25439,0.4248c-0.02832,0.00684-0.05713,0.00977-0.08545,0.00977    C16.03768,21.52502,15.8951,21.41955,15.85555,21.26037z" style="fill:#303030;"/><path d="M39.49673,34.00921c-0.00006-0.00201,0.00098-0.00366,0.00092-0.00568    c-0.00781-0.21191-0.00684-0.43066-0.00586-0.65137c0.00342-1.04297,0.00781-2.22559-0.90283-3.00293    c-0.61182-0.52051-1.38477-0.7666-2.13281-1.00391c-0.26611-0.08496-0.53174-0.16895-0.79053-0.26758    c-0.2793-0.10156-0.56689-0.18262-0.854-0.2627c-0.36523-0.10156-0.70996-0.19824-1.02881-0.33594    c-0.1875-0.08594-0.29834-0.18066-0.33838-0.29102c-0.05225-0.14355-0.00586-0.36914,0.1377-0.66895    c0.13281-0.27344,0.27637-0.54688,0.42041-0.82227c0.48779-0.92969,0.99219-1.8916,1.12207-2.91406    c0.16357-1.25,0.229-2.85742-0.71484-4.18066c-0.08789-0.1377-0.19434-0.25684-0.31787-0.3916    c-0.73071-0.74963-1.97705-1.19995-3.30072-1.17242c-0.00226-0.00006-0.00415-0.00134-0.00641-0.0014    c-0.00275-0.00012-0.00537,0.00061-0.00812,0.00049c-0.00256,0.00006-0.00494-0.00055-0.00751-0.00049    c-0.00208,0.00006-0.00372,0.00122-0.00574,0.00128c-1.30182-0.04004-2.56128,0.42377-3.28967,1.16962    c-0.13037,0.13086-0.23242,0.25684-0.30957,0.37793c-0.95605,1.32715-0.89014,2.94043-0.72559,4.19629    c0.13965,1.10059,0.54883,1.90234,1.02295,2.83105c0.09473,0.18555,0.19238,0.37695,0.28857,0.57227    c0.06793,0.14368,0.11346,0.26404,0.14368,0.38342c0.02722,0.11285,0.10376,0.21167,0.22156,0.25134    c0.84814,0.28809,2.03369,0.94531,2.63135,1.70703c0.86279,1.09863,0.85107,2.58008,0.83936,4.0127l-0.00244,0.47656v0.00098    c0,0.19336,0.15674,0.34961,0.3501,0.34961c0.00171,0,0.00311-0.00098,0.00482-0.00098h7.20905h0.00049    c0.00421,0,0.00897,0,0.01318,0c0.02515-0.00092,0.04694-0.01093,0.07043-0.01685    c0.01923-0.00488,0.03943-0.00586,0.05725-0.01373c0.02386-0.0105,0.04279-0.02734,0.06342-0.0426    c0.01556-0.01154,0.03308-0.01996,0.04651-0.03387c0.01654-0.01703,0.02673-0.03839,0.03949-0.05853    c0.01147-0.01801,0.02539-0.03387,0.03351-0.05389c0.00818-0.02039,0.00891-0.04321,0.01318-0.06519    c0.00427-0.02179,0.01312-0.04187,0.01312-0.06494C39.49813,34.01373,39.49679,34.01165,39.49673,34.00921z" style="fill:#303030;"/></g></g></svg>