<?xml version="1.0" ?><svg style="enable-background:new 0 0 48 48;" version="1.1" viewBox="0 0 48 48" xml:space="preserve" xmlns="http://www.w3.org/2000/svg" xmlns:xlink="http://www.w3.org/1999/xlink"><g id="Padding__x26__Artboard"/><g id="Icons"><g><path d="M35.33643,22.23878l-9.38281-5.92041c-0.25293-0.1626-0.57324-0.17383-0.83691-0.02979    c-0.26465,0.14453-0.4292,0.42285-0.4292,0.72656v3.35944c-0.60999-0.00623-1.21979-0.01923-1.80762-0.05768    c-1.6001-0.10596-3.29102-0.16553-4.84375,0.32471c-1.08789,0.34375-2.11816,0.92822-2.979,1.69043    c-0.85547,0.7583-1.55908,1.7041-2.03369,2.73535c-0.48975,1.06348-0.74902,2.24707-0.74902,3.42236v2.97217    c0,0.18018,0.13721,0.33105,0.31641,0.34863c0.01172,0.00098,0.02295,0.00146,0.03418,0.00146    c0.16553,0,0.31104-0.11768,0.34326-0.2832c0.06982-0.36035,0.16699-0.71729,0.28906-1.06152    c0.68066-1.92383,2.16846-3.52734,4.08154-4.3999c1.45166-0.66064,3.46191-0.62109,5.40234-0.58105    c0.64648,0.01318,1.31104,0.02686,1.94629,0.01221v3.37109c0,0.30127,0.16602,0.57861,0.43262,0.72461    c0.11792,0.06439,0.24695,0.09308,0.37573,0.09613c0.00659,0.00018,0.0127,0.00494,0.01929,0.00494    c0.00421,0,0.00824-0.00171,0.01239-0.00177c0.05066-0.00079,0.09998-0.01099,0.14954-0.02118    c0.02313-0.00476,0.04675-0.00488,0.06946-0.0116c0.07141-0.02124,0.14044-0.05164,0.20465-0.0929l9.38477-5.93262    c0.24414-0.15381,0.38965-0.41504,0.38965-0.69873C35.72559,22.65333,35.58008,22.3921,35.33643,22.23878z M21.30225,22.30714    c-0.61133,0.01318-1.15137,0.06543-1.6499,0.15918c-0.02197,0.00439-0.04395,0.00635-0.06543,0.00635    c-0.16504,0-0.31201-0.11719-0.34326-0.28516c-0.03613-0.19043,0.08887-0.37305,0.27881-0.40869    c0.53711-0.10107,1.11426-0.15723,1.76416-0.17188c0.00293,0,0.00537,0,0.00781,0c0.18994,0,0.3457,0.15186,0.3501,0.34229    C21.64844,22.14259,21.49561,22.30275,21.30225,22.30714z M15.9917,24.06447c-0.07666,0-0.15332-0.0249-0.21777-0.07617    c-0.15137-0.12061-0.17627-0.34082-0.05615-0.4917c0.60547-0.76074,1.78125-1.30371,2.45752-1.31592    c0.00244,0,0.00439,0,0.00635,0c0.19043,0,0.34668,0.15283,0.3501,0.34375c0.00342,0.19336-0.15039,0.35303-0.34375,0.35645    c-0.50928,0.00879-1.45996,0.47021-1.92236,1.05127C16.19629,24.01906,16.09424,24.06447,15.9917,24.06447z" style="fill:#303030;"/></g></g></svg>