<?xml version="1.0" ?><svg style="enable-background:new 0 0 48 48;" version="1.1" viewBox="0 0 48 48" xml:space="preserve" xmlns="http://www.w3.org/2000/svg" xmlns:xlink="http://www.w3.org/1999/xlink"><g id="Padding__x26__Artboard"/><g id="Icons"><g><path d="M34.95037,32.31248c-0.0083-2.14649-0.01611-4.29199-0.03125-6.43848    c-0.00684-0.89355-0.12988-1.76855-0.36572-2.59863c-0.42969-1.51074-1.23242-2.50391-2.45557-3.03418    c-1.34912-0.58496-2.77149-0.7002-4.22363-0.34277c-0.9248,0.22656-1.72021,0.6748-2.375,1.33789    c0.00049-0.17285,0.00195-0.34473,0.00635-0.51758c0.00195-0.0791,0.0083-0.32227-0.1626-0.49707    c-0.17236-0.1748-0.41699-0.17969-0.49316-0.17285c-1.22803,0.00684-2.45361,0.00684-3.67969,0.00098    c-0.13379-0.0127-0.34131,0.01367-0.49316,0.16504c-0.15137,0.15039-0.16846,0.34863-0.16846,0.48535    c0.00635,4.52441,0.00586,9.04883,0,13.57422c0,0.1377,0.01758,0.33789,0.16895,0.48828    c0.15039,0.15137,0.3374,0.16699,0.48828,0.16602c1.2832-0.00781,2.56592-0.00781,3.84912,0c0.00439,0,0.0083,0,0.0127,0    c0.13623,0,0.32764-0.01855,0.47266-0.16309c0.1499-0.14941,0.1665-0.35156,0.16602-0.49023    c-0.0083-2.14844-0.01074-4.29688-0.00049-6.44531c0.00293-0.52246,0.03516-1.04492,0.0957-1.55176    c0.06885-0.57812,0.25439-1.02344,0.56689-1.3623c0.37793-0.41016,0.88184-0.56641,1.65723-0.56445    c0.86768,0.0166,1.36475,0.39062,1.61035,1.21484c0.17285,0.58008,0.1875,1.19043,0.18799,1.81738l0.00049,6.86035    c0,0.51465,0.16406,0.67969,0.67432,0.67969l3.75879,0.00098c0.25537,0,0.43994-0.00098,0.59082-0.15234    c0.15088-0.15234,0.15039-0.34277,0.14941-0.58398L34.95037,32.31248z" style="fill:#303030;"/><path d="M18.53337,27.50193l-0.00049-1.60742c-0.00098-1.72656-0.00146-3.45215,0.00586-5.17871    c0.00049-0.15527-0.01807-0.35352-0.16846-0.50293c-0.15088-0.15137-0.37354-0.17773-0.49414-0.16504    c-1.27588,0.00977-2.55029,0.00879-3.82422,0.00098c-0.15625,0.00488-0.34863,0.01465-0.50146,0.16699    c-0.15381,0.15234-0.1709,0.35742-0.1709,0.49805c0.00684,4.51562,0.00684,9.03223,0,13.54883    c0,0.1416,0.01807,0.34766,0.17139,0.5c0.15332,0.15137,0.36377,0.15332,0.49854,0.16602    c1.27539-0.00977,2.55029-0.00977,3.82471,0c0.00488,0,0.00928,0,0.01416,0c0.15039,0,0.33789-0.02051,0.48291-0.16504    c0.1499-0.14941,0.16846-0.3457,0.16797-0.50098c-0.00781-1.73242-0.00732-3.4668-0.00635-5.2002L18.53337,27.50193z" style="fill:#303030;"/><path d="M15.97527,13.07127c-0.00684,0-0.01318,0-0.01953,0    c-1.63086,0.00879-2.91064,1.29395-2.91357,2.9248c0,0.00098,0,0.00098,0,0.00098c0,0.77734,0.31934,1.53906,0.87646,2.08984    c0.54639,0.54102,1.26123,0.83789,2.01562,0.83789c0.00977,0,0.02002-0.00098,0.02979-0.00098    c1.67529-0.0166,2.93604-1.27637,2.93262-2.93066c-0.00146-0.80273-0.30273-1.54395-0.84863-2.08594    C17.50359,13.36717,16.76824,13.07127,15.97527,13.07127z" style="fill:#303030;"/></g></g></svg>