<?xml version="1.0" ?><svg style="enable-background:new 0 0 48 48;" version="1.1" viewBox="0 0 48 48" xml:space="preserve" xmlns="http://www.w3.org/2000/svg" xmlns:xlink="http://www.w3.org/1999/xlink"><g id="Padding__x26__Artboard"/><g id="Icons"><g><circle cx="23.96815" cy="37.56822" r="0.64536" style="fill:none;"/><path d="M20.72009,11.17114h3.72314c0.19336,0,0.3501-0.15674,0.3501-0.3501s-0.15674-0.3501-0.3501-0.3501    h-3.72314c-0.19336,0-0.3501,0.15674-0.3501,0.3501S20.52673,11.17114,20.72009,11.17114z" style="fill:none;"/><path d="M20.70935,13.97437c-0.12988-0.14453-0.35059-0.15576-0.49414-0.02637l-2.87012,2.58203    c-0.14404,0.12939-0.15576,0.35059-0.02637,0.49414c0.06934,0.07715,0.16455,0.11621,0.26025,0.11621    c0.0835,0,0.16699-0.02979,0.23389-0.08984l2.87012-2.58203C20.82703,14.33911,20.83875,14.11792,20.70935,13.97437z" style="fill:none;"/><ellipse cx="26.851" cy="10.82112" rx="0.36533" ry="0.3287" style="fill:none;"/><path d="M21.23962,15.26538c-0.12988-0.14404-0.35059-0.15527-0.49414-0.02637l-1.78857,1.60938    c-0.14404,0.12939-0.15576,0.35059-0.02637,0.49414c0.06934,0.07715,0.16455,0.11621,0.26025,0.11621    c0.0835,0,0.16699-0.02979,0.23389-0.08984l1.78857-1.60938C21.3573,15.63013,21.36902,15.40894,21.23962,15.26538z" style="fill:none;"/><polygon points="32.94714,12.6828 32.94714,12.74121 33.01086,12.70813   " style="fill:none;"/><path d="M32.24695,12.40454h0.7002v-1.34131c0-1.35938-1.10645-2.46582-2.46582-2.46582H17.45496    c-1.35938,0-2.46582,1.10645-2.46582,2.46582v1.34131h0.7002H32.24695z M26.85101,10.49243    c0.20178,0,0.3653,0.14716,0.3653,0.32867c0,0.18158-0.16351,0.32874-0.3653,0.32874s-0.36536-0.14716-0.36536-0.32874    C26.48566,10.63959,26.64923,10.49243,26.85101,10.49243z M20.72009,10.47095h3.72314c0.19336,0,0.3501,0.15674,0.3501,0.3501    s-0.15674,0.3501-0.3501,0.3501h-3.72314c-0.19336,0-0.3501-0.15674-0.3501-0.3501S20.52673,10.47095,20.72009,10.47095z" style="fill:#303030;"/><path d="M15.68933,36.52466h-0.7002v0.41211c0,1.35938,1.10645,2.46582,2.46582,2.46582h13.02637    c1.35938,0,2.46582-1.10645,2.46582-2.46582v-0.41211h-0.7002H15.68933z M23.96814,38.21356    c-0.35638,0-0.64532-0.28894-0.64532-0.64532c0-0.35645,0.28894-0.64539,0.64532-0.64539    c0.35645,0,0.64539,0.28894,0.64539,0.64539C24.61353,37.92462,24.32458,38.21356,23.96814,38.21356z" style="fill:#303030;"/><path d="M15.68933,13.10474h-0.7002v22.71973h0.7002h16.55762h0.7002V13.10474h-0.7002H15.68933z     M17.57898,17.14038c-0.0957,0-0.19092-0.03906-0.26025-0.11621c-0.12939-0.14355-0.11768-0.36475,0.02637-0.49414    l2.87012-2.58203c0.14355-0.12939,0.36426-0.11816,0.49414,0.02637c0.12939,0.14355,0.11768,0.36475-0.02637,0.49414    l-2.87012,2.58203C17.74597,17.1106,17.66248,17.14038,17.57898,17.14038z M19.1908,17.45874    c-0.0957,0-0.19092-0.03906-0.26025-0.11621c-0.12939-0.14355-0.11768-0.36475,0.02637-0.49414l1.78857-1.60938    c0.14355-0.12891,0.36426-0.11768,0.49414,0.02637c0.12939,0.14355,0.11768,0.36475-0.02637,0.49414l-1.78857,1.60938    C19.35779,17.42896,19.27429,17.45874,19.1908,17.45874z M22.3761,27.50879c0.00031,0.06818-0.01917,0.08679-0.08551,0.08624    c-0.34973-0.00269-0.69952-0.00269-1.04932,0c-0.03308,0.00024-0.05487-0.00452-0.06836-0.01782s-0.01862-0.03516-0.01862-0.06897    c0.00189-1.23749,0.00189-2.47498,0-3.71246c-0.00006-0.03418,0.00543-0.05579,0.01917-0.06891    c0.01367-0.01306,0.03558-0.01758,0.06836-0.01733c0.34973,0.00256,0.69952,0.00281,1.04932-0.00006    c0.0672-0.00055,0.08521,0.01953,0.0849,0.08685c-0.00269,0.61981-0.00159,1.23969-0.00159,1.85956    c0,0.61761-0.00116,1.23529,0.00165,1.85284V27.50879z M22.4198,22.78247c-0.07037,0.16962-0.20459,0.3017-0.375,0.37183    c-0.08521,0.03503-0.17944,0.05463-0.2793,0.0556c-0.38708,0.00391-0.70361-0.31976-0.70374-0.7063    c0.00079-0.36786,0.28375-0.70337,0.70294-0.70581c0.39313-0.00226,0.70862,0.29584,0.70935,0.70508    C22.47424,22.60339,22.45496,22.69763,22.4198,22.78247z M26.86133,27.58044c-0.01349,0.01324-0.04034,0.01331-0.09381,0.01331    c-0.3432,0.00006-0.68634,0.00018-1.02954-0.00006c-0.08606-0.00012-0.08887-0.00299-0.08893-0.09052    c-0.00018-0.62659,0.00012-1.25317-0.00024-1.87976c-0.00006-0.17688-0.00415-0.35345-0.05542-0.52515    c-0.07953-0.26648-0.25299-0.39612-0.53137-0.40137c-0.1994-0.00372-0.38416,0.03107-0.52631,0.18542    c-0.11078,0.12018-0.16125,0.26923-0.18005,0.42688c-0.01727,0.14435-0.02618,0.29053-0.02686,0.43597    c-0.00293,0.58893-0.0022,1.17786,0.00012,1.76678c0.00024,0.06378-0.0177,0.08356-0.08179,0.08307    c-0.35199-0.00262-0.70404-0.00244-1.05609-0.00018c-0.06299,0.00043-0.08356-0.01892-0.0835-0.08331    c0.00165-1.23987,0.00171-2.47974-0.00006-3.7196c-0.00006-0.0658,0.02295-0.08258,0.08466-0.08215    c0.33649,0.0022,0.6731,0.00232,1.00958-0.00006c0.0647-0.00049,0.08466,0.02295,0.08313,0.08533    c-0.00336,0.13678-0.00104,0.2738-0.00104,0.41071c0.19122-0.27997,0.44623-0.461,0.76874-0.5401    c0.37372-0.09167,0.74341-0.06403,1.09637,0.08893c0.33734,0.14618,0.52106,0.42615,0.61853,0.76941    c0.06372,0.22418,0.09491,0.4541,0.09656,0.68665c0.00543,0.75916,0.00751,1.51831,0.01062,2.27747    C26.87488,27.54083,26.87476,27.5672,26.86133,27.58044z" style="fill:#303030;"/></g></g></svg>