<?xml version="1.0" ?><svg style="enable-background:new 0 0 48 48;" version="1.1" viewBox="0 0 48 48" xml:space="preserve" xmlns="http://www.w3.org/2000/svg" xmlns:xlink="http://www.w3.org/1999/xlink"><g id="Padding__x26__Artboard"/><g id="Icons"><g><path d="M12.65847,33.66603c2.61059-0.00001,17.33555,0,19.94255,0    c0.22318,0,0.39552-0.18031,0.38894-0.4034c-0.02485-0.84248-0.15854-2.741-0.8712-3.35053    c-0.34131-0.28613-0.75488-0.51758-1.33545-0.74512c-0.01514-0.00391-0.02979-0.00781-0.04297-0.01367    c-0.35645-0.1377-0.72314-0.25293-1.08789-0.36914c-0.35156-0.11133-0.70166-0.22266-1.03955-0.35059    c-0.33496-0.125-0.68164-0.22168-1.02783-0.31836c-0.47461-0.13281-0.96484-0.26953-1.43213-0.47949    c-0.35303-0.15869-0.60144-0.35742-0.75494-0.59625c-0.59167,0.70526-1.5083,1.4566-2.73138,1.4566h-0.04004    c-1.24274,0-2.16742-0.77551-2.75867-1.49146c-0.1369,0.23346-0.36847,0.45508-0.75745,0.6311    c-0.46973,0.20996-0.96191,0.34766-1.43848,0.47949c-0.34717,0.09668-0.69482,0.19336-1.03369,0.31934    c-0.34912,0.13477-0.71631,0.25195-1.08447,0.36914c-0.90674,0.28809-1.7627,0.56055-2.41113,1.10938    c-0.70812,0.6053-0.84589,2.50429-0.87305,3.34839C12.26245,33.48497,12.43487,33.66603,12.65847,33.66603z" style="fill:#303030;"/><path d="M22.62658,27.79688h0.04004c1.28516,0,2.18994-1.11523,2.61475-1.7793    c0.31152-0.48145,0.5625-1.03125,0.80566-1.56348c0.09033-0.19824,0.18066-0.39551,0.27393-0.58984    c0.35352-0.75781,0.64307-1.52441,0.85889-2.27441c0.20654-0.68164,0.31982-1.31445,0.34717-1.93945    c0.03809-1.02734-0.09033-2.50098-0.9165-3.67188c-0.0957-0.13086-0.19434-0.25781-0.31152-0.375    c-0.80273-0.82129-2.19092-1.29199-3.66309-1.26758c-0.05615-0.00098-0.11279-0.00195-0.16846-0.00195    c-1.45117,0-2.77979,0.47852-3.55029,1.26758c-0.12061,0.12012-0.21924,0.24609-0.31787,0.38086    c-0.82324,1.16797-0.95117,2.64062-0.91309,3.6709c0.02686,0.62207,0.13965,1.25488,0.34521,1.93164    c0.21729,0.75488,0.50684,1.52148,0.8623,2.28223c0.09131,0.19141,0.18164,0.38867,0.27197,0.58691    c0.24316,0.53223,0.49414,1.08203,0.80469,1.56152C20.43664,26.68164,21.34191,27.79688,22.62658,27.79688z" style="fill:#303030;"/><path d="M33.36632,15.41895c-0.19336,0-0.3501,0.15625-0.3501,0.34961v1.67285h-1.67187    c-0.19336,0-0.3501,0.15625-0.3501,0.34961s0.15674,0.34961,0.3501,0.34961h1.67187v1.67285    c0,0.19336,0.15674,0.34961,0.3501,0.34961s0.3501-0.15625,0.3501-0.34961v-1.67285h1.67236    c0.19336,0,0.3501-0.15625,0.3501-0.34961s-0.15674-0.34961-0.3501-0.34961h-1.67236v-1.67285    C33.71642,15.5752,33.55968,15.41895,33.36632,15.41895z" style="fill:#303030;"/></g></g></svg>