<?xml version="1.0" ?><svg style="enable-background:new 0 0 48 48;" version="1.1" viewBox="0 0 48 48" xml:space="preserve" xmlns="http://www.w3.org/2000/svg" xmlns:xlink="http://www.w3.org/1999/xlink"><g id="Padding__x26__Artboard"/><g id="Icons"><g><path d="M37.16229,18.903c-0.00589-0.76167-0.69271-1.34562-1.4544-1.34562h-0.6056H18.44032    c-1.55036,0-2.21791,0.61507-2.21791,2.16543v8.58795c0,1.54448,1.26366,2.80814,2.80814,2.80814h14.62301    c0.19824,0,0.39355,0.06543,0.55078,0.18555c0.00049,0,0.00049,0.00098,0.00049,0.00098l2.25732,1.73242l0.7002,0.5542V18.9187    C37.16235,18.91346,37.16233,18.90823,37.16229,18.903z M29.39722,26.2146h-6.10986c-0.19336,0-0.3501-0.15625-0.3501-0.34961    s0.15674-0.34961,0.3501-0.34961h6.10986c0.19336,0,0.3501,0.15625,0.3501,0.34961S29.59058,26.2146,29.39722,26.2146z     M31.03149,23.3728h-9.37842c-0.19336,0-0.3501-0.15625-0.3501-0.34961s0.15674-0.34961,0.3501-0.34961h9.37842    c0.19336,0,0.3501,0.15625,0.3501,0.34961S31.22485,23.3728,31.03149,23.3728z" style="fill:#303030;"/><path d="M30.41772,14.40796H12.88745c-1.13037,0-2.0498,0.92383-2.0498,2.05957v10.85059    c0,1.13086,0.91943,2.0498,2.0498,2.0498h2.63477V28.6687v-9.76074c0-1.13086,0.91943-2.0498,2.0498-2.0498h14.20557h0.7002    v-0.39062C32.47778,15.33179,31.55347,14.40796,30.41772,14.40796z" style="fill:#303030;"/></g></g></svg>