<?xml version="1.0" ?><svg style="enable-background:new 0 0 48 48;" version="1.1" viewBox="0 0 48 48" xml:space="preserve" xmlns="http://www.w3.org/2000/svg" xmlns:xlink="http://www.w3.org/1999/xlink"><g id="Padding__x26__Artboard"/><g id="Icons"><path d="M34.39319,22.8374c-0.19342,0-0.35022,0.15674-0.35022,0.3501v1.22656   c0,0.19336,0.1568,0.3501,0.35022,0.3501s0.35022-0.15674,0.35022-0.3501V23.1875   C34.74341,22.99414,34.58661,22.8374,34.39319,22.8374z" style="fill:none;"/><path d="M15.98242,27.44385c-0.7749,0-1.2373-0.40332-1.2373-1.0791V17.0542V16.354h-2.36377   c-0.47217,0-0.85645,0.38379-0.85645,0.85596v11.54785c0,0.46631,0.37988,0.84619,0.84619,0.84619h1.62659l-0.505,1.43555   c-0.04785,0.13623-0.00732,0.2876,0.10205,0.38135c0.06494,0.05615,0.146,0.08496,0.22803,0.08496   c0.05615,0,0.1123-0.01367,0.16406-0.04102l3.44824-1.83057c0.0376-0.02002,0.07959-0.03027,0.12158-0.03027l11.37849,0.00302   c0.75537,0,1.37012-0.61475,1.37012-1.37012v-0.80239L15.98242,27.44385z" style="fill:#303030;"/><path d="M34.39319,22.8374c-0.19342,0-0.35022,0.15674-0.35022,0.3501v1.22656   c0,0.19336,0.1568,0.3501,0.35022,0.3501s0.35022-0.15674,0.35022-0.3501V23.1875   C34.74341,22.99414,34.58661,22.8374,34.39319,22.8374z" style="fill:none;"/><path d="M34.39319,16.40771c-0.00098,0-0.00177,0.00055-0.00275,0.00055   c0.19202,0.00159,0.34735,0.15717,0.34735,0.34955v4.99854c0,0.19238-0.15533,0.34796-0.34735,0.34955   c0.00098,0,0.00177,0.00055,0.00275,0.00055c0.19342,0,0.35022-0.15674,0.35022-0.3501v-4.99854   C34.74341,16.56445,34.58661,16.40771,34.39319,16.40771z" style="fill:none;"/><path d="M34.73779,21.75635v-4.99854c0-0.19238-0.15533-0.34796-0.34735-0.34955   c-0.19208,0.00159-0.34747,0.15717-0.34747,0.34955v4.99854c0,0.19238,0.1554,0.34796,0.34747,0.34955   C34.58246,22.10431,34.73779,21.94873,34.73779,21.75635z" style="fill:none;"/><path d="M34.04297,21.75635v-4.99854c0-0.19238,0.1554-0.34796,0.34747-0.34955   c-0.00098,0-0.00177-0.00055-0.00275-0.00055c-0.19336,0-0.3501,0.15674-0.3501,0.3501v4.99854   c0,0.19336,0.15674,0.3501,0.3501,0.3501c0.00098,0,0.00177-0.00055,0.00275-0.00055   C34.19836,22.10431,34.04297,21.94873,34.04297,21.75635z" style="fill:#303030;"/><path d="M35.50879,12.77393H16.50256c-0.58392,0-1.05725,0.47333-1.05725,1.05719v12.53363   c0,0.1416,0,0.37891,0.53711,0.37891h2.24274l0.008,0.00012l12.20831,0.00226c0.04199,0,0.08398,0.01025,0.12164,0.03027   c0,0,3.33911,1.75549,3.44055,1.79742c0.16968,0.07013,0.33051,0.04535,0.39545-0.0108   c0.10938-0.09375,0.1499-0.24512,0.10205-0.38135l-0.49963-1.43555h1.62122h0.00592c0.46643,0,0.84644-0.37988,0.84644-0.84619   V14.35199v-0.61176C36.4751,13.20654,36.04248,12.77393,35.50879,12.77393z M34.74341,24.41406   c0,0.19336-0.1568,0.3501-0.35022,0.3501s-0.35022-0.15674-0.35022-0.3501V23.1875c0-0.19336,0.1568-0.3501,0.35022-0.3501   s0.35022,0.15674,0.35022,0.3501V24.41406z M34.74341,21.75635c0,0.19336-0.1568,0.3501-0.35022,0.3501   c-0.00098,0-0.00177-0.00055-0.00275-0.00055s-0.00177,0.00055-0.00275,0.00055c-0.19336,0-0.3501-0.15674-0.3501-0.3501v-4.99854   c0-0.19336,0.15674-0.3501,0.3501-0.3501c0.00098,0,0.00177,0.00055,0.00275,0.00055s0.00177-0.00055,0.00275-0.00055   c0.19342,0,0.35022,0.15674,0.35022,0.3501V21.75635z" style="fill:#303030;"/></g></svg>