<?xml version="1.0" ?><svg style="enable-background:new 0 0 48 48;" version="1.1" viewBox="0 0 48 48" xml:space="preserve" xmlns="http://www.w3.org/2000/svg" xmlns:xlink="http://www.w3.org/1999/xlink"><g id="Padding__x26__Artboard"/><g id="Icons"><g><path d="M23.20239,33.18921c0.17822,0.2666,0.47607,0.42578,0.79639,0.42578h0.00049    c0.3208,0,0.61816-0.15918,0.8335-0.48193l5.26709-7.88721c0.0498-0.07471,0.09717-0.15137,0.14307-0.22852    c0.26758-0.45166,0.48486-0.96924,0.64502-1.53857c0.17676-0.62744,0.2666-1.27979,0.2666-1.93945    c0-3.94482-3.20947-7.1543-7.15479-7.1543c-3.94482,0-7.1543,3.20947-7.1543,7.1543c0,0.14941,0.00439,0.29883,0.01367,0.44727    c0.03662,0.59473,0.14697,1.18018,0.32764,1.74023c0.19189,0.59521,0.44775,1.12988,0.76025,1.58887L23.20239,33.18921z     M20.93726,22.46851c-0.10693-1.68896,1.18018-3.1499,2.86865-3.25635c1.68115-0.1167,3.1499,1.17969,3.25635,2.86865    c0.10693,1.68897-1.18018,3.1499-2.86865,3.25635c-0.06543,0.00439-0.13086,0.00635-0.1958,0.00635    C22.39331,25.34351,21.03979,24.09155,20.93726,22.46851z M24.87378,16.1062c1.52441,0.06299,2.93262,0.8667,3.76709,2.14941    c0.10547,0.16211,0.05957,0.37891-0.10254,0.48438c-0.05908,0.03809-0.125,0.05664-0.19043,0.05664    c-0.11475,0-0.22656-0.05615-0.29395-0.15918c-0.71094-1.09326-1.91113-1.77783-3.20947-1.83203    c-0.19287-0.00781-0.34326-0.1709-0.33496-0.36426C24.51733,16.2478,24.69946,16.08569,24.87378,16.1062z M29.05005,21.3606    c-0.00537,0-0.01025,0-0.01514-0.00049c-0.19287-0.00781-0.34326-0.1709-0.33496-0.36426    c0.01807-0.43066-0.03223-0.85791-0.14941-1.27002c-0.05322-0.18604,0.05469-0.37939,0.24072-0.43213    c0.18506-0.0542,0.37939,0.05469,0.43213,0.24072c0.1377,0.48389,0.19678,0.98536,0.17578,1.49072    C29.39136,21.21313,29.23657,21.3606,29.05005,21.3606z" style="fill:#303030;"/></g></g></svg>