<?xml version="1.0" ?><svg style="enable-background:new 0 0 48 48;" version="1.1" viewBox="0 0 48 48" xml:space="preserve" xmlns="http://www.w3.org/2000/svg" xmlns:xlink="http://www.w3.org/1999/xlink"><g id="Padding__x26__Artboard"/><g id="Icons"><g><path d="M35.06104,26.87476c1.07422,0,1.76855-0.76807,1.76855-1.95703    c0-0.49707,0-1.52734-0.71143-1.92188c0.15771-0.32471,0.15186-0.74561,0.14551-1.18555l-0.00244-0.28174    c0-0.92432-0.41064-1.63818-1.05615-1.93457c0.16162-0.33105,0.15723-0.76025,0.15234-1.20947l-0.00098-0.34863    c0.00537-0.54736-0.19922-1.05859-0.57617-1.43994c-0.14404-0.14502-0.30664-0.26465-0.48291-0.35645    c0.32617-0.46191,0.33936-1.13672,0.34619-1.46875c0.01074-0.53857-0.19434-1.0498-0.57666-1.43945    c-0.38477-0.39258-0.91943-0.61768-1.4668-0.61768c0,0-0.00049,0-0.00098,0h-4.9043c-0.00293,0-0.00537,0-0.00781,0h-6.22363    c-0.05469,0-0.11133-0.00391-0.16895-0.0083c-0.16748-0.01074-0.35938-0.02393-0.55518,0.03125    c-0.1958,0.05566-0.36865,0.16699-0.521,0.26562l-0.10645,0.06738c-0.22705,0.13916-0.44775,0.28857-0.66846,0.4375    l-0.18896,0.12744c-0.11621,0.07812-0.25488,0.11963-0.40088,0.11963h-0.62695v0.7002v9.0589v0.82666l0.68945,0.4328    c0.33057,0.20801,0.53857,0.56689,0.75879,0.94678l0.99219,1.67285c0.67773,1.13867,1.35693,2.27783,2.04004,3.41748    c0.01611,0.02734,0.04102,0.06885,0.0459,0.08691l0.00342,0.12305c-0.00293,0.77979-0.00293,1.55908-0.00293,2.33887    l-0.00049,1.31396c-0.00049,0.47656,0.40088,0.85596,0.79395,1.16455c0.38037,0.29883,0.82666,0.45264,1.28564,0.45264    c0.24414,0,0.4917-0.04346,0.73486-0.13135c0.55908-0.20215,1.25684-0.56006,1.40723-1.1167    c0.18457-0.68262,0.36914-1.36523,0.54102-2.05176l0.07275-0.28369c0.11084-0.4292,0.22559-0.87256,0.27246-1.32666    c0.06787-0.65869-0.6001-3.32422-0.99609-4.51758L35.06104,26.87476z" style="fill:#303030;"/><path d="M12.85547,11.71021c-0.93063,0-1.68506,0.75443-1.68506,1.68506v10.27441    c0,0.93036,0.75421,1.68457,1.68457,1.68457h4.10097c0.31503,0,0.57042-0.25538,0.57042-0.57042v-1.11415V12.28062    c0-0.31503-0.25538-0.57042-0.57042-0.57042H12.85547z M13.20508,23.24927v-0.80322c0-0.19336,0.15674-0.3501,0.3501-0.3501    s0.3501,0.15674,0.3501,0.3501v0.80322c0,0.19336-0.15674,0.3501-0.3501,0.3501S13.20508,23.44263,13.20508,23.24927z     M13.90527,21.2981c0,0.19336-0.15674,0.3501-0.3501,0.3501s-0.3501-0.15674-0.3501-0.3501v-5.04395    c0-0.19336,0.15674-0.3501,0.3501-0.3501s0.3501,0.15674,0.3501,0.3501V21.2981z" style="fill:#303030;"/></g></g></svg>