<?xml version="1.0" ?><svg style="enable-background:new 0 0 48 48;" version="1.1" viewBox="0 0 48 48" xml:space="preserve" xmlns="http://www.w3.org/2000/svg" xmlns:xlink="http://www.w3.org/1999/xlink"><g id="Padding__x26__Artboard"/><g id="Icons"><g><path d="M11.65503,30.36401h-0.7002v1.84082c0,1.43945,1.1709,2.61035,2.61035,2.61035h20.87988    c1.43359,0,2.6001-1.1709,2.6001-2.61035v-1.84082h-0.7002H11.65503z M22.90698,31.96704h1.09326    c0.19336,0,0.3501,0.15674,0.3501,0.3501s-0.15674,0.3501-0.3501,0.3501h-1.09326c-0.19336,0-0.3501-0.15674-0.3501-0.3501    S22.71362,31.96704,22.90698,31.96704z M14.96558,31.96704h6.49463c0.19336,0,0.3501,0.15674,0.3501,0.3501    s-0.15674,0.3501-0.3501,0.3501h-6.49463c-0.19336,0-0.3501-0.15674-0.3501-0.3501S14.77222,31.96704,14.96558,31.96704z" style="fill:#303030;"/><path d="M11.65503,18.76489h-0.7002v10.89893h0.7002h24.68994h0.7002V18.76489h-0.7002H11.65503z     M21.46002,28.52698h-1.05469v-6.7207c-0.25391,0.24219-0.58691,0.48438-0.99902,0.72656s-0.78223,0.42383-1.11035,0.54492    v-1.01953c0.58984-0.27734,1.10547-0.61328,1.54688-1.00781s0.75391-0.77734,0.9375-1.14844h0.67969V28.52698z M29.70416,28.52698    h-5.67773c-0.00781-0.25391,0.0332-0.49805,0.12305-0.73242c0.14453-0.38672,0.37598-0.76758,0.69434-1.14258    s0.77832-0.80859,1.37988-1.30078c0.93359-0.76562,1.56445-1.37207,1.89258-1.81934s0.49219-0.87012,0.49219-1.26855    c0-0.41797-0.14941-0.77051-0.44824-1.05762s-0.68848-0.43066-1.16895-0.43066c-0.50781,0-0.91406,0.15234-1.21875,0.45703    s-0.45898,0.72656-0.46289,1.26562l-1.08398-0.11133c0.07422-0.80859,0.35352-1.4248,0.83789-1.84863    s1.13477-0.63574,1.95117-0.63574c0.82422,0,1.47656,0.22852,1.95703,0.68555s0.7207,1.02344,0.7207,1.69922    c0,0.34375-0.07031,0.68164-0.21094,1.01367s-0.37402,0.68164-0.7002,1.04883s-0.86816,0.87109-1.62598,1.51172    c-0.63281,0.53125-1.03906,0.8916-1.21875,1.08105s-0.32812,0.37988-0.44531,0.57129h4.21289V28.52698z" style="fill:#303030;"/><path d="M34.44507,13.18481H13.56519c-1.43945,0-2.61035,1.1709-2.61035,2.60986v2.27002h0.7002h24.68994    h0.7002v-2.27002C37.04517,14.35571,35.87866,13.18481,34.44507,13.18481z M16.19995,16.87036    c-0.53662,0-0.97363-0.43701-0.97363-0.97363c0-0.53711,0.43701-0.97412,0.97363-0.97412    c0.53711,0,0.97412,0.43701,0.97412,0.97412C17.17407,16.43335,16.73706,16.87036,16.19995,16.87036z M32.03589,16.87036    c-0.53711,0-0.97412-0.43701-0.97412-0.97363c0-0.53711,0.43701-0.97412,0.97412-0.97412    c0.53662,0,0.97363,0.43701,0.97363,0.97412C33.00952,16.43335,32.57251,16.87036,32.03589,16.87036z" style="fill:#303030;"/></g></g></svg>