<?xml version="1.0" ?><svg style="enable-background:new 0 0 48 48;" version="1.1" viewBox="0 0 48 48" xml:space="preserve" xmlns="http://www.w3.org/2000/svg" xmlns:xlink="http://www.w3.org/1999/xlink"><g id="Padding__x26__Artboard"/><g id="Icons"><g><path d="M37.51886,18.73993h-2.98389v-2.98389c0-0.19336-0.15674-0.3501-0.3501-0.3501    s-0.3501,0.15674-0.3501,0.3501v2.98389h-2.9834c-0.19336,0-0.3501,0.15674-0.3501,0.3501s0.15674,0.3501,0.3501,0.3501h2.9834    v2.9834c0,0.19336,0.15674,0.3501,0.3501,0.3501s0.3501-0.15674,0.3501-0.3501v-2.9834h2.98389    c0.19336,0,0.3501-0.15674,0.3501-0.3501S37.71222,18.73993,37.51886,18.73993z" style="fill:#303030;"/><g><path d="M31.04036,32.51096c-0.72021-0.69824-1.65625-1.1748-2.56152-1.63574l-0.70068-0.36328     c-0.24707-0.13135-0.49854-0.26025-0.75-0.38867c-0.24854-0.12744-0.49707-0.25488-0.74316-0.38574     c-0.12305-0.06396-0.25049-0.12646-0.38037-0.18994c-0.62354-0.30518-1.26807-0.62061-1.49512-1.20459     c-0.24011-0.59454-0.27655-1.24518-0.31152-1.93359h1.44824c0.13623,0,0.25977-0.0791,0.31738-0.20215     c0.05713-0.12354,0.03809-0.26904-0.04932-0.37305l-0.0752-0.08936c1.72461-0.37061,1.72461-0.52344,1.72461-0.78174     c0-0.10107,0-0.26709-0.67188-1.14697c0.07227-0.27783,0.15527-0.55029,0.23779-0.82129     c0.22461-0.73779,0.45703-1.50049,0.45898-2.34424c0.00195-1.12646-0.25391-2.3335-0.7832-3.69043     c-0.62207-1.59717-1.46826-2.75635-2.51514-3.44531c-1.22607-0.80957-2.79736-0.85938-4.32178-0.14258     c-0.6084,0.0127-1.21582,0.1665-1.76221,0.44775c-3.02832,1.56006-3.83154,5.8833-2.83887,8.99365     c0.01221,0.03809,0.04346,0.1167,0.08447,0.21777c0.05811,0.14258,0.22119,0.54346,0.2583,0.72656     c-0.19141,0.2417-0.71289,0.92432-0.71289,1.20508c0,0.2583,0,0.41162,1.73145,0.7832l-0.07471,0.09082     c-0.08594,0.10449-0.104,0.24951-0.0459,0.37158c0.05762,0.12256,0.18115,0.20068,0.31641,0.20068h1.43848     c-0.03497,0.68842-0.07141,1.33911-0.31299,1.9375c-0.2207,0.56836-0.86963,0.88184-1.49707,1.18506     c-0.14258,0.06885-0.28223,0.13623-0.41504,0.20557l-0.67383,0.34717c-0.33252,0.17041-0.66406,0.34033-0.99268,0.51416     c-0.18652,0.09912-0.37939,0.19775-0.57568,0.29785c-0.8916,0.45557-1.81396,0.92676-2.52295,1.61426     c-0.00732,0.00732-0.11084,0.13086-0.11768,0.13867c-0.6958,0.80762-0.95117,1.72363-1.01221,1.98145     c-0.02979,0.12061-0.00293,0.24561,0.07373,0.34326c0.06592,0.08447,0.21631,0.15674,0.32373,0.15674h21.22949     c0.12891,0,0.24902-0.05762,0.32861-0.1582c0.06738-0.08447,0.104-0.24951,0.07861-0.35449     c-0.06299-0.26025-0.32226-1.17139-0.99414-1.94971C31.14485,32.6179,31.09505,32.56565,31.04036,32.51096z" style="fill:#303030;"/></g></g></g></svg>