<?xml version="1.0" ?><svg style="enable-background:new 0 0 48 48;" version="1.1" viewBox="0 0 48 48" xml:space="preserve" xmlns="http://www.w3.org/2000/svg" xmlns:xlink="http://www.w3.org/1999/xlink"><g id="Padding__x26__Artboard"/><g id="Icons"><g><path d="M30.6733,31.43847c-0.70801-0.68311-1.62891-1.15088-2.52002-1.60303    c-0.19434-0.09912-0.38574-0.19629-0.57129-0.29395c-0.38672-0.2041-0.77539-0.4043-1.16455-0.60449l-0.5249-0.271    c-0.71631-0.37061-1.23389-0.63867-1.51123-1.3418c-0.26221-0.66504-0.28076-0.74707-0.3208-1.40234l0.2998-0.37109    c0.25195-0.37109,0.43115-1.37012,0.50732-1.8623c0.33447-0.1416,0.59375-0.48682,0.7124-0.86035    c0.13721-0.43066,0.2666-0.8374,0.32812-1.36279c0.04443-0.37061,0.10596-0.87793-0.26758-1.24951    c-0.07715-0.07715-0.2124-0.12939-0.3501-0.15771c0.01611-0.30078,0.03418-0.7876,0.05518-1.58887l0.36328-0.27002    c0.10156-0.07568,0.15479-0.20068,0.13818-0.32666l-0.15332-1.15527c-0.02246-0.10986-0.58594-2.69824-3.33105-3.33789    c-2.35498-0.55078-3.90234,0.4751-4.30811,0.79004c-0.56543,0.03809-1.43555,0.34717-1.79883,1.80078    c-0.10889,0.43555-0.14062,0.9126-0.09961,1.50195c0.01074,0.15723,0.03418,0.31396,0.05811,0.47021    c0.02344,0.15381,0.04736,0.30762,0.0542,0.4624c0.01074,0.23389,0.01709,0.46777,0.02344,0.70166l0.01758,0.5708    c0.00488,0.12207,0.00928,0.24414,0.01562,0.38086c-0.13721,0.02832-0.27197,0.08008-0.34863,0.15723    c-0.37354,0.37109-0.31348,0.87793-0.26221,1.30664c0.05518,0.46875,0.18457,0.87549,0.34082,1.36523    c0.104,0.32764,0.35986,0.6626,0.69336,0.80176c0.07666,0.49316,0.25879,1.49512,0.5249,1.88623l0.28223,0.34668    c-0.04053,0.65674-0.05908,0.73877-0.3208,1.40234c-0.27734,0.70312-0.79492,0.9707-1.54248,1.35791l-0.50293,0.25928    c-0.38574,0.19873-0.77148,0.39746-1.15625,0.6001c-0.18506,0.09814-0.37695,0.19531-0.57178,0.29443    c-0.89062,0.45215-1.81104,0.91943-2.51758,1.60205c-0.04443,0.04199-0.0874,0.08594-0.12891,0.13428    c-0.44434,0.52002-0.78174,1.41943-1.00439,2.67432c-0.02295,0.13281,0.01318,0.26709,0.09961,0.36963    c0.0874,0.104,0.2168,0.16406,0.35498,0.16406h21.06738c0.14307,0,0.27686-0.06201,0.36768-0.17041    c0.08936-0.10596,0.12646-0.24561,0.10205-0.3833c-0.22119-1.2417-0.55811-2.13477-1.00049-2.65381    C30.76119,31.52539,30.71724,31.48095,30.6733,31.43847z" style="fill:#303030;"/><path d="M33.30172,14.01953c-2.69873,0-4.89404,2.1958-4.89404,4.89453s2.19531,4.89404,4.89404,4.89404    s4.89453-2.19531,4.89453-4.89404S36.00045,14.01953,33.30172,14.01953z M35.95504,19.26416h-2.30322v2.30273    c0,0.19336-0.15674,0.3501-0.3501,0.3501s-0.3501-0.15674-0.3501-0.3501v-2.30273H30.6484    c-0.19336,0-0.3501-0.15674-0.3501-0.3501s0.15674-0.3501,0.3501-0.3501h2.30322v-2.30322c0-0.19336,0.15674-0.3501,0.3501-0.3501    s0.3501,0.15674,0.3501,0.3501v2.30322h2.30322c0.19336,0,0.3501,0.15674,0.3501,0.3501S36.1484,19.26416,35.95504,19.26416z" style="fill:#303030;"/></g></g></svg>