<?xml version="1.0" ?><svg style="enable-background:new 0 0 48 48;" version="1.1" viewBox="0 0 48 48" xml:space="preserve" xmlns="http://www.w3.org/2000/svg" xmlns:xlink="http://www.w3.org/1999/xlink"><g id="Padding__x26__Artboard"/><g id="Icons"><g><path d="M27.66333,15.36279h-1.36572c-0.19336,0-0.3501,0.15674-0.3501,0.3501s0.15674,0.3501,0.3501,0.3501    h1.36572c0.19336,0,0.3501-0.15674,0.3501-0.3501S27.85669,15.36279,27.66333,15.36279z" style="fill:none;"/><path d="M24.97925,15.36279h-4.64209c-0.19336,0-0.3501,0.15674-0.3501,0.3501s0.15674,0.3501,0.3501,0.3501    h4.64209c0.19336,0,0.3501-0.15674,0.3501-0.3501S25.17261,15.36279,24.97925,15.36279z" style="fill:none;"/><path d="M32.19849,15.88721c0.27148,0,0.49219-0.22119,0.49219-0.49268v-2.3833    c0-0.27148-0.2207-0.49219-0.49219-0.49219s-0.49219,0.2207-0.49219,0.49219v2.3833    C31.7063,15.66602,31.927,15.88721,32.19849,15.88721z" style="fill:#303030;"/><path d="M15.80249,15.88721c0.27148,0,0.49219-0.22119,0.49219-0.49268v-2.3833    c0-0.27148-0.2207-0.49219-0.49219-0.49219s-0.49268,0.2207-0.49268,0.49219v2.3833    C15.30981,15.66602,15.53101,15.88721,15.80249,15.88721z" style="fill:#303030;"/><path d="M11.65503,19.43115h-0.7002v13.43994c0,1.43896,1.1709,2.60986,2.61035,2.60986h20.87988    c1.43359,0,2.6001-1.1709,2.6001-2.60986V19.43115h-0.7002H11.65503z M17.27368,25.65283V23.1084    c0-0.19336,0.15674-0.3501,0.3501-0.3501h4.53857c0.19336,0,0.3501,0.15674,0.3501,0.3501v2.54443    c0,0.19336-0.15674,0.3501-0.3501,0.3501h-4.53857C17.43042,26.00293,17.27368,25.84619,17.27368,25.65283z M22.63208,30.72314    c0,0.19336-0.15674,0.3501-0.3501,0.3501h-4.53906c-0.19336,0-0.3501-0.15674-0.3501-0.3501v-2.54443    c0-0.19336,0.15674-0.3501,0.3501-0.3501h4.53906c0.19336,0,0.3501,0.15674,0.3501,0.3501V30.72314z M30.72681,30.72314    c0,0.19336-0.15674,0.3501-0.3501,0.3501h-4.53906c-0.19336,0-0.3501-0.15674-0.3501-0.3501v-2.54443    c0-0.19336,0.15674-0.3501,0.3501-0.3501h4.53906c0.19336,0,0.3501,0.15674,0.3501,0.3501V30.72314z M30.72681,25.65283    c0,0.19336-0.15674,0.3501-0.3501,0.3501h-4.53906c-0.19336,0-0.3501-0.15674-0.3501-0.3501V23.1084    c0-0.19336,0.15674-0.3501,0.3501-0.3501h4.53906c0.19336,0,0.3501,0.15674,0.3501,0.3501V25.65283z" style="fill:#303030;"/><rect height="1.84424" style="fill:#303030;" width="3.83887" x="26.18774" y="23.4585"/><rect height="1.84424" style="fill:#303030;" width="3.83887" x="18.09302" y="28.52881"/><rect height="1.84424" style="fill:#303030;" width="3.83887" x="26.18774" y="28.52881"/><rect height="1.84424" style="fill:#303030;" width="3.83838" x="17.97388" y="23.4585"/><path d="M34.44507,13.85107h-1.0542v0.7002v0.84326c0,0.65771-0.53516,1.19287-1.19238,1.19287    s-1.19238-0.53516-1.19238-1.19287v-0.84326v-0.7002H16.99487v0.7002v0.84326c0,0.65771-0.53516,1.19287-1.19238,1.19287    c-0.65771,0-1.19287-0.53516-1.19287-1.19287v-0.84326v-0.7002h-1.04443c-1.43945,0-2.61035,1.1709-2.61035,2.60986v2.27002    h0.7002h24.68994h0.7002v-2.27002C37.04517,15.02197,35.87866,13.85107,34.44507,13.85107z M24.97925,16.06299h-4.64209    c-0.19336,0-0.3501-0.15674-0.3501-0.3501s0.15674-0.3501,0.3501-0.3501h4.64209c0.19336,0,0.3501,0.15674,0.3501,0.3501    S25.17261,16.06299,24.97925,16.06299z M27.66333,16.06299h-1.36572c-0.19336,0-0.3501-0.15674-0.3501-0.3501    s0.15674-0.3501,0.3501-0.3501h1.36572c0.19336,0,0.3501,0.15674,0.3501,0.3501S27.85669,16.06299,27.66333,16.06299z" style="fill:#303030;"/></g></g></svg>