<?xml version="1.0" ?><svg style="enable-background:new 0 0 48 48;" version="1.1" viewBox="0 0 48 48" xml:space="preserve" xmlns="http://www.w3.org/2000/svg" xmlns:xlink="http://www.w3.org/1999/xlink"><g id="Padding__x26__Artboard"/><g id="Icons"><g><path d="M24.00024,11.96826c-3.94531,0-7.15479,3.20947-7.15479,7.1543    c0,0.14941,0.00488,0.29785,0.01416,0.44727c0.03662,0.59473,0.14697,1.18018,0.32764,1.73926    c0.19092,0.59424,0.44629,1.12891,0.76025,1.58936l5.25537,7.87402c0.17822,0.2666,0.47607,0.42578,0.79639,0.42578    c0.3208,0,0.61816-0.15918,0.83398-0.48242l5.26855-7.88916c0.04883-0.07471,0.09619-0.14941,0.1416-0.22656    c0.26758-0.45166,0.48486-0.96924,0.64502-1.53857c0.17627-0.62646,0.26611-1.27881,0.26611-1.93896    C31.15454,15.17773,27.94507,11.96826,24.00024,11.96826z M20.93774,20.05127c-0.10693-1.68848,1.18018-3.14941,2.86865-3.25586    c1.69385-0.11035,3.14893,1.18018,3.25635,2.86865c0.10693,1.68848-1.18018,3.14941-2.86914,3.25635    c-0.06543,0.00439-0.13086,0.00635-0.19531,0.00635C22.3938,22.92676,21.04028,21.6748,20.93774,20.05127z M24.87427,13.68896    c1.52393,0.06348,2.93213,0.86768,3.7666,2.1499c0.10547,0.16211,0.05957,0.37891-0.10254,0.48438    c-0.05908,0.03809-0.125,0.05664-0.19043,0.05664c-0.11475,0-0.22656-0.05615-0.29395-0.15918    c-0.71094-1.09326-1.91064-1.77832-3.20898-1.83252c-0.19336-0.00781-0.34326-0.1709-0.33496-0.36426    C24.51782,13.83105,24.67017,13.6709,24.87427,13.68896z M29.05054,18.94385c-0.00537,0-0.01025,0-0.01514-0.00049    c-0.19287-0.00781-0.34326-0.1709-0.33496-0.36426c0.01807-0.43115-0.03271-0.8584-0.1499-1.26953    c-0.05322-0.18604,0.0542-0.37939,0.24023-0.43262c0.18457-0.05371,0.37939,0.0542,0.43262,0.24023    c0.13818,0.4834,0.19775,0.98535,0.17627,1.49121C29.39185,18.79639,29.23706,18.94385,29.05054,18.94385z" style="fill:#303030;"/><path d="M24.00024,33.4458c-1.58154,0-3.28369,0.40479-3.28369,1.29297s1.70215,1.29297,3.28369,1.29297    s3.28369-0.40479,3.28369-1.29297S25.58179,33.4458,24.00024,33.4458z" style="fill:#303030;"/></g></g></svg>