<?xml version="1.0" ?><svg style="enable-background:new 0 0 48 48;" version="1.1" viewBox="0 0 48 48" xml:space="preserve" xmlns="http://www.w3.org/2000/svg" xmlns:xlink="http://www.w3.org/1999/xlink"><g id="Padding__x26__Artboard"/><g id="Icons"><path d="M35.51251,11.49756h-7.1709c-0.88281,0-1.60059,0.71777-1.60059,1.60059v9.8584   c0,0.88281,0.71777,1.60059,1.60059,1.60059h3.44867c0.00195-0.00031,0.00348-0.00165,0.00543-0.00195   c0.00854-0.00092,0.01642,0.00232,0.0249,0.00195h3.69189c0.88281,0,1.60059-0.71777,1.60059-1.60059v-9.8584   C37.1131,12.21533,36.39532,11.49756,35.51251,11.49756z M32.70117,21.45251h-0.83765v-5.33789   c-0.20166,0.19238-0.46631,0.3847-0.79333,0.57709c-0.32764,0.19232-0.6214,0.33661-0.88202,0.4328v-0.80975   c0.46844-0.22028,0.87799-0.48712,1.22858-0.80048s0.59882-0.61737,0.74463-0.91211h0.53979V21.45251z" style="fill:#303030;"/><path d="M29.9657,30.05957c-0.08496-0.11133-0.24609-0.31543-1.18262-0.06445l-1.24805,0.0332   l-1.18848,0.11621c-0.05078,0.00488-0.09961,0.02148-0.14355,0.04688l-1.09082,0.64355   c-0.1582,0.09375-0.21777,0.29395-0.13574,0.45801l0.16016,0.31934c-0.2627,0.29883-0.75879,0.87109-0.8916,1.05566   c-0.08594,0.12012-0.35742,0.36426-0.51953,0.51074c-0.12305,0.11035-0.2168,0.2002-0.24414,0.2334   c-0.06738,0.08496-0.09863,0.27344-0.07324,0.37891c0.08887,0.36133,0.54102,0.75488,1.20996,1.05176   c0.03613,0.01562,0.0752,0.02539,0.11523,0.02832c0.00879,0.00098,0.03418,0.00293,0.0752,0.00293   c0.46387,0,2.89062-0.20898,5.18066-4.34375C30.0575,30.4082,30.05164,30.16992,29.9657,30.05957z" style="fill:#303030;"/><path d="M24.7323,31.36914l-0.21289-0.28125c-0.06543-0.06934-0.13574-0.17969-0.14355-0.20605   c0.03027-0.3877-0.3252-0.58691-0.53613-0.70605l-0.0957-0.05566c-0.09375-0.05957-0.18359-0.22266-0.23633-0.31934   c-0.12598-0.22949-0.33984-0.4043-0.65332-0.53418c-0.23438-0.09766-0.42285-0.09082-0.59766-0.08203   c-0.04785,0.00195-0.11328,0-0.13281,0.00391c-0.0625-0.00293-0.16016,0.0127-0.20996,0.03418   c-0.27832,0.12012-0.26953,0.44141-0.2627,0.67578c0.00098,0.03906,0.00293,0.07422,0.00586,0.07422   c-0.01172,0.03906-0.03906,0.08691-0.06445,0.1377c-0.0918,0.17871-0.19531,0.38184-0.10254,0.58887   c0.11914,0.26953,0.62402,0.61328,0.80273,0.69434c0.14746,0.06738,0.45801,0.22754,0.69043,0.40137l0.14844,0.11133   c0.10254,0.07617,0.17285,0.11816,0.1748,0.11621c0.07324,0.14062,0.19336,0.21094,0.3623,0.21094   c0.15039,0,0.33789-0.05566,0.56348-0.16895c0.1748-0.08789,0.34961-0.16016,0.35352-0.16211   c0.09961-0.04102,0.1748-0.12695,0.2041-0.23047C24.81824,31.56738,24.79675,31.45605,24.7323,31.36914z" style="fill:#303030;"/><path d="M23.33191,29.02148l0.41309,0.61035c0.05859,0.08594,0.15137,0.1416,0.25391,0.15137   c0.16309,0.01758,0.98535,0.10156,1.17578,0.10156c0.11523,0,0.35449,0,1.00391-0.84668   c0.08398-0.10938,0.0957-0.25684,0.03125-0.37793c-0.33496-0.625-0.5752-0.65234-0.66602-0.66211   c-0.04688-0.00586-0.19238-0.02148-1.80762,0.21582c-0.0791,0.01172-0.15234,0.05078-0.20605,0.10938   c-0.11523,0.125-0.38574,0.41699-0.19922,0.69629C23.33093,29.02051,23.33191,29.02051,23.33191,29.02148z" style="fill:#303030;"/><path d="M27.19031,28.55371c0.01562,0,0.03125-0.00098,0.04688-0.00293l0.69629-0.09277   c0.07129-0.00879,0.18066-0.02246,0.29395-0.07617c0.11914-0.05664,0.20508-0.13965,0.27148-0.21191   c0.35352-0.375,0.61426-0.82422,0.84082-1.21387c0.1543-0.25488,0.03223-0.44727-0.00879-0.5   c-0.07324-0.09668-0.19434-0.14355-0.31152-0.13477c-0.25781,0.02637-0.5166,0.04883-0.77637,0.06934l-0.4834,0.0293   c-0.10254-0.00098-0.23047-0.00195-0.36621,0.04102c-0.05762,0.01172-0.12793,0.04395-0.17188,0.08203   c-0.00684,0.00586-0.01367,0.01172-0.01953,0.01855c-0.04004,0.03906-0.0791,0.1123-0.0957,0.16504   c-0.03906,0.08691-0.04883,0.17285-0.05566,0.23633l-0.01367,0.09082l-0.19141,1.08984   c-0.01953,0.11035,0.01465,0.22266,0.09277,0.30273C27.00476,28.51562,27.09558,28.55371,27.19031,28.55371z" style="fill:#303030;"/><path d="M23.33191,29.02148l0.41309,0.61035c0.05859,0.08594,0.15137,0.1416,0.25391,0.15137   c0.16309,0.01758,0.98535,0.10156,1.17578,0.10156c0.11523,0,0.35449,0,1.00391-0.84668   c0.08398-0.10938,0.0957-0.25684,0.03125-0.37793c-0.33496-0.625-0.5752-0.65234-0.66602-0.66211   c-0.04688-0.00586-0.19238-0.02148-1.80762,0.21582c-0.0791,0.01172-0.15234,0.05078-0.20605,0.10938   c-0.11523,0.125-0.38574,0.41699-0.19922,0.69629C23.33093,29.02051,23.33191,29.02051,23.33191,29.02148z" style="fill:none;"/><path d="M27.19031,28.55371c0.01562,0,0.03125-0.00098,0.04688-0.00293l0.69629-0.09277   c0.07129-0.00879,0.18066-0.02246,0.29395-0.07617c0.11914-0.05664,0.20508-0.13965,0.27148-0.21191   c0.35352-0.375,0.61426-0.82422,0.84082-1.21387c0.1543-0.25488,0.03223-0.44727-0.00879-0.5   c-0.07324-0.09668-0.19434-0.14355-0.31152-0.13477c-0.25781,0.02637-0.5166,0.04883-0.77637,0.06934l-0.4834,0.0293   c-0.10254-0.00098-0.23047-0.00195-0.36621,0.04102c-0.05762,0.01172-0.12793,0.04395-0.17188,0.08203   c-0.00684,0.00586-0.01367,0.01172-0.01953,0.01855c-0.04004,0.03906-0.0791,0.1123-0.0957,0.16504   c-0.03906,0.08691-0.04883,0.17285-0.05566,0.23633l-0.01367,0.09082l-0.19141,1.08984   c-0.01953,0.11035,0.01465,0.22266,0.09277,0.30273C27.00476,28.51562,27.09558,28.55371,27.19031,28.55371z" style="fill:none;"/><path d="M27.03699,27.05371l0.01367-0.09082c0.00684-0.06348,0.0166-0.14941,0.05566-0.23633   c0.0166-0.05273,0.05566-0.12598,0.0957-0.16504c0.00586-0.00684,0.0127-0.0127,0.01953-0.01855   c0.04395-0.03809,0.11426-0.07031,0.17188-0.08203c0.13574-0.04297,0.26367-0.04199,0.36621-0.04102l0.4834-0.0293   c0.25977-0.02051,0.51855-0.04297,0.77637-0.06934c0.11719-0.00879,0.23828,0.03809,0.31152,0.13477   c0.04102,0.05273,0.16309,0.24512,0.00879,0.5c-0.22656,0.38965-0.4873,0.83887-0.84082,1.21387   c-0.06641,0.07227-0.15234,0.15527-0.27148,0.21191c-0.11328,0.05371-0.22266,0.06738-0.29395,0.07617l-0.69629,0.09277   c-0.01562,0.00195-0.03125,0.00293-0.04688,0.00293c-0.09473,0-0.18555-0.03809-0.25195-0.10742   c-0.07812-0.08008-0.1123-0.19238-0.09277-0.30273L27.03699,27.05371z M23.53015,28.32324   c0.05371-0.05859,0.12695-0.09766,0.20605-0.10938c1.61523-0.2373,1.76074-0.22168,1.80762-0.21582   c0.09082,0.00977,0.33105,0.03711,0.66602,0.66211c0.06445,0.12109,0.05273,0.26855-0.03125,0.37793   c-0.64941,0.84668-0.88867,0.84668-1.00391,0.84668c-0.19043,0-1.0127-0.08398-1.17578-0.10156   c-0.10254-0.00977-0.19531-0.06543-0.25391-0.15137l-0.41309-0.61035c0-0.00098-0.00098-0.00098-0.00098-0.00195   C23.14441,28.74023,23.41492,28.44824,23.53015,28.32324z" style="fill:none;"/><path d="M26.12134,23.52509c-0.05878-0.35406-0.07947-1.82617-0.07947-1.82617l-0.13867,0.07941   c-0.05762,0.03418-0.12793,0.07422-0.2002,0.11523c-0.00684-0.30859-0.10547-0.52344-0.22363-0.74902   c-0.19922-0.38184-0.50391-0.60938-0.79883-0.8291l-0.18945-0.14453c-0.03027-0.02344-0.12012-0.07715-0.15625-0.08984   c-0.10352-0.03516-0.19531-0.02637-0.24805-0.02148l-0.36328,0.03613c-0.15332,0.02148-0.28223-0.02832-0.46289-0.08789   c-0.00098,0-0.08496-0.02832-0.08594-0.02832c-0.10742-0.03516-0.22754-0.01367-0.31836,0.05371   c-0.0918,0.06934-0.14355,0.17871-0.13867,0.29297l0.05664,1.4502c-0.01465,0.04688-0.03027,0.09473-0.0459,0.14062   c-0.10938-0.08203-0.2168-0.16797-0.32324-0.25391c-0.12207-0.09766-0.24316-0.19434-0.36426-0.28418l-0.55664-0.41016   c0.19824-0.28418,0.38574-0.53125,0.65039-0.73633c0.50586-0.39258,1.07324-0.56055,1.65918-0.71094   c0.13672-0.03516,0.23926-0.14941,0.25977-0.28906c0.01953-0.13965-0.0459-0.27832-0.16797-0.35059l-1.02441-0.61035h1.35645   c0.19336,0,0.34961-0.15625,0.34961-0.34961c0-0.15918-0.05078-0.20508-0.2959-0.42578   c-0.1543-0.13867-0.77643-0.64282-1.46686-0.81415c-6.13373-1.27802-9.65228,4.11493-9.68353,4.16376   c-0.03516,0.05566-0.05371,0.12012-0.05371,0.18652c0,0.35352,0,0.36426,1.98047,0.51367   c0.00391,0.01172,0.00879,0.02246,0.01367,0.0332c0.0625,0.15332,0.14062,0.34277,0.31641,0.47461   c0.02148,0.01465,0.1123,0.0625,0.13672,0.07324l0.10645,0.04688c0.20312,0.09082,0.45801,0.2041,0.79004,0.10059   c0.00586-0.00098,0.08105-0.02637,0.08594-0.02832s0.01074-0.00391,0.01758-0.00586   c0.00977,0.2334-0.03125,0.63574-0.19238,0.86914c-0.37402,0.52441-0.42285,1.21094-0.4248,1.27637   c0.04688,1.25098,0.16992,1.32324,0.29199,1.39453c0.07031,0.05371,0.32031,0.31543,0.34961,0.35156   c0.01953,0.06543,0.04688,0.24121,0.0791,0.43848c0.14062,0.83789,0.16992,1.0127,0.35938,1.07715   c0.12012,0.07227,0.85547,0.61914,0.85938,0.61914l0.31348,0.29688c0.41699,1.32324,0.60449,1.41211,0.71777,1.46484   c0.04883,0.02344,0.16797,0.08691,0.3125,0.16406c0.67969,0.36035,0.91992,0.48828,1.07324,0.48828   c0.06445,0,0.11426-0.02246,0.1748-0.05957c0.00879-0.00488,0.84082-0.68652,0.68262-1.16309   c-0.0127-0.04004-0.03906-0.10645-0.07422-0.19238c-0.11426-0.27734-0.38281-0.9248-0.28223-1.30176   c0.05078-0.18652,0.55469-0.26074,0.90918-0.22266c0.03613,0.00391,0.07715,0.00098,0.11426-0.00781   c0.00098-0.00098,0.49414-0.11914,0.55859-0.13184c0.04688,0,0.08105,0,0.92188-0.19824   c0.05566-0.01367,0.1084-0.04102,0.15234-0.0791l0.85352-0.7666l0.76074-0.89941c0.0957-0.1123,0.10938-0.27344,0.03516-0.40234   l-0.14648-0.25l0.83398-0.85449C25.74792,24.15137,25.92163,23.86017,26.12134,23.52509z" style="fill:#303030;"/><path d="M26.04187,21.69891c0,0,0.02069,1.47211,0.07947,1.82617L26.04187,21.69891z" style="fill:#303030;"/><path d="M31.53204,25.25684c0.02753,0.27612,0.04596,0.56903,0.04596,0.90527   c0,5.70215-4.63867,10.34082-10.34082,10.34082c-5.70703,0-10.35059-4.63867-10.35059-10.34082s4.64355-10.34082,10.35059-10.34082   c1.70746,0,3.32129,0.409,4.80469,1.19824V16.2464c-1.49542-0.73346-3.10455-1.12433-4.80469-1.12433   c-6.09277,0-11.0498,4.95215-11.0498,11.04004s4.95703,11.04004,11.0498,11.04004c6.08789,0,11.04004-4.95215,11.04004-11.04004   c0-0.33154-0.01703-0.62531-0.04193-0.90527H31.53204z" style="fill:#303030;"/></g></svg>