<?xml version="1.0" ?><svg style="enable-background:new 0 0 48 48;" version="1.1" viewBox="0 0 48 48" xml:space="preserve" xmlns="http://www.w3.org/2000/svg" xmlns:xlink="http://www.w3.org/1999/xlink"><g id="Padding__x26__Artboard"/><g id="Icons"><g><circle cx="16.39832" cy="33.30819" r="0.68555" style="fill:#303030;"/><path d="M10.13709,22.90731c-0.09863,0-0.19287,0.04199-0.25928,0.11523s-0.09863,0.1709-0.08887,0.26904    l1.29834,13.17871c0.01758,0.1792,0.16797,0.31592,0.34814,0.31592h7.47412v-0.7002V23.60751v-0.7002H10.13709z     M16.39832,31.92245c0.76416,0,1.38574,0.62158,1.38574,1.38574s-0.62158,1.38574-1.38574,1.38574    s-1.38574-0.62158-1.38574-1.38574S15.63416,31.92245,16.39832,31.92245z M15.52039,24.78573    c0-0.19336,0.15674-0.3501,0.3501-0.3501h0.82422c0.19336,0,0.3501,0.15674,0.3501,0.3501s-0.15674,0.3501-0.3501,0.3501h-0.82422    C15.67713,25.13583,15.52039,24.97909,15.52039,24.78573z M14.69861,25.13583h-2.67529c-0.19336,0-0.3501-0.15674-0.3501-0.3501    s0.15674-0.3501,0.3501-0.3501h2.67529c0.19336,0,0.3501,0.15674,0.3501,0.3501S14.89197,25.13583,14.69861,25.13583z" style="fill:#303030;"/><path d="M36.44471,20.64755c1.07422,0,1.76807,0.76855,1.76807,1.95752    c0,0.87207-0.37744,1.57373-0.96436,1.90527c0.23682,0.2998,0.396,0.76758,0.396,1.48389c0,1.00146-0.48242,1.75635-1.22314,2    c0.19336,0.30469,0.31787,0.74951,0.31787,1.38916c0,0.85498-0.36523,1.52881-0.94971,1.85303    c0.24756,0.40381,0.24365,0.98047,0.24023,1.54053l-0.00049,0.2002c0,1.04443-0.91602,1.83203-2.13037,1.83203l-4.71924-0.00146    c-0.01074,0.00098-0.02148,0.00146-0.03223,0.00146h-0.00049l-0.07574-0.00012l-0.00043,0.00012h-6.22363    c-0.05469,0-0.11133,0.00391-0.16895,0.0083c-0.07227,0.00488-0.14893,0.00977-0.22803,0.00977    c-0.10547,0-0.21533-0.00928-0.32715-0.04053c-0.19531-0.05566-0.36816-0.16748-0.52051-0.26562l-0.10645-0.06738    c-0.25-0.15381-0.49268-0.31738-0.73486-0.48145l-0.10791-0.07617c-0.14014-0.10107-0.20703-0.14551-0.27881-0.14111    c-0.25562,0.005-0.51001,0.00757-0.76465,0.0097v-0.70026v-9.05444l-0.01355-0.8197    c0.48083-0.30658,0.92438-0.59998,1.0575-0.70728c0.15234-0.32715,0.34863-0.63428,0.53906-0.93213    c0.09082-0.1416,0.18066-0.28223,0.26416-0.42236l1.83643-3.08398c0.08691-0.14502,0.17822-0.28955,0.27002-0.43457    c0.1748-0.27637,0.35107-0.55371,0.49512-0.8418c0.09131-0.15479,0.09082-0.30908,0.0835-0.55029l-0.00635-3.32178    c-0.00049-0.53174,0.43896-0.90332,0.72998-1.14893c0.38281-0.32471,0.81396-0.5083,1.24609-0.53125    c0.34766-0.01611,0.70459,0.05908,1.06787,0.22949c0.18604,0.0874,0.36182,0.19385,0.5293,0.31201l0.11328,0.07568    c0.19482,0.12695,0.43799,0.28467,0.53564,0.64648c0.2002,0.7417,0.38232,1.41553,0.55127,2.09277l0.0708,0.27637    c0.10742,0.41846,0.21875,0.85107,0.26465,1.29394c0.06787,0.65869-0.6001,3.32422-0.99609,4.51758L36.44471,20.64755z" style="fill:#303030;"/></g></g></svg>