<?xml version="1.0" ?><svg style="enable-background:new 0 0 48 48;" version="1.1" viewBox="0 0 48 48" xml:space="preserve" xmlns="http://www.w3.org/2000/svg" xmlns:xlink="http://www.w3.org/1999/xlink"><g id="Padding__x26__Artboard"/><g id="Icons"><g><path d="M23.78624,29.13574C23.85508,29.23877,23.9586,29.25,24.0001,29.25    s0.14502-0.01123,0.21338-0.11377l2.76074-4.14062l2.68018-4.01025c0.52686-0.94092,0.80078-1.99365,0.80078-3.10547    c0-3.56201-2.89355-6.45996-6.4502-6.45996c-3.56201,0-6.45947,2.89795-6.45947,6.45996    c0,1.11279,0.27393,2.16553,0.81494,3.12842l2.6958,4.03711L23.78624,29.13574z M28.97032,15.83447    c0.1377,0.48389,0.19678,0.98535,0.17578,1.49072c-0.00781,0.18799-0.1626,0.33545-0.34912,0.33545    c-0.00537,0-0.01025,0-0.01514-0.00049c-0.19287-0.00781-0.34326-0.1709-0.33496-0.36426    c0.01807-0.43066-0.03223-0.85791-0.14941-1.27002c-0.05322-0.18604,0.05469-0.37939,0.24072-0.43213    C28.72422,15.53906,28.91758,15.64893,28.97032,15.83447z M24.62071,12.40625c1.52441,0.06299,2.93262,0.8667,3.76709,2.14941    c0.10547,0.16212,0.05957,0.37891-0.10254,0.48438c-0.05908,0.03809-0.125,0.05664-0.19043,0.05664    c-0.11475,0-0.22656-0.05615-0.29395-0.15918c-0.71094-1.09326-1.91113-1.77783-3.20947-1.83203    c-0.19287-0.00781-0.34326-0.1709-0.33496-0.36426C24.26426,12.54736,24.43516,12.37891,24.62071,12.40625z M23.80772,15.54834    c1.68359-0.11182,3.1499,1.18018,3.25635,2.86865c0.10693,1.68896-1.18018,3.1499-2.86865,3.25635    c-0.06543,0.00439-0.13086,0.00635-0.1958,0.00635c-1.60449,0-2.95801-1.25195-3.06055-2.875    C20.83213,17.11572,22.11924,15.65479,23.80772,15.54834z" style="fill:#303030;"/><g><polygon points="30.72453,36.58008 30.7454,36.58008 30.7313,36.56018    " style="fill:#303030;"/><path d="M36.26847,34.6001h-0.7146h-3.30884l0.26508,1.27979l0.15112,0.7002h3.58398     c0.10498,0,0.20459-0.04736,0.271-0.12891c0.06689-0.08154,0.09277-0.18848,0.07178-0.2915L36.26847,34.6001z" style="fill:#303030;"/><path d="M29.98851,34.6001H12.44883h-0.71478l-0.32184,1.55908     c-0.02148,0.10303,0.00488,0.21045,0.07129,0.29199s0.16602,0.12891,0.27148,0.12891h18.63947l-0.14716-0.7002L29.98851,34.6001z     " style="fill:#303030;"/><path d="M31.47227,34.3208c-0.0025-0.01202,0.00104-0.02332-0.00018-0.03528     c-0.00128-0.01227-0.00714-0.02295-0.00714-0.03552c0-0.01202,0.00568-0.02228,0.00684-0.034     c0.00238-0.02368,0.00677-0.04559,0.01373-0.06787c0.00677-0.02179,0.01459-0.04187,0.02527-0.06158     c0.0105-0.01953,0.0224-0.03674,0.03638-0.05396c0.01447-0.01776,0.0293-0.03351,0.04694-0.0481     c0.01672-0.01398,0.03424-0.02539,0.05365-0.03613c0.02094-0.01172,0.04211-0.02069,0.06537-0.02789     c0.01099-0.00342,0.01959-0.01086,0.03113-0.01324c0.01196-0.00244,0.02319,0.00104,0.0351-0.00012     c0.01233-0.00128,0.02301-0.0072,0.03571-0.0072h3.5954h0.7146l-0.19867-0.96973h-0.7146H31.4752l-0.00018-0.00006     l-0.00031,0.00006c0,0-0.00043-0.00024-0.00067-0.00024c-0.07593-0.00024-0.14258-0.0296-0.19983-0.07092     c-0.00873-0.00629-0.01709-0.00995-0.02521-0.01697c-0.05286-0.04559-0.08826-0.10583-0.10645-0.17542     c-0.00177-0.00671-0.00873-0.00983-0.01013-0.01672L29.679,25.52563l-0.13501-0.6994l-0.86255,0.00519l0.1582,0.69928     l1.42902,6.98053c0.02399,0.11938-0.02057,0.23254-0.10083,0.31256c-0.00232,0.0025-0.0047,0.0047-0.00708,0.00714     c-0.02356,0.02216-0.04901,0.04034-0.07849,0.05548c-0.01715,0.0094-0.03479,0.01636-0.05377,0.02258     c-0.01202,0.00378-0.02161,0.01178-0.03424,0.01434c-0.02264,0.00433-0.04578,0.00659-0.06842,0.00671l-0.00043,0.00012H12.79356     h-0.71484l-0.20013,0.96973h0.71478h17.68164c0.01324,0,0.02448,0.00616,0.03735,0.00757     c0.02112,0.00244,0.04083,0.00616,0.06091,0.01227c0.02472,0.00739,0.0473,0.01648,0.0694,0.02887     c0.01685,0.00928,0.0318,0.01965,0.04688,0.03156c0.01978,0.01569,0.03699,0.03229,0.05292,0.05182     c0.013,0.01575,0.02362,0.0321,0.03381,0.05017c0.0119,0.02124,0.02112,0.04285,0.02838,0.06653     c0.00354,0.01129,0.01117,0.02014,0.01361,0.03198l0.34363,1.69922l0.12775,0.7002h0.84674     c-0.06934-0.34003-0.14117-0.7002-0.14117-0.7002L31.47227,34.3208z" style="fill:#303030;"/><path d="M31.76078,32.22998h3.30756h0.71454l-1.4649-7.15039     c-0.0332-0.16357-0.17822-0.29346-0.34473-0.27979l-3.73364,0.02228l0.15253,0.69928L31.76078,32.22998z" style="fill:#303030;"/><path d="M29.49638,32.22998l-1.37024-6.69495l-0.13794-0.69946l-0.06561,0.00037l-0.46936,0.70312     L24.796,29.52441c-0.35449,0.5332-1.23682,0.53369-1.59229-0.00049l-2.625-3.93311l-0.46533-0.69733l-6.1001,0.03619     c-0.16553,0.00098-0.30762,0.11768-0.34082,0.2793l-1.44922,7.021h0.71484H29.49638z" style="fill:#303030;"/></g></g></g></svg>