<?xml version="1.0" ?><svg style="enable-background:new 0 0 48 48;" version="1.1" viewBox="0 0 48 48" xml:space="preserve" xmlns="http://www.w3.org/2000/svg" xmlns:xlink="http://www.w3.org/1999/xlink"><g id="Padding__x26__Artboard"/><g id="Icons"><g><path d="M26.81006,25.64697l-2.11841-0.23981c-0.13806-0.56036-0.35297-1.08807-0.64233-1.57727    l1.31934-1.65265c0.31543-0.39502,0.28467-0.96387-0.07129-1.32324l-0.36719-0.37061    c-0.35742-0.36035-0.92822-0.39502-1.32715-0.07812l-1.64514,1.30609c-0.51428-0.31042-1.04895-0.55225-1.60339-0.68939    l-0.22852-2.04736c-0.05615-0.50439-0.48193-0.88525-0.99023-0.88525h-0.51416c-0.50781,0-0.93359,0.38037-0.98975,0.88477    l-0.22705,2.01465c-0.60547,0.14062-1.16748,0.36572-1.67676,0.67139l-1.56348-1.25244    c-0.39697-0.31787-0.96729-0.28613-1.32715,0.07324l-0.37158,0.37207c-0.35986,0.35889-0.3916,0.9292-0.07422,1.32617    l1.23047,1.54004c-0.3335,0.53223-0.57666,1.10547-0.7251,1.70996l-1.93799,0.21777    c-0.50439,0.05615-0.88477,0.48193-0.88477,0.99023v0.51416c0,0.50732,0.38037,0.93311,0.88477,0.99023l1.9375,0.21729    c0.15039,0.62012,0.39062,1.19727,0.71631,1.72021l-1.22266,1.53906c-0.31641,0.39844-0.28223,0.96924,0.07861,1.32715    l0.37012,0.36719c0.19336,0.19141,0.44727,0.28906,0.70166,0.28906c0.21924,0,0.43896-0.07227,0.62158-0.21826l1.54688-1.23584    c0.52319,0.31171,1.09515,0.52338,1.69385,0.66364l0.22852,2.0141c0.05713,0.50391,0.48291,0.88428,0.98975,0.88428h0.51514    c0.50781,0,0.93311-0.38086,0.98975-0.88525l0.23053-2.0506c0.57434-0.14661,1.11816-0.3772,1.625-0.68976l1.6225,1.29749    c0.18311,0.14648,0.40283,0.21826,0.62207,0.21826c0.25586,0,0.51074-0.09863,0.70459-0.29199l0.36328-0.36328    c0.35791-0.35791,0.39062-0.92725,0.07568-1.32422l-1.31097-1.65137c0.29047-0.49164,0.5058-1.02277,0.64325-1.58789    l2.10815-0.23877c0.50391-0.05713,0.88428-0.48291,0.88428-0.99023v-0.51514    C27.69434,26.12891,27.31396,25.70312,26.81006,25.64697z M21.91602,26.9082c0,1.71094-1.39209,3.10303-3.10303,3.10303    c-1.71533,0-3.11084-1.39209-3.11084-3.10303c0-1.71533,1.39551-3.11084,3.11084-3.11084    C20.52393,23.79736,21.91602,25.19287,21.91602,26.9082z" style="fill:#303030;"/><path d="M37.22168,17.47119l-1.38019-0.15588c-0.0907-0.34106-0.22217-0.66376-0.39386-0.96661    l0.85999-1.07721c0.25098-0.31445,0.22656-0.76709-0.05664-1.05322l-0.25195-0.25391    c-0.28467-0.28662-0.73926-0.31592-1.05615-0.0625l-1.06927,0.84912c-0.31879-0.18469-0.64697-0.33618-0.98785-0.42773    l-0.14844-1.32715c-0.04443-0.40234-0.3833-0.70557-0.7876-0.70557h-0.35254c-0.4043,0-0.74316,0.30322-0.7876,0.70459    l-0.14746,1.3042c-0.37109,0.09277-0.71875,0.23193-1.03857,0.41553l-1.01221-0.81104    c-0.31543-0.25244-0.76953-0.22754-1.05664,0.05859l-0.25439,0.25439c-0.28711,0.28613-0.3125,0.74072-0.05908,1.05566    l0.79492,0.99561c-0.20068,0.3335-0.35107,0.68945-0.45068,1.0625l-1.25195,0.14111    c-0.40186,0.04443-0.70508,0.3833-0.70508,0.7876v0.35303c0,0.4043,0.30322,0.74316,0.70459,0.7876l1.25195,0.14111    c0.1001,0.38184,0.24902,0.74023,0.44482,1.06934l-0.78955,0.99463c-0.25195,0.31641-0.22559,0.771,0.0625,1.05664    l0.25342,0.25146c0.15381,0.15234,0.35596,0.22998,0.55859,0.22998c0.17432,0,0.34961-0.05762,0.49512-0.17334l1.00098-0.80029    c0.32666,0.18689,0.68152,0.31543,1.04999,0.40906l0.14825,1.30579c0.04541,0.40088,0.38379,0.70361,0.7876,0.70361h0.35303    c0.40381,0,0.74268-0.30273,0.78809-0.70459l0.14996-1.33484c0.35126-0.09674,0.68524-0.2384,1.00031-0.42438l1.05481,0.84418    c0.146,0.1167,0.3208,0.17383,0.49561,0.17383c0.20361,0,0.40674-0.07812,0.56104-0.23242l0.24902-0.24902    c0.28516-0.28516,0.31104-0.73877,0.06006-1.0542l-0.85461-1.07642c0.17261-0.30469,0.30438-0.62988,0.39478-0.97388    l1.37341-0.15576c0.40088-0.04541,0.70361-0.38428,0.70361-0.7876v-0.35352C37.92578,17.85547,37.62305,17.5166,37.22168,17.47119    z M33.74512,18.44531c0,1.11182-0.90479,2.0166-2.0166,2.0166c-1.11523,0-2.02246-0.90479-2.02246-2.0166    c0-1.11475,0.90723-2.02197,2.02246-2.02197C32.84033,16.42334,33.74512,17.33057,33.74512,18.44531z" style="fill:#303030;"/></g></g></svg>