<?xml version="1.0" ?><svg style="enable-background:new 0 0 48 48;" version="1.1" viewBox="0 0 48 48" xml:space="preserve" xmlns="http://www.w3.org/2000/svg" xmlns:xlink="http://www.w3.org/1999/xlink"><g id="Padding__x26__Artboard"/><g id="Icons"><g><path d="M24.49829,25.56885c0.14551-0.01562,0.28857-0.04834,0.43115-0.08154l0.98633-0.2207    c0.02393-0.00488,0.12744-0.0332,0.15039-0.04297c0.07959-0.03369,0.13525-0.08252,0.17285-0.11572l0.49219-0.43652    c0.09668-0.08301,0.19336-0.1665,0.2793-0.25684c0.07129-0.07471,0.13818-0.15381,0.20361-0.23242l0.57861-0.68604    c0.09521-0.11328,0.10938-0.27441,0.03467-0.40234l-0.14453-0.24805l0.78125-0.78955    c0.02637-0.02686,0.04883-0.05811,0.06543-0.09229c0.08301-0.16992,0.81494-1.67139,0.93359-2.11328    c0.03662-0.13574-0.01172-0.28076-0.12305-0.36719c-0.11035-0.08594-0.26318-0.09814-0.38574-0.0293    c-0.1665,0.09326-0.34033,0.18115-0.4751,0.24854c0.00098-0.04053,0.00244-0.08154,0.00488-0.12061    c0.00391-0.05811-0.00732-0.11621-0.03125-0.16895c-0.34717-0.74951-0.43701-0.81738-0.49756-0.86279    c-0.07959-0.06006-0.75488-0.58643-0.75488-0.58643c-0.07031-0.05469-0.15918-0.0791-0.24561-0.07275l-0.61914,0.05371    l-0.39209-0.12793c-0.10986-0.03516-0.22803-0.01514-0.31982,0.05371c-0.09131,0.06934-0.14307,0.17871-0.13818,0.29297    l0.05762,1.4502c-0.01318,0.0415-0.02686,0.08301-0.04053,0.12354c-0.29541-0.22461-0.67676-0.5166-0.67969-0.51904    l-0.56543-0.41748l0.35205-0.50439l0.77832-0.58105c0.19922-0.06396,0.88184-0.28125,1.17432-0.35645    c0.13721-0.03516,0.23926-0.14893,0.25977-0.28906c0.02002-0.14014-0.04639-0.27832-0.16797-0.35059l-1.02441-0.60938h1.35547    c0.19336,0,0.3501-0.15674,0.3501-0.3501c0-0.15918-0.05078-0.20459-0.29346-0.42334    c-0.1543-0.13867-0.37061-0.33105-0.40381-0.3623c-0.25781-0.44385-0.68311-0.47852-1.0249-0.50635l-0.06836-0.00537    c-6.34521-0.72705-9.62061,4.16699-9.65234,4.2168c-0.03711,0.05664-0.05713,0.12305-0.05713,0.19092    c0,0.35352,0,0.36426,1.98193,0.51416l0.14551,0.27246c0.03223,0.06104,0.10791,0.20312,0.25586,0.28027    c0.01709,0.00879,0.06738,0.02881,0.08594,0.03467c0.13916,0.0459,0.27197,0.11377,0.40186,0.18018    c0.08691,0.04492,0.18945,0.05029,0.28174,0.01562c0.0957-0.03564,0.20605-0.06738,0.29443-0.08643    c0.00977,0.23389-0.03174,0.6333-0.19238,0.86572c-0.37354,0.52539-0.42188,1.21143-0.42432,1.27588    c0.00439,0.12647,0.01123,0.25342,0.02148,0.40527c0.00879,0.12598,0.01758,0.25244,0.03223,0.37842    c0.00879,0.06982,0.01953,0.13965,0.03125,0.20996c0.01172,0.06982,0.0332,0.2002,0.13037,0.32324    c0.04102,0.05273,0.09033,0.09863,0.15332,0.15381c0.06152,0.05469,0.12012,0.11279,0.19629,0.19629    c0.03174,0.03467,0.0752,0.08203,0.09521,0.16992l0.06494,0.37451c0.02979,0.18018,0.05957,0.36084,0.09619,0.53955    l0.02588,0.12061c0.01221,0.07422,0.0376,0.18506,0.11865,0.28467c0.04541,0.05615,0.09473,0.0918,0.18945,0.15967    c0.21777,0.15576,0.43506,0.31201,0.64941,0.46973l0.44775,0.39307c0.41602,1.32276,0.604,1.41162,0.71777,1.46533    c0.04883,0.02295,0.16943,0.08691,0.31592,0.16504c0.67725,0.35938,0.91553,0.48584,1.06982,0.48584    c0.06445,0,0.11426-0.02197,0.17529-0.05811c0.00928-0.00586,0.84131-0.68701,0.68164-1.16504    c-0.01221-0.03906-0.03857-0.10449-0.07324-0.18896c-0.11475-0.27686-0.3833-0.92529-0.28223-1.30469    c0.02002-0.07324,0.12012-0.12207,0.16357-0.14014c0.11279-0.04736,0.25-0.07422,0.43408-0.08496    c0.04395-0.00195,0.08594-0.00049,0.12891,0C24.33521,25.57812,24.41675,25.5791,24.49829,25.56885z" style="fill:#303030;"/><path d="M28.31177,25.83594c-0.04688-0.00488-0.19189-0.02197-1.80762,0.21631    c-0.0791,0.01172-0.15186,0.05029-0.20605,0.10889c-0.11523,0.125-0.38574,0.41797-0.19824,0.69678    c0.00049,0.00049,0.00049,0.00049,0.00049,0.00049l0.4126,0.61133c0.05811,0.08594,0.15088,0.1416,0.25391,0.15234    c0.16309,0.01709,0.98584,0.10107,1.17578,0.10107c0.11523,0,0.35449,0,1.00439-0.84766    c0.0835-0.10889,0.0957-0.25684,0.03076-0.37793C28.64331,25.87305,28.40259,25.8457,28.31177,25.83594z" style="fill:#303030;"/><path d="M32.65063,27.81543c-0.11133-0.08447-0.23096-0.0918-0.27393-0.09473    c-0.24414-0.01855-0.46826,0.02441-0.66846,0.06201l-0.10107,0.01807c-0.1875,0.0332-0.37354,0.03857-0.63037,0.04834    c-0.48633,0.01855-0.97314,0.04345-1.45801,0.08789c-0.14111,0.0127-0.28271,0.0293-0.41748,0.06934    c-0.01172,0.00342-1.24365,0.54883-1.36377,0.82471c-0.04102,0.09521-0.03857,0.20752,0.00781,0.2998l0.16211,0.32471    c-0.02539,0.02441-0.05029,0.04785-0.07031,0.06738c-0.00537,0.00537-0.06104,0.06055-0.06641,0.06641    c-0.09863,0.10889-0.18994,0.2251-0.28125,0.34131c-0.05762,0.07324-0.11523,0.14697-0.1748,0.21777    c-0.34912,0.41553-0.63525,0.71387-0.93408,0.97168c-0.0415,0.03613-0.10449,0.09131-0.15332,0.17676    c-0.21729,0.38281,0.18311,0.74365,0.31543,0.86279c0.40771,0.3667,0.78467,0.54688,1.14697,0.54688    c0.05371,0,0.10742-0.00391,0.16064-0.01172c1.25-0.1875,2.24902-0.95508,2.86719-1.56592    c0.58496-0.57861,1.12793-1.26367,1.61279-2.03613c0.07959-0.12646,0.15723-0.25391,0.27783-0.44971    c0.06836-0.09766,0.15332-0.21924,0.18896-0.35156c0.00049-0.00195,0.01709-0.10449,0.01758-0.10645    C32.82056,28.06934,32.74243,27.88574,32.65063,27.81543z" style="fill:#303030;"/><path d="M26.47925,30.07422c0.09863,0,0.18115-0.02881,0.24023-0.04883    c0.06885-0.02344,0.13477-0.05322,0.24316-0.10352l0.16357-0.07715c0.06445-0.03125,0.12939-0.0625,0.17871-0.08398    c0.15625-0.05273,0.27686-0.22852,0.2583-0.39209c-0.00684-0.06201-0.03027-0.12109-0.06738-0.17139l-0.05713-0.07861    c-0.05127-0.07178-0.09814-0.13574-0.15186-0.19336c-0.06396-0.06787-0.09766-0.11328-0.11621-0.1582    c0,0-0.02344-0.08984-0.02393-0.09082c-0.00146-0.02637-0.01611-0.12842-0.02393-0.15381    c-0.03418-0.1167-0.10645-0.22021-0.21924-0.31592c-0.08643-0.07275-0.18359-0.12988-0.28223-0.18506l-0.10986-0.06445    c-0.05566-0.03516-0.16846-0.18066-0.26807-0.37939c-0.12793-0.25781-0.53857-0.44385-0.77051-0.53174    c-0.1543-0.05811-0.30127-0.05029-0.39795-0.03857l-0.13916,0.01855c-0.07959,0.01074-0.26611,0.03516-0.39209,0.22461    c-0.09131,0.13477-0.1123,0.28467-0.11426,0.44629c0,0.0459,0,0.09326-0.00537,0.11719    c-0.0083,0.03711-0.03711,0.09082-0.06787,0.14697c-0.0332,0.06152-0.06592,0.12305-0.0918,0.1875    c-0.0459,0.11523-0.0542,0.23291-0.02393,0.34082c0.00098,0.00391,0.00244,0.00781,0.00391,0.01221    c0.04199,0.12988,0.12646,0.21094,0.19482,0.27637c0.05908,0.06006,0.12256,0.1167,0.18555,0.16699    c0.12256,0.09912,0.25488,0.18506,0.39307,0.26074l0.36328,0.19238c0.1084,0.06006,0.21094,0.12939,0.3252,0.20703    c0.12646,0.07959,0.24951,0.17578,0.3623,0.28027c0.04785,0.04443,0.12061,0.1123,0.23047,0.15527    C26.36353,30.06494,26.42407,30.07422,26.47925,30.07422z" style="fill:#303030;"/><path d="M29.95776,26.3999c0.01465,0,0.02881-0.00098,0.04346-0.00293l0.88135-0.11035    c0.0791-0.00977,0.15234-0.04639,0.20752-0.10352l0.0625-0.06348c0.18896-0.19385,0.38428-0.39355,0.5415-0.64355l0.33105-0.53564    c0.04492-0.07275,0.08984-0.14844,0.12158-0.22656c0.08154-0.19629,0.01416-0.3335-0.0332-0.39795    c-0.07178-0.09814-0.25781-0.15674-0.3877-0.14746l-0.18701,0.01611c-0.43457,0.03857-0.86914,0.06738-1.30469,0.09668    l-0.05225,0.00342c-0.16064,0.01074-0.29346,0.12988-0.32129,0.28906l-0.24756,1.41602    c-0.01904,0.10938,0.01465,0.22119,0.09131,0.30127C29.77075,26.36084,29.86255,26.3999,29.95776,26.3999z" style="fill:#303030;"/><path d="M24.00024,12.95508c-6.09033,0-11.04541,4.95459-11.04541,11.04492    s4.95508,11.04492,11.04541,11.04492S35.04517,30.09033,35.04517,24S30.09058,12.95508,24.00024,12.95508z M24.00024,34.34473    c-5.70459,0-10.34521-4.64062-10.34521-10.34473s4.64062-10.34473,10.34521-10.34473c5.7041,0,10.34473,4.64062,10.34473,10.34473    S29.70435,34.34473,24.00024,34.34473z" style="fill:#303030;"/></g></g></svg>