<?xml version="1.0" ?><svg style="enable-background:new 0 0 48 48;" version="1.1" viewBox="0 0 48 48" xml:space="preserve" xmlns="http://www.w3.org/2000/svg" xmlns:xlink="http://www.w3.org/1999/xlink"><g id="Padding__x26__Artboard"/><g id="Icons"><g><path d="M32.12642,24.16138h6.40479c0.88232,0,1.6001-0.71777,1.6001-1.60059v-8.90625    c0-0.88232-0.71777-1.6001-1.6001-1.6001h-6.40479c-0.88233,0-1.6001,0.71777-1.6001,1.6001v8.90625    C30.52632,23.4436,31.24409,24.16138,32.12642,24.16138z M34.15926,16.51379c0.4361-0.20502,0.81726-0.45337,1.14355-0.74506    c0.32635-0.29169,0.55737-0.57471,0.69312-0.849h0.50244v6.37622H35.7187v-4.96844    c-0.18774,0.17902-0.43408,0.35809-0.73846,0.53711c-0.30493,0.17908-0.57843,0.31335-0.82098,0.40289V16.51379z" style="fill:#303030;"/><path d="M26.43403,33.7146c-0.03418-0.0459-0.0791-0.09277-0.12842-0.14258    c-0.63721-0.61719-5.61719-3.14648-5.81055-3.64355c-0.20258-0.50214-0.23712-1.05518-0.26733-1.63867h1.22583    c0.13623,0,0.25977-0.0791,0.31738-0.20215c0.05713-0.12354,0.03809-0.26904-0.04932-0.37305l-0.02051-0.02393    c1.47803-0.32178,1.47803-0.46143,1.47803-0.71338c0-0.09912,0-0.24658-0.58643-1.0166    c0.05811-0.2334,0.12158-0.46191,0.20703-0.70264c0.10693-0.30029,0.21338-0.60156,0.30225-0.9082    c0.12939-0.44971,0.11279-0.93066,0.08154-1.42578c-0.0332-0.53369-0.12012-1.09326-0.25781-1.66211    c-0.14648-0.60645-0.34326-1.18896-0.58447-1.73145c-0.26465-0.59619-0.57666-1.12549-0.92676-1.57373    c-0.39307-0.50244-0.83203-0.89746-1.3042-1.17334c-0.52197-0.30615-1.11084-0.47314-1.70264-0.48291    c-0.61963-0.00732-1.27734,0.14551-1.94824,0.46094c-0.3667,0.0083-0.72559,0.07178-1.06885,0.18945    c-0.66211,0.22656-1.28467,0.66797-1.7998,1.27637c-0.4751,0.56104-0.85693,1.24512-1.13428,2.0332    c-0.26758,0.76025-0.41748,1.55371-0.44434,2.3584c-0.01367,0.40283,0.00488,0.79883,0.05518,1.17773    c0.02588,0.18945,0.05957,0.37891,0.10254,0.56543c0.04395,0.19141,0.10889,0.36816,0.17578,0.54785l0.05762,0.15576    c0.04395,0.12354,0.07812,0.25195,0.12842,0.43945c0.0415,0.15137,0.08105,0.30273,0.11865,0.45508    c-0.58691,0.77051-0.58691,0.91797-0.58691,1.01709c0,0.25244,0,0.3916,1.48486,0.71484l-0.021,0.02539    c-0.08594,0.10449-0.104,0.24951-0.0459,0.37158c0.05762,0.12256,0.18115,0.20068,0.31641,0.20068h1.21704    c-0.03021,0.5835-0.06482,1.13666-0.2688,1.64258c-0.18799,0.4834-0.75049,0.75488-1.29443,1.01758    c-0.12451,0.06055-0.24756,0.12012-0.36426,0.18066l-0.5918,0.30469c-0.29199,0.1499-0.58252,0.29883-0.87061,0.45117    c-0.16309,0.08643-0.33203,0.17285-0.50391,0.26074c-0.74951,0.38281-1.59912,0.81689-2.22607,1.4248    c-0.00732,0.00732-0.09912,0.1167-0.10596,0.12451c-0.69531,0.80664-0.89355,1.72852-0.91357,1.83105    c-0.02051,0.10254,0.00635,0.20898,0.07275,0.29004c0.06641,0.08105,0.16553,0.12793,0.27051,0.12793h18.77148    c0.10498,0,0.2041-0.04688,0.27051-0.12793s0.09326-0.1875,0.07275-0.29004C27.31343,35.42505,27.11519,34.50317,26.43403,33.7146    z" style="fill:#303030;"/><path d="M38.60835,35.50659c-0.00293-0.04199-0.01074-0.08643-0.02832-0.12158    c-0.0127-0.05127-0.03271-0.11475-0.05664-0.1875l-0.04102-0.12793c-0.00195-0.00781-0.00488-0.01514-0.00732-0.02246    c-0.00293-0.00977-0.00635-0.01953-0.01025-0.0293c-0.04785-0.12354-0.11328-0.2749-0.18896-0.43604    c-0.00635-0.02051-0.01465-0.04004-0.02441-0.05908c-0.15918-0.29639-0.3457-0.5708-0.59961-0.86572    c-0.00732-0.00879-0.06299-0.06934-0.07129-0.07764c-0.63135-0.60693-1.44922-1.02246-2.23975-1.42383l-0.4917-0.25293    c-0.30908-0.16309-0.62598-0.32666-0.94287-0.49023l-0.53271-0.27588c-0.62402-0.32471-1.0752-0.55957-1.30664-1.14697    l-0.03467-0.09766c-0.01465-0.04004-0.03076-0.07959-0.04737-0.14795c-0.04199-0.13525-0.06641-0.2705-0.09668-0.43652    c-0.01611-0.06348-0.02393-0.13037-0.03271-0.19824l-0.01465-0.1084c-0.03125-0.28711-0.04883-0.58154-0.06543-0.88965    l0.25977-0.32129c0.02051-0.03076,0.05127-0.07666,0.0752-0.13965c0.04541-0.08008,0.07959-0.1709,0.09619-0.25098    c0.03223-0.09717,0.06396-0.19482,0.08105-0.28418c0.08643-0.33398,0.15332-0.71582,0.19531-0.96289    c0.00977-0.00537,0.01904-0.01074,0.02881-0.01611l-0.00098-0.00146c0.01709-0.0083,0.03369-0.01709,0.04932-0.02637    c0.08154-0.04199,0.16113-0.10352,0.22461-0.17285c0.04785-0.03857,0.08789-0.08154,0.1084-0.11377    c0.0918-0.11523,0.16162-0.24219,0.21289-0.396l0.07764-0.26904c0.03394-0.10187,0.05511-0.19769,0.07892-0.29492h-0.72424    h-0.4118c-1.26856,0-2.30029-1.03223-2.30029-2.30078v-4.97473v-0.70972c-1.81622-0.28296-3.03839,0.53851-3.39258,0.82458    c-0.50586,0.04004-1.271,0.32715-1.60059,1.62012c-0.229,0.93555,0.00244,2.05664,0.0083,2.05664V21.3772    c0.02002,0.77148,0.03516,1.2373,0.04834,1.52344c-0.11865,0.02881-0.22949,0.07764-0.29541,0.14307    c-0.34131,0.35547-0.27881,0.83545-0.23486,1.17529c0.0415,0.36328,0.13672,0.68604,0.22852,0.99805l0.06934,0.23535    c0.10303,0.28662,0.3208,0.57861,0.6123,0.70947c0.07324,0.46826,0.23242,1.30957,0.46924,1.6543l0.23975,0.29443    l-0.00879,0.14209c-0.03564,0.61084-0.06982,1.18799-0.27588,1.71875c-0.24365,0.62012-0.45996,0.73145-1.09717,1.05957    c-0.08105,0.04053-0.1416,0.0708-0.21289,0.11084c-0.11133,0.06348-0.1792,0.18213-0.17725,0.31055    c0.00244,0.12793,0.07422,0.24463,0.1875,0.3042c0.59082,0.31006,1.11621,0.63623,1.65332,1.02734    c0.99365,0.72363,1.66748,1.6709,1.94922,2.73926c0.10059,0.38525,0.4082,0.41895,0.59375,0.41895    c0.02197,0,0.04199-0.00049,0.06006-0.00098H38.269c0.19336,0,0.3501-0.15674,0.3501-0.3501    C38.61909,35.56519,38.6147,35.5354,38.60835,35.50659z" style="fill:#303030;"/></g></g></svg>