<?xml version="1.0" ?><svg style="enable-background:new 0 0 48 48;" version="1.1" viewBox="0 0 48 48" xml:space="preserve" xmlns="http://www.w3.org/2000/svg" xmlns:xlink="http://www.w3.org/1999/xlink"><g id="Padding__x26__Artboard"/><g id="Icons"><g><path d="M28.47074,16.05939c2.08691-0.02441,2.71143-0.00049,2.71729-0.00049    c0.08984,0.00684,0.18457-0.02979,0.25293-0.09375c0.06885-0.06396,0.1084-0.15283,0.11133-0.24658l0.12744-4.7583    c0-0.34717,0-0.34717-1.2832-0.36523l-0.12549-0.00195c-0.29248-0.00342-0.5874-0.01123-0.88379-0.01953    c-1.36572-0.03711-2.77637-0.07568-4.11816,0.31738c-1.39258,0.4082-2.51855,1.19434-3.25635,2.27393    c-0.79736,1.16699-1.23633,2.74316-1.23633,4.43799v3.36328h-3.98193c-0.18994,0-0.34521,0.15186-0.3501,0.3418l-0.12402,5.13721    c-0.00195,0.09375,0.03369,0.18457,0.09912,0.25195s0.15527,0.10596,0.24902,0.10645l4.06299,0.02246l0.13184,10.27685    c0.00244,0.19141,0.15869,0.3457,0.3501,0.3457h5.02539c0.19189,0,0.34814-0.15479,0.3501-0.34668l0.10742-10.29834h3.80029    c0.1748,0,0.32227-0.12891,0.34668-0.30176l0.70557-5.05029c0.01367-0.09912-0.01562-0.19971-0.08057-0.27588    s-0.15967-0.12061-0.25977-0.12256l-4.53125-0.08057l0.02295-3.60449C26.70023,17.23615,26.75101,16.07941,28.47074,16.05939z" style="fill:#303030;"/></g></g></svg>