<?xml version="1.0" ?><svg style="enable-background:new 0 0 48 48;" version="1.1" viewBox="0 0 48 48" xml:space="preserve" xmlns="http://www.w3.org/2000/svg" xmlns:xlink="http://www.w3.org/1999/xlink"><g id="Padding__x26__Artboard"/><g id="Icons"><g><path d="M35.18164,19.67781l-5.22021-3.29004c-0.10693-0.06787-0.24365-0.07178-0.35547-0.01074    c-0.11182,0.06201-0.18115,0.1792-0.18115,0.30664v1.28955l-1.64203-0.02002c-0.21204-0.00964-0.41486-0.01929-0.63678-0.03906    c-1.26904-0.07471-2.50586-0.11328-3.67822,0.25586c-0.53809,0.17236-1.04102,0.41162-1.48633,0.70557    c-0.30273,0.18604-0.56201,0.37891-0.78662,0.58398c-0.64404,0.56104-1.18213,1.28223-1.55859,2.08887    c-0.37354,0.82227-0.57129,1.72656-0.57129,2.61523v2.23975c0,0.17969,0.13574,0.33008,0.31445,0.34814    c0.01221,0.00146,0.02393,0.00195,0.03613,0.00195c0.16406,0,0.30811-0.11523,0.34229-0.2793    c0.06738-0.32568,0.13379-0.56934,0.21729-0.79395c0.50342-1.42627,1.60938-2.61768,3.03467-3.26855    c1.08496-0.49316,2.59766-0.46338,4.05518-0.43066l0.70996,0.0127c0.00098,0,0.00244,0,0.00342,0l1.64648-0.01025v1.2998    c0,0.12793,0.06982,0.24561,0.18213,0.30713c0.05225,0.02881,0.11035,0.04297,0.16797,0.04297    c0.06543,0,0.13086-0.01855,0.18848-0.05518l0.25-0.15967l0.00043-0.00037l1.91058-1.21429    c0.00018-0.00012,0.00043-0.00006,0.00061-0.00018l3.05762-1.93457c0.10107-0.06396,0.1626-0.17578,0.1626-0.2959    C35.34473,19.85311,35.2832,19.74178,35.18164,19.67781z" style="fill:#303030;"/><path d="M32.27557,23.5356c-0.00659-0.02277-0.01373-0.04413-0.02454-0.0647    c-0.00439-0.00842-0.0047-0.01782-0.00983-0.026c-0.00708-0.01117-0.01825-0.01746-0.02631-0.02759    c-0.01489-0.0188-0.03021-0.03564-0.04858-0.05103c-0.0174-0.01447-0.03522-0.02618-0.05469-0.03687    c-0.01929-0.01074-0.03845-0.01953-0.05981-0.02649c-0.02301-0.00751-0.04572-0.01147-0.06982-0.0141    c-0.01282-0.0014-0.02399-0.00751-0.03717-0.00751c-0.00952,0-0.01746,0.0047-0.02679,0.00543    c-0.02325,0.00177-0.04529,0.00714-0.06818,0.01373c-0.02313,0.00665-0.0448,0.01379-0.06567,0.02478    c-0.00836,0.00433-0.0177,0.00464-0.02588,0.00977l-1.8877,1.18701c-0.01086,0.00684-0.01691,0.01764-0.02673,0.02539    c-0.01947,0.01526-0.03693,0.03094-0.05273,0.04999c-0.01428,0.01715-0.02576,0.03479-0.03638,0.05402    c-0.0108,0.01941-0.01965,0.03864-0.02661,0.06012c-0.00757,0.02319-0.0116,0.04596-0.01422,0.07026    c-0.00134,0.01263-0.00739,0.02361-0.00739,0.03662v3.87061c0,0.34717-0.36621,0.64062-0.7998,0.64062H16.04297    c-0.43359,0-0.7998-0.29346-0.7998-0.64062V19.92c0-0.35889,0.35889-0.65039,0.7998-0.65039h3.55273    c0.00031,0,0.00061-0.00018,0.00061-0.00018c0.00104,0,0.00165,0.00067,0.00165,0.00067    c0.01318,0,0.02454-0.00708,0.03693-0.00842c0.03613-0.00421,0.07172-0.00964,0.10364-0.02399    c0.02112-0.00922,0.03772-0.02496,0.05688-0.03839c0.0213-0.01526,0.04205-0.02985,0.05945-0.04938    c0.00732-0.00812,0.01788-0.01147,0.02454-0.02045c0.04346-0.05762,0.14502-0.16943,0.19189-0.20996    c0.64404-0.57275,1.41162-1.00977,2.21875-1.26416c0.00928-0.00293,0.09375-0.02441,0.10254-0.02832    c0.0116-0.00232,0.02032-0.00977,0.03143-0.01312c0.0246-0.00739,0.047-0.01648,0.06897-0.02881    c0.01764-0.00989,0.03351-0.02039,0.04895-0.03296c0.01984-0.01605,0.0368-0.03339,0.05273-0.05334    c0.01172-0.01483,0.02179-0.02954,0.03107-0.04602c0.01288-0.02277,0.02234-0.04608,0.02991-0.07159    c0.00543-0.01837,0.00891-0.03632,0.01123-0.0556c0.00177-0.01434,0.00842-0.02698,0.00842-0.04181    c0-0.01465-0.00659-0.0271-0.00836-0.04126c-0.0011-0.00922,0.00189-0.01788,0.00006-0.0271s-0.008-0.01617-0.01056-0.02509    c-0.00818-0.02875-0.01892-0.05481-0.03375-0.08008c-0.00867-0.01495-0.01758-0.0285-0.02826-0.04187    c-0.01678-0.02094-0.03497-0.0387-0.05603-0.0553c-0.01587-0.01276-0.03168-0.02362-0.04944-0.03339    c-0.01935-0.01044-0.03894-0.01837-0.06024-0.02509c-0.02411-0.00781-0.04779-0.01257-0.07324-0.01483    c-0.0105-0.00098-0.01953-0.0061-0.03027-0.0061h-6.28223c-1.86816,0-3.38818,1.33984-3.38818,2.98633v8.76904    c0,1.6416,1.52002,2.97705,3.38818,2.97705h12.86377c1.86816,0,3.38818-1.33545,3.38818-2.97705v-5.05762    c0-0.0094-0.00464-0.01727-0.00537-0.02649C32.28778,23.58119,32.28229,23.55892,32.27557,23.5356z" style="fill:#303030;"/></g></g></svg>