<?xml version="1.0" ?><svg style="enable-background:new 0 0 48 48;" version="1.1" viewBox="0 0 48 48" xml:space="preserve" xmlns="http://www.w3.org/2000/svg" xmlns:xlink="http://www.w3.org/1999/xlink"><g id="Padding__x26__Artboard"/><g id="Icons"><g><path d="M30.71869,32.77753c-0.03809-0.05127-0.08838-0.104-0.14355-0.15918    c-0.729-0.70654-1.67676-1.18945-2.59375-1.65625l-0.54541-0.28027c-0.00244-0.00146-0.07666-0.04102-0.0791-0.04199    l-0.08545-0.0459c-0.25-0.13281-0.50488-0.26318-0.75977-0.39404c-0.25146-0.12842-0.50342-0.25732-0.75293-0.39014    c-0.12402-0.06445-0.25293-0.12793-0.38379-0.19189c-0.63281-0.30957-1.2876-0.62988-1.51855-1.22314    c-0.24335-0.60431-0.27972-1.26562-0.3158-1.96533h1.47205c0.13623,0,0.25977-0.0791,0.31738-0.20215    c0.05713-0.12354,0.03809-0.26855-0.04932-0.37305l-0.08105-0.09668c1.75098-0.37549,1.75098-0.5293,1.75098-0.78906    c0-0.09521,0-0.26855-0.68066-1.16064c0.11084-0.43652,0.25244-0.8916,0.45068-1.44922    c0.3623-1.02246,0.26562-2.10986,0.14111-2.94336c-0.22266-1.48877-0.79346-3.59815-2.24902-5.19531    c-1.40332-1.53906-3.39893-1.90576-5.35107-0.98877c-1.42139,0.02979-2.76855,0.84082-3.70752,2.23584    c-1.39844,2.07959-1.76514,4.85645-0.95703,7.24707c0.08643,0.25537,0.16602,0.51074,0.23242,0.771    c0.00537,0.02197,0.02051,0.06787,0.03955,0.12451c0.01709,0.05078,0.04102,0.11523,0.05811,0.17285    c-0.29492,0.37744-0.69824,0.93896-0.69824,1.18604c0,0.26025,0,0.41406,1.75781,0.79053l-0.08057,0.09814    c-0.08594,0.10449-0.10352,0.24951-0.0459,0.37158c0.05762,0.12256,0.18115,0.20068,0.31641,0.20068h1.46228    c-0.03607,0.69971-0.07245,1.36102-0.31726,1.96924c-0.2251,0.57764-0.88379,0.896-1.52148,1.20361    c-0.14307,0.06934-0.28418,0.1377-0.41797,0.20752l-0.66504,0.34277c-0.34326,0.17578-0.68457,0.35107-1.02295,0.52979    c-0.18896,0.1001-0.38428,0.2002-0.58252,0.30127c-0.90381,0.46143-1.83789,0.93896-2.55615,1.63476    c-0.00732,0.00732-0.1123,0.13281-0.11914,0.14062c-0.60254,0.69922-0.87842,1.47217-0.98877,1.86914    c-0.04248,0.15186-0.0127,0.31055,0.08203,0.43604c0.0957,0.12598,0.24756,0.20117,0.40674,0.20117h21.25586    c0.16162,0,0.31641-0.07666,0.41357-0.20557c0.09717-0.12842,0.12744-0.29102,0.0835-0.44434    C31.57806,34.21943,31.30169,33.45185,30.71869,32.77753z" style="fill:#303030;"/><path d="M33.6767,14.06562c-2.69873,0-4.89404,2.1958-4.89404,4.89453s2.19531,4.89404,4.89404,4.89404    s4.89453-2.19531,4.89453-4.89404S36.37543,14.06562,33.6767,14.06562z M36.33002,19.26338h-2.30322v2.30273    c0,0.19336-0.15674,0.3501-0.3501,0.3501s-0.3501-0.15674-0.3501-0.3501v-2.30273h-2.30274    c-0.19336,0-0.3501-0.15674-0.3501-0.3501s0.15674-0.3501,0.3501-0.3501h2.30274v-2.30322c0-0.19336,0.15674-0.3501,0.3501-0.3501    s0.3501,0.15674,0.3501,0.3501v2.30322h2.30322c0.19336,0,0.3501,0.15674,0.3501,0.3501S36.52338,19.26338,36.33002,19.26338z" style="fill:#303030;"/></g></g></svg>