<?xml version="1.0" ?><svg style="enable-background:new 0 0 48 48.00004;" version="1.1" viewBox="0 0 48 48.00004" xml:space="preserve" xmlns="http://www.w3.org/2000/svg" xmlns:xlink="http://www.w3.org/1999/xlink"><g id="Padding__x26__Artboard"/><g id="Icons"><g><path d="M26.23018,21.6318c0.396-1.19385,1.06396-3.85986,0.99561-4.51758    c-0.04639-0.44727-0.15869-0.88379-0.26709-1.30566l-0.06982-0.27295c-0.15039-0.60107-0.31104-1.19922-0.47119-1.79785    l-0.06738-0.25c-0.16797-0.62744-0.9043-0.98535-1.21338-1.10986c-0.55176-0.22266-1.12549-0.24854-1.6167-0.06885    c-0.71631,0.26123-1.46777,0.9458-1.42529,1.83057c0.021,0.4458,0.02441,0.88477,0.02441,1.33154l0.00049,1.69092    c0.00049,0.22949-0.10596,0.6167-0.22363,0.81348l-2.17871,3.65527l-0.96143,1.60498    c-0.03809,0.06299-0.07471,0.12793-0.10547,0.20654c-0.04541,0.03662-0.09277,0.07031-0.15186,0.11182    c-0.18701,0.13232-0.37891,0.25781-0.57178,0.38281l-0.78809,0.50146l-2.79102,0.03967v0.70026v4.48566    c0,0.19336-0.15674,0.3501-0.3501,0.3501s-0.3501-0.15674-0.3501-0.3501v-4.47571V24.488l-1.49316,0.02124    c-0.10455,0.00159-0.19489,0.05084-0.258,0.12439c-0.05505,0.06183-0.09113,0.1413-0.09113,0.23059v9.59961    c0,0.09875,0.0415,0.18719,0.1073,0.25079c0.02765,0.02753,0.06122,0.04803,0.09668,0.06512    c0.00372,0.00171,0.00629,0.00513,0.01001,0.00671c0.04309,0.01892,0.09003,0.0304,0.14001,0.0304c0.00146,0,0.00342,0,0.00537,0    l5.15234-0.07715l1.11768-0.00391l1.04297,0.67529c0.40283,0.26074,0.85547,0.39844,1.31006,0.39844    c0.17529-0.01465,0.35254-0.00781,0.52881-0.01514c0.16699-0.00732,0.33252-0.01416,0.4917-0.01416h5.32031    c0.00879,0,0.01758-0.00049,0.02637-0.00098l4.82178,0.00098h0.00098c1.11475,0,2.02686-0.91064,2.03369-2.03125    c0.00342-0.57324,0.00732-1.16357-0.25732-1.56836c0.55273-0.31201,0.93408-0.90137,0.96191-1.59131    c0.02881-0.7168-0.07373-1.25146-0.31348-1.62402c0.74121-0.24316,1.22363-0.99854,1.22363-2    c0-0.75635-0.17773-1.23633-0.43701-1.5332c0.52734-0.30029,0.90576-0.83838,0.98242-1.47852    c0.08691-0.72656-0.07373-1.36182-0.45264-1.78857c-0.31689-0.35693-0.76367-0.5459-1.29297-0.5459L26.23018,21.6318z     M13.99775,31.15329c0.19336,0,0.3501,0.15674,0.3501,0.3501v0.92871c0,0.19336-0.15674,0.3501-0.3501,0.3501    s-0.3501-0.15674-0.3501-0.3501v-0.92871C13.64766,31.31002,13.80439,31.15329,13.99775,31.15329z" style="fill:#303030;"/></g></g></svg>