<?xml version="1.0" ?><svg style="enable-background:new 0 0 48 48;" version="1.1" viewBox="0 0 48 48" xml:space="preserve" xmlns="http://www.w3.org/2000/svg" xmlns:xlink="http://www.w3.org/1999/xlink"><g id="Padding__x26__Artboard"/><g id="Icons"><g><path d="M31.87428,31.43847c-0.70801-0.68311-1.62891-1.15088-2.52002-1.60303    c-0.19434-0.09912-0.38574-0.19629-0.57129-0.29395c-0.38672-0.2041-0.77539-0.4043-1.16455-0.60449l-0.5249-0.271    c-0.71631-0.37061-1.23389-0.63867-1.51123-1.3418c-0.26221-0.66357-0.28076-0.74561-0.32129-1.40234l0.30029-0.37109    c0.25146-0.37061,0.43066-1.36719,0.50684-1.86035c0.34424-0.14209,0.59668-0.49756,0.71631-0.87354    c0.13574-0.42676,0.26367-0.83008,0.32471-1.35156c0.04443-0.37061,0.10596-0.87793-0.26758-1.24951    c-0.07715-0.07715-0.2124-0.12939-0.3501-0.15771c0.01611-0.30078,0.03418-0.7876,0.05518-1.58887l0.36328-0.27002    c0.10156-0.07568,0.15479-0.20068,0.13818-0.32666l-0.15332-1.15527c-0.02246-0.10986-0.58594-2.69824-3.33105-3.33789    c-2.35693-0.55078-3.90186,0.4751-4.30811,0.79004c-0.56543,0.03809-1.43555,0.34717-1.79883,1.80078    c-0.19092,0.76416-0.11328,1.52734-0.03809,2.26514l0.02734,0.27539c0.03467,0.35938,0.04785,0.71777,0.06299,1.11963    c0.00195,0.05469-0.00098,0.12158-0.00391,0.19287c-0.00293,0.07812-0.00635,0.15918-0.00586,0.24072    c-0.13086,0.03076-0.25293,0.08252-0.32227,0.15137c-0.37451,0.37207-0.31299,0.87939-0.26172,1.30664    c0.05518,0.46875,0.18457,0.87549,0.34082,1.36523c0.10156,0.32031,0.34961,0.66455,0.69385,0.80371    c0.07666,0.49463,0.2583,1.49365,0.52441,1.88428l0.28223,0.34668c-0.04053,0.65674-0.05908,0.73877-0.3208,1.40234    c-0.27734,0.70312-0.79492,0.9707-1.54248,1.35791l-0.50537,0.26074c-0.38525,0.19824-0.77051,0.39648-1.15332,0.59863    c-0.18555,0.09766-0.37695,0.19482-0.57129,0.29346c-0.89062,0.45264-1.81201,0.92041-2.51709,1.60107    c-0.0459,0.04346-0.09033,0.08838-0.13037,0.13623c-0.44336,0.51904-0.78027,1.4126-1.00146,2.65527    c-0.02441,0.13672,0.0127,0.27588,0.10156,0.38232c0.09082,0.1084,0.2251,0.17041,0.36816,0.17041h21.03125    c0.14697,0,0.28516-0.06396,0.37842-0.17529c0.09229-0.10986,0.13086-0.25391,0.10596-0.39697    c-0.22021-1.23145-0.55615-2.11816-0.99707-2.63525C31.96217,31.52539,31.91822,31.48095,31.87428,31.43847z" style="fill:#303030;"/><path d="M36.64283,18.4707h-2.98389v-2.98389c0-0.19336-0.15674-0.3501-0.3501-0.3501    s-0.3501,0.15674-0.3501,0.3501v2.98389h-2.9834c-0.19336,0-0.3501,0.15674-0.3501,0.3501s0.15674,0.3501,0.3501,0.3501h2.9834    v2.9834c0,0.19336,0.15674,0.3501,0.3501,0.3501s0.3501-0.15674,0.3501-0.3501v-2.9834h2.98389    c0.19336,0,0.3501-0.15674,0.3501-0.3501S36.83619,18.4707,36.64283,18.4707z" style="fill:#303030;"/></g></g></svg>