<?xml version="1.0" ?><svg style="enable-background:new 0 0 48 48;" version="1.1" viewBox="0 0 48 48" xml:space="preserve" xmlns="http://www.w3.org/2000/svg" xmlns:xlink="http://www.w3.org/1999/xlink"><g id="Padding__x26__Artboard"/><g id="Icons"><path d="M23.3321,29.02133l0.41309,0.61133c0.05762,0.08594,0.15137,0.1416,0.25391,0.15234   c0.16309,0.0166,0.98535,0.09961,1.17578,0.09961c0.11523,0,0.35449,0,1.00391-0.84668   c0.08398-0.10938,0.0957-0.25684,0.03125-0.37793c-0.33496-0.625-0.5752-0.65234-0.66602-0.66211   c-0.0459-0.00488-0.19238-0.02148-1.80762,0.21582c-0.0791,0.01172-0.15234,0.05078-0.20605,0.10938   c-0.11523,0.125-0.38574,0.41699-0.19922,0.69629C23.33113,29.01938,23.3321,29.02036,23.3321,29.02133z" style="fill:none;"/><path d="M21.48933,30.70004c0.12109,0.26855,0.625,0.6123,0.80371,0.69336   c0.14648,0.06738,0.45703,0.22754,0.69043,0.40332l0.13965,0.10352c0.10547,0.07715,0.18066,0.11817,0.18262,0.12012   c0.07227,0.14258,0.19434,0.21387,0.3623,0.21387c0.15039,0,0.33789-0.05664,0.56152-0.16895   c0.17773-0.08789,0.35449-0.16211,0.3584-0.16406c0.09863-0.04102,0.17383-0.12598,0.20215-0.23047   c0.02832-0.10352,0.00684-0.21484-0.05762-0.30176l-0.21289-0.28125c-0.06543-0.06934-0.13574-0.17969-0.14355-0.20605   c0.03027-0.38574-0.32324-0.58496-0.53418-0.7041l-0.09766-0.05762c-0.0957-0.06152-0.1875-0.22852-0.23633-0.31934   c-0.12598-0.22949-0.33984-0.4043-0.6543-0.53516c-0.2334-0.09766-0.4248-0.08789-0.59277-0.08105   c-0.04883,0.00195-0.10742,0.00488-0.13672,0.00391c-0.06445-0.00098-0.16211,0.0127-0.21191,0.03418   c-0.27734,0.12109-0.26758,0.44336-0.26074,0.67871c0.00098,0.03668,0.00208,0.07056,0.0058,0.07141   c-0.01172,0.039-0.039,0.08783-0.06537,0.13757c-0.09082,0.17871-0.19434,0.38184-0.10352,0.58789   C21.48835,30.69809,21.48933,30.69907,21.48933,30.70004z" style="fill:none;"/><path d="M25.11238,30.83481c-0.1582,0.09375-0.21777,0.29395-0.13574,0.45801l0.16016,0.31934   c-0.2627,0.29883-0.75977,0.8711-0.8916,1.05567c-0.08594,0.12109-0.36035,0.36719-0.52344,0.51367   c-0.12012,0.1084-0.21289,0.19531-0.24219,0.23242c-0.06738,0.08496-0.09668,0.27344-0.07129,0.37793   c0.08984,0.36133,0.54199,0.75391,1.20996,1.05078c0.03613,0.01562,0.0752,0.02539,0.11523,0.02832   c0.00879,0.00098,0.03418,0.00293,0.0752,0.00293c0.46484,0,2.89062-0.20898,5.18066-4.34278   c0.06836-0.12305,0.06152-0.36035-0.02344-0.47168c-0.08691-0.11035-0.24805-0.31543-1.18359-0.06445l-1.24707,0.03418   l-1.18945,0.11523c-0.05078,0.00488-0.09961,0.02148-0.14355,0.04688L25.11238,30.83481z" style="fill:none;"/><path d="M35.51277,11.4979h-7.1709c-0.88281,0-1.60059,0.71777-1.60059,1.60059v9.8584   c0,0.88281,0.71777,1.60059,1.60059,1.60059h3.44867c0.00195-0.00031,0.00348-0.00165,0.00543-0.00195   c0.00854-0.00092,0.01642,0.00232,0.0249,0.00195h3.6919c0.88281,0,1.60059-0.71777,1.60059-1.60059v-9.8584   C37.11335,12.21567,36.39558,11.4979,35.51277,11.4979z M32.70143,21.45285h-0.83765v-5.33789   c-0.20166,0.19238-0.46631,0.3847-0.79333,0.57709c-0.32764,0.19232-0.6214,0.33661-0.88202,0.4328V16.3151   c0.46844-0.22028,0.87799-0.48712,1.22858-0.80048s0.59882-0.61737,0.74463-0.91211h0.53979V21.45285z" style="fill:#303030;"/><path d="M32.23512,25.25669h-0.70343h-3.18982c-1.07129,0-1.96552-0.73865-2.22021-1.73145   c-0.19971,0.33545-0.37354,0.62695-0.37354,0.62695l-0.83398,0.85352l0.14551,0.25098   c0.07422,0.12793,0.06055,0.28906-0.03516,0.40137l-0.75977,0.89941l-0.85547,0.7666   c-0.04297,0.03809-0.0957,0.06543-0.15137,0.0791c-0.83984,0.19824-0.87402,0.19824-0.9209,0.19824   c-0.06445,0.0127-0.55762,0.13086-0.55859,0.13184c-0.03711,0.00879-0.07715,0.01172-0.11426,0.00781   c-0.35352-0.03809-0.8584,0.03613-0.90918,0.22266c-0.10156,0.37891,0.16797,1.02734,0.28223,1.30469   c0.03516,0.08398,0.06152,0.14844,0.07422,0.1875c0.1582,0.47852-0.67383,1.16016-0.68262,1.16504   c-0.06055,0.03711-0.11035,0.05957-0.1748,0.05957c-0.15332,0-0.39355-0.12793-1.07324-0.48828   c-0.14453-0.07715-0.26367-0.14062-0.3125-0.16406c-0.11328-0.05273-0.30176-0.1416-0.71777-1.46484l-0.3125-0.2959   c-0.00391,0-0.7373-0.54492-0.85938-0.61816c-0.19141-0.06836-0.2207-0.24219-0.35938-1.07812   c-0.0332-0.19727-0.06055-0.37305-0.08008-0.4375c-0.03027-0.04004-0.27734-0.29785-0.35059-0.35352   c-0.12207-0.07227-0.24414-0.14453-0.29101-1.39453c0.00195-0.06543,0.05078-0.75098,0.4248-1.27637   c0.16113-0.2334,0.20215-0.63574,0.19238-0.86914c-0.00684,0.00195-0.0127,0.00488-0.01855,0.00684   c-0.00488,0.00195-0.07812,0.02637-0.08398,0.02832c-0.33594,0.10059-0.58789-0.01074-0.79004-0.10156l-0.10742-0.04688   c-0.02441-0.00977-0.11523-0.05859-0.13672-0.07324c-0.17676-0.13086-0.25488-0.32227-0.31738-0.47559   c-0.00391-0.00977-0.00879-0.02051-0.01367-0.03223c-1.98047-0.14941-1.97949-0.16016-1.97949-0.51367   c0-0.06641,0.01855-0.13086,0.05371-0.18652c0.03027-0.04883,3.50683-5.9895,10.0119-4.06921   c0.52533,0.17108,0.98615,0.58289,1.14044,0.72253c0.24316,0.21777,0.29297,0.26367,0.29297,0.42285   c0,0.19336-0.15625,0.34961-0.34961,0.34961H22.8614l1.02441,0.61035c0.12207,0.07227,0.1875,0.21094,0.16797,0.35059   c-0.02051,0.13965-0.12305,0.25391-0.25977,0.28906c-0.58594,0.15039-1.15332,0.31836-1.65918,0.71094   c-0.26465,0.20508-0.45215,0.45312-0.65039,0.73633l0.55664,0.40918c0.12109,0.09082,0.24219,0.1875,0.36328,0.28516   c0.10742,0.08594,0.21484,0.17285,0.32422,0.25488c0.01562-0.0459,0.03125-0.09375,0.0459-0.1416l-0.05664-1.4502   c-0.00488-0.11426,0.04688-0.22363,0.13867-0.29297c0.09082-0.06934,0.21094-0.08984,0.31934-0.05371   c0.00098,0,0.08203,0.02734,0.08301,0.02734c0.18262,0.06055,0.31934,0.10254,0.46582,0.08984l0.3623-0.03711   c0.05273-0.00488,0.14453-0.0127,0.24805,0.02148c0.03613,0.0127,0.12598,0.06641,0.15625,0.08984l0.18945,0.14453   c0.29492,0.21973,0.59961,0.44727,0.79883,0.8291c0.11719,0.22559,0.21582,0.43945,0.22363,0.75   c0.07129-0.04102,0.14258-0.08203,0.2002-0.11621l0.13867-0.07941v-4.67932v-0.77216   c-1.48444-0.72467-3.12848-1.12439-4.80469-1.12439c-6.09277,0-11.0498,4.95215-11.0498,11.03906   c0,6.08789,4.95703,11.04004,11.0498,11.04004c6.08691,0,11.03906-4.95215,11.03906-11.04004   C32.27644,25.8234,32.25984,25.53281,32.23512,25.25669z M27.0362,27.0604l0.01465-0.09863   c0.00684-0.06152,0.01562-0.14551,0.05273-0.23047c0.01758-0.04297,0.06055-0.12207,0.09961-0.16797l-0.00098-0.00098   c0.00488-0.00586,0.00977-0.01074,0.01562-0.01562c0.00293-0.00195,0.00488-0.00391,0.00781-0.00586   c0.0459-0.03613,0.1084-0.06641,0.16211-0.0791c0.14062-0.04297,0.26367-0.04102,0.37695-0.04199l0.47852-0.0293   c0.25879-0.02051,0.51855-0.04297,0.77637-0.06934c0.12305-0.00879,0.24316,0.04199,0.31641,0.13965   c0.04785,0.06543,0.14551,0.24219,0.00977,0.48535c-0.25,0.42773-0.5,0.85547-0.84668,1.22363   c-0.07129,0.07812-0.15625,0.15918-0.27539,0.21387c-0.10547,0.0498-0.20605,0.06348-0.28711,0.07422l-0.7002,0.09277   c-0.01562,0.00195-0.03125,0.00293-0.04688,0.00293c-0.09473,0-0.18652-0.03809-0.25293-0.10742   c-0.07715-0.08105-0.11133-0.19336-0.0918-0.30371L27.0362,27.0604z M27.53523,30.02915l1.24707-0.03418   c0.93555-0.25098,1.09668-0.0459,1.18359,0.06445c0.08496,0.11133,0.0918,0.34863,0.02344,0.47168   c-2.29004,4.13379-4.71582,4.34278-5.18066,4.34278c-0.04102,0-0.06641-0.00195-0.0752-0.00293   c-0.04004-0.00293-0.0791-0.0127-0.11523-0.02832c-0.66797-0.29688-1.12012-0.68945-1.20996-1.05078   c-0.02539-0.10449,0.00391-0.29297,0.07129-0.37793c0.0293-0.03711,0.12207-0.12402,0.24219-0.23242   c0.16309-0.14648,0.4375-0.39258,0.52344-0.51367c0.13184-0.18457,0.62891-0.75684,0.8916-1.05567l-0.16016-0.31934   c-0.08203-0.16406-0.02246-0.36426,0.13574-0.45801l1.08984-0.64355c0.04395-0.02539,0.09277-0.04199,0.14355-0.04688   L27.53523,30.02915z M23.53034,28.32309c0.05371-0.05859,0.12695-0.09766,0.20605-0.10938   c1.61523-0.2373,1.76172-0.2207,1.80762-0.21582c0.09082,0.00977,0.33105,0.03711,0.66602,0.66211   c0.06445,0.12109,0.05273,0.26855-0.03125,0.37793c-0.64941,0.84668-0.88867,0.84668-1.00391,0.84668   c-0.19043,0-1.0127-0.08301-1.17578-0.09961c-0.10254-0.01074-0.19629-0.06641-0.25391-0.15234l-0.41309-0.61133   c0-0.00098-0.00098-0.00195-0.00098-0.00195C23.1446,28.74008,23.41511,28.44809,23.53034,28.32309z M21.59187,30.1102   c0.02637-0.04974,0.05365-0.09857,0.06537-0.13757c-0.00372-0.00085-0.00482-0.03473-0.0058-0.07141   c-0.00684-0.23535-0.0166-0.55762,0.26074-0.67871c0.0498-0.02148,0.14746-0.03516,0.21191-0.03418   c0.0293,0.00098,0.08789-0.00195,0.13672-0.00391c0.16797-0.00684,0.35938-0.0166,0.59277,0.08105   c0.31445,0.13086,0.52832,0.30566,0.6543,0.53516c0.04883,0.09082,0.14062,0.25781,0.23633,0.31934l0.09766,0.05762   c0.21094,0.11914,0.56445,0.31836,0.53418,0.7041c0.00781,0.02637,0.07812,0.13672,0.14355,0.20605l0.21289,0.28125   c0.06445,0.08691,0.08594,0.19824,0.05762,0.30176c-0.02832,0.10449-0.10352,0.18945-0.20215,0.23047   c-0.00391,0.00195-0.18066,0.07617-0.3584,0.16406c-0.22363,0.1123-0.41113,0.16895-0.56152,0.16895   c-0.16797,0-0.29004-0.07129-0.3623-0.21387c-0.00195-0.00195-0.07715-0.04297-0.18262-0.12012l-0.13965-0.10352   c-0.2334-0.17578-0.54395-0.33594-0.69043-0.40332c-0.17871-0.08105-0.68262-0.4248-0.80371-0.69336   c0-0.00098-0.00098-0.00195-0.00098-0.00195C21.39753,30.49204,21.50105,30.28891,21.59187,30.1102z" style="fill:#303030;"/></g></svg>