<?xml version="1.0" ?><svg style="enable-background:new 0 0 48 48;" version="1.1" viewBox="0 0 48 48" xml:space="preserve" xmlns="http://www.w3.org/2000/svg" xmlns:xlink="http://www.w3.org/1999/xlink"><g id="Padding__x26__Artboard"/><g id="Icons"><g><path d="M24.00024,14.24976c-6.31348,0-11.4502,4.05518-11.4502,9.04004    c0,3.22485,2.16357,6.16089,5.65546,7.7774l-1.76385,2.10834c-0.10205,0.12207-0.10889,0.29785-0.0166,0.42773    c0.06738,0.09424,0.17432,0.14697,0.28516,0.14697c0.0415,0,0.08398-0.00732,0.12451-0.02295l4.38483-1.66791    c0.91583,0.17603,1.84991,0.27045,2.7807,0.27045c6.31348,0,11.44971-4.05518,11.44971-9.04004    S30.31372,14.24976,24.00024,14.24976z M26.54468,29.29028c0.14941-0.02832,0.29785-0.06006,0.44385-0.09521    c0.18359-0.04395,0.37695,0.07031,0.42236,0.2583s-0.07031,0.37695-0.2583,0.42236    c-0.15771,0.03809-0.31689,0.07178-0.47803,0.10205c-0.02197,0.00439-0.04395,0.00635-0.06543,0.00635    c-0.16504,0-0.31152-0.11719-0.34326-0.28516C26.22974,29.50903,26.35474,29.32593,26.54468,29.29028z M29.80933,28.79517    c-0.30664,0.18604-0.63379,0.35791-0.97266,0.50977c-0.14355,0.06445-0.29004,0.12549-0.43945,0.18311    c-0.0415,0.01611-0.08447,0.02393-0.12646,0.02393c-0.14014,0-0.27246-0.08496-0.32617-0.22363    c-0.06982-0.18018,0.01953-0.38281,0.19971-0.45264c0.1377-0.05371,0.27344-0.10986,0.40625-0.16943    c0.31201-0.14014,0.61328-0.29785,0.89502-0.46924c1.86475-1.13281,2.93359-2.82959,2.93359-4.65527    c0-0.19336,0.15674-0.3501,0.3501-0.3501s0.3501,0.15674,0.3501,0.3501C33.07935,25.61792,31.88745,27.53247,29.80933,28.79517z" style="fill:#303030;"/></g></g></svg>