<?xml version="1.0" ?><svg enable-background="new 0 0 24 24" id="Layer_1" version="1.1" viewBox="0 0 24 24" xml:space="preserve" xmlns="http://www.w3.org/2000/svg" xmlns:xlink="http://www.w3.org/1999/xlink"><g><path d="M24,11c0-1.6542969-1.3457031-3-3-3c-1.0861816,0-2.0631714,0.5935669-2.5894775,1.5177612   C16.793457,8.637207,14.7421875,8.0891113,12.5,8.0164795V4.1025391l5.5137329,1.0335083C18.085144,6.1746826,18.9440308,7,20,7   c1.1025391,0,2-0.8969727,2-2s-0.8974609-2-2-2c-0.7988892,0-1.4848633,0.4740601-1.8049927,1.1531372l-6.1032104-1.1443481   c-0.1435547-0.0268555-0.2958984,0.0117188-0.4111328,0.1064453C11.5664063,3.2104492,11.5,3.3510742,11.5,3.5v4.5164795   C9.2578125,8.0891113,7.206543,8.637207,5.5894775,9.5177612C5.0631714,8.5935669,4.0861816,8,3,8c-1.6542969,0-3,1.3457031-3,3   c0,1.2966309,0.8519287,2.4334106,2.052124,2.8348999C2.0177612,14.0535889,2,14.2755127,2,14.5C2,18.0839844,6.4863281,21,12,21   s10-2.9160156,10-6.5c0-0.2244873-0.0177612-0.4464111-0.052124-0.6651001C23.1480713,13.4334106,24,12.2966309,24,11z" fill="#313C42"/><circle cx="20" cy="5" fill="#FFFFFF" r="1"/><path d="M1,11c0-1.1030273,0.8974609-2,2-2c0.7341309,0,1.3776245,0.4207153,1.7233887,1.055481   c-1.1316528,0.7822876-1.9650269,1.7449341-2.3925171,2.8151855C1.5512695,12.5921631,1,11.8488159,1,11z" fill="#FFFFFF"/><ellipse cx="12" cy="14.5" fill="#FFFFFF" rx="9" ry="5.5"/><path d="M21.6691284,12.8706665c-0.4274902-1.0703125-1.2608643-2.0328369-2.3925171-2.8151855   C19.6223755,9.4207153,20.2658691,9,21,9c1.1025391,0,2,0.8969727,2,2C23,11.8488159,22.4487305,12.5922241,21.6691284,12.8706665z   " fill="#FFFFFF"/><path d="M16.3056641,17.0390625c-3.0703125,1.2929688-5.5410156,1.2929688-8.6113281,0   c-0.2568469-0.1069336-0.546875,0.0126953-0.6552734,0.2670898c-0.1074219,0.2543945,0.0126953,0.5473633,0.2666016,0.6547852   C8.9667969,18.6601563,10.5019531,19,12,19s3.0332031-0.3398438,4.6943359-1.0390625   c0.2539063-0.1074219,0.3740234-0.4003906,0.2666016-0.6547852S16.5615234,16.9331055,16.3056641,17.0390625z" fill="#313C42"/><circle cx="8.5" cy="13.5" fill="#F58020" r="1.5"/><circle cx="15.5" cy="13.5" fill="#F58020" r="1.5"/><linearGradient gradientUnits="userSpaceOnUse" id="SVGID_1_" x1="1.9729794" x2="22.1913147" y1="6.1041522" y2="15.5321169"><stop offset="0" style="stop-color:#FFFFFF;stop-opacity:0.2"/><stop offset="1" style="stop-color:#FFFFFF;stop-opacity:0"/></linearGradient><path d="M24,11c0-1.6542969-1.3457031-3-3-3c-1.0861816,0-2.0631714,0.5935669-2.5894775,1.5177612   C16.793457,8.637207,14.7421875,8.0891113,12.5,8.0164795V4.1025391l5.5137329,1.0335083C18.085144,6.1746826,18.9440308,7,20,7   c1.1025391,0,2-0.8969727,2-2s-0.8974609-2-2-2c-0.7988892,0-1.4848633,0.4740601-1.8049927,1.1531372l-6.1032104-1.1443481   c-0.1435547-0.0268555-0.2958984,0.0117188-0.4111328,0.1064453C11.5664063,3.2104492,11.5,3.3510742,11.5,3.5v4.5164795   C9.2578125,8.0891113,7.206543,8.637207,5.5894775,9.5177612C5.0631714,8.5935669,4.0861816,8,3,8c-1.6542969,0-3,1.3457031-3,3   c0,1.2966309,0.8519287,2.4334106,2.052124,2.8348999C2.0177612,14.0535889,2,14.2755127,2,14.5C2,18.0839844,6.4863281,21,12,21   s10-2.9160156,10-6.5c0-0.2244873-0.0177612-0.4464111-0.052124-0.6651001C23.1480713,13.4334106,24,12.2966309,24,11z" fill="url(#SVGID_1_)"/></g><g/><g/><g/><g/><g/><g/><g/><g/><g/><g/><g/><g/><g/><g/><g/></svg>