<?xml version="1.0" ?><svg enable-background="new 0 0 24 24" id="Layer_1" version="1.1" viewBox="0 0 24 24" xml:space="preserve" xmlns="http://www.w3.org/2000/svg" xmlns:xlink="http://www.w3.org/1999/xlink"><g><path d="M16.21875,3.8046398c-2.1162109-1.1430414-4.3232422-3.6112492-4.3447266-3.6361511   C11.7626953,0.0430032,11.59375-0.020472,11.4287109,0.0058946c-0.1669922,0.0239253-0.3095703,0.1303682-0.3818359,0.2822204   C11.0361328,0.3120403,9.9091797,2.677223,8.2158203,3.6513228C3.8994141,5.1630087,1,9.1209297,1,13.5002289   C1,19.2896538,5.9345703,24,12,24s11-4.7103462,11-10.4997711C23,9.2420216,20.3388672,5.4393697,16.21875,3.8046398z" fill="#1BA8E1"/><path d="M8.2158203,3.9013174c1.6933594-0.9740999,2.8203125-3.3392825,2.8310547-3.3632078   c0.0722656-0.1518522,0.2148438-0.2582951,0.3818359-0.2822204c0.1650391-0.0263666,0.3339844,0.0371086,0.4453125,0.1625941   c0.0214844,0.0249018,2.2285156,2.4931097,4.3447266,3.6361513c4.0733032,1.6161757,6.7159424,5.352056,6.7756348,9.5514278   C22.994751,13.5704184,23,13.5359335,23,13.5002289c0-4.2582073-2.6611328-8.0608597-6.78125-9.6955891   c-2.1162109-1.1430414-4.3232422-3.6112492-4.3447266-3.6361511C11.7626953,0.0430032,11.59375-0.020472,11.4287109,0.0058946   c-0.1669922,0.0239253-0.3095703,0.1303682-0.3818359,0.2822204C11.0361328,0.3120403,9.9091797,2.677223,8.2158203,3.6513228   C3.8994141,5.1630087,1,9.1209297,1,13.5002289c0,0.0369253,0.0053711,0.0725088,0.0057983,0.1093121   C1.0674438,9.2866983,3.9459229,5.3967071,8.2158203,3.9013174z" fill="#FFFFFF" opacity="0.2"/><path d="M12,23.75c-6.0267944,0-10.9318848-4.6518555-10.9942017-10.390686   C1.005127,13.4064331,1,13.4528198,1,13.5C1,19.2895508,5.9345703,24,12,24s11-4.7104492,11-10.5   c0-0.0484009-0.0049438-0.0958862-0.0056152-0.144165C22.93396,19.0962524,18.0280151,23.75,12,23.75z" fill="#010101" opacity="0.1"/><g><path d="M19,12c-1.0068359,0-1.5976563,0.4794922-2.578125,1.2734375    c-0.3704834,0.2999878-0.8200073,0.6620483-1.3832397,1.078064C12.5076294,11.9570313,10.9283447,11,9.5,11    C6.4082031,11,5,13.0732422,5,15c0,2.2055664,1.7939453,4,4,4c1.8600464,0,4.8215332-2.3440552,5.9284058-3.2785645    C15.6713867,16.6462402,17.3081665,18.5,18.5,18.5c1.5488281,0,2.5-2.0385742,2.5-3.5C21,12.2924805,19.6015625,12,19,12z" fill="#FFFFFF"/><path d="M12.9033203,19.7949219C13.3945313,19.1230469,13.8261719,19,14.5,19    c0.1874895,0,0.3369141,0.0527344,0.421875,0.1484375c0.0849609,0.0952148,0.0908203,0.2119141,0.0820313,0.2929688    c-0.0332031,0.2744141,0.1630859,0.5229492,0.4375,0.5551758C15.4619141,19.9990234,15.4814453,20,15.5009766,20    c0.25,0,0.4658203-0.1870117,0.4951172-0.4414063c0.0478516-0.4023438-0.0683594-0.7841797-0.3271484-1.074707    C15.3916016,18.171875,14.9765625,18,14.5,18c-0.7910156,0-1.6298828,0.1459961-2.4033203,1.2050781    c-0.1630859,0.2226563-0.1142578,0.5356445,0.1083984,0.6987305    C12.4267578,20.0664063,12.7402344,20.019043,12.9033203,19.7949219z" fill="#FFFFFF"/><path d="M15.7705078,20.5556641c-1.2675781,0.6552734-3.9189453,0.5522461-5.0488281-0.0039063    c-0.2451172-0.1201172-0.546875-0.0224609-0.6699219,0.2270508c-0.1220703,0.2475586-0.0205078,0.5473633,0.2265625,0.6694336    c0.7128906,0.3520508,1.8730469,0.5561523,3.0429688,0.5561523c1.0742188,0,2.1572266-0.1723633,2.9082031-0.5600586    c0.2451172-0.1269531,0.3417969-0.4282227,0.2148438-0.6738281    C16.3173828,20.5244141,16.0136719,20.4311523,15.7705078,20.5556641z" fill="#FFFFFF"/></g><linearGradient gradientUnits="userSpaceOnUse" id="SVGID_1_" x1="2.4312034" x2="22.2025757" y1="8.2212248" y2="17.4407673"><stop offset="0" style="stop-color:#FFFFFF;stop-opacity:0.2"/><stop offset="1" style="stop-color:#FFFFFF;stop-opacity:0"/></linearGradient><path d="M16.21875,3.8046398c-2.1162109-1.1430414-4.3232422-3.6112492-4.3447266-3.6361511   C11.7626953,0.0430032,11.59375-0.020472,11.4287109,0.0058946c-0.1669922,0.0239253-0.3095703,0.1303682-0.3818359,0.2822204   C11.0361328,0.3120403,9.9091797,2.677223,8.2158203,3.6513228C3.8994141,5.1630087,1,9.1209297,1,13.5002289   C1,19.2896538,5.9345703,24,12,24s11-4.7103462,11-10.4997711C23,9.2420216,20.3388672,5.4393697,16.21875,3.8046398z" fill="url(#SVGID_1_)"/></g><g/><g/><g/><g/><g/><g/><g/><g/><g/><g/><g/><g/><g/><g/><g/></svg>