<?xml version="1.0" ?><svg enable-background="new 0 0 24 24" id="Layer_1" version="1.1" viewBox="0 0 24 24" xml:space="preserve" xmlns="http://www.w3.org/2000/svg" xmlns:xlink="http://www.w3.org/1999/xlink"><g><path d="M12,0C5.3828125,0,0,4.2617188,0,9.5c0,1.9306641,0.7246094,3.7880859,2.0957031,5.3701172   l0.2978516,0.34375l3.2724609-2.3291016l-0.3925781-0.4179688C4.4404297,11.5800781,4,10.5537109,4,9.5   C4,6.4677734,7.5888672,4,12,4s8,2.4677734,8,5.5c0,1.0615234-0.5761719,2.0546875-1.6210938,2.7978516   C16.7050781,13.4882813,14.2363281,13.8056641,12,13.1367188V7H8v11.5c0,0.6650391-0.1357422,1.0986328-0.3818359,1.2207031   c-0.4072266,0.2050781-1.3251953-0.2480469-1.8164063-0.6191406L5,18.4951172v4.2167969l0.1523438,0.1474609   C5.2001953,22.9052734,6.3476563,24,8,24c1.6699219,0,4-1.7119141,4-4.5v-2.3691406   c3.6054688,0.7724609,6.8066406,0.2441406,9.0683594-1.515625C22.9589844,14.1435547,24,11.9716797,24,9.5   C24,4.2617188,18.6171875,0,12,0z" fill="#E83829"/><rect fill="#FFFFFF" height="0.25" opacity="0.2" width="4" x="8" y="7"/><path d="M18.3789063,12.2978516C16.7050781,13.4882813,14.2363281,13.8056641,12,13.1367188v0.25   c2.2363281,0.6689453,4.7050781,0.3515625,6.3789063-0.8388672C19.4238281,11.8046875,20,10.8115234,20,9.75   c0-0.0547485-0.0096436-0.1078491-0.0119629-0.1622314C19.956665,10.6155396,19.3944702,11.5755615,18.3789063,12.2978516z" fill="#FFFFFF" opacity="0.2"/><path d="M7.6181641,19.9707031C7.8642578,19.8486328,8,19.4150391,8,18.75V18.5   c0,0.6650391-0.1357422,1.0986328-0.3818359,1.2207031c-0.4072266,0.2050781-1.3251953-0.2480469-1.8164063-0.6191406L5,18.4951172   v0.25l0.8017578,0.6064453C6.2929688,19.7226563,7.2109375,20.1757813,7.6181641,19.9707031z" fill="#FFFFFF" opacity="0.2"/><path d="M12,0C5.3828125,0,0,4.2617188,0,9.5c0,0.0483398,0.0058594,0.0960083,0.0067749,0.1442261   C0.0794678,4.4550171,5.4279175,0.25,12,0.25c6.5688477,0,11.914917,4.2009888,11.9927368,9.3866577   C23.9934692,9.5905762,24,9.5463257,24,9.5C24,4.2617188,18.6171875,0,12,0z" fill="#FFFFFF" opacity="0.2"/><path d="M8,23.75c-1.6523438,0-2.7998047-1.0947266-2.8476563-1.140625L5,22.4619141v0.25   l0.1523438,0.1474609C5.2001953,22.9052734,6.3476563,24,8,24c1.6699219,0,4-1.7119141,4-4.5v-0.25   C12,22.0380859,9.6699219,23.75,8,23.75z" fill="#010101" opacity="0.1"/><path d="M2.0957031,14.8709555l0.2978516,0.34375l3.2724609-2.3291016l-0.1407471-0.1498413   l-3.1317139,2.2289429l-0.2978516-0.34375c-1.336792-1.5424194-2.0535889-3.347229-2.0889282-5.2258911   C0.0062866,9.4307089,0,9.4651327,0,9.5008383C0,11.4315023,0.7246094,13.2889242,2.0957031,14.8709555z" fill="#010101" opacity="0.1"/><path d="M21.0683594,15.3652344C18.8066406,17.125,15.6054688,17.6533203,12,16.8808594v0.25   c3.6054688,0.7724609,6.8066406,0.2441406,9.0683594-1.515625C22.9589844,14.1435547,24,11.9716797,24,9.5   c0-0.038269-0.0067139-0.0751953-0.0072632-0.1133423C23.9545898,11.8009033,22.923584,13.9211426,21.0683594,15.3652344z" fill="#010101" opacity="0.1"/><path d="M12,4c4.3314819,0,7.8616333,2.3809204,7.9880371,5.3377686   C19.9889526,9.3080444,20,9.2798462,20,9.25c0-3.0322266-3.5888672-5.5-8-5.5s-8,2.4677734-8,5.5   c0,0.03479,0.0098267,0.0686646,0.0108032,0.1033936C4.1252441,6.3892822,7.6608276,4,12,4z" fill="#010101" opacity="0.1"/><linearGradient gradientUnits="userSpaceOnUse" id="SVGID_1_" x1="0.3917556" x2="21.4494934" y1="6.9607735" y2="16.7801571"><stop offset="0" style="stop-color:#FFFFFF;stop-opacity:0.2"/><stop offset="1" style="stop-color:#FFFFFF;stop-opacity:0"/></linearGradient><path d="M12,0C5.3828125,0,0,4.2617188,0,9.5c0,1.9306641,0.7246094,3.7880859,2.0957031,5.3701172   l0.2978516,0.34375l3.2724609-2.3291016l-0.3925781-0.4179688C4.4404297,11.5800781,4,10.5537109,4,9.5   C4,6.4677734,7.5888672,4,12,4s8,2.4677734,8,5.5c0,1.0615234-0.5761719,2.0546875-1.6210938,2.7978516   C16.7050781,13.4882813,14.2363281,13.8056641,12,13.1367188V7H8v11.5c0,0.6650391-0.1357422,1.0986328-0.3818359,1.2207031   c-0.4072266,0.2050781-1.3251953-0.2480469-1.8164063-0.6191406L5,18.4951172v4.2167969l0.1523438,0.1474609   C5.2001953,22.9052734,6.3476563,24,8,24c1.6699219,0,4-1.7119141,4-4.5v-2.3691406   c3.6054688,0.7724609,6.8066406,0.2441406,9.0683594-1.515625C22.9589844,14.1435547,24,11.9716797,24,9.5   C24,4.2617188,18.6171875,0,12,0z" fill="url(#SVGID_1_)"/></g><g/><g/><g/><g/><g/><g/><g/><g/><g/><g/><g/><g/><g/><g/><g/></svg>