<?xml version="1.0" ?><svg enable-background="new 0 0 24 24" id="Layer_1" version="1.1" viewBox="0 0 24 24" xml:space="preserve" xmlns="http://www.w3.org/2000/svg" xmlns:xlink="http://www.w3.org/1999/xlink"><g><path d="M19.9438648,0.7163523C19.4897633,0.0498077,17.9726734,0.0180675,17.4575367,0   c-2.8413086,0.2431789-5.0078125,0.965391-6.4404297,2.146127C7.8286309,4.772264,6.0000176,8.6367579,6.0000176,12.7488251   c0,0.6699629,0.0493164,1.3448086,0.1464844,2.0059814c0.0195313,0.1333094-0.0771484,0.1875114-0.1362305,0.2080212   c-0.0712891,0.024415-0.1674805,0.0307636-0.2294922-0.0781298c-0.9389648-1.6636763-1.3759766-3.5607643-1.2631836-5.4856863   C4.5674005,8.556675,4.7387872,7.7153149,5.0278497,6.8973937c0.1459961-0.4126229-0.0209961-0.852591-0.40625-1.0698895   C4.2358575,5.6092291,3.7729669,5.6941953,3.4951348,6.0325947c-1.6816407,2.0460234-2.565918,4.6330957-2.4907227,7.2846241   C1.1650566,18.9869995,5.7226739,23.671854,11.3803883,23.98242C11.5903492,23.9941406,11.7988453,24,12.0073414,24   c2.8266602,0,5.4887695-1.0567055,7.5532227-3.0109253c2.2182617-2.0997391,3.4394531-4.9373131,3.4394531-7.9902344   C23.0000172,5.4178109,20.2568531,1.1753647,19.9438648,0.7163523z" fill="#68B345"/><path d="M4.6215997,6.0791016C4.8723931,6.2205811,5.0182061,6.4592285,5.057879,6.720459   c0.0496826-0.3556519-0.1063232-0.7052612-0.4362793-0.8913574C4.2358575,5.6108398,3.7729669,5.6958008,3.4951348,6.0341797   c-1.6816407,2.0458984-2.565918,4.6328125-2.4907227,7.2841797c0.0004272,0.0150146,0.0029297,0.02948,0.003418,0.0444336   c-0.0248412-2.5790405,0.8493042-5.0858154,2.4873047-7.0786133C3.7729669,5.9458008,4.2358575,5.8608398,4.6215997,6.0791016z" fill="#FFFFFF" opacity="0.2"/><path d="M11.017107,2.3961422c1.4326172-1.1807361,3.5991211-1.9029481,6.4404297-2.146127   c0.5151367,0.0180675,2.0322266,0.0498077,2.4863281,0.7163523c0.3105469,0.4554111,3.0100708,4.6396265,3.0523071,12.1095648   c0.0001831-0.0259418,0.0038452-0.0511503,0.0038452-0.0770922c0-7.5810294-2.7431641-11.8234758-3.0561523-12.2824879   C19.4897633,0.0498077,17.9726734,0.0180675,17.4575367,0c-2.8413086,0.2431789-5.0078125,0.965391-6.4404297,2.146127   C7.8286309,4.772264,6.0000176,8.6367579,6.0000176,12.7488251c0,0.0501738,0.0049438,0.1004696,0.0054932,0.1506443   C6.0349298,8.8248796,7.8545098,5.0009155,11.017107,2.3961422z" fill="#FFFFFF" opacity="0.2"/><path d="M19.560564,20.7385712c-2.0644531,1.9542198-4.7265625,3.0109253-7.5532227,3.0109253   c-0.2084961,0-0.4169922-0.0058594-0.6269531-0.01758C5.7376275,23.4221458,1.1912407,18.7607269,1.00783,13.1111517   c0.0006714,0.0687304-0.0053711,0.1367884-0.003418,0.2055788c0.1606445,5.6697807,4.7182617,10.3546352,10.3759766,10.6652012   c0.2099609,0.0117207,0.418457,0.01758,0.6269531,0.01758c2.8266602,0,5.4887695-1.0567055,7.5532227-3.0109253   c2.2182617-2.0997391,3.4394531-4.9373131,3.4394531-7.9902344c0-0.059269-0.00354-0.1140814-0.0038452-0.1729231   C22.9756031,15.8486843,21.7599659,18.6566563,19.560564,20.7385712z" fill="#010101" opacity="0.1"/><linearGradient gradientUnits="userSpaceOnUse" id="SVGID_1_" x1="2.8011165" x2="22.7454891" y1="6.7043557" y2="16.0045681"><stop offset="0" style="stop-color:#FFFFFF;stop-opacity:0.2"/><stop offset="1" style="stop-color:#FFFFFF;stop-opacity:0"/></linearGradient><path d="M19.9438648,0.7163523C19.4897633,0.0498077,17.9726734,0.0180675,17.4575367,0   c-2.8413086,0.2431789-5.0078125,0.965391-6.4404297,2.146127C7.8286309,4.772264,6.0000176,8.6367579,6.0000176,12.7488251   c0,0.6699629,0.0493164,1.3448086,0.1464844,2.0059814c0.0195313,0.1333094-0.0771484,0.1875114-0.1362305,0.2080212   c-0.0712891,0.024415-0.1674805,0.0307636-0.2294922-0.0781298c-0.9389648-1.6636763-1.3759766-3.5607643-1.2631836-5.4856863   C4.5674005,8.556675,4.7387872,7.7153149,5.0278497,6.8973937c0.1459961-0.4126229-0.0209961-0.852591-0.40625-1.0698895   C4.2358575,5.6092291,3.7729669,5.6941953,3.4951348,6.0325947c-1.6816407,2.0460234-2.565918,4.6330957-2.4907227,7.2846241   C1.1650566,18.9869995,5.7226739,23.671854,11.3803883,23.98242C11.5903492,23.9941406,11.7988453,24,12.0073414,24   c2.8266602,0,5.4887695-1.0567055,7.5532227-3.0109253c2.2182617-2.0997391,3.4394531-4.9373131,3.4394531-7.9902344   C23.0000172,5.4178109,20.2568531,1.1753647,19.9438648,0.7163523z" fill="url(#SVGID_1_)"/></g><g/><g/><g/><g/><g/><g/><g/><g/><g/><g/><g/><g/><g/><g/><g/></svg>