<?xml version="1.0" ?><svg enable-background="new 0 0 24 24" id="Layer_1" version="1.1" viewBox="0 0 24 24" xml:space="preserve" xmlns="http://www.w3.org/2000/svg" xmlns:xlink="http://www.w3.org/1999/xlink"><g><g><circle cx="12" cy="12" fill="#EF473B" r="12"/></g><path d="M12.5,4.5C8.9160156,4.5,6,7.3248901,6,10.796875v5.8125C6,18.4787598,7.5703125,20,9.5,20   c1.765625,0,3.2304688-1.2733765,3.4667969-2.9223633C16.3339844,16.8453979,19,14.1170044,19,10.796875   C19,7.3248901,16.0839844,4.5,12.5,4.5z M12.5,15.15625H11v1.453125c0,0.8012695-0.6728516,1.453125-1.5,1.453125   S8,17.4106445,8,16.609375v-5.8125C8,8.3929443,10.0185547,6.4375,12.5,6.4375S17,8.3929443,17,10.796875   C17,13.2007446,14.9814453,15.15625,12.5,15.15625z" fill="#FFFFFF"/><path d="M12.5,15.15625H11v1.453125c0,0.8012695-0.6728516,1.453125-1.5,1.453125   S8,17.4106445,8,16.609375v-5.8125C8,8.3929443,10.0185547,6.4375,12.5,6.4375S17,8.3929443,17,10.796875   C17,13.2007446,14.9814453,15.15625,12.5,15.15625z" fill="#010101" opacity="0.1"/><path d="M12.5,6.6875c2.4372559,0,4.4168091,1.8894653,4.4869385,4.234375   C16.9882202,10.8793945,17,10.8396606,17,10.796875C17,8.3929443,14.9814453,6.4375,12.5,6.4375S8,8.3929443,8,10.796875v0.25   C8,8.6429443,10.0185547,6.6875,12.5,6.6875z" fill="#010101" opacity="0.1"/><path d="M12.5,8.859375c-1.1025391,0-2,0.8689423-2,1.9375v1.9375h2c1.1025391,0,2-0.8689423,2-1.9375   S13.6025391,8.859375,12.5,8.859375z" fill="#FFFFFF"/><path d="M12,0.25c5.3285522,0,9.8440552,3.4422607,11.4705811,8.2207642   C21.9632568,3.565979,17.3988037,0,12,0S2.0368042,3.565979,0.5294189,8.4706421C2.1559448,3.6922607,6.6713867,0.25,12,0.25z" fill="#FFFFFF" opacity="0.2"/><path d="M12,23.75c-4.7450914,0-8.8374472-2.6986141-10.8253527-6.6640053   c-0.2444347-0.4875889-0.4570514-0.9943295-0.6351512-1.5175619c0.1608156,0.5232897,0.3563147,1.0308924,0.5838224,1.5202017   C3.02824,21.1856155,7.1771917,24,12,24c4.6758442,0,8.7214317-2.6558895,10.7003746-6.5535698   c0.305975-0.6026421,0.5625458-1.234972,0.7644005-1.8917618c-0.1286106,0.3778324-0.2752476,0.7471523-0.4388905,1.1069431   C21.1199665,20.8520508,16.9072742,23.75,12,23.75z" fill="#010101" opacity="0.1"/><linearGradient gradientUnits="userSpaceOnUse" id="SVGID_1_" x1="11.4806824" x2="20.1554031" y1="12.1393738" y2="20.8140945"><stop offset="0" style="stop-color:#010101;stop-opacity:0.1"/><stop offset="1" style="stop-color:#010101;stop-opacity:0"/></linearGradient><path d="M17.1825562,6.4375l-0.0014648,0.00177C18.3047485,7.5716553,19,9.105896,19,10.796875   c0,3.3201294-2.6660156,6.0485229-6.0332031,6.2807617C12.7304688,18.7266235,11.265625,20,9.5,20   c-1.0893555,0-2.0519409-0.494873-2.694397-1.253418L6.75,18.8125l5.1842041,5.1842041C11.9564209,23.9968262,11.9777832,24,12,24   c6.2241211,0,11.3399658-4.7390137,11.9396973-10.8054199L17.1825562,6.4375z" fill="url(#SVGID_1_)"/><linearGradient gradientUnits="userSpaceOnUse" id="SVGID_2_" x1="1.1217111" x2="22.8782883" y1="6.9273705" y2="17.0726299"><stop offset="0" style="stop-color:#FFFFFF;stop-opacity:0.2"/><stop offset="1" style="stop-color:#FFFFFF;stop-opacity:0"/></linearGradient><circle cx="12" cy="12" fill="url(#SVGID_2_)" r="12"/></g><g/><g/><g/><g/><g/><g/><g/><g/><g/><g/><g/><g/><g/><g/><g/></svg>