<?xml version="1.0" ?><svg enable-background="new 0 0 24 24" id="Layer_1" version="1.1" viewBox="0 0 24 24" xml:space="preserve" xmlns="http://www.w3.org/2000/svg" xmlns:xlink="http://www.w3.org/1999/xlink"><g><path d="M12,0C5.3828125,0,0,5.3828125,0,12s5.3828125,12,12,12s12-5.3828125,12-12S18.6171875,0,12,0z" fill="#F47920"/><path d="M12,2C6.4863281,2,2,6.4863281,2,12s4.4863281,10,10,10s10-4.4863281,10-10S17.5136719,2,12,2z" fill="#FFFFFF"/><path d="M12,21.75c-3.9661055,0-7.4026546-2.2843246-9.0842714-5.6013927   c-0.0481429-0.0949631-0.0948472-0.190774-0.1400845-0.2874012c0.0510082,0.1213503,0.1043444,0.2414913,0.1599524,0.3603668   C4.5305033,19.6310825,7.9943371,22,12,22c3.7037315,0,6.9441013-2.0248833,8.6722927-5.0252857   c0.2061367-0.3578835,0.3907585-0.7296467,0.5520859-1.1135082c-0.194334,0.4151459-0.4157448,0.8152027-0.661953,1.1978474   C18.7494831,19.8766327,15.5920172,21.75,12,21.75z" fill="#010101" opacity="0.1"/><path d="M12,3c-4.9628906,0-9,4.0371094-9,9c0,0.0478516,0.0029297,0.0957031,0.0107422,0.2226563   C3.1064453,13.6269531,3.8691406,14.5,5,14.5c0.9755859,0,1.9384766-0.5537109,2.7119141-1.5576172   c1.2304688-1.5976563,1.7734375-3.9882813,1.4521484-6.1816406c3.0507813,1.2021484,4.5986328,3.4736328,5.8623047,5.328125   C16.0908203,13.6503906,17.0097656,15,18.5,15c2.1777344,0,2.4926682-2.8296051,2.5-3C21.2133236,7.0416961,16.9628906,3,12,3z" fill="#F47920"/><path d="M12,3c-4.9628906,0-9,4.0371094-9,9c0,0.0478516,0.0029297,0.0957031,0.0107422,0.2226563   C3.1064453,13.6269531,3.8691406,14.5,5,14.5c0.9755859,0,1.9384766-0.5537109,2.7119141-1.5576172   c1.2304688-1.5976563,1.7734375-3.9882813,1.4521484-6.1816406c3.0507813,1.2021484,4.5986328,3.4736328,5.8623047,5.328125   C16.0908203,13.6503906,17.0097656,15,18.5,15c2.1777344,0,2.4926682-2.8296051,2.5-3C21.2133236,7.0416961,16.9628906,3,12,3z" fill="#010101" opacity="0.1"/><path d="M12,0.25c5.3213501,0,9.8378563,3.4220867,11.4659691,8.1991863   C21.95718,3.5462322,17.3914795,0,12,0S2.0428202,3.5462322,0.534031,8.4491863C2.1621439,3.6720867,6.6786499,0.25,12,0.25z" fill="#FFFFFF" opacity="0.2"/><path d="M12,23.75c-4.9705777,0-9.2389212-2.9858017-11.1069479-7.2727509   c-0.1318263-0.3025303-0.2516987-0.6115389-0.3590207-0.9264355c0.120821,0.3926191,0.2612445,0.7765388,0.4201247,1.1506329   C2.779341,20.9989796,7.0402603,24,12,24c4.5497475,0,8.5114346-2.5253754,10.54426-6.2603397   c0.2081795-0.3824921,0.3961315-0.7776718,0.5624123-1.184124c0.1341133-0.3278217,0.2541313-0.6629763,0.3592968-1.0047226   c-0.2567768,0.7534199-0.5854015,1.473135-0.9776974,2.1510353C20.3931961,21.3222198,16.4820938,23.75,12,23.75z" fill="#010101" opacity="0.1"/><path d="M12,3.25c4.9046631,0,8.8980713,3.9447021,8.991272,8.8275757   C20.9958496,12.0405884,20.9994812,12.0121183,21,12c0.2124672-4.9583406-4.0371094-9-9-9s-9,4.0371094-9,9   c0,0.0333862,0.0021973,0.0771484,0.0057373,0.1372681C3.0669556,7.2268066,7.0751953,3.25,12,3.25z" fill="#010101" opacity="0.1"/><linearGradient gradientUnits="userSpaceOnUse" id="SVGID_1_" x1="1.1247724" x2="22.875227" y1="6.9287982" y2="17.0712013"><stop offset="0" style="stop-color:#FFFFFF;stop-opacity:0.2"/><stop offset="1" style="stop-color:#FFFFFF;stop-opacity:0"/></linearGradient><path d="M12,0C5.3828125,0,0,5.3828125,0,12s5.3828125,12,12,12s12-5.3828125,12-12S18.6171875,0,12,0z" fill="url(#SVGID_1_)"/></g><g/><g/><g/><g/><g/><g/><g/><g/><g/><g/><g/><g/><g/><g/><g/></svg>