<?xml version="1.0" ?><svg enable-background="new 0 0 24 24" id="Layer_1" version="1.1" viewBox="0 0 24 24" xml:space="preserve" xmlns="http://www.w3.org/2000/svg" xmlns:xlink="http://www.w3.org/1999/xlink"><g><polygon fill="#09B060" points="14.8320313,13 19.9794922,3.628418 19.9794922,0 15.1889648,0 12.9916992,4 4,4 4,11 9.1469727,11    4,20.371582 4,24 8.7905273,24 10.9873047,20 20,20 20,13  "/><polygon fill="#FFFFFF" opacity="0.2" points="15.1889648,0.25 19.9794922,0.25 19.9794922,0 15.1889648,0 12.9916992,4 4,4    4,4.25 12.9916992,4.25  "/><polygon fill="#FFFFFF" opacity="0.2" points="14.8320313,13 14.6947021,13.25 20,13.25 20,13  "/><polygon fill="#010101" opacity="0.1" points="4,10.75 4,11 9.1469727,11 9.2843018,10.75  "/><polygon fill="#010101" opacity="0.1" points="8.7905273,23.75 4,23.75 4,24 8.7905273,24 10.9873047,20 20,20 20,19.75    10.9873047,19.75  "/><linearGradient gradientUnits="userSpaceOnUse" id="SVGID_1_" x1="2.3628404" x2="21.6334972" y1="7.5109" y2="16.496954"><stop offset="0" style="stop-color:#FFFFFF;stop-opacity:0.2"/><stop offset="1" style="stop-color:#FFFFFF;stop-opacity:0"/></linearGradient><polygon fill="url(#SVGID_1_)" points="14.8320313,13 19.9794922,3.628418 19.9794922,0 15.1889648,0 12.9916992,4 4,4 4,11    9.1469727,11 4,20.371582 4,24 8.7905273,24 10.9873047,20 20,20 20,13  "/></g><g/><g/><g/><g/><g/><g/><g/><g/><g/><g/><g/><g/><g/><g/><g/></svg>