<?xml version="1.0" ?><svg enable-background="new 0 0 24 24" id="Layer_1" version="1.1" viewBox="0 0 24 24" xml:space="preserve" xmlns="http://www.w3.org/2000/svg" xmlns:xlink="http://www.w3.org/1999/xlink"><g><path d="M22,5H2C0.8954468,5,0,5.8953857,0,7v8c0,1.1045532,0.8954468,2,2,2h10.4000244L16,19l-0.666687-2H22   c1.1045532,0,2-0.8954468,2-2V7C24,5.8953857,23.1045532,5,22,5z" fill="#B96FAE"/><path d="M22,5H2C0.8954468,5,0,5.8953857,0,7v0.25c0-1.1046143,0.8954468-2,2-2h20   c1.1045532,0,2,0.8953857,2,2V7C24,5.8953857,23.1045532,5,22,5z" fill="#FFFFFF" opacity="0.2"/><path d="M22,16.75h-6.75L15.333313,17H22c1.1045532,0,2-0.8954468,2-2v-0.25   C24,15.8545532,23.1045532,16.75,22,16.75z" fill="#010101" opacity="0.1"/><path d="M2,16.75c-1.1045532,0-2-0.8954468-2-2V15c0,1.1045532,0.8954468,2,2,2h10.4000244L16,19   l-0.1022949-0.3068237L12.4000244,16.75H2z" fill="#010101" opacity="0.1"/><g id="XMLID_1426_"><path d="M9,15c-0.0751953,0-0.1503906-0.0170898-0.2202148-0.0512695    C7.5522461,14.347168,6.9106445,12.0522461,6.359375,9.7514648c-0.2983398,0.6157227-0.675293,1.4335938-0.9863281,2.1079102    C3.9257813,15,3.909668,15,3.5,15c-0.5683594,0-0.6020508,0-1.2231445-5.2177734    C2.1762695,8.9375,2.0820313,8.1445313,2.0043945,7.5664063C1.9677734,7.2929688,2.159668,7.0410156,2.4335938,7.0043945    C2.7070313,6.9682617,2.9589844,7.159668,2.9956055,7.4335938c0.078125,0.581543,0.1733398,1.3803711,0.2744141,2.2304688    c0.125,1.0517578,0.2900391,2.4384766,0.4311523,3.418457c0.2436523-0.5131836,0.5253906-1.1245117,0.7636719-1.6416016    C6.0507813,8,6.0844727,8,6.5,8c0.46875,0,0.5449219,0.3193359,0.8295898,1.5087891    c0.232904,0.972168,0.6494141,2.7128906,1.2124023,3.7524414c0.0996094-1.8081055,0.4345703-5.112793,1.5629883-6.5678711    c0.1694336-0.2172852,0.4833984-0.2578125,0.7016602-0.0883789c0.2177734,0.1689453,0.2578125,0.4833984,0.0883789,0.7016602    C9.8789063,8.6171875,9.5,12.4140625,9.5,14.5c0,0.1723633-0.0888672,0.3330078-0.2353516,0.4243164    C9.184082,14.9746094,9.0922852,15,9,15z" fill="#FFFFFF"/></g><g id="XMLID_1425_"><path d="M12.9160156,15c-0.5063477,0-0.9716797-0.2260742-1.3100586-0.637207    c-0.5498047-0.6665039-0.7397461-1.7724609-0.5087891-2.9584961C11.4692383,9.4956055,12.7807617,8,14.0839844,8    c0.5063477,0,0.9716797,0.2260742,1.3100586,0.637207c0.5498047,0.6665039,0.7397461,1.7724609,0.5087891,2.9584961    C15.5307617,13.5043945,14.2192383,15,12.9160156,15z M14.0839844,9c-0.7094727,0-1.7075195,1.065918-2.0053711,2.5957031    c-0.171875,0.8823242-0.0571289,1.6992188,0.2988281,2.1313477C12.5288086,13.9106445,12.7050781,14,12.9160156,14    c0.7094727,0,1.7075195-1.065918,2.0053711-2.5957031c0.171875-0.8823242,0.0571289-1.6992188-0.2988281-2.1313477    C14.4711914,9.0893555,14.2949219,9,14.0839844,9z" fill="#FFFFFF"/></g><g id="XMLID_1424_"><path d="M18.9160156,15c-0.5063477,0-0.9716797-0.2260742-1.3100586-0.637207    c-0.5498047-0.6665039-0.7397461-1.7724609-0.5087891-2.9584961C17.4692383,9.4956055,18.7807617,8,20.0839844,8    c0.5063477,0,0.9716797,0.2260742,1.3100586,0.637207c0.5498047,0.6665039,0.7397461,1.7724609,0.5087891,2.9584961    C21.5307617,13.5043945,20.2192383,15,18.9160156,15z M20.0839844,9c-0.7094727,0-1.7075195,1.065918-2.0053711,2.5957031    c-0.171875,0.8823242-0.0571289,1.6992188,0.2988281,2.1313477C18.5288086,13.9106445,18.7050781,14,18.9160156,14    c0.7094727,0,1.7075195-1.065918,2.0053711-2.5957031c0.171875-0.8823242,0.0571289-1.6992188-0.2988281-2.1313477    C20.4711914,9.0893555,20.2949219,9,20.0839844,9z" fill="#FFFFFF"/></g><linearGradient gradientUnits="userSpaceOnUse" id="SVGID_1_" x1="5.197464" x2="20.1537857" y1="4.7183075" y2="19.6746292"><stop offset="0" style="stop-color:#010101;stop-opacity:0.1"/><stop offset="1" style="stop-color:#010101;stop-opacity:0"/></linearGradient><path d="M8.5419922,13.2612305c0.0452271-0.8209229,0.1442261-1.9505005,0.3386841-3.0752563   L6.9550171,8.2603149L6.9542847,8.2611694C7.0813599,8.482605,7.1756592,8.8655396,7.3295898,9.5087891   C7.5624938,10.480957,7.9790039,12.2216797,8.5419922,13.2612305z M12.3774414,13.7270508   C12.5288086,13.9106445,12.7050781,14,12.9160156,14c0.7094727,0,1.7075195-1.065918,2.0053711-2.5957031   c0.171875-0.8823242,0.0571289-1.6992188-0.2988281-2.1313477C14.4711914,9.0893555,14.2949219,9,14.0839844,9   c-0.7094727,0-1.7075195,1.065918-2.0053711,2.5957031C11.9067383,12.4780273,12.0214844,13.2949219,12.3774414,13.7270508z    M18.9160156,14c0.7094727,0,1.7075195-1.065918,2.0053711-2.5957031c0.171875-0.8823242,0.0571289-1.6992188-0.2988281-2.1313477   C20.4711914,9.0893555,20.2949219,9,20.0839844,9c-0.7094727,0-1.7075195,1.065918-2.0053711,2.5957031   c-0.171875,0.8823242-0.0571289,1.6992188,0.2988281,2.1313477C18.5288086,13.9106445,18.7050781,14,18.9160156,14z    M3.7011719,13.0825195c0.2436523-0.5131836,0.5253906-1.1245117,0.7636719-1.6416016   c0.3554077-0.7711792,0.6297607-1.3618164,0.8510132-1.8260498L2.8083496,7.1074219l0.000061,0.0009155   c0.0986328,0.0775757,0.1692505,0.190979,0.1871948,0.3252563c0.078125,0.581543,0.1733398,1.3803711,0.2744141,2.2304688   C3.3950195,10.7158203,3.5600586,12.1025391,3.7011719,13.0825195z M21.4656372,8.7572632   c0.4854736,0.6742554,0.6561279,1.7141724,0.4371948,2.8384399C21.5307617,13.5043945,20.2192383,15,18.9160156,15   c-0.5063477,0-0.9716797-0.2260742-1.3100586-0.637207c-0.5498047-0.6665039-0.7397461-1.7724609-0.5087891-2.9584961   c0.0562134-0.2883301,0.1398315-0.562561,0.2356567-0.8283081L15.394043,8.637207   c0.5498047,0.6665039,0.7397461,1.7724609,0.5087891,2.9584961C15.5307617,13.5043945,14.2192383,15,12.9160156,15   c-0.5063477,0-0.9716797-0.2260742-1.3100586-0.637207c-0.5498047-0.6665039-0.7397461-1.7724609-0.5087891-2.9584961   c0.2393188-1.2276001,0.8688965-2.27771,1.6333008-2.8755493l-1.9238281-1.9237671   c0.2177734,0.1689453,0.2578125,0.4833984,0.0883789,0.7016602C9.8789063,8.6171875,9.5,12.4140625,9.5,14.5   c0,0.1723633-0.0888672,0.3330078-0.2353516,0.4243164C9.184082,14.9746094,9.0922852,15,9,15   c-0.0751953,0-0.1503906-0.0170898-0.2202148-0.0512695C7.5522461,14.347168,6.9106445,12.0522461,6.359375,9.7514648   c-0.2983398,0.6157227-0.675293,1.4335938-0.9863281,2.1079102C3.9257813,15,3.909668,15,3.5,15   c-0.1256104,0-0.2241821-0.0033569-0.3096924-0.0596313L5.249939,17h7.1500854L16,19l-0.666687-2H22c1.1045532,0,2-0.8954468,2-2   v-3.708374L21.4656372,8.7572632z" fill="url(#SVGID_1_)"/><linearGradient gradientUnits="userSpaceOnUse" id="SVGID_2_" x1="0.4409216" x2="23.5590725" y1="5.6099081" y2="16.3900795"><stop offset="0" style="stop-color:#FFFFFF;stop-opacity:0.2"/><stop offset="1" style="stop-color:#FFFFFF;stop-opacity:0"/></linearGradient><path d="M22,5H2C0.8954468,5,0,5.8953857,0,7v8c0,1.1045532,0.8954468,2,2,2h10.4000244L16,19l-0.666687-2   H22c1.1045532,0,2-0.8954468,2-2V7C24,5.8953857,23.1045532,5,22,5z" fill="url(#SVGID_2_)"/></g><g/><g/><g/><g/><g/><g/><g/><g/><g/><g/><g/><g/><g/><g/><g/></svg>