<?xml version="1.0" ?><svg enable-background="new 0 0 24 24" id="Layer_1" version="1.1" viewBox="0 0 24 24" xml:space="preserve" xmlns="http://www.w3.org/2000/svg" xmlns:xlink="http://www.w3.org/1999/xlink"><g><polygon fill="#E78424" id="XMLID_1457_" points="15,1 11,2.5714285 11,23 15,21.4285717  "/><path d="M0,15.4835205c0,4.1421509,6.1017456,7.5,11,7.5v-2.0358276   c-4.4994507-0.3043213-8-2.6334229-8-5.4641724c0-2.8308105,3.5005493-5.1598511,8-5.4641724V8   C4.8825684,8.171936,0,11.4514771,0,15.4835205z" fill="#CCCCCC" id="XMLID_1462_"/><path d="M21.3843384,10.5608521l-0.0091553,0.0061035   C19.7747803,9.317688,17.5217285,8.3649902,15,8v1.9580688c1.8306885,0.2542114,3.4857788,0.8999023,4.7058716,1.7217407   L18,12.8170776l6,1.1817236V8.8170776L21.3843384,10.5608521z" fill="#CCCCCC" id="XMLID_1466_"/><linearGradient gradientUnits="userSpaceOnUse" id="SVGID_1_" x1="2.9722033" x2="22.5460987" y1="7.9892249" y2="17.1166821"><stop offset="0" style="stop-color:#FFFFFF;stop-opacity:0.2"/><stop offset="1" style="stop-color:#FFFFFF;stop-opacity:0"/></linearGradient><path d="M21.3751831,10.5669556C19.7747803,9.317688,17.5217285,8.3649902,15,8V1l-4,1.5714111V8   C4.8825684,8.171936,0,11.4514771,0,15.4835205c0,4.1421509,6.1017456,7.5,11,7.5V23l4-1.5714722V9.9580688   c1.8306885,0.2542114,3.4857788,0.8999023,4.7058716,1.7217407L18,12.8170776l6,1.1817017V8.8170776L21.3751831,10.5669556z    M11,20.9476929c-4.4994507-0.3043213-8-2.6334229-8-5.4641724c0-2.8308105,3.5005493-5.1598511,8-5.4641724V20.9476929z" fill="url(#SVGID_1_)"/></g><g/><g/><g/><g/><g/><g/><g/><g/><g/><g/><g/><g/><g/><g/><g/></svg>