<?xml version="1.0" ?><svg enable-background="new 0 0 24 24" id="Layer_1" version="1.1" viewBox="0 0 24 24" xml:space="preserve" xmlns="http://www.w3.org/2000/svg" xmlns:xlink="http://www.w3.org/1999/xlink"><g><path d="M21.9824162,1.3681641C21.9228458,1.1513672,21.7255802,1,21.4999943,1h-5   c-0.1557617,0-0.3027344,0.0722656-0.3974609,0.1962891c-0.0942383,0.1240234-0.1259766,0.2841797-0.0849609,0.4345703   c0.0087891,0.0322266,0.8754883,3.2822266,0.9726563,9.2705078c0.0009766,0.0527344,0.0102539,0.1054688,0.0273438,0.1552734   l4.0097656,11.6064453C21.0971622,22.8652344,21.9999943,23,21.9999943,23s1-4.1787109,1-11   S22.0239201,1.5205078,21.9824162,1.3681641z" fill="#478FCC"/><g id="XMLID_1543_"><path d="M11.4999943,19c0.5-2.5,1.3881445-5.3364916,1.9588232-7.3294115L8.9999943,5    c0,1.1708984-0.2059326,4.1661987-1,7" fill="#FEC111"/></g><g id="XMLID_1547_"><path d="M8.9999943,5c4.416667,7.291667,6.041667,13.166666,7,18h6    c-0.958334-4.833334-2.5625038-10.708333-6.979167-18H8.9999943z" fill="#EF4438"/></g><path d="M6.871088,9.1650391C6.7763615,9.0595703,6.6415958,9,6.4999943,9h-5   C1.3022403,9,1.1235293,9.1162109,1.0429629,9.296875C0.9628848,9.4775391,0.9965762,9.6884766,1.1289004,9.8349609   c2.4135742,2.671875,3.7929688,6.9511719,4.3125,8.5625l0.0830078,0.2578125C5.5917912,18.8603516,5.7836857,19,5.9999943,19h5.5   C10.9628849,17.3330078,9.4282169,11.9960938,6.871088,9.1650391z" fill="#4DAF4E"/><path d="M15.9488468,22.75c0.0167236,0.0828247,0.0348511,0.1677856,0.0511475,0.25h6   c-0.0162964-0.0822144-0.0344238-0.1671753-0.0510864-0.25H15.9488468z" fill="#010101" opacity="0.1"/><path d="M1.1289004,9.5849609C1.0765322,9.5269775,1.0523623,9.4544678,1.0318545,9.3822021   C0.992853,9.5415039,1.0165957,9.7106323,1.1289004,9.8349609c0.878235,0.972229,1.617859,2.1575317,2.2306519,3.3494873   C2.7994938,11.9178467,2.0784855,10.6361694,1.1289004,9.5849609z" fill="#010101" opacity="0.1"/><path d="M5.8349552,18.75c-0.1264038,0-0.2345581-0.0568848-0.3243408-0.1374512l0.0137939,0.0427246   C5.5917912,18.8603516,5.7836857,19,5.9999943,19h5.5c-0.0236816-0.0735474-0.0518188-0.1626587-0.0794067-0.25H5.8349552z" fill="#010101" opacity="0.1"/><path d="M16.0183048,1.633728c0.0161133-0.0665894,0.041626-0.1314087,0.0842285-0.187439   C16.1972599,1.3222656,16.3442326,1.25,16.4999943,1.25h5.0881958c0.2003784,0,0.3634033,0.130249,0.4424438,0.3088989   c-0.0256348-0.1054688-0.0435181-0.173584-0.0482178-0.1907349C21.9228458,1.1513672,21.7255802,1,21.4999943,1h-5   c-0.1557617,0-0.3027344,0.0722656-0.3974609,0.1962891c-0.0942383,0.1240234-0.1259766,0.2841797-0.0849609,0.4345703   C16.0175724,1.6308594,16.0182438,1.6334839,16.0183048,1.633728z" fill="#FFFFFF" opacity="0.2"/><path d="M15.1680851,5.25c-0.050354-0.0839844-0.0961914-0.1656494-0.1472778-0.25h-6.020813   c0.0510864,0.0843506,0.0969849,0.1660156,0.1473389,0.25H15.1680851z" fill="#FFFFFF" opacity="0.2"/><path d="M1.0429629,9.546875C1.1235293,9.3662109,1.3022403,9.25,1.4999942,9.25h5.3789063   c0.0267944,0,0.0508423,0.0120239,0.0769043,0.0162354C6.9271183,9.2335205,6.9000187,9.1970825,6.871088,9.1650391   C6.7763615,9.0595703,6.6415958,9,6.4999943,9h-5C1.3022403,9,1.1235293,9.1162109,1.0429629,9.296875   C0.994562,9.4060669,1.0004824,9.5217896,1.0318545,9.6322021C1.0388125,9.6038208,1.0308169,9.5742188,1.0429629,9.546875z" fill="#FFFFFF" opacity="0.2"/><linearGradient gradientUnits="userSpaceOnUse" id="SVGID_1_" x1="7.0702915" x2="12.6732273" y1="12.2238312" y2="17.826767"><stop offset="0" style="stop-color:#010101;stop-opacity:0.1"/><stop offset="1" style="stop-color:#010101;stop-opacity:0"/></linearGradient><path d="M8.2435246,11.0505981l0.0009766,0.0039673C9.98559,13.932312,11.067194,17.6567993,11.4999943,19   c0.2441406-1.2207642,0.5810547-2.5209351,0.9281616-3.7647095L8.2435246,11.0505981z" fill="url(#SVGID_1_)"/><linearGradient gradientUnits="userSpaceOnUse" id="SVGID_2_" x1="14.5019627" x2="24.3938389" y1="10.7142792" y2="20.6061554"><stop offset="0" style="stop-color:#010101;stop-opacity:0.1"/><stop offset="1" style="stop-color:#010101;stop-opacity:0"/></linearGradient><path d="M16.8958073,8.3204346l0.005127,0.0194702   C19.9199162,14.1138306,21.1927433,18.9284668,21.9999943,23c0,0,0.7697144-3.2192383,0.958313-8.6170044L16.8958073,8.3204346z" fill="url(#SVGID_2_)"/><linearGradient gradientUnits="userSpaceOnUse" id="SVGID_3_" x1="3.0431461" x2="25.5057888" y1="5.0072985" y2="15.4818001"><stop offset="0" style="stop-color:#FFFFFF;stop-opacity:0.2"/><stop offset="1" style="stop-color:#FFFFFF;stop-opacity:0"/></linearGradient><path d="M21.9824162,1.3681641C21.9228458,1.1513672,21.7255802,1,21.4999943,1h-5   c-0.1557617,0-0.3027344,0.0722656-0.3974609,0.1962891c-0.0942383,0.1240234-0.1259766,0.2841797-0.0849609,0.4345703   c0.0074463,0.0272217,0.6262817,2.3613892,0.87677,6.6964111C16.331171,7.2507935,15.7142887,6.1448364,15.0208073,5h-6.020813   c0,1.0404053-0.1651611,3.5213623-0.7584839,6.0494385C7.8225651,10.357605,7.3665714,9.713623,6.871088,9.1650391   C6.7763615,9.0595703,6.6415958,9,6.4999943,9h-5C1.3022403,9,1.1235293,9.1162109,1.0429629,9.296875   C0.9628848,9.4775391,0.9965762,9.6884766,1.1289004,9.8349609c2.4135742,2.671875,3.7929688,6.9511719,4.3125,8.5625   l0.0830078,0.2578125C5.5917912,18.8603516,5.7836857,19,5.9999943,19h5.5   c0.3955688-1.9779053,1.0322266-4.1600342,1.56427-5.9747925c1.5310669,3.7581177,2.3573608,7.0578003,2.93573,9.9747925h6   c0,0,1-4.1787109,1-11S22.0239201,1.5205078,21.9824162,1.3681641z" fill="url(#SVGID_3_)"/></g><g/><g/><g/><g/><g/><g/><g/><g/><g/><g/><g/><g/><g/><g/><g/></svg>