<?xml version="1.0" ?><svg enable-background="new 0 0 24 24" id="Layer_1" version="1.1" viewBox="0 0 24 24" xml:space="preserve" xmlns="http://www.w3.org/2000/svg" xmlns:xlink="http://www.w3.org/1999/xlink"><g><path d="M14.9804688,10.0327148C14.7421875,7.2177734,12.375,5,9.5,5   C7.0244141,5,4.8710938,6.6591797,4.2119141,9.0078125C4.1416016,9.0029297,4.0712891,9,4,9c-2.2060547,0-4,1.7944336-4,4   s1.7939453,4,4,4h10.5c1.9296875,0,3.5-1.5703125,3.5-3.5C18,11.7329102,16.6835938,10.2675781,14.9804688,10.0327148z M14.5,16H4   c-1.6542969,0-3-1.3457031-3-3s1.3457031-3,3-3c0.1748047,0,0.34375,0.0244141,0.5107422,0.0527344   c0.5993652,0.1095581,1.1768799,0.3927002,1.6103516,0.8256836c0.0976563,0.0976563,0.2255859,0.1464844,0.3535156,0.1464844   s0.2558594-0.0488281,0.3535156-0.1464844c0.1953125-0.1953125,0.1953125-0.5117188,0-0.7070313   C6.3721313,9.7150269,5.8212891,9.3852539,5.2167358,9.1930542C5.7859497,7.321167,7.5079346,6,9.5,6   c2.4814453,0,4.5,2.0185547,4.5,4.5c0,0.0252686-0.0002441,0.111145-0.0009766,0.1333008   c-0.0146484,0.5268555-0.1230469,1.0444336-0.3203125,1.5375977c-0.1025391,0.2563477,0.0214844,0.5473633,0.2783203,0.6503906   c0.0605469,0.0244141,0.1230469,0.0356445,0.1855469,0.0356445c0.1982422,0,0.3857422-0.1186523,0.4638672-0.3139648   c0.1936035-0.4821167,0.2964478-0.9862061,0.3474731-1.4970703C16.1160889,11.260498,17,12.2769775,17,13.5   C17,14.878418,15.8789063,16,14.5,16z" fill="#303C42"/><g><g id="XMLID_1461_"><path d="M19.6054688,17.1542969c-0.0898438,0-0.1806641-0.0239258-0.2626953-0.074707     c-0.2353516-0.1450195-0.3076172-0.453125-0.1630859-0.6879883C19.7167969,15.5229492,20,14.5292969,20,13.519043     c0-1.0209961-0.2880859-2.0229492-0.8339844-2.8969727c-0.1464844-0.2338867-0.0751953-0.5424805,0.1591797-0.6889648     c0.2324219-0.1445313,0.5419922-0.074707,0.6884766,0.159668C20.6591797,11.1254883,21,12.3105469,21,13.519043     c0,1.1962891-0.3349609,2.3710938-0.96875,3.3979492C19.9365234,17.0703125,19.7724609,17.1542969,19.6054688,17.1542969z" fill="#303C42"/></g><g id="XMLID_1459_"><path d="M22,19c-0.0957031,0-0.1923828-0.0273438-0.2773438-0.0839844     c-0.2294922-0.1533203-0.2919922-0.4638672-0.1386719-0.6933594C22.5107422,16.8334961,23,15.2006836,23,13.5     s-0.4892578-3.3334961-1.4160156-4.7226563c-0.1533203-0.2294922-0.0908203-0.5400391,0.1386719-0.6933594     c0.2265625-0.152832,0.5390625-0.0922852,0.6933594,0.1386719C23.4521484,9.7763672,24,11.6015625,24,13.5     s-0.5478516,3.7236328-1.5839844,5.2773438C22.3193359,18.921875,22.1611328,19,22,19z" fill="#303C42"/></g></g><path d="M4,9.25c0.071106,0,0.1364136,0.0193481,0.2064819,0.0230713   C4.852478,6.9537964,6.9748535,5.25,9.5,5.25c2.8850098,0,5.2468262,2.2224731,5.4771729,5.0480957   c1.6621094,0.2288208,2.9465942,1.6130371,3.0107422,3.3216553C17.9893188,13.5791016,18,13.5410156,18,13.5   c0-1.7695313-1.3178101-3.2171631-3.0228271-3.4519043C14.7468262,7.2224731,12.3850098,5,9.5,5   C6.9748535,5,4.852478,6.7037964,4.2064819,9.0230713C4.1364136,9.0193481,4.071106,9,4,9c-2.2091675,0-4,1.7908325-4,4   c0,0.0428467,0.0112305,0.0825195,0.0125732,0.125C0.0801392,10.9750366,1.8336792,9.25,4,9.25z" fill="#FFFFFF" opacity="0.1"/><path d="M14.5,16.75H4c-2.1663208,0-3.9198608-1.7250977-3.9874268-3.875   C0.0112305,12.9174805,0,12.9571533,0,13c0,2.2091064,1.7908325,4,4,4h10.5c1.9329834,0,3.5-1.5670166,3.5-3.5   c0-0.0445557-0.010437-0.0861206-0.012085-0.130249C17.9233398,15.2460327,16.3919678,16.75,14.5,16.75z" fill="#010101" opacity="0.2"/><path d="M21.5839844,18.2226563c-0.1533203,0.2294922-0.0908203,0.5400391,0.1386719,0.6933594   C21.8076172,18.9726563,21.9042969,19,22,19c0.1611328,0,0.3193359-0.078125,0.4160156-0.2226563   C23.4521484,17.2236328,24,15.3984375,24,13.5h-1C23,15.2006836,22.5107422,16.8334961,21.5839844,18.2226563z" fill="#010101" opacity="0.2"/><path d="M20,13.519043c0,1.0102539-0.2832031,2.0039063-0.8203125,2.8725586   c-0.1445313,0.2348633-0.0722656,0.5429688,0.1630859,0.6879883c0.0820313,0.0507813,0.1728516,0.074707,0.2626953,0.074707   c0.1669922,0,0.3310547-0.0839844,0.4257813-0.2373047C20.6650391,15.8901367,21,14.715332,21,13.519043   c0-0.0064087-0.0013428-0.0126343-0.0013428-0.019043h-1C19.9986572,13.5064087,20,13.5126343,20,13.519043z" fill="#010101" opacity="0.2"/><linearGradient gradientUnits="userSpaceOnUse" id="SVGID_1_" x1="2.104599" x2="23.1670818" y1="7.6002569" y2="17.421854"><stop offset="0" style="stop-color:#FFFFFF;stop-opacity:0.2"/><stop offset="1" style="stop-color:#FFFFFF;stop-opacity:0"/></linearGradient><path d="M14.9804688,10.0327148C14.7421875,7.2177734,12.375,5,9.5,5   C7.0244141,5,4.8710938,6.6591797,4.2119141,9.0078125C4.1416016,9.0029297,4.0712891,9,4,9c-2.2060547,0-4,1.7944336-4,4   s1.7939453,4,4,4h10.5c1.9296875,0,3.5-1.5703125,3.5-3.5C18,11.7329102,16.6835938,10.2675781,14.9804688,10.0327148z M14.5,16H4   c-1.6542969,0-3-1.3457031-3-3s1.3457031-3,3-3c0.1748047,0,0.34375,0.0244141,0.5107422,0.0527344   c0.5993652,0.1095581,1.1768799,0.3927002,1.6103516,0.8256836c0.0976563,0.0976563,0.2255859,0.1464844,0.3535156,0.1464844   s0.2558594-0.0488281,0.3535156-0.1464844c0.1953125-0.1953125,0.1953125-0.5117188,0-0.7070313   C6.3721313,9.7150269,5.8212891,9.3852539,5.2167358,9.1930542C5.7859497,7.321167,7.5079346,6,9.5,6   c2.4814453,0,4.5,2.0185547,4.5,4.5c0,0.0252686-0.0002441,0.111145-0.0009766,0.1333008   c-0.0146484,0.5268555-0.1230469,1.0444336-0.3203125,1.5375977c-0.1025391,0.2563477,0.0214844,0.5473633,0.2783203,0.6503906   c0.0605469,0.0244141,0.1230469,0.0356445,0.1855469,0.0356445c0.1982422,0,0.3857422-0.1186523,0.4638672-0.3139648   c0.1936035-0.4821167,0.2964478-0.9862061,0.3474731-1.4970703C16.1160889,11.260498,17,12.2769775,17,13.5   C17,14.878418,15.8789063,16,14.5,16z M22.4160156,8.2226563c-0.1542969-0.230957-0.4667969-0.2915039-0.6933594-0.1386719   c-0.2294922,0.1533203-0.2919922,0.4638672-0.1386719,0.6933594C22.5107422,10.1665039,23,11.7993164,23,13.5   s-0.4892578,3.3334961-1.4160156,4.7226563c-0.1533203,0.2294922-0.0908203,0.5400391,0.1386719,0.6933594   C21.8076172,18.9726563,21.9042969,19,22,19c0.1611328,0,0.3193359-0.078125,0.4160156-0.2226563   C23.4521484,17.2236328,24,15.3984375,24,13.5S23.4521484,9.7763672,22.4160156,8.2226563z M19.3251953,9.9331055   c-0.234375,0.1464844-0.3056641,0.4550781-0.1591797,0.6889648C19.7119141,11.4960938,20,12.4980469,20,13.519043   c0,1.0102539-0.2832031,2.0039063-0.8203125,2.8725586c-0.1445313,0.2348633-0.0722656,0.5429688,0.1630859,0.6879883   c0.0820313,0.0507813,0.1728516,0.074707,0.2626953,0.074707c0.1669922,0,0.3310547-0.0839844,0.4257813-0.2373047   C20.6650391,15.8901367,21,14.715332,21,13.519043c0-1.2084961-0.3408203-2.3935547-0.9863281-3.4262695   C19.8671875,9.8583984,19.5576172,9.7885742,19.3251953,9.9331055z" fill="url(#SVGID_1_)"/></g><g/><g/><g/><g/><g/><g/><g/><g/><g/><g/><g/><g/><g/><g/><g/></svg>