<?xml version="1.0" ?><svg enable-background="new 0 0 24 24" id="Layer_1" version="1.1" viewBox="0 0 24 24" xml:space="preserve" xmlns="http://www.w3.org/2000/svg" xmlns:xlink="http://www.w3.org/1999/xlink"><g><path d="M21,23H3c-1.1045696,0-2-0.8954296-2-2V3c0-1.1045696,0.8954304-2,2-2h18c1.1045704,0,2,0.8954304,2,2v18   C23,22.1045704,22.1045704,23,21,23z" fill="#664D9F"/><path d="M21,1H3C1.8954468,1,1,1.8953857,1,3v0.25c0-1.1046143,0.8954468-2,2-2h18   c1.1045532,0,2,0.8953857,2,2V3C23,1.8953857,22.1045532,1,21,1z" fill="#FFFFFF" opacity="0.2"/><path d="M21,22.75H3c-1.1045532,0-2-0.8954468-2-2V21c0,1.1045532,0.8954468,2,2,2h18   c1.1045532,0,2-0.8954468,2-2v-0.25C23,21.8545532,22.1045532,22.75,21,22.75z" fill="#010101" opacity="0.1"/><path d="M12.5009766,7C11.1720581,7,9.9518433,7.473877,9,8.2612915V5H7v8   c0.253418,2.7990112,2.6362915,5.0009766,5.5009766,5.0009766c3.0322266,0,5.5-2.4677734,5.5-5.5   C18.0009766,9.4677734,15.5332031,7,12.5009766,7z M12.5009766,16.0009766c-1.9306641,0-3.5009766-1.5703125-3.5009766-3.5   C9,10.5703125,10.5703125,9,12.5009766,9c1.9296875,0,3.5,1.5703125,3.5,3.5009766   C16.0009766,14.4306641,14.4306641,16.0009766,12.5009766,16.0009766z" fill="#FFFFFF"/><linearGradient gradientUnits="userSpaceOnUse" id="SVGID_1_" x1="10.0264893" x2="22.4142075" y1="10.0264893" y2="22.4142075"><stop offset="0" style="stop-color:#010101;stop-opacity:0.1"/><stop offset="1" style="stop-color:#010101;stop-opacity:0"/></linearGradient><path d="M12.5009766,16.0009766c1.9296875,0,3.5-1.5703125,3.5-3.5   c0-1.9306641-1.5703125-3.5009766-3.5-3.5009766C10.5703125,9,9,10.5703125,9,12.5009766   C9,14.4306641,10.5703125,16.0009766,12.5009766,16.0009766z M16.5,8.71875l-0.0180054-0.0023804   c0.9385986,0.9871826,1.5189819,2.3181152,1.5189819,3.7846069c0,3.0322266-2.4677734,5.5-5.5,5.5   c-1.7561035,0-3.3252563-0.8326416-4.3397217-2.1178589L8.15625,15.9375L15.21875,23H21c1.1045532,0,2-0.8954468,2-2v-5.78125   L16.5,8.71875z" fill="url(#SVGID_1_)"/><linearGradient gradientUnits="userSpaceOnUse" id="SVGID_2_" x1="-0.6527924" x2="24.652792" y1="6.099906" y2="17.9000931"><stop offset="0" style="stop-color:#FFFFFF;stop-opacity:0.2"/><stop offset="1" style="stop-color:#FFFFFF;stop-opacity:0"/></linearGradient><path d="M21,23H3c-1.1045696,0-2-0.8954296-2-2V3c0-1.1045696,0.8954304-2,2-2h18   c1.1045704,0,2,0.8954304,2,2v18C23,22.1045704,22.1045704,23,21,23z" fill="url(#SVGID_2_)"/></g><g/><g/><g/><g/><g/><g/><g/><g/><g/><g/><g/><g/><g/><g/><g/></svg>