<?xml version="1.0" ?><svg enable-background="new 0 0 24 24" id="Layer_1" version="1.1" viewBox="0 0 24 24" xml:space="preserve" xmlns="http://www.w3.org/2000/svg" xmlns:xlink="http://www.w3.org/1999/xlink"><g><path d="M18.3652344,8.6367188l-7.6708984-7.8310547C10.1748047,0.2861328,9.484375,0,8.75,0   C7.2333984,0,6,1.2333984,6,2.75c0,0.734375,0.2861328,1.4248047,0.8095703,1.9482422l1.9550781,1.9101563   C5.3320313,7.9326172,3,11.2705078,3,15c0,4.9628906,4.0371094,9,9,9s9-4.0371094,9-9   C21,12.5957031,20.0644531,10.3369141,18.3652344,8.6367188z" fill="#F47920"/><path d="M17.5068359,13.7998047l-4.6533203-4.6533203c-0.7460938-0.7460938-1.9609375-0.7460938-2.7070313,0   s-0.7460938,1.9609375,0,2.7070313L11.2929688,13H8c-1.1025391,0-2,0.8974609-2,2s0.8974609,2,2,2h3.2929688l-1.1464844,1.1464844   c-0.7460938,0.7460938-0.7460938,1.9609375,0,2.7070313c0.3730469,0.3730469,0.8632813,0.5595703,1.3535156,0.5595703   s0.9804688-0.1865234,1.3535156-0.5595703l4.6533203-4.6533203C18.1689453,15.5380859,18.1689453,14.4619141,17.5068359,13.7998047   z" fill="#FFFFFF"/><path d="M8.75,0.25c0.734375,0,1.4248047,0.2861328,1.9443359,0.8056641l7.6708984,7.8310547   c1.6689453,1.6698608,2.5958862,3.8795776,2.62854,6.2357788C20.9943237,15.0812988,21,15.0413208,21,15   c0-2.4042969-0.9355469-4.6630859-2.6347656-6.3632813l-7.6708984-7.8310547C10.1748047,0.2861328,9.484375,0,8.75,0   C7.2333984,0,6,1.2333984,6,2.75c0,0.0431519,0.010498,0.0842285,0.0124512,0.1270142   C6.0783081,1.4185181,7.2755127,0.25,8.75,0.25z" fill="#FFFFFF" opacity="0.2"/><path d="M12,23.75c-4.9118042,0-8.9104004-3.9559937-8.9923096-8.8486938   C3.0073242,14.9346924,3,14.9665527,3,15c0,4.9628906,4.0371094,9,9,9s9-4.0371094,9-9   c0-0.0428467-0.0056152-0.0847168-0.0062256-0.1275024C20.9273071,19.7785645,16.9215698,23.75,12,23.75z" fill="#010101" opacity="0.1"/><path d="M7.9189453,13.25h3.6290894L11.2929688,13H8   c-0.8574829,0-1.5847168,0.5455933-1.8684082,1.305603C6.4771118,13.680542,7.1443481,13.25,7.9189453,13.25z" fill="#FFFFFF" opacity="0.2"/><path d="M10.1088867,9.3964844c0.7612305-0.7460938,2.0006714-0.7460938,2.7619019,0   l4.7475586,4.6533203c0.1152344,0.112915,0.2080822,0.2386856,0.2840099,0.3716202   c-0.0819702-0.2272949-0.2135754-0.4396744-0.3955212-0.6216202l-4.6533203-4.6533203   c-0.7460938-0.7460938-1.9609375-0.7460938-2.7070313,0c-0.3134155,0.3134155-0.4871216,0.7103271-0.5372314,1.1196899   C9.6937866,9.947937,9.8551025,9.6452637,10.1088867,9.3964844z" fill="#FFFFFF" opacity="0.2"/><path d="M7.9189453,16.75h3.6290894L11.2929688,17H8   c-0.8574829,0-1.5847168-0.5455933-1.8684082-1.305603C6.4771118,16.319458,7.1443481,16.75,7.9189453,16.75z" fill="#010101" opacity="0.1"/><path d="M10.1088867,20.6035156c0.7612305,0.7460938,2.0006714,0.7460938,2.7619019,0   l4.7475586-4.6533203c0.1152344-0.112915,0.2080822-0.2386856,0.2840099-0.3716202   c-0.0819702,0.2272949-0.2135754,0.4396744-0.3955212,0.6216202l-4.6533203,4.6533203   c-0.7460938,0.7460938-1.9609375,0.7460938-2.7070313,0c-0.3134155-0.3134155-0.4871216-0.7103271-0.5372314-1.1196899   C9.6937866,20.052063,9.8551025,20.3547363,10.1088867,20.6035156z" fill="#010101" opacity="0.1"/><linearGradient gradientUnits="userSpaceOnUse" id="SVGID_1_" x1="9.7911682" x2="18.1050529" y1="13.2911682" y2="21.6050529"><stop offset="0" style="stop-color:#010101;stop-opacity:0.1"/><stop offset="1" style="stop-color:#010101;stop-opacity:0"/></linearGradient><path d="M17.5068359,13.7998047c0.6621094,0.6621094,0.6621094,1.7382813,0,2.4003906l-4.6533203,4.6533203   C12.4804688,21.2265625,11.9902344,21.4130859,11.5,21.4130859s-0.9804688-0.1865234-1.3535156-0.5595703l3.0564575,3.0564575   c3.7136841-0.4994507,6.7113037-3.2658691,7.5527954-6.8612671L17.5068359,13.7998047z M11.2929688,17H8   c-0.5302734,0-1.0099487-0.2111206-1.3683472-0.5493164l2.9634399,2.963501   c0.0205688-0.4610596,0.2001953-0.9165039,0.5513916-1.2677002L11.2929688,17z" fill="url(#SVGID_1_)"/><linearGradient gradientUnits="userSpaceOnUse" id="SVGID_2_" x1="2.8816092" x2="20.8918705" y1="8.8279018" y2="17.2262249"><stop offset="0" style="stop-color:#FFFFFF;stop-opacity:0.2"/><stop offset="1" style="stop-color:#FFFFFF;stop-opacity:0"/></linearGradient><path d="M18.3652344,8.6367188l-7.6708984-7.8310547C10.1748047,0.2861328,9.484375,0,8.75,0   C7.2333984,0,6,1.2333984,6,2.75c0,0.734375,0.2861328,1.4248047,0.8095703,1.9482422l1.9550781,1.9101563   C5.3320313,7.9326172,3,11.2705078,3,15c0,4.9628906,4.0371094,9,9,9s9-4.0371094,9-9   C21,12.5957031,20.0644531,10.3369141,18.3652344,8.6367188z" fill="url(#SVGID_2_)"/></g><g/><g/><g/><g/><g/><g/><g/><g/><g/><g/><g/><g/><g/><g/><g/></svg>