<?xml version="1.0" ?><svg enable-background="new 0 0 24 24" id="Layer_1" version="1.1" viewBox="0 0 24 24" xml:space="preserve" xmlns="http://www.w3.org/2000/svg" xmlns:xlink="http://www.w3.org/1999/xlink"><g><g><path d="M23,4.5C23,2.5703125,21.4296875,1,19.5,1c-1.3691406,0-2.5908203,0.7988281-3.1601563,2.0253906    C16.1992188,3.0102539,16.0537109,3,15.9042969,3c-1.3613281,0-2.6416016,0.5302734-3.6035156,1.4926758L7.2720947,9.5209351    c0.0587158,0.0877075,0.1263428,0.1703491,0.2025146,0.2466431L9.7070313,12l4.5253906-4.5253906    C14.5341797,7.1728516,14.9521484,7,15.3789063,7C16.2724609,7,17,7.7270508,17,8.6210938    c0,0.3250732-0.0952759,0.6356201-0.2719727,0.8997192l2.4794312,2.479126l0.300354-0.3002319    C20.4697266,10.7368164,21,9.4570313,21,8.0961914c0-0.1494141-0.0097656-0.2954102-0.0253906-0.4360352    C22.2011719,7.0917969,23,5.8696289,23,4.5z" fill="#FCB415"/></g><path d="M12.3007813,4.7426758C13.2626953,3.7802734,14.5429688,3.25,15.9042969,3.25   c0.1494141,0,0.2949219,0.0102539,0.4355469,0.0253906C16.9091797,2.0488281,18.1308594,1.25,19.5,1.25   c1.8939209,0,3.4327393,1.5150146,3.4894409,3.3954468C22.9915161,4.5966187,23,4.5492554,23,4.5C23,2.5703125,21.4296875,1,19.5,1   c-1.3691406,0-2.5908203,0.7988281-3.1601563,2.0253906C16.1992188,3.0102539,16.0537109,3,15.9042969,3   c-1.3613281,0-2.6416016,0.5302734-3.6035156,1.4926758L7.2720947,9.5209351   c0.0326538,0.0488281,0.074585,0.0917969,0.1127319,0.1372681L12.3007813,4.7426758z" fill="#FFFFFF" opacity="0.2"/><g><path d="M4.5,1C2.5703125,1,1,2.5703125,1,4.5c0,1.3691406,0.7988281,2.5908203,2.0253906,3.1601563    C3.0102539,7.8007813,3,7.9462891,3,8.0957031c0,1.3613281,0.5302734,2.6416016,1.4926758,3.6035156l5.0282593,5.0286865    c0.0877075-0.0587158,0.1703491-0.1263428,0.2466431-0.2025146L12,14.2929688L7.4746094,9.7675781    C7.1728516,9.4658203,7,9.0478516,7,8.6210938C7,7.7275391,7.7270508,7,8.6210938,7    C8.946167,7,9.2567139,7.0952759,9.520813,7.2719727l2.479126-2.4794312l-0.3002319-0.300354    C10.7368164,3.5302734,9.4570313,3,8.0961914,3C7.9467773,3,7.8007813,3.0097656,7.6601563,3.0253906    C7.0917969,1.7988281,5.8696289,1,4.5,1z" fill="#68B345"/></g><path d="M4.5,1.25c1.3696289,0,2.5917969,0.7988281,3.1601563,2.0253906   C7.8007813,3.2597656,7.9467773,3.25,8.0961914,3.25c1.3608398,0,2.640625,0.5302734,3.6035156,1.4921875L11.875,4.9175415   l0.124939-0.125l-0.3002319-0.300354C10.7368164,3.5302734,9.4570313,3,8.0961914,3   C7.9467773,3,7.8007813,3.0097656,7.6601563,3.0253906C7.0917969,1.7988281,5.8696289,1,4.5,1C2.5703125,1,1,2.5703125,1,4.5   c0,0.0492554,0.0084839,0.0966187,0.0105591,0.1454468C1.0672607,2.7651367,2.6061401,1.25,4.5,1.25z" fill="#FFFFFF" opacity="0.2"/><g><path d="M1,19.5C1,21.4296875,2.5703125,23,4.5,23c1.3691406,0,2.5908203-0.7988281,3.1601563-2.0253906    C7.8007813,20.9897461,7.9462891,21,8.0957031,21c1.3613281,0,2.6416016-0.5302734,3.6035156-1.4926758l5.0286865-5.0282593    c-0.0587158-0.0877075-0.1263428-0.1703491-0.2025146-0.2466431L14.2929688,12l-4.5253906,4.5253906    C9.4658203,16.8271484,9.0478516,17,8.6210938,17C7.7275391,17,7,16.2729492,7,15.3789063    c0-0.3250732,0.0952759-0.6356201,0.2719727-0.8997192l-2.4794312-2.479126l-0.300354,0.3002319    C3.5302734,13.2631836,3,14.5429688,3,15.9038086c0,0.1494141,0.0097656,0.2954102,0.0253906,0.4360352    C1.7988281,16.9082031,1,18.1303711,1,19.5z" fill="#0A99D6"/></g><path d="M11.6992188,19.2573242C10.7373047,20.2197266,9.4570313,20.75,8.0957031,20.75   c-0.1494141,0-0.2949219-0.0102539-0.4355469-0.0253906C7.0908203,21.9511719,5.8691406,22.75,4.5,22.75   c-1.8939209,0-3.4327393-1.5150146-3.4894409-3.3954468C1.0084839,19.4033813,1,19.4507446,1,19.5   C1,21.4296875,2.5703125,23,4.5,23c1.3691406,0,2.5908203-0.7988281,3.1601563-2.0253906   C7.8007813,20.9897461,7.9462891,21,8.0957031,21c1.3613281,0,2.6416016-0.5302734,3.6035156-1.4926758l5.0286865-5.0282593   c-0.0326538-0.0488281-0.074585-0.0917969-0.1127319-0.1372681L11.6992188,19.2573242z" fill="#010101" opacity="0.1"/><g><path d="M19.5,23c1.9296875,0,3.5-1.5703125,3.5-3.5c0-1.3691406-0.7988281-2.5908203-2.0253906-3.1601563    C20.9897461,16.1992188,21,16.0537109,21,15.9042969c0-1.3613281-0.5302734-2.6416016-1.4926758-3.6035156l-5.0282593-5.0286865    c-0.0877075,0.0587158-0.1703491,0.1263428-0.2466431,0.2025146L12,9.7070313l4.5253906,4.5253906    C16.8271484,14.5341797,17,14.9521484,17,15.3789063C17,16.2724609,16.2729492,17,15.3789063,17    c-0.3250732,0-0.6356201-0.0952759-0.8997192-0.2719727l-2.479126,2.4794312l0.3002319,0.300354    C13.2631836,20.4697266,14.5429688,21,15.9038086,21c0.1494141,0,0.2954102-0.0097656,0.4360352-0.0253906    C16.9082031,22.2011719,18.1303711,23,19.5,23z" fill="#EE3325"/></g><path d="M19.5,22.75c-1.3696289,0-2.5917969-0.7988281-3.1601563-2.0253906   C16.1992188,20.7402344,16.0532227,20.75,15.9038086,20.75c-1.3608398,0-2.640625-0.5302734-3.6035156-1.4921875L12.125,19.0824585   l-0.124939,0.125l0.3002319,0.300354C13.2631836,20.4697266,14.5429688,21,15.9038086,21   c0.1494141,0,0.2954102-0.0097656,0.4360352-0.0253906C16.9082031,22.2011719,18.1303711,23,19.5,23   c1.9296875,0,3.5-1.5703125,3.5-3.5c0-0.0492554-0.0084839-0.0966187-0.0105591-0.1454468   C22.9327393,21.2348633,21.3938599,22.75,19.5,22.75z" fill="#010101" opacity="0.1"/><linearGradient gradientUnits="userSpaceOnUse" id="SVGID_1_" x1="-0.2049642" x2="24.2049637" y1="6.3087316" y2="17.6912689"><stop offset="0" style="stop-color:#FFFFFF;stop-opacity:0.2"/><stop offset="1" style="stop-color:#FFFFFF;stop-opacity:0"/></linearGradient><path d="M20.9746094,16.3398438C20.9897461,16.1992188,21,16.0537109,21,15.9042969   c0-1.3613281-0.5302734-2.6416016-1.4926758-3.6035156l-0.300293-0.300293l0.3007813-0.3007813   C20.4697266,10.7368164,21,9.4570313,21,8.0961914c0-0.1494141-0.0097656-0.2954102-0.0253906-0.4360352   C22.2011719,7.0917969,23,5.8696289,23,4.5C23,2.5703125,21.4296875,1,19.5,1   c-1.3691406,0-2.5908203,0.7988281-3.1601563,2.0253906C16.1992188,3.0102539,16.0537109,3,15.9042969,3   c-1.3613281,0-2.6416016,0.5302734-3.6035156,1.4926758l-0.300293,0.300293L11.699707,4.4921875   C10.7368164,3.5302734,9.4570313,3,8.0961914,3C7.9467773,3,7.8007813,3.0097656,7.6601563,3.0253906   C7.0917969,1.7988281,5.8696289,1,4.5,1C2.5703125,1,1,2.5703125,1,4.5c0,1.3691406,0.7988281,2.5908203,2.0253906,3.1601563   C3.0102539,7.8007813,3,7.9462891,3,8.0957031c0,1.3613281,0.5302734,2.6416016,1.4926758,3.6035156l0.300293,0.300354   L4.4921875,12.300293C3.5302734,13.2631836,3,14.5429688,3,15.9038086c0,0.1494141,0.0097656,0.2954102,0.0253906,0.4360352   C1.7988281,16.9082031,1,18.1303711,1,19.5C1,21.4296875,2.5703125,23,4.5,23c1.3691406,0,2.5908203-0.7988281,3.1601563-2.0253906   C7.8007813,20.9897461,7.9462891,21,8.0957031,21c1.3613281,0,2.6416016-0.5302734,3.6035156-1.4926758l0.300354-0.300293   l0.3007202,0.3007813C13.2631836,20.4697266,14.5429688,21,15.9038086,21c0.1494141,0,0.2954102-0.0097656,0.4360352-0.0253906   C16.9082031,22.2011719,18.1303711,23,19.5,23c1.9296875,0,3.5-1.5703125,3.5-3.5   C23,18.1308594,22.2011719,16.9091797,20.9746094,16.3398438z M8.6210938,17C7.7275391,17,7,16.2729492,7,15.3789063   c0-0.3250732,0.0952759-0.6356201,0.2719727-0.8997192l-0.0006714-0.0010986l2.2490234,2.2492065   C9.2556152,16.902832,8.9408569,17,8.6210938,17z M7.2727051,9.5203247C7.0971069,9.2556152,7,8.9408569,7,8.6210938   C7,7.7275391,7.7270508,7,8.6210938,7C8.946167,7,9.2567139,7.0952759,9.520813,7.2719727l0.0007324-0.0002441L7.2727051,9.5203247   z M12,14.2929688L9.7070313,12L12,9.7070313L14.2929688,12L12,14.2929688z M15.3789063,17   c-0.3250732,0-0.6356201-0.0952759-0.8997192-0.2719727l-0.00177,0.0012817l2.2498779-2.2496338   C16.902832,14.7443848,17,15.0591431,17,15.3789063C17,16.2724609,16.2729492,17,15.3789063,17z M16.7280273,9.520813   l0.0004272,0.0008545l-2.2487793-2.2489624C14.7443848,7.0971069,15.0591431,7,15.3789063,7   C16.2724609,7,17,7.7270508,17,8.6210938C17,8.946167,16.9047241,9.2567139,16.7280273,9.520813z" fill="url(#SVGID_1_)"/></g><g/><g/><g/><g/><g/><g/><g/><g/><g/><g/><g/><g/><g/><g/><g/></svg>