<?xml version="1.0" ?><svg enable-background="new 0 0 24 24" id="Layer_1" version="1.1" viewBox="0 0 24 24" xml:space="preserve" xmlns="http://www.w3.org/2000/svg" xmlns:xlink="http://www.w3.org/1999/xlink"><g><g><polygon fill="#00AA8F" points="2,24 12,0 22,24   "/></g><polygon fill="#FFFFFF" opacity="0.2" points="22,24 12,0 2,24 12,0.25  "/><polygon fill="#007367" points="16.2763672,17.0527344 14,18.190918 14,16.7675781 15.2773438,15.9160156 14.7226563,15.0839844    14,15.5657349 14,13 10,13 10,17.2929688 8.8535156,16.1464844 8.1464844,16.8535156 10,18.7070313 10,24 14,24 14,19.309082    16.7236328,17.9472656  "/><polygon fill="#010101" opacity="0.1" points="2.104187,23.75 2,24 22,24 21.895813,23.75  "/><linearGradient gradientUnits="userSpaceOnUse" id="SVGID_1_" x1="11.25" x2="20.75" y1="15.75" y2="25.25"><stop offset="0" style="stop-color:#010101;stop-opacity:0.1"/><stop offset="1" style="stop-color:#010101;stop-opacity:0"/></linearGradient><polygon fill="url(#SVGID_1_)" points="19.8571167,18.8571167 14,13 14,15.5657349 14.7226563,15.0839844 15.2773438,15.9160156    14,16.7675781 14,18.190918 16.2763672,17.0527344 16.7236328,17.9472656 14,19.309082 14,24 22,24  "/><polygon fill="#010101" opacity="0.1" points="14,18.190918 14,16.7675781 15.2773438,15.9160156 14.7226563,15.0839844    14,15.5657349 14,13 12,13 12,24 14,24 14,19.309082 16.7236328,17.9472656 16.2763672,17.0527344  "/><linearGradient gradientUnits="userSpaceOnUse" id="SVGID_2_" x1="6.5107021" x2="23.9171734" y1="11.7718372" y2="19.888607"><stop offset="0" style="stop-color:#FFFFFF;stop-opacity:0.2"/><stop offset="1" style="stop-color:#FFFFFF;stop-opacity:0"/></linearGradient><polygon fill="url(#SVGID_2_)" points="2,24 12,0 22,24  "/></g><g/><g/><g/><g/><g/><g/><g/><g/><g/><g/><g/><g/><g/><g/><g/></svg>