<?xml version="1.0" ?><svg enable-background="new 0 0 24 24" id="Layer_1" version="1.1" viewBox="0 0 24 24" xml:space="preserve" xmlns="http://www.w3.org/2000/svg" xmlns:xlink="http://www.w3.org/1999/xlink"><g><path d="M12,0C5.3828125,0,0,5.3828125,0,12s5.3828125,12,12,12s12-5.3828125,12-12S18.6171875,0,12,0z" fill="#483391"/><path d="M12,0.25c5.3285522,0,9.8440552,3.4422607,11.4705811,8.2207642   C21.9632568,3.565979,17.3988037,0,12,0S2.0368042,3.565979,0.5294189,8.4706421C2.1559448,3.6922607,6.6713867,0.25,12,0.25z" fill="#FFFFFF" opacity="0.2"/><path d="M12,23.75c-4.7450914,0-8.8374472-2.6986141-10.8253527-6.6640053   c-0.2444347-0.4875889-0.4570514-0.9943295-0.6351512-1.5175619c0.1608156,0.5232897,0.3563147,1.0308924,0.5838224,1.5202017   C3.02824,21.1856155,7.1771917,24,12,24c4.6758442,0,8.7214317-2.6558895,10.7003746-6.5535698   c0.305975-0.6026421,0.5625458-1.234972,0.7644005-1.8917618c-0.1286106,0.3778324-0.2752476,0.7471523-0.4388905,1.1069431   C21.1199665,20.8520508,16.9072742,23.75,12,23.75z" fill="#010101" opacity="0.1"/><path d="M20,11H4v1.5c0,4.9248047,3.3642578,8.5,8,8.5s8-3.5751953,8-8.5V11z" fill="#FFFFFF"/><rect fill="#010101" height="0.25" opacity="0.1" width="16" x="4" y="11"/><path d="M12,20.75c-4.6357422,0-8-3.5751953-8-8.5v0.25c0,4.9248047,3.3642578,8.5,8,8.5   s8-3.5751953,8-8.5v-0.25C20,17.1748047,16.6357422,20.75,12,20.75z" fill="#FFFFFF" opacity="0.2"/><circle cx="8" cy="8" fill="#FFFFFF" r="1"/><circle cx="16" cy="8" fill="#FFFFFF" r="1"/><linearGradient gradientUnits="userSpaceOnUse" id="SVGID_1_" x1="1.1247724" x2="22.875227" y1="6.9287982" y2="17.0712013"><stop offset="0" style="stop-color:#FFFFFF;stop-opacity:0.2"/><stop offset="1" style="stop-color:#FFFFFF;stop-opacity:0"/></linearGradient><path d="M12,0C5.3828125,0,0,5.3828125,0,12s5.3828125,12,12,12s12-5.3828125,12-12S18.6171875,0,12,0z" fill="url(#SVGID_1_)"/></g><g/><g/><g/><g/><g/><g/><g/><g/><g/><g/><g/><g/><g/><g/><g/></svg>