<?xml version="1.0" ?><svg enable-background="new 0 0 24 24" id="Layer_1" version="1.1" viewBox="0 0 24 24" xml:space="preserve" xmlns="http://www.w3.org/2000/svg" xmlns:xlink="http://www.w3.org/1999/xlink"><g><linearGradient gradientUnits="userSpaceOnUse" id="XMLID_15_" x1="-1.782610e-10" x2="24" y1="12" y2="12"><stop offset="0" style="stop-color:#57C7D9"/><stop offset="1" style="stop-color:#68CEF2"/></linearGradient><circle cx="12" cy="12" fill="url(#XMLID_15_)" id="XMLID_1534_" r="12"/><path d="M12,6c-2.7568359,0-5,2.2431641-5,5c0,2.6035156,3.6425781,8,5,8s5-5.3964844,5-8   C17,8.2431641,14.7568359,6,12,6z" fill="#FFFFFF"/><path d="M12,18.75c-1.3345337,0-4.869812-5.210144-4.9888916-7.8600464   C7.0102539,10.9274292,7,10.9623413,7,11c0,2.6035156,3.6425781,8,5,8s5-5.3964844,5-8   c0-0.0376587-0.0102539-0.0725708-0.0111084-0.1100464C16.869812,13.539856,13.3345337,18.75,12,18.75z" fill="#010101" opacity="0.1"/><path d="M12,6.25c2.0327759,0,3.7779541,1.1610107,4.6133423,2.8278809   C15.8583374,7.2727661,14.0757446,6,12,6S8.1416626,7.2727661,7.3866577,9.0778809C8.2220459,7.4110107,9.9672241,6.25,12,6.25z" fill="#FFFFFF" opacity="0.2"/><circle cx="12" cy="11" fill="#E83829" r="3"/><path d="M12,8.25c1.2701416,0,2.3687019,0.7455969,2.8574715,1.8337317   C14.473011,8.8701696,13.3406982,8,12,8s-2.47785,0.885376-2.8623104,2.098938C9.6264591,9.0108032,10.7298584,8.25,12,8.25z" fill="#010101" opacity="0.1"/><path d="M12,13.75c-1.2701416,0-2.3687019-0.7455969-2.8574715-1.8337317   C9.526989,13.1298304,10.6593018,14,12,14s2.47785-0.885376,2.8623104-2.098938C14.3735409,12.9891968,13.2701416,13.75,12,13.75z" fill="#FFFFFF" opacity="0.2"/><circle cx="10.25" cy="9.25" fill="#FFFFFF" r="1.25"/><path d="M12,0.25c5.3285522,0,9.8440552,3.4422607,11.4705811,8.2207642   C21.9632568,3.565979,17.3988037,0,12,0S2.0368042,3.565979,0.5294189,8.4706421C2.1559448,3.6922607,6.6713867,0.25,12,0.25z" fill="#FFFFFF" opacity="0.2"/><path d="M12,23.75c-4.7450914,0-8.8374472-2.6986141-10.8253527-6.6640053   c-0.2444347-0.4875889-0.4570514-0.9943295-0.6351512-1.5175619c0.1608156,0.5232897,0.3563147,1.0308924,0.5838224,1.5202017   C3.02824,21.1856155,7.1771917,24,12,24c4.6758442,0,8.7214317-2.6558895,10.7003746-6.5535698   c0.305975-0.6026421,0.5625458-1.234972,0.7644005-1.8917618c-0.1286106,0.3778324-0.2752476,0.7471523-0.4388905,1.1069431   C21.1199665,20.8520508,16.9072742,23.75,12,23.75z" fill="#010101" opacity="0.1"/><linearGradient gradientUnits="userSpaceOnUse" id="SVGID_1_" x1="12.4934235" x2="20.5826817" y1="12.2888031" y2="20.3780613"><stop offset="0" style="stop-color:#010101;stop-opacity:0.1"/><stop offset="1" style="stop-color:#010101;stop-opacity:0"/></linearGradient><path d="M16.3114624,8.4707642l-0.0125732,0.019104C16.7332153,9.2305298,17,10.0811768,17,11   c0,2.6035156-3.6425781,8-5,8c-0.2351685,0-0.541687-0.1703491-0.8831787-0.4517212l4.7888184,4.7888184   c3.5820923-1.2342529,6.4002686-4.1065063,7.5410767-7.7310791L16.3114624,8.4707642z" fill="url(#SVGID_1_)"/><linearGradient gradientUnits="userSpaceOnUse" id="XMLID_16_" x1="1.1217111" x2="22.8782883" y1="6.9273705" y2="17.0726299"><stop offset="0" style="stop-color:#FFFFFF;stop-opacity:0.2"/><stop offset="1" style="stop-color:#FFFFFF;stop-opacity:0"/></linearGradient><circle cx="12" cy="12" fill="url(#XMLID_16_)" id="XMLID_1024_" r="12"/></g><g/><g/><g/><g/><g/><g/><g/><g/><g/><g/><g/><g/><g/><g/><g/></svg>