<?xml version="1.0" ?><svg enable-background="new 0 0 24 24" id="Layer_1" version="1.1" viewBox="0 0 24 24" xml:space="preserve" xmlns="http://www.w3.org/2000/svg" xmlns:xlink="http://www.w3.org/1999/xlink"><g><circle cx="12" cy="12" fill="#EE3325" id="XMLID_81_" r="12"/><path d="M12,0.25c5.3285522,0,9.8440552,3.4422607,11.4705811,8.2207642   C21.9632568,3.565979,17.3988037,0,12,0S2.0368042,3.565979,0.5294189,8.4706421C2.1559448,3.6922607,6.6713867,0.25,12,0.25z" fill="#FFFFFF" opacity="0.2"/><path d="M12,23.75c-4.7450914,0-8.8374472-2.6986141-10.8253527-6.6640053   c-0.2444347-0.4875889-0.4570514-0.9943295-0.6351512-1.5175619c0.1608156,0.5232897,0.3563147,1.0308924,0.5838224,1.5202017   C3.02824,21.1856155,7.1771917,24,12,24c4.6758442,0,8.7214317-2.6558895,10.7003746-6.5535698   c0.305975-0.6026421,0.5625458-1.234972,0.7644005-1.8917618c-0.1286106,0.3778324-0.2752476,0.7471523-0.4388905,1.1069431   C21.1199665,20.8520508,16.9072742,23.75,12,23.75z" fill="#010101" opacity="0.1"/><g><path d="M12.5,9v1.25L14,11l1.5-0.75V9c0-1.9296875-1.5703125-3.5-3.5-3.5S8.5,7.0703125,8.5,9v5    c0,0.2758789-0.2246094,0.5-0.5,0.5S7.5,14.2758789,7.5,14v-2.5h-3V14c0,1.9296875,1.5703125,3.5,3.5,3.5s3.5-1.5703125,3.5-3.5V9    c0-0.2758789,0.2246094-0.5,0.5-0.5S12.5,8.7241211,12.5,9z" fill="#FFFFFF"/><path d="M16.5,11v3c0,0.2758789-0.2246094,0.5-0.5,0.5s-0.5-0.2241211-0.5-0.5v-2.25L14,12.5l-1.5-0.75V14    c0,1.9296875,1.5703125,3.5,3.5,3.5s3.5-1.5703125,3.5-3.5v-3H16.5z" fill="#FFFFFF"/></g><linearGradient gradientUnits="userSpaceOnUse" id="SVGID_1_" x1="9.5354309" x2="19.8661156" y1="10.757843" y2="21.0885277"><stop offset="0" style="stop-color:#010101;stop-opacity:0.1"/><stop offset="1" style="stop-color:#010101;stop-opacity:0"/></linearGradient><path d="M19.5,11v3c0,1.9296875-1.5703125,3.5-3.5,3.5s-3.5-1.5703125-3.5-3.5v-2.25L14,12.5l1.5-0.75V14   c0,0.2758789,0.2246094,0.5,0.5,0.5s0.5-0.2241211,0.5-0.5v-3h2.4352417l-4.3411865-4.3411865l-0.008667,0.0029297   C15.1477051,7.282959,15.5,8.0982056,15.5,9v1.25L14,11l-1.5-0.75V9c0-0.2758789-0.2246094-0.5-0.5-0.5S11.5,8.7241211,11.5,9v5   c0,1.9296875-1.5703125,3.5-3.5,3.5c-0.9499512,0-1.8103027-0.3833008-2.4415894-0.999939l-0.0020752,0.0010376   l7.4481201,7.4481812c5.1102295-0.4245605,9.300354-4.0474243,10.5803833-8.8644409L19.5,11z" fill="url(#SVGID_1_)"/><linearGradient gradientUnits="userSpaceOnUse" id="XMLID_83_" x1="1.1216813" x2="22.8783092" y1="6.9273677" y2="17.0726509"><stop offset="0" style="stop-color:#FFFFFF;stop-opacity:0.2"/><stop offset="1" style="stop-color:#FFFFFF;stop-opacity:0"/></linearGradient><circle cx="12" cy="12" fill="url(#XMLID_83_)" id="XMLID_1018_" r="12"/></g><g/><g/><g/><g/><g/><g/><g/><g/><g/><g/><g/><g/><g/><g/><g/></svg>