<?xml version="1.0" ?><svg enable-background="new 0 0 24 24" id="Layer_1" version="1.1" viewBox="0 0 24 24" xml:space="preserve" xmlns="http://www.w3.org/2000/svg" xmlns:xlink="http://www.w3.org/1999/xlink"><g><path d="M21,23H3c-1.1045696,0-2-0.8954296-2-2V3c0-1.1045696,0.8954304-2,2-2h18c1.1045704,0,2,0.8954304,2,2v18   C23,22.1045704,22.1045704,23,21,23z" fill="#F3F3F3"/><path d="M21,1H3C1.8954468,1,1,1.8953857,1,3v0.25c0-1.1046143,0.8954468-2,2-2h18   c1.1045532,0,2,0.8953857,2,2V3C23,1.8953857,22.1045532,1,21,1z" fill="#FFFFFF" opacity="0.2"/><path d="M21,22.75H3c-1.1045532,0-2-0.8954468-2-2V21c0,1.1045532,0.8954468,2,2,2h18   c1.1045532,0,2-0.8954468,2-2v-0.25C23,21.8545532,22.1045532,22.75,21,22.75z" fill="#010101" opacity="0.1"/><g><path d="M7.9995117,8v2H6v4h3L8.9995117,8H7.9995117z M8,13H7v-2h1V13z" fill="#333333"/><path d="M12,14h2v1h-2v1h3v-6h-3V14z M13,11h1v2h-1V11z" fill="#333333"/><path d="M16,10v4h2v1h-2v1h3v-6H16z M18,13h-1v-2h1V13z" fill="#333333"/><rect fill="#333333" height="4" width="1" x="10" y="10"/><circle cx="10.5" cy="9" fill="#333333" r="0.5"/></g><linearGradient gradientUnits="userSpaceOnUse" id="SVGID_1_" x1="8.7501249" x2="22.6646118" y1="8.2493868" y2="22.1638737"><stop offset="0" style="stop-color:#010101;stop-opacity:0.1"/><stop offset="1" style="stop-color:#010101;stop-opacity:0"/></linearGradient><path d="M18,10.9996462h-1v1.9997635h1V10.9996462z M14,10.9996462h-1v1.9997635h1V10.9996462z    M19,9.9997644v5.9992914h-3v-0.9998817h2v-0.9998817h-2v-2.9996462l-1-0.9998817v5.9992914h-3v-0.9998817h2v-0.9998817h-2   V9.9997644h0.1988525l-1.3128052-1.3126507L10.882019,8.6885176C10.9522095,8.7746277,11,8.8801451,11,8.9998817   c0,0.2760906-0.223877,0.4999409-0.5,0.4999409c-0.276062,0-0.4998779-0.2237892-0.5-0.4998188L9.9997559,9.0001259L8.9995117,8   L9,13.9992924H6L15.00177,23H21c1.1045532,0,2-0.8953419,2-1.9997635v-7.0010052L19,9.9997644z M11,13.9992924h-1V9.9997644h1   V13.9992924z M8,10.9996462H7v1.9997635h1V10.9996462z" fill="url(#SVGID_1_)"/><linearGradient gradientUnits="userSpaceOnUse" id="SVGID_2_" x1="-0.6527924" x2="24.652792" y1="6.099906" y2="17.9000931"><stop offset="0" style="stop-color:#FFFFFF;stop-opacity:0.2"/><stop offset="1" style="stop-color:#FFFFFF;stop-opacity:0"/></linearGradient><path d="M21,23H3c-1.1045696,0-2-0.8954296-2-2V3c0-1.1045696,0.8954304-2,2-2h18   c1.1045704,0,2,0.8954304,2,2v18C23,22.1045704,22.1045704,23,21,23z" fill="url(#SVGID_2_)"/></g><g/><g/><g/><g/><g/><g/><g/><g/><g/><g/><g/><g/><g/><g/><g/></svg>