<?xml version="1.0" ?><svg enable-background="new 0 0 24 24" id="Layer_1" version="1.1" viewBox="0 0 24 24" xml:space="preserve" xmlns="http://www.w3.org/2000/svg" xmlns:xlink="http://www.w3.org/1999/xlink"><g><path d="M2.1914063,0L0,4.3818359V21h6v3h2.7070313l3-3h6L24,14.7070313V0H2.1914063z M22,13.7070313L17.7070313,18   h-6L8,21.7070313V18H3V2h19V13.7070313z" fill="#82469B"/><polygon fill="#FFFFFF" opacity="0.2" points="2.1914063,0 0,4.3818359 0,4.6318359 2.1914063,0.25 24,0.25 24,0  "/><rect fill="#010101" height="0.25" opacity="0.1" width="6" y="20.75"/><polygon fill="#010101" opacity="0.1" points="11.7070313,20.75 8.7070313,23.75 6,23.75 6,24 8.7070313,24 11.7070313,21    17.7070313,21 24,14.7070313 24,14.4570313 17.7070313,20.75  "/><g id="XMLID_1401_"><path d="M9.5,13C9.2236328,13,9,12.7763672,9,12.5v-6C9,6.2236328,9.2236328,6,9.5,6S10,6.2236328,10,6.5v6    C10,12.7763672,9.7763672,13,9.5,13z" fill="#82469B"/></g><g id="XMLID_1400_"><path d="M15.5,13c-0.2763672,0-0.5-0.2236328-0.5-0.5v-6C15,6.2236328,15.2236328,6,15.5,6S16,6.2236328,16,6.5v6    C16,12.7763672,15.7763672,13,15.5,13z" fill="#82469B"/></g><linearGradient gradientUnits="userSpaceOnUse" id="SVGID_1_" x1="-0.2388332" x2="23.4293976" y1="4.8940153" y2="15.9306927"><stop offset="0" style="stop-color:#FFFFFF;stop-opacity:0.2"/><stop offset="1" style="stop-color:#FFFFFF;stop-opacity:0"/></linearGradient><path d="M2.1914063,0L0,4.3818359V21h6v3h2.7070313l3-3h6L24,14.7070313V0H2.1914063z M22,13.7070313   L17.7070313,18h-6L8,21.7070313V18H3V2h19V13.7070313z M9.5,13c0.2763672,0,0.5-0.2236328,0.5-0.5v-6   C10,6.2236328,9.7763672,6,9.5,6S9,6.2236328,9,6.5v6C9,12.7763672,9.2236328,13,9.5,13z M15.5,13   c0.2763672,0,0.5-0.2236328,0.5-0.5v-6C16,6.2236328,15.7763672,6,15.5,6S15,6.2236328,15,6.5v6   C15,12.7763672,15.2236328,13,15.5,13z" fill="url(#SVGID_1_)"/></g><g/><g/><g/><g/><g/><g/><g/><g/><g/><g/><g/><g/><g/><g/><g/></svg>