<?xml version="1.0" ?><svg enable-background="new 0 0 24 24" id="Layer_1" version="1.1" viewBox="0 0 24 24" xml:space="preserve" xmlns="http://www.w3.org/2000/svg" xmlns:xlink="http://www.w3.org/1999/xlink"><g><path d="M12,12c3.3085938,0,6-2.6914063,6-6s-2.6914063-6-6-6S6,2.6914063,6,6S8.6914063,12,12,12z M12,3   c1.6538086,0,3,1.3461914,3,3s-1.3461914,3-3,3S9,7.6538086,9,6S10.3461914,3,12,3z" fill="#F79120"/><path d="M18.8017578,15.2885475C19.5517578,14.7778206,20,13.9249372,20,13.0058298   c0-0.7756224-0.3994141-1.4448843-1.0673828-1.7890482c-0.6806641-0.3491802-1.4873047-0.2729225-2.1083984,0.2026854   C15.4208984,12.4961071,13.7529297,13.0660334,12,13.0660334s-3.4208984-0.5699263-4.8242188-1.6465664   c-0.6201172-0.4756079-1.4277344-0.5518656-2.1083984-0.2026854C4.3994141,11.5609455,4,12.2302074,4,13.0058298   c0,0.9191074,0.4482422,1.7719908,1.1982422,2.2817144c0.9667969,0.6612358,2.0185547,1.1769791,3.1298828,1.5361938   c0.2089844,0.0652199,0.4238281,0.1254234,0.6435547,0.1816139l-3.2832031,3.3001575   c-0.3984375,0.4083805-0.6171875,0.952219-0.6171875,1.5301723c0,0.5779552,0.21875,1.1217937,0.6171875,1.5311775   c0.8203125,0.8428497,2.1582031,0.843853,2.9863281-0.0060196L12,19.8228779l3.3310547,3.5439816   C15.7421875,23.7892876,16.28125,24,16.8212891,24s1.0791016-0.2107124,1.4902344-0.6331406   c0.3984375-0.4093838,0.6171875-0.9532223,0.6171875-1.5311775c0-0.5779533-0.21875-1.1217918-0.6210938-1.5341854   l-3.2792969-3.2961445c0.2207031-0.0561905,0.4365234-0.1173973,0.6464844-0.1836205   C16.7832031,16.4645233,17.8349609,15.9487801,18.8017578,15.2885475z" fill="#F79120"/><path d="M18.3115234,23.1099911c-0.4111328,0.4224281-0.9501953,0.6331406-1.4902344,0.6331406   s-1.0791016-0.2107124-1.4902344-0.6331406L12,19.5660095l-3.3251953,3.537962   c-0.828125,0.8498726-2.1660156,0.8488693-2.9863281,0.0060196c-0.3683472-0.3784676-0.574707-0.8737049-0.6049805-1.4027424   c-0.0025024,0.0432091-0.012207,0.0848484-0.012207,0.1284332c0,0.5779552,0.21875,1.1217937,0.6171875,1.5311775   c0.8203125,0.8428497,2.1582031,0.843853,2.9863281-0.0060196L12,19.8228779l3.3310547,3.5439816   C15.7421875,23.7892876,16.28125,24,16.8212891,24s1.0791016-0.2107124,1.4902344-0.6331406   c0.3984375-0.4093838,0.6171875-0.9532223,0.6171875-1.5311775c0-0.0435848-0.0097656-0.0852242-0.012207-0.1283703   C18.8861694,22.2363491,18.6798706,22.7315235,18.3115234,23.1099911z" fill="#010101" opacity="0.1"/><path d="M8.328125,16.8237381c0.144165,0.0450268,0.4940796,0.1411018,0.6435547,0.1816139   l0.1995239-0.2005539c-0.2197266-0.0561886-0.6340942-0.1727085-0.8430786-0.2379284   c-1.1113281-0.3592148-2.1630859-0.874958-3.1298828-1.5361938c-0.7129517-0.4845133-1.1403198-1.2819595-1.1820679-2.1487646   C4.0137329,12.924242,4,12.9628096,4,13.0058298c0,0.9191074,0.4482422,1.7719908,1.1982422,2.2817144   C6.1650391,15.9487801,7.2167969,16.4645233,8.328125,16.8237381z" fill="#010101" opacity="0.1"/><path d="M18.8017578,15.0316792c-0.9667969,0.6602325-2.0185547,1.1759758-3.1269531,1.5331841   c-0.2099609,0.0662231-0.625061,0.1839962-0.8457642,0.2401867l0.1992798,0.2003021   c0.1505737-0.0410137,0.5012207-0.1377792,0.6464844-0.1836205c1.1083984-0.3572083,2.1601563-0.8729515,3.1269531-1.5331841   C19.5517578,14.7778206,20,13.9249372,20,13.0058298c0-0.0430202-0.0137329-0.0815878-0.0161743-0.1239185   C19.9420776,13.7487164,19.5147095,14.5462255,18.8017578,15.0316792z" fill="#010101" opacity="0.1"/><path d="M12,0.25c2.6328735,0,4.8762817,1.6727295,5.7404175,4.0088501   C16.9922485,1.7971802,14.7030029,0,12,0S7.0077515,1.7971802,6.2595825,4.2588501C7.1237183,1.9227295,9.3671265,0.25,12,0.25z" fill="#FFFFFF" opacity="0.2"/><path d="M12,3c1.4342041,0,2.5934019,0.9957886,2.9243345,2.3292847   C14.744586,3.8457642,13.5310669,2.6875,12,2.6875c-1.5311279,0-2.744729,1.1581421-2.9243555,2.6417847   C9.4065161,3.9956055,10.5657349,3,12,3z" fill="#010101" opacity="0.1"/><path d="M12,11.75c-2.6328735,0-4.8762817-1.6727295-5.7404175-4.0088501   C7.0077515,10.2028198,9.2969971,12,12,12s4.9922485-1.7971802,5.7404175-4.2588501   C16.8762817,10.0772705,14.6328735,11.75,12,11.75z" fill="#010101" opacity="0.1"/><path d="M12,9c-1.4342041,0-2.5934019-0.9957886-2.9243345-2.3292847   C9.255414,8.1542358,10.4689331,9.3125,12,9.3125c1.5311279,0,2.744729-1.1581421,2.9243555-2.6417847   C14.5934839,8.0043945,13.4342651,9,12,9z" fill="#FFFFFF" opacity="0.2"/><path d="M4.850769,11.47365c0.7019043-0.3491802,1.53479-0.2729225,2.1742554,0.2026854   C8.472229,12.7529755,10.1923218,13.3229017,12,13.3229017c1.8077393,0,3.527832-0.5699263,4.9749756-1.6465664   c0.6405029-0.4756079,1.4723511-0.5518656,2.1743164-0.2026854c0.1524048,0.0761328,0.2855835,0.1737127,0.4094238,0.2793198   c-0.1695557-0.2142878-0.3707886-0.4046183-0.6260986-0.5361881c-0.6806641-0.3491802-1.4873047-0.2729225-2.1083984,0.2026854   C15.4208984,12.4961071,13.7529297,13.0660334,12,13.0660334s-3.4208984-0.5699263-4.8242188-1.6465664   c-0.6201172-0.4756079-1.4277344-0.5518656-2.1083984-0.2026854c-0.2553101,0.1315699-0.456543,0.3219004-0.6260986,0.5362501   C4.5651245,11.6473627,4.6983032,11.5497828,4.850769,11.47365z" fill="#FFFFFF" opacity="0.2"/><linearGradient gradientUnits="userSpaceOnUse" id="SVGID_1_" x1="6.562386" x2="17.4376144" y1="3.4643991" y2="8.5356007"><stop offset="0" style="stop-color:#FFFFFF;stop-opacity:0.2"/><stop offset="1" style="stop-color:#FFFFFF;stop-opacity:0"/></linearGradient><path d="M12,12c3.3085938,0,6-2.6914063,6-6s-2.6914063-6-6-6S6,2.6914063,6,6S8.6914063,12,12,12z M12,3   c1.6538086,0,3,1.3461914,3,3s-1.3461914,3-3,3S9,7.6538086,9,6S10.3461914,3,12,3z" fill="url(#SVGID_1_)"/><linearGradient gradientUnits="userSpaceOnUse" id="SVGID_2_" x1="3.6329043" x2="19.6478348" y1="13.3203716" y2="20.7882557"><stop offset="0" style="stop-color:#FFFFFF;stop-opacity:0.2"/><stop offset="1" style="stop-color:#FFFFFF;stop-opacity:0"/></linearGradient><path d="M18.8017578,15.2885475C19.5517578,14.7778206,20,13.9249372,20,13.0058298   c0-0.7756224-0.3994141-1.4448843-1.0673828-1.7890482c-0.6806641-0.3491802-1.4873047-0.2729225-2.1083984,0.2026854   C15.4208984,12.4961071,13.7529297,13.0660334,12,13.0660334s-3.4208984-0.5699263-4.8242188-1.6465664   c-0.6201172-0.4756079-1.4277344-0.5518656-2.1083984-0.2026854C4.3994141,11.5609455,4,12.2302074,4,13.0058298   c0,0.9191074,0.4482422,1.7719908,1.1982422,2.2817144c0.9667969,0.6612358,2.0185547,1.1769791,3.1298828,1.5361938   c0.2089844,0.0652199,0.4238281,0.1254234,0.6435547,0.1816139l-3.2832031,3.3001575   c-0.3984375,0.4083805-0.6171875,0.952219-0.6171875,1.5301723c0,0.5779552,0.21875,1.1217937,0.6171875,1.5311775   c0.8203125,0.8428497,2.1582031,0.843853,2.9863281-0.0060196L12,19.8228779l3.3310547,3.5439816   C15.7421875,23.7892876,16.28125,24,16.8212891,24s1.0791016-0.2107124,1.4902344-0.6331406   c0.3984375-0.4093838,0.6171875-0.9532223,0.6171875-1.5311775c0-0.5779533-0.21875-1.1217918-0.6210938-1.5341854   l-3.2792969-3.2961445c0.2207031-0.0561905,0.4365234-0.1173973,0.6464844-0.1836205   C16.7832031,16.4645233,17.8349609,15.9487801,18.8017578,15.2885475z" fill="url(#SVGID_2_)"/></g><g/><g/><g/><g/><g/><g/><g/><g/><g/><g/><g/><g/><g/><g/><g/></svg>