<?xml version="1.0" ?><svg enable-background="new 0 0 24 24" id="Layer_1" version="1.1" viewBox="0 0 24 24" xml:space="preserve" xmlns="http://www.w3.org/2000/svg" xmlns:xlink="http://www.w3.org/1999/xlink"><g><path d="M24,7h-4.2572021c-2.35853-1.3051877-5.0507269-1.9999127-7.7427626-2   c-2.6923637-0.0000873-5.3845654,0.6946225-7.74265,2H0c0,0,0.7987671,1.6557007,1.0457764,2.6212158   C0.3869019,10.5842896,0,11.7474976,0,13c0,3.3085938,2.6914063,6,6,6c1.7846069,0,3.3848877-0.7872925,4.4848633-2.027832L12,19   l1.5151367-2.027832C14.6151123,18.2127075,16.2153931,19,18,19c3.3085938,0,6-2.6914063,6-6   c0-1.2524414-0.3868408-2.4155273-1.0456543-3.3786011C23.2009277,8.6615601,24,7,24,7z" fill="#333333"/><circle cx="6" cy="13" fill="#FFFFFF" r="5"/><circle cx="18" cy="13" fill="#FFFFFF" r="5"/><circle cx="6" cy="13" fill="#333333" r="3"/><circle cx="6" cy="13" fill="#FFFFFF" r="2"/><circle cx="18" cy="13" fill="#333333" r="3"/><circle cx="18" cy="13" fill="#FFFFFF" r="2"/><circle cx="6" cy="13" fill="#EF473B" r="1"/><circle cx="18" cy="13" fill="#74C590" r="1"/><path d="M12,13c0-3.1165161,2.3884888-5.6834717,5.4309082-5.9711914   c-3.4556885-1.3168945-7.4057007-1.3168945-10.8621216,0C9.6112671,7.3165283,12,9.8834229,12,13z" fill="#F9C612"/><linearGradient gradientUnits="userSpaceOnUse" id="SVGID_1_" x1="0.2622258" x2="22.783062" y1="6.437655" y2="16.9392929"><stop offset="0" style="stop-color:#FFFFFF;stop-opacity:0.2"/><stop offset="1" style="stop-color:#FFFFFF;stop-opacity:0"/></linearGradient><path d="M24,7h-4.2572021c-2.35853-1.3051877-5.0507269-1.9999127-7.7427626-2   c-2.6923637-0.0000873-5.3845654,0.6946225-7.74265,2H0c0,0,0.7987671,1.6557007,1.0457764,2.6212158   C0.3869019,10.5842896,0,11.7474976,0,13c0,3.3085938,2.6914063,6,6,6c1.7846069,0,3.3848877-0.7872925,4.4848633-2.027832L12,19   l1.5151367-2.027832C14.6151123,18.2127075,16.2153931,19,18,19c3.3085938,0,6-2.6914063,6-6   c0-1.2524414-0.3868408-2.4155273-1.0456543-3.3786011C23.2009277,8.6615601,24,7,24,7z" fill="url(#SVGID_1_)"/></g><g/><g/><g/><g/><g/><g/><g/><g/><g/><g/><g/><g/><g/><g/><g/></svg>