<?xml version="1.0" ?><svg enable-background="new 0 0 24 24" id="Layer_1" version="1.1" viewBox="0 0 24 24" xml:space="preserve" xmlns="http://www.w3.org/2000/svg" xmlns:xlink="http://www.w3.org/1999/xlink"><g><path d="M20.6441517,0.5673828C20.3438587,0.2070313,19.8990345,0,19.4244251,0H5.6514769   C4.1895628,0,3.0001097,1.1621094,3.0001097,2.5908203v19.4707031C3.0001097,23.1303711,3.8882933,24,4.9796019,24   c0.5683594,0,1.1098633-0.2392578,1.4819336-0.652832L13.219348,16h2.8198233c1.2851563,0,2.3823242-0.8969727,2.6083984-2.1289063   l2.3271484-12.0512695C21.0567493,1.3740234,20.9361439,0.9179688,20.6441517,0.5673828z" fill="#EF548A"/><path d="M20.6441517,0.5673828C20.3438587,0.2070313,19.8990345,0,19.4244251,0H5.6514769   C4.1895628,0,3.0001097,1.1621094,3.0001097,2.5908203v0.25C3.0001097,1.4121094,4.1895628,0.25,5.6514769,0.25h13.7729483   c0.4746094,0,0.9194336,0.2070313,1.2197266,0.5673828c0.2009277,0.241272,0.3140869,0.5335083,0.3424683,0.8369141   C21.0149403,1.2630005,20.9000111,0.8745728,20.6441517,0.5673828z" fill="#FFFFFF" opacity="0.2"/><path d="M20.9747181,1.5698242l-2.3271484,12.0512695   C18.4214954,14.8530273,17.3243275,15.75,16.0391712,15.75H13.219348l-6.7578125,7.347168   C6.0894651,23.5107422,5.5479612,23.75,4.9796019,23.75c-1.0913086,0-1.9794922-0.8696289-1.9794922-1.9384766v0.25   C3.0001097,23.1303711,3.8882933,24,4.9796019,24c0.5683594,0,1.1098633-0.2392578,1.4819336-0.652832L13.219348,16h2.8198233   c1.2851563,0,2.3823242-0.8969727,2.6083984-2.1289063l2.3271484-12.0512695   c0.0255737-0.1390381,0.0247803-0.2780151,0.0119019-0.4155273C20.9825916,1.4595337,20.9848499,1.5146484,20.9747181,1.5698242z" fill="#010101" opacity="0.1"/><path d="M11.4922667,7c-0.2763672,0-0.5,0.2236328-0.5,0.5l0.007843,1c0,0.2763672,0.2236328,0.5,0.5,0.5   l4.796874-0.0029411L15.7603636,13H12.12218c-0.1396484,0-0.2734375,0.0585938-0.3681641,0.1616211l-5.7539063,6.2558594V3   H17.691515l-0.8121777,4.0029411L11.4922667,7z" fill="#FFFFFF"/><polygon fill="#010101" opacity="0.1" points="17.691515,3 6.0001097,3 6.0001097,3.25 17.6407948,3.25  "/><linearGradient gradientUnits="userSpaceOnUse" id="SVGID_1_" x1="0.8162985" x2="18.2795353" y1="6.7117829" y2="14.8550243"><stop offset="0" style="stop-color:#FFFFFF;stop-opacity:0.2"/><stop offset="1" style="stop-color:#FFFFFF;stop-opacity:0"/></linearGradient><path d="M20.6441517,0.5673828C20.3438587,0.2070313,19.8990345,0,19.4244251,0H5.6514769   C4.1895628,0,3.0001097,1.1621094,3.0001097,2.5908203v19.4707031C3.0001097,23.1303711,3.8882933,24,4.9796019,24   c0.5683594,0,1.1098633-0.2392578,1.4819336-0.652832L13.219348,16h2.8198233c1.2851563,0,2.3823242-0.8969727,2.6083984-2.1289063   l2.3271484-12.0512695C21.0567493,1.3740234,20.9361439,0.9179688,20.6441517,0.5673828z" fill="url(#SVGID_1_)"/></g><g/><g/><g/><g/><g/><g/><g/><g/><g/><g/><g/><g/><g/><g/><g/></svg>