<?xml version="1.0" ?><svg enable-background="new 0 0 24 24" id="Layer_1" version="1.1" viewBox="0 0 24 24" xml:space="preserve" xmlns="http://www.w3.org/2000/svg" xmlns:xlink="http://www.w3.org/1999/xlink"><g><path d="M0,16.9990406c0,0,0.4782609,0,2.0869565,0s2.4130383-0.0347195,4.173913-5.5550232   L8.347826,9.2220087C10.080164,15.9465752,10.7608643,16.9990406,12,16.9990406C13.2391253,16.9990406,15.4248152,17,16.6965542,17   S19.27174,16.0616302,24,7c0,0-1.858696,0-4.173914,0s-3.22826,4.2704229-4.173912,7.7770309   C14.0217333,8.5276308,13.695652,7,11.478261,7S8.902174,7,6.7826085,7S2.3152175,8.7012253,0,16.9990406z" fill="#0A99D6" id="XMLID_1465_"/><path d="M6.7825928,7.25c2.1195679,0,2.4782715,0,4.6956787,0   s2.543457,1.5275879,4.1738892,7.7770386C16.5978394,11.5203857,17.5108643,7.25,19.8261108,7.25   c1.9689941,0,3.5959473,0,4.0419922,0C23.9134521,7.1633301,23.9539795,7.0881958,24,7c0,0-1.8587036,0-4.1738892,0   c-2.3152466,0-3.2282715,4.2703857-4.1739502,7.7770386C14.0217285,8.5275879,13.6956787,7,11.4782715,7S8.9021606,7,6.7825928,7   S2.3152466,8.7012329,0,16.9990234c0,0,1.0784258-3.2290268,1.5803753-4.4329605   C3.3704941,8.2724371,5.1446924,7.25,6.7825928,7.25z" fill="#FFFFFF" opacity="0.2"/><path d="M16.6965332,16.75c-1.2717285,0-3.4573975-0.0009766-4.6965332-0.0009766   s-1.9198608-1.0524902-3.6521606-7.7770386l-2.0869751,2.2220459C4.5,16.7142944,3.6956787,16.7490234,2.0869751,16.7490234   c-1.2763672,0-1.8346558,0-2.0135498,0C0.0489502,16.8352051,0.0244751,16.911377,0,16.9990234c0,0,0.4782715,0,2.0869751,0   S4.5,16.9642944,6.2608643,11.4440308l2.0869751-2.2220459C10.0801392,15.9465332,10.7608643,16.9990234,12,16.9990234   S15.4248047,17,16.6965332,17C17.9683228,17,19.2717285,16.0615845,24,7c0,0-0.83988,1.3426189-1.1644611,1.9436827   C19.0472584,15.9588795,17.8565426,16.75,16.6965332,16.75z" fill="#010101" opacity="0.1"/><linearGradient gradientUnits="userSpaceOnUse" id="XMLID_40_" x1="3.5405657" x2="19.9417992" y1="8.054821" y2="15.7028418"><stop offset="0" style="stop-color:#FFFFFF;stop-opacity:0.2"/><stop offset="1" style="stop-color:#FFFFFF;stop-opacity:0"/></linearGradient><path d="M0,16.9990406c0,0,0.4782609,0,2.0869565,0   s2.4130383-0.0347195,4.173913-5.5550232L8.347826,9.2220087C10.080164,15.9465752,10.7608643,16.9990406,12,16.9990406   C13.2391253,16.9990406,15.4248152,17,16.6965542,17S19.27174,16.0616302,24,7c0,0-1.858696,0-4.173914,0   s-3.22826,4.2704229-4.173912,7.7770309C14.0217333,8.5276308,13.695652,7,11.478261,7S8.902174,7,6.7826085,7   S2.3152175,8.7012253,0,16.9990406z" fill="url(#XMLID_40_)" id="XMLID_1022_"/></g><g/><g/><g/><g/><g/><g/><g/><g/><g/><g/><g/><g/><g/><g/><g/></svg>