<?xml version="1.0" ?><svg enable-background="new 0 0 24 24" id="Layer_1" version="1.1" viewBox="0 0 24 24" xml:space="preserve" xmlns="http://www.w3.org/2000/svg" xmlns:xlink="http://www.w3.org/1999/xlink"><g><path d="M11.5839844,6.7771606C11.6767578,6.9158249,11.8330078,6.999805,12,6.999805   s0.3232422-0.0839801,0.4160156-0.2226443l2-2.9998426c0.1025391-0.1533122,0.1123047-0.3505673,0.0244141-0.5136447   C14.3535156,3.1015723,14.1845703,3.0000153,14,3.0000153h-4c-0.1845703,0-0.3535156,0.101557-0.4404297,0.263658   C9.4716797,3.4267507,9.4814453,3.6240058,9.5839844,3.777318L11.5839844,6.7771606z" fill="#005B96"/><path d="M9.0322266,13.400836c-0.1015625-0.1044865-0.2304688-0.1621008-0.3896484-0.1513596   c-0.1455078,0.0087891-0.2802734,0.0810509-0.3681641,0.1972551c-0.4970703,0.6542625-0.8984375,1.2753239-1.2236328,1.8905258   C2.6298828,15.9671068,0,17.32934,0,18.9991741c0,0.7460556,0.5322266,1.8250999,3.0693359,2.7342319   c0.0058594,0.0020752,0.0119629,0.0012817,0.0178833,0.0031128c0.0056152,0.00177,0.0095825,0.0060425,0.0153198,0.0076294   c0.8378906,0.2353382,1.9384766,0.2558441,2.2929688,0.2558441c0.0654297,0,0.1054688-0.0009747,0.1142578-0.0009747   C5.7734375,21.9941349,5.9882813,21.7841835,6,21.5205269c0.0107422-0.2646351-0.1855469-0.4911861-0.4482422-0.518528   l-2.1855469-0.2283821C2.3627319,20.3660469,2,19.9683609,2,19.749136c0-0.4150181,1.1337891-1.2264996,4.1220703-1.76651   C6.0302734,18.4933414,5.9902344,18.9981976,6,19.508913c0.0058594,0.2724476,0.2275391,0.4902096,0.5,0.4902096h3   c0.2763672,0,0.5-0.2236214,0.5-0.4999752c0-0.9462395,0.3828125-1.9832935,1.1708984-3.169754   c0.1210938-0.1826077,0.109375-0.4228296-0.0292969-0.5927429C10.5830078,15.053093,9.9121094,14.3109446,9.0322266,13.400836z" fill="#005B96"/><path d="M12.4417725,6.5271735C12.3432617,6.6658382,12.1773071,6.7498183,12,6.7498183   s-0.3432617-0.0839801-0.4417725-0.2226448l-1.998291-2.8226666C9.5708008,3.7281263,9.5692139,3.7552855,9.5839844,3.777318   l2,2.9998426C11.6767578,6.9158249,11.8330078,6.999805,12,6.999805s0.3232422-0.0839801,0.4160156-0.2226443l2-2.9998426   c0.0147705-0.0220325,0.0131836-0.0491917,0.0240479-0.0728111L12.4417725,6.5271735z" fill="#010101" opacity="0.1"/><path d="M9.6546631,19.749136H6.605835c-0.2769165,0-0.5021973-0.217762-0.5081787-0.4902096   c-0.0098877-0.5107155,0.0308228-1.0155716,0.1240845-1.5262871c-3.0369263,0.5400105-4.189209,1.3514919-4.189209,1.7665081   c0,0.0274048,0.0057983,0.0576763,0.0178833,0.0903282c0.2400513-0.4402237,1.4282837-1.1291523,4.0716553-1.6068497   C6.0302734,18.4933414,5.9902344,18.9981976,6,19.508913c0.0058594,0.2724476,0.2275391,0.4902096,0.5,0.4902096h3   c0.2301025,0,0.4153442-0.1581955,0.4736938-0.3696098C9.8858643,19.7008591,9.7775879,19.749136,9.6546631,19.749136z" fill="#010101" opacity="0.1"/><path d="M16.9433594,15.3362808c-0.5214844-0.9911585-1.2353516-1.9959888-2.2177734-3.1209297l0.4199219-0.4296646   C18.0234375,8.8444347,21,5.8035789,21,2.5000415c0-0.1474533-0.0644531-0.2861178-0.1767578-0.3818159   c-0.1123047-0.0947216-0.2607517-0.135735-0.4052734-0.1113222l-2.9990234,0.4999735   c-0.1621094,0.0273423-0.3007813,0.131829-0.3710938,0.2812352c-1.1826172,2.5272112-3.1210938,4.5847201-5.0458984,6.5562959   c-1.9277344-1.9725523-3.8681641-4.0320144-5.0498047-6.5562959C6.8818359,2.638706,6.7431641,2.5342193,6.5810547,2.5068769   L3.5820313,2.0069034C3.4384766,1.983467,3.2890625,2.023504,3.1767578,2.1182256C3.0644531,2.2139237,3,2.3525882,3,2.5000415   c0,3.3015842,2.9746094,6.3424401,5.8525391,9.2827148C11.4990234,14.4876928,14,17.0432224,14,19.4991474   c0,0.2763538,0.2236328,0.4999752,0.5,0.4999752h3c0.2724609,0,0.4941406-0.217762,0.5-0.4902096   c0.0097656-0.5077858-0.0302734-1.0126419-0.1240234-1.5262871C20.8652344,18.5226364,22,19.3341179,22,19.749136   c0,0.2192249-0.3627319,0.6169109-1.3662109,1.0244808l-2.1855469,0.2283821   C18.1855469,21.0293407,17.9892578,21.2558918,18,21.5205269c0.0117188,0.2636566,0.2265625,0.473608,0.4902344,0.4784908   c0.0087891,0,0.0488281,0.0009747,0.1142578,0.0009747c0.3554688,0,1.4550781-0.0205059,2.2929688-0.2558441   c0.0057373-0.0015869,0.0097046-0.0058594,0.0153198-0.0076294c0.0059204-0.0018311,0.0120239-0.0010376,0.0178833-0.0031128   C23.4677734,20.8242741,24,19.7452297,24,18.9991741C24,17.32934,21.3681641,15.9671068,16.9433594,15.3362808z" fill="#005B96"/><g><path d="M5.5097656,21.7490292c-0.0087891,0-0.0488281,0.0009766-0.1142578,0.0009766    c-0.3544922,0-1.4550781-0.0205059-2.2929688-0.255846c-0.0057373-0.0015869-0.0097046-0.0058575-0.0153198-0.0076275    c-0.0059204-0.0018311-0.0120239-0.0010376-0.0178833-0.0031128c-2.399353-0.8597584-2.9984741-1.8680058-3.057251-2.606308    C0.0089111,18.9179401,0,18.9579773,0,18.9991741c0,0.7460556,0.5322266,1.8250999,3.0693359,2.7342319    c0.0058594,0.0020752,0.0119629,0.0012817,0.0178833,0.0031128c0.0056152,0.00177,0.0095825,0.0060425,0.0153198,0.0076294    c0.8378906,0.2353382,1.9384766,0.2558441,2.2929688,0.2558441c0.0654297,0,0.1054688-0.0009747,0.1142578-0.0009747    C5.7734375,21.9941349,5.9882813,21.7841835,6,21.5205269c0.0021973-0.053709-0.0095215-0.1040592-0.0231934-0.1533127    C5.9228516,21.5820465,5.7390137,21.7447586,5.5097656,21.7490292z" fill="#010101" opacity="0.1"/><path d="M17.5,19.749136h-3c-0.2763672,0-0.5-0.2236214-0.5-0.4999752    c0-2.455925-2.5009766-5.0114546-5.1474609-7.7163906C6.0328979,8.6520615,3.1278687,5.67413,3.0110474,2.4497511    C3.0092163,2.4670842,3,2.4824033,3,2.5000415c0,3.3015842,2.9746094,6.3424401,5.8525391,9.2827148    C11.4990234,14.4876928,14,17.0432224,14,19.4991474c0,0.2763538,0.2236328,0.4999752,0.5,0.4999752h3    c0.2724609,0,0.4941406-0.217762,0.5-0.4902096c0.0014038-0.0732994-0.0060425-0.1464767-0.0067139-0.2196541    C17.9714966,19.5465088,17.7616577,19.749136,17.5,19.749136z" fill="#010101" opacity="0.1"/><path d="M10,3.2500021h4c0.1845703,0,0.3535156,0.101557,0.4404297,0.2636578    c0.0189819,0.0351546,0.015686,0.0748253,0.0255737,0.112421c0.0327148-0.1210265,0.0360718-0.248034-0.0255737-0.3624077    C14.3535156,3.1015723,14.1845703,3.0000153,14,3.0000153h-4c-0.1845703,0-0.3535156,0.101557-0.4404297,0.263658    C9.4979248,3.378047,9.5012817,3.5050545,9.5339966,3.626081C9.5438843,3.5884852,9.5405884,3.5488145,9.5595703,3.51366    C9.6464844,3.3515592,9.8154297,3.2500021,10,3.2500021z" fill="#FFFFFF" opacity="0.2"/><path d="M3.5820313,2.2568901l2.9990234,0.4999738    c0.1621094,0.0273423,0.3007813,0.131829,0.3710938,0.2812352c1.1816406,2.5242813,3.1220703,4.5837431,5.0498047,6.5562963    c1.9248047-1.9715767,3.8632813-4.0290856,5.0458984-6.5562963c0.0703125-0.1494062,0.2089844-0.2538929,0.3710938-0.2812352    l2.9990234-0.4999738c0.1445217-0.0244126,0.2929688,0.0166008,0.4052734,0.1113224    c0.098877,0.084285,0.1524048,0.2040908,0.1657104,0.3315866C20.991394,2.6330912,21,2.5669324,21,2.5000415    c0-0.1474533-0.0644531-0.2861178-0.1767578-0.3818159c-0.1123047-0.0947216-0.2607517-0.135735-0.4052734-0.1113222    l-2.9990234,0.4999735c-0.1621094,0.0273423-0.3007813,0.131829-0.3710938,0.2812352    c-1.1826172,2.5272112-3.1210938,4.5847201-5.0458984,6.5562959c-1.9277344-1.9725523-3.8681641-4.0320144-5.0498047-6.5562959    C6.8818359,2.638706,6.7431641,2.5342193,6.5810547,2.5068769L3.5820313,2.0069034    C3.4384766,1.983467,3.2890625,2.023504,3.1767578,2.1182256C3.0644531,2.2139237,3,2.3525882,3,2.5000415    c0,0.066891,0.008606,0.1329887,0.0110474,0.1996965C3.024353,2.5722423,3.0778809,2.4524975,3.1767578,2.3682125    C3.2890625,2.2734909,3.4384766,2.233454,3.5820313,2.2568901z" fill="#FFFFFF" opacity="0.2"/><linearGradient gradientUnits="userSpaceOnUse" id="SVGID_1_" x1="14.1807022" x2="24.484436" y1="13.2575932" y2="18.0623035"><stop offset="0" style="stop-color:#FFFFFF;stop-opacity:0.2"/><stop offset="1" style="stop-color:#FFFFFF;stop-opacity:0"/></linearGradient><path d="M16.9433594,15.5862675c4.3156738,0.615263,6.918457,1.9273281,7.0445557,3.5408306    C23.991272,19.0846806,24,19.0396996,24,18.9991741c0-1.6698341-2.6318359-3.0320673-7.0566406-3.6628933    c-0.5001221-0.950572-1.2965088-2.0512838-2.2177734-3.1209297l-0.1126099,0.1152287    C15.5953979,13.4555206,16.421875,14.595109,16.9433594,15.5862675z" fill="url(#SVGID_1_)"/></g><linearGradient gradientUnits="userSpaceOnUse" id="SVGID_2_" x1="0.9384671" x2="24.6862583" y1="6.8098931" y2="17.8836708"><stop offset="0" style="stop-color:#FFFFFF;stop-opacity:0.2"/><stop offset="1" style="stop-color:#FFFFFF;stop-opacity:0"/></linearGradient><path d="M11.5839844,6.7771673C11.6767578,6.9158392,11.8330078,6.9997625,12,6.9997625   s0.3232422-0.0839233,0.4160156-0.2225952l2-2.9998779c0.1025391-0.1533203,0.1123047-0.3505249,0.0244141-0.5136108   C14.3535156,3.1015692,14.1845703,3.0000067,14,3.0000067h-4c-0.1845703,0-0.3535156,0.1015625-0.4404297,0.2636719   c-0.0878906,0.1630859-0.078125,0.3602905,0.0244141,0.5136108L11.5839844,6.7771673z M9.0322266,13.4008245   c-0.1015625-0.1044922-0.2304688-0.1621094-0.3896484-0.1513672c-0.1455078,0.0087891-0.2802734,0.0810547-0.3681641,0.1972656   c-0.4970703,0.6542358-0.8984375,1.2753296-1.2236328,1.8905029C2.6298828,15.9671087,0,17.3293533,0,18.9991531   c0,0.7460327,0.5322266,1.8251343,3.0693359,2.7342529c0.0058594,0.0020752,0.0119629,0.0012817,0.0178833,0.0031128   c0.0056152,0.00177,0.0095825,0.0060425,0.0153198,0.0076294c0.8378906,0.2353516,1.9384766,0.2558594,2.2929688,0.2558594   c0.0654297,0,0.1054688-0.0009766,0.1142578-0.0009766C5.7734375,21.9941483,5.9882813,21.7841873,6,21.5205154   c0.0107422-0.2646484-0.1855469-0.4912109-0.4482422-0.5185547l-2.1855469-0.2283325   C2.3627319,20.3660355,2,19.9683304,2,19.7490921c0-0.414978,1.1337891-1.2264404,4.1220703-1.7664795   C6.0302734,18.4933548,5.9902344,18.9981766,6,19.5089188c0.0058594,0.2723999,0.2275391,0.4901733,0.5,0.4901733h3   c0.2763672,0,0.5-0.2236328,0.5-0.499939c0-0.9462891,0.3828125-1.9833374,1.1708984-3.1697998   c0.1210938-0.1825562,0.109375-0.4227915-0.0292969-0.5927134C10.5830078,15.0531073,9.9121094,14.3109198,9.0322266,13.4008245z    M16.9433594,15.3362494c-0.5214844-0.9911499-1.2353516-1.9959717-2.2177734-3.1209106l0.4199219-0.4296875   C18.0234375,8.8444281,21,5.8035345,21,2.5000067c0-0.1474609-0.0644531-0.2860718-0.1767578-0.3817749   c-0.1123047-0.0947266-0.2607517-0.1357422-0.4052734-0.1113281l-2.9990234,0.499939   c-0.1621094,0.0273438-0.3007813,0.1318359-0.3710938,0.28125c-1.1826172,2.5272217-3.1210938,4.5847168-5.0458984,6.5562744   c-1.9277344-1.9725342-3.8681641-4.0319824-5.0498047-6.5562744c-0.0703125-0.1494141-0.2089844-0.2539063-0.3710938-0.28125   l-2.9990234-0.499939C3.4384766,1.9834661,3.2890625,2.0235052,3.1767578,2.1182318C3.0644531,2.2139349,3,2.3525457,3,2.5000067   c0,3.3015747,2.9746094,6.3424683,5.8525391,9.2827148C11.4990234,14.4876776,14,17.0432205,14,19.4991531   c0,0.2763062,0.2236328,0.499939,0.5,0.499939h3c0.2724609,0,0.4941406-0.2177734,0.5-0.4901733   c0.0097656-0.5078125-0.0302734-1.0126343-0.1240234-1.5263062C20.8652344,18.5226517,22,19.3341141,22,19.7490921   c0,0.2192383-0.3627319,0.6169434-1.3662109,1.0245361l-2.1855469,0.2283325   C18.1855469,21.0293045,17.9892578,21.255867,18,21.5205154c0.0117188,0.2636719,0.2265625,0.4736328,0.4902344,0.4785156   c0.0087891,0,0.0488281,0.0009766,0.1142578,0.0009766c0.3554688,0,1.4550781-0.0205078,2.2929688-0.2558594   c0.0057373-0.0015869,0.0097046-0.0058594,0.0153198-0.0076294c0.0059204-0.0018311,0.0120239-0.0010376,0.0178833-0.0031128   C23.4677734,20.8242874,24,19.7451859,24,18.9991531C24,17.3293533,21.3681641,15.9671087,16.9433594,15.3362494z" fill="url(#SVGID_2_)"/></g><g/><g/><g/><g/><g/><g/><g/><g/><g/><g/><g/><g/><g/><g/><g/></svg>