<?xml version="1.0" ?><svg enable-background="new 0 0 24 24" id="Layer_1" version="1.1" viewBox="0 0 24 24" xml:space="preserve" xmlns="http://www.w3.org/2000/svg" xmlns:xlink="http://www.w3.org/1999/xlink"><g><path d="M14.6315794,24C18.0855255,23.25,22,20.119566,22,16.173914   S18.3815708,9.945652,16.7368412,8.869565c0.1315804,0.945652-0.7963867,1.565218-1.5789461,1.565218   c-0.7825603,0-1.578948-0.684783-1.578948-1.565218c0-1.98913,0.5263157-1.6630435,0.5263157-3.6521735S13.875,2.25,11.4736843,0   c0.8552551,4.2391305-2.8453951,5.951087-5.789474,8.869565S2,14.347826,2,16.173914C2,18.4786701,2.6578948,22.72826,8.3157892,24   c-2.1929822-2-2.6315789-3.043478-2.6315789-4.173914c0-1.130434,0.877193-2.9130421,2.6315789-4.173912   c-1.0526314,2.652174,0.7017546,3.130434,1.578948,3.130434c0.8771925,0,1.5789471-0.782608,1.5789471-2.086956   s-2.1052637-2.103261-2.1052637-3.652174s1.0526323-2.608695,1.0526323-2.608695S10.0701752,11.5,11.4736843,12.521739   S17.7894745,16,17.7894745,18.782608S16.7368412,22.5,14.6315794,24z" fill="#E78424" id="XMLID_1469_"/><path d="M21.9926147,16.2941895C21.9934692,16.2537231,22,16.2145386,22,16.1738892   c0-3.9456177-3.6184082-6.2282715-5.2631836-7.3043213c0.012207,0.0875854,0.0065308,0.1692505,0.0014648,0.2509766   C18.3651733,10.1848755,21.9128418,12.4310303,21.9926147,16.2941895z" fill="#FFFFFF" opacity="0.2"/><path d="M14.1020508,5.3103638c0.0003052-0.0343018,0.0032349-0.057251,0.0032349-0.0930176   C14.1052856,3.2282715,13.875,2.25,11.4736938,0c0.0202637,0.1004028,0.0258179,0.192749,0.0410156,0.2903442   C13.8068848,2.4474487,14.0882568,3.4423828,14.1020508,5.3103638z" fill="#FFFFFF" opacity="0.2"/><path d="M15.1605225,23.6135864C14.9892578,23.7402954,14.8196411,23.8660278,14.6315918,24   C18.0855103,23.25,22,20.1195679,22,16.1738892c0-0.0443726-0.0064697-0.0856934-0.0073853-0.1296997   C21.9173584,19.7331543,18.4369507,22.6864014,15.1605225,23.6135864z" fill="#010101" opacity="0.1"/><path d="M2.00354,16.1062622C2.0033569,16.1279297,2,16.1524048,2,16.1738892   C2,18.4786377,2.6578979,22.7282715,8.3157959,24c-0.135498-0.1235962-0.2446899-0.2330933-0.3671265-0.3496094   C2.777832,22.3125,2.0375977,18.3903809,2.00354,16.1062622z" fill="#010101" opacity="0.1"/><path d="M11.4736938,12.2717285c-0.8537598-0.621521-1.0554199-1.2559204-1.0846558-1.6600952   c-0.0344238,0.34375,0.0247803,1.1385498,1.0846558,1.9100952c1.3897705,1.0117188,6.2128906,3.4309082,6.3071289,6.1799316   c0.0010376-0.0593872,0.008667-0.1079102,0.008667-0.1690674C17.7894897,15.75,12.8771973,13.293457,11.4736938,12.2717285z" fill="#010101" opacity="0.1"/><linearGradient gradientUnits="userSpaceOnUse" id="XMLID_38_" x1="4.3182845" x2="21.9028015" y1="9.5400982" y2="17.739893"><stop offset="0" style="stop-color:#FFFFFF;stop-opacity:0.2"/><stop offset="1" style="stop-color:#FFFFFF;stop-opacity:0"/></linearGradient><path d="M14.6315794,24C18.0855255,23.25,22,20.119566,22,16.173914   S18.3815708,9.945652,16.7368412,8.869565c0.1315804,0.945652-0.7963867,1.565218-1.5789461,1.565218   c-0.7825603,0-1.578948-0.684783-1.578948-1.565218c0-1.98913,0.5263157-1.6630435,0.5263157-3.6521735S13.875,2.25,11.4736843,0   c0.8552551,4.2391305-2.8453951,5.951087-5.789474,8.869565S2,14.347826,2,16.173914C2,18.4786701,2.6578948,22.72826,8.3157892,24   c-2.1929822-2-2.6315789-3.043478-2.6315789-4.173914c0-1.130434,0.877193-2.9130421,2.6315789-4.173912   c-1.0526314,2.652174,0.7017546,3.130434,1.578948,3.130434c0.8771925,0,1.5789471-0.782608,1.5789471-2.086956   s-2.1052637-2.103261-2.1052637-3.652174s1.0526323-2.608695,1.0526323-2.608695S10.0701752,11.5,11.4736843,12.521739   S17.7894745,16,17.7894745,18.782608S16.7368412,22.5,14.6315794,24z" fill="url(#XMLID_38_)" id="XMLID_1021_"/></g><g/><g/><g/><g/><g/><g/><g/><g/><g/><g/><g/><g/><g/><g/><g/></svg>