<?xml version="1.0" ?><svg enable-background="new 0 0 24 24" id="Layer_1" version="1.1" viewBox="0 0 24 24" xml:space="preserve" xmlns="http://www.w3.org/2000/svg" xmlns:xlink="http://www.w3.org/1999/xlink"><g><path d="M20,11c-2.4814453,0-4.5-2.0185547-4.5-4.5c0-1.378418,0.8974609-2.5,2-2.5C18.3271484,4,19,4.8969727,19,6   c0,0.1679688-0.0390625,0.8344727-0.5439453,2.3461914l-0.0976563,0.2929688l0.21875,0.21875   c0.7392578,0.7397461,2.7392578,1.0395508,3.1328125,1.0922852l0.4101563,0.0546875l0.1308594-0.3920898   C22.7480469,8.1235352,23,6.9082031,23,6c0-3.3085938-2.4677734-6-5.5-6c-3.3085938,0-6,2.9160156-6,6.5   c0,3.1132813,1.7353516,5.9897461,4.4628906,7.46875c-2.09375,3.8955078-3.9091797,5.7783203-4.4375,6.0146484   C10.0830078,19.3945313,5,10.1499023,5,4.5V4H1v0.5C1,10.3120117,6.4921875,24,11.5,24   c3.1787109,0,6.3193359-4.824707,8.4414063-9.0009766c0.6748047,0.0214844,1.5585938-0.1030273,2.6582031-0.328125L23,14.5893555   v-4.1069336l-0.6123047,0.140625C21.3134766,10.8696289,20.4873047,11,20,11z" fill="#48BFAF"/><path d="M11.5253906,19.9833984C10.0830078,19.3945313,5,10.1499023,5,4.5v0.25   c0,5.6499023,5.0830078,14.8945313,6.5253906,15.4833984c0.5283203-0.2363281,2.4475098-2.3033447,4.5412598-6.1988525   c-0.0363159-0.0196533-0.0678101-0.0455933-0.1037598-0.0657959   C13.9235296,17.7999992,12.0447998,19.7510376,11.5253906,19.9833984z" fill="#FFFFFF" opacity="0.2"/><path d="M17.5,0c-3.3085938,0-6,2.9160156-6,6.5c0,0.0339966,0.0065308,0.0667725,0.006958,0.100708   C11.5811768,3.0859985,14.237915,0.25,17.5,0.25c2.9874268,0,5.421936,2.6139526,5.4932861,5.8552856   C22.9938965,6.0721436,23,6.0323486,23,6C23,2.6914063,20.5322266,0,17.5,0z" fill="#FFFFFF" opacity="0.2"/><path d="M20,11.25c0.4873047,0,1.3134766-0.1303711,2.3876953-0.3769531L23,10.7324219v-0.25   l-0.6123047,0.140625C21.3134766,10.8696289,20.4873047,11,20,11c-2.4433594,0-4.4281616-1.9598999-4.4887695-4.388855   C15.5090942,6.65802,15.5,6.7024536,15.5,6.75C15.5,9.2314453,17.5185547,11.25,20,11.25z" fill="#FFFFFF" opacity="0.2"/><path d="M19.9414063,14.7490234C17.8193359,18.925293,14.6787109,23.75,11.5,23.75   C6.4921875,23.75,1,10.0620117,1,4.25V4.5C1,10.3120117,6.4921875,24,11.5,24c3.1787109,0,6.3193359-4.824707,8.4414063-9.0009766   c0.6748047,0.0214844,1.5585938-0.1030273,2.6582031-0.328125L23,14.5893555v-0.25l-0.4003906,0.081543   C21.5,14.6459961,20.6162109,14.7705078,19.9414063,14.7490234z" fill="#010101" opacity="0.1"/><linearGradient gradientUnits="userSpaceOnUse" id="SVGID_1_" x1="0.386788" x2="22.5134106" y1="5.3150373" y2="15.6328506"><stop offset="0" style="stop-color:#FFFFFF;stop-opacity:0.2"/><stop offset="1" style="stop-color:#FFFFFF;stop-opacity:0"/></linearGradient><path d="M20,11c-2.4814453,0-4.5-2.0185547-4.5-4.5c0-1.378418,0.8974609-2.5,2-2.5   C18.3271484,4,19,4.8969727,19,6c0,0.1679688-0.0390625,0.8344727-0.5439453,2.3461914l-0.0976563,0.2929688l0.21875,0.21875   c0.7392578,0.7397461,2.7392578,1.0395508,3.1328125,1.0922852l0.4101563,0.0546875l0.1308594-0.3920898   C22.7480469,8.1235352,23,6.9082031,23,6c0-3.3085938-2.4677734-6-5.5-6c-3.3085938,0-6,2.9160156-6,6.5   c0,3.1132813,1.7353516,5.9897461,4.4628906,7.46875c-2.09375,3.8955078-3.9091797,5.7783203-4.4375,6.0146484   C10.0830078,19.3945313,5,10.1499023,5,4.5V4H1v0.5C1,10.3120117,6.4921875,24,11.5,24   c3.1787109,0,6.3193359-4.824707,8.4414063-9.0009766c0.6748047,0.0214844,1.5585938-0.1030273,2.6582031-0.328125L23,14.5893555   v-4.1069336l-0.6123047,0.140625C21.3134766,10.8696289,20.4873047,11,20,11z" fill="url(#SVGID_1_)"/></g><g/><g/><g/><g/><g/><g/><g/><g/><g/><g/><g/><g/><g/><g/><g/></svg>