<?xml version="1.0" ?><svg enable-background="new 0 0 24 24" id="Layer_1" version="1.1" viewBox="0 0 24 24" xml:space="preserve" xmlns="http://www.w3.org/2000/svg" xmlns:xlink="http://www.w3.org/1999/xlink"><g><path d="M12,1C5.3833008,1,0,5.2617188,0,10.5c0,4.5820313,4.1064453,8.4902344,9.7817383,9.3300781   c0.0268555,0.0087891,0.0546875,0.015625,0.0839844,0.0205078c0.6850586,0.1064453,1.1318359,0.3525391,1.3266602,0.7314453   c0.2954102,0.5732422,0,1.4160156-0.1386719,1.6923828c-0.1010742,0.2011719-0.0551758,0.4462891,0.112793,0.5966797   C11.2612305,22.9560547,11.3808594,23,11.5009766,23c0.09375,0,0.1875-0.0263672,0.2705078-0.0800781l7.7475586-5.0117188   c0.0161133-0.0107422,0.0317383-0.0214844,0.0463867-0.0341797C22.3847656,16.0605469,24,13.3769531,24,10.5   C24,5.2617188,18.6166992,1,12,1z" fill="#50B84C"/><path d="M12,1.25c6.5609741,0,11.9019775,4.1917114,11.9916382,9.3693237   C23.9922485,10.5792236,24,10.5401611,24,10.5C24,5.2617188,18.6166992,1,12,1S0,5.2617188,0,10.5   c0,0.0449829,0.0066528,0.0887451,0.0074463,0.1335449C0.0874023,5.4492798,5.4329834,1.25,12,1.25z" fill="#FFFFFF" opacity="0.2"/><path d="M11.1923828,20.3286743c-0.1948242-0.3789063-0.6416016-0.625-1.3266602-0.7314453   c-0.0292969-0.0048828-0.0571289-0.0117188-0.0839844-0.0205078c-5.6196289-0.831604-9.6947021-4.6727905-9.774292-9.1965332   C0.0068359,10.4193726,0,10.4573364,0,10.4966431c0,4.5820313,4.1064453,8.4902344,9.7817383,9.3300781   c0.0268555,0.0087891,0.0546875,0.015625,0.0839844,0.0205078c0.6850586,0.1064453,1.1318359,0.3525391,1.3266602,0.7314453   C11.2589722,20.7078857,11.2875977,20.8530273,11.3027344,21C11.3131104,20.7666016,11.2969971,20.5316162,11.1923828,20.3286743z" fill="#010101" opacity="0.1"/><path d="M19.5654297,17.6240234c-0.0146484,0.0126953-0.0302734,0.0234375-0.0463867,0.0341797   l-7.7475586,5.0117188C11.6884766,22.7236328,11.5947266,22.75,11.5009766,22.75   c-0.1201172,0-0.2397461-0.0439453-0.3344727-0.1289063c-0.0690308-0.0617676-0.1031494-0.1453247-0.1292114-0.2294922   c-0.0388184,0.1734009-0.0077515,0.3568726,0.1292114,0.4794922C11.2612305,22.9560547,11.3808594,23,11.5009766,23   c0.09375,0,0.1875-0.0263672,0.2705078-0.0800781l7.7475586-5.0117188   c0.0161133-0.0107422,0.0317383-0.0214844,0.0463867-0.0341797C22.3847656,16.0605469,24,13.3769531,24,10.5   c0-0.0441284-0.0076294-0.086731-0.0083618-0.1306763C23.9472656,13.2006836,22.3453979,15.8358765,19.5654297,17.6240234z" fill="#010101" opacity="0.1"/><polygon fill="#FFFFFF" points="12,10.3046875 14.2171631,14 15,14 15,8 14,8 14,11.6953125 11.7828369,8 11,8 11,14 12,14  "/><g id="XMLID_1521_"><polygon fill="#FFFFFF" points="19,14 16,14 16,8 19,8 19,9 17,9 17,13 19,13   "/></g><g id="XMLID_1522_"><rect fill="#FFFFFF" height="1" width="2.5" x="16.5" y="10.5"/></g><g id="XMLID_1515_"><polygon fill="#FFFFFF" points="8.5,14 5,14 5.0001488,8 6.0001001,8 6,13 8.5,13   "/></g><g id="XMLID_1518_"><rect fill="#FFFFFF" height="6" width="1" x="9" y="8"/></g><linearGradient gradientUnits="userSpaceOnUse" id="SVGID_1_" x1="1.1553059" x2="22.1744881" y1="6.3234534" y2="16.1248589"><stop offset="0" style="stop-color:#FFFFFF;stop-opacity:0.2"/><stop offset="1" style="stop-color:#FFFFFF;stop-opacity:0"/></linearGradient><path d="M12,1C5.3833008,1,0,5.2617188,0,10.5c0,4.5820313,4.1064453,8.4902344,9.7817383,9.3300781   c0.0268555,0.0087891,0.0546875,0.015625,0.0839844,0.0205078c0.6850586,0.1064453,1.1318359,0.3525391,1.3266602,0.7314453   c0.2954102,0.5732422,0,1.4160156-0.1386719,1.6923828c-0.1010742,0.2011719-0.0551758,0.4462891,0.112793,0.5966797   C11.2612305,22.9560547,11.3808594,23,11.5009766,23c0.09375,0,0.1875-0.0263672,0.2705078-0.0800781l7.7475586-5.0117188   c0.0161133-0.0107422,0.0317383-0.0214844,0.0463867-0.0341797C22.3847656,16.0605469,24,13.3769531,24,10.5   C24,5.2617188,18.6166992,1,12,1z" fill="url(#SVGID_1_)"/></g><g/><g/><g/><g/><g/><g/><g/><g/><g/><g/><g/><g/><g/><g/><g/></svg>