<?xml version="1.0" ?><svg enable-background="new 0 0 24 24" id="Layer_1" version="1.1" viewBox="0 0 24 24" xml:space="preserve" xmlns="http://www.w3.org/2000/svg" xmlns:xlink="http://www.w3.org/1999/xlink"><g><path d="M21,23H3c-1.1045696,0-2-0.8954296-2-2V3c0-1.1045696,0.8954304-2,2-2h18c1.1045704,0,2,0.8954304,2,2v18   C23,22.1045704,22.1045704,23,21,23z" fill="#150F45"/><path d="M21,1H3C1.8954468,1,1,1.8953857,1,3v0.25c0-1.1046143,0.8954468-2,2-2h18   c1.1045532,0,2,0.8953857,2,2V3C23,1.8953857,22.1045532,1,21,1z" fill="#FFFFFF" opacity="0.2"/><path d="M21,22.75H3c-1.1045532,0-2-0.8954468-2-2V21c0,1.1045532,0.8954468,2,2,2h18   c1.1045532,0,2-0.8954468,2-2v-0.25C23,21.8545532,22.1045532,22.75,21,22.75z" fill="#010101" opacity="0.1"/><path d="M14.8447266,12l2.5239258-2.8388672c0.9150391-1.0302734,0.8222656-2.6142578-0.2075195-3.5302734   c-0.5-0.4443359-1.1469727-0.6669922-1.8085938-0.6269531c-0.6665039,0.0390625-1.277832,0.3359375-1.7207031,0.8349609   L11,8.7988281V7.5C11,6.1210938,9.878418,5,8.5,5S6,6.1210938,6,7.5v9C6,17.8789063,7.121582,19,8.5,19s2.5-1.1210938,2.5-2.5   v-1.2988281l2.6318359,2.9599609C14.1054688,18.6943359,14.7866211,19,15.5004883,19   c0.6118164,0,1.2011719-0.2236328,1.6606445-0.6308594c1.0297852-0.9160156,1.1225586-2.5,0.2070313-3.5302734L14.8447266,12z" fill="#5DBD6C"/><path d="M8.5,5.25c1.378418,0,2.5,1.1210938,2.5,2.5V7.5C11,6.1210938,9.878418,5,8.5,5   S6,6.1210938,6,7.5v0.25C6,6.3710938,7.121582,5.25,8.5,5.25z" fill="#FFFFFF" opacity="0.2"/><path d="M17.1611328,5.6308594c-0.5-0.4443359-1.1469727-0.6669922-1.8085938-0.6269531   c-0.6665039,0.0390625-1.277832,0.3359375-1.7207031,0.8349609L11,8.7988281v0.25l2.6318359-2.9599609   c0.4428711-0.4990234,1.0541992-0.7958984,1.7207031-0.8349609c0.6616211-0.0400391,1.3085938,0.1826172,1.8085938,0.6269531   c0.5019531,0.4464722,0.7771606,1.052063,0.8256836,1.6744995C18.0020752,6.847229,17.7302856,6.137146,17.1611328,5.6308594z" fill="#FFFFFF" opacity="0.2"/><path d="M15.5004883,18.75c-0.7138672,0-1.3950195-0.3056641-1.8686523-0.8388672L11,14.9511719v0.25   l2.6318359,2.9599609C14.1054688,18.6943359,14.7866211,19,15.5004883,19c0.6118164,0,1.2011719-0.2236328,1.6606445-0.6308594   c0.5690918-0.5062256,0.8408813-1.2163086,0.8255615-1.9243774c-0.0484619,0.6223755-0.3236694,1.2279663-0.8255615,1.6743774   C16.7016602,18.5263672,16.1123047,18.75,15.5004883,18.75z" fill="#010101" opacity="0.1"/><path d="M8.5,18.75c-1.378418,0-2.5-1.1210938-2.5-2.5v0.25C6,17.8789063,7.121582,19,8.5,19   s2.5-1.1210938,2.5-2.5v-0.25C11,17.6289063,9.878418,18.75,8.5,18.75z" fill="#010101" opacity="0.1"/><linearGradient gradientUnits="userSpaceOnUse" id="SVGID_1_" x1="11.3983908" x2="22.4166031" y1="11.3936014" y2="22.4118118"><stop offset="0" style="stop-color:#010101;stop-opacity:0.1"/><stop offset="1" style="stop-color:#010101;stop-opacity:0"/></linearGradient><path d="M17.1611328,5.6308594c1.0297852,0.9160156,1.1225586,2.5,0.2075195,3.5302734L14.8447266,12   l2.5234375,2.8388672c0.9155273,1.0302734,0.8227539,2.6142578-0.2070313,3.5302734   C16.7016602,18.7763672,16.1123047,19,15.5004883,19c-0.7138672,0-1.3950195-0.3056641-1.8686523-0.8388672L11,15.2011719V16.5   c0,1.3789063-1.121582,2.5-2.5,2.5c-0.6577148,0-1.2524414-0.260376-1.6992798-0.677124L6.798645,18.3254395L11.4732056,23H21   c1.1045532,0,2-0.8954468,2-2v-9.5303345L17.1611328,5.6308594z" fill="url(#SVGID_1_)"/><linearGradient gradientUnits="userSpaceOnUse" id="SVGID_2_" x1="-0.6527924" x2="24.652792" y1="6.099906" y2="17.9000931"><stop offset="0" style="stop-color:#FFFFFF;stop-opacity:0.2"/><stop offset="1" style="stop-color:#FFFFFF;stop-opacity:0"/></linearGradient><path d="M21,23H3c-1.1045696,0-2-0.8954296-2-2V3c0-1.1045696,0.8954304-2,2-2h18   c1.1045704,0,2,0.8954304,2,2v18C23,22.1045704,22.1045704,23,21,23z" fill="url(#SVGID_2_)"/></g><g/><g/><g/><g/><g/><g/><g/><g/><g/><g/><g/><g/><g/><g/><g/></svg>