<?xml version="1.0" ?><svg enable-background="new 0 0 24 24" id="Layer_1" version="1.1" viewBox="0 0 24 24" xml:space="preserve" xmlns="http://www.w3.org/2000/svg" xmlns:xlink="http://www.w3.org/1999/xlink"><g><path d="M24,8.5C24,4.9160156,21.0839844,2,17.5,2c-1.9482422,0-3.7705078,0.8666992-5,2.3491211   C11.2705078,2.8666992,9.4482422,2,7.5,2C3.9160156,2,1,4.9160156,1,8.5c0,3.4160156,2.6484375,6.2246094,6,6.480957v0.7602539   l-7-2.9995117v8.4213867l7-2V22h11.2578125l-3-7H17.5C21.0839844,15,24,12.0839844,24,8.5z M7.5,10C6.6728516,10,6,9.3271484,6,8.5   S6.6728516,7,7.5,7S9,7.6728516,9,8.5S8.3271484,10,7.5,10z M16,8.5C16,7.6728516,16.6728516,7,17.5,7S19,7.6728516,19,8.5   S18.3271484,10,17.5,10S16,9.3271484,16,8.5z" fill="#313C42"/><polygon fill="#FFFFFF" opacity="0.2" points="7,15.7412109 0,12.7416992 0,12.9916992 7,15.9912109  "/><path d="M17.5,2c-1.9482422,0-3.7705078,0.8666992-5,2.3491211   C11.2705078,2.8666992,9.4482422,2,7.5,2C3.9160156,2,1,4.9160156,1,8.5c0,0.0431519,0.0053101,0.085022,0.0061646,0.1279907   C1.0720825,5.100647,3.9572144,2.25,7.5,2.25c1.9482422,0,3.7705078,0.8666992,5,2.3491211   C13.7294922,3.1166992,15.5517578,2.25,17.5,2.25c3.5418091,0,6.4261475,2.8490601,6.4936523,6.375   C23.9944458,8.5830078,24,8.5421753,24,8.5C24,4.9160156,21.0839844,2,17.5,2z" fill="#FFFFFF" opacity="0.2"/><polygon fill="#010101" opacity="0.2" points="7,21.9911766 18.2578125,21.9911766 18.1506958,21.7411766 7,21.7411766  "/><polygon fill="#010101" opacity="0.2" points="7,18.9042625 0,20.9042625 0,21.1542625 7,19.1542625  "/><path d="M17.5,14.7411766h-2.3493042l0.1071167,0.25H17.5c3.5839844,0,6.5-2.9160156,6.5-6.5   c0-0.0421753-0.0055542-0.0830078-0.0063477-0.125C23.9261475,11.8921165,21.0418091,14.7411766,17.5,14.7411766z" fill="#010101" opacity="0.2"/><path d="M7,14.9721336v-0.25c-3.3092041-0.2531128-5.9281006-2.9955444-5.9938354-6.3529663   C1.0053711,8.410183,1,8.4499779,1,8.4911766C1,11.9071922,3.6484375,14.715786,7,14.9721336z" fill="#010101" opacity="0.2"/><linearGradient gradientUnits="userSpaceOnUse" id="SVGID_1_" x1="0.780913" x2="20.7761536" y1="7.5297313" y2="16.8536644"><stop offset="0" style="stop-color:#FFFFFF;stop-opacity:0.2"/><stop offset="1" style="stop-color:#FFFFFF;stop-opacity:0"/></linearGradient><path d="M24,8.5C24,4.9160156,21.0839844,2,17.5,2c-1.9482422,0-3.7705078,0.8666992-5,2.3491211   C11.2705078,2.8666992,9.4482422,2,7.5,2C3.9160156,2,1,4.9160156,1,8.5c0,3.4160156,2.6484375,6.2246094,6,6.480957v0.7602539   l-7-2.9995117v8.4213867l7-2V22h11.2578125l-3-7H17.5C21.0839844,15,24,12.0839844,24,8.5z M7.5,10C6.6728516,10,6,9.3271484,6,8.5   S6.6728516,7,7.5,7S9,7.6728516,9,8.5S8.3271484,10,7.5,10z M16,8.5C16,7.6728516,16.6728516,7,17.5,7S19,7.6728516,19,8.5   S18.3271484,10,17.5,10S16,9.3271484,16,8.5z" fill="url(#SVGID_1_)"/></g><g/><g/><g/><g/><g/><g/><g/><g/><g/><g/><g/><g/><g/><g/><g/></svg>