<?xml version="1.0" ?><svg enable-background="new 0 0 24 24" id="Layer_1" version="1.1" viewBox="0 0 24 24" xml:space="preserve" xmlns="http://www.w3.org/2000/svg" xmlns:xlink="http://www.w3.org/1999/xlink"><g><path d="M12,12v11h9c1.1045532,0,2-0.8954468,2-2v-9H12z" fill="#CCCCCC"/><path d="M12,1H3C1.8954468,1,1,1.8953857,1,3v9h11V1z" fill="#F3F3F3"/><path d="M23,12V3c0-1.1046143-0.8954468-2-2-2h-9v11H23z" fill="#035099"/><path d="M1,12v9c0,1.1045532,0.8954468,2,2,2h9V12H1z" fill="#333333"/><path d="M21,1H3C1.8954468,1,1,1.8953857,1,3v0.25c0-1.1046143,0.8954468-2,2-2h18   c1.1045532,0,2,0.8953857,2,2V3C23,1.8953857,22.1045532,1,21,1z" fill="#FFFFFF" opacity="0.2"/><path d="M21,22.75H3c-1.1045532,0-2-0.8954468-2-2V21c0,1.1045532,0.8954468,2,2,2h18   c1.1045532,0,2-0.8954468,2-2v-0.25C23,21.8545532,22.1045532,22.75,21,22.75z" fill="#010101" opacity="0.1"/><linearGradient gradientUnits="userSpaceOnUse" id="SVGID_1_" x1="-0.6527957" x2="24.6527901" y1="6.0998993" y2="17.9000874"><stop offset="0" style="stop-color:#FFFFFF;stop-opacity:0.2"/><stop offset="1" style="stop-color:#FFFFFF;stop-opacity:0"/></linearGradient><path d="M21,1H3C1.8954468,1,1,1.8953857,1,3v18c0,1.1045532,0.8954468,2,2,2h18   c1.1045532,0,2-0.8954468,2-2V3C23,1.8953857,22.1045532,1,21,1z" fill="url(#SVGID_1_)"/></g><g/><g/><g/><g/><g/><g/><g/><g/><g/><g/><g/><g/><g/><g/><g/></svg>