<?xml version="1.0" ?><svg enable-background="new 0 0 24 24" id="Layer_1" version="1.1" viewBox="0 0 24 24" xml:space="preserve" xmlns="http://www.w3.org/2000/svg" xmlns:xlink="http://www.w3.org/1999/xlink"><g><rect fill="#0A72BA" height="3" width="7" x="15" y="4"/><path d="M10.5435181,11.7936401C11.4332275,10.9710083,12,9.8045044,12,8.5C12,6.0185547,9.9814453,4,7.5,4H0v16h8   c2.4814453,0,4.5-2.0185547,4.5-4.5C12.5,13.9627075,11.7230835,12.6057129,10.5435181,11.7936401z M3,7.000061h4.500061   C8.3284302,7.000061,9,7.6716309,9,8.5C9,9.3284302,8.3284302,10,7.500061,10H3V7.000061z M8.000061,17H3v-2.999939h5.000061   C8.8284302,14.000061,9.5,14.6716309,9.5,15.5C9.5,16.3284302,8.8284302,17,8.000061,17z" fill="#0A72BA"/><path d="M20.5036621,16C20.0300293,16.6062012,19.3111572,17,18.5,17c-1.2008057,0-2.2129517-0.8511963-2.5-2   h7.9175415C23.9677734,14.6741333,24,14.3414917,24,14c0-3.3137207-2.4624634-6-5.5-6S13,10.6862793,13,14s2.4624634,6,5.5,6   c2.3936768,0,4.4245605-1.6711426,5.1803589-4H20.5036621z M18.5,10.5c1.2008057,0,2.2129517,0.8511963,2.5,2h-5   C16.2870483,11.3511963,17.2991943,10.5,18.5,10.5z" fill="#0A72BA"/><rect fill="#FFFFFF" height="0.25" opacity="0.2" width="7" x="15" y="4"/><rect fill="#010101" height="0.25" opacity="0.1" width="7" x="15" y="6.75"/><path d="M7.5,4H0v0.25h7.5c2.4372559,0,4.416748,1.9503174,4.4869385,4.3709106   C11.9880981,8.5796509,12,8.5415039,12,8.5C12,6.0185547,9.9814453,4,7.5,4z" fill="#FFFFFF" opacity="0.2"/><path d="M8,19.75H0V20h8c2.4814453,0,4.5-2.0185547,4.5-4.5   c0-0.0521851-0.0079346-0.1022949-0.0097046-0.1540527C12.4378662,17.7821655,10.4486084,19.75,8,19.75z" fill="#010101" opacity="0.1"/><path d="M7.500061,6.7493844H3v0.25h4.500061c0.7855835,0,1.4227905,0.6060791,1.4873657,1.3749394   C8.9909668,8.3323927,9,8.2921705,9,8.2493238C9,7.4209542,8.3284302,6.7493844,7.500061,6.7493844z" fill="#010101" opacity="0.1"/><path d="M8.000061,13.7493849H3v0.25h5.000061c0.7855835,0,1.4227905,0.6060791,1.4873657,1.374939   C9.4909668,15.3323927,9.5,15.2921705,9.5,15.2493238C9.5,14.4209547,8.8284302,13.7493849,8.000061,13.7493849z" fill="#010101" opacity="0.1"/><path d="M18.5,8.25c2.9879761,0,5.4140625,2.6008911,5.4926147,5.8398438   C23.993103,14.0593262,24,14.0307007,24,14c0-3.3137207-2.4624634-6-5.5-6S13,10.6862793,13,14   c0,0.0421753,0.0050049,0.0830078,0.0057983,0.125C13.0673828,10.8696289,15.5011597,8.25,18.5,8.25z" fill="#FFFFFF" opacity="0.2"/><path d="M18.5,19.75c-2.9988403,0-5.4326172-2.6196289-5.4942017-5.875   C13.0050049,13.9169922,13,13.9578247,13,14c0,3.3137207,2.4624634,6,5.5,6c2.3936768,0,4.4245605-1.6711426,5.1803589-4   h-0.1015625C22.7609863,18.1937866,20.8046875,19.75,18.5,19.75z" fill="#010101" opacity="0.1"/><path d="M15.9154663,14.75C15.9370117,14.8363647,15.970459,14.9172363,16,15h7.9175415   c0.0125732-0.0814819,0.0245266-0.1676636,0.0345974-0.25H15.9154663z" fill="#010101" opacity="0.1"/><linearGradient gradientUnits="userSpaceOnUse" id="SVGID_1_" x1="-1.0995096" x2="22.9905319" y1="6.3579059" y2="17.5912762"><stop offset="0" style="stop-color:#FFFFFF;stop-opacity:0.2"/><stop offset="1" style="stop-color:#FFFFFF;stop-opacity:0"/></linearGradient><path d="M22,4h-7v3h7V4z M10.5435181,11.7936401C11.4332275,10.9710083,12,9.8045044,12,8.5   C12,6.0185547,9.9814453,4,7.5,4H0v16h8c2.4814453,0,4.5-2.0185547,4.5-4.5   C12.5,13.9627075,11.7230835,12.6057129,10.5435181,11.7936401z M3,7.000061h4.500061C8.3284302,7.000061,9,7.6716309,9,8.5   C9,9.3284302,8.3284302,10,7.500061,10H3V7.000061z M8.000061,17H3v-2.999939h5.000061   C8.8284302,14.000061,9.5,14.6716309,9.5,15.5C9.5,16.3284302,8.8284302,17,8.000061,17z M24,14c0-3.3137207-2.4624634-6-5.5-6   S13,10.6862793,13,14s2.4624634,6,5.5,6c2.3936768,0,4.4245605-1.6711426,5.1803589-4h-3.1766968   C20.0300293,16.6062012,19.3111572,17,18.5,17c-1.2008057,0-2.2129517-0.8511963-2.5-2h7.9175415   C23.9677734,14.6741333,24,14.3414917,24,14z M16,12.5c0.2870483-1.1488037,1.2991943-2,2.5-2s2.2129517,0.8511963,2.5,2H16z" fill="url(#SVGID_1_)"/></g><g/><g/><g/><g/><g/><g/><g/><g/><g/><g/><g/><g/><g/><g/><g/></svg>