<?xml version="1.0" ?><svg enable-background="new 0 0 24 24" id="Layer_1" version="1.1" viewBox="0 0 24 24" xml:space="preserve" xmlns="http://www.w3.org/2000/svg" xmlns:xlink="http://www.w3.org/1999/xlink"><g><path d="M20.0414715,12.9794922c0.2353516-0.453125,1.0888672-1.7353516,1.7294922-2.6992188   c1.875-2.8183594,2.2290039-3.4189453,2.2290039-3.7802734c0-0.2763672-0.2236328-0.5-0.5-0.5h-4.5   c-0.2421875,0-0.4492188,0.1728516-0.4921875,0.4111328C18.2602215,7.7871094,15.0131512,11.7519531,14.4999676,12   c-0.2094727,0-0.5-0.5214844-0.5-1.5v-4l0.003418-0.2197266c0.0073242-0.3251953,0.0146484-0.6621094-0.2436523-0.9267578   C13.4311199,5.0175781,12.9223309,5,11.4999676,5C8.9194012,5,7.9999681,5.7744141,7.9999681,6.5   c0,0.2763672,0.1772456,0.4921875,0.4536128,0.4921875C8.458952,6.9951172,8.9999676,7.3564453,8.9999676,9.5   c0,0.5800781,0,2.0410156-0.1347656,2.4882813c-1.2636714-0.2177734-3.0205073-3.3916016-3.8989253-5.6679688   C4.8920579,6.1269531,4.706511,6,4.4999681,6h-4C0.3515304,6,0.2109054,6.0654297,0.1161788,6.1796875   C0.020964,6.2939453-0.0185868,6.4443359,0.0082687,6.5898438C0.5605147,9.6113281,6.9125657,19,10.9999676,19h2   c1.0595703,0,1.1425781-1.1484375,1.1977539-1.9091797C14.2499676,16.3671875,14.311491,16,14.4999676,16   c0.6206055,0,1.8852539,1.0976563,2.722168,1.8242188C18.1611004,18.6396484,18.5932293,19,18.9999676,19h2.5   c1.2856445,0,2.5,0,2.5-1c0-0.3808594-0.3325195-0.8242188-2.2250977-2.9677734   C21.139616,14.3134766,20.2948895,13.3564453,20.0414715,12.9794922z" fill="#015D7E"/><path d="M0.4999679,6.25h4c0.206543,0,0.3920898,0.1269531,0.4663086,0.3203125   c0.878418,2.2763672,2.6352539,5.4501953,3.8989253,5.6679688C8.9999676,11.7910156,8.9999676,10.3300781,8.9999676,9.75   c0-0.0026855-0.0002441-0.0045166-0.0002441-0.0072021c-0.0016479,0.6720581-0.0158081,1.8514404-0.1345215,2.2454834   c-1.2636714-0.2177734-3.0205073-3.3916016-3.8989253-5.6679688C4.8920579,6.1269531,4.706511,6,4.4999681,6h-4   C0.3515304,6,0.2109054,6.0654297,0.1161788,6.1796875C0.020964,6.2939453-0.0185868,6.4443359,0.0082687,6.5898438   c0.00177,0.0095825,0.0067139,0.022644,0.008606,0.0323486c0.0184937-0.0697632,0.0518799-0.1356201,0.0993042-0.1925049   C0.2109054,6.3154297,0.3515304,6.25,0.4999679,6.25z" fill="#FFFFFF" opacity="0.2"/><path d="M23.4999676,6h-4.5c-0.2421875,0-0.4492188,0.1728516-0.4921875,0.4111328   C18.2602215,7.7871094,15.0131512,11.7519531,14.4999676,12c-0.2094727,0-0.5-0.5214844-0.5-1.5v0.25   c0,0.9785156,0.2905273,1.5,0.5,1.5c0.5131836-0.2480469,3.7602539-4.2128906,4.0078125-5.5888672   C18.5507488,6.4228516,18.7577801,6.25,18.9999676,6.25h4.5c0.2418823,0,0.4338989,0.1748047,0.4804077,0.402771   C23.9940472,6.595459,23.9999676,6.5456543,23.9999676,6.5C23.9999676,6.2236328,23.7763348,6,23.4999676,6z" fill="#FFFFFF" opacity="0.2"/><path d="M11.4999676,5.25c1.4223633,0,1.9311523,0.0175781,2.2597656,0.3535156   c0.1901855,0.1948242,0.2354736,0.4289551,0.2437134,0.6686401c0.0072632-0.3227539,0.0124512-0.656189-0.2437134-0.9186401   C13.4311199,5.0175781,12.9223309,5,11.4999676,5C8.9194012,5,7.9999681,5.7744141,7.9999681,6.5   c0,0.0443115,0.0117793,0.0835571,0.0205684,0.1241455C8.1227703,5.9376221,9.0682659,5.25,11.4999676,5.25z" fill="#FFFFFF" opacity="0.2"/><path d="M13.9999676,6.5v0.25l0.003418-0.2197266c0.0019531-0.0857544,0.0029907-0.1722412,0.000061-0.2581177   c-0.000061,0.0026855,0,0.0054321-0.000061,0.0081177L13.9999676,6.5z" fill="#4766B0"/><path d="M21.4999676,18.7490196h-2.5c-0.4067383,0-0.8388672-0.3603516-1.777832-1.1757813   c-0.8369141-0.7265625-2.1015625-1.8242188-2.722168-1.8242188c-0.1884766,0-0.25,0.3671875-0.3022461,1.0908203   c-0.0551758,0.7607422-0.1381836,1.9091797-1.1977539,1.9091797h-2c-4.0744014,0-10.3960571-9.3257446-10.9830933-12.3778076   c-0.0186157,0.0703125-0.0220947,0.1445923-0.008606,0.2176514c0.5522461,3.0214844,6.9042969,12.4101563,10.9916992,12.4101563h2   c1.0595703,0,1.1425781-1.1484375,1.1977539-1.9091797c0.0522461-0.7236328,0.1137695-1.0908203,0.3022461-1.0908203   c0.6206055,0,1.8852539,1.0976563,2.722168,1.8242188c0.9389648,0.8154297,1.3710938,1.1757813,1.777832,1.1757813h2.5   c1.2856445,0,2.5,0,2.5-1c0-0.0462036-0.0054932-0.0935669-0.0174561-0.1445313   C23.8911419,18.7394371,22.7342815,18.7490196,21.4999676,18.7490196z" fill="#010101" opacity="0.1"/><linearGradient gradientUnits="userSpaceOnUse" id="SVGID_1_" x1="0.6838205" x2="24.9280109" y1="4.9229236" y2="16.2281742"><stop offset="0" style="stop-color:#FFFFFF;stop-opacity:0.2"/><stop offset="1" style="stop-color:#FFFFFF;stop-opacity:0"/></linearGradient><path d="M20.0414715,12.9794922c0.2353516-0.453125,1.0888672-1.7353516,1.7294922-2.6992188   c1.875-2.8183594,2.2290039-3.4189453,2.2290039-3.7802734c0-0.2763672-0.2236328-0.5-0.5-0.5h-4.5   c-0.2421875,0-0.4492188,0.1728516-0.4921875,0.4111328C18.2602215,7.7871094,15.0131512,11.7519531,14.4999676,12   c-0.2094727,0-0.5-0.5214844-0.5-1.5v-4l0.003418-0.2197266c0.0073242-0.3251953,0.0146484-0.6621094-0.2436523-0.9267578   C13.4311199,5.0175781,12.9223309,5,11.4999676,5C8.9194012,5,7.9999681,5.7744141,7.9999681,6.5   c0,0.2763672,0.1772456,0.4921875,0.4536128,0.4921875C8.458952,6.9951172,8.9999676,7.3564453,8.9999676,9.5   c0,0.5800781,0,2.0410156-0.1347656,2.4882813c-1.2636714-0.2177734-3.0205073-3.3916016-3.8989253-5.6679688   C4.8920579,6.1269531,4.706511,6,4.4999681,6h-4C0.3515304,6,0.2109054,6.0654297,0.1161788,6.1796875   C0.020964,6.2939453-0.0185868,6.4443359,0.0082687,6.5898438C0.5605147,9.6113281,6.9125657,19,10.9999676,19h2   c1.0595703,0,1.1425781-1.1484375,1.1977539-1.9091797C14.2499676,16.3671875,14.311491,16,14.4999676,16   c0.6206055,0,1.8852539,1.0976563,2.722168,1.8242188C18.1611004,18.6396484,18.5932293,19,18.9999676,19h2.5   c1.2856445,0,2.5,0,2.5-1c0-0.3808594-0.3325195-0.8242188-2.2250977-2.9677734   C21.139616,14.3134766,20.2948895,13.3564453,20.0414715,12.9794922z" fill="url(#SVGID_1_)"/></g><g/><g/><g/><g/><g/><g/><g/><g/><g/><g/><g/><g/><g/><g/><g/></svg>