<?xml version="1.0" ?><svg enable-background="new 0 0 24 24" id="Layer_1" version="1.1" viewBox="0 0 24 24" xml:space="preserve" xmlns="http://www.w3.org/2000/svg" xmlns:xlink="http://www.w3.org/1999/xlink"><g><path d="M12,0C5.3725586,0,0,5.1486816,0,11.5c0,3.2880249,1.4475708,6.2460327,3.7560425,8.3419189L3,24   l3.9017944-2.1009521C8.4508667,22.5979004,10.1744385,23,12,23c6.6274414,0,12-5.1487427,12-11.5C24,5.1486816,18.6274414,0,12,0z   " fill="#0377BD"/><path d="M12,0.25c6.5834351,0,11.9226685,5.0819702,11.9934082,11.375   C23.9938965,11.5828857,24,11.5421753,24,11.5C24,5.1486816,18.6274414,0,12,0S0,5.1486816,0,11.5   c0,0.0413818,0.0062256,0.0812378,0.0067139,0.1224976C0.0788574,5.3305054,5.4174805,0.25,12,0.25z" fill="#FFFFFF" opacity="0.2"/><path d="M12,22.75c-1.8255615,0-3.5491333-0.4020996-5.0982056-1.1009521L3.050415,23.7228394L3,24   l3.9017944-2.1009521C8.4508667,22.5979004,10.1744385,23,12,23c6.6274414,0,12-5.1487427,12-11.5   c0-0.0421753-0.0061035-0.0828857-0.0065918-0.125C23.9226685,17.6679688,18.5834351,22.75,12,22.75z" fill="#010101" opacity="0.1"/><polygon fill="#FFFFFF" id="XMLID_1342_" points="5,14.5 10.6000004,8.5 13.8666668,11.5 19,8.5 13.3999996,14.5 10.1333332,11.5     "/><linearGradient gradientUnits="userSpaceOnUse" id="SVGID_1_" x1="10" x2="20.3029881" y1="9.5" y2="19.8029881"><stop offset="0" style="stop-color:#010101;stop-opacity:0.1"/><stop offset="1" style="stop-color:#010101;stop-opacity:0"/></linearGradient><path d="M19,8.5l-5.5999756,6l-3.2666626-3L5,14.5l8.4133301,8.4133301   c5.3273926-0.6000366,9.5755005-4.5415039,10.4199829-9.5800171L19,8.5z" fill="url(#SVGID_1_)"/><linearGradient gradientUnits="userSpaceOnUse" id="SVGID_2_" x1="0.4533569" x2="22.0510368" y1="8.0680742" y2="18.1392384"><stop offset="0" style="stop-color:#FFFFFF;stop-opacity:0.2"/><stop offset="1" style="stop-color:#FFFFFF;stop-opacity:0"/></linearGradient><path d="M12,0C5.3725586,0,0,5.1486816,0,11.5c0,3.2880249,1.4475708,6.2460327,3.7560425,8.3419189L3,24   l3.9017944-2.1009521C8.4508667,22.5979004,10.1744385,23,12,23c6.6274414,0,12-5.1487427,12-11.5C24,5.1486816,18.6274414,0,12,0z   " fill="url(#SVGID_2_)"/></g><g/><g/><g/><g/><g/><g/><g/><g/><g/><g/><g/><g/><g/><g/><g/></svg>