<?xml version="1.0" ?><svg enable-background="new 0 0 24 24" id="Layer_1" version="1.1" viewBox="0 0 24 24" xml:space="preserve" xmlns="http://www.w3.org/2000/svg" xmlns:xlink="http://www.w3.org/1999/xlink"><g><path d="M20,17c-0.7265625,0-1.1738281,0.2480469-1.6054688,0.4873047C17.9179688,17.7509766,17.4677734,18,16.5,18   c-1.9882813,0-4.3398438-2.9023438-5.3417969-4.4003906c2.5136719-2.1240234,6.265625-5.4541016,6.78125-6.8232422   c0.2363281-0.2050781,0.5244141-0.40625,0.828125-0.6171875C19.7626953,5.4677734,21,4.6064453,21,3c0-2.2138672-1.0771484-3-2-3   c-0.9726563,0-1.5302734,1.0556641-1.7958984,1.7685547C16.0478516,1.1884766,13.1679688,0,9,0   C7.2255859,0,6.1328125,1.0810547,6.0009766,2.9648438C5.9570313,3.5917969,6.1806641,4.7802734,6.8144531,5.4609375   C7.1425781,5.8125,7.5527344,5.9990234,8,5.9990234c0.7587891,0,1.2373047-0.3408203,1.6220703-0.6152344   C9.9658203,5.1386719,10.1767578,5,10.5,5c0.3154297,0,0.7177734,0.1347656,1.2275391,0.3046875   c0.6533203,0.21875,1.4863281,0.4970703,2.5693359,0.625c-1.4169922,1.3027344-4.078125,3.7353516-4.8916016,4.4794922   C8.9775391,10.2412109,8.1601563,10,7,10c-1.9316406,0-4,1.8085938-4,4.5C3,15.7236328,3,18,5,18   c1.0791016,0,1.9492188-0.8671875,2.4560547-1.5292969c0.7363281,1.3583984,2.3037109,4.2080078,3.0703125,5.3144531   C11.5019531,23.1923828,13.1328125,24,15,24c1.7939453,0,6-1.53125,6-4.5C21,18.4453125,21,17,20,17z" fill="#66BE60"/><path d="M16.5,18.25c0.9677734,0.0011539,1.4179688-0.2490234,1.8945313-0.5126953   C18.8261719,17.4980469,19.2734375,17.25,20,17.25c0.9277344,0,0.9939575,1.2408447,0.9988403,2.2628174   C20.9988403,19.5084229,21,19.5043945,21,19.5c0-1.0546875,0-2.5-1-2.5c-0.7265625,0-1.1738281,0.2480469-1.6054688,0.4873047   C17.9179688,17.7509766,17.4677734,18,16.5,18c-1.9219971,0-4.2885723-2.8643169-5.3422222-4.3983135   C11.1221943,13.6318378,14.0352945,18.2470589,16.5,18.25z" fill="#FFFFFF" opacity="0.2"/><path d="M9.4052734,10.4091797C8.9775391,10.2412109,8.1601563,10,7,10   c-1.9316406,0-4,1.8085938-4,4.5c0,0.0704956,0.0014038,0.1543579,0.00177,0.2312012C3.0117798,12.0505981,5.0730591,10.25,7,10.25   c1.1601563,0,1.9775391,0.2412109,2.4052734,0.4091797V10.4091797z" fill="#FFFFFF" opacity="0.2"/><path d="M9,0.25c4.1679688,0,7.0478516,1.1884766,8.2041016,1.7685547   C17.4697266,1.3056641,18.0273438,0.25,19,0.25c0.8999634,0,1.9391479,0.7580566,1.9904785,2.8483887   C20.9916382,3.0643311,21,3.034729,21,3c0-2.2138672-1.0771484-3-2-3c-0.9726563,0-1.5302734,1.0556641-1.7958984,1.7685547   C16.0478516,1.1884766,13.1679688,0,9,0C7.2255859,0,6.1328125,1.0810547,6.0009766,2.9648438   C5.9970093,3.0210571,6.0074463,3.100708,6.0079346,3.1651611C6.156189,1.3136597,7.2420654,0.25,9,0.25z" fill="#FFFFFF" opacity="0.2"/><path d="M11.7275391,5.0458641C11.2177734,4.8759422,10.8154297,4.7411766,10.5,4.7411766   c-0.3232422,0-0.5341797,0.1386719-0.8779297,0.3837891C9.2373047,5.3993797,8.7587891,5.7402,8,5.7402   c-0.4472656,0-0.8574219-0.1865234-1.1855469-0.5380859C6.2374878,4.5824852,6.0125732,3.5608785,6.0079346,2.9063375   c-0.0014038,0.017334-0.0057373,0.0321655-0.006958,0.0496826C5.9570313,3.5829732,6.1806641,4.77145,6.8144531,5.4521141   C7.1425781,5.8036766,7.5527344,5.9902,8,5.9902c0.7587891,0,1.2373047-0.3408203,1.6220703-0.6152344   C9.9658203,5.1298485,10.1767578,4.9911766,10.5,4.9911766c0.3154297,0,0.7263279,0.110981,1.2275391,0.3046875   c0.6195202,0.23943,1.6030884,0.4956398,2.5693359,0.6338234c0.0762939-0.0700684,0.1618652-0.1485596,0.2323608-0.2133789   C13.446228,5.5883789,12.3808594,5.2646141,11.7275391,5.0458641z" fill="#010101" opacity="0.1"/><path d="M15,23.75c-1.8671875,0-3.4980469-0.8076172-4.4736328-2.2148438   c-0.7666016-1.1064453-2.3339844-3.9560547-3.0703125-5.3144531C6.9492188,16.8828125,6.0791016,17.75,5,17.75   c-1.8847656,0-1.9919434-2.0117188-1.99823-3.2687988C3.00177,14.4877319,3,14.4934692,3,14.5C3,15.7236328,3,18,5,18   c1.0791016,0,1.9492188-0.8671875,2.4560547-1.5292969c0.7363281,1.3583984,2.3037109,4.2080078,3.0703125,5.3144531   C11.5019531,23.1923828,13.1328125,24,15,24c1.7939453,0,6-1.53125,6-4.5c0-0.0762329-0.0007935-0.1575317-0.0011597-0.2371826   C20.9863892,22.2229004,16.7912598,23.75,15,23.75z" fill="#010101" opacity="0.1"/><path d="M17.9394531,6.7763672c0.2363281-0.2050781,0.4155903-0.3121324,0.7193012-0.5230699   c0.9951172-0.6914063,2.3317242-1.5484633,2.3317242-3.1549087c0-0.0548706-0.0082397-0.0985107-0.0095215-0.1516113   c-0.0516968,1.5404053-1.3486309,2.3800673-2.3222027,3.05652c-0.3037109,0.2109375-0.5917969,0.4121094-0.828125,0.6171875   c-0.515625,1.3691406-6.7091675,6.9283452-6.6728516,6.9812016C13.6696796,11.4747334,17.4310303,8.1264038,17.9394531,6.7763672z" fill="#010101" opacity="0.1"/><linearGradient gradientUnits="userSpaceOnUse" id="SVGID_1_" x1="4.1585231" x2="23.3321934" y1="6.2374134" y2="15.1782427"><stop offset="0" style="stop-color:#FFFFFF;stop-opacity:0.2"/><stop offset="1" style="stop-color:#FFFFFF;stop-opacity:0"/></linearGradient><path d="M20,17c-0.7265625,0-1.1738281,0.2480469-1.6054688,0.4873047   C17.9179688,17.7509766,17.4677734,18,16.5,18c-1.9882813,0-4.3398438-2.9023438-5.3417969-4.4003906   c2.5136719-2.1240234,6.265625-5.4541016,6.78125-6.8232422c0.2363281-0.2050781,0.5244141-0.40625,0.828125-0.6171875   C19.7626953,5.4677734,21,4.6064453,21,3c0-2.2138672-1.0771484-3-2-3c-0.9726563,0-1.5302734,1.0556641-1.7958984,1.7685547   C16.0478516,1.1884766,13.1679688,0,9,0C7.2255859,0,6.1328125,1.0810547,6.0009766,2.9648438   C5.9570313,3.5917969,6.1806641,4.7802734,6.8144531,5.4609375C7.1425781,5.8125,7.5527344,5.9990234,8,5.9990234   c0.7587891,0,1.2373047-0.3408203,1.6220703-0.6152344C9.9658203,5.1386719,10.1767578,5,10.5,5   c0.3154297,0,0.7177734,0.1347656,1.2275391,0.3046875c0.6533203,0.21875,1.4863281,0.4970703,2.5693359,0.625   c-1.4169922,1.3027344-4.078125,3.7353516-4.8916016,4.4794922C8.9775391,10.2412109,8.1601563,10,7,10   c-1.9316406,0-4,1.8085938-4,4.5C3,15.7236328,3,18,5,18c1.0791016,0,1.9492188-0.8671875,2.4560547-1.5292969   c0.7363281,1.3583984,2.3037109,4.2080078,3.0703125,5.3144531C11.5019531,23.1923828,13.1328125,24,15,24   c1.7939453,0,6-1.53125,6-4.5C21,18.4453125,21,17,20,17z" fill="url(#SVGID_1_)"/></g><g/><g/><g/><g/><g/><g/><g/><g/><g/><g/><g/><g/><g/><g/><g/></svg>