<?xml version="1.0" ?><svg enable-background="new 0 0 24 24" id="Layer_1" version="1.1" viewBox="0 0 24 24" xml:space="preserve" xmlns="http://www.w3.org/2000/svg" xmlns:xlink="http://www.w3.org/1999/xlink"><g><path d="M12,3C5.7724609,3,1.5166016,6.1513672,0.0166016,11.8730469   c-0.0224609,0.0830078-0.0224609,0.1708984,0,0.2539063C1.5166016,17.8486328,5.7724609,21,12,21   s10.4833984-3.1513672,11.9833984-8.8730469c0.0224609-0.0830078,0.0224609-0.1708984,0-0.2539063   C22.4833984,6.1513672,18.2275391,3,12,3z" fill="#E83829"/><path d="M12,5c5.0839844,0,8.609375,2.484375,9.9433594,7C20.609375,16.515625,17.0839844,19,12,19   s-8.609375-2.484375-9.9433594-7C3.390625,7.484375,6.9160156,5,12,5z" fill="#FFFFFF"/><path d="M12,5.25c5.0357056,0,8.5390625,2.4405518,9.9014893,6.875   c0.0130615-0.0425415,0.0291748-0.0820923,0.0418701-0.125C20.609375,7.484375,17.0839844,5,12,5s-8.609375,2.484375-9.9433594,7   c0.0126953,0.0429077,0.0288086,0.0824585,0.0418701,0.125C3.4609375,7.6905518,6.9642944,5.25,12,5.25z" fill="#010101" opacity="0.1"/><circle cx="12" cy="12" fill="#E83829" r="5"/><path d="M12,3.25c3.5842896,0,6.5334473,0.9838867,8.7103882,2.8461914   C18.5761719,4.0750122,15.6252441,3,12,3S5.4238281,4.0750122,3.2896118,6.0961914C5.4665527,4.2338867,8.4157104,3.25,12,3.25z" fill="#FFFFFF" opacity="0.2"/><path d="M12,7.25c2.0775757,0,3.8647833,1.2037182,4.6766129,2.9805737   C15.9693975,8.3270092,14.1466064,7,12,7s-3.9644823,1.3141174-4.6716967,3.2176819C8.140132,8.4408264,9.9224243,7.25,12,7.25z" fill="#FFFFFF" opacity="0.2"/><path d="M12,20.75c-3.5842896,0-6.5334473-0.9838867-8.7103882-2.8461914   C5.4238281,19.9249878,8.3747559,21,12,21s6.5761719-1.0750122,8.7103882-3.0961914   C18.5334473,19.7661133,15.5842896,20.75,12,20.75z" fill="#010101" opacity="0.1"/><path d="M12,16.75c-2.0775757,0-3.8647833-1.2037182-4.6766119-2.9805737   C8.0306025,15.6729908,9.8533936,17,12,17s3.9644823-1.3141174,4.6716957-3.2176819   C15.859868,15.5591736,14.0775757,16.75,12,16.75z" fill="#010101" opacity="0.1"/><linearGradient gradientUnits="userSpaceOnUse" id="SVGID_1_" x1="1.894356" x2="22.1056442" y1="7.2876606" y2="16.7123394"><stop offset="0" style="stop-color:#FFFFFF;stop-opacity:0.2"/><stop offset="1" style="stop-color:#FFFFFF;stop-opacity:0"/></linearGradient><path d="M12,3C5.7724609,3,1.5166016,6.1513672,0.0166016,11.8730469   c-0.0224609,0.0830078-0.0224609,0.1708984,0,0.2539063C1.5166016,17.8486328,5.7724609,21,12,21   s10.4833984-3.1513672,11.9833984-8.8730469c0.0224609-0.0830078,0.0224609-0.1708984,0-0.2539063   C22.4833984,6.1513672,18.2275391,3,12,3z" fill="url(#SVGID_1_)"/></g><g/><g/><g/><g/><g/><g/><g/><g/><g/><g/><g/><g/><g/><g/><g/></svg>