<?xml version="1.0" ?><svg enable-background="new 0 0 24 24" id="Layer_1" version="1.1" viewBox="0 0 24 24" xml:space="preserve" xmlns="http://www.w3.org/2000/svg" xmlns:xlink="http://www.w3.org/1999/xlink"><g><g id="XMLID_2790_"><path d="M0.25,17.5c-0.0313105-0.5029182-0.25-2-0.25-2s0.2186895-2.4970827,0.25-3    c0.0171728-0.2758331,0.2236328-0.5,0.5-0.5s0.4828273,0.2241669,0.5,0.5c0.0313106,0.5029173,0.25,3,0.25,3    s-0.2186894,1.4970818-0.25,2C1.2328273,17.7758331,1.0263672,18,0.75,18S0.2671728,17.7758331,0.25,17.5z" fill="#F47920"/></g><g id="XMLID_1309_"><linearGradient gradientUnits="userSpaceOnUse" id="SVGID_1_" x1="0.75" x2="0.75" y1="12" y2="18"><stop offset="0" style="stop-color:#FEC111"/><stop offset="1" style="stop-color:#E78424"/></linearGradient><path d="M0.25,17.5c-0.0313105-0.5029182-0.25-2-0.25-2s0.2186895-2.4970827,0.25-3    c0.0171728-0.2758331,0.2236328-0.5,0.5-0.5s0.4828273,0.2241669,0.5,0.5c0.0313106,0.5029173,0.25,3,0.25,3    s-0.2186894,1.4970818-0.25,2C1.2328273,17.7758331,1.0263672,18,0.75,18S0.2671728,17.7758331,0.25,17.5z" fill="url(#SVGID_1_)"/></g><path d="M1.25,12.5C1.2328491,12.2241211,1.0263672,12,0.75,12v6   c0.2763672,0,0.4828491-0.2241821,0.5-0.5c0.031311-0.5029297,0.25-2,0.25-2S1.281311,13.0029297,1.25,12.5z" fill="#010101" opacity="0.1"/><g id="XMLID_2789_"><linearGradient gradientUnits="userSpaceOnUse" id="SVGID_2_" x1="3.5" x2="3.5" y1="9" y2="19"><stop offset="0" style="stop-color:#FEC111"/><stop offset="1" style="stop-color:#E78424"/></linearGradient><path d="M3,9.5C3.0069029,9.2237186,3.2236328,9,3.5,9S3.9930971,9.2237186,4,9.5    c0.0312595,1.251111,0.25,5.9997578,0.25,5.9997578S4.0312772,17.7479897,4,18.5C3.9885154,18.7761288,3.7763672,19,3.5,19    S3.0114846,18.7761288,3,18.5c-0.0312769-0.7520103-0.25-3.0002422-0.25-3.0002422S2.9687402,10.751111,3,9.5z" fill="url(#SVGID_2_)"/></g><path d="M4,9.5C3.993103,9.2236938,3.7763672,9,3.5,9v10c0.2763672,0,0.4885254-0.223877,0.5-0.5   c0.03125-0.7520142,0.25-3.0002441,0.25-3.0002441S4.03125,10.7510986,4,9.5z" fill="#010101" opacity="0.1"/><g id="XMLID_2788_"><linearGradient gradientUnits="userSpaceOnUse" id="SVGID_3_" x1="6.5" x2="6.5" y1="10" y2="19"><stop offset="0" style="stop-color:#FEC111"/><stop offset="1" style="stop-color:#E78424"/></linearGradient><path d="M6,10.5C6.0086246,10.2237673,6.2236328,10,6.5,10s0.4913754,0.2237673,0.5,0.5    c0.0312653,1.0013723,0.25,4.9996376,0.25,4.9996376S7.0312772,17.747961,7,18.5C6.9885159,18.7761288,6.7763672,19,6.5,19    S6.0114841,18.7761288,6,18.5c-0.0312772-0.752039-0.25-3.0003624-0.25-3.0003624S5.9687347,11.5013723,6,10.5z" fill="url(#SVGID_3_)"/></g><path d="M7,10.5C6.991394,10.2237549,6.7763672,10,6.5,10v9c0.2763672,0,0.4885254-0.223877,0.5-0.5   c0.03125-0.7520752,0.25-3.0003662,0.25-3.0003662S7.03125,11.5013428,7,10.5z" fill="#010101" opacity="0.1"/><g id="XMLID_2787_"><linearGradient gradientUnits="userSpaceOnUse" id="SVGID_4_" x1="9.5" x2="9.5" y1="6" y2="19"><stop offset="0" style="stop-color:#FEC111"/><stop offset="1" style="stop-color:#E78424"/></linearGradient><path d="M9,6.5C9.0043173,6.2236667,9.2236328,6,9.5,6S9.9956827,6.2236667,10,6.5    c0.0312538,2.0006456,0.25,8.9996529,0.25,8.9996529S10.0312767,17.7479649,10,18.5C9.9885159,18.7761288,9.7763672,19,9.5,19    S9.0114841,18.7761288,9,18.5c-0.0312767-0.7520351-0.25-3.0003471-0.25-3.0003471S8.9687462,8.5006456,9,6.5z" fill="url(#SVGID_4_)"/></g><path d="M10,6.5C9.9956665,6.2236328,9.7763672,6,9.5,6v13c0.2763672,0,0.4885254-0.223877,0.5-0.5   c0.03125-0.7520752,0.25-3.0003662,0.25-3.0003662S10.03125,8.5006104,10,6.5z" fill="#010101" opacity="0.1"/><linearGradient gradientUnits="userSpaceOnUse" id="SVGID_5_" x1="18" x2="18" y1="5" y2="19"><stop offset="0" style="stop-color:#FEC111"/><stop offset="1" style="stop-color:#E78424"/></linearGradient><path d="M12,19c1.5898438,0,6.2055054,0,7.5,0c2.4852905,0,4.5-2.0147095,4.5-4.5S21.9852905,10,19.5,10   c-0.2650146,0-0.5212402,0.0340576-0.7736816,0.0780029C17.8902588,7.1477051,15.1986084,5,12,5" fill="url(#SVGID_5_)"/><path d="M18.7730103,10.3146362c0.2542114-0.0442505,0.512207-0.0785522,0.7790527-0.0785522   c1.8740234,0,3.4863701,1.0975208,4.1760063,2.7198353C23.1071587,11.2139759,21.4551392,10,19.5,10   c-0.2650146,0-0.5212402,0.0340576-0.7736816,0.0780029C17.8902588,7.1477051,15.1986084,5,12,5v0.201355   C15.2208252,5.201355,17.9311523,7.3640137,18.7730103,10.3146362z" fill="#FFFFFF" opacity="0.2"/><path d="M19.5,18.75c-1.2944946,0-5.9101563,0-7.5,0V19c1.5898438,0,6.2055054,0,7.5,0   c2.4852905,0,4.5-2.0147095,4.5-4.5c0-0.0428467-0.0114136-0.0824585-0.0125732-0.125   C23.9196167,16.8010864,21.9424438,18.75,19.5,18.75z" fill="#010101" opacity="0.1"/><linearGradient gradientUnits="userSpaceOnUse" id="SVGID_6_" x1="1.8195305" x2="22.5132351" y1="9.0389214" y2="18.6885529"><stop offset="0" style="stop-color:#FFFFFF;stop-opacity:0.2"/><stop offset="1" style="stop-color:#FFFFFF;stop-opacity:0"/></linearGradient><path d="M0.75,12c-0.2763672,0-0.4828491,0.2241211-0.5,0.5c-0.031311,0.5029297-0.25,3-0.25,3   s0.218689,1.4970703,0.25,2c0.0171509,0.2758179,0.2236328,0.5,0.5,0.5s0.4828491-0.2241821,0.5-0.5   c0.031311-0.5029297,0.25-2,0.25-2s-0.218689-2.4970703-0.25-3C1.2328491,12.2241211,1.0263672,12,0.75,12z M3.5,9   C3.2236328,9,3.006897,9.2236938,3,9.5c-0.03125,1.2510986-0.25,5.9997559-0.25,5.9997559S2.96875,17.7479858,3,18.5   C3.0114746,18.776123,3.2236328,19,3.5,19s0.4885254-0.223877,0.5-0.5c0.03125-0.7520142,0.25-3.0002441,0.25-3.0002441   S4.03125,10.7510986,4,9.5C3.993103,9.2236938,3.7763672,9,3.5,9z M6.5,10c-0.2763672,0-0.491394,0.2237549-0.5,0.5   c-0.03125,1.0013428-0.25,4.9996338-0.25,4.9996338S5.96875,17.7479248,6,18.5C6.0114746,18.776123,6.2236328,19,6.5,19   s0.4885254-0.223877,0.5-0.5c0.03125-0.7520752,0.25-3.0003662,0.25-3.0003662S7.03125,11.5013428,7,10.5   C6.991394,10.2237549,6.7763672,10,6.5,10z M9.5,6C9.2236328,6,9.0043335,6.2236328,9,6.5   c-0.03125,2.0006104-0.25,8.9996338-0.25,8.9996338S8.96875,17.7479248,9,18.5C9.0114746,18.776123,9.2236328,19,9.5,19   s0.4885254-0.223877,0.5-0.5c0.03125-0.7520752,0.25-3.0003662,0.25-3.0003662S10.03125,8.5006104,10,6.5   C9.9956665,6.2236328,9.7763672,6,9.5,6z M19.5,10c-0.2650146,0-0.5212402,0.0340576-0.7736816,0.0780029   C17.8902588,7.1477051,15.1986084,5,12,5v14h7.5c2.4852905,0,4.5-2.0147095,4.5-4.5S21.9852905,10,19.5,10z" fill="url(#SVGID_6_)"/></g><g/><g/><g/><g/><g/><g/><g/><g/><g/><g/><g/><g/><g/><g/><g/></svg>