<?xml version="1.0" ?><!DOCTYPE svg  PUBLIC '-//W3C//DTD SVG 1.1//EN'  'http://www.w3.org/Graphics/SVG/1.1/DTD/svg11.dtd'><svg enable-background="new 0 0 91 91" height="91px" id="Layer_1" version="1.1" viewBox="0 0 91 91" width="91px" xml:space="preserve" xmlns="http://www.w3.org/2000/svg" xmlns:xlink="http://www.w3.org/1999/xlink"><g><g><path d="M64.47,40.96c-0.146-6.047-2.441-10.824-7.016-14.605c-2.451-2.025-5.611-3.141-8.9-3.141    c-3.814,0-7.496,1.506-10.098,4.133c-1.242,1.246-2.256,2.719-3.199,4.637c-0.461,0.943-1.414,1.546-2.465,1.566    c-1.041,0.068-2.023-0.549-2.52-1.474l-0.537-1.008c-2.574-4.947-7.273-7.881-12.586-7.881c-0.855,0-1.725,0.078-2.582,0.232    c-4.479,0.816-8.012,3.307-10.502,7.395C0.36,36.89,0.024,42.175,3.009,47.442c1.879,3.322,4.369,6.617,7.611,10.072    c5.955,6.324,13.004,12.377,22.105,18.977c8.277-5.967,14.826-11.484,20.543-17.316c3.176-3.232,6.762-7.18,9.293-11.959    C63.534,45.388,64.521,43.222,64.47,40.96z" fill="#647F94"/><path d="M84.819,32.128c-3.998-3.305-10.242-2.979-13.916,0.726c-0.387,0.393-0.678,0.652-0.918,0.865    c-0.33,0.295-0.33,0.295-0.658,0.959c-0.021,0.045-0.055,0.082-0.08,0.127c0.486,1.908,0.777,3.908,0.828,6.023    c0.078,3.578-1.328,6.701-2.566,9.02c-2.861,5.404-6.781,9.732-10.238,13.252c-0.023,0.023-0.047,0.043-0.066,0.066    c2.021,1.584,5.252,4.074,8.811,6.656c6.215-4.504,11.168-8.691,15.51-13.117c2.43-2.475,5.176-5.498,7.121-9.145    c1.008-1.906,1.424-3.271,1.393-4.557C89.929,38.495,88.224,34.935,84.819,32.128z" fill="#6EC4A7"/></g></g></svg>