<?xml version="1.0" ?><!DOCTYPE svg  PUBLIC '-//W3C//DTD SVG 1.1//EN'  'http://www.w3.org/Graphics/SVG/1.1/DTD/svg11.dtd'><svg enable-background="new 0 0 91 91" height="91px" id="Layer_1" version="1.1" viewBox="0 0 91 91" width="91px" xml:space="preserve" xmlns="http://www.w3.org/2000/svg" xmlns:xlink="http://www.w3.org/1999/xlink"><g><g><path d="M77.922,59.847c-1.385,0-2.506-1.119-2.506-2.504V45.341H16.455v12.002c0,1.385-1.121,2.504-2.504,2.504    c-1.385,0-2.506-1.119-2.506-2.504V42.835c0-1.383,1.121-2.504,2.506-2.504h63.971c1.383,0,2.504,1.121,2.504,2.504v14.508    C80.426,58.728,79.305,59.847,77.922,59.847z" fill="#647F94"/><path d="M45.938,59.847c-1.385,0-2.506-1.119-2.506-2.504V30.544c0-1.385,1.121-2.504,2.506-2.504    c1.383,0,2.504,1.119,2.504,2.504v26.799C48.441,58.728,47.32,59.847,45.938,59.847z" fill="#647F94"/><g><path d="M13.947,55.673c-6.658,0-12.074,5.418-12.074,12.08s5.416,12.08,12.074,12.08     c6.664,0,12.086-5.418,12.086-12.08S20.611,55.673,13.947,55.673z" fill="#45596B"/><path d="M45.82,55.673c-6.658,0-12.078,5.418-12.078,12.08s5.42,12.08,12.078,12.08     c6.662,0,12.08-5.418,12.08-12.08S52.482,55.673,45.82,55.673z" fill="#45596B"/><path d="M77.92,55.673c-6.66,0-12.078,5.418-12.078,12.08s5.418,12.08,12.078,12.08     c6.662,0,12.082-5.418,12.082-12.08S84.582,55.673,77.92,55.673z" fill="#45596B"/></g><path d="M59.094,9.198H32.549c-1.383,0-2.504,1.121-2.504,2.504v18.84c0,1.383,1.121,2.506,2.504,2.506h26.545    c1.383,0,2.504-1.123,2.504-2.506v-18.84C61.598,10.319,60.477,9.198,59.094,9.198z" fill="#6EC4A7"/></g></g></svg>