<?xml version="1.0" ?><!DOCTYPE svg  PUBLIC '-//W3C//DTD SVG 1.1//EN'  'http://www.w3.org/Graphics/SVG/1.1/DTD/svg11.dtd'><svg enable-background="new 0 0 91 91" height="91px" id="Layer_1" version="1.1" viewBox="0 0 91 91" width="91px" xml:space="preserve" xmlns="http://www.w3.org/2000/svg" xmlns:xlink="http://www.w3.org/1999/xlink"><g><g><path d="M25.773,50.997c11.08,0,20.092-9.078,20.092-20.232c0-11.156-9.012-20.232-20.092-20.232    c-11.074,0-20.08,9.076-20.08,20.232C5.693,41.919,14.699,50.997,25.773,50.997z" fill="#647F94"/><path d="M43.023,48.44c-3.17,3.129-7.176,5.391-11.646,6.443l4.664,23.918c0.176,0.842-0.137,1.707-0.807,2.242    l-2.006,1.605c5.594-0.668,11.654-2.127,18.006-4.789V60.106C51.234,54.845,48.52,51.026,43.023,48.44z" fill="#647F94"/><polygon fill="#6EC4A7" points="24.941,55.739 20.613,78.36 25.959,82.636 31.295,78.362 26.9,55.739   "/><path d="M20.453,54.956c-4.576-1.02-8.676-3.313-11.908-6.5c-5.266,2.58-7.865,6.393-7.865,11.65v17.84    c2.531,1.176,9.049,3.826,18.115,4.795l-2.119-1.695c-0.666-0.533-0.982-1.398-0.809-2.238L20.453,54.956z" fill="#647F94"/></g><path d="M71.557,16.685c-10.502,0-19.045,8.545-19.045,19.051c0,10.504,8.543,19.051,19.045,19.051   c10.506,0,19.055-8.547,19.055-19.051C90.611,25.229,82.063,16.685,71.557,16.685z M79.301,38.407H63.416   c-1.383,0-2.506-1.121-2.506-2.506c0-1.383,1.123-2.504,2.506-2.504h15.885c1.383,0,2.504,1.121,2.504,2.504   C81.805,37.286,80.684,38.407,79.301,38.407z" fill="#6EC4A7"/></g></svg>