<?xml version="1.0" ?><!DOCTYPE svg  PUBLIC '-//W3C//DTD SVG 1.1//EN'  'http://www.w3.org/Graphics/SVG/1.1/DTD/svg11.dtd'><svg enable-background="new 0 0 91 91" height="91px" id="Layer_1" version="1.1" viewBox="0 0 91 91" width="91px" xml:space="preserve" xmlns="http://www.w3.org/2000/svg" xmlns:xlink="http://www.w3.org/1999/xlink"><g><g><path d="M38.841,55.666l0.682-0.676l-0.02-0.016c-0.881-0.891,4.984-6.855,4.984-6.855l-8.119-8.118L8.663,66.904    c-1.973,1.977-2.92,4.705-2.658,7.686c0.242,2.793,1.533,5.49,3.813,7.771c2.43,2.424,5.553,3.66,8.533,3.66    c2.521,0,4.938-0.889,6.746-2.691l20.258-20.26l-5.111-5.17C39.604,57.252,39.151,56.488,38.841,55.666" fill="#45596B"/><path d="M87.675,16.767l-1.621-3.891L75.616,23.317c-1.777,1.777-3.336,2.678-4.635,2.678    c-0.992,0-2.006-0.537-3.146-1.674l-0.188-0.184c-1.701-1.701-3.016-3.695,1.037-7.75L79.13,5.942l-3.893-1.621    C67.31,1.019,59.005-1.073,51.952,5.985l-6.457,6.451c-6.553,6.561-8.811,14.01-6.699,21.397l6.51,6.646l5.088-5.088    c0,0,3.248,1.688,5.568,3.182l13.875,14.061c3.398-1.033,6.664-3.059,9.732-6.129l6.441-6.452    C93.073,33.001,90.985,24.692,87.675,16.767" fill="#45596B"/><path d="M80.097,69.682L54.472,43.714c-0.84-0.855-1.898-1.527-3.148-1.996l-1.51-0.568l-4.578,4.58L21.023,21.518    l2.235-2.237c0.602-0.6,0.9-1.439,0.813-2.283c-0.086-0.846-0.547-1.607-1.258-2.074L9.72,6.321    C8.601,5.587,7.118,5.739,6.169,6.687l-4.482,4.49c-0.945,0.947-1.096,2.428-0.361,3.545l8.6,13.094    c0.465,0.711,1.227,1.174,2.072,1.26c0.096,0.01,0.191,0.014,0.287,0.014c0.746,0,1.465-0.295,1.998-0.826l2.02-2.021    l24.211,24.211l-4.588,4.59l0.572,1.512c0.459,1.207,1.119,2.25,1.965,3.105l25.645,25.984c1.688,1.688,4.006,2.617,6.527,2.617    h0.002c2.994,0,6.018-1.309,8.334-3.627l0.133-0.139c2.057-2.051,3.318-4.678,3.553-7.396    C82.907,74.219,81.993,71.582,80.097,69.682z M75.522,80.99l-0.137,0.145c-1.344,1.344-3.076,2.117-4.75,2.117    c-0.838,0-2.039-0.201-2.979-1.139L42.026,56.141c-0.02-0.02-0.039-0.039-0.059-0.059l8.893-8.895    c0.012,0.014,0.023,0.027,0.035,0.039L76.54,73.211c0.844,0.848,1.246,2.076,1.125,3.455C77.53,78.211,76.784,79.73,75.522,80.99z    " fill="#647F94"/></g></g></svg>