<?xml version="1.0" ?><!DOCTYPE svg  PUBLIC '-//W3C//DTD SVG 1.1//EN'  'http://www.w3.org/Graphics/SVG/1.1/DTD/svg11.dtd'><svg enable-background="new 0 0 91 91" height="91px" id="Layer_1" version="1.1" viewBox="0 0 91 91" width="91px" xml:space="preserve" xmlns="http://www.w3.org/2000/svg" xmlns:xlink="http://www.w3.org/1999/xlink"><g><g><path d="M43.77,52.37c14.094,0,25.563-11.551,25.563-25.746S57.863,0.88,43.77,0.88    c-14.092,0-25.555,11.549-25.555,25.744S29.678,52.37,43.77,52.37z M52.189,20.823h3.5c1.43,0,2.592,1.16,2.592,2.594    s-1.162,2.594-2.592,2.594h-3.5c-1.434,0-2.594-1.16-2.594-2.594S50.756,20.823,52.189,20.823z M32.301,20.823h3.502    c1.432,0,2.594,1.16,2.594,2.594s-1.162,2.594-2.594,2.594h-3.502c-1.436,0-2.594-1.16-2.594-2.594S30.865,20.823,32.301,20.823z     M31.412,31.599c1.355-0.459,2.83,0.26,3.293,1.613c1.344,3.932,4.988,6.572,9.066,6.572c4.074,0,7.721-2.641,9.07-6.574    c0.465-1.354,1.93-2.074,3.291-1.609c1.357,0.465,2.08,1.939,1.613,3.293c-2.068,6.027-7.686,10.076-13.975,10.076    c-6.297,0-11.912-4.049-13.973-10.08C29.334,33.536,30.057,32.062,31.412,31.599z" fill="#647F94"/><path d="M65.572,48.407C60,54.052,52.287,57.556,43.77,57.556c-8.432,0-16.076-3.438-21.637-8.986    c-6.846,3.301-10.23,8.203-10.23,14.992v17.645c3.43,1.9,11.766,8.836,32.285,8.836c20.705,0,29.332-6.783,31.904-8.619V63.558    C76.092,56.64,72.613,51.685,65.572,48.407z" fill="#647F94"/></g></g></svg>