<?xml version="1.0" ?><!DOCTYPE svg  PUBLIC '-//W3C//DTD SVG 1.1//EN'  'http://www.w3.org/Graphics/SVG/1.1/DTD/svg11.dtd'><svg enable-background="new 0 0 91 91" height="91px" id="Layer_1" version="1.1" viewBox="0 0 91 91" width="91px" xml:space="preserve" xmlns="http://www.w3.org/2000/svg" xmlns:xlink="http://www.w3.org/1999/xlink"><g><g><path d="M75.773,30.874H3.275c-1.383,0-2.504-1.123-2.504-2.506V12.18c0-1.385,1.121-2.506,2.504-2.506h72.498    c1.385,0,2.506,1.121,2.506,2.506v16.188C78.279,29.751,77.158,30.874,75.773,30.874z M5.781,25.864H73.27v-11.18H5.781V25.864z" fill="#45596B"/><path d="M17.865,21.657c-1.383,0-2.504-1.121-2.504-2.504V5.428c0-1.383,1.121-2.506,2.504-2.506    c1.385,0,2.506,1.123,2.506,2.506v13.725C20.371,20.536,19.25,21.657,17.865,21.657z" fill="#45596B"/><path d="M39.527,21.657c-1.385,0-2.506-1.121-2.506-2.504V5.428c0-1.383,1.121-2.506,2.506-2.506    c1.383,0,2.504,1.123,2.504,2.506v13.725C42.031,20.536,40.91,21.657,39.527,21.657z" fill="#45596B"/><path d="M61.184,21.657c-1.385,0-2.506-1.121-2.506-2.504V5.428c0-1.383,1.121-2.506,2.506-2.506    c1.383,0,2.504,1.123,2.504,2.506v13.725C63.688,20.536,62.566,21.657,61.184,21.657z" fill="#45596B"/><g><rect fill="#647F94" height="7.596" width="7.598" x="15.145" y="41.19"/><rect fill="#647F94" height="7.596" width="7.598" x="15.145" y="62.857"/><path d="M64.541,48.05c0.896,0.406,1.945,0.252,2.684-0.395l10.197-8.902c0.545-0.475,0.857-1.162,0.857-1.885     v-8.497c0-1.383-1.121-2.506-2.506-2.506H3.275c-1.383,0-2.504,1.123-2.504,2.506v55.427c0,1.385,1.121,2.504,2.504,2.504h65.209     c5.402,0,9.795-4.395,9.795-9.799V52.126c0-0.998-0.592-1.9-1.508-2.297c-0.91-0.396-1.979-0.215-2.707,0.469l-10.197,9.538     c-0.508,0.473-0.793,1.135-0.793,1.828v7.957h-26.51V42.028h26.51v5.41C63.074,48.421,63.646,47.642,64.541,48.05z      M26.918,72.121c0,1.385-1.123,2.506-2.506,2.506H13.475c-1.383,0-2.504-1.121-2.504-2.506V61.188     c0-1.383,1.121-2.506,2.504-2.506h10.938c1.383,0,2.506,1.123,2.506,2.506V72.121z M26.918,50.456     c0,1.383-1.123,2.504-2.506,2.504H13.475c-1.383,0-2.504-1.121-2.504-2.504V39.521c0-1.385,1.121-2.506,2.504-2.506h10.938     c1.383,0,2.506,1.121,2.506,2.506V50.456z" fill="#647F94"/></g><path d="M49.818,63.693c-0.107,0-0.217-0.008-0.326-0.021c-0.711-0.092-1.35-0.486-1.752-1.082l-7.234-10.733    c-0.773-1.148-0.471-2.705,0.678-3.477c1.148-0.777,2.705-0.471,3.477,0.674l5.648,8.382L86.512,25.84    c1.041-0.908,2.625-0.803,3.535,0.24c0.91,1.041,0.801,2.625-0.24,3.536l-38.342,33.46C51.006,63.477,50.42,63.693,49.818,63.693z    " fill="#6EC4A7"/></g></g></svg>