<?xml version="1.0" ?><!DOCTYPE svg  PUBLIC '-//W3C//DTD SVG 1.1//EN'  'http://www.w3.org/Graphics/SVG/1.1/DTD/svg11.dtd'><svg enable-background="new 0 0 91 91" height="91px" id="Layer_1" version="1.1" viewBox="0 0 91 91" width="91px" xml:space="preserve" xmlns="http://www.w3.org/2000/svg" xmlns:xlink="http://www.w3.org/1999/xlink"><g><g><path d="M23.996,60.6c-0.171-0.17-0.411-0.262-0.648-0.238C19.255,60.666,5.769,62.949,4.07,79.516    c-0.011,0.113-0.033,0.227-0.061,0.332c-0.037,0.135-0.935,3.338-3.511,5.746c-0.225,0.211-0.315,0.529-0.236,0.826    c0.08,0.299,0.317,0.527,0.618,0.598c1.712,0.396,4.434,0.869,7.675,0.869c3.186,0,6.194-0.455,8.94-1.352    c7.397-2.41,12.62-7.922,15.521-16.379c0.104-0.305,0.024-0.641-0.204-0.865L23.996,60.6z" fill="#6EC4A7"/><path d="M42.738,57.686l-6.882-6.779c-0.33-0.324-0.858-0.32-1.181,0.008l-6.618,6.717    c-0.324,0.33-0.32,0.857,0.008,1.182l6.879,6.781c0.156,0.154,0.367,0.24,0.586,0.24c0.278,0.02,0.439-0.09,0.595-0.248    l6.621-6.719c0.156-0.158,0.242-0.371,0.241-0.594C42.985,58.053,42.895,57.842,42.738,57.686z" fill="#45596B"/><path d="M89.125,3.709c-1.013-0.996-2.459-1.566-3.969-1.566c-1.545,0-3.018,0.594-4.036,1.631l-42.375,43.01    c-0.156,0.158-0.242,0.371-0.24,0.594c0.001,0.221,0.091,0.434,0.249,0.588l6.88,6.777c0.163,0.16,0.374,0.24,0.587,0.24    c0.216,0,0.432-0.082,0.594-0.248l42.369-43.006c1.059-1.07,1.636-2.498,1.626-4.021C90.797,6.186,90.198,4.766,89.125,3.709z" fill="#647F94"/></g></g></svg>