<?xml version="1.0" ?><!DOCTYPE svg  PUBLIC '-//W3C//DTD SVG 1.1//EN'  'http://www.w3.org/Graphics/SVG/1.1/DTD/svg11.dtd'><svg enable-background="new 0 0 91 91" height="91px" id="Layer_1" version="1.1" viewBox="0 0 91 91" width="91px" xml:space="preserve" xmlns="http://www.w3.org/2000/svg" xmlns:xlink="http://www.w3.org/1999/xlink"><g><g><path d="M70.385,38.117c-0.097-0.265-0.323-0.462-0.599-0.522c-0.274-0.06-0.563,0.025-0.762,0.225l-17.01,17.005    c-0.3,0.304-0.325,0.783-0.056,1.11L69.93,77.91c1.856,1.829,3.598,2.758,5.179,2.758l0,0c2.135,0,3.848-1.717,4.983-2.851    c3.18-3.191,2.592-5.448,1.776-8.567L70.385,38.117z" fill="#45596B"/><path d="M35.268,39.158c0.154,0.126,0.34,0.188,0.525,0.188c0.212,0,0.425-0.082,0.585-0.242l16.953-16.957    c0.199-0.198,0.282-0.486,0.223-0.761c-0.061-0.275-0.256-0.501-0.519-0.6L21.956,9.209c-1.256-0.333-2.444-0.646-3.607-0.646    c-1.175,0-2.798,0.275-4.936,2.421c-2.689,2.692-4.72,5.497-0.036,10.246L35.268,39.158z" fill="#45596B"/><path d="M89.033,2.202c-1.482-1.484-3.347-1.796-4.646-1.796c-2.35,0-4.752,1-6.424,2.676L36.846,44.155    c-0.07,0.046-0.159,0.11-0.203,0.153L21.766,59.155c-0.486,0.481-1.189,0.676-1.858,0.513L5.394,56.037    c-0.553-0.141-0.912-0.199-1.236-0.199c-0.623,0-1.119,0.227-1.594,0.755c-0.057,0.066-0.241,0.256-0.477,0.484    c-1.44,1.396-1.691,1.999-1.746,2.403c-0.044,0.331,0.112,0.654,0.4,0.826L19.256,71.2c0.284,0.169,0.524,0.41,0.695,0.695    l10.904,18.526c0.152,0.257,0.427,0.406,0.713,0.406c0.092,0,0.185-0.016,0.275-0.047c0.358-0.127,1.032-0.481,2.758-2.121    c0.292-0.298,0.417-0.491,0.464-0.568c0.097-0.146,0.146-0.323,0.136-0.503c-0.006-0.104-0.114-0.656-0.226-1.185l-3.444-15.192    c-0.149-0.656,0.046-1.333,0.521-1.812l15.099-15.155c0.031-0.038,0.089-0.143,0.112-0.186L88.067,13.19    C90.891,10.363,91.98,5.153,89.033,2.202z" fill="#647F94"/></g></g></svg>