<?xml version="1.0" ?><!DOCTYPE svg  PUBLIC '-//W3C//DTD SVG 1.1//EN'  'http://www.w3.org/Graphics/SVG/1.1/DTD/svg11.dtd'><svg enable-background="new 0 0 91 91" height="91px" id="Layer_1" version="1.1" viewBox="0 0 91 91" width="91px" xml:space="preserve" xmlns="http://www.w3.org/2000/svg" xmlns:xlink="http://www.w3.org/1999/xlink"><g><g><path d="M89.81,6l-4.979-4.975c-0.84-0.838-2.154-0.973-3.146-0.322l-14.498,9.533    c-0.631,0.414-1.041,1.09-1.115,1.84c-0.08,0.748,0.186,1.492,0.719,2.025l2.728,2.729L40.472,45.88    c-1.305,1.303-1.305,3.42,0,4.723c0.652,0.652,1.508,0.979,2.361,0.979c0.855,0,1.711-0.326,2.363-0.979l29.043-29.047    l2.492,2.494c0.471,0.475,1.111,0.734,1.773,0.734c0.084,0,0.168-0.004,0.254-0.014c0.75-0.074,1.426-0.484,1.838-1.115    L90.13,9.146C90.782,8.152,90.647,6.838,89.81,6z" fill="#647F94"/><path d="M50.858,53.079l-12.857-12.86c-0.695-0.695-1.732-0.92-2.652-0.572c-1.318,0.494-2.453,1.211-3.373,2.131    L3.394,70.362c-1.816,1.816-2.818,4.318-2.814,7.041c0,3.25,1.424,6.531,3.877,8.98l0.215,0.219    c2.471,2.475,5.752,3.895,8.998,3.895c2.723,0,5.225-1.002,7.045-2.822l28.568-28.57c0.918-0.908,1.641-2.039,2.143-3.361    C51.778,54.821,51.556,53.778,50.858,53.079z" fill="#45596B"/></g></g></svg>