<?xml version="1.0" ?><!DOCTYPE svg  PUBLIC '-//W3C//DTD SVG 1.1//EN'  'http://www.w3.org/Graphics/SVG/1.1/DTD/svg11.dtd'><svg enable-background="new 0 0 91 91" height="91px" id="Layer_1" version="1.1" viewBox="0 0 91 91" width="91px" xml:space="preserve" xmlns="http://www.w3.org/2000/svg" xmlns:xlink="http://www.w3.org/1999/xlink"><g><g><path d="M15.932,90.279c-0.746,0-1.498-0.252-2.119-0.762c-1.426-1.172-1.629-3.275-0.457-4.701l7.789-9.467    c1.172-1.424,3.277-1.629,4.699-0.457c1.426,1.172,1.631,3.275,0.459,4.701l-7.789,9.465    C17.854,89.863,16.896,90.279,15.932,90.279z" fill="#45596B"/><path d="M75.279,90.279c-0.963,0-1.92-0.416-2.58-1.219l-7.793-9.467c-1.172-1.426-0.969-3.529,0.457-4.701    c1.424-1.17,3.529-0.967,4.701,0.457l7.793,9.467c1.172,1.426,0.967,3.529-0.457,4.701C76.777,90.027,76.027,90.279,75.279,90.279    z" fill="#45596B"/><path d="M45.605,5.422c-21.803,0-39.541,17.738-39.541,39.538c0,21.802,17.738,39.544,39.541,39.544    S85.148,66.762,85.148,44.96C85.148,23.161,67.408,5.422,45.605,5.422z M23.785,47.466h-6.094c-1.383,0-2.504-1.121-2.504-2.506    s1.121-2.504,2.504-2.504h6.094c1.383,0,2.504,1.119,2.504,2.504S25.168,47.466,23.785,47.466z M48.232,72.801    c0,1.383-1.123,2.504-2.506,2.504s-2.506-1.121-2.506-2.504v-6.184c0-1.385,1.123-2.504,2.506-2.504s2.506,1.119,2.506,2.504    V72.801z M56.604,47.466H45.723c-1.383,0-2.504-1.121-2.504-2.506V18.75c0-1.383,1.121-2.506,2.504-2.506s2.506,1.123,2.506,2.506    v23.706h8.375c1.383,0,2.506,1.119,2.506,2.504S57.986,47.466,56.604,47.466z M73.52,47.466h-6.094    c-1.383,0-2.506-1.121-2.506-2.506s1.123-2.504,2.506-2.504h6.094c1.383,0,2.506,1.119,2.506,2.504S74.902,47.466,73.52,47.466z" fill="#647F94"/><path d="M4.691,21.086c-1.846,0-3.34-1.496-3.34-3.34V12.42c0-6.391,5.199-11.586,11.592-11.586h5.322    c1.846,0,3.34,1.494,3.34,3.34c0,1.842-1.494,3.34-3.34,3.34h-5.322c-2.709,0-4.912,2.199-4.912,4.906v5.326    C8.031,19.59,6.535,21.086,4.691,21.086z" fill="#6EC4A7"/><path d="M86.514,21.086c-1.844,0-3.34-1.496-3.34-3.34V12.42c0-2.707-2.201-4.906-4.908-4.906h-5.324    c-1.844,0-3.34-1.498-3.34-3.34c0-1.846,1.496-3.34,3.34-3.34h5.324c6.391,0,11.588,5.195,11.588,11.586v5.326    C89.854,19.59,88.359,21.086,86.514,21.086z" fill="#6EC4A7"/></g></g></svg>