<?xml version="1.0" ?><!DOCTYPE svg  PUBLIC '-//W3C//DTD SVG 1.1//EN'  'http://www.w3.org/Graphics/SVG/1.1/DTD/svg11.dtd'><svg enable-background="new 0 0 91 91" height="91px" id="Layer_1" version="1.1" viewBox="0 0 91 91" width="91px" xml:space="preserve" xmlns="http://www.w3.org/2000/svg" xmlns:xlink="http://www.w3.org/1999/xlink"><g><g><path d="M25.543,44.476c-2.305,0-4.174-1.869-4.174-4.176V20.755c0-11.137,10.414-20.197,23.217-20.197h0.541    c12.799,0,23.213,9.061,23.213,20.197c0,2.305-1.869,4.174-4.174,4.174c-2.307,0-4.176-1.869-4.176-4.174    c0-6.533-6.666-11.848-14.863-11.848h-0.541c-8.197,0-14.867,5.314-14.867,11.848V40.3C29.719,42.606,27.85,44.476,25.543,44.476z    " fill="#45596B"/><path d="M45.215,30.468H44.5c-15.162,0-27.498,10.561-27.498,23.541v12.324c0,12.979,12.336,23.539,27.498,23.539    h0.715c15.164,0,27.5-10.561,27.5-23.539V54.009C72.715,41.028,60.379,30.468,45.215,30.468z M49.027,69.122    c0,2.305-1.869,4.174-4.174,4.174c-2.307,0-4.176-1.869-4.176-4.174V53.005c0-2.307,1.869-4.176,4.176-4.176    c2.305,0,4.174,1.869,4.174,4.176V69.122z" fill="#647F94"/></g></g></svg>