<?xml version="1.0" ?><!DOCTYPE svg  PUBLIC '-//W3C//DTD SVG 1.1//EN'  'http://www.w3.org/Graphics/SVG/1.1/DTD/svg11.dtd'><svg enable-background="new 0 0 91 91" height="91px" id="Layer_1" version="1.1" viewBox="0 0 91 91" width="91px" xml:space="preserve" xmlns="http://www.w3.org/2000/svg" xmlns:xlink="http://www.w3.org/1999/xlink"><g><g><path d="M5.895,90.438h72.521c3.463,0,6.285-2.82,6.285-6.287v-62.73H5.895V90.438z M37.844,74.739    c1.072,1.074,1.072,2.816,0,3.891c-0.539,0.537-1.242,0.803-1.945,0.803s-1.408-0.266-1.947-0.805l-5.564-5.57l-5.566,5.568    c-0.539,0.537-1.24,0.807-1.945,0.807c-0.703,0-1.408-0.27-1.943-0.807c-1.076-1.072-1.076-2.814,0-3.889l5.568-5.568l-5.568-5.57    c-1.076-1.076-1.076-2.816,0-3.891c1.074-1.074,2.814-1.074,3.889,0l5.566,5.57l5.564-5.568c1.078-1.074,2.816-1.074,3.893,0    c1.072,1.072,1.072,2.814,0,3.889l-5.568,5.57L37.844,74.739z M63.885,79.778h-1.922c-1.52,0-2.752-1.23-2.752-2.75    s1.232-2.75,2.752-2.75h1.922c1.52,0,2.754,1.23,2.754,2.75S65.404,79.778,63.885,79.778z M54.125,37.571h17.588    c1.52,0,2.754,1.23,2.754,2.75s-1.234,2.75-2.754,2.75H54.125c-1.516,0-2.748-1.23-2.748-2.75S52.609,37.571,54.125,37.571z     M66.639,61.286c0,1.52-1.234,2.752-2.754,2.752h-1.922c-1.52,0-2.752-1.232-2.752-2.752c0-1.518,1.232-2.75,2.752-2.75h1.922    C65.404,58.536,66.639,59.769,66.639,61.286z M54.125,66.417h17.588c1.52,0,2.754,1.23,2.754,2.75s-1.234,2.75-2.754,2.75H54.125    c-1.516,0-2.748-1.23-2.748-2.75S52.609,66.417,54.125,66.417z M19.598,37.571h6.037v-6.039c0-1.52,1.232-2.75,2.75-2.75    c1.52,0,2.75,1.23,2.75,2.75v6.039h6.047c1.516,0,2.75,1.23,2.75,2.75s-1.234,2.75-2.75,2.75h-6.047v6.043    c0,1.52-1.23,2.752-2.75,2.752c-1.518,0-2.75-1.232-2.75-2.752v-6.043h-6.037c-1.52,0-2.754-1.23-2.754-2.75    S18.078,37.571,19.598,37.571z" fill="#647F94"/><rect fill="#45596B" height="14.791" width="78.807" x="5.895" y="1.128"/></g></g></svg>