<?xml version="1.0" ?><!DOCTYPE svg  PUBLIC '-//W3C//DTD SVG 1.1//EN'  'http://www.w3.org/Graphics/SVG/1.1/DTD/svg11.dtd'><svg enable-background="new 0 0 91 91" height="91px" id="Layer_1" version="1.1" viewBox="0 0 91 91" width="91px" xml:space="preserve" xmlns="http://www.w3.org/2000/svg" xmlns:xlink="http://www.w3.org/1999/xlink"><g><path d="M52.146,89.857H5.605c-2.307,0-4.176-1.869-4.176-4.174c0-2.307,1.869-4.176,4.176-4.176h46.542   c2.307,0,4.176,1.869,4.176,4.176C56.322,87.988,54.453,89.857,52.146,89.857z" fill="#647F94"/><path d="M85.4,63.514H5.605c-2.307,0-4.176-1.869-4.176-4.176c0-2.305,1.869-4.174,4.176-4.174H85.4   c2.307,0,4.176,1.869,4.176,4.174C89.576,61.645,87.707,63.514,85.4,63.514z" fill="#45596B"/><path d="M65.441,37.17H5.605c-2.307,0-4.176-1.867-4.176-4.174s1.869-4.176,4.176-4.176h59.836   c2.307,0,4.176,1.869,4.176,4.176S67.748,37.17,65.441,37.17z" fill="#647F94"/><path d="M85.4,10.821H5.605c-2.307,0-4.176-1.869-4.176-4.176c0-2.305,1.869-4.174,4.176-4.174H85.4   c2.307,0,4.176,1.869,4.176,4.174C89.576,8.952,87.707,10.821,85.4,10.821z" fill="#45596B"/></g></svg>