<?xml version="1.0" ?><!DOCTYPE svg  PUBLIC '-//W3C//DTD SVG 1.1//EN'  'http://www.w3.org/Graphics/SVG/1.1/DTD/svg11.dtd'><svg enable-background="new 0 0 91 91" height="91px" id="Layer_1" version="1.1" viewBox="0 0 91 91" width="91px" xml:space="preserve" xmlns="http://www.w3.org/2000/svg" xmlns:xlink="http://www.w3.org/1999/xlink"><g><g><path d="M74,70.559c0-0.461-0.373-0.836-0.834-0.836H18.177c-0.461,0-0.835,0.375-0.835,0.836v13.166    c0,0.461,0.374,0.834,0.835,0.834h54.989c0.461,0,0.834-0.373,0.834-0.834l-0.004-4.838c0-0.014-0.018-0.273-0.02-0.287    C73.982,78.561,74,78.412,74,78.371V70.559z" fill="#95AEC2"/><path d="M73.166,7.041H18.177c-0.461,0-0.835,0.373-0.835,0.834v36.699c0,0.461,0.374,0.834,0.835,0.834h54.989    c0.461,0,0.834-0.373,0.834-0.834V7.875C74,7.414,73.627,7.041,73.166,7.041z" fill="#6EC4A7"/><path d="M89.801,49.527L1.538,49.525c-0.222,0-0.434,0.088-0.59,0.244c-0.157,0.156-0.245,0.369-0.245,0.592    v25.414c0,0.461,0.374,0.836,0.835,0.836h10.855c0.461,0,0.835-0.375,0.835-0.836v-8.109c0-1.135,0.923-2.059,2.058-2.059h60.773    c1.135,0,2.059,0.924,2.059,2.059v8.109c0,0.461,0.373,0.836,0.834,0.836h4.908c3.736,0,6.775-3.039,6.775-6.771V50.361    C90.635,49.9,90.262,49.527,89.801,49.527z M59.879,57.559c0,1.135-0.924,2.059-2.059,2.059h-5.717    c-1.135,0-2.057-0.924-2.057-2.059s0.922-2.059,2.057-2.059h5.717C58.955,55.5,59.879,56.424,59.879,57.559z M41.293,57.559    c0,1.135-0.922,2.059-2.057,2.059h-5.718c-1.134,0-2.057-0.924-2.057-2.059s0.922-2.059,2.057-2.059h5.718    C40.371,55.5,41.293,56.424,41.293,57.559z" fill="#647F94"/></g></g></svg>