<?xml version="1.0" ?><!DOCTYPE svg  PUBLIC '-//W3C//DTD SVG 1.1//EN'  'http://www.w3.org/Graphics/SVG/1.1/DTD/svg11.dtd'><svg enable-background="new 0 0 91 91" height="91px" id="Layer_1" version="1.1" viewBox="0 0 91 91" width="91px" xml:space="preserve" xmlns="http://www.w3.org/2000/svg" xmlns:xlink="http://www.w3.org/1999/xlink"><g><g><path d="M29.889,57.763V13.068c-16.519,4.636-28.67,19.82-28.67,37.796c0,21.648,17.613,39.262,39.264,39.262    c18.031,0,33.253-12.227,37.836-28.823h-44.89C31.472,61.303,29.889,59.719,29.889,57.763z" fill="#647F94"/><path d="M77.232,48.36H42.988V14.11c0-1.385-1.123-2.506-2.506-2.506c-3.671,0-7.221,0.517-10.594,1.464v44.694    c0,1.956,1.583,3.54,3.54,3.54h44.89c0.919-3.326,1.42-6.824,1.42-10.438C79.738,49.481,78.615,48.36,77.232,48.36z" fill="#45596B"/></g><path d="M86.852,54.204H40.395c-1.799,0-3.256-1.457-3.256-3.257V4.489c0-1.797,1.457-3.256,3.256-3.256   c27.413,0,49.713,22.303,49.713,49.715C90.108,52.747,88.649,54.204,86.852,54.204z" fill="#6EC4A7"/></g></svg>