<?xml version="1.0" ?><!DOCTYPE svg  PUBLIC '-//W3C//DTD SVG 1.1//EN'  'http://www.w3.org/Graphics/SVG/1.1/DTD/svg11.dtd'><svg enable-background="new 0 0 91 91" height="91px" id="Layer_1" version="1.1" viewBox="0 0 91 91" width="91px" xml:space="preserve" xmlns="http://www.w3.org/2000/svg" xmlns:xlink="http://www.w3.org/1999/xlink"><g><g><path d="M77.739,86.219c-1.135,0.001-2.247-0.542-2.934-1.551c-8.086-11.887-5.46-31.703-5.344-32.54    c0.268-1.939,2.059-3.293,3.996-3.026c1.938,0.268,3.294,2.056,3.026,3.995c-0.033,0.249-2.349,17.982,4.184,27.583    c1.101,1.619,0.682,3.824-0.938,4.926C79.119,86.02,78.427,86.219,77.739,86.219z" fill="#6EC4A7"/><path d="M13.294,86.219c-0.763,0-1.532-0.244-2.179-0.75c-1.544-1.205-1.818-3.434-0.613-4.977    c5.356-6.861,5.211-22.207,4.705-27.541c-0.187-1.949,1.242-3.68,3.19-3.866c1.938-0.184,3.677,1.238,3.866,3.188    c0.087,0.897,2.023,22.085-6.173,32.583C15.392,85.751,14.348,86.219,13.294,86.219z" fill="#6EC4A7"/><path d="M29.165,86.219c-1.959,0-3.545-1.587-3.545-3.545V52.61c0-1.957,1.586-3.544,3.545-3.544    c1.957,0,3.544,1.587,3.544,3.544v30.063C32.709,84.632,31.122,86.219,29.165,86.219z" fill="#6EC4A7"/><path d="M40.29,86.219c-1.957,0-3.544-1.587-3.544-3.545V52.61c0-1.957,1.588-3.544,3.544-3.544    c1.959,0,3.545,1.587,3.545,3.544v30.063C43.834,84.632,42.249,86.219,40.29,86.219z" fill="#6EC4A7"/><path d="M51.417,86.219c-1.959,0-3.545-1.587-3.545-3.545V52.61c0-1.957,1.586-3.544,3.545-3.544    c1.957,0,3.545,1.587,3.545,3.544v30.063C54.962,84.632,53.374,86.219,51.417,86.219z" fill="#6EC4A7"/><path d="M62.542,86.219c-1.959,0-3.544-1.587-3.544-3.545V52.61c0-1.957,1.585-3.544,3.544-3.544    c1.957,0,3.545,1.587,3.545,3.544v30.063C66.087,84.632,64.499,86.219,62.542,86.219z" fill="#6EC4A7"/><path d="M72.974,5.433h-54.24c-1.468,0-2.66,1.19-2.66,2.659v26.492c0,1.468,1.192,2.658,2.66,2.658h54.24    c1.467,0,2.657-1.19,2.657-2.658V8.091C75.631,6.623,74.44,5.433,72.974,5.433z" fill="#6EC4A7"/><path d="M87.821,31.925H3.888c-0.707,0-1.383,0.28-1.88,0.777c-0.5,0.5-0.779,1.175-0.779,1.88v27.85    c0,1.47,1.19,2.659,2.66,2.659h13.884c1.368,0,2.512-1.039,2.647-2.4l0.726-7.419h50.491l0.726,7.419    c0.135,1.361,1.279,2.4,2.647,2.4h4.93c5.813,0,10.542-4.729,10.542-10.541V34.585C90.48,33.115,89.291,31.925,87.821,31.925z     M59.358,42.022c0,1.468-1.189,2.657-2.659,2.657h-5.102c-1.47,0-2.66-1.189-2.66-2.657c0-1.47,1.19-2.66,2.66-2.66h5.102    C58.169,39.363,59.358,40.553,59.358,42.022z M42.767,42.022c0,1.468-1.19,2.657-2.658,2.657h-5.102    c-1.469,0-2.659-1.189-2.659-2.657c0-1.47,1.19-2.66,2.659-2.66h5.102C41.577,39.363,42.767,40.553,42.767,42.022z" fill="#647F94"/></g></g></svg>