<?xml version="1.0" ?><!DOCTYPE svg  PUBLIC '-//W3C//DTD SVG 1.1//EN'  'http://www.w3.org/Graphics/SVG/1.1/DTD/svg11.dtd'><svg enable-background="new 0 0 91 91" height="91px" id="Layer_1" version="1.1" viewBox="0 0 91 91" width="91px" xml:space="preserve" xmlns="http://www.w3.org/2000/svg" xmlns:xlink="http://www.w3.org/1999/xlink"><g><path d="M87.08,8.849H58.021c-1.846,0-3.34-1.496-3.34-3.342c0-1.844,1.494-3.34,3.34-3.34H87.08   c1.844,0,3.34,1.496,3.34,3.34C90.42,7.353,88.924,8.849,87.08,8.849z" fill="#647F94"/><path d="M87.084,48.622H44.805c-1.846,0-3.34-1.497-3.34-3.341c0-1.844,1.494-3.34,3.34-3.34h42.279   c1.842,0,3.34,1.496,3.34,3.34C90.424,47.125,88.926,48.622,87.084,48.622z" fill="#647F94"/><path d="M87.084,68.509H44.805c-1.846,0-3.34-1.494-3.34-3.34c0-1.844,1.494-3.34,3.34-3.34h42.279   c1.842,0,3.34,1.496,3.34,3.34C90.424,67.015,88.926,68.509,87.084,68.509z" fill="#647F94"/><path d="M87.084,88.396H44.805c-1.846,0-3.34-1.494-3.34-3.34c0-1.844,1.494-3.34,3.34-3.34h42.279   c1.842,0,3.34,1.496,3.34,3.34C90.424,86.901,88.926,88.396,87.084,88.396z" fill="#647F94"/><path d="M87.08,28.736H64.629c-1.846,0-3.34-1.496-3.34-3.342c0-1.844,1.494-3.34,3.34-3.34H87.08   c1.844,0,3.34,1.496,3.34,3.34C90.42,27.24,88.924,28.736,87.08,28.736z" fill="#647F94"/><path d="M26.635,89.585c-2.307,0-4.176-1.869-4.176-4.176V6.105c0-2.307,1.869-4.176,4.176-4.176   c2.305,0,4.174,1.869,4.174,4.176v79.304C30.809,87.716,28.94,89.585,26.635,89.585z" fill="#45596B"/><path d="M47.695,30.103c-1.066,0-2.136-0.408-2.953-1.223L23.682,7.818c-1.631-1.631-1.631-4.273,0-5.904   c1.631-1.629,4.275-1.631,5.906,0l21.06,21.063c1.629,1.631,1.629,4.273-0.002,5.904C49.832,29.695,48.764,30.103,47.695,30.103z" fill="#45596B"/><path d="M5.571,30.103c-1.07,0-2.139-0.408-2.955-1.223c-1.629-1.631-1.629-4.273,0.002-5.904L23.682,1.914   c1.629-1.629,4.273-1.631,5.904,0s1.631,4.273,0,5.904L8.522,28.88C7.708,29.695,6.637,30.103,5.571,30.103z" fill="#45596B"/></g></svg>