<?xml version="1.0" ?><!DOCTYPE svg  PUBLIC '-//W3C//DTD SVG 1.1//EN'  'http://www.w3.org/Graphics/SVG/1.1/DTD/svg11.dtd'><svg enable-background="new 0 0 91 91" height="91px" id="Layer_1" version="1.1" viewBox="0 0 91 91" width="91px" xml:space="preserve" xmlns="http://www.w3.org/2000/svg" xmlns:xlink="http://www.w3.org/1999/xlink"><g><g><path d="M23.301,90.346c-0.945,0-1.885-0.398-2.545-1.174c-1.197-1.406-1.027-3.512,0.375-4.709l11.285-9.613    c1.406-1.197,3.514-1.027,4.711,0.377c1.195,1.404,1.027,3.512-0.379,4.709l-11.285,9.611    C24.836,90.084,24.064,90.346,23.301,90.346z" fill="#45596B"/><path d="M67.996,90.346c-0.768,0-1.537-0.262-2.164-0.799l-11.279-9.611c-1.404-1.197-1.572-3.305-0.375-4.711    c1.195-1.404,3.305-1.572,4.709-0.375l11.277,9.615c1.404,1.195,1.572,3.303,0.375,4.707    C69.879,89.947,68.941,90.346,67.996,90.346z" fill="#45596B"/><path d="M45.65,13.708c-1.848,0-3.34-1.494-3.34-3.34V4.751c0-1.846,1.492-3.342,3.34-3.342    c1.842,0,3.34,1.496,3.34,3.342v5.617C48.99,12.214,47.492,13.708,45.65,13.708z" fill="#45596B"/><g><path d="M45.438,10.167c-19.375,0-35.139,15.762-35.139,35.138c0,19.371,15.764,35.135,35.139,35.135     s35.139-15.764,35.139-35.135C80.576,25.929,64.813,10.167,45.438,10.167z" fill="#647F94"/></g><g><path d="M45.488,62.021c-0.002,0-0.004,0-0.004,0c-1.385,0.004-2.502,1.125-2.502,2.51l0.01,5.406     c0,1.383,1.123,2.502,2.504,2.502c0.002,0,0.004,0,0.004,0c1.385-0.004,2.504-1.125,2.502-2.508l-0.008-5.408     C47.992,63.141,46.869,62.021,45.488,62.021z" fill="#95AEC2"/><path d="M28.576,45.222c0-1.383-1.121-2.506-2.506-2.506h-5.412c-1.383,0-2.504,1.123-2.504,2.506     c0,1.383,1.121,2.504,2.504,2.504h5.412C27.455,47.727,28.576,46.605,28.576,45.222z" fill="#95AEC2"/><path d="M30.547,57.762l-3.654,3.988c-0.934,1.021-0.863,2.607,0.156,3.539c0.482,0.441,1.088,0.66,1.691,0.66     c0.678,0,1.354-0.275,1.848-0.816l3.654-3.988c0.934-1.021,0.863-2.605-0.156-3.539C33.068,56.672,31.484,56.74,30.547,57.762z" fill="#95AEC2"/><path d="M29.469,33.939c0.48,0.441,1.088,0.658,1.693,0.658c0.676,0,1.352-0.273,1.846-0.813     c0.936-1.02,0.865-2.604-0.154-3.541l-3.988-3.657c-1.018-0.932-2.604-0.865-3.539,0.154s-0.865,2.606,0.152,3.542L29.469,33.939     z" fill="#95AEC2"/><path d="M70.217,42.716h-5.41c-1.385,0-2.506,1.123-2.506,2.506c0,1.383,1.121,2.504,2.506,2.504h5.41     c1.383,0,2.506-1.121,2.506-2.504C72.723,43.839,71.6,42.716,70.217,42.716z" fill="#95AEC2"/><path d="M61.451,56.379c-1.023-0.932-2.605-0.863-3.539,0.156c-0.934,1.021-0.865,2.605,0.156,3.539l3.988,3.646     c0.48,0.441,1.086,0.658,1.691,0.658c0.678,0,1.354-0.275,1.848-0.814c0.934-1.023,0.863-2.605-0.156-3.539L61.451,56.379z" fill="#95AEC2"/><path d="M48.051,22.011c0-1.385-1.123-2.504-2.506-2.504s-2.504,1.119-2.504,2.504v23.065     c0,0.025-0.01,0.053-0.01,0.082c0,0.651,0.268,1.301,0.736,1.77c0.094,0.094,0.203,0.174,0.311,0.252     c0.023,0.018,0.045,0.041,0.068,0.057c0.02,0.012,0.039,0.02,0.059,0.031c0.389,0.246,0.846,0.395,1.34,0.395     c0.916,0,1.709-0.496,2.146-1.229c0.232-0.385,0.367-0.82,0.367-1.276c0-0.029-0.008-0.055-0.008-0.082V22.011z" fill="#6EC4A7"/><path d="M60.379,32.548l3.65-3.988c0.936-1.02,0.865-2.606-0.156-3.54c-1.018-0.932-2.604-0.867-3.539,0.156     l-3.652,3.989c-0.934,1.02-0.863,2.605,0.158,3.539c0.48,0.441,1.086,0.658,1.689,0.658     C59.207,33.363,59.885,33.089,60.379,32.548z" fill="#95AEC2"/></g><path d="M69.369,7.366H21.934c-1.846,0-3.34-1.494-3.34-3.34c0-1.844,1.494-3.34,3.34-3.34h47.436    c1.842,0,3.34,1.496,3.34,3.34C72.709,5.872,71.211,7.366,69.369,7.366z" fill="#6EC4A7"/></g></g></svg>