<?xml version="1.0" ?><!DOCTYPE svg  PUBLIC '-//W3C//DTD SVG 1.1//EN'  'http://www.w3.org/Graphics/SVG/1.1/DTD/svg11.dtd'><svg enable-background="new 0 0 91 91" height="91px" id="Layer_1" version="1.1" viewBox="0 0 91 91" width="91px" xml:space="preserve" xmlns="http://www.w3.org/2000/svg" xmlns:xlink="http://www.w3.org/1999/xlink"><g><path d="M69.051,89.652H22.286c-2.307,0-4.176-1.869-4.176-4.176s1.869-4.174,4.176-4.174h46.765   c2.307,0,4.176,1.867,4.176,4.174S71.357,89.652,69.051,89.652z" fill="#647F94"/><path d="M85.754,63.189H5.583c-2.307,0-4.176-1.869-4.176-4.176c0-2.305,1.869-4.174,4.176-4.174h80.171   c2.307,0,4.176,1.869,4.176,4.174C89.93,61.32,88.061,63.189,85.754,63.189z" fill="#45596B"/><path d="M75.729,36.725H15.602c-2.307,0-4.176-1.869-4.176-4.176c0-2.305,1.869-4.174,4.176-4.174h60.126   c2.305,0,4.174,1.869,4.174,4.174C79.902,34.856,78.033,36.725,75.729,36.725z" fill="#647F94"/><path d="M85.754,10.256H5.583c-2.307,0-4.176-1.869-4.176-4.176c0-2.305,1.869-4.174,4.176-4.174h80.171   c2.307,0,4.176,1.869,4.176,4.174C89.93,8.387,88.061,10.256,85.754,10.256z" fill="#45596B"/></g></svg>