<?xml version="1.0" ?><!DOCTYPE svg  PUBLIC '-//W3C//DTD SVG 1.1//EN'  'http://www.w3.org/Graphics/SVG/1.1/DTD/svg11.dtd'><svg enable-background="new 0 0 91 91" height="91px" id="Layer_1" version="1.1" viewBox="0 0 91 91" width="91px" xml:space="preserve" xmlns="http://www.w3.org/2000/svg" xmlns:xlink="http://www.w3.org/1999/xlink"><g><g><path d="M77.224,9.939c-0.002-1.381-1.124-2.501-2.506-2.501H17.873c-1.383,0-2.505,1.122-2.505,2.505v78.09    c0,1.383,1.122,2.504,2.505,2.504h48.743c5.908,0,10.715-4.804,10.715-10.714L77.224,9.939z" fill="#647F94"/><path d="M31.46,3.072c-0.078-1.313-1.158-2.356-2.49-2.356s-2.412,1.044-2.49,2.356h-0.016v11.412    c0,1.384,1.123,2.505,2.506,2.505s2.505-1.121,2.505-2.505V3.072H31.46z" fill="#45596B"/><path d="M48.835,3.072c-0.078-1.313-1.158-2.356-2.49-2.356s-2.412,1.044-2.49,2.356H43.84v11.412    c0,1.384,1.122,2.505,2.505,2.505s2.505-1.121,2.505-2.505V3.072H48.835z" fill="#45596B"/><path d="M66.21,3.072c-0.078-1.313-1.158-2.356-2.49-2.356s-2.412,1.044-2.49,2.356h-0.015v11.412    c0,1.384,1.122,2.505,2.505,2.505s2.506-1.121,2.506-2.505V3.072H66.21z" fill="#45596B"/></g><path d="M62.3,36.937H30.987c-1.383,0-2.504-1.121-2.504-2.505s1.121-2.505,2.504-2.505H62.3   c1.383,0,2.506,1.121,2.506,2.505S63.683,36.937,62.3,36.937z" fill="#6EC4A7"/><path d="M62.3,51.258H30.987c-1.383,0-2.504-1.121-2.504-2.505s1.121-2.505,2.504-2.505H62.3   c1.383,0,2.506,1.121,2.506,2.505S63.683,51.258,62.3,51.258z" fill="#95AEC2"/><path d="M39.597,65.322h-8.609c-1.383,0-2.504-1.122-2.504-2.505c0-1.384,1.121-2.505,2.504-2.505h8.609   c1.383,0,2.504,1.121,2.504,2.505C42.101,64.2,40.979,65.322,39.597,65.322z" fill="#6EC4A7"/><path d="M54.423,65.322h-3.734c-1.383,0-2.505-1.122-2.505-2.505c0-1.384,1.122-2.505,2.505-2.505h3.734   c1.383,0,2.504,1.121,2.504,2.505C56.927,64.2,55.806,65.322,54.423,65.322z" fill="#95AEC2"/></g></svg>