<?xml version="1.0" ?><!DOCTYPE svg  PUBLIC '-//W3C//DTD SVG 1.1//EN'  'http://www.w3.org/Graphics/SVG/1.1/DTD/svg11.dtd'><svg enable-background="new 0 0 91 91" height="91px" id="Layer_1" version="1.1" viewBox="0 0 91 91" width="91px" xml:space="preserve" xmlns="http://www.w3.org/2000/svg" xmlns:xlink="http://www.w3.org/1999/xlink"><g><path d="M82.768,1.37L9.583,1.369c-0.663,0-1.302,0.264-1.771,0.734c-0.471,0.47-0.734,1.106-0.734,1.771v83.902   c0,1.384,1.122,2.506,2.505,2.506h65.261c5.75,0,10.43-4.678,10.43-10.428V3.875C85.273,2.491,84.15,1.37,82.768,1.37z    M30.229,65.071h-8.386c-1.383,0-2.505-1.121-2.505-2.505s1.122-2.505,2.505-2.505h8.386c1.384,0,2.505,1.121,2.505,2.505   S31.613,65.071,30.229,65.071z M47.326,65.071h-6.007c-1.383,0-2.505-1.121-2.505-2.505s1.122-2.505,2.505-2.505h6.007   c1.383,0,2.505,1.121,2.505,2.505S48.709,65.071,47.326,65.071z M64.582,65.071h-6.005c-1.383,0-2.505-1.121-2.505-2.505   s1.122-2.505,2.505-2.505h6.005c1.383,0,2.505,1.121,2.505,2.505S65.965,65.071,64.582,65.071z M70.512,48.434H21.844   c-1.383,0-2.505-1.122-2.505-2.505c0-1.384,1.122-2.505,2.505-2.505h48.668c1.383,0,2.506,1.122,2.506,2.505   C73.018,47.312,71.895,48.434,70.512,48.434z M70.512,31.584H21.844c-1.383,0-2.505-1.122-2.505-2.505s1.122-2.505,2.505-2.505   h48.668c1.383,0,2.506,1.121,2.506,2.505S71.895,31.584,70.512,31.584z" fill="#647F94"/></g></svg>