<?xml version="1.0" ?><!DOCTYPE svg  PUBLIC '-//W3C//DTD SVG 1.1//EN'  'http://www.w3.org/Graphics/SVG/1.1/DTD/svg11.dtd'><svg enable-background="new 0 0 91 91" height="91px" id="Layer_1" version="1.1" viewBox="0 0 91 91" width="91px" xml:space="preserve" xmlns="http://www.w3.org/2000/svg" xmlns:xlink="http://www.w3.org/1999/xlink"><g><g><path d="M45.462,29.535c-11.904,0-21.59,9.685-21.59,21.587c0,11.904,9.686,21.586,21.59,21.586    c11.902,0,21.586-9.682,21.586-21.586C67.048,39.22,57.364,29.535,45.462,29.535z M45.466,66.632    c-8.559,0-15.516-6.957-15.516-15.51c0-8.549,6.957-15.508,15.516-15.508c8.549,0,15.5,6.959,15.5,15.508    C60.966,59.675,54.015,66.632,45.466,66.632z" fill="#45596B"/><polygon fill="#45596B" points="61.155,5.013 29.774,5.013 26.329,13.417 64.589,13.417   "/><path d="M45.466,41.286c-5.428,0-9.844,4.412-9.844,9.836c0,5.426,4.416,9.838,9.844,9.838    c5.42,0,9.83-4.412,9.83-9.838C55.296,45.698,50.886,41.286,45.466,41.286z" fill="#6EC4A7"/><path d="M69.261,19.089h-0.039H21.698H0.493v64.066h83.791c3.385,0,6.141-2.756,6.141-6.143V19.089H69.261z     M45.462,78.384c-15.033,0-27.262-12.229-27.262-27.262c0-15.031,12.229-27.259,27.262-27.259    c15.031,0,27.258,12.228,27.258,27.259C72.72,66.155,60.493,78.384,45.462,78.384z M81.005,29.654    c-0.527,0.529-1.266,0.832-2.006,0.832c-0.754,0-1.494-0.303-2.021-0.832c-0.512-0.531-0.816-1.268-0.816-2.006    c0-0.756,0.305-1.475,0.816-2.002c1.057-1.061,2.947-1.061,4.027,0c0.529,0.527,0.828,1.246,0.828,2.002    C81.833,28.386,81.534,29.123,81.005,29.654z" fill="#647F94"/></g></g></svg>