<?xml version="1.0" ?><!DOCTYPE svg  PUBLIC '-//W3C//DTD SVG 1.1//EN'  'http://www.w3.org/Graphics/SVG/1.1/DTD/svg11.dtd'><svg enable-background="new 0 0 91 91" height="91px" id="Layer_1" version="1.1" viewBox="0 0 91 91" width="91px" xml:space="preserve" xmlns="http://www.w3.org/2000/svg" xmlns:xlink="http://www.w3.org/1999/xlink"><g><path d="M87.915,20.264c-0.322-0.771-1.008-1.332-1.826-1.496c-0.822-0.16-1.668,0.096-2.256,0.688l-9.943,9.944   c-1.365,1.365-3.074,1.652-4.264,1.652c-2.309,0-4.684-1.053-6.551-2.918l-0.199-0.193c-3.314-3.317-3.865-8.159-1.232-10.788   l9.941-9.939c0.59-0.59,0.848-1.438,0.684-2.256c-0.16-0.822-0.721-1.506-1.492-1.826c-3.424-1.428-6.939-2.152-10.445-2.152   c-5.936,0-11.359,2.152-15.275,6.066l-6.615,6.611c-6.525,6.537-7.875,16.893-3.629,26.385c-0.271,0.211-0.525,0.439-0.762,0.68   L3.032,71.735c-1.717,1.717-2.662,4.076-2.662,6.641c0.004,3.053,1.338,6.135,3.598,8.389l0.238,0.256   c2.326,2.32,5.41,3.65,8.461,3.65c2.564,0,4.922-0.943,6.637-2.658l31.023-31.02c0.238-0.24,0.461-0.494,0.672-0.762   c3.586,1.602,7.379,2.439,11.1,2.439c5.934,0,11.365-2.156,15.289-6.074l6.6-6.611C90.366,39.614,91.868,29.758,87.915,20.264z" fill="#647F94"/></g></svg>