<?xml version="1.0" ?><!DOCTYPE svg  PUBLIC '-//W3C//DTD SVG 1.1//EN'  'http://www.w3.org/Graphics/SVG/1.1/DTD/svg11.dtd'><svg enable-background="new 0 0 91 91" height="91px" id="Layer_1" version="1.1" viewBox="0 0 91 91" width="91px" xml:space="preserve" xmlns="http://www.w3.org/2000/svg" xmlns:xlink="http://www.w3.org/1999/xlink"><g><path d="M79.922,12.894c-4.057-3.35-9.26-5.193-14.652-5.193c-6.238,0-12.271,2.48-16.557,6.807   c-0.996,1.006-1.91,2.113-2.756,3.34C41.578,11.5,34.507,7.664,26.889,7.664c-1.398,0-2.814,0.127-4.209,0.383   C15.471,9.357,9.805,13.324,5.838,19.83c-5.68,9.326-6.131,17.939-1.381,26.33c2.545,4.494,5.859,8.891,10.137,13.441   c7.865,8.359,17.176,16.295,29.31,24.979c0.648,0.459,1.336,0.691,2.045,0.691c1.096,0,1.836-0.555,2.262-0.875   c10.781-7.693,19.631-15.107,27.055-22.67c4.172-4.256,8.904-9.482,12.361-15.984c1.453-2.736,3.107-6.412,3.012-10.564   C90.422,26.087,86.816,18.591,79.922,12.894z" fill="#647F94"/></g></svg>