<?xml version="1.0" ?><!DOCTYPE svg  PUBLIC '-//W3C//DTD SVG 1.1//EN'  'http://www.w3.org/Graphics/SVG/1.1/DTD/svg11.dtd'><svg enable-background="new 0 0 91 91" height="91px" id="Layer_1" version="1.1" viewBox="0 0 91 91" width="91px" xml:space="preserve" xmlns="http://www.w3.org/2000/svg" xmlns:xlink="http://www.w3.org/1999/xlink"><g><g><path d="M23.932,87.037V64.561c0-10.395,10.014-20.498,22.377-20.498h0.639c12.359,0,22.371,10.104,22.371,20.498    v22.477" fill="#95AEC2"/><path d="M23.932,3.638v22.48c0,10.395,10.014,20.501,22.377,20.501h0.639c12.359,0,22.371-10.106,22.371-20.501    V3.638" fill="#647F94"/><path d="M75.018,6.978H16.561c-1.846,0-3.34-1.496-3.34-3.34c0-1.846,1.494-3.34,3.34-3.34h58.457    c1.842,0,3.34,1.494,3.34,3.34C78.357,5.481,76.859,6.978,75.018,6.978z" fill="#45596B"/><path d="M75.018,90.377H16.561c-1.846,0-3.34-1.496-3.34-3.34s1.494-3.34,3.34-3.34h58.457    c1.842,0,3.34,1.496,3.34,3.34S76.859,90.377,75.018,90.377z" fill="#45596B"/></g></g></svg>