<?xml version="1.0" ?><!DOCTYPE svg  PUBLIC '-//W3C//DTD SVG 1.1//EN'  'http://www.w3.org/Graphics/SVG/1.1/DTD/svg11.dtd'><svg enable-background="new 0 0 91 91" height="91px" id="Layer_1" version="1.1" viewBox="0 0 91 91" width="91px" xml:space="preserve" xmlns="http://www.w3.org/2000/svg" xmlns:xlink="http://www.w3.org/1999/xlink"><g><path d="M63.327,11.104c-1.846,0-3.341,1.496-3.341,3.34v52.971c0,8.73-6.812,15.834-15.185,15.834   c-8.375,0-15.186-7.1-15.189-15.826c0-0.002,0.001-0.004,0.001-0.006V17.092c0-5.277,4.294-9.568,9.569-9.568   c5.262,0,9.541,4.26,9.572,9.511v51.261c0,2.055-1.668,3.725-3.719,3.725c-2.055,0-3.727-1.67-3.727-3.725V22.389   c0-1.844-1.495-3.34-3.34-3.34c-1.844,0-3.34,1.496-3.34,3.34v45.908c0,0.001,0,0.001,0,0.002c0.002,5.736,4.67,10.4,10.406,10.4   c5.733,0,10.398-4.666,10.398-10.404V17.131c0-0.014,0.004-0.025,0.004-0.039c0-0.026-0.004-0.051-0.004-0.077v-0.806   c0-0.24-0.027-0.474-0.076-0.7C54.56,7.29,47.612,0.844,39.183,0.844c-8.42,0-15.362,6.438-16.168,14.65   c-0.051,0.23-0.081,0.469-0.081,0.715v51.186c0,0.007-0.002,0.013-0.002,0.02c0,12.414,9.811,22.514,21.87,22.514   c12.057,0,21.865-10.1,21.865-22.514V14.443C66.667,12.6,65.171,11.104,63.327,11.104z" fill="#647F94"/></g></svg>