<?xml version="1.0" ?><!DOCTYPE svg  PUBLIC '-//W3C//DTD SVG 1.1//EN'  'http://www.w3.org/Graphics/SVG/1.1/DTD/svg11.dtd'><svg enable-background="new 0 0 91 91" height="91px" id="Layer_1" version="1.1" viewBox="0 0 91 91" width="91px" xml:space="preserve" xmlns="http://www.w3.org/2000/svg" xmlns:xlink="http://www.w3.org/1999/xlink"><g><g><path d="M69.413,0.705H22.036c-3.695,0-6.699,3.008-6.699,6.703v82.873L43.86,66.119    c1.08-0.914,2.662-0.914,3.74,0l28.512,24.16V7.408C76.112,3.713,73.104,0.705,69.413,0.705z" fill="#647F94"/><path d="M37.337,52.041c0,1.6-1.295,2.895-2.893,2.895c-1.596,0-2.895-1.295-2.895-2.895V17.537    c0-1.598,1.299-2.893,2.895-2.893c1.598,0,2.893,1.295,2.893,2.893V52.041z M60.466,52.041c0,1.6-1.299,2.895-2.896,2.895    c-1.596,0-2.893-1.295-2.893-2.895V17.537c0-1.598,1.297-2.893,2.893-2.893c1.598,0,2.896,1.295,2.896,2.893V52.041z" fill="#95AEC2"/></g></g></svg>