<?xml version="1.0" ?><!DOCTYPE svg  PUBLIC '-//W3C//DTD SVG 1.1//EN'  'http://www.w3.org/Graphics/SVG/1.1/DTD/svg11.dtd'><svg enable-background="new 0 0 91 91" height="91px" id="Layer_1" version="1.1" viewBox="0 0 91 91" width="91px" xml:space="preserve" xmlns="http://www.w3.org/2000/svg" xmlns:xlink="http://www.w3.org/1999/xlink"><g><path d="M85.713,12.142H5.861c-2.305,0-4.174-1.869-4.174-4.176c0-2.305,1.869-4.174,4.174-4.174h79.852   c2.305,0,4.174,1.869,4.174,4.174C89.887,10.273,88.018,12.142,85.713,12.142z" fill="#647F94"/><path d="M85.713,49.858H5.861c-2.305,0-4.174-1.869-4.174-4.175c0-2.307,1.869-4.176,4.174-4.176h79.852   c2.305,0,4.174,1.869,4.174,4.176C89.887,47.989,88.018,49.858,85.713,49.858z" fill="#647F94"/><path d="M85.713,87.571H5.861c-2.305,0-4.174-1.869-4.174-4.176s1.869-4.176,4.174-4.176h79.852   c2.305,0,4.174,1.869,4.174,4.176S88.018,87.571,85.713,87.571z" fill="#647F94"/></g></svg>