<?xml version="1.0" ?><!DOCTYPE svg  PUBLIC '-//W3C//DTD SVG 1.1//EN'  'http://www.w3.org/Graphics/SVG/1.1/DTD/svg11.dtd'><svg enable-background="new 0 0 91 91" height="91px" id="Layer_1" version="1.1" viewBox="0 0 91 91" width="91px" xml:space="preserve" xmlns="http://www.w3.org/2000/svg" xmlns:xlink="http://www.w3.org/1999/xlink"><g><path d="M86.626,88.396H57.708c-1.846,0-3.34-1.494-3.34-3.34c0-1.844,1.494-3.34,3.34-3.34h28.918   c1.844,0,3.34,1.496,3.34,3.34C89.966,86.901,88.47,88.396,86.626,88.396z" fill="#647F94"/><path d="M86.626,48.622H44.544c-1.846,0-3.34-1.497-3.34-3.341c0-1.844,1.494-3.34,3.34-3.34h42.082   c1.844,0,3.34,1.496,3.34,3.34C89.966,47.125,88.47,48.622,86.626,48.622z" fill="#647F94"/><path d="M86.626,28.736H44.544c-1.846,0-3.34-1.496-3.34-3.342c0-1.844,1.494-3.34,3.34-3.34h42.082   c1.844,0,3.34,1.496,3.34,3.34C89.966,27.24,88.47,28.736,86.626,28.736z" fill="#647F94"/><path d="M86.626,8.849H44.544c-1.846,0-3.34-1.496-3.34-3.342c0-1.844,1.494-3.34,3.34-3.34h42.082   c1.844,0,3.34,1.496,3.34,3.34C89.966,7.353,88.47,8.849,86.626,8.849z" fill="#647F94"/><path d="M86.626,68.509H64.294c-1.844,0-3.34-1.494-3.34-3.34c0-1.844,1.496-3.34,3.34-3.34h22.332   c1.844,0,3.34,1.496,3.34,3.34C89.966,67.015,88.47,68.509,86.626,68.509z" fill="#647F94"/><path d="M26.438,88.61c-2.307,0-4.176-1.869-4.176-4.174V5.419c0-2.307,1.869-4.176,4.176-4.176   c2.305,0,4.174,1.869,4.174,4.176v79.017C30.612,86.741,28.743,88.61,26.438,88.61z" fill="#45596B"/><path d="M26.438,89.847c-1.066,0-2.137-0.408-2.953-1.223c-1.631-1.631-1.631-4.273,0-5.904l20.982-20.988   c1.631-1.631,4.273-1.629,5.904,0s1.631,4.273,0.002,5.904L29.392,88.622C28.575,89.438,27.507,89.847,26.438,89.847z" fill="#45596B"/><path d="M26.431,89.847c-1.066,0-2.137-0.408-2.951-1.225L2.495,67.636c-1.629-1.631-1.629-4.273,0.002-5.904   c1.631-1.629,4.273-1.631,5.904,0L29.386,82.72c1.629,1.631,1.629,4.273-0.002,5.904C28.567,89.438,27.501,89.847,26.431,89.847z" fill="#45596B"/></g></svg>