<?xml version="1.0" ?><svg id="Layer_1_1_" style="enable-background:new 0 0 64 64;" version="1.1" viewBox="0 0 64 64" xml:space="preserve" xmlns="http://www.w3.org/2000/svg" xmlns:xlink="http://www.w3.org/1999/xlink"><g><g><rect height="32" style="fill:#FFCB57;" width="40" x="22" y="14"/></g><g><path d="M3,9h34v2h2V6c0-2.757-2.243-5-5-5H6C3.243,1,1,3.243,1,6v45h2V9z M6,3h28c1.654,0,3,1.346,3,3v1H3    V6C3,4.346,4.346,3,6,3z" style="fill:#3F3A34;"/><rect height="2" style="fill:#3F3A34;" width="10" x="15" y="57"/><path d="M1,58c0,2.757,2.243,5,5,5h28c2.757,0,5-2.243,5-5v-5H1V58z M3,55h34v3c0,1.654-1.346,3-3,3H6    c-1.654,0-3-1.346-3-3V55z" style="fill:#3F3A34;"/><path d="M63,13H21v34h16v4h2v-4h24V13z M61,45H23V15h38V45z" style="fill:#3F3A34;"/><rect height="2" style="fill:#3F3A34;" width="2" x="39" y="22"/><rect height="2" style="fill:#3F3A34;" width="2" x="43" y="22"/><path d="M29,43h2v-4h2v4h2V33h14v10h2v-4h2v4h2v-4h2v-8h-6h-1h-1v-5h2c1.103,0,2-0.897,2-2v-3    c0-1.103-0.897-2-2-2h-2v-2H35v2h-2c-1.103,0-2,0.897-2,2v3c0,1.103,0.897,2,2,2h2v5h-1h-1h-6v8h2V43z M55,33v4h-4v-4H55z M51,21    v3h-2v-3H51z M33,24v-3h2v3H33z M37,19h10v12H37V19z M29,33h4v4h-4V33z" style="fill:#3F3A34;"/></g><g><rect height="34" style="fill:#E56565;" width="2" x="17" y="13"/></g><g><rect height="34" style="fill:#E56565;" width="2" x="13" y="13"/></g></g></svg>