<?xml version="1.0" ?><svg id="Layer_1_1_" style="enable-background:new 0 0 64 64;" version="1.1" viewBox="0 0 64 64" xml:space="preserve" xmlns="http://www.w3.org/2000/svg" xmlns:xlink="http://www.w3.org/1999/xlink"><g><g><path d="M36,46H20c-2.209,0-4,1.791-4,4v12h24V50C40,47.791,38.209,46,36,46z" style="fill:#FFCB57;"/></g><g><path d="M22,22c-1.654,0-3-1.346-3-3s1.346-3,3-3s3,1.346,3,3S23.654,22,22,22z M22,18    c-0.551,0-1,0.449-1,1s0.449,1,1,1s1-0.449,1-1S22.551,18,22,18z" style="fill:#E56565;"/></g><g><path d="M34,22c-1.654,0-3-1.346-3-3s1.346-3,3-3s3,1.346,3,3S35.654,22,34,22z M34,18    c-0.551,0-1,0.449-1,1s0.449,1,1,1s1-0.449,1-1S34.551,18,34,18z" style="fill:#E56565;"/></g><g><path d="M45.604,41.147L37,38.279V37h-2v2.721l8,2.667V51c0,0.031,0.009,0.059,0.009,0.09l-0.005,0    L43.905,61h-31.81l0.901-9.91l-0.005,0C12.991,51.059,13,51.031,13,51v-8.612l8-2.667V37h-2v1.279l-8.604,2.868    c-3.875,1.292-6.7,4.598-7.372,8.627L0.819,63h54.361l-2.205-13.226C52.305,45.745,49.48,42.439,45.604,41.147z M47,44.029V51h2    v-5.226c1.026,1.214,1.732,2.698,2.003,4.33L51.653,54H48c-1.509,0-2.749-1.124-2.957-2.576L45,50.953v-7.896    C45.716,43.298,46.383,43.631,47,44.029z M7,45.774V51h2v-6.971c0.617-0.398,1.284-0.731,2-0.972v7.896l-0.043,0.471    C10.749,52.876,9.509,54,8,54H4.347l0.649-3.896C5.268,48.472,5.974,46.987,7,45.774z M4.014,56H8c0.959,0,1.848-0.285,2.61-0.755    L10.087,61H3.181L4.014,56z M45.913,61l-0.523-5.755C46.152,55.715,47.041,56,48,56h3.986l0.833,5H45.913z" style="fill:#3F3A34;"/><path d="M41,16.101V16c0-7.168-5.832-13-13-13S15,8.832,15,16v0.101c-2.279,0.465-4,2.484-4,4.899    c0,2.432,1.747,4.459,4.051,4.904c0.238,2.543,1.342,4.903,3.171,6.732l3.9,3.9C23.066,37.48,24.321,38,25.657,38h4.687    c1.335,0,2.591-0.52,3.535-1.464l3.9-3.9c1.829-1.829,2.932-4.189,3.171-6.732C43.253,25.459,45,23.432,45,21    C45,18.586,43.279,16.566,41,16.101z M29,5.051V10c0,0.551-0.449,1-1,1s-1-0.449-1-1V5.051C27.33,5.021,27.662,5,28,5    S28.67,5.021,29,5.051z M13,21c0-1.302,0.839-2.402,2-2.816v5.631C13.839,23.402,13,22.302,13,21z M39,24.858    c0,2.404-0.936,4.664-2.636,6.364l-3.9,3.9C31.906,35.68,31.133,36,30.343,36h-4.687c-0.79,0-1.562-0.32-2.121-0.878l-3.9-3.9    c-1.7-1.7-2.636-3.96-2.636-6.364V16c0-3.408,1.559-6.459,4-8.479V13h2V6.214c0.634-0.325,1.302-0.59,2-0.788V10    c0,1.654,1.346,3,3,3s3-1.346,3-3V5.426c0.698,0.198,1.366,0.463,2,0.788V13h2V7.521c2.441,2.019,4,5.07,4,8.479V24.858z     M41,23.816v-5.631c1.161,0.414,2,1.514,2,2.816S42.161,23.402,41,23.816z" style="fill:#3F3A34;"/><path d="M22,31h12v-6H22V31z M24,27h8v2h-8V27z" style="fill:#3F3A34;"/><path d="M41,59v-9c0-2.757-2.243-5-5-5H20c-2.757,0-5,2.243-5,5v9h2v-9c0-1.654,1.346-3,3-3h16    c1.654,0,3,1.346,3,3v9H41z" style="fill:#3F3A34;"/><path d="M19,54c0,2.206,1.794,4,4,4s4-1.794,4-4s-1.794-4-4-4S19,51.794,19,54z M25,54c0,1.103-0.897,2-2,2    s-2-0.897-2-2s0.897-2,2-2S25,52.897,25,54z" style="fill:#3F3A34;"/><rect height="2" style="fill:#3F3A34;" width="8" x="29" y="50"/><rect height="2" style="fill:#3F3A34;" width="8" x="29" y="56"/><path d="M49,29h2v-2h2v2h2v-8h-6V29z M53,23v2h-2v-2H53z" style="fill:#3F3A34;"/><rect height="8" style="fill:#3F3A34;" width="2" x="57" y="21"/><path d="M60,17h-5v-6.184c1.161-0.414,2-1.514,2-2.816c0-1.654-1.346-3-3-3s-3,1.346-3,3    c0,1.302,0.839,2.402,2,2.816V17h-5c-1.654,0-3,1.346-3,3v1v9c0,1.654,1.346,3,3,3h12c1.654,0,3-1.346,3-3V20    C63,18.346,61.654,17,60,17z M54,7c0.551,0,1,0.449,1,1s-0.449,1-1,1s-1-0.449-1-1S53.449,7,54,7z M61,30c0,0.551-0.449,1-1,1H48    c-0.551,0-1-0.449-1-1V20c0-0.551,0.449-1,1-1h12c0.551,0,1,0.449,1,1V30z" style="fill:#3F3A34;"/></g><g><path d="M57.501,14.056l-1.003-1.73C58.042,11.432,59,9.774,59,8c0-2.757-2.243-5-5-5s-5,2.243-5,5    c0,1.774,0.958,3.432,2.501,4.326l-1.003,1.73C48.341,12.806,47,10.485,47,8c0-3.86,3.14-7,7-7s7,3.14,7,7    C61,10.485,59.659,12.806,57.501,14.056z" style="fill:#E56565;"/></g></g></svg>