<?xml version="1.0" ?><svg id="Layer_1_1_" style="enable-background:new 0 0 64 64;" version="1.1" viewBox="0 0 64 64" xml:space="preserve" xmlns="http://www.w3.org/2000/svg" xmlns:xlink="http://www.w3.org/1999/xlink"><g><g><path d="M24,47c-2.757,0-5-2.243-5-5h2c0,1.654,1.346,3,3,3s3-1.346,3-3h2C29,44.757,26.757,47,24,47z" style="fill:#E56565;"/></g><g><path d="M40,47c-2.757,0-5-2.243-5-5h2c0,1.654,1.346,3,3,3s3-1.346,3-3h2C45,44.757,42.757,47,40,47z" style="fill:#E56565;"/></g><g><path d="M39,21c0-3.906-3.198-7.064-7.119-6.999c-3.654,0.061-6.745,3.089-6.877,6.741    c-0.064,1.785,0.541,3.424,1.584,4.691C28.064,27.226,29,29.399,29,31.721V34h6v-1.943c0-2.477,0.979-4.799,2.51-6.747    C38.443,24.124,39,22.628,39,21z" style="fill:#FFCB57;"/></g><g><rect height="2" style="fill:#3F3A34;" width="2" x="31" y="21"/><path d="M48,38h-1v10.687c0,1.869-0.728,3.627-2.05,4.949l-6.485,6.485C37.898,60.688,37.145,61,36.343,61    h-8.686c-0.802,0-1.556-0.312-2.122-0.879l-6.485-6.485c-1.322-1.322-2.05-3.08-2.05-4.949V38h-1c-2.757,0-5,2.243-5,5    c0,2.415,1.721,4.435,4,4.899v0.787c0,2.404,0.936,4.664,2.636,6.363l6.485,6.485c0.944,0.944,2.2,1.465,3.536,1.465h8.686    c1.336,0,2.592-0.521,3.536-1.465l6.485-6.485c1.7-1.699,2.636-3.959,2.636-6.363v-0.787c2.279-0.465,4-2.484,4-4.899    C53,40.243,50.757,38,48,38z M15,45.829c-1.164-0.413-2-1.525-2-2.829s0.836-2.416,2-2.829V45.829z M49,45.829v-5.658    c1.164,0.413,2,1.525,2,2.829S50.164,45.416,49,45.829z" style="fill:#3F3A34;"/><path d="M24.5,24h0.093c0.301,0.741,0.707,1.441,1.224,2.069C27.245,27.804,28,29.758,28,31.721V35h8    v-2.942c0-2.1,0.794-4.219,2.296-6.129c0.467-0.594,0.82-1.247,1.098-1.929H39.5c5.238,0,9.5-4.262,9.5-9.5S44.738,5,39.5,5H36V1    h-2v3.556C33.409,4.212,32.732,4,32,4s-1.409,0.212-2,0.556V1h-2v4h-3.5C19.262,5,15,9.262,15,14.5S19.262,24,24.5,24z M34,33h-4    v-1h4.003c0,0.019-0.003,0.038-0.003,0.058V33z M36.724,24.692c-1.302,1.655-2.149,3.46-2.515,5.308H33v-5h-2v5h-1.157    c-0.326-1.83-1.165-3.603-2.482-5.203c-0.928-1.127-1.41-2.554-1.357-4.02c0.112-3.133,2.756-5.725,5.894-5.777    c1.634-0.023,3.154,0.584,4.31,1.721C37.363,17.859,38,19.378,38,21C38,22.354,37.559,23.631,36.724,24.692z M37.609,15.296    C36.101,13.812,34.114,13,32.001,13c-0.045,0-0.091,0-0.137,0.001c-3.232,0.054-6.063,2.132-7.256,4.999H24.5    c-1.93,0-3.5-1.57-3.5-3.5s1.57-3.5,3.5-3.5h4.882c0.703,0.615,1.612,1,2.618,1s1.914-0.385,2.618-1H39.5c1.93,0,3.5,1.57,3.5,3.5    S41.43,18,39.5,18h-0.083C39.012,16.998,38.405,16.079,37.609,15.296z M47,14.5c0,3.994-3.14,7.259-7.08,7.479    C39.959,21.655,40,21.332,40,21c0-0.345-0.029-0.685-0.072-1.022C42.76,19.759,45,17.388,45,14.5c0-3.033-2.468-5.5-5.5-5.5    h-3.642C35.942,8.678,36,8.347,36,8s-0.058-0.678-0.142-1H39.5C43.636,7,47,10.364,47,14.5z M32,6c1.103,0,2,0.897,2,2    s-0.897,2-2,2s-2-0.897-2-2S30.897,6,32,6z M24.5,7h3.642C28.058,7.322,28,7.653,28,8s0.058,0.678,0.142,1H24.5    c-3.032,0-5.5,2.467-5.5,5.5c0,2.887,2.238,5.257,5.069,5.478c-0.031,0.24-0.054,0.482-0.063,0.728    c-0.016,0.428,0.009,0.852,0.061,1.272C20.133,21.752,17,18.49,17,14.5C17,10.364,20.364,7,24.5,7z" style="fill:#3F3A34;"/><path d="M32,39c2.839,0,17-0.192,17-4c0-1.955-3.676-3.226-10.924-3.777l-0.152,1.995    c5.794,0.439,8.217,1.332,8.915,1.787C45.705,35.773,40.696,37,32,37s-13.705-1.227-14.839-1.995    c0.698-0.455,3.121-1.348,8.915-1.787l-0.152-1.995C18.676,31.774,15,33.045,15,35C15,38.808,29.161,39,32,39z" style="fill:#3F3A34;"/></g></g></svg>