<?xml version="1.0" ?><svg id="Layer_1_1_" style="enable-background:new 0 0 64 64;" version="1.1" viewBox="0 0 64 64" xml:space="preserve" xmlns="http://www.w3.org/2000/svg" xmlns:xlink="http://www.w3.org/1999/xlink"><g><g><rect height="22" style="fill:#FFCB57;" width="24" x="20" y="28"/></g><g><rect height="6" style="fill:#E56565;" width="2" x="25" y="19"/></g><g><rect height="2" style="fill:#E56565;" width="2" x="25" y="15"/></g><g><rect height="6" style="fill:#E56565;" width="2" x="29" y="19"/></g><g><rect height="2" style="fill:#E56565;" width="2" x="29" y="15"/></g><g><rect height="6" style="fill:#E56565;" width="2" x="37" y="19"/></g><g><rect height="2" style="fill:#E56565;" width="2" x="37" y="15"/></g><g><rect height="6" style="fill:#E56565;" width="2" x="33" y="19"/></g><g><rect height="2" style="fill:#E56565;" width="2" x="33" y="15"/></g><g><rect height="2" style="fill:#E56565;" width="6" x="11" y="44"/></g><g><rect height="2" style="fill:#E56565;" width="2" x="7" y="44"/></g><g><rect height="2" style="fill:#E56565;" width="6" x="11" y="40"/></g><g><rect height="2" style="fill:#E56565;" width="2" x="7" y="40"/></g><g><rect height="2" style="fill:#E56565;" width="6" x="11" y="32"/></g><g><rect height="2" style="fill:#E56565;" width="2" x="7" y="32"/></g><g><rect height="2" style="fill:#E56565;" width="6" x="11" y="36"/></g><g><rect height="2" style="fill:#E56565;" width="2" x="7" y="36"/></g><g><rect height="6" style="fill:#E56565;" width="2" x="37" y="53"/></g><g><rect height="2" style="fill:#E56565;" width="2" x="37" y="61"/></g><g><rect height="6" style="fill:#E56565;" width="2" x="33" y="53"/></g><g><rect height="2" style="fill:#E56565;" width="2" x="33" y="61"/></g><g><rect height="6" style="fill:#E56565;" width="2" x="25" y="53"/></g><g><rect height="2" style="fill:#E56565;" width="2" x="25" y="61"/></g><g><rect height="6" style="fill:#E56565;" width="2" x="29" y="53"/></g><g><rect height="2" style="fill:#E56565;" width="2" x="29" y="61"/></g><g><rect height="2" style="fill:#E56565;" width="6" x="47" y="32"/></g><g><rect height="2" style="fill:#E56565;" width="2" x="55" y="32"/></g><g><rect height="2" style="fill:#E56565;" width="6" x="47" y="36"/></g><g><rect height="2" style="fill:#E56565;" width="2" x="55" y="36"/></g><g><rect height="2" style="fill:#E56565;" width="6" x="47" y="44"/></g><g><rect height="2" style="fill:#E56565;" width="2" x="55" y="44"/></g><g><rect height="2" style="fill:#E56565;" width="6" x="47" y="40"/></g><g><rect height="2" style="fill:#E56565;" width="2" x="55" y="40"/></g><g><path d="M19,51h26V27H19V51z M21,29h22v20H21V29z" style="fill:#3F3A34;"/><path d="M23,47h18V31H23V47z M25,33h14v12H25V33z" style="fill:#3F3A34;"/><rect height="8" style="fill:#3F3A34;" width="2" x="35" y="35"/><path d="M27,43h2v-2h2v2h2v-8h-6V43z M31,37v2h-2v-2H31z" style="fill:#3F3A34;"/><path d="M55.5,15c-0.525,0-1.041,0.055-1.543,0.158C53.531,10.589,49.678,7,45,7    c-1.02,0-2.019,0.18-2.963,0.51C40.285,3.572,36.4,1,32,1c-4.4,0-8.284,2.571-10.037,6.509C21.018,7.179,20.019,7,19,7    c-4.678,0-8.531,3.589-8.957,8.158C9.541,15.055,9.025,15,8.5,15C4.364,15,1,18.364,1,22.5C1,26.706,4.514,30,9,30h8v-2H9    c-3.364,0-6-2.416-6-5.5C3,19.467,5.467,17,8.5,17c1.512,0,2.922,0.601,3.969,1.692l1.443-1.385    c-0.565-0.588-1.208-1.067-1.906-1.437C12.077,12.071,15.184,9,19,9c1.707,0,3.35,0.621,4.628,1.748l1.323-1.5    c-0.371-0.328-0.77-0.617-1.185-0.876C25.19,5.124,28.382,3,32,3c3.62,0,6.813,2.127,8.235,5.377    c-0.731,0.457-1.405,1.011-1.986,1.671l1.5,1.323C41.079,9.864,42.993,9,45,9c3.816,0,6.923,3.071,6.993,6.87    c-0.697,0.37-1.341,0.849-1.906,1.437l1.443,1.385C52.578,17.601,53.988,17,55.5,17c3.033,0,5.5,2.467,5.5,5.5    c0,3.084-2.636,5.5-6,5.5h-8v2h8c4.486,0,8-3.294,8-7.5C63,18.364,59.636,15,55.5,15z" style="fill:#3F3A34;"/></g></g></svg>