<?xml version="1.0" ?><svg id="Layer_1_1_" style="enable-background:new 0 0 64 64;" version="1.1" viewBox="0 0 64 64" xml:space="preserve" xmlns="http://www.w3.org/2000/svg" xmlns:xlink="http://www.w3.org/1999/xlink"><g><g><rect height="22" style="fill:#FFCB57;" width="24" x="20" y="2"/></g><g><path d="M19,45h-4v2h4v2h-4v2h4v2h-4v2h4v2h-4v2h3.816c-0.414,1.161-1.514,2-2.816,2h-3V45h-2v16H8    c-1.302,0-2.402-0.839-2.816-2H9v-2H5v-2h4v-2H5v-2h4v-2H5v-2h4v-2H5H4H3v13c0,2.757,2.243,5,5,5h8c2.757,0,5-2.243,5-5V45h-1H19z    " style="fill:#E56565;"/><path d="M60,45h-1h-4v2h4v2h-4v2h4v2h-4v2h4v2h-4v2h3.816c-0.414,1.161-1.514,2-2.816,2h-3V45h-2v16h-3    c-1.302,0-2.402-0.839-2.816-2H49v-2h-4v-2h4v-2h-4v-2h4v-2h-4v-2h4v-2h-4h-1h-1v13c0,2.757,2.243,5,5,5h8c2.757,0,5-2.243,5-5V45    H60z" style="fill:#E56565;"/></g><g><path d="M60,37H47v-3c0-2.757-2.243-5-5-5h-3v-2h-2v2H27v-2h-2v2h-3c-2.757,0-5,2.243-5,5v3H4    c-1.654,0-3,1.346-3,3v3h22v-2h18v2h22v-3C63,38.346,61.654,37,60,37z M19,34c0-1.654,1.346-3,3-3h20c1.654,0,3,1.346,3,3v3h-1    c-1.302,0-2.402,0.839-2.816,2H22.816c-0.414-1.161-1.514-2-2.816-2h-1V34z M21,41H3v-1c0-0.552,0.448-1,1-1h16    c0.552,0,1,0.448,1,1V41z M61,41H43v-1c0-0.552,0.448-1,1-1h16c0.552,0,1,0.448,1,1V41z" style="fill:#3F3A34;"/><path d="M41,5H23v16h18V5z M39,19H25V7h14V19z" style="fill:#3F3A34;"/><rect height="8" style="fill:#3F3A34;" width="2" x="35" y="9"/><path d="M29,15h2v2h2V9h-6v8h2V15z M31,11v2h-2v-2H31z" style="fill:#3F3A34;"/><path d="M59.956,28.435C59.972,28.291,60,28.149,60,28c0-1.006-0.385-1.915-1-2.618V16c0-4.963-4.037-9-9-9    h-1V5h-4V1H19v4h-4v2h-1c-4.963,0-9,4.037-9,9v9.382C4.385,26.085,4,26.994,4,28c0,0.149,0.028,0.291,0.044,0.435L1,30.465V35h2    v-3.465l1.778-1.186C5.507,31.345,6.674,32,8,32s2.493-0.655,3.222-1.65L13,31.535V35h2v-4.535l-3.044-2.029    C11.972,28.291,12,28.149,12,28c0-1.006-0.385-1.915-1-2.618V16c0-1.654,1.346-3,3-3h1v2h4v10h26V15h4v-2h1c1.654,0,3,1.346,3,3    v9.382c-0.615,0.703-1,1.612-1,2.618c0,0.149,0.028,0.291,0.044,0.435L49,30.465V35h2v-3.465l1.778-1.186    C53.507,31.345,54.674,32,56,32s2.493-0.655,3.222-1.65L61,31.535V35h2v-4.535L59.956,28.435z M8,30c-1.103,0-2-0.897-2-2    s0.897-2,2-2s2,0.897,2,2S9.103,30,8,30z M14,11c-2.757,0-5,2.243-5,5v8.142C8.678,24.058,8.347,24,8,24s-0.678,0.058-1,0.142V16    c0-3.859,3.141-7,7-7h1v2H14z M17,13V7h2v6H17z M43,23H21V3h22V23z M47,13h-2V7h2V13z M50,11h-1V9h1c3.859,0,7,3.141,7,7v8.142    C56.678,24.058,56.347,24,56,24s-0.678,0.058-1,0.142V16C55,13.243,52.757,11,50,11z M56,30c-1.103,0-2-0.897-2-2s0.897-2,2-2    s2,0.897,2,2S57.103,30,56,30z" style="fill:#3F3A34;"/></g></g></svg>