<?xml version="1.0" ?><svg id="Layer_1_1_" style="enable-background:new 0 0 64 64;" version="1.1" viewBox="0 0 64 64" xml:space="preserve" xmlns="http://www.w3.org/2000/svg" xmlns:xlink="http://www.w3.org/1999/xlink"><g><g><path d="M46,31c0-1.481-0.805-2.774-2.001-3.466l-0.31,0.013C43.889,27.071,44,26.549,44,26    c0-2.209-1.791-4-4-4h-0.141c-0.446-1.722-1.997-3-3.859-3c-2.209,0-4,1.791-4,4c0-2.209-1.791-4-4-4    c-1.862,0-3.413,1.278-3.859,3H24c-2.209,0-4,1.791-4,4c0,0.541,0.11,1.056,0.305,1.527l-0.304,0.008    C18.805,28.226,18,29.519,18,31c0,1.617,0.964,3.002,2.344,3.632C20.132,35.044,20,35.504,20,36c0,1.306,0.835,2.417,2,2.829    l0.152,0.002C22.061,39.208,22,39.596,22,40c0,2.761,2.239,5,5,5s5-2.239,5-5c0,2.761,2.239,5,5,5s5-2.239,5-5    c0-0.404-0.061-0.792-0.152-1.169L42,38.829c1.165-0.412,2-1.523,2-2.829c0-0.496-0.132-0.956-0.344-1.368    C45.036,34.002,46,32.617,46,31z M36,27c0.005,0,0.01-0.002,0.015-0.002l0,0.128L36,27z" style="fill:#FFCB57;"/></g><g><path d="M20,1c-1.654,0-3,1.346-3,3c0,1.302,0.839,2.402,2,2.816V12h2V6.816C22.161,6.402,23,5.302,23,4    C23,2.346,21.654,1,20,1z M20,5c-0.552,0-1-0.448-1-1s0.448-1,1-1s1,0.448,1,1S20.552,5,20,5z" style="fill:#E56565;"/><path d="M28,1c-1.654,0-3,1.346-3,3c0,1.302,0.839,2.402,2,2.816V12h2V6.816C30.161,6.402,31,5.302,31,4    C31,2.346,29.654,1,28,1z M28,5c-0.552,0-1-0.448-1-1s0.448-1,1-1s1,0.448,1,1S28.552,5,28,5z" style="fill:#E56565;"/><path d="M36,1c-1.654,0-3,1.346-3,3c0,1.302,0.839,2.402,2,2.816V12h2V6.816C38.161,6.402,39,5.302,39,4    C39,2.346,37.654,1,36,1z M36,5c-0.552,0-1-0.448-1-1s0.448-1,1-1s1,0.448,1,1S36.552,5,36,5z" style="fill:#E56565;"/><path d="M44,1c-1.654,0-3,1.346-3,3c0,1.302,0.839,2.402,2,2.816V12h2V6.816C46.161,6.402,47,5.302,47,4    C47,2.346,45.654,1,44,1z M44,5c-0.552,0-1-0.448-1-1s0.448-1,1-1s1,0.448,1,1S44.552,5,44,5z" style="fill:#E56565;"/><path d="M4,41c-1.654,0-3,1.346-3,3s1.346,3,3,3c1.302,0,2.402-0.839,2.816-2H11v-2H6.816    C6.402,41.839,5.302,41,4,41z M4,45c-0.552,0-1-0.448-1-1s0.448-1,1-1s1,0.448,1,1S4.552,45,4,45z" style="fill:#E56565;"/><path d="M4,33c-1.654,0-3,1.346-3,3s1.346,3,3,3c1.302,0,2.402-0.839,2.816-2H11v-2H6.816    C6.402,33.839,5.302,33,4,33z M4,37c-0.552,0-1-0.448-1-1s0.448-1,1-1s1,0.448,1,1S4.552,37,4,37z" style="fill:#E56565;"/><path d="M4,25c-1.654,0-3,1.346-3,3s1.346,3,3,3c1.302,0,2.402-0.839,2.816-2H11v-2H6.816    C6.402,25.839,5.302,25,4,25z M4,29c-0.552,0-1-0.448-1-1s0.448-1,1-1s1,0.448,1,1S4.552,29,4,29z" style="fill:#E56565;"/><path d="M4,17c-1.654,0-3,1.346-3,3s1.346,3,3,3c1.302,0,2.402-0.839,2.816-2H11v-2H6.816    C6.402,17.839,5.302,17,4,17z M4,21c-0.552,0-1-0.448-1-1s0.448-1,1-1s1,0.448,1,1S4.552,21,4,21z" style="fill:#E56565;"/><path d="M45,57.184V52h-2v5.184c-1.161,0.414-2,1.514-2,2.816c0,1.654,1.346,3,3,3s3-1.346,3-3    C47,58.698,46.161,57.598,45,57.184z M44,61c-0.552,0-1-0.448-1-1s0.448-1,1-1s1,0.448,1,1S44.552,61,44,61z" style="fill:#E56565;"/><path d="M37,57.184V52h-2v5.184c-1.161,0.414-2,1.514-2,2.816c0,1.654,1.346,3,3,3s3-1.346,3-3    C39,58.698,38.161,57.598,37,57.184z M36,61c-0.552,0-1-0.448-1-1s0.448-1,1-1s1,0.448,1,1S36.552,61,36,61z" style="fill:#E56565;"/><path d="M29,57.184V52h-2v5.184c-1.161,0.414-2,1.514-2,2.816c0,1.654,1.346,3,3,3s3-1.346,3-3    C31,58.698,30.161,57.598,29,57.184z M28,61c-0.552,0-1-0.448-1-1s0.448-1,1-1s1,0.448,1,1S28.552,61,28,61z" style="fill:#E56565;"/><path d="M21,57.184V52h-2v5.184c-1.161,0.414-2,1.514-2,2.816c0,1.654,1.346,3,3,3s3-1.346,3-3    C23,58.698,22.161,57.598,21,57.184z M20,61c-0.552,0-1-0.448-1-1s0.448-1,1-1s1,0.448,1,1S20.552,61,20,61z" style="fill:#E56565;"/><path d="M60,23c1.654,0,3-1.346,3-3s-1.346-3-3-3c-1.302,0-2.402,0.839-2.816,2H53v2h4.184    C57.598,22.161,58.698,23,60,23z M60,19c0.552,0,1,0.448,1,1s-0.448,1-1,1s-1-0.448-1-1S59.448,19,60,19z" style="fill:#E56565;"/><path d="M60,25c-1.302,0-2.402,0.839-2.816,2H53v2h4.184c0.414,1.161,1.514,2,2.816,2c1.654,0,3-1.346,3-3    S61.654,25,60,25z M60,29c-0.552,0-1-0.448-1-1s0.448-1,1-1s1,0.448,1,1S60.552,29,60,29z" style="fill:#E56565;"/><path d="M60,33c-1.302,0-2.402,0.839-2.816,2H53v2h4.184c0.414,1.161,1.514,2,2.816,2c1.654,0,3-1.346,3-3    S61.654,33,60,33z M60,37c-0.552,0-1-0.448-1-1s0.448-1,1-1s1,0.448,1,1S60.552,37,60,37z" style="fill:#E56565;"/><path d="M60,41c-1.302,0-2.402,0.839-2.816,2H53v2h4.184c0.414,1.161,1.514,2,2.816,2c1.654,0,3-1.346,3-3    S61.654,41,60,41z M60,45c-0.552,0-1-0.448-1-1s0.448-1,1-1s1,0.448,1,1S60.552,45,60,45z" style="fill:#E56565;"/></g><g><path d="M19,26c0,0.322,0.037,0.635,0.095,0.94C17.795,27.873,17,29.384,17,31    c0,1.631,0.807,3.146,2.114,4.072C19.038,35.377,19,35.688,19,36c0,1.452,0.793,2.771,2.027,3.473C21.011,39.647,21,39.822,21,40    c0,3.309,2.691,6,6,6c2.086,0,3.924-1.071,5-2.69c1.076,1.62,2.914,2.69,5,2.69c3.309,0,6-2.691,6-6    c0-0.178-0.011-0.353-0.027-0.527C44.207,38.771,45,37.452,45,36c0-0.312-0.038-0.623-0.114-0.928C46.193,34.146,47,32.631,47,31    c0-1.616-0.795-3.127-2.095-4.06C44.963,26.635,45,26.322,45,26c0-2.549-1.924-4.634-4.392-4.938C39.849,19.265,38.07,18,36,18    c-1.641,0-3.088,0.806-4,2.031C31.088,18.806,29.641,18,28,18c-2.07,0-3.849,1.265-4.608,3.062C20.924,21.366,19,23.451,19,26z     M36,20c1.654,0,3,1.346,3,3s-1.346,3-3,3v2c2.696,0,4.885-2.149,4.982-4.821C42.153,23.588,43,24.691,43,26c0,1.654-1.346,3-3,3    v2c1.693,0,3.187-0.851,4.092-2.143C44.662,29.416,45,30.185,45,31c0,1.166-0.69,2.234-1.76,2.722l-0.955,0.437l0.481,0.933    C42.922,35.391,43,35.696,43,36c0,0.541-0.236,1.03-0.602,1.398C41.427,35.391,39.375,34,37,34v2c2.206,0,4,1.794,4,4    s-1.794,4-4,4s-4-1.794-4-4V23C33,21.346,34.346,20,36,20z M23.018,23.179C23.115,25.851,25.304,28,28,28v-2c-1.654,0-3-1.346-3-3    s1.346-3,3-3s3,1.346,3,3v17c0,2.206-1.794,4-4,4s-4-1.794-4-4s1.794-4,4-4v-2c-2.375,0-4.427,1.391-5.398,3.398    C21.236,37.03,21,36.541,21,36c0-0.304,0.078-0.609,0.233-0.909l0.481-0.933l-0.955-0.437C19.69,33.234,19,32.166,19,31    c0-0.815,0.338-1.584,0.908-2.143C20.813,30.149,22.307,31,24,31v-2c-1.654,0-3-1.346-3-3C21,24.691,21.847,23.588,23.018,23.179z    " style="fill:#3F3A34;"/><path d="M18.586,14L13,19.586V50h38V14H18.586z M49,48H15V20.414L19.414,16H49V48z" style="fill:#3F3A34;"/></g></g></svg>