<?xml version="1.0" ?><svg id="Layer_1_1_" style="enable-background:new 0 0 64 64;" version="1.1" viewBox="0 0 64 64" xml:space="preserve" xmlns="http://www.w3.org/2000/svg" xmlns:xlink="http://www.w3.org/1999/xlink"><g><g><path d="M42,12c0-5.899-5.107-10.604-11.141-9.937c-4.471,0.495-8.148,4.061-8.761,8.517    c-0.411,2.983,0.497,5.755,2.222,7.82C26.766,21.327,28,25.079,28,28.893V30h8v-1.104c0-3.939,1.491-7.665,3.907-10.777    C41.219,16.428,42,14.306,42,12z" style="fill:#FFCB57;"/></g><g><path d="M32,14c1.654,0,3-1.346,3-3s-1.346-3-3-3s-3,1.346-3,3S30.346,14,32,14z M32,10    c0.551,0,1,0.449,1,1s-0.449,1-1,1s-1-0.449-1-1S31.449,10,32,10z" style="fill:#3F3A34;"/><path d="M32,35c-1.103,0-2-0.897-2-2h-2c0,2.206,1.794,4,4,4s4-1.794,4-4h-2C34,34.103,33.103,35,32,35z" style="fill:#3F3A34;"/><path d="M56.704,34.003C56.895,33.368,57,32.696,57,32c0-2.338-1.19-4.516-3.12-5.808    C53.958,25.806,54,25.408,54,25c0-2.678-1.764-4.951-4.191-5.72c-0.729-3.31-3.517-5.814-6.864-6.216    C42.978,12.712,43,12.358,43,12c0-3.124-1.336-6.112-3.665-8.197c-2.326-2.083-5.455-3.077-8.586-2.733    c-4.914,0.544-8.969,4.486-9.642,9.375c-0.122,0.885-0.129,1.76-0.048,2.618c-3.349,0.401-6.139,2.906-6.868,6.217    C11.764,20.049,10,22.322,10,25c0,0.408,0.042,0.806,0.12,1.192C8.19,27.484,7,29.662,7,32c0,0.696,0.105,1.368,0.296,2.003    C5.828,35.644,5,37.776,5,40c0,3.486,1.976,6.602,5.084,8.1c0.393,2.831,2.295,5.237,4.937,6.304C15.234,59.179,19.174,63,24,63    c3.483,0,6.505-1.993,8-4.896C33.495,61.007,36.517,63,40,63c4.826,0,8.766-3.821,8.979-8.596    c2.641-1.067,4.543-3.473,4.936-6.304C57.024,46.602,59,43.486,59,40C59,37.776,58.172,35.644,56.704,34.003z M23.089,10.717    c0.55-3.994,3.864-7.215,7.88-7.659c2.605-0.289,5.101,0.506,7.032,2.235C39.907,6.999,41,9.444,41,12    c0,2.014-0.651,3.918-1.883,5.505c-1.808,2.329-3.029,4.872-3.646,7.495H33v-9h-2v9h-2.432c-0.586-2.692-1.763-5.185-3.48-7.241    C23.444,15.792,22.734,13.292,23.089,10.717z M28.892,27h6.229C35.049,27.63,35,28.262,35,28.896V29h-6v-0.107    C29,28.255,28.956,27.625,28.892,27z M52.605,46.493l-0.587,0.236l-0.038,0.632c-0.125,2.096-1.352,3.941-3.151,4.912    C48.022,48.135,44.372,45,40,45v2c3.86,0,7,3.14,7,7s-3.14,7-7,7s-7-3.14-7-7V43h-2v11c0,3.86-3.14,7-7,7s-7-3.14-7-7s3.14-7,7-7    v-2c-4.372,0-8.022,3.135-8.83,7.273c-1.799-0.971-3.026-2.816-3.151-4.912l-0.038-0.632l-0.587-0.236C8.725,45.42,7,42.872,7,40    c0-1.443,0.453-2.835,1.264-3.999C9.531,37.811,11.628,39,14,39c1.726,0,3.383-0.633,4.668-1.783l-1.334-1.49    C16.417,36.548,15.232,37,14,37c-2.757,0-5-2.243-5-5c0-1.523,0.706-2.954,1.875-3.896C11.928,29.837,13.828,31,16,31v-2    c-2.206,0-4-1.794-4-4s1.794-4,4-4s4,1.794,4,4h2c0-3.193-2.509-5.804-5.658-5.983c0.766-2.174,2.757-3.737,5.085-3.964    c0.416,1.443,1.13,2.796,2.126,3.989C25.776,21.702,27,25.201,27,28.893V31h10v-2.104c0-3.534,1.278-7.049,3.697-10.164    c0.865-1.114,1.487-2.359,1.868-3.68c2.332,0.225,4.327,1.788,5.094,3.965C44.509,19.196,42,21.807,42,25h2c0-2.206,1.794-4,4-4    s4,1.794,4,4s-1.794,4-4,4v2c2.172,0,4.072-1.163,5.125-2.896C54.294,29.046,55,30.477,55,32c0,2.757-2.243,5-5,5    c-1.232,0-2.417-0.452-3.334-1.273l-1.334,1.49C46.617,38.367,48.274,39,50,39c2.372,0,4.469-1.189,5.736-2.999    C56.547,37.165,57,38.557,57,40C57,42.872,55.275,45.42,52.605,46.493z" style="fill:#3F3A34;"/></g><g><rect height="2" style="fill:#E56565;" width="2" x="31" y="39"/></g><g><rect height="2" style="fill:#E56565;" width="2" x="49" y="42"/></g><g><rect height="2" style="fill:#E56565;" width="2" x="19" y="31"/></g><g><rect height="2" style="fill:#E56565;" width="2" x="23" y="53"/></g><g><rect height="2" style="fill:#E56565;" width="2" x="37" y="37"/></g><g><rect height="2" style="fill:#E56565;" width="2" x="46" y="25"/></g><g><rect height="2" style="fill:#E56565;" width="2" x="13" y="43"/></g><g><rect height="2" style="fill:#E56565;" width="2" x="40" y="50"/></g></g></svg>