<?xml version="1.0" ?><svg id="Layer_1_1_" style="enable-background:new 0 0 64 64;" version="1.1" viewBox="0 0 64 64" xml:space="preserve" xmlns="http://www.w3.org/2000/svg" xmlns:xlink="http://www.w3.org/1999/xlink"><g><g><rect height="14" style="fill:#E56565;" width="2" x="35" y="31"/></g><g><rect height="14" style="fill:#E56565;" width="2" x="27" y="31"/></g><g><path d="M47,39h-4c-1.654,0-3-1.346-3-3v-6h2v6c0,0.552,0.448,1,1,1h4V39z" style="fill:#E56565;"/></g><g><path d="M21,39h-4v-2h4c0.552,0,1-0.448,1-1v-6h2v6C24,37.654,22.654,39,21,39z" style="fill:#E56565;"/></g><g><rect height="2" style="fill:#E56565;" width="2" x="35" y="47"/></g><g><rect height="2" style="fill:#E56565;" width="2" x="27" y="47"/></g><g><rect height="2" style="fill:#E56565;" width="2" x="49" y="37"/></g><g><rect height="2" style="fill:#E56565;" width="2" x="13" y="37"/></g><g><path d="M46,14c0-1.481-0.805-2.774-2.001-3.466l-0.304-0.008C43.89,10.056,44,9.541,44,9    c0-2.209-1.791-4-4-4h-0.141C39.413,3.278,37.862,2,36,2s-3.413,1.278-3.859,3h-0.283C31.413,3.278,29.862,2,28,2    s-3.413,1.278-3.859,3H24c-2.209,0-4,1.791-4,4c0,0.538,0.11,1.05,0.302,1.518l-0.301,0.016C18.805,11.226,18,12.519,18,14    c0,1.617,0.964,3.002,2.344,3.632C20.132,18.044,20,18.504,20,19c0,1.306,0.835,2.417,2,2.829l0.282-0.417    C22.113,21.914,22,22.442,22,23c0,2.761,2.239,5,5,5s5-2.239,5-5c0,2.761,2.239,5,5,5s5-2.239,5-5    c0-0.405-0.061-0.793-0.152-1.169L42,21.829c1.165-0.412,2-1.523,2-2.829c0-0.496-0.132-0.956-0.344-1.368    C45.036,17.002,46,15.617,46,14z" style="fill:#FFCB57;"/></g><g><path d="M43,53v2h18v3c0,1.654-1.346,3-3,3H6c-1.654,0-3-1.346-3-3v-3h18v-2H1v5c0,2.757,2.243,5,5,5h52    c2.757,0,5-2.243,5-5v-5H43z" style="fill:#3F3A34;"/><path d="M23,56c0,1.654,1.346,3,3,3h12c1.654,0,3-1.346,3-3v-3H23V56z M25,55h14v1c0,0.552-0.448,1-1,1H26    c-0.552,0-1-0.448-1-1V55z" style="fill:#3F3A34;"/><path d="M5,19c0-1.654,1.346-3,3-3h7v-2H8c-2.757,0-5,2.243-5,5v32h2V19z" style="fill:#3F3A34;"/><path d="M59,19v32h2V19c0-2.757-2.243-5-5-5h-7v2h7C57.654,16,59,17.346,59,19z" style="fill:#3F3A34;"/><path d="M7,20v31h2V20h8v-2H9C7.897,18,7,18.897,7,20z" style="fill:#3F3A34;"/><path d="M57,51V20c0-1.103-0.897-2-2-2h-8v2h8v31H57z" style="fill:#3F3A34;"/><path d="M19.114,18.073C19.038,18.377,19,18.687,19,19c0,1.453,0.793,2.772,2.027,3.474    C21.011,22.648,21,22.822,21,23c0,3.309,2.691,6,6,6c2.086,0,3.924-1.071,5-2.69c1.076,1.62,2.914,2.69,5,2.69    c3.309,0,6-2.691,6-6c0-0.178-0.011-0.352-0.027-0.526C44.207,21.772,45,20.453,45,19c0-0.313-0.038-0.623-0.114-0.927    C46.193,17.146,47,15.63,47,14c0-1.616-0.795-3.126-2.095-4.059C44.963,9.636,45,9.322,45,9c0-2.549-1.924-4.634-4.392-4.938    C39.849,2.265,38.07,1,36,1c-1.641,0-3.088,0.806-4,2.031C31.088,1.806,29.641,1,28,1c-2.07,0-3.849,1.265-4.608,3.062    C20.924,4.366,19,6.451,19,9c0,0.322,0.037,0.636,0.095,0.941C17.795,10.874,17,12.384,17,14    C17,15.63,17.807,17.146,19.114,18.073z M36,3c1.654,0,3,1.346,3,3s-1.346,3-3,3v2c2.696,0,4.885-2.149,4.982-4.821    C42.153,6.588,43,7.691,43,9c0,1.654-1.346,3-3,3v2c1.693,0,3.187-0.851,4.092-2.143C44.662,12.416,45,13.185,45,14    c0,1.166-0.691,2.234-1.761,2.723l-0.954,0.437l0.481,0.933C42.922,18.391,43,18.696,43,19c0,0.541-0.236,1.031-0.602,1.398    C41.427,18.391,39.375,17,37,17v2c2.206,0,4,1.794,4,4s-1.794,4-4,4s-4-1.794-4-4V6C33,4.346,34.346,3,36,3z M19.908,11.857    C20.813,13.149,22.307,14,24,14v-2c-1.654,0-3-1.346-3-3c0-1.309,0.847-2.412,2.018-2.821C23.115,8.851,25.304,11,28,11V9    c-1.654,0-3-1.346-3-3s1.346-3,3-3s3,1.346,3,3v17c0,2.206-1.794,4-4,4s-4-1.794-4-4s1.794-4,4-4v-2    c-2.375,0-4.427,1.391-5.398,3.398C21.236,20.031,21,19.541,21,19c0-0.304,0.078-0.609,0.233-0.908l0.481-0.933l-0.954-0.437    C19.691,16.234,19,15.166,19,14C19,13.185,19.338,12.416,19.908,11.857z" style="fill:#3F3A34;"/><rect height="2" style="fill:#3F3A34;" width="2" x="5" y="57"/><rect height="2" style="fill:#3F3A34;" width="2" x="9" y="57"/><rect height="2" style="fill:#3F3A34;" width="2" x="13" y="57"/></g></g></svg>