<?xml version="1.0" ?><svg id="Layer_1_1_" style="enable-background:new 0 0 64 64;" version="1.1" viewBox="0 0 64 64" xml:space="preserve" xmlns="http://www.w3.org/2000/svg" xmlns:xlink="http://www.w3.org/1999/xlink"><g><g><polygon points="21.298,25.433 17,24 17,18 21.298,16.567 19.272,12.515 23.515,8.272 27.567,10.298 29,6     35,6 36.433,10.298 40.485,8.272 44.728,12.515 42.702,16.567 47,18 47,24 42.702,25.433 44.728,29.485 40.485,33.728     36.433,31.702 35,36 29,36 27.567,31.702 23.515,33.728 19.272,29.485   " style="fill:#FFCB57;"/></g><g><rect height="7" style="fill:#E56565;" width="2" x="33" y="43"/></g><g><rect height="2" style="fill:#E56565;" width="2" x="33" y="39"/></g><g><rect height="7" style="fill:#E56565;" width="2" x="29" y="43"/></g><g><rect height="2" style="fill:#E56565;" width="2" x="29" y="39"/></g><g><path d="M40,21c0-4.411-3.589-8-8-8s-8,3.589-8,8s3.589,8,8,8S40,25.411,40,21z M32,27    c-3.309,0-6-2.691-6-6s2.691-6,6-6s6,2.691,6,6S35.309,27,32,27z" style="fill:#3F3A34;"/><path d="M32,17c-2.206,0-4,1.794-4,4s1.794,4,4,4s4-1.794,4-4S34.206,17,32,17z M32,23    c-1.103,0-2-0.897-2-2s0.897-2,2-2s2,0.897,2,2S33.103,23,32,23z" style="fill:#3F3A34;"/><rect height="2" style="fill:#3F3A34;" width="2" x="31" y="9"/><rect height="2" style="fill:#3F3A34;" transform="matrix(0.7071 -0.7071 0.7071 0.7071 -2.2548 20.9999)" width="2" x="23.222" y="12.222"/><rect height="2" style="fill:#3F3A34;" width="2" x="20" y="20"/><rect height="2" style="fill:#3F3A34;" transform="matrix(0.7071 -0.7071 0.7071 0.7071 -13.255 25.5563)" width="2" x="23.222" y="27.778"/><rect height="2" style="fill:#3F3A34;" width="2" x="31" y="31"/><rect height="2" style="fill:#3F3A34;" transform="matrix(0.7071 -0.7071 0.7071 0.7071 -8.6985 36.5565)" width="2" x="38.778" y="27.778"/><rect height="2" style="fill:#3F3A34;" width="2" x="42" y="20"/><rect height="2" style="fill:#3F3A34;" transform="matrix(0.7071 -0.7071 0.7071 0.7071 2.3017 32.0001)" width="2" x="38.778" y="12.222"/><path d="M47.123,7.022C42.692,2.826,36.88,0.689,30.766,1.034C19.298,1.661,10.178,11.159,10.003,22.656    c-0.094,6.095,2.259,11.797,6.626,16.057C20.093,42.092,22,46.441,22,50.961V55h20v-3.933c0-4.568,1.924-8.972,5.418-12.4    C51.662,34.502,54,28.938,54,23C54,16.896,51.558,11.222,47.123,7.022z M40,53H24v-2h16.004c0,0.023-0.004,0.045-0.004,0.067V53z     M46.018,37.239C42.664,40.53,40.62,44.646,40.125,49H23.89c-0.474-4.345-2.512-8.448-5.864-11.719    c-3.969-3.872-6.108-9.055-6.022-14.594C12.162,12.235,20.451,3.601,30.875,3.03c5.552-0.299,10.845,1.63,14.873,5.444    C49.779,12.292,52,17.45,52,23C52,28.396,49.875,33.453,46.018,37.239z" style="fill:#3F3A34;"/><path d="M32,61c-2.757,0-5-1.794-5-4h-2c0,3.309,3.141,6,7,6s7-2.691,7-6h-2C37,59.206,34.757,61,32,61z" style="fill:#3F3A34;"/><polygon points="43.018,15.619 42.385,17.516 46,18.721 46,23.279 41.291,24.849 43.511,29.288     40.288,32.511 35.849,30.291 34.279,35 29.721,35 28.151,30.291 23.712,32.511 19.979,28.778 18.565,30.192 23.317,34.944     26.983,33.111 28.279,37 35.721,37 37.017,33.111 40.683,34.944 45.944,29.683 44.111,26.017 48,24.721 48,17.279   " style="fill:#3F3A34;"/><polygon points="21.615,24.484 18,23.279 18,18.721 22.709,17.151 20.489,12.712 23.712,9.489     28.151,11.708 29.721,7 34.279,7 35.849,11.708 40.288,9.489 44.021,13.222 45.435,11.808 40.683,7.056 37.017,8.888 35.721,5     28.279,5 26.983,8.888 23.317,7.056 18.056,12.317 19.889,15.983 16,17.279 16,24.721 20.982,26.381   " style="fill:#3F3A34;"/></g></g></svg>