<?xml version="1.0" ?><svg id="Layer_1_1_" style="enable-background:new 0 0 64 64;" version="1.1" viewBox="0 0 64 64" xml:space="preserve" xmlns="http://www.w3.org/2000/svg" xmlns:xlink="http://www.w3.org/1999/xlink"><g><g><path d="M28,34H18c-1.105,0-2-0.895-2-2v-2c0-1.105,0.895-2,2-2h10c1.105,0,2,0.895,2,2v2    C30,33.105,29.105,34,28,34z" style="fill:#FFCB57;"/></g><g><ellipse cx="10" cy="18" rx="8" ry="7" style="fill:#FFCB57;"/></g><g><path d="M63,12h-2c0-4.962-4.038-9-9-9s-9,4.038-9,9h-2c0-6.065,4.935-11,11-11S63,5.935,63,12z" style="fill:#E56565;"/></g><g><path d="M59,12h-2c0-2.757-2.243-5-5-5s-5,2.243-5,5h-2c0-3.86,3.14-7,7-7S59,8.14,59,12z" style="fill:#E56565;"/></g><g><path d="M25,42c-1.654,0-3,1.346-3,3s1.346,3,3,3s3-1.346,3-3S26.654,42,25,42z M25,46    c-0.551,0-1-0.449-1-1s0.449-1,1-1s1,0.449,1,1S25.551,46,25,46z" style="fill:#3F3A34;"/><path d="M49,42c-1.654,0-3,1.346-3,3s1.346,3,3,3s3-1.346,3-3S50.654,42,49,42z M49,46    c-0.551,0-1-0.449-1-1s0.449-1,1-1s1,0.449,1,1S49.551,46,49,46z" style="fill:#3F3A34;"/><path d="M15,30v2c0,1.654,1.346,3,3,3h10c1.654,0,3-1.346,3-3v-2c0-1.654-1.346-3-3-3H18    C16.346,27,15,28.346,15,30z M29,30v2c0,0.551-0.449,1-1,1H18c-0.551,0-1-0.449-1-1v-2c0-0.551,0.449-1,1-1h10    C28.551,29,29,29.449,29,30z" style="fill:#3F3A34;"/><path d="M63,38c0-9.357-2.743-18.418-7.934-26.204l-0.102-0.153C54.785,10.159,53.532,9,52,9    c-1.654,0-3,1.346-3,3c0,1.397,0.964,2.563,2.258,2.896l1.773,4.965c1.63,4.564,2.584,9.302,2.869,14.119    C53.702,31.543,50.532,30,47,30H33v2h14c5.514,0,10,4.486,10,10c0,2.189-0.715,4.277-2,5.99V45c0-3.309-2.691-6-6-6s-6,2.691-6,6    v7H31v-7c0-3.309-2.691-6-6-6s-6,2.691-6,6v2.99c-1.285-1.713-2-3.8-2-5.99c0-1.601,0.367-3.13,1.09-4.545l-1.781-0.91    c-0.638,1.247-1.04,2.569-1.211,3.943L8,47.586l-0.464-0.464C6.812,46.398,5.851,46,4.829,46C2.717,46,1,47.717,1,49.829    c0,1.022,0.398,1.984,1.122,2.707l4.111,4.111C7.105,57.52,8.266,58,9.5,58s2.395-0.48,3.268-1.354l4.939-4.939l-1.414-1.414    l-4.939,4.939c-0.99,0.99-2.717,0.99-3.707,0l-4.111-4.111C3.19,50.776,3,50.317,3,49.829C3,48.82,3.82,48,4.829,48    c0.488,0,0.947,0.19,1.293,0.536L8,50.414l7.074-7.074c0.325,2.919,1.72,5.603,3.926,7.581V55c-2.206,0-4,1.794-4,4s1.794,4,4,4h9    c1.654,0,3-1.346,3-3v-6h12v1c-2.206,0-4,1.794-4,4s1.794,4,4,4h9c1.654,0,3-1.346,3-3v-9.078c2.315-2.076,3.719-4.932,3.95-8.018    C61.253,42.458,63,40.432,63,38z M29,60c0,0.551-0.449,1-1,1h-9c-1.103,0-2-0.897-2-2s0.897-2,2-2h2V45c0-2.206,1.794-4,4-4    s4,1.794,4,4V60z M53,60c0,0.551-0.449,1-1,1h-9c-1.103,0-2-0.897-2-2s0.897-2,2-2h2V45c0-2.206,1.794-4,4-4s4,1.794,4,4V60z     M52,11c0.551,0,1,0.449,1,1s-0.449,1-1,1s-1-0.449-1-1S51.449,11,52,11z M58.941,40.834c-0.132-1.358-0.499-2.646-1.046-3.834H58    c0-6.087-1.038-12.08-3.085-17.812l-1.607-4.501c0.317-0.155,0.604-0.357,0.847-0.608C58.635,21.266,61,29.505,61,38    C61,39.324,60.133,40.437,58.941,40.834z" style="fill:#3F3A34;"/><path d="M8.442,25.872c1.079,1.581,2.48,2.956,4.097,3.977l1.067-1.691    c-0.959-0.605-1.821-1.363-2.576-2.213C15.509,25.487,19,22.101,19,18c0-4.103-3.494-7.49-7.975-7.944C13.286,7.496,16.518,6,20,6    c0.677,0,1.347,0.076,2.009,0.188c-0.003,0.667,0.076,1.372,0.261,2.115c0.562,2.246,1.949,4.561,3.908,6.52    c1.75,1.75,3.784,3.039,5.8,3.696c-0.114,2.614-1.071,5.136-2.746,7.15l1.538,1.279c1.881-2.262,2.99-5.072,3.189-7.999    c0.28,0.03,0.558,0.055,0.825,0.055c1.528,0,2.833-0.488,3.782-1.437c1.357-1.357,1.771-3.441,1.164-5.869    c-0.562-2.246-1.949-4.561-3.908-6.52s-4.274-3.346-6.52-3.908c-2.428-0.607-4.512-0.194-5.869,1.164    c-0.501,0.501-0.871,1.102-1.111,1.782c-0.231-0.039-0.459-0.094-0.692-0.121c-0.242-0.637-0.598-1.193-1.065-1.66    C17.862-0.271,12.42,0.935,8.178,5.178c-2.024,2.024-3.423,4.411-3.947,6.69C2.258,13.337,1,15.54,1,18    C1,21.938,4.221,25.213,8.442,25.872z M24.848,3.848c0.58-0.58,1.409-0.854,2.377-0.854c2.116,0,4.895,1.31,7.183,3.598    c3.334,3.334,4.591,7.712,2.744,9.56c-1.85,1.846-6.226,0.59-9.56-2.744C24.257,10.074,23.001,5.696,24.848,3.848z M8,15    c-0.551,0-1-0.449-1-1s0.449-1,1-1s1,0.449,1,1S8.551,15,8,15z M9.592,6.592c1.706-1.706,3.691-2.907,5.591-3.382    c1.717-0.43,3.128-0.203,3.969,0.638c0.057,0.057,0.093,0.134,0.145,0.196c-4.383,0.218-8.369,2.443-10.852,6.084    c-0.567,0.088-1.115,0.224-1.64,0.403C7.429,9.168,8.387,7.797,9.592,6.592z M5.021,13.789C5.016,13.86,5,13.928,5,14    c0,1.302,0.839,2.402,2,2.816v1.77l-1.707,1.707l1.414,1.414L8,20.414l1.293,1.293l1.414-1.414L9,18.586v-1.77    c1.161-0.414,2-1.514,2-2.816c0-0.766-0.297-1.459-0.772-1.99C13.982,12.114,17,14.757,17,18c0,3.309-3.14,6-7,6s-7-2.691-7-6    C3,16.36,3.773,14.873,5.021,13.789z" style="fill:#3F3A34;"/><path d="M19,8c-1.378,0-2.5,1.122-2.5,2.5S17.622,13,19,13s2.5-1.122,2.5-2.5S20.378,8,19,8z M19,11    c-0.276,0-0.5-0.224-0.5-0.5S18.724,10,19,10s0.5,0.224,0.5,0.5S19.276,11,19,11z" style="fill:#3F3A34;"/></g></g></svg>