<?xml version="1.0" ?><svg height="48px" id="svg5816" width="48px" xmlns="http://www.w3.org/2000/svg" xmlns:cc="http://creativecommons.org/ns#" xmlns:dc="http://purl.org/dc/elements/1.1/" xmlns:inkscape="http://www.inkscape.org/namespaces/inkscape" xmlns:rdf="http://www.w3.org/1999/02/22-rdf-syntax-ns#" xmlns:sodipodi="http://sodipodi.sourceforge.net/DTD/sodipodi-0.dtd" xmlns:svg="http://www.w3.org/2000/svg" xmlns:xlink="http://www.w3.org/1999/xlink"><defs id="defs3"><radialGradient cx="605.71429" cy="486.64789" fx="605.71429" fy="486.64789" gradientTransform="matrix(-2.774389,0,0,1.969706,112.7623,-872.8854)" gradientUnits="userSpaceOnUse" id="radialGradient5031" r="117.14286" xlink:href="#linearGradient5060"/><linearGradient id="linearGradient5060"><stop id="stop5062" offset="0" style="stop-color:black;stop-opacity:1;"/><stop id="stop5064" offset="1" style="stop-color:black;stop-opacity:0;"/></linearGradient><radialGradient cx="605.71429" cy="486.64789" fx="605.71429" fy="486.64789" gradientTransform="matrix(2.774389,0,0,1.969706,-1891.633,-872.8854)" gradientUnits="userSpaceOnUse" id="radialGradient5029" r="117.14286" xlink:href="#linearGradient5060"/><linearGradient id="linearGradient5048"><stop id="stop5050" offset="0" style="stop-color:black;stop-opacity:0;"/><stop id="stop5056" offset="0.5" style="stop-color:black;stop-opacity:1;"/><stop id="stop5052" offset="1" style="stop-color:black;stop-opacity:0;"/></linearGradient><linearGradient gradientTransform="matrix(2.774389,0,0,1.969706,-1892.179,-872.8854)" gradientUnits="userSpaceOnUse" id="linearGradient5027" x1="302.85715" x2="302.85715" xlink:href="#linearGradient5048" y1="366.64789" y2="609.50507"/><linearGradient id="linearGradient2624"><stop id="stop2626" offset="0" style="stop-color:#dfe0df;stop-opacity:1;"/><stop id="stop2630" offset="0.23809524" style="stop-color:#a6b0a6;stop-opacity:1;"/><stop id="stop2628" offset="1.0000000" style="stop-color:#b5beb5;stop-opacity:1.0000000;"/></linearGradient><linearGradient id="linearGradient2573"><stop id="stop2575" offset="0" style="stop-color:#ffffff;stop-opacity:1;"/><stop id="stop2577" offset="1" style="stop-color:#ffffff;stop-opacity:0;"/></linearGradient><linearGradient id="linearGradient2274"><stop id="stop2276" offset="0.0000000" style="stop-color:#000000;stop-opacity:0.12871288;"/><stop id="stop2278" offset="1.0000000" style="stop-color:#000000;stop-opacity:0.0000000;"/></linearGradient><linearGradient id="linearGradient9749"><stop id="stop9751" offset="0" style="stop-color:#ffffff;stop-opacity:1;"/><stop id="stop9753" offset="1.0000000" style="stop-color:#ededed;stop-opacity:1.0000000;"/></linearGradient><linearGradient id="linearGradient15107"><stop id="stop15109" offset="0.0000000" style="stop-color:#ffffff;stop-opacity:1.0000000;"/><stop id="stop15111" offset="1.0000000" style="stop-color:#e2e2e2;stop-opacity:1.0000000;"/></linearGradient><linearGradient id="linearGradient10691"><stop id="stop10693" offset="0" style="stop-color:#000000;stop-opacity:1;"/><stop id="stop10695" offset="1" style="stop-color:#000000;stop-opacity:0;"/></linearGradient><linearGradient id="linearGradient4274"><stop id="stop4276" offset="0.0000000" style="stop-color:#ffffff;stop-opacity:0.25490198;"/><stop id="stop4278" offset="1.0000000" style="stop-color:#ffffff;stop-opacity:1.0000000;"/></linearGradient><linearGradient id="linearGradient2187"><stop id="stop2189" offset="0" style="stop-color:#ffffff;stop-opacity:1;"/><stop id="stop2191" offset="1" style="stop-color:#ffffff;stop-opacity:0;"/></linearGradient><linearGradient id="linearGradient6901"><stop id="stop6903" offset="0" style="stop-color:#3465a4;stop-opacity:1;"/><stop id="stop6905" offset="1" style="stop-color:#3465a4;stop-opacity:0;"/></linearGradient><linearGradient id="linearGradient6925"><stop id="stop6927" offset="0" style="stop-color:#204a87;stop-opacity:1;"/><stop id="stop6929" offset="1" style="stop-color:#204a87;stop-opacity:0;"/></linearGradient><linearGradient gradientTransform="matrix(0,1,-1,0,37.07553,-5.879343)" gradientUnits="userSpaceOnUse" id="linearGradient2562" x1="14.751649" x2="12.252101" xlink:href="#linearGradient6901" y1="15.868432" y2="30.55784"/><linearGradient gradientTransform="matrix(0,1,-1,0,37.07553,-5.879343)" gradientUnits="userSpaceOnUse" id="linearGradient2564" x1="12.25" x2="9.5821323" xlink:href="#linearGradient6925" y1="18.25" y2="27.057337"/><linearGradient gradientTransform="matrix(-1.412791e-16,0.914114,-0.914114,-1.412791e-16,39.78243,-9.748047)" gradientUnits="userSpaceOnUse" id="linearGradient2566" x1="33.059906" x2="12.624337" xlink:href="#linearGradient2187" y1="27.394117" y2="12.583769"/><linearGradient gradientTransform="matrix(0,1,-1,0,37.07553,-5.879343)" gradientUnits="userSpaceOnUse" id="linearGradient2365" x1="32.058014" x2="27.90929" xlink:href="#linearGradient4274" y1="8.6689339" y2="18.068739"/><radialGradient cx="6.7027131" cy="73.615714" fx="6.7027131" fy="73.615714" gradientTransform="scale(1.902215,0.525703)" gradientUnits="userSpaceOnUse" id="radialGradient1481" r="7.2284161" xlink:href="#linearGradient10691"/><linearGradient gradientTransform="matrix(1.343475,0,0,1.505846,2.879511,-2.266018)" gradientUnits="userSpaceOnUse" id="linearGradient1483" x1="11.572842" x2="18.475286" xlink:href="#linearGradient15107" y1="4.7461626" y2="26.022910"/><linearGradient gradientTransform="matrix(2.454781,0,0,0.762004,2.88175,0.337386)" gradientUnits="userSpaceOnUse" id="linearGradient1487" x1="9.1643066" x2="9.8855038" xlink:href="#linearGradient2624" y1="38.070892" y2="52.090679"/><radialGradient cx="27.741131" cy="38.711506" fx="27.741131" fy="38.711506" gradientTransform="matrix(0.629929,0.459373,-0.147675,0.248512,16.51724,9.053737)" gradientUnits="userSpaceOnUse" id="radialGradient1491" r="17.977943" xlink:href="#linearGradient2274"/><linearGradient gradientTransform="matrix(1.276531,0,0,-1.406115,24.24763,33.3374)" gradientUnits="userSpaceOnUse" id="linearGradient1493" x1="11.74217" x2="13.846983" xlink:href="#linearGradient15107" y1="11.48487" y2="11.981981"/><linearGradient gradientTransform="matrix(1.296015,0,0,-1.43692,3.746576,33.20516)" gradientUnits="userSpaceOnUse" id="linearGradient1497" x1="11.74217" x2="13.846983" xlink:href="#linearGradient15107" y1="11.48487" y2="11.981981"/><linearGradient gradientTransform="matrix(1.570607,0,0,-1.231511,2.973436,33.33485)" gradientUnits="userSpaceOnUse" id="linearGradient1501" x1="10.027" x2="17.178024" xlink:href="#linearGradient15107" y1="20.219761" y2="-7.5274644"/><linearGradient gradientTransform="matrix(1.370928,0,0,-1.46456,2.525057,33.71269)" gradientUnits="userSpaceOnUse" id="linearGradient1503" x1="11.841544" x2="40.024059" xlink:href="#linearGradient9749" y1="4.2507305" y2="7.4121075"/><linearGradient gradientUnits="userSpaceOnUse" id="linearGradient1505" x1="17.397203" x2="22.17771" xlink:href="#linearGradient2573" y1="33.357376" y2="31.026741"/></defs><g id="layer1"><g id="g5022" style="display:inline" transform="matrix(2.312904e-2,0,0,1.485743e-2,45.62082,30.57952)"><rect height="478.35718" id="rect4173" style="opacity:0.40206185;color:black;fill:url(#linearGradient5027);fill-opacity:1;fill-rule:nonzero;stroke:none;stroke-width:1;stroke-linecap:round;stroke-linejoin:miter;marker:none;marker-start:none;marker-mid:none;marker-end:none;stroke-miterlimit:4;stroke-dasharray:none;stroke-dashoffset:0;stroke-opacity:1;visibility:visible;display:inline;overflow:visible" width="1339.6335" x="-1559.2523" y="-150.69685"/><path d="M -219.61876,-150.68038 C -219.61876,-150.68038 -219.61876,327.65041 -219.61876,327.65041 C -76.744594,328.55086 125.78146,220.48075 125.78138,88.454235 C 125.78138,-43.572302 -33.655436,-150.68036 -219.61876,-150.68038 z " id="path5058" style="opacity:0.40206185;color:black;fill:url(#radialGradient5029);fill-opacity:1;fill-rule:nonzero;stroke:none;stroke-width:1;stroke-linecap:round;stroke-linejoin:miter;marker:none;marker-start:none;marker-mid:none;marker-end:none;stroke-miterlimit:4;stroke-dasharray:none;stroke-dashoffset:0;stroke-opacity:1;visibility:visible;display:inline;overflow:visible"/><path d="M -1559.2523,-150.68038 C -1559.2523,-150.68038 -1559.2523,327.65041 -1559.2523,327.65041 C -1702.1265,328.55086 -1904.6525,220.48075 -1904.6525,88.454235 C -1904.6525,-43.572302 -1745.2157,-150.68036 -1559.2523,-150.68038 z " id="path5018" style="opacity:0.40206185;color:black;fill:url(#radialGradient5031);fill-opacity:1;fill-rule:nonzero;stroke:none;stroke-width:1;stroke-linecap:round;stroke-linejoin:miter;marker:none;marker-start:none;marker-mid:none;marker-end:none;stroke-miterlimit:4;stroke-dasharray:none;stroke-dashoffset:0;stroke-opacity:1;visibility:visible;display:inline;overflow:visible"/></g><path d="M 26.5 38.700001 A 13.75 3.8 0 1 1  -1,38.700001 A 13.75 3.8 0 1 1  26.5 38.700001 z" id="path10699" style="opacity:0.3;color:black;fill:url(#radialGradient1481);fill-opacity:1;fill-rule:nonzero;stroke:none;stroke-width:0.80000001;stroke-linecap:butt;stroke-linejoin:miter;marker:none;marker-start:none;marker-mid:none;marker-end:none;stroke-miterlimit:4;stroke-dashoffset:0;stroke-opacity:1;visibility:visible;display:inline;overflow:visible" transform="matrix(0.992718,0,0,1.526064,15.03813,-23.6924)"/><g id="g2570" transform="matrix(1.004727,0,0,1.006001,5.456518e-2,-9.119156)"><path d="M 6.34375,15.454879 L 6.34375,41.44216 L 43.3125,41.44216 L 43.25,15.554447 C 43.249987,15.548732 43.250374,15.527358 43.25,15.521258 C 43.249269,15.514776 43.251086,15.494928 43.25,15.488068 C 43.248562,15.480833 43.220538,15.462487 43.21875,15.454879 L 6.34375,15.454879 z " id="path12723" style="fill:url(#linearGradient1483);fill-opacity:1;fill-rule:evenodd;stroke:#888a85;stroke-width:0.99466482;stroke-linecap:butt;stroke-linejoin:round;stroke-miterlimit:4;stroke-opacity:1;stroke-dasharray:none"/><path d="M 20.490674,29.058712 L 7.09471,40.0307 L 21.003552,30.426394 L 30.02171,30.426394 L 42.440757,39.908587 L 30.577332,29.058712 L 20.490674,29.058712 z " id="path1634" style="fill:url(#linearGradient1487);fill-opacity:1;fill-rule:evenodd;stroke:none;stroke-width:1;stroke-linecap:butt;stroke-linejoin:miter;stroke-miterlimit:4;stroke-opacity:1"/><path d="M 7.34375,16.733862 C 7.3370547,16.747199 7.3491438,16.753505 7.34375,16.765454 C 7.3413822,16.771079 7.3145363,16.791778 7.3125,16.797048 C 7.3107976,16.801959 7.313866,16.824087 7.3125,16.82864 C 7.3114729,16.83283 7.3131858,16.85641 7.3125,16.860233 L 7.34375,40.333651 L 42.28125,40.333651 L 42.21875,16.986604 C 42.218063,16.982892 42.219774,16.959094 42.21875,16.955011 C 42.204092,16.906933 42.176921,16.822855 42.125,16.733862 L 7.34375,16.733862 z " id="path15103" style="fill:none;fill-opacity:0.75;fill-rule:evenodd;stroke:#ffffff;stroke-width:0.99466479;stroke-linecap:butt;stroke-linejoin:miter;stroke-miterlimit:4;stroke-dasharray:none;stroke-opacity:1"/><path d="M 23.329298,32.996721 C 20.937189,32.550375 7.9003872,18.771125 6.5966059,16.372022 C 6.5816495,16.343448 6.5559705,16.288608 6.5446896,16.2636 L 41.057803,16.2636 C 40.780724,18.766404 33.533576,32.769346 31.496524,32.996721 C 31.488351,32.997189 31.475247,32.996721 31.467251,32.996721 L 23.446392,32.996721 C 23.412766,32.996721 23.368838,33.004099 23.329298,32.996721 z " id="path2563" style="fill:url(#radialGradient1491);fill-opacity:1;fill-rule:evenodd;stroke:none;stroke-width:0.85660434;stroke-linecap:butt;stroke-linejoin:round;stroke-miterlimit:4;stroke-opacity:1"/><path d="M 20.77475,31.085394 C 18.407309,30.694257 7.945269,18.619435 7.1185841,16.517089 C 7.109327,16.49205 7.094677,16.443993 7.088438,16.422079 L 42.630645,16.422079 C 41.807029,18.615299 31.332195,30.886144 29.185502,31.085394 C 29.176984,31.085803 29.16359,31.085394 29.155355,31.085394 L 20.895334,31.085394 C 20.860706,31.085394 20.813881,31.091858 20.77475,31.085394 z " id="path1613" style="fill:url(#linearGradient1497);fill-opacity:1;fill-rule:evenodd;stroke:#989898;stroke-width:0.85203391;stroke-linecap:butt;stroke-linejoin:round;stroke-miterlimit:4;stroke-opacity:1"/><path d="M 20.625174,30.490479 C 18.519211,29.999928 7.7224803,17.987711 7.0314243,16.466377 C 7.0288882,16.460379 7.0336023,16.439689 7.0314243,16.434063 C 7.0259731,16.418307 7.002328,16.381764 7.0001743,16.369436 C 7.000203,16.366104 6.9997682,16.34006 7.0001743,16.337122 C 7.0013435,16.334982 7.0298695,16.338859 7.0314243,16.337122 L 7.1251743,16.240181 L 42.593924,16.240181 C 42.591209,16.264507 42.57124,16.307054 42.562674,16.337122 C 42.555173,16.360727 42.542103,16.407355 42.531424,16.434063 C 41.609326,18.615 31.023436,30.200512 29.187674,30.490479 C 29.172746,30.492123 29.138826,30.490479 29.125174,30.490479 L 20.750174,30.490479 C 20.719887,30.488811 20.66042,30.498689 20.625174,30.490479 z " id="path18153" style="fill:url(#linearGradient1501);fill-opacity:1;fill-rule:evenodd;stroke:none;stroke-width:0.25pt;stroke-linecap:butt;stroke-linejoin:miter;stroke-opacity:1"/><path d="M 20.875174,30.051141 C 18.427215,29.501671 8.7040003,18.433898 7.5314243,16.451725 L 42.125174,16.451725 C 40.634986,18.784896 31.078502,29.863516 28.968924,30.051141 C 28.960181,30.051543 28.946142,30.051141 28.937674,30.051141 L 21.031424,30.051141 C 21.00503,30.051141 20.966542,30.054692 20.937674,30.051141 C 20.917888,30.047995 20.896025,30.055821 20.875174,30.051141 z " id="path1616" style="fill:none;fill-opacity:0.75;fill-rule:evenodd;stroke:url(#linearGradient1503);stroke-width:0.85203373;stroke-linecap:butt;stroke-linejoin:miter;stroke-miterlimit:4;stroke-opacity:1"/><path d="M 20.959511,30.447113 L 9.018012,38.717969 L 11.237445,38.724076 L 21.23557,31.855136 L 30.057478,30.432298 L 20.959511,30.447113 z " id="path1636" style="fill:url(#linearGradient1505);fill-opacity:1;fill-rule:evenodd;stroke:none;stroke-width:1;stroke-linecap:butt;stroke-linejoin:miter;stroke-miterlimit:4;stroke-opacity:1"/></g><g id="g2547" transform="matrix(-1,0,0,-1,51.13668,43.97416)"><path d="M 3.2034501,25.835194 C 2.1729477,-5.3853369 28.741616,-0.4511153 28.582416,15.788689 L 35.89533,15.788689 L 24.517652,28.774671 L 12.585426,15.788689 C 12.585426,15.788689 20.126859,15.788689 20.126859,15.788689 C 20.583921,4.8193225 3.4092324,1.6100346 3.2034501,25.835194 z " id="path1432" style="color:#000000;fill:url(#linearGradient2562);fill-opacity:1;fill-rule:nonzero;stroke:url(#linearGradient2564);stroke-width:0.99999982;stroke-linecap:butt;stroke-linejoin:miter;marker:none;marker-start:none;marker-mid:none;marker-end:none;stroke-miterlimit:4;stroke-dasharray:none;stroke-dashoffset:0;stroke-opacity:1;visibility:visible;display:block;overflow:visible" transform="matrix(0,-1,1,0,6.862005,36.36949)"/><g id="g1630"><path d="M 7.6642103,9.1041047 C 12.40638,-0.0400306 28.122336,2.7175443 27.761604,16.579393 L 34.078976,16.579393 C 34.078976,16.579393 24.513151,27.536769 24.513151,27.536769 L 14.41668,16.579393 C 14.41668,16.579393 20.87332,16.579393 20.87332,16.579393 C 21.144975,5.0041615 10.922265,5.5345215 7.6642103,9.1041047 z " id="path2177" style="opacity:0.47159089;color:#000000;fill:none;fill-opacity:1;fill-rule:nonzero;stroke:url(#linearGradient2566);stroke-width:0.99999934;stroke-linecap:butt;stroke-linejoin:miter;marker:none;marker-start:none;marker-mid:none;marker-end:none;stroke-miterlimit:10;stroke-dasharray:none;stroke-dashoffset:0;stroke-opacity:1;visibility:visible;display:block;overflow:visible" transform="matrix(0,-1,1,0,6.862005,36.36949)"/></g><path d="M 19.15625,10.78125 C 19.101281,10.78233 19.055201,10.811245 19,10.8125 C 42.611777,11.277647 39.383669,28.172241 28.5,27.71875 C 28.5,27.71875 28.485986,20.190096 28.485986,20.190096 L 15.5,32.125 L 15.625,32.25 C 24.079405,29.915367 34.590688,32.533173 41.1875,25.90625 C 42.276575,18.717732 36.400886,10.442298 19.15625,10.78125 z " id="path2362" style="color:#000000;fill:url(#linearGradient2365);fill-opacity:1.0;fill-rule:nonzero;stroke:none;stroke-width:0.99999982;stroke-linecap:butt;stroke-linejoin:miter;marker:none;marker-start:none;marker-mid:none;marker-end:none;stroke-miterlimit:4;stroke-dasharray:none;stroke-dashoffset:0;stroke-opacity:1;visibility:visible;display:block;overflow:visible;opacity:0.5" transform="matrix(-1,0,0,-1,51.13668,43.97416)"/></g></g></svg>