<?xml version="1.0" ?><svg height="48px" id="svg5816" width="48px" xmlns="http://www.w3.org/2000/svg" xmlns:cc="http://creativecommons.org/ns#" xmlns:dc="http://purl.org/dc/elements/1.1/" xmlns:inkscape="http://www.inkscape.org/namespaces/inkscape" xmlns:rdf="http://www.w3.org/1999/02/22-rdf-syntax-ns#" xmlns:sodipodi="http://sodipodi.sourceforge.net/DTD/sodipodi-0.dtd" xmlns:svg="http://www.w3.org/2000/svg" xmlns:xlink="http://www.w3.org/1999/xlink"><defs id="defs3"><radialGradient cx="605.71429" cy="486.64789" fx="605.71429" fy="486.64789" gradientTransform="matrix(-2.774389,0,0,1.969706,112.7623,-872.8854)" gradientUnits="userSpaceOnUse" id="radialGradient5031" r="117.14286" xlink:href="#linearGradient5060"/><linearGradient id="linearGradient5060"><stop id="stop5062" offset="0" style="stop-color:black;stop-opacity:1;"/><stop id="stop5064" offset="1" style="stop-color:black;stop-opacity:0;"/></linearGradient><radialGradient cx="605.71429" cy="486.64789" fx="605.71429" fy="486.64789" gradientTransform="matrix(2.774389,0,0,1.969706,-1891.633,-872.8854)" gradientUnits="userSpaceOnUse" id="radialGradient5029" r="117.14286" xlink:href="#linearGradient5060"/><linearGradient id="linearGradient5048"><stop id="stop5050" offset="0" style="stop-color:black;stop-opacity:0;"/><stop id="stop5056" offset="0.5" style="stop-color:black;stop-opacity:1;"/><stop id="stop5052" offset="1" style="stop-color:black;stop-opacity:0;"/></linearGradient><linearGradient gradientTransform="matrix(2.774389,0,0,1.969706,-1892.179,-872.8854)" gradientUnits="userSpaceOnUse" id="linearGradient5027" x1="302.85715" x2="302.85715" xlink:href="#linearGradient5048" y1="366.64789" y2="609.50507"/><linearGradient id="linearGradient2484"><stop id="stop2486" offset="0" style="stop-color:#9f620b;stop-opacity:1;"/><stop id="stop2488" offset="1" style="stop-color:#ffc879;stop-opacity:0;"/></linearGradient><linearGradient id="linearGradient2624"><stop id="stop2626" offset="0" style="stop-color:#dfe0df;stop-opacity:1;"/><stop id="stop2630" offset="0.23809524" style="stop-color:#a6b0a6;stop-opacity:1;"/><stop id="stop2628" offset="1.0000000" style="stop-color:#b5beb5;stop-opacity:1.0000000;"/></linearGradient><linearGradient id="linearGradient2587"><stop id="stop2589" offset="0" style="stop-color:#989897;stop-opacity:1;"/><stop id="stop2591" offset="1.0000000" style="stop-color:#626262;stop-opacity:1"/></linearGradient><linearGradient id="linearGradient2573"><stop id="stop2575" offset="0" style="stop-color:#ffffff;stop-opacity:1;"/><stop id="stop2577" offset="1" style="stop-color:#ffffff;stop-opacity:0;"/></linearGradient><linearGradient id="linearGradient2274"><stop id="stop2276" offset="0.0000000" style="stop-color:#000000;stop-opacity:0.12871288;"/><stop id="stop2278" offset="1.0000000" style="stop-color:#000000;stop-opacity:0.0000000;"/></linearGradient><linearGradient id="linearGradient9749"><stop id="stop9751" offset="0" style="stop-color:#ffffff;stop-opacity:1;"/><stop id="stop9753" offset="1.0000000" style="stop-color:#ededed;stop-opacity:1.0000000;"/></linearGradient><linearGradient id="linearGradient2136"><stop id="stop2138" offset="0.0000000" style="stop-color:#989690;stop-opacity:1.0000000;"/><stop id="stop2140" offset="1.0000000" style="stop-color:#656460;stop-opacity:1.0000000;"/></linearGradient><linearGradient id="linearGradient15107"><stop id="stop15109" offset="0.0000000" style="stop-color:#ffffff;stop-opacity:1.0000000;"/><stop id="stop15111" offset="1.0000000" style="stop-color:#e2e2e2;stop-opacity:1.0000000;"/></linearGradient><linearGradient id="linearGradient10691"><stop id="stop10693" offset="0" style="stop-color:#000000;stop-opacity:1;"/><stop id="stop10695" offset="1" style="stop-color:#000000;stop-opacity:0;"/></linearGradient><radialGradient cx="6.7027131" cy="73.615714" fx="6.7027131" fy="73.615714" gradientTransform="scale(1.902215,0.525703)" gradientUnits="userSpaceOnUse" id="radialGradient11382" r="7.2284161" xlink:href="#linearGradient10691"/><linearGradient id="linearGradient4274"><stop id="stop4276" offset="0.0000000" style="stop-color:#ffffff;stop-opacity:0.25490198;"/><stop id="stop4278" offset="1.0000000" style="stop-color:#ffffff;stop-opacity:1.0000000;"/></linearGradient><linearGradient id="linearGradient2187"><stop id="stop2189" offset="0" style="stop-color:#ffffff;stop-opacity:1;"/><stop id="stop2191" offset="1" style="stop-color:#ffffff;stop-opacity:0;"/></linearGradient><linearGradient id="linearGradient6901"><stop id="stop6903" offset="0" style="stop-color:#3465a4;stop-opacity:1;"/><stop id="stop6905" offset="1" style="stop-color:#3465a4;stop-opacity:0;"/></linearGradient><linearGradient id="linearGradient6925"><stop id="stop6927" offset="0" style="stop-color:#204a87;stop-opacity:1;"/><stop id="stop6929" offset="1" style="stop-color:#204a87;stop-opacity:0;"/></linearGradient><linearGradient gradientTransform="matrix(1.343475,0,0,1.505846,2.879511,-2.266018)" gradientUnits="userSpaceOnUse" id="linearGradient2581" x1="11.572842" x2="18.475286" xlink:href="#linearGradient15107" y1="4.7461626" y2="26.022910"/><linearGradient gradientTransform="matrix(1.343475,0,0,1.505846,2.879511,-2.266018)" gradientUnits="userSpaceOnUse" id="linearGradient2583" x1="2.0618774" x2="30.599684" xlink:href="#linearGradient2136" y1="15.257116" y2="15.257116"/><linearGradient gradientTransform="matrix(2.454781,0,0,0.762004,2.88175,0.337386)" gradientUnits="userSpaceOnUse" id="linearGradient2585" x1="9.1643066" x2="9.8855038" xlink:href="#linearGradient2624" y1="38.070892" y2="52.090679"/><linearGradient gradientTransform="matrix(1.370928,0,0,1.477865,2.431133,-1.107292)" gradientUnits="userSpaceOnUse" id="linearGradient2588" x1="11.233107" x2="21.111549" xlink:href="#linearGradient9749" y1="13.686079" y2="24.132717"/><radialGradient cx="27.741131" cy="38.711506" fx="27.741131" fy="38.711506" gradientTransform="matrix(0.629929,0.459373,-0.147675,0.248512,16.51724,9.053737)" gradientUnits="userSpaceOnUse" id="radialGradient2590" r="17.977943" xlink:href="#linearGradient2274"/><linearGradient gradientTransform="matrix(1.276531,0,0,-1.470393,4.341724,33.41877)" gradientUnits="userSpaceOnUse" id="linearGradient2592" x1="11.74217" x2="13.846983" xlink:href="#linearGradient15107" y1="11.48487" y2="11.981981"/><linearGradient gradientTransform="matrix(1.276531,0,0,-1.470393,4.341724,33.41877)" gradientUnits="userSpaceOnUse" id="linearGradient2594" x1="20.855347" x2="31.136641" xlink:href="#linearGradient2587" y1="4.5109215" y2="11.984272"/><linearGradient gradientTransform="matrix(1.296015,0,0,-1.455069,3.746576,33.23191)" gradientUnits="userSpaceOnUse" id="linearGradient2596" x1="11.74217" x2="13.846983" xlink:href="#linearGradient15107" y1="11.48487" y2="11.981981"/><linearGradient gradientTransform="matrix(1.296015,0,0,-1.455069,3.746576,33.23191)" gradientUnits="userSpaceOnUse" id="linearGradient2598" x1="20.855347" x2="31.136641" xlink:href="#linearGradient2587" y1="4.5109215" y2="11.984272"/><linearGradient gradientTransform="matrix(1.570607,0,0,-1.231511,2.973436,33.33485)" gradientUnits="userSpaceOnUse" id="linearGradient2600" x1="10.027" x2="17.178024" xlink:href="#linearGradient15107" y1="20.219761" y2="-7.5274644"/><linearGradient gradientTransform="matrix(1.370928,0,0,-1.46456,2.525057,33.71269)" gradientUnits="userSpaceOnUse" id="linearGradient2602" x1="11.841544" x2="40.024059" xlink:href="#linearGradient9749" y1="4.2507305" y2="7.4121075"/><linearGradient gradientUnits="userSpaceOnUse" id="linearGradient2604" x1="17.397203" x2="22.17771" xlink:href="#linearGradient2573" y1="33.357376" y2="31.026741"/><linearGradient id="linearGradient2308"><stop id="stop2310" offset="0" style="stop-color:#fd9d14;stop-opacity:1;"/><stop id="stop2312" offset="1" style="stop-color:#ffc879;stop-opacity:0;"/></linearGradient><linearGradient id="linearGradient8650"><stop id="stop8652" offset="0" style="stop-color:#ffffff;stop-opacity:1;"/><stop id="stop8654" offset="1" style="stop-color:#ffffff;stop-opacity:0;"/></linearGradient><linearGradient gradientTransform="matrix(0.914114,1.412791e-16,-1.412791e-16,0.914114,-3.868698,-2.706902)" gradientUnits="userSpaceOnUse" id="linearGradient2922" x1="23.707594" x2="36.172123" xlink:href="#linearGradient2187" y1="11.027571" y2="50.995052"/><linearGradient gradientUnits="userSpaceOnUse" id="linearGradient2500" x1="26.5" x2="26.25" xlink:href="#linearGradient2308" y1="34.25" y2="43.571831"/><linearGradient gradientUnits="userSpaceOnUse" id="linearGradient2502" x1="26.5" x2="26.25" xlink:href="#linearGradient2484" y1="34.25" y2="43.571831"/><linearGradient gradientUnits="userSpaceOnUse" id="linearGradient2518" x1="1.2596543" x2="53.613785" xlink:href="#linearGradient8650" y1="-8.9306421" y2="62.587452"/><linearGradient gradientUnits="userSpaceOnUse" id="linearGradient1505" x1="17.397203" x2="22.17771" xlink:href="#linearGradient2573" y1="33.357376" y2="31.026741"/><linearGradient gradientTransform="matrix(1.370928,0,0,-1.46456,2.525057,33.71269)" gradientUnits="userSpaceOnUse" id="linearGradient1503" x1="11.841544" x2="40.024059" xlink:href="#linearGradient9749" y1="4.2507305" y2="7.4121075"/><linearGradient gradientTransform="matrix(1.570607,0,0,-1.231511,2.973436,33.33485)" gradientUnits="userSpaceOnUse" id="linearGradient1501" x1="10.027" x2="17.178024" xlink:href="#linearGradient15107" y1="20.219761" y2="-7.5274644"/><linearGradient gradientTransform="matrix(1.296015,0,0,-1.43692,3.746576,33.20516)" gradientUnits="userSpaceOnUse" id="linearGradient1497" x1="11.74217" x2="13.846983" xlink:href="#linearGradient15107" y1="11.48487" y2="11.981981"/><radialGradient cx="27.741131" cy="38.711506" fx="27.741131" fy="38.711506" gradientTransform="matrix(0.629929,0.459373,-0.147675,0.248512,16.51724,9.053737)" gradientUnits="userSpaceOnUse" id="radialGradient1491" r="17.977943" xlink:href="#linearGradient2274"/><linearGradient gradientTransform="matrix(2.454781,0,0,0.762004,2.88175,0.337386)" gradientUnits="userSpaceOnUse" id="linearGradient1487" x1="9.1643066" x2="9.8855038" xlink:href="#linearGradient2624" y1="38.070892" y2="52.090679"/><linearGradient gradientTransform="matrix(1.343475,0,0,1.505846,2.879511,-2.266018)" gradientUnits="userSpaceOnUse" id="linearGradient1483" x1="11.572842" x2="18.475286" xlink:href="#linearGradient15107" y1="4.7461626" y2="26.022910"/><radialGradient cx="6.7027131" cy="73.615714" fx="6.7027131" fy="73.615714" gradientTransform="scale(1.902215,0.525703)" gradientUnits="userSpaceOnUse" id="radialGradient1481" r="7.2284161" xlink:href="#linearGradient10691"/><linearGradient gradientTransform="matrix(0,1,-1,0,37.07553,-5.879343)" gradientUnits="userSpaceOnUse" id="linearGradient2365" x1="32.058014" x2="27.90929" xlink:href="#linearGradient4274" y1="8.6689339" y2="18.068739"/><linearGradient gradientTransform="matrix(-1.412791e-16,0.914114,-0.914114,-1.412791e-16,39.78243,-9.748047)" gradientUnits="userSpaceOnUse" id="linearGradient2566" x1="33.059906" x2="12.624337" xlink:href="#linearGradient2187" y1="27.394117" y2="12.583769"/><linearGradient gradientTransform="matrix(0,1,-1,0,37.07553,-5.879343)" gradientUnits="userSpaceOnUse" id="linearGradient2564" x1="12.25" x2="9.5821323" xlink:href="#linearGradient6925" y1="18.25" y2="27.057337"/><linearGradient gradientTransform="matrix(0,1,-1,0,37.07553,-5.879343)" gradientUnits="userSpaceOnUse" id="linearGradient2562" x1="14.751649" x2="12.252101" xlink:href="#linearGradient6901" y1="15.868432" y2="30.55784"/><linearGradient gradientUnits="userSpaceOnUse" id="linearGradient4247" x1="32.707863" x2="43.986744" xlink:href="#linearGradient2308" y1="28.042139" y2="34.407845"/><linearGradient gradientUnits="userSpaceOnUse" id="linearGradient4249" x1="32.707863" x2="43.986744" xlink:href="#linearGradient2484" y1="28.042139" y2="34.407845"/><linearGradient gradientTransform="matrix(0.914114,1.412791e-16,-1.412791e-16,0.914114,-3.868698,-2.706902)" gradientUnits="userSpaceOnUse" id="linearGradient4251" x1="23.707594" x2="36.172123" xlink:href="#linearGradient2187" y1="11.027571" y2="50.995052"/><linearGradient gradientUnits="userSpaceOnUse" id="linearGradient4253" x1="11.6875" x2="37.113785" xlink:href="#linearGradient8650" y1="14.319358" y2="36.087452"/><radialGradient cx="6.7027131" cy="73.615714" fx="6.7027131" fy="73.615714" gradientTransform="scale(1.902215,0.525703)" gradientUnits="userSpaceOnUse" id="radialGradient4280" r="7.2284161" xlink:href="#linearGradient10691"/><linearGradient gradientTransform="matrix(1.343475,0,0,1.505846,2.879511,-2.266018)" gradientUnits="userSpaceOnUse" id="linearGradient4282" x1="11.572842" x2="18.475286" xlink:href="#linearGradient15107" y1="4.7461626" y2="26.022910"/><linearGradient gradientTransform="matrix(2.454781,0,0,0.762004,2.88175,0.337386)" gradientUnits="userSpaceOnUse" id="linearGradient4284" x1="9.1643066" x2="9.8855038" xlink:href="#linearGradient2624" y1="38.070892" y2="52.090679"/><radialGradient cx="27.741131" cy="38.711506" fx="27.741131" fy="38.711506" gradientTransform="matrix(0.629929,0.459373,-0.147675,0.248512,16.51724,9.053737)" gradientUnits="userSpaceOnUse" id="radialGradient4286" r="17.977943" xlink:href="#linearGradient2274"/><linearGradient gradientTransform="matrix(1.296015,0,0,-1.43692,3.746576,33.20516)" gradientUnits="userSpaceOnUse" id="linearGradient4288" x1="11.74217" x2="13.846983" xlink:href="#linearGradient15107" y1="11.48487" y2="11.981981"/><linearGradient gradientTransform="matrix(1.570607,0,0,-1.231511,2.973436,33.33485)" gradientUnits="userSpaceOnUse" id="linearGradient4290" x1="10.027" x2="17.178024" xlink:href="#linearGradient15107" y1="20.219761" y2="-7.5274644"/><linearGradient gradientTransform="matrix(1.370928,0,0,-1.46456,2.525057,33.71269)" gradientUnits="userSpaceOnUse" id="linearGradient4292" x1="11.841544" x2="40.024059" xlink:href="#linearGradient9749" y1="4.2507305" y2="7.4121075"/><linearGradient gradientUnits="userSpaceOnUse" id="linearGradient4294" x1="17.397203" x2="22.17771" xlink:href="#linearGradient2573" y1="33.357376" y2="31.026741"/><linearGradient gradientTransform="matrix(1.343475,0,0,1.505846,2.879511,-2.266018)" gradientUnits="userSpaceOnUse" id="linearGradient3734" x1="11.572842" x2="18.475286" xlink:href="#linearGradient15107" y1="4.7461626" y2="26.022910"/><linearGradient gradientTransform="matrix(2.454781,0,0,0.762004,2.88175,0.337386)" gradientUnits="userSpaceOnUse" id="linearGradient3736" x1="9.1643066" x2="9.8855038" xlink:href="#linearGradient2624" y1="38.070892" y2="52.090679"/><radialGradient cx="27.741131" cy="38.711506" fx="27.741131" fy="38.711506" gradientTransform="matrix(0.629929,0.459373,-0.147675,0.248512,16.51724,9.053737)" gradientUnits="userSpaceOnUse" id="radialGradient3738" r="17.977943" xlink:href="#linearGradient2274"/><linearGradient gradientTransform="matrix(1.296015,0,0,-1.43692,3.746576,33.20516)" gradientUnits="userSpaceOnUse" id="linearGradient3740" x1="11.74217" x2="13.846983" xlink:href="#linearGradient15107" y1="11.48487" y2="11.981981"/><linearGradient gradientTransform="matrix(1.570607,0,0,-1.231511,2.973436,33.33485)" gradientUnits="userSpaceOnUse" id="linearGradient3742" x1="10.027" x2="17.178024" xlink:href="#linearGradient15107" y1="20.219761" y2="-7.5274644"/><linearGradient gradientTransform="matrix(1.370928,0,0,-1.46456,2.525057,33.71269)" gradientUnits="userSpaceOnUse" id="linearGradient3744" x1="11.841544" x2="40.024059" xlink:href="#linearGradient9749" y1="4.2507305" y2="7.4121075"/><linearGradient gradientUnits="userSpaceOnUse" id="linearGradient3746" x1="17.397203" x2="22.17771" xlink:href="#linearGradient2573" y1="33.357376" y2="31.026741"/><radialGradient cx="6.7027131" cy="73.615714" fx="6.7027131" fy="73.615714" gradientTransform="scale(1.902215,0.525703)" gradientUnits="userSpaceOnUse" id="radialGradient16665" r="7.2284161" xlink:href="#linearGradient10691"/></defs><g id="layer1"><g id="g3186" transform="matrix(1.01362,0,0,-1.01362,11.12939,-8.619854)"/><g id="g5022" style="display:inline" transform="matrix(2.312904e-2,0,0,1.485743e-2,45.57179,30.47827)"><rect height="478.35718" id="rect4173" style="opacity:0.40206185;color:black;fill:url(#linearGradient5027);fill-opacity:1;fill-rule:nonzero;stroke:none;stroke-width:1;stroke-linecap:round;stroke-linejoin:miter;marker:none;marker-start:none;marker-mid:none;marker-end:none;stroke-miterlimit:4;stroke-dasharray:none;stroke-dashoffset:0;stroke-opacity:1;visibility:visible;display:inline;overflow:visible" width="1339.6335" x="-1559.2523" y="-150.69685"/><path d="M -219.61876,-150.68038 C -219.61876,-150.68038 -219.61876,327.65041 -219.61876,327.65041 C -76.744594,328.55086 125.78146,220.48075 125.78138,88.454235 C 125.78138,-43.572302 -33.655436,-150.68036 -219.61876,-150.68038 z " id="path5058" style="opacity:0.40206185;color:black;fill:url(#radialGradient5029);fill-opacity:1;fill-rule:nonzero;stroke:none;stroke-width:1;stroke-linecap:round;stroke-linejoin:miter;marker:none;marker-start:none;marker-mid:none;marker-end:none;stroke-miterlimit:4;stroke-dasharray:none;stroke-dashoffset:0;stroke-opacity:1;visibility:visible;display:inline;overflow:visible"/><path d="M -1559.2523,-150.68038 C -1559.2523,-150.68038 -1559.2523,327.65041 -1559.2523,327.65041 C -1702.1265,328.55086 -1904.6525,220.48075 -1904.6525,88.454235 C -1904.6525,-43.572302 -1745.2157,-150.68036 -1559.2523,-150.68038 z " id="path5018" style="opacity:0.40206185;color:black;fill:url(#radialGradient5031);fill-opacity:1;fill-rule:nonzero;stroke:none;stroke-width:1;stroke-linecap:round;stroke-linejoin:miter;marker:none;marker-start:none;marker-mid:none;marker-end:none;stroke-miterlimit:4;stroke-dasharray:none;stroke-dashoffset:0;stroke-opacity:1;visibility:visible;display:inline;overflow:visible"/></g><path d="M 26.5 38.700001 A 13.75 3.8 0 1 1  -1,38.700001 A 13.75 3.8 0 1 1  26.5 38.700001 z" id="path4202" style="opacity:0.3;color:black;fill:url(#radialGradient16665);fill-opacity:1;fill-rule:nonzero;stroke:none;stroke-width:0.80000001;stroke-linecap:butt;stroke-linejoin:miter;marker:none;marker-start:none;marker-mid:none;marker-end:none;stroke-miterlimit:4;stroke-dashoffset:0;stroke-opacity:1;visibility:visible;display:inline;overflow:visible" transform="matrix(1.178791,0,0,1.526064,14.56207,-21.53505)"/><g id="g4204" transform="matrix(1.004727,0,0,1.001609,4.209e-2,-8.972783)"><path d="M 6.34375,15.454879 L 6.34375,41.44216 L 43.3125,41.44216 L 43.25,15.554447 C 43.249987,15.548732 43.250374,15.527358 43.25,15.521258 C 43.249269,15.514776 43.251086,15.494928 43.25,15.488068 C 43.248562,15.480833 43.220538,15.462487 43.21875,15.454879 L 6.34375,15.454879 z " id="path4206" style="fill:url(#linearGradient3734);fill-opacity:1;fill-rule:evenodd;stroke:#888a85;stroke-width:0.99684346;stroke-linecap:butt;stroke-linejoin:round;stroke-miterlimit:4;stroke-dasharray:none;stroke-opacity:1"/><path d="M 20.490674,29.058712 L 7.09471,40.0307 L 21.003552,30.426394 L 30.02171,30.426394 L 42.440757,39.908587 L 30.577332,29.058712 L 20.490674,29.058712 z " id="path4208" style="fill:url(#linearGradient3736);fill-opacity:1;fill-rule:evenodd;stroke:none;stroke-width:1;stroke-linecap:butt;stroke-linejoin:miter;stroke-miterlimit:4;stroke-opacity:1"/><path d="M 7.4471445,16.725622 C 7.440469,16.738968 7.4525223,16.745279 7.4471445,16.757236 C 7.4447837,16.762865 7.4180173,16.783579 7.415987,16.788852 C 7.4142896,16.793766 7.417349,16.815911 7.415987,16.820466 C 7.4149629,16.824659 7.4166708,16.848255 7.415987,16.852082 L 7.4471445,40.341905 L 42.28123,40.341905 L 42.218915,16.97854 C 42.21823,16.974827 42.219935,16.951011 42.218915,16.946925 C 42.2043,16.898814 42.177209,16.814677 42.125442,16.725622 L 7.4471445,16.725622 z " id="path4210" style="fill:none;fill-opacity:0.75;fill-rule:evenodd;stroke:#ffffff;stroke-width:0.99684328;stroke-linecap:butt;stroke-linejoin:miter;stroke-miterlimit:4;stroke-dasharray:none;stroke-opacity:1"/><path d="M 23.329298,32.996721 C 20.937189,32.550375 7.9003872,18.771125 6.5966059,16.372022 C 6.5816495,16.343448 6.5559705,16.288608 6.5446896,16.2636 L 41.057803,16.2636 C 40.780724,18.766404 33.533576,32.769346 31.496524,32.996721 C 31.488351,32.997189 31.475247,32.996721 31.467251,32.996721 L 23.446392,32.996721 C 23.412766,32.996721 23.368838,33.004099 23.329298,32.996721 z " id="path4212" style="fill:url(#radialGradient3738);fill-opacity:1;fill-rule:evenodd;stroke:none;stroke-width:0.85660434;stroke-linecap:butt;stroke-linejoin:round;stroke-miterlimit:4;stroke-opacity:1"/><path d="M 20.77475,31.085394 C 18.407309,30.694257 7.945269,18.619435 7.1185841,16.517089 C 7.109327,16.49205 7.094677,16.443993 7.088438,16.422079 L 42.630645,16.422079 C 41.807029,18.615299 31.332195,30.886144 29.185502,31.085394 C 29.176984,31.085803 29.16359,31.085394 29.155355,31.085394 L 20.895334,31.085394 C 20.860706,31.085394 20.813881,31.091858 20.77475,31.085394 z " id="path4214" style="fill:url(#linearGradient3740);fill-opacity:1;fill-rule:evenodd;stroke:#989898;stroke-width:0.85390013;stroke-linecap:butt;stroke-linejoin:round;stroke-miterlimit:4;stroke-opacity:1"/><path d="M 20.625174,30.490479 C 18.519211,29.999928 7.7224803,17.987711 7.0314243,16.466377 C 7.0288882,16.460379 7.0336023,16.439689 7.0314243,16.434063 C 7.0259731,16.418307 7.002328,16.381764 7.0001743,16.369436 C 7.000203,16.366104 6.9997682,16.34006 7.0001743,16.337122 C 7.0013435,16.334982 7.0298695,16.338859 7.0314243,16.337122 L 7.1251743,16.240181 L 42.593924,16.240181 C 42.591209,16.264507 42.57124,16.307054 42.562674,16.337122 C 42.555173,16.360727 42.542103,16.407355 42.531424,16.434063 C 41.609326,18.615 31.023436,30.200512 29.187674,30.490479 C 29.172746,30.492123 29.138826,30.490479 29.125174,30.490479 L 20.750174,30.490479 C 20.719887,30.488811 20.66042,30.498689 20.625174,30.490479 z " id="path4216" style="fill:url(#linearGradient3742);fill-opacity:1;fill-rule:evenodd;stroke:none;stroke-width:0.25pt;stroke-linecap:butt;stroke-linejoin:miter;stroke-opacity:1"/><path d="M 20.875174,30.051141 C 18.427215,29.501671 8.7040003,18.433898 7.5314243,16.451725 L 42.125174,16.451725 C 40.634986,18.784896 31.078502,29.863516 28.968924,30.051141 C 28.960181,30.051543 28.946142,30.051141 28.937674,30.051141 L 21.031424,30.051141 C 21.00503,30.051141 20.966542,30.054692 20.937674,30.051141 C 20.917888,30.047995 20.896025,30.055821 20.875174,30.051141 z " id="path4218" style="fill:none;fill-opacity:0.75;fill-rule:evenodd;stroke:url(#linearGradient3744);stroke-width:0.85389996;stroke-linecap:butt;stroke-linejoin:miter;stroke-miterlimit:4;stroke-opacity:1"/><path d="M 20.959511,30.447113 L 9.018012,38.717969 L 11.237445,38.724076 L 21.23557,31.855136 L 30.057478,30.432298 L 20.959511,30.447113 z " id="path4220" style="fill:url(#linearGradient3746);fill-opacity:1;fill-rule:evenodd;stroke:none;stroke-width:1;stroke-linecap:butt;stroke-linejoin:miter;stroke-miterlimit:4;stroke-opacity:1"/></g><g id="g4242"><path d="M 49.785728,36.461609 C 31.871505,29.801214 51.855165,14.067224 22.462411,12.49765 L 22.462411,3.1222396 L 5.8139298,17.708819 L 22.462411,33.006349 C 22.462411,33.006349 22.462411,23.337969 22.462411,23.337969 C 39.481645,22.456387 30.293505,37.380239 49.785728,36.461609 z " id="path2801" style="color:#000000;fill:url(#linearGradient4247);fill-opacity:1;fill-rule:nonzero;stroke:url(#linearGradient4249);stroke-width:1.18245041;stroke-linecap:butt;stroke-linejoin:miter;marker:none;marker-start:none;marker-mid:none;marker-end:none;stroke-miterlimit:4;stroke-dasharray:none;stroke-dashoffset:0;stroke-opacity:1;visibility:visible;display:block;overflow:visible" transform="matrix(-0.845702,0,0,-0.845702,51.40323,49.14048)"/><path d="M 44.926064,35.103042 C 33.887008,28.727803 48.67967,14.639454 21.448701,13.549959 L 21.448701,5.4508678 C 21.448701,5.4508678 7.4009628,17.714589 7.4009628,17.714589 L 21.448701,30.658617 C 21.448701,30.658617 21.448701,22.380979 21.448701,22.380979 C 37.544904,20.111228 34.130549,34.399548 44.926064,35.103042 z " id="path2803" style="opacity:0.7;color:#000000;fill:none;fill-opacity:1;fill-rule:nonzero;stroke:url(#linearGradient4251);stroke-width:1.18244982;stroke-linecap:butt;stroke-linejoin:miter;marker:none;marker-start:none;marker-mid:none;marker-end:none;stroke-miterlimit:10;stroke-dasharray:none;stroke-dashoffset:0;stroke-opacity:1;visibility:visible;display:block;overflow:visible" transform="matrix(-0.845702,0,0,-0.845702,51.40323,49.14048)"/><path d="M 32.84375,38.1875 L 32.78125,45.5 L 45.875,34.15625 L 32.84375,22.09375 C 32.843751,22.093751 32.78125,29.65625 32.78125,29.65625 C 20.263051,32.276806 23.547112,18.410613 11.6875,18.9375 C 22.872464,24.02322 9.730253,37.29154 32.84375,38.1875 z M 40.78125,29.625 C 40.860491,29.620211 40.917074,29.627336 41,29.625 L 45.8125,34.1875 L 32.875,45.46875 L 32.78125,38.15625 L 28.59375,37.625 C 37.938693,35.049622 35.789049,29.926677 40.78125,29.625 z " id="path2490" style="color:#000000;fill:url(#linearGradient4253);fill-opacity:1;fill-rule:nonzero;stroke:none;stroke-width:1.18245041;stroke-linecap:butt;stroke-linejoin:miter;marker:none;marker-start:none;marker-mid:none;marker-end:none;stroke-miterlimit:4;stroke-dasharray:none;stroke-dashoffset:0;stroke-opacity:1;visibility:visible;display:block;overflow:visible"/></g></g></svg>