<?xml version="1.0" ?><svg height="48px" id="svg11300" width="48px" xmlns="http://www.w3.org/2000/svg" xmlns:cc="http://creativecommons.org/ns#" xmlns:dc="http://purl.org/dc/elements/1.1/" xmlns:inkscape="http://www.inkscape.org/namespaces/inkscape" xmlns:rdf="http://www.w3.org/1999/02/22-rdf-syntax-ns#" xmlns:sodipodi="http://sodipodi.sourceforge.net/DTD/sodipodi-0.dtd" xmlns:svg="http://www.w3.org/2000/svg" xmlns:xlink="http://www.w3.org/1999/xlink"><defs id="defs3"><linearGradient id="linearGradient5166"><stop id="stop5168" offset="0" style="stop-color:white;stop-opacity:1;"/><stop id="stop5170" offset="1" style="stop-color:white;stop-opacity:0;"/></linearGradient><linearGradient id="linearGradient5196"><stop id="stop5198" offset="0" style="stop-color:#dfe2dc;stop-opacity:1;"/><stop id="stop5200" offset="1" style="stop-color:#86917a;stop-opacity:1;"/></linearGradient><linearGradient id="linearGradient5188"><stop id="stop5190" offset="0" style="stop-color:white;stop-opacity:1;"/><stop id="stop5192" offset="1" style="stop-color:#aeaea3;stop-opacity:1;"/></linearGradient><linearGradient id="linearGradient5176"><stop id="stop5178" offset="0" style="stop-color:black;stop-opacity:1;"/><stop id="stop5180" offset="1" style="stop-color:black;stop-opacity:0;"/></linearGradient><linearGradient id="linearGradient5162"><stop id="stop5164" offset="0" style="stop-color:#babdb6;stop-opacity:1;"/><stop id="stop5166" offset="1" style="stop-color:white;stop-opacity:1;"/></linearGradient><linearGradient id="linearGradient5150"><stop id="stop5152" offset="0" style="stop-color:black;stop-opacity:1;"/><stop id="stop5154" offset="1" style="stop-color:black;stop-opacity:0;"/></linearGradient><linearGradient id="linearGradient11520"><stop id="stop11522" offset="0.0000000" style="stop-color:#ffffff;stop-opacity:1.0000000;"/><stop id="stop11524" offset="1.0000000" style="stop-color:#dcdcdc;stop-opacity:1.0000000;"/></linearGradient><linearGradient id="linearGradient11508"><stop id="stop11510" offset="0" style="stop-color:#000000;stop-opacity:1;"/><stop id="stop11512" offset="1" style="stop-color:#000000;stop-opacity:0;"/></linearGradient><linearGradient id="linearGradient11494"><stop id="stop11496" offset="0" style="stop-color:#ef2929;stop-opacity:1;"/><stop id="stop11498" offset="1" style="stop-color:#ef2929;stop-opacity:0;"/></linearGradient><linearGradient id="linearGradient11415"><stop id="stop11417" offset="0.0000000" style="stop-color:#204a87;stop-opacity:0.0000000;"/><stop id="stop11423" offset="0.50000000" style="stop-color:#204a87;stop-opacity:1.0000000;"/><stop id="stop11419" offset="1" style="stop-color:#204a87;stop-opacity:0;"/></linearGradient><linearGradient id="linearGradient11399"><stop id="stop11401" offset="0" style="stop-color:#000000;stop-opacity:1;"/><stop id="stop11403" offset="1" style="stop-color:#000000;stop-opacity:0;"/></linearGradient><linearGradient gradientTransform="translate(-60.28571,-0.285714)" gradientUnits="userSpaceOnUse" id="linearGradient11425" x1="15.828360" x2="43.615788" xlink:href="#linearGradient11415" y1="3.7744560" y2="34.462429"/><linearGradient gradientTransform="translate(-60.57143,0.000000)" gradientUnits="userSpaceOnUse" id="linearGradient11427" x1="9.6957054" x2="35.679932" xlink:href="#linearGradient11415" y1="9.3458843" y2="39.033859"/><linearGradient gradientTransform="translate(-60.85714,0.428571)" gradientUnits="userSpaceOnUse" id="linearGradient11439" x1="13.267134" x2="26.758644" xlink:href="#linearGradient11415" y1="19.774456" y2="33.462429"/><radialGradient cx="12.071428" cy="39.142857" fx="12.071428" fy="39.142857" gradientTransform="matrix(1.000000,0.000000,0.000000,0.487395,0.000000,20.06483)" gradientUnits="userSpaceOnUse" id="radialGradient11441" r="8.5000000" xlink:href="#linearGradient11399"/><radialGradient cx="27.577173" cy="15.048258" fx="27.577173" fy="15.048258" gradientTransform="matrix(1.243453,2.106784e-16,-2.106784e-16,1.243453,-6.713754,-3.742847)" gradientUnits="userSpaceOnUse" id="radialGradient11500" r="3.8335034" xlink:href="#linearGradient11494"/><radialGradient cx="27.577173" cy="16.049133" fx="27.577173" fy="16.049133" gradientTransform="matrix(1.243453,2.106784e-16,-2.106784e-16,1.243453,-6.713754,-3.742847)" gradientUnits="userSpaceOnUse" id="radialGradient11504" r="3.8335034" xlink:href="#linearGradient11494"/><radialGradient cx="30.203562" cy="44.565483" fx="30.203562" fy="44.565483" gradientTransform="matrix(1.000000,0.000000,0.000000,0.338462,2.166583e-14,29.48178)" gradientUnits="userSpaceOnUse" id="radialGradient11514" r="6.5659914" xlink:href="#linearGradient11508"/><radialGradient cx="24.445690" cy="35.878170" fx="24.445690" fy="35.878170" gradientTransform="matrix(1.995058,-1.651527e-32,0.000000,1.995058,-24.32488,-35.70087)" gradientUnits="userSpaceOnUse" id="radialGradient11526" r="20.530962" xlink:href="#linearGradient11520"/><radialGradient cx="30.203562" cy="44.565483" fx="30.203562" fy="44.565483" gradientTransform="matrix(1.000000,0.000000,0.000000,0.338462,3.185827e-15,29.48178)" gradientUnits="userSpaceOnUse" id="radialGradient11532" r="6.5659914" xlink:href="#linearGradient11508"/><radialGradient cx="30.203562" cy="44.565483" fx="30.203562" fy="44.565483" gradientTransform="matrix(1.000000,0.000000,0.000000,0.338462,-1.353344e-14,29.48178)" gradientUnits="userSpaceOnUse" id="radialGradient1348" r="6.5659914" xlink:href="#linearGradient11508"/><radialGradient cx="24.445690" cy="35.878170" fx="24.445690" fy="35.878170" gradientTransform="matrix(1.995058,-1.651527e-32,0.000000,1.995058,-24.32488,-35.70087)" gradientUnits="userSpaceOnUse" id="radialGradient1350" r="20.530962" xlink:href="#linearGradient11520"/><radialGradient cx="27.577173" cy="16.049133" fx="27.577173" fy="16.049133" gradientTransform="matrix(1.243453,2.106784e-16,-2.106784e-16,1.243453,-6.713754,-3.742847)" gradientUnits="userSpaceOnUse" id="radialGradient1352" r="3.8335034" xlink:href="#linearGradient11494"/><radialGradient cx="27.577173" cy="15.048258" fx="27.577173" fy="15.048258" gradientTransform="matrix(1.243453,2.106784e-16,-2.106784e-16,1.243453,-6.713754,-3.742847)" gradientUnits="userSpaceOnUse" id="radialGradient1354" r="3.8335034" xlink:href="#linearGradient11494"/><radialGradient cx="30.203562" cy="44.565483" fx="30.203562" fy="44.565483" gradientTransform="matrix(1.000000,0.000000,0.000000,0.338462,2.220359e-14,29.48178)" gradientUnits="userSpaceOnUse" id="radialGradient1356" r="6.5659914" xlink:href="#linearGradient11508"/><radialGradient cx="24.445690" cy="35.878170" fx="24.445690" fy="35.878170" gradientTransform="matrix(2.049266,-1.696401e-32,0.000000,2.049266,-25.65002,-37.31089)" gradientUnits="userSpaceOnUse" id="radialGradient1366" r="20.530962" xlink:href="#linearGradient11520"/><radialGradient cx="24.837126" cy="40.663769" fx="24.837126" fy="40.663769" gradientTransform="matrix(1,0,0,0.325103,2.211772e-16,27.44386)" gradientUnits="userSpaceOnUse" id="radialGradient5156" r="21.478369" xlink:href="#linearGradient5150"/><linearGradient gradientUnits="userSpaceOnUse" id="linearGradient5168" x1="24.365993" x2="32.600704" xlink:href="#linearGradient5162" y1="20.246058" y2="28.554564"/><linearGradient gradientUnits="userSpaceOnUse" id="linearGradient5170" x1="22.008699" x2="23.585091" xlink:href="#linearGradient5162" y1="36.509514" y2="14.412428"/><linearGradient gradientUnits="userSpaceOnUse" id="linearGradient5182" x1="25.632622" x2="38.714096" xlink:href="#linearGradient5176" y1="10.611729" y2="18.389904"/><radialGradient cx="23.688078" cy="14.210698" fx="23.688078" fy="14.210698" gradientTransform="matrix(2.135667,1.912751e-16,-1.890308e-16,2.110607,-26.90176,-15.66914)" gradientUnits="userSpaceOnUse" id="radialGradient5361" r="22.597087" xlink:href="#linearGradient5188"/><radialGradient cx="20.089987" cy="10.853651" fx="20.089987" fy="10.853651" gradientTransform="matrix(1.790269,1.339577e-16,-1.323859e-16,1.769263,-15.81394,-11.94997)" gradientUnits="userSpaceOnUse" id="radialGradient5363" r="22.597087" xlink:href="#linearGradient5196"/><linearGradient gradientUnits="userSpaceOnUse" id="linearGradient5172" x1="19.450956" x2="23.71875" xlink:href="#linearGradient5166" y1="14.463861" y2="48.404987"/></defs><g id="layer1"><path d="M 46.315495 40.663769 A 21.478369 6.9826794 0 1 1  3.358757,40.663769 A 21.478369 6.9826794 0 1 1  46.315495 40.663769 z" id="path4275" style="opacity:0.3258427;color:black;fill:url(#radialGradient5156);fill-opacity:1;fill-rule:evenodd;stroke:none;stroke-width:1;stroke-linecap:butt;stroke-linejoin:miter;marker:none;marker-start:none;marker-mid:none;marker-end:none;stroke-miterlimit:4;stroke-dasharray:none;stroke-dashoffset:0;stroke-opacity:1;visibility:visible;display:inline;overflow:visible" transform="matrix(1.106996,0,0,1.106996,-3.364576,-5.411516)"/><path d="M 9.0156115,37.570175 L 7.2478445,40.398602 L 10.960155,41.989592 L 13.611806,39.868272 L 25.455844,40.752155 L 29.168155,45.701903 L 32.526912,40.221825 L 36.769553,42.519922 L 42.426407,41.812816 L 41.012193,38.807612 L 44.901281,34.918524 L 39.421203,28.73134 L 44.724504,29.438447 L 47.022601,27.317127 L 44.017397,27.847457 L 40.835417,22.367379 L 36.239223,21.306719 L 39.951533,20.069282 L 40.12831,16.887302 L 32.880465,10.523341 L 30.228815,2.0380592 L 18.208,5.5735931 L 15.202796,12.644661 L 14.142136,10.346564 L 11.136932,10.523341 L 11.136932,13.351768 L 7.6013979,9.2859037 L 2.8284271,14.412428 L 2.8284271,21.660272 L 11.136932,28.908117 L 5.833631,31.913321 L 6.0104076,34.918524 L 9.0156115,37.570175 z " id="path4273" style="opacity:1;color:black;fill:url(#radialGradient5361);fill-opacity:1;fill-rule:evenodd;stroke:url(#radialGradient5363);stroke-width:1;stroke-linecap:butt;stroke-linejoin:miter;marker:none;marker-start:none;marker-mid:none;marker-end:none;stroke-miterlimit:4;stroke-dasharray:none;stroke-dashoffset:0;stroke-opacity:1;visibility:visible;display:inline;overflow:visible"/><path d="M 19.445437,22.720933 L 18.561553,29.26167 L 20.682873,32.620427 L 16.086679,34.034641 L 13.435029,39.337942 L 25.455844,40.221825 L 28.284271,44.287689 L 30.582368,38.100505 L 26.162951,35.272078 L 19.445437,37.216622 L 22.097087,33.681088 L 20.682873,27.493903 L 19.445437,22.720933 z " id="path5158" style="opacity:0.76966292;color:black;fill:url(#linearGradient5170);fill-opacity:1;fill-rule:evenodd;stroke:none;stroke-width:1;stroke-linecap:butt;stroke-linejoin:miter;marker:none;marker-start:none;marker-mid:none;marker-end:none;stroke-miterlimit:4;stroke-dasharray:none;stroke-dashoffset:0;stroke-opacity:1;visibility:visible;display:inline;overflow:visible"/><path d="M 20.506097,23.781593 L 24.925514,30.675884 L 32.173359,25.726136 L 36.592776,28.20101 L 40.12831,25.195806 L 43.31029,28.024233 L 40.305087,23.074486 L 33.410795,21.483496 L 24.748737,17.240855 C 24.748737,17.240855 12.374369,20.953166 13.081475,20.953166 C 13.788582,20.953166 23.334524,21.129942 23.334524,21.129942 L 24.925514,18.831845 L 29.168155,20.776389 L 20.506097,23.781593 z " id="path5160" style="opacity:0.61797753;color:black;fill:url(#linearGradient5168);fill-opacity:1.0;fill-rule:evenodd;stroke:none;stroke-width:1;stroke-linecap:butt;stroke-linejoin:miter;marker:none;marker-start:none;marker-mid:none;marker-end:none;stroke-miterlimit:4;stroke-dasharray:none;stroke-dashoffset:0;stroke-opacity:1;visibility:visible;display:inline;overflow:visible"/><path d="M 29.521708,3.4522727 L 19.091883,6.9878066 L 17.67767,10.876894 L 23.688077,15.119535 L 29.344931,9.6394571 L 29.521708,3.4522727 z " id="path5172" style="opacity:1;color:black;fill:white;fill-opacity:1;fill-rule:evenodd;stroke:none;stroke-width:1;stroke-linecap:butt;stroke-linejoin:miter;marker:none;marker-start:none;marker-mid:none;marker-end:none;stroke-miterlimit:4;stroke-dasharray:none;stroke-dashoffset:0;stroke-opacity:1;visibility:visible;display:inline;overflow:visible"/><path d="M 29.698485,3.8058261 L 31.996582,11.230447 L 36.239223,14.942758 L 27.577165,12.998214 C 27.577165,12.998214 25.102291,15.826641 26.162951,15.826641 C 27.223611,15.826641 38.714096,17.240855 38.714096,17.240855 L 38.53732,19.538952 L 22.273864,16.533748 L 29.344931,9.9930105 L 29.698485,3.8058261 z " id="path5174" style="opacity:0.13483146;color:black;fill:url(#linearGradient5182);fill-opacity:1.0;fill-rule:evenodd;stroke:none;stroke-width:1;stroke-linecap:butt;stroke-linejoin:miter;marker:none;marker-start:none;marker-mid:none;marker-end:none;stroke-miterlimit:4;stroke-dasharray:none;stroke-dashoffset:0;stroke-opacity:1;visibility:visible;display:inline;overflow:visible"/><path d="M 7.4246212,14.235651 L 6.5407377,23.074486 L 8.4852814,17.064078 L 13.611806,18.655069 L 14.849242,16.003418 L 21.036427,16.887302 L 22.45064,15.649865 L 13.435029,15.296311 L 12.551145,17.771185 L 8.6620581,15.826641 L 7.4246212,14.235651 z " id="path5184" style="opacity:1;color:black;fill:white;fill-opacity:1;fill-rule:evenodd;stroke:none;stroke-width:1;stroke-linecap:butt;stroke-linejoin:miter;marker:none;marker-start:none;marker-mid:none;marker-end:none;stroke-miterlimit:4;stroke-dasharray:none;stroke-dashoffset:0;stroke-opacity:1;visibility:visible;display:inline;overflow:visible"/><path d="M 22.45064,27.317127 L 25.455844,30.852661 L 32.350135,26.256466 L 36.592776,28.554563 L 43.487067,35.095301 L 35.885669,29.26167 L 32.173359,28.20101 L 24.925514,33.150758 L 22.45064,27.317127 z " id="path5186" style="opacity:1;color:black;fill:white;fill-opacity:1;fill-rule:evenodd;stroke:none;stroke-width:1;stroke-linecap:butt;stroke-linejoin:miter;marker:none;marker-start:none;marker-mid:none;marker-end:none;stroke-miterlimit:4;stroke-dasharray:none;stroke-dashoffset:0;stroke-opacity:1;visibility:visible;display:inline;overflow:visible"/><path d="M 29.65625,3.09375 L 18.84375,6.25 L 15.96875,13 C 15.834262,13.30255 15.53422,13.497528 15.203125,13.497528 C 14.87203,13.497528 14.571988,13.30255 14.4375,13 L 13.65625,11.21875 L 11.96875,11.3125 L 11.96875,13.34375 C 11.973462,13.69495 11.758625,14.011813 11.430625,14.13743 C 11.102625,14.263047 10.731089,14.170753 10.5,13.90625 L 7.5625,10.53125 L 3.6875,14.71875 L 3.6875,21.28125 L 11.6875,28.28125 C 11.883657,28.462891 11.981357,28.727236 11.950479,28.992788 C 11.919601,29.25834 11.763852,29.493214 11.53125,29.625 L 6.71875,32.375 L 6.8125,34.5 L 9.5625,36.9375 C 9.8645501,37.207345 9.9303261,37.654622 9.71875,38 L 8.46875,40 L 10.84375,41.03125 L 13.09375,39.21875 C 13.260233,39.0823 13.472846,39.015159 13.6875,39.03125 L 25.53125,39.90625 C 25.769158,39.930835 25.985219,40.055923 26.125,40.25 L 29.09375,44.21875 L 31.8125,39.78125 C 32.041236,39.389926 32.539705,39.251463 32.9375,39.46875 L 36.96875,41.65625 L 41.1875,41.125 L 40.25,39.1875 C 40.087762,38.864671 40.150741,38.474201 40.40625,38.21875 L 43.75,34.875 L 38.78125,29.28125 C 38.529387,29.019826 38.474521,28.625949 38.645349,28.305645 C 38.816178,27.985341 39.17384,27.811478 39.53125,27.875 L 43.40625,28.40625 C 43.369413,28.35773 43.337977,28.305337 43.3125,28.25 L 40.3125,23.09375 L 36.0625,22.125 C 35.709163,22.034799 35.454745,21.726417 35.433331,21.362378 C 35.411917,20.998338 35.628425,20.662254 35.96875,20.53125 L 39.125,19.46875 L 39.25,17.21875 L 32.3125,11.15625 C 32.19648,11.05643 32.110019,10.926737 32.0625,10.78125 L 29.65625,3.09375 z " id="path5359" style="opacity:1;color:black;fill:none;fill-opacity:1;fill-rule:evenodd;stroke:url(#linearGradient5172);stroke-width:1;stroke-linecap:butt;stroke-linejoin:miter;marker:none;marker-start:none;marker-mid:none;marker-end:none;stroke-miterlimit:4;stroke-dasharray:none;stroke-dashoffset:0;stroke-opacity:1;visibility:visible;display:inline;overflow:visible" xlink:href="#path4273"/></g></svg>