<?xml version="1.0" ?><svg height="48.000000px" id="svg14603" width="48.000000px" xmlns="http://www.w3.org/2000/svg" xmlns:cc="http://creativecommons.org/ns#" xmlns:dc="http://purl.org/dc/elements/1.1/" xmlns:inkscape="http://www.inkscape.org/namespaces/inkscape" xmlns:rdf="http://www.w3.org/1999/02/22-rdf-syntax-ns#" xmlns:sodipodi="http://sodipodi.sourceforge.net/DTD/sodipodi-0.dtd" xmlns:svg="http://www.w3.org/2000/svg" xmlns:xlink="http://www.w3.org/1999/xlink"><defs id="defs3"><radialGradient cx="605.71429" cy="486.64789" fx="605.71429" fy="486.64789" gradientTransform="matrix(-2.774389,0,0,1.969706,112.7623,-872.8854)" gradientUnits="userSpaceOnUse" id="radialGradient5031" r="117.14286" xlink:href="#linearGradient5060"/><linearGradient id="linearGradient5060"><stop id="stop5062" offset="0" style="stop-color:black;stop-opacity:1;"/><stop id="stop5064" offset="1" style="stop-color:black;stop-opacity:0;"/></linearGradient><radialGradient cx="605.71429" cy="486.64789" fx="605.71429" fy="486.64789" gradientTransform="matrix(2.774389,0,0,1.969706,-1891.633,-872.8854)" gradientUnits="userSpaceOnUse" id="radialGradient5029" r="117.14286" xlink:href="#linearGradient5060"/><linearGradient id="linearGradient5048"><stop id="stop5050" offset="0" style="stop-color:black;stop-opacity:0;"/><stop id="stop5056" offset="0.5" style="stop-color:black;stop-opacity:1;"/><stop id="stop5052" offset="1" style="stop-color:black;stop-opacity:0;"/></linearGradient><linearGradient gradientTransform="matrix(2.774389,0,0,1.969706,-1892.179,-872.8854)" gradientUnits="userSpaceOnUse" id="linearGradient5027" x1="302.85715" x2="302.85715" xlink:href="#linearGradient5048" y1="366.64789" y2="609.50507"/><linearGradient id="linearGradient7844"><stop id="stop7846" offset="0" style="stop-color:#000000;stop-opacity:1;"/><stop id="stop7848" offset="1" style="stop-color:#000000;stop-opacity:0;"/></linearGradient><linearGradient id="linearGradient7834"><stop id="stop7836" offset="0" style="stop-color:#ffffff;stop-opacity:1;"/><stop id="stop7838" offset="1" style="stop-color:#ffffff;stop-opacity:0;"/></linearGradient><linearGradient id="linearGradient7670"><stop id="stop7672" offset="0" style="stop-color:#dfdfdf;stop-opacity:1;"/><stop id="stop7674" offset="1.0000000" style="stop-color:#c0c0c0;stop-opacity:1.0000000;"/></linearGradient><linearGradient gradientTransform="matrix(1.008511,0.000000,0.000000,1.000000,-47.59576,-0.285714)" gradientUnits="userSpaceOnUse" id="linearGradient7676" x1="64.571426" x2="72.857140" xlink:href="#linearGradient7670" y1="9.7142859" y2="40.857143"/><linearGradient gradientTransform="translate(-2.000000,0.000000)" gradientUnits="userSpaceOnUse" id="linearGradient7840" x1="19.362535" x2="19.323767" xlink:href="#linearGradient7834" y1="11.312428" y2="0.50379461"/><radialGradient cx="24.546707" cy="37.595428" fx="24.546707" fy="37.595428" gradientTransform="matrix(1.000000,0.000000,0.000000,0.333333,1.298874e-16,25.06362)" gradientUnits="userSpaceOnUse" id="radialGradient7850" r="22.728432" xlink:href="#linearGradient7844"/><linearGradient gradientUnits="userSpaceOnUse" id="aigrd1" x1="14.9966" x2="32.511" y1="11.1885" y2="34.3075"><stop id="stop3034" offset="0" style="stop-color:#EBEBEB"/><stop id="stop3036" offset="0.5" style="stop-color:#FFFFFF"/><stop id="stop3038" offset="1" style="stop-color:#EBEBEB"/></linearGradient><linearGradient gradientUnits="userSpaceOnUse" id="aigrd2" x1="12.2744" x2="35.3912" y1="32.4165" y2="14.2033"><stop id="stop3043" offset="0" style="stop-color:#FBFBFB"/><stop id="stop3045" offset="0.5" style="stop-color:#B6B6B6"/><stop id="stop3047" offset="1" style="stop-color:#E4E4E4"/></linearGradient><linearGradient id="linearGradient4236"><stop id="stop4238" offset="0.0000000" style="stop-color:#ffffff;stop-opacity:0.32673267;"/><stop id="stop4240" offset="1.0000000" style="stop-color:#ffffff;stop-opacity:0.60396039;"/></linearGradient><linearGradient id="linearGradient6028"><stop id="stop6030" offset="0" style="stop-color:#ffffff;stop-opacity:1;"/><stop id="stop6032" offset="1" style="stop-color:#ffffff;stop-opacity:0;"/></linearGradient><linearGradient id="linearGradient6036"><stop id="stop6038" offset="0" style="stop-color:#ffffff;stop-opacity:1;"/><stop id="stop6040" offset="1" style="stop-color:#ffffff;stop-opacity:0;"/></linearGradient><linearGradient gradientUnits="userSpaceOnUse" id="linearGradient3394" x1="12.2744" x2="35.3912" y1="32.4165" y2="14.2033"><stop id="stop3396" offset="0.0000000" style="stop-color:#fff307;stop-opacity:1.0000000;"/><stop id="stop3398" offset="0.50000000" style="stop-color:#166eff;stop-opacity:1.0000000;"/><stop id="stop3400" offset="1.0000000" style="stop-color:#ffffff;stop-opacity:0.0000000;"/></linearGradient><radialGradient cx="24.546707" cy="37.595428" fx="24.546707" fy="37.595428" gradientTransform="matrix(1.000000,0.000000,0.000000,0.333333,1.121564e-14,25.06362)" gradientUnits="userSpaceOnUse" id="radialGradient10566" r="22.728432" xlink:href="#linearGradient7844"/><linearGradient gradientTransform="matrix(0.683145,0.000000,0.000000,0.683145,18.55581,18.12886)" gradientUnits="userSpaceOnUse" id="linearGradient10568" x1="14.9966" x2="32.511" xlink:href="#aigrd1" y1="11.1885" y2="34.3075"/><linearGradient gradientTransform="matrix(0.705308,0.000000,0.000000,0.705308,18.02392,17.61692)" gradientUnits="userSpaceOnUse" id="linearGradient10570" x1="12.2744" x2="35.3912" xlink:href="#aigrd2" y1="32.4165" y2="14.2033"/><linearGradient gradientTransform="matrix(0.717302,0.000000,0.000000,0.717302,17.73603,18.06909)" gradientUnits="userSpaceOnUse" id="linearGradient10572" x1="21.125000" x2="29.000000" xlink:href="#linearGradient4236" y1="14.625000" y2="28.000000"/><linearGradient gradientTransform="matrix(0.717302,0.000000,0.000000,0.717302,17.73603,18.06909)" gradientUnits="userSpaceOnUse" id="linearGradient10574" x1="21.125000" x2="29.000000" xlink:href="#linearGradient4236" y1="14.625000" y2="28.000000"/><linearGradient gradientTransform="matrix(0.573842,0.000000,0.000000,0.573842,20.97995,19.56347)" gradientUnits="userSpaceOnUse" id="linearGradient10576" x1="10.501720" x2="48.798885" xlink:href="#linearGradient6036" y1="3.6100161" y2="54.698483"/><linearGradient gradientUnits="userSpaceOnUse" id="linearGradient10578" x1="28.702885" x2="17.742729" xlink:href="#linearGradient6028" y1="31.494707" y2="18.366575"/><radialGradient cx="37.751469" cy="27.569166" fx="37.751469" fy="27.569166" gradientTransform="matrix(0.441746,0.498655,-0.407098,0.360624,32.00755,10.21308)" gradientUnits="userSpaceOnUse" id="radialGradient10580" r="21.333334" xlink:href="#linearGradient3394"/></defs><g id="layer1"><path d="M 7.0663522,9.8326324 L 11.142857,5.5714286 L 34.714286,5.5714286 L 39.034663,9.9336477 L 7.0663522,9.8326324 z " id="path7822" style="opacity:1.0000000;color:#000000;fill:#6b6c69;fill-opacity:1.0000000;fill-rule:evenodd;stroke:#606060;stroke-width:1.0000000;stroke-linecap:round;stroke-linejoin:round;marker:none;marker-start:none;marker-mid:none;marker-end:none;stroke-miterlimit:4.0000000;stroke-dasharray:none;stroke-dashoffset:0.0000000;stroke-opacity:1.0000000;visibility:visible;display:inline;overflow:visible"/><g id="g5022" transform="matrix(2.01828e-2,0,0,2.086758e-2,41.09416,37.29644)"><rect height="478.35718" id="rect4173" style="opacity:0.40206185;color:black;fill:url(#linearGradient5027);fill-opacity:1;fill-rule:nonzero;stroke:none;stroke-width:1;stroke-linecap:round;stroke-linejoin:miter;marker:none;marker-start:none;marker-mid:none;marker-end:none;stroke-miterlimit:4;stroke-dasharray:none;stroke-dashoffset:0;stroke-opacity:1;visibility:visible;display:inline;overflow:visible" width="1339.6335" x="-1559.2523" y="-150.69685"/><path d="M -219.61876,-150.68038 C -219.61876,-150.68038 -219.61876,327.65041 -219.61876,327.65041 C -76.744594,328.55086 125.78146,220.48075 125.78138,88.454235 C 125.78138,-43.572302 -33.655436,-150.68036 -219.61876,-150.68038 z " id="path5058" style="opacity:0.40206185;color:black;fill:url(#radialGradient5029);fill-opacity:1;fill-rule:nonzero;stroke:none;stroke-width:1;stroke-linecap:round;stroke-linejoin:miter;marker:none;marker-start:none;marker-mid:none;marker-end:none;stroke-miterlimit:4;stroke-dasharray:none;stroke-dashoffset:0;stroke-opacity:1;visibility:visible;display:inline;overflow:visible"/><path d="M -1559.2523,-150.68038 C -1559.2523,-150.68038 -1559.2523,327.65041 -1559.2523,327.65041 C -1702.1265,328.55086 -1904.6525,220.48075 -1904.6525,88.454235 C -1904.6525,-43.572302 -1745.2157,-150.68036 -1559.2523,-150.68038 z " id="path5018" style="opacity:0.40206185;color:black;fill:url(#radialGradient5031);fill-opacity:1;fill-rule:nonzero;stroke:none;stroke-width:1;stroke-linecap:round;stroke-linejoin:miter;marker:none;marker-start:none;marker-mid:none;marker-end:none;stroke-miterlimit:4;stroke-dasharray:none;stroke-dashoffset:0;stroke-opacity:1;visibility:visible;display:inline;overflow:visible"/></g><rect height="31.142857" id="rect6910" rx="1.4285721" ry="1.4285715" style="opacity:1.0000000;color:#000000;fill:url(#linearGradient7676);fill-opacity:1.0000000;fill-rule:evenodd;stroke:#606060;stroke-width:1.0000001;stroke-linecap:butt;stroke-linejoin:miter;marker:none;marker-start:none;marker-mid:none;marker-end:none;stroke-miterlimit:4.0000000;stroke-dasharray:none;stroke-dashoffset:0.0000000;stroke-opacity:1.0000000;visibility:visible;display:inline;overflow:visible" width="32.848644" x="6.5756874" y="9.4285717"/><path d="M 38.857143,22.756128 L 38.857143,39.184701 C 38.857143,39.659558 38.494011,40.041844 38.042945,40.041844 L 15.874474,40.041844 L 15.923863,22.756128 C 15.923863,22.756128 38.857143,22.756128 38.857143,22.756128 z " id="rect7826" style="color:#000000;fill:#a40000;fill-opacity:1.0000000;fill-rule:evenodd;stroke:none;stroke-width:1.0000000;stroke-linecap:butt;stroke-linejoin:miter;marker:none;marker-start:none;marker-mid:none;marker-end:none;stroke-miterlimit:4.0000000;stroke-dasharray:1.0000000 1.0000000 ;stroke-dashoffset:0.0000000;stroke-opacity:1.0000000;visibility:visible;display:inline;overflow:visible"/><path d="M 15.379549,11.285714 L 15.379549,39.285714" id="path7824" style="opacity:1.0000000;color:#000000;fill:none;fill-opacity:1.0000000;fill-rule:evenodd;stroke:#606060;stroke-width:1.0000000;stroke-linecap:butt;stroke-linejoin:miter;marker:none;marker-start:none;marker-mid:none;marker-end:none;stroke-miterlimit:4.0000000;stroke-dasharray:1.0000000 1.0000000 ;stroke-dashoffset:0.0000000;stroke-opacity:1.0000000;visibility:visible;display:inline;overflow:visible"/><path d="M 38.857143,22.613273 L 38.857143,11.470414 C 38.857143,10.995557 38.494011,10.613271 38.042945,10.613271 L 15.874474,10.613271 L 15.923863,22.613273 C 15.923863,22.613273 38.857143,22.613273 38.857143,22.613273 z " id="path10582" style="color:#000000;fill:#f0f0f0;fill-opacity:1.0000000;fill-rule:evenodd;stroke:none;stroke-width:1.0000000;stroke-linecap:butt;stroke-linejoin:miter;marker:none;marker-start:none;marker-mid:none;marker-end:none;stroke-miterlimit:4.0000000;stroke-dasharray:1.0000000 1.0000000 ;stroke-dashoffset:0.0000000;stroke-opacity:1.0000000;visibility:visible;display:inline;overflow:visible"/><path d="M 11.512932,6.5274685 C 11.512932,6.5274685 34.285047,6.5274685 34.285047,6.5274685 C 34.285047,6.5274685 38.542046,10.784467 38.542046,10.784467 L 38.542046,39.215524 C 38.542046,39.503290 38.310378,39.734958 38.022612,39.734958 L 7.9773979,39.734958 C 7.6896315,39.734958 7.4579639,39.503290 7.4579639,39.215524 L 7.4579639,10.784467 C 7.4579639,10.784467 11.512932,6.5274685 11.512932,6.5274685 z " id="rect7829" style="opacity:0.62566847;color:#000000;fill:none;fill-opacity:1.0000000;fill-rule:evenodd;stroke:url(#linearGradient7840);stroke-width:0.99999994;stroke-linecap:butt;stroke-linejoin:miter;marker:none;marker-start:none;marker-mid:none;marker-end:none;stroke-miterlimit:4.0000000;stroke-dashoffset:0.0000000;stroke-opacity:1.0000000;visibility:visible;display:inline;overflow:visible"/><g id="g10554" transform="translate(-0.999997,-0.285714)"><path d="M 47.275139 37.595428 A 22.728432 7.5761442 0 1 1  1.8182755,37.595428 A 22.728432 7.5761442 0 1 1  47.275139 37.595428 z" id="path10170" style="opacity:0.62566847;color:#000000;fill:url(#radialGradient10566);fill-opacity:1.0000000;fill-rule:evenodd;stroke:none;stroke-width:1.0000000;stroke-linecap:round;stroke-linejoin:round;marker:none;marker-start:none;marker-mid:none;marker-end:none;stroke-miterlimit:4.0000000;stroke-dasharray:1.0000000 1.0000000 ;stroke-dashoffset:0.0000000;stroke-opacity:1.0000000;visibility:visible;display:inline;overflow:visible" transform="matrix(0.550240,0.000000,0.000000,0.550240,19.89726,20.62321)"/><g id="g10156" transform="translate(-1.642857,-2.642857)"><path d="M 34.951289,21.954475 C 28.324780,21.954475 22.996247,27.283008 22.996247,33.909517 C 22.996247,40.536026 28.324780,45.864559 34.951289,45.864559 C 41.577799,45.864559 46.906332,40.536026 46.906332,33.909517 C 46.906332,27.283008 41.577799,21.954475 34.951289,21.954475 L 34.951289,21.954475 z M 34.951289,36.778727 C 33.380055,36.778727 32.082079,35.480751 32.082079,33.909517 C 32.082079,32.338283 33.380055,31.040307 34.951289,31.040307 C 36.522523,31.040307 37.820499,32.338283 37.820499,33.909517 C 37.820499,35.480751 36.522523,36.778727 34.951289,36.778727 z " id="path3040" style="fill:url(#linearGradient10568);fill-rule:nonzero;stroke:none;stroke-miterlimit:4.0000000"/><path d="M 34.951305,21.566644 C 28.109819,21.566644 22.608417,27.068045 22.608417,33.909532 C 22.608417,40.751018 28.109819,46.252419 34.951305,46.252419 C 41.792792,46.252419 47.294193,40.751018 47.294193,33.909532 C 47.294193,27.068045 41.792792,21.566644 34.951305,21.566644 L 34.951305,21.566644 z M 34.951305,36.871824 C 33.329097,36.871824 31.989012,35.531740 31.989012,33.909532 C 31.989012,32.287324 33.329097,30.947239 34.951305,30.947239 C 36.573513,30.947239 37.913598,32.287324 37.913598,33.909532 C 37.913598,35.531740 36.573513,36.871824 34.951305,36.871824 z " id="path3049" style="fill:url(#linearGradient10570);fill-rule:nonzero;stroke:#808080;stroke-miterlimit:4.0000000;stroke-opacity:1.0000000"/><path d="M 34.951289,28.111323 C 31.713337,28.111323 29.153095,30.746866 29.153095,33.909517 C 29.153095,37.147471 31.788638,39.707712 34.951289,39.707712 C 38.189242,39.707712 40.749484,37.072169 40.749484,33.909517 C 40.749484,30.671564 38.113940,28.111323 34.951289,28.111323 L 34.951289,28.111323 z M 34.951289,37.072169 C 33.219361,37.072169 31.788638,35.641446 31.788638,33.909517 C 31.788638,32.177589 33.219361,30.746866 34.951289,30.746866 C 36.683217,30.746866 38.113940,32.177589 38.113940,33.909517 C 38.113940,35.641446 36.683217,37.072169 34.951289,37.072169 z " id="path3051" style="opacity:0.10999996;fill-rule:nonzero;stroke:none;stroke-miterlimit:4.0000000"/><path d="M 38.150519,22.816711 L 36.086643,30.847436 C 36.732045,31.019312 37.248181,31.418679 37.598790,31.971330 L 44.709966,27.639233 C 43.255134,25.269429 40.920193,23.525895 38.150519,22.816711 z " id="path3916" style="fill:url(#linearGradient10572);fill-opacity:1.0000000;fill-rule:nonzero;stroke:none;stroke-miterlimit:4.0000000;stroke-opacity:1.0000000"/><path d="M 30.911911,44.678269 L 33.629199,36.844465 C 33.000117,36.620097 32.518571,36.179639 32.214597,35.600027 L 24.771257,39.332667 C 26.026282,41.814082 28.209936,43.743724 30.911911,44.678269 z " id="path4214" style="fill:url(#linearGradient10574);fill-opacity:1.0000000;fill-rule:nonzero;stroke:none;stroke-miterlimit:4.0000000;stroke-opacity:1.0000000"/><path d="M 34.951287,22.548803 C 28.654207,22.548803 23.590575,27.612435 23.590575,33.909515 C 23.590575,40.206596 28.654207,45.270227 34.951287,45.270227 C 41.248368,45.270227 46.311999,40.206596 46.311999,33.909515 C 46.311999,27.612435 41.248368,22.548803 34.951287,22.548803 L 34.951287,22.548803 z " id="path5264" style="opacity:0.54644811;fill:none;fill-rule:nonzero;stroke:url(#linearGradient10576);stroke-miterlimit:4.0000000;stroke-opacity:1.0000000"/><path d="M 30.405591 24.930641 A 6.0987959 6.0987959 0 1 1  18.207999,24.930641 A 6.0987959 6.0987959 0 1 1  30.405591 24.930641 z" id="path6026" style="opacity:0.67213112;color:#000000;fill:none;fill-opacity:0.31638417;fill-rule:nonzero;stroke:url(#linearGradient10578);stroke-width:1.6215941;stroke-linecap:butt;stroke-linejoin:miter;marker:none;marker-start:none;marker-mid:none;marker-end:none;stroke-miterlimit:4.0000000;stroke-dashoffset:0.0000000;stroke-opacity:1.0000000;visibility:visible;display:inline;overflow:visible" transform="matrix(0.573842,0.000000,0.000000,0.573842,21.03068,19.61419)"/><path d="M 34.951289,23.065643 C 28.940684,23.065643 24.107415,27.898912 24.107415,33.909517 C 24.107415,39.920122 28.940684,44.753391 34.951289,44.753391 C 40.961895,44.753391 45.795164,39.920122 45.795164,33.909517 C 45.795164,27.898912 40.961895,23.065643 34.951289,23.065643 L 34.951289,23.065643 z M 34.951289,36.512047 C 33.526094,36.512047 32.348759,35.334712 32.348759,33.909517 C 32.348759,32.484322 33.526094,31.306987 34.951289,31.306987 C 36.376484,31.306987 37.553819,32.484322 37.553819,33.909517 C 37.553819,35.334712 36.376484,36.512047 34.951289,36.512047 z " id="path3390" style="opacity:0.11428566;fill:url(#radialGradient10580);fill-opacity:1.0000000;fill-rule:nonzero;stroke:none;stroke-miterlimit:4.0000000;stroke-opacity:1.0000000"/></g></g></g></svg>