<?xml version="1.0" ?><svg height="48px" id="svg1306" width="48px" xmlns="http://www.w3.org/2000/svg" xmlns:cc="http://creativecommons.org/ns#" xmlns:dc="http://purl.org/dc/elements/1.1/" xmlns:inkscape="http://www.inkscape.org/namespaces/inkscape" xmlns:rdf="http://www.w3.org/1999/02/22-rdf-syntax-ns#" xmlns:sodipodi="http://sodipodi.sourceforge.net/DTD/sodipodi-0.dtd" xmlns:svg="http://www.w3.org/2000/svg" xmlns:xlink="http://www.w3.org/1999/xlink"><defs id="defs1308"><radialGradient cx="605.71429" cy="486.64789" fx="605.71429" fy="486.64789" gradientTransform="matrix(-2.774389,0,0,1.969706,112.7623,-872.8854)" gradientUnits="userSpaceOnUse" id="radialGradient5031" r="117.14286" xlink:href="#linearGradient5060"/><linearGradient id="linearGradient5060"><stop id="stop5062" offset="0" style="stop-color:black;stop-opacity:1;"/><stop id="stop5064" offset="1" style="stop-color:black;stop-opacity:0;"/></linearGradient><radialGradient cx="605.71429" cy="486.64789" fx="605.71429" fy="486.64789" gradientTransform="matrix(2.774389,0,0,1.969706,-1891.633,-872.8854)" gradientUnits="userSpaceOnUse" id="radialGradient5029" r="117.14286" xlink:href="#linearGradient5060"/><linearGradient id="linearGradient5048"><stop id="stop5050" offset="0" style="stop-color:black;stop-opacity:0;"/><stop id="stop5056" offset="0.5" style="stop-color:black;stop-opacity:1;"/><stop id="stop5052" offset="1" style="stop-color:black;stop-opacity:0;"/></linearGradient><linearGradient gradientTransform="matrix(2.774389,0,0,1.969706,-1892.179,-872.8854)" gradientUnits="userSpaceOnUse" id="linearGradient5027" x1="302.85715" x2="302.85715" xlink:href="#linearGradient5048" y1="366.64789" y2="609.50507"/><linearGradient id="linearGradient2223"><stop id="stop2225" offset="0" style="stop-color:#ffffff;stop-opacity:1;"/><stop id="stop2229" offset="1" style="stop-color:#ffffff;stop-opacity:0;"/></linearGradient><linearGradient id="linearGradient2222"><stop id="stop2224" offset="0" style="stop-color:#5187d6;stop-opacity:1;"/><stop id="stop2227" offset="1" style="stop-color:#1e4580;stop-opacity:1;"/></linearGradient><linearGradient id="linearGradient3090"><stop id="stop3092" offset="0" style="stop-color:#626c07;stop-opacity:1;"/><stop id="stop3094" offset="1" style="stop-color:#313603;stop-opacity:1;"/></linearGradient><linearGradient id="linearGradient2238"><stop id="stop2240" offset="0" style="stop-color:#ffffff;stop-opacity:1;"/><stop id="stop2242" offset="1" style="stop-color:#ffffff;stop-opacity:0;"/></linearGradient><linearGradient id="linearGradient2224"><stop id="stop2226" offset="0.0000000" style="stop-color:#32342f;stop-opacity:0.54639173;"/><stop id="stop2228" offset="1" style="stop-color:#32342f;stop-opacity:0;"/></linearGradient><linearGradient id="linearGradient2214"><stop id="stop2216" offset="0.0000000" style="stop-color:#a9aaa7;stop-opacity:1.0000000;"/><stop id="stop2218" offset="1.0000000" style="stop-color:#676964;stop-opacity:1.0000000;"/></linearGradient><linearGradient id="linearGradient2206"><stop id="stop2208" offset="0.0000000" style="stop-color:#c3c6c0;stop-opacity:1.0000000;"/><stop id="stop2210" offset="1.0000000" style="stop-color:#e8eae6;stop-opacity:1.0000000;"/></linearGradient><linearGradient id="linearGradient2198"><stop id="stop2200" offset="0" style="stop-color:#32342f;stop-opacity:1;"/><stop id="stop2202" offset="1.0000000" style="stop-color:#171816;stop-opacity:1.0000000;"/></linearGradient><linearGradient id="linearGradient2180"><stop id="stop2182" offset="0" style="stop-color:#ffffff;stop-opacity:1;"/><stop id="stop2184" offset="1" style="stop-color:#ffffff;stop-opacity:0;"/></linearGradient><linearGradient gradientTransform="matrix(0.952387,0.000000,0.000000,1.018339,1.142599,-1.941627)" gradientUnits="userSpaceOnUse" id="linearGradient2212" x1="25.861118" x2="18.300278" xlink:href="#linearGradient2206" y1="26.133587" y2="19.567596"/><linearGradient gradientTransform="matrix(0.952387,0.000000,0.000000,1.018339,1.142599,-1.941627)" gradientUnits="userSpaceOnUse" id="linearGradient2220" x1="0.0012142062" x2="47.998765" xlink:href="#linearGradient2214" y1="24.012266" y2="24.012266"/><radialGradient cx="24.041630" cy="42.242130" fx="24.041630" fy="42.242130" gradientTransform="matrix(1.000000,0.000000,0.000000,0.304598,-5.757924e-16,29.37527)" gradientUnits="userSpaceOnUse" id="radialGradient2230" r="17.576654" xlink:href="#linearGradient2224"/><linearGradient gradientTransform="matrix(0.952387,0.000000,0.000000,1.015657,1.142599,-0.876325)" gradientUnits="userSpaceOnUse" id="linearGradient2244" x1="20.338758" x2="46.092255" xlink:href="#linearGradient2238" y1="19.636894" y2="39.708324"/><linearGradient gradientTransform="matrix(3.809547,0.000000,0.000000,1.750325,-16.00036,-15.78719)" gradientUnits="userSpaceOnUse" id="linearGradient1340" x1="8.8207808" x2="12.499243" xlink:href="#linearGradient2180" y1="12.53757" y2="24.238262"/><radialGradient cx="23.994133" cy="32.266911" fx="23.994133" fy="32.266911" gradientTransform="matrix(1.768625,-1.961257e-23,1.552064e-23,1.387102,-18.44248,-15.29268)" gradientUnits="userSpaceOnUse" id="radialGradient2229" r="19.088932" xlink:href="#linearGradient2222"/><linearGradient gradientUnits="userSpaceOnUse" id="linearGradient2231" x1="35.694206" x2="15.044075" xlink:href="#linearGradient2223" y1="37.333858" y2="5.9588566"/></defs><g id="layer1"><g id="g5022" transform="matrix(2.454499e-2,0,0,2.086758e-2,45.89369,40.09109)"><rect height="478.35718" id="rect4173" style="opacity:0.40206185;color:black;fill:url(#linearGradient5027);fill-opacity:1;fill-rule:nonzero;stroke:none;stroke-width:1;stroke-linecap:round;stroke-linejoin:miter;marker:none;marker-start:none;marker-mid:none;marker-end:none;stroke-miterlimit:4;stroke-dasharray:none;stroke-dashoffset:0;stroke-opacity:1;visibility:visible;display:inline;overflow:visible" width="1339.6335" x="-1559.2523" y="-150.69685"/><path d="M -219.61876,-150.68038 C -219.61876,-150.68038 -219.61876,327.65041 -219.61876,327.65041 C -76.744594,328.55086 125.78146,220.48075 125.78138,88.454235 C 125.78138,-43.572302 -33.655436,-150.68036 -219.61876,-150.68038 z " id="path5058" style="opacity:0.40206185;color:black;fill:url(#radialGradient5029);fill-opacity:1;fill-rule:nonzero;stroke:none;stroke-width:1;stroke-linecap:round;stroke-linejoin:miter;marker:none;marker-start:none;marker-mid:none;marker-end:none;stroke-miterlimit:4;stroke-dasharray:none;stroke-dashoffset:0;stroke-opacity:1;visibility:visible;display:inline;overflow:visible"/><path d="M -1559.2523,-150.68038 C -1559.2523,-150.68038 -1559.2523,327.65041 -1559.2523,327.65041 C -1702.1265,328.55086 -1904.6525,220.48075 -1904.6525,88.454235 C -1904.6525,-43.572302 -1745.2157,-150.68036 -1559.2523,-150.68038 z " id="path5018" style="opacity:0.40206185;color:black;fill:url(#radialGradient5031);fill-opacity:1;fill-rule:nonzero;stroke:none;stroke-width:1;stroke-linecap:round;stroke-linejoin:miter;marker:none;marker-start:none;marker-mid:none;marker-end:none;stroke-miterlimit:4;stroke-dasharray:none;stroke-dashoffset:0;stroke-opacity:1;visibility:visible;display:inline;overflow:visible"/></g><rect height="41.701817" id="rect1316" rx="4.5659914" ry="4.5659928" style="opacity:1;fill:url(#linearGradient2212);fill-opacity:1;fill-rule:evenodd;stroke:url(#linearGradient2220);stroke-width:0.9999997;stroke-linecap:round;stroke-linejoin:round;stroke-miterlimit:4;stroke-dasharray:none;stroke-dashoffset:0;stroke-opacity:1" width="44.759838" x="1.6199486" y="1.6600797"/><rect height="28.954594" id="rect1314" rx="1.6946707" ry="1.694671" style="opacity:1;fill:url(#radialGradient2229);fill-opacity:1;fill-rule:evenodd;stroke:#173562;stroke-width:0.99999982;stroke-linecap:round;stroke-linejoin:round;stroke-miterlimit:4;stroke-dasharray:none;stroke-dashoffset:0;stroke-opacity:1" width="37.177864" x="5.4052019" y="5.4815545"/><path d="M 12.390689,20.935247 L 6.3688614,20.935247 L 6.3688614,22.152253 L 14.087646,22.152253 L 15.493568,16.239132 L 18.956082,29.936652 L 22.164804,19.116952 L 25.059348,25.028755 L 28.946308,21.516786 L 41.654736,21.516786 L 41.654736,19.457141 L 28.505235,19.457141 L 25.335019,22.596741 L 22.059557,15.937588 L 19.049723,24.112486 L 15.78119,11.248712 L 12.390689,20.935247 z " id="path2188" style="opacity:1;fill:#ecffd9;fill-opacity:1;fill-rule:evenodd;stroke:#c3ea9b;stroke-width:1;stroke-linecap:butt;stroke-linejoin:miter;stroke-miterlimit:10;stroke-dasharray:none;stroke-opacity:0.41618497"/><rect height="39.646549" id="rect2232" rx="4.1303334" ry="4.1303344" style="opacity:1;fill:none;fill-opacity:1;fill-rule:evenodd;stroke:url(#linearGradient2244);stroke-width:0.99999982;stroke-linecap:round;stroke-linejoin:round;stroke-miterlimit:4;stroke-dasharray:none;stroke-dashoffset:0;stroke-opacity:1" width="42.894741" x="2.553669" y="2.6544337"/><path d="M 11.515689,20.012278 L 6.3688614,20.012278 L 6.3688614,23.061029 L 14.962646,22.936029 L 15.618568,19.893387 L 18.963229,32.601726 L 22.539804,21.135091 L 25.059348,26.551191 L 29.321308,22.442609 L 41.654736,22.317609 L 40.904736,18.408071 L 28.505235,18.283071 L 25.460019,21.456026 L 22.059557,13.665616 L 19.424723,20.604266 L 15.90619,8.333659 L 11.515689,20.012278 z " id="path3088" style="opacity:0.38068183;fill:#ecffd9;fill-opacity:1;fill-rule:evenodd;stroke:#c3ea9b;stroke-width:1.00000036;stroke-linecap:butt;stroke-linejoin:miter;stroke-miterlimit:4;stroke-dasharray:none;stroke-opacity:0.41618497"/><path d="M 6.84375,6.96875 L 6.84375,15.795073 C 10.513653,16.483179 14.582567,16.875 18.875,16.875 C 27.810295,16.875 35.812258,15.21019 41.15625,12.596829 L 41.15625,6.96875 L 6.84375,6.96875 z " id="rect2178" style="opacity:0.43181817;fill:url(#linearGradient1340);fill-opacity:1;fill-rule:evenodd;stroke:none;stroke-width:1;stroke-linecap:round;stroke-linejoin:round;stroke-miterlimit:4;stroke-dasharray:none;stroke-dashoffset:0;stroke-opacity:1"/><g id="g3126" style="opacity:0.07954544;fill:#000000;fill-opacity:1;stroke:#000000;stroke-opacity:1" transform="translate(0.187500,0.687500)"><path d="M 39.125,37.8125 L 38.0625,37.34375 C 37.805688,37.204184 37.500156,37.125 37.1875,37.125 C 36.187,37.125 35.375,37.937 35.375,38.9375 C 35.375,39.938 36.187,40.75 37.1875,40.75 C 38.156734,40.75 38.951426,39.988481 39,39.03125 C 39.000392,39.02353 38.999705,39.007745 39,39 L 39.125,37.8125 z " id="path3120" style="opacity:1;color:#000000;fill:#000000;fill-opacity:1;fill-rule:nonzero;stroke:#000000;stroke-width:1;stroke-linecap:butt;stroke-linejoin:miter;marker:none;marker-start:none;marker-mid:none;marker-end:none;stroke-miterlimit:10;stroke-dasharray:none;stroke-dashoffset:0;stroke-opacity:1;visibility:visible;display:inline;overflow:visible"/><path d="M 28.992526,37.544659 L 28.893139,38.709836 C 28.855813,38.999729 28.892396,39.313228 29.005385,39.604754 C 29.366952,40.537636 30.417519,41.001313 31.350402,40.639747 C 32.283284,40.27818 32.746961,39.227613 32.385394,38.29473 C 32.035127,37.391001 31.037884,36.925219 30.127792,37.225858 C 30.120452,37.228282 30.105982,37.234627 30.098654,37.237151 L 28.992526,37.544659 z " id="path3122" style="opacity:1;color:#000000;fill:#000000;fill-opacity:1;fill-rule:nonzero;stroke:#000000;stroke-width:1;stroke-linecap:butt;stroke-linejoin:miter;marker:none;marker-start:none;marker-mid:none;marker-end:none;stroke-miterlimit:10;stroke-dasharray:none;stroke-dashoffset:0;stroke-opacity:1;visibility:visible;display:inline;overflow:visible"/><path d="M 25.5,37.8125 L 24.5625,37.34375 C 24.305688,37.204184 24.000156,37.125 23.6875,37.125 C 22.687,37.125 21.875,37.937 21.875,38.9375 C 21.875,39.938 22.687,40.75 23.6875,40.75 C 24.656734,40.75 25.451426,39.988481 25.5,39.03125 C 25.500392,39.02353 25.499705,39.007745 25.5,39 L 25.5,37.8125 z " id="path3124" style="opacity:1;color:#000000;fill:#000000;fill-opacity:1;fill-rule:nonzero;stroke:#000000;stroke-width:1;stroke-linecap:butt;stroke-linejoin:miter;marker:none;marker-start:none;marker-mid:none;marker-end:none;stroke-miterlimit:10;stroke-dasharray:none;stroke-dashoffset:0;stroke-opacity:1;visibility:visible;display:inline;overflow:visible"/></g><path d="M 39.125,37.8125 L 38.0625,37.34375 C 37.805688,37.204184 37.500156,37.125 37.1875,37.125 C 36.187,37.125 35.375,37.937 35.375,38.9375 C 35.375,39.938 36.187,40.75 37.1875,40.75 C 38.156734,40.75 38.951426,39.988481 39,39.03125 C 39.000392,39.02353 38.999705,39.007745 39,39 L 39.125,37.8125 z " id="path3111" style="opacity:1;color:#000000;fill:#e0e2df;fill-opacity:1;fill-rule:nonzero;stroke:#9b9d99;stroke-width:1;stroke-linecap:butt;stroke-linejoin:miter;marker:none;marker-start:none;marker-mid:none;marker-end:none;stroke-miterlimit:10;stroke-dasharray:none;stroke-dashoffset:0;stroke-opacity:1;visibility:visible;display:inline;overflow:visible"/><path d="M 28.992526,37.544659 L 28.893139,38.709836 C 28.855813,38.999729 28.892396,39.313228 29.005385,39.604754 C 29.366952,40.537636 30.417519,41.001313 31.350402,40.639747 C 32.283284,40.27818 32.746961,39.227613 32.385394,38.29473 C 32.035127,37.391001 31.037884,36.925219 30.127792,37.225858 C 30.120452,37.228282 30.105982,37.234627 30.098654,37.237151 L 28.992526,37.544659 z " id="path3116" style="opacity:1;color:#000000;fill:#e0e2df;fill-opacity:1;fill-rule:nonzero;stroke:#9b9d99;stroke-width:1;stroke-linecap:butt;stroke-linejoin:miter;marker:none;marker-start:none;marker-mid:none;marker-end:none;stroke-miterlimit:10;stroke-dasharray:none;stroke-dashoffset:0;stroke-opacity:1;visibility:visible;display:inline;overflow:visible"/><path d="M 25.5,37.8125 L 24.5625,37.34375 C 24.305688,37.204184 24.000156,37.125 23.6875,37.125 C 22.687,37.125 21.875,37.937 21.875,38.9375 C 21.875,39.938 22.687,40.75 23.6875,40.75 C 24.656734,40.75 25.451426,39.988481 25.5,39.03125 C 25.500392,39.02353 25.499705,39.007745 25.5,39 L 25.5,37.8125 z " id="path3118" style="opacity:1;color:#000000;fill:#e0e2df;fill-opacity:1;fill-rule:nonzero;stroke:#9b9d99;stroke-width:1;stroke-linecap:butt;stroke-linejoin:miter;marker:none;marker-start:none;marker-mid:none;marker-end:none;stroke-miterlimit:10;stroke-dasharray:none;stroke-dashoffset:0;stroke-opacity:1;visibility:visible;display:inline;overflow:visible"/><rect height="30.646179" id="rect2221" rx="2.5696716" ry="2.5696716" style="opacity:0.57386364;fill:none;fill-opacity:1;fill-rule:evenodd;stroke:url(#linearGradient2231);stroke-width:1;stroke-linecap:round;stroke-linejoin:round;stroke-miterlimit:4;stroke-dasharray:none;stroke-dashoffset:0;stroke-opacity:1" width="39.349869" x="4.3192058" y="4.635767"/></g></svg>