<?xml version="1.0" ?><svg height="48px" id="svg11300" width="48px" xmlns="http://www.w3.org/2000/svg" xmlns:cc="http://creativecommons.org/ns#" xmlns:dc="http://purl.org/dc/elements/1.1/" xmlns:inkscape="http://www.inkscape.org/namespaces/inkscape" xmlns:rdf="http://www.w3.org/1999/02/22-rdf-syntax-ns#" xmlns:sodipodi="http://sodipodi.sourceforge.net/DTD/sodipodi-0.dtd" xmlns:svg="http://www.w3.org/2000/svg" xmlns:xlink="http://www.w3.org/1999/xlink"><defs id="defs3"><radialGradient cx="605.71429" cy="486.64789" fx="605.71429" fy="486.64789" gradientTransform="matrix(-2.774389,0,0,1.969706,112.7623,-872.8854)" gradientUnits="userSpaceOnUse" id="radialGradient6719" r="117.14286" xlink:href="#linearGradient5060"/><linearGradient id="linearGradient5060"><stop id="stop5062" offset="0" style="stop-color:black;stop-opacity:1;"/><stop id="stop5064" offset="1" style="stop-color:black;stop-opacity:0;"/></linearGradient><radialGradient cx="605.71429" cy="486.64789" fx="605.71429" fy="486.64789" gradientTransform="matrix(2.774389,0,0,1.969706,-1891.633,-872.8854)" gradientUnits="userSpaceOnUse" id="radialGradient6717" r="117.14286" xlink:href="#linearGradient5060"/><linearGradient id="linearGradient5048"><stop id="stop5050" offset="0" style="stop-color:black;stop-opacity:0;"/><stop id="stop5056" offset="0.5" style="stop-color:black;stop-opacity:1;"/><stop id="stop5052" offset="1" style="stop-color:black;stop-opacity:0;"/></linearGradient><linearGradient gradientTransform="matrix(2.774389,0,0,1.969706,-1892.179,-872.8854)" gradientUnits="userSpaceOnUse" id="linearGradient6715" x1="302.85715" x2="302.85715" xlink:href="#linearGradient5048" y1="366.64789" y2="609.50507"/><linearGradient id="linearGradient4750"><stop id="stop4752" offset="0" style="stop-color:#ffffff;stop-opacity:0;"/><stop id="stop4758" offset="0.5" style="stop-color:#ffffff;stop-opacity:1;"/><stop id="stop4754" offset="1" style="stop-color:#ffffff;stop-opacity:0;"/></linearGradient><linearGradient id="linearGradient4728"><stop id="stop4730" offset="0" style="stop-color:#eeeeec;stop-opacity:1;"/><stop id="stop4732" offset="1" style="stop-color:#ffffff;stop-opacity:1;"/></linearGradient><linearGradient id="linearGradient4720"><stop id="stop4722" offset="0" style="stop-color:#000000;stop-opacity:1;"/><stop id="stop4724" offset="1" style="stop-color:#000000;stop-opacity:0;"/></linearGradient><linearGradient id="linearGradient4710"><stop id="stop4712" offset="0" style="stop-color:#f2f4f1;stop-opacity:1;"/><stop id="stop4714" offset="1" style="stop-color:#d3d7cf;stop-opacity:1;"/></linearGradient><radialGradient cx="24.500004" cy="29.500004" fx="24.500004" fy="29.500004" gradientTransform="matrix(2.154119,-4.677245e-16,4.677245e-16,2.154119,-76.77594,-33.5971)" gradientUnits="userSpaceOnUse" id="radialGradient4716" r="15.095438" xlink:href="#linearGradient4710"/><radialGradient cx="24.25" cy="39.8125" fx="24.25" fy="39.8125" gradientTransform="matrix(1,0,0,0.399281,0,23.91614)" gradientUnits="userSpaceOnUse" id="radialGradient4726" r="17.375" xlink:href="#linearGradient4720"/><linearGradient gradientTransform="matrix(0.993678,0,0,0.993678,-47.94311,1.037934)" gradientUnits="userSpaceOnUse" id="linearGradient4734" x1="24.095442" x2="24.095442" xlink:href="#linearGradient4728" y1="12.595438" y2="34.09544"/><linearGradient gradientUnits="userSpaceOnUse" id="linearGradient4756" x1="8.1168785" x2="9.0674801" xlink:href="#linearGradient4750" y1="7.9334393" y2="6.7843909"/><linearGradient gradientUnits="userSpaceOnUse" id="linearGradient4760" x1="38.292995" x2="39.4375" xlink:href="#linearGradient4750" y1="6.7174492" y2="8.161993"/></defs><g id="layer1"><g id="g6707" transform="matrix(2.171308e-2,0,0,2.452593e-2,43.18739,37.9549)"><rect height="478.35718" id="rect6709" style="opacity:0.40206185;color:black;fill:url(#linearGradient6715);fill-opacity:1;fill-rule:nonzero;stroke:none;stroke-width:1;stroke-linecap:round;stroke-linejoin:miter;marker:none;marker-start:none;marker-mid:none;marker-end:none;stroke-miterlimit:4;stroke-dasharray:none;stroke-dashoffset:0;stroke-opacity:1;visibility:visible;display:inline;overflow:visible" width="1339.6335" x="-1559.2523" y="-150.69685"/><path d="M -219.61876,-150.68038 C -219.61876,-150.68038 -219.61876,327.65041 -219.61876,327.65041 C -76.744594,328.55086 125.78146,220.48075 125.78138,88.454235 C 125.78138,-43.572302 -33.655436,-150.68036 -219.61876,-150.68038 z " id="path6711" style="opacity:0.40206185;color:black;fill:url(#radialGradient6717);fill-opacity:1;fill-rule:nonzero;stroke:none;stroke-width:1;stroke-linecap:round;stroke-linejoin:miter;marker:none;marker-start:none;marker-mid:none;marker-end:none;stroke-miterlimit:4;stroke-dasharray:none;stroke-dashoffset:0;stroke-opacity:1;visibility:visible;display:inline;overflow:visible"/><path d="M -1559.2523,-150.68038 C -1559.2523,-150.68038 -1559.2523,327.65041 -1559.2523,327.65041 C -1702.1265,328.55086 -1904.6525,220.48075 -1904.6525,88.454235 C -1904.6525,-43.572302 -1745.2157,-150.68036 -1559.2523,-150.68038 z " id="path6713" style="opacity:0.40206185;color:black;fill:url(#radialGradient6719);fill-opacity:1;fill-rule:nonzero;stroke:none;stroke-width:1;stroke-linecap:round;stroke-linejoin:miter;marker:none;marker-start:none;marker-mid:none;marker-end:none;stroke-miterlimit:4;stroke-dasharray:none;stroke-dashoffset:0;stroke-opacity:1;visibility:visible;display:inline;overflow:visible"/></g><rect height="37.959873" id="rect2960" rx="4.5342813" ry="4.6512747" style="opacity:1;color:#000000;fill:#d3d7cf;fill-opacity:1;fill-rule:nonzero;stroke:#888a85;stroke-width:0.99999988;stroke-linecap:butt;stroke-linejoin:miter;marker:none;marker-start:none;marker-mid:none;marker-end:none;stroke-miterlimit:4;stroke-dasharray:none;stroke-dashoffset:0;stroke-opacity:1;visibility:visible;display:block;overflow:visible" width="37.00507" x="5.5074925" y="4.5200701"/><rect height="29.00633" id="rect3835" rx="3.5541852" ry="3.5541852" style="opacity:1;color:#000000;fill:url(#radialGradient4716);fill-opacity:1;fill-rule:nonzero;stroke:url(#linearGradient4734);stroke-width:1.00000012;stroke-linecap:butt;stroke-linejoin:miter;marker:none;marker-start:none;marker-mid:none;marker-end:none;stroke-miterlimit:4;stroke-dasharray:none;stroke-dashoffset:0;stroke-opacity:1;visibility:visible;display:block;overflow:visible" transform="scale(-1,1)" width="29.00633" x="-38.503174" y="7.4968405"/><path d="M 32.442896,30.089809 L 30.344623,30.089809 L 30.344623,28.716197 C 29.508191,29.826624 28.404976,30.381837 27.034975,30.381837 C 25.938967,30.381837 25.070095,30.086204 24.428357,29.494938 C 23.793827,28.896463 23.476562,28.099696 23.476563,27.104637 C 23.476562,26.426848 23.606352,25.839188 23.865934,25.341655 C 24.132723,24.844131 24.529303,24.44034 25.055676,24.13028 C 25.589255,23.820233 26.281468,23.611126 27.132318,23.502962 L 30.344623,23.070328 C 30.344615,22.21949 30.164351,21.581355 29.803831,21.155924 C 29.450507,20.73051 28.920531,20.517799 28.213902,20.517789 C 27.629842,20.517799 27.006129,20.629562 26.342761,20.85308 C 25.686597,21.076617 25.098937,21.401092 24.579779,21.826506 L 24.579779,19.695785 C 25.928151,19.018003 27.197208,18.679107 28.386956,18.679096 C 29.699271,18.679107 30.701538,19.04324 31.39376,19.771496 C 32.093175,20.499772 32.442887,21.530882 32.442896,22.864827 L 32.442896,30.089809 M 30.344623,25.904079 L 30.344623,24.638625 C 28.541977,24.869368 27.525289,25.002763 27.294555,25.038811 C 27.071024,25.074869 26.793417,25.165001 26.461736,25.309207 C 26.137257,25.453423 25.906519,25.644503 25.769522,25.882447 C 25.639729,26.120399 25.574834,26.466506 25.574837,26.920768 C 25.574834,27.43272 25.755098,27.850932 26.115629,28.175405 C 26.483364,28.492672 26.962865,28.651304 27.554136,28.651302 C 28.289607,28.651304 28.938557,28.388119 29.500987,27.861746 C 30.063404,27.335378 30.344615,26.682823 30.344623,25.904079 M 31.253154,13.747072 L 28.343692,17.294668 L 26.905185,17.294668 L 29.252223,13.747072 L 31.253154,13.747072" id="text4736" style="font-size:22.15084457px;font-style:normal;font-variant:normal;font-weight:normal;font-stretch:normal;line-height:100%;writing-mode:lr-tb;text-anchor:start;fill:#000000;fill-opacity:1;stroke:none;stroke-width:1px;stroke-linecap:butt;stroke-linejoin:miter;stroke-opacity:1;font-family:Segoe"/><rect height="36.011204" id="rect4740" rx="3.5375013" ry="3.5375013" style="opacity:0.48888891;color:#000000;fill:none;fill-opacity:1;fill-rule:nonzero;stroke:#ffffff;stroke-width:0.99999982;stroke-linecap:butt;stroke-linejoin:miter;marker:none;marker-start:none;marker-mid:none;marker-end:none;stroke-miterlimit:4;stroke-dasharray:none;stroke-dashoffset:0;stroke-opacity:1;visibility:visible;display:block;overflow:visible" width="35.105415" x="6.4573174" y="5.4944024"/><path d="M 5.9375,38.5 C 6,39.625 7.25,41.4375 8.75,41.8125 L 10.9375,36.3125 L 10,35.625 L 5.9375,38.5 z " id="path4742" style="opacity:0.48888891;color:#000000;fill:#ffffff;fill-opacity:1;fill-rule:nonzero;stroke:none;stroke-width:1;stroke-linecap:butt;stroke-linejoin:miter;marker:none;marker-start:none;marker-mid:none;marker-end:none;stroke-miterlimit:4;stroke-dasharray:none;stroke-dashoffset:0;stroke-opacity:1;visibility:visible;display:block;overflow:visible"/><path d="M 42.0625,38.5 C 42,39.625 40.75,41.4375 39.25,41.8125 L 37.0625,36.3125 L 38,35.625 L 42.0625,38.5 z " id="path4744" style="opacity:0.48888891;color:#000000;fill:#ffffff;fill-opacity:1;fill-rule:nonzero;stroke:none;stroke-width:1;stroke-linecap:butt;stroke-linejoin:miter;marker:none;marker-start:none;marker-mid:none;marker-end:none;stroke-miterlimit:4;stroke-dasharray:none;stroke-dashoffset:0;stroke-opacity:1;visibility:visible;display:block;overflow:visible"/><path d="M 41.5,7.125 C 41.0625,6.5625 40.3125,5.5 39.3125,5.1875 L 37.375,7.75 L 38.3125,8.75 L 41.5,7.125 z " id="path4746" style="opacity:1;color:#000000;fill:url(#linearGradient4760);fill-opacity:1;fill-rule:nonzero;stroke:none;stroke-width:1;stroke-linecap:butt;stroke-linejoin:miter;marker:none;marker-start:none;marker-mid:none;marker-end:none;stroke-miterlimit:4;stroke-dasharray:none;stroke-dashoffset:0;stroke-opacity:1;visibility:visible;display:block;overflow:visible"/><path d="M 6.4375,7.125 C 6.875,6.5625 7.5625,5.5625 8.5625,5.25 L 10.4375,7.9375 L 9.75,8.9375 L 6.4375,7.125 z " id="path4748" style="opacity:1;color:#000000;fill:url(#linearGradient4756);fill-opacity:1;fill-rule:nonzero;stroke:none;stroke-width:1;stroke-linecap:butt;stroke-linejoin:miter;marker:none;marker-start:none;marker-mid:none;marker-end:none;stroke-miterlimit:4;stroke-dasharray:none;stroke-dashoffset:0;stroke-opacity:1;visibility:visible;display:block;overflow:visible"/></g></svg>