<?xml version="1.0" ?><svg height="48.000000px" id="svg3077" width="48.000000px" xmlns="http://www.w3.org/2000/svg" xmlns:cc="http://creativecommons.org/ns#" xmlns:dc="http://purl.org/dc/elements/1.1/" xmlns:inkscape="http://www.inkscape.org/namespaces/inkscape" xmlns:rdf="http://www.w3.org/1999/02/22-rdf-syntax-ns#" xmlns:sodipodi="http://sodipodi.sourceforge.net/DTD/sodipodi-0.dtd" xmlns:svg="http://www.w3.org/2000/svg" xmlns:xlink="http://www.w3.org/1999/xlink"><defs id="defs3"><linearGradient id="linearGradient23419"><stop id="stop23421" offset="0" style="stop-color:#000000;stop-opacity:1;"/><stop id="stop23423" offset="1" style="stop-color:#000000;stop-opacity:0;"/></linearGradient><linearGradient gradientUnits="userSpaceOnUse" id="linearGradient3435" x1="12.2744" x2="35.3912" y1="32.4165" y2="14.2033"><stop id="stop3437" offset="0.0000000" style="stop-color:#ffffc8;stop-opacity:1.0000000;"/><stop id="stop3439" offset="1.0000000" style="stop-color:#9a91ef;stop-opacity:0.0000000;"/></linearGradient><linearGradient gradientUnits="userSpaceOnUse" id="linearGradient3421" x1="12.2744" x2="35.3912" y1="32.4165" y2="14.2033"><stop id="stop3423" offset="0.0000000" style="stop-color:#ffffff;stop-opacity:1.0000000;"/><stop id="stop3427" offset="1.0000000" style="stop-color:#b8c04c;stop-opacity:0.0000000;"/></linearGradient><linearGradient gradientUnits="userSpaceOnUse" id="linearGradient3406" x1="12.2744" x2="35.3912" y1="32.4165" y2="14.2033"><stop id="stop3408" offset="0.0000000" style="stop-color:#b307ff;stop-opacity:0.82178217;"/><stop id="stop3410" offset="1.0000000" style="stop-color:#f0ff8b;stop-opacity:0.64356434;"/><stop id="stop3412" offset="1.0000000" style="stop-color:#ffffff;stop-opacity:0.0000000;"/></linearGradient><linearGradient gradientUnits="userSpaceOnUse" id="linearGradient3394" x1="12.2744" x2="35.3912" y1="32.4165" y2="14.2033"><stop id="stop3396" offset="0.0000000" style="stop-color:#fff307;stop-opacity:1.0000000;"/><stop id="stop3398" offset="0.50000000" style="stop-color:#166eff;stop-opacity:1.0000000;"/><stop id="stop3400" offset="1.0000000" style="stop-color:#ffffff;stop-opacity:0.0000000;"/></linearGradient><linearGradient id="linearGradient6036"><stop id="stop6038" offset="0" style="stop-color:#ffffff;stop-opacity:1;"/><stop id="stop6040" offset="1" style="stop-color:#ffffff;stop-opacity:0;"/></linearGradient><linearGradient id="linearGradient6028"><stop id="stop6030" offset="0" style="stop-color:#ffffff;stop-opacity:1;"/><stop id="stop6032" offset="1" style="stop-color:#ffffff;stop-opacity:0;"/></linearGradient><linearGradient id="linearGradient4236"><stop id="stop4238" offset="0.0000000" style="stop-color:#ffffff;stop-opacity:0.32673267;"/><stop id="stop4240" offset="1.0000000" style="stop-color:#ffffff;stop-opacity:0.60396039;"/></linearGradient><linearGradient gradientUnits="userSpaceOnUse" id="aigrd2" x1="12.2744" x2="35.3912" y1="32.4165" y2="14.2033"><stop id="stop3043" offset="0" style="stop-color:#FBFBFB"/><stop id="stop3045" offset="0.5" style="stop-color:#B6B6B6"/><stop id="stop3047" offset="1" style="stop-color:#E4E4E4"/></linearGradient><linearGradient gradientUnits="userSpaceOnUse" id="aigrd1" x1="14.9966" x2="32.511" y1="11.1885" y2="34.3075"><stop id="stop3034" offset="0" style="stop-color:#EBEBEB"/><stop id="stop3036" offset="0.5" style="stop-color:#FFFFFF"/><stop id="stop3038" offset="1" style="stop-color:#EBEBEB"/></linearGradient><linearGradient gradientTransform="matrix(1.190476,0.000000,0.000000,1.190476,-4.224424,-2.500000)" gradientUnits="userSpaceOnUse" id="linearGradient3912" x1="14.9966" x2="32.511" xlink:href="#aigrd1" y1="11.1885" y2="34.3075"/><linearGradient gradientTransform="matrix(1.250000,0.000000,0.000000,1.250000,-5.652995,-2.604165)" gradientUnits="userSpaceOnUse" id="linearGradient4222" x1="21.125000" x2="29.000000" xlink:href="#linearGradient4236" y1="14.625000" y2="28.000000"/><linearGradient gradientTransform="matrix(1.250000,0.000000,0.000000,1.250000,-5.652995,-2.604165)" gradientUnits="userSpaceOnUse" id="linearGradient4224" x1="21.125000" x2="29.000000" xlink:href="#linearGradient4236" y1="14.625000" y2="28.000000"/><linearGradient gradientTransform="matrix(1.190476,0.000000,0.000000,1.190476,-4.224424,-2.500001)" gradientUnits="userSpaceOnUse" id="linearGradient4242" x1="12.2744" x2="35.3912" xlink:href="#aigrd2" y1="32.4165" y2="14.2033"/><linearGradient gradientUnits="userSpaceOnUse" id="linearGradient6034" x1="28.702885" x2="17.742729" xlink:href="#linearGradient6028" y1="31.494707" y2="18.366575"/><linearGradient gradientUnits="userSpaceOnUse" id="linearGradient6042" x1="10.501720" x2="48.798885" xlink:href="#linearGradient6036" y1="3.6100161" y2="54.698483"/><radialGradient cx="37.751469" cy="27.569166" fx="37.751469" fy="27.569166" gradientTransform="matrix(0.848684,0.958020,-0.782119,0.692834,18.69147,-20.52578)" gradientUnits="userSpaceOnUse" id="radialGradient3392" r="21.333334" xlink:href="#linearGradient3394"/><radialGradient cx="53.556889" cy="48.238270" fx="53.556889" fy="48.238270" gradientTransform="matrix(0.158450,-0.158988,0.432907,0.431441,-2.723645,15.00107)" gradientUnits="userSpaceOnUse" id="radialGradient3429" r="21.333334" xlink:href="#linearGradient3421"/><radialGradient cx="16.885271" cy="33.377594" fx="16.885271" fy="33.377594" gradientTransform="matrix(5.184267e-3,-0.122860,0.544548,2.297824e-2,0.957234,26.30756)" gradientUnits="userSpaceOnUse" id="radialGradient3433" r="21.333334" xlink:href="#linearGradient3435"/><radialGradient cx="35.511295" cy="21.618015" fx="35.511295" fy="21.618015" gradientTransform="matrix(0.105916,-1.914240e-2,0.104789,0.579807,17.13693,7.115158)" gradientUnits="userSpaceOnUse" id="radialGradient3443" r="21.333334" xlink:href="#linearGradient3435"/><radialGradient cx="133.84108" cy="23.914305" fx="133.84108" fy="23.914305" gradientTransform="matrix(-5.048220e-2,1.387847e-2,-0.128440,-0.467196,35.41257,39.44172)" gradientUnits="userSpaceOnUse" id="radialGradient3447" r="21.333334" xlink:href="#linearGradient3435"/><radialGradient cx="26.137741" cy="38.807304" fx="26.137741" fy="38.807304" gradientTransform="matrix(0.769501,-1.242500,0.670300,0.415141,-21.77857,41.36563)" gradientUnits="userSpaceOnUse" id="radialGradient3449" r="21.333334" xlink:href="#linearGradient3406"/><linearGradient gradientTransform="matrix(1.190476,0,0,1.190476,-4.224424,-2.5)" gradientUnits="userSpaceOnUse" id="linearGradient23343" x1="14.9966" x2="32.511" xlink:href="#aigrd1" y1="11.1885" y2="34.3075"/><linearGradient gradientTransform="matrix(1.190476,0,0,1.190476,-4.224424,-2.500001)" gradientUnits="userSpaceOnUse" id="linearGradient23345" x1="12.2744" x2="35.3912" xlink:href="#aigrd2" y1="32.4165" y2="14.2033"/><linearGradient gradientTransform="matrix(1.25,0,0,1.25,-5.652995,-2.604165)" gradientUnits="userSpaceOnUse" id="linearGradient23347" x1="21.125000" x2="29.000000" xlink:href="#linearGradient4236" y1="14.625000" y2="28.000000"/><linearGradient gradientTransform="matrix(1.25,0,0,1.25,-5.652995,-2.604165)" gradientUnits="userSpaceOnUse" id="linearGradient23349" x1="21.125000" x2="29.000000" xlink:href="#linearGradient4236" y1="14.625000" y2="28.000000"/><linearGradient gradientUnits="userSpaceOnUse" id="linearGradient23351" x1="10.501720" x2="48.798885" xlink:href="#linearGradient6036" y1="3.6100161" y2="54.698483"/><linearGradient gradientUnits="userSpaceOnUse" id="linearGradient23353" x1="28.702885" x2="17.742729" xlink:href="#linearGradient6028" y1="31.494707" y2="18.366575"/><radialGradient cx="37.751469" cy="27.569166" fx="37.751469" fy="27.569166" gradientTransform="matrix(0.848684,0.95802,-0.782119,0.692834,18.69147,-20.52578)" gradientUnits="userSpaceOnUse" id="radialGradient23355" r="21.333334" xlink:href="#linearGradient3394"/><radialGradient cx="26.137741" cy="38.807304" fx="26.137741" fy="38.807304" gradientTransform="matrix(0.769501,-1.2425,0.6703,0.415141,-21.77857,41.36563)" gradientUnits="userSpaceOnUse" id="radialGradient23357" r="21.333334" xlink:href="#linearGradient3406"/><radialGradient cx="53.556889" cy="48.238270" fx="53.556889" fy="48.238270" gradientTransform="matrix(0.15845,-0.158988,0.432907,0.431441,-2.723645,15.00107)" gradientUnits="userSpaceOnUse" id="radialGradient23359" r="21.333334" xlink:href="#linearGradient3421"/><radialGradient cx="16.885271" cy="33.377594" fx="16.885271" fy="33.377594" gradientTransform="matrix(5.184267e-3,-0.12286,0.544548,2.297824e-2,0.957234,26.30756)" gradientUnits="userSpaceOnUse" id="radialGradient23361" r="21.333334" xlink:href="#linearGradient3435"/><radialGradient cx="35.511295" cy="21.618015" fx="35.511295" fy="21.618015" gradientTransform="matrix(0.105916,-1.91424e-2,0.104789,0.579807,17.13693,7.115158)" gradientUnits="userSpaceOnUse" id="radialGradient23363" r="21.333334" xlink:href="#linearGradient3435"/><radialGradient cx="133.84108" cy="23.914305" fx="133.84108" fy="23.914305" gradientTransform="matrix(-5.04822e-2,1.387847e-2,-0.12844,-0.467196,35.41257,39.44172)" gradientUnits="userSpaceOnUse" id="radialGradient23365" r="21.333334" xlink:href="#linearGradient3435"/><radialGradient cx="133.84108" cy="23.914305" fx="133.84108" fy="23.914305" gradientTransform="matrix(-5.04822e-2,1.387847e-2,-0.12844,-0.467196,35.41257,39.44172)" gradientUnits="userSpaceOnUse" id="radialGradient23368" r="21.333334" xlink:href="#linearGradient3435"/><radialGradient cx="35.511295" cy="21.618015" fx="35.511295" fy="21.618015" gradientTransform="matrix(0.105916,-1.91424e-2,0.104789,0.579807,17.13693,7.115158)" gradientUnits="userSpaceOnUse" id="radialGradient23371" r="21.333334" xlink:href="#linearGradient3435"/><radialGradient cx="16.885271" cy="33.377594" fx="16.885271" fy="33.377594" gradientTransform="matrix(5.184267e-3,-0.12286,0.544548,2.297824e-2,0.957234,26.30756)" gradientUnits="userSpaceOnUse" id="radialGradient23374" r="21.333334" xlink:href="#linearGradient3435"/><radialGradient cx="53.556889" cy="48.238270" fx="53.556889" fy="48.238270" gradientTransform="matrix(0.15845,-0.158988,0.432907,0.431441,-2.723645,15.00107)" gradientUnits="userSpaceOnUse" id="radialGradient23377" r="21.333334" xlink:href="#linearGradient3421"/><radialGradient cx="26.137741" cy="38.807304" fx="26.137741" fy="38.807304" gradientTransform="matrix(0.769501,-1.2425,0.6703,0.415141,-21.77857,41.36563)" gradientUnits="userSpaceOnUse" id="radialGradient23380" r="21.333334" xlink:href="#linearGradient3406"/><radialGradient cx="37.751469" cy="27.569166" fx="37.751469" fy="27.569166" gradientTransform="matrix(0.848684,0.95802,-0.782119,0.692834,18.69147,-20.52578)" gradientUnits="userSpaceOnUse" id="radialGradient23383" r="21.333334" xlink:href="#linearGradient3394"/><linearGradient gradientUnits="userSpaceOnUse" id="linearGradient23387" x1="10.501720" x2="48.798885" xlink:href="#linearGradient6036" y1="3.6100161" y2="54.698483"/><linearGradient gradientTransform="matrix(1.25,0,0,1.25,-5.652995,-2.604165)" gradientUnits="userSpaceOnUse" id="linearGradient23390" x1="21.125000" x2="29.000000" xlink:href="#linearGradient4236" y1="14.625000" y2="28.000000"/><linearGradient gradientTransform="matrix(1.25,0,0,1.25,-5.652995,-2.604165)" gradientUnits="userSpaceOnUse" id="linearGradient23393" x1="21.125000" x2="29.000000" xlink:href="#linearGradient4236" y1="14.625000" y2="28.000000"/><linearGradient gradientTransform="matrix(1.190476,0,0,1.190476,-4.224424,-2.500001)" gradientUnits="userSpaceOnUse" id="linearGradient23397" x1="12.2744" x2="35.3912" xlink:href="#aigrd2" y1="32.4165" y2="14.2033"/><linearGradient gradientTransform="matrix(1.190476,0,0,1.190476,-4.224424,-2.5)" gradientUnits="userSpaceOnUse" id="linearGradient23400" x1="14.9966" x2="32.511" xlink:href="#aigrd1" y1="11.1885" y2="34.3075"/><radialGradient cx="23.334524" cy="41.63604" fx="23.334524" fy="41.63604" gradientTransform="matrix(1,0,0,0.25,0,31.22703)" gradientUnits="userSpaceOnUse" id="radialGradient23425" r="22.627417" xlink:href="#linearGradient23419"/></defs><g id="layer1"><path d="M 45.961941 41.63604 A 22.627417 5.6568542 0 1 1  0.70710754,41.63604 A 22.627417 5.6568542 0 1 1  45.961941 41.63604 z" id="path23417" style="opacity:0.55;color:#000000;fill:url(#radialGradient23425);fill-opacity:1;fill-rule:evenodd;stroke:none;stroke-width:2;stroke-linecap:butt;stroke-linejoin:miter;marker:none;marker-start:none;marker-mid:none;marker-end:none;stroke-miterlimit:4;stroke-dasharray:none;stroke-dashoffset:0;stroke-opacity:1;visibility:visible;display:inline;overflow:visible" transform="matrix(1,0,0,1.066291,1,-2.885106)"/><path d="M 24.347006,4.1666669 C 12.799386,4.1666669 3.5136719,13.452381 3.5136719,25 C 3.5136719,36.54762 12.799386,45.833335 24.347006,45.833335 C 35.894626,45.833335 45.180341,36.54762 45.180341,25 C 45.180341,13.452381 35.894626,4.1666669 24.347006,4.1666669 L 24.347006,4.1666669 z M 24.347006,30.000001 C 21.608911,30.000001 19.347006,27.738096 19.347006,25 C 19.347006,22.261905 21.608911,20 24.347006,20 C 27.085101,20 29.347006,22.261905 29.347006,25 C 29.347006,27.738096 27.085101,30.000001 24.347006,30.000001 z " id="path3040" style="fill:url(#linearGradient23400);fill-rule:nonzero;stroke:none;stroke-miterlimit:4"/><path d="M 24.347006,4.1666665 C 12.799386,4.1666665 3.513672,13.452381 3.513672,25 C 3.513672,36.54762 12.799386,45.833335 24.347006,45.833335 C 35.894626,45.833335 45.180341,36.54762 45.180341,25 C 45.180341,13.452381 35.894626,4.1666665 24.347006,4.1666665 L 24.347006,4.1666665 z M 24.347006,30.000001 C 21.608911,30.000001 19.347006,27.738096 19.347006,25 C 19.347006,22.261905 21.608911,20 24.347006,20 C 27.085101,20 29.347006,22.261905 29.347006,25 C 29.347006,27.738096 27.085101,30.000001 24.347006,30.000001 z " id="path3049" style="fill:url(#linearGradient23397);fill-rule:nonzero;stroke:#808080;stroke-miterlimit:4;stroke-opacity:1"/><path d="M 24.347006,14.895835 C 18.70442,14.895835 14.24284,19.488638 14.24284,25 C 14.24284,30.642588 18.835644,35.104166 24.347006,35.104166 C 29.989592,35.104166 34.451172,30.511364 34.451172,25 C 34.451172,19.357414 29.858368,14.895835 24.347006,14.895835 L 24.347006,14.895835 z M 24.347006,30.511364 C 21.328879,30.511364 18.835644,28.018129 18.835644,25 C 18.835644,21.981873 21.328879,19.488638 24.347006,19.488638 C 27.365133,19.488638 29.858368,21.981873 29.858368,25 C 29.858368,28.018129 27.365133,30.511364 24.347006,30.511364 z " id="path3051" style="opacity:0.10999995;fill-rule:nonzero;stroke:none;stroke-miterlimit:4"/><path d="M 29.922111,5.6692337 L 26.325518,19.663896 C 27.450222,19.963413 28.349661,20.659366 28.960646,21.622438 L 41.352866,14.073153 C 38.817618,9.9434382 34.748656,6.9050853 29.922111,5.6692337 z " id="path3916" style="fill:url(#linearGradient23393);fill-opacity:1;fill-rule:nonzero;stroke:none;stroke-miterlimit:4;stroke-opacity:1"/><path d="M 17.307824,43.766057 L 22.043079,30.114558 C 20.946815,29.723566 20.107654,28.956005 19.577936,27.945951 L 6.6068752,34.450599 C 8.7939325,38.774811 12.599255,42.137482 17.307824,43.766057 z " id="path4214" style="fill:url(#linearGradient23390);fill-opacity:1;fill-rule:nonzero;stroke:none;stroke-miterlimit:4;stroke-opacity:1"/><path d="M 24.347002,5.2023655 C 13.373458,5.2023655 4.5493711,14.026454 4.5493711,24.999997 C 4.5493711,35.973541 13.373458,44.797628 24.347002,44.797628 C 35.320546,44.797628 44.144633,35.973541 44.144633,24.999997 C 44.144633,14.026454 35.320546,5.2023655 24.347002,5.2023655 L 24.347002,5.2023655 z " id="path5264" style="opacity:0.54644811;fill:none;fill-rule:nonzero;stroke:url(#linearGradient23387);stroke-miterlimit:4;stroke-opacity:1"/><path d="M 30.405591 24.930641 A 6.0987959 6.0987959 0 1 1  18.207999,24.930641 A 6.0987959 6.0987959 0 1 1  30.405591 24.930641 z" id="path6026" style="opacity:0.67213111;color:#000000;fill:none;fill-opacity:0.31638417;fill-rule:nonzero;stroke:url(#linearGradient23353);stroke-width:0.93053865;stroke-linecap:butt;stroke-linejoin:miter;marker:none;marker-start:none;marker-mid:none;marker-end:none;stroke-miterlimit:4;stroke-dashoffset:0;stroke-opacity:1;visibility:visible;display:inline;overflow:visible" transform="translate(8.838835e-2,8.838865e-2)"/><path d="M 24.347006,4.1666665 C 12.799386,4.1666665 3.513672,13.452381 3.513672,25 C 3.513672,36.54762 12.799386,45.833335 24.347006,45.833335 C 35.894626,45.833335 45.180341,36.54762 45.180341,25 C 45.180341,13.452381 35.894626,4.1666665 24.347006,4.1666665 L 24.347006,4.1666665 z M 24.347006,30.000001 C 21.608911,30.000001 19.347006,27.738096 19.347006,25 C 19.347006,22.261905 21.608911,20 24.347006,20 C 27.085101,20 29.347006,22.261905 29.347006,25 C 29.347006,27.738096 27.085101,30.000001 24.347006,30.000001 z " id="path3390" style="opacity:0.1142857;fill:url(#radialGradient23383);fill-opacity:1;fill-rule:nonzero;stroke:none;stroke-miterlimit:4;stroke-opacity:1"/><path d="M 24.347006,4.1666665 C 12.799386,4.1666665 3.513672,13.452381 3.513672,25 C 3.513672,36.54762 12.799386,45.833335 24.347006,45.833335 C 35.894626,45.833335 45.180341,36.54762 45.180341,25 C 45.180341,13.452381 35.894626,4.1666665 24.347006,4.1666665 L 24.347006,4.1666665 z M 24.347006,30.000001 C 21.608911,30.000001 19.347006,27.738096 19.347006,25 C 19.347006,22.261905 21.608911,20 24.347006,20 C 27.085101,20 29.347006,22.261905 29.347006,25 C 29.347006,27.738096 27.085101,30.000001 24.347006,30.000001 z " id="path3404" style="opacity:0.09714284;fill:url(#radialGradient23380);fill-opacity:1;fill-rule:nonzero;stroke:none;stroke-miterlimit:4;stroke-opacity:1"/><path d="M 24.347006,4.1666665 C 12.799386,4.1666665 3.513672,13.452381 3.513672,25 C 3.513672,36.54762 12.799386,45.833335 24.347006,45.833335 C 35.894626,45.833335 45.180341,36.54762 45.180341,25 C 45.180341,13.452381 35.894626,4.1666665 24.347006,4.1666665 L 24.347006,4.1666665 z M 24.347006,30.000001 C 21.608911,30.000001 19.347006,27.738096 19.347006,25 C 19.347006,22.261905 21.608911,20 24.347006,20 C 27.085101,20 29.347006,22.261905 29.347006,25 C 29.347006,27.738096 27.085101,30.000001 24.347006,30.000001 z " id="path3419" style="opacity:0.71428576;fill:url(#radialGradient23377);fill-opacity:1;fill-rule:nonzero;stroke:none;stroke-miterlimit:4;stroke-opacity:1"/><path d="M 24.347006,4.1666665 C 12.799386,4.1666665 3.513672,13.452381 3.513672,25 C 3.513672,36.54762 12.799386,45.833335 24.347006,45.833335 C 35.894626,45.833335 45.180341,36.54762 45.180341,25 C 45.180341,13.452381 35.894626,4.1666665 24.347006,4.1666665 L 24.347006,4.1666665 z M 24.347006,30.000001 C 21.608911,30.000001 19.347006,27.738096 19.347006,25 C 19.347006,22.261905 21.608911,20 24.347006,20 C 27.085101,20 29.347006,22.261905 29.347006,25 C 29.347006,27.738096 27.085101,30.000001 24.347006,30.000001 z " id="path3431" style="opacity:0.62285713;fill:url(#radialGradient23374);fill-opacity:1;fill-rule:nonzero;stroke:none;stroke-miterlimit:4;stroke-opacity:1"/><path d="M 24.347006,4.1666665 C 12.799386,4.1666665 3.513672,13.452381 3.513672,25 C 3.513672,36.54762 12.799386,45.833335 24.347006,45.833335 C 35.894626,45.833335 45.180341,36.54762 45.180341,25 C 45.180341,13.452381 35.894626,4.1666665 24.347006,4.1666665 L 24.347006,4.1666665 z M 24.347006,30.000001 C 21.608911,30.000001 19.347006,27.738096 19.347006,25 C 19.347006,22.261905 21.608911,20 24.347006,20 C 27.085101,20 29.347006,22.261905 29.347006,25 C 29.347006,27.738096 27.085101,30.000001 24.347006,30.000001 z " id="path3441" style="opacity:0.37142861;fill:url(#radialGradient23371);fill-opacity:1;fill-rule:nonzero;stroke:none;stroke-miterlimit:4;stroke-opacity:1"/><path d="M 24.347006,4.1666665 C 12.799386,4.1666665 3.513672,13.452381 3.513672,25 C 3.513672,36.54762 12.799386,45.833335 24.347006,45.833335 C 35.894626,45.833335 45.180341,36.54762 45.180341,25 C 45.180341,13.452381 35.894626,4.1666665 24.347006,4.1666665 L 24.347006,4.1666665 z M 24.347006,30.000001 C 21.608911,30.000001 19.347006,27.738096 19.347006,25 C 19.347006,22.261905 21.608911,20 24.347006,20 C 27.085101,20 29.347006,22.261905 29.347006,25 C 29.347006,27.738096 27.085101,30.000001 24.347006,30.000001 z " id="path3445" style="opacity:0.23428572;fill:url(#radialGradient23368);fill-opacity:1;fill-rule:nonzero;stroke:none;stroke-miterlimit:4;stroke-opacity:1"/></g></svg>