<?xml version="1.0" ?><svg height="48.000000px" id="svg2327" width="48.000000px" xmlns="http://www.w3.org/2000/svg" xmlns:cc="http://creativecommons.org/ns#" xmlns:dc="http://purl.org/dc/elements/1.1/" xmlns:inkscape="http://www.inkscape.org/namespaces/inkscape" xmlns:rdf="http://www.w3.org/1999/02/22-rdf-syntax-ns#" xmlns:sodipodi="http://sodipodi.sourceforge.net/DTD/sodipodi-0.dtd" xmlns:svg="http://www.w3.org/2000/svg" xmlns:xlink="http://www.w3.org/1999/xlink"><defs id="defs3"><linearGradient id="linearGradient2399"><stop id="stop2401" offset="0" style="stop-color:#ffffff;stop-opacity:1;"/><stop id="stop2403" offset="1" style="stop-color:#ffffff;stop-opacity:0;"/></linearGradient><linearGradient id="linearGradient4930"><stop id="stop4932" offset="0" style="stop-color:#babdb6;stop-opacity:1;"/><stop id="stop4934" offset="1" style="stop-color:#50544c;stop-opacity:1;"/></linearGradient><linearGradient id="linearGradient4920"><stop id="stop4922" offset="0" style="stop-color:#2c65b9;stop-opacity:1;"/><stop id="stop4924" offset="1" style="stop-color:#2c65b9;stop-opacity:0;"/></linearGradient><linearGradient id="linearGradient4910"><stop id="stop4912" offset="0" style="stop-color:#6a6352;stop-opacity:1;"/><stop id="stop4914" offset="1" style="stop-color:#3b372e;stop-opacity:1;"/></linearGradient><linearGradient id="linearGradient4902"><stop id="stop4904" offset="0" style="stop-color:#204a87;stop-opacity:1;"/><stop id="stop4906" offset="1" style="stop-color:#173561;stop-opacity:1;"/></linearGradient><linearGradient id="linearGradient4892"><stop id="stop4894" offset="0" style="stop-color:#ffffff;stop-opacity:1;"/><stop id="stop4896" offset="1" style="stop-color:#ffffff;stop-opacity:0;"/></linearGradient><linearGradient id="linearGradient4882"><stop id="stop4884" offset="0" style="stop-color:#e7e5e0;stop-opacity:1;"/><stop id="stop4886" offset="1" style="stop-color:#ffffff;stop-opacity:1;"/></linearGradient><linearGradient id="linearGradient4872"><stop id="stop4874" offset="0" style="stop-color:#e5d28f;stop-opacity:1;"/><stop id="stop4876" offset="1" style="stop-color:#ab8f2a;stop-opacity:1;"/></linearGradient><linearGradient id="linearGradient2329"><stop id="stop2331" offset="0.0000000" style="stop-color:#ffffff;stop-opacity:1.0000000;"/><stop id="stop2333" offset="1.0000000" style="stop-color:#ffffff;stop-opacity:0.0000000;"/></linearGradient><linearGradient id="linearGradient2321"><stop id="stop2323" offset="0" style="stop-color:#7b7f7a;stop-opacity:1;"/><stop id="stop2325" offset="1" style="stop-color:#7b7f7a;stop-opacity:0;"/></linearGradient><linearGradient id="linearGradient2711"><stop id="stop2713" offset="0.0000000" style="stop-color:#909090;stop-opacity:1.0000000;"/><stop id="stop2715" offset="1.0000000" style="stop-color:#bebebe;stop-opacity:0.0000000;"/></linearGradient><linearGradient id="linearGradient2701"><stop id="stop2703" offset="0.0000000" style="stop-color:#585956;stop-opacity:1.0000000;"/><stop id="stop2705" offset="1.0000000" style="stop-color:#bbbeb8;stop-opacity:1.0000000;"/></linearGradient><linearGradient id="linearGradient2683"><stop id="stop2685" offset="0" style="stop-color:#000000;stop-opacity:1;"/><stop id="stop2687" offset="1" style="stop-color:#000000;stop-opacity:0;"/></linearGradient><linearGradient id="linearGradient2667"><stop id="stop2669" offset="0.0000000" style="stop-color:#ffffff;stop-opacity:1.0000000;"/><stop id="stop2671" offset="1.0000000" style="stop-color:#fcfcff;stop-opacity:0.0000000;"/></linearGradient><linearGradient id="linearGradient2454"><stop id="stop2456" offset="0" style="stop-color:#000000;stop-opacity:1;"/><stop id="stop2458" offset="1" style="stop-color:#000000;stop-opacity:0;"/></linearGradient><linearGradient id="linearGradient2415"><stop id="stop2417" offset="0" style="stop-color:#ffffff;stop-opacity:1;"/><stop id="stop2419" offset="1" style="stop-color:#ffffff;stop-opacity:0;"/></linearGradient><linearGradient id="linearGradient2253"><stop id="stop2255" offset="0.0000000" style="stop-color:#8f8f8f;stop-opacity:1.0000000;"/><stop id="stop2257" offset="1.0000000" style="stop-color:#494949;stop-opacity:1.0000000;"/></linearGradient><linearGradient id="linearGradient2245"><stop id="stop2247" offset="0.0000000" style="stop-color:#dde1d9;stop-opacity:1.0000000;"/><stop id="stop2249" offset="1.0000000" style="stop-color:#cacdc6;stop-opacity:1.0000000;"/></linearGradient><linearGradient gradientTransform="matrix(1.129863,0.000000,0.000000,0.885063,2.875000,1.570628)" gradientUnits="userSpaceOnUse" id="linearGradient2251" x1="8.6116238" x2="34.784473" xlink:href="#linearGradient2245" y1="7.2293582" y2="33.339787"/><linearGradient gradientTransform="matrix(1.108069,0.000000,0.000000,0.902471,5.500000,3.875000)" gradientUnits="userSpaceOnUse" id="linearGradient2421" x1="17.698339" x2="34.974548" xlink:href="#linearGradient2415" y1="13.004725" y2="55.200756"/><radialGradient cx="12.575710" cy="67.501709" fx="12.575710" fy="67.501709" gradientTransform="scale(1.925808,0.519262)" gradientUnits="userSpaceOnUse" id="radialGradient2460" r="8.7662794" xlink:href="#linearGradient2454"/><linearGradient gradientTransform="matrix(5.705159,0.000000,0.000000,0.175280,5.500000,2.195627)" gradientUnits="userSpaceOnUse" id="linearGradient2689" x1="3.7069976" x2="3.7069974" xlink:href="#linearGradient2683" y1="171.29134" y2="162.45061"/><linearGradient gradientTransform="matrix(1.816345,0.000000,0.000000,1.278927,2.500000,-40.24508)" gradientUnits="userSpaceOnUse" id="linearGradient2707" x1="12.206709" x2="12.127711" xlink:href="#linearGradient2701" y1="53.535141" y2="64.892525"/><linearGradient gradientUnits="userSpaceOnUse" id="linearGradient2717" x1="34.300991" x2="35.520542" xlink:href="#linearGradient2711" y1="3.9384086" y2="3.8451097"/><linearGradient gradientUnits="userSpaceOnUse" id="linearGradient2721" x1="34.300991" x2="35.520542" xlink:href="#linearGradient2711" y1="3.9384086" y2="3.8451097"/><linearGradient gradientUnits="userSpaceOnUse" id="linearGradient2725" x1="34.300991" x2="35.520542" xlink:href="#linearGradient2711" y1="3.9384086" y2="3.8451097"/><linearGradient gradientUnits="userSpaceOnUse" id="linearGradient2729" x1="34.300991" x2="35.520542" xlink:href="#linearGradient2711" y1="3.9384086" y2="3.8451097"/><linearGradient gradientUnits="userSpaceOnUse" id="linearGradient2733" x1="34.300991" x2="35.520542" xlink:href="#linearGradient2711" y1="3.9384086" y2="3.8451097"/><linearGradient gradientTransform="matrix(1.104397,0.000000,0.000000,0.905471,4.500000,2.875000)" gradientUnits="userSpaceOnUse" id="linearGradient1561" x1="10.390738" x2="32.536823" xlink:href="#linearGradient2253" y1="5.3817744" y2="31.246054"/><linearGradient gradientUnits="userSpaceOnUse" id="linearGradient2327" x1="-35.658386" x2="-35.658386" xlink:href="#linearGradient2321" y1="33.416473" y2="28.205938"/><linearGradient gradientUnits="userSpaceOnUse" id="linearGradient2337" x1="-35.122688" x2="-35.074745" xlink:href="#linearGradient2329" y1="34.242237" y2="30.962345"/><linearGradient gradientTransform="matrix(1.238977,0.000000,0.000000,0.895955,5.142330,1.543480)" gradientUnits="userSpaceOnUse" id="linearGradient2315" x1="11.492236" x2="17.199417" xlink:href="#linearGradient2667" y1="1.6537577" y2="26.729263"/><linearGradient gradientTransform="translate(-0.707105,0.000000)" gradientUnits="userSpaceOnUse" id="linearGradient4908" x1="21.6875" x2="21.6875" xlink:href="#linearGradient4902" y1="12.093906" y2="7.7189064"/><linearGradient gradientUnits="userSpaceOnUse" id="linearGradient4936" x1="23.493534" x2="23.493534" xlink:href="#linearGradient4930" y1="29.476145" y2="6.9308271"/><linearGradient gradientTransform="translate(-0.707105,0.000000)" gradientUnits="userSpaceOnUse" id="linearGradient2405" x1="19.489631" x2="20.727066" xlink:href="#linearGradient2399" y1="15.23002" y2="14.876466"/><linearGradient gradientTransform="translate(-0.707105,0.000000)" gradientUnits="userSpaceOnUse" id="linearGradient2425" x1="16.528622" x2="17.279921" xlink:href="#linearGradient2399" y1="11.539805" y2="11.407223"/><radialGradient cx="12.575710" cy="67.501709" fx="12.575710" fy="67.501709" gradientTransform="scale(1.925808,0.519262)" gradientUnits="userSpaceOnUse" id="radialGradient2438" r="8.7662794" xlink:href="#linearGradient2454"/><linearGradient gradientTransform="translate(1.084646,-2.584738e-16)" gradientUnits="userSpaceOnUse" id="linearGradient2440" x1="22.0625" x2="24.673225" xlink:href="#linearGradient4910" y1="20.90625" y2="20.90625"/><radialGradient cx="28.0625" cy="36.908916" fx="28.0625" fy="36.908916" gradientTransform="matrix(1.000000,0.000000,0.000000,1.281250,1.084646,-9.461426)" gradientUnits="userSpaceOnUse" id="radialGradient2442" r="7.5" xlink:href="#linearGradient4872"/><linearGradient gradientTransform="translate(1.084646,-2.584738e-16)" gradientUnits="userSpaceOnUse" id="linearGradient2444" x1="28.513193" x2="28.421637" xlink:href="#linearGradient4892" y1="37.765625" y2="30.828125"/><linearGradient gradientTransform="matrix(1.000000,0.000000,0.000000,0.876289,1.084646,3.151418)" gradientUnits="userSpaceOnUse" id="linearGradient2446" x1="28.625" x2="28.625" xlink:href="#linearGradient4882" y1="25.296875" y2="28"/><linearGradient gradientTransform="translate(1.084646,-2.584738e-16)" gradientUnits="userSpaceOnUse" id="linearGradient2448" x1="27.90625" x2="28.84375" xlink:href="#linearGradient4920" y1="18.057989" y2="21.214239"/></defs><g id="layer1"><path d="M 41.100580 35.051105 A 16.882174 4.5520000 0 1 1  7.3362331,35.051105 A 16.882174 4.5520000 0 1 1  41.100580 35.051105 z" id="path2452" style="opacity:0.50857143;overflow:visible;display:inline;visibility:visible;stroke-opacity:0.70063692;stroke-dashoffset:0.0000000;stroke-miterlimit:4.0000000;marker-end:none;marker-mid:none;marker-start:none;marker:none;stroke-linejoin:miter;stroke-linecap:round;stroke-width:1.0000000;stroke:none;fill-rule:evenodd;fill-opacity:1.0000000;fill:url(#radialGradient2460);color:#000000" transform="matrix(1.050251,0.000000,0.000000,1.867888,-0.945558,-28.10611)"/><path d="M -26.263968 29.716238 A 9.3944187 3.9395950 0 1 1  -45.052805,29.716238 A 9.3944187 3.9395950 0 1 1  -26.263968 29.716238 z" id="path2407" style="color:#000000;fill:#adb0aa;fill-opacity:1.0000000;fill-rule:evenodd;stroke:#4b4d4a;stroke-width:1.0000000;stroke-linecap:butt;stroke-linejoin:miter;marker:none;marker-start:none;marker-mid:none;marker-end:none;stroke-miterlimit:4.0000000;stroke-dashoffset:0.0000000;stroke-opacity:1.0000000;visibility:visible;display:inline;overflow:visible" transform="translate(60.03339,8.078430)"/><path d="M -26.263968 29.716238 A 9.3944187 3.9395950 0 1 1  -45.052805,29.716238 A 9.3944187 3.9395950 0 1 1  -26.263968 29.716238 z" id="path1825" style="color:#000000;fill:none;fill-opacity:1.0000000;fill-rule:evenodd;stroke:url(#linearGradient2327);stroke-width:1.1571338;stroke-linecap:butt;stroke-linejoin:miter;marker:none;marker-start:none;marker-mid:none;marker-end:none;stroke-miterlimit:4.0000000;stroke-dasharray:none;stroke-dashoffset:0.0000000;stroke-opacity:1.0000000;visibility:visible;display:inline;overflow:visible" transform="matrix(0.902373,0.000000,0.000000,0.827650,56.55215,12.86792)"/><path d="M -26.263968 29.716238 A 9.3944187 3.9395950 0 1 1  -45.052805,29.716238 A 9.3944187 3.9395950 0 1 1  -26.263968 29.716238 z" id="path2983" style="color:#000000;fill:none;fill-opacity:1.0000000;fill-rule:evenodd;stroke:url(#linearGradient2337);stroke-width:1.1833371;stroke-linecap:butt;stroke-linejoin:miter;marker:none;marker-start:none;marker-mid:none;marker-end:none;stroke-miterlimit:4.0000000;stroke-dasharray:none;stroke-dashoffset:0.0000000;stroke-opacity:1.0000000;visibility:visible;display:inline;overflow:visible" transform="matrix(0.837548,0.000000,0.000000,0.852655,54.17811,11.00615)"/><rect height="6.3650389" id="rect2699" style="color:#000000;fill:url(#linearGradient2707);fill-opacity:1.0000000;fill-rule:evenodd;stroke:none;stroke-width:0.60872948;stroke-linecap:butt;stroke-linejoin:miter;marker:none;marker-start:none;marker-mid:none;marker-end:none;stroke-miterlimit:4.0000000;stroke-dashoffset:0.0000000;stroke-opacity:1.0000000;visibility:visible;display:inline;overflow:visible" width="9.0396729" x="19.972397" y="31.078613"/><path d="M 7.5809024,4.5706221 L 41.169097,4.5706221 C 42.080439,4.5706221 42.793244,5.1541039 42.835849,5.9722091 L 44.167893,31.550323 C 44.226102,32.668058 43.266837,33.570628 42.147588,33.570628 L 6.6024120,33.570628 C 5.4831629,33.570628 4.5238980,32.668058 4.5821068,31.550323 L 5.9141506,5.9722091 C 5.9544343,5.1986745 6.4616533,4.5706221 7.5809024,4.5706221 z " id="rect2404" style="color:#000000;fill:url(#linearGradient2251);fill-opacity:1.0000000;fill-rule:evenodd;stroke:url(#linearGradient1561);stroke-width:1.0000000;stroke-linecap:butt;stroke-linejoin:miter;marker:none;marker-start:none;marker-mid:none;marker-end:none;stroke-miterlimit:4.0000000;stroke-dashoffset:0.0000000;stroke-opacity:1.0000000;visibility:visible;display:inline;overflow:visible"/><path d="M 8.9105350,7.1808270 L 7.6683398,29.226144 L 39.318729,29.226144 L 37.983712,7.2742560 L 8.9105350,7.1808270 z " id="path2377" style="fill:url(#linearGradient4936);fill-opacity:1.0;fill-rule:evenodd;stroke:#555753;stroke-width:0.50000000;stroke-linecap:butt;stroke-linejoin:round;stroke-miterlimit:4.0000000;stroke-dasharray:none;stroke-opacity:1.0000000"/><path d="M 6.6774331,31.610789 L 42.105910,31.610789" id="path2393" style="fill:none;fill-opacity:0.75000000;fill-rule:evenodd;stroke:url(#linearGradient2689);stroke-width:0.99618119;stroke-linecap:round;stroke-linejoin:miter;stroke-miterlimit:4.0000000;stroke-opacity:0.24840762"/><path d="M 7.4145985,5.5813396 L 41.260101,5.5435383 C 41.543798,5.5432214 41.819403,5.7807881 41.842206,6.1960820 L 43.204098,30.999330 C 43.262137,32.056361 42.664349,32.785201 41.605727,32.785201 L 7.0817583,32.785201 C 6.0231355,32.785201 5.4887439,32.056410 5.5458869,30.999330 L 6.8699773,6.5051630 C 6.9086732,5.7893326 7.0363626,5.5817620 7.4145985,5.5813396 z " id="path2397" style="color:#000000;fill:none;fill-opacity:1.0000000;fill-rule:evenodd;stroke:url(#linearGradient2421);stroke-width:0.99999964;stroke-linecap:butt;stroke-linejoin:miter;marker:none;marker-start:none;marker-mid:none;marker-end:none;stroke-miterlimit:4.0000000;stroke-dashoffset:0.0000000;stroke-opacity:0.70063692;visibility:visible;display:inline;overflow:visible"/><path d="M 35.620504 3.9384086 A 0.83968931 0.83968931 0 1 1  33.941126,3.9384086 A 0.83968931 0.83968931 0 1 1  35.620504 3.9384086 z" id="path2709" style="color:#000000;fill:url(#linearGradient2717);fill-opacity:1.0000000;fill-rule:evenodd;stroke:none;stroke-width:0.50000000;stroke-linecap:butt;stroke-linejoin:miter;marker:none;marker-start:none;marker-mid:none;marker-end:none;stroke-miterlimit:4.0000000;stroke-dashoffset:0.0000000;stroke-opacity:1.0000000;visibility:visible;display:inline;overflow:visible" transform="matrix(1.331237,0.000000,0.000000,0.658449,-5.919330,5.728866)"/><path d="M 35.620504 3.9384086 A 0.83968931 0.83968931 0 1 1  33.941126,3.9384086 A 0.83968931 0.83968931 0 1 1  35.620504 3.9384086 z" id="path2719" style="color:#000000;fill:url(#linearGradient2721);fill-opacity:1.0000000;fill-rule:evenodd;stroke:none;stroke-width:0.50000000;stroke-linecap:butt;stroke-linejoin:miter;marker:none;marker-start:none;marker-mid:none;marker-end:none;stroke-miterlimit:4.0000000;stroke-dashoffset:0.0000000;stroke-opacity:1.0000000;visibility:visible;display:inline;overflow:visible" transform="matrix(1.331237,0.000000,0.000000,0.658449,-5.805730,7.834650)"/><path d="M 35.620504 3.9384086 A 0.83968931 0.83968931 0 1 1  33.941126,3.9384086 A 0.83968931 0.83968931 0 1 1  35.620504 3.9384086 z" id="path2723" style="color:#000000;fill:url(#linearGradient2725);fill-opacity:1.0000000;fill-rule:evenodd;stroke:none;stroke-width:0.50000000;stroke-linecap:butt;stroke-linejoin:miter;marker:none;marker-start:none;marker-mid:none;marker-end:none;stroke-miterlimit:4.0000000;stroke-dashoffset:0.0000000;stroke-opacity:1.0000000;visibility:visible;display:inline;overflow:visible" transform="matrix(1.331237,0.000000,0.000000,0.658449,-5.692130,9.834650)"/><path d="M 35.620504 3.9384086 A 0.83968931 0.83968931 0 1 1  33.941126,3.9384086 A 0.83968931 0.83968931 0 1 1  35.620504 3.9384086 z" id="path2727" style="color:#000000;fill:url(#linearGradient2729);fill-opacity:1.0000000;fill-rule:evenodd;stroke:none;stroke-width:0.50000000;stroke-linecap:butt;stroke-linejoin:miter;marker:none;marker-start:none;marker-mid:none;marker-end:none;stroke-miterlimit:4.0000000;stroke-dashoffset:0.0000000;stroke-opacity:1.0000000;visibility:visible;display:inline;overflow:visible" transform="matrix(1.331237,0.000000,0.000000,0.658449,-5.578530,11.83465)"/><path d="M 35.620504 3.9384086 A 0.83968931 0.83968931 0 1 1  33.941126,3.9384086 A 0.83968931 0.83968931 0 1 1  35.620504 3.9384086 z" id="path2731" style="color:#000000;fill:url(#linearGradient2733);fill-opacity:1.0000000;fill-rule:evenodd;stroke:none;stroke-width:0.50000000;stroke-linecap:butt;stroke-linejoin:miter;marker:none;marker-start:none;marker-mid:none;marker-end:none;stroke-miterlimit:4.0000000;stroke-dashoffset:0.0000000;stroke-opacity:1.0000000;visibility:visible;display:inline;overflow:visible" transform="matrix(1.331237,0.000000,0.000000,0.658449,-5.464930,13.83465)"/><path d="M 9.263312,7.621363 L 8.460783,25.491693 C 19.505421,23.091063 23.882246,14.999494 37.614815,12.344943 L 37.453343,7.687427 L 9.263312,7.621363 z " id="path2443" style="opacity:0.53142856;fill:url(#linearGradient2315);fill-opacity:1;fill-rule:evenodd;stroke:none;stroke-width:0.25pt;stroke-linecap:butt;stroke-linejoin:miter;stroke-opacity:1"/><path d="M 12.752542,7.3749999 C 12.752542,7.3749999 13.065042,16.296875 13.065042,17.125 C 13.065042,17.890625 12.346292,19.15625 13.315042,19.15625 C 14.221292,19.15625 13.502542,17.859375 13.565042,17.125 C 13.622263,16.452655 13.752542,12.25 13.752542,12.25 C 13.752542,12.25 14.440042,12.34375 14.752542,11.4375 C 15.065042,10.53125 15.002542,8.625 15.002542,8.625 L 15.502542,9.375 C 16.502542,16 16.038265,20.218918 16.065042,20.71875 C 16.08848,21.15625 15.345878,23.125 16.377542,23.125 C 17.690456,23.125 16.735096,21.21082 16.752542,20.75 C 16.77117,20.257973 16.903748,16.640625 17.627542,12.375 C 18.726336,13.984375 18.042896,10.875 19.292896,17.5 L 34.417896,18.875 C 34.167896,12.25 32.002542,8.625 30.502542,7.4999999 C 30.502542,7.4999999 12.752542,7.3749999 12.752542,7.3749999 z " id="path3523" style="opacity:1;color:#000000;fill:url(#linearGradient4908);fill-opacity:1;fill-rule:nonzero;stroke:none;stroke-width:1;stroke-linecap:butt;stroke-linejoin:miter;marker:none;marker-start:none;marker-mid:none;marker-end:none;stroke-miterlimit:4;stroke-dasharray:none;stroke-dashoffset:0;stroke-opacity:1;visibility:visible;display:inline;overflow:visible"/><path d="M 30.25 36.5 A 1.125 1.125 0 1 1  28,36.5 A 1.125 1.125 0 1 1  30.25 36.5 z" id="path4938" style="opacity:0.51461989;color:#000000;fill:#ffffff;fill-opacity:1;fill-rule:nonzero;stroke:none;stroke-width:1;stroke-linecap:butt;stroke-linejoin:miter;marker:none;marker-start:none;marker-mid:none;marker-end:none;stroke-miterlimit:4;stroke-dasharray:none;stroke-dashoffset:0;stroke-opacity:1;visibility:visible;display:inline;overflow:visible" transform="matrix(0.333333,0.000000,0.000000,0.333333,6.558675,10.20833)"/><path d="M 30.25 36.5 A 1.125 1.125 0 1 1  28,36.5 A 1.125 1.125 0 1 1  30.25 36.5 z" id="path4940" style="opacity:0.51461989;color:#000000;fill:#ffffff;fill-opacity:1;fill-rule:nonzero;stroke:none;stroke-width:1;stroke-linecap:butt;stroke-linejoin:miter;marker:none;marker-start:none;marker-mid:none;marker-end:none;stroke-miterlimit:4;stroke-dasharray:none;stroke-dashoffset:0;stroke-opacity:1;visibility:visible;display:inline;overflow:visible" transform="matrix(0.250001,0.000000,0.000000,0.250001,5.892011,9.500001)"/><path d="M 18.672042,12.998214 L 19.66641,17.329243 L 20.461905,17.019884 C 20.461905,17.019884 19.865284,13.970486 19.290759,13.219185 C 18.716235,12.467884 18.60575,12.777243 18.009129,12.600467 C 18.009129,12.600467 18.451071,12.666758 18.672042,12.998214 z " id="path1524" style="opacity:0.51461989;color:#000000;fill:url(#linearGradient2405);fill-opacity:1;fill-rule:nonzero;stroke:none;stroke-width:1;stroke-linecap:butt;stroke-linejoin:miter;marker:none;marker-start:none;marker-mid:none;marker-end:none;stroke-miterlimit:4;stroke-dasharray:none;stroke-dashoffset:0;stroke-opacity:1;visibility:visible;display:inline;overflow:visible"/><g id="g2427" transform="matrix(1.124849,0.000000,0.000000,1.124849,-4.096023,-3.071291)"><path d="M 23.584646,30.192666 L 23.866362,30.192666 C 23.950127,30.192667 24.014347,30.21133 24.059022,30.248656 C 24.103991,30.28569 24.126475,30.338594 24.126476,30.40737 C 24.126475,30.47644 24.103991,30.529638 24.059022,30.566965 C 24.014347,30.603998 23.950127,30.622515 23.866362,30.622515 L 23.754381,30.622515 L 23.754381,30.850885 L 23.584646,30.850885 L 23.584646,30.192666 M 23.754381,30.315669 L 23.754381,30.499512 L 23.848286,30.499512 C 23.881204,30.499512 23.906628,30.491576 23.924557,30.475705 C 23.942485,30.45954 23.95145,30.436762 23.95145,30.40737 C 23.95145,30.377979 23.942485,30.355348 23.924557,30.339476 C 23.906628,30.323605 23.881204,30.315669 23.848286,30.315669 L 23.754381,30.315669 M 24.546625,30.303765 C 24.494896,30.303766 24.454777,30.32287 24.426267,30.361078 C 24.397758,30.399288 24.383503,30.453074 24.383503,30.522437 C 24.383503,30.591507 24.397758,30.645146 24.426267,30.683355 C 24.454777,30.721564 24.494896,30.740668 24.546625,30.740668 C 24.598647,30.740668 24.638913,30.721564 24.667424,30.683355 C 24.695933,30.645146 24.710187,30.591507 24.710188,30.522437 C 24.710187,30.453074 24.695933,30.399288 24.667424,30.361078 C 24.638913,30.32287 24.598647,30.303766 24.546625,30.303765 M 24.546625,30.180762 C 24.652433,30.180763 24.735317,30.211036 24.795276,30.271582 C 24.855234,30.332128 24.885213,30.415747 24.885214,30.522437 C 24.885213,30.628834 24.855234,30.712305 24.795276,30.772851 C 24.735317,30.833398 24.652433,30.863671 24.546625,30.863671 C 24.44111,30.863671 24.358226,30.833398 24.297974,30.772851 C 24.238016,30.712305 24.208037,30.628834 24.208037,30.522437 C 24.208037,30.415747 24.238016,30.332128 24.297974,30.271582 C 24.358226,30.211036 24.44111,30.180763 24.546625,30.180762 M 25.013066,30.192666 L 25.20264,30.192666 L 25.442033,30.644117 L 25.442033,30.192666 L 25.602951,30.192666 L 25.602951,30.850885 L 25.413376,30.850885 L 25.173984,30.399434 L 25.173984,30.850885 L 25.013066,30.850885 L 25.013066,30.192666 M 25.676135,30.192666 L 25.861741,30.192666 L 26.011637,30.427209 L 26.161533,30.192666 L 26.347581,30.192666 L 26.096725,30.573578 L 26.096725,30.850885 L 25.92699,30.850885 L 25.92699,30.573578 L 25.676135,30.192666" id="text2735" style="font-size:0.9029026px;font-style:normal;font-variant:normal;font-weight:bold;font-stretch:normal;writing-mode:lr-tb;text-anchor:start;fill:#4a4a4a;fill-opacity:1;stroke:none;stroke-width:1pt;stroke-linecap:butt;stroke-linejoin:miter;stroke-opacity:1;font-family:Bitstream Vera Sans"/><path d="M 41.10058 35.051105 A 16.882174 4.552 0 1 1  7.3362331,35.051105 A 16.882174 4.552 0 1 1  41.10058 35.051105 z" id="path3994" style="opacity:0.20467834;color:#000000;fill:url(#radialGradient2438);fill-opacity:1;fill-rule:evenodd;stroke:none;stroke-width:1;stroke-linecap:round;stroke-linejoin:miter;marker:none;marker-start:none;marker-mid:none;marker-end:none;stroke-miterlimit:4;stroke-dashoffset:0;stroke-opacity:0.70063692;visibility:visible;display:inline;overflow:visible" transform="matrix(0.531953,0.000000,0.000000,0.657752,17.94145,18.44946)"/><path d="M 23.397146,24.5 L 36.397146,24.5 C 36.397146,24.5 36.584646,19.75 35.334646,18.5625 C 34.148705,17.435856 32.459646,17.6875 32.459646,17.6875 L 32.397146,18.1875 C 32.397146,18.1875 31.772146,17.75 30.647146,17.6875 C 29.522146,17.625 28.709646,17.75 28.709646,17.75 L 29.084646,18.125 C 29.084646,18.125 27.522146,17.5 26.022146,17.5 C 24.522146,17.5 24.209646,17.5625 24.209646,17.5625 L 24.772146,17.875 C 24.772146,17.875 23.522146,17.3125 22.522146,17.3125 C 21.522146,17.3125 20.647146,17.75 20.647146,17.75 C 20.647146,17.75 22.084646,18.5 22.647146,19.5 C 23.209646,20.5 23.397146,24.5 23.397146,24.5 z " id="path4900" style="opacity:1;color:#000000;fill:url(#linearGradient2440);fill-opacity:1;fill-rule:nonzero;stroke:#3a3a3a;stroke-width:0.88900858;stroke-linecap:butt;stroke-linejoin:miter;marker:none;marker-start:none;marker-mid:none;marker-end:none;stroke-miterlimit:4;stroke-dasharray:none;stroke-dashoffset:0;stroke-opacity:1;visibility:visible;display:inline;overflow:visible"/><path d="M 22.709646,24.53125 L 22.709646,28.90625 C 22.709646,29.854448 23.480199,30.625 24.428396,30.625 L 27.678396,30.625 C 27.439137,33.023287 26.965911,34.831157 27.084646,36.915354 C 27.159021,38.220887 28.2901,39.915354 30.084646,39.915354 C 31.691819,39.915354 32.847561,38.348829 32.959646,36.790354 C 33.084646,35.052311 32.306052,33.027831 31.959646,30.625 L 34.990896,30.625 C 35.939096,30.625 36.709646,29.854447 36.709646,28.90625 L 36.709646,24.53125 C 36.709646,24.53125 22.709646,24.53125 22.709646,24.53125 z " id="rect4400" style="opacity:1;color:#000000;fill:url(#radialGradient2442);fill-opacity:1;fill-rule:nonzero;stroke:#80754c;stroke-width:0.88900858;stroke-linecap:butt;stroke-linejoin:miter;marker:none;marker-start:none;marker-mid:none;marker-end:none;stroke-miterlimit:4;stroke-dasharray:none;stroke-dashoffset:0;stroke-opacity:1;visibility:visible;display:inline;overflow:visible"/><path d="M 28.709646,29.415625 C 28.518239,31.334255 27.818213,34.838621 27.913201,36.505979 C 27.972701,37.550405 28.574009,38.984557 30.009646,38.984557 C 31.295384,38.984557 31.962845,37.715259 32.052513,36.468479 C 32.152513,35.078045 31.286771,31.33789 31.009646,29.415625 L 28.709646,29.415625 z " id="path4890" style="opacity:0.57309941;color:#000000;fill:none;fill-opacity:1;fill-rule:nonzero;stroke:url(#linearGradient2444);stroke-width:0.88900858;stroke-linecap:butt;stroke-linejoin:miter;marker:none;marker-start:none;marker-mid:none;marker-end:none;stroke-miterlimit:4;stroke-dasharray:none;stroke-dashoffset:0;stroke-opacity:1;visibility:visible;display:inline;overflow:visible"/><path d="M 23.209646,24.982422 L 23.209646,28.779297 C 23.209646,29.60897 23.82138,30.126953 24.651052,30.126953 L 34.83074,30.126953 C 35.660415,30.126953 36.209646,29.608969 36.209646,28.779297 L 36.209646,24.982422 C 36.209646,24.982422 23.209646,24.982422 23.209646,24.982422 z " id="path4880" style="opacity:1;color:#000000;fill:#e8daa5;fill-opacity:1;fill-rule:nonzero;stroke:none;stroke-width:1;stroke-linecap:butt;stroke-linejoin:miter;marker:none;marker-start:none;marker-mid:none;marker-end:none;stroke-miterlimit:4;stroke-dasharray:none;stroke-dashoffset:0;stroke-opacity:1;visibility:visible;display:inline;overflow:visible"/><path d="M 35.584646,25.03125 L 35.584646,26.948131 C 35.584646,27.357741 35.208334,27.6875 34.740896,27.6875 L 24.678396,27.6875 C 24.210959,27.6875 23.834646,27.357741 23.834646,26.948131 L 23.834646,25.03125 C 23.834646,25.03125 35.584646,25.03125 35.584646,25.03125 z " id="rect3119" style="color:#000000;fill:url(#linearGradient2446);fill-opacity:1;fill-rule:nonzero;stroke:none;stroke-width:1;stroke-linecap:butt;stroke-linejoin:miter;marker:none;marker-start:none;marker-mid:none;marker-end:none;stroke-miterlimit:4;stroke-dashoffset:0;stroke-opacity:1;visibility:visible;display:inline;overflow:visible"/><path d="M 21.803396,17.875 C 21.803396,17.875 22.959646,18.59375 23.240896,19.65625 C 23.522146,20.71875 23.678396,21.75 23.678396,21.75 L 24.459646,20.03125 L 25.334646,20.875 L 25.647146,19.5 L 27.522146,20 L 27.022146,18.96875 L 29.022146,19.90625 L 28.959646,19.21875 L 29.803396,19.96875 L 30.490896,19.34375 L 31.990896,20 L 32.865896,19.15625 L 34.115896,19.96875 C 34.115896,19.96875 33.897146,19.40625 34.022146,19.4375 C 34.147146,19.46875 35.240896,19.84375 35.240896,19.84375 L 35.522146,20.1875 C 35.522146,20.1875 35.331603,19.229934 34.897146,18.84375 C 34.053396,18.09375 32.865896,18.15625 32.865896,18.15625 L 32.740896,19.03125 C 32.740896,19.03125 31.709646,18.3125 30.834646,18.1875 C 29.959646,18.0625 29.084646,18.21875 29.084646,18.21875 L 28.897146,18.59375 C 28.897146,18.59375 27.803396,18.15625 26.834646,18.0625 C 25.865896,17.96875 24.615896,18 24.615896,18 L 24.553396,18.34375 C 24.553396,18.34375 23.647146,17.90625 23.240896,17.875 C 22.834646,17.84375 21.834646,17.90625 21.803396,17.875 z " id="path4918" style="opacity:1;color:#000000;fill:url(#linearGradient2448);fill-opacity:1;fill-rule:nonzero;stroke:none;stroke-width:1;stroke-linecap:butt;stroke-linejoin:miter;marker:none;marker-start:none;marker-mid:none;marker-end:none;stroke-miterlimit:4;stroke-dasharray:none;stroke-dashoffset:0;stroke-opacity:1;visibility:visible;display:inline;overflow:visible"/><path d="M 30.25 36.5 A 1.125 1.125 0 1 1  28,36.5 A 1.125 1.125 0 1 1  30.25 36.5 z" id="path4928" style="opacity:0.51461989;color:#000000;fill:#ffffff;fill-opacity:1;fill-rule:nonzero;stroke:none;stroke-width:1;stroke-linecap:butt;stroke-linejoin:miter;marker:none;marker-start:none;marker-mid:none;marker-end:none;stroke-miterlimit:4;stroke-dasharray:none;stroke-dashoffset:0;stroke-opacity:1;visibility:visible;display:inline;overflow:visible" transform="matrix(0.888889,0.000000,0.000000,0.888889,3.647723,4.055556)"/></g><path d="M 15.755226,9.396389 C 15.755226,9.396389 16.373944,13.727418 16.285556,15.362603 C 16.48443,12.313205 16.086682,9.5510687 16.086682,9.5510687 L 15.070216,8.4904085 L 15.755226,9.396389 z " id="path2410" style="opacity:0.51461989;color:#000000;fill:url(#linearGradient2425);fill-opacity:1;fill-rule:nonzero;stroke:none;stroke-width:1;stroke-linecap:butt;stroke-linejoin:miter;marker:none;marker-start:none;marker-mid:none;marker-end:none;stroke-miterlimit:4;stroke-dasharray:none;stroke-dashoffset:0;stroke-opacity:1;visibility:visible;display:inline;overflow:visible"/></g></svg>