<?xml version="1.0" ?><svg height="48px" id="svg2913" width="48px" xmlns="http://www.w3.org/2000/svg" xmlns:cc="http://creativecommons.org/ns#" xmlns:dc="http://purl.org/dc/elements/1.1/" xmlns:inkscape="http://www.inkscape.org/namespaces/inkscape" xmlns:rdf="http://www.w3.org/1999/02/22-rdf-syntax-ns#" xmlns:sodipodi="http://sodipodi.sourceforge.net/DTD/sodipodi-0.dtd" xmlns:svg="http://www.w3.org/2000/svg" xmlns:xlink="http://www.w3.org/1999/xlink"><defs id="defs3"><radialGradient cx="605.71429" cy="486.64789" fx="605.71429" fy="486.64789" gradientTransform="matrix(-2.774389,0,0,1.969706,112.7623,-872.8854)" gradientUnits="userSpaceOnUse" id="radialGradient6719" r="117.14286" xlink:href="#linearGradient5060"/><linearGradient id="linearGradient5060"><stop id="stop5062" offset="0" style="stop-color:black;stop-opacity:1;"/><stop id="stop5064" offset="1" style="stop-color:black;stop-opacity:0;"/></linearGradient><radialGradient cx="605.71429" cy="486.64789" fx="605.71429" fy="486.64789" gradientTransform="matrix(2.774389,0,0,1.969706,-1891.633,-872.8854)" gradientUnits="userSpaceOnUse" id="radialGradient6717" r="117.14286" xlink:href="#linearGradient5060"/><linearGradient id="linearGradient5048"><stop id="stop5050" offset="0" style="stop-color:black;stop-opacity:0;"/><stop id="stop5056" offset="0.5" style="stop-color:black;stop-opacity:1;"/><stop id="stop5052" offset="1" style="stop-color:black;stop-opacity:0;"/></linearGradient><linearGradient gradientTransform="matrix(2.774389,0,0,1.969706,-1892.179,-872.8854)" gradientUnits="userSpaceOnUse" id="linearGradient6715" x1="302.85715" x2="302.85715" xlink:href="#linearGradient5048" y1="366.64789" y2="609.50507"/><linearGradient id="linearGradient5699"><stop id="stop5701" offset="0" style="stop-color:#7a7a7a;stop-opacity:1;"/><stop id="stop5703" offset="1" style="stop-color:#a5a5a5;stop-opacity:1;"/></linearGradient><linearGradient id="linearGradient2681"><stop id="stop2683" offset="0.0000000" style="stop-color:#000000;stop-opacity:0.47524753;"/><stop id="stop2685" offset="1" style="stop-color:#000000;stop-opacity:0;"/></linearGradient><linearGradient id="linearGradient2673"><stop id="stop2675" offset="0" style="stop-color:#ffffff;stop-opacity:1;"/><stop id="stop2677" offset="1.0000000" style="stop-color:#6f6f6f;stop-opacity:1.0000000;"/></linearGradient><linearGradient id="linearGradient4264"><stop id="stop4266" offset="0" style="stop-color:#000000;stop-opacity:1;"/><stop id="stop4268" offset="1" style="stop-color:#000000;stop-opacity:0;"/></linearGradient><linearGradient id="linearGradient4254"><stop id="stop4256" offset="0" style="stop-color:#ffffff;stop-opacity:1;"/><stop id="stop4258" offset="1" style="stop-color:#ffffff;stop-opacity:0;"/></linearGradient><linearGradient id="linearGradient4244"><stop id="stop4246" offset="0.0000000" style="stop-color:#e4e4e4;stop-opacity:1.0000000;"/><stop id="stop4248" offset="1.0000000" style="stop-color:#d3d3d3;stop-opacity:1.0000000;"/></linearGradient><linearGradient id="linearGradient4228"><stop id="stop4230" offset="0.0000000" style="stop-color:#bbbbbb;stop-opacity:1.0000000;"/><stop id="stop4232" offset="1.0000000" style="stop-color:#9f9f9f;stop-opacity:1.0000000;"/></linearGradient><linearGradient gradientTransform="translate(0.000000,5.546300e-2)" gradientUnits="userSpaceOnUse" id="linearGradient4234" x1="7.6046205" x2="36.183067" xlink:href="#linearGradient4228" y1="28.481176" y2="40.943935"/><radialGradient cx="15.571491" cy="2.9585190" fx="15.571491" fy="2.9585190" gradientTransform="matrix(1.286242,0.781698,-0.710782,1.169552,-2.354348,-4.821398)" gradientUnits="userSpaceOnUse" id="radialGradient4250" r="20.935817" xlink:href="#linearGradient4244"/><linearGradient gradientTransform="translate(0.000000,5.546300e-2)" gradientUnits="userSpaceOnUse" id="linearGradient4260" x1="12.378357" x2="44.096100" xlink:href="#linearGradient4254" y1="4.4331360" y2="47.620636"/><radialGradient cx="23.201941" cy="27.096155" fx="23.201941" fy="27.096155" gradientTransform="matrix(1.000000,0.000000,0.000000,0.651032,-6.731815e-16,9.455693)" gradientUnits="userSpaceOnUse" id="radialGradient4270" r="23.555494" xlink:href="#linearGradient4264"/><radialGradient cx="40.796875" cy="33.734375" fx="40.796875" fy="33.734375" gradientTransform="matrix(1.253968,-7.218212e-15,7.218212e-15,1.253968,-10.36111,-8.567460)" gradientUnits="userSpaceOnUse" id="radialGradient2679" r="0.98437500" xlink:href="#linearGradient2673"/><linearGradient gradientUnits="userSpaceOnUse" id="linearGradient2687" x1="25.785229" x2="25.785229" xlink:href="#linearGradient2681" y1="32.363384" y2="35.670216"/><linearGradient gradientUnits="userSpaceOnUse" id="linearGradient2689" x1="25.785229" x2="25.785229" xlink:href="#linearGradient2681" y1="32.363384" y2="35.670216"/><linearGradient gradientUnits="userSpaceOnUse" id="linearGradient5705" x1="34.420757" x2="16.127340" xlink:href="#linearGradient5699" y1="22.705490" y2="10.596288"/></defs><g id="layer2"><g id="g6707" transform="matrix(2.45274e-2,0,0,2.086758e-2,45.69054,36.1536)"><rect height="478.35718" id="rect6709" style="opacity:0.40206185;color:black;fill:url(#linearGradient6715);fill-opacity:1;fill-rule:nonzero;stroke:none;stroke-width:1;stroke-linecap:round;stroke-linejoin:miter;marker:none;marker-start:none;marker-mid:none;marker-end:none;stroke-miterlimit:4;stroke-dasharray:none;stroke-dashoffset:0;stroke-opacity:1;visibility:visible;display:inline;overflow:visible" width="1339.6335" x="-1559.2523" y="-150.69685"/><path d="M -219.61876,-150.68038 C -219.61876,-150.68038 -219.61876,327.65041 -219.61876,327.65041 C -76.744594,328.55086 125.78146,220.48075 125.78138,88.454235 C 125.78138,-43.572302 -33.655436,-150.68036 -219.61876,-150.68038 z " id="path6711" style="opacity:0.40206185;color:black;fill:url(#radialGradient6717);fill-opacity:1;fill-rule:nonzero;stroke:none;stroke-width:1;stroke-linecap:round;stroke-linejoin:miter;marker:none;marker-start:none;marker-mid:none;marker-end:none;stroke-miterlimit:4;stroke-dasharray:none;stroke-dashoffset:0;stroke-opacity:1;visibility:visible;display:inline;overflow:visible"/><path d="M -1559.2523,-150.68038 C -1559.2523,-150.68038 -1559.2523,327.65041 -1559.2523,327.65041 C -1702.1265,328.55086 -1904.6525,220.48075 -1904.6525,88.454235 C -1904.6525,-43.572302 -1745.2157,-150.68036 -1559.2523,-150.68038 z " id="path6713" style="opacity:0.40206185;color:black;fill:url(#radialGradient6719);fill-opacity:1;fill-rule:nonzero;stroke:none;stroke-width:1;stroke-linecap:round;stroke-linejoin:miter;marker:none;marker-start:none;marker-mid:none;marker-end:none;stroke-miterlimit:4;stroke-dasharray:none;stroke-dashoffset:0;stroke-opacity:1;visibility:visible;display:inline;overflow:visible"/></g><path d="M 11.285690,8.0180850 C 10.660690,8.0180850 10.254441,8.3082650 10.004442,8.8618380 C 10.004441,8.8618380 3.5356915,25.965402 3.5356915,25.965402 C 3.5356915,25.965402 3.2856915,26.636961 3.2856915,27.746652 C 3.2856915,27.746652 3.2856915,37.396620 3.2856915,37.396620 C 3.2856915,38.479233 3.9434770,39.021622 4.9419415,39.021620 L 43.504440,39.021620 C 44.489293,39.021620 45.098190,38.303440 45.098190,37.177870 L 45.098190,27.527902 C 45.098190,27.527902 45.204153,26.757479 45.004440,26.215402 L 38.285690,9.0180890 C 38.101165,8.5061820 37.648785,8.0299910 37.160690,8.0180850 L 11.285690,8.0180850 z " id="path4196" style="fill:none;fill-opacity:1.0000000;fill-rule:evenodd;stroke:#535353;stroke-width:2.0000000;stroke-linecap:round;stroke-linejoin:round;stroke-miterlimit:4.0000000;stroke-dasharray:none;stroke-opacity:1.0000000"/><path d="M 3.2735915,27.052276 L 4.0381936,26.360061 L 41.647883,26.422561 L 45.110290,26.739859 L 45.110290,37.178391 C 45.110290,38.303960 44.503272,39.021722 43.518419,39.021722 L 4.9354314,39.021722 C 3.9369667,39.021722 3.2735915,38.479671 3.2735915,37.397058 L 3.2735915,27.052276 z " id="path4170" style="fill:url(#linearGradient4234);fill-opacity:1.0000000;fill-rule:evenodd;stroke:none;stroke-width:1.0204430px;stroke-linecap:butt;stroke-linejoin:miter;stroke-opacity:1.0000000"/><path d="M 3.5490842,25.969868 C 2.8347985,27.434154 3.5484686,28.362725 4.5847985,28.362725 C 4.5847985,28.362725 43.584797,28.362725 43.584797,28.362725 C 44.703844,28.338915 45.430035,27.350820 45.013368,26.219867 L 38.299082,9.0091620 C 38.114558,8.4972550 37.644320,8.0210630 37.156225,8.0091580 L 11.299083,8.0091580 C 10.674083,8.0091580 10.263369,8.3127310 10.013370,8.8663040 C 10.013370,8.8663040 3.5490842,25.969868 3.5490842,25.969868 z " id="path3093" style="fill:url(#radialGradient4250);fill-opacity:1.0000000;fill-rule:evenodd;stroke:none;stroke-width:1.0000000px;stroke-linecap:butt;stroke-linejoin:miter;stroke-opacity:1.0000000"/><path d="M 43.562434,27.674347 C 43.562434,27.674347 5.4437179,27.674346 5.4437180,27.674347 C 4.1544861,27.674347 3.5317878,27.437788 3.3154731,26.894679 C 3.4072345,27.839011 4.1854847,28.455597 5.4437180,28.455597 C 5.4437179,28.455596 43.562434,28.455597 43.562434,28.455597 C 44.638441,28.422526 45.301832,27.596846 45.047181,26.300495 C 44.913133,27.142077 44.470547,27.646437 43.562434,27.674347 z " id="path4201" style="opacity:1.0000000;fill:#ffffff;fill-opacity:1.0000000;fill-rule:evenodd;stroke:none;stroke-width:1.0000000px;stroke-linecap:butt;stroke-linejoin:miter;stroke-opacity:1.0000000"/><path d="M 38.344670,9.2120874 C 38.344670,9.2120874 44.500000,24.750000 44.500000,24.750000 C 43.881282,24.352252 43.618718,24.036612 43.000000,24.125000 L 5.2500000,24.125000 C 4.5428932,24.125000 3.8383883,24.875000 3.8383883,24.875000 L 10.125000,8.8750000 C 10.258882,8.3753463 10.748699,8.0732233 11.411612,8.0732233 L 36.830806,7.9848350 C 38.156631,8.1616117 38.123699,8.5933690 38.344670,9.2120874 z " id="path5637" style="opacity:1;color:#000000;fill:url(#linearGradient5705);fill-opacity:1.0;fill-rule:nonzero;stroke:none;stroke-width:1.0000000;stroke-linecap:butt;stroke-linejoin:miter;marker:none;marker-start:none;marker-mid:none;marker-end:none;stroke-miterlimit:4.0000000;stroke-dasharray:none;stroke-dashoffset:0.0000000;stroke-opacity:1.0000000;visibility:visible;display:inline;overflow:visible"/><path d="M 44.707773,25.362009 C 44.373548,25.128501 44.072800,25.167489 43.518240,25.139579 C 43.518240,25.139579 4.7366112,24.874414 4.7366112,24.874414 C 4.1620870,24.918608 3.4957121,25.684093 3.4957121,25.684093 C 3.4957121,25.684093 4.0667741,24.284062 4.0667741,24.284062 C 4.0667741,24.284062 4.4064556,23.120892 5.6646889,23.120892 C 5.6646888,23.120893 42.855327,23.120892 42.855327,23.120892 C 43.577781,23.153963 44.022560,23.550547 44.207491,24.016460 L 44.707773,25.362009 z " id="path5697" style="stroke-opacity:1.0000000;stroke-linejoin:miter;stroke-linecap:butt;stroke-width:1.0000000px;stroke:none;fill-rule:evenodd;fill-opacity:1;fill:#686868"/><path d="M 11.642515,8.4711800 C 11.040823,8.4711800 10.649724,8.7505390 10.409049,9.2834670 C 10.409048,9.2834670 3.9940341,25.874196 3.9940341,25.874196 C 3.9940341,25.874196 3.7533573,26.520711 3.7533573,27.589019 C 3.7533573,27.589019 3.7533573,36.879115 3.7533573,36.879115 C 3.7533573,38.233855 4.1974134,38.506014 5.3478414,38.506014 L 43.034746,38.506014 C 44.357872,38.506014 44.569062,38.189617 44.569062,36.668522 L 44.569062,27.378426 C 44.569062,27.378426 44.671072,26.636735 44.478807,26.114873 L 37.885616,9.3088910 C 37.707973,8.8160750 37.334964,8.4826410 36.865071,8.4711800 L 11.642515,8.4711800 z " id="path4252" style="fill:none;fill-opacity:1.0000000;fill-rule:evenodd;stroke:url(#linearGradient4260);stroke-width:1.0000002;stroke-linecap:round;stroke-linejoin:round;stroke-miterlimit:4.0000000;stroke-dasharray:none;stroke-opacity:1.0000000"/><g id="g2142" style="fill:url(#linearGradient2687);fill-opacity:1.0000000" transform="matrix(0.828197,0.000000,0.000000,0.610240,4.176000,11.16143)"><rect height="3.8650389" id="rect2151" style="opacity:1.0000000;color:#000000;fill:url(#linearGradient2689);fill-opacity:1.0000000;fill-rule:evenodd;stroke:none;stroke-width:1.0000000;stroke-linecap:square;stroke-linejoin:round;marker:none;marker-start:none;marker-mid:none;marker-end:none;stroke-miterlimit:4.0000000;stroke-dasharray:none;stroke-dashoffset:0.0000000;stroke-opacity:0.42372879;visibility:visible;display:inline;overflow:visible" width="37.930714" x="5.3414402" y="32.363384"/></g><path d="M 8.6250000,33.250000 C 8.6250000,33.250000 9.0696486,34.066942 9.8651437,34.022748 C 9.8651437,34.022748 40.715385,34.000000 40.715385,34.000000 C 40.671191,31.569320 40.027885,30.881430 40.027885,30.881430 L 40.062500,33.312500 L 8.6250000,33.250000 z " id="path1899" style="opacity:0.71428573;fill:#ffffff;fill-opacity:1.0000000;fill-rule:evenodd;stroke:none;stroke-width:1.0000000px;stroke-linecap:butt;stroke-linejoin:miter;stroke-opacity:1.0000000"/><path d="M 42.000000 33.984375 A 0.98437500 0.98437500 0 1 1  40.031250,33.984375 A 0.98437500 0.98437500 0 1 1  42.000000 33.984375 z" id="path2671" style="opacity:1.0000000;color:#000000;fill:url(#radialGradient2679);fill-opacity:1.0000000;fill-rule:evenodd;stroke:none;stroke-width:1.0204430px;stroke-linecap:butt;stroke-linejoin:miter;marker:none;marker-start:none;marker-mid:none;marker-end:none;stroke-miterlimit:4.0000000;stroke-dasharray:none;stroke-dashoffset:0.0000000;stroke-opacity:1.0000000;visibility:visible;display:inline;overflow:visible;font-family:Bitstream Vera Sans" transform="matrix(1.380952,0.000000,0.000000,1.380952,-15.62500,-10.94643)"/></g></svg>