<?xml version="1.0" ?><svg height="48.000000px" id="svg249" width="48.000000px" xmlns="http://www.w3.org/2000/svg" xmlns:cc="http://creativecommons.org/ns#" xmlns:dc="http://purl.org/dc/elements/1.1/" xmlns:inkscape="http://www.inkscape.org/namespaces/inkscape" xmlns:rdf="http://www.w3.org/1999/02/22-rdf-syntax-ns#" xmlns:sodipodi="http://sodipodi.sourceforge.net/DTD/sodipodi-0.dtd" xmlns:svg="http://www.w3.org/2000/svg" xmlns:xlink="http://www.w3.org/1999/xlink"><defs id="defs3"><radialGradient cx="605.71429" cy="486.64789" fx="605.71429" fy="486.64789" gradientTransform="matrix(-2.774389,0,0,1.969706,112.7623,-872.8854)" gradientUnits="userSpaceOnUse" id="radialGradient6719" r="117.14286" xlink:href="#linearGradient5060"/><linearGradient id="linearGradient5060"><stop id="stop5062" offset="0" style="stop-color:black;stop-opacity:1;"/><stop id="stop5064" offset="1" style="stop-color:black;stop-opacity:0;"/></linearGradient><radialGradient cx="605.71429" cy="486.64789" fx="605.71429" fy="486.64789" gradientTransform="matrix(2.774389,0,0,1.969706,-1891.633,-872.8854)" gradientUnits="userSpaceOnUse" id="radialGradient6717" r="117.14286" xlink:href="#linearGradient5060"/><linearGradient id="linearGradient5048"><stop id="stop5050" offset="0" style="stop-color:black;stop-opacity:0;"/><stop id="stop5056" offset="0.5" style="stop-color:black;stop-opacity:1;"/><stop id="stop5052" offset="1" style="stop-color:black;stop-opacity:0;"/></linearGradient><linearGradient gradientTransform="matrix(2.774389,0,0,1.969706,-1892.179,-872.8854)" gradientUnits="userSpaceOnUse" id="linearGradient6715" x1="302.85715" x2="302.85715" xlink:href="#linearGradient5048" y1="366.64789" y2="609.50507"/><linearGradient id="linearGradient14019"><stop id="stop14021" offset="0" style="stop-color:white;stop-opacity:1;"/><stop id="stop14023" offset="1" style="stop-color:white;stop-opacity:0;"/></linearGradient><linearGradient id="linearGradient13970"><stop id="stop13972" offset="0" style="stop-color:white;stop-opacity:1;"/><stop id="stop13974" offset="1" style="stop-color:white;stop-opacity:0;"/></linearGradient><radialGradient cx="19.2734" cy="13.0234" fx="19.2734" fy="13.0234" gradientTransform="matrix(1.25,0,0,1.25,30.68802,4.191227)" gradientUnits="userSpaceOnUse" id="aigrd5" r="20.1525"><stop id="stop11627" offset="0" style="stop-color:#23ACCD"/><stop id="stop11629" offset="1" style="stop-color:#274773"/></radialGradient><linearGradient gradientUnits="userSpaceOnUse" id="linearGradient7648" style="stroke-dasharray:none;stroke-miterlimit:4.0000000;stroke-width:1.2166667" x1="21.9326" x2="21.9326" y1="24.6274" y2="7.1091"><stop id="stop7650" offset="0" style="stop-color:#8595bc;stop-opacity:1;"/><stop id="stop7652" offset="1" style="stop-color:#041a3b;stop-opacity:1;"/></linearGradient><linearGradient id="linearGradient4542"><stop id="stop4544" offset="0" style="stop-color:#000000;stop-opacity:1;"/><stop id="stop4546" offset="1" style="stop-color:#000000;stop-opacity:0;"/></linearGradient><linearGradient id="linearGradient15662"><stop id="stop15664" offset="0.0000000" style="stop-color:#ffffff;stop-opacity:1.0000000;"/><stop id="stop15666" offset="1.0000000" style="stop-color:#f8f8f8;stop-opacity:1.0000000;"/></linearGradient><radialGradient cx="20.8921" cy="64.5679" fx="20.8921" fy="64.5679" gradientUnits="userSpaceOnUse" id="aigrd3" r="5.257"><stop id="stop15573" offset="0" style="stop-color:#F0F0F0"/><stop id="stop15575" offset="1.0000000" style="stop-color:#9a9a9a;stop-opacity:1.0000000;"/></radialGradient><radialGradient cx="20.8921" cy="114.5684" fx="20.8921" fy="114.5684" gradientUnits="userSpaceOnUse" id="aigrd2" r="5.256"><stop id="stop15566" offset="0" style="stop-color:#F0F0F0"/><stop id="stop15568" offset="1.0000000" style="stop-color:#9a9a9a;stop-opacity:1.0000000;"/></radialGradient><linearGradient id="linearGradient269"><stop id="stop270" offset="0.0000000" style="stop-color:#a3a3a3;stop-opacity:1.0000000;"/><stop id="stop271" offset="1.0000000" style="stop-color:#4c4c4c;stop-opacity:1.0000000;"/></linearGradient><linearGradient id="linearGradient259"><stop id="stop260" offset="0.0000000" style="stop-color:#fafafa;stop-opacity:1.0000000;"/><stop id="stop261" offset="1.0000000" style="stop-color:#bbbbbb;stop-opacity:1.0000000;"/></linearGradient><radialGradient cx="8.8244190" cy="3.7561285" fx="8.8244190" fy="3.7561285" gradientTransform="matrix(0.968273,0.000000,0.000000,1.032767,3.353553,0.646447)" gradientUnits="userSpaceOnUse" id="radialGradient15656" r="37.751713" xlink:href="#linearGradient269"/><radialGradient cx="33.966679" cy="35.736916" fx="33.966679" fy="35.736916" gradientTransform="scale(0.960493,1.041132)" gradientUnits="userSpaceOnUse" id="radialGradient15658" r="86.708450" xlink:href="#linearGradient259"/><radialGradient cx="8.1435566" cy="7.2678967" fx="8.1435566" fy="7.2678967" gradientTransform="matrix(0.968273,0.000000,0.000000,1.032767,3.353553,0.646447)" gradientUnits="userSpaceOnUse" id="radialGradient15668" r="38.158695" xlink:href="#linearGradient15662"/><radialGradient cx="24.306795" cy="42.07798" fx="24.306795" fy="42.07798" gradientTransform="matrix(1.000000,0.000000,0.000000,0.284916,0.000000,30.08928)" gradientUnits="userSpaceOnUse" id="radialGradient4548" r="15.821514" xlink:href="#linearGradient4542"/><linearGradient gradientTransform="matrix(1.098989,0,0,-0.797757,-1.953865,37.324)" gradientUnits="userSpaceOnUse" id="linearGradient8229" x1="21.9326" x2="21.9326" xlink:href="#linearGradient7648" y1="24.627399" y2="7.1090999"/><radialGradient cx="19.2734" cy="13.0234" fx="19.2734" fy="13.0234" gradientTransform="matrix(1.25,0,0,1.25,30.68802,4.191227)" gradientUnits="userSpaceOnUse" id="radialGradient13968" r="20.1525" xlink:href="#aigrd5"/><linearGradient gradientUnits="userSpaceOnUse" id="linearGradient13976" x1="24.723816" x2="32.859928" xlink:href="#linearGradient13970" y1="18.951727" y2="55.751728"/><radialGradient cx="19.2734" cy="13.0234" fx="19.2734" fy="13.0234" gradientTransform="matrix(1.25,0,0,1.25,38.45457,6.091227)" gradientUnits="userSpaceOnUse" id="radialGradient13997" r="20.1525" xlink:href="#aigrd5"/><linearGradient gradientUnits="userSpaceOnUse" id="linearGradient13999" x1="24.723816" x2="32.859928" xlink:href="#linearGradient13970" y1="18.951727" y2="55.751728"/><radialGradient cx="19.2734" cy="13.0234" fx="19.2734" fy="13.0234" gradientTransform="matrix(1.25,0,0,1.25,30.45457,3.84555)" gradientUnits="userSpaceOnUse" id="radialGradient14010" r="20.1525" xlink:href="#aigrd5"/><linearGradient gradientUnits="userSpaceOnUse" id="linearGradient14012" x1="24.723816" x2="32.859928" xlink:href="#linearGradient13970" y1="18.951727" y2="55.751728"/><linearGradient gradientUnits="userSpaceOnUse" id="linearGradient14025" x1="28.125" x2="29.341478" xlink:href="#linearGradient14019" y1="9.5398483" y2="40.882267"/><linearGradient gradientTransform="matrix(1.098989,0,0,-0.797757,-1.953865,37.324)" gradientUnits="userSpaceOnUse" id="linearGradient14055" x1="21.9326" x2="21.9326" xlink:href="#linearGradient7648" y1="24.627399" y2="7.1090999"/><linearGradient gradientUnits="userSpaceOnUse" id="linearGradient14085" x1="28.125" x2="29.341478" xlink:href="#linearGradient14019" y1="9.5398483" y2="40.882267"/></defs><g id="layer6"><g id="g6707" style="display:inline" transform="matrix(2.105461e-2,0,0,2.086758e-2,42.85172,41.1536)"><rect height="478.35718" id="rect6709" style="opacity:0.40206185;color:black;fill:url(#linearGradient6715);fill-opacity:1;fill-rule:nonzero;stroke:none;stroke-width:1;stroke-linecap:round;stroke-linejoin:miter;marker:none;marker-start:none;marker-mid:none;marker-end:none;stroke-miterlimit:4;stroke-dasharray:none;stroke-dashoffset:0;stroke-opacity:1;visibility:visible;display:inline;overflow:visible" width="1339.6335" x="-1559.2523" y="-150.69685"/><path d="M -219.61876,-150.68038 C -219.61876,-150.68038 -219.61876,327.65041 -219.61876,327.65041 C -76.744594,328.55086 125.78146,220.48075 125.78138,88.454235 C 125.78138,-43.572302 -33.655436,-150.68036 -219.61876,-150.68038 z " id="path6711" style="opacity:0.40206185;color:black;fill:url(#radialGradient6717);fill-opacity:1;fill-rule:nonzero;stroke:none;stroke-width:1;stroke-linecap:round;stroke-linejoin:miter;marker:none;marker-start:none;marker-mid:none;marker-end:none;stroke-miterlimit:4;stroke-dasharray:none;stroke-dashoffset:0;stroke-opacity:1;visibility:visible;display:inline;overflow:visible"/><path d="M -1559.2523,-150.68038 C -1559.2523,-150.68038 -1559.2523,327.65041 -1559.2523,327.65041 C -1702.1265,328.55086 -1904.6525,220.48075 -1904.6525,88.454235 C -1904.6525,-43.572302 -1745.2157,-150.68036 -1559.2523,-150.68038 z " id="path6713" style="opacity:0.40206185;color:black;fill:url(#radialGradient6719);fill-opacity:1;fill-rule:nonzero;stroke:none;stroke-width:1;stroke-linecap:round;stroke-linejoin:miter;marker:none;marker-start:none;marker-mid:none;marker-end:none;stroke-miterlimit:4;stroke-dasharray:none;stroke-dashoffset:0;stroke-opacity:1;visibility:visible;display:inline;overflow:visible"/></g></g><g id="layer1" style="display:inline"><rect height="40.920494" id="rect15391" ry="1.1490486" style="color:#000000;fill:url(#radialGradient15658);fill-opacity:1.0000000;fill-rule:nonzero;stroke:url(#radialGradient15656);stroke-width:1.0000000;stroke-linecap:round;stroke-linejoin:round;stroke-miterlimit:4.0000000;stroke-dashoffset:0.0000000;stroke-opacity:1.0000000;marker:none;marker-start:none;marker-mid:none;marker-end:none;visibility:visible;display:block;overflow:visible" width="34.875000" x="6.6035528" y="3.6464462"/><g id="g5376" style="opacity:1;display:inline" transform="translate(-4.882683,11.18582)"><g id="g7654" transform="matrix(0.608982,0,0,0.606219,12.8233,10.5572)"><path d="M 5.512695,30 L 39.643234,30 L 39.643234,19.627375 L 5.512695,19.627375 L 5.512695,30 z " id="path7644" style="fill:url(#linearGradient14055);fill-opacity:1;fill-rule:nonzero;stroke:none;stroke-width:1.2166667;stroke-miterlimit:4"/><path d="M 5.512695,5.6791358 L 39.643234,5.6791358 L 39.643234,19.627375 L 5.512695,19.627375 L 5.512695,5.6791358 z " id="path16203" style="fill:#729fcf;fill-opacity:1;fill-rule:nonzero;stroke:none;stroke-width:1.2166667;stroke-miterlimit:4"/><g id="g16205" style="fill-rule:nonzero;stroke:black;stroke-width:2.00241709;stroke-miterlimit:4" transform="matrix(1.189217,0,0,1.189217,-3.525355,-6.535408)"><g id="g16207"><path d="M 18.4,15.4 C 18.4,17.6 16.6,19.5 14.3,19.5 C 12.1,19.5 10.2,17.7 10.2,15.4 C 10.2,13.2 12,11.3 14.3,11.3 C 16.5,11.3 18.4,13.1 18.4,15.4 z " id="path16209" style="opacity:0.04999994;fill:#e8f52f;stroke:none"/><path d="M 18,15.4 C 18,17.4 16.4,19.1 14.3,19.1 C 12.3,19.1 10.6,17.5 10.6,15.4 C 10.6,13.4 12.2,11.7 14.3,11.7 C 16.3,11.7 18,13.3 18,15.4 L 18,15.4 z " id="path16211" style="opacity:0.20829994;fill:#ecf751;stroke:none"/><path d="M 17.6,15.4 C 17.6,17.2 16.1,18.7 14.3,18.7 C 12.5,18.7 11,17.2 11,15.4 C 11,13.6 12.5,12.1 14.3,12.1 C 16.1,12.1 17.6,13.6 17.6,15.4 L 17.6,15.4 z " id="path16213" style="opacity:0.36669994;fill:#f0f972;stroke:none"/><path d="M 17.2,15.4 C 17.2,17 15.9,18.3 14.3,18.3 C 12.7,18.3 11.4,17 11.4,15.4 C 11.4,13.8 12.7,12.5 14.3,12.5 C 15.9,12.5 17.2,13.8 17.2,15.4 z " id="path16215" style="opacity:0.525;fill:#f4fa95;stroke:none"/><path d="M 16.8,15.4 C 16.8,16.8 15.7,17.9 14.3,17.9 C 12.9,17.9 11.8,16.8 11.8,15.4 C 11.8,14 12.9,12.9 14.3,12.9 C 15.7,12.9 16.8,14 16.8,15.4 L 16.8,15.4 z " id="path16217" style="opacity:0.6833;fill:#f7fcb7;stroke:none"/><path d="M 16.4,15.4 C 16.4,16.6 15.4,17.5 14.3,17.5 C 13.2,17.5 12.2,16.5 12.2,15.4 C 12.2,14.3 13.2,13.3 14.3,13.3 C 15.4,13.3 16.4,14.3 16.4,15.4 z " id="path16219" style="opacity:0.8417;fill:#fbfddb;stroke:none"/><path d="M 16,15.4 C 16,16.4 15.2,17.2 14.2,17.2 C 13.2,17.2 12.4,16.4 12.4,15.4 C 12.4,14.4 13.2,13.6 14.2,13.6 C 15.2,13.6 16,14.4 16,15.4 L 16,15.4 z " id="path16221" style="fill:white;stroke:none"/></g></g><path d="M 25.015859,21.649044 L 33.697148,21.649044 L 35.362052,22.124732 L 32.507931,22.124732 C 32.507931,22.124732 35.362052,22.362574 36.789115,24.146401 C 38.216174,25.811305 35.12421,27.832976 35.12421,27.832976 C 35.12421,27.832976 35.12421,27.832976 35.12421,27.832976 C 35.005288,27.47621 34.291756,24.622087 32.864696,23.43287 C 31.794399,22.481496 30.605182,22.243652 30.605182,22.243652 L 25.015859,22.243652 L 25.015859,21.767966 L 25.015859,21.649044 z " id="path16223" style="opacity:0.3;fill-rule:nonzero;stroke:none;stroke-width:1.2166667;stroke-miterlimit:4"/><path d="M 30.724106,22.362574 L 25.729391,22.362574 L 35.005288,27.595131 L 30.724106,22.362574 L 30.724106,22.362574 z " id="path16225" style="opacity:0.3;fill-rule:nonzero;stroke:none;stroke-width:1.2166667;stroke-miterlimit:4"/><path d="M 25.015859,21.767966 L 33.697148,21.767966 L 35.005288,20.935513 L 32.151167,20.935513 C 32.151167,20.935513 34.767443,20.459827 35.12421,17.486782 C 35.480973,14.513739 31.080869,11.183931 31.080869,11.183931 C 31.080869,11.183931 31.080869,11.183931 31.080869,11.302853 C 31.19979,12.016383 32.389007,17.011096 31.556557,18.913846 C 31.19979,20.578747 30.129495,20.935513 30.129495,20.935513 L 24.659094,20.935513 L 24.896938,21.767966 L 25.015859,21.767966 z " id="path16227" style="fill:#515151;fill-rule:nonzero;stroke:none;stroke-width:1.2166667;stroke-miterlimit:4"/><path d="M 30.248418,20.459827 L 25.253704,20.459827 L 31.19979,11.421773 L 30.248418,20.459827 z " id="path16229" style="fill:#515151;fill-rule:nonzero;stroke:none;stroke-width:1.2166667;stroke-miterlimit:4"/></g><rect height="13.997463" id="rect8163" style="opacity:1;color:black;fill:none;fill-opacity:1;fill-rule:nonzero;stroke:#9e9e9e;stroke-width:0.99999863;stroke-linecap:butt;stroke-linejoin:miter;marker:none;marker-start:none;marker-mid:none;marker-end:none;stroke-miterlimit:4;stroke-dasharray:none;stroke-dashoffset:0;stroke-opacity:1;visibility:visible;display:inline;overflow:visible" width="19.995502" x="16.508501" y="14.485752"/></g><rect height="38.946384" id="rect15660" rx="0.14904857" ry="0.14904857" style="color:#000000;fill:none;fill-opacity:1.0000000;fill-rule:nonzero;stroke:url(#radialGradient15668);stroke-width:1.0000000;stroke-linecap:round;stroke-linejoin:round;stroke-miterlimit:4.0000000;stroke-dashoffset:0.0000000;stroke-opacity:1.0000000;marker:none;marker-start:none;marker-mid:none;marker-end:none;visibility:visible;display:block;overflow:visible" width="32.775887" x="7.6660538" y="4.5839462"/></g><g id="layer5" style="display:inline"><g id="g14073" style="opacity:0.60112359" transform="translate(-1,1)"><rect height="1.9999999" id="rect14027" style="opacity:1;color:black;fill:black;fill-opacity:1;fill-rule:evenodd;stroke:none;stroke-width:1;stroke-linecap:butt;stroke-linejoin:miter;marker:none;marker-start:none;marker-mid:none;marker-end:none;stroke-miterlimit:4;stroke-dasharray:none;stroke-dashoffset:0;stroke-opacity:1;visibility:visible;display:inline;overflow:visible" width="2" x="15" y="7"/><rect height="1.9999999" id="rect14029" style="opacity:1;color:black;fill:black;fill-opacity:1;fill-rule:evenodd;stroke:none;stroke-width:1;stroke-linecap:butt;stroke-linejoin:miter;marker:none;marker-start:none;marker-mid:none;marker-end:none;stroke-miterlimit:4;stroke-dasharray:none;stroke-dashoffset:0;stroke-opacity:1;visibility:visible;display:inline;overflow:visible" width="2" x="37" y="7"/><rect height="1.9999999" id="rect14031" style="opacity:1;color:black;fill:black;fill-opacity:1;fill-rule:evenodd;stroke:none;stroke-width:1;stroke-linecap:butt;stroke-linejoin:miter;marker:none;marker-start:none;marker-mid:none;marker-end:none;stroke-miterlimit:4;stroke-dasharray:none;stroke-dashoffset:0;stroke-opacity:1;visibility:visible;display:inline;overflow:visible" width="2" x="37" y="29"/><rect height="1.9999999" id="rect14035" style="opacity:1;color:black;fill:black;fill-opacity:1;fill-rule:evenodd;stroke:none;stroke-width:1;stroke-linecap:butt;stroke-linejoin:miter;marker:none;marker-start:none;marker-mid:none;marker-end:none;stroke-miterlimit:4;stroke-dasharray:none;stroke-dashoffset:0;stroke-opacity:1;visibility:visible;display:inline;overflow:visible" width="2" x="15" y="29"/><rect height="1" id="rect14057" style="opacity:1;color:black;fill:black;fill-opacity:1;fill-rule:evenodd;stroke:none;stroke-width:1;stroke-linecap:butt;stroke-linejoin:miter;marker:none;marker-start:none;marker-mid:none;marker-end:none;stroke-miterlimit:4;stroke-dasharray:none;stroke-dashoffset:0;stroke-opacity:1;visibility:visible;display:inline;overflow:visible" width="1" x="15.116116" y="18"/><rect height="1" id="rect14059" style="opacity:1;color:black;fill:black;fill-opacity:1;fill-rule:evenodd;stroke:none;stroke-width:1;stroke-linecap:butt;stroke-linejoin:miter;marker:none;marker-start:none;marker-mid:none;marker-end:none;stroke-miterlimit:4;stroke-dasharray:none;stroke-dashoffset:0;stroke-opacity:1;visibility:visible;display:inline;overflow:visible" width="1" x="38" y="18"/><rect height="1" id="rect14061" style="opacity:1;color:black;fill:black;fill-opacity:1;fill-rule:evenodd;stroke:none;stroke-width:1;stroke-linecap:butt;stroke-linejoin:miter;marker:none;marker-start:none;marker-mid:none;marker-end:none;stroke-miterlimit:4;stroke-dasharray:none;stroke-dashoffset:0;stroke-opacity:1;visibility:visible;display:inline;overflow:visible" transform="matrix(2.35814e-18,1,-1,2.35814e-18,0,0)" width="1" x="7" y="-28"/><rect height="1" id="rect14063" style="opacity:1;color:black;fill:black;fill-opacity:1;fill-rule:evenodd;stroke:none;stroke-width:1;stroke-linecap:butt;stroke-linejoin:miter;marker:none;marker-start:none;marker-mid:none;marker-end:none;stroke-miterlimit:4;stroke-dasharray:none;stroke-dashoffset:0;stroke-opacity:1;visibility:visible;display:inline;overflow:visible" transform="matrix(2.35814e-18,1,-1,2.35814e-18,0,0)" width="1" x="29.883884" y="-28"/><path d="M 38 17.125 A 9.875 9.875 0 1 1  18.25,17.125 A 9.875 9.875 0 1 1  38 17.125 z" id="path14015" style="opacity:1;color:black;fill:#73d216;fill-opacity:1;fill-rule:evenodd;stroke:#4e9a06;stroke-width:1.02597404;stroke-linecap:butt;stroke-linejoin:miter;marker:none;marker-start:none;marker-mid:none;marker-end:none;stroke-miterlimit:4;stroke-dasharray:none;stroke-dashoffset:0;stroke-opacity:1;visibility:visible;display:inline;overflow:visible" transform="matrix(0.974684,0,0,0.974684,-0.412975,2.183544)"/><path d="M 38 17.125 A 9.875 9.875 0 1 1  18.25,17.125 A 9.875 9.875 0 1 1  38 17.125 z" id="path14017" style="opacity:0.28089887;color:black;fill:none;fill-opacity:1;fill-rule:evenodd;stroke:url(#linearGradient14085);stroke-width:1.14492857;stroke-linecap:butt;stroke-linejoin:miter;marker:none;marker-start:none;marker-mid:none;marker-end:none;stroke-miterlimit:4;stroke-dasharray:none;stroke-dashoffset:0;stroke-opacity:1;visibility:visible;display:inline;overflow:visible" transform="matrix(0.873417,0,0,0.873417,2.43515,3.917736)"/></g></g></svg>