<?xml version="1.0" ?><svg height="48px" id="svg1306" width="48px" xmlns="http://www.w3.org/2000/svg" xmlns:cc="http://creativecommons.org/ns#" xmlns:dc="http://purl.org/dc/elements/1.1/" xmlns:inkscape="http://www.inkscape.org/namespaces/inkscape" xmlns:rdf="http://www.w3.org/1999/02/22-rdf-syntax-ns#" xmlns:sodipodi="http://sodipodi.sourceforge.net/DTD/sodipodi-0.dtd" xmlns:svg="http://www.w3.org/2000/svg" xmlns:xlink="http://www.w3.org/1999/xlink"><defs id="defs1308"><radialGradient cx="605.71429" cy="486.64789" fx="605.71429" fy="486.64789" gradientTransform="matrix(-2.774389,0,0,1.969706,112.7623,-872.8854)" gradientUnits="userSpaceOnUse" id="radialGradient6719" r="117.14286" xlink:href="#linearGradient5060"/><linearGradient id="linearGradient5060"><stop id="stop5062" offset="0" style="stop-color:black;stop-opacity:1;"/><stop id="stop5064" offset="1" style="stop-color:black;stop-opacity:0;"/></linearGradient><radialGradient cx="605.71429" cy="486.64789" fx="605.71429" fy="486.64789" gradientTransform="matrix(2.774389,0,0,1.969706,-1891.633,-872.8854)" gradientUnits="userSpaceOnUse" id="radialGradient6717" r="117.14286" xlink:href="#linearGradient5060"/><linearGradient id="linearGradient5048"><stop id="stop5050" offset="0" style="stop-color:black;stop-opacity:0;"/><stop id="stop5056" offset="0.5" style="stop-color:black;stop-opacity:1;"/><stop id="stop5052" offset="1" style="stop-color:black;stop-opacity:0;"/></linearGradient><linearGradient gradientTransform="matrix(2.774389,0,0,1.969706,-1892.179,-872.8854)" gradientUnits="userSpaceOnUse" id="linearGradient6715" x1="302.85715" x2="302.85715" xlink:href="#linearGradient5048" y1="366.64789" y2="609.50507"/><linearGradient id="linearGradient4785"><stop id="stop4787" offset="0" style="stop-color:#2e3436;stop-opacity:1;"/><stop id="stop4789" offset="1" style="stop-color:#2e3436;stop-opacity:0;"/></linearGradient><linearGradient id="linearGradient4767"><stop id="stop4769" offset="0" style="stop-color:#729fcf"/><stop id="stop4771" offset="1" style="stop-color:#3465a4"/></linearGradient><linearGradient id="linearGradient4755"><stop id="stop4757" offset="0" style="stop-color:#eeeeec;stop-opacity:1;"/><stop id="stop4759" offset="1" style="stop-color:#ffffff;stop-opacity:1.0000000"/></linearGradient><linearGradient gradientUnits="userSpaceOnUse" id="linearGradient4761" x1="36.668537" x2="10.303555" xlink:href="#linearGradient4755" y1="36.383247" y2="7.4928832"/><linearGradient gradientTransform="translate(-1.000000,-1.000000)" gradientUnits="userSpaceOnUse" id="linearGradient4773" x1="18.561554" x2="30.935921" xlink:href="#linearGradient4767" y1="12.998214" y2="33.681091"/><radialGradient cx="22.402998" cy="43.071735" fx="22.402998" fy="43.071735" gradientTransform="matrix(1.026073,-4.434013e-3,9.770098e-4,7.524542e-2,-0.626191,41.79022)" gradientUnits="userSpaceOnUse" id="radialGradient4791" r="22.318058" xlink:href="#linearGradient4785"/><linearGradient gradientTransform="translate(105.0249,14.77363)" gradientUnits="userSpaceOnUse" id="linearGradient4815" x1="18.561554" x2="30.935921" xlink:href="#linearGradient4767" y1="12.998214" y2="33.681091"/></defs><g id="layer1"><g id="g6707" style="display:inline" transform="matrix(2.47484e-2,0,0,2.086758e-2,46.13711,41.50715)"><rect height="478.35718" id="rect6709" style="opacity:0.40206185;color:black;fill:url(#linearGradient6715);fill-opacity:1;fill-rule:nonzero;stroke:none;stroke-width:1;stroke-linecap:round;stroke-linejoin:miter;marker:none;marker-start:none;marker-mid:none;marker-end:none;stroke-miterlimit:4;stroke-dasharray:none;stroke-dashoffset:0;stroke-opacity:1;visibility:visible;display:inline;overflow:visible" width="1339.6335" x="-1559.2523" y="-150.69685"/><path d="M -219.61876,-150.68038 C -219.61876,-150.68038 -219.61876,327.65041 -219.61876,327.65041 C -76.744594,328.55086 125.78146,220.48075 125.78138,88.454235 C 125.78138,-43.572302 -33.655436,-150.68036 -219.61876,-150.68038 z " id="path6711" style="opacity:0.40206185;color:black;fill:url(#radialGradient6717);fill-opacity:1;fill-rule:nonzero;stroke:none;stroke-width:1;stroke-linecap:round;stroke-linejoin:miter;marker:none;marker-start:none;marker-mid:none;marker-end:none;stroke-miterlimit:4;stroke-dasharray:none;stroke-dashoffset:0;stroke-opacity:1;visibility:visible;display:inline;overflow:visible"/><path d="M -1559.2523,-150.68038 C -1559.2523,-150.68038 -1559.2523,327.65041 -1559.2523,327.65041 C -1702.1265,328.55086 -1904.6525,220.48075 -1904.6525,88.454235 C -1904.6525,-43.572302 -1745.2157,-150.68036 -1559.2523,-150.68038 z " id="path6713" style="opacity:0.40206185;color:black;fill:url(#radialGradient6719);fill-opacity:1;fill-rule:nonzero;stroke:none;stroke-width:1;stroke-linecap:round;stroke-linejoin:miter;marker:none;marker-start:none;marker-mid:none;marker-end:none;stroke-miterlimit:4;stroke-dasharray:none;stroke-dashoffset:0;stroke-opacity:1;visibility:visible;display:inline;overflow:visible"/></g><rect height="42.987240" id="rect1314" rx="0.99906075" ry="0.99914879" style="opacity:1.0000000;fill:url(#linearGradient4761);fill-opacity:1.0;stroke:#888a85;stroke-width:1.0249254;stroke-linecap:round;stroke-linejoin:round;stroke-miterlimit:4.0000000;stroke-dasharray:none;stroke-dashoffset:0.0000000;stroke-opacity:1.0000000" width="41.011471" x="3.4883704" y="2.5121932"/><path d="M 39.000000,39.008527 C 36.343774,38.775525 36.064168,38.777717 35.458362,35.375884 L 31.077914,8.9999998 L 30.241301,8.9999998 L 16.352156,32.300251 C 12.670720,38.498111 11.798459,38.635723 9.9344410,39.008527 L 9.9344410,40.129135 L 19.054985,40.129135 L 19.054985,39.008527 C 16.678362,38.775525 16.305555,38.917521 16.305555,37.752510 C 16.305555,36.867101 16.445358,36.447694 17.237565,34.863278 L 19.893794,30.159922 L 30.145904,30.159922 L 31.077914,35.702087 C 31.124515,36.121492 31.171115,36.540897 31.171115,36.913700 C 31.171115,38.684518 30.924955,38.728924 27.942526,39.008527 L 27.942526,40.129135 L 39.000000,40.129135 L 39.000000,39.008527 M 20.872404,27.919804 L 27.862480,15.803673 L 29.912902,27.919804 L 20.872404,27.919804" id="text2044" style="font-size:46.600502px;font-style:italic;font-variant:normal;font-weight:normal;font-stretch:normal;text-align:start;line-height:125.00000%;writing-mode:lr-tb;text-anchor:start;fill:url(#linearGradient4773);fill-opacity:1.0000000;stroke:none;stroke-width:1.0000000px;stroke-linecap:butt;stroke-linejoin:miter;stroke-opacity:1.0000000;font-family:Nimbus Roman No9 L"/><path d="M 23.246135 9.9819622 A 1.1048543 0.93912619 0 1 1  21.036427,9.9819622 A 1.1048543 0.93912619 0 1 1  23.246135 9.9819622 z" id="path4633" style="opacity:1.0000000;fill:#888a85;fill-opacity:1.0000000;stroke:none;stroke-width:1.0000000;stroke-linecap:round;stroke-linejoin:round;stroke-miterlimit:4.0000000;stroke-dasharray:none;stroke-dashoffset:0.0000000;stroke-opacity:1.0000000;display:inline" transform="matrix(0.452550,0.000000,0.000000,-0.532412,-2.520060,11.81453)"/><path d="M 23.246135 9.9819622 A 1.1048543 0.93912619 0 1 1  21.036427,9.9819622 A 1.1048543 0.93912619 0 1 1  23.246135 9.9819622 z" id="path4635" style="opacity:1.0000000;fill:#888a85;fill-opacity:1.0000000;stroke:none;stroke-width:1.0000000;stroke-linecap:round;stroke-linejoin:round;stroke-miterlimit:4.0000000;stroke-dasharray:none;stroke-dashoffset:0.0000000;stroke-opacity:1.0000000;display:inline" transform="matrix(0.452550,0.000000,0.000000,-0.532412,-2.520061,13.81454)"/><path d="M 23.246135 9.9819622 A 1.1048543 0.93912619 0 1 1  21.036427,9.9819622 A 1.1048543 0.93912619 0 1 1  23.246135 9.9819622 z" id="path4639" style="opacity:1.0000000;fill:#888a85;fill-opacity:1.0000000;stroke:none;stroke-width:1.0000000;stroke-linecap:round;stroke-linejoin:round;stroke-miterlimit:4.0000000;stroke-dasharray:none;stroke-dashoffset:0.0000000;stroke-opacity:1.0000000;display:inline" transform="matrix(0.452550,0.000000,0.000000,-0.532412,-2.520065,17.81454)"/><path d="M 23.246135 9.9819622 A 1.1048543 0.93912619 0 1 1  21.036427,9.9819622 A 1.1048543 0.93912619 0 1 1  23.246135 9.9819622 z" id="path4641" style="opacity:1.0000000;fill:#888a85;fill-opacity:1.0000000;stroke:none;stroke-width:1.0000000;stroke-linecap:round;stroke-linejoin:round;stroke-miterlimit:4.0000000;stroke-dasharray:none;stroke-dashoffset:0.0000000;stroke-opacity:1.0000000;display:inline" transform="matrix(0.452550,0.000000,0.000000,-0.532412,-2.520061,19.81454)"/><path d="M 23.246135 9.9819622 A 1.1048543 0.93912619 0 1 1  21.036427,9.9819622 A 1.1048543 0.93912619 0 1 1  23.246135 9.9819622 z" id="path4643" style="opacity:1.0000000;fill:#888a85;fill-opacity:1.0000000;stroke:none;stroke-width:1.0000000;stroke-linecap:round;stroke-linejoin:round;stroke-miterlimit:4.0000000;stroke-dasharray:none;stroke-dashoffset:0.0000000;stroke-opacity:1.0000000;display:inline" transform="matrix(0.452550,0.000000,0.000000,-0.532412,-2.520056,21.81454)"/><path d="M 23.246135 9.9819622 A 1.1048543 0.93912619 0 1 1  21.036427,9.9819622 A 1.1048543 0.93912619 0 1 1  23.246135 9.9819622 z" id="path4645" style="opacity:1.0000000;fill:#888a85;fill-opacity:1.0000000;stroke:none;stroke-width:1.0000000;stroke-linecap:round;stroke-linejoin:round;stroke-miterlimit:4.0000000;stroke-dasharray:none;stroke-dashoffset:0.0000000;stroke-opacity:1.0000000;display:inline" transform="matrix(0.452550,0.000000,0.000000,-0.532412,-2.520057,23.81455)"/><path d="M 23.246135 9.9819622 A 1.1048543 0.93912619 0 1 1  21.036427,9.9819622 A 1.1048543 0.93912619 0 1 1  23.246135 9.9819622 z" id="path4647" style="opacity:1.0000000;fill:#888a85;fill-opacity:1.0000000;stroke:none;stroke-width:1.0000000;stroke-linecap:round;stroke-linejoin:round;stroke-miterlimit:4.0000000;stroke-dasharray:none;stroke-dashoffset:0.0000000;stroke-opacity:1.0000000;display:inline" transform="matrix(0.452550,0.000000,0.000000,-0.532412,-2.520061,25.81454)"/><path d="M 23.246135 9.9819622 A 1.1048543 0.93912619 0 1 1  21.036427,9.9819622 A 1.1048543 0.93912619 0 1 1  23.246135 9.9819622 z" id="path4649" style="opacity:1.0000000;fill:#888a85;fill-opacity:1.0000000;stroke:none;stroke-width:1.0000000;stroke-linecap:round;stroke-linejoin:round;stroke-miterlimit:4.0000000;stroke-dasharray:none;stroke-dashoffset:0.0000000;stroke-opacity:1.0000000;display:inline" transform="matrix(0.452550,0.000000,0.000000,-0.532412,-2.520061,27.81455)"/><path d="M 23.246135 9.9819622 A 1.1048543 0.93912619 0 1 1  21.036427,9.9819622 A 1.1048543 0.93912619 0 1 1  23.246135 9.9819622 z" id="path4651" style="opacity:1.0000000;fill:#888a85;fill-opacity:1.0000000;stroke:none;stroke-width:1.0000000;stroke-linecap:round;stroke-linejoin:round;stroke-miterlimit:4.0000000;stroke-dasharray:none;stroke-dashoffset:0.0000000;stroke-opacity:1.0000000;display:inline" transform="matrix(0.452550,0.000000,0.000000,-0.532412,-2.520057,29.81455)"/><path d="M 23.246135 9.9819622 A 1.1048543 0.93912619 0 1 1  21.036427,9.9819622 A 1.1048543 0.93912619 0 1 1  23.246135 9.9819622 z" id="path4653" style="opacity:1.0000000;fill:#888a85;fill-opacity:1.0000000;stroke:none;stroke-width:1.0000000;stroke-linecap:round;stroke-linejoin:round;stroke-miterlimit:4.0000000;stroke-dasharray:none;stroke-dashoffset:0.0000000;stroke-opacity:1.0000000;display:inline" transform="matrix(0.452550,0.000000,0.000000,-0.532412,-2.520065,31.81454)"/><path d="M 23.246135 9.9819622 A 1.1048543 0.93912619 0 1 1  21.036427,9.9819622 A 1.1048543 0.93912619 0 1 1  23.246135 9.9819622 z" id="path4655" style="opacity:1.0000000;fill:#888a85;fill-opacity:1.0000000;stroke:none;stroke-width:1.0000000;stroke-linecap:round;stroke-linejoin:round;stroke-miterlimit:4.0000000;stroke-dasharray:none;stroke-dashoffset:0.0000000;stroke-opacity:1.0000000;display:inline" transform="matrix(0.452550,0.000000,0.000000,-0.532412,-2.520066,33.81455)"/><path d="M 23.246135 9.9819622 A 1.1048543 0.93912619 0 1 1  21.036427,9.9819622 A 1.1048543 0.93912619 0 1 1  23.246135 9.9819622 z" id="path4657" style="opacity:1.0000000;fill:#888a85;fill-opacity:1.0000000;stroke:none;stroke-width:1.0000000;stroke-linecap:round;stroke-linejoin:round;stroke-miterlimit:4.0000000;stroke-dasharray:none;stroke-dashoffset:0.0000000;stroke-opacity:1.0000000;display:inline" transform="matrix(0.452550,0.000000,0.000000,-0.532412,-2.520070,35.81454)"/><path d="M 23.246135 9.9819622 A 1.1048543 0.93912619 0 1 1  21.036427,9.9819622 A 1.1048543 0.93912619 0 1 1  23.246135 9.9819622 z" id="path4659" style="opacity:1.0000000;fill:#888a85;fill-opacity:1.0000000;stroke:none;stroke-width:1.0000000;stroke-linecap:round;stroke-linejoin:round;stroke-miterlimit:4.0000000;stroke-dasharray:none;stroke-dashoffset:0.0000000;stroke-opacity:1.0000000;display:inline" transform="matrix(0.452550,0.000000,0.000000,-0.532412,-2.520070,37.81455)"/><path d="M 23.246135 9.9819622 A 1.1048543 0.93912619 0 1 1  21.036427,9.9819622 A 1.1048543 0.93912619 0 1 1  23.246135 9.9819622 z" id="path4661" style="opacity:1.0000000;fill:#888a85;fill-opacity:1.0000000;stroke:none;stroke-width:1.0000000;stroke-linecap:round;stroke-linejoin:round;stroke-miterlimit:4.0000000;stroke-dasharray:none;stroke-dashoffset:0.0000000;stroke-opacity:1.0000000;display:inline" transform="matrix(0.452550,0.000000,0.000000,-0.532412,-2.520066,39.81455)"/><path d="M 23.246135 9.9819622 A 1.1048543 0.93912619 0 1 1  21.036427,9.9819622 A 1.1048543 0.93912619 0 1 1  23.246135 9.9819622 z" id="path4663" style="opacity:1.0000000;fill:#888a85;fill-opacity:1.0000000;stroke:none;stroke-width:1.0000000;stroke-linecap:round;stroke-linejoin:round;stroke-miterlimit:4.0000000;stroke-dasharray:none;stroke-dashoffset:0.0000000;stroke-opacity:1.0000000;display:inline" transform="matrix(0.452550,0.000000,0.000000,-0.532412,-2.520061,15.81454)"/><path d="M 23.246135 9.9819622 A 1.1048543 0.93912619 0 1 1  21.036427,9.9819622 A 1.1048543 0.93912619 0 1 1  23.246135 9.9819622 z" id="path4665" style="opacity:1.0000000;fill:#888a85;fill-opacity:1.0000000;stroke:none;stroke-width:1.0000000;stroke-linecap:round;stroke-linejoin:round;stroke-miterlimit:4.0000000;stroke-dasharray:none;stroke-dashoffset:0.0000000;stroke-opacity:1.0000000;display:inline" transform="matrix(0.452550,0.000000,0.000000,-0.532412,-2.520065,41.81454)"/><path d="M 23.246135 9.9819622 A 1.1048543 0.93912619 0 1 1  21.036427,9.9819622 A 1.1048543 0.93912619 0 1 1  23.246135 9.9819622 z" id="path4667" style="opacity:1.0000000;fill:#888a85;fill-opacity:1.0000000;stroke:none;stroke-width:1.0000000;stroke-linecap:round;stroke-linejoin:round;stroke-miterlimit:4.0000000;stroke-dasharray:none;stroke-dashoffset:0.0000000;stroke-opacity:1.0000000;display:inline" transform="matrix(0.452550,0.000000,0.000000,-0.532412,-2.520066,43.81455)"/><path d="M 23.246135 9.9819622 A 1.1048543 0.93912619 0 1 1  21.036427,9.9819622 A 1.1048543 0.93912619 0 1 1  23.246135 9.9819622 z" id="path4669" style="opacity:1.0000000;fill:#888a85;fill-opacity:1.0000000;stroke:none;stroke-width:1.0000000;stroke-linecap:round;stroke-linejoin:round;stroke-miterlimit:4.0000000;stroke-dasharray:none;stroke-dashoffset:0.0000000;stroke-opacity:1.0000000;display:inline" transform="matrix(0.452550,0.000000,0.000000,-0.532412,-2.520070,45.81454)"/><path d="M 23.246135 9.9819622 A 1.1048543 0.93912619 0 1 1  21.036427,9.9819622 A 1.1048543 0.93912619 0 1 1  23.246135 9.9819622 z" id="path4675" style="opacity:1.0000000;fill:#888a85;fill-opacity:1.0000000;stroke:none;stroke-width:1.0000000;stroke-linecap:round;stroke-linejoin:round;stroke-miterlimit:4.0000000;stroke-dasharray:none;stroke-dashoffset:0.0000000;stroke-opacity:1.0000000;display:inline" transform="matrix(-0.452550,0.000000,0.000000,0.532412,15.52001,1.185496)"/><path d="M 23.246135 9.9819622 A 1.1048543 0.93912619 0 1 1  21.036427,9.9819622 A 1.1048543 0.93912619 0 1 1  23.246135 9.9819622 z" id="path4679" style="opacity:1.0000000;fill:#888a85;fill-opacity:1.0000000;stroke:none;stroke-width:1.0000000;stroke-linecap:round;stroke-linejoin:round;stroke-miterlimit:4.0000000;stroke-dasharray:none;stroke-dashoffset:0.0000000;stroke-opacity:1.0000000;display:inline" transform="matrix(-0.452550,0.000000,0.000000,0.532412,21.52002,1.185496)"/><path d="M 23.246135 9.9819622 A 1.1048543 0.93912619 0 1 1  21.036427,9.9819622 A 1.1048543 0.93912619 0 1 1  23.246135 9.9819622 z" id="path4681" style="opacity:1.0000000;fill:#888a85;fill-opacity:1.0000000;stroke:none;stroke-width:1.0000000;stroke-linecap:round;stroke-linejoin:round;stroke-miterlimit:4.0000000;stroke-dasharray:none;stroke-dashoffset:0.0000000;stroke-opacity:1.0000000;display:inline" transform="matrix(-0.452550,0.000000,0.000000,0.532412,23.52002,1.185496)"/><path d="M 23.246135 9.9819622 A 1.1048543 0.93912619 0 1 1  21.036427,9.9819622 A 1.1048543 0.93912619 0 1 1  23.246135 9.9819622 z" id="path4683" style="opacity:1.0000000;fill:#888a85;fill-opacity:1.0000000;stroke:none;stroke-width:1.0000000;stroke-linecap:round;stroke-linejoin:round;stroke-miterlimit:4.0000000;stroke-dasharray:none;stroke-dashoffset:0.0000000;stroke-opacity:1.0000000;display:inline" transform="matrix(-0.452550,0.000000,0.000000,0.532412,25.52002,1.185486)"/><path d="M 23.246135 9.9819622 A 1.1048543 0.93912619 0 1 1  21.036427,9.9819622 A 1.1048543 0.93912619 0 1 1  23.246135 9.9819622 z" id="path4685" style="opacity:1.0000000;fill:#888a85;fill-opacity:1.0000000;stroke:none;stroke-width:1.0000000;stroke-linecap:round;stroke-linejoin:round;stroke-miterlimit:4.0000000;stroke-dasharray:none;stroke-dashoffset:0.0000000;stroke-opacity:1.0000000;display:inline" transform="matrix(-0.452550,0.000000,0.000000,0.532412,27.52003,1.185486)"/><path d="M 23.246135 9.9819622 A 1.1048543 0.93912619 0 1 1  21.036427,9.9819622 A 1.1048543 0.93912619 0 1 1  23.246135 9.9819622 z" id="path4687" style="opacity:1.0000000;fill:#888a85;fill-opacity:1.0000000;stroke:none;stroke-width:1.0000000;stroke-linecap:round;stroke-linejoin:round;stroke-miterlimit:4.0000000;stroke-dasharray:none;stroke-dashoffset:0.0000000;stroke-opacity:1.0000000;display:inline" transform="matrix(-0.452550,0.000000,0.000000,0.532412,29.52002,1.185496)"/><path d="M 23.246135 9.9819622 A 1.1048543 0.93912619 0 1 1  21.036427,9.9819622 A 1.1048543 0.93912619 0 1 1  23.246135 9.9819622 z" id="path4689" style="opacity:1.0000000;fill:#888a85;fill-opacity:1.0000000;stroke:none;stroke-width:1.0000000;stroke-linecap:round;stroke-linejoin:round;stroke-miterlimit:4.0000000;stroke-dasharray:none;stroke-dashoffset:0.0000000;stroke-opacity:1.0000000;display:inline" transform="matrix(-0.452550,0.000000,0.000000,0.532412,31.52003,1.185496)"/><path d="M 23.246135 9.9819622 A 1.1048543 0.93912619 0 1 1  21.036427,9.9819622 A 1.1048543 0.93912619 0 1 1  23.246135 9.9819622 z" id="path4691" style="opacity:1.0000000;fill:#888a85;fill-opacity:1.0000000;stroke:none;stroke-width:1.0000000;stroke-linecap:round;stroke-linejoin:round;stroke-miterlimit:4.0000000;stroke-dasharray:none;stroke-dashoffset:0.0000000;stroke-opacity:1.0000000;display:inline" transform="matrix(-0.452550,0.000000,0.000000,0.532412,33.52003,1.185486)"/><path d="M 23.246135 9.9819622 A 1.1048543 0.93912619 0 1 1  21.036427,9.9819622 A 1.1048543 0.93912619 0 1 1  23.246135 9.9819622 z" id="path4693" style="opacity:1.0000000;fill:#888a85;fill-opacity:1.0000000;stroke:none;stroke-width:1.0000000;stroke-linecap:round;stroke-linejoin:round;stroke-miterlimit:4.0000000;stroke-dasharray:none;stroke-dashoffset:0.0000000;stroke-opacity:1.0000000;display:inline" transform="matrix(-0.452550,0.000000,0.000000,0.532412,35.52002,1.185496)"/><path d="M 23.246135 9.9819622 A 1.1048543 0.93912619 0 1 1  21.036427,9.9819622 A 1.1048543 0.93912619 0 1 1  23.246135 9.9819622 z" id="path4695" style="opacity:1.0000000;fill:#888a85;fill-opacity:1.0000000;stroke:none;stroke-width:1.0000000;stroke-linecap:round;stroke-linejoin:round;stroke-miterlimit:4.0000000;stroke-dasharray:none;stroke-dashoffset:0.0000000;stroke-opacity:1.0000000;display:inline" transform="matrix(-0.452550,0.000000,0.000000,0.532412,37.52003,1.185496)"/><path d="M 23.246135 9.9819622 A 1.1048543 0.93912619 0 1 1  21.036427,9.9819622 A 1.1048543 0.93912619 0 1 1  23.246135 9.9819622 z" id="path4697" style="opacity:1.0000000;fill:#888a85;fill-opacity:1.0000000;stroke:none;stroke-width:1.0000000;stroke-linecap:round;stroke-linejoin:round;stroke-miterlimit:4.0000000;stroke-dasharray:none;stroke-dashoffset:0.0000000;stroke-opacity:1.0000000;display:inline" transform="matrix(-0.452550,0.000000,0.000000,0.532412,39.52002,1.185506)"/><path d="M 23.246135 9.9819622 A 1.1048543 0.93912619 0 1 1  21.036427,9.9819622 A 1.1048543 0.93912619 0 1 1  23.246135 9.9819622 z" id="path4699" style="opacity:1.0000000;fill:#888a85;fill-opacity:1.0000000;stroke:none;stroke-width:1.0000000;stroke-linecap:round;stroke-linejoin:round;stroke-miterlimit:4.0000000;stroke-dasharray:none;stroke-dashoffset:0.0000000;stroke-opacity:1.0000000;display:inline" transform="matrix(-0.452550,0.000000,0.000000,0.532412,41.52003,1.185506)"/><path d="M 23.246135 9.9819622 A 1.1048543 0.93912619 0 1 1  21.036427,9.9819622 A 1.1048543 0.93912619 0 1 1  23.246135 9.9819622 z" id="path4701" style="opacity:1.0000000;fill:#888a85;fill-opacity:1.0000000;stroke:none;stroke-width:1.0000000;stroke-linecap:round;stroke-linejoin:round;stroke-miterlimit:4.0000000;stroke-dasharray:none;stroke-dashoffset:0.0000000;stroke-opacity:1.0000000;display:inline" transform="matrix(-0.452550,0.000000,0.000000,0.532412,43.52003,1.185496)"/><path d="M 23.246135 9.9819622 A 1.1048543 0.93912619 0 1 1  21.036427,9.9819622 A 1.1048543 0.93912619 0 1 1  23.246135 9.9819622 z" id="path4703" style="opacity:1.0000000;fill:#888a85;fill-opacity:1.0000000;stroke:none;stroke-width:1.0000000;stroke-linecap:round;stroke-linejoin:round;stroke-miterlimit:4.0000000;stroke-dasharray:none;stroke-dashoffset:0.0000000;stroke-opacity:1.0000000;display:inline" transform="matrix(-0.452550,0.000000,0.000000,0.532412,19.52002,1.185496)"/><path d="M 23.246135 9.9819622 A 1.1048543 0.93912619 0 1 1  21.036427,9.9819622 A 1.1048543 0.93912619 0 1 1  23.246135 9.9819622 z" id="path4705" style="opacity:1.0000000;fill:#888a85;fill-opacity:1.0000000;stroke:none;stroke-width:1.0000000;stroke-linecap:round;stroke-linejoin:round;stroke-miterlimit:4.0000000;stroke-dasharray:none;stroke-dashoffset:0.0000000;stroke-opacity:1.0000000;display:inline" transform="matrix(-0.452550,0.000000,0.000000,0.532412,45.52002,1.185496)"/><path d="M 23.246135 9.9819622 A 1.1048543 0.93912619 0 1 1  21.036427,9.9819622 A 1.1048543 0.93912619 0 1 1  23.246135 9.9819622 z" id="path4707" style="opacity:1.0000000;fill:#888a85;fill-opacity:1.0000000;stroke:none;stroke-width:1.0000000;stroke-linecap:round;stroke-linejoin:round;stroke-miterlimit:4.0000000;stroke-dasharray:none;stroke-dashoffset:0.0000000;stroke-opacity:1.0000000;display:inline" transform="matrix(-0.452550,0.000000,0.000000,0.532412,47.52003,1.185496)"/><path d="M 23.246135 9.9819622 A 1.1048543 0.93912619 0 1 1  21.036427,9.9819622 A 1.1048543 0.93912619 0 1 1  23.246135 9.9819622 z" id="path4709" style="opacity:1.0000000;fill:#888a85;fill-opacity:1.0000000;stroke:none;stroke-width:1.0000000;stroke-linecap:round;stroke-linejoin:round;stroke-miterlimit:4.0000000;stroke-dasharray:none;stroke-dashoffset:0.0000000;stroke-opacity:1.0000000;display:inline" transform="matrix(-0.452550,0.000000,0.000000,0.532412,49.52002,1.185506)"/><path d="M 23.246135 9.9819622 A 1.1048543 0.93912619 0 1 1  21.036427,9.9819622 A 1.1048543 0.93912619 0 1 1  23.246135 9.9819622 z" id="path4751" style="opacity:1.0000000;fill:#888a85;fill-opacity:1.0000000;stroke:none;stroke-width:1.0000000;stroke-linecap:round;stroke-linejoin:round;stroke-miterlimit:4.0000000;stroke-dasharray:none;stroke-dashoffset:0.0000000;stroke-opacity:1.0000000;display:inline" transform="matrix(-0.452550,0.000000,0.000000,0.532412,17.52000,-0.814489)"/><rect height="41.033813" id="rect4753" rx="0.0000000" ry="0.0000000" style="opacity:1.0000000;fill:none;fill-opacity:1.0000000;stroke:#ffffff;stroke-width:1.0249996;stroke-linecap:butt;stroke-linejoin:miter;stroke-miterlimit:4.0000000;stroke-dasharray:none;stroke-dashoffset:0.0000000;stroke-opacity:1.0000000" width="39.013622" x="4.4870877" y="3.5124998"/></g></svg>