<?xml version="1.0" ?><svg height="48px" id="svg11300" width="48px" xmlns="http://www.w3.org/2000/svg" xmlns:cc="http://creativecommons.org/ns#" xmlns:dc="http://purl.org/dc/elements/1.1/" xmlns:inkscape="http://www.inkscape.org/namespaces/inkscape" xmlns:rdf="http://www.w3.org/1999/02/22-rdf-syntax-ns#" xmlns:sodipodi="http://sodipodi.sourceforge.net/DTD/sodipodi-0.dtd" xmlns:svg="http://www.w3.org/2000/svg" xmlns:xlink="http://www.w3.org/1999/xlink"><defs id="defs3"><linearGradient id="linearGradient2461"><stop id="stop2463" offset="0" style="stop-color:#f8f8f7;stop-opacity:1;"/><stop id="stop2465" offset="1" style="stop-color:#babdb6;stop-opacity:1;"/></linearGradient><linearGradient id="linearGradient4750"><stop id="stop4752" offset="0" style="stop-color:#ffffff;stop-opacity:0;"/><stop id="stop4758" offset="0.5" style="stop-color:#ffffff;stop-opacity:1;"/><stop id="stop4754" offset="1" style="stop-color:#ffffff;stop-opacity:0;"/></linearGradient><linearGradient id="linearGradient4728"><stop id="stop4730" offset="0" style="stop-color:#eeeeec;stop-opacity:1;"/><stop id="stop4732" offset="1" style="stop-color:#ffffff;stop-opacity:1;"/></linearGradient><linearGradient id="linearGradient4720"><stop id="stop4722" offset="0" style="stop-color:#000000;stop-opacity:1;"/><stop id="stop4724" offset="1" style="stop-color:#000000;stop-opacity:0;"/></linearGradient><linearGradient id="linearGradient4710"><stop id="stop4712" offset="0" style="stop-color:#f2f4f1;stop-opacity:1;"/><stop id="stop4714" offset="1" style="stop-color:#d3d7cf;stop-opacity:1;"/></linearGradient><linearGradient id="linearGradient11520"><stop id="stop11522" offset="0.0000000" style="stop-color:#ffffff;stop-opacity:1.0000000;"/><stop id="stop11524" offset="1.0000000" style="stop-color:#dcdcdc;stop-opacity:1.0000000;"/></linearGradient><linearGradient id="linearGradient11508"><stop id="stop11510" offset="0" style="stop-color:#000000;stop-opacity:1;"/><stop id="stop11512" offset="1" style="stop-color:#000000;stop-opacity:0;"/></linearGradient><linearGradient id="linearGradient11494"><stop id="stop11496" offset="0" style="stop-color:#ef2929;stop-opacity:1;"/><stop id="stop11498" offset="1" style="stop-color:#ef2929;stop-opacity:0;"/></linearGradient><linearGradient id="linearGradient11415"><stop id="stop11417" offset="0.0000000" style="stop-color:#204a87;stop-opacity:0.0000000;"/><stop id="stop11423" offset="0.50000000" style="stop-color:#204a87;stop-opacity:1.0000000;"/><stop id="stop11419" offset="1" style="stop-color:#204a87;stop-opacity:0;"/></linearGradient><linearGradient id="linearGradient11399"><stop id="stop11401" offset="0" style="stop-color:#000000;stop-opacity:1;"/><stop id="stop11403" offset="1" style="stop-color:#000000;stop-opacity:0;"/></linearGradient><linearGradient gradientTransform="translate(-60.28571,-0.285714)" gradientUnits="userSpaceOnUse" id="linearGradient11425" x1="15.828360" x2="43.615788" xlink:href="#linearGradient11415" y1="3.7744560" y2="34.462429"/><linearGradient gradientTransform="translate(-60.57143,0.000000)" gradientUnits="userSpaceOnUse" id="linearGradient11427" x1="9.6957054" x2="35.679932" xlink:href="#linearGradient11415" y1="9.3458843" y2="39.033859"/><linearGradient gradientTransform="translate(-60.85714,0.428571)" gradientUnits="userSpaceOnUse" id="linearGradient11439" x1="13.267134" x2="26.758644" xlink:href="#linearGradient11415" y1="19.774456" y2="33.462429"/><radialGradient cx="12.071428" cy="39.142857" fx="12.071428" fy="39.142857" gradientTransform="matrix(1.000000,0.000000,0.000000,0.487395,0.000000,20.06483)" gradientUnits="userSpaceOnUse" id="radialGradient11441" r="8.5000000" xlink:href="#linearGradient11399"/><radialGradient cx="27.577173" cy="15.048258" fx="27.577173" fy="15.048258" gradientTransform="matrix(1.243453,2.106784e-16,-2.106784e-16,1.243453,-6.713754,-3.742847)" gradientUnits="userSpaceOnUse" id="radialGradient11500" r="3.8335034" xlink:href="#linearGradient11494"/><radialGradient cx="27.577173" cy="16.049133" fx="27.577173" fy="16.049133" gradientTransform="matrix(1.243453,2.106784e-16,-2.106784e-16,1.243453,-6.713754,-3.742847)" gradientUnits="userSpaceOnUse" id="radialGradient11504" r="3.8335034" xlink:href="#linearGradient11494"/><radialGradient cx="30.203562" cy="44.565483" fx="30.203562" fy="44.565483" gradientTransform="matrix(1.000000,0.000000,0.000000,0.338462,2.166583e-14,29.48178)" gradientUnits="userSpaceOnUse" id="radialGradient11514" r="6.5659914" xlink:href="#linearGradient11508"/><radialGradient cx="24.445690" cy="35.878170" fx="24.445690" fy="35.878170" gradientTransform="matrix(1.995058,-1.651527e-32,0.000000,1.995058,-24.32488,-35.70087)" gradientUnits="userSpaceOnUse" id="radialGradient11526" r="20.530962" xlink:href="#linearGradient11520"/><radialGradient cx="30.203562" cy="44.565483" fx="30.203562" fy="44.565483" gradientTransform="matrix(1.000000,0.000000,0.000000,0.338462,3.185827e-15,29.48178)" gradientUnits="userSpaceOnUse" id="radialGradient11532" r="6.5659914" xlink:href="#linearGradient11508"/><radialGradient cx="30.203562" cy="44.565483" fx="30.203562" fy="44.565483" gradientTransform="matrix(1.000000,0.000000,0.000000,0.338462,-1.353344e-14,29.48178)" gradientUnits="userSpaceOnUse" id="radialGradient1348" r="6.5659914" xlink:href="#linearGradient11508"/><radialGradient cx="24.445690" cy="35.878170" fx="24.445690" fy="35.878170" gradientTransform="matrix(1.995058,-1.651527e-32,0.000000,1.995058,-24.32488,-35.70087)" gradientUnits="userSpaceOnUse" id="radialGradient1350" r="20.530962" xlink:href="#linearGradient11520"/><radialGradient cx="27.577173" cy="16.049133" fx="27.577173" fy="16.049133" gradientTransform="matrix(1.243453,2.106784e-16,-2.106784e-16,1.243453,-6.713754,-3.742847)" gradientUnits="userSpaceOnUse" id="radialGradient1352" r="3.8335034" xlink:href="#linearGradient11494"/><radialGradient cx="27.577173" cy="15.048258" fx="27.577173" fy="15.048258" gradientTransform="matrix(1.243453,2.106784e-16,-2.106784e-16,1.243453,-6.713754,-3.742847)" gradientUnits="userSpaceOnUse" id="radialGradient1354" r="3.8335034" xlink:href="#linearGradient11494"/><radialGradient cx="30.203562" cy="44.565483" fx="30.203562" fy="44.565483" gradientTransform="matrix(1.000000,0.000000,0.000000,0.338462,2.220359e-14,29.48178)" gradientUnits="userSpaceOnUse" id="radialGradient1356" r="6.5659914" xlink:href="#linearGradient11508"/><radialGradient cx="24.445690" cy="35.878170" fx="24.445690" fy="35.878170" gradientTransform="matrix(2.049266,-1.696401e-32,0.000000,2.049266,-25.65002,-37.31089)" gradientUnits="userSpaceOnUse" id="radialGradient1366" r="20.530962" xlink:href="#linearGradient11520"/><radialGradient cx="24.25" cy="39.8125" fx="24.25" fy="39.8125" gradientTransform="matrix(1,0,0,0.399281,8.146704e-14,23.91614)" gradientUnits="userSpaceOnUse" id="radialGradient1513" r="17.375" xlink:href="#linearGradient4720"/><radialGradient cx="24.500004" cy="29.500004" fx="24.500004" fy="29.500004" gradientTransform="matrix(1.045211,-2.149016e-16,2.269469e-16,0.989736,-41.10767,-11.64667)" gradientUnits="userSpaceOnUse" id="radialGradient1515" r="15.095438" xlink:href="#linearGradient4710"/><linearGradient gradientTransform="matrix(0.482147,0,0,0.456557,-27.11755,4.266796)" gradientUnits="userSpaceOnUse" id="linearGradient1517" x1="24.095442" x2="24.095442" xlink:href="#linearGradient4728" y1="12.595438" y2="34.09544"/><linearGradient gradientTransform="matrix(0.524157,0,0,0.524157,2.40962,3.280934)" gradientUnits="userSpaceOnUse" id="linearGradient1519" x1="38.292995" x2="39.4375" xlink:href="#linearGradient4750" y1="6.7174492" y2="8.161993"/><linearGradient gradientTransform="matrix(0.524157,0,0,0.524157,3.529108,3.248174)" gradientUnits="userSpaceOnUse" id="linearGradient1521" x1="8.1168785" x2="9.0674801" xlink:href="#linearGradient4750" y1="7.9334393" y2="6.7843909"/><radialGradient cx="24.25" cy="39.8125" fx="24.25" fy="39.8125" gradientTransform="matrix(1,0,0,0.399281,1.387778e-16,23.91614)" gradientUnits="userSpaceOnUse" id="radialGradient1523" r="17.375" xlink:href="#linearGradient4720"/><radialGradient cx="24.500004" cy="29.500004" fx="24.500004" fy="29.500004" gradientTransform="matrix(1.045211,-2.149016e-16,2.269469e-16,0.989736,-41.10767,-11.64667)" gradientUnits="userSpaceOnUse" id="radialGradient1525" r="15.095438" xlink:href="#linearGradient4710"/><linearGradient gradientTransform="matrix(0.482147,0,0,0.456557,-27.11755,4.266796)" gradientUnits="userSpaceOnUse" id="linearGradient1527" x1="24.095442" x2="24.095442" xlink:href="#linearGradient4728" y1="12.595438" y2="34.09544"/><linearGradient gradientTransform="matrix(0.524157,0,0,0.524157,2.40962,3.280934)" gradientUnits="userSpaceOnUse" id="linearGradient1529" x1="38.292995" x2="39.4375" xlink:href="#linearGradient4750" y1="6.7174492" y2="8.161993"/><linearGradient gradientTransform="matrix(0.524157,0,0,0.524157,3.529108,3.248174)" gradientUnits="userSpaceOnUse" id="linearGradient1531" x1="8.1168785" x2="9.0674801" xlink:href="#linearGradient4750" y1="7.9334393" y2="6.7843909"/><radialGradient cx="24.25" cy="39.8125" fx="24.25" fy="39.8125" gradientTransform="matrix(1,0,0,0.399281,1.474514e-16,23.91614)" gradientUnits="userSpaceOnUse" id="radialGradient1551" r="17.375" xlink:href="#linearGradient4720"/><radialGradient cx="32.124046" cy="31.886717" fx="32.124046" fy="31.886717" gradientTransform="matrix(0.950752,-2.149016e-16,2.064369e-16,0.989736,-7.702036,-11.43172)" gradientUnits="userSpaceOnUse" id="radialGradient1553" r="15.095438" xlink:href="#linearGradient4710"/><linearGradient gradientTransform="matrix(0.438574,0,0,0.456557,5.023749,4.481748)" gradientUnits="userSpaceOnUse" id="linearGradient1555" x1="24.095442" x2="24.095442" xlink:href="#linearGradient4728" y1="12.595438" y2="34.09544"/><linearGradient gradientTransform="matrix(0.524157,0,0,0.524157,16.23946,3.167804)" gradientUnits="userSpaceOnUse" id="linearGradient1557" x1="38.292995" x2="39.4375" xlink:href="#linearGradient4750" y1="6.7174492" y2="8.161993"/><linearGradient gradientTransform="matrix(0.524157,0,0,0.524157,4.610252,3.197544)" gradientUnits="userSpaceOnUse" id="linearGradient1559" x1="8.1168785" x2="9.0674801" xlink:href="#linearGradient4750" y1="7.9334393" y2="6.7843909"/><radialGradient cx="15.489779" cy="6.2493181" fx="15.489779" fy="6.2493181" gradientTransform="matrix(2.203274,-9.403163e-17,4.212765e-17,0.981352,-18.63845,-0.280284)" gradientUnits="userSpaceOnUse" id="radialGradient2467" r="10.494735" xlink:href="#linearGradient2461"/></defs><g id="layer1"><g id="g1485" transform="translate(-3.000005,-2.99376)"><path d="M 41.625 39.8125 A 17.375 6.9375 0 1 1  6.875,39.8125 A 17.375 6.9375 0 1 1  41.625 39.8125 z" id="path4718" style="opacity:0.38888891;color:#000000;fill:url(#radialGradient1523);fill-opacity:1;fill-rule:nonzero;stroke:none;stroke-width:1;stroke-linecap:butt;stroke-linejoin:miter;marker:none;marker-start:none;marker-mid:none;marker-end:none;stroke-miterlimit:4;stroke-dasharray:none;stroke-dashoffset:0;stroke-opacity:1;visibility:visible;display:block;overflow:visible" transform="matrix(0.524157,0,0,0.273884,2.448298,12.69591)"/><rect height="20.943741" id="rect2960" rx="2.449337" ry="2.5662651" style="opacity:1;color:#000000;fill:url(#radialGradient2467);fill-opacity:1.0;fill-rule:nonzero;stroke:#888a85;stroke-width:0.99999928;stroke-linecap:butt;stroke-linejoin:miter;marker:none;marker-start:none;marker-mid:none;marker-end:none;stroke-miterlimit:4;stroke-dasharray:none;stroke-dashoffset:0;stroke-opacity:1;visibility:visible;display:block;overflow:visible" width="19.989471" x="5.4950442" y="4.5056295"/><rect height="13.327303" id="rect3835" rx="1.7245431" ry="1.6330125" style="opacity:1;color:#000000;fill:url(#radialGradient1525);fill-opacity:1;fill-rule:nonzero;stroke:url(#linearGradient1527);stroke-width:0.99999982;stroke-linecap:butt;stroke-linejoin:miter;marker:none;marker-start:none;marker-mid:none;marker-end:none;stroke-miterlimit:4;stroke-dasharray:none;stroke-dashoffset:0;stroke-opacity:1;visibility:visible;display:block;overflow:visible" transform="scale(-1,1)" width="14.074299" x="-22.537153" y="7.2344179"/><rect height="18.996723" id="rect4740" rx="1.5567527" ry="1.5567527" style="opacity:0.48888891;color:#000000;fill:none;fill-opacity:1;fill-rule:nonzero;stroke:#ffffff;stroke-width:0.9999997;stroke-linecap:butt;stroke-linejoin:miter;marker:none;marker-start:none;marker-mid:none;marker-end:none;stroke-miterlimit:4;stroke-dasharray:none;stroke-dashoffset:0;stroke-opacity:1;visibility:visible;display:block;overflow:visible" width="18.020664" x="6.4896731" y="5.5000801"/><path d="M 6.9758347,22.771962 C 6.9202062,23.604707 7.4649175,24.090703 8.3837359,24.022097 L 9.265165,20.851969 L 8.6190879,20.469514 L 6.9758347,22.771962 z " id="path4742" style="opacity:0.48888891;color:#000000;fill:#ffffff;fill-opacity:1;fill-rule:nonzero;stroke:none;stroke-width:1;stroke-linecap:butt;stroke-linejoin:miter;marker:none;marker-start:none;marker-mid:none;marker-end:none;stroke-miterlimit:4;stroke-dasharray:none;stroke-dashoffset:0;stroke-opacity:1;visibility:visible;display:block;overflow:visible"/><path d="M 24.054496,22.998959 C 23.867056,23.942189 23.167665,24.052535 22.337235,24.05022 L 21.522097,20.96848 L 22.190272,20.563928 L 24.054496,22.998959 z " id="path4744" style="opacity:0.48888891;color:#000000;fill:#ffffff;fill-opacity:1;fill-rule:nonzero;stroke:none;stroke-width:1;stroke-linecap:butt;stroke-linejoin:miter;marker:none;marker-start:none;marker-mid:none;marker-end:none;stroke-miterlimit:4;stroke-dasharray:none;stroke-dashoffset:0;stroke-opacity:1;visibility:visible;display:block;overflow:visible"/><path d="M 24.029566,7.0818461 C 23.977024,6.4997455 23.650197,6.0533138 23.015555,6 L 22.15468,7.1442794 L 22.756563,7.7789222 L 24.029566,7.0818461 z " id="path4746" style="opacity:1;color:#000000;fill:url(#linearGradient1529);fill-opacity:1;fill-rule:nonzero;stroke:none;stroke-width:1;stroke-linecap:butt;stroke-linejoin:miter;marker:none;marker-start:none;marker-mid:none;marker-end:none;stroke-miterlimit:4;stroke-dasharray:none;stroke-dashoffset:0;stroke-opacity:1;visibility:visible;display:block;overflow:visible"/><path d="M 6.9033707,6.9827949 C 7.0443013,6.4669855 7.4488535,6.0312166 8.017205,6 L 8.7790291,7.1877019 L 8.2197971,7.8223447 L 6.9033707,6.9827949 z " id="path4748" style="opacity:1;color:#000000;fill:url(#linearGradient1531);fill-opacity:1;fill-rule:nonzero;stroke:none;stroke-width:1;stroke-linecap:butt;stroke-linejoin:miter;marker:none;marker-start:none;marker-mid:none;marker-end:none;stroke-miterlimit:4;stroke-dasharray:none;stroke-dashoffset:0;stroke-opacity:1;visibility:visible;display:block;overflow:visible"/></g><path d="M 44.724504 19.538952 A 13.611806 13.611806 0 1 1  17.500892,19.538952 A 13.611806 13.611806 0 1 1  44.724504 19.538952 z" id="path2455" style="opacity:1;color:#000000;fill:none;fill-opacity:1;fill-rule:nonzero;stroke:#204a87;stroke-width:5.20526981;stroke-linecap:butt;stroke-linejoin:miter;marker:none;marker-start:none;marker-mid:none;marker-end:none;stroke-miterlimit:4;stroke-dasharray:none;stroke-dashoffset:0;stroke-opacity:1;visibility:visible;display:block;overflow:visible" transform="matrix(0.384226,0,0,0.384226,25.25719,17.86522)"/><g id="g1495" transform="translate(20.00496,-2.94313)"><path d="M 41.625 39.8125 A 17.375 6.9375 0 1 1  6.875,39.8125 A 17.375 6.9375 0 1 1  41.625 39.8125 z" id="path1497" style="opacity:0.38888891;color:#000000;fill:url(#radialGradient1513);fill-opacity:1;fill-rule:nonzero;stroke:none;stroke-width:1;stroke-linecap:butt;stroke-linejoin:miter;marker:none;marker-start:none;marker-mid:none;marker-end:none;stroke-miterlimit:4;stroke-dasharray:none;stroke-dashoffset:0;stroke-opacity:1;visibility:visible;display:block;overflow:visible" transform="matrix(0.524157,0,0,0.273884,2.448298,12.69591)"/><rect height="20.943741" id="rect1499" rx="2.449337" ry="2.5662651" style="opacity:1;color:#000000;fill:#babdb6;fill-opacity:1;fill-rule:nonzero;stroke:#888a85;stroke-width:0.99999928;stroke-linecap:butt;stroke-linejoin:miter;marker:none;marker-start:none;marker-mid:none;marker-end:none;stroke-miterlimit:4;stroke-dasharray:none;stroke-dashoffset:0;stroke-opacity:1;visibility:visible;display:block;overflow:visible" width="19.989471" x="5.4950442" y="4.5056295"/><rect height="13.327303" id="rect1501" rx="1.7245431" ry="1.6330125" style="opacity:1;color:#000000;fill:url(#radialGradient1515);fill-opacity:1;fill-rule:nonzero;stroke:url(#linearGradient1517);stroke-width:0.99999982;stroke-linecap:butt;stroke-linejoin:miter;marker:none;marker-start:none;marker-mid:none;marker-end:none;stroke-miterlimit:4;stroke-dasharray:none;stroke-dashoffset:0;stroke-opacity:1;visibility:visible;display:block;overflow:visible" transform="scale(-1,1)" width="14.074299" x="-22.537153" y="7.2344179"/><rect height="18.996723" id="rect1503" rx="1.5567527" ry="1.5567527" style="opacity:0.48888891;color:#000000;fill:none;fill-opacity:1;fill-rule:nonzero;stroke:#ffffff;stroke-width:0.9999997;stroke-linecap:butt;stroke-linejoin:miter;marker:none;marker-start:none;marker-mid:none;marker-end:none;stroke-miterlimit:4;stroke-dasharray:none;stroke-dashoffset:0;stroke-opacity:1;visibility:visible;display:block;overflow:visible" width="18.020664" x="6.4896731" y="5.5000801"/><path d="M 6.9758347,22.771962 C 6.9202062,23.604707 7.4649175,24.090703 8.3837359,24.022097 L 9.265165,20.851969 L 8.6190879,20.469514 L 6.9758347,22.771962 z " id="path1505" style="opacity:0.48888891;color:#000000;fill:#ffffff;fill-opacity:1;fill-rule:nonzero;stroke:none;stroke-width:1;stroke-linecap:butt;stroke-linejoin:miter;marker:none;marker-start:none;marker-mid:none;marker-end:none;stroke-miterlimit:4;stroke-dasharray:none;stroke-dashoffset:0;stroke-opacity:1;visibility:visible;display:block;overflow:visible"/><path d="M 24.054496,22.998959 C 23.867056,23.942189 23.167665,24.052535 22.337235,24.05022 L 21.522097,20.96848 L 22.190272,20.563928 L 24.054496,22.998959 z " id="path1507" style="opacity:0.48888891;color:#000000;fill:#ffffff;fill-opacity:1;fill-rule:nonzero;stroke:none;stroke-width:1;stroke-linecap:butt;stroke-linejoin:miter;marker:none;marker-start:none;marker-mid:none;marker-end:none;stroke-miterlimit:4;stroke-dasharray:none;stroke-dashoffset:0;stroke-opacity:1;visibility:visible;display:block;overflow:visible"/><path d="M 24.029566,7.0818461 C 23.977024,6.4997455 23.650197,6.0533138 23.015555,6 L 22.15468,7.1442794 L 22.756563,7.7789222 L 24.029566,7.0818461 z " id="path1509" style="opacity:1;color:#000000;fill:url(#linearGradient1519);fill-opacity:1;fill-rule:nonzero;stroke:none;stroke-width:1;stroke-linecap:butt;stroke-linejoin:miter;marker:none;marker-start:none;marker-mid:none;marker-end:none;stroke-miterlimit:4;stroke-dasharray:none;stroke-dashoffset:0;stroke-opacity:1;visibility:visible;display:block;overflow:visible"/><path d="M 6.9033707,6.9827949 C 7.0443013,6.4669855 7.4488535,6.0312166 8.017205,6 L 8.7790291,7.1877019 L 8.2197971,7.8223447 L 6.9033707,6.9827949 z " id="path1511" style="opacity:1;color:#000000;fill:url(#linearGradient1521);fill-opacity:1;fill-rule:nonzero;stroke:none;stroke-width:1;stroke-linecap:butt;stroke-linejoin:miter;marker:none;marker-start:none;marker-mid:none;marker-end:none;stroke-miterlimit:4;stroke-dasharray:none;stroke-dashoffset:0;stroke-opacity:1;visibility:visible;display:block;overflow:visible"/></g><g id="g1533" transform="matrix(1,0,0,1.005412,-2.984515,19.97269)"><path d="M 41.625 39.8125 A 17.375 6.9375 0 1 1  6.875,39.8125 A 17.375 6.9375 0 1 1  41.625 39.8125 z" id="path1535" style="opacity:0.38888891;color:#000000;fill:url(#radialGradient1551);fill-opacity:1;fill-rule:nonzero;stroke:none;stroke-width:1;stroke-linecap:butt;stroke-linejoin:miter;marker:none;marker-start:none;marker-mid:none;marker-end:none;stroke-miterlimit:4;stroke-dasharray:none;stroke-dashoffset:0;stroke-opacity:1;visibility:visible;display:block;overflow:visible" transform="matrix(0.524157,0,0,0.273884,2.448298,12.69591)"/><rect height="20.943741" id="rect1537" rx="2.5662653" ry="2.5524511" style="opacity:1;color:#000000;fill:#babdb6;fill-opacity:1;fill-rule:nonzero;stroke:#888a85;stroke-width:0.99730414;stroke-linecap:butt;stroke-linejoin:miter;marker:none;marker-start:none;marker-mid:none;marker-end:none;stroke-miterlimit:4;stroke-dasharray:none;stroke-dashoffset:0;stroke-opacity:1;visibility:visible;display:block;overflow:visible" width="33.159836" x="6.3650694" y="4.5056295"/><rect height="13.050631" id="rect1539" rx="1.3205124" ry="1.3134043" style="opacity:1;color:#000000;fill:url(#radialGradient1553);fill-opacity:1;fill-rule:nonzero;stroke:url(#linearGradient1555);stroke-width:0.99730474;stroke-linecap:butt;stroke-linejoin:miter;marker:none;marker-start:none;marker-mid:none;marker-end:none;stroke-miterlimit:4;stroke-dasharray:none;stroke-dashoffset:0;stroke-opacity:1;visibility:visible;display:block;overflow:visible" width="27.29953" x="9.1901999" y="7.4493699"/><rect height="18.996723" id="rect1541" rx="1.5567527" ry="1.5483729" style="opacity:0.48888891;color:#000000;fill:none;fill-opacity:1;fill-rule:nonzero;stroke:#ffffff;stroke-width:0.99730456;stroke-linecap:butt;stroke-linejoin:miter;marker:none;marker-start:none;marker-mid:none;marker-end:none;stroke-miterlimit:4;stroke-dasharray:none;stroke-dashoffset:0;stroke-opacity:1;visibility:visible;display:block;overflow:visible" width="31.215261" x="7.361712" y="5.4375801"/><path d="M 7.9602097,22.928212 C 7.9202062,23.604707 8.7305425,23.981328 9.0868609,23.943972 L 10.12454,20.883219 L 9.3534629,20.297639 L 7.9602097,22.928212 z " id="path1543" style="opacity:0.48888891;color:#000000;fill:#ffffff;fill-opacity:1;fill-rule:nonzero;stroke:none;stroke-width:1;stroke-linecap:butt;stroke-linejoin:miter;marker:none;marker-start:none;marker-mid:none;marker-end:none;stroke-miterlimit:4;stroke-dasharray:none;stroke-dashoffset:0;stroke-opacity:1;visibility:visible;display:block;overflow:visible"/><path d="M 38.516914,22.835574 C 38.329474,23.778804 37.630083,23.88915 36.799653,23.886835 L 35.984515,20.805095 L 36.65269,20.400543 L 38.516914,22.835574 z " id="path1545" style="opacity:0.48888891;color:#000000;fill:#ffffff;fill-opacity:1;fill-rule:nonzero;stroke:none;stroke-width:1;stroke-linecap:butt;stroke-linejoin:miter;marker:none;marker-start:none;marker-mid:none;marker-end:none;stroke-miterlimit:4;stroke-dasharray:none;stroke-dashoffset:0;stroke-opacity:1;visibility:visible;display:block;overflow:visible"/><path d="M 37.859401,6.9687161 C 37.806859,6.3866155 37.480032,5.9401838 36.84539,5.88687 L 35.984515,7.0311494 L 36.586398,7.6657922 L 37.859401,6.9687161 z " id="path1547" style="opacity:1;color:#000000;fill:url(#linearGradient1557);fill-opacity:1;fill-rule:nonzero;stroke:none;stroke-width:1;stroke-linecap:butt;stroke-linejoin:miter;marker:none;marker-start:none;marker-mid:none;marker-end:none;stroke-miterlimit:4;stroke-dasharray:none;stroke-dashoffset:0;stroke-opacity:1;visibility:visible;display:block;overflow:visible"/><path d="M 7.984515,6.9321649 C 8.1254456,6.4163555 8.5299978,5.9805866 9.0983493,5.94937 L 9.8601734,7.1370719 L 9.3009414,7.7717147 L 7.984515,6.9321649 z " id="path1549" style="opacity:1;color:#000000;fill:url(#linearGradient1559);fill-opacity:1;fill-rule:nonzero;stroke:none;stroke-width:1;stroke-linecap:butt;stroke-linejoin:miter;marker:none;marker-start:none;marker-mid:none;marker-end:none;stroke-miterlimit:4;stroke-dasharray:none;stroke-dashoffset:0;stroke-opacity:1;visibility:visible;display:block;overflow:visible"/></g><path d="M 17.619141,8.9375 L 15.37793,14.635742 C 15.159828,15.185871 14.889646,15.597655 14.567383,15.871094 C 14.245116,16.147784 13.872395,16.28613 13.449219,16.286133 C 13.292968,16.28613 13.12858,16.266599 12.956055,16.227539 L 12.956055,15.329102 C 13.148112,15.387694 13.322265,15.416991 13.478516,15.416992 C 13.667317,15.416991 13.839843,15.360025 13.996094,15.246094 C 14.155597,15.135415 14.284178,14.966145 14.381836,14.738281 L 14.728516,13.9375 L 12.746094,8.9375 L 13.795898,8.9375 L 15.089844,12.6875 C 15.112628,12.746095 15.141925,12.876303 15.177734,13.078125 L 15.207031,13.078125 C 15.255857,12.873048 15.290036,12.74284 15.30957,12.6875 L 16.637695,8.9375 L 17.619141,8.9375" id="text1561" style="font-size:10px;font-style:normal;font-variant:normal;font-weight:normal;font-stretch:normal;line-height:100%;writing-mode:lr-tb;text-anchor:start;fill:#000000;fill-opacity:1;stroke:none;stroke-width:1px;stroke-linecap:butt;stroke-linejoin:miter;stroke-opacity:1;font-family:Segoe"/><path d="M 39.714844,8.9375 L 38.035156,11.457031 L 39.705078,13.9375 L 38.606445,13.9375 L 37.454102,11.989258 L 36.262695,13.9375 L 35.183594,13.9375 L 36.907227,11.476562 L 35.286133,8.9375 L 36.384766,8.9375 L 37.493164,10.978516 L 38.68457,8.9375 L 39.714844,8.9375" id="text1565" style="font-size:10px;font-style:normal;font-variant:normal;font-weight:normal;font-stretch:normal;line-height:100%;writing-mode:lr-tb;text-anchor:start;fill:#000000;fill-opacity:1;stroke:none;stroke-width:1px;stroke-linecap:butt;stroke-linejoin:miter;stroke-opacity:1;font-family:Segoe"/><path d="M 14.385742,38.052734 C 13.851883,38.348958 13.189449,38.49707 12.398438,38.49707 C 11.405596,38.49707 10.609699,38.176432 10.010742,37.535156 C 9.4150383,36.893882 9.1171871,36.050784 9.1171875,35.005859 C 9.1171871,33.895838 9.4589836,32.994146 10.142578,32.300781 C 10.829425,31.604173 11.680661,31.255866 12.696289,31.255859 C 13.383133,31.255866 13.946284,31.35515 14.385742,31.553711 L 14.385742,32.583984 C 13.868159,32.278001 13.301753,32.125006 12.686523,32.125 C 11.924801,32.125006 11.304685,32.382167 10.826172,32.896484 C 10.347655,33.407557 10.108397,34.094405 10.108398,34.957031 C 10.108397,35.774091 10.329751,36.425132 10.772461,36.910156 C 11.215167,37.391928 11.802731,37.632813 12.535156,37.632812 C 13.244787,37.632813 13.861648,37.463543 14.385742,37.125 L 14.385742,38.052734 M 18.130859,38.306641 C 17.925778,38.410807 17.662107,38.462891 17.339844,38.462891 C 16.874347,38.462891 16.52604,38.337565 16.294922,38.086914 C 16.063801,37.833008 15.948241,37.452149 15.948242,36.944336 L 15.948242,34.126953 L 15.108398,34.126953 L 15.108398,33.375 L 15.948242,33.375 L 15.948242,32.183594 L 16.890625,31.885742 L 16.890625,33.375 L 18.130859,33.375 L 18.130859,34.126953 L 16.890625,34.126953 L 16.890625,36.763672 C 16.890623,37.089194 16.945961,37.321941 17.056641,37.461914 C 17.167315,37.598634 17.361,37.666993 17.637695,37.666992 C 17.816729,37.666993 17.981117,37.613282 18.130859,37.505859 L 18.130859,38.306641 M 22.011719,34.336914 C 21.842445,34.222986 21.625973,34.16602 21.362305,34.166016 C 21.049802,34.16602 20.504881,34.309249 20.290039,34.595703 C 20.075193,34.882165 19.967772,35.261396 19.967773,35.733398 L 19.967773,38.375 L 19.030273,38.375 L 19.030273,33.375 L 19.967773,33.375 L 19.967773,34.366211 C 20.088214,34.014653 20.263995,33.747726 20.495117,33.56543 C 20.726234,33.379888 21.259763,33.287114 21.533203,33.287109 C 21.738278,33.287114 21.897783,33.309901 22.011719,33.355469 L 22.011719,34.336914 M 24.005859,38.375 L 23.058594,38.375 L 23.058594,30.972656 L 24.005859,30.972656 L 24.005859,38.375" id="text1569" style="font-size:10px;font-style:normal;font-variant:normal;font-weight:normal;font-stretch:normal;line-height:100%;writing-mode:lr-tb;text-anchor:start;fill:#000000;fill-opacity:1;stroke:none;stroke-width:1px;stroke-linecap:butt;stroke-linejoin:miter;stroke-opacity:1;font-family:Segoe"/><rect height="22.142761" id="rect1576" rx="2.9000182" ry="2.9000182" style="opacity:1;color:#000000;fill:none;fill-opacity:1;fill-rule:nonzero;stroke:#204a87;stroke-width:2.00000048;stroke-linecap:butt;stroke-linejoin:miter;marker:none;marker-start:none;marker-mid:none;marker-end:none;stroke-miterlimit:4;stroke-dasharray:none;stroke-dashoffset:0;stroke-opacity:1;visibility:visible;display:block;overflow:visible" width="33.699329" x="3.1503379" y="23.928627"/><rect height="21.781256" id="rect2451" rx="2.723242" ry="2.723242" style="opacity:1;color:#000000;fill:none;fill-opacity:1;fill-rule:nonzero;stroke:#204a87;stroke-width:2.00000119;stroke-linecap:butt;stroke-linejoin:miter;marker:none;marker-start:none;marker-mid:none;marker-end:none;stroke-miterlimit:4;stroke-dasharray:none;stroke-dashoffset:0;stroke-opacity:1;visibility:visible;display:block;overflow:visible" width="20.877464" x="25.063217" y="1.1243784"/></g></svg>