<?xml version="1.0" ?><svg height="48px" id="svg11300" width="48px" xmlns="http://www.w3.org/2000/svg" xmlns:cc="http://creativecommons.org/ns#" xmlns:dc="http://purl.org/dc/elements/1.1/" xmlns:inkscape="http://www.inkscape.org/namespaces/inkscape" xmlns:rdf="http://www.w3.org/1999/02/22-rdf-syntax-ns#" xmlns:sodipodi="http://sodipodi.sourceforge.net/DTD/sodipodi-0.dtd" xmlns:svg="http://www.w3.org/2000/svg" xmlns:xlink="http://www.w3.org/1999/xlink"><defs id="defs3"><radialGradient cx="605.71429" cy="486.64789" fx="605.71429" fy="486.64789" gradientTransform="matrix(-2.774389,0,0,1.969706,112.7623,-872.8854)" gradientUnits="userSpaceOnUse" id="radialGradient5031" r="117.14286" xlink:href="#linearGradient5060"/><linearGradient id="linearGradient5060"><stop id="stop5062" offset="0" style="stop-color:black;stop-opacity:1;"/><stop id="stop5064" offset="1" style="stop-color:black;stop-opacity:0;"/></linearGradient><radialGradient cx="605.71429" cy="486.64789" fx="605.71429" fy="486.64789" gradientTransform="matrix(2.774389,0,0,1.969706,-1891.633,-872.8854)" gradientUnits="userSpaceOnUse" id="radialGradient5029" r="117.14286" xlink:href="#linearGradient5060"/><linearGradient id="linearGradient5048"><stop id="stop5050" offset="0" style="stop-color:black;stop-opacity:0;"/><stop id="stop5056" offset="0.5" style="stop-color:black;stop-opacity:1;"/><stop id="stop5052" offset="1" style="stop-color:black;stop-opacity:0;"/></linearGradient><linearGradient gradientTransform="matrix(2.774389,0,0,1.969706,-1892.179,-872.8854)" gradientUnits="userSpaceOnUse" id="linearGradient5027" x1="302.85715" x2="302.85715" xlink:href="#linearGradient5048" y1="366.64789" y2="609.50507"/><linearGradient id="linearGradient4649"><stop id="stop4651" offset="0" style="stop-color:#80837d;stop-opacity:1;"/><stop id="stop4653" offset="1" style="stop-color:#4c4d4a;stop-opacity:1;"/></linearGradient><linearGradient id="linearGradient4639"><stop id="stop4641" offset="0" style="stop-color:#555753;stop-opacity:1;"/><stop id="stop4643" offset="1" style="stop-color:#7c7f79;stop-opacity:1;"/></linearGradient><linearGradient id="linearGradient4633"><stop id="stop4635" offset="0" style="stop-color:#ffffff;stop-opacity:1;"/><stop id="stop4637" offset="1" style="stop-color:#ffffff;stop-opacity:0;"/></linearGradient><linearGradient id="linearGradient4596"><stop id="stop4598" offset="0" style="stop-color:#75507b;stop-opacity:1;"/><stop id="stop4600" offset="1" style="stop-color:#543958;stop-opacity:1;"/></linearGradient><linearGradient id="linearGradient4586"><stop id="stop4588" offset="0" style="stop-color:#204a87;stop-opacity:1;"/><stop id="stop4590" offset="1" style="stop-color:#142e55;stop-opacity:1;"/></linearGradient><linearGradient id="linearGradient3697"><stop id="stop3699" offset="0" style="stop-color:#c8d5e6;stop-opacity:1;"/><stop id="stop3701" offset="1" style="stop-color:#427ebf;stop-opacity:1;"/></linearGradient><linearGradient id="linearGradient3689"><stop id="stop3691" offset="0" style="stop-color:#5079ad;stop-opacity:1;"/><stop id="stop3693" offset="1" style="stop-color:#729fcf"/></linearGradient><linearGradient id="linearGradient3568"><stop id="stop3570" offset="0" style="stop-color:#d6d6d6;stop-opacity:1;"/><stop id="stop3572" offset="1" style="stop-color:#f0f0f0;stop-opacity:1;"/></linearGradient><linearGradient id="linearGradient3560"><stop id="stop3562" offset="0" style="stop-color:#f0f0f0;stop-opacity:1;"/><stop id="stop3564" offset="1" style="stop-color:#c9c9c9;stop-opacity:1;"/></linearGradient><linearGradient id="linearGradient3550"><stop id="stop3552" offset="0" style="stop-color:#8b8b8b;stop-opacity:1;"/><stop id="stop3554" offset="1" style="stop-color:#a9a9a9;stop-opacity:1;"/></linearGradient><linearGradient id="linearGradient3536"><stop id="stop3538" offset="0" style="stop-color:#b0b0b0;stop-opacity:1;"/><stop id="stop3540" offset="1" style="stop-color:#757575;stop-opacity:1;"/></linearGradient><linearGradient id="linearGradient3528"><stop id="stop3530" offset="0" style="stop-color:#000000;stop-opacity:1;"/><stop id="stop3532" offset="1" style="stop-color:#000000;stop-opacity:0;"/></linearGradient><linearGradient id="linearGradient3518"><stop id="stop3520" offset="0" style="stop-color:#ffffff;stop-opacity:1;"/><stop id="stop3522" offset="1" style="stop-color:#ffffff;stop-opacity:0;"/></linearGradient><linearGradient id="linearGradient3508"><stop id="stop3510" offset="0" style="stop-color:#b0b0b0;stop-opacity:1;"/><stop id="stop3512" offset="1" style="stop-color:#939393;stop-opacity:1;"/></linearGradient><linearGradient gradientTransform="translate(-2.121319,3.005205)" gradientUnits="userSpaceOnUse" id="linearGradient3514" x1="16.940231" x2="16.940231" xlink:href="#linearGradient3508" y1="27.853085" y2="24.135145"/><linearGradient gradientTransform="translate(-2.121319,3.005205)" gradientUnits="userSpaceOnUse" id="linearGradient3524" x1="17.456696" x2="17.456696" xlink:href="#linearGradient3518" y1="37.661667" y2="27.231844"/><radialGradient cx="17.014757" cy="39.249554" fx="17.014757" fy="39.249554" gradientTransform="matrix(1.000000,0.000000,0.000000,0.502326,-2.992397e-15,19.53350)" gradientUnits="userSpaceOnUse" id="radialGradient3534" r="9.5017471" xlink:href="#linearGradient3528"/><radialGradient cx="18.163805" cy="22.531874" fx="18.163805" fy="22.531874" gradientTransform="matrix(1.000000,0.000000,0.000000,0.860061,0.000000,3.253760)" gradientUnits="userSpaceOnUse" id="radialGradient3542" r="2.8422911" xlink:href="#linearGradient3536"/><radialGradient cx="17.097467" cy="19.777185" fx="17.097467" fy="19.777185" gradientTransform="matrix(1.208333,0.000000,0.000000,0.636493,-5.683292,8.681835)" gradientUnits="userSpaceOnUse" id="radialGradient3548" r="4.5473714" xlink:href="#linearGradient3550"/><radialGradient cx="12.91097" cy="13.001998" fx="12.91097" fy="13.001998" gradientTransform="matrix(1.802725,2.307502e-23,-2.636931e-23,1.503342,-12.48525,-2.659143)" gradientUnits="userSpaceOnUse" id="radialGradient3566" r="7.4889511" xlink:href="#linearGradient3560"/><linearGradient gradientTransform="translate(-2.121319,3.005205)" gradientUnits="userSpaceOnUse" id="linearGradient3574" x1="14.883313" x2="13.400961" xlink:href="#linearGradient3568" y1="27.847456" y2="20.069281"/><radialGradient cx="17.097467" cy="19.777185" fx="17.097467" fy="19.777185" gradientTransform="matrix(1.208333,0.000000,0.000000,0.636493,-5.683292,8.681835)" gradientUnits="userSpaceOnUse" id="radialGradient3610" r="4.5473714" xlink:href="#linearGradient3550"/><radialGradient cx="12.91097" cy="13.001998" fx="12.91097" fy="13.001998" gradientTransform="matrix(1.802725,2.307502e-23,-2.636931e-23,1.503342,-12.48525,-2.659143)" gradientUnits="userSpaceOnUse" id="radialGradient3612" r="7.4889511" xlink:href="#linearGradient3560"/><linearGradient gradientTransform="translate(-2.121319,3.005205)" gradientUnits="userSpaceOnUse" id="linearGradient3616" x1="17.456696" x2="17.456696" xlink:href="#linearGradient3518" y1="37.661667" y2="27.231844"/><linearGradient gradientTransform="translate(-2.121319,3.005205)" gradientUnits="userSpaceOnUse" id="linearGradient3620" x1="14.883313" x2="13.400961" xlink:href="#linearGradient3568" y1="27.847456" y2="20.069281"/><radialGradient cx="17.014757" cy="39.249554" fx="17.014757" fy="39.249554" gradientTransform="matrix(1.000000,0.000000,0.000000,0.502326,5.762756e-15,19.53350)" gradientUnits="userSpaceOnUse" id="radialGradient3661" r="9.5017471" xlink:href="#linearGradient3528"/><linearGradient gradientTransform="translate(15.99833,-9.914664)" gradientUnits="userSpaceOnUse" id="linearGradient3663" x1="14.883313" x2="13.400961" xlink:href="#linearGradient3568" y1="27.847456" y2="20.069281"/><linearGradient gradientTransform="translate(15.99833,-9.914664)" gradientUnits="userSpaceOnUse" id="linearGradient3665" x1="16.940231" x2="16.940231" xlink:href="#linearGradient3508" y1="27.853085" y2="24.135145"/><linearGradient gradientTransform="translate(15.99833,-9.914664)" gradientUnits="userSpaceOnUse" id="linearGradient3667" x1="17.456696" x2="17.456696" xlink:href="#linearGradient3518" y1="37.661667" y2="27.231844"/><radialGradient cx="18.163805" cy="22.531874" fx="18.163805" fy="22.531874" gradientTransform="matrix(1.000000,0.000000,0.000000,0.860061,0.000000,3.253760)" gradientUnits="userSpaceOnUse" id="radialGradient3669" r="2.8422911" xlink:href="#linearGradient3536"/><radialGradient cx="12.91097" cy="13.001998" fx="12.91097" fy="13.001998" gradientTransform="matrix(1.802725,2.307502e-23,-2.636931e-23,1.503342,5.634344,-15.57903)" gradientUnits="userSpaceOnUse" id="radialGradient3671" r="7.4889511" xlink:href="#linearGradient3560"/><radialGradient cx="17.097467" cy="19.777185" fx="17.097467" fy="19.777185" gradientTransform="matrix(1.208333,0.000000,0.000000,0.636493,12.43635,-4.238032)" gradientUnits="userSpaceOnUse" id="radialGradient3673" r="4.5473714" xlink:href="#linearGradient3550"/><radialGradient cx="17.014757" cy="39.249554" fx="17.014757" fy="39.249554" gradientTransform="matrix(1.000000,0.000000,0.000000,0.502326,5.762756e-15,19.53350)" gradientUnits="userSpaceOnUse" id="radialGradient3675" r="9.5017471" xlink:href="#linearGradient3528"/><linearGradient gradientTransform="translate(15.99833,-9.914664)" gradientUnits="userSpaceOnUse" id="linearGradient3677" x1="14.883313" x2="13.400961" xlink:href="#linearGradient3689" y1="27.847456" y2="20.069281"/><linearGradient gradientTransform="translate(15.99833,-9.914664)" gradientUnits="userSpaceOnUse" id="linearGradient3681" x1="17.456696" x2="17.456696" xlink:href="#linearGradient3518" y1="37.661667" y2="27.231844"/><radialGradient cx="27.8486" cy="4.607163" fx="27.8486" fy="4.607163" gradientTransform="matrix(1.000000,0.000000,0.000000,0.833928,2.121324,0.655729)" gradientUnits="userSpaceOnUse" id="radialGradient3705" r="7.4889512" xlink:href="#linearGradient3697"/><radialGradient cx="30.974438" cy="12.172572" fx="30.974438" fy="12.172572" gradientTransform="matrix(2.132075,-4.734158e-15,2.267378e-15,1.021136,-32.94404,-3.689447)" gradientUnits="userSpaceOnUse" id="radialGradient4594" r="4.890574" xlink:href="#linearGradient4586"/><radialGradient cx="18.163805" cy="22.429104" fx="18.163805" fy="22.429104" gradientTransform="matrix(1.870990,-2.499894e-15,2.150062e-15,1.609166,-15.82050,-13.54799)" gradientUnits="userSpaceOnUse" id="radialGradient4602" r="2.8422911" xlink:href="#linearGradient4596"/><linearGradient gradientTransform="translate(2.121324,-0.883885)" gradientUnits="userSpaceOnUse" id="linearGradient4619" x1="31.643028" x2="31.643028" xlink:href="#linearGradient4633" y1="13.616933" y2="9.6384754"/><linearGradient gradientTransform="translate(2.121324,-0.883885)" gradientUnits="userSpaceOnUse" id="linearGradient4621" x1="31.643028" x2="31.643028" xlink:href="#linearGradient4633" y1="13.616933" y2="9.6384754"/><linearGradient gradientUnits="userSpaceOnUse" id="linearGradient4645" x1="15.335379" x2="15.335379" xlink:href="#linearGradient4639" y1="28.377787" y2="34.388195"/><radialGradient cx="18.163805" cy="22.223564" fx="18.163805" fy="22.223564" gradientTransform="matrix(1.000000,0.000000,0.000000,0.860061,0.000000,3.253760)" gradientUnits="userSpaceOnUse" id="radialGradient4647" r="2.8422911" xlink:href="#linearGradient4649"/><linearGradient gradientTransform="matrix(2.774389,0,0,1.969706,-1892.179,-872.8854)" gradientUnits="userSpaceOnUse" id="linearGradient6715" x1="302.85715" x2="302.85715" xlink:href="#linearGradient5048" y1="366.64789" y2="609.50507"/><radialGradient cx="605.71429" cy="486.64789" fx="605.71429" fy="486.64789" gradientTransform="matrix(2.774389,0,0,1.969706,-1891.633,-872.8854)" gradientUnits="userSpaceOnUse" id="radialGradient6717" r="117.14286" xlink:href="#linearGradient5060"/><radialGradient cx="605.71429" cy="486.64789" fx="605.71429" fy="486.64789" gradientTransform="matrix(-2.774389,0,0,1.969706,112.7623,-872.8854)" gradientUnits="userSpaceOnUse" id="radialGradient6719" r="117.14286" xlink:href="#linearGradient5060"/></defs><g id="layer2"><g id="g6707" transform="matrix(1.518738e-2,0,0,2.086758e-2,45.6332,27.4036)"><rect height="478.35718" id="rect6709" style="opacity:0.40206185;color:black;fill:url(#linearGradient6715);fill-opacity:1;fill-rule:nonzero;stroke:none;stroke-width:1;stroke-linecap:round;stroke-linejoin:miter;marker:none;marker-start:none;marker-mid:none;marker-end:none;stroke-miterlimit:4;stroke-dasharray:none;stroke-dashoffset:0;stroke-opacity:1;visibility:visible;display:inline;overflow:visible" width="1339.6335" x="-1559.2523" y="-150.69685"/><path d="M -219.61876,-150.68038 C -219.61876,-150.68038 -219.61876,327.65041 -219.61876,327.65041 C -76.744594,328.55086 125.78146,220.48075 125.78138,88.454235 C 125.78138,-43.572302 -33.655436,-150.68036 -219.61876,-150.68038 z " id="path6711" style="opacity:0.40206185;color:black;fill:url(#radialGradient6717);fill-opacity:1;fill-rule:nonzero;stroke:none;stroke-width:1;stroke-linecap:round;stroke-linejoin:miter;marker:none;marker-start:none;marker-mid:none;marker-end:none;stroke-miterlimit:4;stroke-dasharray:none;stroke-dashoffset:0;stroke-opacity:1;visibility:visible;display:inline;overflow:visible"/><path d="M -1559.2523,-150.68038 C -1559.2523,-150.68038 -1559.2523,327.65041 -1559.2523,327.65041 C -1702.1265,328.55086 -1904.6525,220.48075 -1904.6525,88.454235 C -1904.6525,-43.572302 -1745.2157,-150.68036 -1559.2523,-150.68038 z " id="path6713" style="opacity:0.40206185;color:black;fill:url(#radialGradient6719);fill-opacity:1;fill-rule:nonzero;stroke:none;stroke-width:1;stroke-linecap:round;stroke-linejoin:miter;marker:none;marker-start:none;marker-mid:none;marker-end:none;stroke-miterlimit:4;stroke-dasharray:none;stroke-dashoffset:0;stroke-opacity:1;visibility:visible;display:inline;overflow:visible"/></g><path d="M 31.205998,5.2048743 L 34.908493,5.2048743 C 39.19495,5.2048743 44.455603,6.5223903 44.455603,7.0610293 L 44.455603,29.688444 C 44.455603,30.227083 44.018726,30.660716 43.476057,30.660716 L 22.638435,30.660716 C 22.095767,30.660716 21.658889,30.227083 21.658889,29.688444 L 21.658889,7.0610293 C 21.658889,6.5223903 26.830568,5.2048743 31.205998,5.2048743 z " id="path3627" style="color:#000000;fill:url(#linearGradient3663);fill-opacity:1;fill-rule:evenodd;stroke:#949494;stroke-width:1.00000012;stroke-linecap:butt;stroke-linejoin:miter;marker:none;marker-start:none;marker-mid:none;marker-end:none;stroke-miterlimit:4;stroke-dashoffset:0;stroke-opacity:1;visibility:visible;display:inline;overflow:visible"/><path d="M 31.363447,6.0663853 L 34.751056,6.0663853 C 38.672963,6.0663853 43.486213,7.5879023 43.486213,7.5879023 L 43.486213,29.657422 C 43.486213,29.657422 22.628291,29.657422 22.628291,29.657422 L 22.628291,7.5879023 C 22.628291,7.5879023 27.360135,6.0663853 31.363447,6.0663853 z " id="path3629" style="opacity:0.61988304;color:#000000;fill:none;fill-opacity:1;fill-rule:evenodd;stroke:#ffffff;stroke-width:1;stroke-linecap:butt;stroke-linejoin:round;marker:none;marker-start:none;marker-mid:none;marker-end:none;stroke-miterlimit:4;stroke-dasharray:none;stroke-dashoffset:0;stroke-opacity:1;visibility:visible;display:inline;overflow:visible"/><path d="M 33.410797,10.508173 L 30.405594,17.314076 L 30.405594,29.600057 L 33.587574,32.428484 L 36.50439,29.600057 L 36.50439,17.1373 L 33.410797,10.508173 z " id="path3631" style="opacity:1;color:#000000;fill:url(#linearGradient3665);fill-opacity:1;fill-rule:evenodd;stroke:#949494;stroke-width:1;stroke-linecap:butt;stroke-linejoin:miter;marker:none;marker-start:none;marker-mid:none;marker-end:none;stroke-miterlimit:4;stroke-dasharray:none;stroke-dashoffset:0;stroke-opacity:1;visibility:visible;display:inline;overflow:visible"/><path d="M 33.422901,13.510439 L 31.417678,17.921699 L 31.417678,28.969769 L 33.551254,31.023416 L 35.492301,28.969769 L 35.492301,17.793346 L 33.422901,13.510439 z " id="path3633" style="opacity:0.46783627;color:#000000;fill:none;fill-opacity:1;fill-rule:evenodd;stroke:url(#linearGradient3667);stroke-width:0.99999976;stroke-linecap:butt;stroke-linejoin:miter;marker:none;marker-start:none;marker-mid:none;marker-end:none;stroke-miterlimit:4;stroke-dasharray:none;stroke-dashoffset:0;stroke-opacity:1;visibility:visible;display:inline;overflow:visible"/><path d="M 20.506096 23.251263 A 2.3422911 1.9445436 0 1 1  15.821514,23.251263 A 2.3422911 1.9445436 0 1 1  20.506096 23.251263 z" id="path3635" style="opacity:1;color:#000000;fill:url(#radialGradient3669);fill-opacity:1;fill-rule:evenodd;stroke:#949494;stroke-width:1;stroke-linecap:butt;stroke-linejoin:miter;marker:none;marker-start:none;marker-mid:none;marker-end:none;stroke-miterlimit:4;stroke-dasharray:none;stroke-dashoffset:0;stroke-opacity:1;visibility:visible;display:inline;overflow:visible" transform="translate(15.11444,-11.15211)"/><path d="M 33.057245,10.331398 L 28.019109,14.132097 C 28.019109,14.132097 26.162954,8.5652093 26.162954,6.0887583 C 26.162955,3.6138843 27.48878,2.6416133 28.902993,2.6416133 C 28.902993,2.6416133 37.299886,2.6416133 37.299886,2.6416133 C 38.256463,2.6416133 39.929439,3.0393603 40.128313,5.9119823 C 40.327187,8.7846031 38.095381,14.132097 38.095381,14.132097 L 33.057245,10.331398 z " id="path3637" style="opacity:1;color:#000000;fill:url(#radialGradient3671);fill-opacity:1;fill-rule:evenodd;stroke:#949494;stroke-width:1;stroke-linecap:butt;stroke-linejoin:miter;marker:none;marker-start:none;marker-mid:none;marker-end:none;stroke-miterlimit:4;stroke-dasharray:none;stroke-dashoffset:0;stroke-opacity:1;visibility:visible;display:inline;overflow:visible"/><path d="M 29.915116,5.0280943 C 29.915116,5.0280943 28.099472,5.5160723 28.41988,6.6872173 C 28.740287,7.8583633 31.196747,9.7126756 31.196747,9.7126756 L 35.789258,9.7126756 C 35.789258,9.7126756 37.898608,8.1511493 38.138915,6.9800043 C 38.379221,5.8088583 36.750481,5.0280943 36.750481,5.0280943 L 29.915116,5.0280943 z " id="path3639" style="opacity:1;color:#000000;fill:#ffffff;fill-opacity:1;fill-rule:evenodd;stroke:none;stroke-width:1;stroke-linecap:butt;stroke-linejoin:miter;marker:none;marker-start:none;marker-mid:none;marker-end:none;stroke-miterlimit:4;stroke-dasharray:none;stroke-dashoffset:0;stroke-opacity:1;visibility:visible;display:inline;overflow:visible"/><path d="M 29.73834,4.0558263 C 29.73834,4.0558263 27.922696,4.5438043 28.243104,5.7149493 C 28.563511,6.8860953 31.019971,8.7404084 31.019971,8.7404084 L 35.612482,8.7404084 C 35.612482,8.7404084 37.721832,7.1788813 37.962139,6.0077363 C 38.202445,4.8365903 36.573705,4.0558263 36.573705,4.0558263 L 29.73834,4.0558263 z " id="path3641" style="opacity:1;color:#000000;fill:url(#radialGradient3673);fill-opacity:1;fill-rule:evenodd;stroke:none;stroke-width:1;stroke-linecap:butt;stroke-linejoin:miter;marker:none;marker-start:none;marker-mid:none;marker-end:none;stroke-miterlimit:4;stroke-dasharray:none;stroke-dashoffset:0;stroke-opacity:1;visibility:visible;display:inline;overflow:visible"/><path d="M 31.205998,5.2048743 L 34.908493,5.2048743 C 39.19495,5.2048743 44.455603,6.5223903 44.455603,7.0610293 L 44.455603,29.688444 C 44.455603,30.227083 44.018726,30.660716 43.476057,30.660716 L 22.638435,30.660716 C 22.095767,30.660716 21.658889,30.227083 21.658889,29.688444 L 21.658889,7.0610293 C 21.658889,6.5223903 26.830568,5.2048743 31.205998,5.2048743 z " id="path3645" style="color:#000000;fill:url(#linearGradient3677);fill-opacity:1;fill-rule:evenodd;stroke:#3465a4;stroke-width:1.00000012;stroke-linecap:butt;stroke-linejoin:miter;marker:none;marker-start:none;marker-mid:none;marker-end:none;stroke-miterlimit:4;stroke-dashoffset:0;stroke-opacity:1;visibility:visible;display:inline;overflow:visible"/><path d="M 31.363447,6.0663853 L 34.751056,6.0663853 C 38.672963,6.0663853 43.486213,7.5879023 43.486213,7.5879023 L 43.486213,29.657422 C 43.486213,29.657422 22.628291,29.657422 22.628291,29.657422 L 22.628291,7.5879023 C 22.628291,7.5879023 27.360135,6.0663853 31.363447,6.0663853 z " id="path3647" style="opacity:0.26315792;color:#000000;fill:none;fill-opacity:1;fill-rule:evenodd;stroke:#ffffff;stroke-width:1;stroke-linecap:butt;stroke-linejoin:round;marker:none;marker-start:none;marker-mid:none;marker-end:none;stroke-miterlimit:4;stroke-dasharray:none;stroke-dashoffset:0;stroke-opacity:1;visibility:visible;display:inline;overflow:visible"/><path d="M 33.410797,10.508173 C 33.410797,10.508173 30.405594,15.439076 30.405594,17.314076 L 30.405594,29.600057 L 33.587574,32.428484 L 36.50439,29.600057 L 36.50439,17.1373 C 36.50439,15.3873 33.410797,10.508173 33.410797,10.508173 z " id="path3649" style="opacity:1;color:#000000;fill:#75507b;fill-opacity:1;fill-rule:evenodd;stroke:#5c3566;stroke-width:1;stroke-linecap:butt;stroke-linejoin:miter;marker:none;marker-start:none;marker-mid:none;marker-end:none;stroke-miterlimit:4;stroke-dasharray:none;stroke-dashoffset:0;stroke-opacity:1;visibility:visible;display:inline;overflow:visible"/><path d="M 33.422901,13.510439 L 31.417678,17.921699 L 31.417678,28.969769 L 33.551254,31.023416 L 35.492301,28.969769 L 35.492301,17.793346 L 33.422901,13.510439 z " id="path3651" style="opacity:0.25146197;color:#000000;fill:none;fill-opacity:1;fill-rule:evenodd;stroke:url(#linearGradient3681);stroke-width:0.99999976;stroke-linecap:butt;stroke-linejoin:miter;marker:none;marker-start:none;marker-mid:none;marker-end:none;stroke-miterlimit:4;stroke-dasharray:none;stroke-dashoffset:0;stroke-opacity:1;visibility:visible;display:inline;overflow:visible"/><path d="M 20.506096 23.251263 A 2.3422911 1.9445436 0 1 1  15.821514,23.251263 A 2.3422911 1.9445436 0 1 1  20.506096 23.251263 z" id="path3653" style="opacity:1;color:#000000;fill:url(#radialGradient4602);fill-opacity:1;fill-rule:evenodd;stroke:#5c3566;stroke-width:1;stroke-linecap:butt;stroke-linejoin:miter;marker:none;marker-start:none;marker-mid:none;marker-end:none;stroke-miterlimit:4;stroke-dasharray:none;stroke-dashoffset:0;stroke-opacity:1;visibility:visible;display:inline;overflow:visible" transform="translate(15.11444,-11.15211)"/><path d="M 33.057245,10.331398 L 28.019109,14.132097 C 28.019109,14.132097 26.162954,8.5652093 26.162954,6.0887583 C 26.162955,3.6138843 27.48878,2.6416133 28.902993,2.6416133 C 28.902993,2.6416133 37.299886,2.6416133 37.299886,2.6416133 C 38.256463,2.6416133 39.929439,3.0393603 40.128313,5.9119823 C 40.327187,8.7846031 38.095381,14.132097 38.095381,14.132097 L 33.057245,10.331398 z " id="path3655" style="opacity:1;color:#000000;fill:url(#radialGradient3705);fill-opacity:1;fill-rule:evenodd;stroke:#3465a4;stroke-width:1.00000012;stroke-linecap:butt;stroke-linejoin:miter;marker:none;marker-start:none;marker-mid:none;marker-end:none;stroke-miterlimit:4;stroke-dasharray:none;stroke-dashoffset:0;stroke-opacity:1;visibility:visible;display:inline;overflow:visible"/><path d="M 29.915116,5.0280943 C 29.915116,5.0280943 28.099472,5.5160723 28.41988,6.6872173 C 28.740287,7.8583633 30.696747,9.7126756 31.196747,9.7126756 L 35.789258,9.7126756 C 36.539258,9.6501756 37.898608,8.1511493 38.138915,6.9800043 C 38.379221,5.8088583 36.750481,5.0280943 36.750481,5.0280943 L 29.915116,5.0280943 z " id="path3657" style="opacity:0.33333333;color:#000000;fill:#ffffff;fill-opacity:1;fill-rule:evenodd;stroke:none;stroke-width:1;stroke-linecap:butt;stroke-linejoin:miter;marker:none;marker-start:none;marker-mid:none;marker-end:none;stroke-miterlimit:4;stroke-dasharray:none;stroke-dashoffset:0;stroke-opacity:1;visibility:visible;display:inline;overflow:visible"/><path d="M 29.73834,4.0558263 C 29.23834,4.0558263 27.922696,4.5438043 28.243104,5.7149493 C 28.563511,6.8860953 30.142741,8.7404084 31.019971,8.7404084 L 35.612482,8.7404084 C 36.302817,8.7404084 37.721832,7.1788813 37.962139,6.0077363 C 38.202445,4.8365903 37.073705,4.0558263 36.573705,4.0558263 L 29.73834,4.0558263 z " id="path3659" style="opacity:1;color:#000000;fill:url(#radialGradient4594);fill-opacity:1;fill-rule:evenodd;stroke:none;stroke-width:1;stroke-linecap:butt;stroke-linejoin:miter;marker:none;marker-start:none;marker-mid:none;marker-end:none;stroke-miterlimit:4;stroke-dasharray:none;stroke-dashoffset:0;stroke-opacity:1;visibility:visible;display:inline;overflow:visible"/><path d="M 33.145635,9.6836496 L 37.830218,13.219183 L 39.067654,9.7720386 L 37.565053,12.246911 L 33.145635,9.6836496 z " id="path4609" style="opacity:0.28654971;color:#000000;fill:url(#linearGradient4619);fill-opacity:1;fill-rule:evenodd;stroke:none;stroke-width:1;stroke-linecap:butt;stroke-linejoin:miter;marker:none;marker-start:none;marker-mid:none;marker-end:none;stroke-miterlimit:4;stroke-dasharray:none;stroke-dashoffset:0;stroke-opacity:1;visibility:visible;display:inline;overflow:visible"/><path d="M 32.792081,9.8604263 L 28.372663,13.219183 L 26.870062,6.5900599 L 28.902993,11.981746 L 32.792081,9.8604263 z " id="path4611" style="opacity:0.28654971;color:#000000;fill:url(#linearGradient4621);fill-opacity:1;fill-rule:evenodd;stroke:none;stroke-width:1;stroke-linecap:butt;stroke-linejoin:miter;marker:none;marker-start:none;marker-mid:none;marker-end:none;stroke-miterlimit:4;stroke-dasharray:none;stroke-dashoffset:0;stroke-opacity:1;visibility:visible;display:inline;overflow:visible"/></g><g id="layer1"><path d="M 13.086385,18.12474 L 16.78888,18.12474 C 21.075337,18.12474 26.33599,19.442256 26.33599,19.980895 L 26.33599,42.608311 C 26.33599,43.14695 25.899113,43.580583 25.356444,43.580583 L 4.5188213,43.580583 C 3.9761532,43.580583 3.5392748,43.14695 3.5392748,42.608311 L 3.5392748,19.980895 C 3.5392748,19.442256 8.7109537,18.12474 13.086385,18.12474 z " id="rect2564" style="color:#000000;fill:url(#linearGradient3574);fill-opacity:1;fill-rule:evenodd;stroke:#949494;stroke-width:1.00000012;stroke-linecap:butt;stroke-linejoin:miter;marker:none;marker-start:none;marker-mid:none;marker-end:none;stroke-miterlimit:4;stroke-dashoffset:0;stroke-opacity:1;visibility:visible;display:inline;overflow:visible"/><path d="M 13.243834,18.986251 L 16.631443,18.986251 C 20.55335,18.986251 25.3666,20.507768 25.3666,20.507768 L 25.3666,42.577289 C 25.3666,42.577289 4.5086772,42.577289 4.5086772,42.577289 L 4.5086772,20.507768 C 4.5086772,20.507768 9.2405207,18.986251 13.243834,18.986251 z " id="path3576" style="opacity:0.61988304;color:#000000;fill:none;fill-opacity:1;fill-rule:evenodd;stroke:#ffffff;stroke-width:1;stroke-linecap:butt;stroke-linejoin:round;marker:none;marker-start:none;marker-mid:none;marker-end:none;stroke-miterlimit:4;stroke-dasharray:none;stroke-dashoffset:0;stroke-opacity:1;visibility:visible;display:inline;overflow:visible"/><g id="g5022" transform="matrix(1.518738e-2,0,0,2.086758e-2,28.3832,40.0286)"><rect height="478.35718" id="rect4173" style="opacity:0.40206185;color:black;fill:url(#linearGradient5027);fill-opacity:1;fill-rule:nonzero;stroke:none;stroke-width:1;stroke-linecap:round;stroke-linejoin:miter;marker:none;marker-start:none;marker-mid:none;marker-end:none;stroke-miterlimit:4;stroke-dasharray:none;stroke-dashoffset:0;stroke-opacity:1;visibility:visible;display:inline;overflow:visible" width="1339.6335" x="-1559.2523" y="-150.69685"/><path d="M -219.61876,-150.68038 C -219.61876,-150.68038 -219.61876,327.65041 -219.61876,327.65041 C -76.744594,328.55086 125.78146,220.48075 125.78138,88.454235 C 125.78138,-43.572302 -33.655436,-150.68036 -219.61876,-150.68038 z " id="path5058" style="opacity:0.40206185;color:black;fill:url(#radialGradient5029);fill-opacity:1;fill-rule:nonzero;stroke:none;stroke-width:1;stroke-linecap:round;stroke-linejoin:miter;marker:none;marker-start:none;marker-mid:none;marker-end:none;stroke-miterlimit:4;stroke-dasharray:none;stroke-dashoffset:0;stroke-opacity:1;visibility:visible;display:inline;overflow:visible"/><path d="M -1559.2523,-150.68038 C -1559.2523,-150.68038 -1559.2523,327.65041 -1559.2523,327.65041 C -1702.1265,328.55086 -1904.6525,220.48075 -1904.6525,88.454235 C -1904.6525,-43.572302 -1745.2157,-150.68036 -1559.2523,-150.68038 z " id="path5018" style="opacity:0.40206185;color:black;fill:url(#radialGradient5031);fill-opacity:1;fill-rule:nonzero;stroke:none;stroke-width:1;stroke-linecap:round;stroke-linejoin:miter;marker:none;marker-start:none;marker-mid:none;marker-end:none;stroke-miterlimit:4;stroke-dasharray:none;stroke-dashoffset:0;stroke-opacity:1;visibility:visible;display:inline;overflow:visible"/></g><path d="M 15.291184,23.42804 L 12.285981,30.233943 L 12.285981,42.519924 L 15.467961,45.348351 L 18.384777,42.519924 L 18.384777,30.057167 L 15.291184,23.42804 z " id="path3446" style="opacity:1;color:#000000;fill:url(#linearGradient3514);fill-opacity:1;fill-rule:evenodd;stroke:#949494;stroke-width:1;stroke-linecap:butt;stroke-linejoin:miter;marker:none;marker-start:none;marker-mid:none;marker-end:none;stroke-miterlimit:4;stroke-dasharray:none;stroke-dashoffset:0;stroke-opacity:1;visibility:visible;display:inline;overflow:visible"/><path d="M 15.303288,26.430306 L 13.298065,30.841566 L 13.298065,41.889636 L 15.431641,43.943283 L 17.372688,41.889636 L 17.372688,30.713213 L 15.303288,26.430306 z " id="path3516" style="opacity:0.46783627;color:#000000;fill:none;fill-opacity:1;fill-rule:evenodd;stroke:url(#linearGradient3524);stroke-width:0.99999976;stroke-linecap:butt;stroke-linejoin:miter;marker:none;marker-start:none;marker-mid:none;marker-end:none;stroke-miterlimit:4;stroke-dasharray:none;stroke-dashoffset:0;stroke-opacity:1;visibility:visible;display:inline;overflow:visible"/><path d="M 20.506096 23.251263 A 2.3422911 1.9445436 0 1 1  15.821514,23.251263 A 2.3422911 1.9445436 0 1 1  20.506096 23.251263 z" id="path3444" style="opacity:1;color:#000000;fill:url(#radialGradient3542);fill-opacity:1;fill-rule:evenodd;stroke:#949494;stroke-width:1;stroke-linecap:butt;stroke-linejoin:miter;marker:none;marker-start:none;marker-mid:none;marker-end:none;stroke-miterlimit:4;stroke-dasharray:none;stroke-dashoffset:0;stroke-opacity:1;visibility:visible;display:inline;overflow:visible" transform="translate(-3.005208,1.767768)"/><path d="M 14.937632,23.251265 L 9.8994947,27.051964 C 9.8994947,27.051964 8.0433397,21.485075 8.0433397,19.008624 C 8.0433407,16.53375 9.3691657,15.561479 10.78338,15.561479 C 10.78338,15.561479 19.180273,15.561479 19.180273,15.561479 C 20.13685,15.561479 21.809826,15.959226 22.0087,18.831848 C 22.207574,21.704469 19.975768,27.051964 19.975768,27.051964 L 14.937632,23.251265 z " id="path3440" style="opacity:1;color:#000000;fill:url(#radialGradient3566);fill-opacity:1;fill-rule:evenodd;stroke:#949494;stroke-width:1;stroke-linecap:butt;stroke-linejoin:miter;marker:none;marker-start:none;marker-mid:none;marker-end:none;stroke-miterlimit:4;stroke-dasharray:none;stroke-dashoffset:0;stroke-opacity:1;visibility:visible;display:inline;overflow:visible"/><path d="M 11.795503,17.94796 C 11.795503,17.94796 9.9798577,18.435938 10.300266,19.607083 C 10.620674,20.778229 13.077134,22.632542 13.077134,22.632542 L 17.669645,22.632542 C 17.669645,22.632542 19.778995,21.071015 20.019302,19.89987 C 20.259608,18.728724 18.630868,17.94796 18.630868,17.94796 L 11.795503,17.94796 z " id="path3442" style="opacity:1;color:#000000;fill:#ffffff;fill-opacity:1;fill-rule:evenodd;stroke:none;stroke-width:1;stroke-linecap:butt;stroke-linejoin:miter;marker:none;marker-start:none;marker-mid:none;marker-end:none;stroke-miterlimit:4;stroke-dasharray:none;stroke-dashoffset:0;stroke-opacity:1;visibility:visible;display:inline;overflow:visible"/><path d="M 11.618727,16.975692 C 11.618727,16.975692 9.8030817,17.46367 10.12349,18.634815 C 10.443897,19.805961 12.900358,21.660274 12.900358,21.660274 L 17.492869,21.660274 C 17.492869,21.660274 19.602219,20.098747 19.842526,18.927602 C 20.082832,17.756456 18.454092,16.975692 18.454092,16.975692 L 11.618727,16.975692 z " id="path3556" style="opacity:1;color:#000000;fill:url(#radialGradient3548);fill-opacity:1;fill-rule:evenodd;stroke:none;stroke-width:1;stroke-linecap:butt;stroke-linejoin:miter;marker:none;marker-start:none;marker-mid:none;marker-end:none;stroke-miterlimit:4;stroke-dasharray:none;stroke-dashoffset:0;stroke-opacity:1;visibility:visible;display:inline;overflow:visible"/><path d="M 13.086385,18.12474 L 16.78888,18.12474 C 21.075337,18.12474 26.33599,19.442256 26.33599,19.980895 L 26.33599,42.608311 C 26.33599,43.14695 25.899113,43.580583 25.356444,43.580583 L 4.5188213,43.580583 C 3.9761532,43.580583 3.5392748,43.14695 3.5392748,42.608311 L 3.5392748,19.980895 C 3.5392748,19.442256 8.7109537,18.12474 13.086385,18.12474 z " id="path3580" style="color:#000000;fill:url(#linearGradient3620);fill-opacity:1;fill-rule:evenodd;stroke:#949494;stroke-width:1.00000012;stroke-linecap:butt;stroke-linejoin:miter;marker:none;marker-start:none;marker-mid:none;marker-end:none;stroke-miterlimit:4;stroke-dashoffset:0;stroke-opacity:1;visibility:visible;display:inline;overflow:visible"/><path d="M 13.243834,18.986251 L 16.631443,18.986251 C 20.55335,18.986251 25.3666,20.507768 25.3666,20.507768 L 25.3666,42.577289 C 25.3666,42.577289 4.5086772,42.577289 4.5086772,42.577289 L 4.5086772,20.507768 C 4.5086772,20.507768 9.2405207,18.986251 13.243834,18.986251 z " id="path3582" style="opacity:0.61988304;color:#000000;fill:none;fill-opacity:1;fill-rule:evenodd;stroke:#ffffff;stroke-width:1;stroke-linecap:butt;stroke-linejoin:round;marker:none;marker-start:none;marker-mid:none;marker-end:none;stroke-miterlimit:4;stroke-dasharray:none;stroke-dashoffset:0;stroke-opacity:1;visibility:visible;display:inline;overflow:visible"/><path d="M 15.291184,23.42804 C 15.291184,23.42804 12.285981,27.845821 12.285981,30.233943 L 12.285981,42.519924 L 15.467961,45.348351 L 18.384777,42.519924 L 18.384777,30.057167 C 18.384777,28.057167 15.291184,23.42804 15.291184,23.42804 z " id="path3584" style="opacity:1;color:#000000;fill:url(#linearGradient4645);fill-opacity:1.0;fill-rule:evenodd;stroke:#2e3436;stroke-width:1;stroke-linecap:butt;stroke-linejoin:miter;marker:none;marker-start:none;marker-mid:none;marker-end:none;stroke-miterlimit:4;stroke-dasharray:none;stroke-dashoffset:0;stroke-opacity:1;visibility:visible;display:inline;overflow:visible"/><path d="M 15.303288,26.430306 L 13.298065,30.841566 L 13.298065,41.889636 L 15.431641,43.943283 L 17.372688,41.889636 L 17.372688,30.713213 L 15.303288,26.430306 z " id="path3586" style="opacity:0.46783627;color:#000000;fill:none;fill-opacity:1;fill-rule:evenodd;stroke:url(#linearGradient3616);stroke-width:0.99999976;stroke-linecap:butt;stroke-linejoin:miter;marker:none;marker-start:none;marker-mid:none;marker-end:none;stroke-miterlimit:4;stroke-dasharray:none;stroke-dashoffset:0;stroke-opacity:1;visibility:visible;display:inline;overflow:visible"/><path d="M 20.506096 23.251263 A 2.3422911 1.9445436 0 1 1  15.821514,23.251263 A 2.3422911 1.9445436 0 1 1  20.506096 23.251263 z" id="path3588" style="opacity:1;color:#000000;fill:url(#radialGradient4647);fill-opacity:1.0;fill-rule:evenodd;stroke:#2e3436;stroke-width:1;stroke-linecap:butt;stroke-linejoin:miter;marker:none;marker-start:none;marker-mid:none;marker-end:none;stroke-miterlimit:4;stroke-dasharray:none;stroke-dashoffset:0;stroke-opacity:1;visibility:visible;display:inline;overflow:visible" transform="translate(-3.005208,1.767768)"/><path d="M 14.937632,23.251265 L 9.8994947,27.051964 C 9.8994947,27.051964 8.0433397,21.485075 8.0433397,19.008624 C 8.0433407,16.53375 9.3691657,15.561479 10.78338,15.561479 C 10.78338,15.561479 19.180273,15.561479 19.180273,15.561479 C 20.13685,15.561479 21.809826,15.959226 22.0087,18.831848 C 22.207574,21.704469 19.975768,27.051964 19.975768,27.051964 L 14.937632,23.251265 z " id="path3590" style="opacity:1;color:#000000;fill:url(#radialGradient3612);fill-opacity:1;fill-rule:evenodd;stroke:#949494;stroke-width:1;stroke-linecap:butt;stroke-linejoin:miter;marker:none;marker-start:none;marker-mid:none;marker-end:none;stroke-miterlimit:4;stroke-dasharray:none;stroke-dashoffset:0;stroke-opacity:1;visibility:visible;display:inline;overflow:visible"/><path d="M 11.795503,17.94796 C 11.795503,17.94796 9.9798577,18.435938 10.300266,19.607083 C 10.620674,20.778229 12.007307,22.632542 13.077134,22.632542 L 17.669645,22.632542 C 18.546875,22.632542 19.778995,21.071015 20.019302,19.89987 C 20.259608,18.728724 18.630868,17.94796 18.630868,17.94796 L 11.795503,17.94796 z " id="path3592" style="opacity:1;color:#000000;fill:#ffffff;fill-opacity:1;fill-rule:evenodd;stroke:none;stroke-width:1;stroke-linecap:butt;stroke-linejoin:miter;marker:none;marker-start:none;marker-mid:none;marker-end:none;stroke-miterlimit:4;stroke-dasharray:none;stroke-dashoffset:0;stroke-opacity:1;visibility:visible;display:inline;overflow:visible"/><path d="M 11.618727,16.975692 C 11.618727,16.975692 9.8030817,17.46367 10.12349,18.634815 C 10.443897,19.805961 11.775358,21.660274 12.900358,21.660274 L 17.492869,21.660274 C 18.242869,21.660274 19.602219,20.098747 19.842526,18.927602 C 20.082832,17.756456 18.454092,16.975692 18.454092,16.975692 L 11.618727,16.975692 z " id="path3594" style="opacity:1;color:#000000;fill:url(#radialGradient3610);fill-opacity:1;fill-rule:evenodd;stroke:none;stroke-width:1;stroke-linecap:butt;stroke-linejoin:miter;marker:none;marker-start:none;marker-mid:none;marker-end:none;stroke-miterlimit:4;stroke-dasharray:none;stroke-dashoffset:0;stroke-opacity:1;visibility:visible;display:inline;overflow:visible"/><path d="M 14.937632,22.720934 L 19.622215,26.256468 L 20.859651,22.809323 L 19.35705,25.284196 L 14.937632,22.720934 z " id="path4604" style="opacity:0.61988304;color:#000000;fill:#ffffff;fill-opacity:1;fill-rule:evenodd;stroke:none;stroke-width:1;stroke-linecap:butt;stroke-linejoin:miter;marker:none;marker-start:none;marker-mid:none;marker-end:none;stroke-miterlimit:4;stroke-dasharray:none;stroke-dashoffset:0;stroke-opacity:1;visibility:visible;display:inline;overflow:visible"/><path d="M 14.584078,22.897711 L 10.164659,26.256468 L 8.6620577,19.627343 L 10.69499,25.019031 L 14.584078,22.897711 z " id="path4607" style="opacity:0.61988304;color:#000000;fill:#ffffff;fill-opacity:1;fill-rule:evenodd;stroke:none;stroke-width:1;stroke-linecap:butt;stroke-linejoin:miter;marker:none;marker-start:none;marker-mid:none;marker-end:none;stroke-miterlimit:4;stroke-dasharray:none;stroke-dashoffset:0;stroke-opacity:1;visibility:visible;display:inline;overflow:visible"/></g></svg>