<?xml version="1.0" ?><svg height="48.000000px" id="svg2327" width="48.000000px" xmlns="http://www.w3.org/2000/svg" xmlns:cc="http://creativecommons.org/ns#" xmlns:dc="http://purl.org/dc/elements/1.1/" xmlns:inkscape="http://www.inkscape.org/namespaces/inkscape" xmlns:rdf="http://www.w3.org/1999/02/22-rdf-syntax-ns#" xmlns:sodipodi="http://sodipodi.sourceforge.net/DTD/sodipodi-0.dtd" xmlns:svg="http://www.w3.org/2000/svg" xmlns:xlink="http://www.w3.org/1999/xlink"><defs id="defs3"><linearGradient id="linearGradient2541"><stop id="stop2543" offset="0" style="stop-color:#fee964;stop-opacity:1;"/><stop id="stop2545" offset="1" style="stop-color:#fee964;stop-opacity:0;"/></linearGradient><linearGradient id="linearGradient2523"><stop id="stop2525" offset="0" style="stop-color:#ffffff;stop-opacity:1;"/><stop id="stop2527" offset="1" style="stop-color:#ffffff;stop-opacity:0;"/></linearGradient><linearGradient id="linearGradient2329"><stop id="stop2331" offset="0.0000000" style="stop-color:#ffffff;stop-opacity:1.0000000;"/><stop id="stop2333" offset="1.0000000" style="stop-color:#ffffff;stop-opacity:0.0000000;"/></linearGradient><linearGradient id="linearGradient2321"><stop id="stop2323" offset="0" style="stop-color:#7b7f7a;stop-opacity:1;"/><stop id="stop2325" offset="1" style="stop-color:#7b7f7a;stop-opacity:0;"/></linearGradient><linearGradient id="linearGradient2711"><stop id="stop2713" offset="0.0000000" style="stop-color:#909090;stop-opacity:1.0000000;"/><stop id="stop2715" offset="1.0000000" style="stop-color:#bebebe;stop-opacity:0.0000000;"/></linearGradient><linearGradient id="linearGradient2701"><stop id="stop2703" offset="0.0000000" style="stop-color:#585956;stop-opacity:1.0000000;"/><stop id="stop2705" offset="1.0000000" style="stop-color:#bbbeb8;stop-opacity:1.0000000;"/></linearGradient><linearGradient id="linearGradient2683"><stop id="stop2685" offset="0" style="stop-color:#000000;stop-opacity:1;"/><stop id="stop2687" offset="1" style="stop-color:#000000;stop-opacity:0;"/></linearGradient><linearGradient id="linearGradient2675"><stop id="stop2677" offset="0.0000000" style="stop-color:#5b5b97;stop-opacity:1.0000000;"/><stop id="stop2679" offset="1.0000000" style="stop-color:#1b1b43;stop-opacity:1.0000000;"/></linearGradient><linearGradient id="linearGradient2667"><stop id="stop2669" offset="0.0000000" style="stop-color:#ffffff;stop-opacity:1.0000000;"/><stop id="stop2671" offset="1.0000000" style="stop-color:#fcfcff;stop-opacity:0.0000000;"/></linearGradient><linearGradient id="linearGradient2454"><stop id="stop2456" offset="0" style="stop-color:#000000;stop-opacity:1;"/><stop id="stop2458" offset="1" style="stop-color:#000000;stop-opacity:0;"/></linearGradient><linearGradient id="linearGradient2415"><stop id="stop2417" offset="0" style="stop-color:#ffffff;stop-opacity:1;"/><stop id="stop2419" offset="1" style="stop-color:#ffffff;stop-opacity:0;"/></linearGradient><linearGradient id="linearGradient2253"><stop id="stop2255" offset="0.0000000" style="stop-color:#8f8f8f;stop-opacity:1.0000000;"/><stop id="stop2257" offset="1.0000000" style="stop-color:#494949;stop-opacity:1.0000000;"/></linearGradient><linearGradient id="linearGradient2245"><stop id="stop2247" offset="0.0000000" style="stop-color:#dde1d9;stop-opacity:1.0000000;"/><stop id="stop2249" offset="1.0000000" style="stop-color:#cacdc6;stop-opacity:1.0000000;"/></linearGradient><linearGradient gradientTransform="matrix(1.129863,0.000000,0.000000,0.885063,2.875000,1.570628)" gradientUnits="userSpaceOnUse" id="linearGradient2251" x1="8.6116238" x2="34.784473" xlink:href="#linearGradient2245" y1="7.2293582" y2="33.339787"/><linearGradient gradientTransform="matrix(1.108069,0.000000,0.000000,0.902471,5.500000,3.875000)" gradientUnits="userSpaceOnUse" id="linearGradient2421" x1="17.698339" x2="34.974548" xlink:href="#linearGradient2415" y1="13.004725" y2="55.200756"/><radialGradient cx="12.575710" cy="67.501709" fx="12.575710" fy="67.501709" gradientTransform="scale(1.925808,0.519262)" gradientUnits="userSpaceOnUse" id="radialGradient2460" r="8.7662794" xlink:href="#linearGradient2454"/><linearGradient gradientTransform="matrix(1.174139,0.000000,0.000000,0.945431,5.221825,1.543476)" gradientUnits="userSpaceOnUse" id="linearGradient2681" x1="19.150396" x2="16.315819" xlink:href="#linearGradient2675" y1="32.622238" y2="8.8666229"/><linearGradient gradientTransform="matrix(5.705159,0.000000,0.000000,0.175280,5.500000,2.195627)" gradientUnits="userSpaceOnUse" id="linearGradient2689" x1="3.7069976" x2="3.7069974" xlink:href="#linearGradient2683" y1="171.29134" y2="162.45061"/><linearGradient gradientTransform="matrix(1.816345,0.000000,0.000000,1.278927,2.500000,-40.24508)" gradientUnits="userSpaceOnUse" id="linearGradient2707" x1="12.206709" x2="12.127711" xlink:href="#linearGradient2701" y1="53.535141" y2="64.892525"/><linearGradient gradientUnits="userSpaceOnUse" id="linearGradient2717" x1="34.300991" x2="35.520542" xlink:href="#linearGradient2711" y1="3.9384086" y2="3.8451097"/><linearGradient gradientUnits="userSpaceOnUse" id="linearGradient2721" x1="34.300991" x2="35.520542" xlink:href="#linearGradient2711" y1="3.9384086" y2="3.8451097"/><linearGradient gradientUnits="userSpaceOnUse" id="linearGradient2725" x1="34.300991" x2="35.520542" xlink:href="#linearGradient2711" y1="3.9384086" y2="3.8451097"/><linearGradient gradientUnits="userSpaceOnUse" id="linearGradient2729" x1="34.300991" x2="35.520542" xlink:href="#linearGradient2711" y1="3.9384086" y2="3.8451097"/><linearGradient gradientUnits="userSpaceOnUse" id="linearGradient2733" x1="34.300991" x2="35.520542" xlink:href="#linearGradient2711" y1="3.9384086" y2="3.8451097"/><linearGradient gradientTransform="matrix(1.104397,0.000000,0.000000,0.905471,4.500000,2.875000)" gradientUnits="userSpaceOnUse" id="linearGradient1561" x1="10.390738" x2="32.536823" xlink:href="#linearGradient2253" y1="5.3817744" y2="31.246054"/><linearGradient gradientUnits="userSpaceOnUse" id="linearGradient2327" x1="-35.658386" x2="-35.658386" xlink:href="#linearGradient2321" y1="33.416473" y2="28.205938"/><linearGradient gradientUnits="userSpaceOnUse" id="linearGradient2337" x1="-35.122688" x2="-35.074745" xlink:href="#linearGradient2329" y1="34.242237" y2="30.962345"/><linearGradient gradientTransform="matrix(1.238977,0.000000,0.000000,0.895955,5.267331,1.543476)" gradientUnits="userSpaceOnUse" id="linearGradient2315" x1="11.492236" x2="17.199417" xlink:href="#linearGradient2667" y1="1.6537577" y2="26.729263"/><radialGradient cx="13.611806" cy="11.584001" fx="13.611806" fy="11.584001" gradientTransform="matrix(1.952381,0.000000,0.000000,1.952381,-12.96362,-11.03238)" gradientUnits="userSpaceOnUse" id="radialGradient2529" r="1.8561553" xlink:href="#linearGradient2523"/><radialGradient cx="16.086679" cy="13.970486" fx="16.086679" fy="13.970486" gradientUnits="userSpaceOnUse" id="radialGradient2547" r="1.767767" xlink:href="#linearGradient2541"/><radialGradient cx="16.086679" cy="13.970486" fx="16.086679" fy="13.970486" gradientUnits="userSpaceOnUse" id="radialGradient2559" r="1.767767" xlink:href="#linearGradient2541"/><radialGradient cx="13.611806" cy="11.584001" fx="13.611806" fy="11.584001" gradientTransform="matrix(1.952381,0.000000,0.000000,1.952381,-12.96362,-11.03238)" gradientUnits="userSpaceOnUse" id="radialGradient2561" r="1.8561553" xlink:href="#linearGradient2523"/><radialGradient cx="16.086679" cy="13.970486" fx="16.086679" fy="13.970486" gradientUnits="userSpaceOnUse" id="radialGradient2569" r="1.767767" xlink:href="#linearGradient2541"/><radialGradient cx="13.611806" cy="11.584001" fx="13.611806" fy="11.584001" gradientTransform="matrix(1.952381,0.000000,0.000000,1.952381,-12.96362,-11.03238)" gradientUnits="userSpaceOnUse" id="radialGradient2571" r="1.8561553" xlink:href="#linearGradient2523"/><radialGradient cx="16.086679" cy="13.970486" fx="16.086679" fy="13.970486" gradientUnits="userSpaceOnUse" id="radialGradient2582" r="1.767767" xlink:href="#linearGradient2541"/><radialGradient cx="13.611806" cy="11.584001" fx="13.611806" fy="11.584001" gradientTransform="matrix(1.952381,0.000000,0.000000,1.952381,-12.96362,-11.03238)" gradientUnits="userSpaceOnUse" id="radialGradient2584" r="1.8561553" xlink:href="#linearGradient2523"/></defs><g id="layer1"><path d="M 41.10058 35.051105 A 16.882174 4.552 0 1 1  7.3362331,35.051105 A 16.882174 4.552 0 1 1  41.10058 35.051105 z" id="path2452" style="opacity:0.50857143;color:#000000;fill:url(#radialGradient2460);fill-opacity:1;fill-rule:evenodd;stroke:none;stroke-width:1;stroke-linecap:round;stroke-linejoin:miter;marker:none;marker-start:none;marker-mid:none;marker-end:none;stroke-miterlimit:4;stroke-dashoffset:0;stroke-opacity:0.70063692;visibility:visible;display:inline;overflow:visible" transform="matrix(1.050251,0.000000,0.000000,1.867888,-0.945558,-28.10611)"/><path d="M -26.263968 29.716238 A 9.3944187 3.939595 0 1 1  -45.052805,29.716238 A 9.3944187 3.939595 0 1 1  -26.263968 29.716238 z" id="path2407" style="color:#000000;fill:#adb0aa;fill-opacity:1;fill-rule:evenodd;stroke:#4b4d4a;stroke-width:1;stroke-linecap:butt;stroke-linejoin:miter;marker:none;marker-start:none;marker-mid:none;marker-end:none;stroke-miterlimit:4;stroke-dashoffset:0;stroke-opacity:1;visibility:visible;display:inline;overflow:visible" transform="translate(60.03339,8.078430)"/><path d="M -26.263968 29.716238 A 9.3944187 3.939595 0 1 1  -45.052805,29.716238 A 9.3944187 3.939595 0 1 1  -26.263968 29.716238 z" id="path1825" style="color:#000000;fill:none;fill-opacity:1;fill-rule:evenodd;stroke:url(#linearGradient2327);stroke-width:1.15713382;stroke-linecap:butt;stroke-linejoin:miter;marker:none;marker-start:none;marker-mid:none;marker-end:none;stroke-miterlimit:4;stroke-dasharray:none;stroke-dashoffset:0;stroke-opacity:1;visibility:visible;display:inline;overflow:visible" transform="matrix(0.902373,0.000000,0.000000,0.827650,56.55215,12.86792)"/><path d="M -26.263968 29.716238 A 9.3944187 3.939595 0 1 1  -45.052805,29.716238 A 9.3944187 3.939595 0 1 1  -26.263968 29.716238 z" id="path2983" style="color:#000000;fill:none;fill-opacity:1;fill-rule:evenodd;stroke:url(#linearGradient2337);stroke-width:1.18333709;stroke-linecap:butt;stroke-linejoin:miter;marker:none;marker-start:none;marker-mid:none;marker-end:none;stroke-miterlimit:4;stroke-dasharray:none;stroke-dashoffset:0;stroke-opacity:1;visibility:visible;display:inline;overflow:visible" transform="matrix(0.837548,0.000000,0.000000,0.852655,54.17811,11.00615)"/><rect height="6.3650389" id="rect2699" style="color:#000000;fill:url(#linearGradient2707);fill-opacity:1;fill-rule:evenodd;stroke:none;stroke-width:0.60872948;stroke-linecap:butt;stroke-linejoin:miter;marker:none;marker-start:none;marker-mid:none;marker-end:none;stroke-miterlimit:4;stroke-dashoffset:0;stroke-opacity:1;visibility:visible;display:inline;overflow:visible" width="9.0396729" x="19.972397" y="31.078613"/><path d="M 7.5809023,4.5706221 L 41.169097,4.5706221 C 42.080439,4.5706221 42.793244,5.1541039 42.835849,5.9722091 L 44.167893,31.550323 C 44.226102,32.668058 43.266837,33.570628 42.147588,33.570628 L 6.602412,33.570628 C 5.4831629,33.570628 4.523898,32.668058 4.5821068,31.550323 L 5.9141506,5.9722091 C 5.9544343,5.1986745 6.4616533,4.5706221 7.5809023,4.5706221 z " id="rect2404" style="color:#000000;fill:url(#linearGradient2251);fill-opacity:1;fill-rule:evenodd;stroke:url(#linearGradient1561);stroke-width:1;stroke-linecap:butt;stroke-linejoin:miter;marker:none;marker-start:none;marker-mid:none;marker-end:none;stroke-miterlimit:4;stroke-dashoffset:0;stroke-opacity:1;visibility:visible;display:inline;overflow:visible"/><path d="M 8.9105353,7.180827 L 7.6683393,29.226144 L 39.318729,29.226144 L 37.983712,7.274256 L 8.9105353,7.180827 z " id="path2377" style="fill:url(#linearGradient2681);fill-opacity:1;fill-rule:evenodd;stroke:#000079;stroke-width:0.5;stroke-linecap:butt;stroke-linejoin:round;stroke-miterlimit:4;stroke-dasharray:none;stroke-opacity:1"/><path d="M 6.6774331,31.610789 L 42.10591,31.610789" id="path2393" style="fill:none;fill-opacity:0.75;fill-rule:evenodd;stroke:url(#linearGradient2689);stroke-width:0.99618119;stroke-linecap:round;stroke-linejoin:miter;stroke-miterlimit:4;stroke-opacity:0.24840764"/><path d="M 7.4145983,5.5813396 L 41.260101,5.5435383 C 41.543798,5.5432214 41.819403,5.7807881 41.842206,6.196082 L 43.204098,30.99933 C 43.262137,32.056361 42.664349,32.785201 41.605727,32.785201 L 7.0817583,32.785201 C 6.0231355,32.785201 5.4887439,32.05641 5.5458869,30.99933 L 6.8699773,6.505163 C 6.9086732,5.7893326 7.0363626,5.581762 7.4145983,5.5813396 z " id="path2397" style="color:#000000;fill:none;fill-opacity:1;fill-rule:evenodd;stroke:url(#linearGradient2421);stroke-width:0.99999964;stroke-linecap:butt;stroke-linejoin:miter;marker:none;marker-start:none;marker-mid:none;marker-end:none;stroke-miterlimit:4;stroke-dashoffset:0;stroke-opacity:0.70063692;visibility:visible;display:inline;overflow:visible"/><path d="M 9.3883123,7.621363 L 8.5857833,25.491693 C 19.630421,23.091063 24.007246,14.999494 37.739815,12.344943 L 37.578343,7.687427 L 9.3883123,7.621363 z " id="path2443" style="opacity:0.53142856;fill:url(#linearGradient2315);fill-opacity:1;fill-rule:evenodd;stroke:none;stroke-width:0.25pt;stroke-linecap:butt;stroke-linejoin:miter;stroke-opacity:1"/><path d="M 35.620504 3.9384086 A 0.83968931 0.83968931 0 1 1  33.941126,3.9384086 A 0.83968931 0.83968931 0 1 1  35.620504 3.9384086 z" id="path2709" style="color:#000000;fill:url(#linearGradient2717);fill-opacity:1;fill-rule:evenodd;stroke:none;stroke-width:0.5;stroke-linecap:butt;stroke-linejoin:miter;marker:none;marker-start:none;marker-mid:none;marker-end:none;stroke-miterlimit:4;stroke-dashoffset:0;stroke-opacity:1;visibility:visible;display:inline;overflow:visible" transform="matrix(1.331237,0.000000,0.000000,0.658449,-5.919330,5.728866)"/><path d="M 35.620504 3.9384086 A 0.83968931 0.83968931 0 1 1  33.941126,3.9384086 A 0.83968931 0.83968931 0 1 1  35.620504 3.9384086 z" id="path2719" style="color:#000000;fill:url(#linearGradient2721);fill-opacity:1;fill-rule:evenodd;stroke:none;stroke-width:0.5;stroke-linecap:butt;stroke-linejoin:miter;marker:none;marker-start:none;marker-mid:none;marker-end:none;stroke-miterlimit:4;stroke-dashoffset:0;stroke-opacity:1;visibility:visible;display:inline;overflow:visible" transform="matrix(1.331237,0.000000,0.000000,0.658449,-5.805730,7.834650)"/><path d="M 35.620504 3.9384086 A 0.83968931 0.83968931 0 1 1  33.941126,3.9384086 A 0.83968931 0.83968931 0 1 1  35.620504 3.9384086 z" id="path2723" style="color:#000000;fill:url(#linearGradient2725);fill-opacity:1;fill-rule:evenodd;stroke:none;stroke-width:0.5;stroke-linecap:butt;stroke-linejoin:miter;marker:none;marker-start:none;marker-mid:none;marker-end:none;stroke-miterlimit:4;stroke-dashoffset:0;stroke-opacity:1;visibility:visible;display:inline;overflow:visible" transform="matrix(1.331237,0.000000,0.000000,0.658449,-5.692130,9.834650)"/><path d="M 35.620504 3.9384086 A 0.83968931 0.83968931 0 1 1  33.941126,3.9384086 A 0.83968931 0.83968931 0 1 1  35.620504 3.9384086 z" id="path2727" style="color:#000000;fill:url(#linearGradient2729);fill-opacity:1;fill-rule:evenodd;stroke:none;stroke-width:0.5;stroke-linecap:butt;stroke-linejoin:miter;marker:none;marker-start:none;marker-mid:none;marker-end:none;stroke-miterlimit:4;stroke-dashoffset:0;stroke-opacity:1;visibility:visible;display:inline;overflow:visible" transform="matrix(1.331237,0.000000,0.000000,0.658449,-5.578530,11.83465)"/><path d="M 35.620504 3.9384086 A 0.83968931 0.83968931 0 1 1  33.941126,3.9384086 A 0.83968931 0.83968931 0 1 1  35.620504 3.9384086 z" id="path2731" style="color:#000000;fill:url(#linearGradient2733);fill-opacity:1;fill-rule:evenodd;stroke:none;stroke-width:0.5;stroke-linecap:butt;stroke-linejoin:miter;marker:none;marker-start:none;marker-mid:none;marker-end:none;stroke-miterlimit:4;stroke-dashoffset:0;stroke-opacity:1;visibility:visible;display:inline;overflow:visible" transform="matrix(1.331237,0.000000,0.000000,0.658449,-5.464930,13.83465)"/><path d="M 22.5,30.192666 L 22.781716,30.192666 C 22.865481,30.192667 22.929701,30.21133 22.974376,30.248656 C 23.019345,30.28569 23.041829,30.338594 23.04183,30.40737 C 23.041829,30.47644 23.019345,30.529638 22.974376,30.566965 C 22.929701,30.603998 22.865481,30.622515 22.781716,30.622515 L 22.669735,30.622515 L 22.669735,30.850885 L 22.5,30.850885 L 22.5,30.192666 M 22.669735,30.315669 L 22.669735,30.499512 L 22.76364,30.499512 C 22.796558,30.499512 22.821982,30.491576 22.839911,30.475705 C 22.857839,30.45954 22.866804,30.436762 22.866804,30.40737 C 22.866804,30.377979 22.857839,30.355348 22.839911,30.339476 C 22.821982,30.323605 22.796558,30.315669 22.76364,30.315669 L 22.669735,30.315669 M 23.461979,30.303765 C 23.41025,30.303766 23.370131,30.32287 23.341621,30.361078 C 23.313112,30.399288 23.298857,30.453074 23.298857,30.522437 C 23.298857,30.591507 23.313112,30.645146 23.341621,30.683355 C 23.370131,30.721564 23.41025,30.740668 23.461979,30.740668 C 23.514001,30.740668 23.554267,30.721564 23.582778,30.683355 C 23.611287,30.645146 23.625541,30.591507 23.625542,30.522437 C 23.625541,30.453074 23.611287,30.399288 23.582778,30.361078 C 23.554267,30.32287 23.514001,30.303766 23.461979,30.303765 M 23.461979,30.180762 C 23.567787,30.180763 23.650671,30.211036 23.71063,30.271582 C 23.770588,30.332128 23.800567,30.415747 23.800568,30.522437 C 23.800567,30.628834 23.770588,30.712305 23.71063,30.772851 C 23.650671,30.833398 23.567787,30.863671 23.461979,30.863671 C 23.356464,30.863671 23.27358,30.833398 23.213328,30.772851 C 23.15337,30.712305 23.123391,30.628834 23.123391,30.522437 C 23.123391,30.415747 23.15337,30.332128 23.213328,30.271582 C 23.27358,30.211036 23.356464,30.180763 23.461979,30.180762 M 23.92842,30.192666 L 24.117994,30.192666 L 24.357387,30.644117 L 24.357387,30.192666 L 24.518305,30.192666 L 24.518305,30.850885 L 24.32873,30.850885 L 24.089338,30.399434 L 24.089338,30.850885 L 23.92842,30.850885 L 23.92842,30.192666 M 24.591489,30.192666 L 24.777095,30.192666 L 24.926991,30.427209 L 25.076887,30.192666 L 25.262935,30.192666 L 25.012079,30.573578 L 25.012079,30.850885 L 24.842344,30.850885 L 24.842344,30.573578 L 24.591489,30.192666" id="text2735" style="font-size:0.9029026px;font-style:normal;font-variant:normal;font-weight:bold;font-stretch:normal;writing-mode:lr-tb;text-anchor:start;fill:#4a4a4a;fill-opacity:1;stroke:none;stroke-width:1pt;stroke-linecap:butt;stroke-linejoin:miter;stroke-opacity:1;font-family:Bitstream Vera Sans"/><path d="M 32.803119,13.315819 C 34.472569,20.995363 29.513748,25.454549 21.355699,20.989296 C 21.982795,23.339367 23.622336,25.369877 26.108052,26.170364 C 29.996363,27.422537 34.167356,25.283572 35.419529,21.395262 C 36.407272,18.32807 35.229873,15.16364 32.803119,13.315819 z " id="path2317" style="opacity:1;color:#000000;fill:#fce94f;fill-opacity:1;fill-rule:nonzero;stroke:#edd400;stroke-width:0.99999958;stroke-linecap:butt;stroke-linejoin:miter;marker:none;marker-start:none;marker-mid:none;marker-end:none;stroke-miterlimit:4;stroke-dasharray:none;stroke-dashoffset:0;stroke-opacity:1;visibility:visible;display:inline;overflow:visible"/><g id="g2549"><path d="M 17.854446 13.970486 A 1.767767 1.767767 0 1 1  14.318913,13.970486 A 1.767767 1.767767 0 1 1  17.854446 13.970486 z" id="path2531" style="opacity:1;color:#000000;fill:url(#radialGradient2547);fill-opacity:1;fill-rule:nonzero;stroke:none;stroke-width:2;stroke-linecap:butt;stroke-linejoin:miter;marker:none;marker-start:none;marker-mid:none;marker-end:none;stroke-miterlimit:4;stroke-dasharray:none;stroke-dashoffset:0;stroke-opacity:1;visibility:visible;display:inline;overflow:visible" transform="translate(-2.474874,-2.386485)"/><path d="M 16.970563,11.584001 L 13.930592,11.85101 L 13.611806,14.942758 L 13.344797,11.902786 L 10.253049,11.584001 L 13.29302,11.316992 L 13.611806,8.2252433 L 13.878815,11.265215 L 16.970563,11.584001 z " id="path3195" style="opacity:1;color:#000000;fill:url(#radialGradient2529);fill-opacity:1;fill-rule:nonzero;stroke:none;stroke-width:1;stroke-linecap:butt;stroke-linejoin:miter;marker:none;marker-start:none;marker-mid:none;marker-end:none;stroke-miterlimit:4;stroke-dasharray:none;stroke-dashoffset:0;stroke-opacity:1;visibility:visible;display:inline;overflow:visible"/></g><g id="g2553" transform="matrix(0.631579,0.000000,0.000000,0.631579,12.96983,3.737460)"><path d="M 17.854446 13.970486 A 1.767767 1.767767 0 1 1  14.318913,13.970486 A 1.767767 1.767767 0 1 1  17.854446 13.970486 z" id="path2555" style="opacity:1;color:#000000;fill:url(#radialGradient2559);fill-opacity:1;fill-rule:nonzero;stroke:none;stroke-width:2;stroke-linecap:butt;stroke-linejoin:miter;marker:none;marker-start:none;marker-mid:none;marker-end:none;stroke-miterlimit:4;stroke-dasharray:none;stroke-dashoffset:0;stroke-opacity:1;visibility:visible;display:inline;overflow:visible" transform="translate(-2.474874,-2.386485)"/><path d="M 16.970563,11.584001 L 13.930592,11.85101 L 13.611806,14.942758 L 13.344797,11.902786 L 10.253049,11.584001 L 13.29302,11.316992 L 13.611806,8.2252433 L 13.878815,11.265215 L 16.970563,11.584001 z " id="path2557" style="opacity:1;color:#000000;fill:url(#radialGradient2561);fill-opacity:1;fill-rule:nonzero;stroke:none;stroke-width:1;stroke-linecap:butt;stroke-linejoin:miter;marker:none;marker-start:none;marker-mid:none;marker-end:none;stroke-miterlimit:4;stroke-dasharray:none;stroke-dashoffset:0;stroke-opacity:1;visibility:visible;display:inline;overflow:visible"/></g><g id="g2563" transform="matrix(0.631579,0.000000,0.000000,0.631579,9.611074,9.836256)"><path d="M 17.854446 13.970486 A 1.767767 1.767767 0 1 1  14.318913,13.970486 A 1.767767 1.767767 0 1 1  17.854446 13.970486 z" id="path2565" style="opacity:1;color:#000000;fill:url(#radialGradient2569);fill-opacity:1;fill-rule:nonzero;stroke:none;stroke-width:2;stroke-linecap:butt;stroke-linejoin:miter;marker:none;marker-start:none;marker-mid:none;marker-end:none;stroke-miterlimit:4;stroke-dasharray:none;stroke-dashoffset:0;stroke-opacity:1;visibility:visible;display:inline;overflow:visible" transform="translate(-2.474874,-2.386485)"/><path d="M 16.970563,11.584001 L 13.930592,11.85101 L 13.611806,14.942758 L 13.344797,11.902786 L 10.253049,11.584001 L 13.29302,11.316992 L 13.611806,8.2252433 L 13.878815,11.265215 L 16.970563,11.584001 z " id="path2567" style="opacity:1;color:#000000;fill:url(#radialGradient2571);fill-opacity:1;fill-rule:nonzero;stroke:none;stroke-width:1;stroke-linecap:butt;stroke-linejoin:miter;marker:none;marker-start:none;marker-mid:none;marker-end:none;stroke-miterlimit:4;stroke-dasharray:none;stroke-dashoffset:0;stroke-opacity:1;visibility:visible;display:inline;overflow:visible"/></g><g id="g2576" transform="matrix(0.631579,0.000000,0.000000,0.631579,4.484549,11.51563)"><path d="M 17.854446 13.970486 A 1.767767 1.767767 0 1 1  14.318913,13.970486 A 1.767767 1.767767 0 1 1  17.854446 13.970486 z" id="path2578" style="opacity:1;color:#000000;fill:url(#radialGradient2582);fill-opacity:1;fill-rule:nonzero;stroke:none;stroke-width:2;stroke-linecap:butt;stroke-linejoin:miter;marker:none;marker-start:none;marker-mid:none;marker-end:none;stroke-miterlimit:4;stroke-dasharray:none;stroke-dashoffset:0;stroke-opacity:1;visibility:visible;display:inline;overflow:visible" transform="translate(-2.474874,-2.386485)"/><path d="M 16.970563,11.584001 L 13.930592,11.85101 L 13.611806,14.942758 L 13.344797,11.902786 L 10.253049,11.584001 L 13.29302,11.316992 L 13.611806,8.2252433 L 13.878815,11.265215 L 16.970563,11.584001 z " id="path2580" style="opacity:1;color:#000000;fill:url(#radialGradient2584);fill-opacity:1;fill-rule:nonzero;stroke:none;stroke-width:1;stroke-linecap:butt;stroke-linejoin:miter;marker:none;marker-start:none;marker-mid:none;marker-end:none;stroke-miterlimit:4;stroke-dasharray:none;stroke-dashoffset:0;stroke-opacity:1;visibility:visible;display:inline;overflow:visible"/></g></g></svg>