<?xml version="1.0" ?><svg height="48px" id="svg4376" width="48px" xmlns="http://www.w3.org/2000/svg" xmlns:cc="http://creativecommons.org/ns#" xmlns:dc="http://purl.org/dc/elements/1.1/" xmlns:inkscape="http://www.inkscape.org/namespaces/inkscape" xmlns:rdf="http://www.w3.org/1999/02/22-rdf-syntax-ns#" xmlns:sodipodi="http://sodipodi.sourceforge.net/DTD/sodipodi-0.dtd" xmlns:svg="http://www.w3.org/2000/svg" xmlns:xlink="http://www.w3.org/1999/xlink"><defs id="defs3"><linearGradient id="linearGradient5125"><stop id="stop5127" offset="0" style="stop-color:#729fcf;stop-opacity:1;"/><stop id="stop5129" offset="1" style="stop-color:#729fcf;stop-opacity:0;"/></linearGradient><linearGradient id="linearGradient3290"><stop id="stop3292" offset="0.0000000" style="stop-color:#fffcde;stop-opacity:1.0000000;"/><stop id="stop3294" offset="0.64485979" style="stop-color:#f6e76a;stop-opacity:1.0000000;"/><stop id="stop3296" offset="1.0000000" style="stop-color:#ffb738;stop-opacity:1.0000000;"/></linearGradient><linearGradient id="linearGradient2729"><stop id="stop2731" offset="0" style="stop-color:#d6e0f8;stop-opacity:1;"/><stop id="stop2733" offset="1" style="stop-color:#d6e0f8;stop-opacity:0;"/></linearGradient><radialGradient cx="25.0527" cy="39.5928" fx="25.0527" fy="39.5928" gradientTransform="matrix(1.250000,0.000000,0.000000,-1.250000,-6.479446,73.66448)" gradientUnits="userSpaceOnUse" id="aigrd2" r="15.7572"><stop id="stop8602" offset="0.0000000" style="stop-color:#777777;stop-opacity:1.0000000;"/><stop id="stop8604" offset="1" style="stop-color:#000000"/></radialGradient><linearGradient id="linearGradient4565"><stop id="stop4567" offset="0" style="stop-color:#000000;stop-opacity:1;"/><stop id="stop4569" offset="1" style="stop-color:#000000;stop-opacity:0;"/></linearGradient><radialGradient cx="24.714285" cy="38.571430" fx="24.714285" fy="38.571430" gradientTransform="matrix(1.000000,0.000000,0.000000,0.333333,0.000000,25.71429)" gradientUnits="userSpaceOnUse" id="radialGradient1375" r="19.714285" xlink:href="#linearGradient4565"/><radialGradient cx="29.288071" cy="15.720984" fx="29.158466" fy="15.755712" gradientUnits="userSpaceOnUse" id="radialGradient1377" r="8.9020796" xlink:href="#linearGradient3290"/><radialGradient cx="25.0527" cy="39.5928" fx="25.0527" fy="39.5928" gradientTransform="matrix(1.250000,0.000000,0.000000,-1.250000,-6.479446,73.66448)" gradientUnits="userSpaceOnUse" id="radialGradient1379" r="15.7572" xlink:href="#aigrd2"/><linearGradient gradientTransform="translate(-6.010408,0.176777)" gradientUnits="userSpaceOnUse" id="linearGradient1391" x1="36.592773" x2="35.032169" xlink:href="#linearGradient2729" y1="18.228588" y2="13.809171"/><linearGradient gradientUnits="userSpaceOnUse" id="linearGradient1394" x1="29.807129" x2="29.807129" xlink:href="#linearGradient5125" y1="13.022821" y2="8.1614628"/><radialGradient cx="13.664760" cy="20.541668" fx="13.664760" fy="20.541668" gradientTransform="matrix(1.369875,2.306855e-15,-4.790962e-15,2.845006,-5.054248,-35.24141)" gradientUnits="userSpaceOnUse" id="radialGradient1398" r="4.3085900" xlink:href="#linearGradient2729"/><linearGradient gradientUnits="userSpaceOnUse" id="linearGradient1401" x1="17.616745" x2="16.829033" xlink:href="#linearGradient5125" y1="14.613358" y2="9.0223665"/></defs><g id="layer1"><path d="M 44.428570 38.571430 A 19.714285 6.5714288 0 1 1  5.0000000,38.571430 A 19.714285 6.5714288 0 1 1  44.428570 38.571430 z" id="path4563" style="opacity:0.53164560;color:#000000;fill:url(#radialGradient1375);fill-opacity:1.0000000;fill-rule:evenodd;stroke:none;stroke-width:0.40487173;stroke-linecap:round;stroke-linejoin:round;marker:none;marker-start:none;marker-mid:none;marker-end:none;stroke-miterlimit:4.0000000;stroke-dasharray:none;stroke-dashoffset:0.0000000;stroke-opacity:1.0000000;visibility:visible;display:inline;overflow:visible"/><path d="M 39.774755 19.008621 A 8.6620579 8.6620579 0 1 1  22.450640,19.008621 A 8.6620579 8.6620579 0 1 1  39.774755 19.008621 z" id="path4320" style="opacity:1.0000000;color:#000000;fill:url(#radialGradient1377);fill-opacity:1.0000000;fill-rule:evenodd;stroke:#9c8c0a;stroke-width:0.48004404;stroke-linecap:round;stroke-linejoin:round;marker:none;marker-start:none;marker-mid:none;marker-end:none;stroke-miterlimit:4.0000000;stroke-dasharray:none;stroke-dashoffset:0.0000000;stroke-opacity:1.0000000;visibility:visible;display:inline;overflow:visible" transform="matrix(2.083142,0.000000,0.000000,2.083142,-40.59375,-16.52317)"/><path d="M 39.774755 19.008621 A 8.6620579 8.6620579 0 1 1  22.450640,19.008621 A 8.6620579 8.6620579 0 1 1  39.774755 19.008621 z" id="path4322" style="opacity:0.67721522;color:#000000;fill:none;fill-opacity:1.0000000;fill-rule:evenodd;stroke:#ffffff;stroke-width:0.50510627;stroke-linecap:round;stroke-linejoin:round;marker:none;marker-start:none;marker-mid:none;marker-end:none;stroke-miterlimit:4.0000000;stroke-dasharray:none;stroke-dashoffset:0.0000000;stroke-opacity:1.0000000;visibility:visible;display:inline;overflow:visible" transform="matrix(1.979782,0.000000,0.000000,1.979782,-37.33128,-14.52746)"/><g id="g2300" transform="matrix(0.663775,0.000000,0.000000,0.663775,8.254630,14.97512)"><path d="M 34.014268,32.036842 C 30.290694,27.872830 28.451859,26.405561 24.462492,26.405561 C 20.561313,26.405561 17.962820,28.093607 15.087492,32.390396 C 18.520789,30.041583 20.397124,28.740900 24.197327,28.740900 C 27.909166,28.740900 29.948404,29.791599 34.014268,32.036842 z " id="path1387" style="opacity:0.35999998;color:#000000;fill:#ffffff;fill-opacity:1.0000000;fill-rule:nonzero;stroke:none;stroke-width:1.0000000;stroke-linecap:butt;stroke-linejoin:miter;marker:none;marker-start:none;marker-mid:none;marker-end:none;stroke-miterlimit:4.0000000;stroke-dasharray:none;stroke-dashoffset:0.0000000;stroke-opacity:1.0000000;visibility:visible;display:inline;overflow:visible"/><path d="M 34.014268,31.329738 C 30.290694,27.165726 28.451859,25.698457 24.462492,25.698457 C 20.561313,25.698457 17.962820,27.386503 15.087492,31.683292 C 18.520789,29.334479 20.397124,28.033796 24.197327,28.033796 C 27.909166,28.033796 29.948404,29.084495 34.014268,31.329738 z " id="path8606" style="fill:url(#radialGradient1379);fill-rule:nonzero;stroke:none;stroke-miterlimit:4.0000000"/></g><path d="M 21.000000,8.8749999 L 14.875000,13.625000 L 15.250000,10.375000 L 21.000000,8.8749999 z " id="path2296" style="opacity:0.43670884;color:#000000;fill:#000000;fill-opacity:1.0000000;fill-rule:nonzero;stroke:none;stroke-width:1.0000000;stroke-linecap:butt;stroke-linejoin:miter;marker:none;marker-start:none;marker-mid:none;marker-end:none;stroke-miterlimit:4.0000000;stroke-dasharray:none;stroke-dashoffset:0.0000000;stroke-opacity:1.0000000;visibility:visible;display:inline;overflow:visible"/><path d="M 26.375000,8.8749999 L 32.500000,13.625000 L 32.125000,10.375000 L 26.375000,8.8749999 z " id="path2298" style="opacity:0.43670884;color:#000000;fill:#000000;fill-opacity:1.0000000;fill-rule:nonzero;stroke:none;stroke-width:1.0000000;stroke-linecap:butt;stroke-linejoin:miter;marker:none;marker-start:none;marker-mid:none;marker-end:none;stroke-miterlimit:4.0000000;stroke-dasharray:none;stroke-dashoffset:0.0000000;stroke-opacity:1.0000000;visibility:visible;display:inline;overflow:visible"/><path d="M 20.806508,9.0223664 C 20.806508,9.0223664 19.555063,13.829673 19.083077,15.591149 C 18.646644,17.219940 17.218913,20.038229 18.008159,23.224582 C 18.997766,27.219831 17.198733,28.599337 15.251807,28.684789 C 13.457005,28.763565 11.351172,27.899994 11.431808,24.721607 C 11.547252,20.259605 16.459844,20.287573 18.212021,15.896009 C 19.872584,11.734062 14.971795,13.412606 14.971795,13.412606 C 14.971795,13.412606 20.806508,9.0223664 20.806508,9.0223664 z " id="path2314" style="opacity:1.0000000;color:#000000;fill:url(#linearGradient1401);fill-opacity:1.0000000;fill-rule:nonzero;stroke:none;stroke-width:1.0000000;stroke-linecap:butt;stroke-linejoin:miter;marker:none;marker-start:none;marker-mid:none;marker-end:none;stroke-miterlimit:4.0000000;stroke-dasharray:none;stroke-dashoffset:0.0000000;stroke-opacity:1.0000000;visibility:visible;display:inline;overflow:visible"/><path d="M 20.625000,9.1249999 C 20.625000,9.1249999 19.433058,13.630362 18.558058,16.536612 C 17.683058,19.442862 16.396267,20.013161 17.256281,23.358534 C 17.702556,25.094498 16.698856,27.000000 15.125000,27.000000 C 13.492505,27.000000 12.113408,26.032093 12.213388,23.926777 C 12.399719,20.003143 15.911602,20.579760 17.562500,17.031250 C 20.222272,11.301015 15.090386,13.431981 15.090386,13.431981 L 20.625000,9.1249999 z " id="path2310" style="opacity:1.0000000;color:#000000;fill:url(#radialGradient1398);fill-opacity:1.0000000;fill-rule:nonzero;stroke:none;stroke-width:1.0000000;stroke-linecap:butt;stroke-linejoin:miter;marker:none;marker-start:none;marker-mid:none;marker-end:none;stroke-miterlimit:4.0000000;stroke-dasharray:none;stroke-dashoffset:0.0000000;stroke-opacity:1.0000000;visibility:visible;display:inline;overflow:visible"/><path d="M 15.625000 24.437500 A 1.1875000 1.1875000 0 1 1  13.250000,24.437500 A 1.1875000 1.1875000 0 1 1  15.625000 24.437500 z" id="path2312" style="opacity:1.0000000;color:#000000;fill:#ffffff;fill-opacity:1.0000000;fill-rule:nonzero;stroke:none;stroke-width:1.0000000;stroke-linecap:butt;stroke-linejoin:miter;marker:none;marker-start:none;marker-mid:none;marker-end:none;stroke-miterlimit:4.0000000;stroke-dasharray:none;stroke-dashoffset:0.0000000;stroke-opacity:1.0000000;visibility:visible;display:inline;overflow:visible" transform="translate(-0.500000,-0.625000)"/><path d="M 26.507547,8.9188131 C 26.507547,8.9188131 28.172228,16.560698 28.565519,18.415939 C 29.046534,20.684992 33.175015,22.173621 33.105853,19.838569 C 33.011593,16.656119 30.190183,16.806635 29.906762,16.096933 C 28.688962,13.047804 32.599050,13.611854 32.599050,13.611854 C 32.599050,13.611854 26.507547,8.9188131 26.507547,8.9188131 z " id="path2739" style="opacity:1.0000000;color:#000000;fill:url(#linearGradient1394);fill-opacity:1.0000000;fill-rule:nonzero;stroke:none;stroke-width:1.0000000;stroke-linecap:butt;stroke-linejoin:miter;marker:none;marker-start:none;marker-mid:none;marker-end:none;stroke-miterlimit:4.0000000;stroke-dasharray:none;stroke-dashoffset:0.0000000;stroke-opacity:1.0000000;visibility:visible;display:inline;overflow:visible"/><path d="M 27.577164,12.114331 C 27.577164,12.114331 28.598544,16.869773 28.991377,17.992156 C 29.300736,18.876040 29.730588,19.647960 31.068504,19.538952 C 32.186786,19.447838 32.015107,17.859026 30.582368,17.064079 C 28.214634,15.750355 27.577164,12.202720 27.577164,12.114331 z " id="path2743" style="opacity:1.0000000;color:#000000;fill:url(#linearGradient1391);fill-opacity:1.0000000;fill-rule:nonzero;stroke:none;stroke-width:1.0000000;stroke-linecap:butt;stroke-linejoin:miter;marker:none;marker-start:none;marker-mid:none;marker-end:none;stroke-miterlimit:4.0000000;stroke-dasharray:none;stroke-dashoffset:0.0000000;stroke-opacity:1.0000000;visibility:visible;display:inline;overflow:visible"/><path d="M 15.625000 24.437500 A 1.1875000 1.1875000 0 1 1  13.250000,24.437500 A 1.1875000 1.1875000 0 1 1  15.625000 24.437500 z" id="path2741" style="opacity:1.0000000;color:#000000;fill:#ffffff;fill-opacity:1.0000000;fill-rule:nonzero;stroke:none;stroke-width:1.0000000;stroke-linecap:butt;stroke-linejoin:miter;marker:none;marker-start:none;marker-mid:none;marker-end:none;stroke-miterlimit:4.0000000;stroke-dasharray:none;stroke-dashoffset:0.0000000;stroke-opacity:1.0000000;visibility:visible;display:inline;overflow:visible" transform="matrix(0.553405,0.000000,0.000000,0.553405,22.82988,4.234059)"/></g></svg>