<?xml version="1.0" ?><svg height="48.000000px" id="svg7032" width="48.000000px" xmlns="http://www.w3.org/2000/svg" xmlns:cc="http://creativecommons.org/ns#" xmlns:dc="http://purl.org/dc/elements/1.1/" xmlns:inkscape="http://www.inkscape.org/namespaces/inkscape" xmlns:rdf="http://www.w3.org/1999/02/22-rdf-syntax-ns#" xmlns:sodipodi="http://sodipodi.sourceforge.net/DTD/sodipodi-0.dtd" xmlns:svg="http://www.w3.org/2000/svg" xmlns:xlink="http://www.w3.org/1999/xlink"><defs id="defs3"><linearGradient id="linearGradient2072"><stop id="stop2074" offset="0" style="stop-color:#000000;stop-opacity:1;"/><stop id="stop2076" offset="1" style="stop-color:#000000;stop-opacity:0;"/></linearGradient><linearGradient id="linearGradient2315"><stop id="stop2317" offset="0" style="stop-color:#ffffff;stop-opacity:1;"/><stop id="stop2319" offset="1" style="stop-color:#ffffff;stop-opacity:0;"/></linearGradient><radialGradient cx="4.3920336" cy="32.307854" fx="4.3920336" fy="32.307854" gradientTransform="matrix(1.000000,-2.843321e-17,5.340760e-18,0.509804,5.770894e-16,16.05392)" gradientUnits="userSpaceOnUse" id="radialGradient1358" r="6.3750000" xlink:href="#linearGradient2315"/><radialGradient cx="4.3920336" cy="32.307854" fx="4.3920336" fy="32.307854" gradientTransform="matrix(1.000000,-1.083254e-16,1.454372e-17,0.509804,1.185203e-14,16.05392)" gradientUnits="userSpaceOnUse" id="radialGradient1360" r="6.3750000" xlink:href="#linearGradient2315"/><radialGradient cx="23.250000" cy="35.375000" fx="23.250000" fy="35.375000" gradientTransform="matrix(1.000000,0.000000,0.000000,0.398649,0.000000,21.27280)" gradientUnits="userSpaceOnUse" id="radialGradient2078" r="18.500000" xlink:href="#linearGradient2072"/></defs><g id="layer1"><path d="M 41.750000 35.375000 A 18.500000 7.3750000 0 1 1  4.7500000,35.375000 A 18.500000 7.3750000 0 1 1  41.750000 35.375000 z" id="path1344" style="opacity:0.30000000;color:#000000;fill:url(#radialGradient2078);fill-opacity:1.0000000;fill-rule:evenodd;stroke:none;stroke-width:2.0000000;stroke-linecap:round;stroke-linejoin:round;marker:none;marker-start:none;marker-mid:none;marker-end:none;stroke-miterlimit:4.0000000;stroke-dasharray:none;stroke-dashoffset:0.0000000;stroke-opacity:1.0000000;visibility:visible;display:inline;overflow:visible" transform="translate(0.000000,2.834646)"/><path d="M 41.625000,7.7951523 C 41.625000,7.7951523 18.562500,10.629798 18.562500,10.629798 L 18.562500,32.411048 C 16.916545,31.853397 14.630715,31.707619 12.125000,32.223548 C 7.7686860,33.120517 4.6471398,35.523035 5.1250000,37.567298 C 5.6028601,39.611561 9.5186850,40.558018 13.875000,39.661048 C 17.991641,38.813428 21.559123,36.623246 21.477633,34.661048 L 21.633883,15.629798 C 21.633883,15.629798 38.564340,12.734492 38.564340,12.734492 L 38.564340,30.019106 C 28.314340,28.519106 25.272139,32.912342 25.750000,34.956606 C 26.227860,37.000869 30.143686,37.947325 34.500000,37.050356 C 38.365376,36.254471 41.132410,34.287145 41.406250,32.425356 L 41.625000,7.7951523 z " id="path7042" style="color:#000000;fill:#9db029;fill-opacity:1.0000000;fill-rule:nonzero;stroke:#596616;stroke-width:1.0000000;stroke-linecap:round;stroke-linejoin:round;marker:none;marker-start:none;marker-mid:none;marker-end:none;stroke-miterlimit:4.0000000;stroke-dashoffset:0.0000000;stroke-opacity:1.0000000;visibility:visible;display:block"/><path d="M 40.729036,8.8956383 C 40.729036,8.8956383 19.547267,11.730284 19.547267,11.730284 L 19.547267,33.568621 C 11.982012,31.663311 5.8141632,35.403030 6.2685944,37.347065 C 6.9730255,40.666100 20.646969,38.449299 20.569474,34.208305 L 20.718063,14.735139 C 20.718063,14.735139 39.568437,11.842807 39.568437,11.842807 L 39.568437,31.279973 C 32.002153,29.353326 26.302939,32.656357 26.757371,34.600393 C 27.336802,37.794428 39.135597,36.713755 40.521011,31.943247 L 40.729036,8.8956383 z " id="path2311" style="opacity:0.51176471;color:#000000;fill:none;fill-opacity:1.0000000;fill-rule:nonzero;stroke:#ffffff;stroke-width:1.0000000;stroke-linecap:butt;stroke-linejoin:miter;marker:none;marker-start:none;marker-mid:none;marker-end:none;stroke-miterlimit:4.0000000;stroke-dasharray:none;stroke-dashoffset:0.0000000;stroke-opacity:1.0000000;visibility:visible;display:block"/><path d="M 12.250000 32.750000 A 6.3750000 3.2500000 0 1 1  -0.50000000,32.750000 A 6.3750000 3.2500000 0 1 1  12.250000 32.750000 z" id="path2313" style="opacity:0.51176471;color:#000000;fill:url(#radialGradient1358);fill-opacity:1.0000000;fill-rule:nonzero;stroke:none;stroke-width:1.0000000;stroke-linecap:butt;stroke-linejoin:miter;marker:none;marker-start:none;marker-mid:none;marker-end:none;stroke-miterlimit:4.0000000;stroke-dasharray:none;stroke-dashoffset:0.0000000;stroke-opacity:1.0000000;visibility:visible;display:block;overflow:visible" transform="matrix(0.734516,-0.111645,0.111645,0.734516,3.903362,12.22551)"/><path d="M 12.250000 32.750000 A 6.3750000 3.2500000 0 1 1  -0.50000000,32.750000 A 6.3750000 3.2500000 0 1 1  12.250000 32.750000 z" id="path2323" style="opacity:0.51176471;color:#000000;fill:url(#radialGradient1360);fill-opacity:1.0000000;fill-rule:nonzero;stroke:none;stroke-width:1.0000000;stroke-linecap:butt;stroke-linejoin:miter;marker:none;marker-start:none;marker-mid:none;marker-end:none;stroke-miterlimit:4.0000000;stroke-dasharray:none;stroke-dashoffset:0.0000000;stroke-opacity:1.0000000;visibility:visible;display:block;overflow:visible" transform="matrix(0.734516,-0.111645,0.111645,0.734516,23.74587,9.390864)"/></g></svg>