<?xml version="1.0" ?><svg height="48px" id="svg4376" width="48px" xmlns="http://www.w3.org/2000/svg" xmlns:cc="http://creativecommons.org/ns#" xmlns:dc="http://purl.org/dc/elements/1.1/" xmlns:inkscape="http://www.inkscape.org/namespaces/inkscape" xmlns:rdf="http://www.w3.org/1999/02/22-rdf-syntax-ns#" xmlns:sodipodi="http://sodipodi.sourceforge.net/DTD/sodipodi-0.dtd" xmlns:svg="http://www.w3.org/2000/svg" xmlns:xlink="http://www.w3.org/1999/xlink"><defs id="defs3"><linearGradient id="linearGradient3290"><stop id="stop3292" offset="0.0000000" style="stop-color:#fffcde;stop-opacity:1.0000000;"/><stop id="stop3294" offset="0.64485979" style="stop-color:#f6e76a;stop-opacity:1.0000000;"/><stop id="stop3296" offset="1.0000000" style="stop-color:#ffb738;stop-opacity:1.0000000;"/></linearGradient><radialGradient cx="29.288071" cy="15.720984" fx="29.158466" fy="15.755712" gradientUnits="userSpaceOnUse" id="radialGradient2714" r="8.9020796" xlink:href="#linearGradient3290"/><linearGradient id="linearGradient2509"><stop id="stop2511" offset="0.0000000" style="stop-color:#fffbd5;stop-opacity:1.0000000;"/><stop id="stop2513" offset="1.0000000" style="stop-color:#edd400;stop-opacity:1.0000000;"/></linearGradient><radialGradient cx="25.0527" cy="39.5928" fx="25.0527" fy="39.5928" gradientTransform="matrix(1.250000,0.000000,0.000000,1.250000,-6.479446,-13.37211)" gradientUnits="userSpaceOnUse" id="aigrd2" r="15.7572"><stop id="stop8602" offset="0.0000000" style="stop-color:#777777;stop-opacity:1.0000000;"/><stop id="stop8604" offset="1" style="stop-color:#000000"/></radialGradient><linearGradient id="linearGradient4565"><stop id="stop4567" offset="0" style="stop-color:#000000;stop-opacity:1;"/><stop id="stop4569" offset="1" style="stop-color:#000000;stop-opacity:0;"/></linearGradient><linearGradient id="linearGradient3824"><stop id="stop3826" offset="0" style="stop-color:#ffffff;stop-opacity:1;"/><stop id="stop3828" offset="1.0000000" style="stop-color:#c9c9c9;stop-opacity:1.0000000;"/></linearGradient><linearGradient id="linearGradient3800"><stop id="stop3802" offset="0.0000000" style="stop-color:#ffeed6;stop-opacity:1.0000000;"/><stop id="stop8664" offset="0.50000000" style="stop-color:#e49c2f;stop-opacity:1.0000000;"/><stop id="stop3804" offset="1.0000000" style="stop-color:#ffc66c;stop-opacity:1.0000000;"/></linearGradient><radialGradient cx="24.714285" cy="38.571430" fx="24.714285" fy="38.571430" gradientTransform="matrix(1.000000,0.000000,0.000000,0.333333,0.000000,25.71429)" gradientUnits="userSpaceOnUse" id="radialGradient4571" r="19.714285" xlink:href="#linearGradient4565"/><radialGradient cx="25.0527" cy="39.5928" fx="25.0527" fy="39.5928" gradientTransform="matrix(1.250000,0.000000,0.000000,1.250000,-6.479446,-13.37211)" gradientUnits="userSpaceOnUse" id="radialGradient3279" r="15.7572" xlink:href="#aigrd2"/></defs><g id="layer1"><path d="M 44.428570 38.571430 A 19.714285 6.5714288 0 1 1  5.0000000,38.571430 A 19.714285 6.5714288 0 1 1  44.428570 38.571430 z" id="path4563" style="opacity:0.53164557;color:#000000;fill:url(#radialGradient4571);fill-opacity:1.0;fill-rule:evenodd;stroke:none;stroke-width:0.40487173;stroke-linecap:round;stroke-linejoin:round;marker:none;marker-start:none;marker-mid:none;marker-end:none;stroke-miterlimit:4.0000000;stroke-dasharray:none;stroke-dashoffset:0.0000000;stroke-opacity:1.0000000;visibility:visible;display:inline;overflow:visible"/><path d="M 39.774755 19.008621 A 8.6620579 8.6620579 0 1 1  22.450640,19.008621 A 8.6620579 8.6620579 0 1 1  39.774755 19.008621 z" id="path4320" style="overflow:visible;display:inline;visibility:visible;stroke-opacity:1.0000000;stroke-dashoffset:0.0000000;stroke-dasharray:none;stroke-miterlimit:4.0000000;marker-end:none;marker-mid:none;marker-start:none;marker:none;stroke-linejoin:round;stroke-linecap:round;stroke-width:0.48004404;stroke:#9c8c0a;fill-rule:evenodd;fill-opacity:1.0000000;fill:url(#radialGradient2714);color:#000000;opacity:1.0000000" transform="matrix(2.083142,0.000000,0.000000,2.083142,-40.54715,-16.49224)"/><path d="M 39.774755 19.008621 A 8.6620579 8.6620579 0 1 1  22.450640,19.008621 A 8.6620579 8.6620579 0 1 1  39.774755 19.008621 z" id="path4322" style="opacity:0.67721519;color:#000000;fill:none;fill-opacity:1.0000000;fill-rule:evenodd;stroke:#ffffff;stroke-width:0.50510627;stroke-linecap:round;stroke-linejoin:round;marker:none;marker-start:none;marker-mid:none;marker-end:none;stroke-miterlimit:4.0000000;stroke-dasharray:none;stroke-dashoffset:0.0000000;stroke-opacity:1.0000000;visibility:visible;display:inline;overflow:visible" transform="matrix(1.979782,0.000000,0.000000,1.979782,-37.33128,-14.52746)"/><g id="g3267" transform="matrix(0.969372,0.245598,-0.245598,0.969372,6.456937,-5.230004)"><path d="M 37.284637,24.719966 C 34.268170,29.944639 30.741134,33.710005 24.462492,33.710005 C 18.362475,33.710005 13.896955,29.370308 11.110016,24.543189 C 13.659429,27.599109 17.392948,31.109501 24.197327,31.109501 C 32.327531,31.109501 33.749103,28.202646 37.284637,24.719966 z " id="path2659" style="opacity:0.35999998;color:#000000;fill:#ffffff;fill-opacity:1.0000000;fill-rule:nonzero;stroke:none;stroke-width:1.0000000;stroke-linecap:butt;stroke-linejoin:miter;marker:none;marker-start:none;marker-mid:none;marker-end:none;stroke-miterlimit:4.0000000;stroke-dasharray:none;stroke-dashoffset:0.0000000;stroke-opacity:1.0000000;visibility:visible;display:inline;overflow:visible"/><path d="M 37.284637,24.012862 C 34.268170,29.237535 30.741134,33.002901 24.462492,33.002901 C 18.362475,33.002901 13.896955,28.663204 11.110016,23.836085 C 13.659429,26.892005 17.392948,30.402397 24.197327,30.402397 C 32.327531,30.402397 33.749103,27.495542 37.284637,24.012862 z " id="path8606" style="fill:url(#radialGradient3279);fill-rule:nonzero;stroke:none;stroke-miterlimit:4.0000000"/></g><path d="M 31.042065,17.714134 C 31.042065,20.214134 29.917065,22.214134 28.542065,22.214134 C 27.167065,22.214134 26.042065,20.214134 26.042065,17.714134 C 26.042065,15.214134 27.167065,13.214134 28.542065,13.214134 C 29.917065,13.214134 31.042065,15.214134 31.042065,17.714134 z " id="path8612" style="opacity:0.35999998;fill:#ffffff;fill-rule:nonzero;stroke:none;stroke-miterlimit:4.0000000"/><path d="M 31.042065,17.089134 C 31.042065,19.589134 29.917065,21.589134 28.542065,21.589134 C 27.167065,21.589134 26.042065,19.589134 26.042065,17.089134 C 26.042065,14.589134 27.167065,12.589134 28.542065,12.589134 C 29.917065,12.589134 31.042065,14.589134 31.042065,17.089134 z " id="path8616" style="fill:#000000;fill-rule:nonzero;stroke:none;stroke-miterlimit:4.0000000"/><path d="M 15.924926,17.535184 C 17.28643,14.190727 20.768376,14.102908 21.99369,17.42035 C 19.832621,15.70722 17.845598,16.200617 15.924926,17.535184 z " id="path1336" style="opacity:1;color:#000000;fill:#000000;fill-opacity:1;fill-rule:nonzero;stroke:none;stroke-width:1.0000006;stroke-linecap:butt;stroke-linejoin:miter;marker:none;marker-start:none;marker-mid:none;marker-end:none;stroke-miterlimit:4;stroke-dasharray:none;stroke-dashoffset:0;stroke-opacity:1;visibility:visible;display:inline;overflow:visible"/></g></svg>