<?xml version="1.0" ?><svg height="48px" id="svg9121" width="48px" xmlns="http://www.w3.org/2000/svg" xmlns:cc="http://creativecommons.org/ns#" xmlns:dc="http://purl.org/dc/elements/1.1/" xmlns:inkscape="http://www.inkscape.org/namespaces/inkscape" xmlns:rdf="http://www.w3.org/1999/02/22-rdf-syntax-ns#" xmlns:sodipodi="http://sodipodi.sourceforge.net/DTD/sodipodi-0.dtd" xmlns:svg="http://www.w3.org/2000/svg" xmlns:xlink="http://www.w3.org/1999/xlink"><defs id="defs3"><linearGradient id="linearGradient6835"><stop id="stop6837" offset="0" style="stop-color:#ffffff;stop-opacity:1;"/><stop id="stop6839" offset="1" style="stop-color:#ffffff;stop-opacity:0;"/></linearGradient><linearGradient id="linearGradient6748"><stop id="stop6750" offset="0" style="stop-color:#729fcf;stop-opacity:1;"/><stop id="stop6752" offset="1" style="stop-color:#2b5582;stop-opacity:1;"/></linearGradient><linearGradient id="linearGradient6721"><stop id="stop6723" offset="0" style="stop-color:#729fcf;stop-opacity:1;"/><stop id="stop6725" offset="1" style="stop-color:#3c74b1;stop-opacity:1;"/></linearGradient><linearGradient id="linearGradient6651"><stop id="stop6653" offset="0" style="stop-color:#f2f2f2;stop-opacity:1;"/><stop id="stop6655" offset="1" style="stop-color:#c3c3c3;stop-opacity:1;"/></linearGradient><linearGradient id="linearGradient6629"><stop id="stop6631" offset="0" style="stop-color:#aeaeae;stop-opacity:1;"/><stop id="stop6633" offset="1" style="stop-color:#c4c4c4;stop-opacity:0;"/></linearGradient><linearGradient id="linearGradient2446"><stop id="stop2448" offset="0" style="stop-color:#ffffff;stop-opacity:1;"/><stop id="stop2450" offset="1" style="stop-color:#ffffff;stop-opacity:0;"/></linearGradient><linearGradient id="linearGradient6975"><stop id="stop6977" offset="0" style="stop-color:#000000;stop-opacity:1;"/><stop id="stop6979" offset="1" style="stop-color:#000000;stop-opacity:0;"/></linearGradient><linearGradient id="linearGradient6963"><stop id="stop6965" offset="0" style="stop-color:#696969;stop-opacity:1;"/><stop id="stop6967" offset="1" style="stop-color:#000000;stop-opacity:1;"/></linearGradient><linearGradient id="linearGradient6951"><stop id="stop6953" offset="0" style="stop-color:#6e3d09;stop-opacity:1;"/><stop id="stop6959" offset="0.24242425" style="stop-color:#ea8113;stop-opacity:1;"/><stop id="stop6961" offset="0.62121212" style="stop-color:#5c3307;stop-opacity:1;"/><stop id="stop6955" offset="1" style="stop-color:#e07c12;stop-opacity:1;"/></linearGradient><linearGradient id="linearGradient6939"><stop id="stop6941" offset="0" style="stop-color:#bdbdbd;stop-opacity:1;"/><stop id="stop6947" offset="0.33333334" style="stop-color:#e2e2e2;stop-opacity:1;"/><stop id="stop6949" offset="0.66666669" style="stop-color:#a3a3a3;stop-opacity:1;"/><stop id="stop6943" offset="1" style="stop-color:#dddddd;stop-opacity:1;"/></linearGradient><linearGradient gradientTransform="translate(-3.90695,-1.802856)" gradientUnits="userSpaceOnUse" id="linearGradient6945" x1="19.394735" x2="23.109331" xlink:href="#linearGradient6939" y1="30.001331" y2="33.438831"/><linearGradient gradientTransform="translate(-3.90695,-1.802856)" gradientUnits="userSpaceOnUse" id="linearGradient6957" x1="28.058632" x2="33.436985" xlink:href="#linearGradient6951" y1="18.867767" y2="23.742767"/><radialGradient cx="15.415101" cy="35.356506" fx="15.415101" fy="35.356506" gradientTransform="matrix(0.994655,3.262876e-16,6.564546e-13,0.969322,-4.583017,0.165919)" gradientUnits="userSpaceOnUse" id="radialGradient6969" r="7.5791561" xlink:href="#linearGradient6963"/><radialGradient cx="26.78167" cy="42.343147" fx="26.78167" fy="42.343147" gradientTransform="matrix(1,0,0,0.282209,1.679212e-15,30.39355)" gradientUnits="userSpaceOnUse" id="radialGradient6981" r="14.407301" xlink:href="#linearGradient6975"/><linearGradient gradientTransform="matrix(0.852298,0,0,0.852298,-1.675107,3.753977)" gradientUnits="userSpaceOnUse" id="linearGradient2452" x1="13.236155" x2="7.7521091" xlink:href="#linearGradient2446" y1="37.752247" y2="42.282146"/><radialGradient cx="26.78167" cy="42.343147" fx="26.78167" fy="42.343147" gradientTransform="matrix(1,0,0,0.282209,2.936128e-15,30.39355)" gradientUnits="userSpaceOnUse" id="radialGradient6903" r="14.407301" xlink:href="#linearGradient6975"/><linearGradient gradientTransform="matrix(0.718914,0,0,0.718914,-1.897103,-20.68606)" gradientUnits="userSpaceOnUse" id="linearGradient7005" x1="48.25" x2="48.25" xlink:href="#linearGradient6835" y1="54.75" y2="71.25"/><linearGradient gradientTransform="matrix(0.737307,0,0,0.770854,-8.532023,7.121636)" gradientUnits="userSpaceOnUse" id="linearGradient7010" x1="60.168766" x2="60.440994" xlink:href="#linearGradient6651" y1="40.119797" y2="43.869797"/><linearGradient gradientTransform="matrix(0.718914,0,0,0.718914,-1.897103,-22.42481)" gradientUnits="userSpaceOnUse" id="linearGradient7014" x1="49.853037" x2="62.768221" xlink:href="#linearGradient6748" y1="64.259623" y2="64.259623"/><linearGradient gradientTransform="matrix(0.888619,0,0,0.718914,-18.29768,9.471728)" gradientUnits="userSpaceOnUse" id="linearGradient7017" x1="61.871845" x2="61.871845" xlink:href="#linearGradient6629" y1="29.615223" y2="41.459263"/><linearGradient gradientTransform="matrix(0.71944,0,0,0.718914,-7.696252,9.471728)" gradientUnits="userSpaceOnUse" id="linearGradient7020" x1="53.168766" x2="69.690994" xlink:href="#linearGradient6651" y1="24.244797" y2="24.244797"/><linearGradient gradientTransform="matrix(0.862482,0,0,0.580718,-16.25697,11.01348)" gradientUnits="userSpaceOnUse" id="linearGradient7025" x1="52.717936" x2="67.465988" xlink:href="#linearGradient6721" y1="2.3161638" y2="2.3161638"/></defs><g id="layer1"><path d="M 41.188971 42.343147 A 14.407301 4.0658641 0 1 1  12.374369,42.343147 A 14.407301 4.0658641 0 1 1  41.188971 42.343147 z" id="path6901" style="opacity:0.3;color:#000000;fill:url(#radialGradient6903);fill-opacity:1;fill-rule:nonzero;stroke:none;stroke-width:1;stroke-linecap:round;stroke-linejoin:miter;marker:none;marker-start:none;marker-mid:none;marker-end:none;stroke-miterlimit:4;stroke-dasharray:none;stroke-dashoffset:0;stroke-opacity:1;visibility:visible;display:inline;overflow:visible" transform="matrix(1.069224,0,0,1.122975,5.769028,-7.11616)"/><path d="M 19.651682,22.586735 L 23.717546,26.387433 C 30.905045,19.324934 41.500606,2.4101455 41.500606,2.4101455 C 41.930096,1.1856993 40.413361,0.41425264 39.654254,1.2396505 C 39.654254,1.2396505 25.964181,15.336736 19.651682,22.586735 z " id="path6937" style="opacity:1;color:#000000;fill:url(#linearGradient6957);fill-opacity:1;fill-rule:nonzero;stroke:#673907;stroke-width:1;stroke-linecap:round;stroke-linejoin:miter;marker:none;marker-start:none;marker-mid:none;marker-end:none;stroke-miterlimit:4;stroke-dasharray:none;stroke-dashoffset:0;stroke-opacity:1;visibility:visible;display:inline;overflow:visible"/><path d="M 12.050285,32.813894 L 14.296605,34.747714 L 22.789371,27.380683 L 23.064432,26.674855 L 24.158837,26.65704 C 23.721337,25.09454 21.217323,22.273585 19.342323,22.273585 L 19.424342,23.36366 L 18.754351,23.743687 L 12.050285,32.813894 z " id="path6935" style="opacity:1;color:#000000;fill:url(#linearGradient6945);fill-opacity:1;fill-rule:nonzero;stroke:#888a85;stroke-width:1;stroke-linecap:round;stroke-linejoin:miter;marker:none;marker-start:none;marker-mid:none;marker-end:none;stroke-miterlimit:4;stroke-dasharray:none;stroke-dashoffset:0;stroke-opacity:1;visibility:visible;display:inline;overflow:visible"/><path d="M 41.188971 42.343147 A 14.407301 4.0658641 0 1 1  12.374369,42.343147 A 14.407301 4.0658641 0 1 1  41.188971 42.343147 z" id="path6973" style="opacity:0.3;color:#000000;fill:url(#radialGradient6981);fill-opacity:1;fill-rule:nonzero;stroke:none;stroke-width:1;stroke-linecap:round;stroke-linejoin:miter;marker:none;marker-start:none;marker-mid:none;marker-end:none;stroke-miterlimit:4;stroke-dasharray:none;stroke-dashoffset:0;stroke-opacity:1;visibility:visible;display:inline;overflow:visible" transform="matrix(1.33837,0,0,1,-20.9264,-3.409011)"/><path d="M 1.757709,40.723915 C 8.3630216,40.723915 13.375896,41.510516 14.324934,36.704842 C 15.089727,32.832133 9.7646096,30.976482 7.1258026,34.433791 C 4.583799,37.76427 1.757709,40.723915 1.757709,40.723915 z " id="path6933" style="opacity:1;color:#000000;fill:url(#radialGradient6969);fill-opacity:1;fill-rule:nonzero;stroke:none;stroke-width:0.2;stroke-linecap:round;stroke-linejoin:miter;marker:none;marker-start:none;marker-mid:none;marker-end:none;stroke-miterlimit:4;stroke-dasharray:none;stroke-dashoffset:0;stroke-opacity:1;visibility:visible;display:inline;overflow:visible"/><path d="M 8.8749989 37.75 A 1.2499999 1.2499999 0 1 1  6.3749992,37.75 A 1.2499999 1.2499999 0 1 1  8.8749989 37.75 z" id="path6971" style="opacity:0.52777782;color:#000000;fill:#ffffff;fill-opacity:1;fill-rule:nonzero;stroke:none;stroke-width:1;stroke-linecap:round;stroke-linejoin:miter;marker:none;marker-start:none;marker-mid:none;marker-end:none;stroke-miterlimit:4;stroke-dasharray:none;stroke-dashoffset:0;stroke-opacity:1;visibility:visible;display:inline;overflow:visible" transform="matrix(0.852298,0,0,0.852298,3.733554,2.575604)"/><path d="M 8.8749989 37.75 A 1.2499999 1.2499999 0 1 1  6.3749992,37.75 A 1.2499999 1.2499999 0 1 1  8.8749989 37.75 z" id="path6983" style="opacity:1;color:#000000;fill:#ffffff;fill-opacity:1;fill-rule:nonzero;stroke:none;stroke-width:1;stroke-linecap:round;stroke-linejoin:miter;marker:none;marker-start:none;marker-mid:none;marker-end:none;stroke-miterlimit:4;stroke-dasharray:none;stroke-dashoffset:0;stroke-opacity:1;visibility:visible;display:inline;overflow:visible" transform="matrix(0.787867,0,0,0.787867,14.26538,-4.723366)"/><path d="M 18.941438,26.398154 L 13.638137,32.541144" id="path6985" style="opacity:1;color:#000000;fill:none;fill-opacity:1;fill-rule:nonzero;stroke:#ffffff;stroke-width:1;stroke-linecap:round;stroke-linejoin:round;marker:none;marker-start:none;marker-mid:none;marker-end:none;stroke-miterlimit:4;stroke-dasharray:none;stroke-dashoffset:0;stroke-opacity:1;visibility:visible;display:inline;overflow:visible"/><path d="M 3.0708872,40.068976 C 3.0708872,40.068976 6.4119986,38.427155 7.8357156,35.982147 C 8.3394226,35.11711 9.4800886,35.855311 8.7773816,36.716646 C 7.2595536,38.577104 3.0708872,40.068976 3.0708872,40.068976 z " id="path1571" style="opacity:0.42777776;color:#000000;fill:url(#linearGradient2452);fill-opacity:1;fill-rule:nonzero;stroke:none;stroke-width:1;stroke-linecap:round;stroke-linejoin:miter;marker:none;marker-start:none;marker-mid:none;marker-end:none;stroke-miterlimit:4;stroke-dasharray:none;stroke-dashoffset:0;stroke-opacity:1;visibility:visible;display:inline;overflow:visible"/><path d="M 8.8749989 37.75 A 1.2499999 1.2499999 0 1 1  6.3749992,37.75 A 1.2499999 1.2499999 0 1 1  8.8749989 37.75 z" id="path2454" style="opacity:0.53333327;color:#000000;fill:#ffffff;fill-opacity:1;fill-rule:nonzero;stroke:none;stroke-width:1;stroke-linecap:round;stroke-linejoin:miter;marker:none;marker-start:none;marker-mid:none;marker-end:none;stroke-miterlimit:4;stroke-dasharray:none;stroke-dashoffset:0;stroke-opacity:1;visibility:visible;display:inline;overflow:visible" transform="matrix(0.237867,0,0,0.237867,38.43389,-7.101028)"/><g id="g7038"><path d="M 35.12694,7.3500759 C 32.069084,7.4373648 29.642551,8.4061584 29.642551,9.5744095 C 29.642551,9.8521085 29.642551,12.866829 29.642551,13.144528 C 29.642551,14.370234 32.313483,15.368861 35.583971,15.368861 C 38.854457,15.368861 41.5,14.370234 41.5,13.144528 C 41.5,12.866829 41.5,9.8521085 41.5,9.5744095 C 41.5,8.3487033 38.854457,7.3500759 35.583971,7.3500759 C 35.430666,7.3500759 35.277325,7.3457826 35.12694,7.3500759 z " id="path6659" style="color:#000000;fill:url(#linearGradient7025);fill-opacity:1;fill-rule:nonzero;stroke:#204a87;stroke-width:0.99999982;stroke-linecap:round;stroke-linejoin:miter;marker:none;marker-start:none;marker-mid:none;marker-end:none;stroke-miterlimit:4;stroke-dasharray:none;stroke-dashoffset:0;stroke-opacity:1;visibility:visible;display:inline;overflow:visible"/><path d="M 57.375 49.75 A 5.375 1.5 0 1 1  46.625,49.75 A 5.375 1.5 0 1 1  57.375 49.75 z" id="path6729" style="color:#000000;fill:#3465a4;fill-opacity:1;fill-rule:nonzero;stroke:none;stroke-width:0.99999982;stroke-linecap:round;stroke-linejoin:miter;marker:none;marker-start:none;marker-mid:none;marker-end:none;stroke-miterlimit:4;stroke-dasharray:none;stroke-dashoffset:0;stroke-opacity:1;visibility:visible;display:inline;overflow:visible" transform="matrix(0.886278,0,0,0.468914,-10.44392,-9.718859)"/><path d="M 27.926447,39.155467 L 28.973456,17.806032 L 31.460102,14.14252 C 33.431394,13.507083 38.186529,13.507083 39.96705,14.14252 L 42.453697,17.174393 L 45.07122,39.66078 L 27.926447,39.155467 z " id="path6617" style="color:#000000;fill:url(#linearGradient7020);fill-opacity:1;fill-rule:nonzero;stroke:#5a5a5a;stroke-width:1.00000036;stroke-linecap:round;stroke-linejoin:miter;marker:none;marker-start:none;marker-mid:none;marker-end:none;stroke-miterlimit:4;stroke-dasharray:none;stroke-dashoffset:0;stroke-opacity:1;visibility:visible;display:inline;overflow:visible"/><path d="M 28.828495,38.896108 C 28.828495,38.896108 31.419168,29.364565 36.368683,29.364565 C 41.475284,29.364565 44.537218,39.27737 44.537218,39.27737 L 28.828495,38.896108 z " id="path6619" style="color:#000000;fill:url(#linearGradient7017);fill-opacity:1;fill-rule:nonzero;stroke:none;stroke-width:1;stroke-linecap:round;stroke-linejoin:miter;marker:none;marker-start:none;marker-mid:none;marker-end:none;stroke-miterlimit:4;stroke-dasharray:none;stroke-dashoffset:0;stroke-opacity:1;visibility:visible;display:inline;overflow:visible"/><path d="M 29.180138,20.498708 L 28.884225,26.97345 C 30.546714,25.895079 40.876736,25.708964 43.22785,27.361098 L 42.526302,20.763785 C 41.128342,19.810631 31.943464,19.28554 29.180138,20.498708 z " id="path6641" style="color:#000000;fill:url(#linearGradient7014);fill-opacity:1;fill-rule:nonzero;stroke:none;stroke-width:1;stroke-linecap:round;stroke-linejoin:miter;marker:none;marker-start:none;marker-mid:none;marker-end:none;stroke-miterlimit:4;stroke-dasharray:none;stroke-dashoffset:0;stroke-opacity:1;visibility:visible;display:inline;overflow:visible"/><path d="M 29.048762,38.222096 L 29.926259,18.027784 L 31.766226,14.994949 C 33.584782,14.402774 37.971484,14.402774 39.614049,14.994949 L 41.57453,17.527535 L 44.026754,38.7759 L 29.048762,38.222096 z " id="path6670" style="opacity:0.5944443;color:#000000;fill:none;fill-opacity:1;fill-rule:nonzero;stroke:#ffffff;stroke-width:1.00000012;stroke-linecap:round;stroke-linejoin:miter;marker:none;marker-start:none;marker-mid:none;marker-end:none;stroke-miterlimit:4;stroke-dasharray:none;stroke-dashoffset:0;stroke-opacity:1;visibility:visible;display:inline;overflow:visible"/><rect height="3.9277525" id="rect5742" rx="0.88388413" ry="0.88388366" style="color:#000000;fill:url(#linearGradient7010);fill-opacity:1;fill-rule:nonzero;stroke:#5a5a5a;stroke-width:1.0000006;stroke-linecap:round;stroke-linejoin:miter;marker:none;marker-start:none;marker-mid:none;marker-end:none;stroke-miterlimit:4;stroke-dasharray:none;stroke-dashoffset:0;stroke-opacity:1;visibility:visible;display:inline;overflow:visible" width="19.974413" x="26.512789" y="37.536133"/><path d="M 29.395219,17.996451 C 31.269756,16.630263 38.493153,16.341277 42.115139,17.389747 L 39.777733,14.504124 C 37.299532,13.836916 33.853386,14.128358 31.502272,14.573164 L 29.395219,17.996451 z " id="path6668" style="color:#000000;fill:#ffffff;fill-opacity:1;fill-rule:nonzero;stroke:none;stroke-width:1;stroke-linecap:round;stroke-linejoin:miter;marker:none;marker-start:none;marker-mid:none;marker-end:none;stroke-miterlimit:4;stroke-dasharray:none;stroke-dashoffset:0;stroke-opacity:1;visibility:visible;display:inline;overflow:visible"/><path d="M 31.172941,17.416382 L 31.172941,32.873033 L 34.408054,29.278463 L 34.048597,16.697468 L 31.172941,17.416382 z " id="path6833" style="opacity:0.86111109;color:#000000;fill:url(#linearGradient7005);fill-opacity:1;fill-rule:nonzero;stroke:none;stroke-width:0.99999982;stroke-linecap:round;stroke-linejoin:miter;marker:none;marker-start:none;marker-mid:none;marker-end:none;stroke-miterlimit:4;stroke-dasharray:none;stroke-dashoffset:0;stroke-opacity:1;visibility:visible;display:inline;overflow:visible"/><g id="g7033" style="opacity:0.57777778"><path d="M 31.009391,9.3809738 L 31.009391,12.621009 C 31.009391,12.621009 31.62058,12.273323 32,12.259688 L 32,9 C 31.518428,9.0694626 31.009391,9.3809738 31.009391,9.3809738 z " id="path6666" style="color:#000000;fill:#e6e7e6;fill-opacity:1;fill-rule:nonzero;stroke:none;stroke-width:1;stroke-linecap:round;stroke-linejoin:miter;marker:none;marker-start:none;marker-mid:none;marker-end:none;stroke-miterlimit:4;stroke-dasharray:none;stroke-dashoffset:0;stroke-opacity:1;visibility:visible;display:inline;overflow:visible;opacity:0.41111111"/><path d="M 33.009391,8.7599648 L 33.009391,12 C 33.009391,12 33.62058,11.917479 34,11.903844 L 34,8.5889133 C 33.488399,8.6147179 33.009391,8.7599648 33.009391,8.7599648 z " id="path7029" style="color:#000000;fill:#e6e7e6;fill-opacity:1;fill-rule:nonzero;stroke:none;stroke-width:1;stroke-linecap:round;stroke-linejoin:miter;marker:none;marker-start:none;marker-mid:none;marker-end:none;stroke-miterlimit:4;stroke-dasharray:none;stroke-dashoffset:0;stroke-opacity:1;visibility:visible;display:inline;overflow:visible"/><path d="M 35.009391,8.561091 L 35.009391,11.856369 C 35.009391,11.856369 35.565337,11.851187 36,11.870698 L 36,8.5336706 C 35.499448,8.4821354 35.009391,8.561091 35.009391,8.561091 z " id="path7031" style="color:#000000;fill:#e6e7e6;fill-opacity:1;fill-rule:nonzero;stroke:none;stroke-width:1;stroke-linecap:round;stroke-linejoin:miter;marker:none;marker-start:none;marker-mid:none;marker-end:none;stroke-miterlimit:4;stroke-dasharray:none;stroke-dashoffset:0;stroke-opacity:1;visibility:visible;display:inline;overflow:visible;opacity:0.44444444"/></g></g></g></svg>