<?xml version="1.0" ?><svg height="48.000000px" id="svg249" width="48.000000px" xmlns="http://www.w3.org/2000/svg" xmlns:cc="http://creativecommons.org/ns#" xmlns:dc="http://purl.org/dc/elements/1.1/" xmlns:inkscape="http://www.inkscape.org/namespaces/inkscape" xmlns:rdf="http://www.w3.org/1999/02/22-rdf-syntax-ns#" xmlns:sodipodi="http://sodipodi.sourceforge.net/DTD/sodipodi-0.dtd" xmlns:svg="http://www.w3.org/2000/svg" xmlns:xlink="http://www.w3.org/1999/xlink"><defs id="defs3"><radialGradient cx="605.71429" cy="486.64789" fx="605.71429" fy="486.64789" gradientTransform="matrix(-2.774389,0,0,1.969706,112.7623,-872.8854)" gradientUnits="userSpaceOnUse" id="radialGradient6719" r="117.14286" xlink:href="#linearGradient5060"/><linearGradient id="linearGradient5060"><stop id="stop5062" offset="0" style="stop-color:black;stop-opacity:1;"/><stop id="stop5064" offset="1" style="stop-color:black;stop-opacity:0;"/></linearGradient><radialGradient cx="605.71429" cy="486.64789" fx="605.71429" fy="486.64789" gradientTransform="matrix(2.774389,0,0,1.969706,-1891.633,-872.8854)" gradientUnits="userSpaceOnUse" id="radialGradient6717" r="117.14286" xlink:href="#linearGradient5060"/><linearGradient id="linearGradient5048"><stop id="stop5050" offset="0" style="stop-color:black;stop-opacity:0;"/><stop id="stop5056" offset="0.5" style="stop-color:black;stop-opacity:1;"/><stop id="stop5052" offset="1" style="stop-color:black;stop-opacity:0;"/></linearGradient><linearGradient gradientTransform="matrix(2.774389,0,0,1.969706,-1892.179,-872.8854)" gradientUnits="userSpaceOnUse" id="linearGradient6715" x1="302.85715" x2="302.85715" xlink:href="#linearGradient5048" y1="366.64789" y2="609.50507"/><linearGradient id="linearGradient5853"><stop id="stop5855" offset="0" style="stop-color:#000000;stop-opacity:1;"/><stop id="stop5857" offset="1" style="stop-color:#000000;stop-opacity:0;"/></linearGradient><linearGradient id="linearGradient3531"><stop id="stop3533" offset="0.0000000" style="stop-color:#000000;stop-opacity:0.092783503;"/><stop id="stop3535" offset="1.0000000" style="stop-color:#000000;stop-opacity:0.0000000;"/></linearGradient><linearGradient id="linearGradient3519"><stop id="stop3521" offset="0.0000000" style="stop-color:#ffffff;stop-opacity:1.0000000;"/><stop id="stop3523" offset="1.0000000" style="stop-color:#ffffff;stop-opacity:0.0000000;"/></linearGradient><linearGradient id="linearGradient15662"><stop id="stop15664" offset="0.0000000" style="stop-color:#ffffff;stop-opacity:1.0000000;"/><stop id="stop15666" offset="1.0000000" style="stop-color:#f8f8f8;stop-opacity:1.0000000;"/></linearGradient><linearGradient id="linearGradient269"><stop id="stop270" offset="0.0000000" style="stop-color:#a3a3a3;stop-opacity:1.0000000;"/><stop id="stop271" offset="1.0000000" style="stop-color:#4c4c4c;stop-opacity:1.0000000;"/></linearGradient><linearGradient id="linearGradient259"><stop id="stop260" offset="0.0000000" style="stop-color:#fafafa;stop-opacity:1.0000000;"/><stop id="stop261" offset="1.0000000" style="stop-color:#bbbbbb;stop-opacity:1.0000000;"/></linearGradient><radialGradient cx="8.8244190" cy="3.7561285" fx="8.8244190" fy="3.7561285" gradientTransform="matrix(0.968273,0.000000,0.000000,1.032767,3.353553,0.646447)" gradientUnits="userSpaceOnUse" id="radialGradient15656" r="37.751713" xlink:href="#linearGradient269"/><radialGradient cx="33.966679" cy="35.736916" fx="33.966679" fy="35.736916" gradientTransform="scale(0.960493,1.041132)" gradientUnits="userSpaceOnUse" id="radialGradient15658" r="86.708450" xlink:href="#linearGradient259"/><radialGradient cx="8.1435566" cy="7.2678967" fx="8.1435566" fy="7.2678967" gradientTransform="matrix(0.968273,0.000000,0.000000,1.032767,3.353553,0.646447)" gradientUnits="userSpaceOnUse" id="radialGradient15668" r="38.158695" xlink:href="#linearGradient15662"/><linearGradient gradientTransform="scale(0.668545,1.495785)" gradientUnits="userSpaceOnUse" id="linearGradient3525" x1="57.643562" x2="34.242393" xlink:href="#linearGradient3519" y1="8.6012535" y2="21.033955"/><linearGradient gradientTransform="matrix(-0.668545,0.000000,0.000000,1.495785,47.90649,0.000000)" gradientUnits="userSpaceOnUse" id="linearGradient3529" x1="57.643562" x2="39.081673" xlink:href="#linearGradient3531" y1="8.6012535" y2="20.923300"/><radialGradient cx="24.875" cy="41.625" fx="24.875" fy="41.625" gradientTransform="matrix(0.834586,-4.742171e-18,1.889736e-18,0.332579,4.114662,27.78137)" gradientUnits="userSpaceOnUse" id="radialGradient5859" r="16.625" xlink:href="#linearGradient5853"/></defs><g id="layer6"><g id="g6707" style="display:inline" transform="matrix(2.105461e-2,0,0,2.086758e-2,42.85172,41.1536)"><rect height="478.35718" id="rect6709" style="opacity:0.40206185;color:black;fill:url(#linearGradient6715);fill-opacity:1;fill-rule:nonzero;stroke:none;stroke-width:1;stroke-linecap:round;stroke-linejoin:miter;marker:none;marker-start:none;marker-mid:none;marker-end:none;stroke-miterlimit:4;stroke-dasharray:none;stroke-dashoffset:0;stroke-opacity:1;visibility:visible;display:inline;overflow:visible" width="1339.6335" x="-1559.2523" y="-150.69685"/><path d="M -219.61876,-150.68038 C -219.61876,-150.68038 -219.61876,327.65041 -219.61876,327.65041 C -76.744594,328.55086 125.78146,220.48075 125.78138,88.454235 C 125.78138,-43.572302 -33.655436,-150.68036 -219.61876,-150.68038 z " id="path6711" style="opacity:0.40206185;color:black;fill:url(#radialGradient6717);fill-opacity:1;fill-rule:nonzero;stroke:none;stroke-width:1;stroke-linecap:round;stroke-linejoin:miter;marker:none;marker-start:none;marker-mid:none;marker-end:none;stroke-miterlimit:4;stroke-dasharray:none;stroke-dashoffset:0;stroke-opacity:1;visibility:visible;display:inline;overflow:visible"/><path d="M -1559.2523,-150.68038 C -1559.2523,-150.68038 -1559.2523,327.65041 -1559.2523,327.65041 C -1702.1265,328.55086 -1904.6525,220.48075 -1904.6525,88.454235 C -1904.6525,-43.572302 -1745.2157,-150.68036 -1559.2523,-150.68038 z " id="path6713" style="opacity:0.40206185;color:black;fill:url(#radialGradient6719);fill-opacity:1;fill-rule:nonzero;stroke:none;stroke-width:1;stroke-linecap:round;stroke-linejoin:miter;marker:none;marker-start:none;marker-mid:none;marker-end:none;stroke-miterlimit:4;stroke-dasharray:none;stroke-dashoffset:0;stroke-opacity:1;visibility:visible;display:inline;overflow:visible"/></g></g><g id="layer1" style="display:inline"><rect height="40.920494" id="rect15391" ry="1.1490486" style="color:#000000;fill:url(#radialGradient15658);fill-opacity:1.0000000;fill-rule:nonzero;stroke:url(#radialGradient15656);stroke-width:1.0000000;stroke-linecap:round;stroke-linejoin:round;stroke-miterlimit:4.0000000;stroke-dashoffset:0.0000000;stroke-opacity:1.0000000;marker:none;marker-start:none;marker-mid:none;marker-end:none;visibility:visible;display:block;overflow:visible" width="34.875000" x="6.6035528" y="3.6464462"/><rect height="38.946384" id="rect15660" rx="0.14904857" ry="0.14904857" style="color:#000000;fill:none;fill-opacity:1.0000000;fill-rule:nonzero;stroke:url(#radialGradient15668);stroke-width:1.0000000;stroke-linecap:round;stroke-linejoin:round;stroke-miterlimit:4.0000000;stroke-dashoffset:0.0000000;stroke-opacity:1.0000000;marker:none;marker-start:none;marker-mid:none;marker-end:none;visibility:visible;display:block;overflow:visible" width="32.775887" x="7.6660538" y="4.5839462"/></g><g id="layer5" style="display:inline"><g id="g3405" transform="translate(-1.149045,0.000000)"><path d="M 26.339728 8.5787964 A 1.1490486 1.1490486 0 1 1  24.041631,8.5787964 A 1.1490486 1.1490486 0 1 1  26.339728 8.5787964 z" id="path3401" style="fill:#ffffff;fill-opacity:1.0000000"/><path d="M 26.339728 8.5787964 A 1.1490486 1.1490486 0 1 1  24.041631,8.5787964 A 1.1490486 1.1490486 0 1 1  26.339728 8.5787964 z" id="path3403" style="fill:#000000;fill-opacity:0.11111111" transform="translate(-0.353553,-0.265165)"/></g><g id="g3409" transform="translate(-1.149045,4.000000)"><path d="M 26.339728 8.5787964 A 1.1490486 1.1490486 0 1 1  24.041631,8.5787964 A 1.1490486 1.1490486 0 1 1  26.339728 8.5787964 z" id="path3411" style="fill:#ffffff;fill-opacity:1.0000000"/><path d="M 26.339728 8.5787964 A 1.1490486 1.1490486 0 1 1  24.041631,8.5787964 A 1.1490486 1.1490486 0 1 1  26.339728 8.5787964 z" id="path3413" style="fill:#000000;fill-opacity:0.11111111" transform="translate(-0.353553,-0.265165)"/></g><g id="g3415" transform="translate(-1.149045,8.000000)"><path d="M 26.339728 8.5787964 A 1.1490486 1.1490486 0 1 1  24.041631,8.5787964 A 1.1490486 1.1490486 0 1 1  26.339728 8.5787964 z" id="path3417" style="fill:#ffffff;fill-opacity:1.0000000"/><path d="M 26.339728 8.5787964 A 1.1490486 1.1490486 0 1 1  24.041631,8.5787964 A 1.1490486 1.1490486 0 1 1  26.339728 8.5787964 z" id="path3419" style="fill:#000000;fill-opacity:0.11111111" transform="translate(-0.353553,-0.265165)"/></g><g id="g3421" transform="translate(-1.149045,12.00000)"><path d="M 26.339728 8.5787964 A 1.1490486 1.1490486 0 1 1  24.041631,8.5787964 A 1.1490486 1.1490486 0 1 1  26.339728 8.5787964 z" id="path3423" style="fill:#ffffff;fill-opacity:1.0000000"/><path d="M 26.339728 8.5787964 A 1.1490486 1.1490486 0 1 1  24.041631,8.5787964 A 1.1490486 1.1490486 0 1 1  26.339728 8.5787964 z" id="path3425" style="fill:#000000;fill-opacity:0.11111111" transform="translate(-0.353553,-0.265165)"/></g><g id="g3427" transform="translate(-1.149045,16.00000)"><path d="M 26.339728 8.5787964 A 1.1490486 1.1490486 0 1 1  24.041631,8.5787964 A 1.1490486 1.1490486 0 1 1  26.339728 8.5787964 z" id="path3429" style="fill:#ffffff;fill-opacity:1.0000000"/><path d="M 26.339728 8.5787964 A 1.1490486 1.1490486 0 1 1  24.041631,8.5787964 A 1.1490486 1.1490486 0 1 1  26.339728 8.5787964 z" id="path3431" style="fill:#000000;fill-opacity:0.11111111" transform="translate(-0.353553,-0.265165)"/></g><g id="g3433" transform="translate(-1.149045,20.00000)"><path d="M 26.339728 8.5787964 A 1.1490486 1.1490486 0 1 1  24.041631,8.5787964 A 1.1490486 1.1490486 0 1 1  26.339728 8.5787964 z" id="path3435" style="fill:#ffffff;fill-opacity:1.0000000"/><path d="M 26.339728 8.5787964 A 1.1490486 1.1490486 0 1 1  24.041631,8.5787964 A 1.1490486 1.1490486 0 1 1  26.339728 8.5787964 z" id="path3437" style="fill:#000000;fill-opacity:0.11111111" transform="translate(-0.353553,-0.265165)"/></g><g id="g3439" transform="translate(-1.149045,24.00000)"><path d="M 26.339728 8.5787964 A 1.1490486 1.1490486 0 1 1  24.041631,8.5787964 A 1.1490486 1.1490486 0 1 1  26.339728 8.5787964 z" id="path3441" style="fill:#ffffff;fill-opacity:1.0000000"/><path d="M 26.339728 8.5787964 A 1.1490486 1.1490486 0 1 1  24.041631,8.5787964 A 1.1490486 1.1490486 0 1 1  26.339728 8.5787964 z" id="path3443" style="fill:#000000;fill-opacity:0.11111111" transform="translate(-0.353553,-0.265165)"/></g><g id="g3445" transform="translate(-1.149045,28.00000)"><path d="M 26.339728 8.5787964 A 1.1490486 1.1490486 0 1 1  24.041631,8.5787964 A 1.1490486 1.1490486 0 1 1  26.339728 8.5787964 z" id="path3447" style="fill:#ffffff;fill-opacity:1.0000000"/><path d="M 26.339728 8.5787964 A 1.1490486 1.1490486 0 1 1  24.041631,8.5787964 A 1.1490486 1.1490486 0 1 1  26.339728 8.5787964 z" id="path3449" style="fill:#000000;fill-opacity:0.11111111" transform="translate(-0.353553,-0.265165)"/></g><g id="g3451" transform="translate(-1.149045,32.00000)"><path d="M 26.339728 8.5787964 A 1.1490486 1.1490486 0 1 1  24.041631,8.5787964 A 1.1490486 1.1490486 0 1 1  26.339728 8.5787964 z" id="path3453" style="fill:#ffffff;fill-opacity:1.0000000"/><path d="M 26.339728 8.5787964 A 1.1490486 1.1490486 0 1 1  24.041631,8.5787964 A 1.1490486 1.1490486 0 1 1  26.339728 8.5787964 z" id="path3455" style="fill:#000000;fill-opacity:0.11111111" transform="translate(-0.353553,-0.265165)"/></g><g id="g3457" transform="translate(-3.502596,6.000000)"><path d="M 26.339728 8.5787964 A 1.1490486 1.1490486 0 1 1  24.041631,8.5787964 A 1.1490486 1.1490486 0 1 1  26.339728 8.5787964 z" id="path3459" style="fill:#ffffff;fill-opacity:1.0000000"/><path d="M 26.339728 8.5787964 A 1.1490486 1.1490486 0 1 1  24.041631,8.5787964 A 1.1490486 1.1490486 0 1 1  26.339728 8.5787964 z" id="path3461" style="fill:#000000;fill-opacity:0.11111111" transform="translate(-0.353553,-0.265165)"/></g><g id="g3463" transform="translate(1.204508,6.000000)"><path d="M 26.339728 8.5787964 A 1.1490486 1.1490486 0 1 1  24.041631,8.5787964 A 1.1490486 1.1490486 0 1 1  26.339728 8.5787964 z" id="path3465" style="fill:#ffffff;fill-opacity:1.0000000"/><path d="M 26.339728 8.5787964 A 1.1490486 1.1490486 0 1 1  24.041631,8.5787964 A 1.1490486 1.1490486 0 1 1  26.339728 8.5787964 z" id="path3467" style="fill:#000000;fill-opacity:0.11111111" transform="translate(-0.353553,-0.265165)"/></g><g id="g3469" transform="translate(3.204508,12.00000)"><path d="M 26.339728 8.5787964 A 1.1490486 1.1490486 0 1 1  24.041631,8.5787964 A 1.1490486 1.1490486 0 1 1  26.339728 8.5787964 z" id="path3471" style="fill:#ffffff;fill-opacity:1.0000000"/><path d="M 26.339728 8.5787964 A 1.1490486 1.1490486 0 1 1  24.041631,8.5787964 A 1.1490486 1.1490486 0 1 1  26.339728 8.5787964 z" id="path3473" style="fill:#000000;fill-opacity:0.11111111" transform="translate(-0.353553,-0.265165)"/></g><g id="g3475" transform="translate(5.204508,18.00000)"><path d="M 26.339728 8.5787964 A 1.1490486 1.1490486 0 1 1  24.041631,8.5787964 A 1.1490486 1.1490486 0 1 1  26.339728 8.5787964 z" id="path3477" style="fill:#ffffff;fill-opacity:1.0000000"/><path d="M 26.339728 8.5787964 A 1.1490486 1.1490486 0 1 1  24.041631,8.5787964 A 1.1490486 1.1490486 0 1 1  26.339728 8.5787964 z" id="path3479" style="fill:#000000;fill-opacity:0.11111111" transform="translate(-0.353553,-0.265165)"/></g><g id="g3481" transform="translate(7.204508,24.00000)"><path d="M 26.339728 8.5787964 A 1.1490486 1.1490486 0 1 1  24.041631,8.5787964 A 1.1490486 1.1490486 0 1 1  26.339728 8.5787964 z" id="path3483" style="fill:#ffffff;fill-opacity:1.0000000"/><path d="M 26.339728 8.5787964 A 1.1490486 1.1490486 0 1 1  24.041631,8.5787964 A 1.1490486 1.1490486 0 1 1  26.339728 8.5787964 z" id="path3485" style="fill:#000000;fill-opacity:0.11111111" transform="translate(-0.353553,-0.265165)"/></g><g id="g3487" transform="translate(9.204482,30.00000)"><path d="M 26.339728 8.5787964 A 1.1490486 1.1490486 0 1 1  24.041631,8.5787964 A 1.1490486 1.1490486 0 1 1  26.339728 8.5787964 z" id="path3489" style="fill:#ffffff;fill-opacity:1.0000000"/><path d="M 26.339728 8.5787964 A 1.1490486 1.1490486 0 1 1  24.041631,8.5787964 A 1.1490486 1.1490486 0 1 1  26.339728 8.5787964 z" id="path3491" style="fill:#000000;fill-opacity:0.11111111" transform="translate(-0.353553,-0.265165)"/></g><g id="g3493" transform="translate(-5.502618,12.00000)"><path d="M 26.339728 8.5787964 A 1.1490486 1.1490486 0 1 1  24.041631,8.5787964 A 1.1490486 1.1490486 0 1 1  26.339728 8.5787964 z" id="path3495" style="fill:#ffffff;fill-opacity:1.0000000"/><path d="M 26.339728 8.5787964 A 1.1490486 1.1490486 0 1 1  24.041631,8.5787964 A 1.1490486 1.1490486 0 1 1  26.339728 8.5787964 z" id="path3497" style="fill:#000000;fill-opacity:0.11111111" transform="translate(-0.353553,-0.265165)"/></g><g id="g3499" transform="translate(-7.502618,18.00000)"><path d="M 26.339728 8.5787964 A 1.1490486 1.1490486 0 1 1  24.041631,8.5787964 A 1.1490486 1.1490486 0 1 1  26.339728 8.5787964 z" id="path3501" style="fill:#ffffff;fill-opacity:1.0000000"/><path d="M 26.339728 8.5787964 A 1.1490486 1.1490486 0 1 1  24.041631,8.5787964 A 1.1490486 1.1490486 0 1 1  26.339728 8.5787964 z" id="path3503" style="fill:#000000;fill-opacity:0.11111111" transform="translate(-0.353553,-0.265165)"/></g><g id="g3505" transform="translate(-9.502622,24.00000)"><path d="M 26.339728 8.5787964 A 1.1490486 1.1490486 0 1 1  24.041631,8.5787964 A 1.1490486 1.1490486 0 1 1  26.339728 8.5787964 z" id="path3507" style="fill:#ffffff;fill-opacity:1.0000000"/><path d="M 26.339728 8.5787964 A 1.1490486 1.1490486 0 1 1  24.041631,8.5787964 A 1.1490486 1.1490486 0 1 1  26.339728 8.5787964 z" id="path3509" style="fill:#000000;fill-opacity:0.11111111" transform="translate(-0.353553,-0.265165)"/></g><g id="g3511" transform="translate(-11.50263,30.00000)"><path d="M 26.339728 8.5787964 A 1.1490486 1.1490486 0 1 1  24.041631,8.5787964 A 1.1490486 1.1490486 0 1 1  26.339728 8.5787964 z" id="path3513" style="fill:#ffffff;fill-opacity:1.0000000"/><path d="M 26.339728 8.5787964 A 1.1490486 1.1490486 0 1 1  24.041631,8.5787964 A 1.1490486 1.1490486 0 1 1  26.339728 8.5787964 z" id="path3515" style="fill:#000000;fill-opacity:0.11111111" transform="translate(-0.353553,-0.265165)"/></g><path d="M 22.892582,4.8664863 L 35.974058,43.580583 L 40.393475,43.492194 L 40.305087,4.4245445 L 22.892582,4.8664863 z " id="path3517" style="fill:url(#linearGradient3525);fill-opacity:1.0;fill-rule:evenodd;stroke:none;stroke-width:1.0000000px;stroke-linecap:butt;stroke-linejoin:miter;stroke-opacity:1.0000000"/><path d="M 23.864853,5.0432630 L 10.606601,43.050253 L 8.0433396,43.050252 L 8.0433392,5.0432629 L 23.864853,5.0432630 z " id="path3527" style="fill:url(#linearGradient3529);fill-opacity:1.0;fill-rule:evenodd;stroke:none;stroke-width:1.0000000px;stroke-linecap:butt;stroke-linejoin:miter;stroke-opacity:1.0000000"/></g></svg>