<?xml version="1.0" ?><svg height="48px" id="svg1328" width="48px" xmlns="http://www.w3.org/2000/svg" xmlns:cc="http://creativecommons.org/ns#" xmlns:dc="http://purl.org/dc/elements/1.1/" xmlns:inkscape="http://www.inkscape.org/namespaces/inkscape" xmlns:rdf="http://www.w3.org/1999/02/22-rdf-syntax-ns#" xmlns:sodipodi="http://sodipodi.sourceforge.net/DTD/sodipodi-0.dtd" xmlns:svg="http://www.w3.org/2000/svg" xmlns:xlink="http://www.w3.org/1999/xlink"><defs id="defs3"><linearGradient id="linearGradient6932"><stop id="stop6934" offset="0.0000000" style="stop-color:#ffffff;stop-opacity:1.0000000;"/><stop id="stop6936" offset="1.0000000" style="stop-color:#e7e6ae;stop-opacity:1.0000000;"/></linearGradient><linearGradient id="linearGradient6924"><stop id="stop6926" offset="0" style="stop-color:#ffffff;stop-opacity:1;"/><stop id="stop6928" offset="1" style="stop-color:#ffffff;stop-opacity:0;"/></linearGradient><linearGradient id="linearGradient4206"><stop id="stop4208" offset="0.0000000" style="stop-color:#7d4b01;stop-opacity:1.0000000;"/><stop id="stop4210" offset="1.0000000" style="stop-color:#535353;stop-opacity:1.0000000;"/></linearGradient><linearGradient id="linearGradient4176"><stop id="stop4178" offset="0" style="stop-color:#ffffff;stop-opacity:1;"/><stop id="stop4180" offset="1" style="stop-color:#ffffff;stop-opacity:0;"/></linearGradient><linearGradient id="linearGradient4162"><stop id="stop4164" offset="0.0000000" style="stop-color:#f79403;stop-opacity:1.0000000;"/><stop id="stop4170" offset="0.18691589" style="stop-color:#fdb343;stop-opacity:1.0000000;"/><stop id="stop4172" offset="0.43008122" style="stop-color:#fdb74f;stop-opacity:1.0000000;"/><stop id="stop4166" offset="1.0000000" style="stop-color:#8f5601;stop-opacity:1.0000000;"/></linearGradient><linearGradient id="linearGradient4134"><stop id="stop4136" offset="0.0000000" style="stop-color:#7e807a;stop-opacity:1.0000000;"/><stop id="stop4148" offset="0.25000000" style="stop-color:#babbb8;stop-opacity:1.0000000;"/><stop id="stop4142" offset="0.50000000" style="stop-color:#a5a6a3;stop-opacity:1.0000000;"/><stop id="stop4138" offset="1.0000000" style="stop-color:#333432;stop-opacity:1.0000000;"/></linearGradient><linearGradient id="linearGradient4126"><stop id="stop4128" offset="0" style="stop-color:#000000;stop-opacity:1;"/><stop id="stop4130" offset="1" style="stop-color:#000000;stop-opacity:0;"/></linearGradient><radialGradient cx="23.857143" cy="40.000000" fx="23.857143" fy="40.000000" gradientTransform="matrix(1.000000,0.000000,0.000000,0.500000,-7.259031e-15,20.00000)" gradientUnits="userSpaceOnUse" id="radialGradient4132" r="17.142857" xlink:href="#linearGradient4126"/><linearGradient gradientTransform="translate(-1.142857e-6,-1.714284)" gradientUnits="userSpaceOnUse" id="linearGradient4140" x1="9.3030529" x2="38.826412" xlink:href="#linearGradient4134" y1="26.718750" y2="26.718750"/><linearGradient gradientUnits="userSpaceOnUse" id="linearGradient4160" x1="24.000000" x2="24.000000" xlink:href="#linearGradient6932" y1="16.525082" y2="13.284962"/><linearGradient gradientTransform="translate(-1.142857e-6,-1.714284)" gradientUnits="userSpaceOnUse" id="linearGradient4168" x1="10.116071" x2="38.013393" xlink:href="#linearGradient4162" y1="17.511776" y2="17.511776"/><linearGradient gradientTransform="translate(-1.142857e-6,-1.714284)" gradientUnits="userSpaceOnUse" id="linearGradient4182" x1="17.160095" x2="37.969398" xlink:href="#linearGradient4176" y1="14.004482" y2="56.575912"/><linearGradient gradientTransform="translate(-1.142857e-6,-1.714284)" gradientUnits="userSpaceOnUse" id="linearGradient4198" x1="25.064732" x2="25.207588" xlink:href="#linearGradient4206" y1="21.857143" y2="25.428572"/><linearGradient gradientTransform="translate(-0.142857,0.928571)" gradientUnits="userSpaceOnUse" id="linearGradient6930" x1="16.071430" x2="15.785715" xlink:href="#linearGradient6924" y1="19.500000" y2="30.000000"/><linearGradient gradientUnits="userSpaceOnUse" id="linearGradient6942" x1="24.000000" x2="24.000000" xlink:href="#linearGradient6932" y1="16.525082" y2="13.284962"/><radialGradient cx="23.857143" cy="40.000000" fx="23.857143" fy="40.000000" gradientTransform="matrix(1.000000,0.000000,0.000000,0.500000,-4.403648e-15,20.00000)" gradientUnits="userSpaceOnUse" id="radialGradient6946" r="17.142857" xlink:href="#linearGradient4126"/></defs><g id="layer1"><path d="M 41.000000 40.000000 A 17.142857 8.5714283 0 1 1  6.7142868,40.000000 A 17.142857 8.5714283 0 1 1  41.000000 40.000000 z" id="path3366" style="opacity:1.0000000;color:#000000;fill:url(#radialGradient4132);fill-opacity:1.0000000;fill-rule:nonzero;stroke:none;stroke-width:1.0000000;stroke-linecap:butt;stroke-linejoin:miter;marker:none;marker-start:none;marker-mid:none;marker-end:none;stroke-miterlimit:10.000000;stroke-dasharray:none;stroke-dashoffset:0.0000000;stroke-opacity:1.0000000;visibility:visible;display:block;overflow:visible" transform="matrix(1.058752,0.000000,0.000000,1.151259,-1.115944,-10.27691)"/><path d="M 23.937499,7.1919650 C 16.078072,7.1919650 9.6874997,9.9944659 9.6874987,13.441966 C 9.6874987,13.689351 9.6874987,36.309326 9.6874987,36.566966 C 9.6874987,40.014467 16.078071,42.816966 23.937499,42.816966 C 31.796927,42.816966 38.441965,40.014466 38.441963,36.566966 C 38.441963,36.362905 38.441963,13.646027 38.441963,13.441966 C 38.441963,9.9944649 31.796926,7.1919650 23.937499,7.1919650 z " id="path3068" style="opacity:1.0000000;color:#000000;fill:url(#linearGradient4140);fill-opacity:1.0000000;fill-rule:nonzero;stroke:url(#linearGradient4198);stroke-width:1.0000000;stroke-linecap:butt;stroke-linejoin:miter;marker:none;marker-start:none;marker-mid:none;marker-end:none;stroke-miterlimit:10.000000;stroke-dasharray:none;stroke-dashoffset:0.0000000;stroke-opacity:1.0000000;visibility:visible;display:block;overflow:visible"/><path d="M 23.941292,7.4484874 C 16.316147,7.4484874 10.116071,10.167450 10.116070,13.512182 C 10.116070,13.752193 10.116070,19.820066 10.116070,20.070026 C 10.116070,23.414760 16.316146,25.717924 23.941292,25.717924 C 31.566438,25.717924 38.013394,23.414760 38.013392,20.070026 C 38.013392,19.872048 38.013392,13.710160 38.013392,13.512182 C 38.013392,10.167449 31.566437,7.4484874 23.941292,7.4484874 z " id="path4152" style="opacity:1.0000000;color:#000000;fill:url(#linearGradient4168);fill-opacity:1.0000000;fill-rule:nonzero;stroke:none;stroke-width:0.76899999;stroke-linecap:butt;stroke-linejoin:miter;marker:none;marker-start:none;marker-mid:none;marker-end:none;stroke-miterlimit:10.000000;stroke-dasharray:none;stroke-dashoffset:0.0000000;stroke-opacity:1.0000000;visibility:visible;display:block;overflow:visible"/><path d="M 23.946122,7.9712859 C 16.618364,7.9712859 10.660096,10.584206 10.660095,13.798491 C 10.660095,14.029142 10.660095,35.684551 10.660095,35.924762 C 10.660095,39.139049 16.618363,41.751967 23.946122,41.751967 C 31.273880,41.751967 37.469399,39.139048 37.469397,35.924762 C 37.469397,35.734506 37.469397,13.988749 37.469397,13.798491 C 37.469397,10.584205 31.273879,7.9712859 23.946122,7.9712859 z " id="path4174" style="opacity:0.54430377;color:#000000;fill:none;fill-opacity:1.0000000;fill-rule:nonzero;stroke:url(#linearGradient4182);stroke-width:1.0000000;stroke-linecap:butt;stroke-linejoin:miter;marker:none;marker-start:none;marker-mid:none;marker-end:none;stroke-miterlimit:10.000000;stroke-dasharray:none;stroke-dashoffset:0.0000000;stroke-opacity:1.0000000;visibility:visible;display:block;overflow:visible"/><path d="M 36.857142 14.071428 A 12.857142 5.5000000 0 1 1  11.142858,14.071428 A 12.857142 5.5000000 0 1 1  36.857142 14.071428 z" id="path3364" style="opacity:1.0000000;color:#000000;fill:#fed496;fill-opacity:1.0000000;fill-rule:nonzero;stroke:url(#linearGradient4160);stroke-width:1.0049270;stroke-linecap:butt;stroke-linejoin:miter;marker:none;marker-start:none;marker-mid:none;marker-end:none;stroke-miterlimit:10.000000;stroke-dasharray:none;stroke-dashoffset:0.0000000;stroke-opacity:1.0000000;visibility:visible;display:block;overflow:visible" transform="matrix(1.037291,0.000000,0.000000,0.954619,-0.894979,-7.572056e-2)"/><path d="M 41.000000 40.000000 A 17.142857 8.5714283 0 1 1  6.7142868,40.000000 A 17.142857 8.5714283 0 1 1  41.000000 40.000000 z" id="path6944" style="overflow:visible;display:block;visibility:visible;stroke-opacity:1.0000000;stroke-dashoffset:0.0000000;stroke-dasharray:none;stroke-miterlimit:10.000000;marker-end:none;marker-mid:none;marker-start:none;marker:none;stroke-linejoin:miter;stroke-linecap:butt;stroke-width:1.0000000;stroke:none;fill-rule:nonzero;fill-opacity:1.0000000;fill:url(#radialGradient6946);color:#000000;opacity:0.65822785" transform="matrix(0.363430,0.000000,0.000000,0.363430,15.47247,-4.118577)"/><path d="M 23.889443,6.4653480 C 21.886649,6.4653480 19.258159,7.1795010 19.258159,8.0580170 C 19.258159,8.1210570 19.258159,10.622022 19.258159,10.687676 C 19.258159,11.566192 21.886649,12.280345 23.889443,12.280345 C 25.892238,12.280345 28.299859,11.566192 28.299858,10.687676 C 28.299858,10.635676 28.299858,8.1100170 28.299858,8.0580170 C 28.299858,7.1795000 25.892238,6.4653480 23.889443,6.4653480 z " id="path3362" style="opacity:1.0000000;color:#000000;fill:#fcaf3e;fill-opacity:1.0000000;fill-rule:nonzero;stroke:#b46c02;stroke-width:1.0000000;stroke-linecap:butt;stroke-linejoin:miter;marker:none;marker-start:none;marker-mid:none;marker-end:none;stroke-miterlimit:10.000000;stroke-dasharray:none;stroke-dashoffset:0.0000000;stroke-opacity:1.0000000;visibility:visible;display:block;overflow:visible"/><path d="M 13.642858,17.999999 L 14.000000,34.785714 L 18.571429,36.071428 L 18.428572,19.357142 C 18.428572,19.357142 20.500000,19.357142 23.857143,19.142856 C 18.641400,18.909783 12.673770,16.668176 10.642858,15.214285 C 12.059757,17.306461 13.642858,17.999999 13.642858,17.999999 z " id="path6922" style="opacity:0.49367085;color:#000000;fill:url(#linearGradient6930);fill-opacity:1.0000000;fill-rule:nonzero;stroke:none;stroke-width:1.0000000;stroke-linecap:butt;stroke-linejoin:miter;marker:none;marker-start:none;marker-mid:none;marker-end:none;stroke-miterlimit:4.0000000;stroke-dasharray:none;stroke-dashoffset:0.0000000;stroke-opacity:1.0000000;visibility:visible;display:block;overflow:visible"/><path d="M 36.857142 14.071428 A 12.857142 5.5000000 0 1 1  11.142858,14.071428 A 12.857142 5.5000000 0 1 1  36.857142 14.071428 z" id="path6940" style="opacity:1.0000000;color:#000000;fill:#fed496;fill-opacity:1.0000000;fill-rule:nonzero;stroke:url(#linearGradient6942);stroke-width:4.1198664;stroke-linecap:butt;stroke-linejoin:miter;marker:none;marker-start:none;marker-mid:none;marker-end:none;stroke-miterlimit:10.000000;stroke-dasharray:none;stroke-dashoffset:0.0000000;stroke-opacity:1.0000000;visibility:visible;display:block;overflow:visible" transform="matrix(0.271979,0.000000,0.000000,0.216619,17.27048,5.409742)"/></g><g id="layer2"/></svg>