<?xml version="1.0" ?><svg height="48" id="svg1" version="1.0" width="48" xmlns="http://www.w3.org/2000/svg" xmlns:cc="http://creativecommons.org/ns#" xmlns:dc="http://purl.org/dc/elements/1.1/" xmlns:inkscape="http://www.inkscape.org/namespaces/inkscape" xmlns:rdf="http://www.w3.org/1999/02/22-rdf-syntax-ns#" xmlns:sodipodi="http://sodipodi.sourceforge.net/DTD/sodipodi-0.dtd" xmlns:svg="http://www.w3.org/2000/svg" xmlns:xlink="http://www.w3.org/1999/xlink"><defs id="defs3"><linearGradient id="linearGradient3111"><stop id="stop3113" offset="0" style="stop-color:#ffffff;stop-opacity:1;"/><stop id="stop3115" offset="1" style="stop-color:#ffffff;stop-opacity:0;"/></linearGradient><linearGradient id="linearGradient3101"><stop id="stop3103" offset="0" style="stop-color:#000000;stop-opacity:1;"/><stop id="stop3105" offset="1" style="stop-color:#000000;stop-opacity:0;"/></linearGradient><linearGradient id="linearGradient118"><stop id="stop119" offset="0.0000000" style="stop-color:#f5a108;stop-opacity:0.0000000;"/><stop id="stop120" offset="1.0000000" style="stop-color:#fefdc3;stop-opacity:0.74251497;"/></linearGradient><linearGradient gradientTransform="scale(1.365022,0.732589)" gradientUnits="userSpaceOnUse" id="linearGradient117" x1="13.567193" x2="7.5337296" xlink:href="#linearGradient6621" y1="21.47023" y2="8.8090458"/><linearGradient id="linearGradient6621"><stop id="stop6622" offset="0.0000000" style="stop-color:#f5a108;stop-opacity:0.0000000;"/><stop id="stop6623" offset="1.0000000" style="stop-color:#fefdc3;stop-opacity:0.74251497;"/></linearGradient><linearGradient gradientTransform="matrix(0.946979,0.000000,0.000000,0.487322,3.734953,4.049714)" gradientUnits="userSpaceOnUse" id="linearGradient7881" x1="22.819513" x2="12.849945" xlink:href="#linearGradient6621" y1="28.829224" y2="12.239423"/><linearGradient gradientTransform="matrix(2.012297,0.000000,0.000000,1.079974,0.835129,-1.340661)" gradientUnits="userSpaceOnUse" id="linearGradient1697" x1="11.355036" x2="6.3578372" xlink:href="#linearGradient6621" y1="32.756931" y2="6.1003184"/><linearGradient gradientTransform="matrix(2.151235,0.000000,0.000000,1.154539,-0.778091,-3.220331)" gradientUnits="userSpaceOnUse" id="linearGradient121" x1="18.711395" x2="11.413211" xlink:href="#linearGradient6621" y1="34.807064" y2="31.452499"/><radialGradient cx="17.3125" cy="25.53125" fx="17.3125" fy="25.53125" gradientTransform="matrix(1.000000,0.000000,0.000000,0.351613,9.380517e-16,16.55413)" gradientUnits="userSpaceOnUse" id="radialGradient3107" r="9.6875" xlink:href="#linearGradient3101"/><linearGradient gradientTransform="matrix(0.903401,0.000000,0.000000,0.903401,2.335437,2.177737)" gradientUnits="userSpaceOnUse" id="linearGradient3117" x1="34.797703" x2="17.444614" xlink:href="#linearGradient3111" y1="29.173397" y2="-6.8890476"/></defs><path d="M 27 25.53125 A 9.6875 3.40625 0 1 1  7.625,25.53125 A 9.6875 3.40625 0 1 1  27 25.53125 z" id="path3099" style="opacity:0.40909091;color:#000000;fill:url(#radialGradient3107);fill-opacity:1;fill-rule:nonzero;stroke:none;stroke-width:1.10533953;stroke-linecap:butt;stroke-linejoin:miter;marker:none;marker-start:none;marker-mid:none;marker-end:none;stroke-miterlimit:4;stroke-dasharray:none;stroke-dashoffset:0;stroke-opacity:1;visibility:visible;display:inline;overflow:visible" transform="matrix(2.182912,0.000000,0.000000,2.182912,-13.52704,-17.29028)"/><path d="M 22.261974,36.308953 C 22.319549,36.222659 23.258748,37.420744 23.258748,37.420744 C 27.376818,32.94006 37.887671,24.568121 40.754981,17.585916 C 34.956432,24.017034 25.482321,34.363325 22.261974,36.308953 z " id="path5378" style="fill:#d4572d;fill-opacity:1;fill-rule:evenodd;stroke:none;stroke-width:1pt;stroke-linecap:butt;stroke-linejoin:miter;stroke-opacity:1"/><path d="M 15.165635,7.4843984 C 10.367349,7.2482186 8.1319642,10.330635 6.9227946,13.262905 C 5.7228453,17.12432 7.4190682,24.417626 15.731363,23.862782 C 20.472655,23.862782 22.35715,19.000527 24.852467,17.738312 C 27.120242,16.880853 27.298725,16.80411 29.694665,16.80411 C 33.024276,16.80411 39.045484,14.394449 39.045485,12.003505 C 38.022041,10.084917 35.304933,6.6682093 30.312072,7.2505473 C 27.133914,7.6204422 24.127187,9.8922149 23.341787,11.022656 C 21.41782,9.3256958 18.961206,7.4843984 15.165635,7.4843984 z " id="path7876" style="fill:url(#linearGradient7881);fill-opacity:1;fill-rule:evenodd;stroke:none;stroke-width:1pt;stroke-linecap:butt;stroke-linejoin:miter;stroke-opacity:1"/><path d="M 23.924948,9.0032158 C 32.227971,0.70019061 43.638272,8.3531236 43.563217,16.227494 C 43.494602,23.426038 38.008283,26.873511 24.225169,39.677567 C 9.7983996,27.766131 4.7153311,25.019309 4.7903867,16.478476 C 4.8654422,7.6374205 14.633621,1.0021667 23.924948,9.0032158 z " id="path920" style="fill:#c71807;fill-opacity:1;fill-rule:evenodd;stroke:#820000;stroke-width:1.00000012;stroke-linecap:butt;stroke-linejoin:miter;stroke-miterlimit:4;stroke-dasharray:none;stroke-opacity:1"/><path d="M 5.0781932,16.188619 C 4.8602033,23.368557 5.8728347,22.230971 7.702467,24.505643 C 9.5011547,26.741844 17.344378,25.334403 24.384714,18.69633 C 31.50914,11.97897 38.771295,15.781074 42.291599,12.040936 C 39.669103,7.5441045 31.483974,2.0956372 23.948408,9.6457059 C 14.291385,0.91854006 5.2961831,8.9288309 5.0781932,16.188619 z " id="path922" style="opacity:0.625;fill:url(#linearGradient1697);fill-opacity:1;fill-rule:evenodd;stroke:none;stroke-width:1pt;stroke-linecap:butt;stroke-linejoin:miter;stroke-opacity:1"/><path d="M 24.022024,10.249144 C 31.916622,1.7157434 42.705886,8.8450321 42.635965,16.180607 C 42.572046,22.886598 37.061872,26.577281 24.221854,38.505233 C 10.782221,27.408824 5.647706,24.4507 5.717626,16.494266 C 5.787546,8.2581504 15.366447,1.7575067 24.022024,10.249144 z " id="path3109" style="opacity:0.39204544;fill:none;fill-opacity:1;fill-rule:evenodd;stroke:url(#linearGradient3117);stroke-width:1.00000072;stroke-linecap:butt;stroke-linejoin:miter;stroke-miterlimit:4;stroke-dasharray:none;stroke-opacity:1"/></svg>