<?xml version="1.0" ?><svg height="48px" id="svg4654" width="48px" xmlns="http://www.w3.org/2000/svg" xmlns:cc="http://creativecommons.org/ns#" xmlns:dc="http://purl.org/dc/elements/1.1/" xmlns:inkscape="http://www.inkscape.org/namespaces/inkscape" xmlns:rdf="http://www.w3.org/1999/02/22-rdf-syntax-ns#" xmlns:sodipodi="http://sodipodi.sourceforge.net/DTD/sodipodi-0.dtd" xmlns:svg="http://www.w3.org/2000/svg" xmlns:xlink="http://www.w3.org/1999/xlink"><defs id="defs3"><linearGradient id="linearGradient12270"><stop id="stop12272" offset="0.0000000" style="stop-color:#acacac;stop-opacity:1.0000000;"/><stop id="stop12274" offset="1.0000000" style="stop-color:#8d8d8d;stop-opacity:0.0000000;"/></linearGradient><linearGradient id="linearGradient11950"><stop id="stop11952" offset="0.0000000" style="stop-color:#ffffff;stop-opacity:1.0000000;"/><stop id="stop11954" offset="1.0000000" style="stop-color:#a9a9a9;stop-opacity:1.0000000;"/></linearGradient><linearGradient id="linearGradient11937"><stop id="stop11939" offset="0.0000000" style="stop-color:#fd6c05;stop-opacity:1.0000000;"/><stop id="stop11941" offset="1.0000000" style="stop-color:#b41111;stop-opacity:1.0000000;"/></linearGradient><linearGradient id="linearGradient11635"><stop id="stop11637" offset="0" style="stop-color:#ffffff;stop-opacity:1;"/><stop id="stop11639" offset="1" style="stop-color:#ffffff;stop-opacity:0;"/></linearGradient><linearGradient id="linearGradient11621"><stop id="stop11623" offset="0.0000000" style="stop-color:#b1b1b1;stop-opacity:1.0000000;"/><stop id="stop11629" offset="0.20000000" style="stop-color:#dfdfdf;stop-opacity:1.0000000;"/><stop id="stop11625" offset="1.0000000" style="stop-color:#565656;stop-opacity:1.0000000;"/></linearGradient><linearGradient id="linearGradient11607"><stop id="stop11609" offset="0" style="stop-color:#000000;stop-opacity:1;"/><stop id="stop11611" offset="1" style="stop-color:#000000;stop-opacity:0;"/></linearGradient><linearGradient id="linearGradient11597"><stop id="stop11599" offset="0.0000000" style="stop-color:#ffffff;stop-opacity:1.0000000;"/><stop id="stop11643" offset="0.37333333" style="stop-color:#d9d9d9;stop-opacity:1.0000000;"/><stop id="stop11964" offset="0.60311109" style="stop-color:#c5c5c5;stop-opacity:1.0000000;"/><stop id="stop11601" offset="1.0000000" style="stop-color:#909090;stop-opacity:1.0000000;"/></linearGradient><radialGradient cx="24.344677" cy="32.342636" fx="24.344677" fy="32.342636" gradientTransform="matrix(1,0,0,0.619469,2.818492e-15,12.30737)" gradientUnits="userSpaceOnUse" id="radialGradient11613" r="22.829447" xlink:href="#linearGradient11607"/><linearGradient gradientUnits="userSpaceOnUse" id="linearGradient11627" x1="23.991123" x2="23.991123" xlink:href="#linearGradient11621" y1="6.5837460" y2="15.069027"/><linearGradient gradientTransform="matrix(0.771415,0,0,1,5.848417,1)" gradientUnits="userSpaceOnUse" id="linearGradient11641" x1="10.807498" x2="16.002489" xlink:href="#linearGradient11635" y1="2.4829133" y2="56.399807"/><radialGradient cx="25.754154" cy="46.026909" fx="25.754154" fy="46.026909" gradientTransform="matrix(0.840529,0,0,0.367351,4.170553,27.37887)" gradientUnits="userSpaceOnUse" id="radialGradient11943" r="6.4192040" xlink:href="#linearGradient11937"/><linearGradient gradientUnits="userSpaceOnUse" id="linearGradient11958" x1="23.991123" x2="23.991123" xlink:href="#linearGradient11950" y1="12.830256" y2="7.1877394"/><radialGradient cx="20.588579" cy="14.245288" fx="20.588579" fy="14.245288" gradientTransform="matrix(1.866374,-5.50505e-25,1.638067e-24,2.305134,-16.99169,-19.0131)" gradientUnits="userSpaceOnUse" id="radialGradient12258" r="13.261548" xlink:href="#linearGradient11597"/><linearGradient gradientTransform="matrix(0.840529,0,0,1,4.170553,0)" gradientUnits="userSpaceOnUse" id="linearGradient12278" x1="35.743351" x2="36.543125" xlink:href="#linearGradient12270" y1="4.3750000" y2="-1.0000000"/></defs><g id="layer1"><path d="M 47.174124 32.342636 A 22.829447 14.142136 0 1 1  1.5152302,32.342636 A 22.829447 14.142136 0 1 1  47.174124 32.342636 z" id="path11605" style="opacity:1;color:#000000;fill:url(#radialGradient11613);fill-opacity:1;fill-rule:evenodd;stroke:none;stroke-width:1;stroke-linecap:butt;stroke-linejoin:miter;marker:none;marker-start:none;marker-mid:none;marker-end:none;stroke-miterlimit:4;stroke-dasharray:none;stroke-dashoffset:0;stroke-opacity:1;visibility:visible;display:inline;overflow:visible" transform="matrix(0.684189,0,0,1.241071,7.976598,-9.19101)"/><path d="M 23.922984,10.5 C 20.560868,3 22.031794,1.75 28.966158,3.75 C 35.754648,5.7079269 43.465284,14 42.834887,5.25 C 42.167034,-4.0199067 33.378936,-8.7500001 33.378936,-8.7500001" id="path12260" style="fill:none;fill-opacity:0.75;fill-rule:evenodd;stroke:url(#linearGradient12278);stroke-width:1.00000036;stroke-linecap:butt;stroke-linejoin:miter;stroke-miterlimit:4;stroke-dasharray:none;stroke-opacity:1"/><path d="M 9.9398834,27.131191 C 7.483519,38.037747 14.640836,45.541488 25.387143,45.541488 C 36.017144,45.541488 41.302038,36.850884 39.112978,27.131191 L 35.623358,14.116623 C 35.216237,12.293633 34.346812,11.710736 33.762229,11.512351 C 28.039313,8.9428257 19.976755,8.8189808 14.94167,11.512351 C 14.301906,11.859589 13.836623,11.859587 13.371341,13.59577 L 9.9398834,27.131191 z " id="path11595" style="fill:url(#radialGradient12258);fill-opacity:1;fill-rule:evenodd;stroke:#4f4f4f;stroke-width:1.00000072;stroke-linecap:butt;stroke-linejoin:miter;stroke-miterlimit:4;stroke-dasharray:none;stroke-opacity:1"/><g id="g11960" transform="matrix(0.840529,0,0,1,4.170553,1)"><path d="M 8.5736698,22.948218 C 16.805824,17.644917 29.854661,17.038826 38.524694,22.342126 C 30.832368,18.464709 17.818978,17.99819 8.5736698,22.948218 z " id="path11948" style="fill:#ffffff;fill-opacity:0.79661016;fill-rule:evenodd;stroke:none;stroke-width:1px;stroke-linecap:butt;stroke-linejoin:miter;stroke-opacity:1"/><path d="M 8.7504465,22.72725 C 17.380348,16.495871 30.031438,16.42011 38.436306,22.25374 C 30.655591,17.580828 17.686395,17.291086 8.7504465,22.72725 z " id="path11615" style="fill:#000000;fill-opacity:0.25988704;fill-rule:evenodd;stroke:none;stroke-width:1px;stroke-linecap:butt;stroke-linejoin:miter;stroke-opacity:1"/></g><path d="M 26.162951 11.331463 A 2.171828 4.7477169 0 1 1  21.819295,11.331463 A 2.171828 4.7477169 0 1 1  26.162951 11.331463 z" id="path11617" style="opacity:1;color:#000000;fill:url(#linearGradient11958);fill-opacity:1;fill-rule:evenodd;stroke:none;stroke-width:1.0000006;stroke-linecap:butt;stroke-linejoin:miter;marker:none;marker-start:none;marker-mid:none;marker-end:none;stroke-miterlimit:4;stroke-dasharray:none;stroke-dashoffset:0;stroke-opacity:1;visibility:visible;display:inline;overflow:visible;font-family:Bitstream Vera Sans" transform="matrix(1.666343,0,0,1.417807,-15.70639,0.347873)"/><path d="M 10.487085,28.908148 C 9.0791208,37.36856 15.125142,44.574367 25.45902,44.574367 C 35.792841,44.574367 39.747732,35.876461 38.573011,28.908148 L 34.847875,14.950287 C 34.538773,12.75438 33.628272,12.542565 33.089039,12.330979 C 27.237519,10.034947 20.414901,9.8455289 15.647667,12.330979 C 15.050261,12.642443 14.555416,12.524067 14.192413,14.108229 L 10.487085,28.908148 z " id="path11633" style="fill:none;fill-opacity:1;fill-rule:evenodd;stroke:url(#linearGradient11641);stroke-width:1.00000024;stroke-linecap:butt;stroke-linejoin:miter;stroke-miterlimit:4;stroke-dasharray:none;stroke-opacity:1"/><path d="M 26.162951 11.331463 A 2.171828 4.7477169 0 1 1  21.819295,11.331463 A 2.171828 4.7477169 0 1 1  26.162951 11.331463 z" id="path11619" style="opacity:1;color:#000000;fill:url(#linearGradient11627);fill-opacity:1;fill-rule:evenodd;stroke:#595959;stroke-width:0.5453732;stroke-linecap:butt;stroke-linejoin:miter;marker:none;marker-start:none;marker-mid:none;marker-end:none;stroke-miterlimit:4;stroke-dasharray:none;stroke-dashoffset:0;stroke-opacity:1;visibility:visible;display:inline;overflow:visible;font-family:Bitstream Vera Sans" transform="matrix(0.840529,0,0,1,4.085647,2.742517)"/><path d="M 26.162951 11.331463 A 2.171828 4.7477169 0 1 1  21.819295,11.331463 A 2.171828 4.7477169 0 1 1  26.162951 11.331463 z" id="path11631" style="opacity:1;color:#000000;fill:#ffffff;fill-opacity:0.33333333;fill-rule:evenodd;stroke:none;stroke-width:1.0000006;stroke-linecap:butt;stroke-linejoin:miter;marker:none;marker-start:none;marker-mid:none;marker-end:none;stroke-miterlimit:4;stroke-dasharray:none;stroke-dashoffset:0;stroke-opacity:1;visibility:visible;display:inline;overflow:visible;font-family:Bitstream Vera Sans" transform="matrix(0.234565,0,0,0.542553,17.98658,6.360322)"/></g></svg>