<?xml version="1.0" ?><svg height="48" id="svg79606" version="1.0" width="48" xmlns="http://www.w3.org/2000/svg" xmlns:cc="http://creativecommons.org/ns#" xmlns:dc="http://purl.org/dc/elements/1.1/" xmlns:inkscape="http://www.inkscape.org/namespaces/inkscape" xmlns:rdf="http://www.w3.org/1999/02/22-rdf-syntax-ns#" xmlns:sodipodi="http://sodipodi.sourceforge.net/DTD/sodipodi-0.dtd" xmlns:svg="http://www.w3.org/2000/svg" xmlns:xlink="http://www.w3.org/1999/xlink"><defs id="defs79608"><linearGradient id="linearGradient5783"><stop id="stop5785" offset="0" style="stop-color:#d3d7cf;stop-opacity:1;"/><stop id="stop5791" offset="0.5" style="stop-color:#f5f5f5;stop-opacity:1;"/><stop id="stop5787" offset="1" style="stop-color:#bebebe;stop-opacity:1;"/></linearGradient><linearGradient id="linearGradient3558"><stop id="stop3560" offset="0" style="stop-color:#000000;stop-opacity:1;"/><stop id="stop3562" offset="1" style="stop-color:#000000;stop-opacity:0;"/></linearGradient><radialGradient cx="21.761711" cy="23.07144" fx="21.761711" fy="23.07144" gradientTransform="matrix(0.977282,3.554943e-8,-8.305337e-10,0.651376,-0.79443,15.82896)" gradientUnits="userSpaceOnUse" id="radialGradient3564" r="15.571428" xlink:href="#linearGradient3558"/><linearGradient gradientUnits="userSpaceOnUse" id="linearGradient5789" x1="23.505953" x2="20.604948" xlink:href="#linearGradient5783" y1="5.7753429" y2="29.85923"/></defs><g id="layer1"><g id="g3902"><path d="M 21.326337,9.3278633 L 10.449186,27.94227 C 8.5266861,31.23365 9.6775753,35.481172 13.008091,37.38221 L 15.102397,38.579075 C 18.434077,40.480111 22.732254,39.341738 24.655919,36.05036 L 36.41168,15.928621 C 38.335346,12.636117 37.625044,8.6405654 34.835356,7.0477444 C 32.045435,5.4549233 28.187846,6.8452672 26.265346,10.137772 L 18.109581,24.099704 C 16.186149,27.391081 15.978909,30.871442 17.647547,31.836583 C 19.317351,32.799475 22.257398,30.893938 24.179898,27.602558 L 28.142388,20.81957" id="path7057" style="fill:none;stroke:#888a85;stroke-width:3.00000024;stroke-linecap:round;stroke-linejoin:round;stroke-miterlimit:4;stroke-dasharray:none" transform="translate(0.494048,1.056164)"/><path d="M 21.326337,9.2155349 L 10.449186,27.829941 C 8.5266861,31.121321 9.6775753,35.368843 13.008091,37.269881 L 15.102397,38.466746 C 18.434077,40.367782 22.732254,39.229409 24.655919,35.938031 L 36.41168,15.816292 C 38.335346,12.523788 37.625044,8.528237 34.835356,6.935416 C 32.045435,5.3425949 28.187846,6.7329388 26.265346,10.025444 L 18.109581,23.987375 C 16.186149,27.278752 15.978909,30.759113 17.647547,31.724254 C 19.317351,32.687146 22.257398,30.781609 24.179898,27.490229 L 28.142388,20.707241" id="path7053" style="fill:none;stroke:url(#linearGradient5789);stroke-width:1;stroke-linecap:round;stroke-linejoin:round;stroke-miterlimit:4;stroke-dasharray:none" transform="translate(0.494048,1.168493)"/></g><path d="M 38.142857 30.857143 A 15.571428 10.142858 0 1 1  7,30.857143 A 15.571428 10.142858 0 1 1  38.142857 30.857143 z" id="path3556" style="opacity:0.25;color:#000000;fill:url(#radialGradient3564);fill-opacity:1;fill-rule:nonzero;stroke:none;stroke-width:1;stroke-linecap:round;stroke-linejoin:round;marker:none;marker-start:none;marker-mid:none;marker-end:none;stroke-miterlimit:4;stroke-dasharray:none;stroke-dashoffset:0;stroke-opacity:1;visibility:visible;display:inline;overflow:visible" transform="matrix(1.316514,0,0,0.246479,-2.215601,33.89436)"/></g></svg>