<?xml version="1.0" ?><svg height="48px" id="svg11300" width="48px" xmlns="http://www.w3.org/2000/svg" xmlns:cc="http://creativecommons.org/ns#" xmlns:dc="http://purl.org/dc/elements/1.1/" xmlns:inkscape="http://www.inkscape.org/namespaces/inkscape" xmlns:rdf="http://www.w3.org/1999/02/22-rdf-syntax-ns#" xmlns:sodipodi="http://sodipodi.sourceforge.net/DTD/sodipodi-0.dtd" xmlns:svg="http://www.w3.org/2000/svg" xmlns:xlink="http://www.w3.org/1999/xlink"><defs id="defs3"><linearGradient id="linearGradient10020"><stop id="stop10022" offset="0" style="stop-color:#ffffff;stop-opacity:1;"/><stop id="stop10024" offset="1" style="stop-color:#ffffff;stop-opacity:0;"/></linearGradient><linearGradient id="linearGradient2456"><stop id="stop2458" offset="0" style="stop-color:#000000;stop-opacity:1;"/><stop id="stop2460" offset="1" style="stop-color:#000000;stop-opacity:0;"/></linearGradient><radialGradient cx="28.283663" cy="47.400623" fx="28.283663" fy="47.400623" gradientTransform="scale(1.164226,0.85894)" gradientUnits="userSpaceOnUse" id="radialGradient2462" r="13.804391" xlink:href="#linearGradient2456"/><linearGradient id="linearGradient6687"><stop id="stop6689" offset="0" style="stop-color:#ffffff;stop-opacity:1;"/><stop id="stop6691" offset="1" style="stop-color:#ffffff;stop-opacity:0;"/></linearGradient><linearGradient id="linearGradient6719"><stop id="stop6721" offset="0" style="stop-color:#73d216;stop-opacity:1;"/><stop id="stop6723" offset="1.0000000" style="stop-color:#d5f7b3;stop-opacity:1.0000000;"/></linearGradient><linearGradient id="linearGradient6711"><stop id="stop6713" offset="0.0000000" style="stop-color:#5b8ccb;stop-opacity:1.0000000;"/><stop id="stop6715" offset="1.0000000" style="stop-color:#3465a4;stop-opacity:1.0000000;"/></linearGradient><linearGradient id="linearGradient6699"><stop id="stop6701" offset="0.0000000" style="stop-color:#ff7171;stop-opacity:1.0000000;"/><stop id="stop6703" offset="1.0000000" style="stop-color:#cc0000;stop-opacity:1.0000000;"/></linearGradient><linearGradient id="linearGradient9214"><stop id="stop9216" offset="0" style="stop-color:#5b5b5b;stop-opacity:1;"/><stop id="stop9218" offset="1" style="stop-color:#5b5b5b;stop-opacity:0;"/></linearGradient><linearGradient gradientUnits="userSpaceOnUse" id="aigrd5" x1="27.2949" x2="20.9453" y1="25.4727" y2="11.0039"><stop id="stop13012" offset="0" style="stop-color:#f5f5f5;stop-opacity:1;"/><stop id="stop13014" offset="1" style="stop-color:#e1e1e1;stop-opacity:1;"/></linearGradient><linearGradient gradientTransform="matrix(1.868867,0,0,1.5088,-20.39097,-10.01652)" gradientUnits="userSpaceOnUse" id="linearGradient1553" x1="27.2949" x2="20.9453" xlink:href="#aigrd5" y1="25.4727" y2="11.0039"/><linearGradient gradientUnits="userSpaceOnUse" id="aigrd6" x1="24.6035" x2="24.6035" y1="9.3433" y2="10.4377"><stop id="stop13035" offset="0" style="stop-color:#F0F0F0"/><stop id="stop13037" offset="1" style="stop-color:#686868"/></linearGradient><radialGradient cx="24.7744" cy="30.9912" fx="24.7744" fy="30.9912" gradientUnits="userSpaceOnUse" id="aigrd7" r="0.5902"><stop id="stop13046" offset="0" style="stop-color:#F0F0F0"/><stop id="stop13048" offset="1" style="stop-color:#848484"/></radialGradient><radialGradient cx="24.7744" cy="30.9912" fx="24.7744" fy="30.9912" gradientTransform="matrix(3.502527,0,0,3.502527,-61.93009,-72.87696)" gradientUnits="userSpaceOnUse" id="radialGradient1537" r="0.5902" xlink:href="#aigrd7"/><radialGradient cx="26.162951" cy="44.022526" fx="26.162951" fy="44.022526" gradientTransform="matrix(1,0,0,0.181159,-2.871401e-15,36.04743)" gradientUnits="userSpaceOnUse" id="radialGradient9220" r="12.197592" xlink:href="#linearGradient9214"/><linearGradient gradientTransform="matrix(1.905258,0,0,2.521777,-22.82065,-13.24604)" gradientUnits="userSpaceOnUse" id="linearGradient9224" x1="24.919374" x2="24.919374" xlink:href="#aigrd6" y1="6.1478682" y2="7.4600263"/><linearGradient gradientUnits="userSpaceOnUse" id="linearGradient10002" x1="-20.750000" x2="-19.500000" xlink:href="#linearGradient6687" y1="29.000000" y2="18.750000"/><linearGradient gradientUnits="userSpaceOnUse" id="linearGradient10012" x1="-22.976406" x2="-14.360273" xlink:href="#linearGradient6699" y1="18.516047" y2="33.016045"/><linearGradient gradientUnits="userSpaceOnUse" id="linearGradient10014" x1="-16.387411" x2="-9.7352734" xlink:href="#linearGradient6711" y1="24.453547" y2="28.195539"/><linearGradient gradientUnits="userSpaceOnUse" id="linearGradient10016" x1="-17.863041" x2="-20.821646" xlink:href="#linearGradient6719" y1="30.827509" y2="25.015009"/><linearGradient gradientUnits="userSpaceOnUse" id="linearGradient10026" x1="23.379572" x2="24.24518" xlink:href="#linearGradient10020" y1="28.369167" y2="6.0000024"/></defs><g id="layer1"><path d="M 26.482036,37.621562 L 24.499994,37.621562 L 24.499994,6 L 26.482036,6 L 26.482036,37.620112 L 26.482036,37.621562 z " id="path10010" style="fill:#a4a4a4;fill-rule:nonzero;stroke:#555753;stroke-miterlimit:4;stroke-opacity:1"/><path d="M 26,37.621562 L 24.982042,37.621562 L 24.982042,6 L 26,6 L 26,37.620112 L 26,37.621562 z " id="path13009" style="fill:#a4a4a4;fill-rule:nonzero;stroke:none;stroke-miterlimit:4"/><path d="M 43.499996,32.499982 L 7.5000001,32.499982 L 7.5000001,5.4999944 L 43.499996,5.4999944 L 43.499996,32.499982 L 43.499996,32.499982 z " id="path13016" style="fill:url(#linearGradient1553);fill-rule:nonzero;stroke:#888a85;stroke-linejoin:round;stroke-miterlimit:4;stroke-opacity:1"/><path d="M 38.360542 44.022526 A 12.197592 2.2097087 0 1 1  13.965359,44.022526 A 12.197592 2.2097087 0 1 1  38.360542 44.022526 z" id="path8339" style="opacity:0.39010991;color:#000000;fill:url(#radialGradient9220);fill-opacity:1;fill-rule:nonzero;stroke:none;stroke-width:0.5;stroke-linecap:round;stroke-linejoin:miter;marker:none;marker-start:none;marker-mid:none;marker-end:none;stroke-miterlimit:4;stroke-dasharray:none;stroke-dashoffset:0;stroke-opacity:1;visibility:visible;display:inline;overflow:visible" transform="matrix(1.749254,0,0,1.452548,-20.38301,-20.43749)"/><g id="g13020" style="fill:#a4a4a4;fill-rule:nonzero;stroke:#555753;stroke-miterlimit:4;stroke-opacity:1" transform="matrix(1.539016,0,0,1.539016,-12.89862,-11.05731)"><path d="M 31.492,35.959 L 25.217,31.321 L 25.151306,31.665948 L 30.016,35.955 L 31.492,35.959 z " id="path13022" style="stroke:#555753;stroke-opacity:1"/><path d="M 18.408,35.959 L 24.683,31.321 L 24.63283,31.72338 L 19.883,35.955 L 18.408,35.959 z " id="path13024" style="stroke:#555753;stroke-opacity:1"/></g><path d="M 42.483508,31.500001 L 8.4999999,31.500001 L 8.4999999,6.5000025 L 42.483508,6.5000025 L 42.483508,31.500001 L 42.483508,31.500001 z " id="path10018" style="fill:none;fill-rule:nonzero;stroke:url(#linearGradient10026);stroke-linejoin:miter;stroke-miterlimit:4;stroke-opacity:1"/><path d="M 37.64607,5.8376811 L 8,5.8376811 L 8,8 C 9.671372,5.6514612 37.64607,5.8376811 37.64607,5.8376811 z " id="path13041" style="opacity:0.15999995;fill:#000000;fill-rule:nonzero;stroke:none;stroke-miterlimit:4"/><rect height="1" id="rect13420" style="color:#000000;fill:#000000;fill-opacity:0.22807013;fill-rule:nonzero;stroke:none;stroke-width:0.99813098;stroke-linecap:butt;stroke-linejoin:miter;marker:none;marker-start:none;marker-mid:none;marker-end:none;stroke-miterlimit:4;stroke-dashoffset:0;stroke-opacity:1;visibility:visible;display:inline;overflow:visible" width="9" x="31" y="9"/><rect height="4" id="rect9222" rx="1.941476" ry="1.9414761" style="opacity:1;color:#000000;fill:url(#linearGradient9224);fill-opacity:1;fill-rule:nonzero;stroke:#555753;stroke-width:1;stroke-linecap:butt;stroke-linejoin:miter;marker:none;marker-start:none;marker-mid:none;marker-end:none;stroke-miterlimit:4;stroke-dasharray:none;stroke-dashoffset:0;stroke-opacity:1;visibility:visible;display:inline;overflow:visible" width="40.779099" x="5.1403117" y="1.5"/><rect height="1" id="rect9226" style="color:#000000;fill:#000000;fill-opacity:0.22807013;fill-rule:nonzero;stroke:none;stroke-width:0.99813098;stroke-linecap:butt;stroke-linejoin:miter;marker:none;marker-start:none;marker-mid:none;marker-end:none;stroke-miterlimit:4;stroke-dashoffset:0;stroke-opacity:1;visibility:visible;display:inline;overflow:visible" width="9" x="31" y="11"/><rect height="1" id="rect9228" style="color:#000000;fill:#000000;fill-opacity:0.22807013;fill-rule:nonzero;stroke:none;stroke-width:0.99813098;stroke-linecap:butt;stroke-linejoin:miter;marker:none;marker-start:none;marker-mid:none;marker-end:none;stroke-miterlimit:4;stroke-dashoffset:0;stroke-opacity:1;visibility:visible;display:inline;overflow:visible" width="9" x="31" y="13"/><rect height="1" id="rect9230" style="color:#000000;fill:#000000;fill-opacity:0.22807013;fill-rule:nonzero;stroke:none;stroke-width:0.99813098;stroke-linecap:butt;stroke-linejoin:miter;marker:none;marker-start:none;marker-mid:none;marker-end:none;stroke-miterlimit:4;stroke-dashoffset:0;stroke-opacity:1;visibility:visible;display:inline;overflow:visible" width="9" x="31" y="15"/><rect height="1" id="rect9232" style="color:#000000;fill:#000000;fill-opacity:0.22807013;fill-rule:nonzero;stroke:none;stroke-width:0.99813098;stroke-linecap:butt;stroke-linejoin:miter;marker:none;marker-start:none;marker-mid:none;marker-end:none;stroke-miterlimit:4;stroke-dashoffset:0;stroke-opacity:1;visibility:visible;display:inline;overflow:visible" width="6" x="31" y="17"/><rect height="1" id="rect9234" style="color:#000000;fill:#000000;fill-opacity:0.22807013;fill-rule:nonzero;stroke:none;stroke-width:0.99813098;stroke-linecap:butt;stroke-linejoin:miter;marker:none;marker-start:none;marker-mid:none;marker-end:none;stroke-miterlimit:4;stroke-dashoffset:0;stroke-opacity:1;visibility:visible;display:inline;overflow:visible" width="23" x="11" y="22"/><rect height="1" id="rect9236" style="color:#000000;fill:#000000;fill-opacity:0.22807013;fill-rule:nonzero;stroke:none;stroke-width:0.99813098;stroke-linecap:butt;stroke-linejoin:miter;marker:none;marker-start:none;marker-mid:none;marker-end:none;stroke-miterlimit:4;stroke-dashoffset:0;stroke-opacity:1;visibility:visible;display:inline;overflow:visible" width="23" x="11" y="24"/><rect height="1" id="rect9238" style="color:#000000;fill:#000000;fill-opacity:0.22807013;fill-rule:nonzero;stroke:none;stroke-width:0.99813098;stroke-linecap:butt;stroke-linejoin:miter;marker:none;marker-start:none;marker-mid:none;marker-end:none;stroke-miterlimit:4;stroke-dashoffset:0;stroke-opacity:1;visibility:visible;display:inline;overflow:visible" width="23" x="11" y="26"/><rect height="1" id="rect9240" style="color:#000000;fill:#000000;fill-opacity:0.22807013;fill-rule:nonzero;stroke:none;stroke-width:0.99813098;stroke-linecap:butt;stroke-linejoin:miter;marker:none;marker-start:none;marker-mid:none;marker-end:none;stroke-miterlimit:4;stroke-dashoffset:0;stroke-opacity:1;visibility:visible;display:inline;overflow:visible" width="16" x="11" y="28"/><path d="M 48.999998 40.714287 A 16.071428 11.857142 0 1 1  16.857141,40.714287 A 16.071428 11.857142 0 1 1  48.999998 40.714287 z" id="path1693" style="fill:url(#radialGradient2462);fill-opacity:1;fill-rule:evenodd;stroke:none;stroke-width:1px;stroke-linecap:butt;stroke-linejoin:miter;stroke-opacity:1;display:inline" transform="matrix(0.512138,0,0,0.512138,2.997478,-5.778852)"/><g id="g6727" style="display:inline" transform="matrix(0.587368,0,0,0.587368,30.84597,-1.301179)"><path d="M -27.528542,18.092794 C -30.097576,19.791125 -31.511475,22.097833 -31.511475,24.590696 L -31.511475,26.659988 C -31.511475,29.150828 -30.097576,31.458211 -27.528542,33.156541 C -25.102053,34.760445 -21.895416,35.644009 -18.499359,35.644009 C -15.104587,35.644009 -11.89795,34.760445 -9.4701774,33.156541 C -6.9024275,31.458211 -5.4885277,29.151503 -5.4885277,26.659988 L -5.4885277,24.590696 C -5.4885277,22.097833 -6.9030696,19.79045 -9.4701774,18.092794 C -11.897308,16.490239 -15.103945,15.606001 -18.499359,15.606001 C -21.895416,15.606001 -25.102053,16.490239 -27.528542,18.092794 z " id="path3931" style="fill:#670000;fill-opacity:1;fill-rule:nonzero;stroke:none;stroke-miterlimit:4"/><path d="M -7.0244261,24.453547 C -8.4030105,21.067003 -13.077484,18.573465 -18.636768,18.573465 C -24.196053,18.573465 -28.870526,21.067003 -30.249111,24.453547 L -30.663906,24.453547 L -30.663906,26.523514 C -30.663906,30.913678 -25.27863,34.472213 -18.636768,34.472213 C -11.994265,34.472213 -6.6102729,30.913678 -6.6102729,26.523514 L -6.6102729,24.453547 L -7.0244261,24.453547 L -7.0244261,24.453547 z " id="path3933" style="fill:#a40000;fill-rule:nonzero;stroke:none;stroke-miterlimit:4"/><path d="M -6.6102729,24.453547 C -6.6102729,28.844385 -11.994265,32.402921 -18.636768,32.402921 C -25.279272,32.402921 -30.663906,28.844385 -30.663906,24.453547 C -30.663906,20.062708 -25.27863,16.504173 -18.636768,16.504173 C -11.994265,16.504173 -6.6102729,20.062708 -6.6102729,24.453547 L -6.6102729,24.453547 z " id="path3935" style="fill:url(#linearGradient10012);fill-opacity:1;fill-rule:nonzero;stroke:none;stroke-miterlimit:4"/><path d="M -6.6102729,26.833098 L -6.6256833,24.666681 C -7.9297843,29.167459 -10.862246,31.074203 -14.549173,32.007678 L -14.549173,34.002103 C -10.558534,32.998483 -6.9871844,30.713358 -6.6102729,26.833098 L -6.6102729,26.833098 z " id="path3937" style="fill:#204a87;fill-rule:nonzero;stroke:none;stroke-miterlimit:4"/><path d="M -6.6102729,24.453547 C -6.8857329,29.533025 -13.16802,31.849176 -14.571646,31.937532 L -18.637411,24.453547 L -6.610915,24.453547 L -6.6102729,24.453547 z " id="path3939" style="fill:url(#linearGradient10014);fill-opacity:1;fill-rule:nonzero;stroke:none;stroke-miterlimit:4"/><path d="M -21.154435,34.298198 L -21.154435,32.228906 C -18.891039,32.523652 -16.814494,32.575587 -14.571646,32.015097 L -14.549173,34.002778 C -16.428593,34.619249 -19.36876,34.648251 -21.154435,34.298873 L -21.154435,34.298198 z " id="path3941" style="fill:#4e9a06;fill-rule:nonzero;stroke:none;stroke-miterlimit:4"/><path d="M -18.637411,24.454221 L -14.571646,31.937532 C -17.06106,32.88652 -21.154435,32.228906 -21.154435,32.228906 L -18.637411,24.454221 z " id="path3943" style="fill:url(#linearGradient10016);fill-opacity:1;fill-rule:nonzero;stroke:none;stroke-miterlimit:4"/><path d="M -6.875 24.375 A 11.75 7.75 0 1 1  -30.375,24.375 A 11.75 7.75 0 1 1  -6.875 24.375 z" id="path5959" style="opacity:0.31111115;color:#000000;fill:none;fill-opacity:1;fill-rule:evenodd;stroke:url(#linearGradient10002);stroke-width:1.85479884;stroke-linecap:butt;stroke-linejoin:miter;marker:none;marker-start:none;marker-mid:none;marker-end:none;stroke-miterlimit:4;stroke-dasharray:none;stroke-dashoffset:0;stroke-opacity:1;visibility:visible;display:block;overflow:visible" transform="matrix(0.946982,0,0,0.889701,-0.987461,2.688545)"/></g><g id="g10004" style="fill:#a4a4a4;fill-rule:nonzero;stroke:none;stroke-miterlimit:4" transform="matrix(1.539016,0,0,1.539016,-12.89862,-11.05731)"><path d="M 30.015,35.956 L 31.492,35.959 L 25.217,31.321 L 24.778,31.307 L 30.016,35.955 L 30.015,35.956 z " id="path10006"/><path d="M 19.884,35.956 L 18.408,35.959 L 24.683,31.321 L 25.121,31.307 L 19.883,35.955 L 19.884,35.956 z " id="path10008"/></g><path d="M 27.839689,36.499985 C 27.839689,37.792418 26.79243,38.839676 25.499998,38.839676 C 24.207565,38.839676 23.160308,37.792418 23.160308,36.499985 C 23.160308,35.211057 24.207565,34.1603 25.499998,34.1603 C 26.79243,34.1603 27.839689,35.211057 27.839689,36.499985 z " id="path13050" style="fill:url(#radialGradient1537);fill-rule:nonzero;stroke:#555753;stroke-miterlimit:4;stroke-opacity:1"/></g></svg>