<?xml version="1.0" ?><svg height="48.000000px" id="svg249" width="48.000000px" xmlns="http://www.w3.org/2000/svg" xmlns:cc="http://creativecommons.org/ns#" xmlns:dc="http://purl.org/dc/elements/1.1/" xmlns:inkscape="http://www.inkscape.org/namespaces/inkscape" xmlns:rdf="http://www.w3.org/1999/02/22-rdf-syntax-ns#" xmlns:sodipodi="http://sodipodi.sourceforge.net/DTD/sodipodi-0.dtd" xmlns:svg="http://www.w3.org/2000/svg" xmlns:xlink="http://www.w3.org/1999/xlink"><defs id="defs3"><radialGradient cx="605.71429" cy="486.64789" fx="605.71429" fy="486.64789" gradientTransform="matrix(-2.774389,0,0,1.969706,112.7623,-872.8854)" gradientUnits="userSpaceOnUse" id="radialGradient5031" r="117.14286" xlink:href="#linearGradient5060"/><linearGradient id="linearGradient5060"><stop id="stop5062" offset="0" style="stop-color:black;stop-opacity:1;"/><stop id="stop5064" offset="1" style="stop-color:black;stop-opacity:0;"/></linearGradient><radialGradient cx="605.71429" cy="486.64789" fx="605.71429" fy="486.64789" gradientTransform="matrix(2.774389,0,0,1.969706,-1891.633,-872.8854)" gradientUnits="userSpaceOnUse" id="radialGradient5029" r="117.14286" xlink:href="#linearGradient5060"/><linearGradient id="linearGradient5048"><stop id="stop5050" offset="0" style="stop-color:black;stop-opacity:0;"/><stop id="stop5056" offset="0.5" style="stop-color:black;stop-opacity:1;"/><stop id="stop5052" offset="1" style="stop-color:black;stop-opacity:0;"/></linearGradient><linearGradient gradientTransform="matrix(2.774389,0,0,1.969706,-1892.179,-872.8854)" gradientUnits="userSpaceOnUse" id="linearGradient5027" x1="302.85715" x2="302.85715" xlink:href="#linearGradient5048" y1="366.64789" y2="609.50507"/><linearGradient id="linearGradient4542"><stop id="stop4544" offset="0" style="stop-color:#000000;stop-opacity:1;"/><stop id="stop4546" offset="1" style="stop-color:#000000;stop-opacity:0;"/></linearGradient><linearGradient id="linearGradient15662"><stop id="stop15664" offset="0.0000000" style="stop-color:#ffffff;stop-opacity:1.0000000;"/><stop id="stop15666" offset="1.0000000" style="stop-color:#f8f8f8;stop-opacity:1.0000000;"/></linearGradient><radialGradient cx="20.8921" cy="64.5679" fx="20.8921" fy="64.5679" gradientUnits="userSpaceOnUse" id="aigrd3" r="5.257"><stop id="stop15573" offset="0" style="stop-color:#F0F0F0"/><stop id="stop15575" offset="1.0000000" style="stop-color:#9a9a9a;stop-opacity:1.0000000;"/></radialGradient><radialGradient cx="20.8921" cy="114.5684" fx="20.8921" fy="114.5684" gradientUnits="userSpaceOnUse" id="aigrd2" r="5.256"><stop id="stop15566" offset="0" style="stop-color:#F0F0F0"/><stop id="stop15568" offset="1.0000000" style="stop-color:#9a9a9a;stop-opacity:1.0000000;"/></radialGradient><linearGradient id="linearGradient269"><stop id="stop270" offset="0.0000000" style="stop-color:#a3a3a3;stop-opacity:1.0000000;"/><stop id="stop271" offset="1.0000000" style="stop-color:#4c4c4c;stop-opacity:1.0000000;"/></linearGradient><linearGradient id="linearGradient259"><stop id="stop260" offset="0.0000000" style="stop-color:#fafafa;stop-opacity:1.0000000;"/><stop id="stop261" offset="1.0000000" style="stop-color:#bbbbbb;stop-opacity:1.0000000;"/></linearGradient><radialGradient cx="8.8244190" cy="3.7561285" fx="8.8244190" fy="3.7561285" gradientTransform="matrix(0.968273,0,0,1.032767,3.353553,0.646447)" gradientUnits="userSpaceOnUse" id="radialGradient15656" r="37.751713" xlink:href="#linearGradient269"/><radialGradient cx="33.966679" cy="35.736916" fx="33.966679" fy="35.736916" gradientTransform="scale(0.960493,1.041132)" gradientUnits="userSpaceOnUse" id="radialGradient15658" r="86.708450" xlink:href="#linearGradient259"/><radialGradient cx="8.1435566" cy="7.2678967" fx="8.1435566" fy="7.2678967" gradientTransform="matrix(0.968273,0,0,1.032767,3.353553,0.646447)" gradientUnits="userSpaceOnUse" id="radialGradient15668" r="38.158695" xlink:href="#linearGradient15662"/><radialGradient cx="20.8921" cy="114.5684" fx="20.8921" fy="114.5684" gradientTransform="matrix(0.229703,0.000000,0.000000,0.229703,4.613529,3.979808)" gradientUnits="userSpaceOnUse" id="radialGradient2283" r="5.256" xlink:href="#aigrd2"/><radialGradient cx="20.8921" cy="64.5679" fx="20.8921" fy="64.5679" gradientTransform="matrix(0.229703,0.000000,0.000000,0.229703,4.613529,3.979808)" gradientUnits="userSpaceOnUse" id="radialGradient2285" r="5.257" xlink:href="#aigrd3"/><radialGradient cx="24.306795" cy="42.07798" fx="24.306795" fy="42.07798" gradientTransform="matrix(1.000000,0.000000,0.000000,0.284916,0.000000,30.08928)" gradientUnits="userSpaceOnUse" id="radialGradient4548" r="15.821514" xlink:href="#linearGradient4542"/><linearGradient id="linearGradient4440"><stop id="stop4442" offset="0" style="stop-color:#7d7d7d;stop-opacity:1;"/><stop id="stop4448" offset="0.50000000" style="stop-color:#b1b1b1;stop-opacity:1.0000000;"/><stop id="stop4444" offset="1.0000000" style="stop-color:#686868;stop-opacity:1.0000000;"/></linearGradient><linearGradient id="linearGradient4454"><stop id="stop4456" offset="0.0000000" style="stop-color:#729fcf;stop-opacity:0.20784314;"/><stop id="stop4458" offset="1.0000000" style="stop-color:#729fcf;stop-opacity:0.67619050;"/></linearGradient><linearGradient id="linearGradient4467"><stop id="stop4469" offset="0" style="stop-color:#ffffff;stop-opacity:1;"/><stop id="stop4471" offset="1.0000000" style="stop-color:#ffffff;stop-opacity:0.24761905;"/></linearGradient><linearGradient id="linearGradient4477"><stop id="stop4479" offset="0" style="stop-color:#000000;stop-opacity:1;"/><stop id="stop4481" offset="1" style="stop-color:#000000;stop-opacity:0;"/></linearGradient><linearGradient id="linearGradient2366"><stop id="stop2368" offset="0" style="stop-color:#ffffff;stop-opacity:1;"/><stop id="stop2374" offset="0.50000000" style="stop-color:#ffffff;stop-opacity:0.21904762;"/><stop id="stop2370" offset="1.0000000" style="stop-color:#ffffff;stop-opacity:1.0000000;"/></linearGradient><linearGradient id="linearGradient2846"><stop id="stop2848" offset="0.0000000" style="stop-color:#8a8a8a;stop-opacity:1.0000000;"/><stop id="stop2850" offset="1.0000000" style="stop-color:#484848;stop-opacity:1.0000000;"/></linearGradient><linearGradient id="linearGradient2865"><stop id="stop2867" offset="0" style="stop-color:#000000;stop-opacity:1;"/><stop id="stop2869" offset="1" style="stop-color:#000000;stop-opacity:0;"/></linearGradient><linearGradient id="linearGradient2966"><stop id="stop2968" offset="0" style="stop-color:#ffd1d1;stop-opacity:1;"/><stop id="stop3006" offset="0.5" style="stop-color:#ff1d1d;stop-opacity:1;"/><stop id="stop2970" offset="1" style="stop-color:#6f0000;stop-opacity:1;"/></linearGradient><linearGradient id="linearGradient2974"><stop id="stop2976" offset="0" style="stop-color:#c1c1c1;stop-opacity:1;"/><stop id="stop2978" offset="1" style="stop-color:#acacac;stop-opacity:1;"/></linearGradient><linearGradient id="linearGradient2984"><stop id="stop2986" offset="0" style="stop-color:#e7e2b8;stop-opacity:1;"/><stop id="stop2988" offset="1" style="stop-color:#e7e2b8;stop-opacity:0;"/></linearGradient><linearGradient id="linearGradient2994"><stop id="stop2996" offset="0" style="stop-color:#000000;stop-opacity:1;"/><stop id="stop2998" offset="1" style="stop-color:#c9c9c9;stop-opacity:1;"/></linearGradient><radialGradient cx="24.130018" cy="37.967922" fx="24.130018" fy="37.967922" gradientTransform="matrix(1,0,0,0.237968,-1.591178e-15,28.93278)" gradientUnits="userSpaceOnUse" id="radialGradient2504" r="16.528622" xlink:href="#linearGradient4477"/><radialGradient cx="23.5625" cy="40.4375" fx="23.5625" fy="40.4375" gradientTransform="matrix(1,0,0,0.348243,-2.396518e-14,26.35543)" gradientUnits="userSpaceOnUse" id="radialGradient2552" r="19.5625" xlink:href="#linearGradient2865"/><linearGradient gradientTransform="translate(-5.669292,-3.312994e-15)" gradientUnits="userSpaceOnUse" id="linearGradient2554" x1="48.90625" x2="50.988335" xlink:href="#linearGradient2966" y1="17.376184" y2="22.250591"/><linearGradient gradientTransform="translate(-5.669292,-3.312994e-15)" gradientUnits="userSpaceOnUse" id="linearGradient2556" x1="46" x2="47.6875" xlink:href="#linearGradient2974" y1="19.8125" y2="22.625"/><radialGradient cx="29.053354" cy="27.640751" fx="29.053354" fy="27.640751" gradientTransform="matrix(2.923565,-1.236196e-16,8.582434e-17,2.029717,-61.55532,-27.88417)" gradientUnits="userSpaceOnUse" id="radialGradient2558" r="3.2408544" xlink:href="#linearGradient2984"/><linearGradient gradientTransform="translate(-5.825542,0.125)" gradientUnits="userSpaceOnUse" id="linearGradient2560" x1="25.71875" x2="25.514589" xlink:href="#linearGradient2994" y1="31.046875" y2="30.703125"/><linearGradient gradientTransform="matrix(-1,0,0,1,48.18409,-6.22072e-15)" gradientUnits="userSpaceOnUse" id="linearGradient2730" x1="27.366341" x2="31.335964" xlink:href="#linearGradient2846" y1="26.580296" y2="30.557772"/><linearGradient gradientTransform="matrix(-1.334593,0,0,1.291292,55.15793,-7.460658)" gradientUnits="userSpaceOnUse" id="linearGradient2732" x1="30.656250" x2="33.218750" xlink:href="#linearGradient4440" y1="34.000000" y2="31.062500"/><linearGradient gradientTransform="matrix(-1,0,0,1,44.17827,-7.045146e-16)" gradientUnits="userSpaceOnUse" id="linearGradient2734" x1="18.292673" x2="17.500893" xlink:href="#linearGradient2366" y1="13.602121" y2="25.743469"/><radialGradient cx="18.240929" cy="21.817987" fx="18.240929" fy="21.817987" gradientTransform="matrix(-1,0,0,1,43.352,1.032377e-15)" gradientUnits="userSpaceOnUse" id="radialGradient2736" r="8.3085051" xlink:href="#linearGradient4454"/><radialGradient cx="15.414371" cy="13.078408" fx="15.414371" fy="13.078408" gradientTransform="matrix(2.592963,-7.7469e-24,-5.714443e-24,2.252104,-25.05976,-18.941)" gradientUnits="userSpaceOnUse" id="radialGradient2738" r="6.6562500" xlink:href="#linearGradient4467"/></defs><g id="layer6"><g id="g5022" style="display:inline" transform="matrix(2.165152e-2,0,0,1.485743e-2,43.0076,42.68539)"><rect height="478.35718" id="rect4173" style="opacity:0.40206185;color:black;fill:url(#linearGradient5027);fill-opacity:1;fill-rule:nonzero;stroke:none;stroke-width:1;stroke-linecap:round;stroke-linejoin:miter;marker:none;marker-start:none;marker-mid:none;marker-end:none;stroke-miterlimit:4;stroke-dasharray:none;stroke-dashoffset:0;stroke-opacity:1;visibility:visible;display:inline;overflow:visible" width="1339.6335" x="-1559.2523" y="-150.69685"/><path d="M -219.61876,-150.68038 C -219.61876,-150.68038 -219.61876,327.65041 -219.61876,327.65041 C -76.744594,328.55086 125.78146,220.48075 125.78138,88.454235 C 125.78138,-43.572302 -33.655436,-150.68036 -219.61876,-150.68038 z " id="path5058" style="opacity:0.40206185;color:black;fill:url(#radialGradient5029);fill-opacity:1;fill-rule:nonzero;stroke:none;stroke-width:1;stroke-linecap:round;stroke-linejoin:miter;marker:none;marker-start:none;marker-mid:none;marker-end:none;stroke-miterlimit:4;stroke-dasharray:none;stroke-dashoffset:0;stroke-opacity:1;visibility:visible;display:inline;overflow:visible"/><path d="M -1559.2523,-150.68038 C -1559.2523,-150.68038 -1559.2523,327.65041 -1559.2523,327.65041 C -1702.1265,328.55086 -1904.6525,220.48075 -1904.6525,88.454235 C -1904.6525,-43.572302 -1745.2157,-150.68036 -1559.2523,-150.68038 z " id="path5018" style="opacity:0.40206185;color:black;fill:url(#radialGradient5031);fill-opacity:1;fill-rule:nonzero;stroke:none;stroke-width:1;stroke-linecap:round;stroke-linejoin:miter;marker:none;marker-start:none;marker-mid:none;marker-end:none;stroke-miterlimit:4;stroke-dasharray:none;stroke-dashoffset:0;stroke-opacity:1;visibility:visible;display:inline;overflow:visible"/></g></g><g id="layer1" style="display:inline"><path d="M 11.505723,5.4942766 L 11.505723,43.400869" id="path15672" style="fill:none;fill-opacity:0.75000000;fill-rule:evenodd;stroke:#000000;stroke-width:0.98855311;stroke-linecap:butt;stroke-linejoin:miter;stroke-miterlimit:4.0000000;stroke-opacity:0.017543854"/></g><g id="layer5" style="display:inline"><g id="g2679"><rect height="40.920494" id="rect15391" rx="1.1449448" ry="1.1468204" style="color:#000000;fill:url(#radialGradient15658);fill-opacity:1;fill-rule:nonzero;stroke:url(#radialGradient15656);stroke-width:0.99724436;stroke-linecap:round;stroke-linejoin:round;marker:none;marker-start:none;marker-mid:none;marker-end:none;stroke-miterlimit:4;stroke-dashoffset:0;stroke-opacity:1;visibility:visible;display:block;overflow:visible" transform="matrix(1.003584,0,0,1.001943,-0.12722,-0.153534)" width="34.875" x="6.6035528" y="3.6464462"/><rect height="38.946384" id="rect15660" rx="0.14851625" ry="0.14875954" style="color:#000000;fill:none;fill-opacity:1;fill-rule:nonzero;stroke:url(#radialGradient15668);stroke-width:0.99724436;stroke-linecap:round;stroke-linejoin:round;marker:none;marker-start:none;marker-mid:none;marker-end:none;stroke-miterlimit:4;stroke-dashoffset:0;stroke-opacity:1;visibility:visible;display:block;overflow:visible" transform="matrix(1.003584,0,0,1.001943,-0.12722,-0.153534)" width="32.775887" x="7.6660538" y="4.5839462"/><g id="g2270" style="display:inline" transform="translate(0.646447,-3.798933e-2)"><g id="g1440" style="fill:#ffffff;fill-opacity:1.0000000;fill-rule:nonzero;stroke:#000000;stroke-miterlimit:4.0000000" transform="matrix(0.229703,0.000000,0.000000,0.229703,4.967081,4.244972)"><radialGradient cx="20.892099" cy="114.56840" fx="20.892099" fy="114.56840" gradientUnits="userSpaceOnUse" id="radialGradient1442" r="5.2560000"><stop id="stop1444" offset="0" style="stop-color:#F0F0F0"/><stop id="stop1446" offset="1" style="stop-color:#474747"/></radialGradient><path d="M 23.428000,113.07000 C 23.428000,115.04300 21.828000,116.64200 19.855000,116.64200 C 17.881000,116.64200 16.282000,115.04200 16.282000,113.07000 C 16.282000,111.09600 17.882000,109.49700 19.855000,109.49700 C 21.828000,109.49700 23.428000,111.09700 23.428000,113.07000 z " id="path1448" style="stroke:none"/><radialGradient cx="20.892099" cy="64.567902" fx="20.892099" fy="64.567902" gradientUnits="userSpaceOnUse" id="radialGradient1450" r="5.2570000"><stop id="stop1452" offset="0" style="stop-color:#F0F0F0"/><stop id="stop1454" offset="1" style="stop-color:#474747"/></radialGradient><path d="M 23.428000,63.070000 C 23.428000,65.043000 21.828000,66.643000 19.855000,66.643000 C 17.881000,66.643000 16.282000,65.043000 16.282000,63.070000 C 16.282000,61.096000 17.882000,59.497000 19.855000,59.497000 C 21.828000,59.497000 23.428000,61.097000 23.428000,63.070000 z " id="path1456" style="stroke:none"/></g><path d="M 9.9950109,29.952326 C 9.9950109,30.405530 9.6274861,30.772825 9.1742821,30.772825 C 8.7208483,30.772825 8.3535532,30.405301 8.3535532,29.952326 C 8.3535532,29.498892 8.7210780,29.131597 9.1742821,29.131597 C 9.6274861,29.131597 9.9950109,29.499122 9.9950109,29.952326 z " id="path15570" style="fill:url(#radialGradient2283);fill-rule:nonzero;stroke:none;stroke-miterlimit:4.0000000"/><path d="M 9.9950109,18.467176 C 9.9950109,18.920380 9.6274861,19.287905 9.1742821,19.287905 C 8.7208483,19.287905 8.3535532,18.920380 8.3535532,18.467176 C 8.3535532,18.013742 8.7210780,17.646447 9.1742821,17.646447 C 9.6274861,17.646447 9.9950109,18.013972 9.9950109,18.467176 z " id="path15577" style="fill:url(#radialGradient2285);fill-rule:nonzero;stroke:none;stroke-miterlimit:4.0000000"/></g><path d="M 12.500000,5.0205154 L 12.500000,43.038228" id="path15674" style="fill:none;fill-opacity:0.75000000;fill-rule:evenodd;stroke:#ffffff;stroke-width:1.0000000;stroke-linecap:butt;stroke-linejoin:miter;stroke-miterlimit:4.0000000;stroke-opacity:0.20467831;display:inline"/><g id="g2253" transform="matrix(0.909091,0.000000,0.000000,1.000000,2.363628,0.000000)"><rect height="1.0000000" id="rect15686" rx="0.15156493" ry="0.065390877" style="color:#000000;fill:#9b9b9b;fill-opacity:0.54970759;fill-rule:nonzero;stroke:none;stroke-width:1.0000000;stroke-linecap:round;stroke-linejoin:round;stroke-miterlimit:4.0000000;stroke-dashoffset:0.0000000;stroke-opacity:0.081871338;marker:none;marker-start:none;marker-mid:none;marker-end:none;visibility:visible;display:block;overflow:visible" width="22.000004" x="15.000002" y="9.0000000"/><rect height="1.0000000" id="rect15688" rx="0.15156493" ry="0.065390877" style="color:#000000;fill:#9b9b9b;fill-opacity:0.54970759;fill-rule:nonzero;stroke:none;stroke-width:1.0000000;stroke-linecap:round;stroke-linejoin:round;stroke-miterlimit:4.0000000;stroke-dashoffset:0.0000000;stroke-opacity:0.081871338;marker:none;marker-start:none;marker-mid:none;marker-end:none;visibility:visible;display:block;overflow:visible" width="22.000004" x="15.000002" y="11.000000"/><rect height="1.0000000" id="rect15690" rx="0.15156493" ry="0.065390877" style="color:#000000;fill:#9b9b9b;fill-opacity:0.54970759;fill-rule:nonzero;stroke:none;stroke-width:1.0000000;stroke-linecap:round;stroke-linejoin:round;stroke-miterlimit:4.0000000;stroke-dashoffset:0.0000000;stroke-opacity:0.081871338;marker:none;marker-start:none;marker-mid:none;marker-end:none;visibility:visible;display:block;overflow:visible" width="22.000004" x="15.000002" y="13.000000"/><rect height="1.0000000" id="rect15692" rx="0.15156493" ry="0.065390877" style="color:#000000;fill:#9b9b9b;fill-opacity:0.54970759;fill-rule:nonzero;stroke:none;stroke-width:1.0000000;stroke-linecap:round;stroke-linejoin:round;stroke-miterlimit:4.0000000;stroke-dashoffset:0.0000000;stroke-opacity:0.081871338;marker:none;marker-start:none;marker-mid:none;marker-end:none;visibility:visible;display:block;overflow:visible" width="22.000004" x="15.000002" y="15.000000"/><rect height="1.0000000" id="rect15694" rx="0.15156493" ry="0.065390877" style="color:#000000;fill:#9b9b9b;fill-opacity:0.54970759;fill-rule:nonzero;stroke:none;stroke-width:1.0000000;stroke-linecap:round;stroke-linejoin:round;stroke-miterlimit:4.0000000;stroke-dashoffset:0.0000000;stroke-opacity:0.081871338;marker:none;marker-start:none;marker-mid:none;marker-end:none;visibility:visible;display:block;overflow:visible" width="22.000004" x="15.000002" y="17.000000"/><rect height="1.0000000" id="rect15696" rx="0.15156493" ry="0.065390877" style="color:#000000;fill:#9b9b9b;fill-opacity:0.54970759;fill-rule:nonzero;stroke:none;stroke-width:1.0000000;stroke-linecap:round;stroke-linejoin:round;stroke-miterlimit:4.0000000;stroke-dashoffset:0.0000000;stroke-opacity:0.081871338;marker:none;marker-start:none;marker-mid:none;marker-end:none;visibility:visible;display:block;overflow:visible" width="22.000004" x="15.000002" y="19.000000"/><rect height="1.0000000" id="rect15698" rx="0.15156493" ry="0.065390877" style="color:#000000;fill:#9b9b9b;fill-opacity:0.54970759;fill-rule:nonzero;stroke:none;stroke-width:1.0000000;stroke-linecap:round;stroke-linejoin:round;stroke-miterlimit:4.0000000;stroke-dashoffset:0.0000000;stroke-opacity:0.081871338;marker:none;marker-start:none;marker-mid:none;marker-end:none;visibility:visible;display:block;overflow:visible" width="22.000004" x="15.000002" y="21.000000"/><rect height="1.0000000" id="rect15700" rx="0.15156493" ry="0.065390877" style="color:#000000;fill:#9b9b9b;fill-opacity:0.54970759;fill-rule:nonzero;stroke:none;stroke-width:1.0000000;stroke-linecap:round;stroke-linejoin:round;stroke-miterlimit:4.0000000;stroke-dashoffset:0.0000000;stroke-opacity:0.081871338;marker:none;marker-start:none;marker-mid:none;marker-end:none;visibility:visible;display:block;overflow:visible" width="22.000004" x="15.000002" y="23.000000"/><rect height="1.0000000" id="rect15732" rx="0.068204239" ry="0.065390877" style="color:#000000;fill:#9b9b9b;fill-opacity:0.54970759;fill-rule:nonzero;stroke:none;stroke-width:1.0000000;stroke-linecap:round;stroke-linejoin:round;stroke-miterlimit:4.0000000;stroke-dashoffset:0.0000000;stroke-opacity:0.081871338;marker:none;marker-start:none;marker-mid:none;marker-end:none;visibility:visible;display:block;overflow:visible" width="9.9000053" x="14.999992" y="25.000000"/><rect height="1.0000000" id="rect15736" rx="0.15156493" ry="0.065390877" style="color:#000000;fill:#9b9b9b;fill-opacity:0.54970759;fill-rule:nonzero;stroke:none;stroke-width:1.0000000;stroke-linecap:round;stroke-linejoin:round;stroke-miterlimit:4.0000000;stroke-dashoffset:0.0000000;stroke-opacity:0.081871338;marker:none;marker-start:none;marker-mid:none;marker-end:none;visibility:visible;display:block;overflow:visible" width="22.000004" x="14.999992" y="29.000000"/><rect height="1.0000000" id="rect15738" rx="0.15156493" ry="0.065390877" style="color:#000000;fill:#9b9b9b;fill-opacity:0.54970759;fill-rule:nonzero;stroke:none;stroke-width:1.0000000;stroke-linecap:round;stroke-linejoin:round;stroke-miterlimit:4.0000000;stroke-dashoffset:0.0000000;stroke-opacity:0.081871338;marker:none;marker-start:none;marker-mid:none;marker-end:none;visibility:visible;display:block;overflow:visible" width="22.000004" x="14.999992" y="31.000000"/><rect height="1.0000000" id="rect15740" rx="0.15156493" ry="0.065390877" style="color:#000000;fill:#9b9b9b;fill-opacity:0.54970759;fill-rule:nonzero;stroke:none;stroke-width:1.0000000;stroke-linecap:round;stroke-linejoin:round;stroke-miterlimit:4.0000000;stroke-dashoffset:0.0000000;stroke-opacity:0.081871338;marker:none;marker-start:none;marker-mid:none;marker-end:none;visibility:visible;display:block;overflow:visible" width="22.000004" x="14.999992" y="33.000000"/><rect height="1.0000000" id="rect15742" rx="0.15156493" ry="0.065390877" style="color:#000000;fill:#9b9b9b;fill-opacity:0.54970759;fill-rule:nonzero;stroke:none;stroke-width:1.0000000;stroke-linecap:round;stroke-linejoin:round;stroke-miterlimit:4.0000000;stroke-dashoffset:0.0000000;stroke-opacity:0.081871338;marker:none;marker-start:none;marker-mid:none;marker-end:none;visibility:visible;display:block;overflow:visible" width="22.000004" x="14.999992" y="35.000000"/><rect height="1.0000000" id="rect15744" rx="0.10609552" ry="0.065390877" style="color:#000000;fill:#9b9b9b;fill-opacity:0.54970759;fill-rule:nonzero;stroke:none;stroke-width:1.0000000;stroke-linecap:round;stroke-linejoin:round;stroke-miterlimit:4.0000000;stroke-dashoffset:0.0000000;stroke-opacity:0.081871338;marker:none;marker-start:none;marker-mid:none;marker-end:none;visibility:visible;display:block;overflow:visible" width="15.400014" x="14.999992" y="37.000000"/></g></g><path d="M 40.65864 37.967922 A 16.528622 3.9332814 0 1 1  7.6013966,37.967922 A 16.528622 3.9332814 0 1 1  40.65864 37.967922 z" id="path4475" style="opacity:0.17112301;color:#000000;fill:url(#radialGradient2504);fill-opacity:1;fill-rule:evenodd;stroke:none;stroke-width:1;stroke-linecap:round;stroke-linejoin:miter;marker:none;marker-start:none;marker-mid:none;marker-end:none;stroke-miterlimit:10;stroke-dasharray:none;stroke-dashoffset:0;stroke-opacity:1;visibility:visible;display:inline;overflow:visible" transform="matrix(0.962422,0,0,1.011366,-7.130766,-7.903209)"/><g id="g2711" transform="translate(-1.000325,-0.85088)"><path d="M 18.627569,3.1435548 C 10.488439,3.1435548 3.8827682,9.7492259 3.8827682,17.888356 C 3.8827682,26.027486 10.488439,32.633158 18.627569,32.633158 C 22.107124,32.633158 25.17857,31.248765 27.701292,29.230511 C 27.495915,30.237392 27.623257,31.265879 28.457436,31.990436 L 39.42152,41.517846 C 40.654936,42.589175 42.508982,42.448806 43.58031,41.215389 C 44.651638,39.981971 44.511269,38.127927 43.277853,37.056599 L 32.313769,27.529188 C 31.642242,26.945909 30.820891,26.773219 30.007531,26.886466 C 31.994231,24.374044 33.37237,21.337663 33.37237,17.888356 C 33.37237,9.7492259 26.766699,3.1435548 18.627569,3.1435548 z M 18.551954,4.3697381 C 26.191413,4.3697381 31.843729,9.1586886 31.843729,17.661513 C 31.843729,26.336626 26.027039,30.953288 18.551954,30.953288 C 11.249005,30.953288 5.2601806,25.475196 5.2601806,17.661513 C 5.2601806,9.6774061 11.084819,4.369738 18.551954,4.3697381 z " id="path2844" style="color:#000000;fill:#dcdcdc;fill-opacity:1;fill-rule:evenodd;stroke:url(#linearGradient2730);stroke-width:3.10908341;stroke-linecap:round;stroke-linejoin:miter;marker:none;marker-start:none;marker-mid:none;marker-end:none;stroke-miterlimit:10;stroke-dasharray:none;stroke-dashoffset:0;stroke-opacity:1;visibility:visible;display:inline;overflow:visible" transform="matrix(-0.643277,0,0,0.643277,31.49802,4.828704)"/><path d="M 18.602905,3.0803551 C 10.437465,3.0803551 3.8104408,9.7073791 3.8104408,17.872819 C 3.8104408,26.038259 10.437465,32.665283 18.602905,32.665283 C 22.093708,32.665283 25.175082,31.276416 27.70596,29.251638 C 27.499919,30.261774 27.627672,31.293585 28.464547,32.020484 L 39.464073,41.578691 C 40.701476,42.653483 42.561515,42.512661 43.636306,41.275256 C 44.711097,40.037852 44.570274,38.177814 43.332871,37.103023 L 32.333346,27.544815 C 31.659648,26.959651 30.835642,26.786402 30.019653,26.900016 C 32.012775,24.379472 33.395369,21.333276 33.395369,17.872819 C 33.395369,9.7073791 26.768345,3.0803551 18.602905,3.0803551 z M 18.527046,6.2664243 C 24.808154,6.2664245 29.905864,11.364135 29.905864,17.645243 C 29.905864,23.926351 24.808154,29.024061 18.527046,29.024061 C 12.245938,29.024061 7.1482276,23.926351 7.1482276,17.645243 C 7.1482278,11.364135 12.245938,6.2664243 18.527046,6.2664243 z " id="path4430" style="color:#000000;fill:#dcdcdc;fill-opacity:1;fill-rule:evenodd;stroke:none;stroke-width:1.00000036;stroke-linecap:round;stroke-linejoin:miter;marker:none;marker-start:none;marker-mid:none;marker-end:none;stroke-miterlimit:10;stroke-dasharray:none;stroke-dashoffset:0;stroke-opacity:1;visibility:visible;display:inline;overflow:visible" transform="matrix(-0.643277,0,0,0.643277,31.49802,4.828704)"/><path d="M 39.507004,41.57769 C 39.028332,39.304503 40.904334,36.766268 43.091057,36.789315 C 43.091057,36.789315 32.33069,27.531204 32.33069,27.531204 C 29.385899,27.474498 28.061188,29.80382 28.553876,32.131126 L 39.507004,41.57769 z " id="path4438" style="color:#000000;fill:url(#linearGradient2732);fill-opacity:1;fill-rule:evenodd;stroke:none;stroke-width:1;stroke-linecap:round;stroke-linejoin:miter;marker:none;marker-start:none;marker-mid:none;marker-end:none;stroke-miterlimit:10;stroke-dasharray:none;stroke-dashoffset:0;stroke-opacity:1;visibility:visible;display:inline;overflow:visible" transform="matrix(-0.643277,0,0,0.643277,31.49802,4.828704)"/><path d="M 28.549437 18.920233 A 11.048544 11.048544 0 1 1  6.4523487,18.920233 A 11.048544 11.048544 0 1 1  28.549437 18.920233 z" id="path4450" style="color:#000000;fill:none;fill-opacity:1;fill-rule:evenodd;stroke:url(#linearGradient2734);stroke-width:1.24788225;stroke-linecap:round;stroke-linejoin:miter;marker:none;marker-start:none;marker-mid:none;marker-end:none;stroke-miterlimit:10;stroke-dasharray:none;stroke-dashoffset:0;stroke-opacity:1;visibility:visible;display:inline;overflow:visible" transform="matrix(-0.801358,0,0,0.801358,33.70147,0.855159)"/><rect height="4.4404783" id="rect4495" rx="3.3215265" ry="2.9348745" style="opacity:0.43315507;color:#000000;fill:none;fill-opacity:1;fill-rule:evenodd;stroke:#ffffff;stroke-width:1.55458939;stroke-linecap:round;stroke-linejoin:miter;marker:none;marker-start:none;marker-mid:none;marker-end:none;stroke-miterlimit:10;stroke-dasharray:none;stroke-dashoffset:0;stroke-opacity:1;visibility:visible;display:inline;overflow:visible" transform="matrix(-0.484379,0.4233,0.417423,0.489452,31.49802,4.828704)" width="19.048439" x="40.373337" y="0.14086054"/><path d="M 25.897786 18.478292 A 8.3085051 8.3085051 0 1 1  9.280776,18.478292 A 8.3085051 8.3085051 0 1 1  25.897786 18.478292 z" id="path4452" style="color:#000000;fill:url(#radialGradient2736);fill-opacity:1;fill-rule:evenodd;stroke:#3063a3;stroke-width:1.11148739;stroke-linecap:round;stroke-linejoin:miter;marker:none;marker-start:none;marker-mid:none;marker-end:none;stroke-miterlimit:10;stroke-dashoffset:0;stroke-opacity:1;visibility:visible" transform="matrix(-0.899697,0,0,0.899697,35.502,-0.509826)"/><path d="M 18.156915,7.3966938 C 12.949325,7.3966938 8.7323681,11.613651 8.7323681,16.821241 C 8.7323681,18.325216 9.1526753,19.709014 9.77954,20.971144 C 11.03192,21.432757 12.362297,21.746827 13.774307,21.746827 C 19.945262,21.746827 24.873589,16.88519 25.254413,10.809698 C 23.523449,8.7641668 21.044374,7.3966938 18.156915,7.3966938 z " id="path4462" style="opacity:0.83422457;color:#000000;fill:url(#radialGradient2738);fill-opacity:1;fill-rule:evenodd;stroke:none;stroke-width:1;stroke-linecap:round;stroke-linejoin:miter;marker:none;marker-start:none;marker-mid:none;marker-end:none;stroke-miterlimit:10;stroke-dasharray:none;stroke-dashoffset:0;stroke-opacity:1;visibility:visible;display:inline;overflow:visible" transform="matrix(0.643277,0,0,0.643277,7.855933,4.828704)"/></g><path d="M 43.125 40.4375 A 19.5625 6.8125 0 1 1  4,40.4375 A 19.5625 6.8125 0 1 1  43.125 40.4375 z" id="path3008" style="opacity:0.2;color:#000000;fill:url(#radialGradient2552);fill-opacity:1;fill-rule:evenodd;stroke:none;stroke-width:1;stroke-linecap:butt;stroke-linejoin:miter;marker:none;marker-start:none;marker-mid:none;marker-end:none;stroke-miterlimit:4;stroke-dasharray:none;stroke-dashoffset:0;stroke-opacity:1;visibility:visible;display:inline;overflow:visible" transform="matrix(0.616613,0,0,0.293577,12.73816,29.12848)"/><g id="g1574" transform="matrix(1.033699,-0.276979,0.276979,1.033699,16.06828,-14.54823)"><path d="M 17.34116,32.5 L 22.96616,26.875 L 43.059909,17.125 C 46.309909,15.875 48.247409,20.5 45.372409,22.125 L 25.34116,31.5 L 17.34116,32.5 z " id="path2960" style="color:#000000;fill:#cb9022;fill-opacity:1;fill-rule:evenodd;stroke:#5c410c;stroke-width:0.93443578;stroke-linecap:butt;stroke-linejoin:miter;marker:none;marker-start:none;marker-mid:none;marker-end:none;stroke-miterlimit:4;stroke-dasharray:none;stroke-dashoffset:0;stroke-opacity:1;visibility:visible;display:inline;overflow:visible" transform="translate(-29.75546,19)"/><path d="M 38.330708,20 C 38.330708,20 39.768208,20.09375 40.330708,21.34375 C 40.910201,22.631511 40.330708,24 40.330708,24 L 45.361958,21.53125 C 45.361958,21.53125 46.81399,20.649883 46.018208,18.6875 C 45.233296,16.751923 43.330708,17.53125 43.330708,17.53125 L 38.330708,20 z " id="path2964" style="color:#000000;fill:url(#linearGradient2554);fill-opacity:1;fill-rule:evenodd;stroke:none;stroke-width:1;stroke-linecap:butt;stroke-linejoin:miter;marker:none;marker-start:none;marker-mid:none;marker-end:none;stroke-miterlimit:4;stroke-dasharray:none;stroke-dashoffset:0;stroke-opacity:1;visibility:visible;display:inline;overflow:visible" transform="translate(-29.75546,19)"/><path d="M 38.330708,20 C 38.330708,20 39.768208,20.09375 40.330708,21.34375 C 40.910201,22.631511 40.330708,24 40.330708,24 L 42.330708,23 C 42.330708,23 43.15774,21.681133 42.549458,20.3125 C 41.924458,18.90625 40.330708,19 40.330708,19 L 38.330708,20 z " id="path2962" style="color:#000000;fill:url(#linearGradient2556);fill-opacity:1;fill-rule:evenodd;stroke:none;stroke-width:1;stroke-linecap:butt;stroke-linejoin:miter;marker:none;marker-start:none;marker-mid:none;marker-end:none;stroke-miterlimit:4;stroke-dasharray:none;stroke-dashoffset:0;stroke-opacity:1;visibility:visible;display:inline;overflow:visible" transform="translate(-29.75546,19)"/><path d="M 18.768208,31.78125 L 23.268208,27.28125 C 24.768208,28.09375 25.549458,29.4375 25.143208,31 L 18.768208,31.78125 z " id="path2982" style="color:#000000;fill:url(#radialGradient2558);fill-opacity:1;fill-rule:evenodd;stroke:none;stroke-width:1;stroke-linecap:butt;stroke-linejoin:miter;marker:none;marker-start:none;marker-mid:none;marker-end:none;stroke-miterlimit:4;stroke-dasharray:none;stroke-dashoffset:0;stroke-opacity:1;visibility:visible;display:inline;overflow:visible" transform="translate(-29.75546,19)"/><path d="M 20.111958,30.375 L 18.486958,31.96875 L 20.830708,31.65625 C 21.049458,30.9375 20.643208,30.59375 20.111958,30.375 z " id="path2992" style="color:#000000;fill:url(#linearGradient2560);fill-opacity:1;fill-rule:evenodd;stroke:none;stroke-width:1;stroke-linecap:butt;stroke-linejoin:miter;marker:none;marker-start:none;marker-mid:none;marker-end:none;stroke-miterlimit:4;stroke-dasharray:none;stroke-dashoffset:0;stroke-opacity:1;visibility:visible;display:inline;overflow:visible" transform="translate(-29.75546,19)"/><path d="M 23.268208,27.25 L 24.830708,28.5 L 40.218048,21.18133 C 39.773616,20.325286 38.976281,20.096733 38.314669,20.019068 L 23.268208,27.25 z " id="path3002" style="color:#000000;fill:#ffffff;fill-opacity:0.36363639;fill-rule:evenodd;stroke:none;stroke-width:1;stroke-linecap:butt;stroke-linejoin:miter;marker:none;marker-start:none;marker-mid:none;marker-end:none;stroke-miterlimit:4;stroke-dasharray:none;stroke-dashoffset:0;stroke-opacity:1;visibility:visible;display:inline;overflow:visible" transform="translate(-29.75546,19)"/><path d="M 25.143208,31.0625 L 25.330708,30.3125 L 40.561798,23.1829 C 40.561798,23.1829 40.451638,23.796527 40.345919,23.93225 L 25.143208,31.0625 z " id="path3004" style="color:#000000;fill:#000000;fill-opacity:0.36363639;fill-rule:evenodd;stroke:none;stroke-width:1;stroke-linecap:butt;stroke-linejoin:miter;marker:none;marker-start:none;marker-mid:none;marker-end:none;stroke-miterlimit:4;stroke-dasharray:none;stroke-dashoffset:0;stroke-opacity:1;visibility:visible;display:inline;overflow:visible" transform="translate(-29.75546,19)"/></g></g></svg>