<?xml version="1.0" ?><svg height="48px" id="svg11300" width="48px" xmlns="http://www.w3.org/2000/svg" xmlns:cc="http://creativecommons.org/ns#" xmlns:dc="http://purl.org/dc/elements/1.1/" xmlns:inkscape="http://www.inkscape.org/namespaces/inkscape" xmlns:rdf="http://www.w3.org/1999/02/22-rdf-syntax-ns#" xmlns:sodipodi="http://sodipodi.sourceforge.net/DTD/sodipodi-0.dtd" xmlns:svg="http://www.w3.org/2000/svg" xmlns:xlink="http://www.w3.org/1999/xlink"><defs id="defs3"><linearGradient id="linearGradient5204"><stop id="stop5206" offset="0" style="stop-color:#c4a000;stop-opacity:1;"/><stop id="stop5208" offset="1" style="stop-color:#c4a000;stop-opacity:0;"/></linearGradient><linearGradient id="linearGradient5196"><stop id="stop5198" offset="0" style="stop-color:#c4a000;stop-opacity:1;"/><stop id="stop5200" offset="1" style="stop-color:#c4a000;stop-opacity:0;"/></linearGradient><linearGradient id="linearGradient12512"><stop id="stop12513" offset="0.0000000" style="stop-color:#ffffff;stop-opacity:1.0000000;"/><stop id="stop12517" offset="0.50000000" style="stop-color:#fff520;stop-opacity:0.89108908;"/><stop id="stop12514" offset="1.0000000" style="stop-color:#fff300;stop-opacity:0.0000000;"/></linearGradient><radialGradient cx="55.000000" cy="125.00000" fx="55.000000" fy="125.00000" gradientUnits="userSpaceOnUse" id="radialGradient278" r="14.375000" xlink:href="#linearGradient12512"/><linearGradient id="linearGradient10653"><stop id="stop10655" offset="0.0000000" style="stop-color:#f3f4ff;stop-opacity:1.0000000;"/><stop id="stop10657" offset="1.0000000" style="stop-color:#9193af;stop-opacity:1.0000000;"/></linearGradient><linearGradient id="linearGradient42174"><stop id="stop42176" offset="0.0000000" style="stop-color:#a0a0a0;stop-opacity:1.0000000;"/><stop id="stop42178" offset="1.0000000" style="stop-color:#ffffff;stop-opacity:1.0000000;"/></linearGradient><linearGradient id="linearGradient2145"><stop id="stop2147" offset="0.0000000" style="stop-color:#fffffd;stop-opacity:1.0000000;"/><stop id="stop2149" offset="1.0000000" style="stop-color:#cbcbc9;stop-opacity:1.0000000;"/></linearGradient><linearGradient id="linearGradient37935"><stop id="stop37937" offset="0.0000000" style="stop-color:#9497b3;stop-opacity:1.0000000;"/><stop id="stop37939" offset="1.0000000" style="stop-color:#4c4059;stop-opacity:1.0000000;"/></linearGradient><linearGradient id="linearGradient2152"><stop id="stop2154" offset="0.0000000" style="stop-color:#9aa29a;stop-opacity:1.0000000;"/><stop id="stop2156" offset="1.0000000" style="stop-color:#b5beb5;stop-opacity:1.0000000;"/></linearGradient><linearGradient id="linearGradient3816"><stop id="stop3818" offset="0" style="stop-color:#000000;stop-opacity:1;"/><stop id="stop3820" offset="1" style="stop-color:#000000;stop-opacity:0;"/></linearGradient><radialGradient cx="31.112698" cy="19.008621" fx="31.112698" fy="19.008621" gradientUnits="userSpaceOnUse" id="radialGradient3822" r="8.6620579" xlink:href="#linearGradient3816"/><linearGradient gradientTransform="matrix(3.123841,0.000000,0.000000,0.969691,-31.88758,-19.59492)" gradientUnits="userSpaceOnUse" id="linearGradient4307" x1="8.9156475" x2="9.8855033" xlink:href="#linearGradient2152" y1="37.197018" y2="52.090678"/><radialGradient cx="11.329200" cy="10.583970" fx="11.329200" fy="10.583970" gradientUnits="userSpaceOnUse" id="radialGradient4309" r="15.532059" xlink:href="#linearGradient10653"/><radialGradient cx="11.901996" cy="10.045444" fx="11.901996" fy="10.045444" gradientUnits="userSpaceOnUse" id="radialGradient4311" r="29.292715" xlink:href="#linearGradient2145"/><linearGradient gradientUnits="userSpaceOnUse" id="linearGradient4313" x1="6.3422160" x2="22.218424" xlink:href="#linearGradient42174" y1="7.7893324" y2="25.884274"/><radialGradient cx="23.375" cy="10.972863" fx="23.375" fy="10.972863" gradientTransform="matrix(3.630420,1.654030e-15,-1.608743e-15,3.742066,-61.48607,-29.18618)" gradientUnits="userSpaceOnUse" id="radialGradient5202" r="3.3478092" xlink:href="#linearGradient5196"/><linearGradient gradientUnits="userSpaceOnUse" id="linearGradient5210" x1="19.667364" x2="20.329933" xlink:href="#linearGradient5204" y1="4.2570662" y2="5.2845874"/><radialGradient cx="8.7468252" cy="6.8283234" fx="8.7468252" fy="6.8283234" gradientUnits="userSpaceOnUse" id="radialGradient5212" r="29.889715" xlink:href="#linearGradient37935"/></defs><g id="layer1"><path d="M 39.774755 19.008621 A 8.6620579 8.6620579 0 1 1  22.45064,19.008621 A 8.6620579 8.6620579 0 1 1  39.774755 19.008621 z" id="path4318" style="opacity:1;color:#000000;fill:url(#radialGradient3822);fill-opacity:1;fill-rule:evenodd;stroke:none;stroke-width:1px;stroke-linecap:round;stroke-linejoin:round;marker:none;marker-start:none;marker-mid:none;marker-end:none;stroke-miterlimit:4;stroke-dasharray:none;stroke-dashoffset:0;stroke-opacity:1;visibility:visible;display:inline;overflow:visible" transform="matrix(2.563158,0.000000,0.000000,1.219602,-55.98414,14.04144)"/><path d="M 18.587591,1.403729 L 4.226755,18.096665 L 5.4854717,19.339844 L 18.587591,1.403729 z " id="path14341" style="color:#000000;fill:url(#linearGradient4307);fill-opacity:1;fill-rule:evenodd;stroke:none;stroke-width:1;stroke-linecap:butt;stroke-linejoin:miter;marker:none;marker-start:none;marker-mid:none;marker-end:none;stroke-miterlimit:4;stroke-dashoffset:0;stroke-opacity:1;visibility:visible;display:inline;overflow:visible"/><path d="M 18.467176,1.3138035 L 5.6605716,19.072612 L 7.4900985,20.687913 L 18.467176,1.3138035 z " id="path18921" style="fill:#fefefe;fill-opacity:1;fill-rule:evenodd;stroke:none;stroke-width:1;stroke-linecap:butt;stroke-linejoin:miter;stroke-miterlimit:4;stroke-opacity:1"/><path d="M 31.160714 16.910715 A 14.910714 14.910714 0 1 1  1.3392859,16.910715 A 14.910714 14.910714 0 1 1  31.160714 16.910715 z" id="path27786" style="fill:url(#radialGradient5212);fill-opacity:1;fill-rule:evenodd;stroke:#605773;stroke-width:0.69855404;stroke-linecap:round;stroke-linejoin:round;stroke-miterlimit:4;stroke-dashoffset:0;stroke-opacity:1" transform="matrix(1.431529,0.000000,0.000000,1.431529,0.569459,-1.654618)"/><path d="M 31.160714 16.910715 A 14.910714 14.910714 0 1 1  1.3392859,16.910715 A 14.910714 14.910714 0 1 1  31.160714 16.910715 z" id="path35549" style="fill:url(#radialGradient4311);fill-opacity:1;fill-rule:evenodd;stroke:url(#linearGradient4313);stroke-width:0.71139598;stroke-linecap:round;stroke-linejoin:round;stroke-miterlimit:4;stroke-dashoffset:0;stroke-opacity:1" transform="matrix(1.163838,0.000000,0.000000,1.163838,4.824801,2.777556)"/><path d="M 16.679382,6.6387137 A 8.5,8.5 0 0 1 23.332691,3.3751053 L 23.375,11.875 z" id="path4120" style="opacity:1;color:#000000;fill:url(#radialGradient5202);fill-opacity:1;fill-rule:evenodd;stroke:url(#linearGradient5210);stroke-width:0.56498736;stroke-linecap:butt;stroke-linejoin:miter;marker:none;marker-start:none;marker-mid:none;marker-end:none;stroke-miterlimit:4;stroke-dasharray:none;stroke-dashoffset:0;stroke-opacity:1;visibility:visible;display:inline;overflow:visible" transform="matrix(1.769951,0.000000,0.000000,1.769951,-17.02424,1.610741)"/><path d="M 16.40625 17.28125 A 1.21875 1.21875 0 1 1  13.96875,17.28125 A 1.21875 1.21875 0 1 1  16.40625 17.28125 z" id="path34778" style="fill:#f3f3f3;fill-opacity:1;fill-rule:evenodd;stroke:#000000;stroke-width:0.48232403;stroke-linecap:round;stroke-linejoin:round;stroke-miterlimit:4;stroke-dashoffset:0;stroke-opacity:1;stroke-dasharray:none" transform="matrix(2.073295,0.000000,0.000000,2.073295,-7.310224,-13.13682)"/><path d="M 22.176614,20.718014 L 13.155702,13.140282" id="path35559" style="fill:none;fill-opacity:0.75;fill-rule:evenodd;stroke:#000000;stroke-width:1;stroke-linecap:round;stroke-linejoin:miter;stroke-miterlimit:4;stroke-opacity:1;stroke-dasharray:none"/><path d="M 19.408614,29.776506 L 22.368655,25.283228" id="path35561" style="fill:none;fill-opacity:0.75;fill-rule:evenodd;stroke:#000000;stroke-width:2;stroke-linecap:round;stroke-linejoin:miter;stroke-miterlimit:4;stroke-opacity:1;stroke-dasharray:none"/><path d="M 17.324117 7.6932044 A 0.61871845 0.61871845 0 1 1  16.08668,7.6932044 A 0.61871845 0.61871845 0 1 1  17.324117 7.6932044 z" id="path35563" style="fill:#b6b9b1;fill-opacity:1;fill-rule:evenodd;stroke:none;stroke-width:1.36871839;stroke-linecap:round;stroke-linejoin:round;stroke-miterlimit:4;stroke-dashoffset:0;stroke-opacity:1;opacity:1" transform="matrix(2.749493,0.000000,0.000000,2.749493,-22.30073,-12.40939)"/><path d="M 17.324117 7.6932044 A 0.61871845 0.61871845 0 1 1  16.08668,7.6932044 A 0.61871845 0.61871845 0 1 1  17.324117 7.6932044 z" id="path35565" style="fill:#b6b9b1;fill-opacity:1;fill-rule:evenodd;stroke:none;stroke-width:1.36871839;stroke-linecap:round;stroke-linejoin:round;stroke-miterlimit:4;stroke-dashoffset:0;stroke-opacity:1;opacity:1" transform="matrix(2.749493,0.000000,0.000000,2.749493,-22.30073,14.80922)"/><path d="M 17.324117 7.6932044 A 0.61871845 0.61871845 0 1 1  16.08668,7.6932044 A 0.61871845 0.61871845 0 1 1  17.324117 7.6932044 z" id="path35567" style="fill:#b6b9b1;fill-opacity:1;fill-rule:evenodd;stroke:none;stroke-width:1.36871839;stroke-linecap:round;stroke-linejoin:round;stroke-miterlimit:4;stroke-dashoffset:0;stroke-opacity:1;opacity:1" transform="matrix(2.749493,0.000000,0.000000,2.749493,-35.91004,1.199890)"/><path d="M 17.324117 7.6932044 A 0.61871845 0.61871845 0 1 1  16.08668,7.6932044 A 0.61871845 0.61871845 0 1 1  17.324117 7.6932044 z" id="path35569" style="fill:#b6b9b1;fill-opacity:1;fill-rule:evenodd;stroke:none;stroke-width:1.36871839;stroke-linecap:round;stroke-linejoin:round;stroke-miterlimit:4;stroke-dashoffset:0;stroke-opacity:1;opacity:1" transform="matrix(2.749493,0.000000,0.000000,2.749493,-8.691448,1.199890)"/><path d="M 31.160714 16.910715 A 14.910714 14.910714 0 1 1  1.3392859,16.910715 A 14.910714 14.910714 0 1 1  31.160714 16.910715 z" id="path10651" style="fill:none;fill-opacity:1;fill-rule:evenodd;stroke:url(#radialGradient4309);stroke-width:0.73656511;stroke-linecap:round;stroke-linejoin:round;stroke-miterlimit:4;stroke-dashoffset:0;stroke-opacity:1" transform="matrix(1.357654,0.000000,0.000000,1.357654,1.769896,-0.493735)"/><path d="M 69.375 125 A 14.375 14.375 0 1 1  40.625,125 A 14.375 14.375 0 1 1  69.375 125 z" id="path12511" style="color:#000000;fill:url(#radialGradient278);fill-opacity:1;fill-rule:nonzero;stroke:none;stroke-width:1.25000024;stroke-linecap:butt;stroke-linejoin:round;marker:none;marker-start:none;marker-mid:none;marker-end:none;stroke-miterlimit:4;stroke-dashoffset:0;stroke-opacity:1;visibility:visible;display:block" transform="matrix(0.611127,0.000000,0.000000,0.611127,5.544052,-66.92818)"/></g></svg>