<?xml version="1.0" ?><svg height="48" id="svg2566" version="1.0" width="48" xmlns="http://www.w3.org/2000/svg" xmlns:cc="http://creativecommons.org/ns#" xmlns:dc="http://purl.org/dc/elements/1.1/" xmlns:inkscape="http://www.inkscape.org/namespaces/inkscape" xmlns:rdf="http://www.w3.org/1999/02/22-rdf-syntax-ns#" xmlns:sodipodi="http://sodipodi.sourceforge.net/DTD/sodipodi-0.dtd" xmlns:svg="http://www.w3.org/2000/svg" xmlns:xlink="http://www.w3.org/1999/xlink"><defs id="defs2568"><linearGradient id="linearGradient3510"><stop id="stop3512" offset="0" style="stop-color:#ffffff;stop-opacity:1;"/><stop id="stop3514" offset="1" style="stop-color:#ffffff;stop-opacity:0;"/></linearGradient><linearGradient id="linearGradient3498"><stop id="stop3500" offset="0" style="stop-color:#3465a4;stop-opacity:1;"/><stop id="stop3502" offset="1" style="stop-color:#3465a4;stop-opacity:0;"/></linearGradient><linearGradient id="linearGradient3281"><stop id="stop3283" offset="0" style="stop-color:#ffffff;stop-opacity:1;"/><stop id="stop3285" offset="1" style="stop-color:#ffffff;stop-opacity:0;"/></linearGradient><linearGradient id="linearGradient4099"><stop id="stop4101" offset="0" style="stop-color:#6f726f;stop-opacity:1;"/><stop id="stop4103" offset="1" style="stop-color:#6f726f;stop-opacity:0;"/></linearGradient><linearGradient id="linearGradient4068"><stop id="stop4070" offset="0" style="stop-color:#eaeae9;stop-opacity:1;"/><stop id="stop4072" offset="1" style="stop-color:#a5a7a2;stop-opacity:1;"/></linearGradient><linearGradient id="linearGradient3670"><stop id="stop3672" offset="0" style="stop-color:#d3d7cf"/><stop id="stop3674" offset="1" style="stop-color:#555753"/></linearGradient><radialGradient cx="6.8797626" cy="7.1986876" fx="6.8797626" fy="7.1986876" gradientTransform="matrix(1.240749,9.690094e-9,-9.043116e-9,1.157631,-1.713645,-1.134736)" gradientUnits="userSpaceOnUse" id="radialGradient3634" r="9.375" xlink:href="#linearGradient3670"/><linearGradient id="linearGradient3692"><stop id="stop3694" offset="0" style="stop-color:#2e3436;stop-opacity:1;"/><stop id="stop3696" offset="1" style="stop-color:#babdb6"/></linearGradient><linearGradient gradientUnits="userSpaceOnUse" id="linearGradient3698" x1="-0.51990569" x2="-0.51990569" xlink:href="#linearGradient3692" y1="-0.51990569" y2="19.269905"/><linearGradient id="linearGradient3628"><stop id="stop3630" offset="0" style="stop-color:#d3d7cf"/><stop id="stop3632" offset="1" style="stop-color:#555753"/></linearGradient><radialGradient cx="12.704856" cy="13.847466" fx="12.704856" fy="13.847466" gradientTransform="matrix(6.370852e-2,-1.424475,1.547293,6.92112e-2,-9.530629,30.98681)" gradientUnits="userSpaceOnUse" id="radialGradient3644" r="9.375" xlink:href="#linearGradient3628"/><linearGradient id="linearGradient3730"><stop id="stop3732" offset="0" style="stop-color:#eeeeec"/><stop id="stop3734" offset="1" style="stop-color:#888a85"/></linearGradient><radialGradient cx="-1.0016617" cy="0.99004257" fx="-1.0016617" fy="0.99004257" gradientTransform="matrix(-0.310032,2.110862,-2.082775,-0.305867,17.75288,16.41459)" gradientUnits="userSpaceOnUse" id="radialGradient3728" r="9.9205227" xlink:href="#linearGradient3730"/><linearGradient id="linearGradient1557"><stop id="stop1559" offset="0" style="stop-color:#2e3436;stop-opacity:1;"/><stop id="stop1561" offset="1" style="stop-color:#888a85"/></linearGradient><linearGradient gradientUnits="userSpaceOnUse" id="linearGradient1549" x1="17.0625" x2="20.3125" xlink:href="#linearGradient1557" y1="34.950001" y2="5.375"/><linearGradient id="linearGradient3676"><stop id="stop4022" offset="0" style="stop-color:#eeeeec"/><stop id="stop3680" offset="1" style="stop-color:#555753"/></linearGradient><radialGradient cx="-1.0016617" cy="0.99004257" fx="-1.0016617" fy="0.99004257" gradientTransform="matrix(-0.127582,1.416065,-1.630141,-0.146854,17.48751,15.56121)" gradientUnits="userSpaceOnUse" id="radialGradient3702" r="9.9205227" xlink:href="#linearGradient3676"/><linearGradient id="linearGradient3788"><stop id="stop3790" offset="0" style="stop-color:#cccdcb;stop-opacity:1;"/><stop id="stop3792" offset="1" style="stop-color:#888a85;stop-opacity:1;"/></linearGradient><linearGradient id="linearGradient3674"><stop id="stop3676" offset="0" style="stop-color:#ffffff;stop-opacity:0;"/><stop id="stop3678" offset="1" style="stop-color:#ffffff;stop-opacity:1;"/></linearGradient><linearGradient id="linearGradient3657"><stop id="stop3659" offset="0" style="stop-color:#fafafa;stop-opacity:1;"/><stop id="stop3661" offset="1" style="stop-color:#bfbfbf;stop-opacity:1;"/></linearGradient><linearGradient id="linearGradient3609"><stop id="stop3611" offset="0" style="stop-color:#000000;stop-opacity:1;"/><stop id="stop3613" offset="1" style="stop-color:#000000;stop-opacity:0;"/></linearGradient><linearGradient gradientTransform="matrix(1.769913,0,0,1.769913,-88.34438,10.67235)" gradientUnits="userSpaceOnUse" id="linearGradient4585" x1="56.302975" x2="56.609135" xlink:href="#linearGradient4608" y1="4.9369388" y2="8.6796741"/><linearGradient gradientTransform="matrix(0.997993,0,0,1,-97.71685,-9.352993)" gradientUnits="userSpaceOnUse" id="linearGradient4641" spreadMethod="reflect" x1="58.015995" x2="57.954308" xlink:href="#linearGradient4608" y1="35.01503" y2="40.9986"/><linearGradient id="linearGradient4608"><stop id="stop4610" offset="0" style="stop-color:#eeeeec"/><stop id="stop4612" offset="1" style="stop-color:#8a8c87;stop-opacity:1;"/></linearGradient><radialGradient cx="6.4081554" cy="17.403807" fx="6.4081554" fy="17.403807" gradientTransform="matrix(1,0,0,0.416,2.706926e-15,10.16382)" gradientUnits="userSpaceOnUse" id="radialGradient3615" r="5.524272" xlink:href="#linearGradient3609"/><linearGradient gradientTransform="translate(-64.70027,0)" gradientUnits="userSpaceOnUse" id="linearGradient3668" x1="10.4375" x2="10.4375" xlink:href="#linearGradient3657" y1="8.2899637" y2="18.984955"/><radialGradient cx="5.0822492" cy="12.516305" fx="5.0822492" fy="12.516305" gradientTransform="matrix(1.525791,4.898427e-16,-1.480441e-8,1.768964,-8.162983e-2,6.066255)" gradientUnits="userSpaceOnUse" id="radialGradient3680" r="2.9831069" xlink:href="#linearGradient3674"/><linearGradient gradientTransform="translate(-64.70027,0)" gradientUnits="userSpaceOnUse" id="linearGradient3794" x1="8.0536165" x2="10.4375" xlink:href="#linearGradient3788" y1="11.030003" y2="11.030003"/><linearGradient gradientUnits="userSpaceOnUse" id="linearGradient4095" x1="7.5763841" x2="7.3215322" xlink:href="#linearGradient4068" y1="20.301662" y2="27.345011"/><linearGradient gradientUnits="userSpaceOnUse" id="linearGradient4097" x1="7.5763841" x2="7.3215322" xlink:href="#linearGradient4068" y1="20.301662" y2="27.345011"/><linearGradient gradientTransform="matrix(1.296181,0,0,1.296181,-4.978245,-7.324566)" gradientUnits="userSpaceOnUse" id="linearGradient4105" x1="11.125889" x2="9.346509" xlink:href="#linearGradient4099" y1="25.559732" y2="25.736509"/><linearGradient gradientUnits="userSpaceOnUse" id="linearGradient3287" x1="4.6831215" x2="8.3712559" xlink:href="#linearGradient3281" y1="24.665476" y2="24.317278"/><radialGradient cx="36.82843" cy="24.427677" fx="36.82843" fy="24.427671" gradientTransform="matrix(13.39869,-4.118282e-6,6.831725e-6,22.22678,-456.6246,-518.5208)" gradientUnits="userSpaceOnUse" id="radialGradient3504" r="1.2404949" xlink:href="#linearGradient3498"/><radialGradient cx="36.82843" cy="24.427683" fx="36.82843" fy="24.427683" gradientTransform="matrix(21.09444,2.34445e-15,1.470518e-12,22.22672,-740.0468,-518.5196)" gradientUnits="userSpaceOnUse" id="radialGradient3506" r="1.2404949" xlink:href="#linearGradient3498"/><radialGradient cx="36.82843" cy="24.427677" fx="36.82843" fy="24.427671" gradientTransform="matrix(13.39869,-4.118282e-6,6.831725e-6,22.22678,-456.6246,-518.5208)" gradientUnits="userSpaceOnUse" id="radialGradient3508" r="1.2404949" xlink:href="#linearGradient3498"/><linearGradient gradientUnits="userSpaceOnUse" id="linearGradient3516" x1="9.485774" x2="7.378232" xlink:href="#linearGradient3510" y1="22.107626" y2="22.637957"/></defs><g id="layer1"><path d="M 11.932427 17.403807 A 5.524272 2.2980971 0 1 1  0.88388348,17.403807 A 5.524272 2.2980971 0 1 1  11.932427 17.403807 z" id="path3607" style="opacity:0.42857145;color:#000000;fill:url(#radialGradient3615);fill-opacity:1;fill-rule:nonzero;stroke:none;stroke-width:1;stroke-linecap:round;stroke-linejoin:round;marker:none;marker-start:none;marker-mid:none;marker-end:none;stroke-miterlimit:4;stroke-dasharray:none;stroke-dashoffset:0;stroke-opacity:1;visibility:visible;display:inline;overflow:visible" transform="matrix(2.901907,0,0,3.804948,-4.8525,-32.31157)"/><g id="g4090" transform="matrix(1.296182,0,0,1.296182,-4.176277,-7.324567)"><path d="M 12.374369 24.665476 A 3.6239223 6.3639612 0 1 1  5.126524,24.665476 A 3.6239223 6.3639612 0 1 1  12.374369 24.665476 z" id="path4076" style="opacity:1;color:#000000;fill:url(#linearGradient4095);fill-opacity:1;fill-rule:nonzero;stroke:#5d615f;stroke-width:0.57792485;stroke-linecap:round;stroke-linejoin:round;marker:none;marker-start:none;marker-mid:none;marker-end:none;stroke-miterlimit:4;stroke-dasharray:none;stroke-dashoffset:0;stroke-opacity:1;visibility:visible;display:inline;overflow:visible" transform="matrix(1.415965,0,0,1.258558,-2.667614,-6.200669)"/><path d="M 12.374369 24.665476 A 3.6239223 6.3639612 0 1 1  5.126524,24.665476 A 3.6239223 6.3639612 0 1 1  12.374369 24.665476 z" id="path4060" style="opacity:1;color:#000000;fill:url(#linearGradient4097);fill-opacity:1;fill-rule:nonzero;stroke:none;stroke-width:0.86615634;stroke-linecap:round;stroke-linejoin:round;marker:none;marker-start:none;marker-mid:none;marker-end:none;stroke-miterlimit:4;stroke-dasharray:none;stroke-dashoffset:0;stroke-opacity:1;visibility:visible;display:inline;overflow:visible" transform="matrix(1.154526,0,0,1.154526,-0.379902,-3.63468)"/><path d="M 12.374369 24.665476 A 3.6239223 6.3639612 0 1 1  5.126524,24.665476 A 3.6239223 6.3639612 0 1 1  12.374369 24.665476 z" id="path4058" style="opacity:1;color:#000000;fill:#93958f;fill-opacity:1;fill-rule:nonzero;stroke:none;stroke-width:0.86615634;stroke-linecap:round;stroke-linejoin:round;marker:none;marker-start:none;marker-mid:none;marker-end:none;stroke-miterlimit:4;stroke-dasharray:none;stroke-dashoffset:0;stroke-opacity:1;visibility:visible;display:inline;overflow:visible" transform="matrix(1.081355,0,0,1.081355,1.232653,-1.829889)"/><path d="M 12.374369 24.665476 A 3.6239223 6.3639612 0 1 1  5.126524,24.665476 A 3.6239223 6.3639612 0 1 1  12.374369 24.665476 z" id="path3279" style="opacity:0.39560439;color:#000000;fill:none;fill-opacity:1;fill-rule:nonzero;stroke:url(#linearGradient3287);stroke-width:0.68416733;stroke-linecap:round;stroke-linejoin:round;marker:none;marker-start:none;marker-mid:none;marker-end:none;stroke-miterlimit:4;stroke-dasharray:none;stroke-dashoffset:0;stroke-opacity:1;visibility:visible;display:inline;overflow:visible" transform="matrix(1.1807,0,0,1.076971,-0.608944,-1.721744)"/></g><path d="M 9.4806798,18.24261 L 16.570367,12.118401 L 16.341232,37.201244 L 9.1369775,31.676187 C 6.6164956,29.613972 6.1582259,20.41939 9.4806798,18.24261 z " id="path4542" style="color:#000000;fill:url(#linearGradient4585);fill-opacity:1;fill-rule:evenodd;stroke:url(#linearGradient4105);stroke-width:1.00000024;stroke-linecap:round;stroke-linejoin:miter;marker:none;marker-start:none;marker-mid:none;marker-end:none;stroke-miterlimit:4;stroke-dashoffset:0;stroke-opacity:1;visibility:visible;display:inline;overflow:visible"/><path d="M 7.5383505,21.987453 L 11.593316,18.948432 L 11.341702,22.484506 L 7.3782322,23.145502 L 7.5383505,21.987453 z " id="path4544" style="color:#000000;fill:url(#linearGradient3516);fill-opacity:1.0;fill-rule:evenodd;stroke:none;stroke-width:1;stroke-linecap:round;stroke-linejoin:miter;marker:none;marker-start:none;marker-mid:none;marker-end:none;stroke-miterlimit:4;stroke-dashoffset:0;stroke-opacity:1;visibility:visible;display:inline;overflow:visible"/><path d="M 8.203516,30.371178 L 12.644321,33.939519 L 12.087496,31.511626 L 7.6110912,29.008887 L 8.203516,30.371178 z " id="path3672" style="opacity:0.7692308;color:#000000;fill:url(#radialGradient3680);fill-opacity:1;fill-rule:nonzero;stroke:none;stroke-width:1;stroke-linecap:round;stroke-linejoin:round;marker:none;marker-start:none;marker-mid:none;marker-end:none;stroke-miterlimit:4;stroke-dasharray:none;stroke-dashoffset:0;stroke-opacity:1;visibility:visible;display:inline;overflow:visible"/><g id="g4006" style="display:inline" transform="matrix(1.096894,0,0,1.509271,-4.216951,-12.11812)"><path d="M 23.75,14 C 21.81001,14.049168 20.013366,14.683436 18.5,15.6875 C 18.13319,15.264088 17.60375,15 17,15 C 16.9655,15 16.912662,15.000854 16.875,15 C 16.847007,14.9998 16.806453,14.997438 16.78125,15 C 15.773145,15.102481 15,15.965001 15,17 C 15,17.60375 15.264088,18.13319 15.6875,18.5 C 14.639107,20.080181 14,21.962011 14,24 C 14,26.033681 14.611921,27.921829 15.65625,29.5 C 15.243427,29.869532 15,30.401641 15,31 C 15,32.104 15.896,33.000001 17,33 C 17.60375,33 18.13319,32.735911 18.5,32.3125 C 20.080181,33.360893 21.962011,34 24,34 C 26.03799,34 27.919819,33.360893 29.5,32.3125 C 29.86681,32.735912 30.396251,33.000001 31,33 C 32.103999,33 33,32.104001 33,31 C 33,30.39625 32.735912,29.86681 32.3125,29.5 C 33.360893,27.919819 34,26.03799 34,24 C 34,21.962011 33.360893,20.080181 32.3125,18.5 C 32.735912,18.13319 33,17.60375 33,17 C 33,15.896 32.103999,15 31,15 C 30.9655,15 30.912662,15.000854 30.875,15 C 30.847007,14.9998 30.806453,14.997438 30.78125,15 C 30.277198,15.05124 29.819299,15.298435 29.5,15.65625 C 29.493313,15.651825 29.475448,15.660659 29.46875,15.65625 C 27.894622,14.620029 26.025064,14 24,14 C 23.913827,14 23.835651,13.997829 23.75,14 z " id="path3726" style="opacity:1;color:#000000;fill:url(#radialGradient3702);fill-opacity:1;fill-rule:evenodd;stroke:url(#linearGradient1549);stroke-width:1.47668338;stroke-linecap:round;stroke-linejoin:miter;marker:none;marker-start:none;marker-mid:none;marker-end:none;stroke-miterlimit:4;stroke-dasharray:none;stroke-dashoffset:0;stroke-opacity:1;visibility:visible;display:inline;overflow:visible"/><path d="M 23.75,14 C 21.81001,14.049168 20.013366,14.683436 18.5,15.6875 C 18.13319,15.264088 17.60375,15 17,15 C 16.9655,15 16.912662,15.000854 16.875,15 C 16.847007,14.9998 16.806453,14.997438 16.78125,15 C 15.773145,15.102481 15,15.965001 15,17 C 15,17.60375 15.264088,18.13319 15.6875,18.5 C 14.639107,20.080181 14,21.962011 14,24 C 14,26.033681 14.611921,27.921829 15.65625,29.5 C 15.243427,29.869532 15,30.401641 15,31 C 15,32.104 15.896,33.000001 17,33 C 17.60375,33 18.13319,32.735911 18.5,32.3125 C 20.080181,33.360893 21.962011,34 24,34 C 26.03799,34 27.919819,33.360893 29.5,32.3125 C 29.86681,32.735912 30.396251,33.000001 31,33 C 32.103999,33 33,32.104001 33,31 C 33,30.39625 32.735912,29.86681 32.3125,29.5 C 33.360893,27.919819 34,26.03799 34,24 C 34,21.962011 33.360893,20.080181 32.3125,18.5 C 32.735912,18.13319 33,17.60375 33,17 C 33,15.896 32.103999,15 31,15 C 30.9655,15 30.912662,15.000854 30.875,15 C 30.847007,14.9998 30.806453,14.997438 30.78125,15 C 30.277198,15.05124 29.819299,15.298435 29.5,15.65625 C 29.493313,15.651825 29.475448,15.660659 29.46875,15.65625 C 27.894622,14.620029 26.025064,14 24,14 C 23.913827,14 23.835651,13.997829 23.75,14 z " id="path3507" style="opacity:1;color:#000000;fill:url(#radialGradient3728);fill-opacity:1;fill-rule:evenodd;stroke:none;stroke-width:1.09104455;stroke-linecap:round;stroke-linejoin:miter;marker:none;marker-start:none;marker-mid:none;marker-end:none;stroke-miterlimit:4;stroke-dasharray:none;stroke-dashoffset:0;stroke-opacity:1;visibility:visible;display:inline;overflow:visible"/><path d="M 18.75 9.375 A 9.375 9.375 0 1 1  0,9.375 A 9.375 9.375 0 1 1  18.75 9.375 z" id="path3636" style="opacity:1;color:#000000;fill:url(#radialGradient3644);fill-opacity:1;fill-rule:evenodd;stroke:url(#linearGradient3698);stroke-width:0.8383193;stroke-linecap:round;stroke-linejoin:miter;marker:none;marker-start:none;marker-mid:none;marker-end:none;stroke-miterlimit:4;stroke-dasharray:none;stroke-dashoffset:0;stroke-opacity:1;visibility:visible;display:inline;overflow:visible" transform="matrix(0.846982,0,0,0.911415,16.71027,15.44956)"/><path d="M 18.75 9.375 A 9.375 9.375 0 1 1  0,9.375 A 9.375 9.375 0 1 1  18.75 9.375 z" id="path3519" style="opacity:1;color:#000000;fill:url(#radialGradient3634);fill-opacity:1;fill-rule:evenodd;stroke:none;stroke-width:6.57905483;stroke-linecap:round;stroke-linejoin:miter;marker:none;marker-start:none;marker-mid:none;marker-end:none;stroke-miterlimit:4;stroke-dasharray:none;stroke-dashoffset:0;stroke-opacity:1;visibility:visible;display:inline;overflow:visible" transform="matrix(0.367272,0,0,0.32,18.56254,21.125)"/><path d="M 17 16.5 A 0.5 0.5 0 1 1  16,16.5 A 0.5 0.5 0 1 1  17 16.5 z" id="path3718" style="opacity:1;color:#000000;fill:#2e3436;fill-opacity:1;fill-rule:evenodd;stroke:none;stroke-width:1.10000002;stroke-linecap:round;stroke-linejoin:miter;marker:none;marker-start:none;marker-mid:none;marker-end:none;stroke-miterlimit:4;stroke-dasharray:none;stroke-dashoffset:0;stroke-opacity:1;visibility:visible;display:inline;overflow:visible" transform="matrix(1.3125,0,0,1.3125,-4.657679,-5.09375)"/><path d="M 17 16.5 A 0.5 0.5 0 1 1  16,16.5 A 0.5 0.5 0 1 1  17 16.5 z" id="path3720" style="opacity:1;color:#000000;fill:#2e3436;fill-opacity:1;fill-rule:evenodd;stroke:none;stroke-width:1.10000002;stroke-linecap:round;stroke-linejoin:miter;marker:none;marker-start:none;marker-mid:none;marker-end:none;stroke-miterlimit:4;stroke-dasharray:none;stroke-dashoffset:0;stroke-opacity:1;visibility:visible;display:inline;overflow:visible" transform="translate(15.22159,0.25)"/><path d="M 17 16.5 A 0.5 0.5 0 1 1  16,16.5 A 0.5 0.5 0 1 1  17 16.5 z" id="path3722" style="opacity:1;color:#000000;fill:#2e3436;fill-opacity:1;fill-rule:evenodd;stroke:none;stroke-width:1.10000002;stroke-linecap:round;stroke-linejoin:miter;marker:none;marker-start:none;marker-mid:none;marker-end:none;stroke-miterlimit:4;stroke-dasharray:none;stroke-dashoffset:0;stroke-opacity:1;visibility:visible;display:inline;overflow:visible" transform="translate(15.22159,14.96875)"/><path d="M 17 16.5 A 0.5 0.5 0 1 1  16,16.5 A 0.5 0.5 0 1 1  17 16.5 z" id="path3724" style="opacity:1;color:#000000;fill:#2e3436;fill-opacity:1;fill-rule:evenodd;stroke:none;stroke-width:1.10000002;stroke-linecap:round;stroke-linejoin:miter;marker:none;marker-start:none;marker-mid:none;marker-end:none;stroke-miterlimit:4;stroke-dasharray:none;stroke-dashoffset:0;stroke-opacity:1;visibility:visible;display:inline;overflow:visible" transform="matrix(1.375,0,0,1.375,-5.688929,8.8125)"/></g><path d="M 36.087935,32.865672 C 37.005198,30.700908 37.568925,27.707589 37.568925,24.427683 C 37.568925,21.147777 37.005198,18.154458 36.087935,15.989694" id="path3488" style="opacity:1;color:#000000;fill:none;fill-opacity:1;fill-rule:evenodd;stroke:url(#radialGradient3504);stroke-width:0.99999982;stroke-linecap:round;stroke-linejoin:miter;marker:none;marker-start:none;marker-mid:none;marker-end:none;stroke-miterlimit:4;stroke-dasharray:none;stroke-dashoffset:0;stroke-opacity:1;visibility:visible;display:inline;overflow:visible"/><path d="M 39.838951,35.702755 C 41.064624,32.810137 41.817892,28.81038 41.817892,24.427678 C 41.817892,20.044976 41.064624,16.045219 39.838951,13.152601" id="path3494" style="opacity:1;color:#000000;fill:none;fill-opacity:1;fill-rule:evenodd;stroke:url(#radialGradient3508);stroke-width:0.99999982;stroke-linecap:round;stroke-linejoin:miter;marker:none;marker-start:none;marker-mid:none;marker-end:none;stroke-miterlimit:4;stroke-dasharray:none;stroke-dashoffset:0;stroke-opacity:1;visibility:visible;display:inline;overflow:visible"/><path d="M 43.487454,39.708054 C 45.148528,35.787876 46.169383,30.367266 46.169383,24.427674 C 46.169383,18.488083 45.148528,13.067472 43.487454,9.1472948" id="path3496" style="opacity:1;color:#000000;fill:none;fill-opacity:1;fill-rule:evenodd;stroke:url(#radialGradient3506);stroke-width:0.99999982;stroke-linecap:round;stroke-linejoin:miter;marker:none;marker-start:none;marker-mid:none;marker-end:none;stroke-miterlimit:4;stroke-dasharray:none;stroke-dashoffset:0;stroke-opacity:1;visibility:visible;display:inline;overflow:visible"/></g></svg>