<?xml version="1.0" ?><svg height="48px" id="svg1328" width="48px" xmlns="http://www.w3.org/2000/svg" xmlns:cc="http://creativecommons.org/ns#" xmlns:dc="http://purl.org/dc/elements/1.1/" xmlns:inkscape="http://www.inkscape.org/namespaces/inkscape" xmlns:rdf="http://www.w3.org/1999/02/22-rdf-syntax-ns#" xmlns:sodipodi="http://sodipodi.sourceforge.net/DTD/sodipodi-0.dtd" xmlns:svg="http://www.w3.org/2000/svg" xmlns:xlink="http://www.w3.org/1999/xlink"><defs id="defs3"><linearGradient id="linearGradient6932"><stop id="stop6934" offset="0.0000000" style="stop-color:#ffffff;stop-opacity:1.0000000;"/><stop id="stop6936" offset="1.0000000" style="stop-color:#e7e6ae;stop-opacity:1.0000000;"/></linearGradient><linearGradient id="linearGradient6924"><stop id="stop6926" offset="0" style="stop-color:#ffffff;stop-opacity:1;"/><stop id="stop6928" offset="1" style="stop-color:#ffffff;stop-opacity:0;"/></linearGradient><linearGradient gradientUnits="userSpaceOnUse" id="aigrd1" x1="4.1914" x2="47.3197" y1="11.1133" y2="56.0523"><stop id="stop6490" offset="0" style="stop-color:#D4D4D4"/><stop id="stop6492" offset="0.3982" style="stop-color:#E2E2E2"/><stop id="stop6494" offset="1" style="stop-color:#FFFFFF"/></linearGradient><linearGradient id="linearGradient4206"><stop id="stop4208" offset="0.0000000" style="stop-color:#7d4b01;stop-opacity:1.0000000;"/><stop id="stop4210" offset="1.0000000" style="stop-color:#535353;stop-opacity:1.0000000;"/></linearGradient><linearGradient id="linearGradient4176"><stop id="stop4178" offset="0" style="stop-color:#ffffff;stop-opacity:1;"/><stop id="stop4180" offset="1" style="stop-color:#ffffff;stop-opacity:0;"/></linearGradient><linearGradient id="linearGradient4162"><stop id="stop4164" offset="0.0000000" style="stop-color:#f79403;stop-opacity:1.0000000;"/><stop id="stop4170" offset="0.18691589" style="stop-color:#fdb343;stop-opacity:1.0000000;"/><stop id="stop4172" offset="0.43008122" style="stop-color:#fdb74f;stop-opacity:1.0000000;"/><stop id="stop4166" offset="1.0000000" style="stop-color:#8f5601;stop-opacity:1.0000000;"/></linearGradient><linearGradient id="linearGradient4134"><stop id="stop4136" offset="0.0000000" style="stop-color:#7e807a;stop-opacity:1.0000000;"/><stop id="stop4148" offset="0.25000000" style="stop-color:#babbb8;stop-opacity:1.0000000;"/><stop id="stop4142" offset="0.50000000" style="stop-color:#a5a6a3;stop-opacity:1.0000000;"/><stop id="stop4138" offset="1.0000000" style="stop-color:#333432;stop-opacity:1.0000000;"/></linearGradient><linearGradient id="linearGradient4126"><stop id="stop4128" offset="0" style="stop-color:#000000;stop-opacity:1;"/><stop id="stop4130" offset="1" style="stop-color:#000000;stop-opacity:0;"/></linearGradient><radialGradient cx="23.857143" cy="40.000000" fx="23.857143" fy="40.000000" gradientTransform="matrix(1,0,0,0.5,-8.959602e-15,20)" gradientUnits="userSpaceOnUse" id="radialGradient4132" r="17.142857" xlink:href="#linearGradient4126"/><linearGradient gradientTransform="translate(-5.050764,-5.956924)" gradientUnits="userSpaceOnUse" id="linearGradient4140" x1="9.3030529" x2="38.826412" xlink:href="#linearGradient4134" y1="26.718750" y2="26.718750"/><linearGradient gradientUnits="userSpaceOnUse" id="linearGradient4160" x1="24.000000" x2="24.000000" xlink:href="#linearGradient6932" y1="16.525082" y2="13.284962"/><linearGradient gradientTransform="translate(-5.050764,-5.956924)" gradientUnits="userSpaceOnUse" id="linearGradient4168" x1="10.116071" x2="38.013393" xlink:href="#linearGradient4162" y1="17.511776" y2="17.511776"/><linearGradient gradientTransform="translate(-5.050764,-5.956924)" gradientUnits="userSpaceOnUse" id="linearGradient4182" x1="17.160095" x2="37.969398" xlink:href="#linearGradient4176" y1="14.004482" y2="56.575912"/><linearGradient gradientTransform="translate(-5.050764,-5.956924)" gradientUnits="userSpaceOnUse" id="linearGradient4198" x1="25.064732" x2="25.207588" xlink:href="#linearGradient4206" y1="21.857143" y2="25.428572"/><linearGradient gradientTransform="translate(-5.193620,-3.314069)" gradientUnits="userSpaceOnUse" id="linearGradient6930" x1="16.071430" x2="15.785715" xlink:href="#linearGradient6924" y1="19.500000" y2="30.000000"/><linearGradient gradientUnits="userSpaceOnUse" id="linearGradient6942" x1="24.000000" x2="24.000000" xlink:href="#linearGradient6932" y1="16.525082" y2="13.284962"/><radialGradient cx="23.857143" cy="40.000000" fx="23.857143" fy="40.000000" gradientTransform="matrix(1.000000,0.000000,0.000000,0.500000,5.299057e-16,20.00000)" gradientUnits="userSpaceOnUse" id="radialGradient6946" r="17.142857" xlink:href="#linearGradient4126"/><radialGradient cx="23.857143" cy="40.000000" fx="23.857143" fy="40.000000" gradientTransform="matrix(1,0,0,0.5,2.000293e-14,20)" gradientUnits="userSpaceOnUse" id="radialGradient7449" r="17.142857" xlink:href="#linearGradient4126"/><linearGradient gradientUnits="userSpaceOnUse" id="linearGradient7451" x1="4.1914" x2="47.3197" xlink:href="#aigrd1" y1="11.1133" y2="56.0523"/><radialGradient cx="23.857143" cy="40.000000" fx="23.857143" fy="40.000000" gradientTransform="matrix(1,0,0,0.5,1.616227e-14,20)" gradientUnits="userSpaceOnUse" id="radialGradient3105" r="17.142857" xlink:href="#linearGradient4126"/><linearGradient gradientUnits="userSpaceOnUse" id="linearGradient3980" x1="4.1914" x2="47.3197" xlink:href="#aigrd1" y1="11.1133" y2="56.0523"/><radialGradient cx="23.857143" cy="40.000000" fx="23.857143" fy="40.000000" gradientTransform="matrix(1,0,0,0.5,-7.086869e-16,20)" gradientUnits="userSpaceOnUse" id="radialGradient4022" r="17.142857" xlink:href="#linearGradient4126"/><linearGradient gradientUnits="userSpaceOnUse" id="linearGradient4024" x1="24.000000" x2="24.000000" xlink:href="#linearGradient6932" y1="16.525082" y2="13.284962"/><linearGradient gradientUnits="userSpaceOnUse" id="linearGradient4030" x1="24.000000" x2="24.000000" xlink:href="#linearGradient6932" y1="16.525082" y2="13.284962"/><linearGradient gradientTransform="translate(-5.050764,-5.956924)" gradientUnits="userSpaceOnUse" id="linearGradient4032" x1="9.3030529" x2="38.826412" xlink:href="#linearGradient4134" y1="26.718750" y2="26.718750"/><linearGradient gradientTransform="translate(-5.050764,-5.956924)" gradientUnits="userSpaceOnUse" id="linearGradient4034" x1="25.064732" x2="25.207588" xlink:href="#linearGradient4206" y1="21.857143" y2="25.428572"/><linearGradient gradientTransform="translate(-5.050764,-5.956924)" gradientUnits="userSpaceOnUse" id="linearGradient4036" x1="10.116071" x2="38.013393" xlink:href="#linearGradient4162" y1="17.511776" y2="17.511776"/><linearGradient gradientTransform="translate(-5.050764,-5.956924)" gradientUnits="userSpaceOnUse" id="linearGradient4038" x1="17.160095" x2="37.969398" xlink:href="#linearGradient4176" y1="14.004482" y2="56.575912"/><linearGradient gradientUnits="userSpaceOnUse" id="linearGradient4040" x1="24.000000" x2="24.000000" xlink:href="#linearGradient6932" y1="16.525082" y2="13.284962"/><linearGradient gradientTransform="translate(-5.19362,-3.314069)" gradientUnits="userSpaceOnUse" id="linearGradient4042" x1="16.071430" x2="15.785715" xlink:href="#linearGradient6924" y1="19.500000" y2="30.000000"/><radialGradient cx="23.857143" cy="40.000000" fx="23.857143" fy="40.000000" gradientTransform="matrix(1,0,0,0.5,-1.327983e-15,20)" gradientUnits="userSpaceOnUse" id="radialGradient4044" r="17.142857" xlink:href="#linearGradient4126"/></defs><g id="layer1"><path d="M 41 40 A 17.142857 8.5714283 0 1 1  6.7142868,40 A 17.142857 8.5714283 0 1 1  41 40 z" id="path3366" style="opacity:1;color:#000000;fill:url(#radialGradient4132);fill-opacity:1;fill-rule:nonzero;stroke:none;stroke-width:1;stroke-linecap:butt;stroke-linejoin:miter;marker:none;marker-start:none;marker-mid:none;marker-end:none;stroke-miterlimit:10;stroke-dasharray:none;stroke-dashoffset:0;stroke-opacity:1;visibility:visible;display:block;overflow:visible" transform="matrix(1.027895,0,0,1.151259,-4.901584,-14.51956)"/><g id="g4015" transform="matrix(1.008529,0,0,0.982935,-0.172022,0.592473)"><path d="M 18.886736,2.9493242 C 11.027309,2.9493242 4.6367371,5.7518251 4.6367361,9.1993252 C 4.6367361,9.4467102 4.6367361,32.066686 4.6367361,32.324326 C 4.6367361,35.771827 11.027308,38.574326 18.886736,38.574326 C 26.746164,38.574326 33.391202,35.771826 33.3912,32.324326 C 33.3912,32.120265 33.3912,9.4033862 33.3912,9.1993252 C 33.3912,5.7518241 26.746163,2.9493242 18.886736,2.9493242 z " id="path3068" style="opacity:1;color:#000000;fill:url(#linearGradient4032);fill-opacity:1;fill-rule:nonzero;stroke:url(#linearGradient4034);stroke-width:1.0043689;stroke-linecap:butt;stroke-linejoin:miter;marker:none;marker-start:none;marker-mid:none;marker-end:none;stroke-miterlimit:10;stroke-dasharray:none;stroke-dashoffset:0;stroke-opacity:1;visibility:visible;display:block;overflow:visible"/><path d="M 18.890529,3.2058466 C 11.265384,3.2058466 5.0653084,5.9248092 5.0653074,9.2695412 C 5.0653074,9.5095522 5.0653074,15.577426 5.0653074,15.827386 C 5.0653074,19.17212 11.265383,21.475284 18.890529,21.475284 C 26.515675,21.475284 32.962631,19.17212 32.962629,15.827386 C 32.962629,15.629408 32.962629,9.4675192 32.962629,9.2695412 C 32.962629,5.9248082 26.515674,3.2058466 18.890529,3.2058466 z " id="path4152" style="opacity:1;color:#000000;fill:url(#linearGradient4036);fill-opacity:1;fill-rule:nonzero;stroke:none;stroke-width:0.76899999;stroke-linecap:butt;stroke-linejoin:miter;marker:none;marker-start:none;marker-mid:none;marker-end:none;stroke-miterlimit:10;stroke-dasharray:none;stroke-dashoffset:0;stroke-opacity:1;visibility:visible;display:block;overflow:visible"/><path d="M 18.895359,3.7286451 C 11.567601,3.7286451 5.6093334,6.3415652 5.6093324,9.5558502 C 5.6093324,9.7865011 5.6093324,31.441911 5.6093324,31.682122 C 5.6093324,34.896409 11.5676,37.509327 18.895359,37.509327 C 26.223117,37.509327 32.418636,34.896408 32.418634,31.682122 C 32.418634,31.491866 32.418634,9.7461081 32.418634,9.5558502 C 32.418634,6.3415642 26.223116,3.7286451 18.895359,3.7286451 z " id="path4174" style="opacity:0.5443038;color:#000000;fill:none;fill-opacity:1;fill-rule:nonzero;stroke:url(#linearGradient4038);stroke-width:1.0043689;stroke-linecap:butt;stroke-linejoin:miter;marker:none;marker-start:none;marker-mid:none;marker-end:none;stroke-miterlimit:10;stroke-dasharray:none;stroke-dashoffset:0;stroke-opacity:1;visibility:visible;display:block;overflow:visible"/><path d="M 36.857142 14.071428 A 12.857142 5.5 0 1 1  11.142858,14.071428 A 12.857142 5.5 0 1 1  36.857142 14.071428 z" id="path3364" style="opacity:1;color:#000000;fill:#fed496;fill-opacity:1;fill-rule:nonzero;stroke:url(#linearGradient4040);stroke-width:1.00931752;stroke-linecap:butt;stroke-linejoin:miter;marker:none;marker-start:none;marker-mid:none;marker-end:none;stroke-miterlimit:10;stroke-dasharray:none;stroke-dashoffset:0;stroke-opacity:1;visibility:visible;display:block;overflow:visible" transform="matrix(1.037291,0,0,0.954619,-5.945742,-4.31836)"/><path d="M 8.5920954,13.757359 L 8.9492374,30.543074 L 13.520666,31.828788 L 13.377809,15.114502 C 13.377809,15.114502 15.449237,15.114502 18.80638,14.900216 C 13.590637,14.667143 7.6230074,12.425536 5.5920954,10.971645 C 7.0089944,13.063821 8.5920954,13.757359 8.5920954,13.757359 z " id="path6922" style="opacity:0.49367083;color:#000000;fill:url(#linearGradient4042);fill-opacity:1;fill-rule:nonzero;stroke:none;stroke-width:1;stroke-linecap:butt;stroke-linejoin:miter;marker:none;marker-start:none;marker-mid:none;marker-end:none;stroke-miterlimit:4;stroke-dasharray:none;stroke-dashoffset:0;stroke-opacity:1;visibility:visible;display:block;overflow:visible"/></g><path d="M 41 40 A 17.142857 8.5714283 0 1 1  6.7142868,40 A 17.142857 8.5714283 0 1 1  41 40 z" id="path6944" style="opacity:0.65822784;color:#000000;fill:url(#radialGradient4044);fill-opacity:1;fill-rule:nonzero;stroke:none;stroke-width:1;stroke-linecap:butt;stroke-linejoin:miter;marker:none;marker-start:none;marker-mid:none;marker-end:none;stroke-miterlimit:10;stroke-dasharray:none;stroke-dashoffset:0;stroke-opacity:1;visibility:visible;display:block;overflow:visible" transform="matrix(0.36343,0,0,0.36343,10.42172,-7.361217)"/><g id="g4005" transform="translate(0.306575,1)"><path d="M 18.83868,2.2227072 C 16.835886,2.2227072 14.207396,2.9368602 14.207396,3.8153762 C 14.207396,3.8784162 14.207396,6.3793812 14.207396,6.4450352 C 14.207396,7.3235512 16.835886,8.0377042 18.83868,8.0377042 C 20.841475,8.0377042 23.249096,7.3235512 23.249095,6.4450352 C 23.249095,6.3930352 23.249095,3.8673762 23.249095,3.8153762 C 23.249095,2.9368592 20.841475,2.2227072 18.83868,2.2227072 z " id="path3362" style="opacity:1;color:#000000;fill:#fcaf3e;fill-opacity:1;fill-rule:nonzero;stroke:#b46c02;stroke-width:0.98674041;stroke-linecap:butt;stroke-linejoin:miter;marker:none;marker-start:none;marker-mid:none;marker-end:none;stroke-miterlimit:10;stroke-dasharray:none;stroke-dashoffset:0;stroke-opacity:1;visibility:visible;display:block;overflow:visible" transform="matrix(0.995388,0,0,1.031815,6.552243e-2,-0.293424)"/><path d="M 36.857142 14.071428 A 12.857142 5.5 0 1 1  11.142858,14.071428 A 12.857142 5.5 0 1 1  36.857142 14.071428 z" id="path6940" style="opacity:1;color:#000000;fill:#fed496;fill-opacity:1;fill-rule:nonzero;stroke:url(#linearGradient4030);stroke-width:4.065238;stroke-linecap:butt;stroke-linejoin:miter;marker:none;marker-start:none;marker-mid:none;marker-end:none;stroke-miterlimit:10;stroke-dasharray:none;stroke-dashoffset:0;stroke-opacity:1;visibility:visible;display:block;overflow:visible" transform="matrix(0.270725,0,0,0.223511,12.2289,0.910809)"/></g></g><g id="layer2"><path d="M 41 40 A 17.142857 8.5714283 0 1 1  6.7142868,40 A 17.142857 8.5714283 0 1 1  41 40 z" id="path6548" style="opacity:0.5;color:#000000;fill:url(#radialGradient3105);fill-opacity:1;fill-rule:nonzero;stroke:none;stroke-width:1;stroke-linecap:butt;stroke-linejoin:miter;marker:none;marker-start:none;marker-mid:none;marker-end:none;stroke-miterlimit:10;stroke-dasharray:none;stroke-dashoffset:0;stroke-opacity:1;visibility:visible;display:block;overflow:visible" transform="matrix(0.683333,0,0,0.323981,17.57956,30.81773)"/><g id="Layer_x0020_2" style="fill-rule:nonzero;stroke:#000000;stroke-miterlimit:4" transform="matrix(0.625,0,0,0.625,18.73909,17.94873)"><path d="M 48,48 L 0,48 L 0,0 L 48,0 L 48,48 z " id="path6480" style="fill:none;stroke:none"/></g><g id="g3982"><path d="M 33.386137,38.071593 L 22.511147,17.821614 C 22.198648,17.259115 21.636148,16.946616 21.011149,16.946616 C 20.386149,16.946616 19.82365,17.321614 19.511151,17.884114 L 8.8861609,38.134094 C 8.6361609,38.634093 8.6361609,39.321593 8.9486609,39.821592 C 9.2611599,40.321592 9.7611599,40.571591 10.38616,40.571591 L 31.886138,40.571591 C 32.511137,40.571591 33.073636,40.259092 33.323637,39.759092 C 33.636136,39.259092 33.636136,38.634093 33.386137,38.071593 z " id="path6485" style="fill:#cc0000;fill-rule:nonzero;stroke:#510000;stroke-width:1.0106653;stroke-miterlimit:4;stroke-dasharray:none;stroke-opacity:1" transform="matrix(1.005605,0,0,0.973549,12.74538,5.001568)"/><g id="g6487" style="fill-rule:nonzero;stroke:#000000;stroke-miterlimit:4" transform="matrix(0.628502,0,0,0.608468,18.78643,18.65104)"><linearGradient gradientUnits="userSpaceOnUse" id="linearGradient6525" x1="4.1914001" x2="47.319698" y1="11.1133" y2="56.052299"><stop id="stop6527" offset="0" style="stop-color:#D4D4D4"/><stop id="stop6529" offset="0.3982" style="stop-color:#E2E2E2"/><stop id="stop6531" offset="1" style="stop-color:#FFFFFF"/></linearGradient><path d="M 9.5,37.6 C 9.2,38.1 9.5,38.5 10,38.5 L 38.2,38.5 C 38.7,38.5 39,38.1 38.7,37.6 L 24.4,11 C 24.1,10.5 23.7,10.5 23.5,11 L 9.5,37.6 z " id="path6496" style="fill:url(#linearGradient3980);stroke:none"/></g></g><g id="g6498" style="fill-rule:nonzero;stroke:#000000;stroke-miterlimit:4" transform="matrix(0.543542,0,0,0.549893,21.00934,19.92504)"><path d="M 23.9,36.5 C 22.6,36.5 21.6,35.5 21.6,34.2 C 21.6,32.8 22.5,31.9 23.9,31.9 C 25.3,31.9 26.1,32.8 26.2,34.2 C 26.2,35.5 25.3,36.5 23.9,36.5 L 23.9,36.5 z M 22.5,30.6 L 21.9,19.1 L 25.9,19.1 L 25.3,30.6 L 22.4,30.6 L 22.5,30.6 z " id="path6500" style="stroke:none"/></g></g></svg>