<?xml version="1.0" ?><svg data-name="Layer 1" id="Layer_1" viewBox="0 0 500 500" xmlns="http://www.w3.org/2000/svg"><defs><style>.cls-1{fill:#62b5e5;}.cls-2{fill:#529fc0;}.cls-3{fill:#e42e44;}.cls-4{fill:#bc2742;}.cls-5{fill:none;stroke:#000;stroke-linecap:round;stroke-linejoin:round;stroke-width:20px;}</style></defs><title/><path class="cls-1" d="M202.78,371.74a34.27,34.27,0,0,1,36.11-13.5,34,34,0,0,1-8.18,67.09,34.17,34.17,0,0,1-27.93-14.46v76.51h171.7A20.55,20.55,0,0,0,395,466.83V295.23h-76.9a34,34,0,1,0-38.35,0h-77Z"/><path class="cls-2" d="M362.63,295.23v171.6a20.55,20.55,0,0,1-20.55,20.55h32.4A20.55,20.55,0,0,0,395,466.83V295.23Z"/><path class="cls-3" d="M126.17,295.23a34,34,0,1,1-39.13,0H10.53v171.6a20.55,20.55,0,0,0,20.55,20.55h171.7V410.47a33.83,33.83,0,0,0,32,14.63,34,34,0,0,0-4-67.82,33.82,33.82,0,0,0-28,14.85v-76.9Z"/><path class="cls-3" d="M374.46,203.72a33.84,33.84,0,1,1,38.92,0h76.09V34a21.33,21.33,0,0,0-21.33-21.33H298.27V89.1a33.64,33.64,0,0,0-31.84-14.54,33.84,33.84,0,0,0,4,67.45,33.63,33.63,0,0,0,27.85-14.77v76.48Z"/><path class="cls-4" d="M468.14,12.62h-32.4A21.33,21.33,0,0,1,457.07,34V203.72h32.4V34A21.33,21.33,0,0,0,468.14,12.62Z"/><path class="cls-1" d="M202.78,218.72a34.27,34.27,0,0,1-36.11,13.5,34,34,0,0,1,8.18-67.09,34.17,34.17,0,0,1,27.93,14.46V103.08H31.08a20.55,20.55,0,0,0-20.55,20.54V295.23H87.44a34,34,0,1,0,38.34,0h77Z"/><path class="cls-5" d="M202.78,218.72a34.27,34.27,0,0,1-36.11,13.5,34,34,0,0,1,8.18-67.09,34.17,34.17,0,0,1,27.93,14.46V103.08H31.08a20.55,20.55,0,0,0-20.55,20.54V295.23H87.44a34,34,0,1,0,38.34,0h77Z"/><path class="cls-5" d="M374.46,203.72a33.84,33.84,0,1,1,38.92,0h76.09V34a21.33,21.33,0,0,0-21.33-21.33H298.27V89.1a33.64,33.64,0,0,0-31.84-14.54,33.84,33.84,0,0,0,4,67.45,33.63,33.63,0,0,0,27.85-14.77v76.48Z"/><path class="cls-5" d="M202.78,371.74a34.27,34.27,0,0,1,36.11-13.5,34,34,0,0,1-8.18,67.09,34.17,34.17,0,0,1-27.93-14.46v76.51h171.7A20.55,20.55,0,0,0,395,466.83V295.23h-76.9a34,34,0,1,0-38.35,0h-77Z"/><path class="cls-5" d="M126.17,295.23a34,34,0,1,1-39.13,0H10.53v171.6a20.55,20.55,0,0,0,20.55,20.55h171.7V410.47a33.83,33.83,0,0,0,32,14.63,34,34,0,0,0-4-67.82,33.82,33.82,0,0,0-28,14.85v-76.9Z"/></svg>