<?xml version="1.0" ?><svg data-name="Layer 1" id="Layer_1" viewBox="0 0 500 500" xmlns="http://www.w3.org/2000/svg"><defs><style>.cls-1{fill:#49494a;}.cls-2{fill:#62b5e5;}.cls-3{fill:#529fc0;}.cls-4{fill:none;stroke:#000;stroke-linecap:round;stroke-linejoin:round;stroke-width:20px;}</style></defs><title/><path class="cls-1" d="M345,110.2a99.32,99.32,0,0,0-9.83-23.73L351.4,61.21,338.17,48l-1.33-1.33L323.61,33.42,298.35,49.7a98.91,98.91,0,0,0-23.73-9.83L268.27,10.5H229l-6.35,29.37A98.84,98.84,0,0,0,198.9,49.7L173.64,33.42,160.4,46.65,159.08,48,145.85,61.21l16.28,25.26a98.91,98.91,0,0,0-9.83,23.73l-29.37,6.35v39.3l29.37,6.35a98.84,98.84,0,0,0,9.83,23.72l-16.28,25.26,13.23,13.24,1.32,1.32L173.64,239l25.26-16.28a98.84,98.84,0,0,0,23.72,9.83L229,261.89h39.3l6.35-29.37a98.91,98.91,0,0,0,23.73-9.83L323.61,239l13.23-13.23,1.33-1.32,13.23-13.24-16.28-25.26A99.25,99.25,0,0,0,345,162.2l29.37-6.35v-39.3Zm-96.33,76.66a50.67,50.67,0,1,1,50.67-50.66A50.66,50.66,0,0,1,248.62,186.86Z"/><rect class="cls-2" height="98.36" rx="17.56" ry="17.56" width="123.83" x="10.65" y="391.14"/><rect class="cls-2" height="98.36" rx="17.56" ry="17.56" width="123.83" x="187.37" y="391.14"/><rect class="cls-2" height="98.36" rx="17.56" ry="17.56" width="123.83" x="365.53" y="391.14"/><path class="cls-3" d="M116.91,391.14H84a17.56,17.56,0,0,1,17.56,17.56v63.24A17.56,17.56,0,0,1,84,489.5h32.89a17.56,17.56,0,0,0,17.56-17.56V408.7A17.56,17.56,0,0,0,116.91,391.14Z"/><path class="cls-3" d="M293.64,391.14H260.75a17.56,17.56,0,0,1,17.56,17.56v63.24a17.56,17.56,0,0,1-17.56,17.56h32.89a17.56,17.56,0,0,0,17.56-17.56V408.7A17.56,17.56,0,0,0,293.64,391.14Z"/><path class="cls-3" d="M471.79,391.14H438.9a17.56,17.56,0,0,1,17.56,17.56v63.24A17.56,17.56,0,0,1,438.9,489.5h32.89a17.56,17.56,0,0,0,17.56-17.56V408.7A17.56,17.56,0,0,0,471.79,391.14Z"/><rect class="cls-4" height="98.36" rx="17.56" ry="17.56" width="123.83" x="10.65" y="391.14"/><line class="cls-4" x1="50.31" x2="94.81" y1="440.32" y2="440.32"/><rect class="cls-4" height="98.36" rx="17.56" ry="17.56" width="123.83" x="187.37" y="391.14"/><line class="cls-4" x1="227.04" x2="271.54" y1="440.32" y2="440.32"/><rect class="cls-4" height="98.36" rx="17.56" ry="17.56" width="123.83" x="365.53" y="391.14"/><line class="cls-4" x1="405.19" x2="449.69" y1="440.32" y2="440.32"/><path class="cls-4" d="M250.18,262.87v61.77H82.32a9.76,9.76,0,0,0-9.76,9.76v56.74"/><path class="cls-4" d="M250.18,262.87v61.77H418a9.76,9.76,0,0,1,9.76,9.76v56.74"/><line class="cls-4" x1="249.29" x2="249.29" y1="391.14" y2="324.64"/><path class="cls-4" d="M345,110.2a99.32,99.32,0,0,0-9.83-23.73L351.4,61.21,338.17,48l-1.33-1.33L323.61,33.42,298.35,49.7a98.91,98.91,0,0,0-23.73-9.83L268.27,10.5H229l-6.35,29.37A98.84,98.84,0,0,0,198.9,49.7L173.64,33.42,160.4,46.65,159.08,48,145.85,61.21l16.28,25.26a98.91,98.91,0,0,0-9.83,23.73l-29.37,6.35v39.3l29.37,6.35a98.84,98.84,0,0,0,9.83,23.72l-16.28,25.26,13.23,13.24,1.32,1.32L173.64,239l25.26-16.28a98.84,98.84,0,0,0,23.72,9.83L229,261.89h39.3l6.35-29.37a98.91,98.91,0,0,0,23.73-9.83L323.61,239l13.23-13.23,1.33-1.32,13.23-13.24-16.28-25.26A99.25,99.25,0,0,0,345,162.2l29.37-6.35v-39.3Zm-96.33,76.66a50.67,50.67,0,1,1,50.67-50.66A50.66,50.66,0,0,1,248.62,186.86Z"/></svg>