<?xml version="1.0" ?><svg data-name="Layer 1" id="Layer_1" viewBox="0 0 500 500" xmlns="http://www.w3.org/2000/svg"><defs><style>.cls-1{fill:#e42e44;}.cls-2{fill:#fff;}.cls-3{fill:#bc2742;}.cls-4{fill:none;stroke:#000;stroke-linecap:round;stroke-linejoin:round;stroke-width:20px;}.cls-5{fill:#49494a;}</style></defs><title/><path class="cls-1" d="M359.51,143.09l-7.3-40.43A212.88,212.88,0,0,0,223.77,59.79c-118.1,0-213.84,95.74-213.84,213.84s95.74,213.84,213.84,213.84,213.84-95.74,213.84-213.84A212.82,212.82,0,0,0,398.33,150.1Z"/><circle class="cls-2" cx="223.77" cy="273.63" r="165.2" transform="translate(-127.95 238.37) rotate(-45)"/><path class="cls-3" d="M398.33,150.1l-37.55-6.78a212.86,212.86,0,0,1,44.35,130.31c0,112.63-87.1,204.85-197.6,213.16,5.36.41,10.77.68,16.24.68,118.1,0,213.84-95.74,213.84-213.84A212.82,212.82,0,0,0,398.33,150.1Z"/><path class="cls-3" d="M359.19,141.29l-7-38.63A212.88,212.88,0,0,0,223.77,59.79c-5.47,0-10.88.27-16.24.68A213.42,213.42,0,0,1,359.19,141.29Z"/><circle class="cls-4" cx="223.77" cy="273.63" r="165.2" transform="translate(-127.95 238.37) rotate(-45)"/><circle class="cls-1" cx="223.77" cy="273.63" r="114.58" transform="translate(-127.95 238.37) rotate(-45)"/><circle class="cls-4" cx="223.77" cy="273.63" r="114.58" transform="translate(-127.95 238.37) rotate(-45)"/><circle class="cls-2" cx="223.77" cy="273.63" r="56.91" transform="translate(-127.95 238.37) rotate(-45)"/><circle class="cls-4" cx="223.77" cy="273.63" r="56.91" transform="translate(-127.95 238.37) rotate(-45)"/><polygon class="cls-5" points="359.51 143.09 348.55 82.4 418.43 12.53 429.38 73.22 359.51 143.09"/><polygon class="cls-5" points="359.51 143.09 420.2 154.05 490.07 84.18 429.38 73.22 359.51 143.09"/><line class="cls-4" x1="405.58" x2="223.77" y1="97.02" y2="278.83"/><polygon class="cls-4" points="359.51 143.09 348.55 82.4 418.43 12.53 429.38 73.22 359.51 143.09"/><polygon class="cls-4" points="359.51 143.09 420.2 154.05 490.07 84.18 429.38 73.22 359.51 143.09"/><path class="cls-4" d="M359.51,143.09l-7.3-40.43A212.88,212.88,0,0,0,223.77,59.79c-118.1,0-213.84,95.74-213.84,213.84s95.74,213.84,213.84,213.84,213.84-95.74,213.84-213.84A212.82,212.82,0,0,0,398.33,150.1Z"/></svg>