<?xml version="1.0" ?><svg data-name="Layer 1" id="Layer_1" viewBox="0 0 500 500" xmlns="http://www.w3.org/2000/svg"><defs><style>.cls-1{fill:#f6bc91;}.cls-2{fill:#dfa985;}.cls-3{fill:none;stroke:#000;stroke-linecap:round;stroke-linejoin:round;stroke-width:20px;}.cls-4{fill:#ffc43d;}.cls-5{fill:#faae17;}</style></defs><title/><path class="cls-1" d="M455.28,190.47c0-99.54-87.35-180.23-186.88-180.23A180.23,180.23,0,0,0,88.17,190.47q0,3.14.11,6.24l-.09,0L47.93,267.57a24.31,24.31,0,0,0,21.14,36.31H88.19l10.08,68a31.26,31.26,0,0,0,34.54,31.34l54.57-7.94v94.48h193V377.06C422.46,326.77,455.28,250,455.28,190.47Z"/><path class="cls-2" d="M268.4,10.24c-5.65,0-11.22.29-16.73.8C344,19.48,421.76,96.57,421.76,190.47c0,59.53-32.82,136.3-74.88,186.59v112.7H380.4V377.06c42.06-50.29,74.88-127.06,74.88-186.59C455.28,90.93,367.93,10.24,268.4,10.24Z"/><path class="cls-3" d="M455.28,190.47c0-99.54-87.35-180.23-186.88-180.23A180.23,180.23,0,0,0,88.17,190.47q0,3.14.11,6.24l-.09,0L47.93,267.57a24.31,24.31,0,0,0,21.14,36.31H88.19l10.08,68a31.26,31.26,0,0,0,34.54,31.34l54.57-7.94v94.48h193V377.06C422.46,326.77,455.28,250,455.28,190.47Z"/><circle class="cls-4" cx="272.2" cy="200.19" r="116.17" transform="translate(-61.83 251.11) rotate(-45)"/><path class="cls-5" d="M272.2,84a117.2,117.2,0,0,0-16.76,1.34,116,116,0,0,1,0,229.65A116.11,116.11,0,1,0,272.2,84Z"/><circle class="cls-3" cx="272.2" cy="200.19" r="116.17" transform="translate(-61.83 251.11) rotate(-45)"/><ellipse class="cls-3" cx="272.2" cy="200.19" rx="51.94" ry="116.17"/><line class="cls-3" x1="156.03" x2="388.37" y1="200.19" y2="200.19"/><line class="cls-3" x1="173.2" x2="371.2" y1="139.38" y2="139.38"/><line class="cls-3" x1="173.2" x2="371.2" y1="261" y2="261"/></svg>