<?xml version="1.0" ?><svg data-name="Layer 1" id="Layer_1" viewBox="0 0 500 500" xmlns="http://www.w3.org/2000/svg"><defs><style>.cls-1{fill:#727373;}.cls-2{fill:#606161;}.cls-3{fill:none;stroke:#000;stroke-linecap:round;stroke-linejoin:round;stroke-width:20px;}.cls-4{fill:#49494a;}.cls-5{fill:#ffc43d;}.cls-6{fill:#faae17;}</style></defs><title/><rect class="cls-1" height="332.77" rx="16.5" ry="16.5" width="477.76" x="11.12" y="124.61"/><path class="cls-2" d="M11.59,253a.47.47,0,0,1-.47-.47v39.24a.48.48,0,0,0,.47.48H488.41a.48.48,0,0,0,.47-.48V252.5a.47.47,0,0,1-.47.47Z"/><rect class="cls-3" height="332.77" rx="16.5" ry="16.5" width="477.76" x="11.12" y="124.61"/><path class="cls-4" d="M27.62,124.61H472.38a16.5,16.5,0,0,1,16.5,16.5V252.5a.47.47,0,0,1-.47.47H11.59a.47.47,0,0,1-.47-.47V141.11A16.5,16.5,0,0,1,27.62,124.61Z"/><path class="cls-3" d="M27.62,124.61H472.38a16.5,16.5,0,0,1,16.5,16.5V252.5a.47.47,0,0,1-.47.47H11.59a.47.47,0,0,1-.47-.47V141.11A16.5,16.5,0,0,1,27.62,124.61Z"/><path class="cls-3" d="M188.36,42.62H311.64A28.17,28.17,0,0,1,339.81,70.8v53.34a.47.47,0,0,1-.47.47H160.66a.47.47,0,0,1-.47-.47V70.8A28.17,28.17,0,0,1,188.36,42.62Z"/><path class="cls-5" d="M117,322.34h0a30.77,30.77,0,0,1-30.77-30.77V253.45a.48.48,0,0,1,.47-.48h60.59a.48.48,0,0,1,.48.48v38.12A30.77,30.77,0,0,1,117,322.34Z"/><path class="cls-6" d="M86.21,291.57c0,.22.06.43.06.65h61.41c0-.22.07-.43.07-.65V253.45a.48.48,0,0,0-.48-.48H86.68a.48.48,0,0,0-.47.48Z"/><path class="cls-5" d="M352.73,253h60.6a.47.47,0,0,1,.47.47v38.12A30.77,30.77,0,0,1,383,322.34h0a30.77,30.77,0,0,1-30.77-30.77V253.45a.47.47,0,0,1,.47-.47Z"/><path class="cls-6" d="M352.25,291.57c0,.22.06.43.07.65h61.41c0-.22.06-.43.06-.65V253.45a.48.48,0,0,0-.47-.48H352.73a.48.48,0,0,0-.48.48Z"/><path class="cls-3" d="M117,322.34h0a30.77,30.77,0,0,1-30.77-30.77V253.45a.48.48,0,0,1,.47-.48h60.59a.48.48,0,0,1,.48.48v38.12A30.77,30.77,0,0,1,117,322.34Z"/><path class="cls-3" d="M352.73,253h60.6a.47.47,0,0,1,.47.47v38.12A30.77,30.77,0,0,1,383,322.34h0a30.77,30.77,0,0,1-30.77-30.77V253.45a.47.47,0,0,1,.47-.47Z"/></svg>