<?xml version="1.0" ?><svg data-name="Layer 1" id="Layer_1" viewBox="0 0 500 500" xmlns="http://www.w3.org/2000/svg"><defs><style>.cls-1{fill:#ffc43d;}.cls-2{fill:#faae17;}.cls-3{fill:#f6bc91;}.cls-4{fill:#dfa985;}.cls-5{fill:none;stroke:#000;stroke-linecap:round;stroke-linejoin:round;stroke-width:20px;}</style></defs><title/><circle class="cls-1" cx="428.74" cy="70.43" r="57.55"/><circle class="cls-1" cx="428.74" cy="250.89" r="57.55"/><circle class="cls-1" cx="428.74" cy="431.35" r="57.55"/><path class="cls-2" d="M428.74,12.88a57.63,57.63,0,0,0-16.56,2.44,57.55,57.55,0,0,1,0,110.22A57.55,57.55,0,1,0,428.74,12.88Z"/><path class="cls-2" d="M428.74,193.34a57.63,57.63,0,0,0-16.56,2.44,57.55,57.55,0,0,1,0,110.22,57.55,57.55,0,1,0,16.56-112.66Z"/><path class="cls-2" d="M428.74,373.8a57.63,57.63,0,0,0-16.56,2.44,57.55,57.55,0,0,1,0,110.22A57.55,57.55,0,1,0,428.74,373.8Z"/><path class="cls-3" d="M197.9,167.49c-9.21-17.81-27-35.5-45.64-43.74l-.66-1.4A61,61,0,1,0,84,123l-.06,0C64.78,131,46.27,149.2,36.81,167.49c0,0-20.27,25.31-23.1,121.82a22.2,22.2,0,0,0,43.79,5.78l.57.75V459.48a29.65,29.65,0,0,0,59.29,0A29.64,29.64,0,0,0,147,489.12h0a29.64,29.64,0,0,0,29.64-29.64V292.22A22.24,22.24,0,0,0,221,289.31C218.17,192.8,197.9,167.49,197.9,167.49Z"/><path class="cls-4" d="M197.9,167.49c-9.21-17.81-27-35.5-45.64-43.74l-.66-1.4A60.95,60.95,0,0,0,100.79,13.22a60.91,60.91,0,0,1,17.68,109.13l.66,1.4c18.62,8.24,36.43,25.93,45.64,43.74,0,0,20.27,25.31,23.09,121.82a22,22,0,0,1-5.65,15.37A22.16,22.16,0,0,0,221,289.31C218.17,192.8,197.9,167.49,197.9,167.49Z"/><path class="cls-5" d="M98.17,129.92A61,61,0,0,1,83.93,123C64.78,131,46.27,149.2,36.81,167.49c0,0-20.27,25.31-23.1,121.82A22.25,22.25,0,0,0,36,312.2h0a22.24,22.24,0,0,0,22.12-20c2.47-24.11,4.7-65.76,14.68-100.7"/><path class="cls-5" d="M136.35,130a61.05,61.05,0,1,0-38.18-.06"/><path class="cls-5" d="M58.07,292.22V459.48a29.64,29.64,0,0,0,29.64,29.64h0a29.65,29.65,0,0,0,29.65-29.64V317.84"/><path class="cls-5" d="M136.55,129.92A61.16,61.16,0,0,0,150.78,123c19.15,7.92,37.66,26.16,47.12,44.45,0,0,20.27,25.31,23.1,121.82a22.25,22.25,0,0,1-22.23,22.89h0a22.25,22.25,0,0,1-22.13-20c-2.47-24.11-4.7-65.76-14.68-100.7"/><path class="cls-5" d="M176.64,292.22V459.48A29.64,29.64,0,0,1,147,489.12h0a29.64,29.64,0,0,1-29.64-29.64V317.84"/><path class="cls-5" d="M223.55,250h62.69V417.81a9.76,9.76,0,0,0,9.76,9.76h73.31"/><path class="cls-5" d="M223.55,250h62.69V82.19A9.76,9.76,0,0,1,296,72.43h73.31"/><line class="cls-5" x1="369.31" x2="286.24" y1="250.89" y2="250.89"/><polyline class="cls-5" points="406 71.19 421.1 85.62 451.48 55.24"/><circle class="cls-5" cx="428.74" cy="70.43" r="57.55"/><polyline class="cls-5" points="406 251.65 421.1 266.08 451.48 235.7"/><circle class="cls-5" cx="428.74" cy="250.89" r="57.55"/><polyline class="cls-5" points="406 432.11 421.1 446.54 451.48 416.16"/><circle class="cls-5" cx="428.74" cy="431.35" r="57.55"/></svg>