<?xml version="1.0" ?><svg data-name="Layer 1" id="Layer_1" viewBox="0 0 500 500" xmlns="http://www.w3.org/2000/svg"><defs><style>.cls-1{fill:#fff;}.cls-2{fill:#e2e2e2;}.cls-3{fill:#e42e44;}.cls-4{fill:#ffc43d;}.cls-5{fill:none;stroke:#000;stroke-linecap:round;stroke-linejoin:round;stroke-width:20px;}</style></defs><title/><rect class="cls-1" height="277.31" width="424.18" x="37.91" y="83.48"/><rect class="cls-2" height="32.63" width="424.18" x="37.91" y="83.48"/><rect class="cls-3" height="56.31" rx="12" ry="12" width="479.96" x="10.02" y="27.17"/><path class="cls-4" d="M164.91,157.14a76.29,76.29,0,1,0,76.3,76.29h-76.3Z"/><circle class="cls-3" cx="250" cy="444.08" r="28.75"/><rect class="cls-5" height="56.31" rx="12" ry="12" width="479.96" x="10.02" y="27.17"/><rect class="cls-5" height="277.31" width="424.18" x="37.91" y="83.48"/><line class="cls-5" x1="250" x2="250" y1="360.79" y2="415.33"/><circle class="cls-5" cx="250" cy="444.08" r="28.75"/><path class="cls-5" d="M164.91,157.14a76.29,76.29,0,1,0,76.3,76.29h-76.3Z"/><path class="cls-3" d="M196.68,125.77v76.3H273A76.29,76.29,0,0,0,196.68,125.77Z"/><path class="cls-5" d="M196.68,125.77v76.3H273A76.29,76.29,0,0,0,196.68,125.77Z"/><line class="cls-5" x1="311.66" x2="398.78" y1="180.44" y2="180.44"/><line class="cls-5" x1="311.66" x2="398.78" y1="233.43" y2="233.43"/><line class="cls-5" x1="311.66" x2="398.78" y1="286.42" y2="286.42"/></svg>