<?xml version="1.0" ?><!DOCTYPE svg  PUBLIC '-//W3C//DTD SVG 1.1//EN'  'http://www.w3.org/Graphics/SVG/1.1/DTD/svg11.dtd'><svg style="enable-background:new 0 0 500 500;" version="1.1" viewBox="0 0 500 500" xml:space="preserve" xmlns="http://www.w3.org/2000/svg" xmlns:xlink="http://www.w3.org/1999/xlink"><g id="globe-gear"><g><circle cx="250" cy="250" r="250" style="fill:#F4F1F0;"/><g id="_x32_7"><g><path d="M313.141,209.391l-7.162,7.189v0.792c2.127,0.076,4.189,0.71,6.071,1.774l1.047-1.052      l4.199-4.167h7.173l-4.536-4.536H313.141z" style="fill:#675F58;"/><path d="M293.533,214.481l4.476,4.497l3.478-1.047c0.065-0.021,0.142-0.027,0.217-0.049l-3.401-3.401      H293.533z" style="fill:#675F58;"/><path d="M246.631,125c-69.054,0-124.997,55.968-124.997,125.005c0,69.016,55.943,124.995,124.997,124.995      c19.276,0,37.538-4.378,53.836-12.18c-3.125-0.863-5.8-2.783-7.553-5.437c-1.264,0.391-2.588,0.592-3.943,0.592      c-2.566,0-5.035-0.732-7.167-2.105l-6.375-3.896c-3.315-1.866-5.55-5.023-6.364-8.566c-3.934-0.374-7.454-2.414-9.684-5.632      l-4.406-6.032c-2.352-2.984-3.22-6.717-2.648-10.271c-3.352-1.774-5.872-4.899-6.757-8.713l-0.638-2.366h-5.138l-5.333,7.612      v17.084l-15.587,11.394v20.514l-17.475-15.93v-41.834l-18.628-17.465v-21.251l-12.88-9.5h-11.426l-8.16-8.187v-11.209      l-5.479-3.385l-1.562,4.167l2.683,1.52v9.516l-6.839-8.366l-3.418-13.319l-3.062-0.765v-23.215      c6.106-16.363,15.582-31.082,27.667-43.229l38.045,0.358l-1.479,7.98l-11.412,0.744l1.131,3.792l2.674,3.065l-3.06,4.921      l-9.101-1.101l5.328,7.215l9.085,6.424l3.054,7.232l3.779-1.145v-18.625h10.292v2.3h10.636v12.912h-4.562v5.317h-4.557v3.423      h6.442l-4.159,4.172l-1.72-1.709l-4.018,3.966v3.434l-3.578,3.602l-4.544,4.568l-5.347,5.328l-3.578,3.608v11.398h-4.986v-6.104      h-16.303v6.885l15.959,15.181h31.887v3.032h11.423l12.535,15.951h2.455l1.025-6.641c0.501-3.978,2.816-7.406,6.082-9.511      c-0.689-2.192-0.735-4.52-0.263-6.776v-20.969l7.422-7.368h12.506l7.991-7.997h4.178h5.333v1.986      c1.627-2.366,3.96-4.166,6.781-5.078l-3.38-3.374v-3.049l-6.841-6.842l-5.111,5.127l-4.373,4.4v7.953h-8.751v-3.76v-12.174      h3.218v-2.859l2.094-2.105l-3.765-3.787l-4.97,4.942l-3.993-4.004l2.127-2.078v-3.776v-7.622h7.964v4.568l6.804,6.831h4.98      v-5.333h15.18v-5.3h6.066v-7.59h-6.434v-7.221h-3.424v14.442l-2.669,2.658l-5.311-2.289l-9.115-2.284l0.728-8.697l9.147-6.863      l5.306-9.12l9.891-2.29l-1.14,4.568l6.451,1.118l-0.369,4.568l7.205-0.754l3.429-2.284l0.748-3.787h15.234      c20.557,19.683,34.234,46.544,37.001,76.524c1.411,0.765,2.637,1.812,3.679,3.06C367.068,176.611,312.891,125,246.631,125z       M216.206,178.575h-10.997v-22.808h-7.62V144.77h-4.92v6.445l-4.739,4.758h-11.203l-3.093-3.103      c10.935-8.252,23.337-14.703,36.74-18.886l2.252,2.235l-3.993,4.004h-6.836v6.809h9.505h4.905V178.575z M273.199,145.915v13.851      h-6.636l-5.734,5.708l-13.832,13.867l-7.202,7.232l-6.074-6.087v-15.582h6.074v-7.227h-4.196h-1.137v-18.598h7.604v-9.51      l0.437-0.999c1.335-0.059,2.713-0.136,4.129-0.136c6.044,0,12.022,0.467,17.844,1.335v6.261h8.725V145.915z" style="fill:#675F58;"/></g><path d="M376.476,292.703l-11.322-3.012c0-0.037-0.006-0.081-0.006-0.113     c-0.038-1.389-0.119-2.751-0.282-4.097l1.779-0.732l9.071-3.694c1.237-0.51,1.915-1.823,1.53-2.913l-2.057-7.689     c-0.211-1.16-1.465-1.953-2.771-1.763l-2.279,0.315l-9.57,1.324c-0.542-1.178-1.15-2.35-1.779-3.467l8.539-7.965     c0.955-0.9,1.118-2.344,0.375-3.239l-1.091-1.514l-3.586-4.947c-0.461-0.771-1.395-1.107-2.327-0.961     c-0.293,0.044-0.581,0.13-0.863,0.277l-11.051,6.065c-0.793-0.711-1.607-1.395-2.441-2.034l5.229-10.824     c0.575-1.188,0.206-2.609-0.819-3.174l-6.689-4.335c-0.727-0.58-1.796-0.504-2.626,0.055c-0.217,0.141-0.429,0.287-0.597,0.494     l-5.013,5.952l-3.488,4.144c-0.038,0.027-0.065,0.06-0.087,0.12c-0.244-0.092-0.467-0.173-0.732-0.239l0.266-13.162     c0.027-1.323-0.906-2.468-2.067-2.528l-4.384-0.646l-2.967-0.428l-0.537-0.076c-0.543-0.135-1.107,0.005-1.59,0.298     c-0.521,0.336-0.949,0.873-1.123,1.552l-2.105,7.623l-1.389,5.029c-0.781,0.022-1.584,0.044-2.355,0.109     c-0.06-0.146-0.103-0.288-0.142-0.435l-2.479-5.647l-0.093-0.228l-2.734-6.223c-0.217-0.5-0.586-0.868-0.998-1.139     c-0.597-0.396-1.314-0.554-1.975-0.315l-7.623,2.279c-1.134,0.244-1.883,1.508-1.687,2.81l2.095,12.646     c-0.825,0.347-1.628,0.727-2.441,1.123c-0.055-0.065-0.108-0.141-0.185-0.211l-9.332-9.375c-0.9-0.933-2.37-1.058-3.255-0.271     l-6.293,4.877c-0.982,0.624-1.237,2.083-0.575,3.207l6.597,11.182c-0.737,0.722-1.443,1.492-2.115,2.257     c-0.033,0-0.065-0.027-0.109-0.027l-12.038-5.463c-1.183-0.543-2.61-0.142-3.125,0.911l-4.161,6.782     c-0.684,0.96-0.424,2.397,0.623,3.223l6.028,4.823l4.291,3.439c0.038,0.005,0.06,0.043,0.076,0.043     c-0.391,0.998-0.771,2.013-1.085,3.071c-0.049,0-0.087-0.033-0.114-0.033l-13.205-0.38c-1.302-0.021-2.466,0.912-2.563,2.073     l-1.213,7.883c-0.249,1.134,0.554,2.349,1.842,2.729l12.698,3.603c0.049,0,0.108,0,0.147,0.006c0,0.949,0.055,1.871,0.114,2.788     c-0.06,0.011-0.136,0.044-0.174,0.076l-12.239,4.953c-1.24,0.505-1.921,1.812-1.509,2.908l2.051,7.71     c0.201,1.145,1.454,1.941,2.768,1.752l12.95-1.779c0.391,0.96,0.857,1.893,1.318,2.788l-0.966,0.912l-8.317,7.877     c-0.96,0.901-1.102,2.388-0.342,3.256l4.698,6.412c0.619,0.987,2.057,1.286,3.218,0.635l11.23-6.217     c0.688,0.705,1.448,1.378,2.219,2.051l-2.018,4.503l-3.076,6.868c-0.526,1.216-0.125,2.609,0.928,3.125l6.798,4.15     c0.95,0.673,2.392,0.386,3.228-0.624l7.758-9.847c1.074,0.434,2.127,0.819,3.223,1.155l-0.238,12.527     c-0.022,1.318,0.9,2.463,2.083,2.539l6.728,0.971l1.15,0.158c1.14,0.26,2.354-0.581,2.713-1.845l2.191-8.008l1.129-4.102     c0.607,0,1.226-0.017,1.817-0.06l2.81,6.971l0.933,2.322l0.798,1.991c0.504,1.221,1.801,1.915,2.886,1.524l7.725-2.029     c0.445-0.081,0.819-0.347,1.118-0.684c0.477-0.525,0.77-1.27,0.656-2.072l-0.656-4.947l-0.586-4.335l-0.304-2.252     c0.293-0.114,0.602-0.266,0.89-0.396c0.803-0.337,1.584-0.679,2.397-1.074l0.288,0.293l8.002,8.197     c0.944,0.934,2.409,1.053,3.288,0.287l6.315-4.811c0.992-0.641,1.253-2.089,0.597-3.218l-5.751-9.906     c0.917-0.917,1.811-1.91,2.669-2.902l10.64,4.822c1.21,0.543,2.62,0.146,3.174-0.916l4.15-6.804     c0.678-0.923,0.401-2.382-0.608-3.191l-9.271-7.395c0.478-1.161,0.922-2.35,1.28-3.575l11.725,0.136     c1.351,0.016,2.446-0.955,2.522-2.095l1.074-7.899C378.581,294.266,377.745,293.056,376.476,292.703z M351.329,279.558     c1.709,5.165,2.284,10.829,1.427,16.602c-0.879,6.174-3.276,11.762-6.76,16.477l-10.167-8.018l-1.231-0.972     c0.482-0.699,0.813-1.508,1.231-2.251c1.226-2.252,2.208-4.655,2.593-7.33c0.456-3.141,0.207-6.239-0.607-9.109L351.329,279.558z      M348.297,272.775l-12.468,4.953l-1.231,0.5c-1.145-1.617-2.501-3.05-4.042-4.297c-1.573-1.265-3.331-2.322-5.22-3.152     c-0.629-0.271-1.236-0.581-1.909-0.803l1.909-13.222l0.174-1.248c3.732,0.933,7.184,2.409,10.319,4.351     c1.801,1.112,3.445,2.42,5.002,3.815C343.782,266.303,346.344,269.353,348.297,272.775z M315.277,300.331     c-5.208-0.754-8.81-5.566-8.067-10.78c0.771-5.208,5.594-8.816,10.786-8.067c1.665,0.249,3.119,0.928,4.373,1.866     c1.285,0.982,2.306,2.289,2.967,3.76c0.7,1.573,0.999,3.348,0.732,5.176c-0.124,0.868-0.396,1.666-0.732,2.435     c-0.661,1.52-1.682,2.838-2.967,3.815C320.416,299.994,317.893,300.711,315.277,300.331z M306.825,255.762     c3.613-1.015,7.433-1.497,11.35-1.329l-2.116,14.496c-3.293,0.082-6.418,0.961-9.233,2.382c-1.395,0.705-2.729,1.498-3.939,2.475     l-11.61-9.126C295.627,260.481,300.96,257.405,306.825,255.762z M282.248,303.233c-1.942-5.441-2.637-11.436-1.747-17.551     c0.624-4.341,1.997-8.35,3.95-11.98c0.618-1.166,1.297-2.295,2.04-3.374l11.431,9c-1.546,2.485-2.626,5.333-3.076,8.442     c-0.51,3.516-0.108,6.938,0.934,10.063l-5.23,2.095L282.248,303.233z M288.275,313.835c-0.992-1.237-1.953-2.518-2.783-3.885     l6.277-2.507l7.536-3.006c1.991,2.551,4.552,4.672,7.52,6.158c0.966,0.472,1.975,0.896,3.027,1.231l-2.095,14.508     c-3.146-0.781-6.055-2.078-8.777-3.603C294.856,320.427,291.189,317.448,288.275,313.835z M335.829,321.951     c-4.069,2.518-8.632,4.264-13.46,5.029c-0.19,0.027-0.386,0.032-0.575,0.064c-1.817,0.256-3.684,0.364-5.556,0.354     c-0.386-0.006-0.749,0.021-1.123,0.005l2.1-14.507c1.395-0.027,2.729-0.25,4.053-0.549c0.369-0.081,0.737-0.141,1.102-0.238     c1.02-0.282,2.002-0.662,2.967-1.074c1.384-0.58,2.724-1.264,3.955-2.127l6.538,5.154l5.144,4.059     C339.377,319.553,337.641,320.817,335.829,321.951z" style="fill:#FF931E;"/></g></g></g><g id="Layer_1"/></svg>