<?xml version="1.0" ?><!DOCTYPE svg  PUBLIC '-//W3C//DTD SVG 1.1//EN'  'http://www.w3.org/Graphics/SVG/1.1/DTD/svg11.dtd'><svg style="enable-background:new 0 0 500 500;" version="1.1" viewBox="0 0 500 500" xml:space="preserve" xmlns="http://www.w3.org/2000/svg" xmlns:xlink="http://www.w3.org/1999/xlink"><g id="clean-code-window"><g><circle cx="250" cy="250" r="250" style="fill:#F4F1F0;"/><g id="_x31_4"><g><g><polygon points="247.417,226.118 254.107,221.794 261.469,224.864 259.418,217.149 264.61,211.095        256.646,210.661 252.496,203.863 249.62,211.301 241.867,213.146 248.047,218.169      " style="fill:#FF931E;"/></g><g><polygon points="299.127,256.809 291.444,258.936 285.335,253.83 284.988,261.789 278.233,266.022        285.704,268.81 287.636,276.546 292.6,270.307 300.548,270.855 296.143,264.209      " style="fill:#FF931E;"/></g><g><polygon points="329.872,219.048 328.722,203.814 317.328,213.992 302.479,210.379 308.648,224.365        300.618,237.375 315.82,235.823 325.711,247.477 328.944,232.536 343.083,226.741      " style="fill:#FF931E;"/></g><g><polygon points="177.745,296.229 185.455,307.487 267.703,251.096 259.988,239.849      " style="fill:#675F58;"/></g><g><polygon points="148.638,316.194 156.353,327.436 181.706,310.065 174.002,298.811      " style="fill:#675F58;"/></g></g><path d="M362.776,140.077H137.229c-14.415,0.021-26.09,11.708-26.117,26.117v167.611     c0.027,14.409,11.702,26.09,26.117,26.117h225.548c14.41-0.027,26.097-11.708,26.112-26.117V166.194     C388.873,151.785,377.186,140.099,362.776,140.077z M360.004,156.809c3.283,0,5.941,2.659,5.941,5.941     c0,3.271-2.658,5.93-5.941,5.93c-3.276,0-5.93-2.659-5.93-5.93C354.074,159.467,356.727,156.809,360.004,156.809z      M313.362,157.167h29.188c3.087,0,5.583,2.501,5.583,5.583c0,3.076-2.496,5.582-5.583,5.582h-29.188     c-3.087,0-5.582-2.506-5.582-5.582C307.78,159.668,310.275,157.167,313.362,157.167z M374.652,333.806     c-0.011,6.488-5.392,11.859-11.876,11.87H137.229c-6.477-0.011-11.854-5.382-11.87-11.87V182.938h249.294V333.806z" style="fill:#675F58;"/></g></g></g><g id="Layer_1"/></svg>