<?xml version="1.0" ?><!DOCTYPE svg  PUBLIC '-//W3C//DTD SVG 1.1//EN'  'http://www.w3.org/Graphics/SVG/1.1/DTD/svg11.dtd'><svg style="enable-background:new 0 0 500 500;" version="1.1" viewBox="0 0 500 500" xml:space="preserve" xmlns="http://www.w3.org/2000/svg" xmlns:xlink="http://www.w3.org/1999/xlink"><g id="globe-locker-locked"><g><circle cx="250" cy="250" r="250" style="fill:#F4F1F0;"/><g id="_x32_5"><g><path d="M295.274,247.336c-2.495-20.35-19.005-36.339-39.589-38.015c-1.183-0.098-2.365-0.19-3.58-0.19      c-1.33,0-2.643,0.092-3.956,0.206c-20.415,1.839-36.762,17.801-39.209,38.059c-0.211,1.726-0.352,3.473-0.352,5.263      c0,0.743,0.081,1.46,0.114,2.203c1.042,20.697,16.499,37.549,36.567,40.723c2.241,0.352,4.503,0.591,6.837,0.591      c1.947,0,3.857-0.179,5.734-0.412c20.616-2.724,36.643-19.841,37.685-40.939c0.032-0.728,0.103-1.433,0.103-2.165      C295.627,250.846,295.491,249.083,295.274,247.336z M273.627,280.225h-17.995h-7.59h-17.448v-25.396v-7.438v-2.376h3.917v-5.463      c0-8.203,5.811-15.061,13.596-16.857c1.28-0.309,2.621-0.499,3.999-0.499c1.236,0,2.452,0.13,3.618,0.374      c7.976,1.644,13.992,8.632,13.992,16.982v5.463h3.911v2.371v7.487V280.225z" style="fill:#FF931E;"/></g><g><path d="M360.91,182.427c-21.268-36.171-61.116-60.433-101.312-62.62      c-53.288-4.074-104.476,26.33-127.019,75.342c-16.205,32.932-15.587,79.33,0.803,111.811      c20.817,44.954,69.672,75.526,118.794,73.497c49.881-0.065,97.075-33.572,116.411-78.814      C385.574,265.245,381.722,216.168,360.91,182.427z M371.956,247.228l-46.218,0.092c-0.684-21.501-5.426-40.761-13.314-59.272      c10.064-5.393,19.482-12.37,28.017-20.709C360.53,189.448,371.039,216.645,371.956,247.228z M335.211,161.659      c-7.65,7.802-16.824,14.61-26.297,19.71c-9.945-20.296-27.979-40.505-46.935-53.938      C289.247,130.333,314.464,141.422,335.211,161.659z M255.827,132.661c18.891,12.478,36.441,32.455,46.397,52.04      c-14.312,7.02-29.443,11.323-46.518,11.833L255.827,132.661z M240.853,127.344c-19.482,14.372-37.055,34.95-47.005,55.452      c-10.362-5.176-20.833-12.435-28.825-20.903C186.008,141.612,211.919,129.514,240.853,127.344z M248.334,131.326l-0.293,65.467      c-18.001-0.379-32.265-4.156-47.417-10.542C210.992,164.985,228.374,145.231,248.334,131.326z M128.439,237.923      c0.521-0.401-0.119-1.172,0.299-1.698c3.298-25.722,12.966-49.355,30.881-68.87c9.408,9.012,19.77,16.791,30.952,22.391      c-7.753,17.676-12.153,39.073-12.478,57.612l-49.816,0.076l-0.173-0.179L128.439,237.923z M159.299,332.4      c-19.444-21.745-30.007-47.885-31.244-77.469l45.936-0.092l4.253,0.141c0.315,19.721,4.666,38.092,11.79,55.186      C178.613,315.961,168.723,323.888,159.299,332.4z M164.697,338.097c8.252-8.94,18.495-15.446,28.25-20.947      c10.124,20.465,26.443,41.026,45.985,55.464C210.368,370.177,184.923,357.666,164.697,338.097z M252.105,307.774      c-1.438,0-2.843-0.092-4.254-0.212l-0.179,61.958c-20.361-13.84-37.267-33.876-47.743-55.648      c10.395-4.883,21.408-7.965,33.116-9.565c-3.966-1.465-7.731-3.331-11.209-5.637c-8.691,1.926-17.149,4.628-25.119,8.1      c-6.239-15.25-10.308-32.628-10.997-48.931l0.136-2.951l11.247-0.012c-0.027-0.748-0.12-1.476-0.12-2.219      c0-1.779,0.104-3.526,0.271-5.263l-11.589,0.006c0.483-19.483,4.406-37.402,11.681-54.199      c9.955,4.242,20.649,7.568,31.651,9.483c7.037-3.277,14.844-5.148,23.107-5.148c7.79,0,15.19,1.644,21.897,4.557      c10.986-2.1,21.576-5.653,31.445-10.412c7.823,17.036,12.174,35.525,12.674,55.605l-11.16,0.027      c0.179,1.758,0.266,3.532,0.266,5.344c0,0.722-0.07,1.427-0.098,2.138l9.234-0.022l1.725,0.125      c-0.2,18.999-5.061,36.757-12.044,53.255c-7.878-3.673-16.173-6.624-24.821-8.772c-3.564,2.224-7.378,4.053-11.415,5.431      c11.128,1.888,22.044,5.148,31.95,9.993l0.885,0.532c-10.374,21.028-27.87,40.489-47.407,53.917l0.271-61.648      C254.389,307.683,253.261,307.774,252.105,307.774z M264.436,372.13c15.278-11.502,28.853-26.433,38.852-42.616      c2.213-3.543,4.042-6.89,6.017-10.601c9.18,4.763,17.589,11.295,25.531,18.939C315.332,356.901,291.005,368.831,264.436,372.13z       M340.109,332.216c-8.524-8.182-17.876-14.719-27.42-20.372c7.759-17.562,12.75-38.254,13.016-57.026l44.331-0.098      c0.52,0.299,1.236,0.12,1.882,0.185C370.784,283.768,359.744,310.048,340.109,332.216z" style="fill:#675F58;"/><path d="M273.627,280.225v-25.353v-7.487v-2.371h-3.911v-5.463c0-8.35-6.017-15.337-13.992-16.982      c-1.166-0.244-2.382-0.374-3.618-0.374c-1.378,0-2.719,0.189-3.999,0.499c-7.785,1.796-13.596,8.653-13.596,16.857v5.463h-3.917      v2.376v7.438v25.396h17.448h7.59H273.627z M242.339,239.551c0-3.771,2.392-7.08,5.724-8.615      c1.242-0.575,2.604-0.923,4.042-0.923c1.285,0,2.506,0.271,3.64,0.727c3.56,1.438,6.142,4.894,6.142,8.811v5.463h-6.108h-7.77      h-5.669V239.551z M248.041,273.758h-0.624l0.635-3.462l1.742-9.467c-0.7-0.407-1.308-0.972-1.72-1.671      c-0.423-0.673-0.657-1.449-0.657-2.316c0-0.695,0.185-1.356,0.461-1.965c0.754-1.578,2.338-2.69,4.193-2.69      c1.883,0,3.494,1.128,4.227,2.734c0.276,0.586,0.456,1.237,0.456,1.921c0,1.079-0.407,2.013-1.031,2.777      c-0.374,0.478-0.813,0.9-1.356,1.21l1.318,7.15l1.069,5.778h-1.091H248.041z" style="fill:#675F58;"/></g></g></g></g><g id="Layer_1"/></svg>