<?xml version="1.0" ?><!DOCTYPE svg  PUBLIC '-//W3C//DTD SVG 1.1//EN'  'http://www.w3.org/Graphics/SVG/1.1/DTD/svg11.dtd'><svg style="enable-background:new 0 0 500 500;" version="1.1" viewBox="0 0 500 500" xml:space="preserve" xmlns="http://www.w3.org/2000/svg" xmlns:xlink="http://www.w3.org/1999/xlink"><g id="browser-html-coding"><g><path d="M250,0C111.931,0,0,111.936,0,250c0,138.075,111.931,250,250,250s250-111.925,250-250    C500,111.936,388.069,0,250,0z" style="fill:#F4F1F0;"/><g id="_x32_6"><g><path d="M362.771,140.071H137.224c-14.416,0.044-26.091,11.708-26.112,26.129v167.61      c0.021,14.421,11.697,26.096,26.112,26.118h225.548c14.409-0.023,26.096-11.697,26.117-26.118V166.2      C388.867,151.779,377.181,140.115,362.771,140.071z M360.004,156.815c3.277,0,5.936,2.669,5.936,5.935      c0,3.288-2.658,5.946-5.936,5.946c-3.282,0-5.935-2.659-5.935-5.946C354.069,159.483,356.722,156.815,360.004,156.815z       M313.357,157.172h29.189c3.087,0,5.582,2.506,5.582,5.577c0,3.092-2.495,5.577-5.582,5.577h-29.189      c-3.087,0-5.583-2.485-5.583-5.577C307.774,159.679,310.27,157.172,313.357,157.172z M374.652,333.811      c-0.021,6.489-5.397,11.871-11.881,11.871H137.224c-6.478,0-11.857-5.382-11.874-11.871V182.932h249.302V333.811z" style="fill:#675F58;"/></g><g><path d="M178.369,272.406l-25.589-11.284v-3.689l25.589-12.782v6.185l-17.632,8.171l17.632,7.237V272.406      z" style="fill:#675F58;"/><path d="M213.998,277.637h-7.861v-16.829c0-4.156-1.543-6.229-4.639-6.229      c-2.203,0-3.787,0.749-4.766,2.235c-0.982,1.497-1.471,3.917-1.471,7.27v13.553h-7.861v-40.105h7.861v8.171      c0,0.64-0.062,2.138-0.182,4.492l-0.179,2.311h0.409c1.755-2.821,4.541-4.221,8.35-4.221c3.389,0,5.957,0.912,7.704,2.734      c1.755,1.823,2.634,4.428,2.634,7.835V277.637z" style="fill:#FF931E;"/><path d="M236.868,271.897c1.37,0,3.017-0.304,4.948-0.911v5.849c-1.958,0.879-4.368,1.323-7.216,1.323      c-3.149,0-5.436-0.792-6.877-2.387c-1.427-1.584-2.148-3.982-2.148-7.15v-13.9h-3.757v-3.31l4.326-2.636l2.27-6.077h5.021v6.131      h8.07v5.892h-8.07v13.9c0,1.117,0.315,1.942,0.941,2.474C235.004,271.625,235.837,271.897,236.868,271.897z" style="fill:#FF931E;"/><path d="M276.074,277.637h-7.855v-16.829c0-2.073-0.348-3.636-1.048-4.677      c-0.694-1.042-1.79-1.552-3.287-1.552c-2.013,0-3.473,0.737-4.384,2.214c-0.906,1.465-1.367,3.906-1.367,7.291v13.553h-7.853      v-28.809h6.003l1.053,3.679h0.445c0.77-1.324,1.888-2.355,3.347-3.104c1.454-0.749,3.137-1.118,5.029-1.118      c4.309,0,7.232,1.4,8.757,4.221h0.694c0.771-1.346,1.91-2.377,3.418-3.114c1.509-0.738,3.201-1.107,5.089-1.107      c3.261,0,5.74,0.836,7.411,2.517c1.671,1.671,2.507,4.352,2.507,8.052v18.782h-7.878v-16.829c0-2.073-0.357-3.636-1.041-4.677      c-0.7-1.042-1.791-1.552-3.288-1.552c-1.932,0-3.369,0.673-4.324,2.051c-0.949,1.378-1.427,3.559-1.427,6.554V277.637z" style="fill:#FF931E;"/><path d="M312.598,277.637h-7.855v-40.105h7.855V277.637z" style="fill:#FF931E;"/><path d="M321.631,266.243l17.633-7.237l-17.633-8.171v-6.185l25.592,12.782v3.689l-25.592,11.284V266.243      z" style="fill:#675F58;"/></g></g></g></g><g id="Layer_1"/></svg>