<?xml version="1.0" ?><!DOCTYPE svg  PUBLIC '-//W3C//DTD SVG 1.1//EN'  'http://www.w3.org/Graphics/SVG/1.1/DTD/svg11.dtd'><svg style="enable-background:new 0 0 500 500;" version="1.1" viewBox="0 0 500 500" xml:space="preserve" xmlns="http://www.w3.org/2000/svg" xmlns:xlink="http://www.w3.org/1999/xlink"><g id="exploring-bugs"><g><path d="M250,0C111.931,0,0,111.936,0,250c0,138.075,111.931,250,250,250c138.075,0,250-111.925,250-250    C500,111.936,388.075,0,250,0z" style="fill:#F4F1F0;"/><g id="_x32_4"><g><rect height="11.317" style="fill:#675F58;" width="11.312" x="225.64" y="311.838"/><rect height="11.317" style="fill:#675F58;" width="11.317" x="214.323" y="300.521"/><rect height="11.317" style="fill:#675F58;" width="11.312" x="203.011" y="198.676"/><rect height="11.317" style="fill:#675F58;" width="11.312" x="259.592" y="311.838"/><rect height="11.317" style="fill:#675F58;" width="11.322" x="270.904" y="300.521"/><path d="M248.275,289.203h15.278c-10.406-9.548-16.976-23.209-16.976-38.411      c0-10.938,3.391-21.072,9.153-29.482h-7.455H225.64v-11.317h-11.317v11.317h-11.312v11.317v11.317v11.317h-11.312v11.317      h-11.323v11.307v22.634h11.323v-22.634h11.312v22.634h11.312v-11.317H248.275z M214.323,243.945h11.317v22.635h-11.317V243.945z      " style="fill:#675F58;"/><path d="M316.168,266.58h-11.317v-11.317h-11.317v-11.317v-11.317v-11.317h-2.084      c-13.227,3.299-23.068,15.245-23.068,29.482c0,4.297,0.9,8.377,2.523,12.099v-18.945h11.322v22.635h-9.386      c4.471,7.324,11.936,12.608,20.692,14.139v-2.832h11.317v2.701c4.145-0.835,7.975-2.528,11.317-4.872V266.58z" style="fill:#675F58;"/><path d="M282.227,300.261v0.26h0.705C282.693,300.445,282.46,300.348,282.227,300.261z" style="fill:#675F58;"/><path d="M382.704,301.877V168.066c-0.022-14.095-11.447-25.51-25.532-25.542H136.643      c-14.089,0.033-25.51,11.447-25.531,25.542v163.878c0.021,14.095,11.442,25.51,25.531,25.532h220.529      c11.426-0.012,20.985-7.585,24.241-17.937c-1.514,0.391-3.061,0.651-4.655,0.651c-3.375,0-6.662-0.923-9.527-2.637      c-2.002,3.537-5.762,5.989-10.059,5.989H136.643c-6.331,0-11.588-5.263-11.604-11.6V184.429h243.744v105.056L382.704,301.877z       M337.392,170.149h-28.537c-3.017,0-5.458-2.43-5.458-5.447s2.441-5.458,5.458-5.458h28.537c3.021,0,5.463,2.441,5.463,5.458      S340.413,170.149,337.392,170.149z M354.46,170.508c-3.201,0-5.8-2.605-5.8-5.805c0-3.201,2.599-5.805,5.8-5.805      c3.212,0,5.805,2.604,5.805,5.805C360.265,167.903,357.672,170.508,354.46,170.508z" style="fill:#675F58;"/></g><g><path d="M351.053,282.422c-5.002-4.46-12.663-4.015-17.123,0.987c-4.448,5.002-4.004,12.663,0.993,17.111      l4.129,3.679l16.699-17.6L351.053,282.422z" style="fill:#FF931E;"/><path d="M384.831,312.5l-2.127-1.898l-13.922-12.392l-9.896-8.812l-16.699,17.59l26.52,23.621      c0.021,0.022,0.049,0.033,0.075,0.055c3.966,3.473,9.549,3.863,13.911,1.41c1.139-0.64,2.213-1.432,3.125-2.463      C390.277,324.609,389.833,316.949,384.831,312.5z" style="fill:#FF931E;"/><path d="M344.493,250.792c0-25.239-20.459-45.703-45.697-45.703c-1.785,0-3.526,0.13-5.263,0.326      c-3.95,0.455-7.731,1.432-11.307,2.821c-1.351,0.532-2.658,1.118-3.939,1.758c-2.621,1.324-5.089,2.876-7.384,4.655      c-2.556,1.975-4.91,4.199-7.005,6.662c-6.727,7.965-10.807,18.24-10.807,29.482c0,16.135,8.388,30.284,21.018,38.411      c2.539,1.639,5.257,3.027,8.116,4.135c3.575,1.399,7.356,2.365,11.307,2.821c1.736,0.195,3.477,0.325,5.263,0.325      c2.056,0,4.068-0.174,6.055-0.445c3.949-0.531,7.758-1.529,11.317-2.983C332.785,286.209,344.493,269.867,344.493,250.792z       M316.168,283.377c-3.473,1.855-7.292,3.146-11.317,3.809c-1.976,0.325-3.988,0.542-6.055,0.542      c-1.791,0-3.538-0.173-5.263-0.423c-17.898-2.561-31.674-17.903-31.674-36.513c0-14.432,8.296-26.899,20.367-32.975      c4.98-2.506,10.602-3.95,16.569-3.95c20.394,0,36.925,16.525,36.925,36.925C335.721,264.898,327.805,277.159,316.168,283.377z" style="fill:#FF931E;"/></g></g></g></g><g id="Layer_1"/></svg>