<?xml version="1.0" ?><!DOCTYPE svg  PUBLIC '-//W3C//DTD SVG 1.1//EN'  'http://www.w3.org/Graphics/SVG/1.1/DTD/svg11.dtd'><svg style="enable-background:new 0 0 500 500;" version="1.1" viewBox="0 0 500 500" xml:space="preserve" xmlns="http://www.w3.org/2000/svg" xmlns:xlink="http://www.w3.org/1999/xlink"><g id="browser-add-link"><g><path d="M250,0C111.931,0,0,111.936,0,250c0,138.075,111.931,250,250,250s250-111.925,250-250    C500,111.936,388.069,0,250,0z" style="fill:#F4F1F0;"/><g id="_x32_2"><g><path d="M230.328,289.432c0,3.852,3.125,6.977,6.98,6.977l34.882-0.011c3.853,0,6.978-3.125,6.978-6.966      c0-3.863-3.125-6.988-6.978-6.988l-34.882,0.011C233.458,282.454,230.328,285.568,230.328,289.432z" style="fill:#675F58;"/><path d="M309.396,260.742h-25.58c-12.582,0.011-23.259,8.105-27.133,19.379h12.864      c3.043-4.654,8.29-7.736,14.269-7.747h25.58c9.419,0.011,17.047,7.628,17.058,17.058c-0.022,9.407-7.639,17.025-17.058,17.046      h-25.58c-5.984-0.011-11.226-3.103-14.274-7.747h-12.858c3.874,11.273,14.551,19.379,27.133,19.379h25.58      c15.842-0.011,28.679-12.847,28.684-28.678C338.075,273.578,325.244,260.753,309.396,260.742z" style="fill:#675F58;"/><path d="M225.678,306.478h-25.58c-9.419-0.021-17.038-7.639-17.055-17.046      c0.017-9.419,7.636-17.047,17.055-17.058h25.58c5.984,0.011,11.225,3.093,14.269,7.747h12.864      c-3.871-11.273-14.551-19.368-27.132-19.379h-25.58c-15.845,0.011-28.678,12.836-28.684,28.689      c0.005,15.831,12.839,28.667,28.684,28.678l0,0h25.58c12.582,0,23.269-8.105,27.132-19.379h-12.864      C236.903,303.375,231.662,306.467,225.678,306.478z" style="fill:#675F58;"/></g><path d="M362.771,140.071H137.224c-14.416,0.044-26.091,11.708-26.112,26.129v167.61     c0.021,14.421,11.697,26.096,26.112,26.118h225.548c14.409-0.023,26.096-11.697,26.117-26.118V166.2     C388.867,151.779,377.181,140.115,362.771,140.071z M360.004,156.815c3.277,0,5.936,2.669,5.936,5.935     c0,3.288-2.658,5.946-5.936,5.946c-3.282,0-5.935-2.659-5.935-5.946C354.069,159.483,356.722,156.815,360.004,156.815z      M313.357,157.172h29.189c3.087,0,5.582,2.506,5.582,5.577c0,3.092-2.495,5.577-5.582,5.577h-29.189     c-3.087,0-5.583-2.485-5.583-5.577C307.774,159.679,310.27,157.172,313.357,157.172z M374.652,333.811     c-0.021,6.489-5.397,11.871-11.881,11.871H137.224c-6.478,0-11.857-5.382-11.874-11.871V182.932h249.302V333.811z" style="fill:#675F58;"/><path d="M254.747,200.987c-13.812,0-25,11.198-25,25.011c0,13.802,11.188,25,25,25     c13.808,0,25-11.198,25-25C279.747,212.186,268.555,200.987,254.747,200.987z M270.648,230.545h-11.355v11.36h-9.093v-11.36     h-11.358v-9.093h11.358V210.08h9.093v11.372h11.355V230.545z" style="fill:#FF931E;"/></g></g></g><g id="Layer_1"/></svg>