<?xml version="1.0" ?><!DOCTYPE svg  PUBLIC '-//W3C//DTD SVG 1.1//EN'  'http://www.w3.org/Graphics/SVG/1.1/DTD/svg11.dtd'><svg style="enable-background:new 0 0 500 500;" version="1.1" viewBox="0 0 500 500" xml:space="preserve" xmlns="http://www.w3.org/2000/svg" xmlns:xlink="http://www.w3.org/1999/xlink"><g id="calendar-date-month-planner"><g><circle cx="250" cy="250" r="250" style="fill:#F4F1F0;"/><g id="_x32_1"><path d="M339.811,152.518v-9.701c0-5.241-4.243-9.484-9.478-9.484c-5.235,0-9.478,4.243-9.478,9.484v9.646     h-20.129v-9.646c0-5.241-4.242-9.484-9.483-9.484c-5.229,0-9.473,4.243-9.473,9.484v9.646h-20.122v-9.646     c0-5.241-4.248-9.484-9.483-9.484c-5.236,0-9.481,4.243-9.481,9.484v9.646h-20.117v-9.646c0-5.241-4.246-9.484-9.486-9.484     c-5.233,0-9.478,4.243-9.478,9.484v9.646h-20.12v-9.646c0-5.241-4.245-9.484-9.48-9.484c-5.235,0-9.483,4.243-9.483,9.484v9.646     h-3.34c-29.56,0-26.929,34.039-26.929,34.039v15.511h2.019h227.528h2.018v-26.259     C365.814,175.754,364.898,153.06,339.811,152.518z M186.412,176.66c0,1.356-1.12,2.469-2.482,2.469h-20.41     c-1.365,0-2.48-1.112-2.48-2.469v-14.556c0-1.367,1.115-2.474,2.48-2.474h0.999v0.374c0,5.235,4.248,9.478,9.483,9.478     c5.235,0,9.48-4.243,9.48-9.478v-0.374h0.448c1.362,0,2.482,1.107,2.482,2.474V176.66z M225.505,176.66     c0,1.356-1.118,2.469-2.482,2.469h-20.407c-1.365,0-2.479-1.112-2.479-2.469v-14.556c0-1.367,1.115-2.474,2.479-2.474h0.987     v0.374c0,5.235,4.245,9.478,9.478,9.478c5.241,0,9.486-4.243,9.486-9.478v-0.374h0.456c1.364,0,2.482,1.107,2.482,2.474V176.66z      M264.6,176.66c0,1.356-1.123,2.469-2.479,2.469h-20.407c-1.367,0-2.482-1.112-2.482-2.469v-14.556     c0-1.367,1.115-2.474,2.482-2.474h0.971v0.374c0,5.235,4.245,9.478,9.481,9.478c5.235,0,9.483-4.243,9.483-9.478v-0.374h0.472     c1.357,0,2.479,1.107,2.479,2.474V176.66z M303.7,176.66c0,1.356-1.123,2.469-2.485,2.469h-20.41     c-1.367,0-2.474-1.112-2.474-2.469v-14.556c0-1.367,1.106-2.474,2.474-2.474h0.966v0.374c0,5.235,4.243,9.478,9.473,9.478     c5.241,0,9.483-4.243,9.483-9.478v-0.374h0.488c1.362,0,2.485,1.107,2.485,2.474V176.66z M342.79,176.66     c0,1.356-1.112,2.469-2.48,2.469H319.9c-1.367,0-2.475-1.112-2.475-2.469v-14.556c0-1.367,1.107-2.474,2.475-2.474h0.955v0.374     c0,5.235,4.242,9.478,9.478,9.478c5.235,0,9.478-4.243,9.478-9.478v-0.374h0.499c1.367,0,2.48,1.107,2.48,2.474V176.66z" style="fill:#FF931E;"/><path d="M365.625,209.37H134.438h-0.188v1.861v132.807c0,12.446,10.181,22.63,22.624,22.63h186.317     c12.44,0,22.623-10.184,22.623-22.63V211.231v-1.861H365.625z M195.077,345.323h-29.481v-29.471h29.481V345.323z      M195.077,301.112h-29.481v-29.481h29.481V301.112z M239.293,345.323h-29.479v-29.471h29.479V345.323z M239.293,301.112h-29.479     v-29.481h29.479V301.112z M239.293,256.896h-29.479v-29.481h29.479V256.896z M283.518,345.323h-29.483v-29.471h29.483V345.323z      M283.518,301.112h-29.483v-29.481h29.483V301.112z M283.518,256.896h-29.483v-29.481h29.483V256.896z M327.734,301.112h-29.486     v-29.481h29.486V301.112z M327.734,256.896h-29.486v-29.481h29.486V256.896z" style="fill:#675F58;"/></g></g></g><g id="Layer_1"/></svg>