<?xml version="1.0" ?><!DOCTYPE svg  PUBLIC '-//W3C//DTD SVG 1.1//EN'  'http://www.w3.org/Graphics/SVG/1.1/DTD/svg11.dtd'><svg style="enable-background:new 0 0 500 500;" version="1.1" viewBox="0 0 500 500" xml:space="preserve" xmlns="http://www.w3.org/2000/svg" xmlns:xlink="http://www.w3.org/1999/xlink"><g id="globe-safety-shield"><g id="globe-safety-shield_1_"><circle cx="250" cy="250" r="250" style="fill:#F4F1F0;"/><g id="_x31_"><path d="M243.115,352.658c-18.975-14.084-34.741-33.29-44.759-54.102     c10.639-5.013,21.913-8.17,33.878-9.83c-0.049-2.789-0.06-5.426-0.06-7.905c-12.942,1.764-25.507,5.333-37.128,10.406     c-6.443-15.739-10.626-33.665-11.345-50.489l0.136-3.038l50.31-0.082l13.886,0.06l-0.032,20.785l7.858-3.001l0.087-17.751     l46.707-0.103l8.252-3.149l8.268,3.16l1.097,0.082c0,0.111-0.012,0.214-0.012,0.328l7.721,2.949     c0.043-1.123,0.125-2.257,0.147-3.364l45.746-0.092c0.537,0.301,1.281,0.12,1.942,0.185c-0.276,7.007-1.166,13.859-2.555,20.557     l7.248,2.762c6.928-33.06,0.944-70.535-16.048-98.102c-21.951-37.31-63.07-62.345-104.53-64.602     c-54.983-4.21-107.81,27.162-131.06,77.734c-16.718,33.971-16.081,81.849,0.819,115.368     c21.308,46.001,71.083,77.365,121.349,75.83c-3.352-5.317-5.933-10.276-7.839-14.41     C243.164,352.783,243.143,352.718,243.115,352.658z M375.857,229.782l-47.689,0.098c-0.694-22.176-5.609-42.052-13.747-61.157     c10.384-5.556,20.101-12.755,28.917-21.365C364.062,170.171,374.902,198.234,375.857,229.782z M337.934,141.487     c-7.894,8.062-17.36,15.086-27.132,20.34c-10.254-20.933-28.868-41.788-48.416-55.637     C290.517,109.174,316.531,120.622,337.934,141.487z M256.022,111.578c19.498,12.88,37.624,33.485,47.884,53.689     c-14.773,7.249-30.393,11.681-47.992,12.21L256.022,111.578z M255.881,185.398c18.028-0.649,35.591-5.319,51.346-12.92     c8.078,17.57,12.56,36.654,13.075,57.36l-64.192,0.146l-0.114-0.125l-0.119-43.851L255.881,185.398z M247.949,229.945     l-64.323,0.011c0.513-20.093,4.562-38.585,12.063-55.919c16.173,6.895,34.239,11.485,52.447,11.629L247.949,229.945z      M248.001,177.745c-18.579-0.382-33.304-4.286-48.926-10.875c10.701-21.938,28.64-42.323,49.224-56.67L248.001,177.745z      M240.581,106.087c-20.106,14.833-38.229,36.071-48.495,57.222c-10.696-5.347-21.506-12.826-29.747-21.574     C183.998,120.817,210.729,108.333,240.581,106.087z M124.59,220.193c0.551-0.426-0.117-1.221,0.315-1.761     c3.401-26.543,13.379-50.92,31.863-71.064c9.708,9.307,20.389,17.331,31.939,23.104c-8.002,18.24-12.543,40.332-12.872,59.451     L124.431,230l-0.185-0.185L124.59,220.193z M156.44,317.67c-20.066-22.444-30.968-49.414-32.237-79.939l47.393-0.084l4.384,0.138     c0.336,20.348,4.817,39.309,12.161,56.948C176.37,300.705,166.159,308.887,156.44,317.67z M162.012,323.535     c8.51-9.218,19.078-15.929,29.153-21.604c10.439,21.115,27.273,42.328,47.426,57.216     C209.128,356.647,182.875,343.729,162.012,323.535z" style="fill:#675F58;"/><g><path d="M377.713,272.656h0.022l-66.829-25.513l-66.846,25.513c-0.079,16.602-0.716,52.268,9.892,75.217      c9.909,21.452,28.242,43.81,56.953,54.184c28.678-10.374,47.016-32.731,56.928-54.184      C378.439,324.924,377.789,289.258,377.713,272.656z M363.737,282.942c-0.668,18.675-1.292,43.219-8.567,58.974      c-8.588,18.588-23.529,36.676-44.265,45.465c-20.785-8.789-35.721-26.877-44.293-45.465      c-7.286-15.755-7.889-40.299-8.583-58.974l53.027-20.415l53.023,20.415H363.737z" style="fill:#675F58;"/><path d="M275.607,338.2c0.581,1.253,1.227,2.501,1.889,3.737l70.215-53.385l-36.621-14.139      l-42.578,16.449C269.13,304.362,269.51,325.022,275.607,338.2z" style="fill:#FF931E;"/><path d="M310.905,375.293c16.481-7.384,28.423-22.244,35.292-37.093      c4.79-10.417,6.027-25.424,6.646-37.95l-68.739,52.354C290.918,362.012,299.848,370.355,310.905,375.293z" style="fill:#FF931E;"/></g></g></g></g><g id="Layer_1"/></svg>