<?xml version="1.0" ?><!DOCTYPE svg  PUBLIC '-//W3C//DTD SVG 1.1//EN'  'http://www.w3.org/Graphics/SVG/1.1/DTD/svg11.dtd'><svg style="enable-background:new 0 0 500 500;" version="1.1" viewBox="0 0 500 500" xml:space="preserve" xmlns="http://www.w3.org/2000/svg" xmlns:xlink="http://www.w3.org/1999/xlink"><g id="responsive-layout-screen"><g><path d="M250,0C111.931,0,0,111.925,0,250c0,138.065,111.931,250,250,250s250-111.935,250-250    C500,111.925,388.069,0,250,0z" style="fill:#F4F1F0;"/><g id="_x33_9"><path d="M293.544,345.508h-81.478v-14.279h81.478V345.508z M212.277,347.374l-3.542,7.596     c0,0,0.369,2.225,1.85,2.225c1.481,0,83.708,0,85.184,0c1.486,0,1.486-2.225,1.486-2.225l-3.543-7.596H212.277z M383.333,150.217     v148.361v3.483v17.351c0,4.568-3.331,8.322-7.405,8.322h-251.85c-4.08,0-7.411-3.754-7.411-8.322v-17.351v-3.483V150.217     c0-4.08,3.331-7.411,7.411-7.411h251.85C380.002,142.806,383.333,146.137,383.333,150.217z M367.844,161.241H131.56V294.65     h236.284V161.241z" style="fill:#675F58;"/><g><rect height="10.709" style="fill:#FF931E;" width="111.111" x="194.444" y="176.855"/><rect height="9.375" style="fill:#675F58;" width="194.445" x="152.778" y="200.565"/><g><rect height="57.194" style="fill:#FF931E;" width="57.188" x="152.778" y="222.939"/><rect height="57.194" style="fill:#FF931E;" width="57.188" x="221.403" y="222.939"/><rect height="57.194" style="fill:#FF931E;" width="57.189" x="290.033" y="222.939"/></g></g></g></g></g><g id="Layer_1"/></svg>