<?xml version="1.0" ?><!DOCTYPE svg  PUBLIC '-//W3C//DTD SVG 1.1//EN'  'http://www.w3.org/Graphics/SVG/1.1/DTD/svg11.dtd'><svg style="enable-background:new 0 0 500 500;" version="1.1" viewBox="0 0 500 500" xml:space="preserve" xmlns="http://www.w3.org/2000/svg" xmlns:xlink="http://www.w3.org/1999/xlink"><g id="coffee-break-html-code"><g><circle cx="250" cy="250" r="250" style="fill:#F4F1F0;"/><g id="_x38_"><g><path d="M362.776,140.077H137.229c-14.415,0.027-26.09,11.708-26.117,26.117v167.616      c0.027,14.41,11.702,26.085,26.117,26.112h225.548c14.41-0.027,26.097-11.702,26.112-26.112V166.194      C388.873,151.785,377.186,140.104,362.776,140.077z M360.004,156.815c3.283,0,5.941,2.658,5.941,5.935      c0,3.277-2.658,5.935-5.941,5.935c-3.276,0-5.93-2.658-5.93-5.935C354.074,159.473,356.727,156.815,360.004,156.815z       M313.362,157.172h29.188c3.087,0,5.583,2.496,5.583,5.577c0,3.082-2.496,5.582-5.583,5.582h-29.188      c-3.087,0-5.582-2.501-5.582-5.582C307.78,159.668,310.275,157.172,313.362,157.172z M374.652,333.811      c-0.011,6.483-5.392,11.86-11.876,11.865H137.229c-6.477-0.005-11.854-5.382-11.87-11.865V182.932h249.294V333.811z" style="fill:#675F58;"/></g><g><polygon points="147.043,232.248 172.293,243.392 172.293,237.315 154.899,230.165 172.293,222.103       172.293,216.005 147.043,228.613     " style="fill:#675F58;"/><path d="M197.021,219.585c-3.559,0-6.25,1.411-8.062,4.221h-0.309c0.206-2.572,0.309-4.449,0.309-5.621      v-9.201h-7.753v39.567h5.92l1.302-3.13h0.532c1.899,2.431,4.519,3.635,7.856,3.635c3.374,0,6.044-1.286,8.003-3.862      c1.958-2.572,2.935-6.207,2.935-10.905c0-4.562-0.949-8.154-2.849-10.77C203.011,220.898,200.38,219.585,197.021,219.585z       M198.432,240.582c-0.938,1.465-2.208,2.203-3.798,2.203c-1.969,0-3.407-0.667-4.313-1.985      c-0.906-1.324-1.362-3.516-1.362-6.565v-0.835c0.033-2.713,0.488-4.66,1.373-5.838c0.884-1.183,2.279-1.768,4.199-1.768      c1.644,0,2.94,0.7,3.89,2.1c0.949,1.395,1.421,3.494,1.421,6.294C199.843,236.979,199.371,239.117,198.432,240.582z" style="fill:#675F58;"/><path d="M227.74,221.05c-1.502,0.977-2.691,2.257-3.57,3.852h-0.385l-1.139-4.785h-5.881v28.434h7.758      v-14.469c0-2.289,0.689-4.069,2.073-5.339c1.383-1.27,3.309-1.909,5.789-1.909c0.901,0,1.66,0.086,2.284,0.255l0.591-7.275      c-0.7-0.152-1.573-0.228-2.626-0.228C230.87,219.585,229.237,220.074,227.74,221.05z" style="fill:#675F58;"/><polygon points="241.189,216.005 241.189,222.103 258.583,230.165 241.189,237.315 241.189,243.392       266.439,232.248 266.439,228.613     " style="fill:#675F58;"/></g><g><path d="M328.961,319.032h-35.731c2.951-1.356,5.675-3.169,8.127-5.513      c0.315,0.478,0.673,0.923,1.096,1.314c1.454,1.367,3.391,2.072,5.447,2.214c0.065,0,0.13,0,0.19,0      c1.384,0,2.556-1.074,2.653-2.475c0.098-1.465-1.009-2.734-2.474-2.832c-1.112-0.087-1.807-0.434-2.182-0.792      c-0.13-0.119-0.238-0.249-0.325-0.401c7.416-1.215,13.536-5.252,18.24-11.48c2.11-2.837,4.324-6.911,4.384-11.322      c0.005-1.801-0.439-3.717-1.606-5.377c-1.161-1.66-2.979-2.93-5.263-3.684c-0.83-0.276-1.66-0.369-2.484-0.374      c-1.649,0.017-3.326,0.391-4.932,0.987c0.157-2.376,0.244-4.861,0.244-7.477c0.021-0.075,0.032-0.151,0.032-0.228      c0-3.656-17.035-6.624-38.048-6.624c-20.85,0-37.774,2.919-38.037,6.537h-0.073c0,27.203,8.83,41.591,21.612,47.526h-33.239      c-2.414,0-4.37,1.399-4.37,3.136c0,1.736,1.956,3.147,4.37,3.147h102.369c2.414,0,4.372-1.41,4.372-3.147      C333.333,320.432,331.375,319.032,328.961,319.032z M293.034,311.946c-1.167,0-2.116-0.943-2.116-2.115      c0-1.172,0.949-2.116,2.116-2.116c1.172,0,2.126,0.944,2.126,2.116C295.16,311.003,294.206,311.946,293.034,311.946z       M298.221,307.237c-0.483,0-0.966-0.163-1.362-0.488c-0.895-0.754-1.015-2.094-0.266-2.989      c6.44-7.655,7.086-17.193,7.075-20.312c0-0.348-0.012-0.613-0.017-0.787c-0.006-0.173-0.011-0.228-0.011-0.228l0,0      c-0.087-1.172,0.792-2.181,1.958-2.268c1.172-0.087,2.182,0.792,2.269,1.953c0.005,0.049,0.032,0.488,0.032,1.237      c0,0.032,0.005,0.054,0.005,0.092c-0.005,1.08-0.07,2.789-0.342,4.877c-0.656,4.895-2.512,11.909-7.72,18.153      C299.425,306.982,298.822,307.237,298.221,307.237z M314.421,284.95c1.54-0.819,3.461-1.335,4.611-1.318      c0.391-0.006,0.673,0.049,0.803,0.098c1.46,0.493,2.165,1.102,2.594,1.698c0.423,0.602,0.629,1.329,0.64,2.316      c0.055,2.398-1.639,5.979-3.299,8.1c-3.412,4.428-7.188,7.287-11.794,8.714c2.604-5.035,4.508-11.323,5.522-19.076      C313.786,285.297,314.09,285.113,314.421,284.95z M241.227,271.495c0-2.316,15.657-4.193,34.972-4.193      c19.315,0,34.972,1.877,34.972,4.193l-0.006,0.011c-0.054,2.311-15.689,4.178-34.966,4.178c-19.276,0-34.912-1.866-34.969-4.178      L241.227,271.495z" style="fill:#FF931E;"/></g></g></g></g><g id="Layer_1"/></svg>