<?xml version="1.0" ?><!DOCTYPE svg  PUBLIC '-//W3C//DTD SVG 1.1//EN'  'http://www.w3.org/Graphics/SVG/1.1/DTD/svg11.dtd'><svg style="enable-background:new 0 0 500 500;" version="1.1" viewBox="0 0 500 500" xml:space="preserve" xmlns="http://www.w3.org/2000/svg" xmlns:xlink="http://www.w3.org/1999/xlink"><g id="bug-spider-tools"><g><circle cx="250" cy="250" r="250" style="fill:#F4F1F0;"/><g id="_x37_"><path d="M171.664,141.194c1.324,0.261,32.297,6.441,38.951,41.385     c-8.42,8.911-13.674,21.365-13.674,35.202c0,0.163,0.032,0.285,0.032,0.372h88.26c0-0.117,0-0.244,0-0.372     c0-13.837-5.252-26.291-13.65-35.202c6.651-34.907,37.598-41.124,38.91-41.385c2.887-0.556,4.851-3.312,4.319-6.228     c-0.521-2.905-3.309-4.85-6.224-4.324c-0.357,0.067-36.061,6.974-46.251,44.382c-6.314-3.806-13.563-5.992-21.259-5.992     c-7.688,0-14.931,2.205-21.243,6.017c-10.237-37.432-45.879-44.304-46.281-44.382c-2.886-0.516-5.659,1.429-6.174,4.337     C166.821,137.882,168.788,140.639,171.664,141.194z" style="fill:#675F58;"/><path d="M264.111,270.66c9.836-9.886,22.336-16.106,35.872-18.146c-0.016-2.962-0.179-5.87-0.363-8.748     l32.585-9.074l12.88-41.64c1.145-3.773-0.987-7.767-4.732-8.911c-3.754-1.188-7.747,0.928-8.951,4.696     c0,0-8.719,28.146-10.574,34.196c-3.771,1.031-15.349,4.286-23.335,6.502c-0.298-1.278-0.515-2.558-0.824-3.787H185.498     c-0.274,1.229-0.54,2.509-0.787,3.787c-8.002-2.249-19.58-5.472-23.348-6.524c-1.866-6.041-10.596-34.188-10.596-34.188     c-1.153-3.768-5.157-5.889-8.911-4.701c-3.773,1.134-5.889,5.122-4.709,8.9l12.891,41.621l32.601,9.068     c-0.217,3.027-0.404,6.063-0.404,9.183c0,3.806,0.23,7.555,0.567,11.276l-32.574,14.572l-10.178,57.509     c-0.678,3.885,1.896,7.606,5.794,8.273c3.866,0.7,7.59-1.882,8.26-5.762c0,0,7.731-43.587,8.856-50.092     c3.145-1.41,13.439-6.044,22.263-9.929c7.699,32.905,29.812,56.706,55.903,56.706c2.422,0,4.793-0.276,7.143-0.673     c-1.817-5.913-2.824-12.169-2.835-18.657C245.38,298.969,252.019,282.823,264.111,270.66z" style="fill:#675F58;"/><path d="M309.5,262.424c-3.424,0.011-6.755,0.38-9.999,0.998c-24.751,4.759-43.446,26.541-43.365,52.67     c0.017,5.436,0.863,10.688,2.377,15.636c6.754,21.896,27.175,37.793,51.28,37.717c8.685-0.011,16.846-2.148,24.083-5.838     l-16.222-16.211c-10.731,2.354-22.385-0.607-30.729-8.951c-5.745-5.746-8.865-13.086-9.526-20.605     c-0.56-6.299,0.58-12.728,3.602-18.457l5.708,5.696l14.941,14.952c4.242,4.231,6.597,1.204,9.917-2.116l1.938-1.931     c3.325-3.32,6.352-5.686,2.115-9.918l-20.447-20.442l-0.201-0.206c0.103-0.065,0.212-0.093,0.32-0.142     c2.973-1.529,6.125-2.582,9.354-3.157c10.34-1.839,21.397,1.221,29.395,9.218c0.086,0.092,0.151,0.189,0.238,0.276     c8.138,8.333,11.035,19.841,8.713,30.447l15.561,15.565c2.973-6.679,4.644-14.047,4.622-21.826     C363.092,286.241,339.052,262.337,309.5,262.424z" style="fill:#FF931E;"/></g></g></g><g id="Layer_1"/></svg>