<?xml version="1.0" ?><!DOCTYPE svg  PUBLIC '-//W3C//DTD SVG 1.1//EN'  'http://www.w3.org/Graphics/SVG/1.1/DTD/svg11.dtd'><svg style="enable-background:new 0 0 500 500;" version="1.1" viewBox="0 0 500 500" xml:space="preserve" xmlns="http://www.w3.org/2000/svg" xmlns:xlink="http://www.w3.org/1999/xlink"><g id="gamepad-gear"><g><circle cx="250" cy="250" r="250" style="fill:#F4F1F0;"/><g id="_x31_1"><path d="M387.814,334.657c-0.743-3.103-2.257-9.343-4.085-16.759     c-4.314-17.686-10.309-42.068-11.398-46.55v-0.011c-0.044-0.168-0.076-0.287-0.108-0.401c-0.033-0.179-0.071-0.309-0.071-0.309     l-0.043,0.017c-2.273-12.642-9.815-23.432-20.27-30.067l-0.016-13.78c0-3.217-2.159-5.919-5.1-6.782v-3.657     c0-3.109-2.506-5.615-5.609-5.615h-26.248c-3.081,0-5.599,2.518-5.599,5.615v3.667c-0.836,0.25-1.584,0.684-2.268,1.21     c3.151,5.425,2.344,12.359-2.235,16.862L295.871,247c-2.544,2.566-6.147,4.058-9.847,4.058c-3.093,0-6.142-1.047-8.561-2.94     l-3.83-3.017c-1.21,0.554-2.431,1.064-3.679,1.53l-0.564,4.779c-0.814,6.994-6.75,12.278-13.792,12.278l-12.782,0.011h-0.084     c-6.937-0.087-12.804-5.344-13.656-12.224l-0.572-4.845c-1.24-0.467-2.463-0.977-3.67-1.525l-3.784,2.973     c-2.441,1.926-5.496,2.979-8.613,2.979c-3.694,0-7.297-1.492-9.879-4.102l-8.938-8.936c-4.712-4.633-5.366-11.941-1.731-17.442     c-0.382-0.189-0.735-0.429-1.153-0.553v-3.667c0-3.098-2.518-5.615-5.602-5.615h-26.248c-3.09,0-5.596,2.506-5.596,5.615     l-0.011,3.657c-2.954,0.863-5.094,3.564-5.094,6.782l-0.014,13.78c-10.468,6.635-18.004,17.426-20.288,30.067l-0.022-0.017     c0,0-0.024,0.108-0.065,0.261c-0.065,0.249-0.195,0.775-0.353,1.438c-0.125,0.526-0.277,1.129-0.453,1.845     c-0.76,3.049-1.921,7.78-3.296,13.368c-0.046,0.212-0.095,0.412-0.152,0.651c-0.513,2.104-1.061,4.318-1.614,6.597     c-3.79,15.479-8.271,33.74-9.744,39.871c-2.659,11.04-0.629,18.5,8.914,27.469c9.562,8.968,27.404,7.46,30.716,4.15     c1.411-1.422,12.085-12.744,23.817-25.218c4.031-4.28,8.198-8.707,12.15-12.917h3.084c1.359,13.612,12.845,24.272,26.831,24.272     c13.981,0,25.488-10.649,26.853-24.262h13.246c1.352,13.639,12.842,24.289,26.829,24.3c13.997,0,25.499-10.661,26.855-24.311     h0.737c4.753,5.056,9.798,10.422,14.567,15.494h0.016c10.731,11.426,20.064,21.312,21.376,22.641     c3.32,3.31,21.159,4.817,30.719-4.15C388.444,353.157,390.478,345.697,387.814,334.657z M163.9,253.673     c0-0.884,0.724-1.601,1.606-1.601h13.628c0.871,0,1.587,0.717,1.587,1.601v10.553c0,0.884-0.61,1.969-1.37,2.414l-5.753,3.483     c-0.749,0.461-1.972,0.461-2.718-0.012l-5.621-3.461c-0.746-0.456-1.359-1.552-1.359-2.425V253.673z M159.375,285.102     l-10.53-0.011c-0.885,0-1.62-0.716-1.62-1.589l0.011-13.612c0-0.885,0.724-1.59,1.609-1.59l10.53,0.011     c0.882,0,1.972,0.613,2.425,1.367l3.472,5.74c0.445,0.765,0.434,2.002-0.014,2.745l-3.448,5.588     C161.347,284.505,160.246,285.102,159.375,285.102z M180.71,300.635c0,0.885-0.716,1.601-1.6,1.59h-13.634     c-0.876,0-1.587-0.717-1.587-1.601v-10.568c0-0.868,0.619-1.953,1.359-2.398l5.631-3.45c0.746-0.456,1.958-0.456,2.718-0.011     l5.753,3.472c0.749,0.435,1.359,1.52,1.359,2.403V300.635z M197.385,283.539c0,0.868-0.735,1.59-1.6,1.59l-10.545-0.016     c-0.881,0-1.988-0.608-2.431-1.352l-3.459-5.626c-0.453-0.737-0.458-1.964,0-2.718l3.467-5.74     c0.458-0.754,1.546-1.367,2.422-1.367h10.558c0.871,0,1.6,0.705,1.6,1.579L197.385,283.539z M217.697,342.567     c-9.451-0.011-17.122-7.698-17.111-17.134c0.014-9.473,7.674-17.122,17.123-17.122c9.451,0,17.123,7.661,17.123,17.122     C234.831,334.88,227.145,342.557,217.697,342.567z M284.636,342.578c-9.462,0-17.123-7.672-17.123-17.133     c0-9.462,7.677-17.123,17.134-17.123c9.451,0.011,17.128,7.683,17.122,17.145C301.769,334.929,294.086,342.589,284.636,342.578z      M306.923,285.232c-5.523-0.011-9.972-4.481-9.972-9.967c0-5.518,4.459-9.993,9.972-9.977c5.512,0,9.978,4.459,9.966,9.977     C316.889,280.772,312.413,285.222,306.923,285.232z M327.067,305.805c-5.496,0-9.961-4.486-9.961-9.982     c0-5.518,4.465-9.988,9.961-9.955c5.518,0,9.987,4.448,9.987,9.955C337.055,301.329,332.585,305.805,327.067,305.805z      M327.083,265.484c-5.512-0.012-9.977-4.471-9.961-9.978c0-5.518,4.471-9.977,9.972-9.977c5.518,0.011,9.978,4.471,9.978,9.988     C337.071,261.024,332.596,265.484,327.083,265.484z M347.223,285.232c-5.513,0-9.961-4.46-9.961-9.967     c0-5.518,4.459-9.966,9.977-9.966c5.507,0,9.961,4.459,9.956,9.966C357.194,280.772,352.734,285.232,347.223,285.232z" style="fill:#675F58;"/><path d="M307.845,183.198l-12.679-1.498c-1.21-5.767-3.488-11.144-6.613-15.923l7.91-10.037     c0.564-0.705,0.499-1.818-0.142-2.463l-8.974-8.974c-0.64-0.645-1.746-0.71-2.474-0.141l-10.026,7.905     c-4.773-3.12-10.15-5.393-15.929-6.602l-1.497-12.685c-0.104-0.9-0.934-1.638-1.845-1.638h-12.689     c-0.915,0-1.736,0.738-1.851,1.638l-1.5,12.685c-5.77,1.21-11.143,3.483-15.915,6.602l-10.037-7.905     c-0.713-0.569-1.82-0.504-2.466,0.141l-8.974,8.974c-0.648,0.646-0.719,1.758-0.146,2.468l7.908,10.032     c-3.12,4.78-5.395,10.156-6.608,15.923l-12.674,1.498c-0.906,0.108-1.641,0.938-1.641,1.844v12.695     c0,0.906,0.735,1.742,1.641,1.851l12.674,1.492c1.212,5.778,3.488,11.144,6.608,15.934l-7.908,10.026     c-0.572,0.716-0.501,1.823,0.146,2.458l6.532,6.538l2.441,2.441c0.641,0.651,1.753,0.711,2.472,0.146l3.276-2.588l6.755-5.322     c3.437,2.246,7.191,4.036,11.179,5.328c1.549,0.504,3.12,0.944,4.736,1.286l1.5,12.674c0.114,0.906,0.936,1.633,1.851,1.649     l12.689-0.017c0.911,0.017,1.741-0.727,1.845-1.633l1.497-12.674c1.617-0.342,3.191-0.781,4.742-1.286     c3.982-1.286,7.747-3.082,11.187-5.328l6.744,5.317l3.282,2.593c0.728,0.564,1.834,0.504,2.474-0.146l2.441-2.447l6.532-6.532     c0.641-0.635,0.706-1.742,0.142-2.458l-7.91-10.026c3.125-4.791,5.403-10.156,6.613-15.934l12.679-1.492     c0.896-0.109,1.639-0.944,1.639-1.851v-12.695C309.483,184.136,308.74,183.306,307.845,183.198z M249.229,157.59     c18.663,0,33.8,15.137,33.8,33.8c0,18.658-15.137,33.806-33.8,33.806s-33.791-15.147-33.791-33.806     C215.438,172.727,230.566,157.59,249.229,157.59z M231.367,209.256c4.579,4.568,10.883,7.395,17.863,7.395     c6.978,0,13.281-2.827,17.86-7.395c4.573-4.568,7.39-10.884,7.39-17.866c0-6.971-2.816-13.286-7.39-17.854     c-4.579-4.579-10.883-7.4-17.86-7.4c-6.979,0-13.284,2.821-17.863,7.4c-4.571,4.568-7.395,10.883-7.395,17.854     C223.972,198.372,226.796,204.688,231.367,209.256z M249.229,181.972c5.208,0,9.43,4.21,9.43,9.418c0,5.203-4.222,9.43-9.43,9.43     c-5.206,0-9.424-4.227-9.424-9.43C239.806,186.182,244.024,181.972,249.229,181.972z" style="fill:#FF931E;"/></g></g></g><g id="Layer_1"/></svg>