<?xml version="1.0" ?><!DOCTYPE svg  PUBLIC '-//W3C//DTD SVG 1.1//EN'  'http://www.w3.org/Graphics/SVG/1.1/DTD/svg11.dtd'><svg style="enable-background:new 0 0 500 500;" version="1.1" viewBox="0 0 500 500" xml:space="preserve" xmlns="http://www.w3.org/2000/svg" xmlns:xlink="http://www.w3.org/1999/xlink"><g id="fire-wall"><g><circle cx="250" cy="250" r="250" style="fill:#F4F1F0;"/><g id="_x31_7"><g><path d="M292.686,162.343h-68.147c-4.115,0-7.481,3.369-7.481,7.481v39.03      c0,4.118,3.366,7.482,7.481,7.482h18.112C254.576,198.416,271.441,180.154,292.686,162.343z" style="fill:#675F58;"/><path d="M125.244,216.336h72.054c4.11,0,7.482-3.364,7.482-7.482v-39.03c0-4.112-3.372-7.481-7.482-7.481      h-72.054c-4.115,0-7.481,3.369-7.481,7.481v39.03C117.763,212.972,121.129,216.336,125.244,216.336z" style="fill:#675F58;"/><path d="M235.612,227.843H123.009c-4.118,0-7.489,3.364-7.489,7.487v39.035      c0,4.118,3.372,7.482,7.489,7.482h99.173c-0.117-2.36-0.233-4.726-0.228-7.205C221.954,259.88,226.677,244.075,235.612,227.843z      " style="fill:#675F58;"/><path d="M197.298,293.224h-72.054c-4.115,0-7.481,3.364-7.481,7.482v39.03      c0,4.123,3.366,7.487,7.481,7.487h72.054c4.11,0,7.482-3.364,7.482-7.487v-39.03      C204.78,296.588,201.408,293.224,197.298,293.224z" style="fill:#675F58;"/><path d="M223.186,293.354c-3.467,0.646-6.128,3.7-6.128,7.352v39.03c0,4.123,3.366,7.487,7.481,7.487      h33.426c-5.61-3.076-10.672-6.706-15.01-11.047C232.254,325.461,225.729,311.345,223.186,293.354z" style="fill:#675F58;"/></g><path d="M373.584,282.405c-0.19-2.278-0.765-4.66-1.546-7.074c-0.326-41.184,12.445-58.214,12.445-58.214     s-19.217,0.461-41.434,12.689c-0.472-0.667-0.928-1.334-1.405-1.996c0.684-16.694,3.906-33.366,8.616-45.692     c-2.772,1.519-14.54,6.499-26.4,15.386c-6.098-14.567-7.991-29.628-0.737-44.727c-56.434,40.451-90.061,85.58-90.061,121.875     c-0.03,28.277,7.034,72.57,75.402,72.57c40.256,0,60.785-15.425,64.589-45.346l0.895,0.9c-0.174-1.35-0.249-2.588-0.401-3.895     C373.975,293.761,374.066,288.33,373.584,282.405z M339.974,314.534c-4.405,7.672-6.607,9.935-34.944,10.737     c-28.342,0.803-33.6-5.36-38.829-14.99c-14.911-27.501,3.917-44.846,2.832-42.839c-1.063,2.002-6.787,19.684,20.508,34.142     c-13.411-16.715,10.97-36.686,20.009-45.926c0,23.693,9.613,45.926,9.613,45.926s15.555-9.136,26.769-42.046     C351.823,285.118,352.843,292.139,339.974,314.534z" style="fill:#FF931E;"/></g></g></g><g id="Layer_1"/></svg>