<?xml version="1.0" ?><!DOCTYPE svg  PUBLIC '-//W3C//DTD SVG 1.1//EN'  'http://www.w3.org/Graphics/SVG/1.1/DTD/svg11.dtd'><svg style="enable-background:new 0 0 500 500;" version="1.1" viewBox="0 0 500 500" xml:space="preserve" xmlns="http://www.w3.org/2000/svg" xmlns:xlink="http://www.w3.org/1999/xlink"><g id="www-world-globe"><g><path d="M250,0C111.931,0,0,111.93,0,250c0,138.075,111.931,250,250,250c138.075,0,250-111.925,250-250    C500,111.93,388.075,0,250,0z" style="fill:#F4F1F0;"/><g id="_x39_"><path d="M201.042,262.175l2.224-7.938l2.213,7.938H201.042z M295.964,218.424h-4.243l1.02,1.023h4.242     L295.964,218.424z M288.846,219.447v-1.544l-6.082-6.087l-4.547,4.568l-3.043,3.062h11.816H288.846z M311.328,219.447l1.52-1.511     h6.374l-4.02-4.037h-6.044l-5.534,5.548h2.832H311.328z M148.665,219.447h-5.42c13.287-46.504,55.995-80.58,106.776-80.58     c50.743,0,93.452,34.077,106.733,80.58h-3.201c-5.415-18.295-15.457-34.614-28.879-47.464h-13.542l-0.662,3.38l-3.049,2.018     l-6.407,0.673l0.325-4.059l-5.734-1.003l1.02-4.053l-8.8,2.035l-4.709,8.11l-8.148,6.093l-0.635,7.737l8.1,2.029l4.726,2.04     l2.371-2.365v-12.837h3.043v6.423h5.725v6.738h-5.388v4.72h-13.504v4.742h-4.438l-6.039-6.076v-4.059h-7.08v6.771v3.364     l-1.893,1.845l3.554,3.559l4.417-4.395l3.342,3.369l-1.861,1.872v2.539h-2.859v6.253h-33.821l-1.128,4.793l-1.031-4.793h-15.901     l3.423-3.388l1.53,1.514l3.7-3.706h-5.735v-3.049h4.058v-4.715h4.053v-11.485h-9.456v-2.045h-9.148v16.563l-3.352,1.009     l-2.729-6.424l-8.073-5.718l-4.736-6.413l8.094,0.982l2.724-4.368l-2.382-2.729l-1.009-3.38l10.151-0.651l1.312-7.107     l-33.827-0.314c-10.742,10.807-19.168,23.893-24.598,38.444V219.447z M238.547,188.205l5.398,5.404l6.407-6.418l12.294-12.337     l5.1-5.073h5.903v-12.327v-8.778h-7.764v-5.566c-5.176-0.776-10.482-1.194-15.864-1.194c-1.264,0-2.474,0.076-3.667,0.12     l-0.391,0.895v8.458h-6.76v16.531h1.015h3.727v6.418h-5.398V188.205z M185.118,163.655l2.756,2.751h9.956l4.21-4.232v-5.724     h4.378v9.771h6.776v20.274h9.788v-28.044h-4.362h-8.459v-6.049h6.077l3.559-3.554l-2.002-1.996     C205.87,150.569,194.852,156.315,185.118,163.655z M343.207,280.979l-2.614,10.688h-16.635v8.322h-7.573v14.36l-5.914,5.893     h-13.905v-12.761l-7.503-7.492v-18.555l-2.875,10.232h-33.122V303.7h-9.12l-4.742,6.771v15.181l-13.856,10.134v18.235     l-15.533-14.155v-37.196l-15.945-14.946l-1.106,3.944h-33.822l-2.588-10.678l-2.609,10.678h-6.706     c16.487,40.712,56.342,69.466,102.983,69.466c46.609,0,86.459-28.754,102.94-69.466h-7.167L343.207,280.979z" style="fill:#675F58;"/><g><path d="M199.409,237.148l2.626-9.367h-7.503h-1.486h-9.907l-5.013,21.33      c-0.564,2.251-1.085,5.241-1.552,8.946c-0.472,3.711-0.803,6.809-1.003,9.294h-0.206c-0.032-0.023-0.07-0.049-0.108-0.076      c-0.401-4.015-1.367-9.614-2.892-16.797l-4.812-22.697h-21.652l-0.835,3.567l-4.427,18.842      c-1.736,8.431-2.658,14.155-2.756,17.161h-0.304c-0.233-4.84-1.085-10.916-2.556-18.24l-4.611-21.33h-19.298l15.489,55.553h20.6      l5.762-23.578c0.439-1.823,1.183-5.618,2.23-11.358c0.331-1.801,0.688-3.776,1.079-5.957h0.304l0.998,6.424l0.597,3.145      l0.911,4.85l6.413,26.476h20.952l2.186-7.785l9.636-34.358L199.409,237.148z" style="fill:#FF931E;"/><path d="M291.699,241.19l3.766-13.409h-7.509h-0.071h-11.322l-5.013,21.33      c-0.564,2.251-1.085,5.241-1.552,8.946c-0.467,3.711-0.798,6.809-0.998,9.294h-0.305c-0.401-4.026-1.372-9.647-2.902-16.873      l-4.812-22.697h-8.729h-12.924l-5.268,22.41c-1.573,7.65-2.474,13.042-2.696,16.227c-0.022,0.325-0.049,0.656-0.055,0.934H231      c-0.011-0.218-0.038-0.473-0.049-0.694c-0.277-4.731-1.101-10.553-2.501-17.546l-4.612-21.33h-11.795h-7.509l3.744,13.42      l0.862,3.09l0.293,1.055l9.739,34.929l0.857,3.06h3.445h1.34h15.81l5.767-23.578c0.504-2.132,1.438-6.958,2.794-14.453      c0.163-0.917,0.331-1.861,0.515-2.862H250l0.445,2.862l0.559,3.562l1.503,7.994l6.412,26.476h20.953l10.856-38.683      L291.699,241.19z" style="fill:#FF931E;"/><path d="M369.992,227.78l-5.013,21.33c-0.569,2.251-1.091,5.241-1.552,8.946      c-0.472,3.711-0.803,6.809-1.004,9.294h-0.304c-0.401-4.026-1.372-9.647-2.902-16.873l-4.666-22l-0.146-0.697h-21.652      l-5.268,22.41c-1.54,7.482-2.436,12.82-2.686,16.032c-0.032,0.401-0.054,0.792-0.064,1.129h-0.31      c-0.011-0.25-0.038-0.554-0.06-0.809c-0.282-4.704-1.096-10.493-2.49-17.432l-1.443-6.679l-3.168-14.651h-11.789h-7.509      l3.737,13.42l4.726,16.927l4.666,16.759l2.36,8.447h20.595l5.767-23.578c0.386-1.611,1.02-4.796,1.889-9.481      c0.417-2.265,0.884-4.85,1.421-7.834h0.299l0.737,4.709l0.266,1.714l1.503,7.994l6.419,26.476h20.947l15.592-55.553H369.992z" style="fill:#FF931E;"/></g></g></g></g><g id="Layer_1"/></svg>