<?xml version="1.0" ?><!DOCTYPE svg  PUBLIC '-//W3C//DTD SVG 1.1//EN'  'http://www.w3.org/Graphics/SVG/1.1/DTD/svg11.dtd'><svg style="enable-background:new 0 0 500 500;" version="1.1" viewBox="0 0 500 500" xml:space="preserve" xmlns="http://www.w3.org/2000/svg" xmlns:xlink="http://www.w3.org/1999/xlink"><g id="window-view"><g><path d="M250,0C111.925,0,0,111.93,0,250c0,138.069,111.925,250,250,250c138.064,0,250-111.931,250-250    C500,111.93,388.064,0,250,0z" style="fill:#F4F1F0;"/><g id="_x31_0"><path d="M309.277,267.546c0.098,0.043,0.206,0.098,0.293,0.13c0,0,32.379-7.726,48.883-16.032     c0.434-0.479,0.684-0.632,2.039-2.271c-30.153,11.087-34.353,4.805-52.181-5.387c-13.4-7.668-18.967-15.592-50.217-21.853     c-34.766-6.969-87.533,7.443-111.838,46.829c0,0,0.727-0.743,1.996-1.948c4.405-4.199,15.69-14.328,28.277-20.784     c5.555-3.277,11.284-5.588,17.111-7.153c-2.235,5.792-3.136,12.047-2.518,18.4c2.105,22.075,21.843,38.281,43.945,36.165     c10.688-1.053,20.334-6.18,27.181-14.459c6.836-8.312,10.016-18.799,8.984-29.47c-0.011-0.171-0.032-0.328-0.065-0.494     c1.334,0.494,2.658,0.98,3.949,1.47c11.014,4.137,19.673,8.762,25.749,12.196c-9.212,20.709-32.118,32.232-61.534,35.656     c-5.415,0.623-11.014,1.014-16.819,1.107c18.153,2.349,33.55,1.215,45.356-1.193c-1.02,0.331-2.094,0.661-3.244,1.015     l1.334-0.282c20.595-4.823,37.587,3.255,47.711,4.579c-6-2.344-14.052-6.196-18.457-9.191c-3.017-2.039-4.579-3.125-6.022-3.439     c1.227-0.699,2.246-1.383,2.995-2.007C301.454,281.473,306.575,273.438,309.277,267.546z M262.663,250.616     c1.714,17.391-11.058,32.853-28.451,34.551c-17.415,1.692-32.867-11.057-34.549-28.461c-0.694-7.146,1.074-13.957,4.579-19.643     c6.782-0.795,13.639-0.711,20.443,0c-4.352,1.695-7.812,5.023-9.723,9.166c5.393-0.356,10.189,3.645,10.689,9.06     c0.282,2.686-0.521,5.316-2.246,7.405c-1.335,1.639-3.125,2.751-5.122,3.282c3.646,3.809,8.931,5.979,14.584,5.431     c9.788-0.939,16.981-9.641,16.048-19.469c-0.456-4.685-2.702-8.756-5.979-11.648c6.467,1.587,12.793,3.527,18.88,5.599     C262.196,247.423,262.511,248.994,262.663,250.616z" style="fill:#FF931E;"/><path d="M362.771,140.08H137.218c-14.41,0.024-26.085,11.706-26.107,26.115v167.611     c0.021,14.409,11.697,26.096,26.107,26.112h225.554c14.409-0.017,26.096-11.703,26.117-26.112V166.194     C388.867,151.785,377.181,140.104,362.771,140.08z M360.004,156.815c3.277,0,5.936,2.661,5.936,5.94     c0,3.271-2.658,5.927-5.936,5.927c-3.287,0-5.935-2.656-5.935-5.927C354.069,159.476,356.717,156.815,360.004,156.815z      M313.357,157.169h29.189c3.081,0,5.577,2.504,5.577,5.586c0,3.073-2.496,5.577-5.577,5.577h-29.189     c-3.093,0-5.588-2.504-5.588-5.577C307.77,159.673,310.265,157.169,313.357,157.169z M374.642,333.806     c-0.011,6.494-5.393,11.865-11.87,11.865H137.218c-6.478,0-11.849-5.371-11.871-11.865V182.94h249.294V333.806z" style="fill:#675F58;"/></g></g></g><g id="Layer_1"/></svg>