<?xml version="1.0" ?><!DOCTYPE svg  PUBLIC '-//W3C//DTD SVG 1.1//EN'  'http://www.w3.org/Graphics/SVG/1.1/DTD/svg11.dtd'><svg style="enable-background:new 0 0 500 500;" version="1.1" viewBox="0 0 500 500" xml:space="preserve" xmlns="http://www.w3.org/2000/svg" xmlns:xlink="http://www.w3.org/1999/xlink"><g id="software-package"><g><circle cx="250" cy="250" r="250" style="fill:#F4F1F0;"/><g id="_x33_1"><path d="M250,125c-48.335,0-87.511,39.171-87.511,87.511c0,6.049,0.616,11.958,1.788,17.66h55.976     l1.104-0.657c0.128,0.233,0.293,0.429,0.426,0.657h15.98c-5.596-3.89-9.277-10.335-9.277-17.66     c0-11.876,9.63-21.506,21.514-21.506c11.871,0,21.506,9.63,21.506,21.506c0,7.324-3.684,13.77-9.267,17.66h73.481     c1.172-5.702,1.785-11.61,1.785-17.66C337.506,164.171,298.329,125,250,125z M265.381,182.921l22.076-42.491     c14.713,7.666,26.769,19.689,34.494,34.38l-42.421,22.222C276.356,191.005,271.408,186.073,265.381,182.921z M282.259,204.14     c-0.336-1.264-0.727-2.49-1.183-3.689l44.645-17.345c1.134,2.924,2.132,5.913,2.93,8.984L282.259,204.14z" style="fill:#675F58;"/><g><path d="M128.448,281.885l-1.348,3.119c-2.387,3.451-2.666,6.521-1.28,8.686      c1.231,1.904,3.76,3.098,7.452,3.098h0.068c0.049-0.391,0.114-0.803,0.206-1.193l12.959-55.42L128.448,281.885z" style="fill:#FF931E;"/><path d="M155.328,321.62v21.826v21.983c0,5.273,4.311,9.57,9.554,9.57h170.242      c5.257,0,9.57-4.297,9.57-9.57v-21.983V321.62v-5.724H155.328V321.62z" style="fill:#FF931E;"/><path d="M372.906,285.004l-1.303-3.022l-18.109-41.808l12.967,55.431      c0.075,0.391,0.147,0.792,0.206,1.183h0.054c3.711,0,6.218-1.193,7.455-3.087C375.564,291.525,375.282,288.455,372.906,285.004z      " style="fill:#FF931E;"/><path d="M353.494,277.821l-8.507-36.404l-0.293-1.242h-8.974h-73.481h-24.476h-15.98h-1.53h-55.976      h-8.949l-0.298,1.242l-8.526,36.464l-4.15,17.746c-0.079,0.407-0.111,0.77-0.146,1.161c-0.087,0.857,0.068,1.649,0.225,2.441      c0.616,3.104,3.057,5.273,6.581,5.566c0.26,0.038,0.456,0.147,0.724,0.147h71.132h58.271h71.121      c0.266,0,0.472-0.108,0.722-0.119c3.516-0.293,5.957-2.49,6.592-5.594c0.162-0.792,0.315-1.584,0.217-2.441      c-0.021-0.391-0.038-0.754-0.125-1.161L353.494,277.821z" style="fill:#FF931E;"/></g></g></g></g><g id="Layer_1"/></svg>