<?xml version="1.0" ?><!DOCTYPE svg  PUBLIC '-//W3C//DTD SVG 1.1//EN'  'http://www.w3.org/Graphics/SVG/1.1/DTD/svg11.dtd'><svg style="enable-background:new 0 0 500 500;" version="1.1" viewBox="0 0 500 500" xml:space="preserve" xmlns="http://www.w3.org/2000/svg" xmlns:xlink="http://www.w3.org/1999/xlink"><g id="network-server"><g><circle cx="250" cy="250" r="250" style="fill:#F4F1F0;"/><g id="_x33_3"><g><path d="M324.186,147.222H175.819c-13.78,0-24.946,11.171-24.946,24.94      c0,13.78,11.166,24.951,24.946,24.951h148.367c13.774,0,24.951-11.171,24.951-24.951      C349.138,158.393,337.961,147.222,324.186,147.222z M320.904,180.696c-4.71,0-8.534-3.819-8.534-8.534      c0-4.71,3.824-8.529,8.534-8.529c4.714,0,8.533,3.819,8.533,8.529C329.438,176.877,325.618,180.696,320.904,180.696z" style="fill:#675F58;"/><path d="M324.186,202.696H175.819c-13.78,0-24.946,11.165-24.946,24.946s11.166,24.946,24.946,24.946      h148.367c13.774,0,24.951-11.165,24.951-24.946S337.961,202.696,324.186,202.696z M320.904,236.182      c-4.71,0-8.534-3.83-8.534-8.54s3.824-8.534,8.534-8.534c4.714,0,8.533,3.825,8.533,8.534S325.618,236.182,320.904,236.182z" style="fill:#675F58;"/><path d="M324.186,258.171H175.819c-13.78,0-24.946,11.165-24.946,24.945s11.166,24.951,24.946,24.951      h148.367c13.774,0,24.951-11.171,24.951-24.951S337.961,258.171,324.186,258.171z M320.904,291.645      c-4.71,0-8.534-3.813-8.534-8.528c0-4.715,3.824-8.534,8.534-8.534c4.714,0,8.533,3.819,8.533,8.534      C329.438,287.831,325.618,291.645,320.904,291.645z" style="fill:#675F58;"/></g><g><rect height="19.054" style="fill:#FF931E;" width="84.473" x="207.769" y="333.724"/><rect height="28.58" style="fill:#FF931E;" width="11.437" x="244.282" y="314.03"/></g><g><rect height="6.288" style="fill:#FF931E;" width="67.719" x="134.814" y="339.681"/><rect height="6.288" style="fill:#FF931E;" width="67.714" x="297.472" y="339.681"/></g></g></g></g><g id="Layer_1"/></svg>