<?xml version="1.0" ?><!DOCTYPE svg  PUBLIC '-//W3C//DTD SVG 1.1//EN'  'http://www.w3.org/Graphics/SVG/1.1/DTD/svg11.dtd'><svg style="enable-background:new 0 0 500 500;" version="1.1" viewBox="0 0 500 500" xml:space="preserve" xmlns="http://www.w3.org/2000/svg" xmlns:xlink="http://www.w3.org/1999/xlink"><g id="money-pig-time"><g><path d="M250,0C111.925,0,0,111.93,0,250c0,138.069,111.925,250,250,250c138.064,0,250-111.931,250-250    C500,111.93,388.064,0,250,0z" style="fill:#F4F1F0;"/><g id="_x31_5"><path d="M386.36,290.733c-4.058-3.021-9.63-4.715-14.719-4.595c-4.698-3.651-10.574-5.99-13.721-7.238     l-1.015-0.401c-0.119-0.049-0.244-0.032-0.369-0.075c0.017-0.706,0.087-1.4,0.087-2.111c0-40.245-31.526-74.517-75.856-88.113     c-7.731,9.598-19.559,15.75-32.818,15.75c-14.903,0-27.995-7.796-35.493-19.504c-2.094,0.413-4.134,0.885-6.158,1.395     c0.505,0.597,1.069,1.112,1.53,1.736c5.631,7.639,6.651,16.856,2.718,24.652c-4.118,8.16-12.804,13.232-22.667,13.232     c-1.286,0-2.605-0.087-3.944-0.266c-12.858-1.698-17.974-9.863-20.546-16.922c-9.869,8.909-17.583,19.569-22.591,31.63h-9.126     c-10.851,0-19.678,9.44-19.678,21.051v18.815c0,11.621,8.827,21.067,19.678,21.067h5.225c5.99,22.922,20.443,42.383,41.9,54.898     l0.249,10.808c0.124,5.441,2.799,7.346,4.372,7.991c0.581,0.244,1.384,0.467,2.36,0.467c1.688,0,3.896-0.673,6.375-3.055     l7.367-7.091c11.725,3.749,24.75,5.898,39.09,5.898c19.238,0,35.693-2.278,49.837-6.261l7.759,7.454     c2.484,2.382,4.692,3.055,6.386,3.055c0.971,0,1.773-0.223,2.349-0.467c1.59-0.646,4.259-2.55,4.378-7.991l0.233-10.151     c29.411-14.908,43.826-40.099,46.55-69.422c1.937,0.797,3.722,1.589,5.268,2.37c-2.419,1.904-3.943,4.579-4.367,7.764     c-0.559,4.145,0.885,7.878,3.977,10.243c1.953,1.481,4.379,2.246,6.81,2.246c1.47,0,2.956-0.282,4.329-0.862     c3.624-1.53,5.979-4.834,6.473-9.065c0.174-1.454,0.087-2.827-0.206-4.118c1.139,0.45,2.202,1.025,3.114,1.714     c1.801,1.335,4.351,0.966,5.685-0.83C388.531,294.623,388.162,292.084,386.36,290.733z M176.855,240.088     c-0.922,7.053-5.783,12.234-10.867,11.578c-0.108-0.012-0.206-0.065-0.309-0.087c-3.537-0.624-6.174-3.966-7.047-8.383     c-0.342-1.714-0.439-3.569-0.184-5.512c0.917-7.053,5.778-12.229,10.861-11.572C174.398,226.769,177.772,233.024,176.855,240.088     z M368.939,301.248c-0.954,0.401-2.202,0.249-3.021-0.375c-0.738-0.574-1.02-1.448-0.852-2.68     c0.136-1.031,0.565-2.338,2.62-3.201c0.38-0.157,0.787-0.287,1.221-0.396c1.216,1.399,1.758,2.777,1.607,4.128     C370.361,300.032,369.841,300.847,368.939,301.248z M171.848,239.665c-0.597,4.579-3.526,7.986-6.537,7.596     c-2.995-0.391-4.97-4.433-4.373-9.012c0.607-4.584,3.526-7.992,6.538-7.601C170.48,231.038,172.445,235.075,171.848,239.665z      M154.747,186.154c0,0,28.635-14.105,45.052,1.541c1.085,1.047,2.122,2.208,3.092,3.526     c10.281,13.916-1.166,30.138-18.153,27.892c-10.84-1.421-14.328-8.512-16.357-15.251c-0.916-3.049-1.53-6.033-2.387-8.393     C163.683,189.106,154.747,186.154,154.747,186.154z" style="fill:#675F58;"/><path d="M247.949,198.606c10.785,0,20.448-4.671,27.181-12.061c5.957-6.532,9.625-15.202,9.625-24.739     c0-20.323-16.477-36.806-36.806-36.806c-20.323,0-36.8,16.482-36.8,36.806c0,8.095,2.653,15.559,7.085,21.636     C224.93,192.622,235.726,198.606,247.949,198.606z M247.949,133.095c15.831,0,28.711,12.874,28.711,28.705     c0,9.234-4.46,17.372-11.252,22.629c-4.855,3.744-10.861,6.065-17.459,6.065c-7.774,0-14.827-3.13-20.003-8.181     c-5.35-5.209-8.697-12.468-8.697-20.514C219.249,145.969,232.129,133.095,247.949,133.095z M230.556,165.055     c-0.613-0.494-1.004-1.248-1.009-2.094c0.005-1.475,1.205-2.675,2.68-2.675l14.464-0.011v-11.225     c0-1.834,1.194-3.304,2.669-3.304c1.492,0,2.685,1.47,2.685,3.304v13.275c0,0.12-0.049,0.228-0.054,0.348     c0.005,0.092,0.054,0.173,0.054,0.271c-0.005,1.367-1.047,2.458-2.381,2.615c-0.098,0.022-0.195,0.082-0.304,0.082     c-0.016,0-0.044-0.016-0.06-0.016l-17.074,0.016C231.597,165.641,231.022,165.424,230.556,165.055z" style="fill:#FF931E;"/></g></g></g><g id="Layer_1"/></svg>