<?xml version="1.0" ?><!DOCTYPE svg  PUBLIC '-//W3C//DTD SVG 1.1//EN'  'http://www.w3.org/Graphics/SVG/1.1/DTD/svg11.dtd'><svg style="enable-background:new 0 0 500 500;" version="1.1" viewBox="0 0 500 500" xml:space="preserve" xmlns="http://www.w3.org/2000/svg" xmlns:xlink="http://www.w3.org/1999/xlink"><g id="grid-layout-window"><g><path d="M250,0C111.931,0,0,111.936,0,250c0,138.075,111.931,250,250,250s250-111.925,250-250    C500,111.936,388.069,0,250,0z" style="fill:#F4F1F0;"/><g id="_x32_8"><g><rect height="37.044" style="fill:#FF931E;" width="37.033" x="175.928" y="217.686"/><rect height="37.044" style="fill:#FF931E;" width="37.033" x="231.483" y="217.686"/><rect height="37.044" style="fill:#FF931E;" width="37.033" x="287.039" y="217.686"/><rect height="37.044" style="fill:#FF931E;" width="37.033" x="175.928" y="273.242"/><rect height="37.044" style="fill:#FF931E;" width="37.033" x="231.483" y="273.242"/><rect height="37.044" style="fill:#FF931E;" width="37.033" x="287.039" y="273.242"/></g><path d="M362.771,140.083H137.224c-14.416,0.033-26.091,11.707-26.112,26.118v167.61     c0.021,14.41,11.697,26.096,26.112,26.118h225.548c14.409-0.023,26.096-11.708,26.117-26.118V166.2     C388.867,151.79,377.181,140.115,362.771,140.083z M360.004,156.825c3.277,0,5.936,2.658,5.936,5.935     c0,3.277-2.658,5.935-5.936,5.935c-3.282,0-5.935-2.659-5.935-5.935C354.069,159.483,356.722,156.825,360.004,156.825z      M313.357,157.172h29.189c3.087,0,5.582,2.506,5.582,5.588c0,3.081-2.495,5.578-5.582,5.578h-29.189     c-3.087,0-5.583-2.496-5.583-5.578C307.774,159.679,310.27,157.172,313.357,157.172z M374.647,333.811     c-0.011,6.489-5.393,11.871-11.876,11.871H137.224c-6.478,0-11.855-5.382-11.871-11.871V182.942h249.295V333.811z" style="fill:#675F58;"/></g></g></g><g id="Layer_1"/></svg>