<?xml version="1.0" ?><!DOCTYPE svg  PUBLIC '-//W3C//DTD SVG 1.1//EN'  'http://www.w3.org/Graphics/SVG/1.1/DTD/svg11.dtd'><svg style="enable-background:new 0 0 500 500;" version="1.1" viewBox="0 0 500 500" xml:space="preserve" xmlns="http://www.w3.org/2000/svg" xmlns:xlink="http://www.w3.org/1999/xlink"><g id="duplicate-documents"><g><path d="M250,0C111.931,0,0,111.925,0,250c0,138.065,111.931,250,250,250s250-111.935,250-250    C500,111.925,388.069,0,250,0z" style="fill:#F4F1F0;"/><g id="_x34_0"><g><path d="M264.182,246.636h3.147c0.592,0,1.074-0.477,1.074-1.063v-3.146c0-0.597-0.482-1.074-1.074-1.074      h-3.147c-0.586,0-1.068,0.477-1.068,1.074v3.146C263.113,246.159,263.596,246.636,264.182,246.636z" style="fill:#FF931E;"/><path d="M292.73,218.913h3.147c0.591,0,1.074-0.477,1.074-1.074v-3.146c0-0.586-0.483-1.064-1.074-1.064      h-3.147c-0.586,0-1.069,0.478-1.069,1.064v3.146C291.661,218.436,292.145,218.913,292.73,218.913z" style="fill:#FF931E;"/><g><path d="M291.927,279.84v1.605h13.298c2.35,0,4.27,1.91,4.27,4.265v13.39c0,2.354-1.92,4.264-4.27,4.264       h-13.298v1.78c0,2.148-1.438,3.276-2.858,3.276c-0.532,0-1.357-0.162-2.241-0.9l-14.177-11.849       c-0.911-0.76-1.438-1.845-1.448-2.984c0-1.14,0.505-2.246,1.411-3.017l14.214-12.174c0.89-0.76,1.72-0.912,2.263-0.912       C290.5,276.584,291.927,277.702,291.927,279.84z M287.766,302.875v-3.678h17.459c0.049,0,0.104-0.044,0.104-0.098v-13.39       c0-0.055-0.055-0.108-0.104-0.108h-17.459l-0.005-3.418l-12.229,10.471L287.766,302.875z" style="fill:#FF931E;"/></g><g><path d="M289.068,311.708c-0.439,0-0.982-0.055-1.579-0.206v4.427c0,4.492-3.673,8.16-8.165,8.16       h-69.222c-4.492,0-8.171-3.668-8.171-8.16v-63.748h85.558v21.322c0.597-0.163,1.15-0.218,1.6-0.218       c0.526,0,1.068,0.087,1.601,0.239v-29.405c0-4.84-3.955-8.778-8.778-8.778h-74.398c-4.829,0-8.778,3.939-8.778,8.778v74.393       c0,4.828,3.95,8.777,8.778,8.777h74.398c4.823,0,8.778-3.949,8.778-8.777v-7.043       C290.147,311.621,289.61,311.708,289.068,311.708z M273.253,242.122c-0.521-0.52-0.521-1.378,0-1.898       c0.526-0.532,1.373-0.532,1.899,0l1.99,1.985l1.976-1.985c0.526-0.532,1.378-0.532,1.904,0c0.526,0.521,0.526,1.378,0,1.898       l-1.98,1.986l1.98,1.986c0.526,0.521,0.526,1.378,0,1.899c-0.521,0.521-1.378,0.521-1.904,0l-1.976-1.986l-1.99,1.986       c-0.526,0.521-1.373,0.521-1.899,0c-0.521-0.521-0.521-1.378,0-1.899l1.985-1.986L273.253,242.122z M261.36,241.374       c0-0.977,0.804-1.779,1.78-1.779h5.229c0.987,0,1.774,0.803,1.774,1.779v5.241c0,0.977-0.787,1.769-1.774,1.769h-5.229       c-0.977,0-1.78-0.792-1.78-1.769V241.374z M251.053,245.844h6.651c0.694,0,1.264,0.575,1.264,1.27       c0,0.705-0.569,1.27-1.264,1.27h-6.651c-0.694,0-1.27-0.564-1.27-1.27C249.783,246.419,250.358,245.844,251.053,245.844z" style="fill:#FF931E;"/></g><g><path d="M310.46,207.606h-74.403c-4.823,0-8.772,3.96-8.772,8.778v15.006h3.195v-6.934h85.558v63.748       c0,2.637-1.285,4.97-3.25,6.467v4.536c3.695-1.031,6.451-4.405,6.451-8.42v-74.403       C319.238,211.567,315.283,207.606,310.46,207.606z M286.241,220.66h-6.641c-0.7,0-1.27-0.564-1.27-1.259       c0-0.705,0.569-1.27,1.27-1.27h6.641c0.705,0,1.275,0.564,1.275,1.27C287.517,220.096,286.946,220.66,286.241,220.66z        M298.698,218.891c0,0.977-0.792,1.769-1.78,1.769h-5.229c-0.982,0-1.774-0.792-1.774-1.769v-5.23       c0-0.987,0.792-1.78,1.774-1.78h5.229c0.988,0,1.78,0.793,1.78,1.78V218.891z M309.57,218.37c0.531,0.521,0.531,1.378,0,1.899       c-0.526,0.521-1.373,0.521-1.898,0l-1.986-1.986l-1.985,1.986c-0.526,0.521-1.378,0.521-1.899,0       c-0.525-0.521-0.525-1.378,0-1.899l1.986-1.985l-1.986-1.986c-0.525-0.521-0.525-1.378,0-1.899       c0.522-0.532,1.373-0.532,1.899,0l1.985,1.985l1.986-1.996c0.525-0.521,1.372-0.521,1.898,0c0.531,0.531,0.531,1.389,0,1.91       l-1.985,1.986L309.57,218.37z" style="fill:#FF931E;"/></g></g><path d="M362.771,140.071H137.224c-14.416,0.033-26.091,11.708-26.112,26.118V333.8     c0.021,14.41,11.697,26.096,26.112,26.118h225.548c14.409-0.022,26.096-11.708,26.117-26.118V166.19     C388.867,151.779,377.181,140.104,362.771,140.071z M360.004,156.815c3.277,0,5.936,2.658,5.936,5.935     c0,3.277-2.658,5.935-5.936,5.935c-3.282,0-5.935-2.658-5.935-5.935C354.069,159.473,356.722,156.815,360.004,156.815z      M313.357,157.161h29.189c3.087,0,5.582,2.507,5.582,5.588c0,3.082-2.495,5.577-5.582,5.577h-29.189     c-3.087,0-5.583-2.496-5.583-5.577C307.774,159.668,310.27,157.161,313.357,157.161z M374.647,333.8     c-0.011,6.489-5.393,11.871-11.876,11.871H137.224c-6.478,0-11.855-5.382-11.871-11.871V182.921h249.295V333.8z" style="fill:#675F58;"/></g></g></g><g id="Layer_1"/></svg>