<?xml version="1.0" ?><!DOCTYPE svg  PUBLIC '-//W3C//DTD SVG 1.1//EN'  'http://www.w3.org/Graphics/SVG/1.1/DTD/svg11.dtd'><svg style="enable-background:new 0 0 500 500;" version="1.1" viewBox="0 0 500 500" xml:space="preserve" xmlns="http://www.w3.org/2000/svg" xmlns:xlink="http://www.w3.org/1999/xlink"><g id="landing-page-internet"><g><circle cx="250" cy="250" r="250" style="fill:#F4F1F0;"/><g id="_x33_2"><path d="M344.342,270.399H280.04c-0.021-1.053-0.076-2.095-0.195-3.12     c-0.065-0.559-0.163-1.123-0.261-1.665c0-0.011-0.255-1.248-0.385-1.855c-0.146-0.565-0.299-1.129-0.45-1.682     c-0.987-3.392-2.577-6.532-4.573-9.337l20.139-3.505c0.743,0,1.329-0.797,1.329-1.774c0-0.977-0.586-1.768-1.329-1.768h-27.148     c-3.727-2.713-8.084-4.607-12.814-5.431l-2.377-32.46c0-1.389-0.89-2.518-1.975-2.518c-1.096,0-1.975,1.128-1.975,2.518     l-2.36,32.183c-5.518,0.591-10.585,2.609-14.849,5.708h-25.13c-0.737,0-1.329,0.792-1.329,1.768c0,0.977,0.592,1.774,1.329,1.774     l18.371,3.201c-2.127,2.881-3.782,6.126-4.823,9.652c-0.146,0.542-0.298,1.106-0.439,1.676c-0.136,0.608-0.277,1.216-0.385,1.84     c0,0-0.195,1.117-0.266,1.682c-0.12,1.025-0.174,2.067-0.185,3.114h-62.294c-1.601,0-2.892,1.726-2.892,3.841     c0,2.127,1.291,3.847,2.892,3.847l25.141,4.39v3.526c-5.453,1.259-9.521,6.114-9.521,11.946c0,6.787,5.496,12.294,12.289,12.294     c6.787,0,12.294-5.507,12.294-12.294c0-5.887-4.167-10.791-9.685-11.99v-2.555l38.487,6.711     c5.485,6.912,13.824,11.431,23.237,11.751v6.717h-1.514v-2.881c0-0.977-0.835-1.774-1.833-1.774h-5.968     c-1.02,0-1.845,0.798-1.845,1.774v7.948c0,0.971,0.824,1.769,1.845,1.769h5.968c0.998,0,1.833-0.798,1.833-1.769v-2.881h5.198     v2.881c0,0.971,0.835,1.769,1.845,1.769h5.973c1.015,0,1.845-0.798,1.845-1.769v-7.948c0-0.977-0.83-1.774-1.845-1.774h-5.973     c-1.01,0-1.845,0.798-1.845,1.774v2.881h-1.503v-6.717c9.233-0.314,17.421-4.66,22.89-11.339l40.831-7.123v2.555     c-5.518,1.199-9.668,6.103-9.668,11.99c0,6.787,5.507,12.294,12.288,12.294c6.787,0,12.294-5.507,12.294-12.294     c0-5.832-4.069-10.688-9.521-11.946v-3.526l25.142-4.39c1.589,0,2.886-1.72,2.886-3.847     C347.227,272.125,345.931,270.399,344.342,270.399z M192.611,297.949c0,4.991-4.058,9.044-9.038,9.044     c-4.991,0-9.039-4.053-9.039-9.044c0-4.991,4.048-9.039,9.039-9.039C188.553,288.91,192.611,292.958,192.611,297.949z      M221.696,259.76c0,0,0.911-2.642,2.582-5.306c1.997-3.19,3.879-4.611,3.879-4.611h5.116l-4.193,9.917H221.696z M235.552,249.843     h12.354v9.917h-16.401L235.552,249.843z M248.991,288.417c-5.518,0-10.016-3.934-10.016-8.784c0-4.85,4.498-8.794,10.016-8.794     c5.528,0,10.015,3.944,10.015,8.794C259.006,284.483,254.52,288.417,248.991,288.417z M250.087,259.76v-9.917h12.343l4.058,9.917     H250.087z M268.918,259.76l-4.21-9.917h5.133c0,0,1.866,1.421,3.873,4.611c1.666,2.664,2.577,5.306,2.577,5.306H268.918z      M325.456,297.949c0,4.991-4.037,9.044-9.028,9.044c-4.98,0-9.038-4.053-9.038-9.044c0-4.991,4.058-9.039,9.038-9.039     C321.419,288.91,325.456,292.958,325.456,297.949z" style="fill:#FF931E;"/><path d="M362.782,140.071H137.218c-14.404,0.027-26.096,11.708-26.107,26.118v167.621     c0.011,14.41,11.702,26.091,26.107,26.112h225.564c14.404-0.022,26.096-11.702,26.107-26.112V166.19     C388.878,151.779,377.186,140.099,362.782,140.071z M360.01,156.809c3.277,0,5.94,2.664,5.94,5.936c0,3.271-2.663,5.93-5.94,5.93     c-3.282,0-5.936-2.658-5.936-5.93C354.074,159.473,356.727,156.809,360.01,156.809z M313.357,157.161h29.189     c3.092,0,5.582,2.507,5.582,5.583c0,3.082-2.49,5.583-5.582,5.583h-29.189c-3.093,0-5.583-2.501-5.583-5.583     C307.774,159.668,310.265,157.161,313.357,157.161z M374.652,333.811c-0.021,6.483-5.387,11.86-11.87,11.871H137.218     c-6.483-0.011-11.849-5.388-11.871-11.871V182.932h249.305V333.811z" style="fill:#675F58;"/></g></g></g><g id="Layer_1"/></svg>