<?xml version="1.0" ?><!DOCTYPE svg  PUBLIC '-//W3C//DTD SVG 1.1//EN'  'http://www.w3.org/Graphics/SVG/1.1/DTD/svg11.dtd'><svg style="enable-background:new 0 0 500 500;" version="1.1" viewBox="0 0 500 500" xml:space="preserve" xmlns="http://www.w3.org/2000/svg" xmlns:xlink="http://www.w3.org/1999/xlink"><g id="window-php-coding"><g><circle cx="250" cy="250" r="250" style="fill:#F4F1F0;"/><g id="_x36_"><polygon points="194.908,252.859 167.261,240.669 167.261,236.686 194.908,222.879 194.908,229.557      175.865,238.384 194.908,246.208    " style="fill:#FF931E;"/><path d="M212.617,258.002c0.854-0.846,1.28-2.002,1.28-3.472c0-1.52-0.423-2.691-1.27-3.505     c-0.843-0.814-2.035-1.226-3.575-1.226c-1.595,0-2.813,0.401-3.648,1.193c-0.835,0.803-1.253,1.98-1.253,3.538     c0,1.508,0.429,2.669,1.283,3.494c0.855,0.83,2.059,1.242,3.619,1.242C210.574,259.267,211.762,258.849,212.617,258.002z" style="fill:#FF931E;"/><path d="M210.693,217.226c-4.642,0-9.028,1.161-13.167,3.483l3.035,6.098     c3.562-1.823,6.735-2.734,9.521-2.734c1.595,0,2.84,0.314,3.73,0.949c0.89,0.629,1.337,1.552,1.337,2.756     c0,1.08-0.31,2.051-0.931,2.924c-0.626,0.868-1.91,2.007-3.857,3.396c-2.026,1.487-3.42,2.886-4.177,4.199     c-0.762,1.324-1.145,2.876-1.145,4.655v2.062h7.381v-1.671c0-1.117,0.236-2.018,0.708-2.702c0.475-0.689,1.603-1.693,3.385-3.005     c2.596-1.855,4.362-3.526,5.29-5.013c0.928-1.487,1.392-3.25,1.392-5.29c0-3.065-1.129-5.512-3.383-7.352     C217.559,218.143,214.519,217.226,210.693,217.226z" style="fill:#FF931E;"/><path d="M260.52,231.06c2.078,2.843,3.12,6.787,3.12,11.838c0,3.32-0.488,6.206-1.465,8.658     c-0.977,2.447-2.36,4.313-4.161,5.594c-1.802,1.275-3.918,1.926-6.348,1.926c-3.654,0-6.524-1.334-8.603-3.987h-0.447     c0.298,2.599,0.447,4.101,0.447,4.509v12.619h-8.49v-44.83h6.901l1.196,4.037h0.393c1.983-3.087,4.927-4.617,8.824-4.617     C255.561,226.807,258.441,228.223,260.52,231.06z M254.98,242.784c0-3.066-0.472-5.366-1.408-6.89     c-0.939-1.536-2.406-2.3-4.413-2.3c-2.094,0-3.627,0.646-4.593,1.937c-0.966,1.292-1.47,3.418-1.503,6.392v0.922     c0,3.337,0.497,5.73,1.487,7.178c0.993,1.449,2.569,2.176,4.723,2.176C253.079,252.197,254.98,249.062,254.98,242.784z      M288.227,226.807c-4.123,0-7.134,1.519-9.027,4.557h-0.445l0.195-2.506c0.131-2.539,0.195-4.156,0.195-4.839v-8.827h-8.49     v43.322h8.49v-14.638c0-3.624,0.532-6.239,1.585-7.856c1.064-1.616,2.777-2.425,5.153-2.425c3.343,0,5.014,2.251,5.014,6.744     v18.175h8.496v-20.291c0-3.679-0.955-6.5-2.843-8.464C294.656,227.783,291.878,226.807,288.227,226.807z M337.201,242.898     c0,3.32-0.493,6.206-1.47,8.658c-0.977,2.447-2.354,4.313-4.156,5.594c-1.807,1.275-3.922,1.926-6.348,1.926     c-3.656,0-6.526-1.334-8.609-3.987h-0.44c0.293,2.599,0.44,4.101,0.44,4.509v12.619h-8.485v-44.83h6.906l1.199,4.037h0.38     c1.991-3.087,4.932-4.617,8.827-4.617c3.678,0,6.554,1.416,8.637,4.253C336.165,233.903,337.201,237.847,337.201,242.898z      M328.537,242.784c0-3.066-0.467-5.366-1.405-6.89c-0.938-1.536-2.408-2.3-4.41-2.3c-2.1,0-3.63,0.646-4.59,1.937     c-0.977,1.292-1.476,3.418-1.514,6.392v0.922c0,3.337,0.499,5.73,1.491,7.178c0.999,1.449,2.572,2.176,4.721,2.176     C326.639,252.197,328.537,249.062,328.537,242.784z" style="fill:#675F58;"/><path d="M187.614,307.991c-1.595,0-2.811,0.401-3.646,1.194c-0.835,0.803-1.253,1.979-1.253,3.537     c0,1.508,0.426,2.669,1.283,3.494c0.852,0.824,2.056,1.242,3.616,1.242c1.521,0,2.712-0.424,3.564-1.265     c0.857-0.846,1.283-2.002,1.283-3.472c0-1.52-0.423-2.691-1.27-3.505C190.349,308.398,189.157,307.991,187.614,307.991z" style="fill:#FF931E;"/><path d="M183.702,275.418c-4.641,0-9.027,1.161-13.167,3.478l3.033,6.098     c3.564-1.817,6.738-2.729,9.524-2.729c1.593,0,2.84,0.314,3.73,0.944c0.887,0.629,1.337,1.551,1.337,2.756     c0,1.079-0.314,2.051-0.933,2.93c-0.624,0.868-1.907,2.002-3.857,3.396c-2.024,1.486-3.418,2.886-4.175,4.199     c-0.762,1.318-1.145,2.869-1.145,4.649v2.062h7.379v-1.666c0-1.117,0.238-2.018,0.708-2.701c0.478-0.69,1.603-1.693,3.385-3.006     c2.599-1.861,4.365-3.532,5.292-5.014c0.928-1.486,1.392-3.255,1.392-5.295c0-3.06-1.128-5.512-3.386-7.346     C190.565,276.335,187.524,275.418,183.702,275.418z" style="fill:#FF931E;"/><polygon points="200.019,287.744 219.062,296.576 200.019,304.4 200.019,311.052 227.666,298.855      227.666,294.879 200.019,281.065    " style="fill:#FF931E;"/><path d="M362.776,140.077H137.229c-14.415,0.032-26.09,11.708-26.117,26.117v167.616     c0.027,14.41,11.702,26.091,26.117,26.112h225.548c14.41-0.022,26.097-11.702,26.112-26.112V166.194     C388.873,151.785,377.186,140.109,362.776,140.077z M360.004,156.819c3.283,0,5.941,2.659,5.941,5.936     c0,3.277-2.658,5.936-5.941,5.936c-3.276,0-5.93-2.659-5.93-5.936C354.074,159.478,356.727,156.819,360.004,156.819z      M313.362,157.172h29.188c3.087,0,5.583,2.501,5.583,5.583c0,3.081-2.496,5.577-5.583,5.577h-29.188     c-3.087,0-5.582-2.496-5.582-5.577C307.78,159.673,310.275,157.172,313.362,157.172z M374.652,333.811     c-0.011,6.483-5.392,11.865-11.876,11.865H137.229c-6.477,0-11.854-5.382-11.87-11.865V182.938h249.294V333.811z" style="fill:#675F58;"/></g></g></g><g id="Layer_1"/></svg>