<?xml version="1.0" ?><!DOCTYPE svg  PUBLIC '-//W3C//DTD SVG 1.1//EN'  'http://www.w3.org/Graphics/SVG/1.1/DTD/svg11.dtd'><svg style="enable-background:new 0 0 500 500;" version="1.1" viewBox="0 0 500 500" xml:space="preserve" xmlns="http://www.w3.org/2000/svg" xmlns:xlink="http://www.w3.org/1999/xlink"><g id="window-javascript-coding"><g><circle cx="250" cy="250" r="250" style="fill:#F4F1F0;"/><g id="_x33_6"><g><path d="M362.782,140.071H137.218c-14.404,0.027-26.096,11.708-26.107,26.118v167.621      c0.011,14.41,11.702,26.091,26.107,26.112h225.564c14.398-0.022,26.096-11.702,26.107-26.112V166.19      C388.878,151.779,377.181,140.099,362.782,140.071z M360.004,156.809c3.277,0,5.946,2.664,5.946,5.936      c0,3.271-2.669,5.93-5.946,5.93c-3.276,0-5.935-2.658-5.935-5.93C354.069,159.473,356.727,156.809,360.004,156.809z       M313.357,157.161h29.189c3.092,0,5.577,2.507,5.577,5.583c0,3.082-2.485,5.583-5.577,5.583h-29.189      c-3.093,0-5.588-2.501-5.588-5.583C307.77,159.668,310.265,157.161,313.357,157.161z M374.652,333.811      c-0.021,6.483-5.392,11.86-11.87,11.871H137.218c-6.483-0.011-11.849-5.388-11.871-11.871V182.932h249.305V333.811z" style="fill:#675F58;"/></g><g><path d="M189.16,276.433c0-2.36-0.884-4.161-2.661-5.415c-1.777-1.242-4.362-1.871-7.753-1.871v-9.729      c3.418,0,6.009-0.591,7.77-1.79c1.763-1.183,2.645-2.897,2.645-5.121v-0.326v-12.939c0-4.15,1.318-7.069,3.947-8.767      c2.631-1.698,7.256-2.544,13.875-2.544v9.152c-2.686,0.082-4.536,0.603-5.553,1.546c-1.015,0.95-1.524,2.349-1.524,4.194v12.164      c-0.163,5.105-3.337,8.11-9.524,9.038v0.483c6.351,0.954,9.524,3.83,9.524,8.626v0.369v12.163c0,1.851,0.499,3.244,1.508,4.194      c1.001,0.949,2.862,1.465,5.569,1.546v9.201c-6.619,0-11.244-0.857-13.875-2.544c-2.629-1.698-3.947-4.634-3.947-8.816V276.433z      " style="fill:#FF931E;"/><path d="M217.337,307.439c-3.177,0-5.9-0.337-8.179-1.015v-9.771c1.898,0.521,3.838,0.781,5.818,0.781      c2.086,0,3.613-0.586,4.574-1.758c0.966-1.166,1.449-2.881,1.449-5.165v-48.584h12.408v50.418c0,4.829-1.397,8.551-4.188,11.171      C226.424,306.131,222.464,307.439,217.337,307.439z M220.47,230.17c0-4.047,2.249-6.066,6.752-6.066      c4.506,0,6.755,2.018,6.755,6.066c0,1.92-0.562,3.423-1.688,4.498c-1.128,1.069-2.811,1.606-5.067,1.606      C222.719,236.274,220.47,234.234,220.47,230.17z" style="fill:#FF931E;"/><path d="M282.335,273.915c0,4.66-1.622,8.214-4.861,10.655c-3.244,2.441-8.095,3.662-14.545,3.662      c-3.315,0-6.136-0.227-8.466-0.673c-2.333-0.444-4.52-1.102-6.552-1.97v-10.259c2.306,1.085,4.904,1.996,7.796,2.728      c2.887,0.732,5.432,1.102,7.629,1.102c4.503,0,6.749-1.308,6.749-3.906c0-0.982-0.293-1.769-0.89-2.382      c-0.598-0.613-1.628-1.302-3.093-2.078c-1.465-0.77-3.418-1.676-5.859-2.701c-3.505-1.471-6.073-2.821-7.71-4.069      c-1.646-1.248-2.84-2.686-3.58-4.297c-0.749-1.616-1.123-3.603-1.123-5.957c0-4.047,1.568-7.172,4.703-9.38      c3.131-2.213,7.568-3.32,13.319-3.32c5.48,0,10.818,1.194,15.994,3.581l-3.743,8.952c-2.279-0.972-4.405-1.774-6.392-2.398      c-1.975-0.623-3.993-0.938-6.06-0.938c-3.662,0-5.496,0.993-5.496,2.979c0,1.107,0.597,2.067,1.774,2.881      c1.177,0.819,3.76,2.023,7.753,3.624c3.553,1.433,6.152,2.778,7.812,4.026c1.654,1.247,2.875,2.685,3.656,4.318      C281.944,269.721,282.335,271.658,282.335,273.915z" style="fill:#FF931E;"/><path d="M310.834,289.247c0,3.038-0.559,5.339-1.665,6.879c-1.112,1.547-2.951,2.681-5.513,3.402      c-2.571,0.716-6.108,1.079-10.645,1.079v-9.201c2.686-0.049,4.536-0.543,5.556-1.459c1.021-0.928,1.53-2.35,1.53-4.281v-12.163      v-0.45c0-2.333,0.792-4.227,2.398-5.67c1.595-1.454,3.96-2.414,7.074-2.875v-0.483c-6.152-0.928-9.31-3.934-9.473-9.038v-12.164      c0-1.899-0.51-3.31-1.508-4.232c-1.004-0.928-2.865-1.427-5.578-1.508v-9.152c4.536,0,8.084,0.358,10.661,1.08      c2.577,0.716,4.416,1.855,5.518,3.413c1.096,1.562,1.644,3.83,1.644,6.819v12.939v0.407c0,2.278,0.836,3.982,2.507,5.127      c1.666,1.14,4.303,1.703,7.916,1.703v9.729c-3.396,0-5.98,0.559-7.759,1.665c-1.773,1.118-2.664,2.989-2.664,5.621V289.247z" style="fill:#FF931E;"/></g></g></g></g><g id="Layer_1"/></svg>