<?xml version="1.0" ?><!DOCTYPE svg  PUBLIC '-//W3C//DTD SVG 1.1//EN'  'http://www.w3.org/Graphics/SVG/1.1/DTD/svg11.dtd'><svg style="enable-background:new 0 0 500 500;" version="1.1" viewBox="0 0 500 500" xml:space="preserve" xmlns="http://www.w3.org/2000/svg" xmlns:xlink="http://www.w3.org/1999/xlink"><g id="computer-devices-responsive"><g><circle cx="250" cy="250" r="250" style="fill:#F4F1F0;"/><g id="_x32_3"><path d="M270.052,341.998l3.358,7.183c0,0,0,2.105-1.405,2.105c-1.399,0-79.085,0-80.49,0     c-1.399,0-1.747-2.105-1.747-2.105l3.353-7.183H270.052z M269.89,326.747h-76.97v13.493h76.97V326.747z M116.851,292.198V166.135     h223.253v14.366h14.643v-24.777c0-3.857-3.152-7.01-7.01-7.01h-237.95c-3.857,0-7.009,3.152-7.009,7.01v140.175v3.299v16.385     c0,4.318,3.152,7.872,7.009,7.872h188.107v-31.256H116.851z" style="fill:#675F58;"/><path d="M380.339,188.911h-57.156c-9.294,0-16.89,7.601-16.89,16.878v128.602     c0,9.288,7.596,16.895,16.89,16.895h57.156c9.288,0,16.884-7.606,16.884-16.895V205.789     C397.223,196.512,389.627,188.911,380.339,188.911z M341.368,193.842c0-0.564,0.934-1.037,2.072-1.037h16.64     c1.14,0,2.072,0.472,2.072,1.037v0.526c0,0.564-0.933,1.037-2.072,1.037h-16.64c-1.139,0-2.072-0.472-2.072-1.037V193.842z      M353.711,199.957c0,1.074-0.879,1.948-1.953,1.948c-1.074,0-1.953-0.874-1.953-1.948c0-1.085,0.879-1.959,1.953-1.959     C352.832,197.998,353.711,198.872,353.711,199.957z M362.152,342.703c0,1.145-0.933,2.083-2.072,2.083h-16.64     c-1.139,0-2.072-0.938-2.072-2.083v-1.036c0-1.14,0.934-2.067,2.072-2.067h16.64c1.14,0,2.072,0.928,2.072,2.067V342.703z      M390.218,334.392h-75.716V205.789h75.716V334.392z" style="fill:#FF931E;"/></g></g></g><g id="Layer_1"/></svg>