<?xml version="1.0" ?><!DOCTYPE svg  PUBLIC '-//W3C//DTD SVG 1.1//EN'  'http://www.w3.org/Graphics/SVG/1.1/DTD/svg11.dtd'><svg style="enable-background:new 0 0 500 500;" version="1.1" viewBox="0 0 500 500" xml:space="preserve" xmlns="http://www.w3.org/2000/svg" xmlns:xlink="http://www.w3.org/1999/xlink"><g id="editor-node-tool-window"><g><path d="M250,0C111.931,0,0,111.936,0,250c0,138.075,111.931,250,250,250s250-111.925,250-250    C500,111.936,388.069,0,250,0z" style="fill:#F4F1F0;"/><g id="_x31_8"><g><g><g><path d="M198.427,318.729V212.044h110.33v104.742v1.942H198.427L198.427,318.729z M306.809,316.786        v-1.942V316.786L306.809,316.786z M202.311,314.844h102.555V215.94H202.311V314.844L202.311,314.844z" style="fill:#FF931E;"/></g><g><g><g><rect height="14.247" style="fill:#FF931E;" width="14.252" x="193.343" y="207.194"/></g><g><rect height="14.247" style="fill:#FF931E;" width="14.253" x="299.593" y="207.194"/></g><g><rect height="14.247" style="fill:#FF931E;" width="14.258" x="246.463" y="207.194"/></g></g><g><g><rect height="14.258" style="fill:#FF931E;" width="14.252" x="193.343" y="309.332"/></g><g><rect height="14.258" style="fill:#FF931E;" width="14.253" x="299.593" y="309.332"/></g><g><rect height="14.258" style="fill:#FF931E;" width="14.258" x="246.463" y="309.332"/></g></g></g><g><g><rect height="14.247" style="fill:#FF931E;" width="14.252" x="193.343" y="258.269"/></g><g><rect height="14.247" style="fill:#FF931E;" width="14.253" x="299.593" y="258.269"/></g></g></g><g><polygon points="294.754,288.411 264.784,276.595 279.047,304.471 282.634,292.557      " style="fill:#675F58;"/><g><path d="M288.965,307.053v-7.964h7.965v7.042v0.922H288.965L288.965,307.053z M295.996,306.131v-0.934        V306.131L295.996,306.131z M290.826,305.197h4.236v-4.232h-4.236V305.197L290.826,305.197z" style="fill:#675F58;"/></g></g></g><path d="M362.771,140.083H137.224c-14.416,0.021-26.091,11.707-26.112,26.118v167.61     c0.021,14.41,11.697,26.085,26.112,26.118h225.548c14.409-0.033,26.096-11.708,26.117-26.118V166.2     C388.867,151.79,377.181,140.104,362.771,140.083z M360.004,156.815c3.277,0,5.936,2.658,5.936,5.935     c0,3.277-2.658,5.935-5.936,5.935c-3.282,0-5.935-2.658-5.935-5.935C354.069,159.473,356.722,156.815,360.004,156.815z      M313.357,157.172h29.189c3.087,0,5.582,2.496,5.582,5.577c0,3.082-2.495,5.588-5.582,5.588h-29.189     c-3.087,0-5.583-2.507-5.583-5.588C307.774,159.668,310.27,157.172,313.357,157.172z M374.647,333.811     c-0.011,6.489-5.393,11.86-11.876,11.871H137.224c-6.478-0.011-11.855-5.382-11.871-11.871V182.932h249.295V333.811z" style="fill:#675F58;"/></g></g></g><g id="Layer_1"/></svg>