<?xml version="1.0" ?><!DOCTYPE svg  PUBLIC '-//W3C//DTD SVG 1.1//EN'  'http://www.w3.org/Graphics/SVG/1.1/DTD/svg11.dtd'><svg style="enable-background:new 0 0 500 500;" version="1.1" viewBox="0 0 500 500" xml:space="preserve" xmlns="http://www.w3.org/2000/svg" xmlns:xlink="http://www.w3.org/1999/xlink"><g id="window-browser-stopwatch"><g><path d="M250,0C111.925,0,0,111.936,0,250c0,138.075,111.925,250,250,250c138.064,0,250-111.925,250-250    C500,111.936,388.064,0,250,0z" style="fill:#F4F1F0;"/><g id="_x33_0"><g><path d="M362.771,140.083H137.218c-14.41,0.021-26.096,11.707-26.107,26.118v167.621      c0.011,14.399,11.697,26.085,26.107,26.107h225.554c14.409-0.023,26.106-11.708,26.117-26.107V166.2      C388.878,151.79,377.181,140.104,362.771,140.083z M360.004,156.815c3.277,0,5.946,2.658,5.946,5.935      c0,3.277-2.669,5.935-5.946,5.935c-3.276,0-5.935-2.658-5.935-5.935C354.069,159.473,356.727,156.815,360.004,156.815z       M313.357,157.172h29.189c3.092,0,5.577,2.506,5.577,5.577c0,3.082-2.485,5.588-5.577,5.588h-29.189      c-3.093,0-5.588-2.507-5.588-5.588C307.77,159.679,310.265,157.172,313.357,157.172z M374.652,333.821      c-0.021,6.479-5.392,11.86-11.881,11.86H137.218c-6.488,0-11.849-5.382-11.871-11.86V182.942h249.305V333.821z" style="fill:#675F58;"/></g><g><path d="M266.319,230.751c-0.314-0.716-3.711-3.082-8.637-4.514v-4.199      c4.688-0.25,7.855-0.716,7.855-1.258c0-0.098,0-6.152,0-6.152c0-0.803-6.955-3.874-15.538-3.874      c-8.528,0-15.44,3.027-15.538,3.852l0,0c0,0,0,0.011,0,0.022c0,0.195,0,6.065,0,6.152c0,0.531,3.049,0.998,7.584,1.248v4.286      c-4.774,1.443-8.062,3.732-8.366,4.438c-17.925,6.641-30.697,23.871-30.697,44.097c0,25.966,21.05,47.017,47.016,47.017      c25.955,0,47.005-21.051,47.005-47.017C297.005,254.633,284.234,237.392,266.319,230.751z M241.602,219.119      c0-1.021,0.206-1.845,0.456-1.845c0.26,0,0.466,0.824,0.466,1.845c0,0.705-0.108,1.302-0.249,1.616      c-0.065,0.13-0.13,0.228-0.217,0.228c0,0,0-0.011-0.011-0.011C241.797,220.92,241.602,220.117,241.602,219.119z       M238.509,220.562c-0.26,0-0.467-0.825-0.467-1.845c0-1.009,0.206-1.844,0.467-1.844c0.249,0,0.445,0.835,0.445,1.844      C238.954,219.737,238.759,220.562,238.509,220.562z M235.406,220.356c-0.26,0-0.466-0.835-0.466-1.855      c0-1.02,0.206-1.845,0.466-1.845c0.249,0,0.456,0.825,0.456,1.845C235.861,219.521,235.655,220.356,235.406,220.356z       M263.933,220.182c-0.261,0-0.467-0.825-0.467-1.844c0-1.009,0.206-1.845,0.467-1.845c0.249,0,0.455,0.835,0.455,1.845      C264.388,219.357,264.182,220.182,263.933,220.182z M260.688,220.66c-0.249,0-0.455-0.825-0.455-1.855      c0-1.02,0.206-1.834,0.455-1.834c0.25,0,0.467,0.814,0.467,1.834C261.154,219.835,260.938,220.66,260.688,220.66z       M249.555,219.249c0-1.02,0.195-1.845,0.456-1.845c0.25,0,0.467,0.825,0.467,1.845c0,0.619-0.087,1.15-0.206,1.486      c-0.076,0.206-0.163,0.358-0.261,0.358c-0.098,0-0.185-0.152-0.26-0.358C249.631,220.399,249.555,219.868,249.555,219.249z       M253.505,219.249c0-1.02,0.206-1.845,0.467-1.845c0.249,0,0.466,0.825,0.466,1.845c0,0.619-0.086,1.15-0.206,1.486      c-0.075,0.206-0.162,0.358-0.26,0.358c-0.098,0-0.185-0.152-0.261-0.358C253.592,220.399,253.505,219.868,253.505,219.249z       M257.356,220.963c-0.075,0-0.151-0.098-0.217-0.228c-0.141-0.314-0.238-0.911-0.238-1.616c0-1.021,0.195-1.845,0.455-1.845      c0.25,0,0.456,0.824,0.456,1.845c0,0.705-0.108,1.302-0.25,1.616C257.498,220.866,257.433,220.963,257.356,220.963z       M244.943,219.162c0-1.02,0.195-1.845,0.456-1.845c0.249,0,0.456,0.825,0.456,1.845c0,0.684-0.086,1.248-0.228,1.573      c-0.065,0.152-0.141,0.271-0.228,0.271s-0.152-0.119-0.228-0.271C245.03,220.41,244.943,219.846,244.943,219.162z M250,312.229      c-20.649,0-37.381-16.731-37.381-37.381c0-17.903,12.609-32.866,29.427-36.512c2.572-0.553,5.219-0.868,7.954-0.868      c2.637,0,5.208,0.282,7.683,0.803c16.959,3.548,29.688,18.576,29.688,36.577C287.37,295.497,270.638,312.229,250,312.229z" style="fill:#FF931E;"/><path d="M250.597,247.461v-7.715v-0.803h-1.204v0.803v7.715c0.195-0.011,0.391-0.021,0.586-0.021      C250.185,247.439,250.391,247.45,250.597,247.461z" style="fill:#FF931E;"/><path d="M222.722,274.707c0-0.206,0-0.401,0.011-0.607h-8.518v1.204h8.507      C222.722,275.108,222.722,274.913,222.722,274.707z" style="fill:#FF931E;"/><path d="M249.371,301.964v8.518h1.205v-8.518c-0.206,0-0.401,0.011-0.597,0.011      C249.772,301.975,249.566,301.964,249.371,301.964z" style="fill:#FF931E;"/><path d="M277.235,274.121c0,0.195,0.011,0.391,0.011,0.586c0,0.206-0.011,0.412-0.011,0.618h8.507v-1.204      H277.235z" style="fill:#FF931E;"/><path d="M251.866,275.282c0.065-0.184,0.119-0.369,0.119-0.575c0-0.879-0.586-1.605-1.378-1.866v-14.052      c0-0.412-0.336-0.738-0.749-0.738c-0.401,0-0.738,0.326-0.738,0.738v14.128c-0.673,0.325-1.139,0.998-1.139,1.79      c0,1.107,0.9,2.008,1.997,2.008c0.358,0,0.673-0.12,0.955-0.282l16.656,14.345c0.304,0.271,0.781,0.238,1.042-0.076      c0.271-0.304,0.238-0.771-0.076-1.042L251.866,275.282z" style="fill:#675F58;"/></g></g></g></g><g id="Layer_1"/></svg>