<?xml version="1.0" ?><!DOCTYPE svg  PUBLIC '-//W3C//DTD SVG 1.1//EN'  'http://www.w3.org/Graphics/SVG/1.1/DTD/svg11.dtd'><svg style="enable-background:new 0 0 500 500;" version="1.1" viewBox="0 0 500 500" xml:space="preserve" xmlns="http://www.w3.org/2000/svg" xmlns:xlink="http://www.w3.org/1999/xlink"><g id="window-tools"><g><circle cx="250" cy="250" r="250" style="fill:#F4F1F0;"/><g id="_x31_6"><path d="M165.945,323.866l10.915,20.427h28.288l-17.204-32.189c8.301-10.021,10.227-24.446,3.711-36.637     c-6.597-12.343-19.917-18.777-33.024-17.226l14.42,26.985L165.728,297l-13.867-0.45l-14.42-26.976     c-8.578,10.032-10.623,24.681-4.025,37.018C139.925,318.782,152.995,325.201,165.945,323.866z" style="fill:#FF931E;"/><path d="M280.512,312.311c-6.841-14.221-23.92-20.204-38.134-13.357     c-14.22,6.847-20.193,23.915-13.357,38.135c1.307,2.718,2.995,5.121,4.953,7.205h13.531c-4.899-1.818-9.136-5.447-11.583-10.521     c-5.002-10.405-0.624-22.905,9.776-27.919c10.412-5.013,22.9-0.629,27.913,9.777c5.008,10.411,0.64,22.905-9.776,27.918     c-0.586,0.282-1.178,0.522-1.775,0.744h13.471C283.415,335.932,285.797,323.28,280.512,312.311z" style="fill:#FF931E;"/><path d="M192.866,315.12l15.093,7.52c-0.136,3.093,0.038,6.218,0.532,9.332l-4.921,3.179l4.894,9.143     h22.032c-1.476-1.834-2.794-3.842-3.857-6.05c-7.471-15.538-0.944-34.196,14.589-41.667c15.532-7.482,34.191-0.943,41.666,14.589     c5.398,11.215,3.462,24.04-3.862,33.128h38.064l1.855-5.301c0.591-1.671-0.233-3.69-1.823-4.482l-15.555-7.747     c0.142-3.103-0.038-6.218-0.526-9.332l14.595-9.435c1.497-0.96,2.083-3.065,1.308-4.66l-6.689-13.916     c-0.771-1.59-2.778-2.436-4.455-1.883l-16.492,5.522c-2.122-2.321-4.455-4.41-6.956-6.228l3.647-16.987     c0.374-1.741-0.689-3.635-2.371-4.227l-14.572-5.104c-1.671-0.586-3.685,0.238-4.477,1.822l-7.753,15.565     c-3.092-0.146-6.217,0.021-9.336,0.516l-9.429-14.594c-0.966-1.487-3.055-2.084-4.661-1.314l-13.911,6.7     c-1.601,0.766-2.447,2.778-1.888,4.454l5.528,16.482c-2.322,2.127-4.416,4.46-6.234,6.961l-16.743-3.592     c-0.021,7.639-2.68,15.104-7.595,21.04L192.866,315.12z" style="fill:#FF931E;"/><path d="M319.401,333.925c1.725,0.857,2.609,3.049,1.979,4.861l-1.931,5.507h11.214l9.516-16.369     c1.976-3.406,0.814-7.812-2.593-9.787l-0.31-0.185l22.998-39.572l0.9,0.52c0.798,0.467,1.823,0.18,2.263-0.64l6.863-14.979     c0.444-0.813,0.146-1.861-0.656-2.322l-4.227-2.463c-0.803-0.467-1.855-0.206-2.35,0.586l-9.613,13.39     c-0.488,0.787-0.233,1.812,0.569,2.273l0.9,0.52l-23.003,39.584l-0.314-0.185c-3.397-1.975-7.802-0.809-9.776,2.593     l-8.052,13.867L319.401,333.925z" style="fill:#FF931E;"/><path d="M362.776,140.071H137.229c-14.415,0.033-26.09,11.708-26.117,26.118v167.616     c0.027,14.409,11.702,26.09,26.117,26.117h225.548c14.41-0.027,26.097-11.708,26.112-26.117V166.19     C388.873,151.779,377.186,140.104,362.776,140.071z M360.004,156.815c3.283,0,5.941,2.658,5.941,5.935     c0,3.277-2.658,5.935-5.941,5.935c-3.276,0-5.93-2.658-5.93-5.935C354.074,159.473,356.727,156.815,360.004,156.815z      M313.362,157.167h29.188c3.087,0,5.583,2.501,5.583,5.583c0,3.082-2.496,5.577-5.583,5.577h-29.188     c-3.087,0-5.582-2.496-5.582-5.577C307.78,159.668,310.275,157.167,313.362,157.167z M374.652,333.806     c-0.011,6.488-5.392,11.859-11.876,11.87H137.229c-6.477-0.011-11.854-5.382-11.87-11.87V182.932h249.294V333.806z" style="fill:#675F58;"/></g></g></g><g id="Layer_1"/></svg>