<?xml version="1.0" ?><!DOCTYPE svg  PUBLIC '-//W3C//DTD SVG 1.1//EN'  'http://www.w3.org/Graphics/SVG/1.1/DTD/svg11.dtd'><svg style="enable-background:new 0 0 500 500;" version="1.1" viewBox="0 0 500 500" xml:space="preserve" xmlns="http://www.w3.org/2000/svg" xmlns:xlink="http://www.w3.org/1999/xlink"><g id="computer-css-code"><g><path d="M250,0C111.931,0,0,111.925,0,250c0,138.065,111.931,250,250,250c138.075,0,250-111.935,250-250    C500,111.925,388.075,0,250,0z" style="fill:#F4F1F0;"/><g id="_x31_9"><path d="M376.134,160.861h-28.467c-11.604,0-21.099,9.483-21.099,21.094V322.2     c0,11.61,9.494,21.105,21.099,21.105h28.467c11.6,0,21.089-9.494,21.089-21.105V181.955     C397.223,170.345,387.733,160.861,376.134,160.861z M361.903,265.788c-3.271,0-5.914-2.648-5.914-5.903     c0-3.266,2.643-5.913,5.914-5.913c3.255,0,5.897,2.647,5.897,5.913C367.801,263.141,365.158,265.788,361.903,265.788z      M359.369,245.117c0-1.4,1.129-2.528,2.534-2.528c1.399,0,2.528,1.128,2.528,2.528c0,1.399-1.129,2.528-2.528,2.528     C360.498,247.646,359.369,246.517,359.369,245.117z M382.726,205.154H341.07c-1.161,0-2.111-0.955-2.111-2.116     c0-1.172,0.95-2.105,2.111-2.105h41.655c1.161,0,2.105,0.933,2.105,2.105C384.831,204.199,383.887,205.154,382.726,205.154z      M382.726,194.607H341.07c-1.161,0-2.111-0.944-2.111-2.116c0-1.161,0.95-2.105,2.111-2.105h41.655     c1.161,0,2.105,0.944,2.105,2.105C384.831,193.663,383.887,194.607,382.726,194.607z M382.726,184.061H341.07     c-1.161,0-2.111-0.944-2.111-2.105c0-1.172,0.95-2.116,2.111-2.116h41.655c1.161,0,2.105,0.944,2.105,2.116     C384.831,183.116,383.887,184.061,382.726,184.061z M294.444,156.695H129.677c-14.844,0.022-26.866,12.044-26.899,26.878v98.416     c0.033,14.844,12.055,26.855,26.899,26.877h61.35v14.312c0,1.541-0.597,3.982-1.34,5.426l-20.231,7.443     c-1.811,0.847-5.072,1.53-7.231,1.53h-4.042c-2.17,0-3.95,1.27-3.95,2.799v0.131c0,1.529,1.779,2.799,3.95,2.799h107.758     c2.17,0,3.95-1.27,3.95-2.799v-0.131c0-1.529-0.83-2.799-1.84-2.799c-1.015,0-3.591-0.195-5.745-0.424l-26.063-9.679     c-1.833-0.824-3.331-2.756-3.331-4.297v-14.312h61.534c14.844-0.021,26.866-12.033,26.899-26.877v-98.416     C321.31,168.739,309.288,156.717,294.444,156.695z M268.207,303.429h-21.663c-1.519,0-2.75-1.226-2.75-2.756     c0-1.52,1.231-2.745,2.75-2.745h21.663c1.52,0,2.751,1.226,2.751,2.745C270.958,302.203,269.727,303.429,268.207,303.429z      M277.387,303.505c-1.567,0-2.832-1.259-2.832-2.832c0-1.562,1.265-2.821,2.832-2.821c1.558,0,2.832,1.259,2.832,2.821     C280.219,302.246,278.944,303.505,277.387,303.505z M305.81,281.988c-0.006,6.195-5.165,11.35-11.366,11.371H129.677     c-6.207-0.022-11.361-5.176-11.372-11.371v-98.416c0.011-6.185,5.165-11.35,11.372-11.361h164.768     c6.201,0.011,11.36,5.176,11.366,11.361V281.988z" style="fill:#675F58;"/><g><path d="M141.786,214.008v10.275v0.26c0,1.758-0.694,3.125-2.1,4.059c-1.4,0.955-3.456,1.421-6.169,1.421      v7.726c2.691,0,4.742,0.499,6.152,1.487c1.411,0.987,2.116,2.419,2.116,4.297V253.7c0,3.32,1.041,5.653,3.136,6.999      c2.084,1.345,5.762,2.018,11.014,2.018v-7.303c-2.159-0.054-3.63-0.466-4.427-1.226c-0.792-0.749-1.194-1.866-1.194-3.331      v-9.646v-0.293c0-3.809-2.517-6.098-7.562-6.847v-0.391c4.915-0.727,7.433-3.125,7.562-7.172v-9.657      c0-1.465,0.402-2.572,1.21-3.331c0.809-0.749,2.284-1.161,4.411-1.226v-7.259c-5.252,0-8.93,0.673-11.014,2.007      C142.828,208.398,141.786,210.721,141.786,214.008z" style="fill:#FF931E;"/><path d="M179.286,223.416c1.334,0,2.675,0.195,4.004,0.597c1.34,0.391,2.783,0.9,4.335,1.53l2.902-7.628      c-3.31-1.628-7.063-2.453-11.241-2.453c-5.708,0-10.086,1.628-13.14,4.872c-3.06,3.223-4.59,7.921-4.59,14.062      c0,12.327,5.621,18.501,16.862,18.501c2.474,0,4.525-0.195,6.152-0.586c1.622-0.38,3.233-1.085,4.829-2.095v-8.431      c-1.617,1.074-3.228,1.866-4.839,2.376c-1.617,0.51-3.375,0.76-5.273,0.76c-5.122,0-7.683-3.537-7.683-10.59      C171.604,227.051,174.165,223.416,179.286,223.416z" style="fill:#FF931E;"/><path d="M219.108,233.485c-1.314-0.999-3.38-2.051-6.196-3.201c-3.163-1.27-5.219-2.225-6.157-2.864      c-0.928-0.651-1.4-1.411-1.4-2.301c0-1.573,1.449-2.355,4.356-2.355c1.638,0,3.245,0.25,4.818,0.738      c1.573,0.5,3.255,1.128,5.067,1.91l2.973-7.107c-4.112-1.899-8.344-2.843-12.695-2.843c-4.562,0-8.095,0.879-10.574,2.637      c-2.49,1.747-3.738,4.232-3.738,7.444c0,1.877,0.304,3.451,0.895,4.731c0.592,1.28,1.541,2.409,2.843,3.407      c1.296,0.998,3.342,2.072,6.114,3.233c1.937,0.813,3.489,1.53,4.655,2.148c1.161,0.607,1.98,1.161,2.452,1.649      c0.477,0.478,0.716,1.106,0.716,1.877c0,2.072-1.79,3.104-5.371,3.104c-1.736,0-3.76-0.293-6.044-0.868      c-2.301-0.586-4.362-1.302-6.196-2.159v8.138c1.617,0.684,3.353,1.205,5.208,1.562c1.845,0.358,4.091,0.532,6.717,0.532      c5.122,0,8.973-0.966,11.545-2.908c2.572-1.942,3.863-4.753,3.863-8.464c0-1.779-0.315-3.32-0.939-4.611      C221.397,235.612,220.432,234.473,219.108,233.485z" style="fill:#FF931E;"/><path d="M251.985,233.485c-1.307-0.999-3.374-2.051-6.195-3.201c-3.168-1.27-5.214-2.225-6.152-2.864      c-0.933-0.651-1.4-1.411-1.4-2.301c0-1.573,1.454-2.355,4.357-2.355c1.633,0,3.239,0.25,4.812,0.738      c1.573,0.5,3.261,1.128,5.067,1.91l2.979-7.107c-4.117-1.899-8.344-2.843-12.689-2.843c-4.568,0-8.1,0.879-10.585,2.637      c-2.49,1.747-3.727,4.232-3.727,7.444c0,1.877,0.293,3.451,0.89,4.731c0.586,1.28,1.536,2.409,2.837,3.407      c1.302,0.998,3.348,2.072,6.12,3.233c1.936,0.813,3.488,1.53,4.649,2.148c1.161,0.607,1.98,1.161,2.452,1.649      c0.478,0.478,0.716,1.106,0.716,1.877c0,2.072-1.785,3.104-5.36,3.104c-1.747,0-3.765-0.293-6.055-0.868      c-2.3-0.586-4.362-1.302-6.185-2.159v8.138c1.611,0.684,3.348,1.205,5.197,1.562c1.845,0.358,4.091,0.532,6.717,0.532      c5.122,0,8.974-0.966,11.545-2.908c2.577-1.942,3.863-4.753,3.863-8.464c0-1.779-0.314-3.32-0.934-4.611      C254.275,235.612,253.31,234.473,251.985,233.485z" style="fill:#FF931E;"/><path d="M277.138,228.668c-1.324-0.89-1.985-2.257-1.985-4.069v-0.315v-10.275      c0-2.366-0.434-4.166-1.303-5.415c-0.879-1.226-2.333-2.138-4.384-2.713c-2.051-0.564-4.86-0.846-8.458-0.846v7.259      c2.148,0.065,3.624,0.466,4.422,1.193c0.792,0.738,1.193,1.855,1.193,3.364v9.657c0.131,4.047,2.637,6.445,7.53,7.172v0.391      c-2.479,0.358-4.351,1.128-5.62,2.278c-1.27,1.15-1.91,2.647-1.91,4.503v0.358v9.646c0,1.529-0.401,2.669-1.215,3.396      c-0.803,0.737-2.268,1.117-4.4,1.16v7.303c3.598,0,6.407-0.282,8.442-0.857c2.034-0.564,3.499-1.465,4.378-2.701      c0.885-1.216,1.324-3.038,1.324-5.458v-10.167c0-2.095,0.705-3.581,2.115-4.46c1.411-0.879,3.462-1.324,6.152-1.324v-7.726      C280.56,230.024,278.461,229.579,277.138,228.668z" style="fill:#FF931E;"/></g></g></g></g><g id="Layer_1"/></svg>