<?xml version="1.0" ?><!DOCTYPE svg  PUBLIC '-//W3C//DTD SVG 1.1//EN'  'http://www.w3.org/Graphics/SVG/1.1/DTD/svg11.dtd'><svg style="enable-background:new 0 0 500 500;" version="1.1" viewBox="0 0 500 500" xml:space="preserve" xmlns="http://www.w3.org/2000/svg" xmlns:xlink="http://www.w3.org/1999/xlink"><g id="file-gear"><g><path d="M250,0C111.925,0,0,111.93,0,250c0,138.069,111.925,250,250,250c138.064,0,250-111.931,250-250    C500,111.93,388.064,0,250,0z" style="fill:#F4F1F0;"/><g id="_x32_9"><g><g><path d="M248.698,262.81c-1.031-0.847-1.292-2.29-0.619-3.261l0.369-0.624h-86.035v5.431h88.173       L248.698,262.81z" style="fill:#817B75;"/><path d="M241.016,283.963l0.749-4.98h-79.351v5.425h78.608       C241.016,284.261,240.983,284.114,241.016,283.963z" style="fill:#817B75;"/><path d="M241.895,301.227c-0.26-0.695-0.054-1.46,0.412-2.078c0.038-0.038,0.109-0.06,0.146-0.114       h-80.04v5.426h80.317L241.895,301.227z" style="fill:#817B75;"/><path d="M253.212,319.092h-90.799v5.431h89.171l-0.369-0.52c-0.748-0.885-0.602-2.382,0.337-3.299       L253.212,319.092z" style="fill:#817B75;"/><rect height="5.426" style="fill:#817B75;" width="130.957" x="162.413" y="198.763"/><rect height="5.426" style="fill:#817B75;" width="130.957" x="162.413" y="218.82"/><path d="M162.413,244.298h100.743l-0.325-0.569c-0.201-0.353-0.288-0.738-0.32-1.118       c-0.021-0.233-0.043-0.466,0-0.689c0.098-0.592,0.397-1.123,0.885-1.443l2.023-1.611H162.413V244.298z" style="fill:#817B75;"/></g><path d="M316.814,357.942c-2.686,0-5.171-1.259-6.831-3.347c-1.541,2.729-4.41,4.508-7.562,4.508h-0.7      l-1.112-0.2l-7.481-1.053c-2.751-0.163-5.23-2.029-6.537-4.671H150.825c-3.678-0.012-6.744-3.088-6.749-6.755V153.586      c0.005-3.667,3.071-6.744,6.749-6.754H273.59v22.499c0.026,11.182,9.07,20.226,20.252,20.247h17.996v29.855h0.728l1.101,0.19      l7.275,1.063c1.672,0.168,3.163,0.868,4.395,1.867v-39.725h-0.064c0-1.622-0.521-3.239-1.649-4.497l-38.249-42.741      c-1.302-1.454-3.152-2.197-5.029-2.203v-0.055H150.825c-11.187,0.027-20.226,9.071-20.248,20.253v192.839      c0.022,11.176,9.061,20.22,20.248,20.242h154.264c7.4-0.011,13.791-4.015,17.329-9.935l-3.18,0.847      C318.457,357.823,317.644,357.942,316.814,357.942z" style="fill:#675F58;"/></g><path d="M367.513,291.368l-11.458-3.044c0-0.049,0-0.081-0.011-0.124c-0.044-1.4-0.098-2.778-0.282-4.145     l1.801-0.732l9.18-3.743c1.248-0.516,1.932-1.834,1.547-2.946l-2.078-7.785c-0.223-1.172-1.486-1.97-2.805-1.779l-2.301,0.325     l-9.684,1.34c-0.543-1.198-1.172-2.376-1.812-3.51l8.653-8.057c0.949-0.9,1.129-2.371,0.374-3.277l-1.106-1.524l-3.618-5.007     c-0.477-0.781-1.416-1.123-2.36-0.971c-0.304,0.044-0.592,0.13-0.879,0.282l-11.177,6.131c-0.792-0.717-1.622-1.405-2.468-2.046     l5.3-10.954c0.575-1.21,0.195-2.642-0.841-3.212l-6.754-4.395c-0.749-0.575-1.823-0.51-2.67,0.06     c-0.211,0.141-0.423,0.293-0.607,0.499l-5.057,6.022l-1.063,1.259l-2.474,2.935c-0.038,0.027-0.054,0.054-0.076,0.119     c-0.249-0.092-0.478-0.179-0.748-0.238l0.271-13.319c0.022-1.34-0.922-2.496-2.083-2.556l-4.438-0.651l-3.017-0.439l-0.532-0.076     c-0.136-0.033-0.266,0-0.401,0c-0.423-0.011-0.846,0.07-1.215,0.304c-0.521,0.347-0.955,0.879-1.123,1.568l-2.133,7.709     l-1.41,5.089c-0.781,0.021-1.595,0.054-2.376,0.108c-0.065-0.147-0.108-0.288-0.146-0.434l-2.513-5.718l-0.098-0.233     l-1.009-2.316l-1.747-3.972c-0.228-0.504-0.597-0.879-1.015-1.15c-0.602-0.401-1.318-0.564-1.991-0.32l-7.715,2.306     c-1.15,0.25-1.898,1.519-1.697,2.848l0.949,5.74l0.249,1.53l0.901,5.431l0.011,0.081c-0.836,0.363-1.639,0.732-2.464,1.134     c-0.065-0.06-0.113-0.136-0.195-0.211l-0.998-1.004l-4.942-4.964l-0.461-0.467l-3.027-3.044     c-0.911-0.944-2.409-1.068-3.293-0.282l-4.292,3.326l-2.072,1.611c-0.505,0.32-0.814,0.852-0.917,1.443     c-0.038,0.222-0.017,0.456,0,0.689c0.038,0.38,0.125,0.765,0.331,1.118l0.336,0.569l4.645,7.872l1.183,2.013l0.499,0.847     c-0.737,0.732-1.443,1.514-2.132,2.284c-0.038,0-0.07-0.022-0.104-0.022l-6.857-3.109l-1.654-0.748l-3.673-1.666     c-1.194-0.554-2.632-0.141-3.163,0.917l-0.923,1.497l-0.038,0.06l-2.87,4.683l-0.38,0.624c-0.689,0.971-0.417,2.414,0.635,3.261     l1.937,1.546l4.161,3.331l4.34,3.473c0.038,0.011,0.065,0.043,0.076,0.043c-0.391,1.009-0.781,2.04-1.096,3.108     c-0.049-0.005-0.087-0.032-0.125-0.032l-13.352-0.38c-1.27-0.021-2.376,0.847-2.55,1.975c-0.011,0.049-0.038,0.082-0.044,0.125     l-0.456,2.984l-0.77,4.98c-0.033,0.151,0,0.298,0,0.444c0.021,1.01,0.738,1.986,1.866,2.317l2.539,0.721l1.498,0.424l8.805,2.495     c0.049,0,0.108,0,0.152,0.006c0,0.966,0.049,1.904,0.113,2.826c-0.065,0.017-0.141,0.038-0.179,0.082l-12.375,5.013     c-0.402,0.157-0.69,0.445-0.95,0.743c-0.038,0.055-0.114,0.076-0.146,0.114c-0.477,0.618-0.689,1.383-0.429,2.078l0.863,3.233     l1.204,4.562c0.011,0.043,0.044,0.07,0.055,0.114c0.276,1.09,1.47,1.839,2.745,1.654l12.088-1.654l1.009-0.136     c0.021,0.043,0.049,0.092,0.07,0.136c0.386,0.911,0.83,1.811,1.265,2.686l-0.966,0.922l-6.717,6.348l-1.703,1.611     c-0.966,0.917-1.112,2.414-0.348,3.299l0.38,0.52l4.373,5.968c0.2,0.315,0.499,0.532,0.835,0.694     c0.705,0.358,1.617,0.386,2.426-0.06l0.542-0.298l10.818-5.99c0.689,0.711,1.459,1.39,2.235,2.067l-0.879,1.97l-1.161,2.593     l-3.114,6.944c-0.531,1.227-0.114,2.637,0.949,3.169l6.869,4.189c0.954,0.684,2.419,0.401,3.266-0.63l7.845-9.95     c1.085,0.434,2.148,0.814,3.261,1.167l-0.244,12.668c-0.016,1.329,0.923,2.49,2.105,2.566l6.803,0.971l1.172,0.174     c1.156,0.261,2.388-0.592,2.734-1.866l2.235-8.101l1.129-4.155c0.607,0,1.242-0.011,1.839-0.065l1.904,4.742l0.934,2.316     l0.955,2.35l0.797,2.018c0.516,1.231,1.828,1.932,2.925,1.541l7.573-1.991l0.25-0.065c0.45-0.075,0.824-0.342,1.128-0.678     c0.478-0.543,0.771-1.297,0.662-2.11l-0.662-4.991l-0.602-4.39l-0.304-2.289c0.298-0.108,0.612-0.266,0.905-0.396     c0.804-0.336,1.596-0.678,2.42-1.079l0.299,0.298l8.089,8.29c0.955,0.944,2.447,1.064,3.326,0.282l6.396-4.861     c0.998-0.65,1.258-2.11,0.586-3.255l-5.816-10.016c0.934-0.933,1.845-1.937,2.702-2.93l10.768,4.867     c1.232,0.548,2.643,0.146,3.212-0.923l4.194-6.885c0.684-0.933,0.401-2.403-0.607-3.233l-9.387-7.471     c0.478-1.183,0.928-2.382,1.303-3.618l11.859,0.136c1.352,0.016,2.469-0.961,2.545-2.116l1.079-7.997     C369.635,292.941,368.793,291.721,367.513,291.368z M315.788,254.997l0.173-1.259c3.364,0.841,6.479,2.186,9.375,3.852     c0.348,0.201,0.728,0.342,1.063,0.554c1.823,1.123,3.483,2.446,5.057,3.852c2.989,2.67,5.572,5.746,7.541,9.207l-12.598,5.019     l-1.063,0.423l-0.184,0.071c-1.156-1.628-2.539-3.082-4.091-4.335c-1.596-1.28-3.364-2.355-5.273-3.19     c-0.641-0.282-1.265-0.592-1.932-0.809L315.788,254.997z M281.331,262.999c1.59-1.53,3.343-2.853,5.165-4.074     c3.228-2.159,6.766-3.868,10.558-4.927c3.413-0.965,7.026-1.393,10.704-1.318c0.261,0,0.511-0.037,0.776-0.026l-0.776,5.289     l-1.355,9.37c-3.332,0.087-6.489,0.977-9.349,2.414c-1.405,0.711-2.756,1.508-3.987,2.501l-10.01-7.872L281.331,262.999z      M270.735,296.365c-0.542-2.892-0.65-5.887-0.472-8.92c0.038-0.71,0.006-1.41,0.081-2.121c0.038-0.304,0.044-0.607,0.076-0.917     c0-0.049,0-0.098,0.011-0.146c0.266-1.839,0.738-3.58,1.291-5.278c0.337-1.053,0.684-2.095,1.091-3.109     c0.505-1.258,0.972-2.55,1.611-3.732c0.63-1.177,1.313-2.316,2.061-3.407l11.567,9.099c-0.228,0.358-0.358,0.771-0.564,1.15     c-0.478,0.89-0.966,1.774-1.335,2.739c-0.32,0.847-0.478,1.78-0.699,2.685c-0.158,0.662-0.413,1.28-0.516,1.97     c-0.348,2.392-0.244,4.747,0.162,6.999c0.195,1.09,0.439,2.153,0.781,3.185l-5.295,2.115l-0.922,0.358l-7.466,2.984     c-0.342-0.961-0.521-1.986-0.771-2.984C271.202,298.145,270.898,297.276,270.735,296.365z M298.622,321.083l-0.618,4.297     c-0.868-0.212-1.66-0.569-2.485-0.857c-0.847-0.304-1.736-0.537-2.561-0.89c-1.314-0.575-2.605-1.199-3.841-1.893     c-1.411-0.792-2.724-1.692-3.999-2.648c-0.809-0.602-1.611-1.215-2.371-1.866c-1.601-1.378-3.125-2.843-4.448-4.482     c-0.934-1.155-1.796-2.354-2.577-3.607c-0.07-0.109-0.168-0.212-0.233-0.326l6.337-2.533l4.546-1.817l3.076-1.221     c0.353,0.45,0.814,0.803,1.199,1.221c1.834,2.007,3.928,3.765,6.407,4.996c0.977,0.488,2.002,0.912,3.065,1.254L298.622,321.083z      M297.395,289.432c0-0.418-0.011-0.825,0.049-1.254c0.776-5.267,5.659-8.924,10.911-8.159c1.302,0.189,2.435,0.7,3.482,1.335     c0.314,0.189,0.651,0.336,0.934,0.559c1.313,0.987,2.338,2.3,3.017,3.798c0.705,1.589,0.998,3.38,0.727,5.235     c-0.108,0.868-0.401,1.682-0.727,2.457c-0.679,1.541-1.704,2.876-3.017,3.853c-0.282,0.217-0.63,0.336-0.934,0.51     c-1.232,0.728-2.593,1.253-4.08,1.373c-0.705,0.054-1.421,0.043-2.153-0.055C300.76,298.378,297.331,294.2,297.395,289.432z      M326.399,320.947c-0.342,0.212-0.71,0.385-1.063,0.592c-3.846,2.213-8.083,3.786-12.564,4.497     c-0.185,0.032-0.386,0.032-0.575,0.065c-0.119,0.011-0.239,0-0.358,0.021c-1.725,0.228-3.488,0.342-5.263,0.325     c-0.38,0-0.754,0.033-1.128,0.011l2.017-13.938c0.066-0.249,0.131-0.493,0.174-0.743c1.389-0.027,2.707-0.244,4.037-0.542     c0.054-0.017,0.108-0.033,0.162-0.044c0.314-0.06,0.63-0.114,0.934-0.2c1.041-0.282,2.04-0.668,3.017-1.08     c1.389-0.592,2.745-1.286,3.993-2.165l5.555,4.379l1.063,0.841l5.209,4.102C329.986,318.522,328.228,319.803,326.399,320.947z      M343.512,294.852c-0.879,6.255-3.31,11.903-6.836,16.672l-10.276-8.111l-1.063-0.835l-0.184-0.152     c0.07-0.103,0.119-0.233,0.184-0.336c0.38-0.63,0.706-1.297,1.063-1.942c1.237-2.268,2.235-4.704,2.626-7.4     c0.461-3.185,0.206-6.314-0.618-9.223l13.672-5.453C343.805,283.29,344.379,289.014,343.512,294.852z" style="fill:#FF931E;"/></g></g></g><g id="Layer_1"/></svg>