<?xml version="1.0" ?><!DOCTYPE svg  PUBLIC '-//W3C//DTD SVG 1.1//EN'  'http://www.w3.org/Graphics/SVG/1.1/DTD/svg11.dtd'><svg style="enable-background:new 0 0 500 500;" version="1.1" viewBox="0 0 500 500" xml:space="preserve" xmlns="http://www.w3.org/2000/svg" xmlns:xlink="http://www.w3.org/1999/xlink"><g id="internet-page-content"><g><path d="M250,0C111.925,0,0,111.93,0,250c0,138.069,111.925,250,250,250c138.064,0,250-111.931,250-250    C500,111.93,388.064,0,250,0z" style="fill:#F4F1F0;"/><g id="_x33_4"><g><path d="M362.782,140.077H137.218c-14.41,0.027-26.096,11.708-26.107,26.117v167.622      c0.011,14.404,11.697,26.09,26.107,26.112h225.564c14.398-0.023,26.096-11.708,26.107-26.112V166.194      C388.878,151.785,377.181,140.104,362.782,140.077z M360.004,156.815c3.277,0,5.946,2.658,5.946,5.935      c0,3.277-2.669,5.93-5.946,5.93c-3.276,0-5.935-2.653-5.935-5.93C354.069,159.473,356.727,156.815,360.004,156.815z       M313.357,157.167h29.189c3.092,0,5.577,2.506,5.577,5.583c0,3.082-2.485,5.582-5.577,5.582h-29.189      c-3.093,0-5.588-2.501-5.588-5.582C307.77,159.673,310.265,157.167,313.357,157.167z M374.652,333.816      c-0.021,6.483-5.392,11.865-11.87,11.865H137.218c-6.488,0-11.849-5.382-11.871-11.865V182.938h249.305V333.816z" style="fill:#675F58;"/></g><g><rect height="17.149" style="fill:#FF931E;" width="194.444" x="149.512" y="310.579"/><rect height="25.721" style="fill:#FF931E;" width="194.444" x="149.512" y="202.143"/><rect height="52.777" style="fill:#FF931E;" width="44.444" x="150.825" y="240.527"/></g><g><rect height="5.556" style="fill:#817B75;" width="137.5" x="204.991" y="241.916"/><rect height="5.556" style="fill:#817B75;" width="137.5" x="204.991" y="258.116"/><rect height="5.556" style="fill:#817B75;" width="137.5" x="204.991" y="274.327"/><rect height="5.556" style="fill:#817B75;" width="137.5" x="204.991" y="290.527"/></g></g></g></g><g id="Layer_1"/></svg>