<?xml version="1.0" ?><!DOCTYPE svg  PUBLIC '-//W3C//DTD SVG 1.1//EN'  'http://www.w3.org/Graphics/SVG/1.1/DTD/svg11.dtd'><svg style="enable-background:new 0 0 500 500;" version="1.1" viewBox="0 0 500 500" xml:space="preserve" xmlns="http://www.w3.org/2000/svg" xmlns:xlink="http://www.w3.org/1999/xlink"><g id="smartphone-configuration"><g><circle cx="250" cy="250" r="250" style="fill:#F4F1F0;"/><g id="_x33_7"><g><path d="M284.755,255.713c-0.401,0.212-1.698,1.009-1.698,2.696c0,1.34,0.873,2.268,1.692,2.691      c0.499,0.255,0.939,0.38,1.373,0.38c1.058,0,1.79-0.532,2.214-0.983c0.391-0.407,0.867-1.112,0.867-2.089      c0-0.982-0.477-1.682-0.867-2.094c-0.418-0.445-1.15-0.976-2.214-0.976C285.688,255.339,285.243,255.463,284.755,255.713z" style="fill:#675F58;"/><path d="M292.361,146.593c0-14.92-12.213-27.148-27.148-27.148h-91.916      c-14.944,0-27.151,12.229-27.151,27.148v206.809c0,14.931,12.207,27.154,27.151,27.154h91.916      c14.936,0,27.148-12.224,27.148-27.154v-18.57l-11.258,0.011v18.56H159.343V146.593h121.761v35.384h11.258V146.593z       M202.539,365.104c0-1.845,1.508-3.343,3.337-3.343h26.758c1.831,0,3.339,1.498,3.339,3.343v1.676      c0,1.829-1.508,3.337-3.339,3.337h-26.758c-1.829,0-3.337-1.508-3.337-3.337V365.104z M219.252,140.343      c-1.73,0-3.133-1.421-3.133-3.141c0-1.731,1.403-3.141,3.133-3.141c1.728,0,3.144,1.41,3.144,3.141      C222.396,138.921,220.98,140.343,219.252,140.343z M235.973,128.223c0,0.911-1.508,1.66-3.339,1.66h-26.758      c-1.829,0-3.337-0.749-3.337-1.66v-0.835c0-0.917,1.508-1.682,3.337-1.682h26.758c1.831,0,3.339,0.765,3.339,1.682V128.223z" style="fill:#675F58;"/></g><g><path d="M294.629,228.06c-2.707-0.759-5.566-1.188-8.507-1.188c-1.845,0-3.63,0.19-5.377,0.483      c-6.559,1.128-12.429,4.243-16.943,8.751c-5.707,5.708-9.226,13.596-9.226,22.304c0,8.713,3.519,16.597,9.226,22.304      c4.102,4.091,9.3,7.025,15.115,8.382c2.322,0.537,4.715,0.853,7.205,0.853c2.658,0,5.241-0.364,7.715-0.993      c5.609-1.405,10.617-4.28,14.583-8.241c5.713-5.707,9.245-13.591,9.245-22.304c0-8.708-3.532-16.596-9.245-22.304      C304.645,232.33,299.913,229.546,294.629,228.06z M294.629,266.51c-2.148,2.257-5.159,3.673-8.507,3.673      c-1.953,0-3.766-0.516-5.377-1.362c-3.781-1.958-6.391-5.864-6.391-10.411c0-4.558,2.609-8.469,6.391-10.422      c1.611-0.83,3.424-1.356,5.377-1.356c3.348,0,6.358,1.421,8.507,3.667c2.019,2.116,3.277,4.958,3.277,8.111      C297.906,261.545,296.647,264.394,294.629,266.51z" style="fill:#675F58;"/><path d="M351.996,249.197l-14.246-1.688c-1.356-6.489-3.918-12.527-7.434-17.898l8.887-11.273      c0.646-0.798,0.575-2.046-0.157-2.767l-10.085-10.102c-0.717-0.711-1.965-0.787-2.778-0.152l-11.273,8.887      c-5.371-3.5-11.404-6.066-17.888-7.417l-1.687-14.263c-0.054-0.51-0.32-0.971-0.705-1.308c-0.369-0.331-0.857-0.532-1.367-0.532      h-12.517h-1.763c-1.021,0-1.948,0.83-2.072,1.839l-1.683,14.263c-6.494,1.351-12.532,3.917-17.892,7.417l-11.29-8.887      c-0.792-0.635-2.034-0.559-2.77,0.152l-10.083,10.102c-0.73,0.721-0.816,1.969-0.165,2.767l8.892,11.273      c-3.507,5.371-6.076,11.41-7.433,17.898l-14.247,1.688c-1.02,0.124-1.842,1.052-1.842,2.072v14.274      c0,1.015,0.822,1.953,1.842,2.077l14.247,1.683c1.356,6.488,3.925,12.521,7.433,17.903l-5.797,7.352l-3.095,3.922      c-0.651,0.804-0.564,2.051,0.165,2.767l7.197,7.199l0.135,0.146l2.751,2.74c0.716,0.727,1.978,0.797,2.78,0.157l3.684-2.897      l0.173-0.146l7.422-5.838c3.722,2.436,7.796,4.367,12.099,5.816c0.163,0.049,0.304,0.119,0.456,0.174      c1.747,0.559,3.516,1.058,5.338,1.442l1.683,14.247c0.124,1.021,1.052,1.834,2.072,1.845l14.279-0.011      c1.009,0.011,1.953-0.813,2.072-1.834l1.687-14.247c1.801-0.385,3.575-0.884,5.322-1.442c4.471-1.449,8.708-3.462,12.565-5.99      l7.573,5.974l3.7,2.908c0.814,0.64,2.061,0.569,2.778-0.157l2.75-2.751l7.335-7.335c0.732-0.717,0.804-1.964,0.157-2.767      l-8.887-11.273c3.516-5.382,6.077-11.415,7.434-17.903l14.246-1.683c1.01-0.124,1.855-1.062,1.855-2.077V251.27      C353.852,250.25,353.006,249.322,351.996,249.197z M290.886,296.066c-1.562,0.201-3.152,0.337-4.764,0.337      c-4.732,0-9.234-0.901-13.4-2.48c-14.366-5.426-24.588-19.26-24.588-35.515c0-19.157,14.188-34.95,32.611-37.57      c1.758-0.25,3.538-0.418,5.377-0.418c2.924,0,5.762,0.363,8.507,0.982c16.873,3.879,29.481,18.957,29.481,37.006      C324.11,277.756,309.613,293.712,290.886,296.066z" style="fill:#FF931E;"/></g></g></g></g><g id="Layer_1"/></svg>