<?xml version="1.0" ?><!DOCTYPE svg  PUBLIC '-//W3C//DTD SVG 1.0//EN'  'http://www.w3.org/TR/2001/REC-SVG-20010904/DTD/svg10.dtd'><svg height="110px" style="enable-background:new 0 0 110 110;" version="1.0" viewBox="0 0 110 110" width="110px" xml:space="preserve" xmlns="http://www.w3.org/2000/svg" xmlns:xlink="http://www.w3.org/1999/xlink"><g id="Artboard"/><g id="Multicolor"><g><circle cx="55" cy="55" r="55" style="fill:#E04F5F;"/></g><g><g><path d="M83,76c-0.615-1.333-1.698-2.395-3.043-2.983L68,69H55H42l-11.957,4.017     C28.698,73.605,27.615,74.667,27,76l-4,11h32h32L83,76z" style="fill:#12B2A0;"/></g><g><path d="M55,79.036c3.857,0,13-1,13-7c0-0.676,0-1.789,0-3.072h-3v3.072c0,0-2,4-10,4s-10-4-10-4v-3.072     h-3c0,1.283,0,2.396,0,3.072C42,78.036,51.143,79.036,55,79.036z" style="fill:#C2FCF5;"/></g><g><rect height="3" style="fill:#C2FCF5;" width="11" x="32" y="80.036"/></g><path d="M57.655,68H55h-2.655c-0.856,0-1.671-0.365-2.24-1.005L45,63v9c0,0,2,4,10,4s10-4,10-4v-9    l-5.105,3.995C59.326,67.635,58.511,68,57.655,68z" style="fill:#F7B4B4;"/><path d="M50.105,66.995L45,63v9.036c0,0,2,4,10,4V68h-2.655C51.489,68,50.674,67.635,50.105,66.995z" style="fill:#FBC8C8;"/><path d="M70,45.036c-1,0-1,1.111-1,1.111V45c-0.006-2.843-0.111-5.582-0.661-8H55H41.661    c-0.549,2.418-0.655,5.157-0.661,8v1.147c0,0,0-1.111-1-1.111s-2,1.111-2,2.222c0,3.259,0.961,7.568,3.807,7.76L45,63l5.105,3.995    c0.569,0.64,1.384,1.005,2.24,1.005H55h2.655c0.856,0,1.671-0.365,2.24-1.005L65,63l3.193-7.982    C71.039,54.827,72,50.517,72,47.258C72,46.147,71,45.036,70,45.036z" style="fill:#FBC8C8;"/><path d="M41.661,37c-0.549,2.418-0.655,5.157-0.661,8v1.147c0,0,0-1.111-1-1.111s-2,1.111-2,2.222    c0,3.259,0.961,7.568,3.807,7.76L45,63l5.105,3.995c0.569,0.64,1.384,1.005,2.24,1.005H55V37H41.661z" style="fill:#FBD7D7;"/><g><path d="M52,47.036c0-1.104-0.896-2-2-2c-0.002,0-0.004,0-0.006,0C49.995,45.058,50,45.078,50,45.099     c0,1.103-0.892,1.996-1.994,2c0.033,1.075,0.91,1.938,1.994,1.938C51.104,49.036,52,48.141,52,47.036z" style="fill:#3E3E3F;"/></g><g><path d="M61.994,47.036c0-1.104-0.896-2-2-2c-0.002,0-0.004,0-0.006,0     c0.001,0.021,0.006,0.041,0.006,0.062c0,1.103-0.892,1.996-1.994,2c0.033,1.075,0.91,1.938,1.994,1.938     C61.098,49.036,61.994,48.141,61.994,47.036z" style="fill:#3E3E3F;"/></g><g><path d="M55,51.036c-7,0-5,6-13,6c0,5,7,12,13,12s13-7,13-12C60,57.036,62,51.036,55,51.036z" style="fill:#12B2A0;"/></g><path d="M67,50h2v-1.172c0-1.811,0-2.792,2-3.792V37h-4V50z" style="fill:#84462D;"/><path d="M39,37v8.036c2,1,2,1.981,2,3.792V50h2V37H39z" style="fill:#84462D;"/><g><path d="M71,37H39v-6.25c0-4.28,3.47-7.75,7.75-7.75h16.5c4.28,0,7.75,3.47,7.75,7.75V37z" style="fill:#12B2A0;"/></g><g><path d="M55,23h-8.25C42.47,23,39,26.47,39,30.75V37h16V23z" style="fill:#47C4B7;"/></g><g><path d="M42,57.036c0,5,7,12,13,12v-18C48,51.036,50,57.036,42,57.036z" style="fill:#47C4B7;"/></g><g><rect height="2" style="fill:#C2FCF5;" width="32" x="39" y="37"/></g></g></g></svg>