<?xml version="1.0" ?><!DOCTYPE svg  PUBLIC '-//W3C//DTD SVG 1.0//EN'  'http://www.w3.org/TR/2001/REC-SVG-20010904/DTD/svg10.dtd'><svg height="110px" style="enable-background:new 0 0 110 110;" version="1.0" viewBox="0 0 110 110" width="110px" xml:space="preserve" xmlns="http://www.w3.org/2000/svg" xmlns:xlink="http://www.w3.org/1999/xlink"><g id="Artboard"/><g id="Multicolor"><g><path d="M110,54.976c0,30.362-24.642,56.302-54.976,54.976c-31.69-1.385-55.601-25.265-54.976-54.976    C0.687,24.62,24.662,0,55.024,0S110,24.613,110,54.976z" style="fill:#25B7D3;"/></g><g><path d="M72,58c0-8,0-16,0-16c0-9.389-7.611-17-17-17s-17,7.611-17,17c0,0,0,8,0,16c0,10-9,8-9,8s1,8,14,8    c10.177,0,11.769,0,11.982,0c0.005,0,0.014,0,0.018,0c0.153,0,1.571,0,12,0c13,0,14-8,14-8S72,68,72,58z" style="fill:#84462D;"/><path d="M38,42c0,0,0,8,0,16c0,10-9,8-9,8s1,8,14,8c10.177,0,11.769,0,11.982,0c0.005,0,0.014,0,0.018,0V25    C45.611,25,38,32.611,38,42z" style="fill:#9C6144;"/><path d="M83.409,77.663c-0.889-2.311-2.797-4.08-5.168-4.791L62,69l-7,1l-7-1l-16.241,3.872    c-2.371,0.711-4.279,2.48-5.168,4.791L23,87h32h32L83.409,77.663z" style="fill:#3E3E3F;"/><path d="M55,69v18h2l8-17v-8.567C62.159,65.829,58.284,67.905,55,69z" style="fill:#F7B4B4;"/><path d="M45,61.433V70l8,17h2V69C51.716,67.905,47.841,65.829,45,61.433z" style="fill:#FBC8C8;"/><path d="M70,45c-0.277,0-0.633,0-1,0c0-0.007,0-0.014,0-0.021c-0.004-1.901-0.053-3.754-0.249-5.498    C68.117,41.514,66.242,43,64,43c-1.991,0-3.696-1.172-4.5-2.856C58.696,41.828,56.991,43,55,43s-3.696-1.172-4.5-2.856    C49.696,41.828,47.991,43,46,43c-2.242,0-4.117-1.486-4.751-3.519c-0.195,1.744-0.245,3.597-0.249,5.498c0,0.007,0,0.014,0,0.021    c-0.368,0-0.723,0-1,0c-1,0-2,1.111-2,2.222c0,3.091,0.864,7.13,4.178,7.703C44.62,64.027,50.396,67.465,55,69    c4.604-1.535,10.38-4.973,12.822-14.075C71.136,54.353,72,50.313,72,47.222C72,46.111,71,45,70,45z" style="fill:#FBC8C8;"/><path d="M50.5,40.144C49.696,41.828,47.991,43,46,43c-2.242,0-4.117-1.486-4.751-3.519    c-0.195,1.744-0.245,3.597-0.249,5.498c0,0.007,0,0.014,0,0.021c-0.368,0-0.723,0-1,0c-1,0-2,1.111-2,2.222    c0,3.091,0.864,7.13,4.178,7.703C44.62,64.027,50.396,67.465,55,69V43C53.009,43,51.304,41.828,50.5,40.144z" style="fill:#FBD7D7;"/><g><path d="M50,58h10c0,0,0,3-5,3S50,58,50,58z" style="fill:#F79392;"/></g><g><path d="M45,67c0,1,4.465,15.848,10,20h-3c0,0-10-13-15-13C38,69,45,67,45,67z" style="fill:#FFFFFF;"/></g><g><path d="M65,67c0,1-4.465,15.848-10,20h3c0,0,10-13,15-13C72,69,65,67,65,67z" style="fill:#FFFFFF;"/></g><g><path d="M52.006,46.956c0-1.104-0.896-2-2-2c-0.002,0-0.004,0-0.006,0     c0.001,0.021,0.006,0.041,0.006,0.062c0,1.103-0.892,1.996-1.994,2c0.033,1.075,0.91,1.938,1.994,1.938     C51.111,48.956,52.006,48.06,52.006,46.956z" style="fill:#3E3E3F;"/></g><g><path d="M62,46.956c0-1.104-0.896-2-2-2c-0.002,0-0.004,0-0.006,0C59.995,44.977,60,44.997,60,45.018     c0,1.103-0.892,1.996-1.994,2c0.033,1.075,0.91,1.938,1.994,1.938C61.104,48.956,62,48.06,62,46.956z" style="fill:#3E3E3F;"/></g><g><g><path d="M80,86c0,0.55-0.45,1-1,1H68c-0.55,0-1-0.45-1-1v-7c0-0.55,0.45-1,1-1h11c0.55,0,1,0.45,1,1V86z" style="fill:#FFFFFF;"/></g><g><rect height="5" style="fill:#9CE5F4;" width="4" x="68" y="81"/></g><g><g><path d="M75,79h-3v-1.5c0-0.825,0.675-1.5,1.5-1.5s1.5,0.675,1.5,1.5V79z" style="fill:#9CE5F4;"/></g><g><path d="M80,80H67v-1c0-0.55,0.45-1,1-1h11c0.55,0,1,0.45,1,1V80z" style="fill:#9CE5F4;"/></g></g></g><path d="M58.818,59.97h-7.637c-0.769,0-1.441,0.399-1.83,1H48c-2.075,0-6-1.254-6-6V45h-2.333    C37.089,45,35,47.089,35,49.667s2.089,4.667,4.667,4.667H40v0.636c0,5.87,4.784,8,8,8h1.162c0.324,0.799,1.105,1.364,2.02,1.364    h7.637c1.205,0,2.182-0.977,2.182-2.182C61,60.947,60.023,59.97,58.818,59.97z" style="fill:#3E3E3F;"/></g></g></svg>