<?xml version="1.0" ?><!DOCTYPE svg  PUBLIC '-//W3C//DTD SVG 1.0//EN'  'http://www.w3.org/TR/2001/REC-SVG-20010904/DTD/svg10.dtd'><svg height="110px" style="enable-background:new 0 0 110 110;" version="1.0" viewBox="0 0 110 110" width="110px" xml:space="preserve" xmlns="http://www.w3.org/2000/svg" xmlns:xlink="http://www.w3.org/1999/xlink"><g id="Artboard"/><g id="Multicolor"><circle cx="55" cy="55" r="55" style="fill:#25B7D3;"/><g><g><path d="M84.486,45.962L68,39.254c-1.59-0.636-3.408-0.189-4.522,1.111     c-4.506,10.943-17.358,25.359-26.793,24.603H30c-4.283,0-7,4.577-7,8.86v0.14c0,3.44,1.137,5.752,6.089,7.435     C34.063,83.093,51,82.968,51,82.968h32c2.209,0,4-1.791,4-4v-4v-24v-1.292C87,48.04,86.005,46.57,84.486,45.962z" style="fill:#0484AB;"/></g><g><path d="M68,39.254c-1.59-0.636-3.408-0.189-4.522,1.111c-4.506,10.943-17.358,25.359-26.793,24.603H30     c-4.283,0-7,4.577-7,8.86v0.14c0,3.44,1.137,5.752,6.089,7.435c1.35,0.458,3.583,0.783,6.118,1.013L75.37,42.253L68,39.254z" style="fill:#059BBF;"/></g><g><path d="M87,73.27c-23,0-17.5,3.688-31,3.688c-13.121,0-31.905-3.777-32.95-3.99     c-0.031,0.276-0.05,0.558-0.05,0.85v0.14c0,3.44,1.137,5.752,6.089,7.435C34.063,83.083,51,82.958,51,82.958h32     c2.209,0,4-1.791,4-4V73.27z" style="fill:#DF2C2C;"/></g><g><path d="M87,78.998c0,2.21-1.79,4-4,4H51c0,0-16.94,0.12-21.91-1.57c-2.06-0.7-3.46-1.51-4.39-2.46     c0.1,0.01,0.199,0.026,0.3,0.03c44,1.97,50,0,50,0H87z" style="fill:#E2E4E5;"/></g><g><path d="M23.051,72.968c-0.031,0.276-0.05,0.558-0.05,0.85v0.14c0,3.44,1.137,5.752,6.089,7.435     c1.351,0.459,3.589,0.784,6.128,1.014l6.459-6.458C32.219,74.813,23.743,73.109,23.051,72.968z" style="fill:#FA5655;"/></g><g><path d="M55.667,76.968h2c0-6.48,8.032-13.083,15.917-13.083c5.325,0,10.071-1.369,13.417-3.788v-2.58     c-2.97,2.773-7.819,4.368-13.417,4.368C64.542,61.885,55.667,69.356,55.667,76.968z" style="fill:#21B2D1;"/></g><g><path d="M44.341,61.851c-0.768,0.64-0.945,1.749-0.416,2.596l2.984,4.774     c0.287,0.458,0.746,0.781,1.275,0.895s1.081,0.009,1.53-0.291l11.256-7.504c0.499-0.332,0.822-0.871,0.881-1.467     c0.059-0.596-0.152-1.188-0.576-1.611l-4.983-4.983c-0.731-0.731-1.9-0.784-2.695-0.122L44.341,61.851z" style="fill:#FACB1B;"/></g><g><path d="M87,49.676v7.84c-2.97,2.78-7.82,4.37-13.42,4.37c-2.06,0-4.11,0.39-6.05,1.09     c-6.14-4.53-10.24-10.87-10.66-11.53c2.81-3.63,5.14-7.54,6.6-11.08c1.12-1.3,2.94-1.75,4.53-1.11l16.48,6.71     C86,46.566,87,48.046,87,49.676z" style="fill:#DF2C2C;"/></g><g><path d="M46.909,69.222l-2.984-4.774c-0.227-0.364-0.317-0.775-0.293-1.178     c-2.407,1.221-4.778,1.865-6.963,1.688h-6.68c-2.98,0-5.2,2.21-6.27,5c0.931,0,15.081,6.087,23.503-0.365     C47.105,69.482,46.996,69.361,46.909,69.222z" style="fill:#FA5655;"/></g><g><path d="M56.292,54.26c-0.731-0.731-1.9-0.785-2.695-0.122l-9.257,7.713     c-0.768,0.64-0.945,1.749-0.416,2.597l2.984,4.774c0.192,0.308,0.467,0.547,0.784,0.71l12.136-12.136L56.292,54.26z" style="fill:#FBE158;"/></g><g><path d="M68,39.256l5.97,2.431c-0.18-4.229-1.262-6.75-2.97-6.75c-0.974,0-3.835,3.869-3.986,4.074     C67.347,39.054,67.679,39.127,68,39.256z" style="fill:#FBE158;"/></g><g><path d="M68,39.256c-1.59-0.64-3.41-0.19-4.53,1.11c-1.46,3.54-3.79,7.45-6.6,11.08     c0.24,0.377,1.682,2.606,4.016,5.292l14.482-14.481L68,39.256z" style="fill:#FA5655;"/></g><g><path d="M25,78.998c-0.1-0.005-0.2-0.021-0.3-0.03c0.93,0.95,2.33,1.76,4.39,2.46     c1.391,0.473,3.722,0.804,6.355,1.036l2.946-2.946C34.367,79.388,29.935,79.219,25,78.998z" style="fill:#FFFFFF;"/></g><g><path d="M71.169,55.901c-1.439,2.026-4.248,2.503-6.274,1.064l-7.746-5.5     c-0.901-0.64-1.112-1.888-0.473-2.789l2.895-4.077c0.64-0.901,1.888-1.112,2.789-0.473l7.746,5.5     C72.132,51.065,72.608,53.875,71.169,55.901z" style="fill:#FACB1B;"/></g><g><path d="M62.36,44.126c-0.901-0.64-2.149-0.428-2.789,0.473l-2.895,4.077     c-0.64,0.9-0.428,2.149,0.473,2.789l5.269,3.742l6.455-6.455L62.36,44.126z" style="fill:#FBE158;"/></g></g></g></svg>