<?xml version="1.0" ?><!DOCTYPE svg  PUBLIC '-//W3C//DTD SVG 1.0//EN'  'http://www.w3.org/TR/2001/REC-SVG-20010904/DTD/svg10.dtd'><svg height="110px" style="enable-background:new 0 0 110 110;" version="1.0" viewBox="0 0 110 110" width="110px" xml:space="preserve" xmlns="http://www.w3.org/2000/svg" xmlns:xlink="http://www.w3.org/1999/xlink"><g id="Artboard"/><g id="Multicolor"><g><circle cx="55" cy="55" r="55" style="fill:#32BEA6;"/></g><g><path d="M83.242,77.663c-0.889-2.311-2.797-4.08-5.168-4.791l-13.241-4.875l-9.917,4.961L45,67.997    l-13.241,4.875c-2.371,0.711-4.279,2.48-5.168,4.791L23,87h31.833H55h31.833L83.242,77.663z" style="fill:#FFFFFF;"/><g><polygon points="59,87.022 56,79.022 58,76.024 54.981,73 51.983,75.998 54,79.022 51,87.022    " style="fill:#DF2C2C;"/></g><g><polygon points="55,87.022 55,73.019 54.981,73 51.983,75.998 54,79.022 51,87.022    " style="fill:#FA5655;"/></g><polygon points="66.952,68.777 54.917,86.875 42.882,68.777 33,72.416 33,87 54.833,87 55,87 76.833,87     76.833,72.416   " style="fill:#3E3E3F;"/><path d="M55,69v4l10-5v-6.567C62.159,65.829,58.284,67.905,55,69z" style="fill:#F7B4B4;"/><path d="M45,61.433V68l10,5v-4C51.716,67.905,47.841,65.829,45,61.433z" style="fill:#FBC8C8;"/><path d="M70,45c-0.277,0-0.632,0-1,0h0l-2.155-0.431C62.283,43.657,59,39.652,59,35    c-1.214,3.236-2.591,5.149-4,6.297C52.927,42.986,50.786,43,49,43v-4c-4.761,6.349-6.633,6.125-9.16,6.021    C38.896,45.131,38,46.171,38,47.222c0,3.091,0.864,7.13,4.178,7.703C44.62,64.027,50.396,67.465,55,69    c4.604-1.535,10.38-4.973,12.822-14.075C71.136,54.353,72,50.313,72,47.222C72,46.111,71,45,70,45z" style="fill:#FBC8C8;"/><path d="M49,43v-4c-4.761,6.349-6.633,6.125-9.16,6.021C38.896,45.131,38,46.171,38,47.222    c0,3.091,0.864,7.13,4.178,7.703C44.62,64.027,50.396,67.465,55,69V41.297C52.927,42.986,50.786,43,49,43z" style="fill:#FBD7D7;"/><g><path d="M50,58h10c0,0,0,3-5,3S50,58,50,58z" style="fill:#F79392;"/></g><g><path d="M52.006,47c0-1.104-0.896-2-2-2c-0.002,0-0.004,0-0.006,0c0.001,0.021,0.006,0.041,0.006,0.062     c0,1.103-0.892,1.996-1.994,2C48.046,48.137,48.923,49,50.006,49C51.111,49,52.006,48.104,52.006,47z" style="fill:#3E3E3F;"/></g><g><path d="M62,47c0-1.104-0.896-2-2-2c-0.002,0-0.004,0-0.006,0C59.995,45.021,60,45.042,60,45.063     c0,1.103-0.892,1.996-1.994,2C58.04,48.137,58.917,49,60,49C61.104,49,62,48.104,62,47z" style="fill:#3E3E3F;"/></g><path d="M79,34.75c-3.067-6.134-7.896-6.963-12.236-4.318C63.845,27.678,59.662,26,55,26    c-8.462,0-15.373,5.508-15.944,13H39v6c3,0,4.726,1.032,10-6v4c3,0,7,0,10-8c0,4.652,3.283,8.657,7.845,9.569L69,45    c0.368,0,0.723,0,1,0c1,0,2,1.111,2,2.222c0,2.686-0.655,6.084-3,7.306c0,1.162,0,2.327,0,3.472c0,9,13,9,13,5    C70,64,83,42.75,79,34.75z" style="fill:#84462D;"/><path d="M39.056,39H39v6c3,0,4.726,1.032,10-6v4c1.786,0,3.927-0.014,6-1.703V26    C46.538,26,39.627,31.508,39.056,39z" style="fill:#9C6144;"/></g></g></svg>