<?xml version="1.0" ?><!DOCTYPE svg  PUBLIC '-//W3C//DTD SVG 1.0//EN'  'http://www.w3.org/TR/2001/REC-SVG-20010904/DTD/svg10.dtd'><svg height="110px" style="enable-background:new 0 0 110 110;" version="1.0" viewBox="0 0 110 110" width="110px" xml:space="preserve" xmlns="http://www.w3.org/2000/svg" xmlns:xlink="http://www.w3.org/1999/xlink"><g id="Artboard"/><g id="Multicolor"><circle cx="55" cy="55" r="55" style="fill:#FABC3D;"/><g><g><path d="M25.44,49.62c1.65,1.43,4.14,1.26,5.59-0.37C35.27,44.51,39,46,39,46s-2,4-1,12     c-6.675,3.337-8.475,12.934-8.889,16.024c1.359,1.4,3.388,2.641,5.923,3.673C35.691,64.875,46,63,46,63c3,2,13,2,17,0     c3,7,8.31,5.16,12,7c2.978,1.489,3.184,4.639,3.095,6.152c1.499-0.892,2.699-1.879,3.504-2.952     c0.358-0.477,0.833-0.812,1.353-1.005C82.649,69.172,80.746,64.831,78,63c4.64-10.83-0.02-15.27-7-16.77     c-5.01-1.07-11.2-0.62-16.01,0.08C53.5,46.53,52.14,46.77,51,47c0-10.76-5.737-15.99-13.49-15.99c-3.51,0-6.414,2.198-8.62,4.74     c-2.51,2.88-4.36,6.45-4.87,8.83c-0.35,1.69-0.34,3.42,0.92,4.59C25.09,49.32,25.26,49.47,25.44,49.62z" style="fill:#FFFFFF;"/></g><g><path d="M54.99,46.31C53.5,46.53,52.14,46.77,51,47c0-10.76-5.737-15.99-13.49-15.99     c-3.51,0-6.411,2.195-8.62,4.74C28.8,33.06,29.66,27,39,27C50.61,27,54.73,39.18,54.99,46.31z" style="fill:#84462D;"/></g><g><path d="M73.417,46.912c4.824,1.728,7.791,5.421,5.814,12.602C81.861,63.556,84.813,67,87,67     C87,47.313,82.153,45.07,73.417,46.912z" style="fill:#84462D;"/></g><g><path d="M71,46.23V55c0,2.209-1.791,4-4,4H55c-2.209,0-4-1.791-4-4v-8C55.84,46.03,64.44,44.83,71,46.23z" style="fill:#DF2C2C;"/></g><g><circle cx="33" cy="38" r="2" style="fill:#9C6144;"/></g><g><g><path d="M55,87c-11.481,0-25.76-2.68-31.4-10.2c-0.994-1.325-0.725-3.206,0.601-4.2      c1.324-0.994,3.205-0.726,4.2,0.6C31.899,77.865,42.588,81,55,81s23.101-3.135,26.6-7.8c0.995-1.326,2.877-1.594,4.2-0.6      c1.325,0.994,1.595,2.875,0.601,4.2C80.759,84.32,66.481,87,55,87z" style="fill:#9C6144;"/></g></g><g><path d="M39,27c-9.34,0-10.2,6.06-10.11,8.75c2.209-2.545,5.11-4.74,8.62-4.74     c6.796,0,12.041,4.02,13.233,12.258l3.205-3.205C52.095,33.695,47.608,27,39,27z" style="fill:#9C6144;"/></g><g><path d="M51,47v8c0,1.107,0.451,2.109,1.178,2.833l12.241-12.241C59.425,45.559,54.325,46.333,51,47z" style="fill:#FA5655;"/></g></g></g></svg>