<?xml version="1.0" ?><!DOCTYPE svg  PUBLIC '-//W3C//DTD SVG 1.0//EN'  'http://www.w3.org/TR/2001/REC-SVG-20010904/DTD/svg10.dtd'><svg height="110px" style="enable-background:new 0 0 110 110;" version="1.0" viewBox="0 0 110 110" width="110px" xml:space="preserve" xmlns="http://www.w3.org/2000/svg" xmlns:xlink="http://www.w3.org/1999/xlink"><g id="Artboard"/><g id="Multicolor"><circle cx="55" cy="55" r="55" style="fill:#32BEA6;"/><g><rect height="37" style="fill:#FFFFFF;" width="20" x="63" y="43"/><rect height="37" style="fill:#FFFFFF;" width="20" x="27" y="43"/><rect height="7" style="fill:#F0F1F1;" width="28" x="23" y="80"/><rect height="4" style="fill:#F0F1F1;" width="16" x="29" y="39"/><rect height="6" style="fill:#E2E4E5;" width="12" x="31" y="33"/><polygon points="31,33 37,23 43,33   " style="fill:#F0F1F1;"/><rect height="7" style="fill:#F0F1F1;" width="28" x="59" y="80"/><rect height="4" style="fill:#F0F1F1;" width="16" x="65" y="39"/><rect height="6" style="fill:#E2E4E5;" width="12" x="67" y="33"/><polygon points="67,33 73,23 79,33   " style="fill:#F0F1F1;"/><path d="M47,54v8h16v-8H47z M59,60h-8v-4h8V60z" style="fill:#F0F1F1;"/><rect height="2" style="fill:#40C9E7;" width="14" x="30" y="48"/><rect height="2" style="fill:#40C9E7;" width="14" x="30" y="53"/><rect height="2" style="fill:#40C9E7;" width="14" x="30" y="58"/><rect height="2" style="fill:#40C9E7;" width="14" x="30" y="63"/><rect height="2" style="fill:#40C9E7;" width="14" x="30" y="68"/><rect height="2" style="fill:#40C9E7;" width="14" x="30" y="73"/><rect height="2" style="fill:#40C9E7;" width="14" x="66" y="48"/><rect height="2" style="fill:#40C9E7;" width="14" x="66" y="53"/><rect height="2" style="fill:#40C9E7;" width="14" x="66" y="58"/><rect height="2" style="fill:#40C9E7;" width="14" x="66" y="63"/><rect height="2" style="fill:#40C9E7;" width="14" x="66" y="68"/><rect height="2" style="fill:#40C9E7;" width="14" x="66" y="73"/><polygon points="37,23 31,33 37,33   " style="fill:#FFFFFF;"/><polygon points="73,23 67,33 73,33   " style="fill:#FFFFFF;"/></g></g></svg>