<?xml version="1.0" ?><!DOCTYPE svg  PUBLIC '-//W3C//DTD SVG 1.0//EN'  'http://www.w3.org/TR/2001/REC-SVG-20010904/DTD/svg10.dtd'><svg height="110px" style="enable-background:new 0 0 110 110;" version="1.0" viewBox="0 0 110 110" width="110px" xml:space="preserve" xmlns="http://www.w3.org/2000/svg" xmlns:xlink="http://www.w3.org/1999/xlink"><g id="Artboard"/><g id="Multicolor"><circle cx="55" cy="55" r="55" style="fill:#25B7D3;"/><g><g><path d="M57.645,49.979C56.939,50.607,56.019,51,55,51s-1.939-0.393-2.645-1.021L47,83h16L57.645,49.979z" style="fill:#E2E4E5;"/></g><g><path d="M55,51c-1.019,0-1.939-0.393-2.645-1.021L47,83h8V51z" style="fill:#FFFFFF;"/></g><g><path d="M58.998,47c2.086-8.035-0.053-20.028-3.582-23.274c-0.36-0.331-0.821-0.525-1.288-0.381     s-0.802,0.554-0.849,1.041L51.077,47H58.998z" style="fill:#FFFFFF;"/></g><g><path d="M53.071,50.502c6.031,5.704,17.568,9.617,22.114,8.091c0.463-0.155,0.856-0.466,0.955-0.944     c0.099-0.478-0.099-0.97-0.502-1.246l-18.745-12.84L53.071,50.502z" style="fill:#FFFFFF;"/></g><g><path d="M52.863,43.621c-7.906,2.531-16.899,10.748-17.757,15.466c-0.087,0.481-0.005,0.975,0.366,1.292     c0.371,0.318,0.897,0.381,1.333,0.161l20.291-10.224L52.863,43.621z" style="fill:#FFFFFF;"/></g><g><path d="M71,87H39c0-2.209,1.791-4,4-4h24C69.209,83,71,84.791,71,87z" style="fill:#FFFFFF;"/></g><g><path d="M45.2,36.838c0,2.303-1.859,4.162-4.163,4.162H27.163C24.859,41,23,39.141,23,36.838     c0-2.843,2.775-4.149,4.301-4.149c0.638-3.177,3.441-5.564,6.799-5.564c3.358,0,6.161,2.386,6.799,5.564     C42.425,32.689,45.2,33.996,45.2,36.838z" style="fill:#F0F1F1;"/></g><g><path d="M87,42.838C87,45.141,85.141,47,82.837,47H68.962c-2.303,0-4.162-1.859-4.162-4.162     c0-2.843,2.775-4.149,4.301-4.149c0.638-3.177,3.441-5.564,6.799-5.564c3.358,0,6.16,2.386,6.799,5.564     C84.225,38.689,87,39.996,87,42.838z" style="fill:#F0F1F1;"/></g><g><path d="M34.1,27.125c-3.358,0-6.161,2.386-6.799,5.564c-1.526,0-4.301,1.305-4.301,4.148     c0,2.26,1.793,4.082,4.037,4.15l11.881-11.881C37.669,27.89,35.98,27.125,34.1,27.125z" style="fill:#FFFFFF;"/></g><g><path d="M75.9,33.138c-3.358,0-6.161,2.386-6.799,5.564c-1.526,0-4.301,1.305-4.301,4.148     c0,2.26,1.793,4.082,4.037,4.15l11.881-11.881C79.469,33.903,77.78,33.138,75.9,33.138z" style="fill:#FFFFFF;"/></g><g><circle cx="55" cy="47" r="4" style="fill:#5B5C5F;"/></g><g><path d="M55,43c-2.209,0-4,1.791-4,4c0,1.111,0.454,2.115,1.185,2.839l5.654-5.654     C57.115,43.454,56.111,43,55,43z" style="fill:#9E9FA0;"/></g></g></g></svg>