<?xml version="1.0" ?><!DOCTYPE svg  PUBLIC '-//W3C//DTD SVG 1.0//EN'  'http://www.w3.org/TR/2001/REC-SVG-20010904/DTD/svg10.dtd'><svg height="110px" style="enable-background:new 0 0 110 110;" version="1.0" viewBox="0 0 110 110" width="110px" xml:space="preserve" xmlns="http://www.w3.org/2000/svg" xmlns:xlink="http://www.w3.org/1999/xlink"><g id="Artboard"/><g id="Multicolor"><circle cx="55" cy="54.98" r="55" style="fill:#E04F5F;"/><g><rect height="18" style="fill:#4AC3AF;" width="64" x="23" y="68.982"/><polygon points="23,68.982 31,52.982 79,52.982 87,68.982   " style="fill:#8CE3D4;"/><polygon points="28,66.982 34,54.982 76,54.982 82,66.982   " style="fill:#0D9681;"/><circle cx="71" cy="60.982" r="1" style="fill:#C2F8F0;"/><circle cx="39" cy="60.982" r="1" style="fill:#C2F8F0;"/><ellipse cx="55" cy="60.982" rx="6" ry="5" style="fill:#C2F8F0;"/><g><path d="M54.96,57.501c0.272,0,0.488,0.18,0.488,0.407v0.109c0.507,0.062,0.957,0.188,1.361,0.376     c0.178,0.086,0.338,0.235,0.338,0.47c0,0.297-0.281,0.524-0.638,0.524c-0.113,0-0.225-0.023-0.328-0.071     c-0.263-0.117-0.525-0.211-0.779-0.266v1.19c1.426,0.321,2.036,0.806,2.036,1.683c0,0.876-0.807,1.44-1.99,1.55v0.415     c0,0.227-0.216,0.407-0.488,0.407c-0.272,0-0.488-0.18-0.488-0.407v-0.423c-0.667-0.07-1.295-0.266-1.849-0.548     c-0.197-0.102-0.319-0.258-0.319-0.47c0-0.305,0.282-0.532,0.648-0.532c0.122,0,0.253,0.039,0.366,0.102     c0.394,0.211,0.77,0.36,1.201,0.438v-1.245c-1.351-0.305-2.018-0.736-2.018-1.667c0-0.861,0.788-1.44,1.971-1.542v-0.094     C54.473,57.681,54.688,57.501,54.96,57.501z M54.52,60.037v-1.057c-0.45,0.055-0.647,0.243-0.647,0.493     C53.872,59.716,54.003,59.881,54.52,60.037z M55.402,61.407v1.088c0.441-0.055,0.666-0.227,0.666-0.509     C56.068,61.728,55.908,61.556,55.402,61.407z" style="fill:#17B198;"/></g><rect height="2" style="fill:#C2F8F0;" width="64" x="23" y="70.982"/><rect height="2" style="fill:#C2F8F0;" width="64" x="23" y="74.982"/><rect height="2" style="fill:#C2F8F0;" width="64" x="23" y="78.982"/><rect height="2" style="fill:#C2F8F0;" width="64" x="23" y="82.982"/><polygon points="23,70.982 44.527,70.982 46.527,68.982 23,68.982   " style="fill:#8CE3D4;"/><polygon points="23,74.982 40.527,74.982 42.527,72.982 23,72.982   " style="fill:#8CE3D4;"/><polygon points="23,84.982 23,86.982 28.527,86.982 30.527,84.982   " style="fill:#8CE3D4;"/><polygon points="23,78.982 36.527,78.982 38.527,76.982 23,76.982   " style="fill:#8CE3D4;"/><polygon points="23,82.982 32.527,82.982 34.527,80.982 23,80.982   " style="fill:#8CE3D4;"/><polygon points="23,68.982 46.527,68.982 48.527,66.982 28,66.982 34,54.982 60.527,54.982 62.527,52.982     31,52.982   " style="fill:#C2F8F0;"/><path d="M49,60.982c0-2.761,2.686-5,6-5c1.331,0,2.556,0.365,3.551,0.976l1.976-1.976H34l-6,12h20.527    l2.364-2.364C49.729,63.706,49,62.416,49,60.982z M39,61.982c-0.552,0-1-0.448-1-1s0.448-1,1-1s1,0.448,1,1    S39.552,61.982,39,61.982z" style="fill:#17B198;"/><circle cx="39" cy="60.982" r="1" style="fill:#FFFFFF;"/><path d="M49,60.982c0,1.435,0.729,2.725,1.891,3.636l1.715-1.715c-0.184-0.102-0.301-0.251-0.301-0.455    c0-0.305,0.282-0.532,0.648-0.532c0.122,0,0.253,0.039,0.366,0.102c0.04,0.021,0.079,0.034,0.118,0.054l0.906-0.906    c-1.227-0.303-1.84-0.734-1.84-1.622c0-0.861,0.788-1.44,1.971-1.542v-0.094c0-0.227,0.216-0.407,0.488-0.407    c0.272,0,0.488,0.18,0.488,0.407v0.109c0.507,0.062,0.957,0.188,1.361,0.376c0.066,0.032,0.126,0.076,0.18,0.126l1.562-1.562    c-0.995-0.611-2.22-0.976-3.551-0.976C51.686,55.982,49,58.22,49,60.982z" style="fill:#FFFFFF;"/><path d="M55.402,59.051v1.056l0.788-0.788c-0.003-0.001-0.006-0.001-0.009-0.002    C55.918,59.2,55.655,59.106,55.402,59.051z" style="fill:#FFFFFF;"/><path d="M53.872,59.474c0,0.243,0.131,0.407,0.647,0.563v-1.057C54.069,59.035,53.872,59.223,53.872,59.474    z" style="fill:#FFFFFF;"/><polygon points="23,72.982 42.527,72.982 44.527,70.982 23,70.982   " style="fill:#FFFFFF;"/><polygon points="23,76.982 38.527,76.982 40.527,74.982 23,74.982   " style="fill:#FFFFFF;"/><polygon points="23,80.982 34.527,80.982 36.527,78.982 23,78.982   " style="fill:#FFFFFF;"/><polygon points="23,84.982 30.527,84.982 32.527,82.982 23,82.982   " style="fill:#FFFFFF;"/><polygon points="69.663,28.626 73.888,32.851 65,41.739 55,31.739 33.758,52.982 42.242,52.982 55,40.224     65,50.224 78.13,37.094 82.356,41.319 87,23.982   " style="fill:#FBE158;"/></g></g></svg>