<?xml version="1.0" ?><!DOCTYPE svg  PUBLIC '-//W3C//DTD SVG 1.0//EN'  'http://www.w3.org/TR/2001/REC-SVG-20010904/DTD/svg10.dtd'><svg height="110px" style="enable-background:new 0 0 110 110;" version="1.0" viewBox="0 0 110 110" width="110px" xml:space="preserve" xmlns="http://www.w3.org/2000/svg" xmlns:xlink="http://www.w3.org/1999/xlink"><g id="Artboard"/><g id="Multicolor"><circle cx="55" cy="55" r="55" style="fill:#E04F5F;"/><g><path d="M77.004,23l-6.364,6.364c-0.705,0.705-0.768,1.802-0.2,2.584l-15.612,7.571l-2.791,17.009    l1.338,1.338l17.009-2.791l7.571-15.612c0.782,0.568,1.879,0.505,2.584-0.2l6.364-6.364L77.004,23z" style="fill:#3E3E3F;"/><path d="M70.44,31.948l-15.612,7.571l-2.791,17.009l1.338,1.338l17.009-2.791l7.571-15.612    C77.871,39.402,70.501,32.032,70.44,31.948z" style="fill:#FACB1B;"/><path d="M44,76.917v-14h-2v14c-2.279,0.464-4,2.484-4,4.899c0,2.757,2.243,5,5,5s5-2.243,5-5    C48,79.401,46.279,77.381,44,76.917z" style="fill:#3E3E3F;"/><path d="M42,32.917v23h2v-23c2.279-0.464,4-2.484,4-4.899c0-2.757-2.243-5-5-5s-5,2.243-5,5    C38,30.432,39.721,32.452,42,32.917z" style="fill:#3E3E3F;"/><path d="M79,79v2.918c-14.826-0.548-25.499-4.185-30.981-10.62c-2.512-2.949-3.516-5.995-3.895-8.299H47v-8    h-3.137C42.826,39.086,35.654,33.713,31,31.912V28h-8v8h8v-1.948c4.076,1.844,9.921,6.937,10.862,20.948H39v8h3.084    c0.376,2.613,1.468,6.12,4.375,9.551C52.399,79.563,63.344,83.377,79,83.924V87h8v-8H79z" style="fill:#FFFFFF;"/><path d="M70.44,31.948l-15.612,7.571l-2.791,17.009l0.715,0.716L74.235,35.76    C72.359,33.885,70.471,31.99,70.44,31.948z" style="fill:#FBE158;"/><path d="M74.235,35.76L82,27.996L77.004,23l-6.364,6.364c-0.705,0.705-0.768,1.802-0.2,2.584    C70.471,31.99,72.359,33.885,74.235,35.76z" style="fill:#5B5C5F;"/></g></g></svg>