<?xml version="1.0" ?><!DOCTYPE svg  PUBLIC '-//W3C//DTD SVG 1.0//EN'  'http://www.w3.org/TR/2001/REC-SVG-20010904/DTD/svg10.dtd'><svg height="110px" style="enable-background:new 0 0 110 110;" version="1.0" viewBox="0 0 110 110" width="110px" xml:space="preserve" xmlns="http://www.w3.org/2000/svg" xmlns:xlink="http://www.w3.org/1999/xlink"><g id="Artboard"/><g id="Multicolor"><circle cx="55" cy="55" r="55" style="fill:#32BEA6;"/><g><path d="M87,29c0-2.209-1.791-4-4-4H27c-2.209,0-4,1.791-4,4v52c0,2.209,1.791,4,4,4h56    c2.209,0,4-1.791,4-4V29z" style="fill:#F0F1F1;"/><path d="M83,25H27c-2.209,0-4,1.791-4,4v52c0,1.219,0.557,2.297,1.417,3.031l58.99-58.99    C83.271,25.027,83.139,25,83,25z" style="fill:#FFFFFF;"/><rect height="4" style="fill:#17B198;" width="12" x="49" y="73"/><rect height="4" style="fill:#17B198;" width="12" x="49" y="65"/><rect height="4" style="fill:#F3B607;" width="12" x="49" y="57"/><rect height="4" style="fill:#17B198;" width="12" x="33" y="73"/><rect height="4" style="fill:#17B198;" width="12" x="33" y="65"/><rect height="4" style="fill:#F3B607;" width="12" x="33" y="57"/><rect height="4" style="fill:#F37A10;" width="12" x="33" y="49"/><rect height="4" style="fill:#17B198;" width="12" x="65" y="73"/><rect height="4" style="fill:#17B198;" width="12" x="65" y="65"/><rect height="4" style="fill:#F3B607;" width="12" x="65" y="57"/><rect height="4" style="fill:#F37A10;" width="12" x="49" y="49"/><rect height="4" style="fill:#FA5655;" width="12" x="49" y="41"/><rect height="4" style="fill:#DF2C2C;" width="12" x="49" y="33"/></g></g></svg>