<?xml version="1.0" ?><!DOCTYPE svg  PUBLIC '-//W3C//DTD SVG 1.0//EN'  'http://www.w3.org/TR/2001/REC-SVG-20010904/DTD/svg10.dtd'><svg height="110px" style="enable-background:new 0 0 110 110;" version="1.0" viewBox="0 0 110 110" width="110px" xml:space="preserve" xmlns="http://www.w3.org/2000/svg" xmlns:xlink="http://www.w3.org/1999/xlink"><g id="Artboard"/><g id="Multicolor"><circle cx="55" cy="55" r="55" style="fill:#25B7D3;"/><g><path d="M79,39c0-2.209-1.791-4-4-4H35c-2.209,0-4,1.791-4,4v12h48V39z" style="fill:#CFD3D4;"/><path d="M75,35H35c-2.209,0-4,1.791-4,4v12h29.744l15.716-15.716C76.006,35.106,75.517,35,75,35z" style="fill:#F0F1F1;"/><rect height="12" style="fill:#818284;" width="64" x="23" y="75"/><polygon points="31,51 79,51 87,71 23,71   " style="fill:#F0F1F1;"/><polygon points="31,51 23,71 40.744,71 60.744,51   " style="fill:#FFFFFF;"/><polygon points="35,43 35,27 39,31 43,27 47,31 51,27 51,43   " style="fill:#FFFFFF;"/><rect height="4" style="fill:#CFD3D4;" width="64" x="23" y="71"/><rect height="8" style="fill:#17B198;" width="20" x="55" y="39"/><polygon points="72.744,39 55,39 55,47 64.744,47   " style="fill:#4AC3AF;"/><rect height="3" style="fill:#818284;" width="4" x="69" y="32"/><path d="M83,24c0-0.552-0.448-1-1-1H60c-0.552,0-1,0.448-1,1v7c0,0.552,0.448,1,1,1h22c0.552,0,1-0.448,1-1    V24z" style="fill:#3E3E3F;"/><rect height="2" style="fill:#CFD3D4;" width="18" x="34" y="43"/><path d="M47,35.5c0,0.275-0.225,0.5-0.5,0.5h-7c-0.275,0-0.5-0.225-0.5-0.5l0,0c0-0.275,0.225-0.5,0.5-0.5    h7C46.775,35,47,35.225,47,35.5L47,35.5z" style="fill:#CFD3D4;"/><path d="M47,39.5c0,0.275-0.225,0.5-0.5,0.5h-7c-0.275,0-0.5-0.225-0.5-0.5l0,0c0-0.275,0.225-0.5,0.5-0.5    h7C46.775,39,47,39.225,47,39.5L47,39.5z" style="fill:#CFD3D4;"/><circle cx="55" cy="81" r="2" style="fill:#CFD3D4;"/><circle cx="35" cy="57" r="2" style="fill:#CFD3D4;"/><circle cx="43" cy="57" r="2" style="fill:#CFD3D4;"/><circle cx="51" cy="57" r="2" style="fill:#CFD3D4;"/><circle cx="33" cy="65" r="2" style="fill:#CFD3D4;"/><circle cx="41" cy="65" r="2" style="fill:#CFD3D4;"/><circle cx="49" cy="65" r="2" style="fill:#B6BCBD;"/><circle cx="61" cy="65" r="2" style="fill:#B6BCBD;"/><circle cx="69" cy="65" r="2" style="fill:#B6BCBD;"/><circle cx="77" cy="65" r="2" style="fill:#17B198;"/><circle cx="59" cy="57" r="2" style="fill:#B6BCBD;"/><circle cx="67" cy="57" r="2" style="fill:#B6BCBD;"/><circle cx="75" cy="57" r="2" style="fill:#FA5655;"/><path d="M74.272,23H60c-0.552,0-1,0.448-1,1v7c0,0.552,0.448,1,1,1h5.272L74.272,23z" style="fill:#5B5C5F;"/></g></g></svg>