<?xml version="1.0" ?><!DOCTYPE svg  PUBLIC '-//W3C//DTD SVG 1.0//EN'  'http://www.w3.org/TR/2001/REC-SVG-20010904/DTD/svg10.dtd'><svg height="110px" style="enable-background:new 0 0 110 110;" version="1.0" viewBox="0 0 110 110" width="110px" xml:space="preserve" xmlns="http://www.w3.org/2000/svg" xmlns:xlink="http://www.w3.org/1999/xlink"><g id="Artboard"/><g id="Multicolor"><g><circle cx="55" cy="55" r="55" style="fill:#E04F5F;"/></g><g><path d="M70,45c-0.277,0-0.633,0-1,0c0-0.007,0-0.014,0-0.021c-0.005-2.565-0.092-5.044-0.51-7.281L55,35    l-13.49,2.698c-0.418,2.237-0.505,4.716-0.51,7.281c0,0.007,0,0.014,0,0.021c-0.368,0-0.723,0-1,0c-1,0-2,1.111-2,2.222    c0,3.091,0.864,7.13,4.178,7.703C44.62,64.027,50.396,67.465,55,69c4.604-1.535,10.38-4.973,12.822-14.075    C71.136,54.353,72,50.313,72,47.222C72,46.111,71,45,70,45z" style="fill:#FBC8C8;"/><g><path d="M55,70H45l-13.241,2.872c-2.371,0.711-4.279,2.48-5.168,4.791L23,87h32V70z" style="fill:#FFFFFF;"/></g><g><path d="M55,70h10l13.241,2.872c2.371,0.711,4.279,2.48,5.168,4.791L87,87H55V70z" style="fill:#FFFFFF;"/></g><g><polygon points="45,70 45,67 41,68 35,75 42,75 39,81 48,87 53,87    " style="fill:#F1F2F2;"/></g><g><polygon points="65,70 65,67 69,68 75,75 68,75 71,81 62,87 57,87    " style="fill:#F1F2F2;"/></g><g><g><rect height="2" style="fill:#E2E4E5;" width="11" x="28" y="83"/></g><g><rect height="3" style="fill:#DF2C2C;" width="3" x="30" y="80"/></g><g><path d="M33,80h-3v-0.5c0-0.825,0.675-1.5,1.5-1.5s1.5,0.675,1.5,1.5V80z" style="fill:#FA5655;"/></g><g><rect height="2" style="fill:#F37A10;" width="3" x="34" y="81"/></g><g><path d="M37,81h-3v-0.5c0-0.825,0.675-1.5,1.5-1.5c0.825,0,1.5,0.675,1.5,1.5V81z" style="fill:#F3B607;"/></g></g><path d="M45,61.433V70l8,17h2V69C51.716,67.905,47.841,65.829,45,61.433z" style="fill:#FBC8C8;"/><path d="M55,69v18h2l8-17v-8.567C62.159,65.829,58.284,67.905,55,69z" style="fill:#F7B4B4;"/><path d="M55,35l-13.49,2.698c-0.418,2.237-0.505,4.716-0.51,7.281c0,0.007,0,0.014,0,0.021    c-0.368,0-0.723,0-1,0c-1,0-2,1.111-2,2.222c0,3.091,0.864,7.13,4.178,7.703C44.62,64.027,50.396,67.465,55,69V35L55,35z" style="fill:#FBD7D7;"/><g><path d="M50,58h10c0,0,0,3-5,3S50,58,50,58z" style="fill:#F79392;"/></g><g><path d="M51.994,47c0-1.104-0.896-2-2-2c-0.002,0-0.004,0-0.006,0c0.001,0.021,0.006,0.041,0.006,0.062     c0,1.103-0.892,1.996-1.994,2C48.033,48.137,48.91,49,49.994,49C51.098,49,51.994,48.104,51.994,47z" style="fill:#3E3E3F;"/></g><g><path d="M61.987,47c0-1.104-0.896-2-2-2c-0.002,0-0.004,0-0.006,0c0.001,0.021,0.006,0.041,0.006,0.062     c0,1.103-0.892,1.996-1.994,2C58.027,48.137,58.904,49,59.987,49C61.092,49,61.987,48.104,61.987,47z" style="fill:#3E3E3F;"/></g><g><path d="M41,45l-1-7l15-3C55,35,52,42.979,41,45z" style="fill:#3E3E3F;"/></g><g><path d="M69,45l1-7l-15-3C55,35,58,42.979,69,45z" style="fill:#3E3E3F;"/></g><g><polygon points="55,23 39,29 40,38 55,35 70,38 71,29    " style="fill:#FFFFFF;"/></g><g><g><rect height="8" style="fill:#FA5655;" width="2" x="54" y="26"/></g><g><rect height="2" style="fill:#FA5655;" width="8" x="51" y="29"/></g></g></g></g></svg>