<?xml version="1.0" ?><!DOCTYPE svg  PUBLIC '-//W3C//DTD SVG 1.0//EN'  'http://www.w3.org/TR/2001/REC-SVG-20010904/DTD/svg10.dtd'><svg height="110px" style="enable-background:new 0 0 110 110;" version="1.0" viewBox="0 0 110 110" width="110px" xml:space="preserve" xmlns="http://www.w3.org/2000/svg" xmlns:xlink="http://www.w3.org/1999/xlink"><g id="Artboard"/><g id="Multicolor"><circle cx="55" cy="55" r="55" style="fill:#FABC3D;"/><g><path d="M59,81c0,3.314-2.686,6-6,6H29c-3.314,0-6-2.686-6-6V29c0-3.314,2.686-6,6-6h24    c3.314,0,6,2.686,6,6V81z" style="fill:#FFFFFF;"/><rect height="40" style="fill:#3E3E3F;" width="32" x="25" y="35"/><circle cx="34" cy="30" r="1" style="fill:#CFD3D4;"/><path d="M49,30c0,0.552-0.448,1-1,1H38c-0.552,0-1-0.448-1-1s0.448-1,1-1h10C48.552,29,49,29.448,49,30z" style="fill:#CFD3D4;"/><circle cx="41" cy="81" r="4" style="fill:#CFD3D4;"/><rect height="4" style="fill:#FFFFFF;" width="4" x="39" y="79"/><polygon points="57,39.676 57,35 25,35 25,71.676   " style="fill:#5B5C5F;"/><path d="M67,27c-11.046,0-20,6.321-20,14.118c0,3.817,2.155,7.274,5.642,9.814L48,63l12.103-8.645    c2.153,0.559,4.47,0.88,6.897,0.88c11.046,0,20-6.321,20-14.118S78.046,27,67,27z" style="fill:#F0F1F1;"/><path d="M67,27c-11.046,0-20,6.321-20,14.118c0,3.817,2.155,7.274,5.642,9.814L48,63l0.431-0.308    l32.008-32.008C76.887,28.403,72.181,27,67,27z" style="fill:#FFFFFF;"/><circle cx="59" cy="41" r="2" style="fill:#21B2D1;"/><circle cx="67" cy="41" r="2" style="fill:#21B2D1;"/><circle cx="75" cy="41" r="2" style="fill:#21B2D1;"/></g></g></svg>