<?xml version="1.0" ?><!DOCTYPE svg  PUBLIC '-//W3C//DTD SVG 1.0//EN'  'http://www.w3.org/TR/2001/REC-SVG-20010904/DTD/svg10.dtd'><svg height="110px" style="enable-background:new 0 0 110 110;" version="1.0" viewBox="0 0 110 110" width="110px" xml:space="preserve" xmlns="http://www.w3.org/2000/svg" xmlns:xlink="http://www.w3.org/1999/xlink"><g id="Artboard"/><g id="Multicolor"><circle cx="55" cy="55" r="55" style="fill:#FABC3D;"/><g><rect height="35" style="fill:#6FDAF1;" width="28" x="41" y="43"/><polygon points="41,76.381 69,48.381 69,43 41,43   " style="fill:#9CE5F4;"/><path d="M33,33.671V39v8.444V83h44V47.444V39v-5.329C64.807,25.958,45.193,25.958,33,33.671z M48,78h-7V68    h7V78z M48,66h-7V56h7V66z M48,54h-7V43h7V54z M60,78H50V68h10V78z M60,66H50V56h10V66z M60,54H50V43h10V54z M69,78h-7V68h7V78z     M69,66h-7V56h7V66z M69,54h-7V43h7V54z" style="fill:#DF2C2C;"/><path d="M31.429,29.826C31.161,30.013,31,30.32,31,30.647v2.457c0,0.368,0.202,0.706,0.526,0.88    c0.324,0.174,0.717,0.156,1.024-0.046c12.3-8.089,32.6-8.089,44.901,0c0.307,0.202,0.7,0.219,1.024,0.045    C78.798,33.809,79,33.471,79,33.104v-2.457c0-0.327-0.16-0.634-0.429-0.821C65.524,20.725,44.476,20.725,31.429,29.826z" style="fill:#BF0302;"/><rect height="7" style="fill:#FFFFFF;" width="28" x="41" y="33"/><g><path d="M44.879,34.419h1.831c1.119,0,1.675,0.809,1.675,1.617c0,0.815-0.562,1.624-1.669,1.624h-0.679V39     h-1.158V34.419z M46.71,36.632c0.699,0.007,0.699-1.139,0-1.132h-0.673v1.132H46.71z" style="fill:#3E3E3F;"/><path d="M50.043,39h-1.165v-4.581h1.165v1.734h1.32v-1.734h1.165V39h-1.165v-1.728h-1.32V39z" style="fill:#3E3E3F;"/><path d="M53.144,35.927c0-1.054,0.944-1.572,1.896-1.572s1.902,0.524,1.902,1.572v1.566     c0,1.048-0.945,1.572-1.896,1.572c-0.951,0-1.902-0.524-1.902-1.572V35.927z M54.302,37.493c0,0.336,0.375,0.498,0.744,0.498     s0.738-0.168,0.738-0.498v-1.566c0-0.356-0.382-0.518-0.757-0.518c-0.362,0-0.725,0.181-0.725,0.518V37.493z" style="fill:#3E3E3F;"/><path d="M57.557,34.419h1.1l1.106,1.954l0.388,0.919l0.033-0.006c-0.007,0-0.123-0.79-0.13-0.79v-2.077     h1.152V39h-1.171L59,37.195l-0.401-0.918l-0.032,0.006l0.149,0.886V39h-1.158V34.419z" style="fill:#3E3E3F;"/><path d="M63.102,36.218h1.857v1.003h-1.857v0.686h2.019V39h-3.189v-4.581h3.189v1.087h-2.019V36.218z" style="fill:#3E3E3F;"/></g><path d="M79,87H31v-2c0-1.105,0.895-2,2-2h44c1.105,0,2,0.895,2,2V87z" style="fill:#3E3E3F;"/></g></g></svg>