<?xml version="1.0" ?><!DOCTYPE svg  PUBLIC '-//W3C//DTD SVG 1.0//EN'  'http://www.w3.org/TR/2001/REC-SVG-20010904/DTD/svg10.dtd'><svg height="110px" style="enable-background:new 0 0 110 110;" version="1.0" viewBox="0 0 110 110" width="110px" xml:space="preserve" xmlns="http://www.w3.org/2000/svg" xmlns:xlink="http://www.w3.org/1999/xlink"><g id="Artboard"/><g id="Multicolor"><circle cx="55" cy="55" r="55" style="fill:#FABC3D;"/><g><g><polygon points="87,55 23,55 23,87 27,87 31,79 79,79 83,87 87,87    " style="fill:#FFFFFF;"/></g><g><rect height="10" style="fill:#6FDAF1;" width="26" x="57" y="60"/></g><g><rect height="10" style="fill:#6FDAF1;" width="26" x="27" y="60"/></g><g><path d="M74,23H36c-0.552,0-1,0.448-1,1v24c0,0.552,0.448,1,1,1h17v3H41c-1.104,0-2,0.896-2,2v1h32v-1     c0-1.104-0.896-2-2-2H57v-3h17c0.552,0,1-0.448,1-1V24C75,23.448,74.552,23,74,23z" style="fill:#3E3E3F;"/></g><g><rect height="20" style="fill:#21B2D1;" width="36" x="37" y="25"/></g><g><polygon points="37,25 37,45 42.584,45 62.584,25    " style="fill:#40C9E7;"/></g><g><polygon points="27,70 32,70 42,60 27,60    " style="fill:#9CE5F4;"/></g></g></g></svg>