<?xml version="1.0" ?><!DOCTYPE svg  PUBLIC '-//W3C//DTD SVG 1.0//EN'  'http://www.w3.org/TR/2001/REC-SVG-20010904/DTD/svg10.dtd'><svg height="110px" style="enable-background:new 0 0 110 110;" version="1.0" viewBox="0 0 110 110" width="110px" xml:space="preserve" xmlns="http://www.w3.org/2000/svg" xmlns:xlink="http://www.w3.org/1999/xlink"><g id="Artboard"/><g id="Multicolor"><circle cx="55" cy="55" r="55" style="fill:#FABC3D;"/><g><polygon points="77,75 75,77 35,77 33,75 33,35 35,33 75,33 77,35   " style="fill:#3E3E3F;"/><path d="M41,33h-4v-4c0-1.105,0.895-2,2-2s2,0.895,2,2V33z" style="fill:#FFFFFF;"/><path d="M49,33h-4v-4c0-1.105,0.895-2,2-2s2,0.895,2,2V33z" style="fill:#FFFFFF;"/><path d="M57,33h-4v-4c0-1.105,0.895-2,2-2s2,0.895,2,2V33z" style="fill:#FFFFFF;"/><path d="M65,33h-4v-4c0-1.105,0.895-2,2-2s2,0.895,2,2V33z" style="fill:#FFFFFF;"/><path d="M73,33h-4v-4c0-1.105,0.895-2,2-2s2,0.895,2,2V33z" style="fill:#FFFFFF;"/><path d="M41,81c0,1.105-0.895,2-2,2s-2-0.895-2-2v-4h4V81z" style="fill:#F0F1F1;"/><path d="M33,73h-4c-1.105,0-2-0.895-2-2s0.895-2,2-2h4V73z" style="fill:#FFFFFF;"/><path d="M33,65h-4c-1.105,0-2-0.895-2-2s0.895-2,2-2h4V65z" style="fill:#FFFFFF;"/><path d="M33,57h-4c-1.105,0-2-0.895-2-2s0.895-2,2-2h4V57z" style="fill:#FFFFFF;"/><path d="M33,49h-4c-1.105,0-2-0.895-2-2s0.895-2,2-2h4V49z" style="fill:#FFFFFF;"/><path d="M33,41h-4c-1.105,0-2-0.895-2-2s0.895-2,2-2h4V41z" style="fill:#FFFFFF;"/><path d="M83,71c0,1.105-0.895,2-2,2h-4v-4h4C82.105,69,83,69.895,83,71z" style="fill:#F0F1F1;"/><path d="M83,63c0,1.105-0.895,2-2,2h-4v-4h4C82.105,61,83,61.895,83,63z" style="fill:#F0F1F1;"/><path d="M83,55c0,1.105-0.895,2-2,2h-4v-4h4C82.105,53,83,53.895,83,55z" style="fill:#F0F1F1;"/><path d="M83,47c0,1.105-0.895,2-2,2h-4v-4h4C82.105,45,83,45.895,83,47z" style="fill:#F0F1F1;"/><path d="M83,39c0,1.105-0.895,2-2,2h-4v-4h4C82.105,37,83,37.895,83,39z" style="fill:#F0F1F1;"/><path d="M49,81c0,1.105-0.895,2-2,2s-2-0.895-2-2v-4h4V81z" style="fill:#F0F1F1;"/><path d="M57,81c0,1.105-0.895,2-2,2s-2-0.895-2-2v-4h4V81z" style="fill:#F0F1F1;"/><path d="M65,81c0,1.105-0.895,2-2,2s-2-0.895-2-2v-4h4V81z" style="fill:#F0F1F1;"/><path d="M73,81c0,1.105-0.895,2-2,2s-2-0.895-2-2v-4h4V81z" style="fill:#F0F1F1;"/><rect height="34" style="fill:#5B5C5F;" width="34" x="38" y="38"/><polygon points="38,38 72,38 38,72   " style="fill:#818284;"/><g><path d="M41.174,42.796h0.557l0.464,1.077l0.467-1.077h0.557V45h-0.56l0.003-0.635l0.034-0.445     l-0.019-0.003l-0.29,0.756h-0.383l-0.296-0.756l-0.016,0.003l0.037,0.445V45h-0.557V42.796z" style="fill:#B6BCBD;"/><path d="M44.114,44.262c0,0.355,0.629,0.355,0.632,0v-1.466h0.563v1.466c-0.003,1.034-1.762,1.034-1.759,0     v-1.466h0.563V44.262z" style="fill:#B6BCBD;"/><path d="M45.635,42.796h0.56v1.653h0.896V45h-1.457V42.796z" style="fill:#B6BCBD;"/><path d="M48.017,43.322V45h-0.563v-1.678h-0.585v-0.529h1.734v0.529H48.017z" style="fill:#B6BCBD;"/><path d="M49.373,45h-0.557v-2.204h0.557V45z" style="fill:#B6BCBD;"/><path d="M51.33,44.536c-0.184,0.358-0.517,0.495-0.794,0.495c-0.433,0-0.868-0.252-0.868-0.753v-0.759     c0-0.498,0.436-0.753,0.878-0.753c0.271,0,0.598,0.115,0.775,0.507l-0.455,0.184c-0.149-0.274-0.641-0.212-0.641,0.062v0.759     c0,0.265,0.498,0.339,0.619,0.034L51.33,44.536z" style="fill:#B6BCBD;"/><path d="M51.475,43.521c0-0.507,0.455-0.756,0.912-0.756s0.915,0.252,0.915,0.756v0.753     c0,0.504-0.454,0.756-0.912,0.756c-0.458,0-0.915-0.252-0.915-0.756V43.521z M52.032,44.275c0,0.162,0.181,0.24,0.358,0.24     s0.355-0.081,0.355-0.24v-0.753c0-0.171-0.184-0.249-0.364-0.249c-0.174,0-0.349,0.087-0.349,0.249V44.275z" style="fill:#B6BCBD;"/><path d="M54.257,44.3h-0.1V45h-0.563v-2.204h0.881c0.455,0,0.806,0.209,0.819,0.726     c0,0.408-0.165,0.638-0.433,0.722L55.461,45h-0.694L54.257,44.3z M54.484,43.82c0.352,0,0.352-0.504,0-0.504h-0.327v0.504H54.484     z" style="fill:#B6BCBD;"/><path d="M56.164,43.662h0.893v0.482h-0.893v0.33h0.971V45h-1.535v-2.204h1.535v0.523h-0.971V43.662z" style="fill:#B6BCBD;"/><path d="M59.602,44.536c-0.184,0.358-0.517,0.495-0.794,0.495c-0.433,0-0.869-0.252-0.869-0.753v-0.759     c0-0.498,0.436-0.753,0.878-0.753c0.271,0,0.598,0.115,0.775,0.507l-0.454,0.184c-0.149-0.274-0.641-0.212-0.641,0.062v0.759     c0,0.265,0.498,0.339,0.62,0.034L59.602,44.536z" style="fill:#B6BCBD;"/><path d="M59.801,42.796h0.881c0.539,0,0.806,0.389,0.806,0.778c0,0.393-0.271,0.781-0.803,0.781h-0.327V45     h-0.557V42.796z M60.681,43.861c0.336,0.003,0.336-0.548,0-0.545h-0.324v0.545H60.681z" style="fill:#B6BCBD;"/><path d="M62.271,44.262c0,0.355,0.629,0.355,0.632,0v-1.466h0.563v1.466c-0.003,1.034-1.762,1.034-1.759,0     v-1.466h0.563V44.262z" style="fill:#B6BCBD;"/><path d="M41.482,48.04c0.208,0.255,0.57,0.171,0.582-0.087c0.013-0.224-0.121-0.327-0.289-0.327     c-0.128,0-0.259,0.05-0.358,0.184h-0.255v-1.286h1.307v0.489h-0.862v0.249c0.535-0.196,1.002,0.146,1.002,0.679     c0,0.408-0.255,0.819-0.831,0.819c-0.249,0-0.514-0.118-0.691-0.408L41.482,48.04z" style="fill:#B6BCBD;"/><path d="M43.079,48.124c0.171,0,0.311,0.137,0.311,0.308c0,0.174-0.14,0.314-0.311,0.314     s-0.308-0.14-0.308-0.314C42.771,48.261,42.908,48.124,43.079,48.124z" style="fill:#B6BCBD;"/><path d="M43.961,48.04c0.209,0.255,0.57,0.171,0.582-0.087c0.012-0.224-0.122-0.327-0.29-0.327     c-0.128,0-0.258,0.05-0.358,0.184h-0.255v-1.286h1.307v0.489h-0.862v0.249c0.535-0.196,1.002,0.146,1.002,0.679     c0,0.408-0.255,0.819-0.831,0.819c-0.249,0-0.513-0.118-0.691-0.408L43.961,48.04z" style="fill:#B6BCBD;"/><path d="M47.017,47.177c-0.121-0.295-0.613-0.227-0.613,0.062v0.756c0,0.346,0.645,0.342,0.645,0v-0.081     h-0.352v-0.467h0.887v0.548c0,0.507-0.423,0.763-0.865,0.763c-0.436,0-0.872-0.255-0.872-0.763V47.24     c0-0.498,0.436-0.747,0.872-0.747c0.286,0,0.613,0.118,0.766,0.47L47.017,47.177z" style="fill:#B6BCBD;"/><path d="M48.398,48.728h-0.56v-2.204h0.56v0.834h0.635v-0.834h0.56v2.204h-0.56v-0.831h-0.635V48.728z" style="fill:#B6BCBD;"/><path d="M51.478,46.523l0.118,0.187l-0.949,1.51l0.896-0.006v0.514h-1.634l-0.103-0.206l0.953-1.481     h-0.884v-0.517H51.478z" style="fill:#B6BCBD;"/></g></g></g></svg>