<?xml version="1.0" ?><!DOCTYPE svg  PUBLIC '-//W3C//DTD SVG 1.0//EN'  'http://www.w3.org/TR/2001/REC-SVG-20010904/DTD/svg10.dtd'><svg height="110px" style="enable-background:new 0 0 110 110;" version="1.0" viewBox="0 0 110 110" width="110px" xml:space="preserve" xmlns="http://www.w3.org/2000/svg" xmlns:xlink="http://www.w3.org/1999/xlink"><g id="Artboard"/><g id="Multicolor"><circle cx="55" cy="55" r="55" style="fill:#32BEA6;"/><g><g><path d="M72.848,57c-1.72,4.302-4.449,6-7.79,6h-11.79c-12.53,0-4.15-17-16.68-17h-13.66l1.86-3.37     c0.7-1.28,2.04-2.07,3.5-2.07h8.64c16,0,10,16.44,19.14,16.44H72.848z" style="fill:#F3B607;"/></g><g><path d="M83.928,72c-1.657,0-3,1.343-3,3c0,3.846-2.048,6-6.172,6c0.54-4.323-0.302-8.454-2.223-12h-7.355     c2.956,3.184,4.323,7.544,3.521,12H41.157c-0.796-4.421,0.544-8.796,3.513-12h-3.742c-1.145,0-2.232-0.245-3.217-0.678     C35.52,72.014,34.525,76.401,35.1,81h-9.172c-1.657,0-3,1.343-3,3s1.343,3,3,3h49c7.178,0,12-4.822,12-12     C86.928,73.343,85.584,72,83.928,72z" style="fill:#F0F1F1;"/></g><g><path d="M82.928,53c0,4.86,2.63,5.78,3.62,11.29c0.22,1.16-0.11,2.37-0.87,3.27     c-0.76,0.91-1.88,1.44-3.07,1.44h-41.68c-4.42,0-8-3.58-8-8v-4c0-4.426-3.577-8-8-8c-1.105,0-2-0.895-2-2v-1h13.66     c12.53,0,4.15,17,16.68,17h11.79c10.697,0,6.055-16.104,20.77-18.68c0.44-0.08,0.89,0.15,1.08,0.57c0.19,0.41,0.08,0.9-0.27,1.19     C84.818,47.57,82.928,49.88,82.928,53z" style="fill:#DF2C2C;"/></g><g><path d="M36.928,40.56h-8.64c-1.46,0-2.8,0.79-3.5,2.07L22.928,46h13.66     c10.059,0,6.649,10.951,11.394,15.271l5.109-5.109C48.16,52.824,50.751,40.56,36.928,40.56z" style="fill:#FACB1B;"/></g><g><path d="M36.588,46h-13.66v1c0,1.104,0.896,2,2,2c4.423,0,8,3.574,8,8v4c0,4.203,3.24,7.64,7.358,7.968     l7.696-7.696C43.237,56.951,46.647,46,36.588,46z" style="fill:#FA5655;"/></g></g></g></svg>