<?xml version="1.0" ?><!DOCTYPE svg  PUBLIC '-//W3C//DTD SVG 1.0//EN'  'http://www.w3.org/TR/2001/REC-SVG-20010904/DTD/svg10.dtd'><svg height="110px" style="enable-background:new 0 0 110 110;" version="1.0" viewBox="0 0 110 110" width="110px" xml:space="preserve" xmlns="http://www.w3.org/2000/svg" xmlns:xlink="http://www.w3.org/1999/xlink"><g id="Artboard"/><g id="Multicolor"><circle cx="55" cy="55" r="55" style="fill:#FABC3D;"/><g><path d="M79,55c0-2.209-1.791-4-4-4H35c-2.209,0-4,1.791-4,4v26h48V55z" style="fill:#F0F1F1;"/><path d="M55.021,42.194c-0.007,0-0.014,0.002-0.021,0.002s-0.013-0.002-0.021-0.002    c-1.568,0-2.84,1.271-2.84,2.84s1.272,2.84,2.84,2.84c0.007,0,0.014-0.002,0.021-0.002s0.013,0.002,0.021,0.002    c1.568,0,2.84-1.271,2.84-2.84S56.589,42.194,55.021,42.194z" style="fill:#FFFFFF;"/><path d="M55.021,34.121c-0.007,0-0.014,0.001-0.021,0.001s-0.014-0.001-0.021-0.001    c-4.62,0-8.81,2.537-11.035,6.32l2.457,1.434c1.489-2.723,4.839-4.914,8.578-4.914c0.007,0,0.014,0.001,0.021,0.001    s0.013-0.001,0.021-0.001c3.739,0,7.089,2.191,8.578,4.914l2.457-1.434C63.83,36.658,59.641,34.121,55.021,34.121z" style="fill:#FFFFFF;"/><path d="M55.021,24.875c-0.007,0-0.014,0-0.021,0s-0.014,0-0.021,0c-7.26,0-14.248,3.129-19.229,9.529    l2.258,1.733c3.869-5.161,10.052-8.422,16.972-8.422c0.007,0,0.014,0,0.021,0s0.014,0,0.021,0c6.911,0,13.098,3.255,16.972,8.422    l2.258-1.733C69.308,28.055,62.347,24.875,55.021,24.875z" style="fill:#FFFFFF;"/><path d="M23,81v2c2.561,2.561,6.035,4,9.657,4h44.687c3.622,0,7.096-1.439,9.657-4v-2H23z" style="fill:#FFFFFF;"/><rect height="26" style="fill:#3E3E3F;" width="40" x="35" y="55"/><polygon points="35,80.92 60.92,55 35,55   " style="fill:#5B5C5F;"/><rect height="2" style="fill:#E2E4E5;" width="10" x="50" y="81"/></g></g></svg>