<?xml version="1.0" ?><!DOCTYPE svg  PUBLIC '-//W3C//DTD SVG 1.0//EN'  'http://www.w3.org/TR/2001/REC-SVG-20010904/DTD/svg10.dtd'><svg height="110px" style="enable-background:new 0 0 110 110;" version="1.0" viewBox="0 0 110 110" width="110px" xml:space="preserve" xmlns="http://www.w3.org/2000/svg" xmlns:xlink="http://www.w3.org/1999/xlink"><g id="Artboard"/><g id="Multicolor"><circle cx="55" cy="55" r="55" style="fill:#E04F5F;"/><g><path d="M45.234,60.033c-0.156-0.468-0.594-0.784-1.087-0.784h-7.515c-0.493,0-0.931,0.316-1.087,0.784    l-4.071,12.213c-0.058,0.175-0.029,0.367,0.079,0.516C31.66,72.911,31.833,73,32.017,73h16.745c0.184,0,0.357-0.089,0.465-0.238    c0.108-0.149,0.137-0.341,0.079-0.516L45.234,60.033z" style="fill:#F3B607;"/><path d="M54.179,46.282c-0.156-0.468-0.594-0.784-1.087-0.784h-7.515c-0.493,0-0.931,0.316-1.087,0.784    l-4.071,12.213c-0.058,0.175-0.029,0.367,0.079,0.516c0.108,0.149,0.281,0.238,0.465,0.238h16.745    c0.184,0,0.357-0.089,0.465-0.238c0.108-0.149,0.137-0.341,0.079-0.516L54.179,46.282z" style="fill:#F3B607;"/><path d="M63.125,60.033c-0.156-0.468-0.594-0.784-1.087-0.784h-7.515c-0.493,0-0.931,0.316-1.087,0.784    l-4.071,12.213c-0.058,0.175-0.029,0.367,0.079,0.516C49.55,72.911,49.723,73,49.908,73h16.745c0.184,0,0.357-0.089,0.465-0.238    c0.108-0.149,0.137-0.341,0.079-0.516L63.125,60.033z" style="fill:#F3B607;"/><path d="M44.147,59.249h-7.515c-0.493,0-0.931,0.316-1.087,0.784l-4.071,12.213    c-0.058,0.175-0.029,0.367,0.079,0.516c0.042,0.059,0.097,0.105,0.156,0.143L44.984,59.63    C44.771,59.398,44.476,59.249,44.147,59.249z" style="fill:#FBE158;"/><path d="M53.081,45.498h-7.515c-0.493,0-0.931,0.316-1.087,0.784l-4.071,12.213    c-0.058,0.175-0.029,0.367,0.079,0.516c0.042,0.059,0.097,0.105,0.156,0.143l13.275-13.275    C53.706,45.647,53.41,45.498,53.081,45.498z" style="fill:#FBE158;"/><path d="M62.9,32.532c-0.156-0.468-0.594-0.784-1.087-0.784h-7.515c-0.493,0-0.931,0.316-1.087,0.784    l-4.071,12.213c-0.058,0.175-0.029,0.367,0.079,0.516c0.108,0.149,0.281,0.238,0.465,0.238h16.745    c0.184,0,0.357-0.089,0.465-0.238c0.108-0.149,0.137-0.341,0.079-0.516L62.9,32.532z" style="fill:#F3B607;"/><path d="M61.801,31.748h-7.515c-0.493,0-0.931,0.316-1.087,0.784l-4.071,12.213    c-0.058,0.175-0.029,0.367,0.079,0.516c0.042,0.059,0.097,0.105,0.156,0.143l13.275-13.275    C62.426,31.897,62.13,31.748,61.801,31.748z" style="fill:#FBE158;"/><path d="M71.9,46.282c-0.156-0.468-0.594-0.784-1.087-0.784h-7.515c-0.493,0-0.931,0.316-1.087,0.784    l-4.071,12.213c-0.058,0.175-0.029,0.367,0.079,0.516c0.108,0.149,0.281,0.238,0.465,0.238h16.745    c0.184,0,0.357-0.089,0.465-0.238c0.108-0.149,0.137-0.341,0.079-0.516L71.9,46.282z" style="fill:#F3B607;"/><path d="M70.801,45.498h-7.515c-0.493,0-0.931,0.316-1.087,0.784l-4.071,12.213    c-0.058,0.175-0.029,0.367,0.079,0.516c0.042,0.059,0.097,0.105,0.156,0.143l13.275-13.275    C71.426,45.647,71.13,45.498,70.801,45.498z" style="fill:#FBE158;"/><path d="M62.037,59.249h-7.515c-0.493,0-0.931,0.316-1.087,0.784l-4.071,12.213    c-0.058,0.175-0.029,0.367,0.079,0.516c0.042,0.059,0.097,0.105,0.156,0.143L62.875,59.63    C62.662,59.398,62.366,59.249,62.037,59.249z" style="fill:#FBE158;"/><path d="M81.125,60.033c-0.156-0.468-0.594-0.784-1.087-0.784h-7.515c-0.493,0-0.931,0.316-1.087,0.784    l-4.071,12.213c-0.058,0.175-0.029,0.367,0.079,0.516C67.55,72.911,67.723,73,67.908,73h16.745c0.184,0,0.357-0.089,0.465-0.238    c0.108-0.149,0.137-0.341,0.079-0.516L81.125,60.033z" style="fill:#F3B607;"/><path d="M80.037,59.249h-7.515c-0.493,0-0.931,0.316-1.087,0.784l-4.071,12.213    c-0.058,0.175-0.029,0.367,0.079,0.516c0.042,0.059,0.097,0.105,0.156,0.143L80.875,59.63    C80.662,59.398,80.366,59.249,80.037,59.249z" style="fill:#FBE158;"/><path d="M87,81H31c-2.209,0-4-1.791-4-4v-4h60V81z" style="fill:#F0F1F1;"/><g><path d="M31,73h-4V38c0-0.552-0.448-1-1-1h-3v-4h6c1.104,0,2,0.896,2,2V73z" style="fill:#CFD3D4;"/></g><circle cx="35" cy="81" r="6" style="fill:#3E3E3F;"/><circle cx="35" cy="81" r="1.5" style="fill:#FFFFFF;"/><circle cx="77" cy="81" r="6" style="fill:#3E3E3F;"/><circle cx="77" cy="81" r="1.5" style="fill:#FFFFFF;"/><g><path d="M85.398,39.134c0.059-0.009,0.102-0.059,0.102-0.119v-0.031c0-0.059-0.043-0.11-0.102-0.119     c-3.342-0.501-5.263-2.423-5.764-5.764C79.625,33.043,79.575,33,79.515,33h-0.03c-0.059,0-0.11,0.043-0.119,0.102     c-0.501,3.341-2.422,5.263-5.764,5.764c-0.059,0.009-0.102,0.059-0.102,0.119v0.03c0,0.059,0.043,0.11,0.102,0.119     c3.342,0.501,5.263,2.423,5.764,5.764C79.375,44.957,79.425,45,79.485,45h0.043c0.052,0,0.096-0.038,0.104-0.089     C80.13,41.562,82.052,39.636,85.398,39.134z" style="fill:#FFFFFF;"/></g><g><path d="M46.932,31.339C46.971,31.333,47,31.3,47,31.26v-0.02c0-0.04-0.029-0.073-0.068-0.079     c-2.228-0.334-3.508-1.615-3.843-3.843c-0.006-0.039-0.039-0.068-0.079-0.068h-0.02c-0.04,0-0.073,0.029-0.079,0.068     c-0.334,2.227-1.615,3.508-3.843,3.843C39.029,31.167,39,31.2,39,31.24v0.02c0,0.04,0.029,0.073,0.068,0.079     c2.228,0.334,3.508,1.615,3.843,3.843c0.006,0.039,0.039,0.068,0.079,0.068h0.029c0.035,0,0.064-0.025,0.069-0.06     C43.42,32.958,44.701,31.674,46.932,31.339z" style="fill:#FFFFFF;"/></g></g></g></svg>