<?xml version="1.0" ?><!DOCTYPE svg  PUBLIC '-//W3C//DTD SVG 1.0//EN'  'http://www.w3.org/TR/2001/REC-SVG-20010904/DTD/svg10.dtd'><svg height="110px" style="enable-background:new 0 0 110 110;" version="1.0" viewBox="0 0 110 110" width="110px" xml:space="preserve" xmlns="http://www.w3.org/2000/svg" xmlns:xlink="http://www.w3.org/1999/xlink"><g id="Artboard"/><g id="Multicolor"><circle cx="55" cy="55" r="55" style="fill:#E04F5F;"/><g><path d="M87,85c0,1.105-0.895,2-2,2H41c-1.105,0-2-0.895-2-2V41c0-1.105,0.895-2,2-2h44    c1.105,0,2,0.895,2,2V85z" style="fill:#F0F1F1;"/><rect height="32" style="fill:#40C9E7;" width="40" x="43" y="43"/><path d="M71,69c0,1.105-0.895,2-2,2H25c-1.105,0-2-0.895-2-2V25c0-1.105,0.895-2,2-2h44    c1.105,0,2,0.895,2,2V69z" style="fill:#FFFFFF;"/><rect height="32" style="fill:#40C9E7;" width="40" x="27" y="27"/><g><polygon points="43.979,45.021 62,27 26.962,27 26.962,53.4 35.626,43.003 35.623,43 38.957,39      38.959,39.003 38.962,39    " style="fill:#6FDAF1;"/></g><polygon points="59,31 38,59 67,59 67,42.2   " style="fill:#84462D;"/><polygon points="58.98,38.979 61.907,43.077 64.833,39.174 58.98,30.979 53.126,38.784 56.053,43.077   " style="fill:#F0F1F1;"/><polygon points="39,39 27,53.4 27,59 55.667,59   " style="fill:#D4A263;"/><path d="M49.005,33.037c0,1.105-0.896,2.001-2.001,2.001H34.996c-1.105,0-2.001-0.896-2.001-2.001    c0-1.241,1.166-2.543,3.336-1.769c1.1-1.36,2.79-2.23,4.67-2.23s3.57,0.87,4.67,2.23C47.85,30.49,49.005,31.807,49.005,33.037z" style="fill:#FFFFFF;"/><polygon points="44.017,45.021 30.038,59 27,59 27,53.4 35.664,43.003 38.995,47 42.328,43   " style="fill:#EDBC7C;"/><polygon points="38.995,47.038 42.328,43.038 38.995,39.038 35.661,43.038   " style="fill:#FFFFFF;"/></g></g></svg>