<?xml version="1.0" ?><!DOCTYPE svg  PUBLIC '-//W3C//DTD SVG 1.0//EN'  'http://www.w3.org/TR/2001/REC-SVG-20010904/DTD/svg10.dtd'><svg height="110px" style="enable-background:new 0 0 110 110;" version="1.0" viewBox="0 0 110 110" width="110px" xml:space="preserve" xmlns="http://www.w3.org/2000/svg" xmlns:xlink="http://www.w3.org/1999/xlink"><g id="Artboard"/><g id="Multicolor"><circle cx="55" cy="55" r="55" style="fill:#25B7D3;"/><g><g><polygon points="67,23 43,23 31,39 43,87 67,87 79,39    " style="fill:#3E3E3F;"/></g><g><polygon points="55,23 43,23 31,39 43,87 55,87    " style="fill:#5B5C5F;"/></g><g><polygon points="69,41 59,41 59,31 51,31 51,41 41,41 41,49 51,49 51,67 59,67 59,49 69,49    " style="fill:#E2E4E5;"/></g><g><polygon points="55,67 55,31 51,31 51,41 41,41 41,49 51,49 51,67    " style="fill:#FFFFFF;"/></g></g></g></svg>