<?xml version="1.0" ?><!DOCTYPE svg  PUBLIC '-//W3C//DTD SVG 1.0//EN'  'http://www.w3.org/TR/2001/REC-SVG-20010904/DTD/svg10.dtd'><svg height="110px" style="enable-background:new 0 0 110 110;" version="1.0" viewBox="0 0 110 110" width="110px" xml:space="preserve" xmlns="http://www.w3.org/2000/svg" xmlns:xlink="http://www.w3.org/1999/xlink"><g id="Artboard"/><g id="Multicolor"><g><circle cx="55" cy="55" r="55" style="fill:#E04F5F;"/></g><g><g><path d="M23,87l4-11c0.615-1.333,1.698-2.394,3.043-2.983L43,68l9,19H23z" style="fill:#FACB1B;"/></g><g><polygon points="52,87 43,68 45,67.497 45,65 41,66 35,83 45,81 50,87    " style="fill:#FFFFFF;"/></g><g><path d="M87,87l-4-11c-0.615-1.333-1.698-2.394-3.043-2.983L67,68l-9,19H87z" style="fill:#FACB1B;"/></g><g><polygon points="58,87 67,68 65,67.497 65,65 69,66 75,83 65,81 60,87    " style="fill:#FFFFFF;"/></g><path d="M65,62.997l-5.105,3.996c-0.569,0.639-1.384,1.004-2.24,1.004H55h-2.655    c-0.856,0-1.671-0.365-2.24-1.004L45,62.997v4.5l-2,0.5L52,87h6l9-19.003l-2-0.5V62.997z" style="fill:#9C6144;"/><path d="M50.105,66.993L45,62.997v4.5l-2,0.5L52,87h3V67.997h-2.655    C51.489,67.997,50.674,67.632,50.105,66.993z" style="fill:#BF8662;"/><g><path d="M55,30c-12.976,0-13.982,6-14,15v7.997l4,10l5.105,3.996c0.569,0.639,1.384,1.004,2.24,1.004H55     h2.655c0.856,0,1.671-0.365,2.24-1.004L65,62.997l4-10V45C68.982,36,67.976,30,55,30z" style="fill:#BF8662;"/></g><g><path d="M41,45v7.997l4,10l5.105,3.996c0.569,0.639,1.384,1.004,2.24,1.004H55V30     C42.024,30,41.018,36,41,45z" style="fill:#CC9978;"/></g><g><path d="M52,46.997c0-1.104-0.896-2-2-2c-0.002,0-0.004,0-0.006,0C49.995,45.019,50,45.039,50,45.06     c0,1.103-0.892,1.996-1.994,2c0.033,1.075,0.91,1.938,1.994,1.938C51.104,48.997,52,48.102,52,46.997z" style="fill:#3E3E3F;"/></g><g><path d="M61.994,46.997c0-1.104-0.896-2-2-2c-0.002,0-0.004,0-0.006,0     c0.001,0.021,0.006,0.041,0.006,0.062c0,1.103-0.892,1.996-1.994,2c0.033,1.075,0.91,1.938,1.994,1.938     C61.098,48.997,61.994,48.102,61.994,46.997z" style="fill:#3E3E3F;"/></g><g><path d="M50,56.997h10c0,0,0,3-5,3S50,56.997,50,56.997z" style="fill:#84462D;"/></g><path d="M55,23.286c-5.383,0.058-21,1.079-21,11.003c0,0.526,0.293,1.177,0.733,1.862    c2.901-6.814,15.53-6.83,20.267-6.852c4.737,0.021,17.366,0.037,20.267,6.852C75.707,35.466,76,34.815,76,34.289    C76,24.365,60.383,23.344,55,23.286z" style="fill:#099686;"/><path d="M55,29.3c-4.737,0.021-17.366,0.037-20.267,6.852c0.562,0.878,1.368,1.811,2.149,2.628    C40.872,35.064,49.562,35.315,55,35.3c5.438,0.015,14.128-0.236,18.118,3.479c0.781-0.817,1.587-1.75,2.149-2.628    C72.366,29.337,59.737,29.321,55,29.3z" style="fill:#FACB1B;"/><path d="M55,35.3c-5.448,0.015-14.129-0.234-18.118,3.479c0.956,1,1.206,2.351,3.486,2.638    c2.765,0.347,7.644,0.801,14.632,0.871c6.988-0.071,11.868-0.524,14.632-0.871c2.281-0.287,2.53-1.637,3.486-2.638    C69.129,35.066,60.448,35.315,55,35.3z" style="fill:#DF2C2C;"/><g><path d="M76.922,56.736l-4.786-16.687c-0.498,0.635-1.131,1.195-2.504,1.368     c-1.362,0.171-3.243,0.368-5.632,0.532V67c0,1.104,0.896,2,2,2s2-0.896,2-2V55.285l1.015,8.248     c0.135,1.096,1.133,1.876,2.229,1.741c1.096-0.135,1.875-1.133,1.741-2.229l-1.191-9.678l1.283,4.473     c0.304,1.062,1.412,1.676,2.474,1.371C76.613,58.906,77.227,57.798,76.922,56.736z" style="fill:#3E3E3F;"/></g><g><path d="M55,29.3v-6.014c-5.383,0.058-21,1.079-21,11.003c0,0.526,0.293,1.177,0.733,1.862     C37.634,29.337,50.263,29.321,55,29.3z" style="fill:#12B2A0;"/></g><g><path d="M55,35.3v-6c-4.737,0.021-17.366,0.037-20.267,6.852c0.562,0.878,1.368,1.811,2.149,2.628     C40.872,35.064,49.562,35.315,55,35.3z" style="fill:#FBE158;"/></g><g><path d="M36.882,38.779c0.956,1,1.205,2.351,3.486,2.637c2.765,0.347,7.644,0.801,14.632,0.871V35.3     C49.552,35.315,40.871,35.066,36.882,38.779z" style="fill:#FA5655;"/></g><g><path d="M40.368,41.417c-1.373-0.172-2.006-0.732-2.504-1.367l-4.786,16.687     c-0.305,1.062,0.309,2.169,1.371,2.474c1.062,0.304,2.169-0.309,2.474-1.371l1.283-4.473l-1.191,9.678     c-0.135,1.096,0.645,2.094,1.741,2.229c1.097,0.135,2.095-0.645,2.229-1.741L42,55.285V67c0,1.104,0.896,2,2,2s2-0.896,2-2     V41.949C43.611,41.785,41.73,41.588,40.368,41.417z" style="fill:#3E3E3F;"/></g></g></g></svg>