<?xml version="1.0" ?><!DOCTYPE svg  PUBLIC '-//W3C//DTD SVG 1.0//EN'  'http://www.w3.org/TR/2001/REC-SVG-20010904/DTD/svg10.dtd'><svg height="110px" style="enable-background:new 0 0 110 110;" version="1.0" viewBox="0 0 110 110" width="110px" xml:space="preserve" xmlns="http://www.w3.org/2000/svg" xmlns:xlink="http://www.w3.org/1999/xlink"><g id="Artboard"/><g id="Multicolor"><circle cx="55" cy="55" r="55" style="fill:#FABC3D;"/><g><path d="M55,27c-13,0-25,13-25,33c0,24.728,17.842,23,25,23s25,1.728,25-23C80,40,68,27,55,27z" style="fill:#059BBF;"/><path d="M30,60c0,24.728,17.842,23,25,23V27C42,27,30,40,30,60z" style="fill:#21B2D1;"/><path d="M64.668,37.88c-4.336,0-8.058,2.625-9.668,6.372c-1.61-3.747-5.332-6.372-9.668-6.372    c-5.811,0-10.521,4.71-10.521,10.521c0,5.81,4.71,10.521,10.521,10.521c4.336,0,8.058-2.625,9.668-6.372    c1.61,3.747,5.332,6.372,9.668,6.372c5.811,0,10.521-4.71,10.521-10.521C75.189,42.591,70.479,37.88,64.668,37.88z" style="fill:#6FDAF1;"/><circle cx="55" cy="63.581" r="6.5" style="fill:#FACB1B;"/><path d="M48.5,63.581c0,3.59,2.91,6.5,6.5,6.5v-13C51.41,57.081,48.5,59.991,48.5,63.581z" style="fill:#FBE158;"/><path d="M50.727,39.375c1.888,1.132,3.396,2.836,4.273,4.877c0.898-2.091,2.456-3.831,4.409-4.962    c-0.192-2.516-2.616-3.619-2.616-3.619s-0.375,1-0.875,2.625c-0.625-3.125-5.25-4.5-5.25-4.5S50.87,35.327,50.727,39.375z" style="fill:#3E3E3F;"/><path d="M77.337,44.769c5.35-2.729,8.795-12.01,9.53-19.1c0.07-0.676-0.171-1.347-0.654-1.824    c-0.483-0.477-1.158-0.708-1.833-0.63c-9.794,1.141-15.228,4.694-17.153,7.882C71.486,34.154,75.062,38.82,77.337,44.769z" style="fill:#0484AB;"/><path d="M75.25,29c-0.551-0.482,7.208-4.095,8.5-2.875c2.25,2.125-5,12.625-5,12.625s3.167-7.916,2-9.375    C79.75,28.125,76.25,29.875,75.25,29z" style="fill:#6FDAF1;"/><path d="M32.663,44.769c2.274-5.949,5.851-10.615,10.11-13.672c-1.926-3.187-7.359-6.741-17.153-7.882    c-0.675-0.079-1.349,0.153-1.833,0.63s-0.724,1.148-0.654,1.824C23.868,32.759,27.313,42.041,32.663,44.769z" style="fill:#0484AB;"/><path d="M41.222,79c-14.004,0-8.516,10.113-4.477,6.074c1.142,2.513,6.34,2.813,7.852-0.074    c0.37,1.704,1.638,2,2.847,2C53.507,87,51.861,79,41.222,79z" style="fill:#FFFFFF;"/><path d="M68.778,79c14.004,0,8.516,10.113,4.477,6.074c-1.142,2.513-6.34,2.813-7.852-0.074    c-0.37,1.704-1.638,2-2.847,2C56.493,87,58.139,79,68.778,79z" style="fill:#FFFFFF;"/><path d="M59.5,63.665c0,2.485-2.015,4.5-4.5,4.5c-2.485,0-4.5-2.015-4.5-4.5H59.5z" style="fill:#FA5655;"/><circle cx="45.551" cy="47.89" r="6.502" style="fill:#FFFFFF;"/><path d="M47.338,48.424c0-0.776,0.629-1.404,1.404-1.404c0.059,0,0.115,0.01,0.172,0.017    c-0.466-1.249-1.66-2.142-3.071-2.142c-1.816,0-3.288,1.472-3.288,3.288c0,1.816,1.472,3.288,3.288,3.288    c1.216,0,2.265-0.667,2.834-1.648C47.933,49.787,47.338,49.177,47.338,48.424z" style="fill:#3E3E3F;"/><circle cx="64.887" cy="47.89" r="6.502" style="fill:#FFFFFF;"/><path d="M66.674,48.424c0-0.776,0.628-1.404,1.404-1.404c0.059,0,0.115,0.01,0.172,0.017    c-0.466-1.249-1.66-2.142-3.071-2.142c-1.816,0-3.288,1.472-3.288,3.288c0,1.816,1.472,3.288,3.288,3.288    c1.216,0,2.265-0.667,2.834-1.648C67.269,49.787,66.674,49.177,66.674,48.424z" style="fill:#3E3E3F;"/><path d="M34.75,29c0.551-0.482-7.208-4.095-8.5-2.875c-2.25,2.125,5,12.625,5,12.625s-3.167-7.916-2-9.375    C30.25,28.125,33.75,29.875,34.75,29z" style="fill:#6FDAF1;"/><path d="M39.572,45.333H51.53c-0.993-2.32-3.296-3.945-5.979-3.945    C42.868,41.387,40.566,43.013,39.572,45.333z" style="fill:#21B2D1;"/><path d="M58.908,45.333h11.958c-0.993-2.32-3.296-3.945-5.979-3.945    C62.204,41.387,59.902,43.013,58.908,45.333z" style="fill:#21B2D1;"/></g></g></svg>