<?xml version="1.0" ?><!DOCTYPE svg  PUBLIC '-//W3C//DTD SVG 1.0//EN'  'http://www.w3.org/TR/2001/REC-SVG-20010904/DTD/svg10.dtd'><svg height="110px" style="enable-background:new 0 0 110 110;" version="1.0" viewBox="0 0 110 110" width="110px" xml:space="preserve" xmlns="http://www.w3.org/2000/svg" xmlns:xlink="http://www.w3.org/1999/xlink"><g id="Artboard"/><g id="Multicolor"><g><circle cx="55" cy="55" r="55" style="fill:#FABC3D;"/></g><g><path d="M57.655,67.997H55h-2.655c-0.856,0-1.671-0.365-2.24-1.004L45,62.997v4.5c0,0,0,7.5,10,7.5    s10-7.5,10-7.5v-4.5l-5.105,3.996C59.326,67.632,58.511,67.997,57.655,67.997z" style="fill:#F7B4B4;"/><path d="M50.105,66.993L45,62.997v4.5c0,0,0,7.5,10,7.5v-7h-2.655    C51.489,67.997,50.674,67.632,50.105,66.993z" style="fill:#FBC8C8;"/><path d="M72,47.228c0-1.111-1-2.222-2-2.222c-0.421,0-0.737,0.101-1,0.241c0-9.14-0.911-15.244-14-15.244    c-12.976,0-13.982,6-14,15V53l4,10l5.105,3.996C50.674,67.635,51.489,68,52.345,68H55h2.655c0.856,0,1.671-0.365,2.24-1.004L65,63    l3.206-8.013C71.042,54.783,72,50.482,72,47.228z" style="fill:#FBC8C8;"/><path d="M41,45.247c-0.263-0.14-0.579-0.241-1-0.241c-1,0-2,1.111-2,2.222c0,3.254,0.958,7.555,3.794,7.759    L45,63l5.105,3.996C50.674,67.635,51.489,68,52.345,68H55V30.003C41.915,30.003,41,36.103,41,45.247z" style="fill:#FBD7D7;"/><g><path d="M67,68l-2-1c0,0-3,8.003-10,8.003S45,67,45,67l-2,1l12,19.003L67,68z" style="fill:#FFFFFF;"/></g><g><path d="M30.043,73.017C28.698,73.606,27.615,74.667,27,76l-4,11h32L43,68L30.043,73.017z" style="fill:#F37A10;"/><path d="M83,76c-0.615-1.333-1.698-2.394-3.043-2.983L67,68L55,87h32L83,76z" style="fill:#F37A10;"/></g><g><path d="M51.994,47.036c0-1.104-0.896-2-2-2c-0.002,0-0.004,0-0.006,0     c0.001,0.021,0.006,0.041,0.006,0.062c0,1.103-0.892,1.996-1.994,2c0.033,1.075,0.91,1.938,1.994,1.938     C51.098,49.036,51.994,48.141,51.994,47.036z" style="fill:#3E3E3F;"/></g><g><path d="M61.987,47.036c0-1.104-0.896-2-2-2c-0.002,0-0.004,0-0.006,0     c0.001,0.021,0.006,0.041,0.006,0.062c0,1.103-0.892,1.996-1.994,2c0.033,1.075,0.91,1.938,1.994,1.938     C61.092,49.036,61.987,48.141,61.987,47.036z" style="fill:#3E3E3F;"/></g><g><polygon points="45,67.003 43,68 55,87 52,87.003 45,77.003 36,79.003 41,65.003 45,64.509    " style="fill:#F99134;"/></g><g><polygon points="65,67.003 67,68 55,87 58,87.003 65,77.003 74,79.003 69,65.003 65,64.003    " style="fill:#F99134;"/></g><g><path d="M55,53.003c0,0-6,0-9,2c0,7,5,12,5,12l4,2l4-2c0,0,5-5,5-12C61,53.003,55,53.003,55,53.003z      M57,61.003l-1-1h-1h-1l-1,1h-2l-1.183-1.971c-0.371-0.618-0.38-1.387-0.025-2.014s1.02-1.015,1.74-1.015H55h3.468     c0.721,0,1.385,0.388,1.74,1.015s0.345,1.397-0.025,2.014L59,61.003H57z" style="fill:#3E3E3F;"/></g><path d="M72.755,82.976v-3.458h-1.243l-2.447,3.329c-0.126-0.211-0.297-0.406-0.557-0.54    c0.608-0.38,0.659-1.234,0.422-1.826c-0.321-0.794-1.065-1.048-1.8-1.048c-0.676,0-1.395,0.363-1.885,0.972l0.879,0.778    c0.372-0.423,1.107-0.533,1.378-0.11c0.169,0.254,0.034,0.735-0.354,0.735h-0.896v1.209h0.93c0.432,0,0.651,0.271,0.651,0.575    c0,0.321-0.347,0.516-0.752,0.516c-0.355,0-0.744-0.152-0.964-0.508l-0.98,0.905c0.448,0.752,1.234,1.082,2.003,1.082    c0.934,0,1.843-0.517,2.097-1.386h2.074v1.302h1.445v-1.302h0.558v-1.226H72.755z M71.419,82.992h-1.057l1.074-1.53L71.419,82.992    z" style="fill:#FFFFFF;"/><g><path d="M43.5,36.003v17.083h-2c0-1.976-0.021-3.28,0-5.02c0.021-1.783-0.426-3.063-1.375-3.063     C39,45.003,37.567,36.003,43.5,36.003z" style="fill:#3E3E3F;"/></g><g><path d="M66.613,36.003v17.083h2c0-1.976,0.021-3.28,0-5.02c-0.021-1.783,0.426-3.063,1.375-3.063     C71.113,45.003,72.546,36.003,66.613,36.003z" style="fill:#3E3E3F;"/></g></g></g></svg>