<?xml version="1.0" ?><!DOCTYPE svg  PUBLIC '-//W3C//DTD SVG 1.0//EN'  'http://www.w3.org/TR/2001/REC-SVG-20010904/DTD/svg10.dtd'><svg height="110px" style="enable-background:new 0 0 110 110;" version="1.0" viewBox="0 0 110 110" width="110px" xml:space="preserve" xmlns="http://www.w3.org/2000/svg" xmlns:xlink="http://www.w3.org/1999/xlink"><g id="Artboard"/><g id="Multicolor"><g><circle cx="55" cy="55" r="55" style="fill:#25B7D3;"/></g><g><path d="M70,45c-1,0-1,1.111-1,1.111V46l-1,1c0-18-4-12-13-12s-13-6-13,12l-1-1v6.997l4,10l5.105,3.996    c0.569,0.639,1.384,1.004,2.24,1.004H55h2.655c0.856,0,1.671-0.365,2.24-1.004L65,62.997l3.207-8.017    C71.042,54.776,72,50.476,72,47.222C72,46.111,71,45,70,45z" style="fill:#BF8662;"/><path d="M42,47l-1-1v0.111c0,0,0-1.111-1-1.111s-2,1.111-2,2.222c0,3.253,0.958,7.554,3.793,7.758    L45,62.997l5.105,3.996c0.569,0.639,1.384,1.004,2.24,1.004H55V35C46,35,42,29,42,47z" style="fill:#CC9978;"/><g><path d="M55,29c-12,0-15,7-14,17l1,1c0-18,4-12,13-12s13-6,13,12l1-1C70,36,67,29,55,29z" style="fill:#692E19;"/></g><g><path d="M41,46l1,1c0-18,4-12,13-12v-6C43,29,40,36,41,46z" style="fill:#84462D;"/></g><g><path d="M83,75.964c-0.615-1.333-1.698-2.395-3.043-2.983L68,68.964H55H42l-11.957,4.017     c-1.345,0.588-2.428,1.65-3.043,2.983l-4,11h64L83,75.964z" style="fill:#FFFFFF;"/></g><g><g><rect height="3" style="fill:#FBE158;" width="5" x="72" y="81.036"/></g><g><rect height="3" style="fill:#FBE158;" width="5" x="64" y="81.036"/></g><g><polygon points="29,81.036 25.169,81.036 24.441,83.036 24.078,84.036 29,84.036     " style="fill:#FBE158;"/></g><g><rect height="3" style="fill:#FBE158;" width="5" x="56" y="81.036"/></g><g><rect height="3" style="fill:#FBE158;" width="5" x="32" y="81.036"/></g><g><rect height="3" style="fill:#FBE158;" width="5" x="40" y="81.036"/></g><g><rect height="3" style="fill:#FBE158;" width="5" x="48" y="81.036"/></g><g><polygon points="80,81.036 80,84.036 85.922,84.036 85.559,83.036 84.831,81.036     " style="fill:#FBE158;"/></g><g><rect height="3" style="fill:#FBE158;" width="5" x="56" y="74.036"/></g><g><rect height="3" style="fill:#FBE158;" width="5" x="72" y="74.036"/></g><g><path d="M29,74.036h-0.516C27.835,74.611,27.317,75.313,27,76l-0.377,1.036H29V74.036z" style="fill:#FBE158;"/></g><g><rect height="3" style="fill:#FBE158;" width="5" x="32" y="74.036"/></g><g><path d="M80,74.036v3h3.377L83,76c-0.317-0.687-0.835-1.389-1.484-1.964H80z" style="fill:#FBE158;"/></g><g><rect height="3" style="fill:#FBE158;" width="5" x="64" y="74.036"/></g><g><rect height="3" style="fill:#FBE158;" width="5" x="48" y="74.036"/></g><g><rect height="3" style="fill:#FBE158;" width="5" x="40" y="74.036"/></g></g><g><g><rect height="2.964" style="fill:#FACB1B;" width="3" x="29" y="84.036"/></g><g><path d="M32,74.036v-1.677l-1.957,0.658c-0.371,0.162-0.716,0.368-1.043,0.598v0.421H32z" style="fill:#FACB1B;"/></g><g><rect height="4" style="fill:#FACB1B;" width="3" x="29" y="77.036"/></g><g><rect height="4" style="fill:#FACB1B;" width="3" x="37" y="77.036"/></g><g><rect height="2.964" style="fill:#FACB1B;" width="3" x="37" y="84.036"/></g><g><polygon points="40,74.036 40,69.672 37,70.68 37,74.036     " style="fill:#FACB1B;"/></g><g><rect height="2.964" style="fill:#FACB1B;" width="3" x="45" y="84.036"/></g><g><rect height="5.036" style="fill:#FACB1B;" width="3" x="45" y="69"/></g><g><rect height="4" style="fill:#FACB1B;" width="3" x="45" y="77.036"/></g><g><rect height="2.964" style="fill:#FACB1B;" width="3" x="53" y="84.036"/></g><g><rect height="4" style="fill:#FACB1B;" width="3" x="53" y="77.036"/></g><g><polygon points="56,74.036 56,69 55,69 53,69 53,74.036     " style="fill:#FACB1B;"/></g><g><rect height="4" style="fill:#FACB1B;" width="3" x="61" y="77.036"/></g><g><rect height="5.036" style="fill:#FACB1B;" width="3" x="61" y="69"/></g><g><rect height="2.964" style="fill:#FACB1B;" width="3" x="61" y="84.036"/></g><g><polygon points="72,74.036 72,70.344 69,69.336 69,74.036     " style="fill:#FACB1B;"/></g><g><rect height="4" style="fill:#FACB1B;" width="3" x="69" y="77.036"/></g><g><rect height="2.964" style="fill:#FACB1B;" width="3" x="69" y="84.036"/></g><g><rect height="2.964" style="fill:#FACB1B;" width="3" x="77" y="84.036"/></g><g><rect height="4" style="fill:#FACB1B;" width="3" x="77" y="77.036"/></g><g><path d="M80,74.036v-0.995c-0.015-0.007-0.028-0.018-0.043-0.024L77,72.023v2.013H80z" style="fill:#FACB1B;"/></g></g><g><g><rect height="3" style="fill:#F99134;" width="3" x="29" y="81.036"/></g><g><rect height="3" style="fill:#F99134;" width="3" x="29" y="74.036"/></g><g><rect height="3" style="fill:#F99134;" width="3" x="37" y="81.036"/></g><g><rect height="3" style="fill:#F99134;" width="3" x="37" y="74.036"/></g><g><rect height="3" style="fill:#F99134;" width="3" x="45" y="81.036"/></g><g><rect height="3" style="fill:#F99134;" width="3" x="45" y="74.036"/></g><g><rect height="3" style="fill:#F99134;" width="3" x="53" y="81.036"/></g><g><rect height="3" style="fill:#F99134;" width="3" x="53" y="74.036"/></g><g><rect height="3" style="fill:#F99134;" width="3" x="61" y="81.036"/></g><g><rect height="3" style="fill:#F99134;" width="3" x="61" y="74.036"/></g><g><rect height="3" style="fill:#F99134;" width="3" x="69" y="81.036"/></g><g><rect height="3" style="fill:#F99134;" width="3" x="69" y="74.036"/></g><g><rect height="3" style="fill:#F99134;" width="3" x="77" y="81.036"/></g><g><rect height="3" style="fill:#F99134;" width="3" x="77" y="74.036"/></g></g><path d="M57.655,67.997H55h-2.655c-0.856,0-1.671-0.365-2.24-1.004L45,62.997V72c0,0,2,4,10,4s10-4,10-4    v-9.003l-5.105,3.996C59.326,67.632,58.511,67.997,57.655,67.997z" style="fill:#AF7653;"/><g><polygon points="24.078,84.036 24.078,84.036 24.441,83.036    " style="fill:#40C9E7;"/></g><g><path d="M27,76" style="fill:#40C9E7;"/></g><g><polygon points="26.623,77.036 26.623,77.036 27,76    " style="fill:#40C9E7;"/></g><g><path d="M55,79c3.857,0,13-1,13-7c0-0.676,0-1.789,0-3.072h-3V72c0,0-2,4-10,4s-10-4-10-4v-3.072h-3     c0,1.283,0,2.396,0,3.072C42,78,51.143,79,55,79z" style="fill:#FFFFFF;"/></g><path d="M50.105,66.993L45,62.997V72c0,0,2,4,10,4v-8.003h-2.655    C51.489,67.997,50.674,67.632,50.105,66.993z" style="fill:#BF8662;"/><g><path d="M52,46.997c0-1.104-0.896-2-2-2c-0.002,0-0.004,0-0.006,0c0.051,1.099-0.844,2.058-1.987,2.062     c0.033,1.075,0.91,1.938,1.994,1.938C51.104,48.997,52,48.102,52,46.997z" style="fill:#3E3E3F;"/></g><g><path d="M61.994,46.997c0-1.104-0.896-2-2-2c-0.002,0-0.004,0-0.006,0     c0.051,1.099-0.844,2.058-1.987,2.062c0.033,1.075,0.91,1.938,1.994,1.938C61.098,48.997,61.994,48.102,61.994,46.997z" style="fill:#3E3E3F;"/></g><g><path d="M55,54c0,0-6,0-9,2c0,7,5,12,5,12l4,2l4-2c0,0,5-5,5-12C61,54,55,54,55,54z M57,62l-1-1h-1h-1     l-1,1h-2l-1.183-1.971c-0.371-0.618-0.38-1.387-0.025-2.014S50.812,57,51.532,57H55h3.468c0.721,0,1.385,0.388,1.74,1.015     s0.345,1.397-0.025,2.014L59,62H57z" style="fill:#692E19;"/></g><g><path d="M54,61l-1,1h-2l-1.183-1.971c-0.371-0.618-0.38-1.387-0.025-2.014S50.812,57,51.532,57H55v-3     c0,0-6,0-9,2c0,7,5,12,5,12l4,2v-9H54z" style="fill:#84462D;"/></g></g></g></svg>