<?xml version="1.0" ?><!DOCTYPE svg  PUBLIC '-//W3C//DTD SVG 1.0//EN'  'http://www.w3.org/TR/2001/REC-SVG-20010904/DTD/svg10.dtd'><svg height="110px" style="enable-background:new 0 0 110 110;" version="1.0" viewBox="0 0 110 110" width="110px" xml:space="preserve" xmlns="http://www.w3.org/2000/svg" xmlns:xlink="http://www.w3.org/1999/xlink"><g id="Artboard"/><g id="Multicolor"><g><circle cx="55" cy="55" r="55" style="fill:#32BEA6;"/></g><g><g><path d="M55.002,87H87l-4-11c-0.615-1.333-1.698-2.394-3.043-2.982L67,68l-2-1l-10,8.003L45,67l-2,1     l-12.957,5.018C28.698,73.606,27.615,74.667,27,76l-4,11h31.998L55,87.003L55.002,87z" style="fill:#FFFFFF;"/></g><polygon points="75,81 75,71.003 70,69.003 70,78 40,78 40,69.003 35,71.003 35,81 33,87.003 77,87.003       " style="fill:#0484AB;"/><g><rect height="4" style="fill:#21B2D1;" width="24" x="43" y="83"/></g><path d="M57.655,67.997H55h-2.655c-0.856,0-1.671-0.365-2.24-1.004L45,62.997v4.5c0,0,0,7.5,10,7.5    s10-7.5,10-7.5v-4.5l-5.105,3.996C59.326,67.632,58.511,67.997,57.655,67.997z" style="fill:#F7B4B4;"/><path d="M50.105,66.996L45,63v4.5c0,0,0,7.5,10,7.5v-7h-2.655C51.489,68,50.674,67.635,50.105,66.996z" style="fill:#FBC8C8;"/><path d="M72,47.222C72,46.111,71,45,70,45s-1,1.111-1,1.111V45c-0.004-2.144-0.067-4.115-0.332-5.877    C65.103,40.558,59.438,41,55,41s-10.103-0.442-13.668-1.877C41.067,40.885,41.004,42.856,41,45v7.997l4,10l5.105,3.996    c0.569,0.639,1.384,1.004,2.24,1.004H55h2.655c0.856,0,1.671-0.365,2.24-1.004L65,62.997l3.207-8.017    C71.042,54.776,72,50.476,72,47.222z" style="fill:#FBC8C8;"/><path d="M41,45v1.111c0,0,0-1.111-1-1.111s-2,1.111-2,2.222c0,3.253,0.958,7.554,3.793,7.758L45,62.997    l5.105,3.996c0.569,0.639,1.384,1.004,2.24,1.004H55V41c-4.438,0-10.103-0.442-13.668-1.877C41.067,40.885,41.004,42.856,41,45z" style="fill:#FBD7D7;"/><g><path d="M50,56.997h10c0,0,0,3-5,3S50,56.997,50,56.997z" style="fill:#F79392;"/></g><g><path d="M51.994,47.036c0-1.104-0.896-2-2-2c-0.002,0-0.004,0-0.006,0     c0.001,0.021,0.006,0.041,0.006,0.062c0,1.103-0.892,1.996-1.994,2c0.033,1.075,0.91,1.938,1.994,1.938     C51.098,49.036,51.994,48.141,51.994,47.036z" style="fill:#3E3E3F;"/></g><g><path d="M61.987,47.036c0-1.104-0.896-2-2-2c-0.002,0-0.004,0-0.006,0     c0.001,0.021,0.006,0.041,0.006,0.062c0,1.103-0.892,1.996-1.994,2c0.033,1.075,0.91,1.938,1.994,1.938     C61.092,49.036,61.987,48.141,61.987,47.036z" style="fill:#3E3E3F;"/></g><g><path d="M47,57h8C55,52.452,49,53.21,47,57z" style="fill:#84462D;"/></g><g><path d="M63,57h-8C55,52.452,61,53.21,63,57z" style="fill:#84462D;"/></g><path d="M66.369,44.35C67.5,48.9,67,55.02,67,56c1,0,1,0,1,0c1-2,1-2,1-2c0-0.84,0.554-6.44,0.837-10.137    C68.746,44.043,67.585,44.207,66.369,44.35z" style="fill:#84462D;"/><path d="M43.631,44.35c-1.217-0.144-2.377-0.307-3.469-0.487C40.446,47.56,41,53.16,41,54c0,0,0,0,1,2    c0,0,0,0,1,0C43,55.02,42.5,48.9,43.631,44.35z" style="fill:#84462D;"/><g><path d="M80,40c0,2.209-11.193,5-25,5s-25-2.791-25-5s11.193-4,25-4S80,37.791,80,40z" style="fill:#F4D0A1;"/></g><g><path d="M69,35c0.04-7.047-6.128-12-14-12s-14.04,4.953-14,12c0.009,1.582,0,2,0,4     c3.538,1.54,9.429,2,14,2s10.462-0.46,14-2C69,37,68.991,36.582,69,35z" style="fill:#F8E1C2;"/></g><g><path d="M30,40c0,2.209,11.193,5,25,5v-9C41.193,36,30,37.791,30,40z" style="fill:#F8E1C2;"/></g><g><path d="M41,35c0.009,1.582,0,2,0,4c3.538,1.54,9.429,2,14,2V23C47.128,23,40.96,27.953,41,35z" style="fill:#FCF1E2;"/></g><g><polygon points="67,68 65,66 55,75 62,80    " style="fill:#E2E4E5;"/></g><g><polygon points="43,68 45,66 55,75 48,80    " style="fill:#E2E4E5;"/></g></g></g></svg>