<?xml version="1.0" ?><!DOCTYPE svg  PUBLIC '-//W3C//DTD SVG 1.0//EN'  'http://www.w3.org/TR/2001/REC-SVG-20010904/DTD/svg10.dtd'><svg height="110px" style="enable-background:new 0 0 110 110;" version="1.0" viewBox="0 0 110 110" width="110px" xml:space="preserve" xmlns="http://www.w3.org/2000/svg" xmlns:xlink="http://www.w3.org/1999/xlink"><g id="Artboard"/><g id="Multicolor"><g><circle cx="55" cy="55" r="55" style="fill:#25B7D3;"/></g><g><g><path d="M87,87.003l-4-11c-0.615-1.333-1.698-2.394-3.043-2.983L67,68.003l-12,19H87z" style="fill:#3E3E3F;"/></g><path d="M65,62.964l-5.105,3.995c-0.569,0.639-1.384,1.005-2.24,1.005H55h-2.655    c-0.856,0-1.671-0.366-2.24-1.005L45,62.964v4.039l-2,1l12,19.003l12-19.003l-2-1V62.964z M55,75.006L54.992,75    c0.003,0,0.005,0,0.008,0s0.005,0,0.008,0L55,75.006z" style="fill:#F7B4B4;"/><g><path d="M23,87.003l4-11c0.615-1.333,1.698-2.394,3.043-2.983L43,68.003l12,19H23z" style="fill:#3E3E3F;"/></g><path d="M50.105,66.959L45,62.964v4.039l-2,1l12,19.003v-12L54.992,75c0.003,0,0.005,0,0.008,0v-7.036    h-2.655C51.489,67.964,50.674,67.599,50.105,66.959z" style="fill:#FBC8C8;"/><path d="M70.917,45.309C70.727,47.074,70.097,50,68,50c0-3,0-8,0-8s-1,4-5,4c0-4,0-11,0-11s-2,11-10,11    c0-2,0-7,0-7s-3,7-7,7c0-3,0-6,0-6l-4,5v5c0,0-0.45-0.303-1-0.901v3.865l4,10l5.105,3.995c0.569,0.639,1.384,1.005,2.24,1.005H55    h2.655c0.856,0,1.671-0.366,2.24-1.005L65,62.964l3.193-7.982C71.039,54.791,72,50.481,72,47.222    C72,46.464,71.53,45.714,70.917,45.309z" style="fill:#FBC8C8;"/><path d="M53,39c0,0-3,7-7,7c0-3,0-6,0-6l-4,5v5c0,0-2.349-1.572-2.887-4.71    C38.484,45.69,38,46.452,38,47.222c0,3.259,0.961,7.568,3.807,7.76L45,62.964l5.105,3.995c0.569,0.64,1.384,1.005,2.24,1.005H55    V45.75c-0.622,0.16-1.286,0.25-2,0.25C53,44,53,39,53,39z" style="fill:#FBD7D7;"/><g><path d="M50,56.997h10c0,0,0,3-5,3S50,56.997,50,56.997z" style="fill:#F79392;"/></g><g><path d="M71,44c0-9.941-6.059-18-16-18s-16,8.059-16,18c0,4,3,6,3,6v-5l4-5c0,0,0,3,0,6c4,0,7-7,7-7     s0,5,0,7c8,0,10-11,10-11s0,7,0,11c4,0,5-4,5-4s0,5,0,8C71,50,71,44,71,44z" style="fill:#84462D;"/></g><path d="M39,44c0,4,3,6,3,6v-5l4-5c0,0,0,3,0,6c4,0,7-7,7-7s0,5,0,7c0.714,0,1.378-0.091,2-0.25V26    C45.059,26,39,34.059,39,44z" style="fill:#9C6144;"/><g><g><path d="M69.963,45.448c-2.083-1.5-14.958-0.479-14.958-0.479s-12.958-1.021-15.042,0.479      c0,0-0.083,1.958,0,3c2,1,0.666,2.667,2,3c1.667,0.417,8.708,1,10,0c1.362-1.055,2-4,3-4s1.638,2.945,3,4      c1.292,1,8.333,0.417,10,0c1.334-0.333,0-2,2-3C70.046,47.406,69.963,45.448,69.963,45.448z" style="fill:#3E3E3F;"/></g><g><path d="M42.882,50.185c-0.961-1.921-0.644-4.307,0.242-4.428c0.886-0.121,7.084-0.805,9.499,0.362      c0.963,0.465-0.281,4.517-1.691,4.669C47.953,51.11,43.405,51.231,42.882,50.185z" style="fill:#FACB1B;"/></g><g><path d="M67.4,50.267c0.961-1.921,0.644-4.307-0.242-4.428c-0.886-0.121-7.084-0.805-9.499,0.362      c-0.963,0.465,0.281,4.517,1.691,4.669C62.328,51.193,66.877,51.314,67.4,50.267z" style="fill:#FACB1B;"/></g><g><path d="M43.123,45.754c-0.886,0.121-1.202,2.507-0.241,4.428c0.066,0.133,0.199,0.247,0.383,0.344      l4.442-5.077C45.588,45.466,43.596,45.689,43.123,45.754z" style="fill:#FBE158;"/></g><g><path d="M57.628,46.181c-0.894,0.433,0.115,3.953,1.393,4.576l4.567-5.22      C61.472,45.456,58.968,45.533,57.628,46.181z" style="fill:#FBE158;"/></g></g></g></g></svg>