<?xml version="1.0" ?><!DOCTYPE svg  PUBLIC '-//W3C//DTD SVG 1.0//EN'  'http://www.w3.org/TR/2001/REC-SVG-20010904/DTD/svg10.dtd'><svg height="110px" style="enable-background:new 0 0 110 110;" version="1.0" viewBox="0 0 110 110" width="110px" xml:space="preserve" xmlns="http://www.w3.org/2000/svg" xmlns:xlink="http://www.w3.org/1999/xlink"><g id="Artboard"/><g id="Multicolor"><circle cx="55" cy="55" r="55" style="fill:#FABC3D;"/><g><g><path d="M86.98,63.654c-3.549-24.836-2.946-35.479-11.629-35.652c-5.964-0.111-7.421,4.957-7.493,10.896     c-0.022,1.104,0.855,2.018,1.959,2.04c1.082,0.002,2.018-0.855,2.04-1.959c0.049-3.746,0.217-7.044,3.414-6.977     c3.756,0.075,4.365,6.102,6.436,22.413c-2.325-1.814-5.243-2.905-8.421-2.905c-5.475,0-10.187,3.216-12.386,7.855     c-1.787-0.856-3.784-1.344-5.9-1.344c-2.115,0-4.113,0.488-5.9,1.344c-2.199-4.639-6.911-7.855-12.386-7.855     c-3.178,0-6.096,1.091-8.421,2.905c2.071-16.303,2.679-22.338,6.436-22.413c3.35-0.074,3.371,3.656,3.414,6.977     c0.022,1.104,0.958,1.979,2.04,1.959c1.104-0.022,1.982-0.935,1.959-2.04c-0.072-5.972-1.541-11-7.493-10.896     c-8.68,0.173-8.077,10.797-11.629,35.652c0,0-0.02,1.568-0.02,1.569c0,7.574,6.14,13.714,13.714,13.714     s13.714-6.14,13.714-13.714c0-0.46-0.025-0.915-0.069-1.363c1.359-0.806,2.945-1.269,4.64-1.269s3.281,0.463,4.64,1.269     c-0.044,0.448-0.069,0.903-0.069,1.363c0,7.574,6.14,13.714,13.714,13.714S87,72.797,87,65.223     C87,65.222,86.98,63.654,86.98,63.654z" style="fill:#3E3E3F;"/></g><g><circle cx="73.286" cy="65.223" r="11.429" style="fill:#6FDAF1;"/></g><g><circle cx="36.714" cy="65.223" r="11.429" style="fill:#6FDAF1;"/></g><g><path d="M44.597,56.961c-2.051-1.958-4.823-3.167-7.882-3.167c-6.312,0-11.429,5.117-11.429,11.429     c0,2.358,0.715,4.548,1.939,6.368L44.597,56.961z" style="fill:#9CE5F4;"/></g><g><path d="M81.168,56.961c-2.051-1.958-4.823-3.167-7.882-3.167c-6.312,0-11.429,5.117-11.429,11.429     c0,2.358,0.715,4.548,1.939,6.368L81.168,56.961z" style="fill:#9CE5F4;"/></g></g></g></svg>