<?xml version="1.0" ?><!DOCTYPE svg  PUBLIC '-//W3C//DTD SVG 1.0//EN'  'http://www.w3.org/TR/2001/REC-SVG-20010904/DTD/svg10.dtd'><svg height="110px" style="enable-background:new 0 0 110 110;" version="1.0" viewBox="0 0 110 110" width="110px" xml:space="preserve" xmlns="http://www.w3.org/2000/svg" xmlns:xlink="http://www.w3.org/1999/xlink"><g id="Artboard"/><g id="Multicolor"><g><circle cx="55" cy="55" r="55" style="fill:#32BEA6;"/></g><g><g><path d="M83,73.964c-0.615-1.333-1.698-2.395-3.043-2.983L65,66.964H55H45l-14.957,4.017     c-1.345,0.588-2.428,1.65-3.043,2.983L23,87h64L83,73.964z" style="fill:#3E3E3F;"/></g><path d="M57.655,65.964H55h-2.655c-0.856,0-1.671-0.365-2.24-1.004L45,60.964V68c0,0,2,4,10,4s10-4,10-4    v-7.036l-5.105,3.996C59.326,65.598,58.511,65.964,57.655,65.964z" style="fill:#F7B4B4;"/><path d="M50.105,64.959L45,60.964V68c0,0,2,4,10,4v-6.036h-2.655    C51.489,65.964,50.674,65.598,50.105,64.959z" style="fill:#FBC8C8;"/><path d="M72,45.222C72,44.111,71,43,70,43c-0.348,0-0.694,0-1,0v-0.036C68.982,33.964,67.976,26,55,26    s-13.982,7.964-14,16.964v8l4,10l5.105,3.996c0.569,0.639,1.384,1.004,2.24,1.004H55h2.655c0.856,0,1.671-0.365,2.24-1.004    L65,60.964l3.193-7.982C71.039,52.791,72,48.481,72,45.222z" style="fill:#FBC8C8;"/><path d="M41,42.964V43c-0.306,0-0.652,0-1,0c-1,0-2,1.111-2,2.222c0,3.259,0.961,7.568,3.807,7.76    L45,60.964l5.105,3.996c0.569,0.639,1.384,1.004,2.24,1.004H55V26C42.024,26,41.018,33.964,41,42.964z" style="fill:#FBD7D7;"/><g><path d="M55,52c0,0-6,0-9,2c0,7,5,12,5,12l4,2l4-2c0,0,5-5,5-12C61,52,55,52,55,52z M57,60l-1-1h-1h-1     l-1,1h-2l-1.183-1.971c-0.371-0.618-0.38-1.387-0.025-2.014S50.812,55,51.532,55H55h3.468c0.721,0,1.385,0.388,1.74,1.015     s0.345,1.397-0.025,2.014L59,60H57z" style="fill:#3E3E3F;"/></g><g><path d="M58.302,79.685c0.058-0.038,0.083-0.11,0.063-0.176c-0.02-0.066-0.081-0.112-0.15-0.112h-3.612     l4.351-4.129c0.045-0.045,0.058-0.112,0.034-0.171C58.964,75.038,58.906,75,58.843,75h-4.164c-0.048,0-0.094,0.022-0.124,0.061     l-4.317,5.34c-0.037,0.047-0.043,0.112-0.017,0.165c0.026,0.054,0.081,0.088,0.141,0.088h2.984l-3.73,4.137     c-0.052,0.059-0.052,0.148,0,0.207c0.052,0.059,0.14,0.071,0.205,0.027L58.302,79.685z" style="fill:#FBE158;"/></g><g><path d="M51.758,45c0-1.104-0.896-2-2-2c-0.002,0-0.004,0-0.006,0c0.001,0.021,0.006,0.041,0.006,0.062     c0,1.103-0.892,1.996-1.994,2C47.797,46.137,48.674,47,49.758,47C50.862,47,51.758,46.104,51.758,45z" style="fill:#3E3E3F;"/></g><g><path d="M61.751,45c0-1.104-0.896-2-2-2c-0.002,0-0.004,0-0.006,0c0.001,0.021,0.006,0.041,0.006,0.062     c0,1.103-0.892,1.996-1.994,2C57.791,46.137,58.668,47,59.751,47C60.856,47,61.751,46.104,61.751,45z" style="fill:#3E3E3F;"/></g><path d="M55,26c-8.648,0-11.977,3.54-13.242,8.564C47,29,50,35,55,35s8-6,13.242-0.436    C66.977,29.54,63.648,26,55,26z" style="fill:#3E3E3F;"/><g><circle cx="69.5" cy="51.5" r="1.5" style="fill:#3E3E3F;"/></g></g></g></svg>