<?xml version="1.0" ?><!DOCTYPE svg  PUBLIC '-//W3C//DTD SVG 1.0//EN'  'http://www.w3.org/TR/2001/REC-SVG-20010904/DTD/svg10.dtd'><svg height="110px" style="enable-background:new 0 0 110 110;" version="1.0" viewBox="0 0 110 110" width="110px" xml:space="preserve" xmlns="http://www.w3.org/2000/svg" xmlns:xlink="http://www.w3.org/1999/xlink"><g id="Artboard"/><g id="Multicolor"><circle cx="55" cy="55" r="55" style="fill:#E04F5F;"/><g><rect height="48" style="fill:#F0F1F1;" width="64" x="23" y="31"/><path d="M60.979,49.685C59.461,47.977,57.285,47,55,47s-4.461,0.977-5.979,2.685L23,78.958h64    L60.979,49.685z" style="fill:#E2E4E5;"/><path d="M49.021,60.273c1.518,1.708,3.694,2.685,5.979,2.685s4.461-0.977,5.979-2.685L87,31H23    L49.021,60.273z" style="fill:#FFFFFF;"/><g><path d="M54.966,65.397c0,0,11.965-6.902,11.965-14.531c0-7.629-11.965-7.439-11.965-1.615     c0-5.824-11.966-6.014-11.966,2.202S54.966,65.397,54.966,65.397z" style="fill:#DF2C2C;"/></g></g></g></svg>