<?xml version="1.0" ?><!DOCTYPE svg  PUBLIC '-//W3C//DTD SVG 1.0//EN'  'http://www.w3.org/TR/2001/REC-SVG-20010904/DTD/svg10.dtd'><svg height="110px" style="enable-background:new 0 0 110 110;" version="1.0" viewBox="0 0 110 110" width="110px" xml:space="preserve" xmlns="http://www.w3.org/2000/svg" xmlns:xlink="http://www.w3.org/1999/xlink"><g id="Artboard"/><g id="Multicolor"><circle cx="55" cy="55" r="55" style="fill:#32BEA6;"/><g><rect height="14" style="fill:#3E3E3F;" width="12" x="47" y="23"/><circle cx="53" cy="30" r="5" style="fill:#5B5C5F;"/><rect height="18" style="fill:#F0F1F1;" width="52" x="27" y="65"/><rect height="6" style="fill:#CFD3D4;" width="52" x="27" y="59"/><polygon points="27,59 35,47 71,47 79,59   " style="fill:#FFFFFF;"/><path d="M85,63h-2v10h2c1.104,0,2-0.896,2-2v-6C87,63.896,86.104,63,85,63z" style="fill:#3E3E3F;"/><g><path d="M83,75h-4V41c0-2.206-1.794-4-4-4H59v-4h16c4.411,0,8,3.589,8,8V75z" style="fill:#FFFFFF;"/></g><path d="M69,85c0,1.105,0.895,2,2,2h4c1.105,0,2-0.895,2-2v-2h-8V85z" style="fill:#3E3E3F;"/><path d="M29,85c0,1.105,0.895,2,2,2h4c1.105,0,2-0.895,2-2v-2h-8V85z" style="fill:#3E3E3F;"/><rect height="8" style="fill:#CFD3D4;" width="2" x="72" y="71"/><rect height="8" style="fill:#CFD3D4;" width="2" x="67" y="71"/><rect height="8" style="fill:#CFD3D4;" width="2" x="62" y="71"/><polygon points="32,57 37,49 69,49 74,57   " style="fill:#6FDAF1;"/><path d="M43,39c0,1.105,0.895,2,2,2h16c1.105,0,2-0.895,2-2s-0.895-2-2-2H45C43.895,37,43,37.895,43,39z" style="fill:#5B5C5F;"/><circle cx="53" cy="30" r="3" style="fill:#6FDAF1;"/><polygon points="57,43 49,43 47,41 59,41   " style="fill:#3E3E3F;"/><polygon points="27,59 27,65 54.869,65 60.869,59   " style="fill:#E2E4E5;"/><polygon points="27,65 27,83 36.869,83 54.869,65   " style="fill:#FFFFFF;"/><rect height="3" style="fill:#FA5655;" width="4" x="31" y="76"/><rect height="3" style="fill:#32BEA6;" width="4" x="36" y="76"/></g></g></svg>