<?xml version="1.0" ?><!DOCTYPE svg  PUBLIC '-//W3C//DTD SVG 1.0//EN'  'http://www.w3.org/TR/2001/REC-SVG-20010904/DTD/svg10.dtd'><svg height="110px" style="enable-background:new 0 0 110 110;" version="1.0" viewBox="0 0 110 110" width="110px" xml:space="preserve" xmlns="http://www.w3.org/2000/svg" xmlns:xlink="http://www.w3.org/1999/xlink"><g id="Artboard"/><g id="Multicolor"><circle cx="55" cy="55" r="55" style="fill:#32BEA6;"/><g><path d="M79,35c0-2.209-1.791-4-4-4H35c-2.209,0-4,1.791-4,4v28h48V35z" style="fill:#3E3E3F;"/><path d="M31,35v28h11.062l32-32H35C32.791,31,31,32.791,31,35z" style="fill:#5B5C5F;"/><path d="M84.172,85.828C83.421,86.579,82.404,87,81.343,87H28.657c-1.061,0-2.078-0.421-2.828-1.172L23,83    h64L84.172,85.828z" style="fill:#FFFFFF;"/><polygon points="79,63 31,63 23,83 87,83   " style="fill:#F0F1F1;"/><path d="M61.447,76.894C61.201,76.402,60.55,76,60,76H50c-0.55,0-1.201,0.402-1.447,0.894l-1.106,2.211    C47.201,79.598,47.45,80,48,80h14c0.55,0,0.799-0.402,0.553-0.894L61.447,76.894z" style="fill:#CFD3D4;"/><path d="M75,72c0,0.55-0.45,1-1,1H37c-0.55,0-1-0.45-1-1l0,0c0-0.55,0.45-1,1-1h37C74.55,71,75,71.45,75,72    L75,72z" style="fill:#CFD3D4;"/><path d="M73.227,68c0,0.55-0.45,1-1,1H38.773c-0.55,0-1-0.45-1-1l0,0c0-0.55,0.45-1,1-1h33.455    C72.777,67,73.227,67.45,73.227,68L73.227,68z" style="fill:#CFD3D4;"/><g><path d="M64,43H47.374l-1.455-3.394C45.761,39.238,45.4,39,45,39h-3c-0.552,0-1,0.448-1,1s0.448,1,1,1     h1.681c0.4,0,0.761,0.238,0.919,0.606l5.48,12.788C50.239,54.762,50.6,55,51,55h8c0.552,0,1-0.448,1-1s-0.448-1-1-1h-6.681     c-0.4,0-0.761-0.238-0.919-0.606L50.802,51H60c0.55,0,1.201-0.402,1.447-0.895l3.105-6.211C64.799,43.402,64.55,43,64,43z" style="fill:#FFFFFF;"/><circle cx="57.5" cy="57.5" r="1.5" style="fill:#FFFFFF;"/><circle cx="51.875" cy="57.5" r="1.5" style="fill:#FFFFFF;"/></g><polygon points="42.062,63 31,63 23.625,81.438   " style="fill:#FFFFFF;"/></g></g></svg>