<?xml version="1.0" ?><!DOCTYPE svg  PUBLIC '-//W3C//DTD SVG 1.0//EN'  'http://www.w3.org/TR/2001/REC-SVG-20010904/DTD/svg10.dtd'><svg height="110px" style="enable-background:new 0 0 110 110;" version="1.0" viewBox="0 0 110 110" width="110px" xml:space="preserve" xmlns="http://www.w3.org/2000/svg" xmlns:xlink="http://www.w3.org/1999/xlink"><g id="Artboard"/><g id="Multicolor"><circle cx="55" cy="55" r="55" style="fill:#32BEA6;"/><g><g><path d="M78.905,63V51c0-13.255-10.745-24-24-24s-24,10.745-24,24v12l-7.011,7.011     c-0.229,0.229-0.333,0.556-0.279,0.875c0.055,0.32,0.261,0.593,0.553,0.733c20.491,9.841,40.982,9.841,61.473,0     c0.292-0.14,0.498-0.414,0.553-0.733c0.055-0.32-0.049-0.646-0.278-0.875L78.905,63z" style="fill:#F8E1C2;"/></g><g><path d="M30.905,51v12l-7.011,7.011c-0.229,0.229-0.333,0.555-0.279,0.875     c0.055,0.32,0.261,0.593,0.553,0.733C34.414,76.54,44.66,79,54.905,79V27C41.65,27,30.905,37.745,30.905,51z" style="fill:#FCF1E2;"/></g><g><rect height="4" style="fill:#A97A45;" width="48" x="30.905" y="59"/></g><g><path d="M82.917,55.604l-4.84,1.823l2.133-4.711c0.455-1.006,0.009-2.191-0.997-2.647     c-1.006-0.456-2.191-0.009-2.647,0.997l-2.133,4.711l-1.823-4.84c-0.389-1.034-1.543-1.556-2.577-1.167     c-1.034,0.389-1.556,1.543-1.167,2.577l1.823,4.84l-4.711-2.133c-1.006-0.456-2.191-0.009-2.647,0.997     c-0.456,1.006-0.009,2.191,0.997,2.647l4.711,2.133l-4.84,1.823c-1.034,0.389-1.556,1.543-1.167,2.577s1.543,1.556,2.577,1.167     l4.84-1.823l-2.133,4.711c-0.456,1.006-0.009,2.191,0.997,2.647c1.006,0.456,2.191,0.009,2.647-0.997l2.133-4.711l1.823,4.84     c0.389,1.034,1.543,1.556,2.577,1.167c1.034-0.389,1.556-1.543,1.167-2.577l-1.823-4.84l4.711,2.133     c1.006,0.456,2.191,0.009,2.647-0.997c0.455-1.006,0.009-2.191-0.997-2.647l-4.711-2.133l4.84-1.823     c1.034-0.389,1.556-1.543,1.167-2.577C85.104,55.737,83.951,55.214,82.917,55.604z" style="fill:#FA5655;"/></g><g><circle cx="74.264" cy="61" r="3" style="fill:#FACB1B;"/></g><g><rect height="4" style="fill:#D4A263;" width="24" x="30.905" y="59"/></g></g></g></svg>