<?xml version="1.0" ?><!DOCTYPE svg  PUBLIC '-//W3C//DTD SVG 1.0//EN'  'http://www.w3.org/TR/2001/REC-SVG-20010904/DTD/svg10.dtd'><svg height="110px" style="enable-background:new 0 0 110 110;" version="1.0" viewBox="0 0 110 110" width="110px" xml:space="preserve" xmlns="http://www.w3.org/2000/svg" xmlns:xlink="http://www.w3.org/1999/xlink"><g id="Artboard"/><g id="Multicolor"><circle cx="55" cy="55" r="55" style="fill:#E04F5F;"/><g><rect height="56" style="fill:#FBE158;" width="32" x="27" y="27"/><rect height="44" style="fill:#F99134;" width="24" x="59" y="27"/><polygon points="23,23 87,23 83,27 27,27   " style="fill:#FFFFFF;"/><polygon points="23,87 59,87 59,83 27,83   " style="fill:#FFFFFF;"/><rect height="16" style="fill:#CFD3D4;" width="24" x="59" y="71"/><path d="M79,71H63V58c0-4.418,3.582-8,8-8s8,3.582,8,8V71z" style="fill:#FFFFFF;"/><path d="M66,58c0-2.761,2.239-5,5-5s5,2.239,5,5H66z" style="fill:#40C9E7;"/><rect height="11" style="fill:#E2E4E5;" width="10" x="66" y="60"/><rect height="2" style="fill:#F0F1F1;" width="24" x="59" y="83"/><rect height="2" style="fill:#F0F1F1;" width="24" x="59" y="79"/><rect height="2" style="fill:#F0F1F1;" width="24" x="59" y="75"/><rect height="2" style="fill:#F0F1F1;" width="24" x="59" y="71"/><path d="M71,43c-2.757,0-5-2.243-5-5s2.243-5,5-5s5,2.243,5,5S73.757,43,71,43z" style="fill:#40C9E7;"/><path d="M71,33c2.757,0,5,2.243,5,5s-2.243,5-5,5s-5-2.243-5-5S68.243,33,71,33 M71,31    c-3.866,0-7,3.134-7,7s3.134,7,7,7s7-3.134,7-7S74.866,31,71,31L71,31z" style="fill:#FFFFFF;"/><path d="M41,78H31V63c0-2.761,2.239-5,5-5s5,2.239,5,5V78z" style="fill:#40C9E7;"/><rect height="7" style="fill:#40C9E7;" width="10" x="31" y="71"/><path d="M55,78H45V63c0-2.761,2.239-5,5-5s5,2.239,5,5V78z" style="fill:#40C9E7;"/><rect height="7" style="fill:#40C9E7;" width="10" x="45" y="71"/><path d="M55,51H45V36c0-2.761,2.239-5,5-5s5,2.239,5,5V51z" style="fill:#40C9E7;"/><rect height="7" style="fill:#40C9E7;" width="10" x="45" y="44"/><path d="M55,37.35V36c0-2.761-2.239-5-5-5s-5,2.239-5,5v11.35L55,37.35z" style="fill:#6FDAF1;"/><polygon points="48.35,44 45,44 45,47.35   " style="fill:#6FDAF1;"/><path d="M41,64.35V63c0-2.761-2.239-5-5-5s-5,2.239-5,5v11.35L41,64.35z" style="fill:#6FDAF1;"/><polygon points="34.35,71 31,71 31,74.35   " style="fill:#6FDAF1;"/><path d="M55,64.35V63c0-2.761-2.239-5-5-5s-5,2.239-5,5v11.35L55,64.35z" style="fill:#6FDAF1;"/><polygon points="48.35,71 45,71 45,74.35   " style="fill:#6FDAF1;"/><rect height="2" style="fill:#FFFFFF;" width="10" x="45" y="42"/><rect height="2" style="fill:#FFFFFF;" width="10" x="31" y="69"/><rect height="2" style="fill:#FFFFFF;" width="10" x="45" y="69"/><polygon points="23,51 59,51 59,55 27,55   " style="fill:#FFFFFF;"/><path d="M41,51H31V36c0-2.761,2.239-5,5-5s5,2.239,5,5V51z" style="fill:#40C9E7;"/><rect height="7" style="fill:#40C9E7;" width="10" x="31" y="44"/><path d="M41,37.35V36c0-2.761-2.239-5-5-5s-5,2.239-5,5v11.35L41,37.35z" style="fill:#6FDAF1;"/><rect height="2" style="fill:#FFFFFF;" width="10" x="31" y="42"/><path d="M83,87h4V65c0-1.105-0.895-2-2-2s-2,0.895-2,2V87z" style="fill:#FFFFFF;"/></g></g></svg>