<?xml version="1.0" ?><!DOCTYPE svg  PUBLIC '-//W3C//DTD SVG 1.0//EN'  'http://www.w3.org/TR/2001/REC-SVG-20010904/DTD/svg10.dtd'><svg height="110px" style="enable-background:new 0 0 110 110;" version="1.0" viewBox="0 0 110 110" width="110px" xml:space="preserve" xmlns="http://www.w3.org/2000/svg" xmlns:xlink="http://www.w3.org/1999/xlink"><g id="Artboard"/><g id="Multicolor"><circle cx="55" cy="55" r="55" style="fill:#32BEA6;"/><g><g><path d="M84.9,50.69l-3.44-10.32c-0.28-0.82-1.04-1.37-1.9-1.37H71c-1.1,0-2,0.9-2,2v24H29V46     c0-1.657-1.343-3-3-3s-3,1.343-3,3v21v8c0,1.1,0.9,2,2,2h58c1.1,0,2-0.9,2-2V51.32C85,51.11,84.97,50.9,84.9,50.69z" style="fill:#FACB1B;"/></g><g><path d="M69,43v4c0,0.68-0.04,1.34-0.12,2C67.794,57.205,60.912,63,53,63h-8     c-8.282,0-14.962-6.274-15.87-14C29.04,48.34,29,47.68,29,47v-4l8-12h24L69,43z" style="fill:#F0F1F1;"/></g><g><path d="M49,31H37l-8,12v4c0,0.68,0.04,1.34,0.13,2c0.908,7.726,7.588,14,15.87,14h4V31z" style="fill:#FFFFFF;"/></g><g><path d="M79,44c0,0.552-0.448,1-1,1h-6c-0.552,0-1-0.448-1-1s0.448-1,1-1h6C78.552,43,79,43.448,79,44z" style="fill:#F3B607;"/></g><g><path d="M81,48c0,0.552-0.448,1-1,1h-8c-0.552,0-1-0.448-1-1s0.448-1,1-1h8C80.552,47,81,47.448,81,48z" style="fill:#F3B607;"/></g><g><path d="M81,52c0,0.552-0.448,1-1,1h-8c-0.552,0-1-0.448-1-1s0.448-1,1-1h8C80.552,51,81,51.448,81,52z" style="fill:#F3B607;"/></g><g><circle cx="77" cy="81" r="6" style="fill:#3E3E3F;"/></g><g><circle cx="77" cy="81" r="2" style="fill:#CFD3D4;"/></g><g><path d="M69,43v4c0,0.68-0.04,1.34-0.12,2c-0.09,0.68-0.22,1.35-0.38,2h-39c-0.16-0.65-0.29-1.32-0.37-2     C29.04,48.34,29,47.68,29,47v-4H69z" style="fill:#B6BCBD;"/></g><g><path d="M49,43H29v4c0,0.68,0.04,1.34,0.13,2c0.08,0.68,0.21,1.35,0.37,2H49V43z" style="fill:#CFD3D4;"/></g><g><path d="M49,65H29V46c0-1.657-1.343-3-3-3s-3,1.343-3,3v21v8c0,1.1,0.9,2,2,2h24V65z" style="fill:#FBE158;"/></g><g><circle cx="33" cy="81" r="6" style="fill:#3E3E3F;"/></g><g><circle cx="33" cy="81" r="2" style="fill:#CFD3D4;"/></g></g></g></svg>