<?xml version="1.0" ?><!DOCTYPE svg  PUBLIC '-//W3C//DTD SVG 1.0//EN'  'http://www.w3.org/TR/2001/REC-SVG-20010904/DTD/svg10.dtd'><svg height="110px" style="enable-background:new 0 0 110 110;" version="1.0" viewBox="0 0 110 110" width="110px" xml:space="preserve" xmlns="http://www.w3.org/2000/svg" xmlns:xlink="http://www.w3.org/1999/xlink"><g id="Artboard"/><g id="Multicolor"><circle cx="55" cy="55" r="55" style="fill:#25B7D3;"/><g><g><path d="M64,67c0,0,2.154-6.949,5-6c2.871,0.957,2.384,8.327-0.586,14.218     c-0.314,0.622-0.786,1.155-1.368,1.538C62.403,79.815,53.195,79,45,79C37,79,31.942,62.993,64,67z" style="fill:#6FDAF1;"/></g><g><path d="M44.69,78.981l12.555-12.555C33.114,65.398,37.488,78.605,44.69,78.981z" style="fill:#9CE5F4;"/></g><path d="M78.313,39c-0.184-0.128-22.683-15.795-22.886-15.893c0,0-0.001-0.001-0.002-0.001    c-0.297-0.141-0.646-0.138-0.936,0.033L27.726,39h3.923l19.634-11.635L42.719,39h2.473L55,25.586L64.808,39h2.473l-7.902-10.736    L74.812,39H78.313z" style="fill:#F0F1F1;"/><g><path d="M87,43c0,1.105-0.895,2-2,2H25c-1.105,0-2-0.895-2-2v-2c0-1.105,0.895-2,2-2h60     c1.105,0,2,0.895,2,2V43z" style="fill:#DF2C2C;"/></g><g><path d="M35,51v-6h-2v6.437C33.614,51.166,34.285,51,35,51z" style="fill:#F0F1F1;"/></g><g><path d="M27,62.95V63c4.472,0,10.48,0,14.944,0c2.097-2.05,0.894-5.631-2.056-5.961     C40.552,53.908,38.163,51,35,51c-2.371,0-4.347,1.655-4.861,3.87C27.171,52.707,23,54.823,23,58.5     C23,60.814,24.753,62.698,27,62.95z" style="fill:#F0F1F1;"/></g><g><path d="M77,51.683V45h-2v8h0.105C75.656,52.461,76.296,52.017,77,51.683z" style="fill:#F0F1F1;"/></g><g><path d="M83,63c-2.761,0-5-2.239-5-5s2.239-5,5-5c0.923,0,1.776,0.267,2.518,0.703     C84.237,52.061,82.245,51,80,51c-3.866,0-7,3.134-7,7s3.134,7,7,7c2.245,0,4.237-1.061,5.518-2.703     C84.776,62.733,83.923,63,83,63z" style="fill:#FBE158;"/></g><g><path d="M56,66.374V45h-2v21.366C54.645,66.358,55.305,66.357,56,66.374z" style="fill:#F0F1F1;"/></g><g><path d="M49.386,78.374c-0.281-0.288-0.363-0.716-0.206-1.087c0.156-0.371,0.519-0.612,0.922-0.612     c2.374,0,5.817,0,7.129,0c0.3,0,0.586,0.135,0.776,0.368c0.915,1.123,2.457,2.947,2.901,4.355c0.2,0.635,0.072,1.328-0.343,1.849     c-0.415,0.521-1.062,0.8-1.726,0.746C55.274,83.705,51.912,80.959,49.386,78.374z" style="fill:#9CE5F4;"/></g><g><circle cx="46" cy="73" r="2" style="fill:#21B2D1;"/></g><g><circle cx="54" cy="73" r="2" style="fill:#21B2D1;"/></g><g><circle cx="62" cy="73" r="2" style="fill:#21B2D1;"/></g><g><path d="M73,58c0,1.424,0.428,2.748,1.159,3.854l3.842-3.842C78.001,58.007,78,58.004,78,58     c0-2.761,2.239-5,5-5l0.011,0.001l0.839-0.839C82.746,51.43,81.425,51,80,51C76.134,51,73,54.134,73,58z" style="fill:#FBEC9A;"/></g><g><path d="M30.139,54.87C27.17,52.707,23,54.823,23,58.5c0,1.859,1.14,3.424,2.749,4.104l11.202-11.202     C36.354,51.148,35.698,51,35,51C32.629,51,30.653,52.655,30.139,54.87z" style="fill:#FFFFFF;"/></g><g><path d="M55,39H25c-1.104,0-2,0.896-2,2v2c0,1.104,0.896,2,2,2h30V39z" style="fill:#FA5655;"/></g></g></g></svg>