<?xml version="1.0" ?><!DOCTYPE svg  PUBLIC '-//W3C//DTD SVG 1.0//EN'  'http://www.w3.org/TR/2001/REC-SVG-20010904/DTD/svg10.dtd'><svg height="110px" style="enable-background:new 0 0 110 110;" version="1.0" viewBox="0 0 110 110" width="110px" xml:space="preserve" xmlns="http://www.w3.org/2000/svg" xmlns:xlink="http://www.w3.org/1999/xlink"><g id="Artboard"/><g id="Multicolor"><circle cx="55" cy="55" r="55" style="fill:#E04F5F;"/><g><g><path d="M87,50c0,17.673-24,37-32,37S23,67.673,23,50s14.327-27,32-27S87,32.327,87,50z" style="fill:#E2E4E5;"/></g><g><path d="M59,67c0,0-4-20,20-20C79,47,81,67,59,67z" style="fill:#3E3E3F;"/></g><g><path d="M23,50c0,17.67,24,37,32,37V23C37.32,23,23,32.33,23,50z M51,67c-22,0-20-20-20-20     C55,47,51,67,51,67z" style="fill:#FFFFFF;"/></g><g><path d="M51,67c-22,0-20-20-20-20C55,47,51,67,51,67z" style="fill:#3E3E3F;"/></g></g></g></svg>