<?xml version="1.0" ?><!DOCTYPE svg  PUBLIC '-//W3C//DTD SVG 1.0//EN'  'http://www.w3.org/TR/2001/REC-SVG-20010904/DTD/svg10.dtd'><svg height="110px" style="enable-background:new 0 0 110 110;" version="1.0" viewBox="0 0 110 110" width="110px" xml:space="preserve" xmlns="http://www.w3.org/2000/svg" xmlns:xlink="http://www.w3.org/1999/xlink"><g id="Artboard"/><g id="Multicolor"><circle cx="55" cy="55" r="55" style="fill:#FABC3D;"/><g><g><path d="M55,23c-12,0-31.695,14.003-32,30c-0.219,11.479,4,22,32,22c26,0,32-11.57,32-22     C87,37,67,23,55,23z" style="fill:#FFFFFF;"/></g><g><ellipse cx="55" cy="83" rx="20" ry="4" style="fill:#F0F1F1;"/></g><g><path d="M51,75h8v7c-2.667,1.333-5.333,1.333-8,0V75z" style="fill:#CFD3D4;"/></g><g><path d="M55,29c-9,0-24,11-24,22s9,12,9,12h15h15c0,0,9-1,9-12S64,29,55,29z" style="fill:#CFD3D4;"/></g><g><path d="M55,51c-9.705,0-18.211,2.277-22.97,5.693C34.391,62.372,40,63,40,63h15h15     c0,0,5.609-0.628,7.97-6.307C73.211,53.277,64.705,51,55,51z" style="fill:#F37A10;"/></g><g><path d="M35,83c0,2.209,8.954,4,20,4v-8C43.954,79,35,80.791,35,83z" style="fill:#FFFFFF;"/></g><g><path d="M51,75v7c1.333,0.667,2.667,1,4,1v-8H51z" style="fill:#F0F1F1;"/></g></g></g></svg>