<?xml version="1.0" ?><!DOCTYPE svg  PUBLIC '-//W3C//DTD SVG 1.0//EN'  'http://www.w3.org/TR/2001/REC-SVG-20010904/DTD/svg10.dtd'><svg height="110px" style="enable-background:new 0 0 110 110;" version="1.0" viewBox="0 0 110 110" width="110px" xml:space="preserve" xmlns="http://www.w3.org/2000/svg" xmlns:xlink="http://www.w3.org/1999/xlink"><g id="Artboard"/><g id="Multicolor"><circle cx="55" cy="55" r="55" style="fill:#32BEA6;"/><g><path d="M71,31h-8v-4c0-2.209-1.791-4-4-4h-8c-2.209,0-4,1.791-4,4v4h-8c-3.314,0-6,2.687-6,6v44    c0,3.313,2.686,6,6,6h32c3.314,0,6-2.687,6-6V37C77,33.687,74.314,31,71,31z" style="fill:#FFFFFF;"/><path d="M73,81c0,1.105-0.895,2-2,2H39c-1.105,0-2-0.895-2-2V37c0-1.105,0.895-2,2-2h32    c1.105,0,2,0.895,2,2V81z" style="fill:#059BBF;"/><path d="M55,35H39c-1.104,0-2,0.896-2,2v44c0,1.104,0.896,2,2,2h16V35z" style="fill:#21B2D1;"/><polygon points="63,42.875 43.5,62.375 53.25,62.375 50,75.375 69.5,55.875 59.75,55.875   " style="fill:#FFFFFF;"/></g></g></svg>