<?xml version="1.0" ?><!DOCTYPE svg  PUBLIC '-//W3C//DTD SVG 1.0//EN'  'http://www.w3.org/TR/2001/REC-SVG-20010904/DTD/svg10.dtd'><svg height="110px" style="enable-background:new 0 0 110 110;" version="1.0" viewBox="0 0 110 110" width="110px" xml:space="preserve" xmlns="http://www.w3.org/2000/svg" xmlns:xlink="http://www.w3.org/1999/xlink"><g id="Artboard"/><g id="Multicolor"><circle cx="55" cy="55" r="55" style="fill:#25B7D3;"/><g><g><path d="M23,27c0-2.209,1.791-4,4-4h56c2.209,0,4,1.791,4,4v56c0,2.209-1.791,4-4,4H27     c-2.209,0-4-1.791-4-4V27z" style="fill:#84462D;"/></g><g><rect height="56" style="fill:#FFFFFF;" width="56" x="27" y="27"/></g><g><rect height="14" style="fill:#3E3E3F;" width="14" x="27" y="69"/></g><g><rect height="14" style="fill:#3E3E3F;" width="14" x="41" y="55"/></g><g><rect height="14" style="fill:#3E3E3F;" width="14" x="55" y="41"/></g><g><rect height="14" style="fill:#3E3E3F;" width="14" x="55" y="69"/></g><g><rect height="14" style="fill:#3E3E3F;" width="14" x="69" y="27"/></g><g><rect height="14" style="fill:#5B5C5F;" width="14" x="41" y="27"/></g><g><polygon points="55,41 41,41 55,27    " style="fill:#3E3E3F;"/></g><g><rect height="14" style="fill:#5B5C5F;" width="14" x="27" y="41"/></g><g><polygon points="41,55 27,55 41,41    " style="fill:#3E3E3F;"/></g><g><rect height="14" style="fill:#3E3E3F;" width="14" x="69" y="55"/></g><g><circle cx="48" cy="62" r="4" style="fill:#FFFFFF;"/></g><g><circle cx="76" cy="62" r="4" style="fill:#FFFFFF;"/></g><g><circle cx="62" cy="76" r="4" style="fill:#FFFFFF;"/></g><g><circle cx="34" cy="76" r="4" style="fill:#FFFFFF;"/></g></g></g></svg>