<?xml version="1.0" ?><!DOCTYPE svg  PUBLIC '-//W3C//DTD SVG 1.0//EN'  'http://www.w3.org/TR/2001/REC-SVG-20010904/DTD/svg10.dtd'><svg height="110px" style="enable-background:new 0 0 110 110;" version="1.0" viewBox="0 0 110 110" width="110px" xml:space="preserve" xmlns="http://www.w3.org/2000/svg" xmlns:xlink="http://www.w3.org/1999/xlink"><g id="Artboard"/><g id="Multicolor"><circle cx="55" cy="55" r="55" style="fill:#E04F5F;"/><g><path d="M81,34c0-1.105-0.895-2-2-2H31c-1.105,0-2,0.895-2,2v51c0,1.105,0.895,2,2,2h48    c1.105,0,2-0.895,2-2V34z" style="fill:#84462D;"/><rect height="47" style="fill:#FFFFFF;" width="44" x="33" y="36"/><path d="M65,29h-4c0-3.313-2.687-6-6-6s-6,2.687-6,6h-4c-1.104,0-2,0.896-2,2v8c0,1.104,0.896,2,2,2h20    c1.105,0,2-0.896,2-2v-8C67,29.896,66.104,29,65,29z M55,25c1.104,0,2,0.896,2,2s-0.896,2-2,2s-2-0.896-2-2S53.896,25,55,25z" style="fill:#FACB1B;"/><g><path d="M59.571,78.5c-3.309,0-6-2.692-6-6s2.691-6,6-6s6,2.692,6,6S62.88,78.5,59.571,78.5z M59.571,69.5     c-1.654,0-3,1.346-3,3s1.346,3,3,3s3-1.346,3-3S61.226,69.5,59.571,69.5z" style="fill:#DF2C2C;"/></g><polygon points="72.142,53.743 70.328,51.929 67.607,54.65 64.885,51.929 63.071,53.743 65.792,56.464     63.071,59.186 64.885,61 67.607,58.279 70.328,61 72.142,59.186 69.421,56.464   " style="fill:#5B5C5F;"/><polygon points="48.071,47.814 46.257,46 43.536,48.721 40.743,45.929 38.929,47.743 41.721,50.536     39,53.257 40.814,55.071 43.536,52.35 46.186,55 48,53.186 45.35,50.536   " style="fill:#5B5C5F;"/><path d="M59.167,52l-8.096,0.947l2.231,2.348C50.264,57.099,42.571,62.864,42.571,75    c0,0.828,0.671,1.5,1.5,1.5s1.5-0.672,1.5-1.5c0-11.708,8.142-16.568,9.862-17.463l2.376,2.5L59.167,52z" style="fill:#DF2C2C;"/><path d="M65,29h-4c0-3.313-2.687-6-6-6s-6,2.687-6,6h-4c-1.104,0-2,0.896-2,2v4h24v-4    C67,29.896,66.104,29,65,29z M55,29c-1.104,0-2-0.896-2-2s0.896-2,2-2s2,0.896,2,2S56.104,29,55,29z" style="fill:#FBE158;"/></g></g></svg>