<?xml version="1.0" ?><!DOCTYPE svg  PUBLIC '-//W3C//DTD SVG 1.0//EN'  'http://www.w3.org/TR/2001/REC-SVG-20010904/DTD/svg10.dtd'><svg height="110px" style="enable-background:new 0 0 110 110;" version="1.0" viewBox="0 0 110 110" width="110px" xml:space="preserve" xmlns="http://www.w3.org/2000/svg" xmlns:xlink="http://www.w3.org/1999/xlink"><g id="R-Multicolor"><circle cx="55" cy="55" r="55" style="fill:#32BEA6;"/><g><g><path d="M63,23c-2.37,0-4.66,0.34-6.82,0.99C46.25,26.93,39,36.12,39,47c0,0.25,0,0.5,0.02,0.75     c0.139,4.604,1.581,8.878,3.962,12.476l-19.714,21.01c-0.376,0.405-0.353,1.037,0.052,1.413l4.396,4.084     c0.405,0.376,1.037,0.353,1.413-0.052l19.328-20.598C52.492,69.165,57.531,71,63,71c13.25,0,24-10.75,24-24S76.25,23,63,23z" style="fill:#F0F1F1;"/></g><g><path d="M42.981,60.226l-19.714,21.01c-0.376,0.405-0.353,1.037,0.052,1.413l1.732,1.609l20.641-20.641     C44.69,62.573,43.783,61.438,42.981,60.226z" style="fill:#FFFFFF;"/></g><g><path d="M87,47c0,13.25-10.75,24-24,24c-13,0-23.59-10.34-23.98-23.25C39,47.5,39,47.25,39,47     c0-10.88,7.25-20.07,17.18-23.01C58.34,23.34,60.63,23,63,23C76.25,23,87,33.75,87,47z" style="fill:#DF2C2C;"/></g><g><path d="M63,23c-2.37,0-4.66,0.34-6.82,0.99C46.25,26.93,39,36.12,39,47c0,0.25,0,0.5,0.02,0.75     c0.186,6.155,2.694,11.722,6.672,15.866l33.922-33.923C75.301,25.552,69.449,23,63,23z" style="fill:#FA5655;"/></g><g><path d="M82.51,45.89c0,5.58-2.18,10.83-6.13,14.78c-3.34,3.35-7.79,5.19-12.52,5.19     c-4.72,0-9.17-1.84-12.51-5.19c-2.85-2.84-4.42-6.63-4.42-10.65c0-4.03,1.57-7.81,4.42-10.66c2.44-2.44,5.68-3.78,9.13-3.78     c3.44,0,6.69,1.34,9.13,3.78c2.342,2.351,4.892,9.253-1.486,14.879c-1.129,0.996-2.818,1.022-3.974,0.057     c-1.001-0.836-0.952-2.388,0.091-3.161c3.371-2.5,1.998-9.555-3.761-9.555c-1.85,0-3.58,0.72-4.89,2.02     c-1.71,1.71-2.66,3.99-2.66,6.42c0,2.42,0.95,4.7,2.66,6.41c2.21,2.21,5.15,3.43,8.27,3.43c3.13,0,6.07-1.22,8.28-3.43     c2.81-2.82,4.37-6.56,4.37-10.54c0-3.98-1.56-7.73-4.37-10.54c-7.34-7.34-19.27-7.34-26.6,0c-3.43,3.43-5.68,7.73-6.52,12.4     C39,47.5,39,47.25,39,47c0-10.88,7.25-20.07,17.18-23.01c7.21-0.77,14.69,1.6,20.2,7.11C80.33,35.05,82.51,40.3,82.51,45.89z" style="fill:#FACB1B;"/></g><g><g><path d="M52.93,50.02c0-2.43,0.95-4.71,2.66-6.42c1.31-1.3,3.04-2.02,4.89-2.02      c2.278,0,3.858,1.11,4.742,2.6l4.592-4.592c-0.068-0.075-0.136-0.16-0.203-0.228c-2.44-2.44-5.69-3.78-9.13-3.78      c-3.45,0-6.69,1.34-9.13,3.78c-2.85,2.85-4.42,6.63-4.42,10.66c0,3.396,1.131,6.621,3.197,9.254l4.288-4.288      C53.453,53.523,52.93,51.811,52.93,50.02z" style="fill:#FBE158;"/></g><g><path d="M76.38,31.1c-5.51-5.51-12.99-7.88-20.2-7.11C46.25,26.93,39,36.12,39,47c0,0.25,0,0.5,0.02,0.75      c0.84-4.67,3.09-8.97,6.52-12.4c7.33-7.34,19.26-7.34,26.6,0c0.321,0.321,0.621,0.658,0.909,1.002l4.245-4.245      C76.995,31.768,76.703,31.423,76.38,31.1z" style="fill:#FBE158;"/></g></g></g></g></svg>