<?xml version="1.0" ?><svg id="Layer_1" style="enable-background:new 0 0 512 512;" version="1.1" viewBox="0 0 512 512" xml:space="preserve" xmlns="http://www.w3.org/2000/svg" xmlns:xlink="http://www.w3.org/1999/xlink"><style type="text/css">
	.st0{fill:#F16723;}
	.st1{fill:#4E9BD4;}
	.st2{fill:#FBD20A;}
	.st3{fill:#FFFFFF;}
	.st4{fill:#5BBA47;}
	.st5{fill:#7FC344;}
	.st6{fill:#E7D0A9;}
	.st7{fill:#FFE4B8;}
	.st8{fill:#F05225;}
	.st9{fill:#FAAF1A;}
	.st10{fill:#EE3C7A;}
	.st11{fill:#F05F88;}
	.st12{fill:#3769A5;}
</style><g><path class="st0" d="M477.9,295.7h-3.5v-3.5c0-1.9-1.6-3.5-3.5-3.5s-3.5,1.6-3.5,3.5v3.5h-3.5c-1.9,0-3.5,1.6-3.5,3.5   s1.6,3.5,3.5,3.5h3.5v3.5c0,1.9,1.6,3.5,3.5,3.5s3.5-1.6,3.5-3.5v-3.5h3.5c1.9,0,3.5-1.6,3.5-3.5S479.8,295.7,477.9,295.7z"/><path class="st1" d="M204.7,25h-3.5v-3.5c0-1.9-1.6-3.5-3.5-3.5s-3.5,1.6-3.5,3.5V25h-3.5c-1.9,0-3.5,1.6-3.5,3.5s1.6,3.5,3.5,3.5   h3.5v3.5c0,1.9,1.6,3.5,3.5,3.5s3.5-1.6,3.5-3.5V32h3.5c1.9,0,3.5-1.6,3.5-3.5S206.6,25,204.7,25z"/><path class="st0" d="M22.2,343.8c-5.7,0-10.3-4.6-10.3-10.3s4.6-10.3,10.3-10.3c5.7,0,10.3,4.6,10.3,10.3S27.9,343.8,22.2,343.8z    M22.2,330.2c-1.8,0-3.3,1.5-3.3,3.3s1.5,3.3,3.3,3.3c1.8,0,3.3-1.5,3.3-3.3S24,330.2,22.2,330.2z"/><circle cx="457.9" cy="452.1" r="2.1"/><circle cx="31.1" cy="304.7" r="2.1"/><circle cx="61" cy="54.1" r="2.1"/><circle cx="432.7" cy="142" r="2.1"/><circle cx="418.3" cy="145.2" r="3.1"/><path class="st2" d="M338.6,100.6c-6.6,0-11.9-5.3-11.9-11.9s5.3-11.9,11.9-11.9s11.9,5.3,11.9,11.9S345.2,100.6,338.6,100.6z    M338.6,83.8c-2.7,0-4.9,2.2-4.9,4.9s2.2,4.9,4.9,4.9c2.7,0,4.9-2.2,4.9-4.9S341.3,83.8,338.6,83.8z"/><g><g><path class="st3" d="M54.1,378.1L54.1,378.1c0-44.1,35.7-79.8,79.8-79.8H376c44.1,0,79.8,35.7,79.8,79.8l0,0     c0,44.1-35.7,79.8-79.8,79.8H133.9C89.8,457.9,54.1,422.2,54.1,378.1z"/><path class="st4" d="M56.1,387.3L56.1,387.3c0-39,31.6-70.6,70.6-70.6h260.7c39,0,70.6,31.6,70.6,70.6l0,0     c0,39-31.6,70.6-70.6,70.6H126.7C87.7,457.9,56.1,426.3,56.1,387.3z"/><path class="st5" d="M56.1,375L56.1,375c0-32.2,26.1-58.3,58.3-58.3h285.3c32.2,0,58.3,26.1,58.3,58.3l0,0     c0,32.2-26.1,58.3-58.3,58.3H114.3C82.2,433.3,56.1,407.2,56.1,375z"/><g><path class="st3" d="M188.8,298.2H135c-44.1,0-79.8,35.7-79.8,79.8l0,0c0,44.1,35.7,79.8,79.8,79.8h53.8V298.2z"/></g><g><path class="st6" d="M188.8,316.8h-61.1c-39,0-70.6,31.6-70.6,70.6l0,0c0,39,31.6,70.6,70.6,70.6h61.1V316.8z"/></g><g><path class="st7" d="M188.8,316.8h-73.4c-32.2,0-58.3,26.1-58.3,58.3l0,0c0,32.2,26.1,58.3,58.3,58.3h73.4V316.8z"/></g><circle class="st3" cx="129" cy="378.1" r="19.1"/><g><path d="M376,292.3H133.9c-47.3,0-85.8,38.5-85.8,85.8s38.5,85.8,85.8,85.8H376c47.3,0,85.8-38.5,85.8-85.8      S423.3,292.3,376,292.3z M376,451.9H194.8V311.4c0-3.3-2.7-6-6-6s-6,2.7-6,6v140.5h-48.9c-40.7,0-73.8-33.1-73.8-73.8      s33.1-73.8,73.8-73.8H376c40.7,0,73.8,33.1,73.8,73.8S416.7,451.9,376,451.9z"/><path d="M129,353c-13.8,0-25.1,11.3-25.1,25.1c0,13.8,11.3,25.1,25.1,25.1s25.1-11.3,25.1-25.1C154.1,364.3,142.8,353,129,353z       M129,391.2c-7.2,0-13.1-5.9-13.1-13.1c0-7.2,5.9-13.1,13.1-13.1s13.1,5.9,13.1,13.1C142.1,385.3,136.2,391.2,129,391.2z"/></g><path class="st3" d="M430.6,362.4c-1.9,0-3.5-1.6-3.5-3.5c0-11.6-9.5-21.1-21.1-21.1c-1.9,0-3.5-1.6-3.5-3.5s1.6-3.5,3.5-3.5     c15.5,0,28.1,12.6,28.1,28.1C434.1,360.8,432.5,362.4,430.6,362.4z"/><path class="st3" d="M393,337.8h-5.5c-1.9,0-3.5-1.6-3.5-3.5s1.6-3.5,3.5-3.5h5.5c1.9,0,3.5,1.6,3.5,3.5S394.9,337.8,393,337.8z"/><path class="st3" d="M247,337.8h-32.8c-1.9,0-3.5-1.6-3.5-3.5s1.6-3.5,3.5-3.5H247c1.9,0,3.5,1.6,3.5,3.5S248.9,337.8,247,337.8z     "/></g><g><path class="st3" d="M59.9,405.9L59.9,405.9C43.4,365,63.2,318.5,104.1,302l224.5-90.7c40.9-16.5,87.4,3.2,103.9,44.1l0,0     c16.5,40.9-3.2,87.4-44.1,103.9L163.9,450C123,466.5,76.4,446.8,59.9,405.9z"/><path class="st8" d="M65.3,413.7L65.3,413.7c-14.6-36.1,2.9-77.3,39-91.9L346,224.3c36.1-14.6,77.3,2.9,91.9,39l0,0     c14.6,36.1-2.9,77.3-39,91.9l-241.7,97.6C121,467.3,79.8,449.9,65.3,413.7z"/><path class="st0" d="M60.6,402.3L60.6,402.3c-12-29.8,2.4-63.8,32.2-75.8l264.5-106.8c29.8-12,63.8,2.4,75.8,32.2l0,0     c12,29.8-2.4,63.8-32.2,75.8L136.5,434.5C106.6,446.6,72.7,432.2,60.6,402.3z"/><g><path class="st3" d="M154.9,281.4L105,301.6c-40.9,16.5-60.6,63-44.1,103.9l0,0c16.5,40.9,63,60.6,103.9,44.1l49.9-20.2      L154.9,281.4z"/></g><g><path class="st6" d="M161.9,298.6l-56.7,22.9c-36.1,14.6-53.6,55.7-39,91.9l0,0c14.6,36.1,55.7,53.6,91.9,39l56.7-22.9      L161.9,298.6z"/></g><g><path class="st7" d="M161.9,298.6l-68.1,27.5c-29.8,12-44.3,46-32.2,75.8l0,0c12,29.8,46,44.3,75.8,32.2l68.1-27.5L161.9,298.6z      "/></g><ellipse class="st3" cx="129.3" cy="377.9" rx="19.1" ry="19.1" transform="matrix(0.9272 -0.3745 0.3745 0.9272 -132.1117 75.9349)"/><g><path d="M438.1,253.2c-17.7-43.9-67.8-65.1-111.7-47.4l-224.5,90.7c-21.3,8.6-37.9,24.9-46.9,46c-9,21.1-9.2,44.4-0.6,65.7      c8.6,21.3,24.9,37.9,46.1,46.9c10.8,4.6,22.2,6.9,33.5,6.9c10.9,0,21.8-2.1,32.2-6.3l50.4-20.3c0.1,0,0.3-0.1,0.4-0.1      c0.1-0.1,0.3-0.1,0.4-0.2l173.3-70C434.5,347.2,455.8,297.1,438.1,253.2z M386.2,353.7L218,421.7l-52.5-130.2      c-1.2-3.1-4.7-4.6-7.8-3.3c-3.1,1.2-4.6,4.7-3.3,7.8l52.5,130.2l-45.2,18.3c-18.3,7.4-38.4,7.2-56.6-0.5      c-18.2-7.7-32.2-22-39.6-40.3c-7.4-18.3-7.2-38.4,0.5-56.5c7.7-18.1,22.1-32.2,40.4-39.6l224.5-90.7c9-3.6,18.4-5.4,27.6-5.4      c29.2,0,56.9,17.5,68.5,46.2C442.2,295.4,423.9,338.5,386.2,353.7z"/><path d="M119.9,354.6c-6.2,2.5-11.1,7.3-13.7,13.5c-2.6,6.2-2.7,13-0.2,19.2c2.5,6.2,7.3,11.1,13.5,13.7c3.2,1.3,6.5,2,9.8,2      c3.2,0,6.4-0.6,9.4-1.8c12.8-5.2,19.1-19.8,13.9-32.7C147.4,355.7,132.8,349.4,119.9,354.6z M134.2,390c-3.2,1.3-6.8,1.3-10-0.1      c-3.2-1.4-5.7-3.9-7-7.2c-1.3-3.2-1.3-6.8,0.1-10c1.4-3.2,3.9-5.7,7.2-7c1.6-0.6,3.3-1,4.9-1c5.2,0,10.1,3.1,12.2,8.2      C144.2,379.7,140.9,387.3,134.2,390z"/></g><path class="st3" d="M401.8,250.7c-1.4,0-2.7-0.8-3.2-2.2c-4.4-10.8-16.7-16-27.4-11.7c-1.8,0.7-3.8-0.1-4.6-1.9     c-0.7-1.8,0.1-3.8,1.9-4.6c14.3-5.8,30.7,1.2,36.6,15.5c0.7,1.8-0.1,3.8-1.9,4.6C402.7,250.6,402.2,250.7,401.8,250.7z"/><path class="st3" d="M352.7,244c-1.4,0-2.7-0.8-3.2-2.2c-0.7-1.8,0.1-3.8,1.9-4.6l5.1-2.1c1.8-0.7,3.8,0.1,4.6,1.9     c0.7,1.8-0.1,3.8-1.9,4.6l-5.1,2.1C353.6,243.9,353.1,244,352.7,244z"/><path class="st3" d="M192,308.9c-1.4,0-2.7-0.8-3.2-2.2c-0.7-1.8,0.1-3.8,1.9-4.6l30.4-12.3c1.8-0.7,3.8,0.1,4.6,1.9     s-0.1,3.8-1.9,4.6l-30.4,12.3C192.9,308.8,192.4,308.9,192,308.9z"/></g><g><path class="st3" d="M77.5,432.1L77.5,432.1c-31.2-31.2-31.2-81.7,0-112.9L248.7,148c31.2-31.2,81.7-31.2,112.9,0l0,0     c31.2,31.2,31.2,81.7,0,112.9L190.4,432.1C159.2,463.3,108.7,463.3,77.5,432.1z"/><path class="st9" d="M85.5,437.2L85.5,437.2c-27.6-27.6-27.6-72.2,0-99.8l184.3-184.3c27.6-27.6,72.2-27.6,99.8,0l0,0     c27.6,27.6,27.6,72.2,0,99.8L185.2,437.2C157.7,464.8,113,464.8,85.5,437.2z"/><path class="st2" d="M76.7,428.5L76.7,428.5c-22.8-22.8-22.8-59.6,0-82.4l201.7-201.7c22.8-22.8,59.6-22.8,82.4,0l0,0     c22.8,22.8,22.8,59.6,0,82.4L159.1,428.5C136.4,451.3,99.5,451.3,76.7,428.5z"/><g><path class="st3" d="M116.3,280.4l-38.1,38.1c-31.2,31.2-31.2,81.7,0,112.9l0,0c31.2,31.2,81.7,31.2,112.9,0l38.1-38.1      L116.3,280.4z"/></g><g><path class="st6" d="M129.4,293.5l-43.2,43.2c-27.6,27.6-27.6,72.2,0,99.8l0,0c27.6,27.6,72.2,27.6,99.8,0l43.2-43.2      L129.4,293.5z"/></g><g><path class="st7" d="M129.4,293.5l-51.9,51.9c-22.8,22.8-22.8,59.6,0,82.4l0,0c22.8,22.8,59.6,22.8,82.4,0l51.9-51.9      L129.4,293.5z"/></g><ellipse class="st3" cx="130.4" cy="379.2" rx="19.1" ry="19.1" transform="matrix(0.7071 -0.7071 0.7071 0.7071 -229.9297 203.2901)"/><g><path d="M391,204.4c0-22.9-8.9-44.5-25.2-60.7c-16.2-16.2-37.8-25.2-60.7-25.2s-44.5,8.9-60.7,25.2L73.3,315      c-16.2,16.2-25.2,37.8-25.2,60.7s8.9,44.5,25.2,60.7c16.2,16.2,37.8,25.2,60.7,25.2c22.9,0,44.5-8.9,60.7-25.2l38.8-38.8      c0,0,0,0,0,0s0,0,0,0l132.4-132.4C382.1,248.9,391,227.4,391,204.4z M229.2,384.8l-99.4-99.4c-2.3-2.3-6.1-2.3-8.5,0      c-2.3,2.3-2.3,6.1,0,8.5l99.4,99.4l-34.6,34.6c-14,14-32.5,21.6-52.2,21.6s-38.3-7.7-52.2-21.6c-14-14-21.6-32.5-21.6-52.2      s7.7-38.2,21.6-52.2l171.2-171.2c14-14,32.5-21.6,52.2-21.6s38.2,7.7,52.2,21.6c14,14,21.6,32.5,21.6,52.2s-7.7,38.3-21.6,52.2      L229.2,384.8z"/><path d="M112.7,396.9c4.9,4.9,11.3,7.3,17.7,7.3c6.4,0,12.9-2.4,17.7-7.3c9.8-9.8,9.8-25.7,0-35.5c-9.8-9.8-25.7-9.8-35.5,0      C102.9,371.2,102.9,387.2,112.7,396.9z M121.2,369.9c2.5-2.5,5.8-3.8,9.3-3.8c3.5,0,6.8,1.4,9.3,3.8c2.5,2.5,3.8,5.8,3.8,9.3      s-1.4,6.8-3.8,9.3c-2.5,2.5-5.8,3.8-9.3,3.8c-3.5,0-6.8-1.4-9.3-3.8c-2.5-2.5-3.8-5.8-3.8-9.3S118.7,372.4,121.2,369.9z"/></g><g><path class="st3" d="M332.6,149.9c-5.3-5.3-12.4-8.2-19.9-8.2s-14.6,2.9-19.9,8.2c-1.4,1.4-1.4,3.6,0,4.9c1.4,1.4,3.6,1.4,4.9,0      c4-4,9.3-6.2,14.9-6.2s10.9,2.2,14.9,6.2c0.7,0.7,1.6,1,2.5,1s1.8-0.3,2.5-1C333.9,153.5,333.9,151.3,332.6,149.9z"/><path class="st3" d="M283.7,159l-3.9,3.9c-1.4,1.4-1.4,3.6,0,4.9c0.7,0.7,1.6,1,2.5,1s1.8-0.3,2.5-1l3.9-3.9      c1.4-1.4,1.4-3.6,0-4.9C287.3,157.7,285.1,157.7,283.7,159z"/><path class="st3" d="M180.5,262.3l-23.2,23.1c-1.4,1.4-1.4,3.6,0,5c0.7,0.7,1.6,1,2.5,1c0.9,0,1.8-0.3,2.5-1l23.2-23.1      c1.4-1.4,1.4-3.6,0-5C184.1,261,181.9,261,180.5,262.3z"/></g></g><g><path class="st3" d="M103.4,450.8L103.4,450.8c-40.7-16.9-60.1-63.6-43.2-104.3l92.7-223.7c16.9-40.7,63.6-60.1,104.3-43.2l0,0     c40.7,16.9,60.1,63.6,43.2,104.3l-92.7,223.7C190.8,448.4,144.1,467.7,103.4,450.8z"/><path class="st10" d="M112.7,452.5L112.7,452.5c-36-14.9-53.1-56.2-38.2-92.2l99.8-240.8c14.9-36,56.2-53.1,92.2-38.2l0,0     c36,14.9,53.1,56.2,38.2,92.2l-99.8,240.8C190,450.3,148.7,467.4,112.7,452.5z"/><path class="st11" d="M101.3,447.8L101.3,447.8c-29.7-12.3-43.8-46.4-31.5-76.1L179,108.1c12.3-29.7,46.4-43.8,76.1-31.5l0,0     c29.7,12.3,43.8,46.4,31.5,76.1L177.5,416.3C165.2,446,131.1,460.1,101.3,447.8z"/><g><path class="st3" d="M81.2,295.8l-20.6,49.7C43.7,386.3,63,433,103.8,449.9l0,0c40.7,16.9,87.4-2.4,104.3-43.2l20.6-49.7      L81.2,295.8z"/></g><g><path class="st6" d="M98.3,302.9l-23.4,56.5c-14.9,36,2.2,77.3,38.2,92.2l0,0c36,14.9,77.3-2.2,92.2-38.2l23.4-56.5L98.3,302.9z      "/></g><g><path class="st7" d="M98.3,302.9l-28.1,67.8c-12.3,29.7,1.8,63.8,31.5,76.1l0,0c29.7,12.3,63.8-1.8,76.1-31.5l28.1-67.8      L98.3,302.9z"/></g><ellipse class="st3" cx="132.1" cy="381.7" rx="19.1" ry="19.1" transform="matrix(0.3829 -0.9238 0.9238 0.3829 -271.1089 357.5637)"/><g><path d="M259.5,74.1c-21.2-8.8-44.5-8.8-65.7,0c-21.2,8.8-37.7,25.3-46.5,46.4L54.7,344.2c-18.1,43.7,2.7,94,46.4,112.1      c10.6,4.4,21.7,6.6,32.9,6.6c11.1,0,22.2-2.2,32.8-6.6c21.2-8.8,37.7-25.3,46.5-46.5l20.8-50.3c0.1-0.1,0.1-0.2,0.2-0.3      c0.1-0.2,0.1-0.4,0.2-0.5l71.5-172.5C324.1,142.5,303.2,92.2,259.5,74.1z M294.9,181.6l-69.4,167.5L95.7,295.4      c-3.1-1.3-6.6,0.2-7.8,3.2c-1.3,3.1,0.2,6.6,3.2,7.8l129.7,53.8l-18.7,45.1c-7.6,18.2-21.8,32.4-40,40      c-18.2,7.5-38.3,7.5-56.5,0c-37.6-15.6-55.6-58.9-40-96.5l92.7-223.7c15.6-37.6,58.9-55.6,96.5-40      C292.5,100.8,310.5,144,294.9,181.6z"/><path d="M122.5,404.9c3.1,1.3,6.4,1.9,9.6,1.9c9.9,0,19.2-5.8,23.2-15.5c5.3-12.8-0.8-27.5-13.6-32.8c-6.2-2.6-13-2.6-19.2,0      c-6.2,2.6-11,7.4-13.6,13.6C103.6,384.9,109.7,399.6,122.5,404.9z M120,376.7c1.3-3.2,3.9-5.7,7.1-7.1c1.6-0.7,3.3-1,5-1      c1.7,0,3.4,0.3,5,1c6.7,2.8,9.9,10.4,7.1,17.1c-2.8,6.7-10.4,9.9-17.1,7.1C120.4,391,117.2,383.4,120,376.7z"/></g><path class="st3" d="M197.8,112.5c-0.4,0-0.9-0.1-1.3-0.3c-1.8-0.7-2.6-2.8-1.9-4.6c6-14.3,22.4-21.1,36.7-15.2     c1.8,0.7,2.6,2.8,1.9,4.6c-0.7,1.8-2.8,2.6-4.6,1.9c-10.7-4.5-23.1,0.7-27.5,11.4C200.5,111.7,199.2,112.5,197.8,112.5z"/><path class="st3" d="M190.7,129.5c-0.5,0-0.9-0.1-1.4-0.3c-1.8-0.7-2.6-2.8-1.9-4.6l2.1-5c0.7-1.8,2.8-2.6,4.6-1.9     c1.8,0.7,2.6,2.8,1.9,4.6l-2.1,5C193.4,128.7,192.1,129.5,190.7,129.5z"/><path class="st3" d="M124.3,289.6c-0.4,0-0.9-0.1-1.3-0.3c-1.8-0.7-2.6-2.8-1.9-4.6l12.6-30.3c0.7-1.8,2.8-2.6,4.6-1.9     c1.8,0.7,2.6,2.8,1.9,4.6l-12.6,30.3C127,288.8,125.7,289.6,124.3,289.6z"/></g><g><path class="st3" d="M133.9,457.9L133.9,457.9c-44.1,0-79.8-35.7-79.8-79.8V135.9c0-44.1,35.7-79.8,79.8-79.8l0,0     c44.1,0,79.8,35.7,79.8,79.8V378C213.8,422.2,178,457.9,133.9,457.9z"/><path class="st12" d="M143.2,455.9L143.2,455.9c-39,0-70.6-31.6-70.6-70.6V124.7c0-39,31.6-70.6,70.6-70.6l0,0     c39,0,70.6,31.6,70.6,70.6v260.7C213.8,424.3,182.2,455.9,143.2,455.9z"/><path class="st1" d="M130.9,455.9L130.9,455.9c-32.2,0-58.3-26.1-58.3-58.3V112.3c0-32.2,26.1-58.3,58.3-58.3l0,0     c32.2,0,58.3,26.1,58.3,58.3v285.3C189.2,429.8,163.1,455.9,130.9,455.9z"/><g><path class="st3" d="M54.1,323.2V377c0,44.1,35.7,79.8,79.8,79.8l0,0c44.1,0,79.8-35.7,79.8-79.8v-53.8H54.1z"/></g><g><path class="st6" d="M72.6,323.2v61.1c0,39,31.6,70.6,70.6,70.6l0,0c39,0,70.6-31.6,70.6-70.6v-61.1H72.6z"/></g><g><path class="st7" d="M72.6,323.2v73.4c0,32.2,26.1,58.3,58.3,58.3l0,0c32.2,0,58.3-26.1,58.3-58.3v-73.4H72.6z"/></g><path d="M213.8,329.2H67.3c-3.3,0-6-2.7-6-6s2.7-6,6-6h146.5c3.3,0,6,2.7,6,6S217.1,329.2,213.8,329.2z"/><circle class="st3" cx="133.9" cy="383" r="19.1"/><g><path d="M213.8,191.2c-3.3,0-6,2.7-6,6V378c0,40.7-33.1,73.8-73.8,73.8S60.2,418.7,60.2,378V223.7c0-3.3-2.7-6-6-6s-6,2.7-6,6      V378c0,47.3,38.5,85.8,85.8,85.8s85.8-38.5,85.8-85.8V197.2C219.8,193.9,217.1,191.2,213.8,191.2z"/><path d="M213.8,165.5c-3.3,0-6,2.7-6,6v12.6c0,3.3,2.7,6,6,6s6-2.7,6-6v-12.6C219.8,168.2,217.1,165.5,213.8,165.5z"/><path d="M54.1,215.5c3.3,0,6-2.7,6-6V136c0-40.7,33.1-73.8,73.8-73.8c40.7,0,73.8,33.1,73.8,73.8v22.3c0,3.3,2.7,6,6,6      s6-2.7,6-6V136c0-47.3-38.5-85.8-85.8-85.8c-47.3,0-85.8,38.5-85.8,85.8v73.5C48.1,212.8,50.8,215.5,54.1,215.5z"/><path d="M108.8,383c0,13.8,11.3,25.1,25.1,25.1S159,396.8,159,383c0-13.8-11.3-25.1-25.1-25.1S108.8,369.2,108.8,383z M147,383      c0,7.2-5.9,13.1-13.1,13.1s-13.1-5.9-13.1-13.1c0-7.2,5.9-13.1,13.1-13.1S147,375.8,147,383z"/></g><path class="st3" d="M90.2,109.5c-1.9,0-3.5-1.6-3.5-3.5c0-15.5,12.6-28.1,28.1-28.1c1.9,0,3.5,1.6,3.5,3.5s-1.6,3.5-3.5,3.5     c-11.6,0-21.1,9.5-21.1,21.1C93.7,107.9,92.1,109.5,90.2,109.5z"/><path class="st3" d="M90.2,128c-1.9,0-3.5-1.6-3.5-3.5V119c0-1.9,1.6-3.5,3.5-3.5s3.5,1.6,3.5,3.5v5.5     C93.7,126.4,92.1,128,90.2,128z"/><path class="st3" d="M90.2,301.3c-1.9,0-3.5-1.6-3.5-3.5V265c0-1.9,1.6-3.5,3.5-3.5s3.5,1.6,3.5,3.5v32.8     C93.7,299.7,92.1,301.3,90.2,301.3z"/></g></g></g></svg>