<?xml version="1.0" ?><!DOCTYPE svg  PUBLIC '-//W3C//DTD SVG 1.1//EN'  'http://www.w3.org/Graphics/SVG/1.1/DTD/svg11.dtd'><svg style="enable-background:new 0 0 500 500;" version="1.1" viewBox="0 0 500 500" xml:space="preserve" xmlns="http://www.w3.org/2000/svg" xmlns:xlink="http://www.w3.org/1999/xlink"><g id="globe-gear"><g><rect height="500" style="fill:#EFBF41;" width="500" y="0"/><g id="_x38__1_"><path d="M299.13,121.672c-7.075,18.662,1.743,25.848,14.194,30.565     c12.444,4.731,23.818,5.229,30.886-13.447l8.541-22.434c19.621,11.916,36.752,28.22,49.746,48.295l-24.295,10.562     c-18.34,7.953-17.285,19.277-11.968,31.494c5.288,12.23,12.854,20.705,31.179,12.744l24.896-10.811     c6.167,22.543,7.119,45.541,3.362,67.609l-26.375-9.103c-18.889-6.445-25.781,2.578-30.132,15.176     c-4.329,12.598-4.446,23.972,14.479,30.476l26.771,9.206c-12.474,24.258-31.289,45.403-55.437,60.608l-11.492-26.448     c-7.954-18.324-19.277-17.285-31.516-11.967c-12.217,5.303-20.684,12.875-12.73,31.179l11.492,26.455     c-13.146,3.442-26.418,4.893-39.595,4.87v-78.698c8.532-0.615,17.109-2.593,25.394-6.182     c39.58-17.204,57.773-63.281,40.568-102.868c-11.982-27.562-37.939-44.693-65.962-46.803V93.371     c12.561,0.016,25.005,1.523,37.067,4.476L299.13,121.672z M283.097,207.139c-3.889-1.523-7.917-2.329-11.96-2.783v12.642     c2.476,0.381,4.915,0.952,7.302,1.882c8.372,3.326,14.934,9.69,18.523,17.916c3.574,8.246,3.735,17.387,0.447,25.736     c-3.333,8.379-9.668,14.935-17.894,18.509c-2.747,1.201-5.56,1.853-8.379,2.285v12.868c4.526-0.482,9.046-1.647,13.418-3.552     c23.386-10.159,34.212-37.464,24.017-60.886C303.671,220.41,294.597,211.658,283.097,207.139z" style="fill:#FFFFFF;"/><path d="M245.466,426.242c0.988,0.029,1.97-0.036,2.966,0V73.75c-4.358-0.008-8.716,0.132-13.096,0.469     c-54.837,2.951-109.189,35.721-138.216,84.559c-28.366,45.57-33.633,111.84-10.473,161.016     C113.028,380.898,177.416,426.133,245.466,426.242z M132.694,368.682c10.832-10.327,22.324-19.146,34.842-25.576     c2.688,5.01,5.199,9.543,8.188,14.318c13.652,21.855,32.176,42.027,53.02,57.576     C192.475,410.518,159.311,394.404,132.694,368.682z M82.106,256.672c0.886-0.088,1.853,0.14,2.57-0.256l60.483,0.139     c0.345,25.335,7.171,53.299,17.754,77.015c-13.008,7.617-25.788,16.442-37.419,27.495     C98.71,331.131,83.659,295.645,82.106,256.672z M125.048,138.408c11.66,11.271,24.5,20.691,38.225,27.979     c-10.773,24.99-17.248,51.014-18.156,80.039l-63.055-0.109C83.321,205,97.655,168.262,125.048,138.408z M232.091,84.523     c-25.861,18.135-50.456,45.426-64.014,72.832c-12.934-6.892-25.443-16.068-35.896-26.631     C160.489,103.42,194.884,88.436,232.091,84.523z M240.639,177.834c-23.291-0.688-43.938-6.496-63.45-15.98     c13.572-26.441,37.522-53.416,63.304-70.269L240.639,177.834z M240.69,189.004l-0.146,57.4l-0.169,0.153l-84.873-0.183     c0.681-27.115,6.606-52.09,17.3-75.088c20.815,9.945,44.033,16.068,67.881,16.911L240.69,189.004z M240.837,311.611     c-24.801,1.23-47.887,7.31-68.855,16.963c-9.521-22.273-16.15-46.252-16.436-71.916l2.336-0.169l82.713,0.205L240.837,311.611z      M241.283,411.096c-26.645-18.135-50.522-44.414-64.658-72.824l1.201-0.711c19.277-9.346,41.331-14.538,63.061-15.834     L241.283,411.096z" style="fill:#FFFFFF;"/></g></g></g><g id="Layer_1"/></svg>