<?xml version="1.0" ?><!DOCTYPE svg  PUBLIC '-//W3C//DTD SVG 1.1//EN'  'http://www.w3.org/Graphics/SVG/1.1/DTD/svg11.dtd'><svg style="enable-background:new 0 0 500 500.008;" version="1.1" viewBox="0 0 500 500.008" xml:space="preserve" xmlns="http://www.w3.org/2000/svg" xmlns:xlink="http://www.w3.org/1999/xlink"><g id="gear-user"><g><rect height="500.008" style="fill:#F27744;" width="500" y="0"/><g id="_x33_2"><path d="M269.321,355.567c28.228-5.156,52.544-21.402,68.232-44.137     c-8.247-5.756-22.5-10.297-36.709-16.23c-18.252-7.617-22.588-10.254-22.588-10.254l-0.169-17.52c0,0,6.842-5.258,8.965-21.749     c4.27,1.238,8.782-6.401,9.017-10.407c0.234-3.867-0.586-14.604-5.801-13.535c1.048-8.079,1.831-15.345,1.45-19.189     c-1.348-14.085-15.22-28.931-36.533-28.931c-21.313,0-35.186,14.846-36.518,28.931c-0.381,3.845,0.381,11.11,1.45,19.189     c-5.223-1.069-6.05,9.668-5.809,13.535c0.242,4.006,4.725,11.646,9.017,10.407c2.109,16.492,8.965,21.749,8.965,21.749     l-0.176,17.52c0,0-4.336,2.637-22.603,10.254c-18.26,7.617-36.724,12.936-42.202,21.504c-0.073,0.133-0.14,0.309-0.212,0.439     c16.574,20.875,40.817,35.303,68.496,39.111l17.058-30.264L269.321,355.567z M252.651,302.466l11.763,11.764l-11.748,11.762     l-11.777-11.762L252.651,302.466z" style="fill:#FFFFFF;"/><path d="M432.402,224.518l-39.463-4.673c-3.779-17.952-10.854-34.681-20.588-49.549l24.623-31.23     c1.758-2.197,1.561-5.669-0.446-7.653l-27.913-27.942c-2.021-2.007-5.463-2.212-7.697-0.446l-31.223,24.616     c-14.853-9.704-31.568-16.802-49.557-20.552l-4.636-39.478c-0.345-2.798-2.915-5.098-5.765-5.098h-39.499     c-2.835,0-5.397,2.3-5.757,5.098l-4.658,39.478c-17.959,3.75-34.68,10.848-49.526,20.552l-31.245-24.616     c-2.227-1.766-5.654-1.561-7.661,0.446l-27.92,27.942c-2.021,1.984-2.263,5.456-0.476,7.668l24.602,31.216     c-9.683,14.868-16.772,31.597-20.537,49.549l-39.448,4.673c-2.827,0.314-5.112,2.922-5.112,5.734v39.504     c0,2.842,2.285,5.404,5.112,5.756l39.448,4.629c3.765,17.988,10.854,34.717,20.537,49.586l-24.602,31.23     c-1.787,2.211-1.546,5.654,0.476,7.646l27.92,27.949c1.985,2.006,5.435,2.197,7.683,0.453l31.224-24.639     c14.847,9.713,31.567,16.803,49.526,20.582l4.658,39.447c0.359,2.812,2.922,5.098,5.757,5.098h39.499     c2.85,0,5.42-2.285,5.765-5.098l4.636-39.447c17.988-3.779,34.703-10.869,49.557-20.582l31.223,24.639     c2.234,1.744,5.676,1.539,7.697-0.453l27.913-27.949c2.007-1.992,2.204-5.436,0.446-7.646l-24.623-31.23     c9.733-14.869,16.809-31.598,20.588-49.586l39.463-4.643c2.783-0.338,5.098-2.9,5.098-5.742v-39.504     C437.5,227.44,435.185,224.833,432.402,224.518z M249.971,369.337c-65.874,0-119.297-53.438-119.297-119.338     c0-65.881,53.423-119.311,119.297-119.311c65.918,0,119.341,53.431,119.341,119.311     C369.311,315.899,315.889,369.337,249.971,369.337z" style="fill:#FFFFFF;"/></g></g></g><g id="Layer_1"/></svg>