<?xml version="1.0" ?><!DOCTYPE svg  PUBLIC '-//W3C//DTD SVG 1.1//EN'  'http://www.w3.org/Graphics/SVG/1.1/DTD/svg11.dtd'><svg style="enable-background:new 0 0 500 500.008;" version="1.1" viewBox="0 0 500 500.008" xml:space="preserve" xmlns="http://www.w3.org/2000/svg" xmlns:xlink="http://www.w3.org/1999/xlink"><g id="analysis-magnifier-glass-smartphone"><g><rect height="500.008" style="fill:#EFBF41;" width="500" y="0"/><g id="_x33__1_"><path d="M342.507,330.203c-1.869,0.775-3.803,1.377-5.713,2.035v57.598H95.732V110.194h241.061v20.793     c8.496,2.944,16.617,6.899,24.104,11.858V86.075c0-12.956-10.613-23.569-23.57-23.569H95.189     c-12.963,0-23.568,10.613-23.568,23.569v327.858c0,12.963,10.605,23.568,23.568,23.568h242.138     c12.957,0,23.57-10.605,23.57-23.568v-50.713l-14.275-19.117C343.532,339.943,342.206,335.008,342.507,330.203z M215.732,70.189     c3.441,0,6.24,2.798,6.24,6.247c0,3.457-2.799,6.255-6.24,6.255c-3.45,0-6.256-2.798-6.256-6.255     C209.477,72.987,212.282,70.189,215.732,70.189z M234.475,417.068c0,1.889-1.538,3.412-3.428,3.412h-27.422     c-1.89,0-3.436-1.523-3.436-3.412v-1.728c0-1.891,1.546-3.414,3.436-3.414h27.422c1.89,0,3.428,1.523,3.428,3.414V417.068z" style="fill:#FFFFFF;"/><path d="M427.519,370.617l-41.682-55.795c-1.435-1.934-4.154-2.33-6.072-0.879l-4.98,3.721l-3.486-4.645     l-4.277-5.756l2.051-1.539c1.332-1.01,1.611-2.885,0.615-4.203l-4.439-5.977c31.473-31.041,36.035-81.317,8.834-117.748     c-3.941-5.288-8.395-9.976-13.184-14.136c-7.287-6.328-15.447-11.279-24.104-14.898c-28.404-11.873-62.125-8.943-88.558,10.796     c-20.295,15.146-32.307,37.236-35.332,60.498h17.783c2.9-17.879,12.408-34.687,28.065-46.385     c16.004-11.953,35.332-16.281,53.658-13.645c8.496,1.237,16.75,4.043,24.383,8.225c8.803,4.827,16.764,11.514,23.18,20.076     c0.338,0.446,0.602,0.93,0.924,1.384c11.199,15.747,15.301,34.468,12.699,52.266c-1.633,11.257-5.924,22.131-12.699,31.607     c-4.234,5.947-9.441,11.354-15.602,15.953c-2.73,2.051-5.588,3.793-8.502,5.391c-14.092,7.764-29.949,10.443-45.133,8.246     c-18.318-2.666-35.609-12.289-47.577-28.301c-6.152-8.246-10.254-17.392-12.451-26.795h-17.915     c2.439,13.113,7.741,25.916,16.274,37.328c25.224,33.779,69.608,44.662,106.802,29.033c3.647-1.539,7.258-3.238,10.744-5.289     l3.939,5.273l0.322,0.439c0.996,1.334,2.879,1.582,4.219,0.602l2.051-1.523l2.828,3.779l1.076,1.436l3.875,5.186l-4.951,3.676     l-0.045,0.045c-1.926,1.42-2.299,4.145-0.879,6.065l0.924,1.244l40.773,54.566c1.428,1.934,4.152,2.299,6.072,0.879     l18.896-14.107C428.558,375.262,428.946,372.551,427.519,370.617z" style="fill:#FFFFFF;"/><path d="M275.577,271.229c0.652,2.285,2.658,3.896,4.469,3.926l0.826,0.102     c2.279,0,4.33-1.435,5.105-3.545l14.539-38.053l7.977,17.205c0.908,1.927,2.848,3.157,5.221,3.157c0.016,0,0.016,0,0.029,0     c2.221-0.103,4.139-1.538,4.892-3.641l15.293-43.14l2.865,7.229l15.328,38.746l5.486-1.049v-14.355l-18.875-48.193     c-0.402-1.018-1.076-1.854-1.94-2.446c-0.908-0.63-2.029-1.004-3.252-1.004c-2.279,0.029-4.315,1.517-5.084,3.662l-15.674,44.238     l-7.801-16.802c-0.885-1.926-2.848-3.171-5.191-3.171c0,0,0,0-0.008,0c-2.189,0.103-4.117,1.486-4.885,3.522l-13.184,34.548     l-5.385-19.555c-0.674-2.373-2.842-4.028-5.309-4.028h-83.854v10.957h79.686L275.577,271.229z" style="fill:#FFFFFF;"/></g></g></g><g id="Layer_1"/></svg>