<?xml version="1.0" ?><!DOCTYPE svg  PUBLIC '-//W3C//DTD SVG 1.1//EN'  'http://www.w3.org/Graphics/SVG/1.1/DTD/svg11.dtd'><svg style="enable-background:new 0 0 500 500;" version="1.1" viewBox="0 0 500 500" xml:space="preserve" xmlns="http://www.w3.org/2000/svg" xmlns:xlink="http://www.w3.org/1999/xlink"><g id="clipboard-charts"><g><rect height="500" style="fill:#F27744;" width="500" y="0"/><g id="_x31_2"><g><g><g><polygon points="332.185,91.987 332.185,107.954 388.018,107.954 388.018,421.533 111.982,421.533         111.982,107.954 167.83,107.954 167.83,91.987 96.016,91.987 96.016,437.5 403.984,437.5 403.984,91.987       " style="fill:#FFFFFF;"/></g><path d="M319.668,83.367v45.043H180.347V83.367h42.327C225.977,71.333,236.941,62.5,250,62.5       c13.059,0,24.038,8.833,27.342,20.867H319.668z M248.623,72.863c-4.607,0-8.335,3.729-8.335,8.336       c0,4.6,3.727,8.334,8.335,8.334c4.607,0,8.35-3.734,8.35-8.334C256.973,76.592,253.23,72.863,248.623,72.863z" style="fill:#FFFFFF;"/></g></g><rect height="14.898" style="fill:#FFFFFF;" width="194.957" x="152.521" y="381.543"/><rect height="14.905" style="fill:#FFFFFF;" width="194.957" x="152.521" y="355.139"/><g><path d="M325.879,155.151c-0.015-1.055-0.483-2.116-1.238-2.835c-0.798-0.762-1.823-1.156-2.885-1.156      l-34.651,0.549c-1.634,0-3.112,1.018-3.714,2.563c-0.6,1.494-0.234,3.252,0.945,4.38l8.592,8.335l-79.717,84.697l-23.665-14.751      c-5.347-2.85-11.982-0.806-14.839,4.556c-2.85,5.347-0.806,11.997,4.541,14.831l0,0l38.496,22.64l90.945-96.686l10.824,10.518      c1.172,1.113,2.938,1.436,4.439,0.805c1.494-0.651,2.468-2.152,2.439-3.779L325.879,155.151z" style="fill:#FFFFFF;"/><g><path d="M236.846,323.469c0,2.029-1.406,3.678-3.135,3.678h-24.646c-1.758,0-3.178-1.649-3.178-3.678       v-33.516c0-2.043,1.42-3.691,3.178-3.691h24.646c1.729,0,3.135,1.648,3.135,3.691V323.469z" style="fill:#FFFFFF;"/><path d="M280.314,323.469c0,2.029-1.406,3.678-3.142,3.678H252.52c-1.729,0-3.156-1.649-3.156-3.678       v-66.306c0-2.044,1.428-3.714,3.156-3.714h24.653c1.735,0,3.142,1.67,3.142,3.714V323.469z" style="fill:#FFFFFF;"/><path d="M326.582,323.469c0,2.029-1.414,3.678-3.179,3.678h-24.632c-1.735,0-3.156-1.649-3.156-3.678       v-98.32c0-2.043,1.421-3.698,3.156-3.698h24.632c1.765,0,3.179,1.655,3.179,3.698V323.469z" style="fill:#FFFFFF;"/></g></g></g></g></g><g id="Layer_1"/></svg>