<?xml version="1.0" ?><!DOCTYPE svg  PUBLIC '-//W3C//DTD SVG 1.1//EN'  'http://www.w3.org/Graphics/SVG/1.1/DTD/svg11.dtd'><svg style="enable-background:new 0 0 500 500.01;" version="1.1" viewBox="0 0 500 500.01" xml:space="preserve" xmlns="http://www.w3.org/2000/svg" xmlns:xlink="http://www.w3.org/1999/xlink"><g id="magnifier-data-screen-safe"><g><rect height="500.01" style="fill:#F27744;" width="500" y="0"/><g id="_x31_5"><g><path d="M415.54,325.034v-5.815v-4.636v-34.197c-3.94,9.609-9.214,18.654-15.85,26.821L415.54,325.034z" style="fill:#FFFFFF;"/><path d="M315.682,347.417c-1.26,0-2.52-0.022-3.794-0.066c-28.828-0.996-55.561-13.161-75.249-34.262      c-1.113-1.194-2.095-2.49-3.149-3.721H80.838V132.012h222.949c3.882-0.41,7.808-0.667,11.792-0.667      c1.26,0,2.534,0.016,3.809,0.059c2.446,0.096,4.849,0.367,7.251,0.608h68.291v34.058c8.906,9.624,15.776,20.596,20.61,32.381      v-81.094c0-5.428-4.438-9.852-9.844-9.852H70.892c-5.435,0-9.858,4.424-9.858,9.852v197.227v4.636v23.064      c0,6.08,4.424,11.067,9.858,11.067h306.24l-13.066-17.454C349.095,343.47,332.645,347.417,315.682,347.417z" style="fill:#FFFFFF;"/><rect height="18.992" style="fill:#FFFFFF;" width="108.31" x="187.859" y="357.985"/><path d="M188.138,379.453l-4.717,10.101c0,0,0.498,2.951,2.461,2.951c1.978,0,111.284,0,113.232,0      c1.992,0,1.992-2.951,1.992-2.951l-4.717-10.101H188.138z" style="fill:#FFFFFF;"/></g><path d="M436.121,368.079l-48.809-54.902l-2.285,1.875l-5.508-5.677     c18.164-16.597,29.941-40.173,30.85-66.709c1.816-52.331-39.141-96.233-91.45-98.042c-52.353-1.816-96.24,39.148-98.057,91.486     c-1.816,52.317,39.155,96.227,91.494,98.027c21.929,0.755,42.319-6.065,58.814-18.024l-0.806,0.659l4.497,6.562l-2.285,1.883     l44.048,58.783c4.409,5.391,12.334,6.182,17.725,1.787C439.739,381.387,440.516,373.454,436.121,368.079z M313.103,312.487     c-40.298-1.398-71.982-35.324-70.576-75.629c1.392-40.312,35.332-71.953,75.615-70.569c40.312,1.399,71.968,35.309,70.591,75.622     C387.327,282.224,353.401,313.872,313.103,312.487z" style="fill:#FFFFFF;"/><path d="M342.928,229.775v-8.093c0-14.166-11.704-25.709-26.074-25.709     c-14.385,0-26.074,11.543-26.074,25.709v8.093h-5.786v52.148h63.721v-52.148H342.928z M320.882,270.329h-9.595l2.432-13.285     c-1.421-0.828-2.432-2.314-2.432-4.095c0-2.651,2.153-4.798,4.79-4.798c2.651,0,4.805,2.146,4.805,4.798     c0,1.78-0.996,3.267-2.432,4.095L320.882,270.329z M331.341,229.775h-28.975v-8.093c0-7.646,6.636-14.114,14.487-14.114     c7.837,0,14.487,6.468,14.487,14.114V229.775z" style="fill:#FFFFFF;"/><g><path d="M100.789,192.363h99.448c3.237,0,5.859-2.607,5.859-5.845c0-3.237-2.622-5.852-5.859-5.852      h-99.448c-3.223,0-5.83,2.614-5.83,5.852C94.959,189.756,97.566,192.363,100.789,192.363z" style="fill:#FFFFFF;"/><path d="M100.789,218.268h99.448c3.237,0,5.859-2.614,5.859-5.852c0-3.215-2.622-5.838-5.859-5.838      h-99.448c-3.223,0-5.83,2.623-5.83,5.838C94.959,215.654,97.566,218.268,100.789,218.268z" style="fill:#FFFFFF;"/><path d="M100.789,244.175h99.448c3.237,0,5.859-2.607,5.859-5.838c0-3.236-2.622-5.859-5.859-5.859      h-99.448c-3.223,0-5.83,2.623-5.83,5.859C94.959,241.567,97.566,244.175,100.789,244.175z" style="fill:#FFFFFF;"/><path d="M206.097,264.235c0-3.229-2.622-5.852-5.859-5.852h-99.448c-3.223,0-5.83,2.622-5.83,5.852      c0,3.23,2.607,5.853,5.83,5.853h99.448C203.475,270.088,206.097,267.466,206.097,264.235z" style="fill:#FFFFFF;"/></g></g></g></g><g id="Layer_1"/></svg>