<?xml version="1.0" ?><!DOCTYPE svg  PUBLIC '-//W3C//DTD SVG 1.1//EN'  'http://www.w3.org/Graphics/SVG/1.1/DTD/svg11.dtd'><svg style="enable-background:new 0 0 500 500.008;" version="1.1" viewBox="0 0 500 500.008" xml:space="preserve" xmlns="http://www.w3.org/2000/svg" xmlns:xlink="http://www.w3.org/1999/xlink"><g id="globe-tools-settings"><g><rect height="500.008" style="fill:#62C1D3;" width="500" y="0"/><g id="_x33_1"><path d="M252.488,422.494c0.975,0.029,1.927-0.029,2.9,0V77.505c-4.255,0-8.518,0.146-12.81,0.469     c-53.665,2.886-106.868,34.958-135.264,82.756c-27.78,44.605-32.923,109.45-10.239,157.571     C122.872,378.125,185.882,422.393,252.488,422.494z M142.12,366.172c10.605-10.123,21.841-18.75,34.108-25.049     c2.63,4.906,5.068,9.346,8.014,14.033c13.359,21.371,31.479,41.117,51.885,56.322C200.64,407.1,168.165,391.338,142.12,366.172z      M92.615,256.538c0.865-0.088,1.81,0.141,2.513-0.249l59.202,0.132c0.336,24.79,7.016,52.153,17.365,75.386     c-12.729,7.455-25.239,16.084-36.621,26.895C108.853,329.418,94.131,294.672,92.615,256.538z M134.649,140.787     c11.39,11.037,23.972,20.266,37.398,27.385c-10.532,24.463-16.875,49.936-17.775,78.34l-61.699-0.117     C93.794,205.964,107.828,170.01,134.649,140.787z M239.408,88.052c-25.32,17.746-49.395,44.465-62.652,71.286     c-12.656-6.738-24.924-15.725-35.134-26.066C169.322,106.553,202.992,91.882,239.408,88.052z M247.764,179.377     c-22.786-0.681-42.993-6.357-62.103-15.637c13.301-25.884,36.738-52.273,61.956-68.774L247.764,179.377z M247.816,190.313     l-0.14,56.169l-0.169,0.154l-83.063-0.184c0.659-26.52,6.475-50.962,16.927-73.483c20.375,9.733,43.103,15.725,66.438,16.553     L247.816,190.313z M247.955,310.303c-24.258,1.215-46.854,7.162-67.391,16.611c-9.316-21.812-15.798-45.264-16.068-70.382     l2.27-0.17l80.97,0.19L247.955,310.303z M248.402,407.67c-26.074-17.754-49.439-43.461-63.289-71.264l1.172-0.703     c18.867-9.141,40.444-14.225,61.729-15.498L248.402,407.67z" style="fill:#FFFFFF;"/><path d="M329.664,191.169l-52.061,27.811v-45.718l33.047-17.681c-2.153-20.933,8.232-42.07,27.935-52.596     c19.958-10.664,43.646-7.368,59.868,6.497l-43.631,23.327l-0.725,22.435l19.051,11.836l43.652-23.328     c2.497,21.204-7.918,42.752-27.884,53.423C369.2,207.715,345.88,204.602,329.664,191.169z M328.097,336.801     c20.742-9.99,29.473-34.906,19.489-55.678c-9.99-20.729-34.906-29.447-55.648-19.482c-3.978,1.918-7.471,4.365-10.525,7.236     v19.746c2.658-7.148,7.977-13.316,15.373-16.891c15.176-7.295,33.406-0.908,40.73,14.268c7.316,15.191,0.93,33.414-14.268,40.709     c-15.19,7.324-33.428,0.938-40.737-14.238c-0.425-0.85-0.776-1.728-1.099-2.607v19.658     C293.614,341.049,312.086,344.522,328.097,336.801z M293.439,400.098l12.517-25.166c5.025,0.219,10.078-0.074,15.11-0.85     l15.257,23.584c1.56,2.432,4.951,3.369,7.521,2.139l22.5-10.84c2.593-1.246,3.963-4.482,3.055-7.207l-8.935-26.647     c3.757-3.428,7.141-7.207,10.078-11.264l27.48,5.902c2.826,0.602,5.866-1.127,6.818-3.838l8.27-23.568     c0.944-2.695-0.396-5.977-2.967-7.236l-25.158-12.525c0.219-5.023-0.037-10.062-0.836-15.102l23.592-15.25     c2.41-1.566,3.361-4.951,2.139-7.529l-10.848-22.518c-1.23-2.578-4.489-3.948-7.199-3.069l-26.652,8.965     c-3.443-3.765-7.2-7.148-11.258-10.078l5.809-27.085c-12.342-0.059-24.441-4.336-34.014-12.29l-0.924,0.506l-12.158,24.39     c-4.994-0.191-10.041,0.088-15.095,0.879l-5.12-7.969l-14.816,7.91V260c2.959-2.398,6.255-4.537,9.793-6.251     c25.144-12.108,55.305-1.523,67.383,23.595c12.106,25.137,1.545,55.283-23.584,67.383c-18.15,8.715-38.87,5.58-53.592-6.256     v61.568l8.576,2.988C288.904,403.979,292.156,402.647,293.439,400.098z" style="fill:#FFFFFF;"/></g></g></g><g id="Layer_1"/></svg>