<?xml version="1.0" ?><!DOCTYPE svg  PUBLIC '-//W3C//DTD SVG 1.1//EN'  'http://www.w3.org/Graphics/SVG/1.1/DTD/svg11.dtd'><svg style="enable-background:new 0 0 500 500.008;" version="1.1" viewBox="0 0 500 500.008" xml:space="preserve" xmlns="http://www.w3.org/2000/svg" xmlns:xlink="http://www.w3.org/1999/xlink"><g id="gear-dollar-sign"><g><rect height="500.008" style="fill:#62C1D3;" width="500" y="0"/><g id="_x31_1"><path d="M432.402,224.512l-39.463-4.673c-3.779-17.951-10.854-34.684-20.588-49.544l24.623-31.234     c1.758-2.197,1.561-5.669-0.446-7.654l-27.913-27.945c-2.021-2.007-5.463-2.208-7.697-0.443l-31.223,24.617     c-14.853-9.705-31.568-16.806-49.557-20.549l-4.636-39.48c-0.345-2.798-2.915-5.094-5.765-5.094h-39.499     c-2.835,0-5.397,2.296-5.757,5.094l-4.658,39.48c-17.959,3.743-34.68,10.844-49.526,20.549l-31.245-24.617     c-2.227-1.765-5.654-1.563-7.661,0.443l-27.92,27.945c-2.021,1.985-2.263,5.457-0.476,7.665l24.602,31.224     c-9.683,14.86-16.772,31.593-20.537,49.544l-39.448,4.673c-2.827,0.318-5.112,2.923-5.112,5.731v39.507     c0,2.834,2.285,5.412,5.112,5.75l39.448,4.643c3.765,17.975,10.854,34.71,20.537,49.586l-24.602,31.23     c-1.787,2.204-1.546,5.654,0.476,7.646l27.92,27.949c1.985,1.999,5.435,2.182,7.683,0.439l31.224-24.625     c14.847,9.705,31.567,16.803,49.526,20.566l4.658,39.449c0.359,2.819,2.922,5.098,5.757,5.111l39.499-0.014     c2.85,0.014,5.42-2.278,5.765-5.098l4.636-39.449c17.988-3.764,34.703-10.861,49.557-20.566l31.223,24.625     c2.234,1.742,5.676,1.537,7.697-0.439l27.913-27.949c2.007-1.992,2.204-5.442,0.446-7.646l-24.623-31.23     c9.733-14.876,16.809-31.611,20.588-49.586l39.463-4.658c2.783-0.322,5.098-2.9,5.098-5.734v-39.507     C437.5,227.435,435.185,224.83,432.402,224.512z M249.971,365.689c-63.875,0-115.664-51.804-115.664-115.696     c0-63.878,51.789-115.683,115.664-115.683c63.911,0,115.715,51.805,115.715,115.683     C365.685,313.886,313.882,365.689,249.971,365.689z" style="fill:#FFFFFF;"/><g><path d="M345.457,250.008c0,52.709-42.76,95.438-95.449,95.438c-52.705,0-95.465-42.729-95.465-95.438      c0-52.701,42.76-95.449,95.465-95.449C302.697,154.559,345.457,197.307,345.457,250.008z" style="fill:#FFFFFF;"/><path d="M288.101,250.872c-5.01-4.768-12.48-7.276-22.405-7.471l-2.995-0.066v-31.513      c6.475,0.451,11.228,1.875,14.231,4.281c3.698,2.996,5.551,7.435,5.551,13.396v1.89H295v-2.095      c0-18.938-10.76-29.004-32.3-30.249v-16.077c0-1.867-1.523-3.38-3.384-3.38c-1.875,0-3.398,1.513-3.398,3.38v15.956h-15.264      v-15.956c0-1.867-1.523-3.38-3.398-3.38c-1.867,0-3.398,1.513-3.398,3.38v16.008c-9.258,0.293-16.369,2.805-21.328,7.555      c-5.288,5.072-7.932,11.696-7.932,19.845v4.296c0,7.544,2.38,13.477,7.155,17.742c4.753,4.271,11.272,6.515,19.57,6.714      l2.534,0.073v33.35c-11.294-1.391-16.926-7.565-16.926-18.559v-1.305h-12.525v2.285c0,18.59,9.83,28.639,29.451,30.162v15.893      c0,1.875,1.531,3.414,3.398,3.414c1.875,0,3.398-1.539,3.398-3.414v-15.658h15.264v15.658c0,1.875,1.523,3.414,3.398,3.414      c1.86,0,3.384-1.539,3.384-3.414v-15.703c5.515-0.08,10.335-0.703,14.385-1.889c4.372-1.305,7.896-3.135,10.547-5.494      c2.659-2.357,4.651-5.192,5.97-8.496c1.34-3.324,1.999-7.045,1.999-11.162v-3.676      C295.601,262.242,293.096,255.661,288.101,250.872z M255.918,211.644v31.53l-15.264-0.402v-31.128H255.918z M220.908,239.168      c-2.534-2.238-3.787-6.207-3.787-11.88c0-5.025,1.305-8.87,3.904-11.572c2.395-2.501,6.68-3.827,12.832-4.021v30.894      C227.705,242.489,223.384,241.343,220.908,239.168z M240.654,288.859v-33.512l15.264,0.357v33.154H240.654z M278.234,285.344      c-3.223,2.351-8.312,3.516-15.227,3.516H262.7V255.86l2.601,0.088c6.584,0.064,11.205,1.377,13.835,3.95      c2.637,2.578,3.941,6.738,3.941,12.496C283.076,278.693,281.479,283,278.234,285.344z" style="fill:#62C1D3;"/></g></g></g></g><g id="Layer_1"/></svg>