<?xml version="1.0" ?><!DOCTYPE svg  PUBLIC '-//W3C//DTD SVG 1.1//EN'  'http://www.w3.org/Graphics/SVG/1.1/DTD/svg11.dtd'><svg style="enable-background:new 0 0 500 500.008;" version="1.1" viewBox="0 0 500 500.008" xml:space="preserve" xmlns="http://www.w3.org/2000/svg" xmlns:xlink="http://www.w3.org/1999/xlink"><g id="gear-clock"><g><rect height="500.008" style="fill:#F27744;" width="500" y="0"/><g id="_x33_3"><g><path d="M412.341,250.006c0-3.691-0.14-7.347-0.374-10.973l25.533-15.864      c-0.967-6.826-2.301-13.55-3.971-20.134l-29.648-4.871c-2.344-6.994-5.17-13.77-8.422-20.303l17.504-24.404      c-3.5-5.896-7.309-11.594-11.41-17.072l-29.268,6.848c-4.82-5.515-10.006-10.693-15.514-15.513l6.842-29.268      c-5.472-4.108-11.178-7.91-17.066-11.418l-24.404,17.512c-6.533-3.244-13.301-6.071-20.303-8.43l-4.877-29.642      c-6.578-1.677-13.301-2.995-20.127-3.97l-15.865,25.532c-3.617-0.241-7.279-0.373-10.971-0.373      c-3.691,0-7.34,0.132-10.957,0.373l-15.879-25.532c-6.819,0.975-13.551,2.293-20.127,3.97l-4.863,29.642      c-7.018,2.358-13.785,5.186-20.318,8.43l-24.404-17.512c-5.889,3.508-11.594,7.31-17.064,11.418l6.855,29.268      c-5.523,4.819-10.709,9.998-15.521,15.513l-29.274-6.848c-4.102,5.479-7.91,11.177-11.412,17.072l17.506,24.404      c-3.252,6.533-6.064,13.309-8.424,20.303l-29.633,4.871c-1.686,6.584-3.004,13.308-3.984,20.134l25.531,15.864      c-0.234,3.626-0.373,7.281-0.373,10.973c0,3.688,0.139,7.335,0.373,10.968L62.5,276.823c0.98,6.842,2.299,13.564,3.984,20.143      l29.633,4.877c2.359,7.002,5.172,13.77,8.424,20.303L87.035,346.55c3.502,5.904,7.311,11.602,11.412,17.066l29.274-6.842      c4.812,5.523,9.997,10.693,15.521,15.514l-6.855,29.267c5.471,4.102,11.176,7.91,17.064,11.41l24.404-17.504      c6.533,3.252,13.301,6.078,20.318,8.438l4.863,29.633c6.576,1.686,13.308,3.004,20.127,3.971l15.879-25.533      c3.617,0.25,7.266,0.381,10.957,0.381c3.691,0,7.353-0.131,10.971-0.381l15.865,25.533c6.826-0.967,13.549-2.285,20.127-3.971      l4.877-29.633c7.002-2.359,13.77-5.186,20.303-8.438l24.404,17.504c5.889-3.5,11.595-7.309,17.066-11.41l-6.842-29.267      c5.508-4.82,10.693-9.99,15.514-15.514l29.268,6.842c4.102-5.465,7.91-11.162,11.41-17.066l-17.504-24.404      c3.252-6.533,6.078-13.301,8.422-20.303l29.648-4.877c1.67-6.578,3.004-13.301,3.971-20.143l-25.533-15.85      C412.201,257.341,412.341,253.694,412.341,250.006z M386.12,250.006c0,20.431-4.643,39.737-12.744,57.155l18.091,14.209      l-8.936,15.469l-21.343-8.57c-22.464,31.816-58.132,53.6-99.017,57.246l-3.236,22.676h-17.871l-3.245-22.676      c-40.876-3.646-76.553-25.43-99.009-57.246l-21.343,8.57l-8.942-15.469l18.098-14.209      c-8.101-17.418-12.752-36.725-12.752-57.155c0-20.421,4.651-39.742,12.752-57.151l-18.098-14.209l8.942-15.477l21.343,8.569      c22.456-31.816,58.133-53.599,99.009-57.246l3.245-22.676h17.871l3.236,22.676c40.885,3.647,76.553,25.43,99.017,57.246      l21.343-8.569l8.936,15.469l-18.098,14.209C381.477,210.264,386.12,229.585,386.12,250.006z" style="fill:#FFFFFF;"/></g><g><polygon points="287.074,227.124 298.977,227.124 298.977,208.777 298.603,208.652     " style="fill:#FFFFFF;"/><path d="M250,147.73c-56.492,0-102.275,45.784-102.275,102.276c0,56.495,45.783,102.273,102.275,102.273      c56.491,0,102.275-45.777,102.275-102.273C352.275,193.514,306.491,147.73,250,147.73z M246.154,154.482      c0-2.116,1.714-3.83,3.846-3.83c2.116,0,3.838,1.714,3.838,3.83v13.462c0,2.132-1.722,3.853-3.838,3.853      c-2.132,0-3.846-1.721-3.846-3.853V154.482z M265.688,203.818c-1.237-1.53-2.973-2.3-5.192-2.3      c-2.409,0-4.233,0.864-5.501,2.607c-1.252,1.736-1.867,3.787-1.823,6.138h-8.379c-0.198-3.926,1.069-7.632,3.779-11.125      c2.731-3.494,6.731-5.237,11.976-5.237c4.951,0,8.803,1.546,11.535,4.651c2.725,3.091,4.087,6.481,4.087,10.158      c0,3.641-0.989,6.46-2.944,8.467c-1.971,2-3.926,3.721-5.859,5.179l-8.804,6.504c-1.157,0.871-2.051,1.611-2.688,2.227      c-0.651,0.622-1.201,1.436-1.654,2.417h21.76v7.946h-31.678c0-3.435,0.491-6.738,1.465-9.932      c0.975-3.171,3.633-6.335,8.014-9.477l7.888-5.581c1.26-0.944,2.542-1.984,3.779-3.091c1.237-1.12,1.89-2.637,1.97-4.533      C267.512,207.02,266.94,205.342,265.688,203.818z M186.732,199.014c4.915-3.34,10.174-11.066,14.686-9.331      c5.581,5.962,12.92,14.803,19.395,22.354c2.007,2.373,4.951,5.413,5.018,7.441c0.146,4.775-7.552,7.654-11.463,12.188      c-9.126-10.686-18.26-21.372-27.385-32.051C186.784,199.402,186.572,199.204,186.732,199.014z M167.939,253.855h-13.463      c-2.116,0-3.83-1.732-3.83-3.849c0-2.118,1.714-3.847,3.83-3.847h13.463c2.131,0,3.867,1.729,3.867,3.847      C171.807,252.122,170.07,253.855,167.939,253.855z M253.838,345.524c0,2.125-1.722,3.838-3.838,3.838      c-2.132,0-3.846-1.713-3.846-3.838v-13.461c0-2.125,1.714-3.854,3.846-3.854c2.116,0,3.838,1.729,3.838,3.854V345.524z       M249.281,318.382c-8.232-3.662-20.456-8.965-44.809-37.471c-24.346-28.482-27.275-49.106-27.158-57.031      c0.095-7.309,2.211-14.92,5.559-21.577c9.185,10.026,18.296,21.284,27.43,31.773c-0.389,1.149-2.184,2.6-2.184,3.999      c0.016,1.157,2.594,6.841,3.245,8.167c5.42,10.865,18.698,26.539,29.165,35.08c4.768,3.867,10.298,9.668,15.088,5.771      c9.272,10.84,18.523,21.68,27.781,32.52C272.529,323.054,260.107,323.186,249.281,318.382z M286.818,316.433      c-9.133-10.693-18.252-21.387-27.393-32.065c-0.213-0.205-0.395-0.41-0.234-0.586c4.871-3.193,9.888-10.811,14.246-9.521      c1.728,0.498,4.57,4.717,6.379,6.826c5.815,6.81,14.012,16.172,18.537,22.016C298.83,307.966,291.615,312.36,286.818,316.433z       M311.934,234.939H307.1v7.119h-8.057l-0.066-7.119h-20.332v-9.185l19.893-31.304h8.562v32.673h4.834V234.939z M345.508,253.855      H332.06c-2.132,0-3.853-1.732-3.853-3.849c0-2.118,1.722-3.847,3.853-3.847h13.447c2.131,0,3.845,1.729,3.845,3.847      C349.352,252.122,347.639,253.855,345.508,253.855z" style="fill:#FFFFFF;"/></g></g></g></g><g id="Layer_1"/></svg>