<?xml version="1.0" ?><!DOCTYPE svg  PUBLIC '-//W3C//DTD SVG 1.1//EN'  'http://www.w3.org/Graphics/SVG/1.1/DTD/svg11.dtd'><svg style="enable-background:new 0 0 500 500.008;" version="1.1" viewBox="0 0 500 500.008" xml:space="preserve" xmlns="http://www.w3.org/2000/svg" xmlns:xlink="http://www.w3.org/1999/xlink"><g id="monitor-gear-control-panel"><g><rect height="500.008" style="fill:#EFBF41;" width="500" y="0"/><g id="_x32_4_1_"><path d="M195.881,389.671l-5.075,10.898c0,0,0.534,3.193,2.659,3.193c2.116,0,120.066,0,122.175,0     c2.139,0,2.139-3.193,2.139-3.193l-5.075-10.898H195.881z" style="fill:#FFFFFF;"/><rect height="20.494" style="fill:#FFFFFF;" width="116.865" x="195.581" y="366.511"/><path d="M430.63,96.245H69.385c-5.852,0-10.635,4.775-10.635,10.635v212.801v4.994v24.889     c0,6.547,4.783,11.938,10.635,11.938H430.63c5.837,0,10.62-5.391,10.62-11.938v-24.889v-4.994V106.879     C441.25,101.02,436.467,96.245,430.63,96.245z M419.028,314.04H80.107V122.685h338.921V314.04z" style="fill:#FFFFFF;"/><polygon points="134.951,281.579 143.615,281.579 143.615,217.475 151.797,217.475 151.797,206.598      143.615,206.598 143.615,142.49 134.951,142.49 134.951,206.598 126.769,206.598 126.769,217.475 134.951,217.475    " style="fill:#FFFFFF;"/><polygon points="174.598,281.579 183.254,281.579 183.254,197.882 191.443,197.882 191.443,186.999      183.254,186.999 183.254,142.49 174.598,142.49 174.598,186.999 166.416,186.999 166.416,197.882 174.598,197.882    " style="fill:#FFFFFF;"/><polygon points="214.243,281.579 222.9,281.579 222.9,246.574 231.082,246.574 231.082,235.69      222.9,235.69 222.9,142.49 214.243,142.49 214.243,235.69 206.055,235.69 206.055,246.574 214.243,246.574    " style="fill:#FFFFFF;"/><polygon points="253.926,281.579 262.583,281.579 262.583,179.726 270.727,179.726 270.727,168.842      262.583,168.842 262.583,142.49 253.926,142.49 253.926,168.842 245.693,168.842 245.693,179.726 253.926,179.726    " style="fill:#FFFFFF;"/><path d="M406.922,206.459c-2.85-0.447-5.721-0.601-8.555-0.498l-6.885-13.821l-0.535-0.293     c-5.428,4.512-12.283,6.943-19.27,6.973l3.288,15.359c-2.3,1.662-4.424,3.581-6.387,5.705l-15.11-5.075     c-1.537-0.506-3.383,0.278-4.079,1.735l-6.146,12.759c-0.703,1.473-0.16,3.392,1.201,4.277l13.382,8.643     c-0.454,2.864-0.6,5.713-0.483,8.562l-14.26,7.098c-1.458,0.723-2.213,2.572-1.678,4.111l4.688,13.359     c0.542,1.537,2.271,2.519,3.867,2.182l15.571-3.353c1.677,2.299,3.589,4.438,5.728,6.387l-5.068,15.102     c-0.513,1.539,0.256,3.385,1.729,4.102l12.759,6.139c1.458,0.688,3.384,0.16,4.271-1.217l8.635-13.373     c2.863,0.453,5.721,0.615,8.569,0.482l7.097,14.268c0.732,1.451,2.564,2.213,4.117,1.67l4.855-1.699v-34.906     c-8.335,6.709-20.083,8.48-30.381,3.545c-14.238-6.855-20.223-23.954-13.367-38.2c6.849-14.238,23.943-20.236,38.196-13.381     c2.021,0.974,3.882,2.183,5.552,3.545V206.43l-8.387-4.482L406.922,206.459z" style="fill:#FFFFFF;"/><path d="M355.117,191.027c11.177,5.97,24.412,4.212,33.589-3.405l29.517,15.769v-25.92l-18.729-10.027     c1.224-11.865-4.672-23.854-15.834-29.816c-11.331-6.05-24.749-4.175-33.948,3.691l24.733,13.213l0.418,12.722l-10.796,6.717     l-24.756-13.221C337.891,172.76,343.801,184.977,355.117,191.027z" style="fill:#FFFFFF;"/><path d="M407.361,233.302c4.196,2.021,7.207,5.522,8.715,9.573v-11.199     c-1.735-1.618-3.721-3.01-5.969-4.094c-11.77-5.654-25.898-0.711-31.56,11.045c-5.654,11.77-0.703,25.901,11.053,31.571     c9.09,4.365,19.556,2.402,26.477-4.131v-11.152c-0.19,0.498-0.388,0.996-0.622,1.48c-4.146,8.602-14.495,12.234-23.101,8.074     c-8.613-4.131-12.246-14.468-8.094-23.088C388.413,232.783,398.748,229.157,407.361,233.302z" style="fill:#FFFFFF;"/></g></g></g><g id="Layer_1"/></svg>