<?xml version="1.0" ?><!DOCTYPE svg  PUBLIC '-//W3C//DTD SVG 1.1//EN'  'http://www.w3.org/Graphics/SVG/1.1/DTD/svg11.dtd'><svg style="enable-background:new 0 0 500 500.008;" version="1.1" viewBox="0 0 500 500.008" xml:space="preserve" xmlns="http://www.w3.org/2000/svg" xmlns:xlink="http://www.w3.org/1999/xlink"><g id="window-charts-graphs"><g><rect height="500.008" style="fill:#3D576B;" width="500" y="0"/><g id="_x32_3_1_"><g id="icon_3_"><rect height="2.073" style="fill:#FFFFFF;" width="6.203" x="120.742" y="211.337"/><rect height="2.08" style="fill:#FFFFFF;" width="6.203" x="120.742" y="225.305"/><rect height="2.072" style="fill:#FFFFFF;" width="6.203" x="120.742" y="239.265"/><rect height="2.071" style="fill:#FFFFFF;" width="6.203" x="120.742" y="253.232"/><rect height="2.064" style="fill:#FFFFFF;" width="6.203" x="120.742" y="267.203"/><path d="M237.637,274.951c-6.958,0-13.484,1.832-19.145,4.996v-61.887h-10.855v70.852      c-1.707,1.992-3.215,4.16-4.482,6.475h-4.834v-49.919h-10.861v49.919h-9.303v-64.904h-10.869v64.904h-9.309v-83.01h-10.861      v83.01h-13.184v-91.806h-2.857v94.648h70.686c-2.197,4.893-3.442,10.326-3.442,16.039c0,21.709,17.593,39.316,39.316,39.316      c21.701,0,39.302-17.608,39.302-39.316C276.939,292.559,259.338,274.951,237.637,274.951z M237.637,314.268l-2.938,31.289      c-15.996-1.465-28.513-14.897-28.513-31.289c0-17.373,14.069-31.449,31.45-31.449c7.295,0,13.996,2.504,19.328,6.68      L237.637,314.268z" style="fill:#FFFFFF;"/></g><g><g><path d="M414.246,97.395H85.747c-12.832,0-23.247,10.393-23.247,23.239v258.718       c0,12.861,10.415,23.262,23.247,23.262h328.499c12.832,0,23.254-10.4,23.254-23.262V120.634       C437.5,107.787,427.078,97.395,414.246,97.395z M340.695,119.265h24.676v23.767h-24.676V119.265z M297.637,119.265h24.668       v23.767h-24.668V119.265z M408.423,373.551H91.577V167.824h316.846V373.551z M408.423,143.031H383.77v-23.767h24.653V143.031z" style="fill:#FFFFFF;"/></g></g><g><path d="M275.262,244.934h107.409c6.569,0,6.569-11.25,0-11.25H275.262      C268.706,233.684,268.706,244.934,275.262,244.934z" style="fill:#FFFFFF;"/><path d="M275.262,216.823h107.409c6.569,0,6.569-11.243,0-11.243H275.262      C268.706,205.58,268.706,216.823,275.262,216.823z" style="fill:#FFFFFF;"/><path d="M275.262,273.047h107.409c6.569,0,6.569-11.25,0-11.25H275.262      C268.706,261.797,268.706,273.047,275.262,273.047z" style="fill:#FFFFFF;"/></g></g></g></g><g id="Layer_1"/></svg>