<?xml version="1.0" ?><!DOCTYPE svg  PUBLIC '-//W3C//DTD SVG 1.1//EN'  'http://www.w3.org/Graphics/SVG/1.1/DTD/svg11.dtd'><svg style="enable-background:new 0 0 500 500.008;" version="1.1" viewBox="0 0 500 500.008" xml:space="preserve" xmlns="http://www.w3.org/2000/svg" xmlns:xlink="http://www.w3.org/1999/xlink"><g id="gear-star"><g><rect height="500.008" style="fill:#EFBF41;" width="500" y="0"/><g id="_x32_5_1_"><path d="M405.859,250.006c0-3.545-0.132-7.053-0.366-10.524L430,224.254     c-0.923-6.562-2.197-13.015-3.809-19.336l-28.462-4.68c-2.256-6.717-4.966-13.227-8.086-19.49l16.802-23.43     c-3.361-5.662-7.017-11.133-10.957-16.385l-28.088,6.57c-4.637-5.296-9.609-10.269-14.898-14.891l6.57-28.096     c-5.244-3.94-10.723-7.595-16.392-10.957l-23.423,16.802c-6.27-3.12-12.773-5.822-19.49-8.093l-4.68-28.455     c-6.314-1.611-12.766-2.878-19.321-3.809l-15.234,24.515c-3.472-0.234-6.98-0.359-10.532-0.359     c-3.537,0-7.046,0.125-10.532,0.359l-15.216-24.515c-6.559,0.931-13.016,2.197-19.336,3.809l-4.684,28.455     c-6.706,2.271-13.217,4.973-19.49,8.093l-23.423-16.802c-5.658,3.362-11.129,7.017-16.388,10.957l6.566,28.096     c-5.289,4.622-10.266,9.595-14.883,14.891l-28.1-6.57c-3.944,5.252-7.6,10.723-10.961,16.385l16.806,23.43     c-3.109,6.263-5.83,12.773-8.094,19.49l-28.454,4.68c-1.604,6.321-2.886,12.773-3.812,19.336l24.518,15.228     c-0.23,3.472-0.358,6.979-0.358,10.524c0,3.537,0.128,7.053,0.358,10.529L70,275.754c0.927,6.562,2.208,13.008,3.812,19.336     l28.454,4.674c2.264,6.723,4.984,13.227,8.094,19.496l-16.806,23.424c3.361,5.668,7.017,11.133,10.953,16.391l28.107-6.576     c4.617,5.303,9.594,10.268,14.883,14.896l-6.566,28.096c5.259,3.941,10.73,7.588,16.388,10.957l23.423-16.801     c6.273,3.119,12.784,5.83,19.49,8.1l4.684,28.447c6.32,1.611,12.777,2.871,19.336,3.809l15.216-24.521     c3.486,0.234,6.995,0.367,10.532,0.367c3.553,0,7.06-0.133,10.532-0.367l15.234,24.521c6.556-0.938,13.008-2.197,19.321-3.809     l4.68-28.447c6.717-2.27,13.221-4.98,19.49-8.1l23.423,16.801c5.669-3.369,11.147-7.016,16.392-10.957l-6.57-28.096     c5.289-4.629,10.262-9.594,14.898-14.896l28.088,6.576c3.94-5.258,7.596-10.723,10.957-16.391l-16.802-23.424     c3.12-6.27,5.83-12.773,8.086-19.496l28.462-4.674c1.611-6.328,2.886-12.773,3.809-19.336l-24.507-15.219     C405.727,257.059,405.859,253.543,405.859,250.006z M361.138,180.836l-20.332,10.848c-8.379-13.022-19.453-24.097-32.476-32.483     l10.84-20.324C336.17,149.467,350.532,163.844,361.138,180.836z M311.662,134.518l-12.18,19.563     c-13.403-6.929-28.426-11.067-44.37-11.814l-0.765-23.063C275.02,119.877,294.494,125.326,311.662,134.518z M245.668,119.203     l-0.766,23.063c-15.941,0.747-30.981,4.886-44.381,11.814l-12.184-19.563C205.52,125.326,224.977,119.877,245.668,119.203z      M180.826,138.876l10.858,20.324c-13.023,8.379-24.105,19.461-32.48,32.475l-20.328-10.84     C149.468,163.844,163.846,149.467,180.826,138.876z M134.52,188.344l19.559,12.18c-6.932,13.396-11.066,28.433-11.811,44.37     l-23.063,0.776C119.878,224.98,125.323,205.519,134.52,188.344z M119.204,254.343l23.063,0.776     c0.744,15.934,4.879,30.977,11.811,44.365l-19.559,12.188C125.323,294.49,119.878,275.022,119.204,254.343z M138.877,319.172     l20.321-10.84c8.382,13.023,19.464,24.098,32.486,32.477l-10.858,20.332C163.846,350.535,149.468,336.164,138.877,319.172z      M188.338,365.49l12.184-19.555c13.399,6.928,28.439,11.059,44.381,11.807l0.766,23.07     C224.977,380.125,205.52,374.676,188.338,365.49z M199.536,336.443c-1.546,1.068-3.34,1.611-5.138,1.611     c-1.857,0-3.714-0.586-5.288-1.729c-3.103-2.242-4.439-6.211-3.325-9.889l17.794-58.842l-49.007-37.16     c-3.058-2.314-4.317-6.306-3.131-9.946c1.184-3.647,4.545-6.145,8.375-6.226l61.483-1.245l20.2-58.096     c1.256-3.618,4.677-6.042,8.5-6.042c3.838,0,7.244,2.424,8.496,6.05l20.2,58.088l61.494,1.245     c3.823,0.081,7.185,2.578,8.379,6.226c1.187,3.633-0.073,7.632-3.128,9.946l-49.006,37.16l17.783,58.842     c1.113,3.678-0.22,7.647-3.311,9.889c-1.582,1.143-3.442,1.729-5.303,1.729c-1.787,0-3.589-0.543-5.135-1.611L250,301.33     L199.536,336.443z M254.348,380.812l0.765-23.07c15.944-0.748,30.967-4.879,44.37-11.807l12.18,19.555     C294.494,374.676,275.02,380.125,254.348,380.812z M319.17,361.141l-10.84-20.332c13.022-8.379,24.097-19.469,32.49-32.49     l20.317,10.854C350.532,336.164,336.17,350.535,319.17,361.141z M365.496,311.672l-19.564-12.188     c6.921-13.402,11.074-28.432,11.814-44.365l23.05-0.776C380.122,275.022,374.673,294.49,365.496,311.672z M357.746,244.894     c-0.739-15.938-4.893-30.974-11.814-44.37l19.564-12.18c9.177,17.175,14.626,36.636,15.3,57.326L357.746,244.894z" style="fill:#FFFFFF;"/><polygon points="291.733,292.088 282.739,262.307 331.826,225.104 270.229,223.852 250,165.66      229.764,223.852 168.185,225.104 217.275,262.307 199.452,321.268 250,286.111 258.592,292.088 300.552,321.268    " style="fill:#FFFFFF;"/></g></g></g><g id="Layer_1"/></svg>