<?xml version="1.0" ?><!DOCTYPE svg  PUBLIC '-//W3C//DTD SVG 1.1//EN'  'http://www.w3.org/Graphics/SVG/1.1/DTD/svg11.dtd'><svg style="enable-background:new 0 0 500 500.01;" version="1.1" viewBox="0 0 500 500.01" xml:space="preserve" xmlns="http://www.w3.org/2000/svg" xmlns:xlink="http://www.w3.org/1999/xlink"><g id="window-data-marked-checked"><g><rect height="500.01" style="fill:#62C1D3;" width="500" y="0"/><g id="_x31_6"><g><path d="M369.824,111.79H72.314c-11.616,0-21.064,9.418-21.064,21.049v234.309      c0,11.653,9.448,21.071,21.064,21.071h261.357c-11.484-6.504-21.372-15.512-28.857-26.322H77.588V175.569h286.963v50.859      c3.853-0.527,7.749-0.887,11.748-0.887c4.98,0,9.829,0.52,14.575,1.326v-94.029C390.874,121.208,381.44,111.79,369.824,111.79z       M99.912,153.12H77.588v-21.525h22.324V153.12z M138.921,153.12h-22.339v-21.525h22.339V153.12z M177.93,153.12h-22.339v-21.525      h22.339V153.12z" style="fill:#FFFFFF;"/><rect height="10.254" style="fill:#FFFFFF;" width="149.458" x="112.129" y="213.061"/><path d="M329.526,239.304v-1.633H112.129v10.262h206.133      C321.777,244.768,325.527,241.868,329.526,239.304z" style="fill:#FFFFFF;"/><rect height="10.254" style="fill:#FFFFFF;" width="163.052" x="112.129" y="262.288"/><path d="M293.198,286.897H112.129v10.254h178.652C291.396,293.665,292.158,290.222,293.198,286.897z" style="fill:#FFFFFF;"/><rect height="10.254" style="fill:#FFFFFF;" width="149.458" x="112.129" y="311.507"/></g><path d="M390.874,241.501c-4.702-0.967-9.58-1.465-14.575-1.465c-4.014,0-7.925,0.41-11.748,1.033     c-25.796,4.211-46.963,21.994-55.972,45.828c-1.26,3.31-2.329,6.723-3.091,10.254c-1.069,4.951-1.655,10.078-1.655,15.351     c0,19.115,7.456,36.445,19.541,49.395c13.228,14.164,32.021,23.07,52.925,23.07c1.728,0,3.442-0.146,5.142-0.264     c37.603-2.65,67.31-33.926,67.31-72.201C448.75,277.477,423.906,248.255,390.874,241.501z M390.874,324.375l-17.988,19.446     l-5.156,5.559l-3.179-3.713l-1.743-2.029l-27.964-32.541l9.111-9.83l20.596,15.176l2.065,1.523l24.258-19.936l25.283-20.765     l9.243,9.808L390.874,324.375z" style="fill:#FFFFFF;"/></g></g></g><g id="Layer_1"/></svg>