<?xml version="1.0" ?><!DOCTYPE svg  PUBLIC '-//W3C//DTD SVG 1.1//EN'  'http://www.w3.org/Graphics/SVG/1.1/DTD/svg11.dtd'><svg style="enable-background:new 0 0 500 500.008;" version="1.1" viewBox="0 0 500 500.008" xml:space="preserve" xmlns="http://www.w3.org/2000/svg" xmlns:xlink="http://www.w3.org/1999/xlink"><g id="tablet-chart-pie"><g><rect height="500.008" style="fill:#F27744;" width="500" y="0"/><g id="_x36__2_"><g id="_x36_"><path d="M371.069,62.502H128.931c-12.956,0-23.577,10.606-23.577,23.569v327.85      c0,12.963,10.621,23.584,23.577,23.584h242.139c12.964,0,23.577-10.621,23.577-23.584V86.071      C394.646,73.107,384.033,62.502,371.069,62.502z M370.535,389.824h-241.07V110.183h241.07V389.824z M249.473,70.185      c3.442,0,6.24,2.791,6.24,6.248s-2.798,6.247-6.24,6.247c-3.449,0-6.262-2.79-6.262-6.247S246.023,70.185,249.473,70.185z       M268.215,417.057c0,1.889-1.537,3.428-3.428,3.428h-27.422c-1.889,0-3.434-1.539-3.434-3.428v-1.729      c0-1.875,1.546-3.414,3.434-3.414h27.422c1.891,0,3.428,1.539,3.428,3.414V417.057z" style="fill:#FFFFFF;"/></g><g id="icon_7_"><path d="M208.725,197.605l-32.132,32.109c1.854-16.443,8.855-31.977,20.003-44.238L208.725,197.605z       M214.086,202.973l-37.933,37.947c0.146,4.937,0.755,9.858,1.816,14.686l44.393-44.363L214.086,202.973z M227.73,216.61      l-47.402,47.399c1.341,3.969,3.018,7.822,4.988,11.527L236,224.865L227.73,216.61z M241.368,230.241l-52.023,52.021      c2.16,3.236,4.592,6.357,7.251,9.287l53.034-53.039L241.368,230.241z M313.413,185.476L201.957,296.91      c14.546,13.213,33.325,20.479,53.056,20.479h0.009c21.067,0,40.887-8.203,55.784-23.102      C340.835,264.244,341.875,216.728,313.413,185.476z M308.052,180.1c-14.546-13.221-33.325-20.479-53.054-20.479      c-19.73,0-38.503,7.258-53.041,20.479l53.041,53.027L308.052,180.1z" style="fill:#FFFFFF;"/></g></g></g></g><g id="Layer_1"/></svg>