<?xml version="1.0" ?><!DOCTYPE svg  PUBLIC '-//W3C//DTD SVG 1.1//EN'  'http://www.w3.org/Graphics/SVG/1.1/DTD/svg11.dtd'><svg style="enable-background:new 0 0 500 500.008;" version="1.1" viewBox="0 0 500 500.008" xml:space="preserve" xmlns="http://www.w3.org/2000/svg" xmlns:xlink="http://www.w3.org/1999/xlink"><g id="screen-data-ecommerce"><g><rect height="500.008" style="fill:#3D576B;" width="500" y="0"/><g id="_x34_"><g><rect height="20.068" style="fill:#FFFFFF;" width="114.572" x="196.658" y="369.896"/><path d="M196.958,392.585l-4.966,10.68c0,0,0.498,3.135,2.593,3.135c2.073,0,117.7,0,119.766,0      c2.103,0,2.103-3.135,2.103-3.135l-4.996-10.68H196.958z" style="fill:#FFFFFF;"/><path d="M427.07,104.923h-17.293v25.928h5.934V318.45H83.447V130.851h6.775v-25.928H72.938      c-5.742,0-10.438,4.688-10.438,10.43v208.619v4.908v24.389c0,6.432,4.695,11.705,10.438,11.705H427.07      c5.734,0,10.43-5.273,10.43-11.705V328.88v-4.908V115.353C437.5,109.611,432.805,104.923,427.07,104.923z" style="fill:#FFFFFF;"/><g><path d="M127.275,177.785c11.916,0,22.002-12.012,25.115-28.271c0.651-3.355,1.032-6.885,1.032-10.539       v-1.048v-25.928v-1.479c0-3.164-0.358-13.952-0.835-16.911h-0.256h-50.377c-0.49,2.959-0.82,13.747-0.82,16.911v1.479v25.928       v1.048C101.135,160.324,112.898,177.785,127.275,177.785z" style="fill:#FFFFFF;"/><path d="M372.725,177.785c14.37,0,26.141-17.461,26.141-38.811v-1.048v-25.928v-1.479       c0-3.164-0.345-13.952-0.828-16.911h-50.383h-0.257c-0.476,2.959-0.82,13.747-0.82,16.911v1.479v25.928v1.048       c0,3.654,0.374,7.185,1.011,10.539C350.693,165.773,360.793,177.785,372.725,177.785z" style="fill:#FFFFFF;"/><path d="M311.348,177.785c11.938,0,22.023-12.012,25.129-28.271c0.652-3.355,1.018-6.885,1.018-10.539       v-1.048v-25.928v-1.479c0-3.164-0.337-13.952-0.827-16.911h-0.242h-50.119h-0.279c-0.469,2.959-0.812,13.747-0.812,16.911       v1.479v25.928v1.048c0,3.654,0.381,7.185,1.018,10.539C289.346,165.773,299.445,177.785,311.348,177.785z" style="fill:#FFFFFF;"/><path d="M250,177.785c11.909,0,22.01-12.012,25.115-28.271c0.651-3.355,1.018-6.885,1.018-10.539v-1.048       v-25.928v-1.479c0-3.164-0.337-13.952-0.812-16.911h-0.271h-50.112h-0.257c-0.49,2.959-0.827,13.747-0.827,16.911v1.479v25.928       v1.048c0,3.654,0.366,7.185,1.019,10.539C227.977,165.773,238.084,177.785,250,177.785z" style="fill:#FFFFFF;"/><path d="M188.638,177.785c11.917,0,22.017-12.012,25.13-28.271c0.637-3.355,1.003-6.885,1.003-10.539       v-1.048v-25.928v-1.479c0-3.164-0.329-13.952-0.813-16.911h-0.256h-50.127h-0.242c-0.49,2.959-0.842,13.747-0.842,16.911v1.479       v25.928v1.048c0,3.654,0.381,7.185,1.033,10.539C166.613,165.773,176.714,177.785,188.638,177.785z" style="fill:#FFFFFF;"/></g></g><g><path d="M139.969,216.333c0,5.236-0.828,9.141-2.477,11.726c-1.654,2.593-4.167,3.882-7.572,3.882      c-3.26,0-5.742-1.325-7.441-3.977c-1.707-2.645-2.549-6.518-2.549-11.631c0-5.281,0.812-9.199,2.468-11.756      c1.641-2.556,4.153-3.838,7.522-3.838c3.295,0,5.785,1.341,7.492,4.007C139.111,207.404,139.969,211.271,139.969,216.333z       M123.416,216.333c0,4.401,0.519,7.617,1.545,9.624c1.033,2.007,2.688,3.018,4.959,3.018c2.292,0,3.947-1.019,4.994-3.055      c1.019-2.036,1.539-5.236,1.539-9.587c0-4.358-0.52-7.544-1.539-9.573c-1.047-2.021-2.702-3.032-4.994-3.032      c-2.271,0-3.926,0.996-4.959,2.996C123.935,208.715,123.416,211.923,123.416,216.333z" style="fill:#FFFFFF;"/><path d="M157.979,231.523h-3.361v-21.6c0-1.802,0.051-3.493,0.16-5.098      c-0.285,0.293-0.615,0.594-0.98,0.908c-0.352,0.322-1.992,1.663-4.922,4.051l-1.839-2.366l8.042-6.203h2.9V231.523z" style="fill:#FFFFFF;"/><path d="M190.645,216.333c0,5.236-0.828,9.141-2.482,11.726c-1.641,2.593-4.183,3.882-7.574,3.882      c-3.259,0-5.749-1.325-7.441-3.977c-1.699-2.645-2.556-6.518-2.556-11.631c0-5.281,0.827-9.199,2.476-11.756      c1.641-2.556,4.152-3.838,7.521-3.838c3.281,0,5.779,1.341,7.493,4.007C189.787,207.404,190.645,211.271,190.645,216.333z       M174.07,216.333c0,4.401,0.527,7.617,1.56,9.624c1.048,2.007,2.688,3.018,4.958,3.018c2.293,0,3.948-1.019,4.98-3.055      c1.033-2.036,1.546-5.236,1.546-9.587c0-4.358-0.513-7.544-1.546-9.573c-1.032-2.021-2.688-3.032-4.98-3.032      c-2.27,0-3.91,0.996-4.958,2.996C174.598,208.715,174.07,211.923,174.07,216.333z" style="fill:#FFFFFF;"/><path d="M215.979,216.333c0,5.236-0.827,9.141-2.468,11.726c-1.67,2.593-4.183,3.882-7.581,3.882      c-3.266,0-5.756-1.325-7.448-3.977c-1.699-2.645-2.542-6.518-2.542-11.631c0-5.281,0.813-9.199,2.454-11.756      c1.647-2.556,4.16-3.838,7.536-3.838c3.289,0,5.771,1.341,7.486,4.007C215.122,207.404,215.979,211.271,215.979,216.333z       M199.419,216.333c0,4.401,0.513,7.617,1.546,9.624c1.047,2.007,2.702,3.018,4.965,3.018c2.293,0,3.955-1.019,4.988-3.055      c1.018-2.036,1.531-5.236,1.531-9.587c0-4.358-0.514-7.544-1.531-9.573c-1.033-2.021-2.695-3.032-4.988-3.032      c-2.263,0-3.918,0.996-4.965,2.996C199.932,208.715,199.419,211.923,199.419,216.333z" style="fill:#FFFFFF;"/><path d="M233.967,231.523h-3.354v-21.6c0-1.802,0.051-3.493,0.16-5.098      c-0.285,0.293-0.607,0.594-0.959,0.908c-0.366,0.322-2.014,1.663-4.943,4.051l-1.816-2.366l8.005-6.203h2.907V231.523z" style="fill:#FFFFFF;"/><path d="M266.641,216.333c0,5.236-0.828,9.141-2.482,11.726c-1.641,2.593-4.168,3.882-7.574,3.882      c-3.259,0-5.727-1.325-7.426-3.977c-1.707-2.645-2.564-6.518-2.564-11.631c0-5.281,0.828-9.199,2.483-11.756      c1.641-2.556,4.138-3.838,7.507-3.838c3.297,0,5.794,1.341,7.493,4.007C265.791,207.404,266.641,211.271,266.641,216.333z       M250.08,216.333c0,4.401,0.527,7.617,1.561,9.624c1.033,2.007,2.674,3.018,4.943,3.018c2.293,0,3.948-1.019,4.996-3.055      c1.018-2.036,1.545-5.236,1.545-9.587c0-4.358-0.527-7.544-1.545-9.573c-1.048-2.021-2.703-3.032-4.996-3.032      c-2.27,0-3.91,0.996-4.943,2.996C250.607,208.715,250.08,211.923,250.08,216.333z" style="fill:#FFFFFF;"/><path d="M284.644,231.523h-3.362v-21.6c0-1.802,0.052-3.493,0.162-5.098      c-0.286,0.293-0.602,0.594-0.967,0.908c-0.352,0.322-1.992,1.663-4.93,4.051l-1.831-2.366l8.027-6.203h2.9V231.523z" style="fill:#FFFFFF;"/><path d="M322.062,231.523h-3.353v-21.6c0-1.802,0.051-3.493,0.16-5.098      c-0.285,0.293-0.607,0.594-0.959,0.908c-0.366,0.322-2.014,1.663-4.943,4.051l-1.816-2.366l8.005-6.203h2.907V231.523z" style="fill:#FFFFFF;"/><path d="M354.728,216.333c0,5.236-0.827,9.141-2.475,11.726c-1.656,2.593-4.168,3.882-7.574,3.882      c-3.259,0-5.742-1.325-7.441-3.977c-1.691-2.645-2.549-6.518-2.549-11.631c0-5.281,0.813-9.199,2.469-11.756      c1.641-2.556,4.152-3.838,7.521-3.838c3.297,0,5.787,1.341,7.493,4.007C353.872,207.404,354.728,211.271,354.728,216.333z       M338.176,216.333c0,4.401,0.521,7.617,1.546,9.624c1.032,2.007,2.689,3.018,4.958,3.018c2.293,0,3.948-1.019,4.996-3.055      c1.018-2.036,1.537-5.236,1.537-9.587c0-4.358-0.52-7.544-1.537-9.573c-1.048-2.021-2.703-3.032-4.996-3.032      c-2.27,0-3.926,0.996-4.958,2.996C338.696,208.715,338.176,211.923,338.176,216.333z" style="fill:#FFFFFF;"/><path d="M372.739,231.523h-3.362v-21.6c0-1.802,0.052-3.493,0.176-5.098      c-0.3,0.293-0.622,0.594-0.996,0.908c-0.352,0.322-1.992,1.663-4.922,4.051l-1.823-2.366l8.027-6.203h2.9V231.523z" style="fill:#FFFFFF;"/><path d="M139.969,267.282c0,5.23-0.828,9.141-2.477,11.719c-1.654,2.594-4.167,3.883-7.572,3.883      c-3.26,0-5.742-1.318-7.441-3.971c-1.707-2.65-2.549-6.533-2.549-11.631c0-5.287,0.812-9.203,2.468-11.766      c1.641-2.555,4.153-3.83,7.522-3.83c3.295,0,5.785,1.334,7.492,4.006C139.111,258.353,139.969,262.214,139.969,267.282z       M123.416,267.282c0,4.395,0.519,7.604,1.545,9.625c1.033,2.006,2.688,3.002,4.959,3.002c2.292,0,3.947-1.01,4.994-3.047      c1.019-2.035,1.539-5.228,1.539-9.58c0-4.365-0.52-7.559-1.539-9.574c-1.047-2.021-2.702-3.033-4.994-3.033      c-2.271,0-3.926,0.996-4.959,2.988C123.935,259.665,123.416,262.858,123.416,267.282z" style="fill:#FFFFFF;"/><path d="M157.979,282.474h-3.361v-21.607c0-1.797,0.051-3.496,0.16-5.092      c-0.285,0.283-0.615,0.586-0.98,0.908c-0.352,0.312-1.992,1.66-4.922,4.037l-1.839-2.361l8.042-6.197h2.9V282.474z" style="fill:#FFFFFF;"/><path d="M190.645,267.282c0,5.23-0.828,9.141-2.482,11.719c-1.641,2.594-4.183,3.883-7.574,3.883      c-3.259,0-5.749-1.318-7.441-3.971c-1.699-2.65-2.556-6.533-2.556-11.631c0-5.287,0.827-9.203,2.476-11.766      c1.641-2.555,4.152-3.83,7.521-3.83c3.281,0,5.779,1.334,7.493,4.006C189.787,258.353,190.645,262.214,190.645,267.282z       M174.07,267.282c0,4.395,0.527,7.604,1.56,9.625c1.048,2.006,2.688,3.002,4.958,3.002c2.293,0,3.948-1.01,4.98-3.047      c1.033-2.035,1.546-5.228,1.546-9.58c0-4.365-0.513-7.559-1.546-9.574c-1.032-2.021-2.688-3.033-4.98-3.033      c-2.27,0-3.91,0.996-4.958,2.988C174.598,259.665,174.07,262.858,174.07,267.282z" style="fill:#FFFFFF;"/><path d="M215.979,267.282c0,5.23-0.827,9.141-2.468,11.719c-1.67,2.594-4.183,3.883-7.581,3.883      c-3.266,0-5.756-1.318-7.448-3.971c-1.699-2.65-2.542-6.533-2.542-11.631c0-5.287,0.813-9.203,2.454-11.766      c1.647-2.555,4.16-3.83,7.536-3.83c3.289,0,5.771,1.334,7.486,4.006C215.122,258.353,215.979,262.214,215.979,267.282z       M199.419,267.282c0,4.395,0.513,7.604,1.546,9.625c1.047,2.006,2.702,3.002,4.965,3.002c2.293,0,3.955-1.01,4.988-3.047      c1.018-2.035,1.531-5.228,1.531-9.58c0-4.365-0.514-7.559-1.531-9.574c-1.033-2.021-2.695-3.033-4.988-3.033      c-2.263,0-3.918,0.996-4.965,2.988C199.932,259.665,199.419,262.858,199.419,267.282z" style="fill:#FFFFFF;"/><path d="M233.967,282.474h-3.354v-21.607c0-1.797,0.051-3.496,0.16-5.092      c-0.285,0.283-0.607,0.586-0.959,0.908c-0.366,0.312-2.014,1.66-4.943,4.037l-1.816-2.361l8.005-6.197h2.907V282.474z" style="fill:#FFFFFF;"/><path d="M266.641,267.282c0,5.23-0.828,9.141-2.482,11.719c-1.641,2.594-4.168,3.883-7.574,3.883      c-3.259,0-5.727-1.318-7.426-3.971c-1.707-2.65-2.564-6.533-2.564-11.631c0-5.287,0.828-9.203,2.483-11.766      c1.641-2.555,4.138-3.83,7.507-3.83c3.297,0,5.794,1.334,7.493,4.006C265.791,258.353,266.641,262.214,266.641,267.282z       M250.08,267.282c0,4.395,0.527,7.604,1.561,9.625c1.033,2.006,2.674,3.002,4.943,3.002c2.293,0,3.948-1.01,4.996-3.047      c1.018-2.035,1.545-5.228,1.545-9.58c0-4.365-0.527-7.559-1.545-9.574c-1.048-2.021-2.703-3.033-4.996-3.033      c-2.27,0-3.91,0.996-4.943,2.988C250.607,259.665,250.08,262.858,250.08,267.282z" style="fill:#FFFFFF;"/><path d="M296.728,282.474h-3.354v-21.607c0-1.797,0.059-3.496,0.161-5.092      c-0.278,0.283-0.623,0.586-0.975,0.908c-0.365,0.312-2.006,1.66-4.943,4.037l-1.816-2.361l8.035-6.197h2.893V282.474z" style="fill:#FFFFFF;"/><path d="M329.409,267.282c0,5.23-0.827,9.141-2.49,11.719c-1.655,2.594-4.167,3.883-7.559,3.883      c-3.274,0-5.757-1.318-7.456-3.971c-1.691-2.65-2.534-6.533-2.534-11.631c0-5.287,0.814-9.203,2.454-11.766      c1.647-2.555,4.152-3.83,7.536-3.83c3.288,0,5.771,1.334,7.478,4.006C328.537,258.353,329.409,262.214,329.409,267.282z       M312.842,267.282c0,4.395,0.52,7.604,1.553,9.625c1.025,2.006,2.695,3.002,4.966,3.002c2.292,0,3.948-1.01,4.98-3.047      c1.019-2.035,1.538-5.228,1.538-9.58c0-4.365-0.52-7.559-1.538-9.574c-1.032-2.021-2.689-3.033-4.98-3.033      c-2.271,0-3.94,0.996-4.966,2.988C313.361,259.665,312.842,262.858,312.842,267.282z" style="fill:#FFFFFF;"/><path d="M347.397,282.474h-3.354v-21.607c0-1.797,0.051-3.496,0.161-5.092      c-0.3,0.283-0.608,0.586-0.974,0.908c-0.359,0.312-2,1.66-4.93,4.037l-1.824-2.361l8.014-6.197h2.907V282.474z" style="fill:#FFFFFF;"/><path d="M380.07,267.282c0,5.23-0.827,9.141-2.482,11.719c-1.641,2.594-4.168,3.883-7.573,3.883      c-3.259,0-5.728-1.318-7.427-3.971c-1.714-2.65-2.564-6.533-2.564-11.631c0-5.287,0.827-9.203,2.468-11.766      c1.656-2.555,4.153-3.83,7.522-3.83c3.281,0,5.794,1.334,7.493,4.006C379.221,258.353,380.07,262.214,380.07,267.282z       M363.511,267.282c0,4.395,0.513,7.604,1.56,9.625c1.033,2.006,2.674,3.002,4.944,3.002c2.292,0,3.948-1.01,4.995-3.047      c1.017-2.035,1.545-5.228,1.545-9.58c0-4.365-0.527-7.559-1.545-9.574c-1.047-2.021-2.703-3.033-4.995-3.033      c-2.271,0-3.911,0.996-4.944,2.988C364.023,259.665,363.511,262.858,363.511,267.282z" style="fill:#FFFFFF;"/></g></g></g></g><g id="Layer_1"/></svg>