<?xml version="1.0" ?><!DOCTYPE svg  PUBLIC '-//W3C//DTD SVG 1.1//EN'  'http://www.w3.org/Graphics/SVG/1.1/DTD/svg11.dtd'><svg style="enable-background:new 0 0 500 500.008;" version="1.1" viewBox="0 0 500 500.008" xml:space="preserve" xmlns="http://www.w3.org/2000/svg" xmlns:xlink="http://www.w3.org/1999/xlink"><g id="magnifier-data"><g><rect height="500.008" style="fill:#3D576B;" width="500" y="0"/><g id="_x33_6"><path d="M413.239,405.921l-75.015-84.346l-3.493,2.887l-8.475-8.73     c27.928-25.488,45.988-61.725,47.41-102.499c2.783-80.398-60.133-147.861-140.501-150.638     C152.702,59.819,85.29,122.741,82.485,203.161c-2.776,80.387,60.168,147.844,140.58,150.611     c33.691,1.172,65.032-9.316,90.367-27.685l-1.224,0.996l6.914,10.094l-3.53,2.885l67.661,90.338     c6.79,8.275,18.962,9.492,27.246,2.738C418.769,426.37,419.999,414.183,413.239,405.921z M224.208,320.507     c-61.934-2.139-110.588-54.273-108.428-116.195c2.132-61.919,54.273-110.566,116.185-108.421     c61.927,2.153,110.589,54.236,108.472,116.199C338.276,274.013,286.149,322.646,224.208,320.507z" style="fill:#FFFFFF;"/><g><path d="M158.488,120.112c-1.94,1.53-3.809,3.127-5.648,4.79      C155.163,123.789,157.075,122.199,158.488,120.112z" style="fill:#FFFFFF;"/><path d="M189.491,102.731c-2.256,0.828-4.438,1.787-6.621,2.739v20.721h6.621V102.731z" style="fill:#FFFFFF;"/><path d="M231.965,95.891c-0.784-0.029-1.53,0.052-2.314,0.037c3.56,2.116,5.244,6.68,5.244,12.803      c0,8.825-3.362,14.429-10.393,14.429c-6.247,0-10.305-5.112-10.305-14.121c0-6.387,2.036-10.693,5.207-12.84      c-2.819,0.22-5.617,0.571-8.393,0.996c-2.308,2.952-3.678,6.87-3.678,11.792c0.154,11.463,6.863,17.791,16.78,17.791      c11.257,0,17.643-6.504,17.643-18.267c0-5.083-1.348-9.141-3.786-12.107C235.972,96.228,233.993,95.964,231.965,95.891z" style="fill:#FFFFFF;"/><path d="M264.198,126.777c10.855,0,17.139-6.131,17.549-17.168c-2.27-1.238-4.548-2.483-6.914-3.574      c0.081,0.871,0.14,1.758,0.14,2.695c0,8.825-3.354,14.429-10.386,14.429c-6.248,0-10.32-5.112-10.32-14.121      c0-3.992,0.828-7.134,2.184-9.5c-2.029-0.527-4.095-0.952-6.168-1.369c-1.838,2.827-2.878,6.452-2.878,10.817      C247.558,120.449,254.267,126.777,264.198,126.777z" style="fill:#FFFFFF;"/><path d="M303.112,124.646v1.546h1.582C304.152,125.686,303.661,125.137,303.112,124.646z" style="fill:#FFFFFF;"/><path d="M144.813,154.938c-10.297,0-17.65,6.395-17.65,17.996c0.168,11.447,6.885,17.79,16.794,17.79      c11.25,0,17.659-6.496,17.659-18.267C161.616,161.428,155.515,154.938,144.813,154.938z M144.345,187.1      c-6.24,0-10.297-5.105-10.297-14.107c0-9.434,4.365-14.437,10.385-14.437c7.098,0,10.306,5.596,10.306,14.121      C154.738,181.504,151.376,187.1,144.345,187.1z" style="fill:#FFFFFF;"/><path d="M184.892,154.938c-10.305,0-17.658,6.395-17.658,17.996c0.184,11.447,6.885,17.79,16.802,17.79      c11.257,0,17.651-6.496,17.651-18.267C201.686,161.428,195.601,154.938,184.892,154.938z M184.416,187.1      c-6.24,0-10.298-5.105-10.298-14.107c0-9.434,4.38-14.437,10.386-14.437c7.097,0,10.306,5.596,10.306,14.121      C194.81,181.504,191.462,187.1,184.416,187.1z" style="fill:#FFFFFF;"/><polygon points="229.585,190.139 229.585,155.524 223.726,155.524 212.629,159.567 213.962,163.135       222.795,159.89 222.948,159.89 222.948,190.139     " style="fill:#FFFFFF;"/><path d="M265.056,154.938c-10.312,0-17.651,6.395-17.651,17.996c0.153,11.447,6.862,17.79,16.794,17.79      c11.229,0,17.63-6.496,17.63-18.267C281.828,161.428,275.749,154.938,265.056,154.938z M264.587,187.1      c-6.248,0-10.32-5.105-10.32-14.107c0-9.434,4.381-14.437,10.408-14.437c7.098,0,10.298,5.596,10.298,14.121      C274.973,181.504,271.618,187.1,264.587,187.1z" style="fill:#FFFFFF;"/><polygon points="292.814,159.567 294.126,163.135 302.958,159.89 303.112,159.89 303.112,190.139       309.748,190.139 309.748,155.524 303.882,155.524     " style="fill:#FFFFFF;"/><path d="M338.986,189.941c-0.337-2.051-0.835-4.021-1.282-6.028c-2.065-2.402-3.266-6.079-3.266-10.92      c0-0.242,0.029-0.439,0.029-0.667c-1.172-3.493-2.52-6.885-4.014-10.21c-1.846,2.827-2.9,6.453-2.9,10.818      C327.692,182.155,332.116,187.993,338.986,189.941z" style="fill:#FFFFFF;"/><path d="M120.952,241.724c0.336-1.641,0.57-3.384,0.57-5.317c0-5.698-1.654-10.145-4.688-13.154      C117.692,229.58,119.069,235.754,120.952,241.724z" style="fill:#FFFFFF;"/><path d="M144.813,218.879c-10.297,0-17.65,6.395-17.65,18.003c0.168,11.455,6.885,17.791,16.794,17.791      c11.25,0,17.659-6.497,17.659-18.267C161.616,225.376,155.515,218.879,144.813,218.879z M144.345,251.047      c-6.24,0-10.297-5.112-10.297-14.121c0-9.411,4.365-14.429,10.385-14.429c7.098,0,10.306,5.604,10.306,14.121      C154.738,245.451,151.376,251.047,144.345,251.047z" style="fill:#FFFFFF;"/><polygon points="189.491,254.081 189.491,219.465 183.64,219.465 172.573,223.508 173.884,227.067       182.71,223.83 182.87,223.83 182.87,254.081     " style="fill:#FFFFFF;"/><path d="M224.985,218.879c-10.312,0-17.652,6.395-17.652,18.003c0.154,11.455,6.863,17.791,16.78,17.791      c11.257,0,17.643-6.497,17.643-18.267C241.757,225.376,235.671,218.879,224.985,218.879z M224.501,251.047      c-6.247,0-10.305-5.112-10.305-14.121c0-9.411,4.38-14.429,10.393-14.429c7.098,0,10.306,5.604,10.306,14.121      C234.895,245.451,231.532,251.047,224.501,251.047z" style="fill:#FFFFFF;"/><path d="M265.056,218.879c-10.312,0-17.651,6.395-17.651,18.003c0.153,11.455,6.862,17.791,16.794,17.791      c11.229,0,17.63-6.497,17.63-18.267C281.828,225.376,275.749,218.879,265.056,218.879z M264.587,251.047      c-6.248,0-10.32-5.112-10.32-14.121c0-9.411,4.381-14.429,10.408-14.429c7.098,0,10.298,5.604,10.298,14.121      C274.973,245.451,271.618,251.047,264.587,251.047z" style="fill:#FFFFFF;"/><polygon points="292.814,223.508 294.126,227.067 302.958,223.83 303.112,223.83 303.112,254.081       309.748,254.081 309.748,219.465 303.882,219.465     " style="fill:#FFFFFF;"/><path d="M332.863,223.508l1.333,3.559l4.93-1.802c0.212-1.406,0.381-2.819,0.534-4.24L332.863,223.508z" style="fill:#FFFFFF;"/><path d="M144.813,282.831c-0.183,0-0.344,0.043-0.52,0.043c1.333,1.494,2.717,2.93,4.139,4.381      c2.014,0.82,3.508,2.344,4.548,4.408c2.718,2.447,5.552,4.775,8.503,6.959C160.854,288.675,154.921,282.831,144.813,282.831z" style="fill:#FFFFFF;"/><path d="M184.892,282.831c-10.305,0-17.658,6.387-17.658,17.988c0.015,0.629,0.109,1.186,0.168,1.772      c2.439,1.582,4.938,3.062,7.508,4.453c-0.506-1.787-0.791-3.852-0.791-6.166c0-9.42,4.38-14.43,10.386-14.43      c7.097,0,10.306,5.582,10.306,14.121c0,6.328-1.758,10.973-5.332,13.096c1.838,0.689,3.742,1.246,5.632,1.832      c4.248-3.004,6.577-8.102,6.577-15.146C201.686,289.319,195.601,282.831,184.892,282.831z" style="fill:#FFFFFF;"/><polygon points="212.629,287.46 213.962,291.018 222.795,287.782 222.948,287.782 222.948,318.03       229.585,318.03 229.585,283.417 223.726,283.417     " style="fill:#FFFFFF;"/><path d="M265.056,282.831c-10.312,0-17.651,6.387-17.651,17.988c0.117,8.057,3.509,13.535,8.95,16.098      c2.307-0.6,4.541-1.332,6.782-2.08c-5.397-0.746-8.87-5.684-8.87-13.959c0-9.42,4.381-14.43,10.408-14.43      c7.098,0,10.298,5.582,10.298,14.121c0,4.658-0.96,8.379-2.886,10.885c2.996-1.275,5.926-2.652,8.781-4.176      c0.594-2.065,0.96-4.35,0.96-6.928C281.828,289.319,275.749,282.831,265.056,282.831z" style="fill:#FFFFFF;"/><path d="M292.814,287.46l1.312,3.559l8.832-3.236h0.154v3.926c2.3-2.08,4.504-4.264,6.636-6.52v-1.771      h-5.866L292.814,287.46z" style="fill:#FFFFFF;"/></g></g></g></g><g id="Layer_1"/></svg>