<?xml version="1.0" ?><!DOCTYPE svg  PUBLIC '-//W3C//DTD SVG 1.1//EN'  'http://www.w3.org/Graphics/SVG/1.1/DTD/svg11.dtd'><svg style="enable-background:new 0 0 500 500;" version="1.1" viewBox="0 0 500 500" xml:space="preserve" xmlns="http://www.w3.org/2000/svg" xmlns:xlink="http://www.w3.org/1999/xlink"><g id="gear-software-cd-rom-case"><g><rect height="500" style="fill:#3D576B;" width="500" y="0"/><g id="_x37_"><path d="M353.403,147.153c-7.266,0-14.297,0.879-21.123,2.337v82.25     c5.142-5.939,12.656-9.785,21.123-9.785c15.498,0,28.052,12.568,28.052,28.053c0,15.49-12.554,28.044-28.052,28.044     c-8.467,0-15.981-3.838-21.123-9.785v82.251c6.826,1.457,13.857,2.329,21.123,2.329c56.792,0,102.847-46.032,102.847-102.839     C456.25,193.193,410.195,147.153,353.403,147.153z M371.348,214.727c-6.108-3.201-12.905-4.629-19.702-4.453     c-0.381-16.421-0.644-35.047-0.542-50.266c15.073-0.234,30.059,3.266,43.594,10.385L371.348,214.727z M425.312,304.266     l-40.884-29.07c4.468-5.838,7.471-12.898,8.115-20.757c0.205-2.3,0.103-4.548-0.088-6.804l49.966-3.714     c0.41,4.849,0.498,9.792,0.073,14.795C441.001,275.825,434.775,291.367,425.312,304.266z" style="fill:#FFFFFF;"/><path d="M287.324,112.1H70.337c-14.663,0-26.587,11.271-26.587,25.145v225.578     c0,13.814,11.924,25.078,26.587,25.078h216.987c14.678,0,26.587-11.265,26.587-25.078v-15.477v-14.252V166.899v-14.238v-15.417     C313.911,123.371,302.002,112.1,287.324,112.1z M276.704,281.875c-12.964,41.711-51.87,72.012-97.852,72.012     c-56.631,0-102.495-45.93-102.495-102.518c0-56.608,45.864-102.51,102.495-102.51c45.469,0,84.009,29.642,97.412,70.65     c3.281,10.02,5.068,20.727,5.068,31.859C281.333,261.99,279.722,272.244,276.704,281.875z" style="fill:#FFFFFF;"/><g><path d="M252.812,263.608c-11.558,0-13.608-6.226-13.608-13.923c0-7.698,2.051-13.932,13.608-13.932      h15.293c-2.183-13.08-7.148-25.217-14.312-35.749l-10.986,10.026c-8.496,7.801-14.238,4.586-19.438-1.098      c-5.186-5.677-7.881-11.676,0.63-19.453l10.781-9.852c-11.953-9.404-26.323-15.879-42.012-18.303v14.385      c0,11.543-6.226,13.594-13.931,13.594c-7.705,0-13.945-2.051-13.945-13.594v-14.385c-15.146,2.344-29.062,8.444-40.752,17.314      l10.283,10.554c8.057,8.262,5.039,14.085-0.469,19.453c-5.508,5.368-11.426,8.255-19.482-0.007l-9.683-9.932      c-7.632,10.832-12.964,23.415-15.22,37.045h15.293c11.543,0,13.594,6.233,13.594,13.932c0,7.697-2.051,13.923-13.594,13.923      H89.204c1.89,13.366,6.694,25.774,13.755,36.606l11.895-10.884c8.511-7.778,14.238-4.585,19.439,1.099      c5.2,5.676,7.881,11.675-0.645,19.461l-12.07,11.052c12.188,9.983,27.041,16.831,43.315,19.343v-16.641      c0-11.543,6.24-13.601,13.945-13.601c7.705,0,13.931,2.058,13.931,13.601v16.641c13.271-2.051,25.576-6.979,36.284-14.128      l-11.309-11.595c-8.057-8.269-5.024-14.092,0.483-19.46c5.508-5.368,11.411-8.255,19.468,0.015l11.88,12.188      c9.858-12.342,16.582-27.305,18.896-43.696H252.812z M181.87,294.634c-24.932,0-45.161-20.229-45.161-45.169      c0-24.938,20.229-45.176,45.161-45.176c24.917,0,45.161,20.237,45.161,45.176C227.031,274.404,206.787,294.634,181.87,294.634z" style="fill:#FFFFFF;"/><path d="M190.894,224.68c-2.93-1.113-6.094-1.75-9.39-1.75c-7.148,0-13.857,2.805-18.911,7.852      c-5.054,5.031-7.837,11.763-7.837,18.904c0,14.743,12.012,26.74,26.748,26.74c10.855,0,20.2-6.512,24.39-15.835      c1.494-3.333,2.358-7.017,2.358-10.905C208.252,238.244,201.016,228.496,190.894,224.68z M181.504,269.116      c-5.186,0-10.063-2.022-13.74-5.698c-3.677-3.662-5.684-8.547-5.684-13.732c0-5.186,2.007-10.071,5.684-13.756      c3.677-3.654,8.555-5.668,13.74-5.668c10.723,0,19.424,8.701,19.424,19.424C200.928,260.379,192.227,269.116,181.504,269.116z" style="fill:#FFFFFF;"/></g></g></g></g><g id="Layer_1"/></svg>