<?xml version="1.0" ?><!DOCTYPE svg  PUBLIC '-//W3C//DTD SVG 1.1//EN'  'http://www.w3.org/Graphics/SVG/1.1/DTD/svg11.dtd'><svg style="enable-background:new 0 0 500 500.01;" version="1.1" viewBox="0 0 500 500.01" xml:space="preserve" xmlns="http://www.w3.org/2000/svg" xmlns:xlink="http://www.w3.org/1999/xlink"><g id="gear-resize-arrows"><g><rect height="500.01" style="fill:#F27744;" width="500" y="0"/><g id="_x32_2"><g><path d="M174.436,335.067c-1.977,0.865-4.16,1.305-6.35,1.305c-5.171,0-9.865-2.432-12.678-6.549      l-5.523-7.559l-22.09,22.09L92.5,309.067v98.438h98.438l-35.295-35.303l22.266-22.266      C174.377,346.083,172.964,340.444,174.436,335.067z" style="fill:#FFFFFF;"/><path d="M407.5,190.942V92.505h-98.438l35.295,35.287l-21.986,22.002      c3.127,3.691,4.365,8.76,3.223,13.668c1.904-0.732,3.874-1.113,5.844-1.113c5.23,0,9.94,2.49,12.73,6.693l6.166,8.482      l21.871-21.885L407.5,190.942z" style="fill:#FFFFFF;"/><path d="M161.604,171.577c1.686,0,3.369,0.264,4.974,0.791c-2.63-6.608-0.586-14.18,5.179-18.297      l5.727-4.424l-21.84-21.855l35.295-35.287H92.5v98.437l35.295-35.303l21.797,21.797      C152.42,173.817,156.74,171.577,161.604,171.577z" style="fill:#FFFFFF;"/><path d="M339.143,327.421c-1.641,0-3.252-0.248-4.805-0.717c2.637,6.621,0.535,14.238-5.316,18.324      l-6.717,5.127l22.053,22.047l-35.295,35.303H407.5v-98.438l-35.295,35.287l-21.79-21.781      C347.566,325.604,343.537,327.421,339.143,327.421z" style="fill:#FFFFFF;"/></g><path d="M362.42,258.573l-1.904,14.254c-0.162,2.035-2.161,3.779-4.557,3.75l-21.101-0.234     c-0.696,2.182-1.501,4.35-2.337,6.43l16.686,13.33c1.816,1.451,2.357,4.072,1.091,5.742l-7.471,12.246     c-0.989,1.904-3.509,2.623-5.69,1.656l-19.168-8.688c-1.574,1.787-3.164,3.561-4.812,5.244l10.357,17.799     c1.185,2.035,0.732,4.643-1.062,5.801l-11.375,8.672c-1.589,1.377-4.232,1.143-5.932-0.514l-14.912-15.293     c-1.443,0.719-2.9,1.318-4.322,1.934c-0.52,0.221-1.055,0.498-1.582,0.689l1.582,11.879l1.209,8.906     c0.184,1.451-0.344,2.799-1.209,3.75c-0.557,0.602-1.208,1.07-2.021,1.217l-13.871,3.662c-1.971,0.688-4.329-0.557-5.23-2.754     l-3.105-7.779l-5.023-12.553c-1.136,0.102-2.213,0.117-3.34,0.117l-5.963,21.811c-0.645,2.285-2.819,3.779-4.863,3.31     l-14.223-2.021c-2.08-0.131-3.766-2.197-3.707-4.57l0.439-22.559c-1.992-0.615-3.91-1.303-5.844-2.08l-13.945,17.711     c-1.523,1.846-4.095,2.344-5.823,1.143l-12.239-7.471c-1.889-0.938-2.562-3.443-1.67-5.641l9.199-20.463     c-1.42-1.217-2.79-2.418-3.998-3.691l-20.23,11.191c-2.08,1.172-4.688,0.645-5.815-1.129l-8.453-11.557     c-1.377-1.582-1.113-4.234,0.586-5.875l12.041-11.367l4.717-4.438c-0.834-1.627-1.67-3.297-2.373-5.01l-23.327,3.178     c-2.366,0.338-4.585-1.098-4.98-3.148l-3.669-13.887c-0.784-1.978,0.469-4.322,2.68-5.215l22.002-8.936     c0.117-0.059,0.264-0.104,0.345-0.133c-0.081-1.641-0.183-3.311-0.183-5.023c-0.074-0.016-0.169-0.016-0.293-0.016l-22.845-6.475     c-2.314-0.688-3.75-2.871-3.304-4.922l1.971-12.67l0.227-1.51c0.176-2.109,2.256-3.779,4.6-3.734l17.988,0.512l5.758,0.162     c0.072,0,0.153,0.059,0.248,0.072c0.557-1.904,1.26-3.75,1.92-5.537c-0.016,0-0.045-0.072-0.104-0.088l-18.604-14.867     c-1.875-1.494-2.328-4.072-1.113-5.801l7.486-12.203c0.938-1.889,3.508-2.607,5.639-1.625l21.666,9.814     c0.059,0,0.146,0.059,0.176,0.059c1.244-1.392,2.504-2.769,3.822-4.072l-11.865-20.113c-1.201-2.035-0.746-4.658,1.012-5.801     l11.345-8.773c1.575-1.422,4.241-1.172,5.882,0.498l16.765,16.875c0.153,0.131,0.278,0.264,0.366,0.365     c1.443-0.717,2.893-1.377,4.387-2.006l-3.771-22.764c-0.366-2.359,0.988-4.629,3.025-5.068l13.725-4.088     c1.992-0.746,4.381,0.396,5.361,2.594l9.537,21.781c0.072,0.205,0.146,0.41,0.205,0.615c0.029,0.059,0.043,0.117,0.059,0.176     c1.406-0.117,2.819-0.146,4.24-0.205l6.277-22.793c0.593-2.285,2.819-3.809,4.906-3.311l0.967,0.133l13.235,1.934     c2.073,0.117,3.75,2.182,3.714,4.57l-0.439,23.686c0.439,0.117,0.827,0.279,1.273,0.426c0.066-0.104,0.104-0.146,0.176-0.191     l6.27-7.484l9.017-10.709c1.56-1.83,4.196-2.299,5.786-0.996l12.049,7.809c1.859,1.025,2.533,3.574,1.501,5.727l-9.419,19.482     c1.523,1.143,2.98,2.389,4.387,3.662l19.93-10.928c2.065-1.098,4.621-0.586,5.721,1.23l8.438,11.617     c1.318,1.625,1.017,4.232-0.703,5.859l-15.367,14.326c1.129,2.006,2.227,4.115,3.223,6.254l21.299-2.973     c2.366-0.309,4.615,1.084,5.025,3.178l3.721,13.844c0.645,1.977-0.527,4.336-2.77,5.229l-19.584,7.998     c0.315,2.49,0.482,5.025,0.527,7.588l20.404,5.42C361.379,254.354,362.873,256.538,362.42,258.573z M263.572,212.827     c8.305,2.725,15.271,7.998,20.127,14.838l2.211-0.879l22.441-8.936c-5.391-9.434-13.073-17.475-22.441-23.246     c-5.632-3.502-11.865-6.182-18.574-7.838L263.572,212.827z M205.695,203.247l20.896,16.42c5.369-4.365,11.945-7.178,18.984-8.232     c1.574-0.234,3.113-0.453,4.746-0.512l3.794-26.074c-2.937-0.133-5.853,0.014-8.737,0.277     C230.262,186.489,216.33,193.007,205.695,203.247z M195.471,270.292l17.051-6.811l1.23-0.498     c-1.83-5.641-2.52-11.807-1.641-18.135c0.836-5.596,2.783-10.723,5.566-15.191l-20.609-16.201     c-5.472,8.027-9.273,17.344-10.738,27.627c-0.029,0.146-0.029,0.264-0.029,0.41c-1.068,7.471-0.732,14.824,0.682,21.842     c0.607,3.207,1.385,6.342,2.469,9.359L195.471,270.292z M239.109,288.149c-7.676-2.432-14.225-7.207-18.926-13.287l-13.082,5.201     l-11.82,4.717c2.139,3.5,4.613,6.768,7.354,9.814c8.496,9.418,19.746,16.449,32.738,19.688L239.109,288.149z M248.895,267.45     c4.73,0.703,9.258-0.6,12.787-3.223c3.473-2.621,5.963-6.576,6.666-11.264c0.915-6.402-1.861-12.422-6.666-16.07     c-2.263-1.699-4.892-2.914-7.881-3.34c-2.797-0.424-5.537-0.059-8.064,0.82c-5.83,2.051-10.423,7.135-11.36,13.697     c-1.186,8.334,3.846,16.113,11.602,18.662C246.909,267.04,247.876,267.333,248.895,267.45z M295.168,299.487l-9.258-7.295     l-11.777-9.287c-3.764,2.65-7.969,4.555-12.451,5.756c-2.988,0.82-6.064,1.377-9.287,1.436l-3.779,26.104     c4.41,0.205,8.775-0.072,13.066-0.762c8.688-1.361,16.949-4.512,24.229-9.053C289.178,304.351,292.283,302.065,295.168,299.487z      M313.816,230.067l-24.332,9.697c1.465,5.201,1.92,10.752,1.113,16.422c-0.717,4.818-2.49,9.154-4.688,13.168     c-0.732,1.363-1.348,2.812-2.211,4.072l2.211,1.744l18.281,14.443c6.285-8.496,10.605-18.531,12.203-29.664     C317.918,249.536,316.922,239.37,313.816,230.067z" style="fill:#FFFFFF;"/></g></g></g><g id="Layer_1"/></svg>