<?xml version="1.0" ?><!DOCTYPE svg  PUBLIC '-//W3C//DTD SVG 1.1//EN'  'http://www.w3.org/Graphics/SVG/1.1/DTD/svg11.dtd'><svg style="enable-background:new 0 0 500 500;" version="1.1" viewBox="0 0 500 500" xml:space="preserve" xmlns="http://www.w3.org/2000/svg" xmlns:xlink="http://www.w3.org/1999/xlink"><g id="dollar-coin-arrow"><g><rect height="500" style="fill:#F27744;" width="500" y="0"/><g id="_x31_"><path d="M200.865,207.183c2.982,3.223,8.244,6.409,15.806,9.632c1.253,0.469,2.318,0.98,3.204,1.406     v-44.941c-6.898,0.938-12.539,3.412-16.907,7.441c-4.388,4.027-6.548,8.76-6.548,14.223     C196.42,199.865,197.91,203.916,200.865,207.183z" style="fill:#FFFFFF;"/><path d="M245.217,254.725l-3.962-2.168v47.24c14.602-3.383,21.914-10.898,21.914-22.426     c0-5.025-1.311-9.163-3.89-12.422C256.665,261.675,251.992,258.232,245.217,254.725z" style="fill:#FFFFFF;"/><path d="M358.185,277.495c3.758-12.21,5.809-25.173,5.809-38.613c0-72.29-58.602-130.884-130.884-130.884     c-72.286,0-130.884,58.594-130.884,130.884c0,72.282,58.598,130.869,130.884,130.869c17.768,0,34.702-3.574,50.142-9.983v-63.523     c-1.779,3.392-3.859,6.709-6.57,9.792c-3.933,4.498-8.488,8.182-13.703,10.943c-5.229,2.834-12.455,4.987-21.724,6.488v28.309     h-21.38v-28.309c-14.473-1.34-30.791-7.396-49.061-18.193v-32.109c8.145,7.391,16.011,13.258,23.613,17.586     c7.592,4.357,16.084,7.427,25.447,9.279v-56.008c-14.274-4.959-24.342-9.551-30.16-13.799     c-5.823-4.256-10.379-9.396-13.686-15.373c-3.322-5.984-4.98-12.041-4.98-18.172c0-11.961,4.486-22.156,13.393-30.607     c8.913-8.453,20.705-13.682,35.434-15.726v-23.159h21.38v23.159c16.904,2.556,29.905,7.632,38.987,15.3v29.297     c-10.621-10.898-23.595-18.083-38.987-21.664v51.68c15.469,4.519,27.202,11.169,35.23,19.987     c8.027,8.789,12.041,18.919,12.041,30.381c0,0.747-0.168,1.436-0.197,2.168H358.185z" style="fill:#FFFFFF;"/><path d="M76.525,238.882c0-86.36,70.24-156.599,156.585-156.599c86.345,0,156.592,70.238,156.592,156.599     c0,13.337-1.86,26.235-5.024,38.613h14.458c2.9-12.437,4.585-25.313,4.585-38.613c0-94.087-76.538-170.625-170.61-170.625     c-94.076,0-170.61,76.538-170.61,170.625c0,94.072,76.534,170.602,170.61,170.602c17.442,0,34.284-2.658,50.142-7.536v-14.86     c-15.77,5.339-32.593,8.379-50.142,8.379C146.766,395.467,76.525,325.22,76.525,238.882z" style="fill:#FFFFFF;"/><polygon points="373.34,335.803 369.326,331.789 385.059,316.05 409.595,291.514 395.32,291.514      380.4,291.514 352.891,291.514 297.277,291.514 297.277,352.876 297.277,381.564 297.277,396.857 297.277,403.838      310.264,390.838 337.539,363.562 343.091,369.1 405.742,431.743 437.5,399.971    " style="fill:#FFFFFF;"/></g></g></g><g id="Layer_1"/></svg>