<?xml version="1.0" ?><!DOCTYPE svg  PUBLIC '-//W3C//DTD SVG 1.1//EN'  'http://www.w3.org/Graphics/SVG/1.1/DTD/svg11.dtd'><svg style="enable-background:new 0 0 500 500.012;" version="1.1" viewBox="0 0 500 500.012" xml:space="preserve" xmlns="http://www.w3.org/2000/svg" xmlns:xlink="http://www.w3.org/1999/xlink"><g id="pointer-gear-globe"><g><rect height="500.012" style="fill:#EFBF41;" width="500" y="0"/><g id="_x31_9_1_"><g><path d="M215.503,237.856l-14.209-13.345v-16.23l-9.844-7.243h-8.716l-6.226-6.248v-8.54l-4.189-2.614      l-1.186,3.186l2.036,1.157v7.266l-5.215-6.379l-2.607-10.174l-2.329-0.563v-7.339c-1.597,6.694-2.534,13.615-2.534,20.778      c0,40.151,26.572,74.206,63.047,85.528l-8.027-7.324V237.856z" style="fill:#FFFFFF;"/><path d="M322.495,176.678l-2.021,2.014l6.079,6.094v7.559h-12.466l-6.094-6.094v-4.05h-3.604v5.661      l8.247,8.247h9.434v6.819l-8.569,8.54v12.487v11.595h-6.504v12.312l-5.068,5.055H289.99v-10.943l-6.445-6.423v-20.186      l-8.013-8.013H258.76l-6.592-6.585v-16.699l5.669-5.64h9.565l6.094-6.1h3.179h4.087v3.186h22.295v-3.896h-5.61l3.296-3.34      l3.223-3.193h5.464l-3.457-3.428h-5.171l-5.478,5.457v4.277l-5.859-5.867h-3.633l5.347,5.347h-4.351l-3.486-3.464v-2.322      l-5.2-5.229l-3.926,3.926l-3.325,3.333v6.071h-6.665v-2.856v-9.302h2.446v-2.183l1.597-1.589l-2.871-2.908l-3.794,3.779      l-3.047-3.047l1.626-1.611v-2.856v-5.816h6.079v3.472l5.2,5.2h3.779v-4.05h11.587v-4.065h4.658v-5.778h-4.937v-5.516h-2.607      v11.03l-2.051,2.015l-4.043-1.751l-6.958-1.729l0.571-6.65l6.973-5.23l4.043-6.958l7.544-1.729l-0.85,3.457l4.922,0.864      l-0.293,3.494l5.508-0.579l2.622-1.743l0.557-2.886h7.866c-12.729-11.69-28.843-19.702-46.714-22.456v2.446h6.68v7.522v10.583      h-5.068l-4.38,4.344l-10.576,10.612l-5.493,5.501l-4.629-4.644v-11.895h4.629v-5.516h-3.193h-0.879v-14.194h5.816v-5.728      c-7.837,0.301-15.454,1.531-22.646,3.721l-2.886,2.879h-5.083c-0.044,0.015-0.088,0.029-0.132,0.051v5.142h7.266h3.75v24.082      h-8.408v-17.402h-5.801v-8.408h-3.765v4.922l-3.618,3.618h-8.555l-0.571-0.549c-2.93,2.219-5.771,4.577-8.423,7.141      l25.503,0.242l-1.143,6.101l-8.716,0.564l0.894,2.907l2.007,2.322l-2.314,3.742l-6.958-0.85l4.087,5.523l6.929,4.922      l2.329,5.508l2.886-0.871v-14.231h7.837v1.772h8.13v9.844h-3.486v4.058h-3.472v2.607h4.907l-3.179,3.193l-1.289-1.289      l-3.062,3.032v2.593l-2.754,2.776l-3.472,3.479l-4.058,4.058l-2.754,2.762v8.693h-3.794v-4.644h-12.436v5.237l12.173,11.579      h24.346v2.329h8.716l9.565,12.173h7.529v21.138H244.8l-4.072,5.83v13.024l-11.895,8.726v12.174      c6.797,1.67,13.872,2.621,21.167,2.621c48.677,0,88.33-39.041,89.429-87.462L322.495,176.678z" style="fill:#FFFFFF;"/></g><path d="M296.186,318.99l-3.721,22.5l-5.537,1.422c-5.068,1.303-10.386,2.357-15.85,3.135l-5.654,0.791     l-12.041-19.365c-1.113,0.029-2.241,0.059-3.384,0.059c-1.128,0-2.256-0.029-3.384-0.059l-12.026,19.365l-5.669-0.791     c-5.464-0.777-10.781-1.832-15.85-3.135l-5.522-1.422l-3.721-22.5c-2.124-0.82-4.219-1.699-6.284-2.607L181.357,328     c27.202,49.102,56.631,97.353,68.643,119.18c12.012-21.842,41.44-70.078,68.643-119.195l-16.172-11.602     C300.405,317.291,298.296,318.156,296.186,318.99z" style="fill:#FFFFFF;"/><path d="M369.853,199.69c0.19-2.681,0.278-5.384,0.278-8.115c0-2.732-0.088-5.428-0.278-8.115l3.999-2.483     l14.898-9.25c-0.732-5.061-1.714-10.042-2.944-14.905l-16.611-2.739l-5.317-0.864c-1.743-5.178-3.838-10.181-6.24-15.029     l3.091-4.292l9.873-13.762c-2.607-4.373-5.405-8.577-8.452-12.635l-18.384,4.292l-3.267,0.776     c-3.574-4.087-7.412-7.925-11.484-11.484l0.19-0.835l4.863-20.815c-4.028-3.039-8.262-5.852-12.612-8.452l-18.076,12.949     c-4.819-2.395-9.844-4.482-15.015-6.226l-3.618-21.936c-4.863-1.238-9.829-2.22-14.897-2.938l-11.733,18.882     c-2.681-0.176-5.376-0.264-8.115-0.264c-2.725,0-5.435,0.088-8.115,0.264l-11.733-18.882c-5.068,0.718-10.034,1.699-14.898,2.938     l-3.604,21.936c-5.186,1.743-10.195,3.831-15.029,6.226l-18.047-12.949c-4.38,2.6-8.584,5.413-12.642,8.452l4.863,20.815     l0.19,0.835c-4.072,3.56-7.91,7.397-11.484,11.484l-3.267-0.776l-18.369-4.292c-3.047,4.058-5.859,8.262-8.452,12.635     l9.858,13.762l3.091,4.292c-2.402,4.849-4.497,9.852-6.24,15.029l-5.303,0.864l-16.626,2.739     c-1.23,4.863-2.212,9.844-2.944,14.905l14.897,9.25l3.999,2.483c-0.176,2.688-0.264,5.383-0.264,8.115     c0,2.731,0.088,5.435,0.264,8.115l-3.208,1.984l-15.688,9.756c0.732,5.054,1.714,10.034,2.944,14.891l21.885,3.604l0.044,0.007     c0.146,0.425,0.322,0.82,0.469,1.245c1.655,4.731,3.56,9.346,5.771,13.784l-12.949,18.059c2.593,4.365,5.405,8.584,8.452,12.627     l17.314-4.059l4.321-1.01c3.574,4.086,7.412,7.924,11.484,11.484l-3.223,13.871l-1.831,7.793     c3.018,2.271,6.226,4.277,9.434,6.299c1.069,0.69,2.095,1.48,3.208,2.154l18.047-12.965c4.834,2.402,9.844,4.482,15.029,6.24     l3.604,21.93c4.863,1.244,9.829,2.211,14.898,2.93l11.733-18.883c2.681,0.176,5.391,0.293,8.115,0.293     c2.739,0,5.435-0.117,8.115-0.293l11.733,18.883c5.068-0.719,10.034-1.686,14.897-2.93l3.618-21.93     c5.171-1.758,10.195-3.838,15.015-6.24l18.076,12.965c1.084-0.674,2.095-1.465,3.193-2.139c3.208-2.037,6.416-4.043,9.419-6.314     l-1.816-7.793l-3.237-13.871c4.072-3.561,7.91-7.398,11.484-11.484l4.336,1.01l17.314,4.059     c3.047-4.043,5.845-8.262,8.452-12.627l-12.964-18.059c2.212-4.439,4.116-9.053,5.786-13.784c0.132-0.425,0.322-0.82,0.454-1.245     l0.044-0.007l21.885-3.604c1.23-4.856,2.212-9.837,2.944-14.891l-15.689-9.756L369.853,199.69z M250,299.758     c-59.736,0-108.179-48.439-108.179-108.183c0-59.744,48.442-108.157,108.179-108.157s108.179,48.413,108.179,108.157     C358.179,251.318,309.736,299.758,250,299.758z" style="fill:#FFFFFF;"/></g></g></g><g id="Layer_1"/></svg>