<?xml version="1.0" ?><!DOCTYPE svg  PUBLIC '-//W3C//DTD SVG 1.1//EN'  'http://www.w3.org/Graphics/SVG/1.1/DTD/svg11.dtd'><svg style="enable-background:new 0 0 500 500.008;" version="1.1" viewBox="0 0 500 500.008" xml:space="preserve" xmlns="http://www.w3.org/2000/svg" xmlns:xlink="http://www.w3.org/1999/xlink"><g id="window-data-analyzing"><g><rect height="500.008" style="fill:#62C1D3;" width="500" y="0"/><g id="_x32__1_"><g><path d="M408.438,337.59l29.062,32.689V120.643c0-12.839-10.415-23.258-23.247-23.258H85.758      c-12.847,0-23.258,10.419-23.258,23.258v258.732c0,12.848,10.411,23.248,23.258,23.248h324.086      c-1.333-1.012-2.57-2.154-3.647-3.48l-19.16-25.582H91.562V167.84h316.875v59.806c8.13,14.133,12.422,30.528,11.821,47.712      c-0.513,14.867-4.6,29.018-11.821,41.514V337.59z M116.227,143.04H91.562v-23.774h24.664V143.04z M159.297,143.04h-24.668      v-23.774h24.668V143.04z M202.363,143.04h-24.668v-23.774h24.668V143.04z" style="fill:#FFFFFF;"/><path d="M148.695,207.457v-3.032h-6.303l2.003-10.412h-3.2l-2.004,10.412h-7.279l1.951-10.412h-3.314      l-1.959,10.412h-7.141v3.032h6.613l-1.626,8.126h-6.855v3.08h6.263l-1.912,10.268h3.245l1.966-10.268h7.233l-2.003,10.268h3.273      l2-10.268h7.338v-3.08h-6.764l1.575-8.126H148.695z M136.951,215.583h-7.24l1.574-8.126h7.24L136.951,215.583z" style="fill:#FFFFFF;"/><path d="M176.465,209.13v-7.042c0-3.079,1.831-4.661,5.493-4.753v-3.322c-2.9,0-5.208,0.682-6.933,2.051      c-1.717,1.37-2.578,3.293-2.578,5.758v7.309c0,1.527-0.457,2.663-1.381,3.392c-0.922,0.732-2.428,1.117-4.493,1.143v3.373      c1.915,0,3.369,0.348,4.38,1.065c1,0.707,1.494,1.886,1.494,3.541v7.236c0,2.45,0.832,4.358,2.486,5.713      c1.652,1.359,3.996,2.047,7.024,2.08v-3.347c-1.802-0.029-3.164-0.421-4.095-1.15c-0.938-0.732-1.398-1.904-1.398-3.53v-7.097      c0-3.421-1.779-5.442-5.328-6.064v-0.286C174.686,214.576,176.465,212.551,176.465,209.13z" style="fill:#FFFFFF;"/><path d="M210.215,225.255h-17.959v-0.19l7.639-7.481c3.406-3.308,5.735-6.047,6.97-8.219      c1.249-2.156,1.871-4.35,1.871-6.559c0-2.838-0.934-5.094-2.802-6.774c-1.86-1.678-4.428-2.52-7.709-2.52      c-3.797,0-7.295,1.34-10.51,4.014l2.102,2.691c1.59-1.249,3.036-2.124,4.336-2.597c1.301-0.476,2.674-0.718,4.117-0.718      c2.006,0,3.577,0.546,4.705,1.641c1.128,1.084,1.695,2.56,1.695,4.421c0,1.325-0.219,2.56-0.666,3.709      c-0.447,1.143-1.113,2.322-2.011,3.53c-0.894,1.212-2.739,3.233-5.533,6.075l-9.199,9.24v3.413h22.954V225.255z" style="fill:#FFFFFF;"/><path d="M236.651,198.074c-1.966-3.076-4.849-4.606-8.639-4.606c-3.882,0-6.778,1.469-8.665,4.412      c-1.897,2.948-2.838,7.46-2.838,13.543c0,5.893,0.971,10.36,2.93,13.414c1.959,3.043,4.812,4.57,8.573,4.57      c3.919,0,6.826-1.49,8.73-4.471c1.9-2.975,2.86-7.475,2.86-13.514C239.604,205.597,238.614,201.147,236.651,198.074z       M233.762,222.472c-1.186,2.351-3.108,3.523-5.749,3.523c-2.611,0-4.512-1.157-5.706-3.479      c-1.193-2.314-1.794-6.01-1.794-11.093c0-5.083,0.601-8.764,1.794-11.07c1.194-2.3,3.095-3.45,5.706-3.45      c2.641,0,4.563,1.165,5.749,3.497c1.188,2.33,1.78,6.006,1.78,11.023C235.542,216.44,234.949,220.116,233.762,222.472z" style="fill:#FFFFFF;"/><path d="M256.46,222.395c1.201-1.78,2.549-3.468,3.874-5.167v-23.215h-3.344l-9.246,7.148l2.099,2.711      c3.38-2.74,5.272-4.281,5.687-4.655c0.418-0.37,0.796-0.71,1.121-1.051c-0.12,1.852-0.19,3.812-0.19,5.878V222.395z" style="fill:#FFFFFF;"/><path d="M148.695,266.158v-3.041h-6.303l2.003-10.402h-3.2l-2.004,10.402h-7.279l1.951-10.402h-3.314      l-1.959,10.402h-7.141v3.041h6.613l-1.626,8.115h-6.855v3.09h6.263l-1.912,10.262h3.245l1.966-10.262h7.233l-2.003,10.262h3.273      l2-10.262h7.338v-3.09h-6.764l1.575-8.115H148.695z M136.951,274.273h-7.24l1.574-8.115h7.24L136.951,274.273z" style="fill:#FFFFFF;"/><path d="M176.465,267.828v-7.047c0-3.068,1.831-4.654,5.493-4.754v-3.312c-2.9,0-5.208,0.68-6.933,2.051      c-1.717,1.367-2.578,3.287-2.578,5.752v7.311c0,1.529-0.457,2.666-1.381,3.398c-0.922,0.733-2.428,1.113-4.493,1.143v3.361      c1.915,0,3.369,0.359,4.38,1.062c1,0.717,1.494,1.889,1.494,3.551v7.23c0,2.461,0.832,4.365,2.486,5.713      c1.652,1.361,3.996,2.051,7.024,2.08v-3.34c-1.802-0.029-3.164-0.426-4.095-1.15c-0.938-0.74-1.398-1.912-1.398-3.537v-7.09      c0-3.428-1.779-5.449-5.328-6.064v-0.293C174.686,273.277,176.465,271.256,176.465,267.828z" style="fill:#FFFFFF;"/><path d="M210.215,283.947h-17.959v-0.182l7.639-7.486c3.406-3.311,5.735-6.049,6.97-8.217      c1.249-2.162,1.871-4.352,1.871-6.562c0-2.832-0.934-5.088-2.802-6.768c-1.86-1.686-4.428-2.52-7.709-2.52      c-3.797,0-7.295,1.332-10.51,4.008l2.102,2.695c1.59-1.254,3.036-2.119,4.336-2.596c1.301-0.482,2.674-0.725,4.117-0.725      c2.006,0,3.577,0.553,4.705,1.648c1.128,1.076,1.695,2.557,1.695,4.416c0,1.334-0.219,2.565-0.666,3.707      c-0.447,1.142-1.113,2.328-2.011,3.537c-0.894,1.209-2.739,3.236-5.533,6.072l-9.199,9.242v3.406h22.954V283.947z" style="fill:#FFFFFF;"/><path d="M239.604,270.127c0-5.838-0.989-10.283-2.952-13.352c-1.966-3.08-4.849-4.615-8.639-4.615      c-3.882,0-6.778,1.477-8.665,4.422c-1.897,2.947-2.838,7.451-2.838,13.545c0,5.889,0.971,10.357,2.93,13.41      c1.959,3.041,4.812,4.57,8.573,4.57c3.919,0,6.826-1.486,8.73-4.475C238.644,280.66,239.604,276.162,239.604,270.127z       M233.762,281.172c-1.186,2.344-3.108,3.523-5.749,3.523c-2.611,0-4.512-1.158-5.706-3.486      c-1.193-2.307-1.794-6.014-1.794-11.082c0-5.082,0.601-8.768,1.794-11.074c1.194-2.307,3.095-3.457,5.706-3.457      c2.641,0,4.563,1.172,5.749,3.506c1.188,2.324,1.78,6.002,1.78,11.025C235.542,275.137,234.949,278.814,233.762,281.172z" style="fill:#FFFFFF;"/><path d="M286.387,284.695c-1.685,0-3.047-0.535-4.146-1.516c0.352,1.545,0.769,3.053,1.26,4.555      c0.893,0.234,1.86,0.373,2.886,0.373c3.918,0,6.826-1.486,8.73-4.475c1.904-2.973,2.856-7.471,2.856-13.506      c0-5.838-0.981-10.283-2.944-13.352c-1.971-3.08-4.849-4.615-8.643-4.615c-0.381,0-0.711,0.086-1.069,0.115      c-0.557,1.256-1.025,2.539-1.472,3.84c0.762-0.314,1.589-0.52,2.541-0.52c2.651,0,4.562,1.172,5.75,3.506      c1.186,2.324,1.779,6.002,1.779,11.025c0,5.01-0.594,8.688-1.779,11.045C290.949,283.516,289.038,284.695,286.387,284.695z" style="fill:#FFFFFF;"/><path d="M312.783,287.574v-7.23c0-1.662,0.513-2.834,1.509-3.551c1.003-0.703,2.476-1.062,4.424-1.062      v-3.361c-2.073-0.029-3.574-0.41-4.512-1.143c-0.952-0.711-1.421-1.846-1.421-3.398v-7.311c0-2.439-0.835-4.346-2.512-5.732      c-1.686-1.383-3.984-2.07-6.914-2.07v3.312c3.61,0.1,5.42,1.686,5.42,4.754v7.047c0,3.428,1.779,5.449,5.324,6.064v0.293      c-1.802,0.322-3.135,0.951-4.014,1.904c-0.864,0.951-1.311,2.344-1.311,4.16v7.09c0,1.625-0.462,2.797-1.385,3.537      c-0.923,0.725-2.27,1.121-4.035,1.15v3.34c3.024-0.029,5.354-0.733,6.994-2.096C311.977,291.91,312.783,290.02,312.783,287.574z      " style="fill:#FFFFFF;"/><polygon points="352.781,252.715 348.818,252.715 335.796,287.625 339.766,287.625     " style="fill:#FFFFFF;"/><path d="M148.695,324.854v-3.031h-6.303l2.003-10.416h-3.2l-2.004,10.416h-7.279l1.951-10.416h-3.314      l-1.959,10.416h-7.141v3.031h6.613l-1.626,8.123h-6.855v3.084h6.263l-1.912,10.268h3.245l1.966-10.268h7.233l-2.003,10.268      h3.273l2-10.268h7.338v-3.084h-6.764l1.575-8.123H148.695z M136.951,332.977h-7.24l1.574-8.123h7.24L136.951,332.977z" style="fill:#FFFFFF;"/><path d="M178.135,311.406h-3.867c-2.329,2.77-4.105,5.998-5.34,9.676      c-1.233,3.676-1.852,7.625-1.852,11.844c0,4.16,0.611,8.041,1.839,11.66c1.23,3.603,3.01,6.768,5.354,9.484h3.823      c-2.22-3.01-3.911-6.35-5.094-9.998c-1.18-3.633-1.762-7.367-1.762-11.191c0-3.881,0.575-7.668,1.725-11.346      C174.117,317.859,175.842,314.482,178.135,311.406z" style="fill:#FFFFFF;"/><path d="M197.936,327.594c-0.886,1.215-2.739,3.236-5.537,6.078l-9.195,9.244v3.412h22.95v-3.676h-17.955      v-0.191l7.636-7.484c3.405-3.31,5.734-6.051,6.977-8.219c1.241-2.152,1.867-4.35,1.867-6.555c0-2.834-0.938-5.09-2.798-6.775      c-1.857-1.684-4.435-2.52-7.712-2.52c-3.798,0-7.295,1.334-10.511,4.014l2.099,2.688c1.589-1.252,3.039-2.115,4.336-2.6      c1.3-0.469,2.677-0.717,4.116-0.717c2.011,0,3.577,0.557,4.713,1.641c1.128,1.084,1.688,2.562,1.688,4.424      c0,1.332-0.22,2.562-0.667,3.713C199.496,325.213,198.829,326.393,197.936,327.594z" style="fill:#FFFFFF;"/><path d="M223.947,310.865c-3.881,0-6.778,1.465-8.668,4.408c-1.893,2.945-2.838,7.463-2.838,13.543      c0,5.897,0.975,10.363,2.938,13.41c1.951,3.047,4.812,4.57,8.568,4.57c3.915,0,6.826-1.479,8.727-4.461      c1.911-2.973,2.86-7.477,2.86-13.52c0-5.822-0.985-10.27-2.952-13.352C230.616,312.395,227.742,310.865,223.947,310.865z       M229.693,339.869c-1.183,2.344-3.102,3.516-5.746,3.516c-2.607,0-4.515-1.158-5.709-3.473      c-1.189-2.315-1.794-6.014-1.794-11.096c0-5.076,0.605-8.768,1.794-11.066c1.194-2.301,3.102-3.457,5.709-3.457      c2.645,0,4.563,1.172,5.746,3.5c1.187,2.33,1.783,6.014,1.783,11.023C231.477,333.834,230.88,337.51,229.693,339.869z" style="fill:#FFFFFF;"/><path d="M252.399,346.328h3.873v-24.477c-1.922-2.887-3.653-5.904-5.222-8.98l-7.368,5.684l2.109,2.711      c3.369-2.74,5.273-4.277,5.677-4.658c0.421-0.359,0.795-0.703,1.121-1.041c-0.121,1.846-0.19,3.809-0.19,5.875V346.328z" style="fill:#FFFFFF;"/></g><path d="M430.776,379.053l-22.339-25.121l-18.164-20.436l-1.89,1.561l-4.57-4.725     c12.861-11.727,21.782-27.699,24.624-45.805c0.498-3.135,0.857-6.299,0.967-9.537c0.176-5.127-0.19-10.15-0.967-15.037     c-4.233-26.847-22.104-49.347-46.531-59.879c-0.871-0.378-1.794-0.674-2.68-1.022c-1.129-0.439-2.249-0.9-3.392-1.285     c-4.775-1.618-9.741-2.83-14.89-3.504c-0.982-0.129-1.985-0.158-2.988-0.25c-1.473-0.128-2.923-0.311-4.417-0.362     c-7.998-0.282-15.726,0.726-23.063,2.71c-1.546,0.414-3.055,0.916-4.57,1.421c-1.465,0.498-2.967,0.938-4.388,1.513     c-1.685,0.682-3.267,1.567-4.893,2.354c-1.172,0.564-2.373,1.065-3.501,1.685c-3.472,1.887-6.826,3.959-9.946,6.343     c-1.465,1.121-2.842,2.373-4.233,3.607c-1.268,1.106-2.52,2.241-3.706,3.442c-10.298,10.275-17.71,23.397-21.062,38.153     c-0.372,1.67-0.779,3.32-1.046,5.023c-0.507,3.164-0.847,6.373-0.967,9.646c-0.704,20.545,6.558,39.5,18.987,53.943     c1.172,1.348,2.469,2.578,3.721,3.838c3.296,3.346,6.782,6.488,10.627,9.213c0.989,0.703,2.102,1.238,3.128,1.891     c1.113,0.709,2.227,1.391,3.354,2.035c4.035,2.301,8.218,4.365,12.678,5.934c0.228,0.088,0.433,0.205,0.667,0.293     c1.032,0.352,2.095,0.629,3.15,0.951c6.255,1.846,12.803,3.004,19.614,3.238c10.137,0.352,19.834-1.348,28.843-4.557     c0.601-0.219,1.23-0.381,1.824-0.6c0.402-0.154,0.783-0.381,1.179-0.543c6.035-2.432,11.748-5.479,16.948-9.25l-0.659,0.535     l3.721,5.455l-1.89,1.561l22.537,30.074l14.004,18.705c3.654,4.469,10.231,5.127,14.714,1.48     C433.765,390.084,434.424,383.506,430.776,379.053z M373.31,315.465c-2.036,2.006-4.248,3.822-6.548,5.521     c-1.582,1.172-3.171,2.314-4.856,3.332c-5.508,3.305-11.608,5.648-18.031,7.084c-3.436,0.762-6.98,1.201-10.599,1.348     c-1.53,0.059-3.018,0.234-4.57,0.176c-6.812-0.234-13.278-1.686-19.321-3.984c-1.567-0.602-3.098-1.289-4.614-2.008     c-1.084-0.527-2.197-0.996-3.252-1.582c-3.15-1.736-6.108-3.779-8.877-6.035c-2.556-2.08-4.951-4.32-7.142-6.781     c-0.417-0.469-0.769-0.982-1.179-1.465c-9.258-11.053-14.707-25.371-14.165-40.885c0.498-14.717,6.226-28.026,15.344-38.236     c0.887-0.996,1.956-1.81,2.916-2.747c2.409-2.365,5.002-4.516,7.785-6.445c1.758-1.212,3.449-2.505,5.317-3.549     c3.413-1.886,7.075-3.336,10.84-4.562c1.304-0.421,2.578-0.923,3.926-1.256c5.303-1.33,10.869-1.967,16.605-1.77     c4.299,0.158,8.438,0.861,12.458,1.854c1.172,0.297,2.358,0.553,3.509,0.908c0.446,0.143,0.856,0.333,1.296,0.483     c1.934,0.651,3.838,1.341,5.684,2.187c2.08,0.944,4.116,1.978,6.071,3.149c18.333,10.993,30.345,31.334,29.554,54.174     C390.903,290.518,384.019,304.961,373.31,315.465z" style="fill:#FFFFFF;"/></g></g></g><g id="Layer_1"/></svg>