<?xml version="1.0" ?><!DOCTYPE svg  PUBLIC '-//W3C//DTD SVG 1.1//EN'  'http://www.w3.org/Graphics/SVG/1.1/DTD/svg11.dtd'><svg style="enable-background:new 0 0 500 500.01;" version="1.1" viewBox="0 0 500 500.01" xml:space="preserve" xmlns="http://www.w3.org/2000/svg" xmlns:xlink="http://www.w3.org/1999/xlink"><g id="tablet-gear-globe"><g><rect height="500.01" style="fill:#EFBF41;" width="500" y="0"/><g id="_x33_0"><path d="M349.777,338.665c-0.886,0.446-1.794,0.812-2.688,1.237v48.304H108.826V111.819H347.09v44.743     c0.894,0.417,1.802,0.791,2.688,1.237l10.628-8.371c3.024-2.373,6.716-3.67,10.518-3.83v-57.62     c0-12.803-10.488-23.291-23.298-23.291H108.299C95.488,64.687,85,75.176,85,87.978v324.053c0,12.803,10.488,23.291,23.299,23.291     h239.326c12.81,0,23.298-10.488,23.298-23.291v-61.165c-3.794-0.16-7.493-1.465-10.466-3.786L349.777,338.665z M227.434,72.275     c3.406,0,6.175,2.769,6.175,6.182c0,3.405-2.769,6.182-6.175,6.182c-3.412,0-6.182-2.776-6.182-6.182     C221.252,75.044,224.021,72.275,227.434,72.275z M245.957,415.122c0,1.867-1.516,3.377-3.384,3.377h-27.106     c-1.868,0-3.392-1.51-3.392-3.377v-1.707c0-1.859,1.523-3.376,3.392-3.376h27.106c1.868,0,3.384,1.517,3.384,3.376V415.122z" style="fill:#FFFFFF;"/><g><path d="M411.968,233.115l-23.415-2.776c-2.22-10.648-6.424-20.566-12.181-29.385l14.597-18.516      c1.055-1.303,0.931-3.361-0.264-4.533l-16.553-16.582c-0.85-0.842-2.08-0.938-3.229-0.659c-0.462,0.102-0.96,0.095-1.333,0.395      l-18.523,14.598c-1.281-0.836-2.637-1.575-3.977-2.344c-7.793-4.52-16.304-7.939-25.408-9.837l-2.754-23.415      c-0.205-1.656-1.721-3.018-3.412-3.018h-23.431c-1.677,0-3.2,1.361-3.398,3.018l-2.776,23.415      c-10.648,2.22-20.573,6.445-29.369,12.181L238.01,161.06c-1.311-1.033-3.354-0.916-4.548,0.264l-16.546,16.582      c-1.201,1.172-1.325,3.23-0.285,4.541l14.605,18.508c-5.749,8.818-9.961,18.736-12.202,29.385l-23.387,2.776      c-1.662,0.19-3.031,1.735-3.031,3.398v23.423c0,1.691,1.369,3.215,3.031,3.413l23.387,2.754      c2.241,10.664,6.453,20.589,12.202,29.407l-14.605,18.516c-1.04,1.303-0.916,3.361,0.285,4.541l16.546,16.566      c1.186,1.18,3.237,1.305,4.57,0.271l18.509-14.604c8.796,5.742,18.721,9.961,29.369,12.21l2.776,23.379      c0.198,1.677,1.722,3.018,3.398,3.039l23.431-0.021c1.691,0.021,3.207-1.341,3.412-3.018l2.754-23.379      c9.105-1.92,17.615-5.348,25.408-9.859c1.34-0.769,2.695-1.508,3.977-2.351l18.523,14.604c0.373,0.293,0.871,0.285,1.333,0.396      c1.149,0.271,2.38,0.176,3.229-0.667l16.553-16.566c1.194-1.18,1.318-3.238,0.264-4.541l-14.597-18.516      c5.757-8.818,9.961-18.743,12.181-29.407l23.415-2.754c1.647-0.198,3.032-1.722,3.032-3.413v-23.423      C415,234.851,413.615,233.306,411.968,233.115z M347.09,301.442c-11.807,9.617-26.873,15.403-43.293,15.403      c-37.881,0-68.592-30.732-68.592-68.62c0-37.874,30.711-68.607,68.592-68.607c16.42,0,31.486,5.786,43.293,15.395      c11.939,9.734,20.537,23.379,23.833,38.994c0.967,4.585,1.494,9.346,1.494,14.217c0,4.885-0.527,9.623-1.494,14.223      C367.627,278.063,359.028,291.716,347.09,301.442z" style="fill:#FFFFFF;"/><path d="M303.81,192.627c-30.71,0-55.598,24.888-55.598,55.612c0,30.703,24.888,55.599,55.598,55.599      c17.498,0,33.084-8.101,43.279-20.742c7.684-9.544,12.312-21.65,12.312-34.856c0-13.22-4.629-25.326-12.312-34.87      C336.895,200.727,321.309,192.627,303.81,192.627z M301.98,194.209c0.6-0.007,1.208-0.044,1.83-0.044      c2.703,0,5.361,0.184,7.947,0.601v0.322v2.446h3.882v4.395v6.167h-2.952l-2.549,2.526l-6.152,6.182l-3.215,3.216l-2.695-2.71      v-6.922h2.695v-3.223h-1.86h-0.505v-8.275h3.383v-4.234l0.052-0.117L301.98,194.209z M287.697,196.611l0.228,0.228l0.776,0.783      l-1.795,1.772h-3.039v3.024h4.24h2.19v14.049h-4.907v-10.159H282v-4.893h-2.184v2.857l-2.109,2.131h-4.987l-1.143-1.135      l-0.241-0.242C276.199,201.357,281.721,198.493,287.697,196.611z M253.113,229.446c2.702-7.266,6.936-13.821,12.297-19.227      h0.366l16.567,0.168l-0.666,3.553l-5.084,0.314l0.506,1.686l1.187,1.369l-1.355,2.197l-4.051-0.506l2.365,3.209l4.059,2.871      l1.361,3.207l1.678-0.498v-8.283h4.562v1.018h4.739v5.735h-2.036v2.366h-2.029v1.523h2.871l-1.846,1.859l-0.762-0.762      l-1.794,1.773v1.508l-1.597,1.627l-2.014,2.028l-2.389,2.351l-1.596,1.627v5.046h-2.197v-2.695h-7.273v3.047l7.119,6.774h14.194      v1.341h5.068l5.581,7.09h4.387v12.334h-4.563l-2.365,3.376v7.604l-6.937,5.068v9.118l-7.764-7.067V274.6l-8.298-7.786v-9.44      l-5.729-4.241h-5.068l-3.633-3.633v-4.987l-2.445-1.517l-0.703,1.868l1.201,0.651v4.241l-3.04-3.721l-1.517-5.925l-1.361-0.33      v-9.354V229.446z M357.879,248.239c0,0.828-0.016,1.634-0.045,2.447l-0.344-0.338l-10.4-10.363l-1.04-1.047l-1.165,1.172      l2.205,2.204l1.34,1.333v4.409h-1.34h-5.933l-3.56-3.545v-2.351h-2.095v3.288l4.819,4.805h5.493v3.991l-4.995,4.967v7.287v6.753      h-3.794v7.163l-2.952,2.959h-6.965v-6.379l-3.758-3.743v-11.763l-4.672-4.68h-9.764l-3.846-3.838v-9.742l3.304-3.274h5.573      l3.545-3.559h1.861h2.387v1.875h13.001v-2.285h-3.288l1.934-1.934l1.875-1.86h3.193l-2.029-2.014h-3.01l-3.201,3.178v2.49      l-3.413-3.412h-2.103l3.105,3.135h-2.526l-2.028-2.044v-1.341l-3.04-3.039l-2.285,2.264l-1.948,1.947v3.545h-3.875v-1.67v-5.42      h1.414v-1.281l0.93-0.908l-1.67-1.699l-2.211,2.197l-1.773-1.779l0.945-0.931v-1.677v-3.385h3.537v2.015l3.033,3.047h2.227      v-2.366h6.745v-2.365h2.702v-3.369h-2.863v-3.208h-1.516v6.423l-1.209,1.172l-2.365-1.018l-4.051-0.996l0.33-3.896l4.072-3.047      l2.357-4.058l4.402-1.003l-0.498,2.021l2.863,0.505l-0.168,2.021l3.208-0.329l1.53-1.012l0.322-1.684h6.307h0.461      c2.168,2.072,4.124,4.365,5.926,6.774C353.828,224.977,357.879,236.126,357.879,248.239z" style="fill:#FFFFFF;"/></g></g></g></g><g id="Layer_1"/></svg>