<?xml version="1.0" ?><!DOCTYPE svg  PUBLIC '-//W3C//DTD SVG 1.1//EN'  'http://www.w3.org/Graphics/SVG/1.1/DTD/svg11.dtd'><svg style="enable-background:new 0 0 500 500;" version="1.1" viewBox="0 0 500 500" xml:space="preserve" xmlns="http://www.w3.org/2000/svg" xmlns:xlink="http://www.w3.org/1999/xlink"><g id="pencil-gear"><g><rect height="500" style="fill:#3D576B;" width="500" y="0"/><g id="_x32_9"><g><path d="M407.573,132.556L363.13,88.12c-9.243-9.163-24.097-9.163-33.325,0.021L106.493,311.457      c-4.256,4.255-6.504,9.727-6.834,15.293l-10.378,58.923v0.703c-0.015,3.275,0.71,6.365,1.992,9.17l-9.793,9.785      c-3.062,3.069-3.062,8.043,0,11.111c3.069,3.076,8.064,3.076,11.118,0l9.793-9.785c2.79,1.274,5.889,2,9.141,2h0.85      l59.099-12.869l-0.007-0.029c4.665-0.783,9.162-2.938,12.788-6.533l57.451-57.451c-2.791-0.879-5.361-2.344-7.471-4.453      l-5.061-5.031c-0.036-0.037-0.051-0.088-0.095-0.117l-55.942,55.935c-3.011,3.003-8.094,3.024-11.118,0l-8.877-8.884      l76.494-76.494h-0.403c-3.677,0-7.09-1.106-9.968-2.975l-72.796,72.803l-14.436-14.45l78.771-78.772v-2.175      c0-10.137,8.27-18.398,18.428-18.398h2.139l1.399-1.392l-1.062-1.055c-2.007-2.021-3.391-4.409-4.277-6.929L125.375,341.442      l-7.778-7.772c-3.003-3.024-3.003-8.078,0-11.125l186.661-186.65l13.315,13.352l-61.682,61.678      c2.575,0.908,4.948,2.307,6.926,4.285l1.069,1.062l2.593-2.593c0.762-8.877,7.808-15.923,16.685-16.699l41.074-41.066      l14.458,14.436l-32.944,32.93c2.183,2.534,3.706,5.64,4.263,9.097l35.347-35.361l14.443,14.443l-23.921,23.921      c1.011,0.674,1.978,1.45,2.871,2.329l5.098,5.098c1.172,1.172,2.095,2.513,2.9,3.919l60.82-60.82      C416.743,156.675,416.743,141.799,407.573,132.556z M146.776,385.08l-35.911,7.829c-1.201-0.131-2.3-0.593-3.237-1.303      c-0.183-0.242-0.373-0.506-0.586-0.726c-0.227-0.234-0.483-0.381-0.718-0.586c-0.739-0.96-1.216-2.095-1.325-3.34l6.54-37.112      L146.776,385.08z" style="fill:#FFFFFF;"/></g><g><g><g><path d="M350.957,277.897v-7.156c0-3.977-3.208-7.155-7.163-7.155h-17.065        c-0.747-3.545-1.948-6.899-3.486-10.042l12.627-12.656c2.827-2.805,2.827-7.338,0.015-10.129l-5.054-5.068        c-2.812-2.791-7.324-2.791-10.122,0l-11.543,11.543c-3.091-2.176-6.519-3.882-10.122-5.171v-16.81        c0-3.962-3.208-7.162-7.148-7.17h-7.178c-3.94,0.008-7.148,3.208-7.148,7.17v14.971c-4.204,0.682-8.159,2-11.836,3.816        l-10.866-10.869c-2.789-2.791-7.338-2.791-10.144-0.008l-5.061,5.062c-2.783,2.783-2.783,7.324,0.021,10.137l9.727,9.733        c-2.505,3.626-4.482,7.596-5.786,11.924h-14.385c-3.962,0-7.178,3.201-7.178,7.142v7.155c0,3.963,3.216,7.171,7.178,7.171        h13.477c0.938,4.395,2.564,8.555,4.746,12.363l-10.319,10.319c-2.776,2.806-2.812,7.353-0.029,10.145l5.083,5.061        c2.79,2.791,7.346,2.776,10.145,0l10.125-10.137c3.56,2.154,7.412,3.802,11.514,4.842v15.732c0,3.947,3.208,7.163,7.163,7.163        h7.163c3.955,0,7.148-3.216,7.148-7.163v-15.732c3.765-0.982,7.324-2.417,10.605-4.285l12.114,12.093        c2.783,2.79,7.324,2.798,10.107,0l5.068-5.039c2.798-2.798,2.798-7.339,0-10.122l-11.924-11.939        c1.831-3.018,3.34-6.284,4.424-9.72h17.944C347.749,285.067,350.957,281.853,350.957,277.897z M302.646,272.536        c0,9.888-8.027,17.886-17.915,17.886c-9.888,0-17.886-7.998-17.886-17.886c0-9.91,7.998-17.908,17.886-17.908        C294.619,254.628,302.646,262.626,302.646,272.536z" style="fill:#FFFFFF;"/></g></g><g><g><path d="M420.815,329.87v-4.556c-0.015-2.534-2.065-4.563-4.57-4.563h-10.854        c-0.469-2.256-1.23-4.379-2.227-6.394l8.027-8.042c1.816-1.787,1.816-4.68,0.029-6.453l-3.237-3.223        c-1.773-1.779-4.658-1.779-6.431,0l-7.339,7.347c-1.978-1.384-4.16-2.476-6.445-3.281v-10.708c0-2.52-2.051-4.556-4.556-4.562        h-4.556c-2.505,0.007-4.556,2.043-4.556,4.562v9.529c-2.666,0.432-5.2,1.273-7.515,2.424l-6.929-6.914        c-1.773-1.772-4.673-1.772-6.46,0l-3.223,3.208c-1.758,1.787-1.758,4.673,0,6.46l6.211,6.196        c-1.611,2.308-2.856,4.834-3.677,7.588h-9.155c-2.52,0-4.57,2.036-4.57,4.541v4.548c0,2.535,2.051,4.564,4.57,4.564h8.569        c0.586,2.806,1.626,5.449,3.032,7.866l-6.562,6.57c-1.772,1.794-1.802,4.68-0.029,6.452l3.237,3.223        c1.787,1.78,4.673,1.773,6.431,0l6.46-6.445c2.256,1.362,4.731,2.417,7.324,3.076v10.013c0,2.512,2.051,4.562,4.57,4.562        h4.541c2.52,0,4.57-2.051,4.57-4.562v-10.013c2.388-0.615,4.658-1.538,6.738-2.725l7.705,7.69        c1.773,1.772,4.658,1.787,6.445,0l3.208-3.208c1.787-1.772,1.787-4.658,0-6.439l-7.573-7.595        c1.157-1.919,2.109-3.999,2.798-6.182h11.426C418.75,334.426,420.801,332.375,420.815,329.87z M390.054,326.442        c0,6.299-5.098,11.382-11.396,11.382c-6.284,0-11.397-5.083-11.397-11.382c0-6.299,5.112-11.397,11.397-11.397        C384.956,315.046,390.054,320.143,390.054,326.442z" style="fill:#FFFFFF;"/></g></g></g></g></g></g><g id="Layer_1"/></svg>