<?xml version="1.0" ?><!DOCTYPE svg  PUBLIC '-//W3C//DTD SVG 1.1//EN'  'http://www.w3.org/Graphics/SVG/1.1/DTD/svg11.dtd'><svg style="enable-background:new 0 0 500 500.008;" version="1.1" viewBox="0 0 500 500.008" xml:space="preserve" xmlns="http://www.w3.org/2000/svg" xmlns:xlink="http://www.w3.org/1999/xlink"><g id="gear-stopwatch-time-speed"><g><rect height="500.008" style="fill:#3D576B;" width="500" y="0"/><g id="_x39__1_"><g><g><g><path d="M213.939,368.984c-58.117,0-105.264-47.109-105.264-105.234        c0-58.144,47.146-105.282,105.264-105.282c2.482,0,4.885,0.132,7.291,0.314c2.835-6.123,6.207-11.953,10.137-17.388        c-1.574-0.22-3.131-0.476-4.724-0.645l-8.401-28.483l-8.042,1.084l-20.401,2.739l-8.061,1.084l-0.538,27.393        c-6.159,1.685-12.125,3.75-17.827,6.255l-21.376-20.398l-6.485,4.966l-16.308,12.568l-6.39,4.944l12.967,23.635        c-4.548,4.549-8.775,9.419-12.575,14.583l-28.25-6.841l-3.12,7.544l-7.852,18.984l-3.087,7.522l22.438,13.564        c-1.729,6.307-2.857,12.847-3.512,19.49L62.5,259.428l1.069,8.057l2.743,20.406l1.073,7.998l26.14,0.57        c1.747,6.432,3.967,12.744,6.684,18.678l-19.57,20.596l4.947,6.416l12.543,16.303l5.024,6.432l23.313-12.877        c4.607,4.512,9.583,8.643,14.875,12.35l-6.889,28.389l7.544,3.076l19.04,7.865l7.521,3.062l14.041-23.262        c6.067,1.553,12.297,2.592,18.665,3.236l8.383,28.463l8.042-1.113l20.387-2.682l8.042-1.127l0.567-27.379        c6.145-1.684,12.115-3.734,17.812-6.225l21.402,20.375l6.452-4.994l16.318-12.525l6.431-4.98l-13.052-23.643        c4.585-4.541,8.804-9.389,12.583-14.561l28.322,6.842l3.084-7.486l7.822-19.057l3.084-7.529l-22.435-13.551        c0.337-1.273,0.579-2.562,0.85-3.838c-2.191-0.014-4.351-0.205-6.519-0.352c-4.585,1.07-9.316,1.773-14.165,2.125        C301.829,337.094,261.722,368.984,213.939,368.984z" style="fill:#FFFFFF;"/></g></g><path d="M390.226,198.326c0,45.908-36.775,83.104-82.691,83.104      c-45.879,0-83.103-37.195-83.103-83.104c0-44.671,38.492-83.035,74.073-83.035V96.893h-6.13c0,0-5.735,0.184-5.735-4.973      c0,0-0.776-7.098,6.108-7.098h29.744c0,0,6.525,0.381,6.525,6.321c0,0-0.41,5.933-6.525,5.933h-6.139v18.193      c16.649,1.53,25.071,7.031,36.717,13.608l9.141-9.104l-4.468-4.079l5.808-6.321l15.535,12.854l-5.947,5.954l-3.647-2.878      l-8.262,9.727C379.005,150.301,390.226,172.999,390.226,198.326z M358.753,158.855c-0.483-0.63-8.628,5.941-8.628,5.941      l-4.424-5.376c0,0,5.801-5.325,7.852-6.702c-11.675-11.579-28.154-19.102-45.967-19.102c-18.069,0-34.409,7.544-46.172,19.395      c0.938,1.165,6.636,5.735,6.636,5.735l-4.826,6.525c0,0-6.852-7.207-7.244-6.694c-7.214,9.902-12.637,23.862-13.22,36.929      c5.307-0.146,12.388-0.22,12.388-0.22l-0.113,6.123c0,0-12.33-0.505-12.289-0.146c0.553,13.594,5.291,26.038,12.956,36.16      c2.856-1.839,8.071-5.647,8.071-5.647l4.614,4.951c0,0-7.529,6.717-6.797,7.412c1.875,1.883,3.882,3.648,5.977,5.274      c10.225,7.946,22.888,12.873,36.694,13.576c-0.059-4.546,0.256-12.58,0.256-12.58l5.779,0.029c0,0-0.352,12.609,0.103,12.58      c16.794-0.719,31.919-7.73,42.993-18.769c1.033-1.033-7.354-7.229-7.354-7.229l3.647-5.2c0,0,8.884,6.585,9.419,5.926      c7.749-10.137,12.518-22.64,13.11-36.307c0.029-0.586-12.737,0.059-12.737,0.059l-0.241-6.211c0,0,10.342,0.023,12.964-0.168      C371.497,181.48,366.604,168.963,358.753,158.855z M307.044,213.722c-5.259,0-9.111-3.875-9.111-9.126      c0-9.002,6.328-9.478,6.328-9.478c0-11.851,0-51.987,0-51.987c0-1.678,1.385-3.076,3.076-3.076c1.699,0,3.062,1.398,3.062,3.076      c0,0,0,39.704,0,51.782c0,0,6.138,0.871,6.138,9.683C316.536,209.847,312.303,213.722,307.044,213.722z" style="fill-rule:evenodd;clip-rule:evenodd;fill:#FFFFFF;"/></g><path d="M436.272,298.246l-8.643-5.639c0.184-1.832,0.197-3.678,0-5.566     c-0.19-1.904-0.571-3.736-1.143-5.449l7.316-7.295c0.901-0.895,1.048-2.506,0.272-3.561l-4.688-6.488     c-0.783-1.07-2.315-1.406-3.472-0.85l-9.199,4.672c-2.988-2.168-6.431-3.734-10.122-4.525l-2.637-9.942     c-0.33-1.283-1.641-2.184-2.922-2.052l-8.014,0.827c-1.281,0.132-2.373,1.298-2.453,2.578l-0.549,10.317     c-3.443,1.523-6.497,3.75-8.973,6.475l-9.961-2.682c-1.245-0.336-2.71,0.338-3.23,1.523l-3.273,7.34     c-0.542,1.185-0.073,2.725,1.018,3.412l8.621,5.641c-0.176,1.801-0.19,3.662,0,5.566c0.205,1.875,0.586,3.721,1.143,5.434     l-7.31,7.281c-0.908,0.922-1.04,2.52-0.308,3.545l4.731,6.518c0.739,1.055,2.315,1.436,3.457,0.836l9.199-4.658     c3.003,2.168,6.431,3.734,10.122,4.525l2.637,9.961c0.352,1.26,1.655,2.168,2.944,2.051l8.013-0.834     c1.26-0.146,2.373-1.289,2.446-2.578l0.557-10.299c3.442-1.537,6.489-3.764,8.95-6.518l9.976,2.709     c1.245,0.338,2.695-0.352,3.208-1.537l3.303-7.324C437.804,300.473,437.342,298.92,436.272,298.246z M402.391,303.959     c-7.815,0.791-14.81-4.893-15.622-12.699c-0.82-7.838,4.877-14.824,12.692-15.631c7.822-0.805,14.817,4.879,15.63,12.701     C415.903,296.137,410.213,303.154,402.391,303.959z" style="fill:#FFFFFF;"/></g></g></g><g id="Layer_1"/></svg>