<?xml version="1.0" ?><!DOCTYPE svg  PUBLIC '-//W3C//DTD SVG 1.1//EN'  'http://www.w3.org/Graphics/SVG/1.1/DTD/svg11.dtd'><svg style="enable-background:new 0 0 500 500.008;" version="1.1" viewBox="0 0 500 500.008" xml:space="preserve" xmlns="http://www.w3.org/2000/svg" xmlns:xlink="http://www.w3.org/1999/xlink"><g id="view-content-window"><g><rect height="500.008" style="fill:#62C1D3;" width="500" y="0"/><g id="_x35_"><g><rect height="10.041" style="fill:#FFFFFF;" width="146.323" x="111.514" y="187.314"/><path d="M324.355,213.007v-1.598H111.514v10.042h201.811C316.768,218.353,320.43,215.519,324.355,213.007      z" style="fill:#FFFFFF;"/><rect height="10.041" style="fill:#FFFFFF;" width="159.631" x="111.514" y="235.507"/><path d="M288.789,259.604H111.514v10.035h174.902C287.031,266.225,287.778,262.855,288.789,259.604z" style="fill:#FFFFFF;"/><rect height="10.033" style="fill:#FFFFFF;" width="146.323" x="111.514" y="283.701"/><g><g><path d="M261.66,356.299v-13.154l1.567-2.615c0.425-0.711,0.894-1.369,1.333-2.065H69.502V156.23        h280.679v126.892c4.694-0.579,9.463-0.901,14.282-0.901c3.867,0,7.676,0.25,11.463,0.631V114.423        c0-11.375-9.228-20.607-20.589-20.607H64.354c-11.375,0-20.604,9.232-20.604,20.607v229.19        c0,11.367,9.229,20.588,20.604,20.588h202.279c-1.164-1.736-2.321-3.479-3.405-5.288L261.66,356.299z M145.791,113.207h21.841        v21.047h-21.841V113.207z M107.639,113.207h21.849v21.047h-21.849V113.207z M69.502,113.207h21.841v21.047H69.502V113.207z" style="fill:#FFFFFF;"/></g></g></g><g><path d="M272.676,346.191v7.053c42.363,70.598,141.211,70.598,183.574,0v-7.053      C413.887,275.586,315.039,275.586,272.676,346.191z M364.463,392.077c-23.423,0-42.363-18.978-42.363-42.363      c0-23.401,18.94-42.363,42.363-42.363c23.379,0,42.363,18.962,42.363,42.363C406.826,373.1,387.842,392.077,364.463,392.077z" style="fill:#FFFFFF;"/><path d="M385.645,349.714c0,11.704-9.492,21.182-21.182,21.182c-11.697,0-21.182-9.478-21.182-21.182      c0-11.719,9.484-21.175,21.182-21.175C376.152,328.539,385.645,337.995,385.645,349.714z" style="fill:#FFFFFF;"/></g></g></g></g><g id="Layer_1"/></svg>