<?xml version="1.0" ?><!DOCTYPE svg  PUBLIC '-//W3C//DTD SVG 1.1//EN'  'http://www.w3.org/Graphics/SVG/1.1/DTD/svg11.dtd'><svg style="enable-background:new 0 0 500 500.008;" version="1.1" viewBox="0 0 500 500.008" xml:space="preserve" xmlns="http://www.w3.org/2000/svg" xmlns:xlink="http://www.w3.org/1999/xlink"><g id="window-time-speed"><g><rect height="500.008" style="fill:#F27744;" width="500" y="0"/><g id="_x31_7"><path d="M249.985,358.727     c-48.472,0-87.763-39.287-87.763-87.76c0-48.468,39.291-87.784,87.763-87.784c48.486,0,87.773,39.316,87.773,87.784     C337.759,319.439,298.472,358.727,249.985,358.727z M250,196.374c-41.199,0-74.598,33.398-74.598,74.593     c0,41.178,33.398,74.576,74.598,74.576s74.582-33.398,74.582-74.576C324.582,229.772,291.199,196.374,250,196.374z      M303.885,271.217h-8.094c0-0.074,0-0.162,0-0.25c0-8.936-2.578-17.23-6.973-24.261c1.831-2.564,3.641-5.127,5.018-7.031     c6.299,8.825,10.049,19.603,10.049,31.292C303.885,271.055,303.885,271.143,303.885,271.217z M257.91,261.152l32.117-31.277     c0,0-21.189,39.334-21.475,39.877C265.967,262.822,257.91,261.152,257.91,261.152z M250,225.15     c-24.39,0-44.278,19.087-45.685,43.121h9.836v5.918h-17.75v-2.973h-0.286c0-0.074-0.025-0.162-0.025-0.25     c0-29.769,24.137-53.909,53.91-53.909c12.085,0,23.218,4.035,32.189,10.744l-6.02,5.589     C268.75,228.212,259.741,225.15,250,225.15z M250.787,265.797c7.987,0,14.447,6.459,14.447,14.443     c0,7.982-6.46,14.443-14.447,14.443c-7.961,0-14.425-6.461-14.425-14.443C236.362,272.256,242.826,265.797,250.787,265.797z      M250.787,282.994c4.249,0,7.694-2.564,7.694-5.729c0-3.164-3.445-5.727-7.694-5.727c-4.244,0-7.668,2.562-7.668,5.727     C243.119,280.43,246.543,282.994,250.787,282.994z" id="speed_2_" style="fill-rule:evenodd;clip-rule:evenodd;fill:#FFFFFF;"/><g><g><path d="M438.709,400.006H61.291V100.002h377.418V400.006z M391.416,132.141       c0,5.786,4.644,10.466,10.451,10.466c5.809,0,10.511-4.68,10.511-10.466c0-5.771-4.702-10.488-10.511-10.488       C396.06,121.652,391.416,126.369,391.416,132.141z M318.496,132.141c0,4.592,3.735,8.327,8.35,8.327h43.638       c4.614,0,8.327-3.735,8.327-8.327c0-4.622-3.713-8.335-8.327-8.335h-43.638C322.231,123.806,318.496,127.519,318.496,132.141z        M421.782,159.563H83.077v204.994c0.026,8.818,7.332,16.127,16.121,16.127H405.64c8.804,0,16.128-7.309,16.143-16.127V159.563z       " style="fill:#FFFFFF;"/></g></g></g></g></g><g id="Layer_1"/></svg>