<?xml version="1.0" ?><!DOCTYPE svg  PUBLIC '-//W3C//DTD SVG 1.1//EN'  'http://www.w3.org/Graphics/SVG/1.1/DTD/svg11.dtd'><svg style="enable-background:new 0 0 500 500.008;" version="1.1" viewBox="0 0 500 500.008" xml:space="preserve" xmlns="http://www.w3.org/2000/svg" xmlns:xlink="http://www.w3.org/1999/xlink"><g id="monitor-lab-dollar-coins"><g><rect height="500.008" style="fill:#62C1D3;" width="500" y="0"/><g id="_x33_4_1_"><g><g><path d="M383.162,109.659H53.446c-5.34,0-9.697,4.365-9.697,9.697v194.249v4.557v22.719       c0,5.977,4.357,10.899,9.697,10.899h253.272l21.488-43.315H63.239V133.807h309.353v17.344       c3.422-1.106,7.002-1.743,10.709-1.743c3.332,0,6.488,0.607,9.564,1.479v-31.531       C392.865,114.024,388.508,109.659,383.162,109.659z" style="fill:#FFFFFF;"/><path d="M168.895,377.472l-4.622,9.961c0,0,0.491,2.916,2.417,2.916c1.944,0,109.604,0,111.523,0       c1.947,0,1.947-2.916,1.947-2.916l-4.635-9.961H168.895z" style="fill:#FFFFFF;"/><rect height="18.705" style="fill:#FFFFFF;" width="106.663" x="168.634" y="356.335"/></g></g><path d="M455.137,362.194l-41.66-83.935c-1.217-2.344-2.565-8.043-2.49-10.68v-28.611     c-0.008-0.835-0.096-1.626-0.279-2.417c2.184-1.011,3.662-3.011,3.662-5.354c0-3.332-3.06-6.057-6.848-6.057h-48.728     c-3.772,0-6.855,2.725-6.855,6.057c0,2.747,2.051,5.024,4.85,5.794c-0.117,0.63-0.191,1.311-0.191,1.978v28.611     c0.074,2.637-1.273,8.336-2.504,10.68l-41.647,83.935c-0.68,1.377-1.119,2.914-1.127,4.525c-0.045,2.272,1.025,4.688,2.842,6.197     c1.801,1.508,4.057,2.123,6.27,2.123h126.73c0.008,0,0.008,0,0.016,0c2.189,0,4.43-0.615,6.246-2.123     c1.816-1.51,2.871-3.926,2.828-6.197C456.242,365.108,455.824,363.585,455.137,362.194z M321.279,365.606l10.92-22.002h35.244     c1.582,0,2.887-1.273,2.887-2.855c0-1.568-1.305-2.871-2.887-2.871h-32.402l5.148-10.4h27.254c1.582,0,2.887-1.275,2.887-2.857     s-1.305-2.871-2.887-2.871h-24.396l6.035-12.188h18.361c1.582,0,2.887-1.273,2.887-2.871c0-1.582-1.305-2.855-2.887-2.855     h-15.506l10.605-21.373c2.066-4.32,3.428-10.107,3.48-14.883v-28.611c0-0.688,0.387-1.333,0.959-1.685H400.6     c0.572,0.352,0.938,0.996,0.938,1.685v28.611c0.088,4.775,1.436,10.562,3.502,14.869l41.258,83.158H321.279z M331.81,217.464     c8.717,0,15.77-7.061,15.77-15.776c0-8.701-7.053-15.776-15.77-15.776c-8.707,0-15.783,7.075-15.783,15.776     C316.027,210.404,323.103,217.464,331.81,217.464z M336.396,191.859c0.439-0.659,1.318-0.864,1.971-0.433     c3.398,2.153,5.631,5.941,5.631,10.262c0,0.798-0.629,1.436-1.435,1.436c-0.783,0-1.42-0.638-1.42-1.436     c0-3.304-1.728-6.189-4.307-7.852l0,0C336.162,193.412,335.965,192.518,336.396,191.859z M332.514,189.625     c0.938,0,1.685,0.747,1.685,1.663c0,0.923-0.748,1.67-1.685,1.67c-0.908,0-1.662-0.747-1.662-1.67     C330.852,190.372,331.605,189.625,332.514,189.625z M340.41,170.223c6.357,0,11.514-5.149,11.514-11.528     c0-6.351-5.156-11.514-11.514-11.514c-6.373,0-11.514,5.163-11.514,11.514C328.896,165.074,334.037,170.223,340.41,170.223z      M343.764,151.524c0.301-0.498,0.953-0.63,1.451-0.329c2.445,1.582,4.094,4.357,4.094,7.5c0,0.586-0.469,1.055-1.047,1.055     c-0.586,0-1.041-0.469-1.041-1.055c0-2.402-1.26-4.512-3.156-5.727C343.582,152.645,343.441,152.007,343.764,151.524z      M340.938,149.891c0.658,0,1.223,0.542,1.223,1.208c0,0.682-0.564,1.238-1.223,1.238c-0.69,0-1.217-0.557-1.217-1.238     C339.721,150.433,340.248,149.891,340.938,149.891z M383.461,209.854c13.998-0.044,25.312-11.403,25.27-25.407     c-0.029-13.989-11.412-25.312-25.416-25.269c-13.988,0.021-25.326,11.418-25.268,25.407     C358.09,198.583,369.451,209.898,383.461,209.854z M380.488,185.985c-0.41-0.147-0.791-0.301-1.143-0.439     c-1.832-0.718-3.23-1.758-4.182-3.12c-0.961-1.355-1.4-3.047-1.268-5.062c0.102-1.633,0.754-3.252,2.006-4.841     c1.26-1.597,3.164-2.637,5.772-3.135v-2.666h5.369v2.71c2.892,0.63,4.834,2.021,5.852,4.16c1.041,2.168,1.48,3.852,1.385,5.098     h-5.076c0-0.893-0.16-1.699-0.469-2.425c-0.328-0.732-0.893-1.325-1.691-1.773v8.152c0.549,0.161,1.092,0.358,1.648,0.557     c0.527,0.212,1.055,0.425,1.596,0.674c1.67,0.783,3.012,1.882,3.934,3.296c0.959,1.421,1.326,3.024,1.092,4.863     c-0.197,2.021-0.953,3.75-2.344,5.215c-1.348,1.465-3.326,2.373-5.926,2.761v2.82l-5.369-0.044v-2.776     c-3.002-0.557-5.156-1.882-6.416-3.947c-1.244-2.08-1.875-4.175-1.875-6.277h5.391c0,1.304,0.279,2.329,0.807,3.113     c0.527,0.783,1.252,1.362,2.094,1.75v-8.232C381.279,186.285,380.891,186.138,380.488,185.985z M381.674,181.107     c-0.746-0.395-1.354-0.835-1.816-1.304c-0.475-0.462-0.732-1.128-0.732-1.992c0-0.762,0.221-1.458,0.615-2.044     c0.41-0.615,1.049-1.105,1.934-1.523V181.107z M389.014,193.69c-0.447,0.446-1.1,0.812-1.971,1.12v-6.848     c0.154,0.088,0.271,0.124,0.301,0.147c0.043,0.007,0.096,0.029,0.16,0.058c0.938,0.352,1.598,0.886,1.941,1.545     c0.359,0.696,0.49,1.487,0.315,2.388C389.73,192.709,389.461,193.257,389.014,193.69z" style="fill:#FFFFFF;"/><g><path d="M98.963,180.733h178.861c5.822,0,5.822-11.081,0-11.081H98.963      C93.125,169.652,93.125,180.733,98.963,180.733z" style="fill:#FFFFFF;"/><path d="M98.963,209.62h178.861c5.822,0,5.822-11.096,0-11.096H98.963      C93.125,198.524,93.125,209.62,98.963,209.62z" style="fill:#FFFFFF;"/><path d="M98.963,238.492h178.861c5.822,0,5.822-11.074,0-11.074H98.963      C93.125,227.417,93.125,238.492,98.963,238.492z" style="fill:#FFFFFF;"/><path d="M277.824,256.306H98.963c-5.838,0-5.838,11.084,0,11.084h178.861      C283.646,267.39,283.646,256.306,277.824,256.306z" style="fill:#FFFFFF;"/></g></g></g></g><g id="Layer_1"/></svg>