<?xml version="1.0" ?><!DOCTYPE svg  PUBLIC '-//W3C//DTD SVG 1.1//EN'  'http://www.w3.org/Graphics/SVG/1.1/DTD/svg11.dtd'><svg style="enable-background:new 0 0 500 500.008;" version="1.1" viewBox="0 0 500 500.008" xml:space="preserve" xmlns="http://www.w3.org/2000/svg" xmlns:xlink="http://www.w3.org/1999/xlink"><g id="link-globe-mobile"><g><rect height="500.008" style="fill:#EFBF41;" width="500" y="0"/><g id="_x31_0_1_"><g><path d="M225.817,407.7l0.234-87.686c-22.983,0.602-43.872,5.172-63.223,14.283      C176.643,363.009,198.952,389.419,225.817,407.7z" style="fill:#FFFFFF;"/><path d="M153.63,338.618c-12.884,7.252-26.396,15.85-37.273,27.627      c26.668,25.81,60.234,42.32,97.91,45.527C188.493,392.745,166.975,365.616,153.63,338.618z" style="fill:#FFFFFF;"/><path d="M144.255,256.503l-0.161,3.893c0.908,21.504,6.262,44.4,14.502,64.527      c19.966-8.701,42.1-13.975,64.702-14.795c0.996-0.074,2.183-0.162,2.951-0.396l0.081-53.252l-17.754-0.072L144.255,256.503z" style="fill:#FFFFFF;"/><path d="M134.206,256.606l-5.596-0.176l-60.586,0.108c1.626,39.029,15.557,73.512,41.206,102.207      c12.429-11.25,25.474-21.709,40.539-29.34C140.38,306.86,134.645,282.618,134.206,256.606z" style="fill:#FFFFFF;"/><path d="M163.752,165.946c19.973,8.423,38.789,13.418,62.534,13.901l0.388-86.338      C200.351,111.828,177.419,137.894,163.752,165.946z" style="fill:#FFFFFF;"/><path d="M216.809,88.244c-38.167,2.857-72.349,18.83-100.034,45.571      c10.539,11.177,24.353,20.749,38.027,27.583C167.941,134.357,191.107,107.199,216.809,88.244z" style="fill:#FFFFFF;"/><path d="M134.03,246.556c0.41-24.448,6.226-52.683,16.457-75.996      c-14.772-7.39-28.425-17.637-40.832-29.538c-23.636,25.752-36.387,56.916-40.737,90.85c-0.55,0.689,0.308,1.699-0.396,2.256      l-0.439,12.29l0.22,0.234L134.03,246.556z" style="fill:#FFFFFF;"/><path d="M143.991,246.608l82.236-0.015l0.249-56.624c-23.284-0.168-46.385-6.042-67.061-14.86      C149.821,197.257,144.65,220.907,143.991,246.608z" style="fill:#FFFFFF;"/></g><path d="M396.292,78.421H275.486c-19.617,0-35.68,16.069-35.68,35.684v271.798     c0,19.615,16.062,35.684,35.68,35.684h120.806c19.629,0,35.684-16.068,35.684-35.684V114.105     C431.976,94.491,415.921,78.421,396.292,78.421z M313.924,88.859c0-1.201,1.992-2.205,4.395-2.205h35.142     c2.417,0,4.409,1.004,4.409,2.205v1.091c0,1.224-1.992,2.197-4.409,2.197h-35.142c-2.402,0-4.395-0.974-4.395-2.197V88.859z      M340.027,101.764c0,2.263-1.86,4.123-4.131,4.123c-2.285,0-4.131-1.86-4.131-4.123c0-2.293,1.846-4.139,4.131-4.139     C338.167,97.626,340.027,99.471,340.027,101.764z M357.869,403.481c0,2.402-1.992,4.381-4.409,4.381h-35.142     c-2.402,0-4.395-1.979-4.395-4.381V401.3c0-2.432,1.992-4.395,4.395-4.395h35.142c2.417,0,4.409,1.963,4.409,4.395V403.481z      M409.183,372.31H265.159V127.692h144.023V372.31z" style="fill:#FFFFFF;"/><g><path d="M316.004,263.53c-2.227,3.15-1.465,7.529,1.714,9.801l0,0c3.179,2.27,7.573,1.553,9.8-1.582      l28.286-39.687c2.227-3.128,1.45-7.523-1.714-9.778l0,0c-3.193-2.263-7.573-1.567-9.8,1.582L316.004,263.53z" style="fill:#FFFFFF;"/><path d="M282.444,282.794l15.601-21.9c5.142-7.232,13.74-10.514,22.031-9.275l-7.017,9.848      c0,0,0,0-0.015,0c-3.428,0.688-6.592,2.607-8.789,5.684l-13.887,19.467c-4.585,6.461-3.017,15.469,3.53,20.127      c6.548,4.674,15.586,3.223,20.171-3.236l13.887-19.498c2.183-3.047,2.959-6.68,2.49-10.15c0,0,0,0,0.015,0l7.017-9.844      c3.853,7.426,3.56,16.625-1.582,23.848l-15.601,21.898c-7.339,10.299-21.768,12.627-32.227,5.172      C277.61,307.491,275.091,293.091,282.444,282.794z" style="fill:#FFFFFF;"/><path d="M358.733,234.157c0,0,0,0,0-0.015c3.457-0.682,6.621-2.607,8.804-5.669l13.887-19.49      c4.585-6.445,3.018-15.454-3.516-20.127c-6.548-4.658-15.586-3.208-20.2,3.237l-13.872,19.49      c-2.183,3.068-2.944,6.701-2.49,10.173l0,0l-7.017,9.844c-3.853-7.427-3.574-16.633,1.567-23.855l15.601-21.885      c7.353-10.327,21.767-12.627,32.227-5.186c10.474,7.448,12.978,21.841,5.64,32.146l-15.601,21.907      c-5.156,7.207-13.74,10.488-22.046,9.272L358.733,234.157z" style="fill:#FFFFFF;"/></g></g></g></g><g id="Layer_1"/></svg>