<?xml version="1.0" ?><!DOCTYPE svg  PUBLIC '-//W3C//DTD SVG 1.1//EN'  'http://www.w3.org/Graphics/SVG/1.1/DTD/svg11.dtd'><svg style="enable-background:new 0 0 500 500.012;" version="1.1" viewBox="0 0 500 500.012" xml:space="preserve" xmlns="http://www.w3.org/2000/svg" xmlns:xlink="http://www.w3.org/1999/xlink"><g id="data-filter"><g><rect height="500.012" style="fill:#62C1D3;" width="500" y="0"/><g id="_x31_8_1_"><path d="M347.58,228.332l13.162-21.307H224.248v30.814H175v-30.814h-43.945l82.031,132.799v129.697     l65.625-32.797v-65.641v-31.26l9.243-14.941c7.207,3.268,15.146,5.186,23.569,5.186c31.655,0,57.422-25.766,57.422-57.422     C368.945,254.728,360.508,238.879,347.58,228.332z M311.523,313.662c-5.252,0-10.239-1.084-14.868-2.885l42.261-68.427     c8.306,7.5,13.623,18.241,13.623,30.296C352.539,295.279,334.141,313.662,311.523,313.662z" style="fill:#FFFFFF;"/><g><polygon points="214.375,207.025 214.375,204.271 214.375,198.42 208.53,198.42 184.873,198.42       184.873,207.025 184.873,227.966 214.375,227.966     " style="fill:#FFFFFF;"/><polygon points="247.993,194.398 247.993,170.653 247.993,164.816 242.134,164.816 218.403,164.816       218.403,188.547 218.403,194.398 224.248,194.398     " style="fill:#FFFFFF;"/><polygon points="281.597,160.78 281.597,137.087 281.597,131.249 257.866,131.249 252.007,131.249       252.007,137.087 252.007,154.943 252.007,160.78 257.866,160.78     " style="fill:#FFFFFF;"/><polygon points="247.993,127.206 247.993,121.369 247.993,103.513 247.993,97.675 242.134,97.675       224.248,97.675 218.403,97.675 218.403,103.513 218.403,127.206 242.134,127.206     " style="fill:#FFFFFF;"/><polygon points="281.597,127.206 281.597,121.369 281.597,103.513 281.597,97.675 275.752,97.675       257.866,97.675 252.007,97.675 252.007,103.513 252.007,121.369 252.007,127.206 257.866,127.206     " style="fill:#FFFFFF;"/><polygon points="315.127,93.64 315.127,64.057 291.47,64.057 285.625,64.057 285.625,69.909       285.625,87.802 285.625,93.64 291.47,93.64     " style="fill:#FFFFFF;"/><polygon points="275.752,93.64 281.597,93.64 281.597,87.802 281.597,69.909 281.597,64.057       275.752,64.057 257.866,64.057 252.007,64.057 252.007,69.909 252.007,87.802 252.007,93.64 257.866,93.64     " style="fill:#FFFFFF;"/><polygon points="242.134,93.64 247.993,93.64 247.993,87.802 247.993,69.909 247.993,64.057       242.134,64.057 224.248,64.057 218.403,64.057 218.403,69.909 218.403,87.802 218.403,93.64 224.248,93.64     " style="fill:#FFFFFF;"/><polygon points="214.375,93.64 214.375,87.802 214.375,69.909 214.375,64.057 208.53,64.057       184.873,64.057 184.873,93.64 208.53,93.64     " style="fill:#FFFFFF;"/><polygon points="275.752,60.036 281.597,60.036 281.597,54.184 281.597,30.49 257.866,30.49       252.007,30.49 252.007,54.184 252.007,60.036 257.866,60.036     " style="fill:#FFFFFF;"/><polygon points="242.134,60.036 247.993,60.036 247.993,54.184 247.993,30.49 242.134,30.49       218.403,30.49 218.403,54.184 218.403,60.036 224.248,60.036     " style="fill:#FFFFFF;"/></g></g></g></g><g id="Layer_1"/></svg>