<?xml version="1.0" ?><svg style="enable-background:new 0 0 48 48;" version="1.1" viewBox="0 0 48 48" xml:space="preserve" xmlns="http://www.w3.org/2000/svg" xmlns:xlink="http://www.w3.org/1999/xlink"><g id="Padding__x26__Artboard"/><g id="Icons"><g><path d="M22.34253,18.78879c-0.18964-0.57983-0.4917-1.09875-0.88873-1.54938    c-0.00195-0.00293-0.00397-0.00525-0.00592-0.00818c-0.01062-0.01202-0.0174-0.02673-0.0282-0.03864    c-0.01807-0.01953-0.03809-0.03711-0.05957-0.05225c-0.89941-0.96094-2.20801-1.45703-3.54102-1.34131    c-2.22021,0.19678-3.95947,2.10205-3.95947,4.33838v1.25037h0.7002h0.5h0.7002v-1.25037c0-0.4541,0.12012-0.88818,0.35205-1.26318    c0.43213-0.73828,1.23584-1.19678,2.06396-1.20557c0.03418,0.01172,0.0708,0.01807,0.10742,0.01904    c0.91064,0.01709,1.72363,0.53906,2.125,1.37012c0.16455,0.31982,0.25146,0.69336,0.25146,1.07959v0.66016v0.59021h0.7002h0.49951    h0.7002v-1.25037C22.55981,19.67453,22.48657,19.22043,22.34253,18.78879z" style="fill:#303030;"/><g><path d="M35.05005,24.08762l-9.41564,0.00666l0.02497,2.58677l9.39066,0.00666     c0.61768,0,1.12012-0.5835,1.12012-1.30029C36.17017,24.65842,35.67798,24.08762,35.05005,24.08762z" style="fill:#303030;"/><path d="M35.05005,29.62717h-9.39407c0,0-0.05125,1.87666-1.23222,2.53777l10.62629,0.05256     c0.62793,0,1.12012-0.5708,1.12012-1.2998C36.17017,30.19406,35.67798,29.62717,35.05005,29.62717z" style="fill:#303030;"/><path d="M24.54517,24.37961c-0.18091-1.0766-0.97272-1.90314-1.98535-2.17676     c-0.51379-0.11078-1.02612-0.09369-1.8999-0.10547h-4.8999h-0.7002c0,0-0.77197-0.0249-1.2002,0.10785     c-1.16571,0.31891-2.02979,1.37683-2.02979,2.64215v4.62988c0,1.51074,1.23389,2.74023,2.75,2.74023h3.93994h3.31982h0.00049     c1.29834,0,2.42627-0.9126,2.6792-2.15527c0.04688-0.18652,0.0708-0.3833,0.0708-0.58496v-4.62988     C24.59009,24.66232,24.57397,24.50315,24.54517,24.37961z M14.55981,29.47727c0,0.19336-0.15674,0.3501-0.3501,0.3501     s-0.3501-0.15674-0.3501-0.3501v-4.62988c0-0.19335,0.15674-0.3501,0.3501-0.3501s0.3501,0.15674,0.3501,0.3501V29.47727z" style="fill:#303030;"/></g><path d="M35.05005,18.54758H23.51978c-0.02142,0-0.04004,0.00854-0.06042,0.01221    c-0.00452,0.00073-0.00879-0.00092-0.01331,0c-0.00439,0.00092-0.00751,0.00403-0.01178,0.00507    c-0.00629,0.00165-0.01117,0.00549-0.01721,0.00739c0.10345,0.40967,0.24341,1.24243,0.20947,2.57275    c0.0047,0.00018,0.00861,0.00269,0.01337,0.00269h11.41016c0.61768,0,1.12012-0.5835,1.12012-1.30029    S35.66772,18.54758,35.05005,18.54758z" style="fill:#303030;"/></g></g></svg>