<?xml version="1.0" ?><svg style="enable-background:new 0 0 48 48;" version="1.1" viewBox="0 0 48 48" xml:space="preserve" xmlns="http://www.w3.org/2000/svg" xmlns:xlink="http://www.w3.org/1999/xlink"><g id="Padding__x26__Artboard"/><g id="Icons"><g><path d="M23.57703,20.59399c-0.2373,0.36621-0.36816,0.86377-0.36816,1.40088v1.43359    c0,0.19336-0.15674,0.3501-0.3501,0.3501h-1.32861l-0.02979,1.2832l1.34229,0.00684    c0.19043,0.00098,0.3457,0.15479,0.34814,0.34521l0.0498,3.75439h1.24414l0.04199-3.76221    c0.00244-0.19189,0.1582-0.34619,0.3501-0.34619h1.29346l0.17627-1.25244l-1.48584-0.02881    c-0.19141-0.00391-0.34424-0.16064-0.34326-0.35205l0.00928-1.5249c-0.00049-0.03125,0.00244-0.37695,0.27539-0.65723    c0.20947-0.21484,0.50635-0.32568,0.8833-0.33008c0.32275-0.00342,0.55762-0.00293,0.72168-0.00391l0.02979-1.15137    c-0.04395-0.00049-0.08789-0.00098-0.13232-0.00195C25.24451,19.74292,24.14099,19.72534,23.57703,20.59399z" style="fill:#303030;"/><polygon points="32.94714,12.74121 33.01086,12.70813 32.94714,12.6828   " style="fill:none;"/><path d="M30.48132,8.59741H17.45496c-1.35938,0-2.46582,1.10645-2.46582,2.46582v1.34131h0.7002h16.55762    h0.7002v-1.34131C32.94714,9.70386,31.8407,8.59741,30.48132,8.59741z M24.44324,11.17114h-3.72314    c-0.19336,0-0.3501-0.15674-0.3501-0.3501s0.15674-0.3501,0.3501-0.3501h3.72314c0.19336,0,0.3501,0.15674,0.3501,0.3501    S24.6366,11.17114,24.44324,11.17114z M26.85101,11.14984c-0.20178,0-0.36536-0.14716-0.36536-0.32874    c0-0.18152,0.16357-0.32867,0.36536-0.32867s0.3653,0.14716,0.3653,0.32867C27.21631,11.00269,27.0528,11.14984,26.85101,11.14984    z" style="fill:#303030;"/><polygon points="32.94714,36.17438 32.94714,36.1167 32.89386,36.14771   " style="fill:#303030;"/><path d="M32.24695,36.52466H15.68933h-0.7002v0.41211c0,1.35938,1.10645,2.46582,2.46582,2.46582h13.02637    c1.35938,0,2.46582-1.10645,2.46582-2.46582v-0.41211H32.24695z M23.96814,36.92285c0.35645,0,0.64539,0.28894,0.64539,0.64539    c0,0.35638-0.28894,0.64532-0.64539,0.64532c-0.35638,0-0.64532-0.28894-0.64532-0.64532    C23.32281,37.21179,23.61176,36.92285,23.96814,36.92285z" style="fill:#303030;"/><path d="M32.24695,13.10474H15.68933h-0.7002v22.71973h0.7002h16.55762h0.7002V13.10474H32.24695z     M17.57898,17.14038c-0.0957,0-0.19092-0.03906-0.26025-0.11621c-0.12939-0.14355-0.11768-0.36475,0.02637-0.49414    l2.87012-2.58203c0.14355-0.12939,0.36426-0.11816,0.49414,0.02637c0.12939,0.14355,0.11768,0.36475-0.02637,0.49414    l-2.87012,2.58203C17.74597,17.1106,17.66248,17.14038,17.57898,17.14038z M19.1908,17.45874    c-0.0957,0-0.19092-0.03906-0.26025-0.11621c-0.12939-0.14355-0.11768-0.36475,0.02637-0.49414l1.78857-1.60938    c0.14355-0.12891,0.36426-0.11768,0.49414,0.02637c0.12939,0.14355,0.11768,0.36475-0.02637,0.49414l-1.78857,1.60938    C19.35779,17.42896,19.27429,17.45874,19.1908,17.45874z M27.09851,21.27319c-0.00244,0.09375-0.04248,0.18213-0.11035,0.24609    c-0.06787,0.06348-0.15576,0.09766-0.25244,0.09473c-0.00928-0.00049-0.24854-0.00732-1.04248,0.00049    c-0.396,0.00439-0.4624,0.18506-0.46631,0.29248l-0.00732,1.17822l1.53564,0.02979    c0.1001,0.00195,0.19482,0.04688,0.25977,0.12305s0.09375,0.17676,0.08008,0.27588l-0.27393,1.94482    c-0.02441,0.17285-0.17236,0.30127-0.34668,0.30127h-1.25146l-0.04199,3.76221c-0.00244,0.19189-0.1582,0.34619-0.3501,0.34619    h-1.93555c-0.19141,0-0.34766-0.15381-0.3501-0.34521l-0.0498-3.75635l-1.35498-0.00684    c-0.09375-0.00049-0.18359-0.03857-0.24902-0.10596s-0.10107-0.1582-0.09912-0.25195l0.04541-1.98145    c0.00439-0.19043,0.16016-0.34229,0.3501-0.34229h1.3208v-1.0835c0-0.67041,0.1709-1.30322,0.48145-1.78174    c0.77344-1.19238,2.18945-1.17188,3.32471-1.15576c0.16309,0.00293,0.32373,0.00684,0.47852,0.00342    c0.07373-0.00439,0.18555,0.03711,0.25195,0.10498c0.06689,0.06738,0.10303,0.15918,0.10059,0.25391L27.09851,21.27319z" style="fill:#303030;"/></g></g></svg>