<?xml version="1.0" ?><svg style="enable-background:new 0 0 48 48;" version="1.1" viewBox="0 0 48 48" xml:space="preserve" xmlns="http://www.w3.org/2000/svg" xmlns:xlink="http://www.w3.org/1999/xlink"><g id="Padding__x26__Artboard"/><g id="Icons"><g><path d="M17.09961,26.36353c-0.19336,0-0.3501,0.15674-0.3501,0.3501v4.03955    c0,0.19336,0.15674,0.3501,0.3501,0.3501s0.3501-0.15674,0.3501-0.3501v-4.03955    C17.44971,26.52026,17.29297,26.36353,17.09961,26.36353z" style="fill:none;"/><path d="M18.59131,23.04224c-1.01562,0-1.8418,0.82617-1.8418,1.8418c0,0.19336,0.15674,0.3501,0.3501,0.3501    s0.3501-0.15674,0.3501-0.3501c0-0.62939,0.51221-1.1416,1.1416-1.1416c0.19336,0,0.3501-0.15674,0.3501-0.3501    S18.78467,23.04224,18.59131,23.04224z" style="fill:none;"/><path d="M23.99512,12.16724c-3.40771,0-6.18018,2.77686-6.18018,6.18994v2.19324h0.7002h1.0498h0.7002    v-2.19324c0-2.06201,1.67773-3.73975,3.73975-3.73975c2.05664,0,3.72998,1.67773,3.72998,3.73975v2.19324h0.7002h1.0498h0.7002    v-2.19324C30.18506,14.94409,27.4082,12.16724,23.99512,12.16724z" style="fill:#303030;"/><path d="M30.40283,21.39087h-0.05835h-0.15942h-0.7002h-1.0498h-0.7002h-7.46973h-0.7002h-1.0498h-0.7002    h-0.21777c-1.51514,0-2.74756,1.23242-2.74756,2.74707v8.94727c0,1.51514,1.23242,2.74756,2.74756,2.74756h12.80566    c1.51514,0,2.74756-1.23242,2.74756-2.74756v-8.94727C33.15039,22.62329,31.91797,21.39087,30.40283,21.39087z M18.59131,23.74243    c-0.62939,0-1.1416,0.51221-1.1416,1.1416c0,0.19336-0.15674,0.3501-0.3501,0.3501s-0.3501-0.15674-0.3501-0.3501    c0-1.01562,0.82617-1.8418,1.8418-1.8418c0.19336,0,0.3501,0.15674,0.3501,0.3501S18.78467,23.74243,18.59131,23.74243z     M16.74951,26.71362c0-0.19336,0.15674-0.3501,0.3501-0.3501s0.3501,0.15674,0.3501,0.3501v4.03955    c0,0.19336-0.15674,0.3501-0.3501,0.3501s-0.3501-0.15674-0.3501-0.3501V26.71362z" style="fill:#303030;"/></g></g></svg>