<?xml version="1.0" ?><svg style="enable-background:new 0 0 48 48;" version="1.1" viewBox="0 0 48 48" xml:space="preserve" xmlns="http://www.w3.org/2000/svg" xmlns:xlink="http://www.w3.org/1999/xlink"><g id="Padding__x26__Artboard"/><g id="Icons"><g><path d="M34.42622,26.38435c0.52881,0,0.97559-0.18896,1.29248-0.5459    c0.37891-0.42676,0.53955-1.06201,0.45264-1.78857c-0.07617-0.64014-0.45508-1.17871-0.98242-1.479    c0.25977-0.29688,0.43701-0.77686,0.43701-1.5332c0-1.00146-0.48242-1.75635-1.22314-2    c0.23926-0.37207,0.3418-0.90674,0.31299-1.62354c-0.02734-0.6875-0.40576-1.27539-0.96387-1.58838    c0.26611-0.4043,0.2627-0.99512,0.25977-1.57227c-0.00732-1.11963-0.91992-2.03076-2.03516-2.03076l-4.81543,0.00146    c-0.01074-0.00098-0.02148-0.00146-0.03223-0.00146h-5.3208c-0.15918,0-0.32471-0.00684-0.4917-0.01367    c-0.17578-0.00732-0.33789-0.03369-0.5293-0.01514c-0.45459,0-0.90723,0.1377-1.30957,0.39795l-1.03027,0.67188L12.1645,13.1866    c-0.00195,0-0.00391,0-0.00537,0c-0.04962,0-0.09637,0.01117-0.13928,0.02991c-0.00861,0.00366-0.01465,0.01093-0.02289,0.0152    c-0.03021,0.01617-0.06018,0.0329-0.08429,0.05682c-0.06561,0.06366-0.10706,0.15198-0.10706,0.25061v9.6001    c0,0.07874,0.03082,0.14783,0.07471,0.2063c0.06262,0.08643,0.15894,0.14691,0.27393,0.14868l4.98437,0.0708l0.19238,0.12012    c0.19922,0.12598,0.39844,0.25293,0.5957,0.38086c0.19238,0.125,0.38477,0.25,0.57227,0.3833    c0.05127,0.03613,0.10352,0.07275,0.14844,0.12354c0.0332,0.06543,0.06934,0.12891,0.10742,0.19287l3.1416,5.26221    c0.11719,0.19629,0.22363,0.58447,0.22363,0.81348l-0.00098,1.69043c0,0.44678-0.00342,0.88574-0.02441,1.33203    c-0.04248,0.88525,0.70947,1.56934,1.42529,1.83008c0.21631,0.0791,0.44922,0.11865,0.68994,0.11865    c0.30322,0,0.61816-0.06299,0.92725-0.1875c0.30859-0.12451,1.04541-0.48291,1.21289-1.10986l0.08252-0.30762    c0.15576-0.5791,0.31104-1.15869,0.45605-1.74023l0.07031-0.2749c0.10889-0.42139,0.22119-0.85693,0.26709-1.30322    c0.06787-0.65869-0.6001-3.32422-0.99609-4.51758L34.42622,26.38435z M21.43745,14.21443c0-0.19336,0.15674-0.3501,0.3501-0.3501    h3.94824c0.19336,0,0.3501,0.15674,0.3501,0.3501s-0.15674,0.3501-0.3501,0.3501h-3.94824    C21.59419,14.56453,21.43745,14.40779,21.43745,14.21443z M28.25874,14.56453h-1.14648c-0.19336,0-0.3501-0.15674-0.3501-0.3501    s0.15674-0.3501,0.3501-0.3501h1.14648c0.19336,0,0.3501,0.15674,0.3501,0.3501S28.4521,14.56453,28.25874,14.56453z" style="fill:#303030;"/></g></g></svg>