<?xml version="1.0" ?><svg style="enable-background:new 0 0 48 48;" version="1.1" viewBox="0 0 48 48" xml:space="preserve" xmlns="http://www.w3.org/2000/svg" xmlns:xlink="http://www.w3.org/1999/xlink"><g id="Padding__x26__Artboard"/><g id="Icons"><g><path d="M27.41235,14.7478v3.19312c0.00049,0.00757,0.00439,0.01404,0.00439,0.02173    s-0.00391,0.01416-0.00439,0.02173v6.62231c0,0.88232,0.71777,1.6001,1.6001,1.6001h7.17041    c0.88281,0,1.60059-0.71777,1.60059-1.6001V14.7478c0-0.88232-0.71777-1.6001-1.60059-1.6001h-7.17041    C28.13013,13.14771,27.41235,13.86548,27.41235,14.7478z M31.34131,17.96472c0.46851-0.22028,0.87799-0.48712,1.22858-0.80048    c0.35059-0.31329,0.59882-0.61737,0.74463-0.91211h0.53986v6.85034h-0.83771v-5.33789    c-0.20166,0.19238-0.46631,0.38477-0.79333,0.57709c-0.32758,0.19238-0.6214,0.33661-0.88202,0.4328V17.96472z" style="fill:#303030;"/><g><path d="M15.05688,30.61255c-0.74463,0-1.3501-0.60156-1.3501-1.34033v-6.81982v-0.7002h-2.29004     c-0.66162,0-1.2002,0.53857-1.2002,1.2002v8.7002c0,0.66162,0.53857,1.19971,1.2002,1.19971h0.93701l-0.146,1.61865     c-0.01221,0.13818,0.05811,0.271,0.18018,0.33789c0.05273,0.0293,0.11084,0.04346,0.16846,0.04346     c0.07568,0,0.15088-0.02441,0.21338-0.07275l2.35742-1.8125c0.09619-0.07422,0.21533-0.11475,0.33545-0.11475h9.92383     c0.65625,0,1.19043-0.53369,1.19043-1.18994v-1.0498h-0.7002H15.05688z" style="fill:#303030;"/><path d="M32.24536,26.90698h-3.23291c-1.26855,0-2.30029-1.03174-2.30029-2.30029v-6.29395H15.05688     c-0.35254,0-0.6499,0.30225-0.6499,0.65967v10.2998c0,0.35303,0.2915,0.64014,0.6499,0.64014h12.09961     c0.07458,0,0.13995,0.02844,0.19672,0.06824c0.00507,0.00354,0.01172,0.00067,0.01666,0.00452l2.43408,1.87061l0.75488,0.55621     l-0.16797-1.79938h1.18555c0.74463,0,1.3501-0.60156,1.3501-1.3374l0.0191-2.36816H32.24536z" style="fill:#303030;"/></g></g></g></svg>