<?xml version="1.0" ?><svg style="enable-background:new 0 0 48 48;" version="1.1" viewBox="0 0 48 48" xml:space="preserve" xmlns="http://www.w3.org/2000/svg" xmlns:xlink="http://www.w3.org/1999/xlink"><g id="Padding__x26__Artboard"/><g id="Icons"><g><circle cx="16.39832" cy="14.69189" r="0.68555" style="fill:#303030;"/><path d="M36.44471,27.35205c1.07422,0,1.76807-0.76807,1.76807-1.95703    c0-0.87207-0.37744-1.57373-0.96436-1.90527c0.23682-0.2998,0.396-0.76758,0.396-1.48389c0-1.00146-0.48242-1.75684-1.22314-2    c0.19336-0.30518,0.31787-0.74951,0.31787-1.38916c0-0.85498-0.36523-1.52881-0.94971-1.85303    c0.24756-0.40381,0.24365-0.98047,0.24023-1.54102l-0.00049-0.2002c0-1.04395-0.91602-1.83154-2.13037-1.83154l-4.7251,0.00098    c-0.00879-0.00049-0.01758-0.00098-0.02637-0.00098h-0.00049l-0.07574,0.00006l-0.00043-0.00006h-6.22363    c-0.05469,0-0.11133-0.00391-0.16895-0.0083c-0.16748-0.01025-0.35938-0.02344-0.55518,0.03125    c-0.19678,0.05566-0.37012,0.16797-0.52344,0.26709l-0.10352,0.06543c-0.24951,0.15283-0.49268,0.31641-0.73486,0.48096    L20.65223,14.104c-0.14111,0.10156-0.20459,0.12891-0.27783,0.14111c-0.25525-0.00537-0.50983-0.00787-0.76465-0.01007v0.70026    v9.05481v0.82843c0.4754,0.30341,0.91205,0.59229,1.04395,0.69855c0.15186,0.32666,0.34863,0.63428,0.53906,0.93213    c0.09082,0.1416,0.18066,0.28223,0.26416,0.42236l1.83643,3.0835c0.08643,0.14502,0.17773,0.28906,0.26953,0.43359    c0.1748,0.27686,0.35156,0.55469,0.5083,0.86719c0.07861,0.13086,0.07812,0.28516,0.0708,0.52637l-0.00635,3.32227    c-0.00049,0.52979,0.43848,0.90186,0.72998,1.14844c0.38379,0.32471,0.81494,0.5083,1.24609,0.53125    c0.0332,0.00146,0.06641,0.00244,0.1001,0.00244c0.31396,0,0.63916-0.07764,0.96777-0.23193    c0.18604-0.0874,0.36182-0.19434,0.5293-0.3125l0.11328-0.07568c0.19482-0.12695,0.43799-0.28467,0.55811-0.72998    c0.18066-0.66846,0.36133-1.33691,0.5293-2.00977l0.07031-0.27686c0.10742-0.41797,0.21875-0.8501,0.26465-1.29297    c0.06787-0.65869-0.6001-3.32422-0.99609-4.51758L36.44471,27.35205z" style="fill:#303030;"/><path d="M11.08733,11.52887L9.78894,24.70801c-0.00977,0.09814,0.02246,0.1958,0.08887,0.26904    s0.16064,0.11523,0.25928,0.11523h8.52304c0.13775,0,0.24942-0.11167,0.24942-0.24942V11.50669    c0-0.16199-0.13132-0.29331-0.29331-0.29331h-7.18081C11.25553,11.21338,11.10496,11.34984,11.08733,11.52887z M16.39832,16.07764    c-0.76416,0-1.38574-0.62158-1.38574-1.38574s0.62158-1.38574,1.38574-1.38574s1.38574,0.62158,1.38574,1.38574    S17.16248,16.07764,16.39832,16.07764z M17.0448,23.21387c0,0.19336-0.15674,0.3501-0.3501,0.3501h-0.82422    c-0.19336,0-0.3501-0.15674-0.3501-0.3501s0.15674-0.3501,0.3501-0.3501h0.82422    C16.88807,22.86377,17.0448,23.02051,17.0448,23.21387z M15.04871,23.21387c0,0.19336-0.15674,0.3501-0.3501,0.3501h-2.67529    c-0.19336,0-0.3501-0.15674-0.3501-0.3501s0.15674-0.3501,0.3501-0.3501h2.67529    C14.89197,22.86377,15.04871,23.02051,15.04871,23.21387z" style="fill:#303030;"/></g></g></svg>