<?xml version="1.0" ?><svg style="enable-background:new 0 0 48 48;" version="1.1" viewBox="0 0 48 48" xml:space="preserve" xmlns="http://www.w3.org/2000/svg" xmlns:xlink="http://www.w3.org/1999/xlink"><g id="Padding__x26__Artboard"/><g id="Icons"><g><path d="M29.98853,22.86188l-10.76758-5.72217c-0.40283-0.21436-0.87793-0.20215-1.26904,0.0332    s-0.625,0.64844-0.625,1.10498v11.44482c0,0.45605,0.2334,0.86914,0.625,1.10449c0.20557,0.12354,0.43457,0.18555,0.66406,0.18555    c0.20654,0,0.41406-0.05029,0.60498-0.15186l10.76758-5.72266c0.42236-0.22412,0.68457-0.66016,0.68457-1.13818    S30.41089,23.086,29.98853,22.86188z M19.87769,20.02985c0.08643-0.17188,0.29688-0.24365,0.46973-0.15625l2.75684,1.37842    c0.17285,0.08643,0.24268,0.29639,0.15625,0.46973c-0.06104,0.12256-0.18506,0.19336-0.31348,0.19336    c-0.05225,0-0.10596-0.01172-0.15625-0.03711l-2.75684-1.37842C19.86108,20.41315,19.79126,20.20319,19.87769,20.02985z     M25.40015,22.7984c-0.05957,0.12695-0.18555,0.20117-0.31641,0.20117c-0.05029,0-0.10107-0.01074-0.14941-0.03369    l-0.68506-0.32275c-0.1748-0.08203-0.24951-0.29053-0.16699-0.46533c0.08203-0.17627,0.29053-0.25146,0.46582-0.16748    l0.68457,0.32275C25.40796,22.4151,25.48267,22.6236,25.40015,22.7984z" style="fill:#303030;"/></g></g></svg>