<?xml version="1.0" ?><svg style="enable-background:new 0 0 48 48;" version="1.1" viewBox="0 0 48 48" xml:space="preserve" xmlns="http://www.w3.org/2000/svg" xmlns:xlink="http://www.w3.org/1999/xlink"><g id="Padding__x26__Artboard"/><g id="Icons"><g><path d="M34.95508,10.1748H13.04492c-1.58252,0-2.87012,1.2876-2.87012,2.87012v21.91016    c0,1.58252,1.2876,2.87012,2.87012,2.87012h10.44824c0.19141,0,0.34717-0.15332,0.3501-0.34473l0.13184-8.58008    c0.00146-0.09326-0.03467-0.18359-0.1001-0.25049c-0.06543-0.06641-0.15479-0.10449-0.24805-0.10498l-3.20361-0.01807    l0.0835-3.45166h3.1582c0.19336,0,0.3501-0.15674,0.3501-0.3501v-3c0-0.35303,0.03857-0.74658,0.11768-1.2041    c0.06348-0.36768,0.15381-0.71436,0.26807-1.02979c0.11084-0.30713,0.24805-0.59277,0.40723-0.84912    c0.15576-0.25049,0.33691-0.48047,0.53857-0.68262c0.2002-0.2002,0.42578-0.37988,0.6709-0.53369    c0.24414-0.15332,0.51611-0.28613,0.80762-0.39502c0.46191-0.17285,0.95703-0.28711,1.47168-0.34033    c0.43359-0.04492,0.86719-0.0332,1.32764-0.02148l1.92383,0.03076l-0.08398,3.13867    c-0.32617-0.00244-0.90771-0.00488-1.87354,0.00635c-1.62646,0.01953-2.05615,1.11426-2.05615,1.68848l-0.02002,3.18945    c-0.00098,0.19189,0.15234,0.34912,0.34375,0.35254l3.54492,0.0625l-0.47314,3.38721h-3.04541    c-0.19287,0-0.34961,0.15625-0.3501,0.34912l-0.02246,8.6001c0,0.09326,0.03662,0.18213,0.10205,0.24805    c0.06592,0.06592,0.15527,0.10303,0.24805,0.10303h7.09277c1.58252,0,2.87012-1.2876,2.87012-2.87012V13.04492    C37.8252,11.4624,36.5376,10.1748,34.95508,10.1748z M12.88867,29.82471v-1.53369c0-0.19336,0.15674-0.3501,0.3501-0.3501    s0.3501,0.15674,0.3501,0.3501v1.53369c0,0.19336-0.15674,0.3501-0.3501,0.3501S12.88867,30.01807,12.88867,29.82471z     M13.23877,15.16016c0.19336,0,0.3501,0.15674,0.3501,0.3501v10.22461c0,0.19336-0.15674,0.3501-0.3501,0.3501    s-0.3501-0.15674-0.3501-0.3501V15.51025C12.88867,15.31689,13.04541,15.16016,13.23877,15.16016z" style="fill:#303030;"/></g></g></svg>