<?xml version="1.0" ?><svg style="enable-background:new 0 0 48 48;" version="1.1" viewBox="0 0 48 48" xml:space="preserve" xmlns="http://www.w3.org/2000/svg" xmlns:xlink="http://www.w3.org/1999/xlink"><g id="Padding__x26__Artboard"/><g id="Icons"><g><polygon points="25.00176,22.68286 25.00128,22.68433 25.00176,22.68335   " style="fill:#303030;"/><path d="M37.70293,16.30444l-1.38007-0.15588c-0.09052-0.34088-0.22198-0.66388-0.3938-0.96735    l0.8598-1.07697c0.25098-0.31445,0.22656-0.76709-0.05664-1.05273l-0.25195-0.25439    c-0.28564-0.28809-0.73926-0.31543-1.05615-0.06201l-1.0694,0.84875c-0.31866-0.18481-0.64716-0.3363-0.98773-0.42786    l-0.14844-1.32715c-0.04443-0.40186-0.3833-0.70508-0.7876-0.70508h-0.35254c-0.40429,0-0.74316,0.30273-0.7876,0.7041    l-0.14746,1.3042c-0.37109,0.09326-0.71875,0.23242-1.03857,0.41553l-1.01221-0.81104    c-0.31543-0.25146-0.77002-0.22705-1.05664,0.05859l-0.25488,0.25488c-0.28613,0.28613-0.31104,0.74023-0.05859,1.05566    l0.79492,0.99512c-0.2002,0.3335-0.35107,0.68945-0.45068,1.06299l-1.25293,0.14062    c-0.40137,0.04541-0.7041,0.38428-0.7041,0.78809v0.35254c0,0.40381,0.30273,0.74268,0.70459,0.78809l1.25195,0.14062    c0.1001,0.38232,0.24902,0.74072,0.44482,1.06982l-0.78955,0.99463c-0.25244,0.31689-0.22559,0.771,0.0625,1.05615    l0.25342,0.25098c0.15381,0.15283,0.35596,0.23096,0.55859,0.23096c0.17432,0,0.34961-0.05762,0.49463-0.17383l1.00146-0.7998    c0.32703,0.18646,0.68182,0.31488,1.04999,0.40851l0.14825,1.30634c0.04541,0.40088,0.38428,0.70312,0.7876,0.70312h0.35352    c0.4043,0,0.74316-0.30273,0.7876-0.7041l0.14996-1.33484c0.3512-0.09698,0.68518-0.23877,1.00012-0.42462l1.05499,0.84393    c0.146,0.1167,0.3208,0.17383,0.49561,0.17383c0.20361,0,0.40674-0.07812,0.56104-0.23242l0.24902-0.24902    c0.28516-0.28516,0.31104-0.73828,0.06006-1.05371l-0.85437-1.07617c0.17273-0.3053,0.30444-0.63068,0.39465-0.97461    l1.37329-0.15576c0.40088-0.04541,0.70361-0.38428,0.70361-0.7876v-0.35352C38.40704,16.68872,38.1043,16.34985,37.70293,16.30444    z M34.22637,17.27856c0,1.11182-0.90479,2.0166-2.0166,2.0166c-1.11523,0-2.02246-0.90479-2.02246-2.0166    c0-1.11523,0.90723-2.02246,2.02246-2.02246C33.32159,15.2561,34.22637,16.16333,34.22637,17.27856z" style="fill:#303030;"/><path d="M30.57842,33.66724c-0.04004-0.04639-0.0835-0.09033-0.12744-0.13232    c-0.70801-0.68457-1.63037-1.15234-2.52197-1.60498c-0.19385-0.09814-0.38428-0.19482-0.56885-0.29199    c-0.3833-0.20215-0.76904-0.40137-1.15479-0.6001l-0.53174-0.27441c-0.71777-0.37109-1.23633-0.63916-1.51416-1.34326    c-0.26221-0.66309-0.28076-0.74512-0.32129-1.40234l0.30029-0.37109c0.25146-0.37012,0.43018-1.3667,0.50635-1.86035    c0.34473-0.14209,0.59717-0.49756,0.7168-0.87305c0.13574-0.42676,0.26367-0.83008,0.32471-1.35205    c0.04443-0.37061,0.10596-0.87793-0.26758-1.24951c-0.07764-0.07715-0.21289-0.12939-0.35059-0.15771    c0.01611-0.30078,0.03418-0.7876,0.05518-1.58887l0.36328-0.26953c0.10205-0.07617,0.15527-0.20117,0.13867-0.32715    l-0.15332-1.15527c-0.02246-0.10986-0.58594-2.69775-3.33105-3.3374c-2.35645-0.5498-3.90332,0.4751-4.30859,0.79004    c-0.56543,0.03809-1.43555,0.34717-1.79834,1.80078c-0.26416,1.05566,0.00439,2.32861,0.01025,2.32812    c0.02295,0.90381,0.04199,1.43799,0.05957,1.75928c-0.1377,0.02832-0.27295,0.08008-0.34961,0.15723    c-0.37451,0.37207-0.31299,0.87939-0.26172,1.30615c0.0542,0.46582,0.18213,0.86914,0.34033,1.3667    c0.10205,0.32031,0.35059,0.66357,0.69434,0.80273c0.07666,0.49463,0.2583,1.49414,0.52441,1.88428l0.28223,0.34717    c-0.04053,0.65674-0.05908,0.73877-0.32129,1.40186c-0.27783,0.7041-0.79639,0.97217-1.54297,1.35791l-0.50293,0.25977    c-0.38574,0.19873-0.77148,0.39795-1.15479,0.6001c-0.18457,0.09717-0.37549,0.19385-0.56885,0.29248    c-0.89209,0.45215-1.81396,0.91992-2.52344,1.60498c-0.04346,0.04248-0.08643,0.08594-0.12646,0.13281    c-0.43994,0.51514-0.77344,1.39111-0.9917,2.60303c-0.02734,0.14941,0.0127,0.30273,0.10986,0.41943    c0.09814,0.11768,0.24268,0.18555,0.39648,0.18555h21.04541c0.1333,0,0.25732-0.05713,0.34082-0.15576    c0.06641-0.07959,0.11133-0.25391,0.09326-0.35596C31.36505,35.09839,31.02569,34.19116,30.57842,33.66724z M25.00176,22.68286    h0.00049c0,0-0.00049,0.00098-0.00098,0.00146C25.00176,22.68384,25.00176,22.68335,25.00176,22.68286z" style="fill:#303030;"/></g></g></svg>