<?xml version="1.0" ?><svg style="enable-background:new 0 0 48 48;" version="1.1" viewBox="0 0 48 48" xml:space="preserve" xmlns="http://www.w3.org/2000/svg" xmlns:xlink="http://www.w3.org/1999/xlink"><g id="Padding__x26__Artboard"/><g id="Icons"><g><path d="M15.4158,37.95337l-0.23523-0.00604v0.00806C15.25894,37.95538,15.33737,37.95538,15.4158,37.95337z" style="fill:none;"/><path d="M32.4736,35.85809c-0.49261-0.19104-0.99738-0.19305-1.50006-0.04626    c-0.45447,0.13068-0.73193,0.4444-0.81036,0.91089c-0.04022,0.24536-0.03821,0.49872-0.05231,0.70782    c0.0141,0.2735,0.00806,0.50671,0.04022,0.73596c0.07037,0.48059,0.3338,0.81238,0.80432,0.96521    c0.39618,0.12866,0.80237,0.13068,1.21051,0.05426c0.24536-0.04626,0.46857-0.14478,0.65356-0.31769    c0.23322-0.22119,0.33978-0.50476,0.35791-0.81842c0.01807-0.30963,0.01404-0.62134,0.01007-0.93298    c-0.00201-0.14282-0.01208-0.2876-0.04022-0.42633C33.0668,36.29846,32.84964,36.00488,32.4736,35.85809z M32.1619,37.46875    h-0.00598c0,0.1709,0.01001,0.33984-0.00201,0.50873c-0.0141,0.21918-0.13074,0.34589-0.34387,0.38812    c-0.13068,0.02411-0.26343,0.02209-0.39209-0.02618c-0.13678-0.05023-0.24127-0.14478-0.24731-0.28754    c-0.01611-0.36597-0.02216-0.73596-0.00604-1.10193c0.01001-0.22119,0.16083-0.34784,0.38007-0.37201    c0.13269-0.01404,0.2674-0.01202,0.39008,0.05231c0.16486,0.08246,0.22321,0.22723,0.22723,0.40015    C32.16592,37.17718,32.1619,37.32196,32.1619,37.46875z" style="fill:#303030;"/><path d="M28.96475,35.8219c-0.42834-0.14075-0.86469-0.14276-1.29901-0.04224    c-0.53491,0.12469-0.85663,0.46252-0.93103,1.00946c-0.03015,0.22516-0.008,0.45239-0.02203,0.69171    c0.01404,0.22522-0.00812,0.46649,0.02606,0.69977c0.0603,0.41425,0.27551,0.72791,0.66559,0.90283    c0.26343,0.11664,0.54291,0.1488,0.8244,0.15283c0.2373,0.00403,0.47461-0.02209,0.70184-0.0965    c0.25537-0.08246,0.47656-0.21918,0.62732-0.45447c0.13678-0.21515,0.20111-0.45044,0.20917-0.7038    c0.01404-0.40417,0.04022-0.81036-0.02014-1.21252C29.67654,36.3045,29.42319,35.97271,28.96475,35.8219z M28.7355,37.48285    c0,0.16486,0.00403,0.32977-0.00201,0.49463c-0.00604,0.21118-0.13879,0.35992-0.3479,0.38812    c-0.09851,0.01404-0.20306,0.01404-0.30157-0.00201c-0.2132-0.03418-0.34186-0.18903-0.34589-0.41022    c-0.00403-0.3197-0.00403-0.63745,0-0.95715c0.00403-0.2373,0.16888-0.40216,0.41223-0.42029    c0.12061-0.008,0.2453-0.008,0.35992,0.04828c0.13873,0.06836,0.21112,0.18097,0.22321,0.3338    c0.00201,0.01208,0.00201,0.02612,0.00201,0.03821V37.48285z" style="fill:#303030;"/><path d="M36.48923,38.86023c-0.26746-0.4444-0.53088-0.88678-0.80029-1.32916    c-0.04224-0.07037-0.04626-0.12463,0.00201-0.19702c0.29156-0.45447,0.58112-0.9129,0.86865-1.36938    c0.04224-0.06433,0.08044-0.12872,0.12067-0.19708c-0.02014-0.00598-0.02618-0.01202-0.03418-0.01202    c-0.33179,0-0.66364,0.00201-0.99536,0c-0.05432,0-0.08649,0.02008-0.11462,0.06433    c-0.16492,0.26343-0.3338,0.52484-0.49872,0.78821c-0.12268,0.19104-0.24329,0.38409-0.36597,0.57513    c-0.02008,0.03015-0.05023,0.05627-0.0744,0.08447c-0.01007-0.00403-0.02008-0.00806-0.03015-0.01208v-3.09064    C34.53873,34.169,34.52866,34.169,34.51859,34.169c-0.28754,0.05023-0.57507,0.09851-0.86462,0.14679    c-0.11664,0.01807-0.11865,0.01605-0.11865,0.1347v3.99951c0,0.20917,0,0.41827,0.00201,0.62738    c0,0.11865,0,0.12067,0.11462,0.12067h0.80835c0.10858,0,0.10858,0,0.10858-0.10858c0-0.46448-0.00201-0.93103-0.00201-1.39551    c0-0.02612,0.00806-0.05231,0.01007-0.08044c0.01001-0.00201,0.01807-0.00403,0.02612-0.00806    c0.03015,0.04224,0.06433,0.08246,0.09045,0.12671c0.27954,0.46246,0.55701,0.92493,0.83453,1.38947    c0.03418,0.05426,0.07239,0.07843,0.13873,0.07843c0.30164-0.00403,0.60529-0.00201,0.90887-0.00201    c0.03015,0,0.05835-0.00604,0.10657-0.01007C36.61185,39.06939,36.55154,38.96478,36.48923,38.86023z" style="fill:#303030;"/><path d="M25.79971,35.81182c-0.44641-0.1488-0.89484-0.12268-1.34326-0.00806    c-0.13873,0.03619-0.14478,0.03619-0.14478-0.10254c0.00201-0.47858,0.00403-0.95715,0.00806-1.43573v-0.09448    c-0.02618-0.00201-0.03418-0.00403-0.04022-0.00403c-0.30969,0.05225-0.61932,0.10455-0.927,0.15485    c-0.04828,0.00604-0.06836,0.02814-0.06635,0.07642c0.00403,0.09247,0.00403,0.18298,0.00403,0.27545v4.30316    c0,0.02411,0.00195,0.04626,0,0.07037c-0.00201,0.04425,0.01404,0.06433,0.0603,0.07037    c0.34784,0.03821,0.69171,0.09448,1.03961,0.11664c0.39008,0.02411,0.78217,0.01404,1.16223-0.10254    c0.20911-0.06433,0.39612-0.16693,0.54089-0.33984c0.18701-0.22522,0.24536-0.49469,0.25537-0.77417    c0.01208-0.32776,0.01611-0.65753,0.01007-0.9873c-0.00403-0.20709-0.01807-0.41827-0.05426-0.62134    C26.25412,36.11749,26.08322,35.90832,25.79971,35.81182z M25.31711,37.94128c-0.01007,0.28357-0.16895,0.42029-0.46655,0.44238    c-0.14471,0.01007-0.29156,0-0.43835,0.00201c-0.06836,0.00201-0.09045-0.02612-0.09045-0.09247    c0.00201-0.24738,0-0.49469,0-0.74402c0-0.24738,0.00201-0.49469,0-0.74402c0-0.06433,0.02209-0.0965,0.08246-0.12268    c0.16284-0.06635,0.32776-0.11456,0.50671-0.10858c0.24933,0.00604,0.40417,0.1488,0.4082,0.39618    C25.32315,37.29382,25.32712,37.61956,25.31711,37.94128z" style="fill:#303030;"/><path d="M19.54202,38.2771c-0.14478,0.02417-0.28156,0.04828-0.42029,0.06836    c-0.27142,0.04022-0.54492,0.06036-0.81842,0.02209c-0.20105-0.02814-0.32776-0.13867-0.33783-0.33978    c-0.01605-0.35193-0.02209-0.70581-0.008-1.05768c0.01001-0.24939,0.12665-0.35193,0.37201-0.38611    c0.23523-0.03418,0.46851-0.02008,0.70172,0.01007c0.16895,0.02209,0.33582,0.05023,0.50677,0.07642    c0.00598-0.0141,0.01001-0.01813,0.01001-0.02417c0.00201-0.24933,0.00403-0.50067,0-0.75201    c0-0.02014-0.03619-0.05432-0.0603-0.06036c-0.10254-0.02612-0.20514-0.04419-0.30768-0.0603    c-0.40015-0.06433-0.80029-0.09253-1.20044-0.01007c-0.34589,0.07239-0.63544,0.23328-0.83447,0.53491    c-0.15283,0.2312-0.21112,0.4906-0.21918,0.7641c-0.00604,0.25537-0.00604,0.51276,0,0.76813    c0.00403,0.13672,0.01807,0.27747,0.04828,0.41022c0.0824,0.37,0.28552,0.64948,0.62732,0.82239    c0.22321,0.11462,0.46454,0.15887,0.70984,0.17499c0.40015,0.02814,0.79224-0.03021,1.18237-0.11261    c0.04828-0.01007,0.0603-0.03619,0.0603-0.08246c-0.00195-0.23724-0.00195-0.47455-0.00195-0.71381    C19.55209,38.31329,19.54605,38.29724,19.54202,38.2771z" style="fill:#303030;"/><path d="M13.68448,35.76959c-0.02612-0.00397-0.04224-0.00604-0.05627-0.00604    c-0.21722,0-0.43439-0.00397-0.65155,0c-0.07239,0.00201-0.0965-0.02612-0.09448-0.0965    c0.00403-0.15082,0-0.30365,0.00403-0.45447c0.00604-0.17291,0.09448-0.26538,0.26746-0.27344    c0.15277-0.00806,0.30762-0.01007,0.46045-0.01208c0.05029,0,0.07037-0.01807,0.07037-0.06836    c-0.00201-0.24329-0.00201-0.48663,0-0.72992c0-0.04022-0.01202-0.06433-0.05829-0.06232    c-0.32776,0.01202-0.65753,0.008-0.98529,0.03821c-0.23126,0.02008-0.43237,0.12866-0.57916,0.32172    c-0.15076,0.19507-0.19501,0.42426-0.20508,0.66156c-0.00806,0.18701-0.00201,0.37604-0.00201,0.565    c0,0.10059-0.00806,0.10663-0.10657,0.10663h-0.35394c-0.05023-0.00201-0.07635,0.01202-0.07635,0.06836    c0.00201,0.24127,0.00201,0.4826,0,0.72186c0,0.05029,0.02008,0.07037,0.07037,0.07037c0.11261-0.00201,0.22516-0.00201,0.33777,0    c0.12872,0,0.12872,0,0.12872,0.12872c0,0.78418,0,1.56842-0.00201,2.35266c0,0.07635,0.02216,0.09851,0.09656,0.09851    c0.27344-0.00403,0.54492-0.00201,0.81635-0.00201c0.12067,0,0.12067,0,0.12067-0.11865    c-0.00201-0.78021-0.00201-1.56238-0.00403-2.3446c0-0.11865,0.00201-0.11865,0.11664-0.11865    c0.16888,0,0.33984-0.00201,0.50873,0.00201c0.07239,0.00201,0.0965-0.02612,0.10052-0.09448    c0.00201-0.08044,0.01611-0.16089,0.02417-0.24133C13.64828,36.11346,13.66641,35.94659,13.68448,35.76959z" style="fill:#303030;"/><path d="M22.00729,35.7857c-0.40015-0.10254-0.80237-0.09851-1.20251-0.00403    c-0.51276,0.12067-0.85254,0.52081-0.88074,1.04565c-0.01807,0.31567-0.01605,0.63342-0.01605,0.9491    c0,0.12469,0.01007,0.25134,0.03015,0.37402c0.06635,0.38403,0.24933,0.69574,0.59924,0.88879    c0.21515,0.12061,0.45044,0.17493,0.69574,0.19098c0.5047,0.03821,1.0014-0.00201,1.49603-0.10657    c0.05231-0.01001,0.07239-0.03418,0.07037-0.08844c-0.00201-0.23126,0-0.46051,0-0.69177    c0-0.02008-0.00403-0.04016-0.00604-0.05627c-0.2594,0.03015-0.51477,0.07037-0.77014,0.08246    c-0.25336,0.01404-0.50671,0.01001-0.75806-0.00806c-0.1629-0.0141-0.27747-0.11664-0.31171-0.28754    c-0.01202-0.05634-0.02008-0.11261-0.02209-0.17096c-0.00403-0.12665,0.00201-0.13068,0.13068-0.13068    c0.57916,0,1.16028-0.00201,1.73938,0c0.06433,0,0.0885-0.01611,0.0885-0.08246c-0.00806-0.28149,0.00403-0.56506-0.01611-0.84656    C22.83371,36.3045,22.54819,35.92443,22.00729,35.7857z M21.78812,37.08471c-0.12872,0.00397-0.2594,0.00195-0.39014,0.00195    c-0.13068,0-0.26141-0.00195-0.39008,0c-0.04626,0-0.07239-0.02008-0.06836-0.06433    c0.00806-0.10052,0.00604-0.20508,0.03619-0.29962c0.05426-0.16687,0.19708-0.22321,0.35992-0.23926    c0.05432-0.00403,0.1106-0.00403,0.16492,0.00403c0.31366,0.04425,0.37598,0.27747,0.35388,0.54089    C21.85245,37.05047,21.81223,37.0827,21.78812,37.08471z" style="fill:#303030;"/><path d="M16.48959,36.56793c-0.04626-0.30969-0.20312-0.54901-0.50476-0.67365    c-0.21112-0.0885-0.43634-0.12268-0.66357-0.12866c-0.38-0.00806-0.76208-0.00201-1.14417-0.00403h-0.10254    c-0.03015,0.28955-0.05829,0.56903-0.08643,0.8606h0.10052c0.31567,0,0.63141-0.00403,0.9491,0.00201    c0.08649,0.00201,0.17493,0.02014,0.2594,0.04425c0.10657,0.03015,0.1709,0.10657,0.18097,0.22119    c0.00806,0.09851,0.01007,0.19702,0.01611,0.29559c0.00397,0.05225-0.01611,0.07239-0.07043,0.07239    c-0.27948,0.00201-0.55896,0.00604-0.8385,0.01611c-0.09448,0.00195-0.19104,0.01202-0.28552,0.03217    c-0.32574,0.07037-0.55701,0.25134-0.63745,0.58716c-0.04016,0.17493-0.05023,0.34985-0.02008,0.52881    c0.04626,0.28156,0.16089,0.52081,0.41223,0.67767c0.28754,0.17896,0.6012,0.15887,0.91492,0.11261    c0.20508-0.03015,0.39813-0.10052,0.58112-0.19507c0.06635-0.03418,0.08649-0.02209,0.09851,0.05231    c0.00806,0.04425,0.01611,0.09045,0.02417,0.1347h0.86462v-0.10254c0.00006-0.62134,0.00403-1.24274-0.00195-1.86609    C16.53384,37.01226,16.52176,36.78711,16.48959,36.56793z M15.49222,38.3012c-0.00201,0.02618-0.02014,0.06439-0.04224,0.0744    c-0.15082,0.07642-0.30762,0.13879-0.4826,0.13477c-0.21918-0.00604-0.34583-0.17694-0.29156-0.39014    c0.02417-0.09045,0.08447-0.13873,0.17096-0.1488c0.11053-0.01404,0.22314-0.01605,0.3338-0.02411l0.23523,0.00604    c0.05231,0,0.07843,0.01807,0.07642,0.0744C15.49222,38.11822,15.49625,38.21075,15.49222,38.3012z" style="fill:#303030;"/><path d="M27.51675,13.23455c1.64111-0.01904,2.12256,0,2.13281-0.00049    c0.08545,0.00391,0.18408-0.02979,0.25342-0.09424c0.06836-0.06396,0.10791-0.15234,0.11084-0.24609l0.09863-3.69775    c0-0.35303,0-0.35303-2.41992-0.41846l-0.33545-0.00977c-0.27441-0.00879-0.54932-0.01709-0.82422-0.01123    c-0.58398,0.01367-1.25879,0.14893-1.90039,0.38086c-0.39941,0.14404-0.76855,0.32959-1.09766,0.55127    c-0.66455,0.4502-1.20215,1.0918-1.55371,1.85596c-0.37988,0.82568-0.58887,1.83008-0.58887,2.82861v2.56934h-3.05615    c-0.18994,0-0.34521,0.15186-0.3501,0.3418l-0.09717,4.03857c-0.00195,0.09375,0.03369,0.18457,0.09912,0.25195    s0.15527,0.10596,0.24902,0.10645l3.12061,0.01758l0.10254,8.00586c0.00244,0.19141,0.15869,0.3457,0.3501,0.3457h3.95117    c0.19189,0,0.34814-0.15479,0.3501-0.34668l0.0835-8.02246h2.91406c0.1748,0,0.32227-0.12891,0.34668-0.30176l0.55469-3.97021    c0.01367-0.09912-0.01562-0.19971-0.08057-0.27588s-0.15967-0.12061-0.25977-0.12256l-3.48877-0.06201l0.01758-2.76025    C26.19937,14.09246,26.24136,13.24969,27.51675,13.23455z" style="fill:#303030;"/></g></g></svg>