<?xml version="1.0" ?><svg style="enable-background:new 0 0 48 48;" version="1.1" viewBox="0 0 48 48" xml:space="preserve" xmlns="http://www.w3.org/2000/svg" xmlns:xlink="http://www.w3.org/1999/xlink"><g id="Padding__x26__Artboard"/><g id="Icons"><g><path d="M11.65503,18.76489h-0.7002v13.43994c0,1.43945,1.1709,2.61035,2.61035,2.61035h20.87988    c1.43359,0,2.6001-1.1709,2.6001-2.61035V18.76489h-0.7002H11.65503z M19.23511,24.49634h3.66504v-3.66992    c0-0.60645,0.49365-1.1001,1.1001-1.1001s1.1001,0.49365,1.1001,1.1001v3.66992h3.66455c0.60645,0,1.1001,0.49365,1.1001,1.1001    s-0.49365,1.1001-1.1001,1.1001h-3.66455v3.66992c0,0.60645-0.49365,1.1001-1.1001,1.1001s-1.1001-0.49365-1.1001-1.1001v-3.66992    h-3.66504c-0.60645,0-1.1001-0.49365-1.1001-1.1001S18.62866,24.49634,19.23511,24.49634z" style="fill:#303030;"/><path d="M34.44507,13.18481H13.56519c-1.43945,0-2.61035,1.1709-2.61035,2.61035v2.26953h0.7002h24.68994    h0.7002v-2.26953C37.04517,14.35571,35.87866,13.18481,34.44507,13.18481z M19.73413,16.14526h-5.2207    c-0.19336,0-0.3501-0.15674-0.3501-0.3501s0.15674-0.3501,0.3501-0.3501h5.2207c0.19336,0,0.3501,0.15674,0.3501,0.3501    S19.92749,16.14526,19.73413,16.14526z M22.4563,16.14526h-1.32666c-0.19336,0-0.3501-0.15674-0.3501-0.3501    s0.15674-0.3501,0.3501-0.3501h1.32666c0.19336,0,0.3501,0.15674,0.3501,0.3501S22.64966,16.14526,22.4563,16.14526z" style="fill:#303030;"/></g></g></svg>