<?xml version="1.0" ?><svg style="enable-background:new 0 0 48 48;" version="1.1" viewBox="0 0 48 48" xml:space="preserve" xmlns="http://www.w3.org/2000/svg" xmlns:xlink="http://www.w3.org/1999/xlink"><g id="Padding__x26__Artboard"/><g id="Icons"><g><path d="M24,8.30615C15.34668,8.30615,8.30615,15.34668,8.30615,24S15.34668,39.69385,24,39.69385    S39.69385,32.65332,39.69385,24S32.65332,8.30615,24,8.30615z M30.17236,17.30664    c-0.00244,0.09375-0.04248,0.18213-0.11084,0.24658c-0.06787,0.06445-0.15332,0.11035-0.25244,0.09424    c-0.00928,0-0.50879-0.01855-2.20068,0.00049c-0.49072,0.00537-0.85645,0.12744-1.08643,0.36377    c-0.2627,0.26953-0.26953,0.61621-0.26953,0.61963l-0.01709,2.85498l3.59375,0.06982    c0.1001,0.00195,0.19482,0.04688,0.25977,0.12305s0.09375,0.17676,0.08008,0.27588l-0.57324,4.07275    c-0.02441,0.17285-0.17236,0.30127-0.34668,0.30127h-3.00049l-0.09131,8.2583c-0.00244,0.19189-0.1582,0.34619-0.3501,0.34619    h-4.05371c-0.19141,0-0.34717-0.15381-0.3501-0.34521l-0.10986-8.24219l-3.21338-0.01709    c-0.09375-0.00049-0.18359-0.03857-0.24902-0.10596s-0.10107-0.1582-0.09912-0.25244l0.0957-4.14941    c0.00439-0.18994,0.16016-0.3418,0.3501-0.3418h3.14893v-2.65186c0.01025-0.34375,0.03564-0.67627,0.08008-1.00635    c0.10938-0.81641,0.32764-1.53857,0.64893-2.14648c0.31494-0.5957,0.75586-1.11719,1.27588-1.50879    c0.50977-0.38477,1.12354-0.67432,1.82373-0.86035c0.51758-0.13721,0.97266-0.20996,1.3916-0.22119    c0.44238-0.01221,0.88818,0,1.33252,0.0127l2.04834,0.05127c0.09326,0.00244,0.18164,0.0415,0.24561,0.10889    s0.09863,0.15723,0.09668,0.25L30.17236,17.30664z M23.98291,11.14697c0.19629-0.02051,0.35693,0.13916,0.3667,0.33252    c0.00928,0.19287-0.13916,0.35742-0.33252,0.3667c-0.51709,0.02539-1.04492,0.08545-1.56885,0.1792    c-0.021,0.00342-0.0415,0.00537-0.06201,0.00537c-0.1665,0-0.31396-0.11914-0.34424-0.28857    c-0.03369-0.19043,0.09277-0.37207,0.2832-0.40625C22.87842,11.2373,23.43604,11.17383,23.98291,11.14697z M15.72168,14.43262    c1.4165-1.3291,3.23633-2.29346,5.2627-2.78857c0.18457-0.04834,0.37695,0.06787,0.42285,0.25684    c0.0459,0.1875-0.06885,0.37695-0.25684,0.42285c-1.90918,0.4668-3.62061,1.37256-4.94922,2.61963    c-0.06787,0.06299-0.15381,0.09473-0.23975,0.09473c-0.09326,0-0.18652-0.03711-0.25537-0.11084    C15.57373,14.78662,15.58105,14.56494,15.72168,14.43262z" style="fill:#303030;"/></g></g></svg>