<?xml version="1.0" ?><svg style="enable-background:new 0 0 48 48;" version="1.1" viewBox="0 0 48 48" xml:space="preserve" xmlns="http://www.w3.org/2000/svg" xmlns:xlink="http://www.w3.org/1999/xlink"><g id="Padding__x26__Artboard"/><g id="Icons"><g><path d="M33.95386,14.77612h-19.9082c-0.76953,0-1.396,0.62646-1.396,1.39648v13.74854    c0,0.76953,0.62646,1.396,1.396,1.396h2.75928l-0.52002,1.4375c-0.04834,0.1333-0.01123,0.28223,0.09326,0.37793    c0.06592,0.06006,0.15039,0.09131,0.23584,0.09131c0.05029,0,0.10107-0.01074,0.14893-0.0332l3.79346-1.78125    c0.12891-0.06055,0.27197-0.09229,0.41455-0.09229h12.98291c0.77002,0,1.39648-0.62646,1.39648-1.396V16.17261    C35.35034,15.40259,34.72388,14.77612,33.95386,14.77612z M15.0481,25.90356c0.19336,0,0.3501,0.15674,0.3501,0.3501v0.76172    c0,0.19336-0.15674,0.3501-0.3501,0.3501s-0.3501-0.15674-0.3501-0.3501v-0.76172    C14.698,26.0603,14.85474,25.90356,15.0481,25.90356z M14.698,24.8645v-6.69434c0-0.19336,0.15674-0.3501,0.3501-0.3501    s0.3501,0.15674,0.3501,0.3501v6.69434c0,0.19336-0.15674,0.3501-0.3501,0.3501S14.698,25.05786,14.698,24.8645z" style="fill:#303030;"/></g></g></svg>