<?xml version="1.0" ?><svg style="enable-background:new 0 0 48 48;" version="1.1" viewBox="0 0 48 48" xml:space="preserve" xmlns="http://www.w3.org/2000/svg" xmlns:xlink="http://www.w3.org/1999/xlink"><g id="Padding__x26__Artboard"/><g id="Icons"><g><path d="M11.65503,30.36401h-0.7002v1.84082c0,1.43945,1.1709,2.61035,2.61035,2.61035h20.87988    c1.43359,0,2.6001-1.1709,2.6001-2.61035v-1.84082h-0.7002H11.65503z M22.90698,31.96704h1.09326    c0.19336,0,0.3501,0.15674,0.3501,0.3501s-0.15674,0.3501-0.3501,0.3501h-1.09326c-0.19336,0-0.3501-0.15674-0.3501-0.3501    S22.71362,31.96704,22.90698,31.96704z M14.96558,31.96704h6.49463c0.19336,0,0.3501,0.15674,0.3501,0.3501    s-0.15674,0.3501-0.3501,0.3501h-6.49463c-0.19336,0-0.3501-0.15674-0.3501-0.3501S14.77222,31.96704,14.96558,31.96704z" style="fill:#303030;"/><circle cx="32.03577" cy="15.89661" r="0.97388" style="fill:none;"/><circle cx="16.20007" cy="15.89661" r="0.97388" style="fill:none;"/><path d="M34.44507,13.18481H13.56519c-1.43945,0-2.61035,1.1709-2.61035,2.60986v2.27002h0.7002h24.68994    h0.7002v-2.27002C37.04517,14.35571,35.87866,13.18481,34.44507,13.18481z M16.19995,16.87036    c-0.53662,0-0.97363-0.43701-0.97363-0.97363c0-0.53711,0.43701-0.97412,0.97363-0.97412    c0.53711,0,0.97412,0.43701,0.97412,0.97412C17.17407,16.43335,16.73706,16.87036,16.19995,16.87036z M32.03589,16.87036    c-0.53711,0-0.97412-0.43701-0.97412-0.97363c0-0.53711,0.43701-0.97412,0.97412-0.97412    c0.53662,0,0.97363,0.43701,0.97363,0.97412C33.00952,16.43335,32.57251,16.87036,32.03589,16.87036z" style="fill:#303030;"/><path d="M11.65503,18.76489h-0.7002v10.89893h0.7002h24.68994h0.7002V18.76489h-0.7002H11.65503z     M28.46283,20.57812l-5.0238,7.50885c-0.08594,0.12854-0.22211,0.21448-0.375,0.23657    c-0.02625,0.00378-0.05249,0.0061-0.07837,0.0061c-0.12622,0-0.24982-0.04413-0.34833-0.12628l-2.99493-2.37482    c-0.23163-0.19165-0.26355-0.53546-0.07111-0.76746c0.19281-0.23206,0.53625-0.26398,0.76788-0.07074l2.52936,1.98761    l4.68762-7.00531c0.16736-0.25024,0.50659-0.31793,0.75647-0.15063C28.56287,19.98938,28.63019,20.32788,28.46283,20.57812z" style="fill:#303030;"/></g></g></svg>