<?xml version="1.0" ?><svg style="enable-background:new 0 0 48 48;" version="1.1" viewBox="0 0 48 48" xml:space="preserve" xmlns="http://www.w3.org/2000/svg" xmlns:xlink="http://www.w3.org/1999/xlink"><g id="Padding__x26__Artboard"/><g id="Icons"><g><path d="M24,25.66724c-0.19727,0-0.35742,0.16016-0.35742,0.35742v3.10107    c0,0.19727,0.16016,0.35742,0.35742,0.35742s0.35742-0.16016,0.35742-0.35742v-3.10107    C24.35742,25.82739,24.19727,25.66724,24,25.66724z" style="fill:#303030;"/><path d="M24,19.61499c-4.38916,0-7.95996,3.5708-7.95996,7.95996S19.61084,35.53491,24,35.53491    s7.95996-3.5708,7.95996-7.95996S28.38916,19.61499,24,19.61499z M20.98926,32.99292    c-0.06592,0.10742-0.18066,0.1665-0.29834,0.1665c-0.0625,0-0.12598-0.0166-0.18311-0.05225    c-1.99023-1.2251-3.17871-3.3501-3.17871-5.68408c0-0.19336,0.15674-0.3501,0.3501-0.3501s0.3501,0.15674,0.3501,0.3501    c0,2.08936,1.06348,3.99121,2.8457,5.08838C21.03955,32.61255,21.09082,32.82837,20.98926,32.99292z M23.29297,34.05444    c-0.01318,0-0.02588-0.00098-0.03906-0.00244c-0.3833-0.04248-0.76465-0.11914-1.13428-0.22705    c-0.18506-0.0542-0.2915-0.24902-0.2373-0.43457c0.05469-0.18457,0.24707-0.2915,0.43457-0.2373    c0.33008,0.09668,0.67139,0.16553,1.01416,0.20361c0.19238,0.021,0.33057,0.19434,0.30908,0.38623    C23.62061,33.92212,23.46875,34.05444,23.29297,34.05444z M25.05762,29.12573c0,0.58301-0.47461,1.05762-1.05762,1.05762    s-1.05762-0.47461-1.05762-1.05762v-3.10107c0-0.583,0.47461-1.05762,1.05762-1.05762s1.05762,0.47462,1.05762,1.05762V29.12573z" style="fill:#303030;"/><path d="M30.18066,21.5199v-2.86487c0-3.41309-2.77686-6.18994-6.18994-6.18994    c-3.40771,0-6.18018,2.77686-6.18018,6.18994v2.87451c0,0,1.27548-1.30906,2.4502-1.75391v-1.12061    c0-2.06201,1.67773-3.73975,3.73975-3.73975c2.05664,0,3.72998,1.67773,3.72998,3.73975v1.11633    c0,0,0.30054,0.13696,0.72754,0.39526c0.32928,0.19843,0.6449,0.4165,0.94415,0.65503    C29.66156,21.02655,29.927,21.25702,30.18066,21.5199z" style="fill:#303030;"/></g></g></svg>