<?xml version="1.0" ?><svg style="enable-background:new 0 0 48 48;" version="1.1" viewBox="0 0 48 48" xml:space="preserve" xmlns="http://www.w3.org/2000/svg" xmlns:xlink="http://www.w3.org/1999/xlink"><g id="Padding__x26__Artboard"/><g id="Icons"><g><path d="M31.92529,22.74756l-2.11786-0.23932c-0.13806-0.56036-0.35303-1.08813-0.6424-1.5777    l1.31934-1.65271c0.31543-0.39502,0.28467-0.96387-0.07129-1.32324l-0.3667-0.36963    c-0.3584-0.36084-0.92773-0.39746-1.32764-0.0791l-1.64514,1.30609c-0.51428-0.31042-1.04895-0.55225-1.60339-0.68939    l-0.22852-2.04688c-0.05615-0.50488-0.48193-0.88574-0.99023-0.88574H23.7373c-0.50781,0-0.93359,0.38037-0.98975,0.88477    l-0.22705,2.01465c-0.60547,0.14062-1.16748,0.36572-1.67676,0.67139l-1.56299-1.25195    c-0.39795-0.31836-0.96826-0.28662-1.32764,0.07275l-0.37207,0.37207c-0.35889,0.35938-0.39062,0.9292-0.07373,1.32617    l1.23047,1.54004c-0.3335,0.53223-0.57666,1.10547-0.7251,1.71045l-1.93848,0.21729    c-0.50391,0.05713-0.88428,0.48291-0.88428,0.99023v0.51416c0,0.50732,0.38037,0.93311,0.88477,0.99023l1.9375,0.21729    c0.15039,0.62012,0.39062,1.19727,0.71631,1.72021l-1.22314,1.53955c-0.31543,0.39844-0.28174,0.96875,0.0791,1.32666    l0.37012,0.36719c0.19336,0.19141,0.44727,0.28906,0.70166,0.28906c0.21924,0,0.43896-0.07227,0.62158-0.21826l1.54688-1.23584    c0.52277,0.31171,1.09503,0.52338,1.69385,0.66364l0.22852,2.0141c0.05713,0.50391,0.48291,0.88428,0.98975,0.88428h0.51514    c0.50732,0,0.93311-0.38037,0.99023-0.88525l0.2301-2.05066c0.57428-0.14661,1.1181-0.3772,1.62494-0.6897l1.6225,1.29749    c0.18311,0.14648,0.40283,0.21826,0.62207,0.21826c0.25586,0,0.51074-0.09814,0.70459-0.29199l0.36377-0.36377    c0.35742-0.35791,0.39014-0.92725,0.0752-1.32373l-1.31097-1.65137c0.29071-0.49188,0.50586-1.02307,0.64325-1.58789    l2.10815-0.23877c0.50391-0.05713,0.88428-0.48291,0.88428-0.98975V23.7373    C32.81006,23.22949,32.42969,22.80371,31.92529,22.74756z M27.03174,24.00879c0,1.71094-1.39209,3.10303-3.10303,3.10303    c-1.71533,0-3.11084-1.39209-3.11084-3.10303c0-1.71533,1.39551-3.11084,3.11084-3.11084    C25.63965,20.89795,27.03174,22.29346,27.03174,24.00879z" style="fill:#303030;"/></g></g></svg>