<?xml version="1.0" ?><svg style="enable-background:new 0 0 48 48;" version="1.1" viewBox="0 0 48 48" xml:space="preserve" xmlns="http://www.w3.org/2000/svg" xmlns:xlink="http://www.w3.org/1999/xlink"><g id="Icons"><g><g id="Icons_8_"><g><path d="M29.96966,34.42186c-2.0212,1.1603-4.4131,1.7514-6.9513,1.5489      c-5.6028-0.4469-10.246-4.8671-10.9341-10.4454c-0.966-7.8329,5.631-14.4204,13.4666-13.4379      c5.4402,0.6822,9.7987,5.13,10.3871,10.5812c0.3171,2.937-0.4307,5.6861-1.8904,7.9099      c-0.0562,0.0856-0.0813,0.1869-0.0697,0.2886l0.4722,4.1729l-4.1794-0.6741      C30.16656,34.34916,30.06106,34.36935,29.96966,34.42186z" style="fill:#F4F4F4;"/></g></g><path d="M19.06636,14.52495c0,0-6.4974,3.841-5.5641,11.3794c0,0,0.8256-6.3897,6.4974-9.8717    c0,0,1.6871-0.7457,1.1846-1.7729C20.68166,13.23265,19.06636,14.52495,19.06636,14.52495z" style="fill:#FCFCFC;"/></g></g></svg>