<?xml version="1.0" ?><svg style="enable-background:new 0 0 48 48;" version="1.1" viewBox="0 0 48 48" xml:space="preserve" xmlns="http://www.w3.org/2000/svg" xmlns:xlink="http://www.w3.org/1999/xlink"><g id="Icons"><g><linearGradient gradientTransform="matrix(1 0 0 -1 0 50)" gradientUnits="userSpaceOnUse" id="SVGID_1_" x1="24" x2="24" y1="8.68472" y2="44.71712"><stop offset="0.09694" style="stop-color:#FFD879"/><stop offset="0.15387" style="stop-color:#FCCB76"/><stop offset="0.25828" style="stop-color:#F5AA6C"/><stop offset="0.39756" style="stop-color:#E9755E"/><stop offset="0.44898" style="stop-color:#E45F58"/><stop offset="0.67857" style="stop-color:#D22A9C"/><stop offset="1" style="stop-color:#6968DF"/></linearGradient><path d="M30.3777,37.49225H17.6218c-3.9224,0-7.114-3.1916-7.114-7.1146v-12.7553    c0-3.923,3.1916-7.1146,7.114-7.1146h12.7559c3.9229,0,7.1145,3.1916,7.1145,7.1146v12.7553    C37.4922,34.30065,34.3006,37.49225,30.3777,37.49225z" style="fill:url(#SVGID_1_);"/><g><path d="M23.9999,30.91315c-3.812,0-6.9131-3.101-6.9131-6.9131c0-3.812,3.1011-6.9135,6.9131-6.9135     s6.9136,3.1015,6.9136,6.9135C30.9135,27.81215,27.8119,30.91315,23.9999,30.91315z M23.9999,18.08655     c-3.2603,0-5.9131,2.6528-5.9131,5.9135c0,3.2603,2.6528,5.9131,5.9131,5.9131c3.2607,0,5.9136-2.6528,5.9136-5.9131     C29.9135,20.73935,27.2606,18.08655,23.9999,18.08655z" style="fill:#FFFFFF;"/></g><circle cx="32.47223" cy="15.80435" r="0.92168" style="fill:#FFFFFF;"/></g></g></svg>