<?xml version="1.0" ?><svg style="enable-background:new 0 0 48 48;" version="1.1" viewBox="0 0 48 48" xml:space="preserve" xmlns="http://www.w3.org/2000/svg" xmlns:xlink="http://www.w3.org/1999/xlink"><g id="Icons"><g><g><g id="Icons_1_"><g><path d="M20.55,32.45227l0.03,0.04l3.15,4.35c0.1027,0.1346,0.4429,0.1259,0.54-0.02l3.17-4.32       l0.04-0.05h11.8c0.64,0,1.16-0.52,1.16-1.16v-19.07c0-0.64-0.52-1.16-1.16-1.16H8.72c-0.64,0-1.16,0.52-1.16,1.16v19.07       c0,0.64,0.52,1.16,1.16,1.16H20.55z" style="fill:#F4F4F4;"/></g></g><path d="M39.3734,14.33597H8.5748v-1.4561c0-0.3787,0.307-0.6857,0.6857-0.6857h29.4272     c0.3787,0,0.6857,0.307,0.6857,0.6857V14.33597z" style="fill:#FCFCFC;"/></g><g><g><circle cx="18.9941" cy="19.67037" r="3.0926" style="fill:#EF4B53;"/><path d="M24.2984,26.89247c0-1.6561-1.355-3.0111-3.0111-3.0111h-4.5864      c-1.6561,0-3.0111,1.355-3.0111,3.0111v0.3438h10.6086V26.89247z" style="fill:#EF4B53;"/></g><g><path d="M31.1373,19.25567h-0.0239l-1.3555,0.7315l-0.2036-0.8037l1.7026-0.9117h0.8999v7.7959h-1.0195      V19.25567z" style="fill:#B3B3B3;"/></g></g></g></g></svg>