<?xml version="1.0" ?><svg style="enable-background:new 0 0 48 48.00004;" version="1.1" viewBox="0 0 48 48.00004" xml:space="preserve" xmlns="http://www.w3.org/2000/svg" xmlns:xlink="http://www.w3.org/1999/xlink"><g id="Icons"><g><linearGradient gradientUnits="userSpaceOnUse" id="SVGID_1_" x1="24.0018" x2="24.0018" y1="40.06721" y2="34.41386"><stop offset="0.09694" style="stop-color:#FFD879"/><stop offset="0.15387" style="stop-color:#FCCB76"/><stop offset="0.25828" style="stop-color:#F5AA6C"/><stop offset="0.39756" style="stop-color:#E9755E"/><stop offset="0.44898" style="stop-color:#E45F58"/><stop offset="0.67857" style="stop-color:#D22A9C"/><stop offset="1" style="stop-color:#6968DF"/></linearGradient><path d="M30.6735,39.04822H17.3301c-1.081,0-1.9573-0.8763-1.9573-1.9573v-0.9204l8.463-0.9203    l8.795,0.9203v0.9204C32.6308,38.17192,31.7545,39.04822,30.6735,39.04822z" style="fill:url(#SVGID_1_);"/><polygon points="15.3728,12.75002 24.2411,11.94512 32.6308,12.75002 32.6308,36.17002 15.3728,36.17002       " style="fill:#E9F5FF;"/><circle cx="24.00183" cy="37.56395" r="0.64535" style="fill:#FFFFFF;"/><g><g><path d="M20.1592,12.75002l-4.79,4.43v1.1l6-5.53H20.1592z M23.1892,12.75002l-7.82,7.2v2.9l10.96-10.1      H23.1892z" style="fill:#E9F5FF;"/></g><g><g><g><g style="opacity:0.5;"><polygon points="21.3692,12.75002 15.3692,18.28002 15.3692,17.18002 20.1592,12.75002        " style="fill:#FFFFFF;"/><polygon points="26.3292,12.75002 15.3692,22.85002 15.3692,19.95002 23.1892,12.75002        " style="fill:#FFFFFF;"/></g></g></g></g></g><g><linearGradient gradientUnits="userSpaceOnUse" id="SVGID_2_" x1="24.0018" x2="24.0018" y1="14.25438" y2="7.65772"><stop offset="0.09694" style="stop-color:#FFD879"/><stop offset="0.15387" style="stop-color:#FCCB76"/><stop offset="0.25828" style="stop-color:#F5AA6C"/><stop offset="0.39756" style="stop-color:#E9755E"/><stop offset="0.44898" style="stop-color:#E45F58"/><stop offset="0.67857" style="stop-color:#D22A9C"/><stop offset="1" style="stop-color:#6968DF"/></linearGradient><path d="M30.1678,8.95182H17.8359c-1.3603,0-2.4631,1.1156-2.4631,2.4917v1.3157h17.258v-1.3157     C32.6308,10.06742,31.5281,8.95182,30.1678,8.95182z" style="fill:url(#SVGID_2_);"/><g><g><ellipse cx="26.88467" cy="10.82562" rx="0.36535" ry="0.3287" style="fill:#FFFFFF;"/></g><g><path d="M24.4768,11.17572h-3.7232c-0.1933,0-0.3501-0.1568-0.3501-0.3501       c0-0.1934,0.1568-0.3501,0.3501-0.3501h3.7232c0.1933,0,0.3501,0.1567,0.3501,0.3501       C24.8269,11.01892,24.6701,11.17572,24.4768,11.17572z" style="fill:#FFFFFF;"/></g></g></g><g><g><linearGradient gradientTransform="matrix(1 0 0 -1 0 50.08288)" gradientUnits="userSpaceOnUse" id="SVGID_3_" x1="24" x2="24" y1="19.38213" y2="32.11866"><stop offset="0.09694" style="stop-color:#FFD879"/><stop offset="0.15387" style="stop-color:#FCCB76"/><stop offset="0.25828" style="stop-color:#F5AA6C"/><stop offset="0.39756" style="stop-color:#E9755E"/><stop offset="0.44898" style="stop-color:#E45F58"/><stop offset="0.67857" style="stop-color:#D22A9C"/><stop offset="1" style="stop-color:#6968DF"/></linearGradient><path d="M26.5805,29.92402h-5.1613c-1.587,0-2.8784-1.2914-2.8784-2.8787v-5.161      c0-1.5873,1.2914-2.8787,2.8784-2.8787h5.1613c1.5873,0,2.8787,1.2914,2.8787,2.8787v5.161      C29.4592,28.63262,28.1678,29.92402,26.5805,29.92402z" style="fill:url(#SVGID_3_);"/></g><g><path d="M24.0001,26.87502c-1.3291,0-2.4102-1.081-2.4102-2.4101s1.0811-2.4102,2.4102-2.4102      s2.4101,1.0811,2.4101,2.4102S25.3292,26.87502,24.0001,26.87502z M24.0001,22.75492c-0.9429,0-1.71,0.7671-1.71,1.71      s0.7671,1.7099,1.71,1.7099c0.9428,0,1.7099-0.767,1.7099-1.7099S24.9429,22.75492,24.0001,22.75492z" style="fill:#FFFFFF;"/></g><circle cx="26.7213" cy="21.83234" r="0.29603" style="fill:#FFFFFF;"/><g><g><path d="M26.0484,29.14852h-4.0972c-1.4531,0-2.6352-1.1821-2.6352-2.6353v-4.0971       c0-1.4532,1.1821-2.6353,2.6352-2.6353h4.0972c1.4531,0,2.6353,1.1821,2.6353,2.6353v4.0971       C28.6837,27.96642,27.5015,29.14852,26.0484,29.14852z M21.9512,20.48102c-1.0669,0-1.935,0.8682-1.935,1.9351v4.0971       c0,1.0669,0.8681,1.9351,1.935,1.9351h4.0972c1.0669,0,1.9351-0.8682,1.9351-1.9351v-4.0971       c0-1.0669-0.8682-1.9351-1.9351-1.9351H21.9512z" style="fill:#FFFFFF;"/></g></g></g></g></g></svg>