<?xml version="1.0" ?><svg style="enable-background:new 0 0 48 48;" version="1.1" viewBox="0 0 48 48" xml:space="preserve" xmlns="http://www.w3.org/2000/svg" xmlns:xlink="http://www.w3.org/1999/xlink"><g id="Icons"><g id="Icons_11_"><g><linearGradient gradientTransform="matrix(1 0 0 -1 0 -66)" gradientUnits="userSpaceOnUse" id="SVGID_1_" x1="24" x2="24" y1="-108.14652" y2="-72.26112"><stop offset="0.09694" style="stop-color:#FFD879"/><stop offset="0.15387" style="stop-color:#FCCB76"/><stop offset="0.25828" style="stop-color:#F5AA6C"/><stop offset="0.39756" style="stop-color:#E9755E"/><stop offset="0.44898" style="stop-color:#E45F58"/><stop offset="0.67857" style="stop-color:#D22A9C"/><stop offset="1" style="stop-color:#6968DF"/></linearGradient><path d="M30.1311,35.0978H17.8689c-2.743,0-4.9667-2.2236-4.9667-4.9667V17.8689     c0-2.743,2.2237-4.9667,4.9667-4.9667h12.2622c2.743,0,4.9667,2.2237,4.9667,4.9667v12.2622     C35.0978,32.8742,32.8741,35.0978,30.1311,35.0978z" style="fill:url(#SVGID_1_);"/><path d="M27.8529,23.6505H24.35v-3.5029c0-0.1933-0.1567-0.3496-0.3501-0.3496     c-0.1934,0-0.3501,0.1563-0.3501,0.3496v3.5029h-3.5024c-0.1934,0-0.3501,0.1563-0.3501,0.3497     c0,0.1933,0.1567,0.3496,0.3501,0.3496h3.5024v3.5029c0,0.1934,0.1567,0.3496,0.3501,0.3496     c0.1934,0,0.3501-0.1562,0.3501-0.3496v-3.5029h3.5029c0.1934,0,0.3501-0.1563,0.3501-0.3496     C28.203,23.8068,28.0463,23.6505,27.8529,23.6505z" style="fill:#FFFFFF;"/></g></g></g></svg>