<?xml version="1.0" ?><svg style="enable-background:new 0 0 48 48;" version="1.1" viewBox="0 0 48 48" xml:space="preserve" xmlns="http://www.w3.org/2000/svg" xmlns:xlink="http://www.w3.org/1999/xlink"><g id="Icons"><g><g id="Icons_14_"><g><path d="M20.55,32.45227l0.03,0.04l3.15,4.35c0.1027,0.1346,0.4429,0.1259,0.54-0.02l3.17-4.32l0.04-0.05      h11.8c0.64,0,1.16-0.52,1.16-1.16v-19.07c0-0.64-0.52-1.16-1.16-1.16H8.72c-0.64,0-1.16,0.52-1.16,1.16v19.07      c0,0.64,0.52,1.16,1.16,1.16H20.55z" style="fill:#F4F4F4;"/><path d="M25.0613,22.99767l0.3355-0.332c0.6467-0.6467,0.9683-1.5044,0.9683-2.3552      c0-0.8543-0.3216-1.7085-0.9683-2.3552c-1.2935-1.2935-3.4135-1.2935-4.7105,0l-0.332,0.3354l-0.3354-0.3354      c-1.2935-1.2935-3.4135-1.2935-4.707,0c-0.6502,0.6467-0.9718,1.5009-0.9718,2.3552c0,0.8508,0.3216,1.7085,0.9718,2.3552      l0.332,0.332l4.5394,4.5394c0.0944,0.0944,0.2476,0.0944,0.342-0.0001L25.0613,22.99767" style="fill:#EF4B53;"/><g><path d="M32.6446,19.23997h-0.0239l-1.3555,0.7315l-0.2036-0.8037l1.7026-0.9116h0.8999v7.7959h-1.0195       V19.23997z" style="fill:#B3B3B3;"/></g></g></g><path d="M39.3734,14.33597H8.5748v-1.4561c0-0.3787,0.307-0.6857,0.6857-0.6857h29.4272    c0.3787,0,0.6857,0.307,0.6857,0.6857V14.33597z" style="fill:#FCFCFC;"/></g></g></svg>