<?xml version="1.0" ?><svg style="enable-background:new 0 0 48 48;" version="1.1" viewBox="0 0 48 48" xml:space="preserve" xmlns="http://www.w3.org/2000/svg" xmlns:xlink="http://www.w3.org/1999/xlink"><g id="Icons"><g><linearGradient gradientTransform="matrix(1 0 0 -1 0 50)" gradientUnits="userSpaceOnUse" id="SVGID_1_" x1="24" x2="24" y1="11.45732" y2="42.49535"><stop offset="0.09694" style="stop-color:#FFD879"/><stop offset="0.15387" style="stop-color:#FCCB76"/><stop offset="0.25828" style="stop-color:#F5AA6C"/><stop offset="0.39756" style="stop-color:#E9755E"/><stop offset="0.44898" style="stop-color:#E45F58"/><stop offset="0.67857" style="stop-color:#D22A9C"/><stop offset="1" style="stop-color:#6968DF"/></linearGradient><path d="M34.9524,37.47675H13.0477c-1.3942,0-2.5245-1.1302-2.5245-2.5244v-21.9047    c0-1.3942,1.1303-2.5244,2.5245-2.5244h21.9047c1.3942,0,2.5244,1.1302,2.5244,2.5244v21.9047    C37.4768,36.34655,36.3466,37.47675,34.9524,37.47675z" style="fill:url(#SVGID_1_);"/><g><path d="M23.9998,27.71545c-2.0488,0-3.7153-1.6665-3.7153-3.7154c0-2.0488,1.6665-3.7153,3.7153-3.7153     c2.0489,0,3.7159,1.6665,3.7159,3.7153C27.7157,26.04895,26.0487,27.71545,23.9998,27.71545z M23.9998,21.28475     c-1.497,0-2.7153,1.2183-2.7153,2.7153c0,1.4971,1.2183,2.7154,2.7153,2.7154c1.4976,0,2.7159-1.2183,2.7159-2.7154     C26.7157,22.50305,25.4974,21.28475,23.9998,21.28475z" style="fill:#FFFFFF;"/></g><circle cx="28.2478" cy="19.89085" r="0.4621" style="fill:#FFFFFF;"/><g><path d="M27.1976,31.26475h-6.3955c-2.2427,0-4.0669-1.8242-4.0669-4.0669v-6.3955     c0-2.2427,1.8242-4.0669,4.0669-4.0669h6.3955c2.2427,0,4.0669,1.8242,4.0669,4.0669v6.3955     C31.2645,29.44055,29.4403,31.26475,27.1976,31.26475z M20.8021,17.73545c-1.6909,0-3.0669,1.376-3.0669,3.0669v6.3955     c0,1.6909,1.376,3.0669,3.0669,3.0669h6.3955c1.6909,0,3.0669-1.376,3.0669-3.0669v-6.3955c0-1.6909-1.376-3.0669-3.0669-3.0669     H20.8021z" style="fill:#FFFFFF;"/></g></g></g></svg>