<?xml version="1.0" ?><svg style="enable-background:new 0 0 48 48;" version="1.1" viewBox="0 0 48 48" xml:space="preserve" xmlns="http://www.w3.org/2000/svg" xmlns:xlink="http://www.w3.org/1999/xlink"><g id="Icons"><g><g><g id="Icons_2_"><g><path d="M20.55,32.45227l0.03,0.04l3.15,4.35c0.1027,0.1346,0.4429,0.1259,0.54-0.02l3.17-4.32       l0.04-0.05h11.8c0.64,0,1.16-0.52,1.16-1.16v-19.07c0-0.64-0.52-1.16-1.16-1.16H8.72c-0.64,0-1.16,0.52-1.16,1.16v19.07       c0,0.64,0.52,1.16,1.16,1.16H20.55z" style="fill:#F4F4F4;"/></g></g><path d="M39.3734,14.33597H8.5748v-1.4561c0-0.3787,0.307-0.6857,0.6857-0.6857h29.4272     c0.3787,0,0.6857,0.307,0.6857,0.6857V14.33597z" style="fill:#FCFCFC;"/></g><path d="M22.7797,25.10477c-0.7146,0.4232-1.5489,0.6667-2.4391,0.6667    c-2.6467,0-4.7944-2.1477-4.7944-4.7944c0-2.6466,2.1477-4.7943,4.7944-4.7943s4.7943,2.1477,4.7943,4.7943    c0,0.994-0.3033,1.9162-0.8183,2.6787l0.1956,1.7285L22.7797,25.10477" style="fill:#EF4B53;"/><path d="M31.618,18.06307h-0.0239l-1.3555,0.7314l-0.2036-0.8037l1.7026-0.9116h0.8999v7.7959H31.618    V18.06307z" style="fill:#B3B3B3;"/></g></g></svg>