<?xml version="1.0" ?><svg style="enable-background:new 0 0 48 48;" version="1.1" viewBox="0 0 48 48" xml:space="preserve" xmlns="http://www.w3.org/2000/svg" xmlns:xlink="http://www.w3.org/1999/xlink"><g id="Icons"><g><linearGradient gradientTransform="matrix(1 0 0 -1 0 50)" gradientUnits="userSpaceOnUse" id="SVGID_1_" x1="24" x2="24" y1="8.7172" y2="43.88017"><stop offset="0.09694" style="stop-color:#FFD879"/><stop offset="0.15387" style="stop-color:#FCCB76"/><stop offset="0.25828" style="stop-color:#F5AA6C"/><stop offset="0.39756" style="stop-color:#E9755E"/><stop offset="0.44898" style="stop-color:#E45F58"/><stop offset="0.67857" style="stop-color:#D22A9C"/><stop offset="1" style="stop-color:#6968DF"/></linearGradient><circle cx="23.99998" cy="24.00002" r="15.34375" style="fill:url(#SVGID_1_);"/><g><path d="M24.00015,27.71545c-2.0488,0-3.7158-1.6665-3.7158-3.7154c0-2.0488,1.667-3.7153,3.7158-3.7153     s3.7153,1.6665,3.7153,3.7153C27.71545,26.04895,26.04895,27.71545,24.00015,27.71545z M24.00015,21.28475     c-1.4976,0-2.7158,1.2183-2.7158,2.7153c0,1.4971,1.2182,2.7154,2.7158,2.7154c1.4971,0,2.7153-1.2183,2.7153-2.7154     C26.71545,22.50305,25.49725,21.28475,24.00015,21.28475z" style="fill:#FFFFFF;"/></g><circle cx="28.24775" cy="19.89085" r="0.4621" style="fill:#FFFFFF;"/><g><path d="M27.19785,31.26475h-6.396c-2.2421,0-4.0664-1.8242-4.0664-4.0669v-6.3955     c0-2.2427,1.8243-4.0669,4.0664-4.0669h6.396c2.2427,0,4.0669,1.8242,4.0669,4.0669v6.3955     C31.26475,29.44055,29.44055,31.26475,27.19785,31.26475z M20.80185,17.73545c-1.6909,0-3.0664,1.376-3.0664,3.0669v6.3955     c0,1.6909,1.3755,3.0669,3.0664,3.0669h6.396c1.691,0,3.0669-1.376,3.0669-3.0669v-6.3955c0-1.6909-1.3759-3.0669-3.0669-3.0669     H20.80185z" style="fill:#FFFFFF;"/></g></g></g></svg>