<?xml version="1.0" ?><svg style="enable-background:new 0 0 48 48;" version="1.1" viewBox="0 0 48 48" xml:space="preserve" xmlns="http://www.w3.org/2000/svg" xmlns:xlink="http://www.w3.org/1999/xlink"><g id="Icons"><g id="Icons_12_"><g><linearGradient gradientTransform="matrix(1 0 0 -1 0 -65.9378)" gradientUnits="userSpaceOnUse" id="SVGID_1_" x1="24" x2="24" y1="-106.42208" y2="-70.55251"><stop offset="0.09694" style="stop-color:#FFD879"/><stop offset="0.15387" style="stop-color:#FCCB76"/><stop offset="0.25828" style="stop-color:#F5AA6C"/><stop offset="0.39756" style="stop-color:#E9755E"/><stop offset="0.44898" style="stop-color:#E45F58"/><stop offset="0.67857" style="stop-color:#D22A9C"/><stop offset="1" style="stop-color:#6968DF"/></linearGradient><path d="M24.00005,36.43425h-0.0001c-6.8672,0-12.4342-5.567-12.4342-12.4343l0,0     c0-6.8672,5.567-12.4342,12.4342-12.4342h0.0001c6.8672,0,12.4342,5.567,12.4342,12.4342l0,0     C36.43425,30.86725,30.86725,36.43425,24.00005,36.43425z" style="fill:url(#SVGID_1_);"/><path d="M27.85285,23.65045h-3.5029v-3.5029c0-0.1933-0.1567-0.3496-0.3501-0.3496     c-0.1933,0-0.3501,0.1563-0.3501,0.3496v3.5029h-3.5024c-0.1934,0-0.3501,0.1563-0.3501,0.3497     c0,0.1933,0.1567,0.3496,0.3501,0.3496h3.5024v3.5029c0,0.1934,0.1568,0.3496,0.3501,0.3496     c0.1934,0,0.3501-0.1562,0.3501-0.3496v-3.5029h3.5029c0.1934,0,0.3501-0.1563,0.3501-0.3496     C28.20295,23.80675,28.04625,23.65045,27.85285,23.65045z" style="fill:#FFFFFF;"/></g></g></g></svg>