<?xml version="1.0" ?><svg style="enable-background:new 0 0 48 48;" version="1.1" viewBox="0 0 48 48" xml:space="preserve" xmlns="http://www.w3.org/2000/svg" xmlns:xlink="http://www.w3.org/1999/xlink"><g id="Icons"><g><g id="Icons_10_"><g><path d="M30.5746,25.95475v4.2555c0,1.1793-0.9613,2.1278-2.1277,2.1278H11.2708      c-1.1664,0-2.115-0.9485-2.115-2.1278v-12.4206c0-1.1792,0.9486-2.1277,2.115-2.1277h17.1761      c1.1664,0,2.1277,0.9485,2.1277,2.1277v4.2812" style="fill:#F4F4F4;"/><linearGradient gradientTransform="matrix(1 0 0 -1 0 -66)" gradientUnits="userSpaceOnUse" id="SVGID_1_" x1="34.7094" x2="34.7094" y1="-97.1735" y2="-81.07401"><stop offset="0.09694" style="stop-color:#FFD879"/><stop offset="0.15387" style="stop-color:#FCCB76"/><stop offset="0.25828" style="stop-color:#F5AA6C"/><stop offset="0.39756" style="stop-color:#E9755E"/><stop offset="0.44898" style="stop-color:#E45F58"/><stop offset="0.67857" style="stop-color:#D22A9C"/><stop offset="1" style="stop-color:#6968DF"/></linearGradient><path d="M30.5746,26.07545v-4.0046l4.6299-3.536c0.1633-0.1166,0.2814-0.1571,0.4736-0.1571      h2.3329c0.4614,0,0.8332,0.3717,0.8332,0.8332v2.1406v5.3066v2.1278c0,0.4614-0.3718,0.8332-0.8332,0.8332h-2.3329      c-0.1922,0-0.3103-0.0348-0.4999-0.1795l-4.6036-3.4849" style="fill:url(#SVGID_1_);"/><linearGradient gradientTransform="matrix(1 0 0 -1 0 -66)" gradientUnits="userSpaceOnUse" id="SVGID_2_" x1="19.8695" x2="19.8695" y1="-95.19656" y2="-84.53861"><stop offset="0.09694" style="stop-color:#FFD879"/><stop offset="0.15387" style="stop-color:#FCCB76"/><stop offset="0.25828" style="stop-color:#F5AA6C"/><stop offset="0.39756" style="stop-color:#E9755E"/><stop offset="0.44898" style="stop-color:#E45F58"/><stop offset="0.67857" style="stop-color:#D22A9C"/><stop offset="1" style="stop-color:#6968DF"/></linearGradient><path d="M19.8695,19.78575c-2.33,0-4.21,1.89-4.21,4.21c0,2.33,1.88,4.21,4.21,4.21      c2.32,0,4.21-1.88,4.21-4.21C24.0795,21.67575,22.1895,19.78575,19.8695,19.78575z M19.8695,26.39575      c-1.33,0-2.41-1.07-2.41-2.4c0-1.32,1.08-2.4,2.41-2.4c1.32,0,2.4,1.08,2.4,2.4      C22.2695,25.32575,21.1895,26.39575,19.8695,26.39575z" style="fill:url(#SVGID_2_);"/></g></g><path d="M29.5616,18.84545H10.1688v-1.456c0-0.3787,0.307-0.6857,0.6857-0.6857h18.0214    c0.3787,0,0.6857,0.307,0.6857,0.6857V18.84545z" style="fill:#FCFCFC;"/></g></g></svg>