<?xml version="1.0" ?><svg style="enable-background:new 0 0 48 48;" version="1.1" viewBox="0 0 48 48" xml:space="preserve" xmlns="http://www.w3.org/2000/svg" xmlns:xlink="http://www.w3.org/1999/xlink"><g id="Icons"><g id="Icons_13_"><path d="M26.7848,14.35693c0.0462,0.0398,0.1051,0.0617,0.1661,0.0617l9.0141,0.005    c0.77,0,1.4,0.62,1.4,1.4v18.5554c0,0.811-0.6635,1.4746-1.4746,1.4746H12.1096c-0.811,0-1.4746-0.6636-1.4746-1.4746v-18.5554    c0-0.78,0.63-1.4,1.4-1.4h9.0664c0.0798,0,0.157-0.0284,0.2179-0.08l2.5357-2.15c0.0698-0.0646,0.3504-0.0676,0.44,0.02    L26.7848,14.35693z" style="fill:#F4F4F4;"/><circle cx="23.99763" cy="22.74355" r="3.33635" style="fill:#EF4B53;"/><path d="M29.7201,30.51373c0-1.7867-1.4618-3.2485-3.2485-3.2485h-4.948    c-1.7866,0-3.2484,1.4618-3.2484,3.2485v0.3707h11.4449V30.51373z" style="fill:#EF4B53;"/></g></g></svg>