<?xml version="1.0" ?><svg style="enable-background:new 0 0 48 48;" version="1.1" viewBox="0 0 48 48" xml:space="preserve" xmlns="http://www.w3.org/2000/svg" xmlns:xlink="http://www.w3.org/1999/xlink"><g id="Icons"><g><g id="Icons_9_"><g><path d="M38.0146,26.50965v2.0088c0,0.4345-0.3522,0.7866-0.7866,0.7866h-2.2025      c-0.1815,0-0.3272-0.0556-0.472-0.1694l-4.0567-3.071c-0.119-0.09-0.2896-0.0052-0.2896,0.144v3.6546      c0,1.1133-0.9076,2.0089-2.0089,2.0089H11.9822c-1.1013,0-1.9968-0.8956-1.9968-2.0089v-11.7265      c0-1.1133,0.8955-2.0089,1.9968-2.0089h16.2161c1.1013,0,2.0089,0.8956,2.0089,2.0089v3.7988      c0,0.0996,0.1141,0.1561,0.1933,0.0956l4.153-3.1698c0.1336-0.1075,0.2905-0.1694,0.472-0.1694h2.2025      c0.4344,0,0.7866,0.3522,0.7866,0.7866v2.021V26.50965z" style="fill:#F4F4F4;"/><linearGradient gradientTransform="matrix(1 0 0 -1 0 -66)" gradientUnits="userSpaceOnUse" id="SVGID_1_" x1="20.0963" x2="20.0963" y1="-94.54025" y2="-85.28067"><stop offset="0.09694" style="stop-color:#FFD879"/><stop offset="0.15387" style="stop-color:#FCCB76"/><stop offset="0.25828" style="stop-color:#F5AA6C"/><stop offset="0.39756" style="stop-color:#E9755E"/><stop offset="0.44898" style="stop-color:#E45F58"/><stop offset="0.67857" style="stop-color:#D22A9C"/><stop offset="1" style="stop-color:#6968DF"/></linearGradient><circle cx="20.0963" cy="23.99853" r="3.47773" style="fill:url(#SVGID_1_);"/></g></g><path d="M28.8746,19.07565H11.1093v-1.2764c0-0.3787,0.307-0.6857,0.6857-0.6857h16.3939    c0.3787,0,0.6857,0.307,0.6857,0.6857V19.07565z" style="fill:#FCFCFC;"/></g></g></svg>