<?xml version="1.0" ?><!DOCTYPE svg  PUBLIC '-//W3C//DTD SVG 1.1//EN'  'http://www.w3.org/Graphics/SVG/1.1/DTD/svg11.dtd'><svg enable-background="new 0 0 247.266 249.135" height="249.135" id="Layer_1" overflow="visible" version="1.1" viewBox="0 0 247.266 249.135" width="247.266" xml:space="preserve" xmlns="http://www.w3.org/2000/svg" xmlns:xlink="http://www.w3.org/1999/xlink"><circle cx="129.704" cy="113" fill="#FFE585" r="109"/><path d="M132.272,5.947c-1.024,0-2.049,0.018-3.066,0.046  c54.425,1.551,98.066,46.154,98.066,100.954c0,55.781-45.219,101-101,101c-55.779,0-101-45.219-101-101  c0-8.785,1.124-17.309,3.232-25.436c-3.395,10.536-5.232,21.771-5.232,33.436c0,60.199,48.803,109,109,109  c60.199,0,109-48.801,109-109C241.272,54.748,192.471,5.947,132.272,5.947z" enable-background="new    " fill="#FF9900" opacity="0.24"/><line enable-background="new    " fill="none" opacity="0.29" stroke="#6E6E96" stroke-linecap="round" stroke-linejoin="round" stroke-width="8" x1="105.57" x2="153.57" y1="245.135" y2="245.135"/><line enable-background="new    " fill="none" opacity="0.17" stroke="#6E6E96" stroke-linecap="round" stroke-linejoin="round" stroke-width="8" x1="171.436" x2="185.436" y1="245.135" y2="245.135"/><line enable-background="new    " fill="none" opacity="0.17" stroke="#6E6E96" stroke-linecap="round" stroke-linejoin="round" stroke-width="8" x1="86.436" x2="75.436" y1="245.135" y2="245.135"/><path d="M29.704,118.5c0-57.162,46.338-103.5,103.5-103.5c55.922,0,101.477,44.353,103.427,99.797  c0.044-1.261,0.073-2.525,0.073-3.797c0-60.198-48.803-109-109-109c-60.199,0-109,48.802-109,109  c0,50.11,33.816,92.317,79.876,105.06C58.447,201.814,29.704,163.518,29.704,118.5z" fill="#FFEFB5"/><g><path d="M58.559,110.208   c-1.01,35.095,11.188,65.915,40.574,74.19c29.385,8.275,66.893-8.545,84.348-39.008L58.559,110.208z" fill="#C7A17B" stroke="#6E6E96" stroke-linecap="round" stroke-linejoin="round" stroke-width="8"/></g><path d="M73.116,20.438C89.826,10.019,109.562,4,130.704,4  c60.197,0,109,48.801,109,109c0,60.198-48.803,109-109,109c-60.199,0-109-48.802-109-109c0-13.416,2.424-26.267,6.856-38.137" fill="none" stroke="#6E6E96" stroke-linecap="round" stroke-width="8"/><circle cx="108.969" cy="66.439" fill="#6E6E96" r="9"/><circle cx="172.053" cy="82.976" fill="#6E6E96" r="9"/><g><path d="M52.438,67.395c2.273-6.92,9.341-15.407,15.737-18.891l0.024-0.014   c6.428-3.473,6.428-9.143,0-12.609l-0.024-0.021C61.778,32.392,54.34,24.576,51.646,18.5c-2.691-6.086-7.098-6.086-9.794,0   c-2.685,6.084-10.13,13.896-16.557,17.36l-0.03,0.024c-6.409,3.468-6.409,9.134,0,12.61l0.03,0.012   c6.427,3.469,13.477,11.969,15.734,18.889l1.62,4.896c2.261,6.926,5.917,6.926,8.194,0L52.438,67.395z" fill="#CFD3FF" stroke="#6E6E96" stroke-width="8"/></g><path d="M62.515,144.648c0,0,61.245-27.579,93.932,28.92  c0,0,27.034-21.853,27.034-28.177L58.559,110.208C58.559,110.208,51.496,133.63,62.515,144.648z" enable-background="new    " fill="#6E6E96" opacity="0.25"/></svg>