<?xml version="1.0" ?><!DOCTYPE svg  PUBLIC '-//W3C//DTD SVG 1.1//EN'  'http://www.w3.org/Graphics/SVG/1.1/DTD/svg11.dtd'><svg enable-background="new 0 0 247.266 249.135" height="249.135" id="Layer_1" overflow="visible" version="1.1" viewBox="0 0 247.266 249.135" width="247.266" xml:space="preserve" xmlns="http://www.w3.org/2000/svg" xmlns:xlink="http://www.w3.org/1999/xlink"><circle cx="129.704" cy="113" fill="#FFE585" r="109"/><path d="M132.272,5.947c-1.025,0-2.049,0.017-3.067,0.045  c54.425,1.551,98.067,46.155,98.067,100.955c0,55.781-45.219,101-101,101c-55.78,0-101-45.219-101-101  c0-8.786,1.124-17.309,3.232-25.436c-3.394,10.536-5.232,21.771-5.232,33.436c0,60.199,48.802,109,109,109  c60.199,0,109-48.801,109-109S192.471,5.947,132.272,5.947z" enable-background="new    " fill="#FF9900" opacity="0.24"/><line enable-background="new    " fill="none" opacity="0.29" stroke="#6E6E96" stroke-linecap="round" stroke-linejoin="round" stroke-width="8" x1="105.57" x2="153.57" y1="245.135" y2="245.135"/><line enable-background="new    " fill="none" opacity="0.17" stroke="#6E6E96" stroke-linecap="round" stroke-linejoin="round" stroke-width="8" x1="171.436" x2="185.436" y1="245.135" y2="245.135"/><line enable-background="new    " fill="none" opacity="0.17" stroke="#6E6E96" stroke-linecap="round" stroke-linejoin="round" stroke-width="8" x1="86.436" x2="75.436" y1="245.135" y2="245.135"/><path d="M29.704,118.5c0-57.162,46.338-103.5,103.5-103.5c55.922,0,101.477,44.353,103.427,99.797  c0.044-1.261,0.073-2.525,0.073-3.797c0-60.198-48.802-109-109-109c-60.199,0-109,48.802-109,109  c0,50.111,33.817,92.318,79.876,105.06C58.447,201.814,29.704,163.518,29.704,118.5z" fill="#FFEFB5"/><path d="M181.364,209.545  c-11.104,5.828-23.408,9.824-36.568,11.54c-54.425,7.097-104.699-27.26-119.048-78.623" fill="none" stroke="#6E6E96" stroke-linecap="round" stroke-width="8"/><path d="M61.633,28.659  c15.223-12.491,34.015-21.012,54.98-23.745c59.693-7.782,114.394,34.3,122.176,93.994c2.26,17.329,0.316,34.237-5.04,49.699" fill="none" stroke="#6E6E96" stroke-linecap="round" stroke-width="8"/><circle cx="111.969" cy="64.439" fill="#6E6E96" r="9"/><circle cx="169.053" cy="88.976" fill="#6E6E96" r="9"/><g><path d="M105.487,148.835   c-6.25-3.108-8.799-10.695-5.69-16.946c3.108-6.251,10.695-8.799,16.946-5.69c3.125,1.553,5.324,4.228,6.354,7.293" fill="none" stroke="#6E6E96" stroke-linecap="round" stroke-linejoin="round" stroke-width="8"/><path d="M102.598,171.362   c-3.066,1.03-6.526,0.891-9.651-0.663c-6.251-3.108-8.799-10.695-5.691-16.946c3.108-6.252,10.695-8.799,16.946-5.691" fill="none" stroke="#6E6E96" stroke-linecap="round" stroke-linejoin="round" stroke-width="8"/></g><g><path d="M72.301,54.679   c-7.115-2.417-14.457-1.419-20.748,2.128c-2.268-6.21-6.859-11.509-13.245-13.678c-11.834-4.021-25.333,4.216-29.21,15.63   c-9.962,29.32,21.758,60.826,21.758,60.826l0.869-1.801l-0.247,2.015c0,0,44.503-5.612,54.464-34.931   C89.819,73.456,84.134,58.7,72.301,54.679z" fill="#FF94B3" stroke="#6E6E96" stroke-linecap="round" stroke-linejoin="round" stroke-width="8"/><path d="M44.131,54.198c0.813-0.482,1.648-0.91,2.499-1.294   c-2.506-4.086-6.206-7.359-10.862-8.905C39.612,46.293,42.481,49.987,44.131,54.198z M68.554,54.286   c-0.695-0.217-1.391-0.395-2.09-0.547c7.858,4.93,11.481,15.801,8.714,24.613c-8.224,26.181-47.537,32.067-47.537,32.067   l0.178-1.787l-0.731,1.614c0,0-15.284-14.496-20.377-32.499c3.905,21.736,23.295,40.123,23.295,40.123l0.798-1.759l-0.194,1.947   c0,0,42.833-6.415,51.791-34.939C85.887,72.016,80.067,57.902,68.554,54.286z" enable-background="new    " fill="#6E6E96" opacity="0.15"/></g><g><path d="M224.828,162.495   c-4.727-1.604-9.604-0.942-13.784,1.413c-1.506-4.125-4.558-7.646-8.8-9.086c-7.861-2.672-16.83,2.801-19.404,10.385   c-6.619,19.478,14.454,40.409,14.454,40.409l0.577-1.197l-0.164,1.339c0,0,29.564-3.728,36.182-23.206   C236.466,174.969,232.689,165.167,224.828,162.495z" fill="#FF94B3" stroke="#6E6E96" stroke-linecap="round" stroke-linejoin="round" stroke-width="8"/><path d="M206.114,162.177c0.54-0.322,1.095-0.605,1.659-0.86   c-1.664-2.715-4.123-4.89-7.215-5.916C203.112,156.925,205.017,159.378,206.114,162.177z M222.339,162.234   c-0.462-0.146-0.924-0.263-1.388-0.363c5.22,3.274,7.627,10.497,5.789,16.352c-5.464,17.393-31.582,21.304-31.582,21.304   l0.118-1.188l-0.485,1.073c0,0-10.154-9.631-13.538-21.591c2.595,14.439,15.477,26.654,15.477,26.654l0.529-1.167l-0.129,1.293   c0,0,28.456-4.263,34.406-23.212C233.854,174.012,229.988,164.636,222.339,162.234z" enable-background="new    " fill="#6E6E96" opacity="0.15"/></g></svg>