<?xml version="1.0" ?><!DOCTYPE svg  PUBLIC '-//W3C//DTD SVG 1.1//EN'  'http://www.w3.org/Graphics/SVG/1.1/DTD/svg11.dtd'><svg enable-background="new 0 0 247.266 249.135" height="249.135" id="Layer_1" overflow="visible" version="1.1" viewBox="0 0 247.266 249.135" width="247.266" xml:space="preserve" xmlns="http://www.w3.org/2000/svg" xmlns:xlink="http://www.w3.org/1999/xlink"><circle cx="129.704" cy="113" fill="#FFE585" r="109"/><path d="M132.272,5.947c-1.024,0-2.049,0.018-3.066,0.046  c54.425,1.551,98.066,46.154,98.066,100.954c0,55.781-45.219,101-101,101c-55.779,0-101-45.219-101-101  c0-8.785,1.124-17.309,3.232-25.436c-3.395,10.536-5.232,21.771-5.232,33.436c0,60.199,48.803,109,109,109  c60.199,0,109-48.801,109-109C241.272,54.748,192.471,5.947,132.272,5.947z" enable-background="new    " fill="#FF9900" opacity="0.24"/><line enable-background="new    " fill="none" opacity="0.29" stroke="#6E6E96" stroke-linecap="round" stroke-linejoin="round" stroke-width="8" x1="105.57" x2="153.57" y1="245.135" y2="245.135"/><line enable-background="new    " fill="none" opacity="0.17" stroke="#6E6E96" stroke-linecap="round" stroke-linejoin="round" stroke-width="8" x1="171.436" x2="185.436" y1="245.135" y2="245.135"/><line enable-background="new    " fill="none" opacity="0.17" stroke="#6E6E96" stroke-linecap="round" stroke-linejoin="round" stroke-width="8" x1="86.436" x2="75.436" y1="245.135" y2="245.135"/><path d="M29.704,118.5c0-57.162,46.338-103.5,103.5-103.5c55.922,0,101.477,44.353,103.427,99.797  c0.044-1.261,0.073-2.525,0.073-3.797c0-60.198-48.803-109-109-109c-60.199,0-109,48.802-109,109  c0,50.11,33.816,92.317,79.876,105.06C58.447,201.814,29.704,163.518,29.704,118.5z" fill="#FFEFB5"/><g><path d="M58.559,110.208   c-1.01,35.095,11.188,65.915,40.574,74.19c29.385,8.275,66.893-8.545,84.348-39.008L58.559,110.208z" fill="#C7A17B" stroke="#6E6E96" stroke-linecap="round" stroke-linejoin="round" stroke-width="8"/></g><g><path d="M96.732,75.895c3.504-4.896,11.175-9.841,17.08-11.008l0.023-0.004   c5.927-1.149,7.329-5.621,3.117-9.944l-0.015-0.023c-4.187-4.316-8.121-12.318-8.742-17.776c-0.618-5.465-4.093-6.554-7.724-2.421   c-3.622,4.134-11.424,8.454-17.348,9.597l-0.03,0.012c-5.912,1.15-7.313,5.619-3.118,9.944l0.021,0.017   c4.21,4.324,7.669,12.77,7.739,18.785l0.067,4.262c0.071,6.021,2.954,6.924,6.462,2.025L96.732,75.895z" fill="#FFFFFF" stroke="#6E6E96" stroke-width="8"/></g><path d="M62.515,144.648c0,0,61.245-27.579,93.932,28.92  c0,0,27.034-21.853,27.034-28.177L58.559,110.208C58.559,110.208,51.496,133.63,62.515,144.648z" enable-background="new    " fill="#6E6E96" opacity="0.25"/><g><path d="M166.764,95.425c3.504-4.896,11.176-9.841,17.08-11.007l0.023-0.005   c5.927-1.149,7.329-5.622,3.117-9.944l-0.015-0.023c-4.188-4.316-8.121-12.318-8.742-17.776c-0.618-5.465-4.094-6.554-7.724-2.421   c-3.622,4.135-11.424,8.455-17.349,9.598l-0.029,0.012c-5.913,1.15-7.313,5.619-3.118,9.944l0.021,0.017   c4.21,4.324,7.669,12.77,7.739,18.785l0.067,4.261c0.071,6.021,2.953,6.925,6.461,2.025L166.764,95.425z" fill="#FFFFFF" stroke="#6E6E96" stroke-width="8"/></g><circle cx="129.704" cy="113" fill="none" r="109" stroke="#6E6E96" stroke-width="8"/></svg>