<?xml version="1.0" ?><!DOCTYPE svg  PUBLIC '-//W3C//DTD SVG 1.1//EN'  'http://www.w3.org/Graphics/SVG/1.1/DTD/svg11.dtd'><svg enable-background="new 0 0 226 249.135" height="249.135" id="Layer_1" overflow="visible" version="1.1" viewBox="0 0 226 249.135" width="226" xml:space="preserve" xmlns="http://www.w3.org/2000/svg" xmlns:xlink="http://www.w3.org/1999/xlink"><circle cx="113" cy="113" fill="#FFE585" r="109"/><line enable-background="new    " fill="none" opacity="0.29" stroke="#6E6E96" stroke-linecap="round" stroke-linejoin="round" stroke-width="8" x1="88.866" x2="136.866" y1="245.135" y2="245.135"/><line enable-background="new    " fill="none" opacity="0.17" stroke="#6E6E96" stroke-linecap="round" stroke-linejoin="round" stroke-width="8" x1="154.732" x2="168.732" y1="245.135" y2="245.135"/><line enable-background="new    " fill="none" opacity="0.17" stroke="#6E6E96" stroke-linecap="round" stroke-linejoin="round" stroke-width="8" x1="69.732" x2="58.732" y1="245.135" y2="245.135"/><path d="M115.568,5.947c-1.026,0-2.049,0.018-3.069,0.046  c54.425,1.551,98.069,46.154,98.069,100.954c0,55.781-45.219,101-101,101c-55.781,0-101-45.219-101-101  c0-8.785,1.124-17.309,3.232-25.436c-3.393,10.536-5.232,21.771-5.232,33.436c0,60.199,48.801,109,109,109s109-48.801,109-109  C224.568,54.748,175.768,5.947,115.568,5.947z" enable-background="new    " fill="#FF9900" opacity="0.24"/><path d="M13,118.5C13,61.338,59.338,15,116.5,15c55.922,0,101.477,44.353,103.427,99.797  c0.044-1.261,0.073-2.525,0.073-3.797C220,50.802,171.199,2,111,2S2,50.802,2,111c0,50.11,33.818,92.317,79.876,105.06  C41.743,201.814,13,163.518,13,118.5z" fill="#FFEFB5"/><path d="M148.385,216.128  C137.289,219.934,125.386,222,113,222C52.801,222,4,173.199,4,113S52.801,4,113,4s109,48.801,109,109  c0,23.8-7.628,45.818-20.572,63.744" fill="none" stroke="#6E6E96" stroke-linecap="round" stroke-linejoin="round" stroke-width="8"/><path d="M50.5,111.163  c0,0,15.5,18.5,34,0" fill="none" stroke="#6E6E96" stroke-linecap="round" stroke-linejoin="round" stroke-width="8"/><path d="M134.497,111.163  c0,0,15.5,18.5,34,0" fill="none" stroke="#6E6E96" stroke-linecap="round" stroke-linejoin="round" stroke-width="8"/><path d="M137.959,184.031  c0-12.8-12.415-23.177-27.729-23.177S82.5,171.231,82.5,184.031H137.959z" fill="#C7A17B" stroke="#6E6E96" stroke-linecap="round" stroke-linejoin="round" stroke-width="8"/><path d="M154.207,169.916  c-6.272-18.189-17.835-28.524-17.835-28.524s75.094,36.754,49.11,62.736C165.141,220.052,161.583,191.303,154.207,169.916z" fill="#89E0F5" stroke="#6E6E96" stroke-linecap="round" stroke-linejoin="round" stroke-width="8"/></svg>