<?xml version="1.0" ?><!DOCTYPE svg  PUBLIC '-//W3C//DTD SVG 1.1//EN'  'http://www.w3.org/Graphics/SVG/1.1/DTD/svg11.dtd'><svg enable-background="new 0 0 226 249.134" height="249.134" id="Layer_1" overflow="visible" version="1.1" viewBox="0 0 226 249.134" width="226" xml:space="preserve" xmlns="http://www.w3.org/2000/svg" xmlns:xlink="http://www.w3.org/1999/xlink"><circle cx="113" cy="113" fill="#FFE585" r="109"/><line fill="none" opacity="0.29" stroke="#6E6E96" stroke-linecap="round" stroke-linejoin="round" stroke-width="8" x1="88.866" x2="136.866" y1="245.134" y2="245.134"/><line fill="none" opacity="0.17" stroke="#6E6E96" stroke-linecap="round" stroke-linejoin="round" stroke-width="8" x1="154.732" x2="168.732" y1="245.134" y2="245.134"/><line fill="none" opacity="0.17" stroke="#6E6E96" stroke-linecap="round" stroke-linejoin="round" stroke-width="8" x1="69.732" x2="58.732" y1="245.134" y2="245.134"/><path d="M115.568,5.947c-1.026,0-2.049,0.017-3.068,0.045c54.425,1.551,98.068,46.155,98.068,100.955  c0,55.781-45.219,101-101,101c-55.781,0-101-45.219-101-101c0-8.786,1.124-17.309,3.232-25.436  c-3.393,10.537-5.232,21.771-5.232,33.436c0,60.199,48.801,109,109,109s109-48.801,109-109S175.768,5.947,115.568,5.947z" fill="#FF9900" opacity="0.24"/><path d="M13,118.5C13,61.338,59.338,15,116.5,15c55.922,0,101.477,44.352,103.427,99.797  c0.044-1.261,0.073-2.526,0.073-3.797C220,50.801,171.199,2,111,2S2,50.801,2,111c0,50.111,33.818,92.318,79.876,105.059  C41.743,201.814,13,163.518,13,118.5z" fill="#FFEFB5"/><path d="M92.546,5.916  C99.171,4.658,106.009,4,113,4c50.216,0,92.501,33.958,105.145,80.162C220.658,93.348,222,103.017,222,113  c0,60.199-48.801,109-109,109S4,173.199,4,113c0-16.846,3.822-32.8,10.646-47.041c1.979-4.13,4.21-8.116,6.674-11.938" fill="none" stroke="#6E6E96" stroke-linecap="round" stroke-linejoin="round" stroke-width="8"/><g><path d="M41.855,110.208   c-1.01,35.094,17.136,65.915,46.521,74.191c29.385,8.276,60.946-8.545,78.401-39.008L41.855,110.208z" fill="#C7A17B" stroke="#6E6E96" stroke-linecap="round" stroke-linejoin="round" stroke-width="8"/><path d="M94.974,156.104   c-14.833-4.177-29.464-3.665-41.108,0.535c7.416,13.297,18.872,23.247,33.268,27.303c14.397,4.055,29.362,1.545,42.625-5.927   C122.02,168.354,109.808,160.281,94.974,156.104z" fill="#FF8CA4" stroke="#6E6E96" stroke-linecap="round" stroke-linejoin="round" stroke-width="8"/><path d="M42.684,125.713   l115.294,32.472c3.214-3.931,6.169-8.205,8.799-12.795L41.855,110.208C41.704,115.495,41.994,120.682,42.684,125.713z" fill="#FFFFFF" stroke="#6E6E96" stroke-linecap="round" stroke-linejoin="round" stroke-width="8"/><path d="M42.684,125.713c0,0,5.257,44.409,41.123,56.624c35.865,12.214,72.657-24.578,72.657-24.578   L42.684,125.713z M84.244,173.694c-25.564-7.578-29.053-34.227-29.053-34.227l81.141,20.023   C136.332,159.491,109.809,181.271,84.244,173.694z" fill="#6E6E96" opacity="0.15"/></g><path d="M85.563,15.673  c-5.719-1.943-11.619-1.141-16.676,1.71c-1.823-4.992-5.513-9.25-10.645-10.994c-9.511-3.231-20.36,3.389-23.477,12.563  c-8.007,23.565,17.487,48.888,17.487,48.888l0.698-1.448l-0.198,1.618c0,0,35.768-4.509,43.774-28.074  C99.643,30.763,95.073,18.904,85.563,15.673z" fill="#FF94B3" stroke="#6E6E96" stroke-linecap="round" stroke-linejoin="round" stroke-width="8"/><path d="M196.422,27.864  c-8.05-2.527-16.264-1.216-23.234,2.93c-2.708-6.912-8.001-12.739-15.225-15.008c-13.389-4.204-28.326,5.394-32.382,18.309  c-10.416,33.171,26.013,67.711,26.013,67.711l0.927-2.045l-0.226,2.265c0,0,49.81-7.458,60.228-40.629  C216.578,48.483,209.81,32.069,196.422,27.864z" fill="#FF94B3" stroke="#6E6E96" stroke-linecap="round" stroke-linejoin="round" stroke-width="8"/><path d="M140.067,162.148  c0,0,54.169,53.026,16.436,62.888C118.771,234.897,140.067,162.148,140.067,162.148z" fill="#89E0F5" stroke="#6E6E96" stroke-linecap="round" stroke-linejoin="round" stroke-width="8"/><path d="M166.937,25.846c0.944-0.562,1.916-1.059,2.905-1.504  c-2.914-4.751-7.217-8.557-12.631-10.355C161.681,16.653,165.018,20.949,166.937,25.846z M195.338,25.948  c-0.809-0.254-1.619-0.458-2.431-0.636c9.139,5.732,13.352,18.375,10.133,28.623c-9.563,30.445-55.279,37.291-55.279,37.291  l0.207-2.079l-0.851,1.877c0,0-17.773-16.857-23.696-37.791c4.542,25.274,27.089,46.658,27.089,46.658l0.927-2.045l-0.226,2.265  c0,0,49.81-7.458,60.228-40.629C215.494,46.567,208.726,30.153,195.338,25.948z" fill="#6E6E96" opacity="0.15"/><path d="M62.922,15.286c0.653-0.388,1.324-0.732,2.008-1.04c-2.014-3.284-4.988-5.914-8.73-7.157  C59.29,8.932,61.596,11.901,62.922,15.286z M82.552,15.356c-0.559-0.175-1.119-0.317-1.68-0.439  c6.316,3.962,9.228,12.699,7.003,19.782c-6.609,21.042-38.206,25.773-38.206,25.773l0.143-1.436l-0.588,1.297  c0,0-12.284-11.651-16.378-26.12c3.139,17.469,18.723,32.248,18.723,32.248l0.641-1.414l-0.156,1.565  c0,0,34.426-5.155,41.626-28.081C96.483,29.606,91.805,18.262,82.552,15.356z" fill="#6E6E96" opacity="0.15"/></svg>