<?xml version="1.0" ?><!DOCTYPE svg  PUBLIC '-//W3C//DTD SVG 1.1//EN'  'http://www.w3.org/Graphics/SVG/1.1/DTD/svg11.dtd'><svg enable-background="new 0 0 226 249.135" height="249.135" id="Layer_1" overflow="visible" version="1.1" viewBox="0 0 226 249.135" width="226" xml:space="preserve" xmlns="http://www.w3.org/2000/svg" xmlns:xlink="http://www.w3.org/1999/xlink"><circle cx="112.06" cy="109.778" fill="#FFE585" r="103.324"/><path d="M11.17,119.622c0,0,79.927,30.399,94.412-32.114  c0,0,7.9-19.906,13.903,0c6.004,19.907,31.657,45.828,83.763,40.293l4.078-26.39c0,0-61.63-48.409-99.381-38.739  S8.736,105.835,8.736,105.835L11.17,119.622z" enable-background="new    " fill="#FF9900" opacity="0.24"/><line enable-background="new    " fill="none" opacity="0.29" stroke="#6E6E96" stroke-linecap="round" stroke-linejoin="round" stroke-width="8" x1="88.866" x2="136.866" y1="245.135" y2="245.135"/><line enable-background="new    " fill="none" opacity="0.17" stroke="#6E6E96" stroke-linecap="round" stroke-linejoin="round" stroke-width="8" x1="154.732" x2="168.732" y1="245.135" y2="245.135"/><path d="M114.494,8.299c-0.973,0-1.941,0.017-2.909,0.043  c51.591,1.47,92.962,43.751,92.962,95.697c0,52.877-42.863,95.74-95.741,95.74c-52.875,0-95.74-42.863-95.74-95.74  c0-8.328,1.065-16.407,3.064-24.111c-3.216,9.987-4.959,20.637-4.959,31.694c0,57.064,46.26,103.324,103.324,103.324  c57.064,0,103.324-46.26,103.324-103.324C217.818,54.559,171.559,8.299,114.494,8.299z" enable-background="new    " fill="#FF9900" opacity="0.24"/><line enable-background="new    " fill="none" opacity="0.17" stroke="#6E6E96" stroke-linecap="round" stroke-linejoin="round" stroke-width="8" x1="69.732" x2="58.732" y1="245.135" y2="245.135"/><path d="M17.268,114.991c0-54.185,43.925-98.11,98.109-98.11c53.01,0,96.192,42.042,98.041,94.6  c0.042-1.195,0.069-2.394,0.069-3.599c0-57.063-46.259-103.324-103.323-103.324S6.84,50.819,6.84,107.882  c0,47.501,32.057,87.51,75.716,99.589C44.514,193.966,17.268,157.664,17.268,114.991z" fill="#FFEFB5"/><circle cx="112.06" cy="109.778" fill="none" r="103.324" stroke="#6E6E96" stroke-width="8"/><g><path d="M104.82,56.409c0,23.681-24.381,60.673-59.692,60.673c-27.859,0-41.196-13.312-41.196-36.992   c0-23.681,21.087-40.004,48.763-43.199C84.19,33.255,104.82,42.257,104.82,56.409z" fill="#8A919F"/><path d="M103.229,49.223c-4.067,23.314-27.077,53.64-59.049,53.64   c-23.372,0-36.517-12.216-40.147-29.214c-0.06,0.87-0.101,4.594-0.101,5.494c0,23.679,13.336,36.991,41.196,36.991   c35.312,0,59.693-36.991,59.693-60.673C104.821,53.168,104.271,51.089,103.229,49.223z" fill="#6E6E96" opacity="0.45"/><path d="M4.481,69.847c0,0,41.382,12.798,41.382-32.957C45.863,36.891,4.481,44.852,4.481,69.847z" fill="#FFFFFF" opacity="0.24"/><path d="M104.821,56.409c0,23.682-24.381,60.672-59.693,60.672   c-27.859,0-41.196-13.311-41.196-36.991c0-23.682,21.087-40.005,48.763-43.2C84.19,33.255,104.821,42.257,104.821,56.409z" fill="none" stroke="#6E6E96" stroke-width="8"/><path d="M25.816,100.349c0,0,16.868,9.222,34.052,0v-8.417c0,0-21.905,8.531-31.7-1.264   L25.816,100.349z" fill="#FFFFFF" opacity="0.24"/></g><path d="M121.475,56.409c0,23.681,24.381,60.673,59.693,60.673c27.857,0,41.195-13.312,41.195-36.992  c0-23.681-21.088-40.004-48.764-43.199C142.104,33.255,121.475,42.257,121.475,56.409z" fill="#8A919F"/><path d="M120.366,53.552c6.059,22.877,31.594,51.11,63.448,48.358  c23.283-2.011,35.329-15.313,37.483-32.561c0.135,0.862,0.496,4.568,0.574,5.464c2.038,23.591-10.104,38.002-37.859,40.4  c-35.181,3.039-62.655-31.717-64.693-55.311C119.122,57.619,119.49,55.501,120.366,53.552z" fill="#6E6E96" opacity="0.45"/><path d="M121.475,65.706c0,0,46.039,18.958,42.247-27.49  C163.722,38.216,112.404,31.581,121.475,65.706z" fill="#FFFFFF" opacity="0.24"/><path d="M121.475,56.409c0,23.682,24.381,60.672,59.693,60.672  c27.857,0,41.195-13.311,41.195-36.991c0-23.682-21.088-40.005-48.764-43.2C142.104,33.255,121.475,42.257,121.475,56.409z" fill="none" stroke="#6E6E96" stroke-width="8"/><line fill="none" stroke="#6E6E96" stroke-width="8" x1="52.695" x2="173.6" y1="36.891" y2="36.891"/><path d="M102.98,68.663c0,0,11.551-19.826,20.607,0" fill="none" stroke="#6E6E96" stroke-width="8"/><ellipse cx="110.638" cy="161.948" fill="#FFFFFF" rx="51.188" ry="18.88" stroke="#6E6E96" stroke-linecap="round" stroke-linejoin="round" stroke-width="8"/><path d="M109.927,169.843c-22.645,0-42.161-4.469-51.136-10.914c-0.026,0.248-0.051,0.497-0.051,0.747  c0,10.428,22.917,18.881,51.188,18.881c28.271,0,51.188-8.453,51.188-18.881c0-0.25-0.025-0.499-0.052-0.747  C152.088,165.374,132.571,169.843,109.927,169.843z" fill="#6E6E96" opacity="0.2"/><line fill="none" stroke="#6E6E96" stroke-linecap="round" stroke-linejoin="round" stroke-width="8" x1="139.27" x2="139.27" y1="175.013" y2="148.057"/><line fill="none" stroke="#6E6E96" stroke-linecap="round" stroke-width="8" x1="82.955" x2="82.955" y1="175.24" y2="147.69"/><path d="M164.354,98.292c0,0,16.868,9.223,34.053,0v-8.416c0,0-21.906,8.531-31.701-1.264  L164.354,98.292z" fill="#FFFFFF" opacity="0.24"/></svg>