<?xml version="1.0" ?><!DOCTYPE svg  PUBLIC '-//W3C//DTD SVG 1.1//EN'  'http://www.w3.org/Graphics/SVG/1.1/DTD/svg11.dtd'><svg enable-background="new 0 0 247.266 249.134" height="249.134" id="Layer_1" overflow="visible" version="1.1" viewBox="0 0 247.266 249.134" width="247.266" xml:space="preserve" xmlns="http://www.w3.org/2000/svg" xmlns:xlink="http://www.w3.org/1999/xlink"><circle cx="129.704" cy="113" fill="#FFE585" r="109"/><path d="M132.272,5.947c-1.026,0-2.049,0.017-3.068,0.045c54.425,1.551,98.068,46.155,98.068,100.955  c0,55.781-45.219,101-101,101c-55.781,0-101-45.219-101-101c0-8.786,1.124-17.309,3.232-25.436  c-3.393,10.537-5.232,21.771-5.232,33.436c0,60.199,48.801,109,109,109s109-48.801,109-109S192.471,5.947,132.272,5.947z" fill="#FF9900" opacity="0.24"/><line fill="none" opacity="0.29" stroke="#6E6E96" stroke-linecap="round" stroke-linejoin="round" stroke-width="8" x1="105.57" x2="153.57" y1="245.134" y2="245.134"/><line fill="none" opacity="0.17" stroke="#6E6E96" stroke-linecap="round" stroke-linejoin="round" stroke-width="8" x1="171.436" x2="185.436" y1="245.134" y2="245.134"/><line fill="none" opacity="0.17" stroke="#6E6E96" stroke-linecap="round" stroke-linejoin="round" stroke-width="8" x1="86.436" x2="75.436" y1="245.134" y2="245.134"/><path d="M29.704,118.5c0-57.162,46.338-103.5,103.5-103.5c55.922,0,101.477,44.352,103.427,99.797  c0.044-1.261,0.073-2.526,0.073-3.797c0-60.199-48.801-109-109-109s-109,48.801-109,109c0,50.111,33.818,92.318,79.876,105.059  C58.447,201.814,29.704,163.518,29.704,118.5z" fill="#FFEFB5"/><path d="M196.674,199.005  C178.196,213.415,154.953,222,129.704,222c-55.576,0-101.438-41.593-108.154-95.35" fill="none" stroke="#6E6E96" stroke-linecap="round" stroke-width="8"/><path d="M35.031,58.944C53.813,26.119,89.175,4,129.704,4  c60.199,0,109,48.801,109,109c0,6.567-0.581,12.999-1.694,19.246" fill="none" stroke="#6E6E96" stroke-linecap="round" stroke-width="8"/><g><polyline fill="none" points="83.089,45.317    98.059,63.53 75.555,73.344  " stroke="#6E6E96" stroke-linecap="round" stroke-linejoin="round" stroke-width="8"/></g><g><polyline fill="none" points="192.791,75.318    170.517,83.043 184.591,103.158  " stroke="#6E6E96" stroke-linecap="round" stroke-linejoin="round" stroke-width="8"/></g><path d="M46.259,70.184  c0,0-59.793,15.493-37.13,37.771C31.791,130.232,46.259,70.184,46.259,70.184z" fill="#89E0F5" stroke="#6E6E96" stroke-linecap="round" stroke-linejoin="round" stroke-width="8"/><path d="M213.468,130.105  c0,0,54.169,53.027,16.436,62.888C192.171,202.854,213.468,130.105,213.468,130.105z" fill="#89E0F5" stroke="#6E6E96" stroke-linecap="round" stroke-linejoin="round" stroke-width="8"/><g><path d="M58.559,110.208   c-1.01,35.094,17.136,65.915,46.521,74.191c29.385,8.276,60.946-8.545,78.401-39.008L58.559,110.208z" fill="#C7A17B" stroke="#6E6E96" stroke-linecap="round" stroke-linejoin="round" stroke-width="8"/><path d="M111.678,156.104   c-14.833-4.177-29.464-3.665-41.108,0.535c7.416,13.297,18.872,23.247,33.268,27.303c14.397,4.055,29.362,1.545,42.625-5.927   C138.723,168.354,126.511,160.281,111.678,156.104z" fill="#FF8CA4" stroke="#6E6E96" stroke-linecap="round" stroke-linejoin="round" stroke-width="8"/><path d="M59.388,125.713   l115.294,32.472c3.214-3.931,6.169-8.205,8.799-12.795L58.559,110.208C58.407,115.495,58.697,120.682,59.388,125.713z" fill="#FFFFFF" stroke="#6E6E96" stroke-linecap="round" stroke-linejoin="round" stroke-width="8"/><path d="M59.388,125.713c0,0,5.257,44.409,41.123,56.624c35.865,12.214,72.657-24.578,72.657-24.578   L59.388,125.713z M100.948,173.694c-25.564-7.578-29.053-34.227-29.053-34.227l81.141,20.023   C153.036,159.491,126.512,181.271,100.948,173.694z" fill="#6E6E96" opacity="0.15"/></g></svg>