<?xml version="1.0" ?><!DOCTYPE svg  PUBLIC '-//W3C//DTD SVG 1.1//EN'  'http://www.w3.org/Graphics/SVG/1.1/DTD/svg11.dtd'><svg enable-background="new 0 0 226 249.135" height="249.135" id="Layer_1" overflow="visible" version="1.1" viewBox="0 0 226 249.135" width="226" xml:space="preserve" xmlns="http://www.w3.org/2000/svg" xmlns:xlink="http://www.w3.org/1999/xlink"><circle cx="107.655" cy="112.343" fill="#FFE585" r="103.751"/><line enable-background="new    " fill="none" opacity="0.29" stroke="#6E6E96" stroke-linecap="round" stroke-linejoin="round" stroke-width="8" x1="88.866" x2="136.866" y1="245.135" y2="245.135"/><line enable-background="new    " fill="none" opacity="0.17" stroke="#6E6E96" stroke-linecap="round" stroke-linejoin="round" stroke-width="8" x1="154.732" x2="168.732" y1="245.135" y2="245.135"/><line enable-background="new    " fill="none" opacity="0.17" stroke="#6E6E96" stroke-linecap="round" stroke-linejoin="round" stroke-width="8" x1="69.732" x2="58.732" y1="245.135" y2="245.135"/><path d="M110.196,10.542c-0.978,0-1.951,0.016-2.921,0.043  c51.804,1.476,93.346,43.932,93.346,96.093c0,53.096-43.042,96.136-96.137,96.136s-96.137-43.04-96.137-96.136  c0-8.363,1.07-16.475,3.077-24.21c-3.229,10.029-4.98,20.722-4.98,31.826c0,57.3,46.451,103.751,103.752,103.751  c57.3,0,103.751-46.451,103.751-103.751C213.947,56.992,167.496,10.542,110.196,10.542z" enable-background="new    " fill="#8A0000" opacity="0.14"/><path d="M12.47,117.578c0-54.41,44.106-98.516,98.516-98.516c53.229,0,96.59,42.217,98.446,94.991  c0.042-1.2,0.069-2.404,0.069-3.614c0-57.299-46.45-103.751-103.751-103.751C48.451,6.688,2,53.14,2,110.439  c0,47.698,32.189,87.873,76.029,100.001C39.829,196.881,12.47,160.428,12.47,117.578z" fill="#FFFFFF" opacity="0.42"/><line fill="none" stroke="#6E6E96" stroke-linecap="round" stroke-width="8" x1="110" x2="110" y1="181.567" y2="157.567"/><circle cx="107.654" cy="112.343" fill="none" r="103.751" stroke="#6E6E96" stroke-width="8"/><ellipse cx="72.732" cy="143.894" enable-background="new    " fill="#FF0000" opacity="0.18" rx="17.372" ry="8.106"/><ellipse cx="146.38" cy="143.894" enable-background="new    " fill="#FF0000" opacity="0.18" rx="17.371" ry="8.106"/><g><line fill="none" stroke="#6E6E96" stroke-linecap="round" stroke-linejoin="round" stroke-width="8" x1="124.916" x2="159.5" y1="84.55" y2="45.067"/><circle cx="146.25" cy="99.141" fill="#FFFFFF" r="25.75" stroke="#6E6E96" stroke-linecap="round" stroke-linejoin="round" stroke-width="8"/><circle cx="140.044" cy="99.611" fill="#6E6E96" r="6.044"/><path d="M152.658,73.138c6.676,3.982,11.133,11.185,11.133,19.409   c0,12.534-10.356,22.699-23.135,22.699c-10.829,0-19.916-7.301-22.438-17.158c-0.031,0.546-0.054,1.095-0.054,1.65   c0,15.188,12.312,27.5,27.5,27.5s27.5-12.313,27.5-27.5C173.165,86.968,164.458,76.232,152.658,73.138z" enable-background="new    " fill="#6E6E96" opacity="0.15"/></g><g><line fill="none" stroke="#6E6E96" stroke-linecap="round" stroke-linejoin="round" stroke-width="8" x1="91.578" x2="56.994" y1="84.55" y2="45.067"/><circle cx="70.75" cy="99.141" fill="#FFFFFF" r="25.75" stroke="#6E6E96" stroke-linecap="round" stroke-linejoin="round" stroke-width="8"/><circle cx="77.544" cy="99.611" fill="#6E6E96" r="6.044"/><path d="M78.299,72.99c6.676,3.982,11.133,11.185,11.133,19.409   c0,12.534-10.356,22.699-23.135,22.699c-10.829,0-19.916-7.301-22.437-17.158c-0.032,0.546-0.054,1.095-0.054,1.65   c0,15.188,12.312,27.5,27.5,27.5s27.5-12.312,27.5-27.5C98.806,86.82,90.099,76.084,78.299,72.99z" enable-background="new    " fill="#6E6E96" opacity="0.15"/></g></svg>