<?xml version="1.0" ?><!DOCTYPE svg  PUBLIC '-//W3C//DTD SVG 1.1//EN'  'http://www.w3.org/Graphics/SVG/1.1/DTD/svg11.dtd'><svg enable-background="new 0 0 247.266 249.135" height="249.135" id="Layer_1" overflow="visible" version="1.1" viewBox="0 0 247.266 249.135" width="247.266" xml:space="preserve" xmlns="http://www.w3.org/2000/svg" xmlns:xlink="http://www.w3.org/1999/xlink"><circle cx="129.704" cy="113" fill="#FFE585" r="109"/><path d="M132.272,5.947c-1.025,0-2.049,0.017-3.067,0.045  c54.425,1.551,98.067,46.155,98.067,100.955c0,55.781-45.219,101-101,101c-55.78,0-101-45.219-101-101  c0-8.786,1.124-17.309,3.232-25.436c-3.394,10.536-5.232,21.771-5.232,33.436c0,60.199,48.802,109,109,109  c60.199,0,109-48.801,109-109S192.471,5.947,132.272,5.947z" enable-background="new    " fill="#FF9900" opacity="0.24"/><line enable-background="new    " fill="none" opacity="0.29" stroke="#6E6E96" stroke-linecap="round" stroke-linejoin="round" stroke-width="8" x1="105.57" x2="153.57" y1="245.135" y2="245.135"/><line enable-background="new    " fill="none" opacity="0.17" stroke="#6E6E96" stroke-linecap="round" stroke-linejoin="round" stroke-width="8" x1="171.436" x2="185.436" y1="245.135" y2="245.135"/><line enable-background="new    " fill="none" opacity="0.17" stroke="#6E6E96" stroke-linecap="round" stroke-linejoin="round" stroke-width="8" x1="86.436" x2="75.436" y1="245.135" y2="245.135"/><path d="M29.704,118.5c0-57.162,46.338-103.5,103.5-103.5c55.922,0,109.845,35.984,103.427,99.797  c0.044-1.261,0.073-2.525,0.073-3.797c0-60.198-48.802-109-109-109c-60.199,0-109,48.802-109,109  c0,50.111,33.817,92.318,79.876,105.06C58.447,201.814,29.704,163.518,29.704,118.5z" fill="#FFEFB5"/><path d="M196.674,199.005  C178.196,213.415,154.953,222,129.704,222c-55.576,0-101.438-41.593-108.154-95.35" fill="none" stroke="#6E6E96" stroke-linecap="round" stroke-width="8"/><path d="M238.115,101.591c0.39,3.75,0.59,7.556,0.59,11.409  c0,6.567-0.581,12.999-1.694,19.246" fill="none" stroke="#6E6E96" stroke-linecap="round" stroke-width="8"/><path d="M35.031,58.944C53.813,26.119,89.175,4,129.704,4  c34.832,0,65.848,16.338,85.802,41.77" fill="none" stroke="#6E6E96" stroke-linecap="round" stroke-width="8"/><path d="M46.259,70.184  c0,0-59.793,15.493-37.13,37.771C31.791,130.232,46.259,70.184,46.259,70.184z" fill="#89E0F5" stroke="#6E6E96" stroke-linecap="round" stroke-linejoin="round" stroke-width="8"/><path d="M213.468,130.105  c0,0,54.169,53.026,16.436,62.888C192.171,202.854,213.468,130.105,213.468,130.105z" fill="#89E0F5" stroke="#6E6E96" stroke-linecap="round" stroke-linejoin="round" stroke-width="8"/><path d="M155.014,172.286  c-16.289,17.543-15.829-15.817-47.115-24.67c-33.766-9.555-47.22,20.533-50.201-2.363c-2.745-21.084,29.923-40.467,61.237-31.769  C152.658,122.852,169.481,156.705,155.014,172.286z" fill="#C7A17B" stroke="#6E6E96" stroke-linecap="round" stroke-linejoin="round" stroke-width="8"/><path d="M179.941,87.443  c0,0-8.497-21.223-28.563-7.206" fill="none" stroke="#6E6E96" stroke-linecap="round" stroke-linejoin="round" stroke-width="8"/><path d="M114.822,66.9  c0,0-8.496-21.223-28.563-7.206" fill="none" stroke="#6E6E96" stroke-linecap="round" stroke-linejoin="round" stroke-width="8"/><path d="M85.633,129.567  c0,0,30-16.5,57,16.5l9.717-9.717c-7.074-9.928-18.615-18.755-33.414-22.866c-13.679-3.799-27.614-2.24-38.745,2.478L85.633,129.567  z" fill="#FFFFFF" stroke="#6E6E96" stroke-linecap="round" stroke-linejoin="round" stroke-width="8"/><path d="M200.402,61.948  c0,0,22.035,39.441,33.602,19.28C245.571,61.068,200.402,61.948,200.402,61.948z" fill="#89E0F5" stroke="#6E6E96" stroke-linecap="round" stroke-linejoin="round" stroke-width="8"/></svg>