<?xml version="1.0" ?><!DOCTYPE svg  PUBLIC '-//W3C//DTD SVG 1.1//EN'  'http://www.w3.org/Graphics/SVG/1.1/DTD/svg11.dtd'><svg enable-background="new 0 0 226 249.135" height="249.135" id="Layer_1" overflow="visible" version="1.1" viewBox="0 0 226 249.135" width="226" xml:space="preserve" xmlns="http://www.w3.org/2000/svg" xmlns:xlink="http://www.w3.org/1999/xlink"><circle cx="113" cy="113" fill="#FFE585" r="109"/><line enable-background="new    " fill="none" opacity="0.29" stroke="#6E6E96" stroke-linecap="round" stroke-linejoin="round" stroke-width="8" x1="88.866" x2="136.866" y1="245.135" y2="245.135"/><line enable-background="new    " fill="none" opacity="0.17" stroke="#6E6E96" stroke-linecap="round" stroke-linejoin="round" stroke-width="8" x1="154.732" x2="168.732" y1="245.135" y2="245.135"/><line enable-background="new    " fill="none" opacity="0.17" stroke="#6E6E96" stroke-linecap="round" stroke-linejoin="round" stroke-width="8" x1="69.732" x2="58.732" y1="245.135" y2="245.135"/><path d="M113.568,3.947c-1.026,0-2.049,0.017-3.068,0.045  c54.425,1.551,98.068,46.155,98.068,100.955c0,55.781-45.219,101-101,101c-55.781,0-101-45.219-101-101  c0-8.786,1.124-17.309,3.232-25.436c-3.393,10.536-5.232,21.771-5.232,33.436c0,60.199,48.801,109,109,109s109-48.801,109-109  S173.768,3.947,113.568,3.947z" enable-background="new    " fill="#FF9900" opacity="0.24"/><path d="M13,118.5C13,61.338,59.338,15,116.5,15c55.922,0,101.477,44.353,103.427,99.797  c0.044-1.261,0.073-2.525,0.073-3.797C220,50.802,171.199,2,111,2S2,50.802,2,111c0,50.111,33.818,92.318,79.876,105.06  C41.743,201.814,13,163.518,13,118.5z" fill="#FFEFB5"/><path d="M218.145,84.162C220.658,93.348,222,103.017,222,113  c0,60.199-48.801,109-109,109S4,173.199,4,113c0-16.846,3.822-32.8,10.646-47.041C32.206,29.31,69.647,4,113,4  C163.216,4,205.501,37.958,218.145,84.162z" fill="none" stroke="#6E6E96" stroke-width="8"/><g><line fill="none" stroke="#6E6E96" stroke-linecap="round" stroke-linejoin="round" stroke-width="8" x1="112.688" x2="70.323" y1="151.781" y2="140.253"/><path d="M48.13,152.95   c38.807-8.176,9.494-34.89,9.494-34.89" fill="none" stroke="#6E6E96" stroke-linecap="round" stroke-linejoin="round" stroke-width="8"/><path d="M133.259,138.642   c0,0-38.808,8.177-9.493,34.89" fill="none" stroke="#6E6E96" stroke-linecap="round" stroke-linejoin="round" stroke-width="8"/></g><circle cx="72.147" cy="67.135" fill="#6E6E96" r="9"/><circle cx="148.738" cy="85.153" fill="#6E6E96" r="9"/><ellipse cx="139.5" cy="160.817" fill="#FFFFFF" opacity="0.53" rx="9.5" ry="10.75" transform="matrix(0.9139 0.406 -0.406 0.9139 77.3161 -42.7892)"/><ellipse cx="46" cy="132.817" fill="#FFFFFF" opacity="0.53" rx="9.5" ry="10.75" transform="matrix(0.9139 0.406 -0.406 0.9139 57.8922 -7.2363)"/></svg>