<?xml version="1.0" ?><!DOCTYPE svg  PUBLIC '-//W3C//DTD SVG 1.1//EN'  'http://www.w3.org/Graphics/SVG/1.1/DTD/svg11.dtd'><svg enable-background="new 0 0 226 249.135" height="249.135" id="Layer_1" overflow="visible" version="1.1" viewBox="0 0 226 249.135" width="226" xml:space="preserve" xmlns="http://www.w3.org/2000/svg" xmlns:xlink="http://www.w3.org/1999/xlink"><circle cx="113" cy="113" fill="#FFE585" r="109"/><line enable-background="new    " fill="none" opacity="0.29" stroke="#6E6E96" stroke-linecap="round" stroke-linejoin="round" stroke-width="8" x1="88.866" x2="136.866" y1="245.135" y2="245.135"/><line enable-background="new    " fill="none" opacity="0.17" stroke="#6E6E96" stroke-linecap="round" stroke-linejoin="round" stroke-width="8" x1="154.732" x2="168.732" y1="245.135" y2="245.135"/><line enable-background="new    " fill="none" opacity="0.17" stroke="#6E6E96" stroke-linecap="round" stroke-linejoin="round" stroke-width="8" x1="69.732" x2="58.732" y1="245.135" y2="245.135"/><circle cx="68.732" cy="77" fill="#6E6E96" r="9"/><path d="M115.568,5.947c-1.026,0-2.049,0.018-3.069,0.046  c54.425,1.551,98.069,46.154,98.069,100.954c0,55.781-45.219,101-101,101c-55.781,0-101-45.219-101-101  c0-8.785,1.124-17.309,3.232-25.436c-3.393,10.536-5.232,21.771-5.232,33.436c0,60.199,48.801,109,109,109s109-48.801,109-109  C224.568,54.748,175.768,5.947,115.568,5.947z" enable-background="new    " fill="#FF9900" opacity="0.24"/><circle cx="156.398" cy="77" fill="#6E6E96" r="9"/><ellipse cx="67.732" cy="114.894" enable-background="new    " fill="#FF0000" opacity="0.18" rx="17.372" ry="8.106"/><ellipse cx="154.88" cy="114.894" enable-background="new    " fill="#FF0000" opacity="0.18" rx="17.371" ry="8.106"/><path d="M62,156.068c0,0-13.5,6.5,6.5,16.5s61.741,18.386,62.312,33.134  l15.654-4.709c0,0-16.927-21.38-38.446-23.652S67,166.568,62,156.068z" enable-background="new    " fill="#FF9900" opacity="0.24"/><path d="M13,118.5C13,61.338,59.338,15,116.5,15c55.922,0,101.477,44.353,103.427,99.797  c0.044-1.261,0.073-2.525,0.073-3.797C220,50.802,171.199,2,111,2S2,50.802,2,111c0,50.11,33.818,92.317,79.876,105.06  C41.743,201.814,13,163.518,13,118.5z" fill="#FFEFB5"/><path d="M133.42,220.09c-6.614,1.254-13.44,1.91-20.42,1.91  C52.801,222,4,173.199,4,113S52.801,4,113,4s109,48.801,109,109c0,29.224-11.5,55.761-30.222,75.332" fill="none" stroke="#6E6E96" stroke-linecap="round" stroke-width="8"/><path d="M162.88,157.701  c-9.648,11.903-27.683,19.913-48.337,19.913c-21.076,0-39.423-8.339-48.917-20.646" fill="none" stroke="#6E6E96" stroke-linecap="round" stroke-linejoin="round" stroke-width="8"/><path d="M114.543,177.615c0,0,33.729,6.396,39.384,39.384c0,0,4.573,9.139,16.573,2.069s7-47.59-16.232-53.313  C154.268,165.755,148.586,177.615,114.543,177.615z" fill="#FF8CA4"/><path d="M145.5,183.068c0,0,14.5,8.545,14.5,23.5s15.069,0.465,15.069-16.768  c0,0,4.212,31.723-10.679,31.723s-12.023-33.363-49.848-43.908c-37.825-10.545,0-2.047,0-2.047s34.992-0.625,39.725-9.813  C154.268,165.755,157.089,180.024,145.5,183.068z" fill="#6E6E96" opacity="0.15"/><path d="M114.543,177.615  c0,0,33.729,6.396,39.384,39.384c0,0,4.573,9.139,16.573,2.069s7-47.59-16.232-53.313  C154.268,165.755,148.586,177.615,114.543,177.615z" fill="none" stroke="#6E6E96" stroke-linecap="round" stroke-linejoin="round" stroke-width="8"/></svg>