<?xml version="1.0" ?><!DOCTYPE svg  PUBLIC '-//W3C//DTD SVG 1.1//EN'  'http://www.w3.org/Graphics/SVG/1.1/DTD/svg11.dtd'><svg enable-background="new 0 0 226 249.135" height="249.135" id="Layer_1" overflow="visible" version="1.1" viewBox="0 0 226 249.135" width="226" xml:space="preserve" xmlns="http://www.w3.org/2000/svg" xmlns:xlink="http://www.w3.org/1999/xlink"><circle cx="107.655" cy="112.343" fill="#FF9191" r="103.751"/><path d="M97.578,102.55c0,0-27.078,22.517-29.578,35.517  c0,0,43-23,80.5,0c0,0-11.918-25.784-28.584-35.517C119.916,102.55,106.376,93.753,97.578,102.55z" enable-background="new    " fill="#8A0000" opacity="0.14"/><line enable-background="new    " fill="none" opacity="0.29" stroke="#6E6E96" stroke-linecap="round" stroke-linejoin="round" stroke-width="8" x1="88.866" x2="136.866" y1="245.135" y2="245.135"/><line enable-background="new    " fill="none" opacity="0.17" stroke="#6E6E96" stroke-linecap="round" stroke-linejoin="round" stroke-width="8" x1="154.732" x2="168.732" y1="245.135" y2="245.135"/><line enable-background="new    " fill="none" opacity="0.17" stroke="#6E6E96" stroke-linecap="round" stroke-linejoin="round" stroke-width="8" x1="69.732" x2="58.732" y1="245.135" y2="245.135"/><path d="M108.196,8.542c-0.978,0-1.951,0.016-2.921,0.043  c51.804,1.476,93.346,43.932,93.346,96.093c0,53.096-43.042,96.136-96.137,96.136s-96.137-43.04-96.137-96.136  c0-8.363,1.07-16.475,3.077-24.21c-3.229,10.029-4.98,20.722-4.98,31.826c0,57.3,46.451,103.751,103.752,103.751  c57.3,0,103.751-46.451,103.751-103.751C211.947,54.992,165.496,8.542,108.196,8.542z" enable-background="new    " fill="#8A0000" opacity="0.14"/><path d="M12.47,117.578c0-54.41,44.106-98.516,98.516-98.516c53.229,0,96.59,42.217,98.446,94.991  c0.042-1.2,0.069-2.404,0.069-3.614c0-57.299-46.45-103.751-103.751-103.751C48.451,6.688,2,53.14,2,110.439  c0,47.698,32.189,87.873,76.029,100.001C39.829,196.881,12.47,160.428,12.47,117.578z" fill="#FFABAB"/><path d="M203.528,70.323  c9.12,20.54,11.661,44.179,5.683,67.648c-14.145,55.527-70.624,89.073-126.151,74.929c-15.539-3.958-29.356-11.231-40.889-20.872  C12.493,167.219-2.056,126.737,8.13,86.749C19.929,40.43,61.187,9.405,106.776,8.599c9.064-0.16,18.298,0.874,27.506,3.22  c6.94,1.768,13.538,4.197,19.741,7.204" fill="none" stroke="#6E6E96" stroke-linecap="round" stroke-width="8"/><g><path d="M76.529,168.385   c0-12.879,14.84-23.318,33.147-23.318c18.308,0,33.147,10.439,33.147,23.318c0,12.878-14.84,1.17-33.147,1.17   C91.37,169.554,76.529,181.263,76.529,168.385z" fill="#FFFFFF" stroke="#6E6E96" stroke-linecap="round" stroke-width="8"/><path d="M109.324,172.909c18.307,0,33.147,11.707,33.147-1.171   c0-12.879-14.84-23.318-33.147-23.318s-33.147,10.439-33.147,23.318C76.177,184.616,91.017,172.909,109.324,172.909z    M109.538,158.063c15.89,0,28.771,5.319,28.771,11.882c0,6.563-12.881-1.364-28.771-1.364c-15.89,0-28.771,7.928-28.771,1.364   C80.766,163.383,93.648,158.063,109.538,158.063z" enable-background="new    " fill="#6E6E96" opacity="0.15"/></g><g><line fill="none" stroke="#6E6E96" stroke-linecap="round" stroke-linejoin="round" stroke-width="8" x1="119.916" x2="154.5" y1="102.55" y2="45.067"/><path d="M119.916,102.55   l50.122-32.759C170.038,69.791,161.972,138.214,119.916,102.55z" fill="#FFFFFF" stroke="#6E6E96" stroke-linecap="round" stroke-linejoin="round" stroke-width="8"/></g><g><line fill="none" stroke="#6E6E96" stroke-linecap="round" stroke-linejoin="round" stroke-width="8" x1="97.578" x2="62.994" y1="102.55" y2="45.067"/><path d="M97.578,102.55   L47.456,69.791C47.456,69.791,55.522,138.214,97.578,102.55z" fill="#FFFFFF" stroke="#6E6E96" stroke-linecap="round" stroke-linejoin="round" stroke-width="8"/></g><g><g><path d="M215.51,35.567c0-4.125-3.827-7.5-8.505-7.5s-8.505-4.05-8.505-9s-3.598-9-7.995-9s-7.995,4.05-7.995,9    s-3.827,9-8.505,9s-8.505,3.375-8.505,7.5s3.827,7.5,8.505,7.5s8.505,4.05,8.505,9s3.598,9,7.995,9s7.995-4.05,7.995-9    s3.827-9,8.505-9S215.51,39.692,215.51,35.567z" fill="#FFE2A8"/></g><g><path d="M165.5,28.067c0,0,3.827,0,8.505,0s8.505-4.05,8.505-9s0-9,0-9" fill="none" stroke="#6E6E96" stroke-width="8"/></g><g><path d="M165.5,43.067c0,0,3.827,0,8.505,0s8.505,4.05,8.505,9s0,9,0,9" fill="none" stroke="#6E6E96" stroke-width="8"/></g><g><path d="M215.51,28.067c0,0-3.827,0-8.505,0s-8.505-4.05-8.505-9s0-9,0-9" fill="none" stroke="#6E6E96" stroke-width="8"/></g><g><path d="M215.51,43.067c0,0-3.827,0-8.505,0s-8.505,4.05-8.505,9s0,9,0,9" fill="none" stroke="#6E6E96" stroke-width="8"/></g></g></svg>