<?xml version="1.0" ?><!DOCTYPE svg  PUBLIC '-//W3C//DTD SVG 1.1//EN'  'http://www.w3.org/Graphics/SVG/1.1/DTD/svg11.dtd'><svg enable-background="new 0 0 235.33 249.135" height="249.135" id="Layer_1" overflow="visible" version="1.1" viewBox="0 0 235.33 249.135" width="235.33" xml:space="preserve" xmlns="http://www.w3.org/2000/svg" xmlns:xlink="http://www.w3.org/1999/xlink"><circle cx="122.33" cy="113" fill="#FFE585" r="109"/><line enable-background="new    " fill="none" opacity="0.29" stroke="#6E6E96" stroke-linecap="round" stroke-linejoin="round" stroke-width="8" x1="98.196" x2="146.196" y1="245.135" y2="245.135"/><line enable-background="new    " fill="none" opacity="0.17" stroke="#6E6E96" stroke-linecap="round" stroke-linejoin="round" stroke-width="8" x1="164.063" x2="178.063" y1="245.135" y2="245.135"/><line enable-background="new    " fill="none" opacity="0.17" stroke="#6E6E96" stroke-linecap="round" stroke-linejoin="round" stroke-width="8" x1="79.062" x2="68.062" y1="245.135" y2="245.135"/><path d="M119.971,3.947c-1.026,0-2.049,0.017-3.069,0.045  c54.425,1.551,98.069,46.155,98.069,100.955c0,55.781-45.219,101-101,101s-101-45.219-101-101c0-8.786,1.124-17.309,3.232-25.436  c-3.393,10.536-5.232,21.771-5.232,33.436c0,60.199,48.801,109,109,109s109-48.801,109-109S180.17,3.947,119.971,3.947z" enable-background="new    " fill="#FF9900" opacity="0.24"/><path d="M22.33,118.5C22.33,61.338,68.668,15,125.83,15c55.922,0,101.477,44.353,103.427,99.797  c0.044-1.261,0.073-2.525,0.073-3.797c0-60.198-48.801-109-109-109s-109,48.802-109,109c0,50.111,33.818,92.318,79.876,105.06  C51.073,201.814,22.33,163.519,22.33,118.5z" fill="#FFEFB5"/><circle cx="122.33" cy="113" fill="none" r="109" stroke="#6E6E96" stroke-width="8"/><path d="M113.469,179.431  c4.245,27.444-7.498,39.501-23.891,42.037c-16.393,2.535-31.229-5.411-35.474-32.855c-4.244-27.443-2.247-64.63,20.103-66.53  C96.261,120.207,109.224,151.987,113.469,179.431z" fill="#C7A17B" stroke="#6E6E96" stroke-linecap="round" stroke-linejoin="round" stroke-width="8"/><path d="M65.233,214.418c6.6,6.622,15.23,8.46,24.345,7.05c16.393-2.536,28.135-14.593,23.891-42.037  c-0.572-3.695-1.307-7.469-2.196-11.229C87.356,171.511,68.455,190.473,65.233,214.418z" fill="#FF8CA4"/><path d="M76.373,211.858c0,0,6.479-27.752,31.218-38.271c0,0-29.635,0.682-39.698,40.831  C67.893,214.418,72.054,223.247,76.373,211.858z" fill="#FFABBC"/><circle cx="120.33" cy="83.567" fill="#FFFFFF" r="31.5" stroke="#6E6E96" stroke-linecap="round" stroke-linejoin="round" stroke-width="8"/><circle cx="32.5" cy="82.567" fill="#FFFFFF" r="28.5" stroke="#6E6E96" stroke-linecap="round" stroke-linejoin="round" stroke-width="8"/><circle cx="22.665" cy="83.902" fill="#6E6E96" r="6.835"/><circle cx="107.273" cy="83.902" fill="#6E6E96" r="6.835"/><line fill="none" stroke="#6E6E96" stroke-linecap="round" stroke-linejoin="round" stroke-width="8" x1="91.83" x2="113.706" y1="39.067" y2="17.192"/><line fill="none" stroke="#6E6E96" stroke-linecap="round" stroke-linejoin="round" stroke-width="8" x1="53.687" x2="36.527" y1="45.824" y2="28.664"/><path d="M130.341,54.77c7.646,4.561,12.752,12.811,12.752,22.232c0,14.358-11.864,26-26.5,26  c-12.404,0-22.813-8.363-25.701-19.653c-0.037,0.626-0.062,1.255-0.062,1.891c0,17.396,14.103,31.5,31.5,31.5  c17.397,0,31.5-14.104,31.5-31.5C153.83,70.611,143.857,58.314,130.341,54.77z" fill="#6E6E96" opacity="0.15"/><path d="M40.579,59.215c6.458,3.852,10.77,10.82,10.77,18.777c0,12.127-10.021,21.959-22.381,21.959  c-10.477,0-19.269-7.063-21.708-16.599c-0.031,0.529-0.052,1.061-0.052,1.597c0,14.693,11.911,26.605,26.605,26.605  c14.693,0,26.604-11.912,26.604-26.605C60.418,72.594,51.995,62.209,40.579,59.215z" fill="#6E6E96" opacity="0.15"/><path d="M65.233,214.418c0,0-13.5-55.996,9.597-67.351s38.639,32.363,38.639,32.363  s-11.886-57.349-39.262-57.349S49.11,198.295,65.233,214.418z" fill="#6E6E96" opacity="0.15"/><path d="M65.233,214.418  c6.6,6.622,15.23,8.46,24.345,7.05c16.393-2.536,28.135-14.593,23.891-42.037c-0.572-3.695-1.307-7.469-2.195-11.229  C87.356,171.511,68.455,190.473,65.233,214.418z" fill="none" stroke="#6E6E96" stroke-linecap="round" stroke-linejoin="round" stroke-width="8"/><path d="M71.435,195.634c0,0-4.605,17.434,7.895,17.434s32.356-18.196,27.675-44.097  c0,0,18.31,46.077-20.663,52.856C86.342,221.827,53.54,220.7,71.435,195.634z" fill="#6E6E96" opacity="0.15"/></svg>