<?xml version="1.0" ?><!DOCTYPE svg  PUBLIC '-//W3C//DTD SVG 1.1//EN'  'http://www.w3.org/Graphics/SVG/1.1/DTD/svg11.dtd'><svg enable-background="new 0 0 226 249.135" height="249.135" id="Layer_1" overflow="visible" version="1.1" viewBox="0 0 226 249.135" width="226" xml:space="preserve" xmlns="http://www.w3.org/2000/svg" xmlns:xlink="http://www.w3.org/1999/xlink"><circle cx="107.655" cy="112.343" fill="#FFE585" r="103.751"/><line enable-background="new    " fill="none" opacity="0.29" stroke="#6E6E96" stroke-linecap="round" stroke-linejoin="round" stroke-width="8" x1="88.866" x2="136.866" y1="245.135" y2="245.135"/><line enable-background="new    " fill="none" opacity="0.17" stroke="#6E6E96" stroke-linecap="round" stroke-linejoin="round" stroke-width="8" x1="154.732" x2="168.732" y1="245.135" y2="245.135"/><line enable-background="new    " fill="none" opacity="0.17" stroke="#6E6E96" stroke-linecap="round" stroke-linejoin="round" stroke-width="8" x1="69.732" x2="58.732" y1="245.135" y2="245.135"/><path d="M108.196,8.542c-0.978,0-1.951,0.016-2.921,0.043  c51.804,1.476,93.346,43.932,93.346,96.093c0,53.096-43.042,96.136-96.137,96.136s-96.137-43.04-96.137-96.136  c0-8.363,1.07-16.475,3.077-24.21c-3.229,10.029-4.98,20.722-4.98,31.826c0,57.3,46.451,103.751,103.752,103.751  c57.3,0,103.751-46.451,103.751-103.751C211.947,54.992,165.496,8.542,108.196,8.542z" enable-background="new    " fill="#FF9900" opacity="0.24"/><path d="M12.47,117.578c0-54.41,44.106-98.516,98.516-98.516c53.229,0,96.59,42.217,98.446,94.991  c0.042-1.2,0.069-2.404,0.069-3.614c0-57.299-46.45-103.751-103.751-103.751C48.451,6.688,2,53.14,2,110.439  c0,47.698,32.189,87.873,76.029,100.001C39.829,196.881,12.47,160.428,12.47,117.578z" fill="#FFEFB5"/><path d="M171.807,193.888  c-17.653,13.908-39.934,22.206-64.152,22.206c-57.3,0-103.751-46.451-103.751-103.751c0-16.035,3.638-31.22,10.133-44.776  C30.751,32.684,66.39,8.592,107.655,8.592c47.797,0,88.047,32.322,100.082,76.302c2.393,8.744,3.67,17.948,3.67,27.449  c0,7.163-0.726,14.156-2.107,20.91" fill="none" stroke="#6E6E96" stroke-linecap="round" stroke-width="8"/><g><path d="M164.329,158.184   c0,19.493-26.673,35.294-59.576,35.294c-32.904,0-59.576-15.802-59.576-35.294c0-19.493,26.672-7.826,59.576-7.826   C137.656,150.359,164.329,138.691,164.329,158.184z" fill="#FFFFFF" stroke="#6E6E96" stroke-linecap="round" stroke-width="8"/><path d="M105.388,150.675c-32.904,0-59.576-11.666-59.576,7.827   c0,19.494,26.672,35.295,59.576,35.295c32.903,0,59.575-15.802,59.575-35.295S138.291,150.675,105.388,150.675z M105.003,179.201   c-28.56,0-51.711-8.053-51.711-17.986s23.151-3.988,51.711-3.988c28.559,0,51.711-5.945,51.711,3.988   S133.562,179.201,105.003,179.201z" enable-background="new    " fill="#6E6E96" opacity="0.15"/></g><g><path d="M182.596,94.832c0,13.965-14.063,5.551-31.411,5.551   s-31.41,8.415-31.41-5.551c0-13.966,14.062-25.286,31.41-25.286S182.596,80.866,182.596,94.832z" fill="#FFFFFF" stroke="#6E6E96" stroke-width="8"/><path d="M121.679,45.714c0,0,8.457-7.722,27.603-6.663" fill="none" stroke="#6E6E96" stroke-linecap="round" stroke-width="8"/><circle cx="150.277" cy="89" fill="#6E6E96" r="6.996"/><path d="M148.33,69.228c-17.35,0-31.411,11.321-31.411,25.287   c0,13.966,14.062,5.55,31.411,5.55c17.348,0,31.411,8.416,31.411-5.55C179.741,80.55,165.678,69.228,148.33,69.228z    M147.427,91.315c-12.645,0-22.894,5.162-22.894-3.404c0-8.567,10.249-15.511,22.894-15.511c12.643,0,22.894,6.944,22.894,15.511   C170.32,96.477,160.069,91.315,147.427,91.315z" enable-background="new    " fill="#6E6E96" opacity="0.15"/></g><g><path d="M98.833,94.832c0,13.965-14.063,5.551-31.411,5.551   c-17.349,0-31.411,8.414-31.411-5.551c0-13.964,14.063-25.286,31.411-25.286C84.771,69.547,98.833,80.867,98.833,94.832z" fill="#FFFFFF" stroke="#6E6E96" stroke-width="8"/><path d="M92.177,45.714c0,0-8.458-7.722-27.604-6.663" fill="none" stroke="#6E6E96" stroke-linecap="round" stroke-width="8"/><circle cx="67.672" cy="89" fill="#6E6E96" r="6.996"/><path d="M66.47,69.862c-17.349,0-31.411,11.321-31.411,25.288   c0,13.965,14.063,5.549,31.411,5.549s31.411,8.417,31.411-5.549C97.881,81.183,83.819,69.862,66.47,69.862z M65.567,91.949   c-12.643,0-22.893,5.161-22.893-3.405c0-8.567,10.25-15.511,22.893-15.511c12.645,0,22.895,6.944,22.895,15.511   C88.462,97.111,78.211,91.949,65.567,91.949z" enable-background="new    " fill="#6E6E96" opacity="0.15"/></g><g><path d="M202.111,193.39c2.135-6.497,8.77-14.465,14.776-17.737l0.023-0.012   c6.036-3.261,6.036-8.585,0-11.841l-0.023-0.018c-6.007-3.256-12.991-10.595-15.519-16.3c-2.528-5.715-6.665-5.715-9.196,0   c-2.522,5.714-9.512,13.047-15.546,16.3l-0.029,0.021c-6.017,3.256-6.017,8.577,0,11.84l0.029,0.012   c6.034,3.256,12.654,11.238,14.773,17.735l1.521,4.596c2.123,6.503,5.555,6.503,7.694,0L202.111,193.39z" fill="#BFFFEB" stroke="#6E6E96" stroke-width="8"/></g></svg>