<?xml version="1.0" ?><svg data-name="Layer 1" id="Layer_1" viewBox="0 0 256 256" xmlns="http://www.w3.org/2000/svg"><defs><style>.cls-1{fill:#fd0;}.cls-2{fill:#efc803;}.cls-3{fill:#40bdff;}.cls-4{fill:#2197f7;}.cls-5{fill:#effafe;}.cls-6{fill:#263238;}</style></defs><title/><path class="cls-1" d="M242.73,213.27a18,18,0,0,0-26.2,24.64l.52.59H243l.52-.59A18,18,0,0,0,242.73,213.27Z"/><path class="cls-2" d="M242.73,213.27a18,18,0,0,0-16.23-4.92,18,18,0,0,1,10,29.56l-.52.59h7l.52-.59A18,18,0,0,0,242.73,213.27Z"/><path class="cls-3" d="M46.73,17.27a18,18,0,0,0-26.2,24.64l.52.59H47l.52-.59A18,18,0,0,0,46.73,17.27Z"/><path class="cls-4" d="M46.73,17.27A18,18,0,0,0,30,12.47a18,18,0,0,1,9.47,29.44l-.52.59h8l.52-.59A18,18,0,0,0,46.73,17.27Z"/><path class="cls-3" d="M81.41,126H98v-.49a78.16,78.16,0,0,1,6.69-30.23l.19-.41-.39-.23a55.66,55.66,0,0,1-6.19-4.28L98,90.09l-.32.3a51.34,51.34,0,0,0-16.25,35.09Z"/><path class="cls-4" d="M114.47,80.86l1.72-1.72-2.26.9-1.37.56-.5.23-.23.1q-.94.42-1.85.88c-.47.23-.94.47-1.4.72l-.45.25-.24.13c-.47.26-.95.53-1.41.81l-.58.36c-.51.31-1,.64-1.5,1l-.43.29c-.57.39-1.14.79-1.74,1.24l-.15.11-.27.21-.71.55.52.4A52.06,52.06,0,0,0,106.3,91l.44.27.25-.45A46.24,46.24,0,0,1,114.47,80.86Z"/><path class="cls-3" d="M163,165.91l.32-.3a51.34,51.34,0,0,0,16.25-35.09l0-.52H163v.49a78.16,78.16,0,0,1-6.69,30.23l-.19.41.39.23a55.66,55.66,0,0,1,6.19,4.28Z"/><path class="cls-3" d="M106.74,164.7l-.44.27a52.06,52.06,0,0,0-4.68,3.19l-.52.4.71.55.27.21.19.14q.83.62,1.69,1.21l.43.29q.74.5,1.51,1l.58.36c.46.28.94.55,1.41.81l.24.13.45.25c.46.25.93.49,1.4.72s1.23.6,1.85.88l.23.11.51.23,1.37.56,2.26.9-1.72-1.72a46.24,46.24,0,0,1-7.48-10Z"/><path class="cls-4" d="M81.44,130.52a51.34,51.34,0,0,0,16.25,35.09l.32.3.34-.27a55.66,55.66,0,0,1,6.19-4.28l.39-.23-.19-.41A78.16,78.16,0,0,1,98,130.49V130H81.41Z"/><path class="cls-5" d="M226.38,230.64a4.68,4.68,0,1,0-.72,0Z"/><path class="cls-5" d="M216.45,241.24a17.84,17.84,0,0,0,19.1,0,7.94,7.94,0,0,0-7.87-6.6c-3.22,0-3.18,0-3.35,0A7.94,7.94,0,0,0,216.45,241.24Z"/><path class="cls-4" d="M130,153.54l.48,0a55.25,55.25,0,0,1,21.72,5.5l.46.22.21-.47A75.29,75.29,0,0,0,159,130.51V130H130Z"/><path class="cls-4" d="M125.43,179.44l.57.08v-22l-.52,0a51.29,51.29,0,0,0-19.86,5l-.48.23.26.46C110.67,172.66,117.78,178.39,125.43,179.44Z"/><path class="cls-3" d="M130,126h29v-.51a75.29,75.29,0,0,0-6.09-28.29l-.21-.47-.46.22a55.25,55.25,0,0,1-21.72,5.5l-.48,0Z"/><path class="cls-4" d="M130.57,76.56l-.57-.08v22l.52,0a51.29,51.29,0,0,0,19.86-5l.48-.23-.26-.46C145.33,83.34,138.22,77.61,130.57,76.56Z"/><path class="cls-4" d="M148.44,175.4l.5-.23.23-.1q.94-.42,1.85-.88c.47-.23.94-.47,1.4-.72l.45-.25.24-.13c.47-.26.95-.53,1.41-.81l.58-.36c.51-.31,1-.64,1.5-1l.43-.29c.57-.39,1.14-.79,1.74-1.24l.15-.11.27-.21.71-.55-.52-.4A52.06,52.06,0,0,0,154.7,165l-.44-.27-.25.45a46.24,46.24,0,0,1-7.48,10l-1.72,1.72,2.26-.9Z"/><path class="cls-3" d="M130,179.51l.57-.08c7.65-1,14.77-6.77,20-16.12l.26-.46-.48-.23a51.29,51.29,0,0,0-19.86-5l-.52,0Z"/><path class="cls-3" d="M126,130H97v.51a75.29,75.29,0,0,0,6.09,28.29l.21.47.46-.22a55.25,55.25,0,0,1,21.72-5.5l.48,0Z"/><path class="cls-4" d="M126,102.46l-.48,0a55.25,55.25,0,0,1-21.72-5.5l-.46-.22-.21.47A75.29,75.29,0,0,0,97,125.49V126h29Z"/><path class="cls-3" d="M154.26,91.3l.44-.27a52.06,52.06,0,0,0,4.68-3.19l.52-.4-.71-.55-.27-.21-.19-.14q-.83-.62-1.69-1.21l-.43-.29q-.74-.5-1.51-1l-.58-.36c-.46-.28-.94-.55-1.41-.81l-.24-.13-.45-.25c-.46-.25-.93-.49-1.4-.72s-1.23-.6-1.85-.88l-.23-.11-.51-.23L147.06,80l-2.26-.9,1.72,1.72a46.24,46.24,0,0,1,7.48,10Z"/><path class="cls-3" d="M126,76.49l-.57.08c-7.65,1-14.77,6.77-20,16.13l-.26.46.48.23a51.29,51.29,0,0,0,19.86,5l.52,0Z"/><path class="cls-5" d="M20.45,45.24a17.86,17.86,0,0,0,19.1,0,7.94,7.94,0,0,0-7.87-6.6c-3.22,0-3.18,0-3.35,0A7.94,7.94,0,0,0,20.45,45.24Z"/><path class="cls-4" d="M179.56,125.48a51.34,51.34,0,0,0-16.25-35.09l-.32-.3-.34.27a55.66,55.66,0,0,1-6.19,4.28l-.39.23.19.41A78.16,78.16,0,0,1,163,125.51V126h16.61Z"/><path class="cls-5" d="M30.36,34.64h0a4.68,4.68,0,1,0-.72,0Z"/><path class="cls-6" d="M14.09,14.09a22.5,22.5,0,1,0,31.82,0A22.53,22.53,0,0,0,14.09,14.09ZM21,45a7.46,7.46,0,0,1,7.3-5.86h3.35A7.46,7.46,0,0,1,39,45,17.4,17.4,0,0,1,21,45Zm4.81-15a4.18,4.18,0,1,1,4.51,4.14h-.68A4.17,4.17,0,0,1,25.82,30ZM43.1,41.58a12.44,12.44,0,0,0-5.76-6.09,9.18,9.18,0,1,0-14.67,0,12.44,12.44,0,0,0-5.76,6.09,17.49,17.49,0,1,1,26.19,0Z"/><path class="cls-6" d="M241.91,241.91a22.5,22.5,0,1,0-31.82,0A22.53,22.53,0,0,0,241.91,241.91Zm-29-4.33a17.49,17.49,0,1,1,26.19,0,12.44,12.44,0,0,0-5.76-6.09,9.18,9.18,0,1,0-14.67,0A12.44,12.44,0,0,0,212.9,237.58ZM230.18,226a4.17,4.17,0,0,1-3.84,4.14h-.68a4.17,4.17,0,1,1,4.51-4.14ZM217,241a7.46,7.46,0,0,1,7.3-5.86h3.35A7.46,7.46,0,0,1,235,241,17.39,17.39,0,0,1,217,241Z"/><path class="cls-6" d="M32.5,128V70a2.5,2.5,0,0,0-5,0v58A100.61,100.61,0,0,0,128,228.5h52l-9.87,9.88a2.5,2.5,0,0,0,3.54,3.54l14.14-14.14a2.5,2.5,0,0,0,0-3.54l-14.14-14.14a2.5,2.5,0,0,0-3.54,3.54L180,223.5H128A95.61,95.61,0,0,1,32.5,128Z"/><path class="cls-6" d="M164.69,85.54c-.29-.25-.58-.48-.87-.72l-.27-.22q-.88-.72-1.79-1.41l-.35-.27q-.86-.64-1.74-1.24l-.48-.33c-.54-.36-1.09-.71-1.64-1.05l-.65-.4c-.49-.29-1-.57-1.48-.85l-.87-.49-1.17-.6a55.77,55.77,0,0,0-8-3.31l-.23-.08c-.66-.21-1.32-.41-2-.59l-.5-.14c-.62-.17-1.24-.32-1.86-.47l-.7-.16-1.74-.36-.9-.16-1.61-.25-1.14-.15-1.42-.16L131.81,72l-1.12-.08c-.89,0-1.79-.07-2.69-.07s-1.8,0-2.69.07l-1.12.08-1.51.12-1.43.16-1.14.14-1.61.26-.89.16q-.88.17-1.75.36l-.69.16c-.63.15-1.25.3-1.87.47l-.49.14c-.67.19-1.34.38-2,.6l-.22.07a55.76,55.76,0,0,0-8,3.31l-1.17.6-.87.49c-.5.28-1,.56-1.48.85l-.65.4c-.55.34-1.1.69-1.65,1.06l-.48.33q-.88.6-1.75,1.24l-.35.26q-.91.69-1.79,1.41l-.27.22c-.29.24-.59.48-.88.72a2.45,2.45,0,0,0-.17.18,56,56,0,0,0,0,84.55,2.45,2.45,0,0,0,.17.18c.29.25.58.48.87.72l.27.22q.88.72,1.79,1.41l.35.27q.86.64,1.74,1.24l.48.33c.54.36,1.09.71,1.64,1.05l.65.41c.49.29,1,.57,1.47.85l.87.49,1.17.6a55.77,55.77,0,0,0,8,3.31l.23.08c.66.21,1.32.41,2,.59l.5.14c.62.17,1.24.32,1.86.47l.7.16,1.74.36.9.16,1.61.25,1.14.15,1.42.16,1.51.12,1.12.08c.89,0,1.79.07,2.69.07s1.8,0,2.69-.07l1.12-.08,1.51-.12,1.42-.16,1.14-.15,1.61-.25.9-.16,1.74-.36.7-.16c.62-.15,1.25-.3,1.86-.47l.5-.14c.67-.19,1.33-.38,2-.59l.23-.08a55.77,55.77,0,0,0,8-3.31l1.17-.6.87-.49c.5-.28,1-.56,1.48-.85l.65-.4c.55-.34,1.1-.69,1.64-1.05l.48-.33q.88-.6,1.74-1.24l.35-.27q.91-.68,1.79-1.41l.27-.22c.29-.24.59-.47.87-.72a2.45,2.45,0,0,0,.17-.18,56,56,0,0,0,0-84.55A2.45,2.45,0,0,0,164.69,85.54ZM97.37,87.09l.19-.14q.83-.61,1.68-1.19l.43-.29q.74-.49,1.49-1l.58-.36c.46-.28.93-.54,1.4-.8l.68-.38c.46-.25.92-.48,1.39-.71s1.22-.59,1.84-.87l.73-.33,1.36-.56a46.78,46.78,0,0,0-7.57,10.1,51.07,51.07,0,0,1-4.64-3.16ZM93,90.75a56.1,56.1,0,0,0,6.24,4.32,78.63,78.63,0,0,0-6.74,30.43H76.94A51,51,0,0,1,93,90.75Zm0,74.5a51,51,0,0,1-16.1-34.75h15.6a78.63,78.63,0,0,0,6.74,30.43A56.1,56.1,0,0,0,93,165.25Zm14.73,9.69-.73-.33q-.93-.42-1.84-.87c-.47-.23-.93-.47-1.39-.71l-.68-.38c-.47-.26-.94-.53-1.4-.8l-.58-.36q-.75-.47-1.49-1l-.43-.29q-.85-.58-1.68-1.19l-.19-.14-.45-.36a51.07,51.07,0,0,1,4.64-3.16,46.78,46.78,0,0,0,7.57,10.1Zm17.74,4c-7.72-1.06-14.64-7-19.67-15.88a51.07,51.07,0,0,1,19.67-5Zm0-25.88a56.07,56.07,0,0,0-21.92,5.55,74.8,74.8,0,0,1-6-28.11h28Zm0-27.56h-28a74.8,74.8,0,0,1,6-28.11,56.07,56.07,0,0,0,21.92,5.55Zm0-27.57a51.07,51.07,0,0,1-19.67-5c5-8.92,11.94-14.82,19.67-15.88Zm22.74-16.87.73.33q.93.42,1.84.87c.47.23.93.47,1.39.71l.68.38c.47.26.94.53,1.4.8l.58.36q.75.47,1.49,1l.43.29q.85.58,1.68,1.19l.19.14.45.36a51.07,51.07,0,0,1-4.64,3.16,46.78,46.78,0,0,0-7.57-10.1Zm-17.74-4c7.72,1.06,14.64,7,19.67,15.88a51.07,51.07,0,0,1-19.67,5Zm0,25.88a56.07,56.07,0,0,0,21.92-5.55,74.8,74.8,0,0,1,6,28.11h-28Zm0,27.56h28a74.8,74.8,0,0,1-6,28.11,56.07,56.07,0,0,0-21.92-5.55Zm0,48.44V158.07a51.07,51.07,0,0,1,19.67,5C145.14,172,138.22,177.88,130.5,178.94Zm28.13-10-.19.14q-.83.61-1.68,1.19l-.43.29q-.74.49-1.49,1l-.58.36c-.46.28-.93.54-1.4.8l-.68.38c-.46.25-.92.48-1.39.71s-1.22.59-1.84.87l-.73.33-1.36.56a46.78,46.78,0,0,0,7.57-10.1,51.07,51.07,0,0,1,4.64,3.16Zm4.34-3.66a56.1,56.1,0,0,0-6.24-4.32,78.63,78.63,0,0,0,6.74-30.43h15.6A51,51,0,0,1,163,165.25Zm16.1-39.75h-15.6a78.63,78.63,0,0,0-6.74-30.43A56.1,56.1,0,0,0,163,90.75,51,51,0,0,1,179.06,125.5Z"/><path class="cls-6" d="M85.91,14.09a2.5,2.5,0,0,0-3.54,0L68.23,28.23a2.5,2.5,0,0,0,0,3.54L82.37,45.91a2.5,2.5,0,0,0,3.54-3.54L76,32.5h52A95.61,95.61,0,0,1,223.5,128v58a2.5,2.5,0,0,0,5,0V128A100.61,100.61,0,0,0,128,27.5H76l9.87-9.87A2.5,2.5,0,0,0,85.91,14.09Z"/><path class="cls-3" d="M189.5,85.49h-4v-4a1,1,0,0,0-2,0v4h-4a1,1,0,0,0,0,2h4v4a1,1,0,0,0,2,0v-4h4a1,1,0,0,0,0-2Z"/><path class="cls-1" d="M59,158.28H55v-4a1,1,0,0,0-2,0v4H49a1,1,0,0,0,0,2h4v4a1,1,0,0,0,2,0v-4h4a1,1,0,0,0,0-2Z"/><path class="cls-3" d="M195.13,19h-4V15a1,1,0,0,0-2,0v4h-4a1,1,0,0,0,0,2h4v4a1,1,0,0,0,2,0V21h4a1,1,0,0,0,0-2Z"/><path class="cls-3" d="M61.4,68h-4V64a1,1,0,0,0-2,0v4h-4a1,1,0,0,0,0,2h4v4a1,1,0,0,0,2,0V70h4a1,1,0,0,0,0-2Z"/><path class="cls-1" d="M38.5,213.64h-4v-4a1,1,0,0,0-2,0v4h-4a1,1,0,0,0,0,2h4v4a1,1,0,0,0,2,0v-4h4a1,1,0,0,0,0-2Z"/><path class="cls-3" d="M137.36,237.49h-4v-4a1,1,0,0,0-2,0v4h-4a1,1,0,0,0,0,2h4v4a1,1,0,0,0,2,0v-4h4a1,1,0,1,0,0-2Z"/><path class="cls-1" d="M232,54a6,6,0,1,1,6-6A6,6,0,0,1,232,54Zm0-10a4,4,0,1,0,4,4A4,4,0,0,0,232,44Z"/><path class="cls-1" d="M115,23a6,6,0,1,1,6-6A6,6,0,0,1,115,23Zm0-10a4,4,0,1,0,4,4A4,4,0,0,0,115,13Z"/><path class="cls-3" d="M202.51,183.13h-2.59l1.83-1.83a1,1,0,0,0-1.41-1.41l-1.83,1.83v-2.59a1,1,0,0,0-2,0v2.59l-1.83-1.83a1,1,0,0,0-1.41,1.41l1.83,1.83h-2.59a1,1,0,0,0,0,2h2.59L193.27,187a1,1,0,0,0,1.41,1.41l1.83-1.83v2.59a1,1,0,0,0,2,0v-2.59l1.83,1.83a1,1,0,0,0,1.41-1.41l-1.83-1.83h2.59a1,1,0,0,0,0-2Z"/></svg>