<?xml version="1.0" ?><svg data-name="Layer 1" id="Layer_1" viewBox="0 0 256 256" xmlns="http://www.w3.org/2000/svg"><defs><style>.cls-1{fill:#effafe;}.cls-2{fill:#fd0;}.cls-3{fill:#efc803;}.cls-4{fill:#e4ebed;}.cls-5{fill:#40bdff;}.cls-6{fill:#2197f7;}.cls-7{fill:#263238;}</style></defs><title/><path class="cls-1" d="M88.14,212.69v10h79.71v-10A33.88,33.88,0,0,0,134,178.85H122A33.88,33.88,0,0,0,88.14,212.69Z"/><path class="cls-2" d="M73.91,109.81a8,8,0,0,0-8,8V236a8,8,0,0,0,8,8H187.09a8,8,0,0,0,8-8V117.81a8,8,0,0,0-8-8Zm40.08,65a25.94,25.94,0,1,1,28,0l-1,.65,1.17.26a38.08,38.08,0,0,1,29.68,36.95v12a2,2,0,0,1-2,2H86.14a2,2,0,0,1-2-2v-12a38.08,38.08,0,0,1,29.68-36.95l1.17-.26Z"/><path class="cls-3" d="M187.09,109.81h-5a8,8,0,0,1,8,8V236a8,8,0,0,1-8,8h5a8,8,0,0,0,8-8V117.81A8,8,0,0,0,187.09,109.81Z"/><path class="cls-2" d="M51.78,34.08l-2.25-4.55-2.25,4.55a2,2,0,0,1-1.51,1.09l-5,.73,3.64,3.55A2,2,0,0,1,45,41.22l-.86,5,4.5-2.36a2,2,0,0,1,1.86,0L55,46.22l-.86-5a2,2,0,0,1,.57-1.77l3.64-3.55-5-.73A2,2,0,0,1,51.78,34.08Z"/><path class="cls-1" d="M130.29,174.85h0a21.95,21.95,0,1,0-4.58,0Z"/><path class="cls-4" d="M134,178.85h-5a33.88,33.88,0,0,1,33.84,33.84v10h5v-10A33.88,33.88,0,0,0,134,178.85Z"/><path class="cls-4" d="M128,131.1a22,22,0,0,0-2.5.15,21.93,21.93,0,0,1,0,43.57l.22,0h4.58A21.93,21.93,0,0,0,128,131.1Z"/><path class="cls-1" d="M207.4,43.86l4.5,2.36-.86-5a2,2,0,0,1,.57-1.77l3.64-3.55-5-.73a2,2,0,0,1-1.51-1.09l-2.25-4.55-2.25,4.55a2,2,0,0,1-1.51,1.09l-5,.73,3.64,3.55a2,2,0,0,1,.57,1.77l-.86,5,4.5-2.36A2,2,0,0,1,207.4,43.86Z"/><path class="cls-5" d="M207.58,62.88H225a8,8,0,0,0,8-8V20a8,8,0,0,0-8-8H36a8,8,0,0,0-8,8V54.88a8,8,0,0,0,8,8h130a2,2,0,0,1,2,2V89l38.52-25.83A2,2,0,0,1,207.58,62.88Zm-39-26.95-5.79,5.64,1.37,8a2,2,0,0,1-2.9,2.11l-7.15-3.76L147,51.65a2,2,0,0,1-2.9-2.11l1.37-8-5.79-5.64a2,2,0,0,1,1.11-3.41l8-1.16,3.58-7.25a2,2,0,0,1,3.59,0l3.58,7.25,8,1.16A2,2,0,0,1,168.63,35.94Zm27.78,13.6,1.37-8L192,35.94a2,2,0,0,1,1.11-3.41l8-1.16,3.58-7.25a2,2,0,0,1,3.59,0l3.58,7.25,8,1.16a2,2,0,0,1,1.11,3.41l-5.79,5.64,1.37,8a2,2,0,0,1-2.9,2.11l-7.15-3.76-7.15,3.76A2,2,0,0,1,196.42,49.54Zm-80.1-13.6-5.79,5.64,1.37,8a2,2,0,0,1-2.9,2.11l-7.15-3.76-7.15,3.76a2,2,0,0,1-2.9-2.11l1.37-8-5.79-5.64a2,2,0,0,1,1.11-3.41l8-1.16L100,24.12a2,2,0,0,1,3.59,0l3.58,7.25,8,1.16A2,2,0,0,1,116.32,35.94ZM64,35.94l-5.79,5.64,1.37,8a2,2,0,0,1-2.9,2.11l-7.15-3.76-7.15,3.76a2,2,0,0,1-2.9-2.11l1.37-8-5.79-5.64a2,2,0,0,1,1.11-3.41l8-1.16,3.58-7.25a2,2,0,0,1,3.59,0l3.58,7.25,8,1.16A2,2,0,0,1,64,35.94Z"/><path class="cls-6" d="M225,12h-5a8,8,0,0,1,8,8V54.88a8,8,0,0,1-8,8h5a8,8,0,0,0,8-8V20A8,8,0,0,0,225,12Z"/><path class="cls-2" d="M104.09,34.08l-2.25-4.55L99.6,34.08a2,2,0,0,1-1.51,1.09l-5,.73,3.64,3.55a2,2,0,0,1,.57,1.77l-.86,5,4.5-2.36a2,2,0,0,1,1.86,0l4.5,2.36-.86-5a2,2,0,0,1,.57-1.77l3.64-3.55-5-.73A2,2,0,0,1,104.09,34.08Z"/><path class="cls-2" d="M156.4,34.08l-2.25-4.55-2.25,4.55a2,2,0,0,1-1.51,1.09l-5,.73L149,39.45a2,2,0,0,1,.57,1.77l-.86,5,4.5-2.36a2,2,0,0,1,1.86,0l4.5,2.36-.86-5a2,2,0,0,1,.57-1.77l3.64-3.55-5-.73A2,2,0,0,1,156.4,34.08Z"/><path class="cls-7" d="M142.29,175.25a26.44,26.44,0,1,0-28.58,0,38.4,38.4,0,0,0-30.07,37.43v12a2.5,2.5,0,0,0,2.5,2.5h83.71a2.5,2.5,0,0,0,2.5-2.5v-12A38.4,38.4,0,0,0,142.29,175.25ZM106.56,153a21.44,21.44,0,1,1,23.7,21.31h-4.52A21.46,21.46,0,0,1,106.56,153Zm60.79,69.19H88.64v-9.53A33.38,33.38,0,0,1,122,179.35h12a33.38,33.38,0,0,1,33.34,33.34Z"/><path class="cls-7" d="M68.91,105.31a12.51,12.51,0,0,0-12.5,12.5V236a12.51,12.51,0,0,0,12.5,12.5H187.09a12.51,12.51,0,0,0,12.5-12.5V117.81a12.51,12.51,0,0,0-12.5-12.5Zm125.69,12.5V236a7.51,7.51,0,0,1-7.5,7.5H68.91a7.51,7.51,0,0,1-7.5-7.5V117.81a7.51,7.51,0,0,1,7.5-7.5H187.09A7.51,7.51,0,0,1,194.59,117.81Z"/><path class="cls-7" d="M63,32l-7.74-1.12-3.46-7a2.5,2.5,0,0,0-4.48,0l-3.46,7L36.09,32a2.5,2.5,0,0,0-1.39,4.26l5.6,5.46L39,49.46a2.5,2.5,0,0,0,3.63,2.64l6.92-3.64,6.92,3.64a2.5,2.5,0,0,0,3.63-2.64l-1.32-7.7,5.6-5.46A2.5,2.5,0,0,0,63,32Zm-8.64,7.06a2.5,2.5,0,0,0-.72,2.21l.69,4-3.6-1.89a2.5,2.5,0,0,0-2.33,0l-3.6,1.89.69-4a2.5,2.5,0,0,0-.72-2.21l-2.91-2.84,4-.58a2.5,2.5,0,0,0,1.88-1.37l1.8-3.65,1.8,3.65a2.5,2.5,0,0,0,1.88,1.37l4,.58Z"/><path class="cls-7" d="M115.28,32l-7.74-1.12-3.46-7a2.5,2.5,0,0,0-4.48,0l-3.46,7L88.41,32A2.5,2.5,0,0,0,87,36.3l5.6,5.46-1.32,7.7a2.5,2.5,0,0,0,3.63,2.64l6.92-3.64,6.92,3.64a2.5,2.5,0,0,0,3.63-2.64l-1.32-7.7,5.6-5.46A2.5,2.5,0,0,0,115.28,32Zm-8.64,7.06a2.5,2.5,0,0,0-.72,2.21l.69,4L103,43.42a2.5,2.5,0,0,0-2.33,0l-3.6,1.89.69-4A2.5,2.5,0,0,0,97,39.09l-2.91-2.84,4-.58A2.5,2.5,0,0,0,100,34.3l1.8-3.65,1.8,3.65a2.5,2.5,0,0,0,1.88,1.37l4,.58Z"/><path class="cls-7" d="M167.59,32l-7.74-1.12-3.46-7a2.5,2.5,0,0,0-4.48,0l-3.46,7L140.72,32a2.5,2.5,0,0,0-1.39,4.26l5.6,5.46-1.32,7.7a2.5,2.5,0,0,0,3.63,2.64l6.92-3.64,6.92,3.64a2.5,2.5,0,0,0,3.63-2.64l-1.32-7.7L169,36.3A2.5,2.5,0,0,0,167.59,32ZM159,39.09a2.5,2.5,0,0,0-.72,2.21l.69,4-3.6-1.89a2.5,2.5,0,0,0-2.33,0l-3.6,1.89.69-4a2.5,2.5,0,0,0-.72-2.21l-2.91-2.84,4-.58a2.5,2.5,0,0,0,1.88-1.37l1.8-3.65L156,34.3a2.5,2.5,0,0,0,1.88,1.37l4,.58Z"/><path class="cls-7" d="M219.91,32l-7.74-1.12-3.46-7a2.5,2.5,0,0,0-4.48,0l-3.46,7L193,32a2.5,2.5,0,0,0-1.39,4.26l5.6,5.46-1.32,7.7a2.5,2.5,0,0,0,3.63,2.64l6.92-3.64,6.92,3.64A2.5,2.5,0,0,0,217,49.46l-1.32-7.7,5.6-5.46A2.5,2.5,0,0,0,219.91,32Zm-8.64,7.06a2.5,2.5,0,0,0-.72,2.21l.69,4-3.6-1.89a2.5,2.5,0,0,0-2.33,0l-3.6,1.89.69-4a2.5,2.5,0,0,0-.72-2.21l-2.91-2.84,4-.58a2.5,2.5,0,0,0,1.88-1.37l1.8-3.65,1.8,3.65a2.5,2.5,0,0,0,1.88,1.37l4,.58Z"/><path class="cls-7" d="M225,67.38a12.51,12.51,0,0,0,12.5-12.5V20A12.51,12.51,0,0,0,225,7.5H31A12.51,12.51,0,0,0,18.48,20V54.88A12.51,12.51,0,0,0,31,67.38H163.45V92.8a2.5,2.5,0,0,0,3.89,2.08l41-27.49Zm-18.83-4.58-37.74,25.3V64.88a2.5,2.5,0,0,0-2.5-2.5H31a7.51,7.51,0,0,1-7.5-7.5V20A7.51,7.51,0,0,1,31,12.5H225a7.51,7.51,0,0,1,7.5,7.5V54.88a7.51,7.51,0,0,1-7.5,7.5H207.58A2.5,2.5,0,0,0,206.19,62.81Z"/><path class="cls-2" d="M25,144.25H21v-4a1,1,0,0,0-2,0v4H15a1,1,0,0,0,0,2h4v4a1,1,0,0,0,2,0v-4h4a1,1,0,0,0,0-2Z"/><path class="cls-2" d="M239,199.78h-4v-4a1,1,0,1,0-2,0v4h-4a1,1,0,0,0,0,2h4v4a1,1,0,0,0,2,0v-4h4a1,1,0,0,0,0-2Z"/><path class="cls-5" d="M143,82h-4V78a1,1,0,0,0-2,0v4h-4a1,1,0,0,0,0,2h4v4a1,1,0,0,0,2,0V84h4a1,1,0,0,0,0-2Z"/><path class="cls-5" d="M45.07,95a6,6,0,1,1,6-6A6,6,0,0,1,45.07,95Zm0-10a4,4,0,1,0,4,4A4,4,0,0,0,45.07,85Z"/><path class="cls-2" d="M30,236.46a6,6,0,1,1,6-6A6,6,0,0,1,30,236.46Zm0-10a4,4,0,1,0,4,4A4,4,0,0,0,30,226.46Z"/><path class="cls-2" d="M211.31,101a6,6,0,1,1,6-6A6,6,0,0,1,211.31,101Zm0-10a4,4,0,1,0,4,4A4,4,0,0,0,211.31,91Z"/><path class="cls-5" d="M220.09,150h-2.59l1.83-1.83a1,1,0,0,0-1.41-1.41l-1.83,1.83V146a1,1,0,0,0-2,0v2.59l-1.83-1.83a1,1,0,0,0-1.41,1.41l1.83,1.83h-2.59a1,1,0,0,0,0,2h2.59l-1.83,1.83a1,1,0,0,0,1.41,1.41l1.83-1.83V156a1,1,0,0,0,2,0v-2.59l1.83,1.83a1,1,0,0,0,1.41-1.41L217.51,152h2.59a1,1,0,0,0,0-2Z"/><path class="cls-5" d="M109.62,86.25H107l1.83-1.83A1,1,0,0,0,107.45,83l-1.83,1.83V82.25a1,1,0,1,0-2,0v2.59L101.8,83a1,1,0,0,0-1.41,1.41l1.83,1.83H99.62a1,1,0,0,0,0,2h2.59l-1.83,1.83a1,1,0,0,0,1.41,1.41l1.83-1.83v2.59a1,1,0,0,0,2,0V89.67l1.83,1.83a1,1,0,0,0,1.41-1.41L107,88.25h2.59a1,1,0,0,0,0-2Z"/><path class="cls-5" d="M44.07,181.41H41.49l1.83-1.83a1,1,0,0,0-1.41-1.41L40.07,180v-2.59a1,1,0,0,0-2,0V180l-1.83-1.83a1,1,0,0,0-1.41,1.41l1.83,1.83H34.07a1,1,0,0,0,0,2h2.59l-1.83,1.83a1,1,0,0,0,1.41,1.41l1.83-1.83v2.59a1,1,0,0,0,2,0v-2.59l1.83,1.83a1,1,0,0,0,1.41-1.41l-1.83-1.83h2.59a1,1,0,0,0,0-2Z"/><path class="cls-5" d="M220.09,231h-2.59l1.83-1.83a1,1,0,0,0-1.41-1.41l-1.83,1.83V227a1,1,0,0,0-2,0v2.59l-1.83-1.83a1,1,0,0,0-1.41,1.41l1.83,1.83h-2.59a1,1,0,0,0,0,2h2.59l-1.83,1.83a1,1,0,0,0,1.41,1.41l1.83-1.83V237a1,1,0,0,0,2,0v-2.59l1.83,1.83a1,1,0,0,0,1.41-1.41L217.51,233h2.59a1,1,0,0,0,0-2Z"/></svg>