<?xml version="1.0" ?><svg data-name="Layer 1" id="Layer_1" viewBox="0 0 256 256" xmlns="http://www.w3.org/2000/svg"><defs><style>.cls-1{fill:#eb5639;}.cls-2{fill:#d84936;}.cls-3{fill:#fd0;}.cls-4{fill:#40bdff;}.cls-5{fill:#efc803;}.cls-6{fill:#2197f7;}.cls-7{fill:#effafe;}.cls-8{fill:#e4ebed;}.cls-9{fill:#263238;}</style></defs><title/><path class="cls-1" d="M133,47.93h0a7.91,7.91,0,0,1-1,.07,8,8,0,1,1,1-.07Z"/><path class="cls-2" d="M132,32a7.94,7.94,0,0,0-4,1.08,8,8,0,0,1,0,13.83,7.82,7.82,0,0,0,5,1h0A8,8,0,0,0,132,32Z"/><path class="cls-3" d="M65,180H196a8,8,0,0,1,0,16H65a8,8,0,0,1,0-16Z"/><path class="cls-4" d="M45,140H216a8,8,0,0,1,0,16H45a8,8,0,0,1,0-16Z"/><path class="cls-5" d="M196,180h-5a8,8,0,0,1,0,16h5a8,8,0,0,0,0-16Z"/><path class="cls-6" d="M216,140h-5a8,8,0,0,1,0,16h5a8,8,0,0,0,0-16Z"/><path class="cls-7" d="M17,120v96a8,8,0,0,0,8,8H236a8,8,0,0,0,8-8V120a8,8,0,0,0-8-8H25A8,8,0,0,0,17,120Zm43,56H196a12,12,0,0,1,0,24H60a12,12,0,0,1,0-24ZM40,136H216a12,12,0,0,1,0,24H40a12,12,0,0,1,0-24Z"/><path class="cls-8" d="M236,112h-5a8,8,0,0,1,8,8v96a8,8,0,0,1-8,8h5a8,8,0,0,0,8-8V120A8,8,0,0,0,236,112Z"/><path class="cls-9" d="M7.5,120v96A12.51,12.51,0,0,0,20,228.5H236A12.51,12.51,0,0,0,248.5,216V120A12.51,12.51,0,0,0,236,107.5h-9.2L139.41,45.08a12.5,12.5,0,1,0-22.82,0L29.2,107.5H20A12.51,12.51,0,0,0,7.5,120Zm128-80A7.51,7.51,0,0,1,129,47.43a7.43,7.43,0,0,1-1,.07,7.5,7.5,0,1,1,7.5-7.5Zm82.7,67.5H37.8l81.69-58.35a12.53,12.53,0,0,0,17,0ZM12.5,120a7.51,7.51,0,0,1,7.5-7.5H236a7.51,7.51,0,0,1,7.5,7.5v96a7.51,7.51,0,0,1-7.5,7.5H20a7.51,7.51,0,0,1-7.5-7.5Z"/><path class="cls-9" d="M27.5,148A12.51,12.51,0,0,0,40,160.5H216a12.5,12.5,0,0,0,0-25H40A12.51,12.51,0,0,0,27.5,148Zm5,0a7.51,7.51,0,0,1,7.5-7.5H216a7.5,7.5,0,0,1,0,15H40A7.51,7.51,0,0,1,32.5,148Z"/><path class="cls-9" d="M47.5,188A12.51,12.51,0,0,0,60,200.5H196a12.5,12.5,0,0,0,0-25H60A12.51,12.51,0,0,0,47.5,188Zm5,0a7.51,7.51,0,0,1,7.5-7.5H196a7.5,7.5,0,0,1,0,15H60A7.51,7.51,0,0,1,52.5,188Z"/><path class="cls-3" d="M179,36h-4V32a1,1,0,1,0-2,0v4h-4a1,1,0,0,0,0,2h4v4a1,1,0,0,0,2,0V38h4a1,1,0,0,0,0-2Z"/><path class="cls-4" d="M117,238h-4v-4a1,1,0,0,0-2,0v4h-4a1,1,0,0,0,0,2h4v4a1,1,0,0,0,2,0v-4h4a1,1,0,0,0,0-2Z"/><path class="cls-3" d="M229,237h-4v-4a1,1,0,0,0-2,0v4h-4a1,1,0,0,0,0,2h4v4a1,1,0,0,0,2,0v-4h4a1,1,0,0,0,0-2Z"/><path class="cls-4" d="M103.08,82.54h-4v-4a1,1,0,0,0-2,0v4h-4a1,1,0,0,0,0,2h4v4a1,1,0,1,0,2,0v-4h4a1,1,0,0,0,0-2Z"/><path class="cls-3" d="M148,94a6,6,0,1,1,6-6A6,6,0,0,1,148,94Zm0-10a4,4,0,1,0,4,4A4,4,0,0,0,148,84Z"/><path class="cls-4" d="M220,75.54a6,6,0,1,1,6-6A6,6,0,0,1,220,75.54Zm0-10a4,4,0,1,0,4,4A4,4,0,0,0,220,65.54Z"/><path class="cls-4" d="M46.5,76.54H43.91l1.83-1.83a1,1,0,0,0-1.41-1.41L42.5,75.13V72.54a1,1,0,0,0-2,0v2.59L38.67,73.3a1,1,0,0,0-1.41,1.41l1.83,1.83H36.5a1,1,0,0,0,0,2h2.59l-1.83,1.83a1,1,0,0,0,1.41,1.41L40.5,80v2.59a1,1,0,0,0,2,0V80l1.83,1.83a1,1,0,0,0,1.41-1.41l-1.83-1.83H46.5a1,1,0,0,0,0-2Z"/></svg>