<?xml version="1.0" ?><svg data-name="Layer 1" id="Layer_1" viewBox="0 0 256 256" xmlns="http://www.w3.org/2000/svg"><defs><style>.cls-1{fill:#effafe;}.cls-2{fill:#e4ebed;}.cls-3{fill:#263238;}.cls-4{fill:#fd0;}.cls-5{fill:#40bdff;}</style></defs><title/><path class="cls-1" d="M91.1,135.9v10.33h81.8V135.9a34.77,34.77,0,0,0-34.73-34.73H125.84A34.77,34.77,0,0,0,91.1,135.9Z"/><path class="cls-1" d="M134.36,97.16h0a22.54,22.54,0,1,0-4.72,0Z"/><path class="cls-2" d="M138.16,101.16h-9A34.77,34.77,0,0,1,163.9,135.9v10.33h9V135.9A34.77,34.77,0,0,0,138.16,101.16Z"/><path class="cls-2" d="M132,52.22a22.55,22.55,0,0,0-4.5.45,22.53,22.53,0,0,1,0,44.15q1.06.21,2.15.33h4.72A22.53,22.53,0,0,0,132,52.22Z"/><path class="cls-3" d="M246,88.17H226a2.5,2.5,0,0,0,0,5h14l-52.55,52.55h-14V135.9a39.3,39.3,0,0,0-30.91-38.34,27,27,0,1,0-29,0A39.3,39.3,0,0,0,82.6,135.9v9.83H67.55a2.5,2.5,0,0,0-1.77.73L8.23,204a2.5,2.5,0,1,0,3.54,3.54l56.82-56.82H188.45a2.5,2.5,0,0,0,1.77-.73L243.5,96.71v14a2.5,2.5,0,0,0,5,0v-20A2.5,2.5,0,0,0,246,88.17ZM106,74.76a22,22,0,1,1,24.37,21.91h-4.67A22.06,22.06,0,0,1,106,74.76Zm62.43,71H87.6V135.9a34.27,34.27,0,0,1,34.23-34.23h12.33A34.27,34.27,0,0,1,168.4,135.9Z"/><path class="cls-4" d="M165,39h-4V35a1,1,0,0,0-2,0v4h-4a1,1,0,0,0,0,2h4v4a1,1,0,0,0,2,0V41h4a1,1,0,0,0,0-2Z"/><path class="cls-5" d="M116.67,175.89h-4v-4a1,1,0,0,0-2,0v4h-4a1,1,0,1,0,0,2h4v4a1,1,0,0,0,2,0v-4h4a1,1,0,0,0,0-2Z"/><path class="cls-4" d="M211,169.89h-4v-4a1,1,0,0,0-2,0v4h-4a1,1,0,0,0,0,2h4v4a1,1,0,1,0,2,0v-4h4a1,1,0,0,0,0-2Z"/><path class="cls-5" d="M72.67,76h-4V72a1,1,0,0,0-2,0v4h-4a1,1,0,0,0,0,2h4v4a1,1,0,0,0,2,0V78h4a1,1,0,1,0,0-2Z"/><path class="cls-5" d="M206,105.11a6,6,0,1,1,6-6A6,6,0,0,1,206,105.11Zm0-10a4,4,0,1,0,4,4A4,4,0,0,0,206,95.11Z"/><path class="cls-5" d="M53,137H50.41l1.83-1.83a1,1,0,0,0-1.41-1.41L49,135.59V133a1,1,0,0,0-2,0v2.59l-1.83-1.83a1,1,0,0,0-1.41,1.41L45.59,137H43a1,1,0,0,0,0,2h2.59l-1.83,1.83a1,1,0,0,0,1.41,1.41L47,140.41V143a1,1,0,0,0,2,0v-2.59l1.83,1.83a1,1,0,0,0,1.41-1.41L50.41,139H53a1,1,0,0,0,0-2Z"/></svg>