<?xml version="1.0" ?><svg data-name="Layer 1" id="Layer_1" viewBox="0 0 256 256" xmlns="http://www.w3.org/2000/svg"><defs><style>.cls-1{fill:#effafe;}.cls-2{fill:#eb5639;}.cls-3{fill:#40bdff;}.cls-4{fill:#e4ebed;}.cls-5{fill:#2197f7;}.cls-6{fill:#d84936;}.cls-7{fill:#263238;}.cls-8{fill:#fd0;}</style></defs><title/><path class="cls-1" d="M236,47h-6v8a2,2,0,1,1-4,0V47H190v8a2,2,0,1,1-4,0V47H150v8a2,2,0,1,1-4,0V47H110v8a2,2,0,1,1-4,0V47H70v8a2,2,0,1,1-4,0V47H30v8a2,2,0,1,1-4,0V47H25a8,8,0,0,0-8,8V211a8,8,0,0,0,8,8H236a8,8,0,0,0,8-8V55A8,8,0,0,0,236,47Zm-45.07,59.4a9.87,9.87,0,1,1,9.87-9.87A9.88,9.88,0,0,1,190.93,106.4Zm0,25.73a9.87,9.87,0,1,1,9.87-9.87A9.88,9.88,0,0,1,190.93,132.13Zm0,25.73A9.87,9.87,0,1,1,200.8,148,9.88,9.88,0,0,1,190.93,157.87Zm0,6a9.87,9.87,0,1,1-9.87,9.87A9.88,9.88,0,0,1,190.93,163.87ZM159.47,106.4a9.87,9.87,0,1,1,9.87-9.87A9.88,9.88,0,0,1,159.47,106.4Zm0,25.73a9.87,9.87,0,1,1,9.87-9.87A9.88,9.88,0,0,1,159.47,132.13Zm0,25.73a9.87,9.87,0,1,1,9.87-9.87A9.88,9.88,0,0,1,159.47,157.87Zm0,25.73a9.87,9.87,0,1,1,9.87-9.87A9.88,9.88,0,0,1,159.47,183.6Zm0,6a9.87,9.87,0,1,1-9.87,9.87A9.88,9.88,0,0,1,159.47,189.6ZM128,106.4a9.87,9.87,0,1,1,9.87-9.87A9.88,9.88,0,0,1,128,106.4Zm0,25.73a9.87,9.87,0,1,1,9.87-9.87A9.88,9.88,0,0,1,128,132.13Zm0,25.73a9.87,9.87,0,1,1,9.87-9.87A9.88,9.88,0,0,1,128,157.87Zm0,25.73a9.87,9.87,0,1,1,9.87-9.87A9.88,9.88,0,0,1,128,183.6Zm0,6a9.87,9.87,0,1,1-9.87,9.87A9.88,9.88,0,0,1,128,189.6ZM70,70.67H30a2,2,0,0,1,0-4H70a2,2,0,0,1,0,4Zm2,98.92-4.15,4.15L72,177.88a2,2,0,0,1,0,2.83,2,2,0,0,1-2.83,0l-4.15-4.15-4.15,4.15a2,2,0,0,1-2.83,0,2,2,0,0,1,0-2.83l4.15-4.15-4.15-4.15a2,2,0,0,1,0-2.83,2,2,0,0,1,2.83,0l4.15,4.15,4.15-4.15a2,2,0,0,1,2.83,0A2,2,0,0,1,72,169.58Zm-7,20a9.87,9.87,0,1,1-9.87,9.87A9.88,9.88,0,0,1,65.07,189.6Zm0-31.73A9.87,9.87,0,1,1,74.93,148,9.88,9.88,0,0,1,65.07,157.87Zm0-25.73a9.87,9.87,0,1,1,9.87-9.87A9.88,9.88,0,0,1,65.07,132.13Zm-31.47,0a9.87,9.87,0,1,1,9.87-9.87A9.88,9.88,0,0,1,33.6,132.13Zm0,25.73A9.87,9.87,0,1,1,43.47,148,9.88,9.88,0,0,1,33.6,157.87Zm0,25.73a9.87,9.87,0,1,1,9.87-9.87A9.88,9.88,0,0,1,33.6,183.6Zm0,6a9.87,9.87,0,1,1-9.87,9.87A9.88,9.88,0,0,1,33.6,189.6Zm188.8-25.73a9.87,9.87,0,1,1-9.87,9.87A9.88,9.88,0,0,1,222.4,163.87Zm0-6a9.87,9.87,0,1,1,9.87-9.87A9.88,9.88,0,0,1,222.4,157.87Zm0-25.73a9.87,9.87,0,1,1,9.87-9.87A9.88,9.88,0,0,1,222.4,132.13Zm0-25.73a9.87,9.87,0,1,1,9.87-9.87A9.88,9.88,0,0,1,222.4,106.4ZM90,66.67H226a2,2,0,0,1,0,4H90a2,2,0,0,1,0-4ZM96.53,189.6a9.87,9.87,0,1,1-9.87,9.87A9.88,9.88,0,0,1,96.53,189.6Zm0-6a9.87,9.87,0,1,1,9.87-9.87A9.88,9.88,0,0,1,96.53,183.6Zm0-25.73A9.87,9.87,0,1,1,106.4,148,9.88,9.88,0,0,1,96.53,157.87Zm0-25.73a9.87,9.87,0,1,1,9.87-9.87A9.88,9.88,0,0,1,96.53,132.13Zm0-25.73a9.87,9.87,0,1,1,9.87-9.87A9.88,9.88,0,0,1,96.53,106.4Z"/><circle class="cls-2" cx="33.6" cy="199.47" r="5.87"/><circle class="cls-2" cx="33.6" cy="173.73" r="5.87"/><circle class="cls-2" cx="33.6" cy="148" r="5.87"/><circle class="cls-2" cx="33.6" cy="122.27" r="5.87"/><circle class="cls-1" cx="65.07" cy="122.27" r="5.87"/><circle class="cls-1" cx="65.07" cy="148" r="5.87"/><circle class="cls-1" cx="65.07" cy="199.47" r="5.87"/><circle class="cls-1" cx="96.53" cy="122.27" r="5.87"/><circle class="cls-1" cx="96.53" cy="148" r="5.87"/><circle class="cls-1" cx="96.53" cy="199.47" r="5.87"/><circle class="cls-1" cx="96.53" cy="173.73" r="5.87"/><circle class="cls-3" cx="190.93" cy="96.53" r="5.87"/><circle class="cls-3" cx="190.93" cy="148" r="5.87"/><circle class="cls-3" cx="190.93" cy="122.27" r="5.87"/><circle class="cls-3" cx="190.93" cy="173.73" r="5.87"/><path class="cls-4" d="M236,47h-5a8,8,0,0,1,8,8V211a8,8,0,0,1-8,8h5a8,8,0,0,0,8-8V55A8,8,0,0,0,236,47Z"/><circle class="cls-1" cx="222.4" cy="96.53" r="5.87"/><circle class="cls-1" cx="222.4" cy="148" r="5.87"/><circle class="cls-1" cx="222.4" cy="122.27" r="5.87"/><circle class="cls-1" cx="128" cy="122.27" r="5.87"/><circle class="cls-1" cx="128" cy="148" r="5.87"/><circle class="cls-1" cx="128" cy="199.47" r="5.87"/><circle class="cls-1" cx="128" cy="173.73" r="5.87"/><circle class="cls-1" cx="128" cy="96.53" r="5.87"/><circle class="cls-1" cx="159.47" cy="199.47" r="5.87"/><circle class="cls-1" cx="159.47" cy="122.27" r="5.87"/><circle class="cls-1" cx="159.47" cy="96.53" r="5.87"/><circle class="cls-1" cx="159.47" cy="148" r="5.87"/><circle class="cls-1" cx="159.47" cy="173.73" r="5.87"/><circle class="cls-1" cx="222.4" cy="173.73" r="5.87"/><circle class="cls-1" cx="96.53" cy="96.53" r="5.87"/><path class="cls-4" d="M96.53,90.67a5.84,5.84,0,0,0-1.5.2,5.86,5.86,0,0,1,0,11.33,5.86,5.86,0,1,0,1.5-11.53Z"/><path class="cls-4" d="M128,90.67a5.84,5.84,0,0,0-1.5.2,5.86,5.86,0,0,1,0,11.33A5.86,5.86,0,1,0,128,90.67Z"/><path class="cls-4" d="M159.47,90.67a5.84,5.84,0,0,0-1.5.2,5.86,5.86,0,0,1,0,11.33,5.86,5.86,0,1,0,1.5-11.53Z"/><path class="cls-4" d="M222.4,90.67a5.84,5.84,0,0,0-1.5.2,5.86,5.86,0,0,1,0,11.33,5.86,5.86,0,1,0,1.5-11.53Z"/><path class="cls-5" d="M190.93,90.67a5.84,5.84,0,0,0-1.5.2,5.86,5.86,0,0,1,0,11.33,5.86,5.86,0,1,0,1.5-11.53Z"/><path class="cls-5" d="M190.93,116.4a5.84,5.84,0,0,0-1.5.2,5.86,5.86,0,0,1,0,11.33,5.86,5.86,0,1,0,1.5-11.53Z"/><path class="cls-5" d="M190.93,142.13a5.84,5.84,0,0,0-1.5.2,5.86,5.86,0,0,1,0,11.33,5.86,5.86,0,1,0,1.5-11.53Z"/><path class="cls-5" d="M190.93,167.87a5.84,5.84,0,0,0-1.5.2,5.86,5.86,0,0,1,0,11.33,5.86,5.86,0,1,0,1.5-11.53Z"/><path class="cls-4" d="M96.53,116.4a5.84,5.84,0,0,0-1.5.2,5.86,5.86,0,0,1,0,11.33,5.86,5.86,0,1,0,1.5-11.53Z"/><path class="cls-4" d="M128,116.4a5.84,5.84,0,0,0-1.5.2,5.86,5.86,0,0,1,0,11.33A5.86,5.86,0,1,0,128,116.4Z"/><path class="cls-4" d="M159.47,116.4a5.84,5.84,0,0,0-1.5.2,5.86,5.86,0,0,1,0,11.33,5.86,5.86,0,1,0,1.5-11.53Z"/><path class="cls-4" d="M222.4,116.4a5.84,5.84,0,0,0-1.5.2,5.86,5.86,0,0,1,0,11.33,5.86,5.86,0,1,0,1.5-11.53Z"/><path class="cls-4" d="M96.53,142.13a5.84,5.84,0,0,0-1.5.2,5.86,5.86,0,0,1,0,11.33,5.86,5.86,0,1,0,1.5-11.53Z"/><path class="cls-4" d="M128,142.13a5.84,5.84,0,0,0-1.5.2,5.86,5.86,0,0,1,0,11.33,5.86,5.86,0,1,0,1.5-11.53Z"/><path class="cls-4" d="M159.47,142.13a5.84,5.84,0,0,0-1.5.2,5.86,5.86,0,0,1,0,11.33,5.86,5.86,0,1,0,1.5-11.53Z"/><path class="cls-4" d="M222.4,142.13a5.84,5.84,0,0,0-1.5.2,5.86,5.86,0,0,1,0,11.33,5.86,5.86,0,1,0,1.5-11.53Z"/><path class="cls-4" d="M96.53,167.87a5.84,5.84,0,0,0-1.5.2,5.86,5.86,0,0,1,0,11.33,5.86,5.86,0,1,0,1.5-11.53Z"/><path class="cls-6" d="M33.6,167.87a5.84,5.84,0,0,0-1.5.2,5.86,5.86,0,0,1,0,11.33,5.86,5.86,0,1,0,1.5-11.53Z"/><path class="cls-4" d="M96.53,193.6a5.84,5.84,0,0,0-1.5.2,5.86,5.86,0,0,1,0,11.33,5.86,5.86,0,1,0,1.5-11.53Z"/><path class="cls-4" d="M65.07,193.6a5.84,5.84,0,0,0-1.5.2,5.86,5.86,0,0,1,0,11.33,5.86,5.86,0,1,0,1.5-11.53Z"/><path class="cls-4" d="M65.07,142.13a5.84,5.84,0,0,0-1.5.2,5.86,5.86,0,0,1,0,11.33,5.86,5.86,0,1,0,1.5-11.53Z"/><path class="cls-4" d="M65.07,116.4a5.84,5.84,0,0,0-1.5.2,5.86,5.86,0,0,1,0,11.33,5.86,5.86,0,1,0,1.5-11.53Z"/><path class="cls-6" d="M33.6,193.6a5.84,5.84,0,0,0-1.5.2,5.86,5.86,0,0,1,0,11.33,5.86,5.86,0,1,0,1.5-11.53Z"/><path class="cls-6" d="M33.6,142.13a5.84,5.84,0,0,0-1.5.2,5.86,5.86,0,0,1,0,11.33,5.86,5.86,0,1,0,1.5-11.53Z"/><path class="cls-6" d="M33.6,116.4a5.84,5.84,0,0,0-1.5.2,5.86,5.86,0,0,1,0,11.33,5.86,5.86,0,1,0,1.5-11.53Z"/><path class="cls-4" d="M128,193.6a5.84,5.84,0,0,0-1.5.2,5.86,5.86,0,0,1,0,11.33A5.86,5.86,0,1,0,128,193.6Z"/><path class="cls-4" d="M159.47,193.6a5.84,5.84,0,0,0-1.5.2,5.86,5.86,0,0,1,0,11.33,5.86,5.86,0,1,0,1.5-11.53Z"/><path class="cls-4" d="M128,167.87a5.84,5.84,0,0,0-1.5.2,5.86,5.86,0,0,1,0,11.33,5.86,5.86,0,1,0,1.5-11.53Z"/><path class="cls-4" d="M159.47,167.87a5.84,5.84,0,0,0-1.5.2,5.86,5.86,0,0,1,0,11.33,5.86,5.86,0,1,0,1.5-11.53Z"/><path class="cls-4" d="M222.4,167.87a5.84,5.84,0,0,0-1.5.2,5.86,5.86,0,0,1,0,11.33,5.86,5.86,0,1,0,1.5-11.53Z"/><path class="cls-7" d="M236,42.5h-5.5V35a2.5,2.5,0,0,0-5,0v7.5h-35V35a2.5,2.5,0,0,0-5,0v7.5h-35V35a2.5,2.5,0,0,0-5,0v7.5h-35V35a2.5,2.5,0,0,0-5,0v7.5h-35V35a2.5,2.5,0,0,0-5,0v7.5h-35V35a2.5,2.5,0,0,0-5,0v7.5H20A12.51,12.51,0,0,0,7.5,55V211A12.51,12.51,0,0,0,20,223.5H236A12.51,12.51,0,0,0,248.5,211V55A12.51,12.51,0,0,0,236,42.5ZM243.5,211a7.51,7.51,0,0,1-7.5,7.5H20a7.51,7.51,0,0,1-7.5-7.5V55A7.51,7.51,0,0,1,20,47.5h5.5V55a2.5,2.5,0,1,0,5,0V47.5h35V55a2.5,2.5,0,1,0,5,0V47.5h35V55a2.5,2.5,0,1,0,5,0V47.5h35V55a2.5,2.5,0,1,0,5,0V47.5h35V55a2.5,2.5,0,1,0,5,0V47.5h35V55a2.5,2.5,0,1,0,5,0V47.5H236a7.51,7.51,0,0,1,7.5,7.5Z"/><path class="cls-7" d="M30,71.17H70a2.5,2.5,0,0,0,0-5H30a2.5,2.5,0,0,0,0,5Z"/><path class="cls-7" d="M90,71.17H226a2.5,2.5,0,0,0,0-5H90a2.5,2.5,0,0,0,0,5Z"/><path class="cls-7" d="M96.53,86.17A10.37,10.37,0,1,0,106.9,96.53,10.38,10.38,0,0,0,96.53,86.17Zm0,15.73a5.37,5.37,0,1,1,5.37-5.37A5.37,5.37,0,0,1,96.53,101.9Z"/><path class="cls-7" d="M128,86.17a10.37,10.37,0,1,0,10.37,10.37A10.38,10.38,0,0,0,128,86.17Zm0,15.73a5.37,5.37,0,1,1,5.37-5.37A5.37,5.37,0,0,1,128,101.9Z"/><path class="cls-7" d="M159.47,86.17a10.37,10.37,0,1,0,10.37,10.37A10.38,10.38,0,0,0,159.47,86.17Zm0,15.73a5.37,5.37,0,1,1,5.37-5.37A5.37,5.37,0,0,1,159.47,101.9Z"/><path class="cls-7" d="M190.93,86.17A10.37,10.37,0,1,0,201.3,96.53,10.38,10.38,0,0,0,190.93,86.17Zm0,15.73a5.37,5.37,0,1,1,5.37-5.37A5.37,5.37,0,0,1,190.93,101.9Z"/><path class="cls-7" d="M222.4,86.17a10.37,10.37,0,1,0,10.37,10.37A10.38,10.38,0,0,0,222.4,86.17Zm0,15.73a5.37,5.37,0,1,1,5.37-5.37A5.37,5.37,0,0,1,222.4,101.9Z"/><path class="cls-7" d="M33.6,111.9A10.37,10.37,0,1,0,44,122.27,10.38,10.38,0,0,0,33.6,111.9Zm0,15.73A5.37,5.37,0,1,1,39,122.27,5.37,5.37,0,0,1,33.6,127.63Z"/><path class="cls-7" d="M65.07,111.9a10.37,10.37,0,1,0,10.37,10.37A10.38,10.38,0,0,0,65.07,111.9Zm0,15.73a5.37,5.37,0,1,1,5.37-5.37A5.37,5.37,0,0,1,65.07,127.63Z"/><path class="cls-7" d="M96.53,111.9a10.37,10.37,0,1,0,10.37,10.37A10.38,10.38,0,0,0,96.53,111.9Zm0,15.73a5.37,5.37,0,1,1,5.37-5.37A5.37,5.37,0,0,1,96.53,127.63Z"/><path class="cls-7" d="M128,111.9a10.37,10.37,0,1,0,10.37,10.37A10.38,10.38,0,0,0,128,111.9Zm0,15.73a5.37,5.37,0,1,1,5.37-5.37A5.37,5.37,0,0,1,128,127.63Z"/><path class="cls-7" d="M159.47,111.9a10.37,10.37,0,1,0,10.37,10.37A10.38,10.38,0,0,0,159.47,111.9Zm0,15.73a5.37,5.37,0,1,1,5.37-5.37A5.37,5.37,0,0,1,159.47,127.63Z"/><path class="cls-7" d="M190.93,111.9a10.37,10.37,0,1,0,10.37,10.37A10.38,10.38,0,0,0,190.93,111.9Zm0,15.73a5.37,5.37,0,1,1,5.37-5.37A5.37,5.37,0,0,1,190.93,127.63Z"/><path class="cls-7" d="M222.4,111.9a10.37,10.37,0,1,0,10.37,10.37A10.38,10.38,0,0,0,222.4,111.9Zm0,15.73a5.37,5.37,0,1,1,5.37-5.37A5.37,5.37,0,0,1,222.4,127.63Z"/><path class="cls-7" d="M33.6,137.63A10.37,10.37,0,1,0,44,148,10.38,10.38,0,0,0,33.6,137.63Zm0,15.73A5.37,5.37,0,1,1,39,148,5.37,5.37,0,0,1,33.6,153.37Z"/><path class="cls-7" d="M65.07,137.63A10.37,10.37,0,1,0,75.43,148,10.38,10.38,0,0,0,65.07,137.63Zm0,15.73A5.37,5.37,0,1,1,70.43,148,5.37,5.37,0,0,1,65.07,153.37Z"/><path class="cls-7" d="M96.53,137.63A10.37,10.37,0,1,0,106.9,148,10.38,10.38,0,0,0,96.53,137.63Zm0,15.73A5.37,5.37,0,1,1,101.9,148,5.37,5.37,0,0,1,96.53,153.37Z"/><path class="cls-7" d="M128,137.63A10.37,10.37,0,1,0,138.37,148,10.38,10.38,0,0,0,128,137.63Zm0,15.73a5.37,5.37,0,1,1,5.37-5.37A5.37,5.37,0,0,1,128,153.37Z"/><path class="cls-7" d="M159.47,137.63A10.37,10.37,0,1,0,169.83,148,10.38,10.38,0,0,0,159.47,137.63Zm0,15.73a5.37,5.37,0,1,1,5.37-5.37A5.37,5.37,0,0,1,159.47,153.37Z"/><path class="cls-7" d="M190.93,137.63A10.37,10.37,0,1,0,201.3,148,10.38,10.38,0,0,0,190.93,137.63Zm0,15.73A5.37,5.37,0,1,1,196.3,148,5.37,5.37,0,0,1,190.93,153.37Z"/><path class="cls-7" d="M222.4,137.63A10.37,10.37,0,1,0,232.77,148,10.38,10.38,0,0,0,222.4,137.63Zm0,15.73a5.37,5.37,0,1,1,5.37-5.37A5.37,5.37,0,0,1,222.4,153.37Z"/><path class="cls-7" d="M33.6,163.37A10.37,10.37,0,1,0,44,173.73,10.38,10.38,0,0,0,33.6,163.37Zm0,15.73A5.37,5.37,0,1,1,39,173.73,5.37,5.37,0,0,1,33.6,179.1Z"/><path class="cls-7" d="M96.53,163.37a10.37,10.37,0,1,0,10.37,10.37A10.38,10.38,0,0,0,96.53,163.37Zm0,15.73a5.37,5.37,0,1,1,5.37-5.37A5.37,5.37,0,0,1,96.53,179.1Z"/><path class="cls-7" d="M128,163.37a10.37,10.37,0,1,0,10.37,10.37A10.38,10.38,0,0,0,128,163.37Zm0,15.73a5.37,5.37,0,1,1,5.37-5.37A5.37,5.37,0,0,1,128,179.1Z"/><path class="cls-7" d="M159.47,163.37a10.37,10.37,0,1,0,10.37,10.37A10.38,10.38,0,0,0,159.47,163.37Zm0,15.73a5.37,5.37,0,1,1,5.37-5.37A5.37,5.37,0,0,1,159.47,179.1Z"/><path class="cls-7" d="M190.93,163.37a10.37,10.37,0,1,0,10.37,10.37A10.38,10.38,0,0,0,190.93,163.37Zm0,15.73a5.37,5.37,0,1,1,5.37-5.37A5.37,5.37,0,0,1,190.93,179.1Z"/><path class="cls-7" d="M222.4,163.37a10.37,10.37,0,1,0,10.37,10.37A10.38,10.38,0,0,0,222.4,163.37Zm0,15.73a5.37,5.37,0,1,1,5.37-5.37A5.37,5.37,0,0,1,222.4,179.1Z"/><path class="cls-7" d="M57.74,181.06a2.5,2.5,0,0,0,3.54,0l3.8-3.79,3.8,3.79a2.5,2.5,0,0,0,3.54-3.54l-3.8-3.79,3.8-3.79a2.5,2.5,0,1,0-3.54-3.54l-3.8,3.79-3.8-3.79a2.5,2.5,0,1,0-3.54,3.54l3.8,3.79-3.8,3.79A2.5,2.5,0,0,0,57.74,181.06Z"/><path class="cls-7" d="M33.6,189.1A10.37,10.37,0,1,0,44,199.47,10.38,10.38,0,0,0,33.6,189.1Zm0,15.73A5.37,5.37,0,1,1,39,199.47,5.37,5.37,0,0,1,33.6,204.83Z"/><path class="cls-7" d="M65.07,189.1a10.37,10.37,0,1,0,10.37,10.37A10.38,10.38,0,0,0,65.07,189.1Zm0,15.73a5.37,5.37,0,1,1,5.37-5.37A5.37,5.37,0,0,1,65.07,204.83Z"/><path class="cls-7" d="M96.53,189.1a10.37,10.37,0,1,0,10.37,10.37A10.38,10.38,0,0,0,96.53,189.1Zm0,15.73a5.37,5.37,0,1,1,5.37-5.37A5.37,5.37,0,0,1,96.53,204.83Z"/><path class="cls-7" d="M128,189.1a10.37,10.37,0,1,0,10.37,10.37A10.38,10.38,0,0,0,128,189.1Zm0,15.73a5.37,5.37,0,1,1,5.37-5.37A5.37,5.37,0,0,1,128,204.83Z"/><path class="cls-7" d="M159.47,189.1a10.37,10.37,0,1,0,10.37,10.37A10.38,10.38,0,0,0,159.47,189.1Zm0,15.73a5.37,5.37,0,1,1,5.37-5.37A5.37,5.37,0,0,1,159.47,204.83Z"/><path class="cls-8" d="M149.57,16.8h-4v-4a1,1,0,1,0-2,0v4h-4a1,1,0,0,0,0,2h4v4a1,1,0,0,0,2,0v-4h4a1,1,0,0,0,0-2Z"/><path class="cls-3" d="M230.54,235.4h-4v-4a1,1,0,0,0-2,0v4h-4a1,1,0,0,0,0,2h4v4a1,1,0,0,0,2,0v-4h4a1,1,0,1,0,0-2Z"/><path class="cls-3" d="M66.53,24.85a6,6,0,1,1,6-6A6,6,0,0,1,66.53,24.85Zm0-10a4,4,0,1,0,4,4A4,4,0,0,0,66.53,14.85Z"/><path class="cls-3" d="M194.87,29.8a6,6,0,1,1,6-6A6,6,0,0,1,194.87,29.8Zm0-10a4,4,0,1,0,4,4A4,4,0,0,0,194.87,19.8Z"/><path class="cls-8" d="M138.37,245a6,6,0,1,1,6-6A6,6,0,0,1,138.37,245Zm0-10a4,4,0,1,0,4,4A4,4,0,0,0,138.37,235Z"/><path class="cls-3" d="M32.5,236.45H29.91l1.83-1.83a1,1,0,0,0-1.41-1.41L28.5,235v-2.59a1,1,0,0,0-2,0V235l-1.83-1.83a1,1,0,0,0-1.41,1.41l1.83,1.83H22.5a1,1,0,0,0,0,2h2.59l-1.83,1.83a1,1,0,0,0,1.41,1.41l1.83-1.83v2.59a1,1,0,1,0,2,0v-2.59l1.83,1.83a1,1,0,0,0,1.41-1.41l-1.83-1.83H32.5a1,1,0,1,0,0-2Z"/></svg>