<?xml version="1.0" ?><svg data-name="Layer 1" id="Layer_1" viewBox="0 0 256 256" xmlns="http://www.w3.org/2000/svg"><defs><style>.cls-1{fill:#eb5639;}.cls-2{fill:#40bdff;}.cls-3{fill:#2197f7;}.cls-4{fill:#d84936;}.cls-5{fill:#263238;}.cls-6{fill:#fd0;}</style></defs><title/><path class="cls-1" d="M222.11,123.4h2.79a13.17,13.17,0,1,0-2.85,0Z"/><path class="cls-2" d="M137.65,127.38H126.35A31.69,31.69,0,0,0,94.7,159v9.29H169.3V159A31.69,31.69,0,0,0,137.65,127.38Z"/><path class="cls-1" d="M44.33,127.4H36.71A20.73,20.73,0,0,0,16,148.11v5.62H65v-5.62A20.73,20.73,0,0,0,44.33,127.4Z"/><path class="cls-1" d="M27.36,110.31A13.14,13.14,0,0,0,39.1,123.39h2.85a13.17,13.17,0,1,0-14.59-13.09Z"/><path class="cls-1" d="M227.29,127.4h-7.62A20.73,20.73,0,0,0,199,148.11v5.62h49v-5.62A20.73,20.73,0,0,0,227.29,127.4Z"/><path class="cls-2" d="M111.52,103a20.43,20.43,0,0,0,18.36,20.36h4.29A20.47,20.47,0,1,0,111.52,103Z"/><path class="cls-1" d="M222.11,123.4h2.79a13.17,13.17,0,1,0-2.85,0Z"/><path class="cls-1" d="M227.29,127.4h-7.62A20.73,20.73,0,0,0,199,148.11v5.62h49v-5.62A20.73,20.73,0,0,0,227.29,127.4Z"/><path class="cls-3" d="M137.65,127.38h-9A31.69,31.69,0,0,1,160.3,159v9.29h9V159A31.69,31.69,0,0,0,137.65,127.38Z"/><path class="cls-4" d="M44.33,127.4H36.71c-.23,0-.46,0-.69,0a20.72,20.72,0,0,1,20,20.68v5.62h9v-5.62A20.73,20.73,0,0,0,44.33,127.4Z"/><path class="cls-4" d="M40.52,97.14a13.08,13.08,0,0,0-4.5.81,13.15,13.15,0,0,1,0,24.72,13.19,13.19,0,0,0,3.08.72h2.85a13.16,13.16,0,0,0-1.42-26.25Z"/><path class="cls-4" d="M227.29,127.4h-7.62c-.23,0-.46,0-.69,0a20.72,20.72,0,0,1,20,20.68v5.62h9v-5.62A20.73,20.73,0,0,0,227.29,127.4Z"/><path class="cls-4" d="M223.48,97.14a13.08,13.08,0,0,0-4.5.81,13.15,13.15,0,0,1,0,24.72,13.19,13.19,0,0,0,3.08.72h2.85a13.16,13.16,0,0,0-1.42-26.25Z"/><path class="cls-3" d="M132,82.54a20.42,20.42,0,0,0-4.5.51,20.46,20.46,0,0,1,0,39.92,20.84,20.84,0,0,0,2.37.4h4.29A20.47,20.47,0,0,0,132,82.54Z"/><path class="cls-5" d="M153,103a25,25,0,1,0-38.78,20.8A36.21,36.21,0,0,0,86.2,159v11.29a2.5,2.5,0,0,0,2.5,2.5H167.3a2.5,2.5,0,0,0,2.5-2.5V159a36.21,36.21,0,0,0-28-35.22A25,25,0,0,0,153,103Zm11.83,56v8.79H91.2V159a31.19,31.19,0,0,1,31.16-31.16h11.29A31.19,31.19,0,0,1,164.8,159Zm-34.69-36.16h-4.23a20,20,0,1,1,4.23,0Z"/><path class="cls-5" d="M47.68,124a17.67,17.67,0,1,0-22.31,0A25.25,25.25,0,0,0,7.5,148.11v7.62a2.5,2.5,0,0,0,2.5,2.5H63a2.5,2.5,0,0,0,2.5-2.5v-7.62A25.25,25.25,0,0,0,47.68,124ZM23.86,110.31a12.67,12.67,0,1,1,14,12.59H35.15A12.68,12.68,0,0,1,23.86,110.31Zm36.69,42.92h-48v-5.12A20.23,20.23,0,0,1,32.71,127.9h7.62a20.23,20.23,0,0,1,20.21,20.21Z"/><path class="cls-5" d="M230.63,124a17.67,17.67,0,1,0-22.31,0,25.25,25.25,0,0,0-17.87,24.12v7.62a2.5,2.5,0,0,0,2.5,2.5h53a2.5,2.5,0,0,0,2.5-2.5v-7.62A25.25,25.25,0,0,0,230.63,124Zm-23.82-13.68a12.67,12.67,0,1,1,14,12.59h-2.74A12.68,12.68,0,0,1,206.81,110.31Zm36.69,42.92h-48v-5.12a20.23,20.23,0,0,1,20.21-20.21h7.62a20.23,20.23,0,0,1,20.21,20.21Z"/><path class="cls-5" d="M104,62.44a2.5,2.5,0,0,0-2.5-2.5H71.6a2.5,2.5,0,0,0-2.5,2.5V92.35a2.5,2.5,0,0,0,5,0V64.94h27.41A2.5,2.5,0,0,0,104,62.44Z"/><path class="cls-5" d="M184.4,59.94H154.49a2.5,2.5,0,0,0,0,5H181.9V92.35a2.5,2.5,0,0,0,5,0V62.44A2.5,2.5,0,0,0,184.4,59.94Z"/><path class="cls-5" d="M101.51,185.93H74.1V158.51a2.5,2.5,0,0,0-5,0v29.91a2.5,2.5,0,0,0,2.5,2.5h29.91a2.5,2.5,0,1,0,0-5Z"/><path class="cls-5" d="M184.4,156a2.5,2.5,0,0,0-2.5,2.5v27.41H154.49a2.5,2.5,0,0,0,0,5H184.4a2.5,2.5,0,0,0,2.5-2.5V158.51A2.5,2.5,0,0,0,184.4,156Z"/><path class="cls-2" d="M76.74,32.19v4h-4a1,1,0,0,0,0,2h4v4a1,1,0,1,0,2,0v-4h4a1,1,0,0,0,0-2h-4v-4a1,1,0,0,0-2,0Z"/><path class="cls-6" d="M20.13,43v4h-4a1,1,0,1,0,0,2h4v4a1,1,0,1,0,2,0V49h4a1,1,0,0,0,0-2h-4V43a1,1,0,0,0-2,0Z"/><path class="cls-2" d="M231.53,215.83a6,6,0,1,1-6-6A6,6,0,0,1,231.53,215.83Zm-10,0a4,4,0,1,0,4-4A4,4,0,0,0,221.53,215.83Z"/><path class="cls-6" d="M159.65,33.37a6,6,0,1,1-6-6A6,6,0,0,1,159.65,33.37Zm-10,0a4,4,0,1,0,4-4A4,4,0,0,0,149.65,33.37Z"/><path class="cls-2" d="M56.67,207.46H54.08l1.83-1.83a1,1,0,0,0-1.41-1.41L52.67,206v-2.59a1,1,0,0,0-2,0V206l-1.83-1.83a1,1,0,0,0-1.41,1.41l1.83,1.83H46.67a1,1,0,0,0,0,2h2.59l-1.83,1.83a1,1,0,0,0,1.41,1.41l1.83-1.83v2.59a1,1,0,0,0,2,0v-2.59l1.83,1.83a1,1,0,0,0,1.41-1.41l-1.83-1.83h2.59a1,1,0,1,0,0-2Z"/></svg>