<?xml version="1.0" ?><svg data-name="Layer 1" id="Layer_1" viewBox="0 0 256 256" xmlns="http://www.w3.org/2000/svg"><defs><style>.cls-1{fill:#40bdff;}.cls-2{fill:#2197f7;}.cls-3{fill:#effafe;}.cls-4{fill:#e4ebed;}.cls-5{fill:#fd0;}.cls-6{fill:#263238;}</style></defs><title/><path class="cls-1" d="M208.46,164.92A39.54,39.54,0,1,0,248,204.46,39.59,39.59,0,0,0,208.46,164.92ZM180,216.86,193.82,203a2,2,0,0,1,1.41-.59h17.62l9.81-9.81h-9a2,2,0,0,1,0-4h13.81a2,2,0,0,1,2,2v13.81a2,2,0,0,1-4,0v-9l-10.4,10.4a2,2,0,0,1-1.41.59H196.06l-13.22,13.22a2,2,0,0,1-2.83,0A2,2,0,0,1,180,216.86Z"/><path class="cls-1" d="M16,204.46a39.54,39.54,0,1,0,39.54-39.54A39.59,39.59,0,0,0,16,204.46Zm65.44-9.09-7.13,4.12.07.35a22.87,22.87,0,0,1,0,9.24l-.07.35,7.13,4.12a2,2,0,0,1,.73,2.73l-5.07,8.79a2,2,0,0,1-2.73.73l-7.14-4.12-.27.24a23.11,23.11,0,0,1-8,4.62l-.34.11v8.25a2,2,0,0,1-2,2H46.47a2,2,0,0,1-2-2v-8.25l-.34-.11a23.12,23.12,0,0,1-8-4.62l-.27-.24-7.14,4.12a2,2,0,0,1-2.73-.73l-5.07-8.79a2,2,0,0,1,.73-2.73l7.13-4.12-.07-.35a22.87,22.87,0,0,1,0-9.24l.07-.35-7.13-4.12a2,2,0,0,1-.73-2.73L26,183.85a2,2,0,0,1,2.73-.73l7.14,4.12.27-.24a23.08,23.08,0,0,1,8-4.62l.34-.11V174a2,2,0,0,1,2-2H56.61a2,2,0,0,1,2,2v8.25l.34.11A23.08,23.08,0,0,1,67,187l.27.24,7.14-4.12a2,2,0,0,1,2.73.73l5.07,8.79A2,2,0,0,1,81.44,195.37Z"/><path class="cls-2" d="M55.54,164.92a39.69,39.69,0,0,0-5,.33,39.53,39.53,0,0,1,0,78.43,39.54,39.54,0,1,0,5-78.75Z"/><path class="cls-2" d="M208.46,164.92a39.69,39.69,0,0,0-5,.33,39.53,39.53,0,0,1,0,78.43,39.54,39.54,0,1,0,5-78.75Z"/><path class="cls-3" d="M134.87,66.92h0a27.55,27.55,0,1,0-5.74,0Z"/><path class="cls-3" d="M81.35,113.16V126h99.31V113.16a42.28,42.28,0,0,0-42.23-42.23H123.58A42.28,42.28,0,0,0,81.35,113.16Z"/><path class="cls-4" d="M132,12a27.63,27.63,0,0,0-4,.29,27.53,27.53,0,0,1,0,54.48l1.14.15h5.74A27.54,27.54,0,0,0,132,12Z"/><path class="cls-4" d="M138.42,70.92h-8a42.28,42.28,0,0,1,42.23,42.23V126h8V113.16A42.28,42.28,0,0,0,138.42,70.92Z"/><path class="cls-1" d="M51.54,195.3a9.16,9.16,0,1,0,9.16,9.16A9.17,9.17,0,0,0,51.54,195.3Z"/><path class="cls-5" d="M67.91,191.46a2,2,0,0,1-2.44-.35,19.23,19.23,0,0,0-9.33-5.38,2,2,0,0,1-1.52-1.94V176H48.47v7.77a2,2,0,0,1-1.52,1.94,19.23,19.23,0,0,0-9.33,5.38,2,2,0,0,1-2.44.35l-6.72-3.88-3.07,5.32,6.72,3.88a2,2,0,0,1,.92,2.29,19,19,0,0,0,0,10.78,2,2,0,0,1-.92,2.29L25.38,216l3.07,5.32,6.72-3.88a2,2,0,0,1,2.44.35,19.23,19.23,0,0,0,9.33,5.38,2,2,0,0,1,1.52,1.94v7.76h6.15v-7.76a2,2,0,0,1,1.52-1.94,19.23,19.23,0,0,0,9.33-5.38,2,2,0,0,1,2.44-.35l6.72,3.88L77.71,216,71,212.14a2,2,0,0,1-.92-2.29,19,19,0,0,0,0-10.78,2,2,0,0,1,.92-2.29l6.72-3.88-3.07-5.32Zm-3.21,13A13.16,13.16,0,1,1,51.54,191.3,13.18,13.18,0,0,1,64.7,204.46Z"/><path class="cls-6" d="M204.46,160.42a43.86,43.86,0,0,0-29.3,11.2L134,130.5h45.62a2.5,2.5,0,0,0,2.5-2.5V113.16a46.8,46.8,0,0,0-38.09-45.92,32,32,0,1,0-32.13,0,46.8,46.8,0,0,0-38.09,45.92V128a2.5,2.5,0,0,0,2.5,2.5H122L80.85,171.62a44.11,44.11,0,1,0,3.54,3.54L128,131.54l43.62,43.62a44,44,0,1,0,32.84-14.74Zm-113.88,44a39,39,0,1,1-39-39A39.09,39.09,0,0,1,90.58,204.46ZM101,39.54a27,27,0,1,1,29.88,26.89h-5.69A27.07,27.07,0,0,1,101,39.54Zm-22.12,86V113.16a41.78,41.78,0,0,1,41.73-41.73h14.84a41.78,41.78,0,0,1,41.73,41.73V125.5Zm125.61,118a39,39,0,1,1,39-39A39.09,39.09,0,0,1,204.46,243.5Z"/><path class="cls-6" d="M51.54,190.8A13.66,13.66,0,1,0,65.2,204.46,13.68,13.68,0,0,0,51.54,190.8Zm0,22.32a8.66,8.66,0,1,1,8.66-8.66A8.67,8.67,0,0,1,51.54,213.12Z"/><path class="cls-6" d="M74.12,182.68l-6.83,3.94a23.69,23.69,0,0,0-8.17-4.72V174a2.5,2.5,0,0,0-2.5-2.5H46.47A2.5,2.5,0,0,0,44,174v7.89a23.69,23.69,0,0,0-8.17,4.72L29,182.68a2.5,2.5,0,0,0-3.42.92l-5.07,8.79a2.5,2.5,0,0,0,.92,3.42l6.82,3.94a23.37,23.37,0,0,0,0,9.44l-6.82,3.94a2.5,2.5,0,0,0-.92,3.42l5.07,8.79a2.5,2.5,0,0,0,3.42.92l6.83-3.94A23.71,23.71,0,0,0,44,227v7.89a2.5,2.5,0,0,0,2.5,2.5H56.61a2.5,2.5,0,0,0,2.5-2.5V227a23.7,23.7,0,0,0,8.17-4.72l6.83,3.94a2.5,2.5,0,0,0,3.42-.92l5.07-8.79a2.5,2.5,0,0,0-.92-3.42l-6.82-3.94a23.37,23.37,0,0,0,0-9.44l6.82-3.94a2.5,2.5,0,0,0,.92-3.42l-5.07-8.79A2.5,2.5,0,0,0,74.12,182.68Zm-3.38,13.67a2.5,2.5,0,0,0-1.15,2.86,18.54,18.54,0,0,1,0,10.5,2.5,2.5,0,0,0,1.15,2.86L77,216.2l-2.57,4.46L68.16,217a2.5,2.5,0,0,0-3.05.43A18.74,18.74,0,0,1,56,222.71a2.5,2.5,0,0,0-1.91,2.43v7.26H49v-7.26a2.5,2.5,0,0,0-1.91-2.43A18.74,18.74,0,0,1,38,217.46a2.5,2.5,0,0,0-3.05-.43l-6.29,3.63-2.57-4.46,6.28-3.63a2.5,2.5,0,0,0,1.15-2.86,18.55,18.55,0,0,1,0-10.5,2.5,2.5,0,0,0-1.15-2.86l-6.28-3.63,2.57-4.46,6.29,3.63a2.5,2.5,0,0,0,3.05-.43,18.73,18.73,0,0,1,9.09-5.24A2.5,2.5,0,0,0,49,183.79v-7.27h5.15v7.27A2.5,2.5,0,0,0,56,186.21a18.73,18.73,0,0,1,9.09,5.24,2.5,2.5,0,0,0,3.05.43l6.29-3.63L77,192.72Z"/><path class="cls-6" d="M227.5,188.15H213.68a2.5,2.5,0,0,0,0,5h7.77L212.65,202H195.23a2.5,2.5,0,0,0-1.77.73L179.66,216.5a2.5,2.5,0,1,0,3.54,3.54L196.27,207h17.41a2.5,2.5,0,0,0,1.77-.73l9.54-9.54v7.77a2.5,2.5,0,0,0,5,0V190.65A2.5,2.5,0,0,0,227.5,188.15Z"/><path class="cls-5" d="M213.46,33.64h-4v-4a1,1,0,0,0-2,0v4h-4a1,1,0,0,0,0,2h4v4a1,1,0,0,0,2,0v-4h4a1,1,0,0,0,0-2Z"/><path class="cls-5" d="M55.7,131h-4v-4a1,1,0,0,0-2,0v4h-4a1,1,0,0,0,0,2h4v4a1,1,0,0,0,2,0v-4h4a1,1,0,0,0,0-2Z"/><path class="cls-1" d="M76.2,72.49h-4v-4a1,1,0,0,0-2,0v4h-4a1,1,0,0,0,0,2h4v4a1,1,0,0,0,2,0v-4h4a1,1,0,0,0,0-2Z"/><path class="cls-1" d="M148.83,234h-4v-4a1,1,0,0,0-2,0v4h-4a1,1,0,0,0,0,2h4v4a1,1,0,1,0,2,0v-4h4a1,1,0,0,0,0-2Z"/><path class="cls-1" d="M200,94.49a6,6,0,1,1,6-6A6,6,0,0,1,200,94.49Zm0-10a4,4,0,1,0,4,4A4,4,0,0,0,200,84.49Z"/><path class="cls-1" d="M174.92,26a6,6,0,1,1,6-6A6,6,0,0,1,174.92,26Zm0-10a4,4,0,1,0,4,4A4,4,0,0,0,174.92,16Z"/><path class="cls-5" d="M112,192a6,6,0,1,1,6-6A6,6,0,0,1,112,192Zm0-10a4,4,0,1,0,4,4A4,4,0,0,0,112,182Z"/><path class="cls-1" d="M207.46,140.46h-2.59l1.83-1.83a1,1,0,0,0-1.41-1.41L203.46,139v-2.59a1,1,0,1,0-2,0V139l-1.83-1.83a1,1,0,0,0-1.41,1.41l1.83,1.83h-2.59a1,1,0,0,0,0,2H200l-1.83,1.83a1,1,0,0,0,1.41,1.41l1.83-1.83v2.59a1,1,0,0,0,2,0v-2.59l1.83,1.83a1,1,0,0,0,1.41-1.41l-1.83-1.83h2.59a1,1,0,0,0,0-2Z"/></svg>