<?xml version="1.0" ?><svg data-name="Layer 1" id="Layer_1" viewBox="0 0 256 256" xmlns="http://www.w3.org/2000/svg"><defs><style>.cls-1{fill:#eb5639;}.cls-2{fill:#d84936;}.cls-3{fill:#effafe;}.cls-4{fill:#fd0;}.cls-5{fill:#40bdff;}.cls-6{fill:#e4ebed;}.cls-7{fill:#263238;}</style></defs><title/><path class="cls-1" d="M217.82,72.95c-26.57,0-41.15,32.68-20.24,52.57h40.47C258.95,105.65,244.42,72.95,217.82,72.95Z"/><path class="cls-2" d="M217.82,72.95a31.2,31.2,0,0,0-5,.4,30.22,30.22,0,0,1,15.23,52.17h10C258.95,105.65,244.42,72.95,217.82,72.95Z"/><path class="cls-3" d="M214.76,111.8h0a8.76,8.76,0,1,0-1.9,0Z"/><path class="cls-3" d="M230.49,128.27a14.1,14.1,0,0,0-14-12.47h-5.4a14.1,14.1,0,0,0-14,12.47A30.24,30.24,0,0,0,230.49,128.27Z"/><path class="cls-4" d="M103.07,132a40.91,40.91,0,0,0,64.19-8.15c16.06-27.24-3.64-61.68-35.26-61.68C95.75,62.22,77.31,106.29,103.07,132Z"/><path class="cls-3" d="M130.7,115.8h-5.4a14.1,14.1,0,0,0-14,12.46,30,30,0,0,0,33.35,0A14.11,14.11,0,0,0,130.7,115.8Z"/><path class="cls-3" d="M129,111.8h0a8.76,8.76,0,1,0-1.9,0Z"/><path class="cls-5" d="M148.23,125.5l.59-.57a30.17,30.17,0,0,0-20.83-52,30.22,30.22,0,0,0-30.19,30.19,29.92,29.92,0,0,0,9.36,21.82l.59.57.23-.79A18.08,18.08,0,0,1,118.87,113l.73-.28-.55-.55a12.74,12.74,0,1,1,17.91,0l-.55.55.73.28A18.08,18.08,0,0,1,148,124.72Zm1.22-20.39a2,2,0,0,1-2-2A19.46,19.46,0,0,0,128,83.66a2,2,0,0,1,0-4,23.46,23.46,0,0,1,23.46,23.46A2,2,0,0,1,149.46,105.12Z"/><path class="cls-1" d="M46.19,72.95C19.61,72.95,5,105.63,26,125.52H66.42C87.31,105.65,72.79,72.95,46.19,72.95Z"/><path class="cls-2" d="M46.19,72.95a31.2,31.2,0,0,0-5,.4,30.22,30.22,0,0,1,15.23,52.17h10C87.31,105.65,72.79,72.95,46.19,72.95Z"/><path class="cls-3" d="M43.14,111.8h0a8.76,8.76,0,1,0-1.9,0Z"/><path class="cls-3" d="M25.51,128.27a30.24,30.24,0,0,0,33.36,0,14.11,14.11,0,0,0-14-12.47h-5.4A14.1,14.1,0,0,0,25.51,128.27Z"/><path class="cls-6" d="M42.19,94.37a8.71,8.71,0,0,0-2,.24,8.73,8.73,0,0,1,0,17,9,9,0,0,0,1.06.19h1.9a8.74,8.74,0,0,0-1-17.43Z"/><path class="cls-6" d="M44.89,115.8h-4a14.11,14.11,0,0,1,14,12.47,30.72,30.72,0,0,1-14.77,4.94,30.52,30.52,0,0,0,18.77-4.94A14.11,14.11,0,0,0,44.89,115.8Z"/><path class="cls-6" d="M128,94.37a8.71,8.71,0,0,0-2,.24,8.73,8.73,0,0,1,0,17,9,9,0,0,0,1.06.19H129a8.74,8.74,0,0,0-1-17.43Z"/><path class="cls-6" d="M130.7,115.8h-4a14.11,14.11,0,0,1,14,12.47,30.72,30.72,0,0,1-14.77,4.94,30.52,30.52,0,0,0,18.77-4.94A14.11,14.11,0,0,0,130.7,115.8Z"/><path class="cls-6" d="M213.81,94.37a8.71,8.71,0,0,0-2,.24,8.73,8.73,0,0,1,0,17,9,9,0,0,0,1.06.19h1.9a8.74,8.74,0,0,0-1-17.43Z"/><path class="cls-6" d="M216.51,115.8h-4a14.11,14.11,0,0,1,14,12.47,30.72,30.72,0,0,1-14.77,4.94,30.52,30.52,0,0,0,18.77-4.94A14.11,14.11,0,0,0,216.51,115.8Z"/><path class="cls-4" d="M216.1,191.22a8.72,8.72,0,0,0,0-12.34l-50.77-50.77A45.93,45.93,0,0,1,153,140.45l50.77,50.77A8.72,8.72,0,0,0,216.1,191.22Z"/><path class="cls-7" d="M128,57.72c-40.23,0-60.7,48.92-32.11,77.51a45.34,45.34,0,0,0,53.47,8l51.22,51.22a13.23,13.23,0,0,0,18.71-18.71l-51.2-51.2C184.17,94.34,162.3,57.72,128,57.72Zm87.75,121.51a8.23,8.23,0,1,1-11.64,11.64l-50.35-50.35a46.46,46.46,0,0,0,11.64-11.64Zm-52.93-55.58a40.44,40.44,0,0,1-63.4,8c-25.41-25.41-7.26-69,28.58-69C159.21,62.72,178.7,96.72,162.82,123.65Z"/><path class="cls-7" d="M128,79.16a2.5,2.5,0,0,0,0,5,19,19,0,0,1,19,19,2.5,2.5,0,0,0,5,0,24,24,0,0,0-24-24Z"/><path class="cls-7" d="M128,68.43a34.73,34.73,0,0,0-34.69,34.69c0,45.14,69.37,45.54,69.37,0A34.73,34.73,0,0,0,128,68.43ZM111.86,128A13.53,13.53,0,0,1,125.3,116.3h5.4A13.53,13.53,0,0,1,144.14,128,29.61,29.61,0,0,1,111.86,128Zm7.9-24.9a8.24,8.24,0,1,1,9.17,8.19h-1.85A8.25,8.25,0,0,1,119.76,103.12Zm28.72,21.46a18.48,18.48,0,0,0-11.17-12.05,13.24,13.24,0,1,0-18.62,0,18.48,18.48,0,0,0-11.17,12.05,29.69,29.69,0,1,1,41,0Z"/><path class="cls-7" d="M189.29,127.64a34.71,34.71,0,0,0,49.05,0c21.84-21.84,6.17-59.21-24.53-59.21S167.42,105.78,189.29,127.64Zm8.39.38a13.53,13.53,0,0,1,13.44-11.72h5.4A13.53,13.53,0,0,1,230,128,29.76,29.76,0,0,1,197.67,128Zm7.9-24.91a8.24,8.24,0,1,1,9.17,8.19h-1.85A8.25,8.25,0,0,1,205.57,103.12Zm8.24-29.67c26.6,0,39.88,32.64,20.48,51.15a18.48,18.48,0,0,0-11.18-12.07,13.24,13.24,0,1,0-18.62,0,18.48,18.48,0,0,0-11.18,12.07C173.93,106.08,187.22,73.45,213.81,73.45Z"/><path class="cls-7" d="M66.71,127.64a34.69,34.69,0,1,0-49.05,0A34.73,34.73,0,0,0,66.71,127.64ZM26,128A13.53,13.53,0,0,1,39.49,116.3h5.4A13.53,13.53,0,0,1,58.33,128,29.76,29.76,0,0,1,26,128Zm7.9-24.91a8.24,8.24,0,1,1,9.17,8.19H41.26A8.25,8.25,0,0,1,33.94,103.12Zm8.24-29.67c26.62,0,39.87,32.65,20.48,51.15A18.48,18.48,0,0,0,51.5,112.52a13.24,13.24,0,1,0-18.62,0A18.48,18.48,0,0,0,21.7,124.59C2.31,106.08,15.6,73.45,42.19,73.45Z"/><path class="cls-4" d="M38.44,172.63h-4v-4a1,1,0,0,0-2,0v4h-4a1,1,0,0,0,0,2h4v4a1,1,0,0,0,2,0v-4h4a1,1,0,1,0,0-2Z"/><path class="cls-4" d="M51.68,23h-4V19a1,1,0,1,0-2,0v4h-4a1,1,0,1,0,0,2h4v4a1,1,0,0,0,2,0V25h4a1,1,0,0,0,0-2Z"/><path class="cls-5" d="M28,60.41H24v-4a1,1,0,1,0-2,0v4H18a1,1,0,1,0,0,2h4v4a1,1,0,0,0,2,0v-4h4a1,1,0,0,0,0-2Z"/><path class="cls-5" d="M239.56,183.47h-4v-4a1,1,0,0,0-2,0v4h-4a1,1,0,0,0,0,2h4v4a1,1,0,0,0,2,0v-4h4a1,1,0,0,0,0-2Z"/><path class="cls-5" d="M89.25,36.93a6,6,0,1,1,6-6A6,6,0,0,1,89.25,36.93Zm0-10a4,4,0,1,0,4,4A4,4,0,0,0,89.25,26.93Z"/><path class="cls-4" d="M131.5,174a6,6,0,1,1,6-6A6,6,0,0,1,131.5,174Zm0-10a4,4,0,1,0,4,4A4,4,0,0,0,131.5,164Z"/><path class="cls-4" d="M215.18,61.09a6,6,0,1,1,6-6A6,6,0,0,1,215.18,61.09Zm0-10a4,4,0,1,0,4,4A4,4,0,0,0,215.18,51.09Z"/><path class="cls-5" d="M153,25h-2.59l1.83-1.83a1,1,0,0,0-1.41-1.41L149,23.59V21a1,1,0,0,0-2,0v2.59l-1.83-1.83a1,1,0,0,0-1.41,1.41L145.59,25H143a1,1,0,0,0,0,2h2.59l-1.83,1.83a1,1,0,0,0,1.41,1.41L147,28.41V31a1,1,0,0,0,2,0V28.41l1.83,1.83a1,1,0,0,0,1.41-1.41L150.41,27H153a1,1,0,0,0,0-2Z"/><path class="cls-5" d="M75.36,147H72.77l1.83-1.83a1,1,0,0,0-1.41-1.41l-1.83,1.83V143a1,1,0,0,0-2,0v2.59l-1.83-1.83a1,1,0,0,0-1.41,1.41L67.95,147H65.36a1,1,0,0,0,0,2h2.59l-1.83,1.83a1,1,0,0,0,1.41,1.41l1.83-1.83V153a1,1,0,0,0,2,0v-2.59l1.83,1.83a1,1,0,0,0,1.41-1.41L72.77,149h2.59a1,1,0,0,0,0-2Z"/></svg>