<?xml version="1.0" ?><svg data-name="Layer 1" id="Layer_1" viewBox="0 0 256 256" xmlns="http://www.w3.org/2000/svg"><defs><style>.cls-1{fill:#40bdff;}.cls-2{fill:#effafe;}.cls-3{fill:#2197f7;}.cls-4{fill:#e4ebed;}.cls-5{fill:#263238;}.cls-6{fill:#fd0;}</style></defs><title/><path class="cls-1" d="M208.32,123.39H55.68L23.52,223.81h217Z"/><path class="cls-2" d="M134.37,197.29H121.63a35.92,35.92,0,0,0-36,36V244h84.68V233.26a35.93,35.93,0,0,0-36-36Z"/><path class="cls-2" d="M174.34,98.55a36,36,0,0,0-36-36H125.63a36,36,0,0,0-36,36V109.3h84.68Z"/><path class="cls-2" d="M129.58,58.58h4.9a23.37,23.37,0,1,0-4.9,0Z"/><path class="cls-2" d="M130.42,193.29h0a23.37,23.37,0,1,0-4.84,0Z"/><path class="cls-3" d="M208.32,123.39h-8l32.16,100.42h8Z"/><path class="cls-4" d="M169.65,226.2a36,36,0,0,0-35.28-28.91h-5a35.93,35.93,0,0,1,36,36V244h5V233.26A36.22,36.22,0,0,0,169.65,226.2Z"/><path class="cls-4" d="M138.37,62.58h-8a36,36,0,0,1,36,36V109.3h8V98.55A36,36,0,0,0,138.37,62.58Z"/><path class="cls-4" d="M132,12a23.38,23.38,0,0,0-4,.35,23.34,23.34,0,0,1,0,46c.52.09,1,.18,1.56.24h4.9A23.36,23.36,0,0,0,132,12Z"/><path class="cls-4" d="M128,146.7a23.49,23.49,0,0,0-2.5.14,23.35,23.35,0,0,1,0,46.44h4.93A23.36,23.36,0,0,0,128,146.7Z"/><path class="cls-5" d="M66.94,113.8H189.06a2.5,2.5,0,1,0,0-5H174.84V98.55A40.54,40.54,0,0,0,142.76,59a27.86,27.86,0,1,0-29.52,0A40.54,40.54,0,0,0,81.16,98.55V108.8H66.94a2.5,2.5,0,0,0,0,5Zm38.2-78.44a22.86,22.86,0,1,1,25.28,22.73h-4.85A22.89,22.89,0,0,1,105.14,35.36Zm-19,63.2a35.51,35.51,0,0,1,35.47-35.47h12.74a35.51,35.51,0,0,1,35.47,35.47V108.8H86.16Z"/><path class="cls-5" d="M241.6,225,208.16,120.63a2.5,2.5,0,0,0-2.38-1.74H50.22a2.5,2.5,0,0,0-2.38,1.74L14.4,225a2.5,2.5,0,0,0,2.38,3.26H81.47a41,41,0,0,0-.31,4.95V246a2.5,2.5,0,0,0,2.5,2.5h88.68a2.5,2.5,0,0,0,2.5-2.5V233.26a41,41,0,0,0-.31-4.95h64.69A2.5,2.5,0,0,0,241.6,225ZM169.84,243.5H86.16V233.26a35.42,35.42,0,0,1,35.47-35.47h12.74a35.42,35.42,0,0,1,35.47,35.47Zm-64.7-73.44a22.86,22.86,0,1,1,25.25,22.73h-4.79A22.89,22.89,0,0,1,105.14,170.06Zm68.46,53.25a40.62,40.62,0,0,0-30.85-29.64,27.86,27.86,0,1,0-29.51,0,40.62,40.62,0,0,0-30.85,29.64H20.21L52,123.89H204l31.84,99.42Z"/><path class="cls-6" d="M86.15,12.19v4h-4a1,1,0,0,0,0,2h4v4a1,1,0,0,0,2,0v-4h4a1,1,0,0,0,0-2h-4v-4a1,1,0,1,0-2,0Z"/><path class="cls-6" d="M33,89.2v4H29a1,1,0,0,0,0,2h4v4a1,1,0,0,0,2,0v-4h4a1,1,0,0,0,0-2H35v-4a1,1,0,0,0-2,0Z"/><path class="cls-1" d="M52,46a6,6,0,1,1-6-6A6,6,0,0,1,52,46ZM42,46a4,4,0,1,0,4-4A4,4,0,0,0,42,46Z"/><path class="cls-1" d="M239.61,156.4a6,6,0,1,1-6-6A6,6,0,0,1,239.61,156.4Zm-10,0a4,4,0,1,0,4-4A4,4,0,0,0,229.61,156.4Z"/><path class="cls-1" d="M230.79,46a6,6,0,1,1-6-6A6,6,0,0,1,230.79,46Zm-10,0a4,4,0,1,0,4-4A4,4,0,0,0,220.79,46Z"/></svg>