<?xml version="1.0" ?><svg data-name="Layer 1" id="Layer_1" viewBox="0 0 256 256" xmlns="http://www.w3.org/2000/svg"><defs><style>.cls-1{fill:#40bdff;}.cls-2{fill:#2197f7;}.cls-3{fill:#effafe;}.cls-4{fill:#e4ebed;}.cls-5{fill:#263238;}.cls-6{fill:#fd0;}</style></defs><title/><path class="cls-1" d="M208,128.08a2,2,0,0,1,2-2h18v-.51A95.91,95.91,0,0,0,134.51,32c-.81,0-4.21,0-5,0A95.91,95.91,0,0,0,36,125.57v5A95.94,95.94,0,0,0,129.49,224c.81,0,4.22,0,5,0A95.94,95.94,0,0,0,228,130.6v-.51H210A2,2,0,0,1,208,128.08Z"/><path class="cls-2" d="M218,125.57v.51h10v-.51A95.91,95.91,0,0,0,134.51,32c-.81,0-4.21,0-5,0s-1.66.05-2.49.1A95.91,95.91,0,0,1,218,125.57Z"/><path class="cls-2" d="M218,130.6a95.94,95.94,0,0,1-91,93.27q1.24.06,2.49.1c.81,0,4.22,0,5,0A95.94,95.94,0,0,0,228,130.6v-.51H218Z"/><path class="cls-3" d="M121.11,129.93A39.11,39.11,0,0,0,82,169v11.78H174V169a39.11,39.11,0,0,0-39.07-39.07Z"/><path class="cls-3" d="M128,75.22a25.42,25.42,0,0,0-2.64,50.71h5.33A25.42,25.42,0,0,0,128,75.22Z"/><path class="cls-4" d="M134.89,129.93h-5A39.11,39.11,0,0,1,169,169v11.78h5V169A39.11,39.11,0,0,0,134.89,129.93Z"/><path class="cls-4" d="M128,75.22c-.84,0-1.68,0-2.5.12a25.42,25.42,0,0,1,.19,50.58h5A25.42,25.42,0,0,0,128,75.22Z"/><path class="cls-5" d="M143.43,126.28a29.92,29.92,0,1,0-30.86,0,43.64,43.64,0,0,0-35,42.72v13.78a2.5,2.5,0,0,0,2.5,2.5H176a2.5,2.5,0,0,0,2.5-2.5V169A43.64,43.64,0,0,0,143.43,126.28Zm-40.36-25.63a24.92,24.92,0,1,1,27.56,24.78h-5.27A25,25,0,0,1,103.08,100.65Zm70.38,79.63H82.54V169a38.61,38.61,0,0,1,38.57-38.57h4c.94.09,1.9.14,2.87.14s1.92-.05,2.87-.14h4A38.61,38.61,0,0,1,173.46,169Z"/><path class="cls-5" d="M246,125.58H228.47a100.62,100.62,0,0,0-98-98.05V10.08a2.5,2.5,0,1,0-5,0V27.53a100.62,100.62,0,0,0-98,98.05H10a2.5,2.5,0,0,0,0,5H27.53a100.62,100.62,0,0,0,98,97.88v17.62a2.5,2.5,0,0,0,5,0V228.47a100.62,100.62,0,0,0,98-97.88H246a2.5,2.5,0,1,0,0-5Zm-40,5h17.46a95.62,95.62,0,0,1-93,92.88V206.08a2.5,2.5,0,1,0-5,0v17.38a95.62,95.62,0,0,1-93-92.88H50a2.5,2.5,0,1,0,0-5H32.53a95.62,95.62,0,0,1,93-93.05V50.08a2.5,2.5,0,1,0,5,0V32.53a95.62,95.62,0,0,1,93,93.05H206a2.5,2.5,0,0,0,0,5Z"/><path class="cls-6" d="M233.25,184.84h-4v-4a1,1,0,0,0-2,0v4h-4a1,1,0,0,0,0,2h4v4a1,1,0,0,0,2,0v-4h4a1,1,0,1,0,0-2Z"/><path class="cls-6" d="M41,27.84H37v-4a1,1,0,0,0-2,0v4H31a1,1,0,0,0,0,2h4v4a1,1,0,0,0,2,0v-4h4a1,1,0,0,0,0-2Z"/><path class="cls-1" d="M180.91,229h-4v-4a1,1,0,0,0-2,0v4h-4a1,1,0,0,0,0,2h4v4a1,1,0,0,0,2,0v-4h4a1,1,0,0,0,0-2Z"/><path class="cls-1" d="M224.25,50.84a6,6,0,1,1,6-6A6,6,0,0,1,224.25,50.84Zm0-10a4,4,0,1,0,4,4A4,4,0,0,0,224.25,40.84Z"/></svg>