<?xml version="1.0" ?><svg data-name="Layer 1" id="Layer_1" viewBox="0 0 256 256" xmlns="http://www.w3.org/2000/svg"><defs><style>.cls-1{fill:#eb5639;}.cls-2{fill:#d84936;}.cls-3{fill:#fd0;}.cls-4{fill:#40bdff;}.cls-5{fill:#efc803;}.cls-6{fill:#2197f7;}.cls-7{fill:#effafe;}.cls-8{fill:#e4ebed;}.cls-9{fill:#263238;}</style></defs><title/><path class="cls-1" d="M179.17,189.17a16.49,16.49,0,1,0-23.33,0A16.51,16.51,0,0,0,179.17,189.17ZM162.9,165.39c1.86,0,5.46,4.19,4.58,5.07l-2.89,2.89,7.06,7.06,2.89-2.89c.28-.28.93,0,1.2.11a8.86,8.86,0,0,1,3.64,3.65c.12.27.38.92.11,1.2l-5.36,5.36a3.5,3.5,0,0,1-4.95,0l-12-12a3.51,3.51,0,0,1,0-5l5.36-5.36A.5.5,0,0,1,162.9,165.39Z"/><path class="cls-2" d="M179.17,165.84A16.46,16.46,0,0,0,165,161.22a16.42,16.42,0,0,1,13.75,19,6,6,0,0,1,.64,1c.12.27.38.92.11,1.2l-2.12,2.12a16.32,16.32,0,0,1-12.37,9.2,16.48,16.48,0,0,0,14.16-27.95Z"/><path class="cls-3" d="M86.66,131.55V142h82.68V131.55a35.15,35.15,0,0,0-35.11-35.11H121.77A35.15,35.15,0,0,0,86.66,131.55Z"/><path class="cls-3" d="M130.39,92.44h0a22.8,22.8,0,1,0-4.77,0Z"/><path class="cls-4" d="M88.49,194A16.49,16.49,0,1,0,72,177.5,16.51,16.51,0,0,0,88.49,194Zm-5-15.61v4.08c0,1.52-7,1.52-7,0v-7.58a3.5,3.5,0,0,1,3.5-3.5H97a3.5,3.5,0,0,1,3.5,3.5v7.58c0,1.52-7,1.52-7,0v-4.08Z"/><circle class="cls-3" cx="128" cy="226" r="8"/><path class="cls-5" d="M134.23,96.44h-5a35.15,35.15,0,0,1,35.11,35.11V142h5V131.55A35.15,35.15,0,0,0,134.23,96.44Z"/><path class="cls-5" d="M128,47c-.75,0-1.48,0-2.21.11a22.78,22.78,0,0,1,.2,45.33h4.42A22.78,22.78,0,0,0,128,47Z"/><path class="cls-6" d="M88.49,161a16.45,16.45,0,0,0-2.5.21,16.52,16.52,0,0,1,13.06,10.85,3.49,3.49,0,0,1,1.44,2.81v7.58c0,.48-.68.8-1.63,1A16.52,16.52,0,0,1,86,193.79,16.49,16.49,0,1,0,88.49,161Z"/><path class="cls-5" d="M128,218a8,8,0,0,0-2.5.41,8,8,0,0,1,0,15.19A8,8,0,1,0,128,218Z"/><path class="cls-7" d="M204,236V20a8,8,0,0,0-8-8H65a8,8,0,0,0-8,8V236a8,8,0,0,0,8,8H196A8,8,0,0,0,204,236Zm-64-10a12,12,0,1,1-12-12A12,12,0,0,1,140,226ZM99.5,20a3.5,3.5,0,1,1,3.5,3.5A3.5,3.5,0,0,1,99.5,20ZM115,20a2,2,0,0,1,2-2h40a2,2,0,0,1,0,4H117A2,2,0,0,1,115,20ZM68,177.5A20.49,20.49,0,1,1,88.49,198,20.52,20.52,0,0,1,68,177.5ZM101.22,69.78a26.78,26.78,0,0,1,53.57,0c0,9-4.11,17.33-13.51,23.28,20.56,4.44,32.07,21.3,32.07,38.49V144a2,2,0,0,1-2,2H84.66a2,2,0,0,1-2-2V131.55c0-17.31,11.61-34.07,32.07-38.49C105.35,87.12,101.22,78.76,101.22,69.78ZM153,163a20.49,20.49,0,1,1,0,29A20.51,20.51,0,0,1,153,163ZM60.5,204h135a2,2,0,0,1,0,4H60.5a2,2,0,0,1,0-4Zm135-172H60.5a2,2,0,0,1,0-4h135a2,2,0,0,1,0,4Z"/><path class="cls-8" d="M196,12h-5a8,8,0,0,1,8,8V236a8,8,0,0,1-8,8h5a8,8,0,0,0,8-8V20A8,8,0,0,0,196,12Z"/><path class="cls-9" d="M82.16,131.55V144a2.5,2.5,0,0,0,2.5,2.5h86.68a2.5,2.5,0,0,0,2.5-2.5V131.55a39.68,39.68,0,0,0-31.27-38.72,27.28,27.28,0,1,0-29.14,0A39.68,39.68,0,0,0,82.16,131.55Zm23.56-61.77a22.28,22.28,0,1,1,24.64,22.16h-4.72A22.32,22.32,0,0,1,105.72,69.78Zm16.06,27.16h12.46a34.65,34.65,0,0,1,34.61,34.61v10H87.16v-10A34.65,34.65,0,0,1,121.77,96.94Z"/><path class="cls-9" d="M196,7.5H60A12.51,12.51,0,0,0,47.5,20V236A12.51,12.51,0,0,0,60,248.5H196A12.51,12.51,0,0,0,208.5,236V20A12.51,12.51,0,0,0,196,7.5ZM203.5,236a7.51,7.51,0,0,1-7.5,7.5H60a7.51,7.51,0,0,1-7.5-7.5V20A7.51,7.51,0,0,1,60,12.5H196a7.51,7.51,0,0,1,7.5,7.5Z"/><path class="cls-9" d="M195.5,27.5H60.5a2.5,2.5,0,0,0,0,5h135a2.5,2.5,0,0,0,0-5Z"/><path class="cls-9" d="M195.5,203.5H60.5a2.5,2.5,0,0,0,0,5h135a2.5,2.5,0,0,0,0-5Z"/><path class="cls-9" d="M128,213.5A12.5,12.5,0,1,0,140.5,226,12.51,12.51,0,0,0,128,213.5Zm0,20a7.5,7.5,0,1,1,7.5-7.5A7.51,7.51,0,0,1,128,233.5Z"/><circle class="cls-9" cx="103" cy="20" r="4"/><path class="cls-9" d="M117,22.5h40a2.5,2.5,0,0,0,0-5H117a2.5,2.5,0,0,0,0,5Z"/><path class="cls-9" d="M67.5,177.5a21,21,0,1,0,21-21A21,21,0,0,0,67.5,177.5Zm21-16a16,16,0,1,1-16,16A16,16,0,0,1,88.49,161.51Z"/><path class="cls-9" d="M84,182.47v-3.58h9v3.58c0,2.21,8,2.21,8,0v-7.58a4,4,0,0,0-4-4H80a4,4,0,0,0-4,4v7.58C76,184.68,84,184.68,84,182.47Z"/><path class="cls-9" d="M152.66,162.66a21,21,0,1,0,29.69,0A21,21,0,0,0,152.66,162.66Zm26.16,26.16a16,16,0,1,1,0-22.62A16,16,0,0,1,178.82,188.82Z"/><path class="cls-9" d="M162.18,165.16l-5.36,5.36a4,4,0,0,0,0,5.66l12,12a4,4,0,0,0,5.66,0l5.36-5.36c1.56-1.56-4.09-7.22-5.66-5.66l-2.53,2.53-6.36-6.36,2.53-2.53C169.4,169.26,163.74,163.6,162.18,165.16Z"/><path class="cls-4" d="M235.44,79.61h-4v-4a1,1,0,1,0-2,0v4h-4a1,1,0,0,0,0,2h4v4a1,1,0,0,0,2,0v-4h4a1,1,0,0,0,0-2Z"/><path class="cls-3" d="M224.65,23h-4V19a1,1,0,0,0-2,0v4h-4a1,1,0,0,0,0,2h4v4a1,1,0,0,0,2,0V25h4a1,1,0,0,0,0-2Z"/><path class="cls-4" d="M31.81,224.4a6,6,0,1,1,6-6A6,6,0,0,1,31.81,224.4Zm0-10a4,4,0,1,0,4,4A4,4,0,0,0,31.81,214.4Z"/><path class="cls-3" d="M234.27,162.52a6,6,0,1,1,6-6A6,6,0,0,1,234.27,162.52Zm0-10a4,4,0,1,0,4,4A4,4,0,0,0,234.27,152.52Z"/><path class="cls-4" d="M35,81H32.41l1.83-1.83a1,1,0,0,0-1.41-1.41L31,79.54V77a1,1,0,0,0-2,0v2.59l-1.83-1.83a1,1,0,0,0-1.41,1.41L27.59,81H25a1,1,0,0,0,0,2h2.59l-1.83,1.83a1,1,0,0,0,1.41,1.41L29,84.36V87a1,1,0,0,0,2,0V84.36l1.83,1.83a1,1,0,0,0,1.41-1.41L32.41,83H35a1,1,0,0,0,0-2Z"/></svg>