<?xml version="1.0" ?><svg data-name="Layer 1" id="Layer_1" viewBox="0 0 256 256" xmlns="http://www.w3.org/2000/svg"><defs><style>.cls-1{fill:#40bdff;}.cls-2{fill:#fd0;}.cls-3{fill:#efc803;}.cls-4{fill:#2197f7;}.cls-5{fill:#effafe;}.cls-6{fill:#e4ebed;}.cls-7{fill:#263238;}</style></defs><title/><path class="cls-1" d="M17.81,203.89H248.19l-18.62-54H36.43Zm137.19-8a2,2,0,0,1-2,2H133a2,2,0,0,1,0-4h20A2,2,0,0,1,155,195.89Zm-52-2h20a2,2,0,1,1,0,4H103a2,2,0,0,1,0-4Z"/><path class="cls-2" d="M17,215.89a8,8,0,0,0,8,8H236a8,8,0,0,0,8-8v-8H17Z"/><path class="cls-3" d="M239,207.89v8a8,8,0,0,1-8,8h5a8,8,0,0,0,8-8v-8Z"/><path class="cls-1" d="M52,125.94h6.16v-3.37c0-7,4.05-13.91,12.31-17.07-2.66-2.63-4.31-5.51-4.31-9.55a12.68,12.68,0,0,1,25.36,0c0,4.07-1.68,6.94-4.31,9.55,8.27,3.17,12.31,10.1,12.31,17.07v3.37h6.16V72.28H52Z"/><rect class="cls-4" height="53.66" width="4" x="101.66" y="72.28"/><path class="cls-5" d="M79.78,104.59h0a8.69,8.69,0,1,0-1.89,0Z"/><path class="cls-5" d="M37,145.89H224V52.34H37Zm90.66-19.94H186a2,2,0,1,1,0,4H127.66a2,2,0,0,1,0-4Zm0-18.44H206a2,2,0,0,1,0,4H127.66a2,2,0,0,1,0-4ZM206,93.06H127.66a2,2,0,0,1,0-4H206a2,2,0,0,1,0,4Zm0-18.44H147.66a2,2,0,0,1,0-4H206a2,2,0,0,1,0,4Zm-96.34-4.34v57.66a2,2,0,0,1-2,2H50a2,2,0,0,1-2-2V70.28a2,2,0,0,1,2-2h57.66A2,2,0,0,1,109.66,70.28Z"/><path class="cls-1" d="M224,40.11a8,8,0,0,0-8-8H45a8,8,0,0,0-8,8v8.22H224Z"/><path class="cls-4" d="M216,32.11h-5a8,8,0,0,1,8,8v8.22h5V40.11A8,8,0,0,0,216,32.11Z"/><polygon class="cls-4" points="229.57 149.89 219.57 149.89 238.19 203.89 248.19 203.89 229.57 149.89"/><rect class="cls-6" height="93.55" width="5" x="219" y="52.34"/><path class="cls-5" d="M81.51,108.59H76.15a14,14,0,0,0-14,14v3.37H95.51v-3.37A14,14,0,0,0,81.51,108.59Z"/><path class="cls-6" d="M78.83,87.28a8.64,8.64,0,0,0-2,.24,8.67,8.67,0,0,1,0,16.87,8.89,8.89,0,0,0,1.07.19H79.8a8.68,8.68,0,0,0-1-17.3Z"/><path class="cls-6" d="M81.51,108.59h-4a14,14,0,0,1,14,14v3.37h4v-3.37A14,14,0,0,0,81.51,108.59Z"/><path class="cls-7" d="M107.66,67.78H50a2.5,2.5,0,0,0-2.5,2.5v57.66a2.5,2.5,0,0,0,2.5,2.5h57.66a2.5,2.5,0,0,0,2.5-2.5V70.28A2.5,2.5,0,0,0,107.66,67.78ZM95,125.44H62.66v-2.87a13.51,13.51,0,0,1,13.49-13.49h5.37A13.51,13.51,0,0,1,95,122.58ZM70.65,96a8.18,8.18,0,1,1,9.09,8.12H77.92A8.19,8.19,0,0,1,70.65,96Zm34.51,29.48H100v-2.87A18.51,18.51,0,0,0,88.1,105.32a13.18,13.18,0,1,0-18.54,0,18.51,18.51,0,0,0-11.91,17.26v2.87H52.5V72.78h52.66Z"/><path class="cls-7" d="M248.47,205.55a2.47,2.47,0,0,0-.08-.36s0-.08,0-.11l-19.86-57.6V40.11A12.51,12.51,0,0,0,216,27.61H40a12.51,12.51,0,0,0-12.5,12.5V147.47L7.64,205.07s0,.08,0,.11a2.47,2.47,0,0,0-.08.36c0,.07,0,.14,0,.21s0,.09,0,.13v10A12.51,12.51,0,0,0,20,228.39H236a12.51,12.51,0,0,0,12.5-12.5v-10s0-.09,0-.13S248.48,205.62,248.47,205.55ZM32.5,40.11a7.51,7.51,0,0,1,7.5-7.5H216a7.51,7.51,0,0,1,7.5,7.5v7.72H32.5Zm0,12.72h191v92.55H32.5Zm-.72,97.55H224.22l18.28,53h-229Zm211.72,65.5a7.51,7.51,0,0,1-7.5,7.5H20a7.51,7.51,0,0,1-7.5-7.5v-7.5h231Z"/><path class="cls-7" d="M123,193.39H103a2.5,2.5,0,0,0,0,5h20a2.5,2.5,0,1,0,0-5Z"/><path class="cls-7" d="M153,193.39H133a2.5,2.5,0,0,0,0,5h20a2.5,2.5,0,0,0,0-5Z"/><path class="cls-7" d="M206,70.12H147.66a2.5,2.5,0,0,0,0,5H206a2.5,2.5,0,0,0,0-5Z"/><path class="cls-7" d="M206,88.56H127.66a2.5,2.5,0,0,0,0,5H206a2.5,2.5,0,0,0,0-5Z"/><path class="cls-7" d="M206,107H127.66a2.5,2.5,0,0,0,0,5H206a2.5,2.5,0,0,0,0-5Z"/><path class="cls-7" d="M186,125.44H127.66a2.5,2.5,0,0,0,0,5H186a2.5,2.5,0,0,0,0-5Z"/><path class="cls-2" d="M117.83,16.43h-4v-4a1,1,0,1,0-2,0v4h-4a1,1,0,0,0,0,2h4v4a1,1,0,0,0,2,0v-4h4a1,1,0,0,0,0-2Z"/><path class="cls-2" d="M21.83,139.89h-4v-4a1,1,0,0,0-2,0v4h-4a1,1,0,1,0,0,2h4v4a1,1,0,0,0,2,0v-4h4a1,1,0,1,0,0-2Z"/><path class="cls-2" d="M25,237.67H21v-4a1,1,0,0,0-2,0v4H15a1,1,0,0,0,0,2h4v4a1,1,0,0,0,2,0v-4h4a1,1,0,0,0,0-2Z"/><path class="cls-1" d="M21.83,77.28h-4v-4a1,1,0,1,0-2,0v4h-4a1,1,0,0,0,0,2h4v4a1,1,0,1,0,2,0v-4h4a1,1,0,0,0,0-2Z"/><path class="cls-1" d="M229,237.67h-4v-4a1,1,0,0,0-2,0v4h-4a1,1,0,0,0,0,2h4v4a1,1,0,0,0,2,0v-4h4a1,1,0,0,0,0-2Z"/><path class="cls-1" d="M188.5,23.3a6,6,0,1,1,6-6A6,6,0,0,1,188.5,23.3Zm0-10a4,4,0,1,0,4,4A4,4,0,0,0,188.5,13.3Z"/><path class="cls-2" d="M142.5,244.67a6,6,0,1,1,6-6A6,6,0,0,1,142.5,244.67Zm0-10a4,4,0,1,0,4,4A4,4,0,0,0,142.5,234.67Z"/><path class="cls-2" d="M238,64.34a6,6,0,1,1,6-6A6,6,0,0,1,238,64.34Zm0-10a4,4,0,1,0,4,4A4,4,0,0,0,238,54.34Z"/></svg>