<?xml version="1.0" ?><svg data-name="Layer 1" id="Layer_1" viewBox="0 0 256 256" xmlns="http://www.w3.org/2000/svg"><defs><style>.cls-1{fill:#40bdff;}.cls-2{fill:#effafe;}.cls-3{fill:#fd0;}.cls-4{fill:#eb5639;}.cls-5{fill:#e4ebed;}.cls-6{fill:#2197f7;}.cls-7{fill:#d84936;}.cls-8{fill:#efc803;}.cls-9{fill:#263238;}</style></defs><title/><path class="cls-1" d="M167,20a8,8,0,0,0-8-8H102a8,8,0,0,0-8,8V82.09a8,8,0,0,0,8,8H159a8,8,0,0,0,8-8Zm-49.5,29.25a16.22,16.22,0,1,1,20.9,0l-.69.58.86.27a23.22,23.22,0,0,1,16.24,22.2v7.15a2,2,0,0,1-2,2H103.13a2,2,0,0,1-2-2V72.3a23.22,23.22,0,0,1,16.24-22.2l.86-.27Z"/><path class="cls-2" d="M126.67,49h2.65a12.22,12.22,0,1,0-2.65,0Z"/><path class="cls-2" d="M105.13,72.3v5.15h45.73V72.3A19.32,19.32,0,0,0,131.57,53h-7.15A19.32,19.32,0,0,0,105.13,72.3Z"/><path class="cls-2" d="M182.09,226.21v5.15h45.73v-5.15a19.32,19.32,0,0,0-19.29-19.29h-7.15A19.32,19.32,0,0,0,182.09,226.21Z"/><path class="cls-3" d="M236,165.91H178.91a8,8,0,0,0-8,8V236a8,8,0,0,0,8,8H236a8,8,0,0,0,8-8V173.91A8,8,0,0,0,236,165.91Zm-47.27,24.86a16.22,16.22,0,0,1,32.44,0c0,4.94-2,9.2-6.46,13,11.4,3.63,17.11,12.85,17.11,22.47v7.15a2,2,0,0,1-2,2H180.09a2,2,0,0,1-2-2v-7.15c0-9.68,5.75-18.86,17.11-22.47C190.74,200,188.73,195.71,188.73,190.77Z"/><path class="cls-2" d="M203.63,202.91h2.65a12.22,12.22,0,1,0-2.65,0Z"/><path class="cls-2" d="M28.18,226.21v5.15H73.91v-5.15a19.32,19.32,0,0,0-19.29-19.29H47.47A19.32,19.32,0,0,0,28.18,226.21Z"/><path class="cls-4" d="M82.09,165.91H25a8,8,0,0,0-8,8V236a8,8,0,0,0,8,8H82.09a8,8,0,0,0,8-8V173.91A8,8,0,0,0,82.09,165.91Zm-41.5,37.25a16.22,16.22,0,1,1,20.9,0l-.69.58.86.27a23.22,23.22,0,0,1,16.24,22.2v7.15a2,2,0,0,1-2,2H26.18a2,2,0,0,1-2-2v-7.15A23.22,23.22,0,0,1,40.42,204l.86-.27Z"/><path class="cls-2" d="M49.72,202.91h2.65a12.22,12.22,0,1,0-2.65,0Z"/><path class="cls-5" d="M54.62,206.92h-5a19.32,19.32,0,0,1,19.29,19.29v5.15h5v-5.15A19.32,19.32,0,0,0,54.62,206.92Z"/><path class="cls-5" d="M51,178.55a12.23,12.23,0,0,0-2.5.26,12.22,12.22,0,0,1,0,23.92c.38.08.78.14,1.17.19h2.65A12.22,12.22,0,0,0,51,178.55Z"/><path class="cls-5" d="M208.53,206.92h-5a19.32,19.32,0,0,1,19.29,19.29v5.15h5v-5.15A19.32,19.32,0,0,0,208.53,206.92Z"/><path class="cls-5" d="M205,178.55a12.23,12.23,0,0,0-2.5.26,12.22,12.22,0,0,1,0,23.92c.38.08.78.14,1.17.19h2.65A12.22,12.22,0,0,0,205,178.55Z"/><path class="cls-5" d="M131.57,53h-5A19.32,19.32,0,0,1,145.87,72.3v5.15h5V72.3A19.32,19.32,0,0,0,131.57,53Z"/><path class="cls-5" d="M128,24.64a12.23,12.23,0,0,0-2.5.26,12.22,12.22,0,0,1,0,23.92c.38.08.78.14,1.17.19h2.65A12.22,12.22,0,0,0,128,24.64Z"/><path class="cls-6" d="M159,12h-5a8,8,0,0,1,8,8V82.09a8,8,0,0,1-8,8h5a8,8,0,0,0,8-8V20A8,8,0,0,0,159,12Z"/><path class="cls-7" d="M82.09,165.91h-5a8,8,0,0,1,8,8V236a8,8,0,0,1-8,8h5a8,8,0,0,0,8-8V173.91A8,8,0,0,0,82.09,165.91Z"/><path class="cls-8" d="M236,165.91h-5a8,8,0,0,1,8,8V236a8,8,0,0,1-8,8h5a8,8,0,0,0,8-8V173.91A8,8,0,0,0,236,165.91Z"/><path class="cls-9" d="M138.78,49.63a16.72,16.72,0,1,0-21.55,0A23.83,23.83,0,0,0,100.63,72.3v7.15a2.5,2.5,0,0,0,2.5,2.5h49.73a2.5,2.5,0,0,0,2.5-2.5V72.3A23.83,23.83,0,0,0,138.78,49.63ZM116.28,36.86a11.72,11.72,0,1,1,13,11.65h-2.55A11.73,11.73,0,0,1,116.28,36.86ZM150.37,77H105.63V72.3a18.81,18.81,0,0,1,18.79-18.79h7.15A18.81,18.81,0,0,1,150.37,72.3Z"/><path class="cls-9" d="M171.55,82.09V20A12.51,12.51,0,0,0,159,7.5H97A12.51,12.51,0,0,0,84.45,20V82.09A12.51,12.51,0,0,0,97,94.59H159A12.51,12.51,0,0,0,171.55,82.09Zm-82.09,0V20A7.51,7.51,0,0,1,97,12.5H159a7.51,7.51,0,0,1,7.5,7.5V82.09a7.51,7.51,0,0,1-7.5,7.5H97A7.51,7.51,0,0,1,89.45,82.09Z"/><path class="cls-9" d="M26.18,235.86H75.91a2.5,2.5,0,0,0,2.5-2.5v-7.15a23.83,23.83,0,0,0-16.59-22.68,16.72,16.72,0,1,0-21.55,0,23.83,23.83,0,0,0-16.59,22.68v7.15A2.5,2.5,0,0,0,26.18,235.86Zm13.15-45.09a11.72,11.72,0,1,1,13,11.65H49.77A11.73,11.73,0,0,1,39.33,190.77ZM28.68,226.21a18.81,18.81,0,0,1,18.79-18.79h7.15a18.81,18.81,0,0,1,18.79,18.79v4.65H28.68Z"/><path class="cls-9" d="M20,248.5H82.09A12.51,12.51,0,0,0,94.59,236V173.91a12.51,12.51,0,0,0-12.5-12.5H20a12.51,12.51,0,0,0-12.5,12.5V236A12.51,12.51,0,0,0,20,248.5Zm-7.5-74.59a7.51,7.51,0,0,1,7.5-7.5H82.09a7.51,7.51,0,0,1,7.5,7.5V236a7.51,7.51,0,0,1-7.5,7.5H20a7.51,7.51,0,0,1-7.5-7.5Z"/><path class="cls-9" d="M215.73,203.53a16.72,16.72,0,1,0-21.55,0,23.83,23.83,0,0,0-16.59,22.68v7.15a2.5,2.5,0,0,0,2.5,2.5h49.73a2.5,2.5,0,0,0,2.5-2.5v-7.15A23.83,23.83,0,0,0,215.73,203.53Zm-22.49-12.76a11.72,11.72,0,1,1,13,11.65h-2.55A11.73,11.73,0,0,1,193.23,190.77Zm34.09,40.09H182.59v-4.65a18.81,18.81,0,0,1,18.79-18.79h7.15a18.81,18.81,0,0,1,18.79,18.79Z"/><path class="cls-9" d="M236,161.41H173.91a12.51,12.51,0,0,0-12.5,12.5V236a12.51,12.51,0,0,0,12.5,12.5H236A12.51,12.51,0,0,0,248.5,236V173.91A12.51,12.51,0,0,0,236,161.41ZM243.5,236a7.51,7.51,0,0,1-7.5,7.5H173.91a7.51,7.51,0,0,1-7.5-7.5V173.91a7.51,7.51,0,0,1,7.5-7.5H236a7.51,7.51,0,0,1,7.5,7.5Z"/><path class="cls-9" d="M138,220.86a2.5,2.5,0,0,0,3.54,0l14.14-14.14a2.5,2.5,0,0,0,0-3.54L141.53,189a2.5,2.5,0,0,0-3.54,3.54l9.87,9.88H102.09a2.5,2.5,0,0,0,0,5h45.78L138,217.33A2.5,2.5,0,0,0,138,220.86Z"/><path class="cls-9" d="M186.63,122.18a2.5,2.5,0,0,0,2.5-2.5v-14l32.37,32.37a2.5,2.5,0,0,0,3.54-3.54l-32.37-32.37h14a2.5,2.5,0,1,0,0-5h-20a2.5,2.5,0,0,0-2.5,2.5v20A2.5,2.5,0,0,0,186.63,122.18Z"/><path class="cls-9" d="M71.13,97.91a2.5,2.5,0,0,0-3.54,0L35.23,130.28v-14a2.5,2.5,0,0,0-5,0v20a2.5,2.5,0,0,0,2.5,2.5h20a2.5,2.5,0,1,0,0-5h-14l32.37-32.37A2.5,2.5,0,0,0,71.13,97.91Z"/><path class="cls-3" d="M237.32,61h-4V57a1,1,0,1,0-2,0v4h-4a1,1,0,1,0,0,2h4v4a1,1,0,0,0,2,0V63h4a1,1,0,0,0,0-2Z"/><path class="cls-1" d="M198.73,38.5a6,6,0,1,1,6-6A6,6,0,0,1,198.73,38.5Zm0-10a4,4,0,1,0,4,4A4,4,0,0,0,198.73,28.5Z"/><path class="cls-3" d="M153.5,148.88a6,6,0,1,1,6-6A6,6,0,0,1,153.5,148.88Zm0-10a4,4,0,1,0,4,4A4,4,0,0,0,153.5,138.88Z"/><path class="cls-1" d="M232.32,114a6,6,0,1,1,6-6A6,6,0,0,1,232.32,114Zm0-10a4,4,0,1,0,4,4A4,4,0,0,0,232.32,104Z"/><path class="cls-1" d="M58.55,73H56l1.83-1.83a1,1,0,0,0-1.41-1.41l-1.83,1.83V69a1,1,0,0,0-2,0v2.59l-1.83-1.83a1,1,0,0,0-1.41,1.41L51.13,73H48.55a1,1,0,1,0,0,2h2.59L49.3,76.83a1,1,0,0,0,1.41,1.41l1.83-1.83V79a1,1,0,0,0,2,0V76.41l1.83,1.83a1,1,0,0,0,1.41-1.41L56,75h2.59a1,1,0,0,0,0-2Z"/></svg>