<?xml version="1.0" ?><svg data-name="Layer 1" id="Layer_1" viewBox="0 0 256 256" xmlns="http://www.w3.org/2000/svg"><defs><style>.cls-1{fill:#e4ebed;}.cls-2{fill:#40bdff;}.cls-3{fill:#effafe;}.cls-4{fill:#2197f7;}.cls-5{fill:#263238;}.cls-6{fill:#fd0;}</style></defs><title/><rect class="cls-1" height="140.51" width="5" x="203.56" y="24.45"/><path class="cls-2" d="M212.56,67.75V167a2.14,2.14,0,0,1-.58,1.41l-49.83,49.83a2,2,0,0,1-1.44.58H51.93l3.27,18.53A8.08,8.08,0,0,0,63.12,244a8.09,8.09,0,0,0,1.42-.13L231.1,213.63a8.09,8.09,0,0,0,6.55-9.35L213.55,67.66Z"/><polygon class="cls-3" points="162.74 211.97 205.74 168.97 162.74 168.97 162.74 211.97"/><path class="cls-4" d="M237.65,204.28,213.55,67.66l-1,.09V90.38l20.09,113.89a8.09,8.09,0,0,1-6.55,9.35l-165.3,30a8,8,0,0,0,2.33.35,8.09,8.09,0,0,0,1.42-.13L231.1,213.63A8.09,8.09,0,0,0,237.65,204.28Z"/><polygon class="cls-1" points="200.74 168.97 162.74 206.97 162.74 211.97 205.74 168.97 200.74 168.97"/><path class="cls-5" d="M26.3,219.3H42.45l3.31,18.81A12.57,12.57,0,0,0,58.12,248.5a12.72,12.72,0,0,0,2.21-.19l171.55-30.25a12.59,12.59,0,0,0,10.2-14.56L213.06,39V22.45a2.5,2.5,0,0,0-2.5-2.5H65.94a14.94,14.94,0,0,0-29.46,0H26.3A12.58,12.58,0,0,0,13.73,32.52V206.73A12.58,12.58,0,0,0,26.3,219.3Zm186-50.56,0,0a2.6,2.6,0,0,0,.71-1.74V67.75l24.09,136.62a7.58,7.58,0,0,1-6.15,8.77L59.46,243.38a7.57,7.57,0,0,1-8.77-6.14L47.53,219.3H160.73a2.51,2.51,0,0,0,1.77-.73Zm-49.1,42v-41.3h41.3ZM51.21,12.5A10,10,0,0,1,60.83,20H41.58A10,10,0,0,1,51.21,12.5Zm-32.48,20A7.58,7.58,0,0,1,26.3,25h10V47.37a15,15,0,1,0,29.92,0V34.92a2.5,2.5,0,1,0-5,0V47.37a10,10,0,1,1-19.92,0V25H208.06V164.47H160.74a2.5,2.5,0,0,0-2.5,2.5V214.3H26.3a7.58,7.58,0,0,1-7.57-7.57Z"/><path class="cls-5" d="M59,82.33H187.76a2.5,2.5,0,0,0,0-5H59a2.5,2.5,0,0,0,0,5Z"/><path class="cls-5" d="M39,102.33H187.76a2.5,2.5,0,0,0,0-5H39a2.5,2.5,0,0,0,0,5Z"/><path class="cls-5" d="M39,122.33H187.76a2.5,2.5,0,0,0,0-5H39a2.5,2.5,0,1,0,0,5Z"/><path class="cls-5" d="M39,142.33H187.76a2.5,2.5,0,0,0,0-5H39a2.5,2.5,0,0,0,0,5Z"/><path class="cls-5" d="M39,162.33h101.7a2.5,2.5,0,0,0,0-5H39a2.5,2.5,0,0,0,0,5Z"/><path class="cls-5" d="M39,182.33h101.7a2.5,2.5,0,0,0,0-5H39a2.5,2.5,0,0,0,0,5Z"/><path class="cls-5" d="M39,202.33h101.7a2.5,2.5,0,0,0,0-5H39a2.5,2.5,0,0,0,0,5Z"/><path class="cls-6" d="M29.23,231h-4v-4a1,1,0,0,0-2,0v4h-4a1,1,0,1,0,0,2h4v4a1,1,0,0,0,2,0v-4h4a1,1,0,0,0,0-2Z"/><path class="cls-2" d="M241,101.33h-4v-4a1,1,0,1,0-2,0v4h-4a1,1,0,0,0,0,2h4v4a1,1,0,0,0,2,0v-4h4a1,1,0,0,0,0-2Z"/><path class="cls-6" d="M232.63,240.09a6,6,0,1,1,6-6A6,6,0,0,1,232.63,240.09Zm0-10a4,4,0,1,0,4,4A4,4,0,0,0,232.63,230.09Z"/><path class="cls-6" d="M231.63,33.26a6,6,0,1,1,6-6A6,6,0,0,1,231.63,33.26Zm0-10a4,4,0,1,0,4,4A4,4,0,0,0,231.63,23.26Z"/></svg>