<?xml version="1.0" ?><svg data-name="Layer 1" id="Layer_1" viewBox="0 0 256 256" xmlns="http://www.w3.org/2000/svg"><defs><style>.cls-1{fill:#fd0;}.cls-2{fill:#effafe;}.cls-3{fill:#40bdff;}.cls-4{fill:#2197f7;}.cls-5{fill:#228ed6;}.cls-6{fill:#efc803;}.cls-7{fill:#e4ebed;}.cls-8{fill:#263238;}</style></defs><title/><path class="cls-1" d="M44,58H217a7,7,0,0,0,7-7V19a7,7,0,0,0-7-7H44a7,7,0,0,0-7,7V51A7,7,0,0,0,44,58Zm4-23A12,12,0,0,1,60,23H196a12,12,0,0,1,0,24H60A12,12,0,0,1,48,35Z"/><path class="cls-2" d="M154,221.12V179.63l-.59.1A14.93,14.93,0,0,0,141,194.47v11.65a2,2,0,0,1-2,2H113v13c0,12.68,5.32,23,18,23A23,23,0,0,0,154,221.12Z"/><polygon class="cls-3" points="199 111 57 111 128 155.15 199 111"/><polygon class="cls-4" points="57 201.56 111.06 149.32 57 112.6 57 201.56"/><path class="cls-4" d="M204,112.6l-59,36.71.5.44c34.63,30.58,39.39,34.81,58.53,51.77Zm-1.78,86.67h0Z"/><path class="cls-5" d="M199,115.71v81.38l5,4.43V112.6Zm3.22,83.56h0Z"/><path class="cls-3" d="M200.77,204c-15.68-13.92-40.57-35.9-59.35-52.49l-12.37,7.69a2,2,0,0,1-2.11,0l-12.34-7.67L55.28,204H137v-9.53a19,19,0,0,1,19-19,2,2,0,0,1,2,2V204Z"/><polygon class="cls-4" points="57 201.56 111.06 149.32 57 112.6 57 201.56"/><polygon class="cls-5" points="57 112.6 57 116 106.06 149.32 57 196.73 57 201.56 111.06 149.32 57 112.6"/><path class="cls-6" d="M217,12h-5a7,7,0,0,1,7,7V51a7,7,0,0,1-7,7h5a7,7,0,0,0,7-7V19A7,7,0,0,0,217,12Z"/><path class="cls-7" d="M153.41,179.73a15,15,0,0,0-3.41,1v40.35A23,23,0,0,1,129,244c.64.06,1.3.09,2,.09a23,23,0,0,0,23-23V179.63Z"/><polygon class="cls-4" points="194 111 125.5 153.59 128 155.15 199 111 194 111"/><path class="cls-4" d="M141.42,151.51l-2.93,1.82C157,169.69,180.66,190.58,195.77,204h5C185.09,190.08,160.21,168.1,141.42,151.51Z"/><path class="cls-8" d="M39,62.5H217A11.51,11.51,0,0,0,228.5,51V19A11.51,11.51,0,0,0,217,7.5H39A11.51,11.51,0,0,0,27.5,19V51A11.51,11.51,0,0,0,39,62.5ZM32.5,19A6.51,6.51,0,0,1,39,12.5H217a6.51,6.51,0,0,1,6.5,6.5V51a6.51,6.51,0,0,1-6.5,6.5H39A6.51,6.51,0,0,1,32.5,51Z"/><path class="cls-8" d="M60,47.5H196a12.5,12.5,0,0,0,0-25H60a12.5,12.5,0,0,0,0,25Zm0-20H196a7.5,7.5,0,0,1,0,15H60a7.5,7.5,0,0,1,0-15Z"/><path class="cls-8" d="M131,248.62a27.53,27.53,0,0,0,27.5-27.5V208.5H206a2.52,2.52,0,0,0,2.5-2.5V109a2.52,2.52,0,0,0-2.5-2.5H50a2.51,2.51,0,0,0-2.5,2.5v97a2.52,2.52,0,0,0,2.5,2.5h53.5v12.62A27.53,27.53,0,0,0,131,248.62Zm22.5-27.5a22.5,22.5,0,0,1-45,0v-12.5H139a2.5,2.5,0,0,0,2.5-2.5V194.47a14.48,14.48,0,0,1,12-14.24Zm50-20.71c-12-10.66-45.68-40.42-57.7-51l57.7-35.88Zm-6.25-88.91L128,154.56,58.75,111.5Zm-144.75,2,57.72,35.89L52.5,200.45Zm4.1,90,58.05-51.35,12,7.48a2.5,2.5,0,0,0,2.64,0l12.05-7.49c13,11.47,45.24,40,58.09,51.37h-41v-26A2.5,2.5,0,0,0,156,175a19.48,19.48,0,0,0-19.46,19.46v9Z"/><path class="cls-8" d="M128,101.5a2.5,2.5,0,0,0,2.5-2.5V76l6.9,6.9a2.5,2.5,0,1,0,3.54-3.54L129.77,68.23a2.5,2.5,0,0,0-3.54,0L115.06,79.4a2.5,2.5,0,0,0,3.54,3.54l6.9-6.9V99A2.5,2.5,0,0,0,128,101.5Z"/><path class="cls-1" d="M41,149.6H37v-4a1,1,0,0,0-2,0v4H31a1,1,0,0,0,0,2h4v4a1,1,0,0,0,2,0v-4h4a1,1,0,0,0,0-2Z"/><path class="cls-1" d="M222.72,170.33h-4v-4a1,1,0,0,0-2,0v4h-4a1,1,0,0,0,0,2h4v4a1,1,0,0,0,2,0v-4h4a1,1,0,0,0,0-2Z"/><path class="cls-3" d="M21.67,21.5h-4v-4a1,1,0,0,0-2,0v4h-4a1,1,0,1,0,0,2h4v4a1,1,0,1,0,2,0v-4h4a1,1,0,0,0,0-2Z"/><path class="cls-3" d="M81.22,96.5a6,6,0,1,1,6-6A6,6,0,0,1,81.22,96.5Zm0-10a4,4,0,1,0,4,4A4,4,0,0,0,81.22,86.5Z"/><path class="cls-1" d="M32,242a6,6,0,1,1,6-6A6,6,0,0,1,32,242Zm0-10a4,4,0,1,0,4,4A4,4,0,0,0,32,232Z"/><path class="cls-1" d="M238,58.41a6,6,0,1,1,6-6A6,6,0,0,1,238,58.41Zm0-10a4,4,0,1,0,4,4A4,4,0,0,0,238,48.41Z"/><path class="cls-3" d="M199.77,230.82h-2.59L199,229a1,1,0,0,0-1.41-1.41l-1.83,1.83v-2.59a1,1,0,0,0-2,0v2.59l-1.83-1.83a1,1,0,0,0-1.41,1.41l1.83,1.83h-2.59a1,1,0,0,0,0,2h2.59l-1.83,1.83a1,1,0,0,0,1.41,1.41l1.83-1.83v2.59a1,1,0,0,0,2,0v-2.59l1.83,1.83a1,1,0,0,0,1.41-1.41l-1.83-1.83h2.59a1,1,0,0,0,0-2Z"/></svg>