<?xml version="1.0" ?><svg data-name="Layer 1" id="Layer_1" viewBox="0 0 256 256" xmlns="http://www.w3.org/2000/svg"><defs><style>.cls-1{fill:#fd0;}.cls-2{fill:#40bdff;}.cls-3{fill:#2197f7;}.cls-4{fill:#effafe;}.cls-5{fill:#e4ebed;}.cls-6{fill:#efc803;}.cls-7{fill:#424242;}</style></defs><title/><path class="cls-1" d="M103.43,120.72a9.14,9.14,0,1,0,9.14,9.14A9.15,9.15,0,0,0,103.43,120.72Z"/><path class="cls-1" d="M148,159.62a9.14,9.14,0,1,0,9.14,9.14A9.15,9.15,0,0,0,148,159.62Z"/><path class="cls-1" d="M148,216.8a9.14,9.14,0,1,0-9.14-9.14A9.15,9.15,0,0,0,148,216.8Z"/><path class="cls-1" d="M148,120.72a9.14,9.14,0,1,0,9.14,9.14A9.15,9.15,0,0,0,148,120.72Z"/><path class="cls-2" d="M60,72H45a8,8,0,0,0-8,8V236a8,8,0,0,0,8,8H60a8,8,0,0,0,8-8V80A8,8,0,0,0,60,72Z"/><path class="cls-3" d="M60,72H55a8,8,0,0,1,8,8V236a8,8,0,0,1-8,8h5a8,8,0,0,0,8-8V80A8,8,0,0,0,60,72Z"/><path class="cls-1" d="M192.57,216.8a9.14,9.14,0,1,0-9.14-9.14A9.15,9.15,0,0,0,192.57,216.8Z"/><path class="cls-1" d="M103.43,159.62a9.14,9.14,0,1,0,9.14,9.14A9.15,9.15,0,0,0,103.43,159.62Z"/><path class="cls-1" d="M103.43,216.8a9.14,9.14,0,1,0-9.14-9.14A9.15,9.15,0,0,0,103.43,216.8Z"/><path class="cls-4" d="M182.37,20a8,8,0,0,0-8-8H126.63a8,8,0,0,0-8,8V89.53h63.74Z"/><path class="cls-5" d="M174.37,12h-5a8,8,0,0,1,8,8V89.53h5V20A8,8,0,0,0,174.37,12Z"/><path class="cls-1" d="M192.57,120.72a9.14,9.14,0,1,0,9.14,9.14A9.15,9.15,0,0,0,192.57,120.72Z"/><path class="cls-1" d="M192.57,159.62a9.14,9.14,0,1,0,9.14,9.14A9.15,9.15,0,0,0,192.57,159.62Z"/><path class="cls-2" d="M216,72H186.37V89.53h6.41a2,2,0,0,1,0,4H103.22a2,2,0,0,1,0-4h6.41V72H85a8,8,0,0,0-8,8V236a8,8,0,0,0,8,8H216a8,8,0,0,0,8-8V80A8,8,0,0,0,216,72Zm-23.43,71a13.14,13.14,0,1,1,13.14-13.14A13.16,13.16,0,0,1,192.57,143Zm0,38.9a13.14,13.14,0,1,1,13.14-13.14A13.16,13.16,0,0,1,192.57,181.91Zm0,12.61a13.14,13.14,0,1,1-13.14,13.14A13.16,13.16,0,0,1,192.57,194.52ZM148,143a13.14,13.14,0,1,1,13.14-13.14A13.16,13.16,0,0,1,148,143Zm0,38.9a13.14,13.14,0,1,1,13.14-13.14A13.16,13.16,0,0,1,148,181.91Zm0,12.61a13.14,13.14,0,1,1-13.14,13.14A13.16,13.16,0,0,1,148,194.52ZM103.43,143a13.14,13.14,0,1,1,13.14-13.14A13.16,13.16,0,0,1,103.43,143Zm0,38.9a13.14,13.14,0,1,1,13.14-13.14A13.16,13.16,0,0,1,103.43,181.91Zm0,12.61a13.14,13.14,0,1,1-13.14,13.14A13.16,13.16,0,0,1,103.43,194.52Z"/><path class="cls-3" d="M216,72h-5a8,8,0,0,1,8,8V236a8,8,0,0,1-8,8h5a8,8,0,0,0,8-8V80A8,8,0,0,0,216,72Z"/><path class="cls-6" d="M103.43,120.72a9.12,9.12,0,0,0-2,.23,9.14,9.14,0,0,1,0,17.83,9.14,9.14,0,1,0,2-18.06Z"/><path class="cls-6" d="M148,120.72a9.12,9.12,0,0,0-2,.23,9.14,9.14,0,0,1,0,17.83,9.14,9.14,0,1,0,2-18.06Z"/><path class="cls-6" d="M192.57,120.72a9.12,9.12,0,0,0-2,.23,9.14,9.14,0,0,1,0,17.83,9.14,9.14,0,1,0,2-18.06Z"/><path class="cls-6" d="M103.43,159.62a9.12,9.12,0,0,0-2,.23,9.14,9.14,0,0,1,0,17.83,9.14,9.14,0,1,0,2-18.06Z"/><path class="cls-6" d="M148,159.62a9.12,9.12,0,0,0-2,.23,9.14,9.14,0,0,1,0,17.83,9.14,9.14,0,1,0,2-18.06Z"/><path class="cls-6" d="M192.57,159.62a9.12,9.12,0,0,0-2,.23,9.14,9.14,0,0,1,0,17.83,9.14,9.14,0,1,0,2-18.06Z"/><path class="cls-1" d="M192.57,198.52a9.14,9.14,0,1,0,9.14,9.14A9.15,9.15,0,0,0,192.57,198.52Z"/><path class="cls-6" d="M103.43,198.52a9.12,9.12,0,0,0-2,.23,9.14,9.14,0,0,1,0,17.83,9.14,9.14,0,1,0,2-18.06Z"/><path class="cls-6" d="M148,198.52a9.12,9.12,0,0,0-2,.23,9.14,9.14,0,0,1,0,17.83,9.14,9.14,0,1,0,2-18.06Z"/><path class="cls-6" d="M192.57,198.52a9.12,9.12,0,0,0-2,.23,9.14,9.14,0,0,1,0,17.83,9.14,9.14,0,1,0,2-18.06Z"/><path class="cls-7" d="M216,67.5H186.87V20a12.51,12.51,0,0,0-12.5-12.5H121.63A12.51,12.51,0,0,0,109.13,20V67.5H80a12.48,12.48,0,0,0-10,5,12.48,12.48,0,0,0-10-5H40A12.51,12.51,0,0,0,27.5,80V236A12.51,12.51,0,0,0,40,248.5H60a12.48,12.48,0,0,0,10-5,12.48,12.48,0,0,0,10,5H216A12.51,12.51,0,0,0,228.5,236V80A12.51,12.51,0,0,0,216,67.5ZM60,243.5H40a7.51,7.51,0,0,1-7.5-7.5V80A7.51,7.51,0,0,1,40,72.5H60A7.51,7.51,0,0,1,67.5,80V236A7.51,7.51,0,0,1,60,243.5ZM114.13,70V20a7.51,7.51,0,0,1,7.5-7.5h52.74a7.51,7.51,0,0,1,7.5,7.5V89H114.13ZM223.5,236a7.51,7.51,0,0,1-7.5,7.5H80A7.51,7.51,0,0,1,72.5,236V80A7.51,7.51,0,0,1,80,72.5h29.13V89h-5.91a2.5,2.5,0,0,0,0,5h89.56a2.5,2.5,0,0,0,0-5h-5.91V72.5H216a7.51,7.51,0,0,1,7.5,7.5Z"/><path class="cls-7" d="M103.43,116.22a13.64,13.64,0,1,0,13.64,13.64A13.66,13.66,0,0,0,103.43,116.22Zm0,22.29a8.64,8.64,0,1,1,8.64-8.64A8.65,8.65,0,0,1,103.43,138.51Z"/><path class="cls-7" d="M148,116.22a13.64,13.64,0,1,0,13.64,13.64A13.66,13.66,0,0,0,148,116.22Zm0,22.29a8.64,8.64,0,1,1,8.64-8.64A8.65,8.65,0,0,1,148,138.51Z"/><path class="cls-7" d="M192.57,116.22a13.64,13.64,0,1,0,13.64,13.64A13.66,13.66,0,0,0,192.57,116.22Zm0,22.29a8.64,8.64,0,1,1,8.64-8.64A8.65,8.65,0,0,1,192.57,138.51Z"/><path class="cls-7" d="M103.43,155.12a13.64,13.64,0,1,0,13.64,13.64A13.66,13.66,0,0,0,103.43,155.12Zm0,22.29a8.64,8.64,0,1,1,8.64-8.64A8.65,8.65,0,0,1,103.43,177.41Z"/><path class="cls-7" d="M148,155.12a13.64,13.64,0,1,0,13.64,13.64A13.66,13.66,0,0,0,148,155.12Zm0,22.29a8.64,8.64,0,1,1,8.64-8.64A8.65,8.65,0,0,1,148,177.41Z"/><path class="cls-7" d="M192.57,155.12a13.64,13.64,0,1,0,13.64,13.64A13.66,13.66,0,0,0,192.57,155.12Zm0,22.29a8.64,8.64,0,1,1,8.64-8.64A8.65,8.65,0,0,1,192.57,177.41Z"/><path class="cls-7" d="M103.43,194a13.64,13.64,0,1,0,13.64,13.64A13.66,13.66,0,0,0,103.43,194Zm0,22.29a8.64,8.64,0,1,1,8.64-8.64A8.65,8.65,0,0,1,103.43,216.3Z"/><path class="cls-7" d="M148,194a13.64,13.64,0,1,0,13.64,13.64A13.66,13.66,0,0,0,148,194Zm0,22.29a8.64,8.64,0,1,1,8.64-8.64A8.65,8.65,0,0,1,148,216.3Z"/><path class="cls-7" d="M192.57,194a13.64,13.64,0,1,0,13.64,13.64A13.66,13.66,0,0,0,192.57,194Zm0,22.29a8.64,8.64,0,1,1,8.64-8.64A8.65,8.65,0,0,1,192.57,216.3Z"/><path class="cls-1" d="M23,149.92H19v-4a1,1,0,0,0-2,0v4H13a1,1,0,0,0,0,2h4v4a1,1,0,0,0,2,0v-4h4a1,1,0,0,0,0-2Z"/><path class="cls-1" d="M243,155.92h-4v-4a1,1,0,1,0-2,0v4h-4a1,1,0,0,0,0,2h4v4a1,1,0,0,0,2,0v-4h4a1,1,0,0,0,0-2Z"/><path class="cls-2" d="M206.71,27h-4V23a1,1,0,0,0-2,0v4h-4a1,1,0,0,0,0,2h4v4a1,1,0,0,0,2,0V29h4a1,1,0,0,0,0-2Z"/><path class="cls-2" d="M243,219h-2.59l1.83-1.83a1,1,0,0,0-1.41-1.41L239,217.59V215a1,1,0,0,0-2,0v2.59l-1.83-1.83a1,1,0,0,0-1.41,1.41l1.83,1.83H233a1,1,0,0,0,0,2h2.59l-1.83,1.83a1,1,0,0,0,1.41,1.41l1.83-1.83V225a1,1,0,0,0,2,0v-2.59l1.83,1.83a1,1,0,0,0,1.41-1.41L240.41,221H243a1,1,0,0,0,0-2Z"/><path class="cls-2" d="M243,85.28h-2.59l1.83-1.83A1,1,0,0,0,240.83,82L239,83.87V81.28a1,1,0,1,0-2,0v2.59L235.17,82a1,1,0,0,0-1.41,1.41l1.83,1.83H233a1,1,0,0,0,0,2h2.59l-1.83,1.83a1,1,0,0,0,1.41,1.41L237,88.7v2.59a1,1,0,0,0,2,0V88.7l1.83,1.83a1,1,0,0,0,1.41-1.41l-1.83-1.83H243a1,1,0,0,0,0-2Z"/><path class="cls-1" d="M83.15,42.14H80.56l1.83-1.83A1,1,0,0,0,81,38.9l-1.83,1.83V38.14a1,1,0,0,0-2,0v2.59L75.32,38.9a1,1,0,0,0-1.41,1.41l1.83,1.83H73.15a1,1,0,0,0,0,2h2.59L73.91,46a1,1,0,0,0,1.41,1.41l1.83-1.83v2.59a1,1,0,0,0,2,0V45.55L81,47.38A1,1,0,0,0,82.39,46l-1.83-1.83h2.59a1,1,0,0,0,0-2Z"/><path class="cls-2" d="M23.94,62.66a6,6,0,1,1,6-6A6,6,0,0,1,23.94,62.66Zm0-10a4,4,0,1,0,4,4A4,4,0,0,0,23.94,52.66Z"/><path class="cls-1" d="M17.82,236.87a6,6,0,1,1,6-6A6,6,0,0,1,17.82,236.87Zm0-10a4,4,0,1,0,4,4A4,4,0,0,0,17.82,226.87Z"/><path class="cls-1" d="M226,62.14a6,6,0,1,1,6-6A6,6,0,0,1,226,62.14Zm0-10a4,4,0,1,0,4,4A4,4,0,0,0,226,52.14Z"/></svg>