<?xml version="1.0" ?><svg data-name="Layer 1" id="Layer_1" viewBox="0 0 256 256" xmlns="http://www.w3.org/2000/svg"><defs><style>.cls-1{fill:#fd0;}.cls-2{fill:#40bdff;}.cls-3{fill:#effafe;}.cls-4{fill:#eb5639;}.cls-5{fill:#d84936;}.cls-6{fill:#2197f7;}.cls-7{fill:#e4ebed;}.cls-8{fill:#efc803;}.cls-9{fill:#263238;}</style></defs><title/><path class="cls-1" d="M22.83,107.32h-4v-4a1,1,0,0,0-2,0v4h-4a1,1,0,0,0,0,2h4v4a1,1,0,0,0,2,0v-4h4a1,1,0,0,0,0-2Z"/><path class="cls-1" d="M59,23.93H55v-4a1,1,0,0,0-2,0v4H49a1,1,0,0,0,0,2h4v4a1,1,0,1,0,2,0v-4h4a1,1,0,0,0,0-2Z"/><path class="cls-2" d="M77.11,225h-4v-4a1,1,0,0,0-2,0v4h-4a1,1,0,0,0,0,2h4v4a1,1,0,0,0,2,0v-4h4a1,1,0,1,0,0-2Z"/><path class="cls-2" d="M185.35,225h-4v-4a1,1,0,0,0-2,0v4h-4a1,1,0,1,0,0,2h4v4a1,1,0,0,0,2,0v-4h4a1,1,0,0,0,0-2Z"/><path class="cls-2" d="M241.83,87.25h-4v-4a1,1,0,0,0-2,0v4h-4a1,1,0,0,0,0,2h4v4a1,1,0,0,0,2,0v-4h4a1,1,0,0,0,0-2Z"/><path class="cls-2" d="M112.69,30.93a6,6,0,1,1,6-6A6,6,0,0,1,112.69,30.93Zm0-10a4,4,0,1,0,4,4A4,4,0,0,0,112.69,20.93Z"/><path class="cls-1" d="M130.5,232a6,6,0,1,1,6-6A6,6,0,0,1,130.5,232Zm0-10a4,4,0,1,0,4,4A4,4,0,0,0,130.5,222Z"/><path class="cls-1" d="M230,56a6,6,0,1,1,6-6A6,6,0,0,1,230,56Zm0-10a4,4,0,1,0,4,4A4,4,0,0,0,230,46Z"/><rect class="cls-2" height="53.8" rx="8" ry="8" width="68.06" x="37" y="47.81"/><path class="cls-3" d="M224,113.16a42.28,42.28,0,0,0-42.23-42.23h-4.39a31.17,31.17,0,0,1-6.1,0h-4.35a42.28,42.28,0,0,0-42.23,42.23V126H224Z"/><path class="cls-3" d="M171.5,66.92h5.75a27.55,27.55,0,1,0-5.75,0Z"/><rect class="cls-4" height="20.39" width="10.16" x="63.45" y="105.61"/><rect class="cls-5" height="20.39" width="3" x="70.61" y="105.61"/><rect class="cls-1" height="36" width="16" x="208" y="208"/><path class="cls-4" d="M236,130.08H25a8,8,0,0,0-8,8V204H244V138.08A8,8,0,0,0,236,130.08Z"/><rect class="cls-1" height="36" width="12" x="36" y="208"/><path class="cls-6" d="M97.06,47.81h-4a8,8,0,0,1,8,8v37.8a8,8,0,0,1-8,8h4a8,8,0,0,0,8-8V55.81A8,8,0,0,0,97.06,47.81Z"/><path class="cls-7" d="M172.35,71l-1.08-.08h-4A31.28,31.28,0,0,0,172.35,71Z"/><path class="cls-7" d="M181.77,70.92h-3.91A42.28,42.28,0,0,1,220,113.16V126h4V113.16A42.28,42.28,0,0,0,181.77,70.92Z"/><path class="cls-7" d="M174.35,12c-.67,0-1.34,0-2,.08a27.53,27.53,0,0,1,.9,54.84h4A27.54,27.54,0,0,0,174.35,12Z"/><rect class="cls-8" height="36" width="4" x="220" y="208"/><path class="cls-5" d="M236,130.08h-4a8,8,0,0,1,8,8V204h4V138.08A8,8,0,0,0,236,130.08Z"/><rect class="cls-8" height="36" width="4" x="44" y="208"/><path class="cls-9" d="M236,125.58h-7.5V113.16a46.8,46.8,0,0,0-38.09-45.92,32,32,0,1,0-32.13,0,46.8,46.8,0,0,0-38.09,45.92v12.43H78.11V106.11h19a12.51,12.51,0,0,0,12.5-12.5V55.81a12.51,12.51,0,0,0-12.5-12.5H40a12.51,12.51,0,0,0-12.5,12.5v37.8A12.51,12.51,0,0,0,40,106.11H59v19.48H20a12.51,12.51,0,0,0-12.5,12.5V206a2.5,2.5,0,0,0,2.5,2.5H27.5V246a2.5,2.5,0,0,0,2.5,2.5H50a2.5,2.5,0,0,0,2.5-2.5V208.5h151V246a2.5,2.5,0,0,0,2.5,2.5h20a2.5,2.5,0,0,0,2.5-2.5V208.5H246a2.5,2.5,0,0,0,2.5-2.5V138.08A12.51,12.51,0,0,0,236,125.58Zm-88.69-86a27,27,0,1,1,29.89,26.89H171.5A27.07,27.07,0,0,1,147.31,39.54Zm-22.12,73.62a41.78,41.78,0,0,1,41.73-41.73h4.35c1,.1,2,.15,3.08.15s2.06-.05,3.08-.15h4.35a41.78,41.78,0,0,1,41.73,41.73V125.5H125.19ZM40,101.11a7.51,7.51,0,0,1-7.5-7.5V55.81a7.51,7.51,0,0,1,7.5-7.5H97.06a7.51,7.51,0,0,1,7.5,7.5v37.8a7.51,7.51,0,0,1-7.5,7.5H40Zm33.11,5V125.5H64V106.11ZM47.5,243.5h-15v-35h15Zm176,0h-15v-35h15Zm20-40H12.5V138.08a7.51,7.51,0,0,1,7.5-7.5H236a7.51,7.51,0,0,1,7.5,7.5Z"/></svg>