<?xml version="1.0" ?><svg data-name="Layer 1" id="Layer_1" viewBox="0 0 256 256" xmlns="http://www.w3.org/2000/svg"><defs><style>.cls-1{fill:#40bdff;}.cls-2{fill:#fd0;}.cls-3{fill:#efc803;}.cls-4{fill:#eb5639;}.cls-5{fill:#2197f7;}.cls-6{fill:#d84936;}.cls-7{fill:#263238;}</style></defs><title/><path class="cls-1" d="M63,25a2,2,0,0,1,2-2H191a2,2,0,0,1,2,2V48h11V20a8,8,0,0,0-8-8H65a8,8,0,0,0-8,8V48h6Z"/><path class="cls-2" d="M236,52H25a8,8,0,0,0-8,8v54a12,12,0,0,0,12,12h77.09l0-.44a22,22,0,0,1,43.72,0l0,.44H232a12,12,0,0,0,12-12V60A8,8,0,0,0,236,52Z"/><path class="cls-3" d="M236,52h-5a8,8,0,0,1,8,8v54a12,12,0,0,1-12,12h5a12,12,0,0,0,12-12V60A8,8,0,0,0,236,52Z"/><path class="cls-4" d="M204,138v-8H188v8a8,8,0,0,0,16,0Z"/><path class="cls-4" d="M128,110a18.09,18.09,0,0,0-17.82,15.43l-.08.57h35.8l-.08-.57A18.09,18.09,0,0,0,128,110Z"/><path class="cls-2" d="M174.47,160.08A42,42,0,0,0,135.05,200h12.77a2,2,0,0,1,0,4H135.05c1.29,21.8,17.48,38.62,39.95,39.95V231.18a2,2,0,0,1,4,0v12.77c22.39-1.32,38.65-18.07,39.95-39.95H206.18a2,2,0,0,1,0-4h12.77a42,42,0,0,0-39.42-39.92l-.53,0v12.77a2,2,0,0,1-4,0V160.05Zm13.21,54.84a2,2,0,0,1-.6,2.76,2,2,0,0,1-2.76-.6l-9-14A2,2,0,0,1,175,202V182.82a2,2,0,1,1,4,0v18.59Z"/><path class="cls-1" d="M232,130H208v8a12,12,0,0,1-24,0v-8H72v8a12,12,0,0,1-24,0v-8H29a15.91,15.91,0,0,1-11.15-4.55l-.85-.83V196a8,8,0,0,0,8,8H131l0-.52A46,46,0,1,1,223,202q0,.74,0,1.48l0,.52h13a8,8,0,0,0,8-8V124.62l-.85.83A15.91,15.91,0,0,1,232,130Z"/><path class="cls-5" d="M243.15,125.45a16.09,16.09,0,0,1-4.15,2.92V196a8,8,0,0,1-8,8h5a8,8,0,0,0,8-8V124.62Z"/><path class="cls-4" d="M68,138v-8H52v8a8,8,0,0,0,16,0Z"/><path class="cls-5" d="M196,12h-5a8,8,0,0,1,8,8V48h5V20A8,8,0,0,0,196,12Z"/><path class="cls-6" d="M199,130v8a8,8,0,0,1-5.5,7.59A8,8,0,0,0,204,138v-8Z"/><path class="cls-6" d="M145.82,125.43A18.09,18.09,0,0,0,128,110a17.73,17.73,0,0,0-2.5.2,18.09,18.09,0,0,1,15.32,15.23l.08.57h5Z"/><path class="cls-3" d="M213.95,200h5a42,42,0,0,0-39.42-39.92l-.53,0v.55A42,42,0,0,1,213.95,200Z"/><path class="cls-3" d="M179,243.37v.58c22.39-1.32,38.65-18.07,39.95-39.95h-5C212.75,224.21,198.78,240,179,243.37Z"/><path class="cls-6" d="M63,130v8a8,8,0,0,1-5.5,7.59A8,8,0,0,0,68,138v-8Z"/><path class="cls-7" d="M236,47.5H208.5V20A12.51,12.51,0,0,0,196,7.5H60A12.51,12.51,0,0,0,47.5,20V47.5H20A12.51,12.51,0,0,0,7.5,60V196A12.51,12.51,0,0,0,20,208.5H131a46.51,46.51,0,0,0,92.1,0h13A12.51,12.51,0,0,0,248.5,196V60A12.51,12.51,0,0,0,236,47.5ZM52.5,20A7.51,7.51,0,0,1,60,12.5H196a7.51,7.51,0,0,1,7.5,7.5V47.5h-10V25a2.5,2.5,0,0,0-2.5-2.5H65A2.5,2.5,0,0,0,62.5,25V47.5h-10Zm136,7.5v20H67.5v-20Zm17.68,177h12.24a41.23,41.23,0,0,1-38.92,38.92V231.18a2.5,2.5,0,0,0-5,0v12.24a41.23,41.23,0,0,1-38.92-38.92h12.24a2.5,2.5,0,0,0,0-5H135.58a41.55,41.55,0,0,1,38.92-38.92v12.24a2.5,2.5,0,0,0,5,0V160.58a41.55,41.55,0,0,1,38.92,38.92H206.18a2.5,2.5,0,0,0,0,5ZM243.5,196a7.51,7.51,0,0,1-7.5,7.5H223.48q0-.75,0-1.5a46.5,46.5,0,1,0-93,1.5H20a7.51,7.51,0,0,1-7.5-7.5V125.81A16.44,16.44,0,0,0,24,130.5H47.5V138a12.5,12.5,0,0,0,25,0v-7.5h111V138a12.5,12.5,0,0,0,25,0v-7.5H232a16.44,16.44,0,0,0,11.5-4.69Zm-191-58v-7.5h15V138a7.5,7.5,0,0,1-15,0Zm58.18-12.5a17.5,17.5,0,0,1,34.64,0ZM188.5,138v-7.5h15V138a7.5,7.5,0,0,1-15,0Zm55-24A11.51,11.51,0,0,1,232,125.5H150.36a22.5,22.5,0,0,0-44.72,0H24A11.51,11.51,0,0,1,12.5,114V60A7.51,7.51,0,0,1,20,52.5H236a7.51,7.51,0,0,1,7.5,7.5Z"/><path class="cls-7" d="M179.5,201.27V182.82a2.5,2.5,0,1,0-5,0V202a2.5,2.5,0,0,0,.4,1.35l9,14a2.5,2.5,0,1,0,4.21-2.7Z"/><path class="cls-2" d="M132,235h-4v-4a1,1,0,0,0-2,0v4h-4a1,1,0,1,0,0,2h4v4a1,1,0,0,0,2,0v-4h4a1,1,0,0,0,0-2Z"/><path class="cls-2" d="M55,227.41H51v-4a1,1,0,0,0-2,0v4H45a1,1,0,0,0,0,2h4v4a1,1,0,0,0,2,0v-4h4a1,1,0,0,0,0-2Z"/><path class="cls-1" d="M241,229h-2.59l1.83-1.83a1,1,0,0,0-1.41-1.41L237,227.59V225a1,1,0,0,0-2,0v2.59l-1.83-1.83a1,1,0,0,0-1.41,1.41l1.83,1.83H231a1,1,0,0,0,0,2h2.59l-1.83,1.83a1,1,0,0,0,1.41,1.41l1.83-1.83V235a1,1,0,0,0,2,0v-2.59l1.83,1.83a1,1,0,0,0,1.41-1.41L238.41,231H241a1,1,0,0,0,0-2Z"/><path class="cls-1" d="M33.32,21.32h-4v-4a1,1,0,0,0-2,0v4h-4a1,1,0,0,0,0,2h4v4a1,1,0,1,0,2,0v-4h4a1,1,0,0,0,0-2Z"/><path class="cls-1" d="M95.06,231.82a6,6,0,1,1,6-6A6,6,0,0,1,95.06,231.82Zm0-10a4,4,0,1,0,4,4A4,4,0,0,0,95.06,221.82Z"/><path class="cls-2" d="M234,36a6,6,0,1,1,6-6A6,6,0,0,1,234,36Zm0-10a4,4,0,1,0,4,4A4,4,0,0,0,234,26Z"/></svg>