<?xml version="1.0" ?><svg data-name="Layer 1" id="Layer_1" viewBox="0 0 256 256" xmlns="http://www.w3.org/2000/svg"><defs><style>.cls-1{fill:#effafe;}.cls-2{fill:#e4ebed;}.cls-3{fill:#eb5639;}.cls-4{fill:#d84936;}.cls-5{fill:#263238;}.cls-6{fill:#fd0;}.cls-7{fill:#40bdff;}</style></defs><title/><path class="cls-1" d="M53.37,244H198a7.6,7.6,0,0,0,7.59-7.59V40.78H188.44a2,2,0,0,1-2-2V21.59H53.37a7.6,7.6,0,0,0-7.59,7.59V236.41A7.6,7.6,0,0,0,53.37,244ZM66.15,79.15H58a2,2,0,0,1,0-4h8.19a2,2,0,0,1,0,4ZM58,94.34h8.19a2,2,0,0,1,0,4H58a2,2,0,0,1,0-4Zm0,19.19h8.19a2,2,0,0,1,0,4H58a2,2,0,0,1,0-4Zm0,19.19h8.19a2,2,0,0,1,0,4H58a2,2,0,0,1,0-4Zm0,19.19h8.19a2,2,0,1,1,0,4H58a2,2,0,1,1,0-4Zm0,19.19h8.19a2,2,0,0,1,0,4H58a2,2,0,0,1,0-4Zm0,19.19h8.19a2,2,0,1,1,0,4H58a2,2,0,1,1,0-4Zm0,19.19h8.19a2,2,0,0,1,0,4H58a2,2,0,0,1,0-4Zm0,19.19h8.19a2,2,0,1,1,0,4H58a2,2,0,1,1,0-4Zm55.8-149.5H74.34a2,2,0,0,1,0-4h39.43a2,2,0,1,1,0,4ZM74.34,94.34h39.43a2,2,0,0,1,0,4H74.34a2,2,0,0,1,0-4Zm0,19.19h39.43a2,2,0,0,1,0,4H74.34a2,2,0,0,1,0-4Zm0,19.19h39.43a2,2,0,1,1,0,4H74.34a2,2,0,0,1,0-4Zm0,19.19h39.43a2,2,0,0,1,0,4H74.34a2,2,0,0,1,0-4Zm0,19.19h39.43a2,2,0,1,1,0,4H74.34a2,2,0,0,1,0-4Zm0,19.19h39.43a2,2,0,0,1,0,4H74.34a2,2,0,1,1,0-4Zm0,19.19h39.43a2,2,0,1,1,0,4H74.34a2,2,0,0,1,0-4Zm0,19.19h39.43a2,2,0,0,1,0,4H74.34a2,2,0,0,1,0-4ZM111.77,48.53A11.43,11.43,0,1,1,123.2,60,11.45,11.45,0,0,1,111.77,48.53Zm20.87,180.12h8.19a2,2,0,0,1,0,4h-8.19a2,2,0,0,1,0-4Zm8.19-15.19h-8.19a2,2,0,1,1,0-4h8.19a2,2,0,0,1,0,4Zm0-19.19h-8.19a2,2,0,0,1,0-4h8.19a2,2,0,0,1,0,4Zm0-19.19h-8.19a2,2,0,0,1,0-4h8.19a2,2,0,0,1,0,4Zm0-19.19h-8.19a2,2,0,0,1,0-4h8.19a2,2,0,0,1,0,4Zm0-19.19h-8.19a2,2,0,0,1,0-4h8.19a2,2,0,0,1,0,4Zm0-19.19h-8.19a2,2,0,0,1,0-4h8.19a2,2,0,0,1,0,4Zm0-19.19h-8.19a2,2,0,0,1,0-4h8.19a2,2,0,0,1,0,4Zm0-19.19h-8.19a2,2,0,0,1,0-4h8.19a2,2,0,0,1,0,4Zm47.62,0H149a2,2,0,0,1,0-4h39.43a2,2,0,0,1,0,4ZM149,94.34h39.43a2,2,0,0,1,0,4H149a2,2,0,0,1,0-4Zm0,19.19h39.43a2,2,0,0,1,0,4H149a2,2,0,0,1,0-4Zm0,19.19h39.43a2,2,0,0,1,0,4H149a2,2,0,0,1,0-4Zm0,19.19h39.43a2,2,0,0,1,0,4H149a2,2,0,0,1,0-4Zm0,19.19h39.43a2,2,0,0,1,0,4H149a2,2,0,0,1,0-4Zm0,19.19h39.43a2,2,0,0,1,0,4H149a2,2,0,0,1,0-4Zm0,19.19h39.43a2,2,0,0,1,0,4H149a2,2,0,0,1,0-4Zm0,19.19h39.43a2,2,0,0,1,0,4H149a2,2,0,0,1,0-4Z"/><path class="cls-2" d="M200.63,40.78V236.41A7.6,7.6,0,0,1,193,244h5a7.6,7.6,0,0,0,7.59-7.59V40.78Z"/><polygon class="cls-1" points="202.8 36.78 190.44 24.42 190.44 36.78 202.8 36.78"/><path class="cls-1" d="M188.82,17.63l.09-.49h0l-.08.49a2.28,2.28,0,0,1,1,.55L209,37.37a2.12,2.12,0,0,1,.59,1.41v195.4l.68-.26a7.64,7.64,0,0,0,4.92-7.11V19.59A7.6,7.6,0,0,0,207.63,12H63a7.64,7.64,0,0,0-7.11,4.92l-.26.68H188.44A2,2,0,0,1,188.82,17.63Z"/><circle class="cls-3" cx="123.2" cy="48.53" r="7.43"/><path class="cls-4" d="M123.2,41.1a7.4,7.4,0,0,0-2,.28,7.42,7.42,0,0,1,0,14.31,7.43,7.43,0,1,0,2-14.59Z"/><path class="cls-5" d="M48.37,248.5H198a12.11,12.11,0,0,0,11.87-9.82,12.11,12.11,0,0,0,9.82-11.87V19.59A12.11,12.11,0,0,0,207.63,7.5H58A12.11,12.11,0,0,0,46.1,17.32a12.11,12.11,0,0,0-9.82,11.87V236.41A12.11,12.11,0,0,0,48.37,248.5ZM58,12.5H207.63a7.1,7.1,0,0,1,7.09,7.09V226.81a7.11,7.11,0,0,1-4.59,6.64V38.78a2.55,2.55,0,0,0-.73-1.77L190.21,17.83a2.58,2.58,0,0,0-1.77-.73H51.33A7.11,7.11,0,0,1,58,12.5ZM201.59,36.28H190.94V25.63ZM41.28,29.19a7.1,7.1,0,0,1,7.09-7.09H185.94V38.78a2.5,2.5,0,0,0,2.5,2.5h16.69V236.41A7.1,7.1,0,0,1,198,243.5H48.37a7.1,7.1,0,0,1-7.09-7.09Z"/><path class="cls-5" d="M123.2,60.47a11.93,11.93,0,1,0-11.93-11.93A11.95,11.95,0,0,0,123.2,60.47Zm0-18.87a6.93,6.93,0,1,1-6.93,6.93A6.94,6.94,0,0,1,123.2,41.6Z"/><path class="cls-5" d="M149,79.65h39.43a2.5,2.5,0,0,0,0-5H149a2.5,2.5,0,0,0,0,5Z"/><path class="cls-5" d="M130.14,77.15a2.5,2.5,0,0,0,2.5,2.5h8.19a2.5,2.5,0,0,0,0-5h-8.19A2.5,2.5,0,0,0,130.14,77.15Z"/><path class="cls-5" d="M149,98.84h39.43a2.5,2.5,0,0,0,0-5H149a2.5,2.5,0,0,0,0,5Z"/><path class="cls-5" d="M140.82,93.84h-8.19a2.5,2.5,0,0,0,0,5h8.19a2.5,2.5,0,0,0,0-5Z"/><path class="cls-5" d="M149,118h39.43a2.5,2.5,0,0,0,0-5H149a2.5,2.5,0,0,0,0,5Z"/><path class="cls-5" d="M140.82,113h-8.19a2.5,2.5,0,0,0,0,5h8.19a2.5,2.5,0,0,0,0-5Z"/><path class="cls-5" d="M149,137.22h39.43a2.5,2.5,0,0,0,0-5H149a2.5,2.5,0,0,0,0,5Z"/><path class="cls-5" d="M140.82,132.22h-8.19a2.5,2.5,0,0,0,0,5h8.19a2.5,2.5,0,0,0,0-5Z"/><path class="cls-5" d="M149,156.4h39.43a2.5,2.5,0,0,0,0-5H149a2.5,2.5,0,0,0,0,5Z"/><path class="cls-5" d="M140.82,151.4h-8.19a2.5,2.5,0,0,0,0,5h8.19a2.5,2.5,0,0,0,0-5Z"/><path class="cls-5" d="M149,175.59h39.43a2.5,2.5,0,0,0,0-5H149a2.5,2.5,0,0,0,0,5Z"/><path class="cls-5" d="M140.82,170.59h-8.19a2.5,2.5,0,0,0,0,5h8.19a2.5,2.5,0,0,0,0-5Z"/><path class="cls-5" d="M149,194.78h39.43a2.5,2.5,0,0,0,0-5H149a2.5,2.5,0,0,0,0,5Z"/><path class="cls-5" d="M140.82,189.78h-8.19a2.5,2.5,0,0,0,0,5h8.19a2.5,2.5,0,0,0,0-5Z"/><path class="cls-5" d="M149,214h39.43a2.5,2.5,0,0,0,0-5H149a2.5,2.5,0,0,0,0,5Z"/><path class="cls-5" d="M140.82,209h-8.19a2.5,2.5,0,1,0,0,5h8.19a2.5,2.5,0,0,0,0-5Z"/><path class="cls-5" d="M149,233.15h39.43a2.5,2.5,0,0,0,0-5H149a2.5,2.5,0,0,0,0,5Z"/><path class="cls-5" d="M140.82,228.15h-8.19a2.5,2.5,0,0,0,0,5h8.19a2.5,2.5,0,0,0,0-5Z"/><path class="cls-5" d="M74.34,79.65h39.43a2.5,2.5,0,1,0,0-5H74.34a2.5,2.5,0,0,0,0,5Z"/><path class="cls-5" d="M58,79.65h8.19a2.5,2.5,0,0,0,0-5H58a2.5,2.5,0,0,0,0,5Z"/><path class="cls-5" d="M74.34,98.84h39.43a2.5,2.5,0,0,0,0-5H74.34a2.5,2.5,0,0,0,0,5Z"/><path class="cls-5" d="M58,98.84h8.19a2.5,2.5,0,0,0,0-5H58a2.5,2.5,0,0,0,0,5Z"/><path class="cls-5" d="M74.34,118h39.43a2.5,2.5,0,0,0,0-5H74.34a2.5,2.5,0,0,0,0,5Z"/><path class="cls-5" d="M58,118h8.19a2.5,2.5,0,0,0,0-5H58a2.5,2.5,0,0,0,0,5Z"/><path class="cls-5" d="M74.34,137.22h39.43a2.5,2.5,0,1,0,0-5H74.34a2.5,2.5,0,0,0,0,5Z"/><path class="cls-5" d="M58,137.22h8.19a2.5,2.5,0,0,0,0-5H58a2.5,2.5,0,0,0,0,5Z"/><path class="cls-5" d="M74.34,156.4h39.43a2.5,2.5,0,0,0,0-5H74.34a2.5,2.5,0,0,0,0,5Z"/><path class="cls-5" d="M58,156.4h8.19a2.5,2.5,0,1,0,0-5H58a2.5,2.5,0,1,0,0,5Z"/><path class="cls-5" d="M74.34,175.59h39.43a2.5,2.5,0,1,0,0-5H74.34a2.5,2.5,0,0,0,0,5Z"/><path class="cls-5" d="M58,175.59h8.19a2.5,2.5,0,0,0,0-5H58a2.5,2.5,0,0,0,0,5Z"/><path class="cls-5" d="M74.34,194.78h39.43a2.5,2.5,0,0,0,0-5H74.34a2.5,2.5,0,1,0,0,5Z"/><path class="cls-5" d="M58,194.78h8.19a2.5,2.5,0,1,0,0-5H58a2.5,2.5,0,1,0,0,5Z"/><path class="cls-5" d="M74.34,214h39.43a2.5,2.5,0,1,0,0-5H74.34a2.5,2.5,0,0,0,0,5Z"/><path class="cls-5" d="M58,214h8.19a2.5,2.5,0,0,0,0-5H58a2.5,2.5,0,0,0,0,5Z"/><path class="cls-5" d="M74.34,233.15h39.43a2.5,2.5,0,0,0,0-5H74.34a2.5,2.5,0,0,0,0,5Z"/><path class="cls-5" d="M58,233.15h8.19a2.5,2.5,0,1,0,0-5H58a2.5,2.5,0,1,0,0,5Z"/><path class="cls-6" d="M20.76,13.6v4h-4a1,1,0,0,0,0,2h4v4a1,1,0,0,0,2,0v-4h4a1,1,0,0,0,0-2h-4v-4a1,1,0,0,0-2,0Z"/><path class="cls-7" d="M235,171.59v4h-4a1,1,0,0,0,0,2h4v4a1,1,0,0,0,2,0v-4h4a1,1,0,0,0,0-2h-4v-4a1,1,0,0,0-2,0Z"/><path class="cls-6" d="M20.76,189.9v4h-4a1,1,0,0,0,0,2h4v4a1,1,0,0,0,2,0v-4h4a1,1,0,1,0,0-2h-4v-4a1,1,0,0,0-2,0Z"/><path class="cls-7" d="M30,103.3a6,6,0,1,1-6-6A6,6,0,0,1,30,103.3Zm-10,0a4,4,0,1,0,4-4A4,4,0,0,0,20,103.3Z"/><path class="cls-6" d="M242,63.58a6,6,0,1,1-6-6A6,6,0,0,1,242,63.58Zm-10,0a4,4,0,1,0,4-4A4,4,0,0,0,232,63.58Z"/></svg>