<?xml version="1.0" ?><svg data-name="Layer 1" id="Layer_1" viewBox="0 0 256 256" xmlns="http://www.w3.org/2000/svg"><defs><style>.cls-1{fill:#fd0;}.cls-2{fill:#eb5639;}.cls-3{fill:#40bdff;}.cls-4{fill:#efc803;}.cls-5{fill:#2197f7;}.cls-6{fill:#d84936;}.cls-7{fill:#263238;}</style></defs><title/><path class="cls-1" d="M79,50H23a8,8,0,0,0-8,8V78a8,8,0,0,0,8,8H41a2,2,0,0,1,1.79,1.11L51,103.53l8.21-16.42A2,2,0,0,1,61,86H79a8,8,0,0,0,8-8V58A8,8,0,0,0,79,50Z"/><path class="cls-1" d="M239,50H183a8,8,0,0,0-8,8V78a8,8,0,0,0,8,8h18a2,2,0,0,1,1.79,1.11L211,103.53l8.21-16.42A2,2,0,0,1,221,86h18a8,8,0,0,0,8-8V58A8,8,0,0,0,239,50Z"/><path class="cls-2" d="M128,136a8,8,0,0,0,0-16,8,8,0,0,0,0,16Z"/><path class="cls-2" d="M208,120a8,8,0,0,0,0,16,8,8,0,0,0,0-16Z"/><path class="cls-3" d="M159,170H141a2,2,0,0,1-1.79-1.11L131,152.47l-8.21,16.42A2,2,0,0,1,121,170H103a8,8,0,0,0-8,8v20a8,8,0,0,0,8,8h56a8,8,0,0,0,8-8V178A8,8,0,0,0,159,170Z"/><path class="cls-4" d="M79,50H71a8,8,0,0,1,8,8V78a8,8,0,0,1-8,8h8a8,8,0,0,0,8-8V58A8,8,0,0,0,79,50Z"/><path class="cls-4" d="M239,50h-8a8,8,0,0,1,8,8V78a8,8,0,0,1-8,8h8a8,8,0,0,0,8-8V58A8,8,0,0,0,239,50Z"/><path class="cls-5" d="M159,170h-8a8,8,0,0,1,8,8v20a8,8,0,0,1-8,8h8a8,8,0,0,0,8-8V178A8,8,0,0,0,159,170Z"/><circle class="cls-2" cx="48" cy="128" r="8"/><path class="cls-6" d="M48,120a8,8,0,0,0-2,.26,8,8,0,0,1,0,15.47A8,8,0,1,0,48,120Z"/><path class="cls-6" d="M128,120a8,8,0,0,0-2,.26,8,8,0,0,1,0,15.47A8,8,0,1,0,128,120Z"/><path class="cls-6" d="M208,120a8,8,0,0,0-2,.26,8,8,0,0,1,0,15.47A8,8,0,1,0,208,120Z"/><path class="cls-7" d="M246,125.5H220.25a12.5,12.5,0,0,0-24.5,0h-55.5a12.5,12.5,0,0,0-24.5,0H60.25a12.5,12.5,0,0,0-24.5,0H10a2.5,2.5,0,0,0,0,5H35.75a12.5,12.5,0,0,0,24.5,0h55.5a12.5,12.5,0,0,0,24.5,0h55.5a12.5,12.5,0,0,0,24.5,0H246a2.5,2.5,0,0,0,0-5Zm-198,10a7.5,7.5,0,1,1,7.5-7.5A7.51,7.51,0,0,1,48,135.5Zm80,0a7.5,7.5,0,0,1,0-15,7.5,7.5,0,0,1,0,15Zm80,0a7.5,7.5,0,0,1,0-15,7.5,7.5,0,0,1,0,15Z"/><path class="cls-7" d="M20,90.5H36.46l9.31,18.62a2.5,2.5,0,0,0,4.47,0L59.54,90.5H76A12.51,12.51,0,0,0,88.5,78V58A12.51,12.51,0,0,0,76,45.5H20A12.51,12.51,0,0,0,7.5,58V78A12.51,12.51,0,0,0,20,90.5ZM12.5,58A7.51,7.51,0,0,1,20,50.5H76A7.51,7.51,0,0,1,83.5,58V78A7.51,7.51,0,0,1,76,85.5H58a2.5,2.5,0,0,0-2.24,1.38L48,102.41,40.24,86.88A2.5,2.5,0,0,0,38,85.5H20A7.51,7.51,0,0,1,12.5,78Z"/><path class="cls-7" d="M20,65.5H76a2.5,2.5,0,0,0,0-5H20a2.5,2.5,0,0,0,0,5Z"/><path class="cls-7" d="M20,75.5H66a2.5,2.5,0,0,0,0-5H20a2.5,2.5,0,0,0,0,5Z"/><path class="cls-7" d="M236,45.5H180A12.51,12.51,0,0,0,167.5,58V78A12.51,12.51,0,0,0,180,90.5h16.46l9.31,18.62a2.5,2.5,0,0,0,4.47,0l9.31-18.62H236A12.51,12.51,0,0,0,248.5,78V58A12.51,12.51,0,0,0,236,45.5ZM243.5,78a7.51,7.51,0,0,1-7.5,7.5H218a2.5,2.5,0,0,0-2.24,1.38L208,102.41l-7.76-15.53A2.5,2.5,0,0,0,198,85.5H180a7.51,7.51,0,0,1-7.5-7.5V58a7.51,7.51,0,0,1,7.5-7.5h56a7.51,7.51,0,0,1,7.5,7.5Z"/><path class="cls-7" d="M236,60.5H180a2.5,2.5,0,0,0,0,5h56a2.5,2.5,0,0,0,0-5Z"/><path class="cls-7" d="M226,70.5H180a2.5,2.5,0,0,0,0,5h46a2.5,2.5,0,0,0,0-5Z"/><path class="cls-7" d="M156,165.5H139.54l-9.31-18.62a2.5,2.5,0,0,0-4.47,0l-9.31,18.62H100A12.51,12.51,0,0,0,87.5,178v20A12.51,12.51,0,0,0,100,210.5h56A12.51,12.51,0,0,0,168.5,198V178A12.51,12.51,0,0,0,156,165.5Zm7.5,32.5a7.51,7.51,0,0,1-7.5,7.5H100a7.51,7.51,0,0,1-7.5-7.5V178a7.51,7.51,0,0,1,7.5-7.5h18a2.5,2.5,0,0,0,2.24-1.38L128,153.59l7.76,15.53A2.5,2.5,0,0,0,138,170.5h18a7.51,7.51,0,0,1,7.5,7.5Z"/><path class="cls-7" d="M156,180.5H100a2.5,2.5,0,0,0,0,5h56a2.5,2.5,0,0,0,0-5Z"/><path class="cls-7" d="M146,190.5H100a2.5,2.5,0,0,0,0,5h46a2.5,2.5,0,0,0,0-5Z"/><path class="cls-1" d="M80.15,12.19v4h-4a1,1,0,0,0,0,2h4v4a1,1,0,0,0,2,0v-4h4a1,1,0,0,0,0-2h-4v-4a1,1,0,1,0-2,0Z"/><path class="cls-3" d="M196,192v4h-4a1,1,0,0,0,0,2h4v4a1,1,0,0,0,2,0v-4h4a1,1,0,0,0,0-2h-4v-4a1,1,0,0,0-2,0Z"/><path class="cls-3" d="M32.54,28a6,6,0,1,1-6-6A6,6,0,0,1,32.54,28Zm-10,0a4,4,0,1,0,4-4A4,4,0,0,0,22.54,28Z"/><path class="cls-1" d="M234.94,164.23a6,6,0,1,1-6-6A6,6,0,0,1,234.94,164.23Zm-10,0a4,4,0,1,0,4-4A4,4,0,0,0,224.94,164.23Z"/><path class="cls-3" d="M133.06,53.37a6,6,0,1,1-6-6A6,6,0,0,1,133.06,53.37Zm-10,0a4,4,0,1,0,4-4A4,4,0,0,0,123.06,53.37Z"/><path class="cls-3" d="M61,165.83H58.41L60.24,164a1,1,0,0,0-1.41-1.41L57,164.41v-2.59a1,1,0,0,0-2,0v2.59l-1.83-1.83A1,1,0,0,0,51.76,164l1.83,1.83H51a1,1,0,0,0,0,2h2.59l-1.83,1.83a1,1,0,0,0,1.41,1.41L55,169.24v2.59a1,1,0,0,0,2,0v-2.59l1.83,1.83a1,1,0,0,0,1.41-1.41l-1.83-1.83H61a1,1,0,0,0,0-2Z"/></svg>