<?xml version="1.0" ?><svg data-name="Layer 1" id="Layer_1" viewBox="0 0 256 256" xmlns="http://www.w3.org/2000/svg"><defs><style>.cls-1{fill:#2197f7;}.cls-2{fill:#40bdff;}.cls-3{fill:#fd0;}.cls-4{fill:#effafe;}.cls-5{fill:#ffeb66;}.cls-6{fill:#228ed6;}.cls-7{fill:#e4ebed;}.cls-8{fill:#263238;}</style></defs><title/><polygon class="cls-1" points="174.34 13.04 206.67 33.15 239 13.04 174.34 13.04"/><polygon class="cls-2" points="169.33 55.52 196.47 31.51 169.33 14.64 169.33 55.52"/><path class="cls-1" d="M239.77,57.08c-7.65-6.78-19.18-17-26.44-23.37l-5.61,3.49a2,2,0,0,1-2.11,0L200,33.72,172.61,58h68.14Z"/><path class="cls-2" d="M243.17,54.75l.83.74V14.64L216.88,31.51C234.89,47.43,238.3,50.43,243.17,54.75Z"/><polygon class="cls-3" points="49.33 33.15 81.66 13.04 17 13.04 49.33 33.15"/><path class="cls-1" d="M59.85,244h140.3a3,3,0,0,0,3-3v-6.08H56.85V241A3,3,0,0,0,59.85,244Z"/><rect class="cls-4" height="59.78" width="121.15" x="68.93" y="133.22"/><polygon class="cls-5" points="12 14.64 12 55.52 39.13 31.51 12 14.64"/><path class="cls-2" d="M57.66,230.92H202.34L190.65,197H69.35Zm88.69-7.54a2,2,0,0,1-2,2H131.27a2,2,0,0,1,0-4h13.08A2,2,0,0,1,146.35,223.39Zm-34.69-2h13.08a2,2,0,1,1,0,4H111.65a2,2,0,0,1,0-4Z"/><path class="cls-2" d="M68.93,123v6.22H190.07V123a3,3,0,0,0-3-3H71.93A3,3,0,0,0,68.93,123Z"/><path class="cls-6" d="M198.15,234.92V241a3,3,0,0,1-3,3h5a3,3,0,0,0,3-3v-6.08Z"/><rect class="cls-7" height="59.78" width="5" x="185.07" y="133.22"/><polygon class="cls-1" points="190.65 197 185.65 197 197.34 230.92 202.34 230.92 190.65 197"/><path class="cls-1" d="M187.07,120h-5a3,3,0,0,1,3,3v6.22h5V123A3,3,0,0,0,187.07,120Z"/><path class="cls-3" d="M83.42,58l-1-.87C74.87,50.38,63.52,40.36,56,33.71L50.39,37.2a2,2,0,0,1-2.11,0l-5.6-3.48L15.28,58Z"/><path class="cls-5" d="M86.67,55.49V14.64L59.54,31.51,60,32C78.18,48,81.77,51.15,86.67,55.49Z"/><path class="cls-3" d="M82.67,17.13V51.95l4,3.55V14.64Z"/><path class="cls-1" d="M240,17.13V51.95l4,3.55V14.64Z"/><path class="cls-8" d="M10,62.46H88.67a2.51,2.51,0,0,0,2.5-2.5V11a2.51,2.51,0,0,0-2.5-2.5H10A2.52,2.52,0,0,0,7.5,11V60A2.51,2.51,0,0,0,10,62.46Zm6.6-5L42.73,34.34,48,37.62a2.5,2.5,0,0,0,2.64,0l5.29-3.29C63.26,40.8,74.86,51,82.1,57.46Zm69.57-3.08c-6.69-5.94-18.93-16.74-25.79-22.8l25.79-16ZM79.91,13.54l-30.58,19-30.58-19Zm-67.41,2,25.8,16L12.5,54.41Z"/><path class="cls-8" d="M246,8.54H167.33a2.51,2.51,0,0,0-2.5,2.5V60a2.53,2.53,0,0,0,2.5,2.5H246a2.52,2.52,0,0,0,2.5-2.5V11A2.52,2.52,0,0,0,246,8.54Zm-8.75,5-30.58,19-30.58-19Zm-67.41,2,25.8,16-25.8,22.82Zm4.1,41.92,26.13-23.12,5.28,3.28a2.5,2.5,0,0,0,2.64,0l5.29-3.29c7.6,6.71,19.26,17,26.16,23.12Zm69.57-3.08c-6.71-5.95-19.07-16.87-25.79-22.8l25.79-16Z"/><path class="cls-8" d="M124.73,220.89H111.65a2.5,2.5,0,0,0,0,5h13.08a2.5,2.5,0,1,0,0-5Z"/><path class="cls-8" d="M144.35,220.89H131.27a2.5,2.5,0,0,0,0,5h13.08a2.5,2.5,0,0,0,0-5Z"/><path class="cls-8" d="M194.57,123a7.51,7.51,0,0,0-7.5-7.5H68.93a7.51,7.51,0,0,0-7.5,7.5v71.58L48.49,232.11a3.79,3.79,0,0,0-.14.82V241a7.51,7.51,0,0,0,7.5,7.5h144.3a7.51,7.51,0,0,0,7.5-7.5v-8.08a3.79,3.79,0,0,0-.14-.82l-12.94-37.52ZM66.43,123a2.5,2.5,0,0,1,2.5-2.5H187.07a2.5,2.5,0,0,1,2.5,2.5v5.72H66.43Zm0,10.72H189.57V192.5H66.43ZM202.65,241a2.5,2.5,0,0,1-2.5,2.5H55.85a2.5,2.5,0,0,1-2.5-2.5v-5.58h149.3Zm-1-10.58H54.36L65.71,197.5H190.29Z"/><path class="cls-8" d="M111.48,70a2.5,2.5,0,0,0-2.5-2.5H90a2.52,2.52,0,0,0-2.5,2.5V89a2.5,2.5,0,0,0,5,0V76l33.78,33.78a2.5,2.5,0,0,0,3.54,0L163.54,76V89a2.5,2.5,0,0,0,5,0V70a2.51,2.51,0,0,0-2.5-2.5H147a2.5,2.5,0,0,0,0,5h13l-32,32-32-32h13A2.5,2.5,0,0,0,111.48,70Z"/><path class="cls-2" d="M225.44,82.62h-4v-4a1,1,0,1,0-2,0v4h-4a1,1,0,0,0,0,2h4v4a1,1,0,0,0,2,0v-4h4a1,1,0,0,0,0-2Z"/><path class="cls-3" d="M155,27.06h-4v-4a1,1,0,1,0-2,0v4h-4a1,1,0,0,0,0,2h4v4a1,1,0,1,0,2,0v-4h4a1,1,0,0,0,0-2Z"/><path class="cls-3" d="M48.33,87.49h-4v-4a1,1,0,0,0-2,0v4h-4a1,1,0,1,0,0,2h4v4a1,1,0,0,0,2,0v-4h4a1,1,0,0,0,0-2Z"/><path class="cls-2" d="M128,64a6,6,0,1,1,6-6A6,6,0,0,1,128,64Zm0-10a4,4,0,1,0,4,4A4,4,0,0,0,128,54Z"/><path class="cls-3" d="M207.65,154.49a6,6,0,1,1,6-6A6,6,0,0,1,207.65,154.49Zm0-10a4,4,0,1,0,4,4A4,4,0,0,0,207.65,144.49Z"/><path class="cls-2" d="M47,176.75H44.41l1.83-1.83a1,1,0,0,0-1.41-1.41L43,175.33v-2.59a1,1,0,0,0-2,0v2.59l-1.83-1.83a1,1,0,0,0-1.41,1.41l1.83,1.83H37a1,1,0,0,0,0,2h2.59l-1.83,1.83A1,1,0,0,0,39.17,182L41,180.16v2.59a1,1,0,0,0,2,0v-2.59L44.83,182a1,1,0,0,0,1.41-1.41l-1.83-1.83H47a1,1,0,0,0,0-2Z"/></svg>