<?xml version="1.0" ?><svg data-name="Layer 1" id="Layer_1" viewBox="0 0 256 256" xmlns="http://www.w3.org/2000/svg"><defs><style>.cls-1{fill:#40bdff;}.cls-2{fill:#2197f7;}.cls-3{fill:#228ed6;}.cls-4{fill:#effafe;}.cls-5{fill:#e4ebed;}.cls-6{fill:#263238;}.cls-7{fill:#fd0;}</style></defs><title/><path class="cls-1" d="M38.85,156.19a11.42,11.42,0,1,0-22.85,0v35.59H38.85Z"/><path class="cls-2" d="M56.27,129.34v62.44H79.12V129.34a11.42,11.42,0,1,0-22.85,0Z"/><path class="cls-1" d="M96.55,102.49v89.29H119.4V102.49a11.42,11.42,0,1,0-22.85,0Z"/><path class="cls-2" d="M108,91.07a11.36,11.36,0,0,0-4.5.93,11.44,11.44,0,0,1,6.92,10.5v89.29h9V102.49A11.44,11.44,0,0,0,108,91.07Z"/><path class="cls-3" d="M67.7,117.92a11.36,11.36,0,0,0-4.5.93,11.44,11.44,0,0,1,6.92,10.5v62.44h9V129.34A11.44,11.44,0,0,0,67.7,117.92Z"/><path class="cls-3" d="M27.42,144.77a11.36,11.36,0,0,0-4.5.93,11.44,11.44,0,0,1,6.92,10.5v35.59h9V156.19A11.44,11.44,0,0,0,27.42,144.77Z"/><path class="cls-4" d="M192.41,64.22a30.93,30.93,0,0,0-3.19,61.7h6.43a30.93,30.93,0,0,0-3.24-61.69Z"/><path class="cls-4" d="M200.69,129.92H184.14a47.37,47.37,0,0,0-47.32,47.31v14.55H248V177.23A47.37,47.37,0,0,0,200.69,129.92Z"/><path class="cls-5" d="M192.41,64.22a31,31,0,0,0-5,.41,30.93,30.93,0,0,1,0,61c.59.1,1.19.18,1.79.25h6.43a30.93,30.93,0,0,0-3.24-61.69Z"/><path class="cls-5" d="M200.69,129.92h-8.82a47.37,47.37,0,0,1,47.31,47.31v14.55H248V177.23A47.37,47.37,0,0,0,200.69,129.92Z"/><path class="cls-6" d="M205.5,126.18a35.43,35.43,0,1,0-34.17,0,51.89,51.89,0,0,0-43,51v16.55a2.5,2.5,0,0,0,2.5,2.5H246a2.5,2.5,0,0,0,2.5-2.5V177.23A51.89,51.89,0,0,0,205.5,126.18ZM158,95.15a30.43,30.43,0,1,1,33.62,30.26h-6.38A30.47,30.47,0,0,1,158,95.15Zm85.52,96.13H133.32v-14a46.87,46.87,0,0,1,46.81-46.81h16.55a46.87,46.87,0,0,1,46.81,46.81Z"/><path class="cls-6" d="M117.4,196.28a2.5,2.5,0,0,0,2.5-2.5V102.49a15.92,15.92,0,1,0-31.85,0v91.29a2.5,2.5,0,0,0,2.5,2.5ZM93,102.49a10.92,10.92,0,1,1,21.85,0v88.79H93Z"/><path class="cls-6" d="M77.12,196.28a2.5,2.5,0,0,0,2.5-2.5V129.34a15.92,15.92,0,1,0-31.85,0v64.44a2.5,2.5,0,0,0,2.5,2.5ZM52.77,129.34a10.92,10.92,0,1,1,21.85,0v61.94H52.77Z"/><path class="cls-6" d="M10,196.28H36.85a2.5,2.5,0,0,0,2.5-2.5V156.19a15.92,15.92,0,1,0-31.85,0v37.59A2.5,2.5,0,0,0,10,196.28Zm2.5-40.09a10.92,10.92,0,1,1,21.85,0v35.09H12.5Z"/><path class="cls-7" d="M235,213h-4v-4a1,1,0,0,0-2,0v4h-4a1,1,0,0,0,0,2h4v4a1,1,0,0,0,2,0v-4h4a1,1,0,0,0,0-2Z"/><path class="cls-7" d="M113,209h-4v-4a1,1,0,0,0-2,0v4h-4a1,1,0,0,0,0,2h4v4a1,1,0,0,0,2,0v-4h4a1,1,0,0,0,0-2Z"/><path class="cls-1" d="M39.85,215h-4v-4a1,1,0,0,0-2,0v4h-4a1,1,0,0,0,0,2h4v4a1,1,0,0,0,2,0v-4h4a1,1,0,0,0,0-2Z"/><path class="cls-1" d="M161.4,227.49h-4v-4a1,1,0,0,0-2,0v4h-4a1,1,0,0,0,0,2h4v4a1,1,0,0,0,2,0v-4h4a1,1,0,0,0,0-2Z"/><path class="cls-7" d="M22.07,92.49a6,6,0,1,1,6-6A6,6,0,0,1,22.07,92.49Zm0-10a4,4,0,1,0,4,4A4,4,0,0,0,22.07,82.49Z"/><path class="cls-7" d="M239.6,106.93a6,6,0,1,1,6-6A6,6,0,0,1,239.6,106.93Zm0-10a4,4,0,1,0,4,4A4,4,0,0,0,239.6,96.93Z"/><path class="cls-1" d="M133.32,64.24h-2.59l1.83-1.83A1,1,0,0,0,131.15,61l-1.83,1.83V60.24a1,1,0,0,0-2,0v2.59L125.49,61a1,1,0,0,0-1.41,1.41l1.83,1.83h-2.59a1,1,0,0,0,0,2h2.59l-1.83,1.83a1,1,0,0,0,1.41,1.41l1.83-1.83v2.59a1,1,0,1,0,2,0V67.66l1.83,1.83a1,1,0,0,0,1.41-1.41l-1.83-1.83h2.59a1,1,0,0,0,0-2Z"/></svg>