<?xml version="1.0" ?><svg data-name="Layer 1" id="Layer_1" viewBox="0 0 256 256" xmlns="http://www.w3.org/2000/svg"><defs><style>.cls-1{fill:#40bdff;}.cls-2{fill:#eb5639;}.cls-3{fill:#effafe;}.cls-4{fill:#d84936;}.cls-5{fill:#e4ebed;}.cls-6{fill:#2197f7;}.cls-7{fill:#263238;}.cls-8{fill:#fd0;}</style></defs><title/><path class="cls-1" d="M219.92,43.93l-.83.72a14,14,0,0,1-9.21,3.47H130V68.39l.39.09a11,11,0,0,1,0,21.52l-.39.09V219.92h79.88c4.2,0,7.11,1.64,10,4.19Zm-13,34.19H152a2,2,0,0,1,0-4h54.89a2,2,0,0,1,0,4Zm-54.89,6h54.89a2,2,0,0,1,0,4H152a2,2,0,0,1,0-4Zm54.89-16H162a2,2,0,0,1,0-4h44.89a2,2,0,0,1,0,4Z"/><path class="cls-2" d="M121,79.23a7.07,7.07,0,0,0,6.43,7h.08l.08,0a1.82,1.82,0,0,1,.89,0l.08,0h.08a7,7,0,1,0-7.63-7Z"/><path class="cls-1" d="M41.91,44.65l-.83-.72V224.11l.83-.72a14,14,0,0,1,9.21-3.47H126V90.08l-.39-.09a11,11,0,0,1,0-21.52l.39-.09V48.12H51.12A14,14,0,0,1,41.91,44.65Z"/><path class="cls-3" d="M41.08,34.08a10.05,10.05,0,0,0,10,10H209.88a10.05,10.05,0,0,0,10-10V12H41.08Zm97.95-6a11,11,0,1,1-11-11A11,11,0,0,1,139,28.06Z"/><circle class="cls-2" cx="128" cy="28.06" r="7.03"/><path class="cls-4" d="M128,21a7,7,0,0,0-2,.29,7,7,0,0,1,0,13.47A7,7,0,1,0,128,21Z"/><path class="cls-4" d="M128,72.19a7,7,0,0,0-2,.29A7,7,0,0,1,126,86a7,7,0,1,0,2-13.77Z"/><path class="cls-3" d="M219.92,234a10.05,10.05,0,0,0-10-10H51.12a10.05,10.05,0,0,0-10,10v10H219.92Z"/><path class="cls-5" d="M214.92,12V34.08a10.05,10.05,0,0,1-10,10h5a10.05,10.05,0,0,0,10-10V12Z"/><path class="cls-5" d="M209.88,223.92h-5a10.05,10.05,0,0,1,10,10v10h5V234A10.05,10.05,0,0,0,209.88,223.92Z"/><path class="cls-6" d="M219.09,44.65a14.1,14.1,0,0,1-4.17,2.52V220.88a17.85,17.85,0,0,1,5,3.23V43.93Z"/><path class="cls-7" d="M224.42,246V10a2.5,2.5,0,0,0-2.5-2.5H34.08a2.5,2.5,0,0,0-2.5,2.5V246a2.5,2.5,0,0,0,2.5,2.5H221.92A2.5,2.5,0,0,0,224.42,246ZM36.58,45a14.46,14.46,0,0,0,9.54,3.59H125.5V68a11.52,11.52,0,0,0,0,22.5V219.42H46.12A14.46,14.46,0,0,0,36.58,223ZM128,72.7a6.53,6.53,0,0,1,.56,13,2.33,2.33,0,0,0-1.12,0,6.53,6.53,0,0,1,.56-13Zm91.42,170.8H36.58V234a9.55,9.55,0,0,1,9.54-9.54H209.88a9.55,9.55,0,0,1,9.54,9.54Zm0-20.49a14.46,14.46,0,0,0-9.54-3.59H130.5V90.48a11.52,11.52,0,0,0,0-22.5V48.62h79.38A14.46,14.46,0,0,0,219.42,45Zm0-188.93a9.55,9.55,0,0,1-9.54,9.54H46.12a9.55,9.55,0,0,1-9.54-9.54V12.5H219.42Z"/><path class="cls-7" d="M128,39.59a11.53,11.53,0,1,0-11.53-11.53A11.54,11.54,0,0,0,128,39.59Zm0-18.06a6.53,6.53,0,1,1-6.53,6.53A6.54,6.54,0,0,1,128,21.53Z"/><path class="cls-7" d="M206.92,63.62H162a2.5,2.5,0,0,0,0,5h44.89a2.5,2.5,0,0,0,0-5Z"/><path class="cls-7" d="M206.92,73.62H152a2.5,2.5,0,0,0,0,5h54.89a2.5,2.5,0,0,0,0-5Z"/><path class="cls-7" d="M206.92,83.62H152a2.5,2.5,0,0,0,0,5h54.89a2.5,2.5,0,0,0,0-5Z"/><path class="cls-1" d="M24.07,22h-4V18a1,1,0,0,0-2,0v4h-4a1,1,0,0,0,0,2h4v4a1,1,0,1,0,2,0V24h4a1,1,0,0,0,0-2Z"/><path class="cls-1" d="M237.41,48.49a6,6,0,1,1,6-6A6,6,0,0,1,237.41,48.49Zm0-10a4,4,0,1,0,4,4A4,4,0,0,0,237.41,38.49Z"/><path class="cls-8" d="M20,215.49a6,6,0,1,1,6-6A6,6,0,0,1,20,215.49Zm0-10a4,4,0,1,0,4,4A4,4,0,0,0,20,205.49Z"/><path class="cls-8" d="M236,105a6,6,0,1,1,6-6A6,6,0,0,1,236,105Zm0-10a4,4,0,1,0,4,4A4,4,0,0,0,236,95Z"/><path class="cls-1" d="M22.33,114.5H19.75l1.83-1.83a1,1,0,0,0-1.41-1.41l-1.83,1.83V110.5a1,1,0,0,0-2,0v2.59l-1.83-1.83a1,1,0,0,0-1.41,1.41l1.83,1.83H12.33a1,1,0,0,0,0,2h2.59l-1.83,1.83a1,1,0,0,0,1.41,1.41l1.83-1.83v2.59a1,1,0,0,0,2,0v-2.59l1.83,1.83a1,1,0,0,0,1.41-1.41l-1.83-1.83h2.59a1,1,0,0,0,0-2Z"/></svg>