<?xml version="1.0" ?><svg data-name="Layer 1" id="Layer_1" viewBox="0 0 256 256" xmlns="http://www.w3.org/2000/svg"><defs><style>.cls-1{fill:#eb5639;}.cls-2{fill:#40bdff;}.cls-3{fill:#fd0;}.cls-4{fill:#efc803;}.cls-5{fill:#2197f7;}.cls-6{fill:#d84936;}.cls-7{fill:#228ed6;}.cls-8{fill:#263238;}</style></defs><title/><path class="cls-1" d="M68,138v-8H52v8a8,8,0,0,0,16,0Z"/><path class="cls-2" d="M197,204a14.67,14.67,0,1,0-14.67-14.67A14.68,14.68,0,0,0,197,204Z"/><path class="cls-3" d="M232,130H208v8a12,12,0,0,1-24,0v-8H72v8a12,12,0,0,1-24,0v-8H29a15.91,15.91,0,0,1-11.15-4.55l-.85-.83V196a8,8,0,0,0,8,8H168.78A59.29,59.29,0,0,1,166,187a31,31,0,0,1,62,0,59,59,0,0,1-2.78,17H236a8,8,0,0,0,8-8V124.62l-.85.83A15.91,15.91,0,0,1,232,130Z"/><path class="cls-2" d="M236,52H25a8,8,0,0,0-8,8v54a12,12,0,0,0,12,12h77.09l0-.44a22,22,0,0,1,43.72,0l0,.44H232a12,12,0,0,0,12-12V60A8,8,0,0,0,236,52Z"/><path class="cls-4" d="M243.15,125.45a16.09,16.09,0,0,1-4.15,2.92V196a8,8,0,0,1-8,8h5a8,8,0,0,0,8-8V124.62Z"/><path class="cls-5" d="M236,52h-5a8,8,0,0,1,8,8v54a12,12,0,0,1-12,12h5a12,12,0,0,0,12-12V60A8,8,0,0,0,236,52Z"/><path class="cls-1" d="M128,110a18.09,18.09,0,0,0-17.82,15.43l-.08.57h35.8l-.08-.57A18.09,18.09,0,0,0,128,110Z"/><path class="cls-5" d="M197,243.06c13.2-14.75,27-36.29,27-56.06a27,27,0,0,0-54,0C170,206.74,183.84,228.35,197,243.06Zm0-72.4a18.67,18.67,0,1,1-18.67,18.67A18.69,18.69,0,0,1,197,170.67Z"/><path class="cls-1" d="M204,138v-8H188v8a8,8,0,0,0,16,0Z"/><path class="cls-3" d="M204,48V20a8,8,0,0,0-8-8H60a8,8,0,0,0-8,8V48H63V25a2,2,0,0,1,2-2H191a2,2,0,0,1,2,2V48Z"/><path class="cls-6" d="M63,130v8a8,8,0,0,1-5.5,7.59A8,8,0,0,0,68,138v-8Z"/><path class="cls-5" d="M197,174.67a14.65,14.65,0,0,0-2.5.23,14.65,14.65,0,0,1,0,28.87,14.66,14.66,0,1,0,2.5-29.1Z"/><path class="cls-6" d="M145.82,125.43A18.09,18.09,0,0,0,128,110a17.72,17.72,0,0,0-2.5.2,18.09,18.09,0,0,1,15.32,15.23l.08.57h5Z"/><path class="cls-7" d="M197,160c-.84,0-1.68,0-2.5.12A27,27,0,0,1,219,187c0,18.53-12.12,38.6-24.5,53.19q1.25,1.47,2.5,2.87c13.2-14.75,27-36.29,27-56.06A27,27,0,0,0,197,160Z"/><path class="cls-6" d="M199,130v8a8,8,0,0,1-5.5,7.59A8,8,0,0,0,204,138v-8Z"/><path class="cls-3" d="M196,12h-5a8,8,0,0,1,8,8V48h5V20A8,8,0,0,0,196,12Z"/><path class="cls-8" d="M236,47.5H208.5V20A12.51,12.51,0,0,0,196,7.5H60A12.51,12.51,0,0,0,47.5,20V47.5H20A12.51,12.51,0,0,0,7.5,60V196A12.51,12.51,0,0,0,20,208.5H169.82c8.1,21.4,24.68,38.51,25.39,39.25a2.5,2.5,0,0,0,3.57,0c.72-.74,17.29-17.85,25.39-39.25H236A12.51,12.51,0,0,0,248.5,196V60A12.51,12.51,0,0,0,236,47.5ZM52.5,20A7.51,7.51,0,0,1,60,12.5H196a7.51,7.51,0,0,1,7.5,7.5V47.5h-10V25a2.5,2.5,0,0,0-2.5-2.5H65A2.5,2.5,0,0,0,62.5,25V47.5h-10Zm136,7.5v20H67.5v-20ZM197,242.31c-12.87-14.4-26.5-35.93-26.5-55.31a26.5,26.5,0,0,1,53,0C223.5,206.41,209.91,227.87,197,242.31ZM243.5,196a7.51,7.51,0,0,1-7.5,7.5H225.89A58.64,58.64,0,0,0,228.5,187a31.5,31.5,0,0,0-63,0,58.53,58.53,0,0,0,2.61,16.5H20a7.51,7.51,0,0,1-7.5-7.5V125.81A16.44,16.44,0,0,0,24,130.5H47.5V138a12.5,12.5,0,0,0,25,0v-7.5h111V138a12.5,12.5,0,0,0,25,0v-7.5H232a16.44,16.44,0,0,0,11.5-4.69Zm-191-58v-7.5h15V138a7.5,7.5,0,0,1-15,0Zm58.18-12.5a17.5,17.5,0,0,1,34.64,0ZM188.5,138v-7.5h15V138a7.5,7.5,0,0,1-15,0Zm55-24A11.51,11.51,0,0,1,232,125.5H150.36a22.5,22.5,0,0,0-44.72,0H24A11.51,11.51,0,0,1,12.5,114V60A7.51,7.51,0,0,1,20,52.5H236a7.51,7.51,0,0,1,7.5,7.5Z"/><path class="cls-8" d="M197,170.17a19.17,19.17,0,1,0,19.17,19.17A19.19,19.19,0,0,0,197,170.17Zm0,33.33a14.17,14.17,0,1,1,14.17-14.17A14.18,14.18,0,0,1,197,203.5Z"/><path class="cls-3" d="M35,29H31V25a1,1,0,0,0-2,0v4H25a1,1,0,0,0,0,2h4v4a1,1,0,0,0,2,0V31h4a1,1,0,0,0,0-2Z"/><path class="cls-2" d="M30,232a6,6,0,1,1,6-6A6,6,0,0,1,30,232Zm0-10a4,4,0,1,0,4,4A4,4,0,0,0,30,222Z"/><path class="cls-3" d="M88,242a6,6,0,1,1,6-6A6,6,0,0,1,88,242Zm0-10a4,4,0,1,0,4,4A4,4,0,0,0,88,232Z"/><path class="cls-2" d="M229,31.88h-2.59L228.24,30a1,1,0,0,0-1.41-1.41L225,30.46V27.88a1,1,0,0,0-2,0v2.59l-1.83-1.83A1,1,0,0,0,219.76,30l1.83,1.83H219a1,1,0,0,0,0,2h2.59l-1.83,1.83a1,1,0,0,0,1.41,1.41L223,35.29v2.59a1,1,0,0,0,2,0V35.29l1.83,1.83a1,1,0,0,0,1.41-1.41l-1.83-1.83H229a1,1,0,1,0,0-2Z"/></svg>