<?xml version="1.0" ?><svg data-name="Layer 1" id="Layer_1" viewBox="0 0 256 256" xmlns="http://www.w3.org/2000/svg"><defs><style>.cls-1{fill:#fd0;}.cls-2{fill:#40bdff;}.cls-3{fill:#effafe;}.cls-4{fill:#e4ebed;}.cls-5{fill:#efc803;}.cls-6{fill:#2197f7;}.cls-7{fill:#263238;}</style></defs><title/><path class="cls-1" d="M240,51.5H152a8,8,0,0,0-8,8v88a8,8,0,0,0,8,8h88a8,8,0,0,0,8-8v-88A8,8,0,0,0,240,51.5Z"/><path class="cls-2" d="M24,155.5h88a8,8,0,0,0,8-8v-88a8,8,0,0,0-8-8H24a8,8,0,0,0-8,8v88A8,8,0,0,0,24,155.5Z"/><path class="cls-3" d="M240,168.5H152a8,8,0,0,0-8,8v20a8,8,0,0,0,8,8h88a8,8,0,0,0,8-8v-20A8,8,0,0,0,240,168.5Z"/><path class="cls-3" d="M161.29,131.46v7.4h61.43v-7.4a26,26,0,0,0-26-26h-9.4A26,26,0,0,0,161.29,131.46Z"/><path class="cls-3" d="M190.27,101.45h3.52a16.71,16.71,0,1,0-3.57,0Z"/><path class="cls-3" d="M33.29,131.46v7.4H94.71v-7.4a26,26,0,0,0-26-26H59.3A26,26,0,0,0,33.29,131.46Z"/><path class="cls-3" d="M62.27,101.45h3.52a16.71,16.71,0,1,0-3.57,0Z"/><path class="cls-4" d="M68.7,105.45h-5a26,26,0,0,1,26,26v7.4h5v-7.4A26,26,0,0,0,68.7,105.45Z"/><path class="cls-4" d="M64,68.13a16.68,16.68,0,0,0-2.5.21,16.68,16.68,0,0,1,0,33c.24,0,.47.08.71.11h3.57A16.71,16.71,0,0,0,64,68.13Z"/><path class="cls-4" d="M196.7,105.45h-5a26,26,0,0,1,26,26v7.4h5v-7.4A26,26,0,0,0,196.7,105.45Z"/><path class="cls-4" d="M192,68.13a16.68,16.68,0,0,0-2.5.21,16.68,16.68,0,0,1,0,33c.24,0,.47.08.71.11h3.57A16.71,16.71,0,0,0,192,68.13Z"/><path class="cls-3" d="M24,204.5h88a8,8,0,0,0,8-8v-20a8,8,0,0,0-8-8H24a8,8,0,0,0-8,8v20A8,8,0,0,0,24,204.5Z"/><path class="cls-5" d="M240,51.5h-8a8,8,0,0,1,8,8v88a8,8,0,0,1-8,8h8a8,8,0,0,0,8-8v-88A8,8,0,0,0,240,51.5Z"/><path class="cls-6" d="M112,51.5h-8a8,8,0,0,1,8,8v88a8,8,0,0,1-8,8h8a8,8,0,0,0,8-8v-88A8,8,0,0,0,112,51.5Z"/><path class="cls-4" d="M240,168.5h-8a8,8,0,0,1,8,8v20a8,8,0,0,1-8,8h8a8,8,0,0,0,8-8v-20A8,8,0,0,0,240,168.5Z"/><path class="cls-4" d="M112,168.5h-8a8,8,0,0,1,8,8v20a8,8,0,0,1-8,8h8a8,8,0,0,0,8-8v-20A8,8,0,0,0,112,168.5Z"/><path class="cls-7" d="M31.29,143.37H96.71a2.5,2.5,0,0,0,2.5-2.5v-9.4A30.56,30.56,0,0,0,76.47,102a21.21,21.21,0,1,0-24.94,0,30.56,30.56,0,0,0-22.75,29.51v9.4A2.5,2.5,0,0,0,31.29,143.37ZM47.79,84.84A16.21,16.21,0,1,1,65.73,101H62.27A16.23,16.23,0,0,1,47.79,84.84Zm-14,46.62A25.54,25.54,0,0,1,59.3,106h9.4a25.54,25.54,0,0,1,25.51,25.51v6.9H33.79Z"/><path class="cls-7" d="M20,160h88a12.51,12.51,0,0,0,12.5-12.5v-88A12.51,12.51,0,0,0,108,47H20A12.51,12.51,0,0,0,7.5,59.5v88A12.51,12.51,0,0,0,20,160ZM12.5,59.5A7.51,7.51,0,0,1,20,52h88a7.51,7.51,0,0,1,7.5,7.5v88A7.51,7.51,0,0,1,108,155H20a7.51,7.51,0,0,1-7.5-7.5Z"/><path class="cls-7" d="M204.47,102a21.21,21.21,0,1,0-24.94,0,30.56,30.56,0,0,0-22.75,29.51v9.4a2.5,2.5,0,0,0,2.5,2.5h65.43a2.5,2.5,0,0,0,2.5-2.5v-9.4A30.56,30.56,0,0,0,204.47,102ZM175.79,84.84A16.21,16.21,0,1,1,193.73,101h-3.46A16.23,16.23,0,0,1,175.79,84.84Zm46.42,53.53H161.79v-6.9A25.54,25.54,0,0,1,187.3,106h9.4a25.54,25.54,0,0,1,25.51,25.51Z"/><path class="cls-7" d="M236,47H148a12.51,12.51,0,0,0-12.5,12.5v88A12.51,12.51,0,0,0,148,160h88a12.51,12.51,0,0,0,12.5-12.5v-88A12.51,12.51,0,0,0,236,47Zm7.5,100.5A7.51,7.51,0,0,1,236,155H148a7.51,7.51,0,0,1-7.5-7.5v-88A7.51,7.51,0,0,1,148,52h88a7.51,7.51,0,0,1,7.5,7.5Z"/><path class="cls-7" d="M20,209h88a12.51,12.51,0,0,0,12.5-12.5v-20A12.51,12.51,0,0,0,108,164H20A12.51,12.51,0,0,0,7.5,176.5v20A12.51,12.51,0,0,0,20,209Zm-7.5-32.5A7.51,7.51,0,0,1,20,169h88a7.51,7.51,0,0,1,7.5,7.5v20A7.51,7.51,0,0,1,108,204H20a7.51,7.51,0,0,1-7.5-7.5Z"/><path class="cls-7" d="M20,199a2.5,2.5,0,0,0,2.5-2.5v-20a2.5,2.5,0,0,0-5,0v20A2.5,2.5,0,0,0,20,199Z"/><path class="cls-7" d="M30,199a2.5,2.5,0,0,0,2.5-2.5v-20a2.5,2.5,0,0,0-5,0v20A2.5,2.5,0,0,0,30,199Z"/><path class="cls-7" d="M40,199a2.5,2.5,0,0,0,2.5-2.5v-20a2.5,2.5,0,0,0-5,0v20A2.5,2.5,0,0,0,40,199Z"/><path class="cls-7" d="M50,199a2.5,2.5,0,0,0,2.5-2.5v-20a2.5,2.5,0,0,0-5,0v20A2.5,2.5,0,0,0,50,199Z"/><path class="cls-7" d="M60,199a2.5,2.5,0,0,0,2.5-2.5v-20a2.5,2.5,0,0,0-5,0v20A2.5,2.5,0,0,0,60,199Z"/><path class="cls-7" d="M70,199a2.5,2.5,0,0,0,2.5-2.5v-20a2.5,2.5,0,0,0-5,0v20A2.5,2.5,0,0,0,70,199Z"/><path class="cls-7" d="M80,199a2.5,2.5,0,0,0,2.5-2.5v-20a2.5,2.5,0,0,0-5,0v20A2.5,2.5,0,0,0,80,199Z"/><path class="cls-7" d="M90,199a2.5,2.5,0,0,0,2.5-2.5v-20a2.5,2.5,0,0,0-5,0v20A2.5,2.5,0,0,0,90,199Z"/><path class="cls-7" d="M236,164H148a12.51,12.51,0,0,0-12.5,12.5v20A12.51,12.51,0,0,0,148,209h88a12.51,12.51,0,0,0,12.5-12.5v-20A12.51,12.51,0,0,0,236,164Zm7.5,32.5A7.51,7.51,0,0,1,236,204H148a7.51,7.51,0,0,1-7.5-7.5v-20A7.51,7.51,0,0,1,148,169h88a7.51,7.51,0,0,1,7.5,7.5Z"/><path class="cls-7" d="M148,174a2.5,2.5,0,0,0-2.5,2.5v20a2.5,2.5,0,0,0,5,0v-20A2.5,2.5,0,0,0,148,174Z"/><path class="cls-7" d="M158,174a2.5,2.5,0,0,0-2.5,2.5v20a2.5,2.5,0,0,0,5,0v-20A2.5,2.5,0,0,0,158,174Z"/><path class="cls-7" d="M168,174a2.5,2.5,0,0,0-2.5,2.5v20a2.5,2.5,0,0,0,5,0v-20A2.5,2.5,0,0,0,168,174Z"/><path class="cls-7" d="M178,174a2.5,2.5,0,0,0-2.5,2.5v20a2.5,2.5,0,0,0,5,0v-20A2.5,2.5,0,0,0,178,174Z"/><path class="cls-1" d="M35,29.94H31v-4a1,1,0,1,0-2,0v4H25a1,1,0,0,0,0,2h4v4a1,1,0,0,0,2,0v-4h4a1,1,0,0,0,0-2Z"/><path class="cls-2" d="M30,232.94a6,6,0,1,1,6-6A6,6,0,0,1,30,232.94Zm0-10a4,4,0,1,0,4,4A4,4,0,0,0,30,222.94Z"/><path class="cls-2" d="M110,32.28a6,6,0,1,1,6-6A6,6,0,0,1,110,32.28Zm0-10a4,4,0,1,0,4,4A4,4,0,0,0,110,22.28Z"/><path class="cls-1" d="M88,242.94a6,6,0,1,1,6-6A6,6,0,0,1,88,242.94Zm0-10a4,4,0,1,0,4,4A4,4,0,0,0,88,232.94Z"/><path class="cls-1" d="M168,33.5a6,6,0,1,1,6-6A6,6,0,0,1,168,33.5Zm0-10a4,4,0,1,0,4,4A4,4,0,0,0,168,23.5Z"/><path class="cls-2" d="M180.29,221h-2.59l1.83-1.83a1,1,0,0,0-1.41-1.41l-1.83,1.83V217a1,1,0,0,0-2,0v2.59l-1.83-1.83a1,1,0,0,0-1.41,1.41l1.83,1.83h-2.59a1,1,0,0,0,0,2h2.59l-1.83,1.83a1,1,0,0,0,1.41,1.41l1.83-1.83V227a1,1,0,0,0,2,0v-2.59l1.83,1.83a1,1,0,0,0,1.41-1.41L177.71,223h2.59a1,1,0,1,0,0-2Z"/><path class="cls-2" d="M235,36.63h-2.59l1.83-1.83a1,1,0,0,0-1.41-1.41L231,35.21V32.63a1,1,0,0,0-2,0v2.59l-1.83-1.83a1,1,0,0,0-1.41,1.41l1.83,1.83H225a1,1,0,0,0,0,2h2.59l-1.83,1.83a1,1,0,0,0,1.41,1.41L229,40v2.59a1,1,0,0,0,2,0V40l1.83,1.83a1,1,0,0,0,1.41-1.41l-1.83-1.83H235a1,1,0,0,0,0-2Z"/></svg>