<?xml version="1.0" ?><svg data-name="Layer 1" id="Layer_1" viewBox="0 0 256 256" xmlns="http://www.w3.org/2000/svg"><defs><style>.cls-1{fill:#40bdff;}.cls-2{fill:#2197f7;}.cls-3{fill:#effafe;}.cls-4{fill:#e4ebed;}.cls-5{fill:#fd0;}.cls-6{fill:#efc803;}.cls-7{fill:#263238;}</style></defs><title/><path class="cls-1" d="M117.4,102h27.2a8,8,0,0,0,8-8V66.8a8,8,0,0,0-8-8H117.4a8,8,0,0,0-8,8V94A8,8,0,0,0,117.4,102Zm.42-29.75a10.18,10.18,0,1,1,20.35,0,10.32,10.32,0,0,1-2.9,7.12c6.09,2.75,9,7.86,9,13.25v4.11a2,2,0,0,1-2,2H113.7a2,2,0,0,1-2-2V92.62c0-5.34,2.87-10.48,9-13.25A10.32,10.32,0,0,1,117.82,72.25Z"/><path class="cls-1" d="M23,197.2H50.2a8,8,0,0,0,8-8V162a8,8,0,0,0-8-8H23a8,8,0,0,0-8,8v27.2A8,8,0,0,0,23,197.2Zm.42-29.75a10.18,10.18,0,1,1,20.35,0,10.32,10.32,0,0,1-2.9,7.12c6.1,2.75,9,7.88,9,13.25v4.11a2,2,0,0,1-2,2H19.3a2,2,0,0,1-2-2v-4.11c0-5.34,2.87-10.48,9-13.25A10.32,10.32,0,0,1,23.42,167.44Z"/><path class="cls-1" d="M109.4,189.2a8,8,0,0,0,8,8h27.2a8,8,0,0,0,8-8V162a8,8,0,0,0-8-8H117.4a8,8,0,0,0-8,8Zm8.42-21.75a10.18,10.18,0,1,1,20.35,0,10.32,10.32,0,0,1-2.9,7.12c6.09,2.75,9,7.86,9,13.25v4.11a2,2,0,0,1-2,2H113.7a2,2,0,0,1-2-2v-4.11c0-5.34,2.87-10.48,9-13.25A10.32,10.32,0,0,1,117.82,167.44Z"/><path class="cls-2" d="M144.6,154h-7a8,8,0,0,1,8,8v27.2a8,8,0,0,1-8,8h7a8,8,0,0,0,8-8V162A8,8,0,0,0,144.6,154Z"/><path class="cls-2" d="M144.6,58.8h-7a8,8,0,0,1,8,8V94a8,8,0,0,1-8,8h7a8,8,0,0,0,8-8V66.8A8,8,0,0,0,144.6,58.8Z"/><path class="cls-2" d="M50.2,154h-7a8,8,0,0,1,8,8v27.2a8,8,0,0,1-8,8h7a8,8,0,0,0,8-8V162A8,8,0,0,0,50.2,154Z"/><path class="cls-3" d="M127.28,173.57h1.44a6.18,6.18,0,1,0-1.44,0Z"/><path class="cls-3" d="M32.88,173.57h1.44a6.18,6.18,0,1,0-1.44,0Z"/><path class="cls-3" d="M21.3,187.82v2.11H45.9v-2.11a10.25,10.25,0,0,0-10.24-10.24H31.55A10.25,10.25,0,0,0,21.3,187.82Z"/><path class="cls-3" d="M115.7,92.62v2.11H140.3V92.62a10.25,10.25,0,0,0-10.24-10.24h-4.11A10.25,10.25,0,0,0,115.7,92.62Z"/><path class="cls-3" d="M115.7,187.82v2.11H140.3v-2.11a10.25,10.25,0,0,0-10.24-10.24h-4.11A10.25,10.25,0,0,0,115.7,187.82Z"/><path class="cls-3" d="M127.28,78.38h1.44a6.18,6.18,0,1,0-1.44,0Z"/><path class="cls-4" d="M130.05,82.38h-3A10.25,10.25,0,0,1,137.3,92.62v2.11h3V92.62A10.25,10.25,0,0,0,130.05,82.38Z"/><path class="cls-4" d="M128,66.07a6.15,6.15,0,0,0-1.5.19,6.15,6.15,0,0,1,0,11.95,6.12,6.12,0,0,0,.78.17h1.44A6.17,6.17,0,0,0,128,66.07Z"/><path class="cls-4" d="M130.05,177.58h-3a10.25,10.25,0,0,1,10.24,10.24v2.11h3v-2.11A10.25,10.25,0,0,0,130.05,177.58Z"/><path class="cls-4" d="M128,161.27a6.15,6.15,0,0,0-1.5.19,6.15,6.15,0,0,1,0,11.95,6.12,6.12,0,0,0,.78.17h1.44a6.17,6.17,0,0,0-.72-12.31Z"/><path class="cls-4" d="M35.66,177.58h-3A10.25,10.25,0,0,1,42.9,187.82v2.11h3v-2.11A10.25,10.25,0,0,0,35.66,177.58Z"/><path class="cls-4" d="M33.6,161.27a6.15,6.15,0,0,0-1.5.19,6.15,6.15,0,0,1,0,11.95,6.12,6.12,0,0,0,.78.17h1.44a6.17,6.17,0,0,0-.72-12.31Z"/><path class="cls-5" d="M239,154H211.8a8,8,0,0,0-8,8v27.2a8,8,0,0,0,8,8H239a8,8,0,0,0,8-8V162A8,8,0,0,0,239,154Z"/><path class="cls-6" d="M239,154h-7a8,8,0,0,1,8,8v27.2a8,8,0,0,1-8,8h7a8,8,0,0,0,8-8V162A8,8,0,0,0,239,154Z"/><path class="cls-7" d="M111.2,187.82v4.11a2.5,2.5,0,0,0,2.5,2.5H142.3a2.5,2.5,0,0,0,2.5-2.5v-4.11a14.75,14.75,0,0,0-8.7-13.43,10.68,10.68,0,1,0-16.19,0A14.75,14.75,0,0,0,111.2,187.82ZM128,161.77a5.67,5.67,0,0,1,.66,11.31h-1.32a5.67,5.67,0,0,1,.66-11.31Zm-11.8,26.05a9.75,9.75,0,0,1,9.74-9.74h4.11a9.75,9.75,0,0,1,9.74,9.74v1.61H116.2Z"/><path class="cls-7" d="M144.8,96.73V92.62a14.75,14.75,0,0,0-8.7-13.43,10.68,10.68,0,1,0-16.19,0,14.75,14.75,0,0,0-8.7,13.43v4.11a2.5,2.5,0,0,0,2.5,2.5H142.3A2.5,2.5,0,0,0,144.8,96.73ZM128,66.57a5.67,5.67,0,0,1,.66,11.31h-1.32A5.67,5.67,0,0,1,128,66.57Zm11.8,27.66H116.2V92.62a9.75,9.75,0,0,1,9.74-9.74h4.11a9.75,9.75,0,0,1,9.74,9.74Z"/><path class="cls-7" d="M16.8,187.82v4.11a2.5,2.5,0,0,0,2.5,2.5H47.9a2.5,2.5,0,0,0,2.5-2.5v-4.11a14.75,14.75,0,0,0-8.7-13.43,10.68,10.68,0,1,0-16.19,0A14.75,14.75,0,0,0,16.8,187.82Zm16.8-26.05a5.67,5.67,0,0,1,.66,11.31H32.94a5.67,5.67,0,0,1,.66-11.31ZM21.8,187.82a9.75,9.75,0,0,1,9.74-9.74h4.11a9.75,9.75,0,0,1,9.74,9.74v1.61H21.8Z"/><path class="cls-7" d="M236,149.5H224.9V138a12.51,12.51,0,0,0-12.5-12.5H130.5v-19h11.1A12.51,12.51,0,0,0,154.1,94V66.8a12.51,12.51,0,0,0-12.5-12.5H114.4a12.51,12.51,0,0,0-12.5,12.5V94a12.51,12.51,0,0,0,12.5,12.5h11.1v19H43.6A12.51,12.51,0,0,0,31.1,138v11.5H20A12.51,12.51,0,0,0,7.5,162v27.2A12.51,12.51,0,0,0,20,201.7H47.2a12.51,12.51,0,0,0,12.5-12.5V162a12.51,12.51,0,0,0-12.5-12.5H36.1V138a7.51,7.51,0,0,1,7.5-7.5h81.9v19H114.4A12.51,12.51,0,0,0,101.9,162v27.2a12.51,12.51,0,0,0,12.5,12.5h27.2a12.51,12.51,0,0,0,12.5-12.5V162a12.51,12.51,0,0,0-12.5-12.5H130.5v-19h81.9a7.51,7.51,0,0,1,7.5,7.5v11.5H208.8A12.51,12.51,0,0,0,196.3,162v27.2a12.51,12.51,0,0,0,12.5,12.5H236a12.51,12.51,0,0,0,12.5-12.5V162A12.51,12.51,0,0,0,236,149.5Zm-188.8,5a7.51,7.51,0,0,1,7.5,7.5v27.2a7.51,7.51,0,0,1-7.5,7.5H20a7.51,7.51,0,0,1-7.5-7.5V162a7.51,7.51,0,0,1,7.5-7.5Zm94.4,0a7.51,7.51,0,0,1,7.5,7.5v27.2a7.51,7.51,0,0,1-7.5,7.5H114.4a7.51,7.51,0,0,1-7.5-7.5V162a7.51,7.51,0,0,1,7.5-7.5Zm-27.2-53a7.51,7.51,0,0,1-7.5-7.5V66.8a7.51,7.51,0,0,1,7.5-7.5h27.2a7.51,7.51,0,0,1,7.5,7.5V94a7.51,7.51,0,0,1-7.5,7.5Zm129.1,87.7a7.51,7.51,0,0,1-7.5,7.5H208.8a7.51,7.51,0,0,1-7.5-7.5V162a7.51,7.51,0,0,1,7.5-7.5H236a7.51,7.51,0,0,1,7.5,7.5Z"/><path class="cls-7" d="M214.75,165.83a1.94,1.94,0,0,0,.68,2.66,2,2,0,0,0,2.7-.71,4.47,4.47,0,1,1,3.81,6.71,2,2,0,0,0-1.95,1.95s0,0,0,.08,0,0,0,.08v4.13a2,2,0,0,0,1.95,1.94,1.9,1.9,0,0,0,1.95-1.94v-2.58a8.34,8.34,0,0,0,6.43-8.1C230.32,161.58,219,158.51,214.75,165.83Z"/><path class="cls-7" d="M221.94,184.89a2,2,0,0,0-1.95,1.94v.71a2,2,0,0,0,1.95,1.95,1.9,1.9,0,0,0,1.95-1.95v-.71A1.92,1.92,0,0,0,221.94,184.89Z"/><path class="cls-5" d="M77.5,71.23h-4v-4a1,1,0,0,0-2,0v4h-4a1,1,0,0,0,0,2h4v4a1,1,0,0,0,2,0v-4h4a1,1,0,0,0,0-2Z"/><path class="cls-5" d="M227.4,111h-4v-4a1,1,0,1,0-2,0v4h-4a1,1,0,0,0,0,2h4v4a1,1,0,0,0,2,0v-4h4a1,1,0,0,0,0-2Z"/><path class="cls-1" d="M35,93.38H31v-4a1,1,0,0,0-2,0v4H25a1,1,0,0,0,0,2h4v4a1,1,0,1,0,2,0v-4h4a1,1,0,1,0,0-2Z"/><path class="cls-1" d="M211,218.89h-4v-4a1,1,0,0,0-2,0v4h-4a1,1,0,0,0,0,2h4v4a1,1,0,1,0,2,0v-4h4a1,1,0,0,0,0-2Z"/><path class="cls-1" d="M25,233.39H21v-4a1,1,0,0,0-2,0v4H15a1,1,0,0,0,0,2h4v4a1,1,0,1,0,2,0v-4h4a1,1,0,1,0,0-2Z"/><path class="cls-1" d="M184.33,94.56a6,6,0,1,1,6-6A6,6,0,0,1,184.33,94.56Zm0-10a4,4,0,1,0,4,4A4,4,0,0,0,184.33,84.56Z"/><path class="cls-5" d="M118,236a6,6,0,1,1,6-6A6,6,0,0,1,118,236Zm0-10a4,4,0,1,0,4,4A4,4,0,0,0,118,226Z"/><path class="cls-5" d="M178.33,178.18a6,6,0,1,1,6-6A6,6,0,0,1,178.33,178.18Zm0-10a4,4,0,1,0,4,4A4,4,0,0,0,178.33,168.18Z"/></svg>