<?xml version="1.0" ?><svg height="60.890751" id="svg8" version="1.1" viewBox="0 0 16.110678 16.110678" width="60.890751" xmlns="http://www.w3.org/2000/svg" xmlns:cc="http://creativecommons.org/ns#" xmlns:dc="http://purl.org/dc/elements/1.1/" xmlns:inkscape="http://www.inkscape.org/namespaces/inkscape" xmlns:rdf="http://www.w3.org/1999/02/22-rdf-syntax-ns#" xmlns:sodipodi="http://sodipodi.sourceforge.net/DTD/sodipodi-0.dtd" xmlns:svg="http://www.w3.org/2000/svg"><defs id="defs2"/><g id="layer1" transform="translate(-54.324071,-334.1245)"><circle cx="62.37941" cy="342.17984" id="circle1275" r="8.0553389" style="opacity:1;fill:#ffd42a;fill-opacity:1;stroke:none;stroke-width:0.01055691;stroke-linecap:round;stroke-linejoin:round;stroke-miterlimit:4;stroke-dasharray:none;stroke-dashoffset:0;stroke-opacity:1"/><path d="m 56.911593,336.27461 a 8.055339,8.055339 0 0 0 -2.587439,5.90507 8.055339,8.055339 0 0 0 8.055322,8.05532 8.055339,8.055339 0 0 0 7.004739,-4.0876 8.055339,8.055339 0 0 1 -0.460953,0.40462 8.055339,8.055339 0 0 1 -0.654741,0.46819 8.055339,8.055339 0 0 1 -0.698665,0.40101 8.055339,8.055339 0 0 1 -0.734839,0.32866 8.055339,8.055339 0 0 1 -0.763778,0.25425 8.055339,8.055339 0 0 1 -0.785998,0.17622 8.055339,8.055339 0 0 1 -0.799435,0.0971 8.055339,8.055339 0 0 1 -0.569474,0.0202 8.055339,8.055339 0 0 1 -0.804084,-0.0403 8.055339,8.055339 0 0 1 -0.796334,-0.12041 8.055339,8.055339 0 0 1 -0.780314,-0.19947 8.055339,8.055339 0 0 1 -0.756543,-0.27595 8.055339,8.055339 0 0 1 -0.725021,-0.35037 8.055339,8.055339 0 0 1 -0.686263,-0.42065 8.055339,8.055339 0 0 1 -0.640787,-0.4873 8.055339,8.055339 0 0 1 -0.589112,-0.54881 8.055339,8.055339 0 0 1 -0.53175,-0.60513 8.055339,8.055339 0 0 1 -0.468189,-0.65474 8.055339,8.055339 0 0 1 -0.400492,-0.69867 8.055339,8.055339 0 0 1 -0.329179,-0.73483 8.055339,8.055339 0 0 1 -0.253731,-0.7643 8.055339,8.055339 0 0 1 -0.176217,-0.78548 8.055339,8.055339 0 0 1 -0.09715,-0.79943 8.055339,8.055339 0 0 1 -0.02015,-0.56948 8.055339,8.055339 0 0 1 0.04031,-0.8046 8.055339,8.055339 0 0 1 0.11989,-0.79582 8.055339,8.055339 0 0 1 0.199471,-0.78031 8.055339,8.055339 0 0 1 0.275952,-0.75654 8.055339,8.055339 0 0 1 0.350366,-0.72503 8.055339,8.055339 0 0 1 0.0646,-0.10542 z" id="path1277" style="opacity:1;fill:#ffbc2a;fill-opacity:1;stroke:none;stroke-width:0.01055691;stroke-linecap:round;stroke-linejoin:round;stroke-miterlimit:4;stroke-dasharray:none;stroke-dashoffset:0;stroke-opacity:1"/><path d="m 62.635282,342.20873 a 3.8141472,1.5581017 0 0 0 -3.814237,1.55804 3.8141472,1.5581017 0 0 0 0.01705,0.13385 1.4273128,1.7226066 0 0 0 -0.122473,0.69298 1.4273128,1.7226066 0 0 0 1.427303,1.72237 1.4273128,1.7226066 0 0 0 1.204061,-0.80098 1.4273128,1.7226066 0 0 0 1.205611,0.80098 1.4273128,1.7226066 0 0 0 1.28726,-0.98288 1.4273128,1.7226066 0 0 0 1.287777,0.98288 1.4273128,1.7226066 0 0 0 1.427303,-1.72237 1.4273128,1.7226066 0 0 0 -0.121956,-0.6935 3.8141472,1.5581017 0 0 0 0.01654,-0.13333 3.8141472,1.5581017 0 0 0 -3.814238,-1.55804 z" id="path1279" style="opacity:1;fill:#1a1a1a;fill-opacity:1;stroke:none;stroke-width:1.22579861;stroke-linecap:round;stroke-linejoin:round;stroke-miterlimit:4;stroke-dasharray:none;stroke-dashoffset:0;stroke-opacity:1"/><path d="m 218.80469,220.96484 a 7.1572066,7.0540264 0 0 0 -0.17188,1.51368 7.1572066,7.0540264 0 0 0 7.15625,7.05273 7.1572066,7.0540264 0 0 0 7.15821,-7.05273 7.1572066,7.0540264 0 0 0 -0.17774,-1.51368 z" id="ellipse1281" style="opacity:1;fill:#ffffff;fill-opacity:1;stroke:none;stroke-width:3.06789517;stroke-linecap:round;stroke-linejoin:round;stroke-miterlimit:4;stroke-dasharray:none;stroke-dashoffset:0;stroke-opacity:1" transform="matrix(0.26458334,0,0,0.26458334,0,280.06665)"/><path d="m 227.74219,220.96484 a 2.6731459,2.634609 0 0 0 -0.0801,0.62891 2.6731459,2.634609 0 0 0 2.67187,2.63477 2.6731459,2.634609 0 0 0 2.67383,-2.63477 2.6731459,2.634609 0 0 0 -0.0801,-0.62891 z" id="ellipse1283" style="opacity:1;fill:#1a1a1a;fill-opacity:1;stroke:none;stroke-width:1.14582837;stroke-linecap:round;stroke-linejoin:round;stroke-miterlimit:4;stroke-dasharray:none;stroke-dashoffset:0;stroke-opacity:1" transform="matrix(0.26458334,0,0,0.26458334,0,280.06665)"/><path d="m 64.034189,338.53027 a 1.8936776,1.8663779 0 0 0 -0.04548,0.40049 1.8936776,1.8663779 0 0 0 1.893425,1.86603 1.8936776,1.8663779 0 0 0 1.893943,-1.86603 1.8936776,1.8663779 0 0 0 -0.04703,-0.40049 z" id="path1295" style="opacity:1;fill:#ffffff;fill-opacity:1;stroke:none;stroke-width:0.81171393;stroke-linecap:round;stroke-linejoin:round;stroke-miterlimit:4;stroke-dasharray:none;stroke-dashoffset:0;stroke-opacity:1"/><path d="m 66.398902,338.53027 a 0.70726987,0.69707365 0 0 0 -0.02119,0.16639 0.70726987,0.69707365 0 0 0 0.706932,0.69712 0.70726987,0.69707365 0 0 0 0.707451,-0.69712 0.70726987,0.69707365 0 0 0 -0.02119,-0.16639 z" id="path1297" style="opacity:1;fill:#1a1a1a;fill-opacity:1;stroke:none;stroke-width:0.3031671;stroke-linecap:round;stroke-linejoin:round;stroke-miterlimit:4;stroke-dasharray:none;stroke-dashoffset:0;stroke-opacity:1"/></g></svg>