<?xml version="1.0" ?><svg height="60.890751" id="svg8" version="1.1" viewBox="0 0 16.110678 16.110678" width="60.890751" xmlns="http://www.w3.org/2000/svg" xmlns:cc="http://creativecommons.org/ns#" xmlns:dc="http://purl.org/dc/elements/1.1/" xmlns:inkscape="http://www.inkscape.org/namespaces/inkscape" xmlns:rdf="http://www.w3.org/1999/02/22-rdf-syntax-ns#" xmlns:sodipodi="http://sodipodi.sourceforge.net/DTD/sodipodi-0.dtd" xmlns:svg="http://www.w3.org/2000/svg"><defs id="defs2"/><g id="layer1" transform="translate(-36.437192,-352.0114)"><circle cx="44.492531" cy="360.06674" id="circle1387" r="8.0553389" style="opacity:1;fill:#ffd42a;fill-opacity:1;stroke:none;stroke-width:0.01055691;stroke-linecap:round;stroke-linejoin:round;stroke-miterlimit:4;stroke-dasharray:none;stroke-dashoffset:0;stroke-opacity:1"/><path d="m 39.024714,354.16147 a 8.055339,8.055339 0 0 0 -2.587439,5.90507 8.055339,8.055339 0 0 0 8.055322,8.05532 8.055339,8.055339 0 0 0 7.00474,-4.0876 8.055339,8.055339 0 0 1 -0.460953,0.40462 8.055339,8.055339 0 0 1 -0.654741,0.46819 8.055339,8.055339 0 0 1 -0.698665,0.40101 8.055339,8.055339 0 0 1 -0.734839,0.32866 8.055339,8.055339 0 0 1 -0.763778,0.25425 8.055339,8.055339 0 0 1 -0.785998,0.17622 8.055339,8.055339 0 0 1 -0.799435,0.0971 8.055339,8.055339 0 0 1 -0.569474,0.0202 8.055339,8.055339 0 0 1 -0.804085,-0.0403 8.055339,8.055339 0 0 1 -0.796334,-0.12041 8.055339,8.055339 0 0 1 -0.780314,-0.19947 8.055339,8.055339 0 0 1 -0.756543,-0.27595 8.055339,8.055339 0 0 1 -0.725021,-0.35037 8.055339,8.055339 0 0 1 -0.686263,-0.42065 8.055339,8.055339 0 0 1 -0.640787,-0.4873 8.055339,8.055339 0 0 1 -0.589112,-0.54881 8.055339,8.055339 0 0 1 -0.53175,-0.60513 8.055339,8.055339 0 0 1 -0.468189,-0.65474 8.055339,8.055339 0 0 1 -0.400492,-0.69867 8.055339,8.055339 0 0 1 -0.329179,-0.73483 8.055339,8.055339 0 0 1 -0.253731,-0.7643 8.055339,8.055339 0 0 1 -0.176217,-0.78548 8.055339,8.055339 0 0 1 -0.09715,-0.79943 8.055339,8.055339 0 0 1 -0.02015,-0.56948 8.055339,8.055339 0 0 1 0.04031,-0.8046 8.055339,8.055339 0 0 1 0.11989,-0.79582 8.055339,8.055339 0 0 1 0.199471,-0.78031 8.055339,8.055339 0 0 1 0.275952,-0.75654 8.055339,8.055339 0 0 1 0.350366,-0.72503 8.055339,8.055339 0 0 1 0.0646,-0.10542 z" id="path1389" style="opacity:1;fill:#ffbc2a;fill-opacity:1;stroke:none;stroke-width:0.01055691;stroke-linecap:round;stroke-linejoin:round;stroke-miterlimit:4;stroke-dasharray:none;stroke-dashoffset:0;stroke-opacity:1"/><path d="m 40.570058,355.96709 2.598586,2.59858" id="path1502" style="opacity:1;fill:none;fill-opacity:1;stroke:#1a1a1a;stroke-width:1.0583334;stroke-linecap:round;stroke-linejoin:round;stroke-miterlimit:4;stroke-dasharray:none;stroke-dashoffset:0;stroke-opacity:1"/><path d="m 43.168644,355.96709 -2.598586,2.59858" id="path1504" style="opacity:1;fill:none;fill-opacity:1;stroke:#1a1a1a;stroke-width:1.0583334;stroke-linecap:round;stroke-linejoin:round;stroke-miterlimit:4;stroke-dasharray:none;stroke-dashoffset:0;stroke-opacity:1"/><path d="m 46.239701,355.96709 2.598586,2.59858" id="path1506" style="opacity:1;fill:none;fill-opacity:1;stroke:#1a1a1a;stroke-width:1.0583334;stroke-linecap:round;stroke-linejoin:round;stroke-miterlimit:4;stroke-dasharray:none;stroke-dashoffset:0;stroke-opacity:1"/><path d="m 48.838287,355.96709 -2.598586,2.59858" id="path1508" style="opacity:1;fill:none;fill-opacity:1;stroke:#1a1a1a;stroke-width:1.0583334;stroke-linecap:round;stroke-linejoin:round;stroke-miterlimit:4;stroke-dasharray:none;stroke-dashoffset:0;stroke-opacity:1"/><circle cx="44.700829" cy="362.92581" id="path1512" r="1.6704345" style="opacity:1;fill:#1a1a1a;fill-opacity:1;stroke:none;stroke-width:1.0583334;stroke-linecap:round;stroke-linejoin:round;stroke-miterlimit:4;stroke-dasharray:none;stroke-dashoffset:0;stroke-opacity:1"/></g></svg>