<?xml version="1.0" ?><svg height="60.890751" id="svg8" version="1.1" viewBox="0 0 16.110678 16.110678" width="60.890751" xmlns="http://www.w3.org/2000/svg" xmlns:cc="http://creativecommons.org/ns#" xmlns:dc="http://purl.org/dc/elements/1.1/" xmlns:inkscape="http://www.inkscape.org/namespaces/inkscape" xmlns:rdf="http://www.w3.org/1999/02/22-rdf-syntax-ns#" xmlns:sodipodi="http://sodipodi.sourceforge.net/DTD/sodipodi-0.dtd" xmlns:svg="http://www.w3.org/2000/svg"><defs id="defs2"/><g id="layer1" transform="translate(-71.963857,-334.1245)"><circle cx="80.019196" cy="342.17984" id="circle1305" r="8.0553389" style="opacity:1;fill:#ffd42a;fill-opacity:1;stroke:none;stroke-width:0.01055691;stroke-linecap:round;stroke-linejoin:round;stroke-miterlimit:4;stroke-dasharray:none;stroke-dashoffset:0;stroke-opacity:1"/><path d="m 74.551382,336.27461 a 8.055339,8.055339 0 0 0 -2.587439,5.90507 8.055339,8.055339 0 0 0 8.055322,8.05532 8.055339,8.055339 0 0 0 7.004739,-4.0876 8.055339,8.055339 0 0 1 -0.460953,0.40462 8.055339,8.055339 0 0 1 -0.654741,0.46819 8.055339,8.055339 0 0 1 -0.698665,0.40101 8.055339,8.055339 0 0 1 -0.734839,0.32866 8.055339,8.055339 0 0 1 -0.763778,0.25425 8.055339,8.055339 0 0 1 -0.785998,0.17622 8.055339,8.055339 0 0 1 -0.799435,0.0971 8.055339,8.055339 0 0 1 -0.569474,0.0202 8.055339,8.055339 0 0 1 -0.804084,-0.0403 8.055339,8.055339 0 0 1 -0.796334,-0.12041 8.055339,8.055339 0 0 1 -0.780314,-0.19947 8.055339,8.055339 0 0 1 -0.756543,-0.27595 8.055339,8.055339 0 0 1 -0.725021,-0.35037 8.055339,8.055339 0 0 1 -0.686263,-0.42065 8.055339,8.055339 0 0 1 -0.640787,-0.4873 8.055339,8.055339 0 0 1 -0.589112,-0.54881 8.055339,8.055339 0 0 1 -0.53175,-0.60513 8.055339,8.055339 0 0 1 -0.468189,-0.65474 8.055339,8.055339 0 0 1 -0.400492,-0.69867 8.055339,8.055339 0 0 1 -0.329179,-0.73483 8.055339,8.055339 0 0 1 -0.253731,-0.7643 8.055339,8.055339 0 0 1 -0.176217,-0.78548 8.055339,8.055339 0 0 1 -0.09715,-0.79943 8.055339,8.055339 0 0 1 -0.02015,-0.56948 8.055339,8.055339 0 0 1 0.04031,-0.8046 8.055339,8.055339 0 0 1 0.11989,-0.79582 8.055339,8.055339 0 0 1 0.199471,-0.78031 8.055339,8.055339 0 0 1 0.275952,-0.75654 8.055339,8.055339 0 0 1 0.350366,-0.72503 8.055339,8.055339 0 0 1 0.0646,-0.10542 z" id="path1307" style="opacity:1;fill:#ffbc2a;fill-opacity:1;stroke:none;stroke-width:0.01055691;stroke-linecap:round;stroke-linejoin:round;stroke-miterlimit:4;stroke-dasharray:none;stroke-dashoffset:0;stroke-opacity:1"/><path d="m 81.851296,349.81913 c 0.300677,0 3.708363,0 3.708363,0 v -2.03794 l -3.674957,1.1359 z" id="path1348" style="opacity:1;fill:#ffbc2a;fill-opacity:1;stroke:none;stroke-width:1.0583334;stroke-linecap:round;stroke-linejoin:round;stroke-miterlimit:4;stroke-dasharray:none;stroke-dashoffset:0;stroke-opacity:1"/><path d="m 82.519507,342.30213 c -1.406639,0 -2.538862,1.52924 -2.538862,3.42912 v 2.97823 c 0,0.18479 0.01347,0.36491 0.03411,0.54163 h 5.009513 c 0.02063,-0.17672 0.03411,-0.35684 0.03411,-0.54163 v -2.97823 c 0,-1.89988 -1.132223,-3.42912 -2.538865,-3.42912 z" id="rect1319" style="opacity:1;fill:#1a1a1a;fill-opacity:1;stroke:none;stroke-width:1.22996891;stroke-linecap:round;stroke-linejoin:round;stroke-miterlimit:4;stroke-dasharray:none;stroke-dashoffset:0;stroke-opacity:1"/><rect height="3.2072346" id="rect1340" rx="1.6036173" ry="1.6036173" style="opacity:1;fill:#ffffff;fill-opacity:1;stroke:none;stroke-width:1.0583334;stroke-linecap:round;stroke-linejoin:round;stroke-miterlimit:4;stroke-dasharray:none;stroke-dashoffset:0;stroke-opacity:1" width="4.1092691" x="76.33886" y="337.32428"/><ellipse cx="80.335587" cy="338.92789" id="ellipse1342" rx="0.70726985" ry="0.69707364" style="opacity:1;fill:#1a1a1a;fill-opacity:1;stroke:none;stroke-width:0.3031671;stroke-linecap:round;stroke-linejoin:round;stroke-miterlimit:4;stroke-dasharray:none;stroke-dashoffset:0;stroke-opacity:1"/><rect height="3.2072346" id="rect1344" rx="1.6036173" ry="1.6036173" style="opacity:1;fill:#ffffff;fill-opacity:1;stroke:none;stroke-width:1.0583334;stroke-linecap:round;stroke-linejoin:round;stroke-miterlimit:4;stroke-dasharray:none;stroke-dashoffset:0;stroke-opacity:1" width="4.1092691" x="82.719925" y="337.32428"/><ellipse cx="86.83358" cy="338.92789" id="ellipse1346" rx="0.70726985" ry="0.69707364" style="opacity:1;fill:#1a1a1a;fill-opacity:1;stroke:none;stroke-width:0.3031671;stroke-linecap:round;stroke-linejoin:round;stroke-miterlimit:4;stroke-dasharray:none;stroke-dashoffset:0;stroke-opacity:1"/><path d="m 82.524163,346.66984 a 1.7347691,2.4051899 0 0 0 -0.122989,0.006 1.7347691,2.4051899 0 0 0 -0.172082,0.029 1.7347691,2.4051899 0 0 0 -0.1695,0.0527 1.7347691,2.4051899 0 0 0 -0.16433,0.0758 1.7347691,2.4051899 0 0 0 -0.158131,0.0982 1.7347691,2.4051899 0 0 0 -0.150376,0.11941 1.7347691,2.4051899 0 0 0 -0.141079,0.13998 1.7347691,2.4051899 0 0 0 -0.130225,0.15869 1.7347691,2.4051899 0 0 0 -0.118338,0.17584 1.7347691,2.4051899 0 0 0 -0.104904,0.19205 1.7347691,2.4051899 0 0 0 -0.09043,0.20421 1.7347691,2.4051899 0 0 0 -0.07545,0.21668 1.7347691,2.4051899 0 0 0 -0.05943,0.22572 1.7347691,2.4051899 0 0 0 -0.03307,0.17958 3.96058,5.4911904 0 0 0 0.01033,0.006 h 3.355869 a 3.96058,5.4911904 0 0 0 0.01292,-0.007 v -3.1e-4 a 1.7347691,2.4051899 0 0 0 -0.01757,-0.10975 1.7347691,2.4051899 0 0 0 -0.05478,-0.22821 1.7347691,2.4051899 0 0 0 -0.07028,-0.21949 1.7347691,2.4051899 0 0 0 -0.08682,-0.20857 1.7347691,2.4051899 0 0 0 -0.10077,-0.19548 1.7347691,2.4051899 0 0 0 -0.114204,-0.18083 1.7347691,2.4051899 0 0 0 -0.127125,-0.16367 1.7347691,2.4051899 0 0 0 -0.137975,-0.1456 1.7347691,2.4051899 0 0 0 -0.147796,-0.12564 1.7347691,2.4051899 0 0 0 -0.156062,-0.10476 1.7347691,2.4051899 0 0 0 -0.162782,-0.0823 1.7347691,2.4051899 0 0 0 -0.168465,-0.0592 1.7347691,2.4051899 0 0 0 -0.171564,-0.0358 1.7347691,2.4051899 0 0 0 -0.172601,-0.0128 z" id="path1352" style="opacity:1;fill:#c24040;fill-opacity:1;stroke:none;stroke-width:0.01304576;stroke-linecap:round;stroke-linejoin:round;stroke-miterlimit:4;stroke-dasharray:none;stroke-dashoffset:0;stroke-opacity:1"/><path d="m 84.213118,348.53714 a 1.7347691,1.4991172 0 0 0 -0.01753,-0.0685 1.7347691,1.4991172 0 0 0 -0.05488,-0.14228 1.7347691,1.4991172 0 0 0 -0.07051,-0.13668 1.7347691,1.4991172 0 0 0 -0.08652,-0.13009 1.7347691,1.4991172 0 0 0 -0.100999,-0.12187 1.7347691,1.4991172 0 0 0 -0.114338,-0.11264 1.7347691,1.4991172 0 0 0 -0.126914,-0.1021 1.7347691,1.4991172 0 0 0 -0.137968,-0.0906 1.7347691,1.4991172 0 0 0 -0.147876,-0.0784 1.7347691,1.4991172 0 0 0 -0.15588,-0.0652 1.7347691,1.4991172 0 0 0 -0.163122,-0.0514 1.7347691,1.4991172 0 0 0 -0.168077,-0.0369 1.7347691,1.4991172 0 0 0 -0.171504,-0.0224 1.7347691,1.4991172 0 0 0 -0.173032,-0.008 1.7347691,1.4991172 0 0 0 -0.122722,0.004 1.7347691,1.4991172 0 0 0 -0.172269,0.0181 1.7347691,1.4991172 0 0 0 -0.169219,0.0329 1.7347691,1.4991172 0 0 0 -0.164266,0.0471 1.7347691,1.4991172 0 0 0 -0.158548,0.0613 1.7347691,1.4991172 0 0 0 -0.150163,0.0744 1.7347691,1.4991172 0 0 0 -0.141016,0.0873 1.7347691,1.4991172 0 0 0 -0.130345,0.0988 1.7347691,1.4991172 0 0 0 -0.118149,0.10968 1.7347691,1.4991172 0 0 0 -0.10519,0.11955 1.7347691,1.4991172 0 0 0 -0.09033,0.12746 1.7347691,1.4991172 0 0 0 -0.07546,0.13503 1.7347691,1.4991172 0 0 0 -0.05946,0.14064 1.7347691,1.4991172 0 0 0 -0.03316,0.11198 3.9605801,3.4225729 0 0 0 3.379438,-10e-4 z" id="path1350" style="opacity:1;fill:#ff5555;fill-opacity:1;stroke:none;stroke-width:0.01029941;stroke-linecap:round;stroke-linejoin:round;stroke-miterlimit:4;stroke-dasharray:none;stroke-dashoffset:0;stroke-opacity:1"/></g></svg>