<?xml version="1.0" ?><svg height="60.890751" id="svg8" version="1.1" viewBox="0 0 16.110678 16.110678" width="60.890751" xmlns="http://www.w3.org/2000/svg" xmlns:cc="http://creativecommons.org/ns#" xmlns:dc="http://purl.org/dc/elements/1.1/" xmlns:inkscape="http://www.inkscape.org/namespaces/inkscape" xmlns:rdf="http://www.w3.org/1999/02/22-rdf-syntax-ns#" xmlns:sodipodi="http://sodipodi.sourceforge.net/DTD/sodipodi-0.dtd" xmlns:svg="http://www.w3.org/2000/svg"><defs id="defs2"/><g id="layer1" transform="translate(-36.437192,-334.1245)"><circle cx="44.492531" cy="342.17984" id="circle1179" r="8.0553389" style="opacity:1;fill:#ffd42a;fill-opacity:1;stroke:none;stroke-width:0.01055691;stroke-linecap:round;stroke-linejoin:round;stroke-miterlimit:4;stroke-dasharray:none;stroke-dashoffset:0;stroke-opacity:1"/><path d="m 39.024714,336.27459 a 8.055339,8.055339 0 0 0 -2.587439,5.90507 8.055339,8.055339 0 0 0 8.055322,8.05532 8.055339,8.055339 0 0 0 7.00474,-4.0876 8.055339,8.055339 0 0 1 -0.460953,0.40462 8.055339,8.055339 0 0 1 -0.654741,0.46819 8.055339,8.055339 0 0 1 -0.698665,0.40101 8.055339,8.055339 0 0 1 -0.734839,0.32866 8.055339,8.055339 0 0 1 -0.763778,0.25425 8.055339,8.055339 0 0 1 -0.785998,0.17622 8.055339,8.055339 0 0 1 -0.799435,0.0971 8.055339,8.055339 0 0 1 -0.569474,0.0202 8.055339,8.055339 0 0 1 -0.804085,-0.0403 8.055339,8.055339 0 0 1 -0.796334,-0.12041 8.055339,8.055339 0 0 1 -0.780314,-0.19947 8.055339,8.055339 0 0 1 -0.756543,-0.27595 8.055339,8.055339 0 0 1 -0.725021,-0.35037 8.055339,8.055339 0 0 1 -0.686263,-0.42065 8.055339,8.055339 0 0 1 -0.640787,-0.4873 8.055339,8.055339 0 0 1 -0.589112,-0.54881 8.055339,8.055339 0 0 1 -0.53175,-0.60513 8.055339,8.055339 0 0 1 -0.468189,-0.65474 8.055339,8.055339 0 0 1 -0.400492,-0.69867 8.055339,8.055339 0 0 1 -0.329179,-0.73483 8.055339,8.055339 0 0 1 -0.253731,-0.7643 8.055339,8.055339 0 0 1 -0.176217,-0.78548 8.055339,8.055339 0 0 1 -0.09715,-0.79943 8.055339,8.055339 0 0 1 -0.02015,-0.56948 8.055339,8.055339 0 0 1 0.04031,-0.8046 8.055339,8.055339 0 0 1 0.11989,-0.79582 8.055339,8.055339 0 0 1 0.199471,-0.78031 8.055339,8.055339 0 0 1 0.275952,-0.75654 8.055339,8.055339 0 0 1 0.350366,-0.72503 8.055339,8.055339 0 0 1 0.0646,-0.10542 z" id="path1181" style="opacity:1;fill:#ffbc2a;fill-opacity:1;stroke:none;stroke-width:0.01055691;stroke-linecap:round;stroke-linejoin:round;stroke-miterlimit:4;stroke-dasharray:none;stroke-dashoffset:0;stroke-opacity:1"/><rect height="3.2072346" id="rect1210" rx="1.6036173" ry="1.6036173" style="opacity:1;fill:#ffffff;fill-opacity:1;stroke:none;stroke-width:1.0583334;stroke-linecap:round;stroke-linejoin:round;stroke-miterlimit:4;stroke-dasharray:none;stroke-dashoffset:0;stroke-opacity:1" width="4.1092691" x="39.455666" y="337.32428"/><ellipse cx="43.452389" cy="338.92789" id="ellipse1197" rx="0.70726985" ry="0.69707364" style="opacity:1;fill:#1a1a1a;fill-opacity:1;stroke:none;stroke-width:0.3031671;stroke-linecap:round;stroke-linejoin:round;stroke-miterlimit:4;stroke-dasharray:none;stroke-dashoffset:0;stroke-opacity:1"/><rect height="3.2072346" id="rect1212" rx="1.6036173" ry="1.6036173" style="opacity:1;fill:#ffffff;fill-opacity:1;stroke:none;stroke-width:1.0583334;stroke-linecap:round;stroke-linejoin:round;stroke-miterlimit:4;stroke-dasharray:none;stroke-dashoffset:0;stroke-opacity:1" width="4.1092691" x="45.836727" y="337.32428"/><ellipse cx="49.950382" cy="338.92789" id="ellipse1214" rx="0.70726985" ry="0.69707364" style="opacity:1;fill:#1a1a1a;fill-opacity:1;stroke:none;stroke-width:0.3031671;stroke-linecap:round;stroke-linejoin:round;stroke-miterlimit:4;stroke-dasharray:none;stroke-dashoffset:0;stroke-opacity:1"/><path d="m 183.27148,235.47461 v 1.22461 c 0,0.46991 -0.0944,0.91608 -0.26562,1.32226 -0.17123,0.40619 -0.41993,0.7715 -0.72656,1.07813 -0.30663,0.30663 -0.67194,0.55533 -1.07813,0.72656 -0.40619,0.17124 -0.85235,0.26563 -1.32226,0.26563 h -9.15235 v 13.19336 1.07812 c 0,3.85489 3.1041,6.95899 6.95899,6.95899 2.2616,0 4.17046,-1.13915 5.43945,-2.80079 0.89399,-1.17061 1.51758,-2.56491 1.51758,-4.1582 v -14.94726 c 0,-1.49847 -0.57137,-2.80819 -1.3711,-3.94141 z" id="path1242" style="opacity:1;fill:#1a1a1a;fill-opacity:1;stroke:none;stroke-width:4;stroke-linecap:round;stroke-linejoin:round;stroke-miterlimit:4;stroke-dasharray:none;stroke-dashoffset:0;stroke-opacity:1" transform="matrix(0.26458334,0,0,0.26458334,0,280.06665)"/><path d="m 170.72656,240.0918 h 9.15235 c 0.46991,0 0.91607,-0.0944 1.32226,-0.26563 0.40619,-0.17123 0.7715,-0.41993 1.07813,-0.72656 0.30663,-0.30663 0.55533,-0.67194 0.72656,-1.07813 0.17123,-0.40618 0.26562,-0.85235 0.26562,-1.32226 v -1.22461 c -1.2576,-1.78205 -3.22952,-3.01758 -5.58593,-3.01758 -3.85489,0 -6.95899,3.1041 -6.95899,6.95899 z" id="rect1224" style="opacity:1;fill:#ff8080;fill-opacity:1;stroke:none;stroke-width:4;stroke-linecap:round;stroke-linejoin:round;stroke-miterlimit:4;stroke-dasharray:none;stroke-dashoffset:0;stroke-opacity:1" transform="matrix(0.26458334,0,0,0.26458334,0,280.06665)"/><path d="m 173.85352,236.92578 c -0.89036,0 -1.60547,0.71708 -1.60547,1.60742 v 3.05274 h 4.67187 4.67188 v -3.05274 c 0,-0.89034 -0.71706,-1.60742 -1.60742,-1.60742 h -1.45899 c -0.89036,0 -1.60547,0.71708 -1.60547,1.60742 0,-0.89034 -0.71706,-1.60742 -1.60742,-1.60742 z" id="rect1261" style="opacity:1;fill:#ffffff;fill-opacity:1;stroke:none;stroke-width:4;stroke-linecap:round;stroke-linejoin:round;stroke-miterlimit:4;stroke-dasharray:none;stroke-dashoffset:0;stroke-opacity:1" transform="matrix(0.26458334,0,0,0.26458334,0,280.06665)"/><path d="m 45.212046,341.09362 c 0,0 -1.157552,0.51972 -1.13393,2.008" id="path1269" style="opacity:1;fill:none;fill-opacity:1;stroke:#ffbc2a;stroke-width:1.0583334;stroke-linecap:round;stroke-linejoin:round;stroke-miterlimit:4;stroke-dasharray:none;stroke-dashoffset:0;stroke-opacity:1"/></g></svg>