<?xml version="1.0" ?><svg height="60.890751" id="svg8" version="1.1" viewBox="0 0 16.110678 16.110678" width="60.890751" xmlns="http://www.w3.org/2000/svg" xmlns:cc="http://creativecommons.org/ns#" xmlns:dc="http://purl.org/dc/elements/1.1/" xmlns:inkscape="http://www.inkscape.org/namespaces/inkscape" xmlns:rdf="http://www.w3.org/1999/02/22-rdf-syntax-ns#" xmlns:sodipodi="http://sodipodi.sourceforge.net/DTD/sodipodi-0.dtd" xmlns:svg="http://www.w3.org/2000/svg"><defs id="defs2"/><g id="layer1" transform="translate(-0.47274971,-280.4638)"><circle cx="8.5280886" cy="288.51913" id="path2430" r="8.0553389" style="opacity:1;fill:#ffd42a;fill-opacity:1;stroke:none;stroke-width:0.01055691;stroke-linecap:round;stroke-linejoin:round;stroke-miterlimit:4;stroke-dasharray:none;stroke-dashoffset:0;stroke-opacity:1"/><path d="m 3.0602783,282.61393 a 8.055339,8.055339 0 0 0 -2.58743893,5.90507 8.055339,8.055339 0 0 0 8.05532253,8.05532 8.055339,8.055339 0 0 0 7.0047401,-4.0876 8.055339,8.055339 0 0 1 -0.460953,0.40462 8.055339,8.055339 0 0 1 -0.654741,0.46819 8.055339,8.055339 0 0 1 -0.698665,0.40101 8.055339,8.055339 0 0 1 -0.734839,0.32866 8.055339,8.055339 0 0 1 -0.763778,0.25425 8.055339,8.055339 0 0 1 -0.785998,0.17622 8.055339,8.055339 0 0 1 -0.799435,0.0971 8.055339,8.055339 0 0 1 -0.569474,0.0202 8.055339,8.055339 0 0 1 -0.8040854,-0.0403 8.055339,8.055339 0 0 1 -0.7963336,-0.12041 8.055339,8.055339 0 0 1 -0.7803143,-0.19947 8.055339,8.055339 0 0 1 -0.7565429,-0.27595 8.055339,8.055339 0 0 1 -0.7250206,-0.35037 8.055339,8.055339 0 0 1 -0.686263,-0.42065 8.055339,8.055339 0 0 1 -0.6407878,-0.4873 8.055339,8.055339 0 0 1 -0.5891112,-0.54881 8.055339,8.055339 0 0 1 -0.5317506,-0.60513 8.055339,8.055339 0 0 1 -0.4681884,-0.65474 8.055339,8.055339 0 0 1 -0.4004924,-0.69867 8.055339,8.055339 0 0 1 -0.3291789,-0.73483 8.055339,8.055339 0 0 1 -0.2537313,-0.7643 8.055339,8.055339 0 0 1 -0.1762166,-0.78548 8.055339,8.055339 0 0 1 -0.097152,-0.79943 8.055339,8.055339 0 0 1 -0.020154,-0.56948 8.055339,8.055339 0 0 1 0.040308,-0.8046 8.055339,8.055339 0 0 1 0.1198894,-0.79582 8.055339,8.055339 0 0 1 0.199471,-0.78031 8.055339,8.055339 0 0 1 0.2759521,-0.75654 8.055339,8.055339 0 0 1 0.3503664,-0.72503 8.055339,8.055339 0 0 1 0.064595,-0.10542 z" id="path2471" style="opacity:1;fill:#ffbc2a;fill-opacity:1;stroke:none;stroke-width:0.01055691;stroke-linecap:round;stroke-linejoin:round;stroke-miterlimit:4;stroke-dasharray:none;stroke-dashoffset:0;stroke-opacity:1"/><circle cx="3.2822773" cy="289.37396" id="path2448" r="2.3521585" style="opacity:1;fill:#ff5555;fill-opacity:1;stroke:none;stroke-width:0.02315548;stroke-linecap:round;stroke-linejoin:round;stroke-miterlimit:4;stroke-dasharray:none;stroke-dashoffset:0;stroke-opacity:1"/><circle cx="13.772607" cy="289.37396" id="circle2473" r="2.3521585" style="opacity:1;fill:#ff5555;fill-opacity:1;stroke:none;stroke-width:0.02315548;stroke-linecap:round;stroke-linejoin:round;stroke-miterlimit:4;stroke-dasharray:none;stroke-dashoffset:0;stroke-opacity:1"/><path d="m 3.6617148,285.32997 c 0,0 1.7245163,-1.63002 3.3545386,0" id="path2553" style="opacity:1;fill:none;fill-opacity:1;stroke:#1a1a1a;stroke-width:1;stroke-linecap:round;stroke-linejoin:round;stroke-miterlimit:4;stroke-dasharray:none;stroke-dashoffset:0;stroke-opacity:1"/><path d="m 10.040063,285.32997 c 0,0 1.724516,-1.63002 3.354538,0" id="path2555" style="opacity:1;fill:none;fill-opacity:1;stroke:#1a1a1a;stroke-width:1;stroke-linecap:round;stroke-linejoin:round;stroke-miterlimit:4;stroke-dasharray:none;stroke-dashoffset:0;stroke-opacity:1"/><path d="m 4.1473741,289.67299 c 0,0 0.377105,2.48811 4.268141,2.48811" id="path1105" style="opacity:1;fill:none;fill-opacity:1;stroke:#1a1a1a;stroke-width:1.0583334;stroke-linecap:round;stroke-linejoin:round;stroke-miterlimit:4;stroke-dasharray:none;stroke-dashoffset:0;stroke-opacity:1"/><path d="m 12.683656,289.67299 c 0,0 -0.377105,2.48811 -4.2681409,2.48811" id="path1107" style="opacity:1;fill:none;fill-opacity:1;stroke:#1a1a1a;stroke-width:1.0583334;stroke-linecap:round;stroke-linejoin:round;stroke-miterlimit:4;stroke-dasharray:none;stroke-dashoffset:0;stroke-opacity:1"/></g></svg>