<?xml version="1.0" ?><svg height="60.890751" id="svg8" version="1.1" viewBox="0 0 16.110678 16.110678" width="60.890751" xmlns="http://www.w3.org/2000/svg" xmlns:cc="http://creativecommons.org/ns#" xmlns:dc="http://purl.org/dc/elements/1.1/" xmlns:inkscape="http://www.inkscape.org/namespaces/inkscape" xmlns:rdf="http://www.w3.org/1999/02/22-rdf-syntax-ns#" xmlns:sodipodi="http://sodipodi.sourceforge.net/DTD/sodipodi-0.dtd" xmlns:svg="http://www.w3.org/2000/svg"><defs id="defs2"/><g id="layer1" transform="translate(-0.13426876,-352.0114)"><circle cx="8.1896076" cy="360.06674" id="circle1369" r="8.0553389" style="opacity:1;fill:#ffd42a;fill-opacity:1;stroke:none;stroke-width:0.01055691;stroke-linecap:round;stroke-linejoin:round;stroke-miterlimit:4;stroke-dasharray:none;stroke-dashoffset:0;stroke-opacity:1"/><path d="m 2.72179,354.16147 a 8.055339,8.055339 0 0 0 -2.58743894,5.90507 8.055339,8.055339 0 0 0 8.05532194,8.05532 8.055339,8.055339 0 0 0 7.004739,-4.0876 8.055339,8.055339 0 0 1 -0.460953,0.40462 8.055339,8.055339 0 0 1 -0.654741,0.46819 8.055339,8.055339 0 0 1 -0.698665,0.40101 8.055339,8.055339 0 0 1 -0.734839,0.32866 8.055339,8.055339 0 0 1 -0.763778,0.25425 8.055339,8.055339 0 0 1 -0.785998,0.17622 8.055339,8.055339 0 0 1 -0.799435,0.0971 8.055339,8.055339 0 0 1 -0.5694737,0.0202 8.055339,8.055339 0 0 1 -0.8040843,-0.0403 8.055339,8.055339 0 0 1 -0.796334,-0.12041 8.055339,8.055339 0 0 1 -0.780314,-0.19947 8.055339,8.055339 0 0 1 -0.756543,-0.27595 8.055339,8.055339 0 0 1 -0.725021,-0.35037 8.055339,8.055339 0 0 1 -0.686263,-0.42065 8.055339,8.055339 0 0 1 -0.640787,-0.4873 8.055339,8.055339 0 0 1 -0.589112,-0.54881 8.055339,8.055339 0 0 1 -0.53175,-0.60513 8.055339,8.055339 0 0 1 -0.468189,-0.65474 8.055339,8.055339 0 0 1 -0.400492,-0.69867 8.055339,8.055339 0 0 1 -0.329179,-0.73483 8.055339,8.055339 0 0 1 -0.253731,-0.7643 8.055339,8.055339 0 0 1 -0.176217,-0.78548 8.055339,8.055339 0 0 1 -0.09715,-0.79943 8.055339,8.055339 0 0 1 -0.02015,-0.56948 8.055339,8.055339 0 0 1 0.04031,-0.8046 8.055339,8.055339 0 0 1 0.11989,-0.79582 8.055339,8.055339 0 0 1 0.199471,-0.78031 8.055339,8.055339 0 0 1 0.275952,-0.75654 8.055339,8.055339 0 0 1 0.350366,-0.72503 8.055339,8.055339 0 0 1 0.0646,-0.10542 z" id="path1371" style="opacity:1;fill:#ffbc2a;fill-opacity:1;stroke:none;stroke-width:0.01055691;stroke-linecap:round;stroke-linejoin:round;stroke-miterlimit:4;stroke-dasharray:none;stroke-dashoffset:0;stroke-opacity:1"/><path d="m 5.1272278,357.43552 a 1.8936776,1.8663779 0 0 0 -0.045477,0.40049 1.8936776,1.8663779 0 0 0 1.8934245,1.86604 1.8936776,1.8663779 0 0 0 1.8939432,-1.86604 1.8936776,1.8663779 0 0 0 -0.047027,-0.40049 z" id="path1445" style="opacity:1;fill:#ffffff;fill-opacity:1;stroke:none;stroke-width:0.81171393;stroke-linecap:round;stroke-linejoin:round;stroke-miterlimit:4;stroke-dasharray:none;stroke-dashoffset:0;stroke-opacity:1"/><path d="m 7.4919414,357.43552 a 0.70726987,0.69707365 0 0 0 -0.021188,0.1664 0.70726987,0.69707365 0 0 0 0.7069323,0.69712 0.70726987,0.69707365 0 0 0 0.7074508,-0.69712 0.70726987,0.69707365 0 0 0 -0.021188,-0.1664 z" id="path1447" style="opacity:1;fill:#1a1a1a;fill-opacity:1;stroke:none;stroke-width:0.3031671;stroke-linecap:round;stroke-linejoin:round;stroke-miterlimit:4;stroke-dasharray:none;stroke-dashoffset:0;stroke-opacity:1"/><path d="m 11.269341,357.43552 a 1.8936776,1.8663779 0 0 0 -0.04548,0.40049 1.8936776,1.8663779 0 0 0 1.893425,1.86603 1.8936776,1.8663779 0 0 0 1.893943,-1.86603 1.8936776,1.8663779 0 0 0 -0.04703,-0.40049 z" id="path1449" style="opacity:1;fill:#ffffff;fill-opacity:1;stroke:none;stroke-width:0.81171393;stroke-linecap:round;stroke-linejoin:round;stroke-miterlimit:4;stroke-dasharray:none;stroke-dashoffset:0;stroke-opacity:1"/><path d="m 13.634054,357.43552 a 0.70726987,0.69707365 0 0 0 -0.02119,0.16639 0.70726987,0.69707365 0 0 0 0.706932,0.69712 0.70726987,0.69707365 0 0 0 0.707451,-0.69712 0.70726987,0.69707365 0 0 0 -0.02119,-0.16639 z" id="path1451" style="opacity:1;fill:#1a1a1a;fill-opacity:1;stroke:none;stroke-width:0.3031671;stroke-linecap:round;stroke-linejoin:round;stroke-miterlimit:4;stroke-dasharray:none;stroke-dashoffset:0;stroke-opacity:1"/><path d="m 10.122833,361.44535 c 0,0 1.937705,-0.7684 2.271792,-0.20045 0.334087,0.56795 -1.603618,1.13589 -0.968852,2.13815 0.634765,1.00226 -0.167044,0.96886 -0.835218,0.70159 -0.6681736,-0.26727 -0.6681736,-0.26727 -0.6681736,-0.26727" id="path1453" style="opacity:1;fill:none;fill-opacity:1;stroke:#1a1a1a;stroke-width:1.0583334;stroke-linecap:round;stroke-linejoin:round;stroke-miterlimit:4;stroke-dasharray:none;stroke-dashoffset:0;stroke-opacity:1"/></g></svg>