<?xml version="1.0" ?><svg height="60.890751" id="svg8" version="1.1" viewBox="0 0 16.110678 16.110678" width="60.890751" xmlns="http://www.w3.org/2000/svg" xmlns:cc="http://creativecommons.org/ns#" xmlns:dc="http://purl.org/dc/elements/1.1/" xmlns:inkscape="http://www.inkscape.org/namespaces/inkscape" xmlns:rdf="http://www.w3.org/1999/02/22-rdf-syntax-ns#" xmlns:sodipodi="http://sodipodi.sourceforge.net/DTD/sodipodi-0.dtd" xmlns:svg="http://www.w3.org/2000/svg"><defs id="defs2"/><g id="layer1" transform="translate(-18.473866,-280.4638)"><circle cx="26.529205" cy="288.51913" id="circle2488" r="8.0553389" style="opacity:1;fill:#ffd42a;fill-opacity:1;stroke:none;stroke-width:0.01055691;stroke-linecap:round;stroke-linejoin:round;stroke-miterlimit:4;stroke-dasharray:none;stroke-dashoffset:0;stroke-opacity:1"/><path d="m 21.061395,282.61394 a 8.055339,8.055339 0 0 0 -2.587439,5.90506 8.055339,8.055339 0 0 0 8.055322,8.05533 8.055339,8.055339 0 0 0 7.004741,-4.08761 8.055339,8.055339 0 0 1 -0.460954,0.40463 8.055339,8.055339 0 0 1 -0.654741,0.46819 8.055339,8.055339 0 0 1 -0.698665,0.401 8.055339,8.055339 0 0 1 -0.734839,0.32867 8.055339,8.055339 0 0 1 -0.763777,0.25424 8.055339,8.055339 0 0 1 -0.785999,0.17622 8.055339,8.055339 0 0 1 -0.799435,0.0971 8.055339,8.055339 0 0 1 -0.569474,0.0202 8.055339,8.055339 0 0 1 -0.804085,-0.0403 8.055339,8.055339 0 0 1 -0.796334,-0.12041 8.055339,8.055339 0 0 1 -0.780314,-0.19947 8.055339,8.055339 0 0 1 -0.756543,-0.27595 8.055339,8.055339 0 0 1 -0.72502,-0.35037 8.055339,8.055339 0 0 1 -0.686264,-0.42064 8.055339,8.055339 0 0 1 -0.640787,-0.48731 8.055339,8.055339 0 0 1 -0.589112,-0.5488 8.055339,8.055339 0 0 1 -0.53175,-0.60514 8.055339,8.055339 0 0 1 -0.468189,-0.65474 8.055339,8.055339 0 0 1 -0.400492,-0.69866 8.055339,8.055339 0 0 1 -0.329179,-0.73484 8.055339,8.055339 0 0 1 -0.253731,-0.76429 8.055339,8.055339 0 0 1 -0.176217,-0.78549 8.055339,8.055339 0 0 1 -0.09715,-0.79943 8.055339,8.055339 0 0 1 -0.02015,-0.56948 8.055339,8.055339 0 0 1 0.04031,-0.8046 8.055339,8.055339 0 0 1 0.11989,-0.79581 8.055339,8.055339 0 0 1 0.199471,-0.78032 8.055339,8.055339 0 0 1 0.275952,-0.75654 8.055339,8.055339 0 0 1 0.350366,-0.72502 8.055339,8.055339 0 0 1 0.0646,-0.10542 z" id="path2490" style="opacity:1;fill:#ffbc2a;fill-opacity:1;stroke:none;stroke-width:0.01055691;stroke-linecap:round;stroke-linejoin:round;stroke-miterlimit:4;stroke-dasharray:none;stroke-dashoffset:0;stroke-opacity:1"/><path d="m 31.899322,288.72705 a 5.3701167,5.3701167 0 0 1 -2.685058,4.65066 5.3701167,5.3701167 0 0 1 -5.370117,0 5.3701167,5.3701167 0 0 1 -2.685058,-4.65066 l 5.370116,0 z" id="path2504" style="opacity:1;fill:#1a1a1a;fill-opacity:1;stroke:none;stroke-width:0.01502244;stroke-linecap:round;stroke-linejoin:round;stroke-miterlimit:4;stroke-dasharray:none;stroke-dashoffset:0;stroke-opacity:1"/><path d="m 87.052734,32.732422 h -7.082031 a 20.296504,20.296504 0 0 0 10.148438,17.576172 20.296504,20.296504 0 0 0 20.296879,0 20.296504,20.296504 0 0 0 10.14843,-17.576172 h -7.08203 v 3.589844 c 0,0.643035 -0.12896,1.254709 -0.36328,1.810546 -0.23432,0.555838 -0.57454,1.055012 -0.99414,1.47461 -0.4196,0.419598 -0.91877,0.757868 -1.47461,0.992187 -0.55584,0.23432 -1.16751,0.365235 -1.81055,0.365235 H 91.697266 c -0.643036,0 -1.25471,-0.130915 -1.810547,-0.365235 C 89.330882,40.36529 88.829754,40.02702 88.410156,39.607422 87.990558,39.187824 87.652288,38.68865 87.417969,38.132812 87.18365,37.576975 87.052734,36.965301 87.052734,36.322266 Z" id="path2511" style="opacity:1;fill:#1a1a1a;fill-opacity:1;stroke:none;stroke-width:0.05677772;stroke-linecap:round;stroke-linejoin:round;stroke-miterlimit:4;stroke-dasharray:none;stroke-dashoffset:0;stroke-opacity:1" transform="matrix(0.26458334,0,0,0.26458334,0,280.06665)"/><path d="m 87.052734,32.732422 v 3.589844 c 0,0.643035 0.130916,1.254709 0.365235,1.810546 0.234319,0.555838 0.572589,1.055012 0.992187,1.47461 0.419598,0.419598 0.920726,0.757868 1.476563,0.992187 0.555837,0.23432 1.167511,0.365235 1.810547,0.365235 h 17.142574 c 0.64304,0 1.25471,-0.130915 1.81055,-0.365235 0.55584,-0.234319 1.05501,-0.572589 1.47461,-0.992187 0.4196,-0.419598 0.75982,-0.918772 0.99414,-1.47461 0.23432,-0.555837 0.36328,-1.167511 0.36328,-1.810546 v -3.589844 h -13.21484 z" id="path2506" style="opacity:1;fill:#ffffff;fill-opacity:1;stroke:none;stroke-width:0.05677772;stroke-linecap:round;stroke-linejoin:round;stroke-miterlimit:4;stroke-dasharray:none;stroke-dashoffset:0;stroke-opacity:1" transform="matrix(0.26458334,0,0,0.26458334,0,280.06665)"/><path d="m 28.218075,293.21433 a 1.7347691,1.4991172 0 0 0 -0.01753,-0.0685 1.7347691,1.4991172 0 0 0 -0.05488,-0.14228 1.7347691,1.4991172 0 0 0 -0.07051,-0.13668 1.7347691,1.4991172 0 0 0 -0.08652,-0.13009 1.7347691,1.4991172 0 0 0 -0.100999,-0.12187 1.7347691,1.4991172 0 0 0 -0.114338,-0.11264 1.7347691,1.4991172 0 0 0 -0.126914,-0.1021 1.7347691,1.4991172 0 0 0 -0.137968,-0.0906 1.7347691,1.4991172 0 0 0 -0.147876,-0.0784 1.7347691,1.4991172 0 0 0 -0.15588,-0.0652 1.7347691,1.4991172 0 0 0 -0.163122,-0.0514 1.7347691,1.4991172 0 0 0 -0.168077,-0.0369 1.7347691,1.4991172 0 0 0 -0.171504,-0.0224 1.7347691,1.4991172 0 0 0 -0.173032,-0.008 1.7347691,1.4991172 0 0 0 -0.122722,0.004 1.7347691,1.4991172 0 0 0 -0.172269,0.0181 1.7347691,1.4991172 0 0 0 -0.169219,0.0329 1.7347691,1.4991172 0 0 0 -0.164266,0.0471 1.7347691,1.4991172 0 0 0 -0.158548,0.0613 1.7347691,1.4991172 0 0 0 -0.150163,0.0744 1.7347691,1.4991172 0 0 0 -0.141016,0.0873 1.7347691,1.4991172 0 0 0 -0.130345,0.0988 1.7347691,1.4991172 0 0 0 -0.118149,0.10968 1.7347691,1.4991172 0 0 0 -0.10519,0.11955 1.7347691,1.4991172 0 0 0 -0.09033,0.12746 1.7347691,1.4991172 0 0 0 -0.07546,0.13503 1.7347691,1.4991172 0 0 0 -0.05946,0.14064 1.7347691,1.4991172 0 0 0 -0.03316,0.11198 3.9605801,3.4225729 0 0 0 3.379438,-10e-4 z" id="path2518" style="opacity:1;fill:#ff5555;fill-opacity:1;stroke:none;stroke-width:0.01029941;stroke-linecap:round;stroke-linejoin:round;stroke-miterlimit:4;stroke-dasharray:none;stroke-dashoffset:0;stroke-opacity:1"/><path d="m 22.007835,283.55326 a 0.50005,0.50005 0 0 0 -0.109554,0.98444 c -0.10682,-0.0286 -0.01909,-0.005 0.04289,0.0274 0.06198,0.0323 0.147512,0.0802 0.248047,0.13695 0.201068,0.11344 0.458607,0.26161 0.709001,0.40979 0.13643,0.0807 0.142837,0.086 0.26665,0.1602 -0.123837,0.0742 -0.130188,0.0794 -0.26665,0.16019 -0.250394,0.14818 -0.507933,0.29895 -0.709001,0.41238 -0.100535,0.0567 -0.186069,0.10414 -0.248047,0.13643 -0.06198,0.0323 -0.14971,0.0561 -0.04289,0.0274 a 0.50005,0.50005 0 1 0 0.257865,0.9648 c 0.153855,-0.0412 0.166842,-0.0641 0.24598,-0.10542 0.07914,-0.0412 0.173467,-0.0926 0.27957,-0.15245 0.212207,-0.11972 0.470899,-0.2716 0.724503,-0.42168 0.507211,-0.30016 0.990121,-0.59376 0.990121,-0.59376 a 0.50043518,0.50043518 0 0 0 5.29e-4,-5.3e-4 0.50005,0.50005 0 0 0 0.0031,-0.002 0.50043518,0.50043518 0 0 0 0.0088,-0.006 0.50005,0.50005 0 0 0 -0.0801,-0.88729 c -0.05947,-0.0359 -0.449851,-0.27224 -0.922424,-0.5519 -0.253604,-0.15009 -0.512296,-0.30196 -0.724503,-0.42168 -0.106103,-0.0599 -0.200431,-0.11123 -0.27957,-0.15245 -0.07914,-0.0412 -0.09213,-0.0663 -0.24598,-0.10748 a 0.50005,0.50005 0 0 0 -0.148311,-0.0176 z" id="path2520" style="color:#000000;font-style:normal;font-variant:normal;font-weight:normal;font-stretch:normal;font-size:medium;line-height:normal;font-family:sans-serif;font-variant-ligatures:normal;font-variant-position:normal;font-variant-caps:normal;font-variant-numeric:normal;font-variant-alternates:normal;font-feature-settings:normal;text-indent:0;text-align:start;text-decoration:none;text-decoration-line:none;text-decoration-style:solid;text-decoration-color:#000000;letter-spacing:normal;word-spacing:normal;text-transform:none;writing-mode:lr-tb;direction:ltr;text-orientation:mixed;dominant-baseline:auto;baseline-shift:baseline;text-anchor:start;white-space:normal;shape-padding:0;clip-rule:nonzero;display:inline;overflow:visible;visibility:visible;opacity:1;isolation:auto;mix-blend-mode:normal;color-interpolation:sRGB;color-interpolation-filters:linearRGB;solid-color:#000000;solid-opacity:1;vector-effect:none;fill:#1a1a1a;fill-opacity:1;fill-rule:nonzero;stroke:none;stroke-width:1;stroke-linecap:round;stroke-linejoin:round;stroke-miterlimit:4;stroke-dasharray:none;stroke-dashoffset:0;stroke-opacity:1;color-rendering:auto;image-rendering:auto;shape-rendering:auto;text-rendering:auto;enable-background:accumulate"/><path d="m 31.037258,283.55326 a 0.50005,0.50005 0 0 0 -0.132808,0.0176 c -0.153855,0.0412 -0.167359,0.0663 -0.246496,0.10749 -0.07914,0.0412 -0.17295,0.0926 -0.279053,0.15244 -0.212207,0.11972 -0.470898,0.27159 -0.724504,0.42168 -0.480531,0.28437 -0.891505,0.53289 -0.938445,0.56121 a 0.50005,0.50005 0 0 0 -0.11317,0.84284 0.50005,0.50005 0 0 0 0.03565,0.0269 0.50043518,0.50043518 0 0 0 0.01241,0.008 0.50005,0.50005 0 0 0 0.01291,0.009 c 0,0 0.483428,0.2936 0.990637,0.59376 0.253605,0.15008 0.512296,0.30196 0.724503,0.42168 0.106103,0.0598 0.199914,0.11122 0.279053,0.15245 0.07914,0.0412 0.09264,0.0642 0.246497,0.10542 a 0.50005,0.50005 0 1 0 0.272335,-0.9617 c 0.04379,0.0114 -0.0034,-0.003 -0.05581,-0.0305 -0.06198,-0.0323 -0.149579,-0.0797 -0.250116,-0.13643 -0.201067,-0.11343 -0.456538,-0.26419 -0.706932,-0.41237 -0.136499,-0.0808 -0.143092,-0.0859 -0.267168,-0.1602 0.124052,-0.0742 0.130701,-0.0794 0.267168,-0.1602 0.250394,-0.14818 0.505865,-0.29635 0.706932,-0.40979 0.100537,-0.0567 0.188138,-0.10466 0.250116,-0.13694 0.06198,-0.0323 0.149709,-0.056 0.04289,-0.0274 a 0.50005,0.50005 0 0 0 -0.126609,-0.98444 z" id="path2524" style="color:#000000;font-style:normal;font-variant:normal;font-weight:normal;font-stretch:normal;font-size:medium;line-height:normal;font-family:sans-serif;font-variant-ligatures:normal;font-variant-position:normal;font-variant-caps:normal;font-variant-numeric:normal;font-variant-alternates:normal;font-feature-settings:normal;text-indent:0;text-align:start;text-decoration:none;text-decoration-line:none;text-decoration-style:solid;text-decoration-color:#000000;letter-spacing:normal;word-spacing:normal;text-transform:none;writing-mode:lr-tb;direction:ltr;text-orientation:mixed;dominant-baseline:auto;baseline-shift:baseline;text-anchor:start;white-space:normal;shape-padding:0;clip-rule:nonzero;display:inline;overflow:visible;visibility:visible;opacity:1;isolation:auto;mix-blend-mode:normal;color-interpolation:sRGB;color-interpolation-filters:linearRGB;solid-color:#000000;solid-opacity:1;vector-effect:none;fill:#1a1a1a;fill-opacity:1;fill-rule:nonzero;stroke:none;stroke-width:1;stroke-linecap:round;stroke-linejoin:round;stroke-miterlimit:4;stroke-dasharray:none;stroke-dashoffset:0;stroke-opacity:1;color-rendering:auto;image-rendering:auto;shape-rendering:auto;text-rendering:auto;enable-background:accumulate"/></g></svg>