<?xml version="1.0" ?><!DOCTYPE svg  PUBLIC '-//W3C//DTD SVG 1.1//EN'  'http://www.w3.org/Graphics/SVG/1.1/DTD/svg11.dtd'><svg style="enable-background:new 0 0 500 500;" version="1.1" viewBox="0 0 500 500" xml:space="preserve" xmlns="http://www.w3.org/2000/svg" xmlns:xlink="http://www.w3.org/1999/xlink"><g id="store-sign"><g><polygon points="500,250 473.221,279.409 491.536,314.718 458.049,336.172 466.532,375.03 428.619,387.049     426.778,426.778 387.044,428.619 375.02,466.537 336.166,458.043 314.713,491.541 279.409,473.221 250,500 220.589,473.221     185.285,491.541 163.826,458.043 124.967,466.537 112.951,428.619 73.222,426.773 71.378,387.039 33.46,375.021 41.949,336.166     8.456,314.718 26.776,279.409 0,250 26.776,220.591 8.461,185.282 41.949,163.829 33.462,124.97 71.378,112.956 73.222,73.222     112.956,71.381 124.975,33.462 163.831,41.952 185.285,8.459 220.589,26.779 250,0 279.409,26.779 314.718,8.459 336.172,41.957     375.03,33.462 387.044,71.381 426.778,73.227 428.619,112.961 466.537,124.98 458.049,163.834 491.536,185.282 473.221,220.591       " style="fill:#9DD2D8;"/><g id="_x31_"><g><g><polygon points="302.053,163.472 197.955,163.472 111.384,253.503 111.384,284.972 197.955,374.999        302.053,374.999 388.616,284.977 388.616,253.503      " style="fill:#484B4D;"/><polygon points="293.01,179.224 206.988,179.224 133.318,255.849 133.318,282.633 206.988,359.257        293.01,359.257 366.679,282.633 366.679,255.849      " style="fill:#F4F8F8;"/><path d="M289.632,186.202H210.37l-67.522,70.216l-0.242,0.244v25.146l67.764,70.465h79.262l67.52-70.216       l0.239-0.249v-25.146L289.632,186.202z M355.692,281.122L288.91,350.58h-77.817L144.3,281.122v-23.773l66.793-69.458h77.817       l66.782,69.458V281.122z" style="fill:#484B4D;"/></g><g><rect height="5.04" style="fill:#484B4D;" width="226.824" x="134.504" y="132.003"/><g><path d="M366.775,141.402c-4.664,1.77-5.763-3.042-5.763-6.79c0-3.769,1.048-8.428,5.763-6.816        c6.068,2.07,11.094,6.215,11.094,6.816C377.869,135.197,372.248,139.332,366.775,141.402z" style="fill:#484B4D;"/><path d="M361.42,133.355c-1.414,2.05-6.419,0.824-7.676-3.529c-1.276-4.451,4.654-4.812,5.051-1.45        c0.494,4.105,1.979,4.751,2.523,4.847c-0.656-0.951-1.277-2.533-1.603-5.198c-0.534-4.532-8.565-4.049-6.831,1.979        c1.739,6.017,8.8,7.635,10.544,4.628C363.429,134.632,362.417,134.693,361.42,133.355z" style="fill:#484B4D;"/><path d="M361.42,135.68c-1.414-2.035-6.419-0.814-7.676,3.54c-1.276,4.451,4.654,4.811,5.051,1.455        c0.494-4.1,1.979-4.756,2.523-4.847c-0.656,0.946-1.277,2.528-1.603,5.188c-0.534,4.537-8.565,4.049-6.831-1.974        c1.739-6.012,8.8-7.634,10.544-4.628C363.429,134.414,362.417,134.343,361.42,135.68z" style="fill:#484B4D;"/><path d="M367.381,139.683c-3.53,1.333-4.354-2.304-4.354-5.152c0-2.833,0.793-6.363,4.354-5.147        c4.583,1.577,8.393,4.695,8.393,5.147C375.773,134.978,371.521,138.111,367.381,139.683z" style="fill:#484B4D;"/></g><g><path d="M127.688,141.402c4.662,1.77,5.763-3.042,5.763-6.79c0-3.769-1.038-8.428-5.763-6.816        c-6.065,2.07-11.096,6.215-11.096,6.816C116.592,135.197,122.218,139.332,127.688,141.402z" style="fill:#484B4D;"/><path d="M133.042,133.355c1.424,2.05,6.419,0.824,7.68-3.529c1.274-4.451-4.656-4.812-5.061-1.45        c-0.48,4.105-1.963,4.751-2.515,4.847c0.651-0.951,1.279-2.533,1.6-5.198c0.537-4.532,8.565-4.049,6.829,1.979        c-1.729,6.017-8.787,7.635-10.539,4.628C131.035,134.632,132.05,134.693,133.042,133.355z" style="fill:#484B4D;"/><path d="M133.042,135.68c1.424-2.035,6.419-0.814,7.68,3.54c1.274,4.451-4.656,4.811-5.061,1.455        c-0.48-4.1-1.963-4.756-2.515-4.847c0.651,0.946,1.279,2.528,1.6,5.188c0.537,4.537,8.565,4.049,6.829-1.974        c-1.729-6.012-8.787-7.634-10.539-4.628C131.035,134.414,132.05,134.343,133.042,135.68z" style="fill:#484B4D;"/><path d="M127.08,139.683c3.53,1.333,4.362-2.304,4.362-5.152c0-2.833-0.791-6.363-4.362-5.147        c-4.585,1.577-8.392,4.695-8.392,5.147C118.688,134.978,122.948,138.111,127.08,139.683z" style="fill:#484B4D;"/></g></g><g><g><g><path d="M193.736,143.844c0,4.415,3.598,8.011,8.008,8.011c4.428,0,8.016-3.596,8.016-8.011         c0-4.415-3.588-8.011-8.016-8.011C197.334,135.833,193.736,139.429,193.736,143.844z M195.862,143.844         c0-3.245,2.65-5.885,5.882-5.885c3.25,0,5.887,2.64,5.887,5.885s-2.637,5.885-5.887,5.885         C198.512,149.728,195.862,147.089,195.862,143.844z" style="fill:#484B4D;"/></g><path d="M203.364,164.57v-13.199h-3.225V164C201.126,163.304,202.71,163.492,203.364,164.57z" style="fill:#484B4D;"/></g><g><g><path d="M290.232,143.844c0,4.415,3.596,8.011,8.016,8.011c4.426,0,8.011-3.596,8.011-8.011         c0-4.415-3.585-8.011-8.011-8.011C293.828,135.833,290.232,139.429,290.232,143.844z M292.363,143.844         c0-3.245,2.64-5.885,5.885-5.885c3.24,0,5.885,2.64,5.885,5.885s-2.645,5.885-5.885,5.885         C295.003,149.728,292.363,147.089,292.363,143.844z" style="fill:#484B4D;"/></g><path d="M299.86,164.372v-13.001h-3.225v12.192C297.679,162.917,299.296,163.182,299.86,164.372z" style="fill:#484B4D;"/></g></g></g><g><path d="M186.648,281.111c0-2.578-0.641-4.699-1.92-6.362c-1.279-1.663-2.983-2.498-5.109-2.498      c-0.572,0-1.21,0.092-1.92,0.265c-0.709,0.179-1.111,0.27-1.21,0.27l-0.236-0.06c-0.196-0.097-0.374-0.382-0.532-0.854      c-0.453-1.536-1.259-2.768-2.421-3.692c-3.782-3.052-5.671-7.111-5.671-12.172c0-4.074,1.333-7.212,4.003-9.42      c2.668-2.202,6.363-3.306,11.088-3.306c2.068,0,3.886,0.392,5.45,1.18c1.566,0.789,2.772,1.557,3.619,2.304      c1.91,1.714,2.864,3.937,2.864,6.673c0,0.905-0.236,2.116-0.707,3.637c-0.473,1.516-0.709,2.431-0.709,2.746      c0,1.181,0.491,2.31,1.477,3.393c-0.356-0.116-0.857-0.178-1.508-0.178c-0.648,0-1.264-0.163-1.846-0.499      c-0.58-0.335-1.038-0.747-1.373-1.24c-0.648-0.926-1.131-1.978-1.447-3.159c-0.137,0.214-0.638,0.438-1.505,0.661      c-0.867,0.23-1.6,0.341-2.2,0.341c-0.6,0-1.126-0.081-1.581-0.249c-0.453-0.168-0.781-0.346-0.989-0.534      c-0.206-0.188-0.359-0.427-0.458-0.722c-0.137-0.336-0.206-0.631-0.206-0.885c1.221-0.061,2.288-0.377,3.204-0.946      c0.915-0.57,1.373-1.49,1.373-2.762c0-1.272-0.379-2.259-1.137-2.971c-0.758-0.707-1.609-1.063-2.553-1.063      c-3.092,0-4.639,1.851-4.639,5.554c0,3.128,0.798,5.463,2.393,6.998c0.827,0.81,1.673,1.211,2.54,1.211      c0.865,0,1.77-0.132,2.716-0.397c0.946-0.265,1.493-0.402,1.64-0.402c0.148,0,0.31,0.26,0.486,0.768      c0.61,1.755,1.368,2.935,2.273,3.545c2.146,1.419,3.851,3.24,5.112,5.463c1.259,2.228,1.89,4.598,1.89,7.12      c0,2.519-0.443,4.654-1.33,6.409c-0.885,1.75-2.058,3.169-3.515,4.252c-2.993,2.228-6.457,3.337-10.396,3.337      c-3.642,0-6.762-0.961-9.361-2.895c-1.261-0.945-2.268-2.172-3.029-3.677c-0.758-1.506-1.137-2.935-1.137-4.298      c0-1.358,0.262-2.777,0.783-4.268c0.521-1.485,0.783-2.635,0.783-3.454c0-0.818-0.335-1.678-1.004-2.583      c0.275-0.199,0.641-0.295,1.094-0.295c1.221,0,2.299,0.604,3.232,1.815c0.936,1.21,1.414,2.446,1.435,3.708      c1.3-0.692,2.431-1.038,3.395-1.038c0.966,0,1.684,0.097,2.157,0.285c0.473,0.183,0.806,0.427,1.004,0.722      c0.333,0.474,0.501,0.906,0.501,1.298v0.238c-1.142,0.138-2.141,0.616-2.999,1.43c-0.854,0.819-1.284,1.857-1.284,3.118      c0,1.261,0.404,2.197,1.211,2.808c0.809,0.61,1.828,0.915,3.057,0.915c1.231,0,2.398-0.488,3.502-1.465      C186.096,284.26,186.648,282.887,186.648,281.111z" style="fill:#484B4D;"/><path d="M199.081,253.972c-0.786-0.198-1.18-0.85-1.18-1.948c0-1.104,0.552-2.121,1.653-3.047      c-0.473-0.331-0.867-0.768-1.18-1.312c-0.315-0.54-0.473-1.088-0.473-1.638c0-0.554,0.097-1.002,0.295-1.343      c0.196-0.346,0.491-0.58,0.885-0.696c1.536,0.946,3.082,1.419,4.639,1.419c0.61,0,1.432-0.239,2.464-0.712      c1.035-0.468,1.808-0.707,2.319-0.707c1.261,0,2.362,0.809,3.309,2.421c0.926-1.612,2.006-2.421,3.248-2.421      c0.514,0,1.284,0.239,2.319,0.707c1.032,0.473,1.856,0.712,2.467,0.712c1.495,0,3.041-0.473,4.636-1.419      c0.491,0,0.836,0.376,1.032,1.124c0.079,0.274,0.12,0.636,0.12,1.078c0,0.442-0.148,0.91-0.442,1.404      c-0.473,0.783-0.888,1.246-1.241,1.383c0.453,0.28,0.847,0.702,1.18,1.271c0.335,0.57,0.503,1.073,0.503,1.506      s-0.041,0.793-0.12,1.078c-0.079,0.285-0.165,0.499-0.265,0.636c-0.216,0.254-0.473,0.422-0.768,0.504      c-1.201-1.379-2.856-2.07-4.962-2.07l-3.042,0.122c-0.237,0.233-0.356,1.536-0.356,3.895c0,2.365,0.109,4.253,0.325,5.672      c0.216,1.419,0.488,2.467,0.812,3.143c0.325,0.682,0.646,1.216,0.961,1.613c0.315,0.392,0.58,0.686,0.796,0.885      c0.219,0.198,0.326,0.381,0.326,0.544c0,0.168-0.079,0.341-0.237,0.519c-0.158,0.179-0.354,0.356-0.59,0.534      c-0.237,0.173-0.499,0.504-0.783,0.987c-0.285,0.482-0.547,1.067-0.784,1.76c-0.549,1.612-0.826,3.962-0.826,7.044      c0,3.077,0.262,5.396,0.783,6.953c0.521,1.557,1.452,2.976,2.792,4.252c0,0.712-0.552,1.241-1.656,1.598      c-0.412,0.116-0.989,0.178-1.727,0.178c-0.74,0-1.503-0.29-2.289-0.859c-0.788-0.57-1.358-1.13-1.714-1.684l-0.501-0.854      c-0.572,1.419-1.587,2.431-3.042,3.041c-0.592,0.234-1.188,0.357-1.788,0.357c-0.6,0-1.114-0.061-1.536-0.178      c-0.422-0.117-0.732-0.265-0.931-0.442c-0.432-0.397-0.679-0.778-0.738-1.155c1.338-1.276,2.269-2.7,2.79-4.267      c0.524-1.567,0.783-3.546,0.783-5.937c0-2.391-0.107-4.312-0.325-5.757c-0.216-1.45-0.481-2.498-0.796-3.148      c-0.315-0.651-0.636-1.155-0.961-1.521c-0.323-0.361-0.595-0.646-0.811-0.839c-0.216-0.198-0.326-0.387-0.326-0.564      c0-0.173,0.109-0.361,0.326-0.56c0.216-0.198,0.488-0.493,0.811-0.885c0.326-0.397,0.646-0.937,0.961-1.628      c0.747-1.592,1.122-3.973,1.122-7.131c0-3.159-0.117-5.016-0.354-5.564c0-0.081-0.867-0.122-2.599-0.122      c-1.734,0-2.914,0.163-3.545,0.488C200.223,252.715,199.633,253.244,199.081,253.972z" style="fill:#484B4D;"/><path d="M259.064,270.583c-0.371,0.682-0.656,1.623-0.854,2.838c-0.193,1.211-0.295,2.92-0.295,5.138      c0,2.212-0.295,4.308-0.885,6.276c-0.59,1.969-1.485,3.54-2.688,4.71c-1.2,1.17-2.627,2.019-4.282,2.538      c-1.653,0.523-3.611,0.783-5.877,0.783c-2.263,0-4.224-0.26-5.877-0.783c-1.653-0.52-3.083-1.373-4.283-2.554      c-2.383-2.324-3.573-6.271-3.573-11.841c0-4.71-1.093-7.817-3.278-9.333c-0.257-0.178-0.384-0.306-0.384-0.387      c0-0.076,0.128-0.198,0.384-0.366c0.254-0.168,0.559-0.438,0.916-0.799c0.354-0.366,0.709-0.854,1.063-1.465      c0.867-1.495,1.299-3.561,1.299-6.2c0-2.64,0.132-4.75,0.4-6.337c0.265-1.582,0.674-2.92,1.225-4.013      c0.55-1.094,1.195-2.004,1.933-2.732c0.74-0.732,1.65-1.297,2.734-1.699c1.081-0.407,2.21-0.686,3.38-0.844      c1.172-0.158,2.535-0.234,4.092-0.234c1.554,0,2.914,0.076,4.074,0.234c1.162,0.158,2.286,0.437,3.367,0.844      c1.083,0.402,1.988,0.966,2.718,1.699c0.728,0.728,1.366,1.633,1.921,2.716c1.083,2.167,1.622,5.346,1.622,9.536      c0,4.588,0.967,7.69,2.899,9.309c0.233,0.173,0.351,0.3,0.351,0.366c0,0.071-0.132,0.208-0.401,0.411      c-0.265,0.209-0.519,0.453-0.763,0.743C259.75,269.424,259.44,269.906,259.064,270.583z M240.341,277.124v2.218      c0,2.559,0.104,4.054,0.31,4.486c0.208,0.437,0.379,0.798,0.519,1.093c0.137,0.295,0.3,0.509,0.486,0.637      c0.188,0.127,0.409,0.27,0.663,0.427c0.689,0.417,1.666,0.504,2.924,0.27c0.967-0.178,1.625-0.651,1.979-1.419      c0.494-1.043,0.758-2.177,0.799-3.397c0.038-1.221,0.059-2.029,0.059-2.421v-1.653c0-3.683-0.542-6.398-1.625-8.153      c-0.237-0.392-0.443-0.677-0.621-0.84c-0.176-0.167-0.265-0.3-0.265-0.401c0-0.097,0.132-0.295,0.399-0.59      c0.264-0.295,0.552-0.682,0.857-1.165c0.305-0.483,0.59-1.444,0.854-2.879c0.267-1.439,0.399-2.935,0.399-4.491      c0-1.556-0.005-2.589-0.016-3.103c-0.01-0.509-0.028-1.119-0.058-1.831c-0.031-0.707-0.079-1.241-0.148-1.592      c-0.068-0.356-0.167-0.758-0.295-1.211c-0.127-0.452-0.285-0.778-0.473-0.976c-0.186-0.199-0.417-0.397-0.694-0.59      c-0.433-0.356-1.068-0.534-1.905-0.534c-0.837,0-1.477,0.066-1.92,0.193c-0.442,0.127-0.806,0.382-1.091,0.753      c-0.287,0.376-0.509,0.743-0.666,1.108c-0.158,0.361-0.275,0.962-0.354,1.786c-0.1,1.022-0.147,2.568-0.147,4.639      c0,2.065,0.083,3.738,0.249,5.02c0.168,1.282,0.377,2.223,0.621,2.833c0.247,0.61,0.493,1.094,0.74,1.45      c0.244,0.355,0.453,0.615,0.621,0.783c0.165,0.168,0.249,0.305,0.249,0.412c0,0.106-0.084,0.259-0.249,0.457      c-0.167,0.198-0.376,0.504-0.621,0.916c-0.247,0.412-0.488,0.936-0.725,1.566C240.628,272.439,240.341,274.505,240.341,277.124z      " style="fill:#484B4D;"/><path d="M272.033,288.497c-0.102,0.198-0.34,0.519-0.722,0.961c-0.387,0.442-0.753,0.799-1.108,1.078      c-0.967,0.707-1.934,1.064-2.91,1.064c-0.977,0-1.719-0.147-2.228-0.442c-0.514-0.301-0.813-0.596-0.89-0.891l-0.117-0.442      c1.302-1.18,2.218-2.645,2.762-4.399c0.544-1.755,0.809-3.773,0.809-6.068c0-2.293-0.102-4.13-0.32-5.508      c-0.219-1.379-0.483-2.406-0.799-3.072c-0.315-0.672-0.636-1.2-0.956-1.597c-0.325-0.392-0.601-0.682-0.814-0.87      c-0.219-0.188-0.326-0.376-0.326-0.56c0-0.189,0.107-0.387,0.326-0.59c0.213-0.209,0.488-0.509,0.814-0.905      c0.32-0.392,0.641-0.941,0.956-1.653c0.748-1.653,1.119-4.186,1.119-7.604c0-3.418-0.254-5.834-0.778-7.253      c-0.523-1.414-1.449-2.757-2.792-4.013c0-0.712,0.539-1.23,1.627-1.566c0.428-0.117,0.957-0.178,1.577-0.178      c0.62,0,1.257,0.102,1.902,0.31c0.651,0.208,1.2,0.458,1.658,0.753c0.905,0.59,1.633,1.221,2.187,1.893      c0.098-0.275,0.342-0.601,0.732-0.977c0.397-0.372,0.84-0.687,1.333-0.946c1.338-0.687,2.849-1.032,4.517-1.032      c1.679,0,2.93,0.03,3.764,0.091c0.845,0.056,1.674,0.158,2.503,0.31c0.823,0.147,1.571,0.341,2.237,0.59      c0.672,0.244,1.303,0.564,1.893,0.956c0.59,0.397,1.094,0.85,1.506,1.358c0.885,1.104,1.403,2.289,1.556,3.546      c0.143,1.261,0.347,2.203,0.601,2.823s0.504,1.068,0.742,1.343c0.651,0.707,0.972,1.119,0.972,1.226      c0,0.107-0.097,0.28-0.295,0.52c-0.198,0.233-0.422,0.528-0.677,0.885c-0.65,0.926-1.048,2.156-1.2,3.692      c-0.143,1.536-0.641,2.803-1.49,3.81c-0.85,1.002-1.907,1.566-3.188,1.684c2.324,0.768,3.85,2.411,4.577,4.929      c0.397,1.44,0.723,3.439,0.977,5.997c0.254,2.558,0.498,4.46,0.737,5.701c0.534,2.777,1.755,4.776,3.662,5.997      c-1.693,1.714-3.911,2.568-6.647,2.568c-1.516,0-2.787-0.412-3.805-1.241c-1.027-0.829-1.77-1.902-2.232-3.22      c-0.463-1.317-0.819-2.772-1.063-4.354c-0.244-1.587-0.427-3.179-0.529-4.771c-0.111-1.597-0.254-3.052-0.432-4.374      c-0.433-2.971-1.439-4.455-3.012-4.455h-3.962v9.155c0,2.894,0.239,5.122,0.712,6.689c0.474,1.566,1.333,3.026,2.574,4.384      c0,0.727-0.545,1.262-1.628,1.598c-0.438,0.116-0.931,0.178-1.495,0.178c-0.56,0-1.114-0.112-1.669-0.325      c-0.549-0.219-1.012-0.474-1.383-0.769C273.107,289.895,272.486,289.225,272.033,288.497z M282.725,250.248      c-0.569-0.432-1.276-0.651-2.115-0.651c-0.834,0-1.679,0.158-2.533,0.473c-0.859,0.315-1.292,0.651-1.292,1.007v13.911      c2.329,0,4.038-0.265,5.143-0.783c1.104-0.525,1.652-1.363,1.652-2.528v-10.01C283.579,251.153,283.295,250.681,282.725,250.248      z" style="fill:#484B4D;"/><path d="M323.008,264.866c0,1.068-0.687,2.009-2.064,2.838c0.376,0.117,0.737,0.382,1.088,0.799      c0.651,0.748,0.977,1.389,0.977,1.918c0,0.966-0.193,1.505-0.59,1.627l-0.203,0.056c-1.775-1.159-4.578-1.739-8.423-1.739      l-1.297,12.965c0,1.297,0.392,2.116,1.185,2.452c0.626,0.254,1.399,0.381,2.314,0.381c0.916,0,1.633-0.355,2.156-1.078      c0.524-0.717,0.783-1.607,0.783-2.67c0-1.755-0.696-3.311-2.1-4.669c0.203-0.789,0.783-1.181,1.749-1.181      c1.669,0,2.93,0.422,3.774,1.272l0.447,0.442c1.14-1.145,2.441-1.714,3.897-1.714c0.569,0,1.027,0.097,1.373,0.295      c0.346,0.198,0.58,0.493,0.691,0.886c-1.592,1.261-2.391,3.295-2.391,6.098c0,2.808,0.896,4.959,2.685,6.455      c0,0.514-0.406,0.895-1.235,1.154c-0.315,0.097-0.682,0.147-1.094,0.147c-1.953,0-3.621-0.936-5.02-2.808      c-0.768,0.926-1.815,1.622-3.128,2.096c-1.322,0.473-2.431,0.712-3.326,0.712s-1.607-0.066-2.126-0.193      c-0.519-0.127-0.987-0.29-1.389-0.488c-0.402-0.198-0.783-0.417-1.135-0.666c-0.355-0.244-0.661-0.483-0.915-0.723      c-0.514-0.473-0.915-0.905-1.211-1.297c-0.813,1.358-2.034,2.36-3.662,3.011c-0.61,0.234-1.302,0.357-2.069,0.357      c-0.769,0-1.409-0.147-1.918-0.442c-0.514-0.301-0.813-0.596-0.89-0.891l-0.117-0.442c0.946-0.569,1.587-1.099,1.923-1.576      c0.33-0.483,0.579-0.86,0.752-1.124c0.163-0.265,0.306-0.677,0.428-1.227c0.117-0.549,0.203-1.002,0.265-1.343      c0.06-0.346,0.101-0.925,0.132-1.744c0.03-0.819,0.046-1.48,0.046-1.994v-2.482c0-5.041-0.966-8.397-2.893-10.071      c-0.219-0.178-0.326-0.35-0.326-0.528c0-0.179,0.107-0.367,0.326-0.565c0.213-0.193,0.488-0.477,0.813-0.854      c0.325-0.376,0.641-0.895,0.956-1.566c0.753-1.592,1.124-4.089,1.124-7.486c0-3.398-0.26-5.845-0.783-7.355      c-0.524-1.505-1.449-2.899-2.792-4.176c0-0.712,0.549-1.23,1.658-1.566c0.406-0.117,1.007-0.178,1.8-0.178      c0.783,0,1.638,0.285,2.554,0.859c0.915,0.569,1.576,1.129,1.994,1.679l0.62,0.859c1.852-2.264,3.936-3.397,6.261-3.397      c1.236,0,2.528,0.244,3.851,0.722c1.333,0.483,2.381,1.19,3.148,2.116c1.419-1.892,3.093-2.838,5.021-2.838      c0.65,0,1.17,0.112,1.566,0.341c0.396,0.224,0.65,0.564,0.768,1.017c-0.981,0.748-1.678,1.597-2.08,2.543      c-0.407,0.941-0.61,2.106-0.61,3.484c0,2.442,0.799,4.263,2.396,5.463c-0.076,0.315-0.3,0.585-0.666,0.814      c-0.366,0.224-0.865,0.341-1.506,0.341c-0.641,0-1.281-0.142-1.933-0.417c-0.651-0.274-1.124-0.549-1.419-0.823l-0.442-0.443      c-1.124,1.119-2.411,1.684-3.871,1.684c-0.569,0-1.032-0.102-1.389-0.3c-0.355-0.193-0.59-0.478-0.706-0.854      c1.398-1.262,2.095-2.736,2.095-4.43c0-1.872-1.062-2.808-3.188-2.808c-2.126,0-3.189,0.682-3.189,2.04c0,0.081,0,0.168,0,0.265      l1.267,13.204c2.167,0,3.876-0.122,5.127-0.372c1.251-0.244,2.35-0.691,3.296-1.342c0.193,0,0.376,0.142,0.544,0.427      C322.927,264.103,323.008,264.454,323.008,264.866z" style="fill:#484B4D;"/></g></g></g></g><g id="Layer_1"/></svg>