<?xml version="1.0" ?><!DOCTYPE svg  PUBLIC '-//W3C//DTD SVG 1.1//EN'  'http://www.w3.org/Graphics/SVG/1.1/DTD/svg11.dtd'><svg style="enable-background:new 0 0 500 500;" version="1.1" viewBox="0 0 500 500" xml:space="preserve" xmlns="http://www.w3.org/2000/svg" xmlns:xlink="http://www.w3.org/1999/xlink"><g id="present-gift"><g><polygon points="500,250 473.216,279.409 491.536,314.718 458.049,336.172 466.532,375.03 428.619,387.055     426.778,426.778 387.044,428.619 375.02,466.543 336.161,458.049 314.707,491.547 279.409,473.226 250,500 220.581,473.226     185.282,491.547 163.818,458.049 124.959,466.543 112.945,428.619 73.222,426.778 71.371,387.044 33.458,375.021 41.941,336.172     8.453,314.718 26.774,279.409 0,250 26.774,220.591 8.453,185.282 41.941,163.829 33.458,124.97 71.371,112.956 73.222,73.222     112.956,71.381 124.97,33.468 163.829,41.952 185.282,8.463 220.581,26.784 250,0 279.409,26.784 314.718,8.463 336.172,41.962     375.03,33.468 387.044,71.381 426.778,73.232 428.619,112.966 466.532,124.98 458.049,163.839 491.536,185.282 473.216,220.591       " style="fill:#9DD2D8;"/><g id="_x31_6"><path d="M177.46,343.628c-24.608-0.03-44.617-20.04-44.648-44.647l0,0v-97.951     c0.03-24.607,20.04-44.617,44.648-44.647l0,0h145.08c24.598,0.03,44.606,20.04,44.647,44.647l0,0v97.951h-0.01     c-0.031,24.607-20.04,44.617-44.638,44.647l0,0H177.46L177.46,343.628z" style="fill:#484B4D;"/><path d="M147.695,201.029v97.951c0.031,16.327,13.438,29.745,29.765,29.775l0,0h145.08     c16.317-0.03,29.734-13.448,29.765-29.775l0,0l0,0v-97.951c-0.03-16.327-13.447-29.734-29.765-29.775l0,0H177.46     C161.133,171.295,147.726,184.703,147.695,201.029L147.695,201.029z" style="fill:#F4F8F8;"/><g><g><polygon points="141.49,232.025 141.49,217.143 358.5,217.143 358.5,232.025 141.49,232.025      " style="fill:#484B4D;"/></g><g><polygon points="198.537,334.951 198.537,165.06 213.419,165.06 213.419,334.951 198.537,334.951             " style="fill:#484B4D;"/></g></g><path d="M216.827,232.208c0.102-0.203,0.204-0.427,0.306-0.641c14.557,11.281,36.845,14.679,36.845,14.679     l0.244-52.337c-27.751,6.979-40.283,22.522-41.779,24.496c-1.78-1.038-3.876-1.638-6.134-1.638c-2.269,0-4.374,0.61-6.165,1.658     c-1.414-1.872-13.937-17.507-41.799-24.516l0.244,52.337c0,0,22.329-3.408,36.896-14.709c0.102,0.244,0.224,0.488,0.346,0.732     l-41.575,44.342l19.531-0.651l6.51,16.928l18.9-56.722c1.974,1.424,4.436,2.289,7.111,2.289c2.991,0,5.706-1.058,7.772-2.797     l26.001,78.004l8.361-21.77l25.116,0.834L216.827,232.208z" style="fill:#FC6E51;"/></g></g></g><g id="Layer_1"/></svg>