<?xml version="1.0" ?><!DOCTYPE svg  PUBLIC '-//W3C//DTD SVG 1.1//EN'  'http://www.w3.org/Graphics/SVG/1.1/DTD/svg11.dtd'><svg style="enable-background:new 0 0 500 500;" version="1.1" viewBox="0 0 500 500" xml:space="preserve" xmlns="http://www.w3.org/2000/svg" xmlns:xlink="http://www.w3.org/1999/xlink"><g id="telephone-24-7-customer-support"><g><polygon points="500,250 473.216,279.409 491.536,314.718 458.049,336.172 466.532,375.03 428.619,387.055     426.778,426.778 387.044,428.619 375.02,466.543 336.161,458.049 314.707,491.547 279.409,473.226 250,500 220.581,473.226     185.282,491.547 163.818,458.049 124.959,466.543 112.945,428.619 73.222,426.778 71.371,387.044 33.458,375.021 41.941,336.172     8.453,314.718 26.774,279.409 0,250 26.774,220.591 8.453,185.282 41.941,163.829 33.458,124.97 71.371,112.956 73.222,73.222     112.956,71.381 124.97,33.468 163.829,41.952 185.282,8.463 220.581,26.784 250,0 279.409,26.784 314.718,8.463 336.172,41.962     375.03,33.468 387.044,71.381 426.778,73.232 428.619,112.966 466.532,124.98 458.049,163.839 491.536,185.282 473.216,220.591       " style="fill:#9DD2D8;"/><g id="_x32_5"><path d="M393.229,250c0,79.102-64.123,143.229-143.229,143.229S106.771,329.102,106.771,250     S170.894,106.771,250,106.771S393.229,170.898,393.229,250z" style="fill:#F4F8F8;"/><g id="_x31_2"><g><path d="M233.053,227.926c24.373-5.819,42.023-23.234,42.023-42.888       c0-24.455-27.308-44.301-60.984-44.301c-33.676,0-60.994,19.847-60.994,44.301c0,22.807,23.732,41.596,54.24,44.037h-0.031       c0,0,15.076,17.09,31.713,20.172C239.019,249.247,232.213,238.556,233.053,227.926z" style="fill:#FC6E51;"/><path d="M263.688,167.297l-13.565,30.162h-8.764l7.263-15.971c0.554-1.16,1.139-2.33,1.77-3.489       c0.636-1.14,1.327-2.309,2.116-3.469h-10.219v-7.233H263.688z M185.506,183.838c1.21-2.177,1.826-4.456,1.826-6.765       c0-2.889-0.895-5.229-2.701-7.04c-1.785-1.831-4.089-2.736-6.912-2.736c-2.925,0-5.32,0.915-7.202,2.767       c-1.872,1.831-2.803,4.272-2.803,7.263l0.046,1.099h7.863c-0.015-0.254-0.036-0.458-0.036-0.641       c-0.02-0.183-0.02-0.335-0.02-0.478c0-2.431,0.662-3.662,1.979-3.662c0.605,0,1.079,0.244,1.43,0.712       c0.341,0.488,0.508,1.119,0.508,1.933c0,1.495-0.361,2.95-1.084,4.354c-0.361,0.732-0.864,1.597-1.495,2.594       c-0.646,0.956-1.429,2.075-2.36,3.316l-8.25,10.905h20.655v-7.233c-1.277,0-2.548,0.061-3.764,0.204       c-1.231,0.122-2.441,0.366-3.642,0.671c1.389-1.333,2.584-2.594,3.566-3.794C184.097,186.096,184.886,184.947,185.506,183.838z        M209.193,184.987h2.589v6.348h-2.589v6.124h-8.123v-6.124h-10.966v-6.358l9.11-17.68h9.979V184.987z M201.543,175.893       l-1.205,2.574c-0.601,1.261-1.206,2.441-1.806,3.53c-0.605,1.079-1.206,2.085-1.801,2.991h4.618v-5.645       c0-0.244,0.005-0.682,0.041-1.262C201.431,177.521,201.472,176.778,201.543,175.893z M213.023,204.478l4.242,2.391       l21.587-40.294l-4.253-2.248L213.023,204.478z" style="fill:#F4F8F8;"/></g><g><path d="M242.152,271.006l-26.596,28.962l-5.051-4.649c-2.711-2.482-2.889-6.744-0.401-9.45       l17.553-19.104c2.487-2.706,6.734-2.89,9.455-0.387L242.152,271.006z" style="fill:#484B4D;"/><path d="M286.245,212.88c-2.701-2.482-2.89-6.744-0.397-9.45l17.548-19.104       c2.487-2.716,6.734-2.889,9.461-0.387l5.035,4.629l-26.597,28.951L286.245,212.88z" style="fill:#484B4D;"/><path d="M217.494,301.737l26.596-28.951c0,0,8.561,7.467,31.814-17.334       c0.453-0.509,0.885-0.986,1.302-1.475l0,0c0.016-0.011,0.025-0.03,0.052-0.041c0.01-0.021,0.02-0.04,0.03-0.051h0.005       c0.453-0.468,0.905-0.926,1.368-1.414c22.746-25.278,14.572-33.172,14.572-33.172l26.596-28.951       c20.895,14.995,10.712,36.845,3.77,47.455c-4.751,7.619-14.796,20.193-27.212,33.702       c-12.421,13.52-24.094,24.587-31.291,29.968C255.106,309.296,234.197,321.289,217.494,301.737z" style="fill:#484B4D;"/><path d="M268.962,336.782c0.417,1.882-0.778,3.733-2.66,4.16c-4.797,1.058-9.028,1.526-12.787,1.536       c-0.122,0-0.224,0-0.346,0c-11.907,0-19.099-5.351-22.481-11.088c-3.464-5.758-3.601-11.414-3.611-12.797       c0-0.174,0-0.285,0-0.336c0.082-1.933,1.714-3.429,3.632-3.347c1.938,0.081,3.438,1.709,3.357,3.632c0,0,0,0,0,0.051       c-0.015,0.682,0.168,5.218,2.594,9.155c2.477,3.886,6.638,7.629,16.856,7.73c3.153,0,6.897-0.406,11.281-1.352       C266.683,333.699,268.545,334.88,268.962,336.782z" style="fill:#FC6E51;"/><path d="M294.362,324.402l-12.705,17.588c-1.47,2.024-4.318,2.483-6.353,1.018       c-2.04-1.476-2.493-4.314-1.018-6.358l12.705-17.567c1.465-2.035,4.309-2.492,6.343-1.027       C295.369,319.529,295.832,322.367,294.362,324.402z" style="fill:#FC6E51;"/><path d="M314.061,324.402l-12.695,17.588c-1.48,2.024-4.328,2.483-6.358,1.018       c-2.034-1.476-2.486-4.314-1.021-6.358l12.71-17.567c1.46-2.035,4.309-2.492,6.343-1.027       C315.084,319.529,315.531,322.367,314.061,324.402z" style="fill:#FC6E51;"/><path d="M333.766,324.402l-12.711,17.588c-1.459,2.024-4.308,2.483-6.342,1.018       c-2.045-1.476-2.498-4.314-1.022-6.358l12.695-17.567c1.475-2.035,4.328-2.492,6.353-1.027       C334.772,319.529,335.23,322.367,333.766,324.402z" style="fill:#FC6E51;"/><path d="M353.465,324.402L340.77,341.99c-1.475,2.024-4.323,2.483-6.353,1.018       c-2.029-1.476-2.498-4.314-1.027-6.358l12.716-17.567c1.465-2.035,4.308-2.492,6.342-1.027       C354.482,319.529,354.939,322.367,353.465,324.402z" style="fill:#FC6E51;"/></g></g></g></g></g><g id="Layer_1"/></svg>