<?xml version="1.0" ?><!DOCTYPE svg  PUBLIC '-//W3C//DTD SVG 1.1//EN'  'http://www.w3.org/Graphics/SVG/1.1/DTD/svg11.dtd'><svg style="enable-background:new 0 0 500 500;" version="1.1" viewBox="0 0 500 500" xml:space="preserve" xmlns="http://www.w3.org/2000/svg" xmlns:xlink="http://www.w3.org/1999/xlink"><g id="female-silhouette-sunglasses"><g><polygon points="500,250 473.216,279.409 491.536,314.718 458.049,336.172 466.532,375.03 428.619,387.055     426.778,426.778 387.044,428.619 375.02,466.543 336.161,458.049 314.707,491.547 279.409,473.226 250,500 220.581,473.226     185.282,491.547 163.818,458.049 124.959,466.543 112.945,428.619 73.222,426.778 71.371,387.044 33.458,375.021 41.941,336.172     8.453,314.718 26.774,279.409 0,250 26.774,220.591 8.453,185.282 41.941,163.829 33.458,124.97 71.371,112.956 73.222,73.222     112.956,71.381 124.97,33.468 163.829,41.952 185.282,8.463 220.581,26.784 250,0 279.409,26.784 314.718,8.463 336.172,41.962     375.03,33.468 387.044,71.381 426.778,73.232 428.619,112.966 466.532,124.98 458.049,163.839 491.536,185.282 473.216,220.591       " style="fill:#9DD2D8;"/><g id="_x31_3"><path d="M175.964,277.908c0,0-14.519,11.037-26.388-8.631c0,0,38.742,13.845,14.692-45.726     c0,0-15.816-107.874,68.807-101.277c0,0,30.302-19.836,60.84,4.191c0,0,46.427,43.549,50.095,9.308     c0,0,20.533,45.863-11.918,43.279c0,0,8.18,14.644,17.792,10.172c0,0-10.915,14.349-24.974,9.786c0,0-3.001,10.086-5.116,20.849     c-1.638,20.401-2.086,56.076,16.683,43.91c0,0-10.925,36.662-31.545,22.272c-0.813,1.221-1.628,2.386-2.527,3.515     c0,0-5.204,7.324-8.026,14.211c0,0-6.587,20.508-23.845,9.171c0,0-0.198,21.372,11.149,29.536l12.608,10.411     c0,0,11.505,12.186,8.941,32.527c0,0-56.561-37.328-110.125-21.647c0,0,24.152-14.929,15.684-49.205     c0,0-47.437,24.073-58.383-26.84C150.408,287.72,180.163,307.17,175.964,277.908z" style="fill:#484B4D;"/><path d="M238.912,238.521l3.242,5.539c0.054,0.326,0.094,0.494,0.094,0.494     c1.999,9.425,12.111,10.655,12.111,10.655l0.091-0.06c4.349,1.062,11.062,1.597,20.162-1.018     c0.718-0.117,11.378-1.898,14.033-12.288c0.641-2.895,2.803-10.061,5.829-12.411c0.387-0.173,3.377-1.317,4.476,1.48     c0,0,2.02,12.075,5.219,13.072c0,0,1.811,1.836,4.847,0.997l-0.33-0.117c0.834-0.137,1.73-0.427,2.645-0.905     c0.758-0.127,7.07-2.523,6.343-8.377l-0.097,0.117c0.02-0.336,0.035-0.691,0.035-1.063l2.325-16.571     c0,0.127-0.021,0.239-0.036,0.376c0,0,0.564-0.931,0.295-1.5c0.097-1.328-0.671-1.368-0.671-1.368     c0.392,0.59-4.654,1.429-4.654,1.429c-1.658,0.147-11.638,5.951-11.638,5.951c-6.012,3.749-13.453,3.408-15.554,3.205     l-2.268-0.25c-4.145-0.941-17.553-1.398-22.054-0.595c-4.526,0.829-17.606,1.388-17.606,1.388c-2.94-0.992-3.66,0.443-3.66,0.443     c-1.801,0.971-2.36,1.368-1.78,5.915c-0.468,0.361-13.341-8.58-24.798-9.079c0,0-10.885,5.025-7.141,6.694     c0,0,10.195-3.159,7.141-3.825C215.513,226.847,231.145,226.019,238.912,238.521z M300.303,230.245     c0.071-0.372,0.128-0.717,0.188-1.033c-0.005,0.494-0.005,1.068,0.016,1.689C300.44,230.642,300.359,230.433,300.303,230.245z      M300.141,226.227l-0.601,2.731c-1.251-1.042-2.481-1.48-3.713-1.271c0.214-0.092,0.417-0.163,0.61-0.147     c0,0-3.174-0.982-6.108,3.286c-0.158-0.941-0.544-2.177-1.358-3.001" style="fill:#FC6E51;"/></g></g></g><g id="Layer_1"/></svg>