<?xml version="1.0" ?><!DOCTYPE svg  PUBLIC '-//W3C//DTD SVG 1.1//EN'  'http://www.w3.org/Graphics/SVG/1.1/DTD/svg11.dtd'><svg style="enable-background:new 0 0 500 500;" version="1.1" viewBox="0 0 500 500" xml:space="preserve" xmlns="http://www.w3.org/2000/svg" xmlns:xlink="http://www.w3.org/1999/xlink"><g id="sale-shopping-bag"><g><polygon points="500,250 473.216,279.409 491.536,314.718 458.049,336.172 466.532,375.03 428.619,387.055     426.778,426.778 387.044,428.619 375.02,466.543 336.161,458.049 314.707,491.547 279.409,473.226 250,500 220.581,473.226     185.282,491.547 163.818,458.049 124.959,466.543 112.945,428.619 73.222,426.778 71.371,387.044 33.458,375.021 41.941,336.172     8.453,314.718 26.774,279.409 0,250 26.774,220.591 8.453,185.282 41.941,163.829 33.458,124.97 71.371,112.956 73.222,73.222     112.956,71.381 124.97,33.468 163.829,41.952 185.282,8.463 220.581,26.784 250,0 279.409,26.784 314.718,8.463 336.172,41.962     375.03,33.468 387.044,71.381 426.778,73.232 428.619,112.966 466.532,124.98 458.049,163.839 491.536,185.282 473.216,220.591       " style="fill:#9DD2D8;"/><g id="_x31_4"><path d="M353.119,357.152V194.647c-0.02-9.868-7.985-17.828-17.853-17.853h-33.609     c-1.476-7.141-3.54-14.135-6.419-20.625c-3.86-8.652-9.242-16.454-16.754-22.135c-7.487-5.697-17.095-9.059-28.483-9.033     c-10.605-0.025-19.773,3.408-27.039,9.069c-10.925,8.52-17.715,21.541-21.973,35.527c-0.71,2.365-1.33,4.776-1.897,7.197h-34.363     c-9.87,0.025-17.825,7.985-17.855,17.853v162.506c0.03,9.857,7.985,17.817,17.855,17.848h170.537     c9.868-0.03,17.833-7.99,17.863-17.848H353.119z M215.825,160.645c3.571-7.528,8.138-13.799,13.697-18.107     c5.598-4.298,12.108-6.795,20.478-6.821c9.369,0.025,16.337,2.589,22.023,6.861c8.504,6.383,14.211,17.242,17.629,29.963     c0.366,1.394,0.707,2.823,1.033,4.253h-80.577C211.588,171.082,213.473,165.604,215.825,160.645z" style="fill:#484B4D;"/><path d="M338.837,357.152h-0.005c0,1.907-1.653,3.556-3.566,3.561H164.729     c-1.915-0.005-3.565-1.653-3.565-3.561v-20.543h177.674V357.152z" style="fill:#F4F8F8;"/><path d="M161.163,325.897V194.647c0-1.918,1.651-3.566,3.565-3.571h31.729     c-0.557,4.252-0.913,8.463-1.129,12.578c-3.601,1.974-6.047,5.794-6.047,10.188c0,6.409,5.198,11.607,11.614,11.607     c6.409,0,11.607-5.198,11.607-11.607c0-4.558-2.635-8.489-6.447-10.386c0.227-4.059,0.631-8.219,1.229-12.38h85.767     c0.478,4.155,0.783,8.29,0.956,12.349c-3.845,1.898-6.51,5.839-6.51,10.417c0,6.409,5.198,11.607,11.617,11.607     c6.408,0,11.602-5.198,11.602-11.607c0-4.364-2.416-8.169-5.977-10.147c-0.163-4.12-0.438-8.347-0.89-12.619h31.417     c1.913,0.005,3.566,1.653,3.566,3.571l0.005,131.251H161.163z" style="fill:#F4F8F8;"/><path d="M240.763,233.027c-9.392,0-12.711,8.743-13.654,23.26l-10.618,10.4     c-2.456-2.385-5.849-3.972-9.896-3.972c-15.022,0-21.164,14.663-16.975,25.782c-3.896,0.799-7.655,0.076-10.615-1.948     l-2.238,2.817c4.117,3.754,9.534,4.624,15.096,3.251c3.321,4.689,9.175,8.163,17.624,8.163c15.816,0,24.122-14.445,24.122-31.927     c0-4.77,0.074-8.957,0.293-12.497l8.664-8.524C250.079,240.616,247.915,233.027,240.763,233.027z M206.596,267.843     c2.456,0,4.697,0.87,6.427,2.243l-12.566,12.35c-1.589,1.51-3.25,2.746-4.908,3.753     C192.515,278.315,196.704,267.843,206.596,267.843z M226.751,268.854c0,14.807-5.776,25.93-17.263,25.93     c-5.346,0-9.173-1.882-11.556-4.694c2.238-1.23,4.405-2.895,6.501-4.908l11.487-11.271c1.223,3.031,0.715,6.642-2.536,9.751     l3.108,3.179c5.056-4.12,5.562-10.905,2.889-16.251l7.37-7.299V268.854z M237.582,245.961l-3.029,2.96     c1.005-7.08,2.668-10.183,5.056-10.183C241.773,238.739,242.424,241.333,237.582,245.961z" style="fill:#FC6E51;"/><path d="M321.523,277.445l-0.509,0.585c-5.417,6.281-12.35,11.267-17.629,11.267     c-4.618,0-7.365-2.895-3.901-8.957l0.727-1.303c4.837,2.024,13.941,1.084,19.571-8.661l1.089-1.882     c4.038-6.934,0.142-12.137-6.002-12.137c-6.062,0-10.905,3.18-14.084,8.673l-7.299,12.527l-0.417,0.473     c-5.422,6.281-10.685,11.267-14.008,11.267c-1.668,0-2.603-1.155-0.869-4.115l25.283-43.991h-7.518l-20.944,36.285l-0.488,0.555     c-5.412,6.281-10.687,11.267-14.008,11.267c-1.658,0-2.604-1.155-0.865-4.115l12.131-21.24h-4.257     c0.285-3.174-2.971-7.584-7.874-7.584c-4.048,0-9.684,3.18-12.86,8.673l-10.544,18.198c-3.181,5.564-0.94,10.691,5.124,10.691     c3.039,0,6.793-1.953,10.402-4.913c0.366,2.889,2.673,4.913,6.5,4.913c3.805,0,7.96-2.502,12.029-6.094     c-0.117,3.489,2.207,6.094,6.516,6.094c4.49,0,9.471-3.494,14.23-8.148c0.341,4.705,4.055,8.148,10.097,8.148     c8.524,0,16.978-6.647,23.184-13.87C323.832,279.037,322.53,277.883,321.523,277.445z M307.221,266.906     c4.328-7.44,11.988-6.215,7.507,1.588l-1.083,1.882c-3.611,6.134-8.448,5.991-11.267,4.974L307.221,266.906z M255.747,278.748     c-4.55,7.15-9.028,10.549-12.13,10.549c-1.661,0-2.604-1.155-0.867-4.115l10.47-18.275c4.044-7.009,12.064-5.203,8.377,1.588     L255.747,278.748z" style="fill:#FC6E51;"/></g></g></g><g id="Layer_1"/></svg>