<?xml version="1.0" ?><!DOCTYPE svg  PUBLIC '-//W3C//DTD SVG 1.1//EN'  'http://www.w3.org/Graphics/SVG/1.1/DTD/svg11.dtd'><svg style="enable-background:new 0 0 500 500;" version="1.1" viewBox="0 0 500 500" xml:space="preserve" xmlns="http://www.w3.org/2000/svg" xmlns:xlink="http://www.w3.org/1999/xlink"><g id="male-female-locker-rooms"><g><polygon points="500,250 473.216,279.409 491.536,314.718 458.049,336.172 466.532,375.03 428.619,387.055     426.778,426.778 387.044,428.619 375.02,466.543 336.161,458.049 314.707,491.547 279.409,473.226 250,500 220.581,473.226     185.282,491.547 163.818,458.049 124.959,466.543 112.945,428.619 73.222,426.778 71.371,387.044 33.458,375.021 41.941,336.172     8.453,314.718 26.774,279.409 0,250 26.774,220.591 8.453,185.282 41.941,163.829 33.458,124.97 71.371,112.956 73.222,73.222     112.956,71.381 124.97,33.468 163.829,41.952 185.282,8.459 220.581,26.779 250,0 279.409,26.779 314.718,8.459 336.172,41.957     375.03,33.468 387.044,71.381 426.778,73.232 428.619,112.961 466.532,124.98 458.049,163.839 491.536,185.282 473.216,220.591       " style="fill:#9DD2D8;"/><g id="_x31_2_1_"><path d="M306.722,157.079c0-7.518,6.083-13.651,13.55-13.651     c7.451,0,13.54,6.134,13.54,13.651c0,7.507-6.089,13.631-13.54,13.631C312.805,170.71,306.722,164.586,306.722,157.079z      M367.188,282.934l-30.681-56.249l0.011-6.348l0.046-16.546c-0.046-1.241,3.225-1.23,3.545-0.163l0.143,21.48l12.232,22.532     c1.551,5.396,12.166,1.597,9.48-3.983l-11.882-21.052l-0.27-27.766c-0.33-8.484-1.551-16.22-13.224-17.466l-5.514,0.031     c-4.583,10.305-18.296,9.603-23.488,1.241c-1.211,0.011-4.954,0.026-6.159,0.041c-11.516,1.435-12.009,9.114-11.648,16.403     l-0.091,27.313l-9.45,20.101c-3.291,5.559,6.297,10.681,9.338,4.674l10.666-22.206l0.168-21.586     c0.488-1.022,3.052-1.038,3.54-0.061l0.117,15.945l-0.011,6.943l-28.763,56.448l28.514-0.387l0.061,69.382     c0.609,6.581,12.68,6.378,14.236-0.011l-0.021-69.233h3.957l-0.152,69.132c1.484,7.101,12.868,6.256,15.101,0.173l-0.066-68.781     H367.188z" style="fill-rule:evenodd;clip-rule:evenodd;fill:#484B4D;"/><path d="M154.139,156.245c0-7.06,5.712-12.808,12.716-12.808     c7.009,0,12.731,5.748,12.731,12.808c0,7.039-5.722,12.797-12.731,12.797C159.851,169.042,154.139,163.284,154.139,156.245z      M185.399,175.888l-39.754,0.468c-10-0.29-13.184,7.105-12.802,14.526l0.9,74.183c2.116,5.193,8.072,6.083,10.946,0.458     l-0.422-64.764c0.498-1.017,2.996-1.048,3.494-0.051l-0.02,149.465c1.226,8.036,13.285,8.28,15.549,0.422l-0.021-87.732     c0.275-3.286,5.895-3.413,6.577-0.26l0.071,88.252c1.297,8.489,14.821,6.765,15.62-0.26V200.719     c0.387-1.038,3.148-1.012,3.469,0.071c-0.015,21.728-0.025,42.582-0.051,64.311c1.597,5.127,10.102,5.416,11.877-0.265     l0.112-75.338C200.597,180.842,196.416,174.978,185.399,175.888z" style="fill-rule:evenodd;clip-rule:evenodd;fill:#484B4D;"/><polygon points="245.326,356.577 230.911,356.577 230.911,143.428 245.326,143.428 245.326,356.577    " style="fill:#FC6E51;"/></g></g></g><g id="Layer_1"/></svg>