<?xml version="1.0" ?><!DOCTYPE svg  PUBLIC '-//W3C//DTD SVG 1.1//EN'  'http://www.w3.org/Graphics/SVG/1.1/DTD/svg11.dtd'><svg style="enable-background:new 0 0 500 500;" version="1.1" viewBox="0 0 500 500" xml:space="preserve" xmlns="http://www.w3.org/2000/svg" xmlns:xlink="http://www.w3.org/1999/xlink"><g id="hand-pointer-cart-tablet"><g><polygon points="500,250 473.216,279.409 491.536,314.718 458.049,336.172 466.532,375.03 428.619,387.055     426.778,426.778 387.044,428.619 375.02,466.543 336.161,458.049 314.707,491.547 279.409,473.226 250,500 220.581,473.226     185.282,491.547 163.818,458.049 124.959,466.543 112.945,428.619 73.222,426.778 71.371,387.044 33.458,375.021 41.941,336.172     8.453,314.718 26.774,279.409 0,250 26.774,220.591 8.453,185.282 41.941,163.829 33.458,124.97 71.371,112.956 73.222,73.222     112.956,71.381 124.97,33.468 163.829,41.952 185.282,8.459 220.581,26.779 250,0 279.409,26.779 314.718,8.459 336.172,41.957     375.03,33.468 387.044,71.381 426.778,73.232 428.619,112.961 466.532,124.98 458.049,163.839 491.536,185.282 473.216,220.591       " style="fill:#9DD2D8;"/><g id="_x31_1"><rect height="137.528" style="fill:#F4F8F8;" width="159.536" x="170.227" y="162.196"/><path d="M143.031,161.891v138.138c0,7.396,6.047,13.448,13.448,13.448h187.032     c7.4,0,13.458-6.053,13.458-13.448V161.891c0-7.4-6.058-13.453-13.458-13.453H156.479     C149.078,148.438,143.031,154.49,143.031,161.891z M329.763,162.196v137.528H170.227V162.196H329.763z M147.415,231.262     c0-1.968,1.587-3.565,3.556-3.565c1.979,0,3.565,1.597,3.565,3.565c0,1.968-1.587,3.565-3.565,3.565     C149.002,234.828,147.415,233.23,147.415,231.262z M345.296,220.566c1.079,0,1.958,0.88,1.958,1.958v15.645     c0,1.078-0.879,1.958-1.958,1.958h-0.977c-1.073,0-1.958-0.88-1.958-1.958v-15.645c0-1.078,0.885-1.958,1.958-1.958H345.296z" style="fill:#484B4D;"/><g><path d="M298.289,351.562c-4.104,0-8.22-1.018-11.887-2.95l-47.271-22.033      c-6.328-2.95-9.074-10.498-6.129-16.825l1.806-3.887c1.439-3.062,3.977-5.381,7.141-6.541c1.414-0.519,2.869-0.772,4.349-0.772      c1.856,0,3.652,0.396,5.345,1.19l12.172,5.676l-20.147-55.471c-2.38-6.566,1.017-13.845,7.574-16.23l2.543-0.926      c1.393-0.508,2.849-0.768,4.328-0.768c5.315,0,10.097,3.352,11.907,8.341l11.622,31.921c0.697-0.315,1.394-0.605,2.105-0.864      c3.749-1.363,6.958-1.648,8.993-1.648c0.295,0,0.554,0.005,0.777,0.016l0.524-0.26c0.915-0.447,2.248-1.053,3.835-1.633      c3.519-1.276,6.841-1.928,9.888-1.928c0.03,0,0.066,0,0.097,0l0.875-0.452c1.124-0.585,2.278-1.119,3.474-1.557      c3.245-1.181,6.154-1.566,8.093-1.674l3.967-0.417l2.594-0.544l0.143,0.306c0.26-0.011,0.509-0.016,0.753-0.016      c4.629,0,10.772,1.704,13.728,9.832l12.599,34.602c4.751,13.061-2.004,27.547-15.065,32.298l-32.145,11.698      C304.113,351.054,301.228,351.562,298.289,351.562L298.289,351.562z" style="fill:#484B4D;"/><path d="M336.126,273.397l12.599,34.607c3.677,10.102-1.557,21.311-11.652,24.983l-32.15,11.709      c-5.158,1.871-10.9,1.475-15.864-1.13l-47.516-22.155c-3.479-1.628-4.984-5.767-3.367-9.247l1.806-3.886      c0.789-1.688,2.187-2.96,3.927-3.601c1.754-0.631,3.642-0.55,5.325,0.233l24.648,11.495l-24.852-68.405      c-1.307-3.611,0.56-7.609,4.161-8.921l2.543-0.926c3.611-1.317,7.614,0.549,8.926,4.16l13.941,38.3l2.574-1.617      c1.449-0.9,2.976-1.648,4.526-2.213c4.634-1.684,8.148-1.256,8.174-1.251l0.433,0.061l1.806,4.949      c0.228,0.636,0.931,0.961,1.561,0.732c0.636-0.234,0.956-0.931,0.727-1.561l-1.846-5.061c0.783-0.382,1.917-0.9,3.28-1.399      c3.194-1.159,6.205-1.693,8.718-1.556l0.636,0.035l1.943,5.336c0.229,0.636,0.931,0.961,1.566,0.728      c0.631-0.229,0.956-0.926,0.728-1.561l-2.061-5.656c0.906-0.468,1.837-0.905,2.798-1.257c4.537-1.652,8.184-1.342,8.204-1.348      l0.428,0.051l0.401-0.102c0.168-0.035,0.315-0.06,0.468-0.097l2.1,5.758c0.229,0.636,0.926,0.956,1.567,0.728      c0.63-0.228,0.956-0.926,0.727-1.561l-1.947-5.336C332.718,266.719,334.945,270.157,336.126,273.397z" style="fill:#FC6E51;"/></g><g><polygon points="222.02,215.643 230.733,188.645 189.997,188.645 188.09,182.18 183.858,182.18       187.892,195.821 193.721,215.643     " style="fill:#484B4D;"/><path d="M193.985,217.87c-2.217,0-4.008,1.79-4.008,4.003c0,2.212,1.79,4.013,4.008,4.013      c2.212,0,4.003-1.8,4.003-4.013C197.988,219.66,196.197,217.87,193.985,217.87z" style="fill:#484B4D;"/><path d="M221.242,217.87c-2.218,0-3.998,1.79-3.998,4.003c0,2.212,1.78,4.013,3.998,4.013      c2.208,0,4.003-1.8,4.003-4.013C225.245,219.66,223.45,217.87,221.242,217.87z" style="fill:#484B4D;"/></g><g id="sample_text_7_"><rect height="6.18" style="fill:#484B4D;" width="71.309" x="247.182" y="184.087"/><rect height="4.75" style="fill:#484B4D;" width="71.309" x="247.182" y="200.923"/><rect height="4.75" style="fill:#484B4D;" width="45.547" x="247.182" y="216.329"/></g></g></g></g><g id="Layer_1"/></svg>