<?xml version="1.0" ?><!DOCTYPE svg  PUBLIC '-//W3C//DTD SVG 1.1//EN'  'http://www.w3.org/Graphics/SVG/1.1/DTD/svg11.dtd'><svg style="enable-background:new 0 0 500 500;" version="1.1" viewBox="0 0 500 500" xml:space="preserve" xmlns="http://www.w3.org/2000/svg" xmlns:xlink="http://www.w3.org/1999/xlink"><g id="credit-card"><g><polygon points="500,250 473.216,279.409 491.536,314.718 458.049,336.172 466.532,375.03 428.619,387.055     426.778,426.778 387.044,428.619 375.02,466.543 336.161,458.049 314.707,491.547 279.409,473.226 250,500 220.581,473.226     185.282,491.547 163.818,458.049 124.959,466.543 112.945,428.619 73.222,426.778 71.371,387.044 33.458,375.021 41.941,336.172     8.453,314.718 26.774,279.409 0,250 26.774,220.591 8.453,185.282 41.941,163.829 33.458,124.97 71.371,112.956 73.222,73.222     112.956,71.381 124.97,33.468 163.829,41.952 185.282,8.463 220.581,26.784 250,0 279.409,26.784 314.718,8.463 336.172,41.962     375.03,33.468 387.044,71.381 426.778,73.232 428.619,112.966 466.532,124.98 458.049,163.839 491.536,185.282 473.216,220.591       " style="fill:#9DD2D8;"/><g id="_x32_9"><g><path d="M357.554,162.791H142.438c-9.626,0-17.438,7.813-17.438,17.436v20.559h250v-20.559      C375,170.604,367.188,162.791,357.554,162.791z" style="fill:#484B4D;"/><path d="M125,319.753c0,9.644,7.812,17.456,17.438,17.456h215.115c9.634,0,17.446-7.812,17.446-17.456      v-78.237H125V319.753z" style="fill:#484B4D;"/><path d="M333.038,266.408c16.475,0,29.831,13.356,29.831,29.826c0,16.469-13.356,29.815-29.831,29.815      c-16.479,0-29.815-13.347-29.815-29.815C303.223,279.765,316.559,266.408,333.038,266.408z" style="fill:#484B4D;"/><rect height="40.731" style="fill:#F4F8F8;" width="250" x="125" y="200.785"/></g><path d="M348.48,280.843c-1.333-3.927-3.225-7.64-5.666-11.098     c3.713,1.343,7.09,3.55,10.101,6.571c0.57,0.56,1.099,1.129,1.587,1.729C352.569,279.134,350.565,280.08,348.48,280.843z      M328.613,268.402c1.027-0.133,2.065-0.244,3.113-0.285v15.36c-3.754-0.081-7.335-0.59-10.712-1.546     C322.632,277.069,325.195,272.532,328.613,268.402z M320.262,284.505c3.642,0.987,7.451,1.536,11.465,1.638v8.678h-12.92     C318.898,291.229,319.366,287.771,320.262,284.505z M318.472,281.128c-2.391-0.813-4.649-1.841-6.852-3.082     c0.523-0.601,1.022-1.17,1.607-1.729c3.331-3.357,7.115-5.666,11.316-6.979C321.874,273,319.865,276.936,318.472,281.128z      M345.963,281.678c-3.668,1.098-7.508,1.698-11.566,1.8v-15.36c1.444,0.061,2.833,0.224,4.176,0.478     C341.883,272.624,344.324,276.987,345.963,281.678z M348.23,294.82h-13.834v-8.678c4.339-0.102,8.428-0.742,12.334-1.892     C347.646,287.607,348.154,291.117,348.23,294.82z M346.364,309.377c-3.784-1.108-7.771-1.709-11.968-1.82v-10.051h13.834     C348.145,301.666,347.514,305.613,346.364,309.377z M318.807,297.506h12.92v10.051c-3.861,0.091-7.584,0.641-11.119,1.576     C319.52,305.45,318.924,301.595,318.807,297.506z M321.462,311.666c3.266-0.854,6.684-1.312,10.265-1.424v13.967     c-1.048-0.051-2.086-0.143-3.093-0.285c-0.631-0.773-1.246-1.557-1.811-2.33C324.555,318.461,322.784,315.145,321.462,311.666z      M318.898,312.419c1.373,3.723,3.245,7.273,5.656,10.569c-4.212-1.292-7.976-3.611-11.327-6.969     c-0.269-0.265-0.544-0.539-0.778-0.813C314.504,314.077,316.681,313.161,318.898,312.419z M345.51,311.899     c-1.292,3.418-3.072,6.644-5.274,9.694c-0.523,0.723-1.073,1.425-1.684,2.167c-1.333,0.244-2.711,0.377-4.155,0.448v-13.967     C338.293,310.354,341.98,310.903,345.51,311.899z M348.059,312.703c1.917,0.692,3.819,1.526,5.62,2.503     c-0.239,0.274-0.499,0.549-0.764,0.813c0,0,0,0-0.01,0c-3.047,3.021-6.378,5.198-10.091,6.562     C345.012,319.479,346.73,316.183,348.059,312.703z M318.055,309.896c-2.584,0.835-5.016,1.933-7.355,3.256     c-3.54-4.548-5.427-9.756-5.655-15.646h11.088C316.243,301.85,316.885,305.979,318.055,309.896z M349.253,283.406     c2.395-0.875,4.7-1.973,6.907-3.234c3.062,4.282,4.721,9.185,4.939,14.648h-10.188C350.8,290.843,350.27,287.028,349.253,283.406     z M350.911,297.506H361.1c-0.25,5.89-2.116,11.098-5.641,15.646c-2.107-1.19-4.288-2.167-6.541-2.98     C350.118,306.162,350.8,301.961,350.911,297.506z M316.132,294.82h-11.088c0.198-5.463,1.836-10.366,4.902-14.648     c2.468,1.435,5.071,2.603,7.731,3.529C316.722,287.241,316.223,290.924,316.132,294.82z" id="_x32_2" style="fill:#FC6E51;"/><g><rect height="9.907" style="fill-rule:evenodd;clip-rule:evenodd;fill:#9DD2D8;" width="140.745" x="140.505" y="283.682"/><rect height="9.907" style="fill-rule:evenodd;clip-rule:evenodd;fill:#9DD2D8;" width="34.366" x="140.505" y="257.752"/><rect height="9.928" style="fill-rule:evenodd;clip-rule:evenodd;fill:#9DD2D8;" width="83.17" x="198.08" y="257.192"/></g></g></g></g><g id="Layer_1"/></svg>