<?xml version="1.0" ?><!DOCTYPE svg  PUBLIC '-//W3C//DTD SVG 1.1//EN'  'http://www.w3.org/Graphics/SVG/1.1/DTD/svg11.dtd'><svg style="enable-background:new 0 0 500 500;" version="1.1" viewBox="0 0 500 500" xml:space="preserve" xmlns="http://www.w3.org/2000/svg" xmlns:xlink="http://www.w3.org/1999/xlink"><g id="gift-present"><g><polygon points="500,250 473.216,279.409 491.536,314.718 458.049,336.172 466.532,375.03 428.619,387.055     426.778,426.778 387.044,428.619 375.02,466.543 336.161,458.049 314.707,491.547 279.409,473.226 250,500 220.581,473.226     185.282,491.547 163.818,458.049 124.959,466.543 112.945,428.619 73.222,426.778 71.371,387.044 33.458,375.021 41.941,336.172     8.453,314.718 26.774,279.409 0,250 26.774,220.591 8.453,185.282 41.941,163.829 33.458,124.97 71.371,112.956 73.222,73.222     112.956,71.381 124.97,33.468 163.829,41.952 185.282,8.463 220.581,26.784 250,0 279.409,26.784 314.718,8.463 336.172,41.962     375.03,33.468 387.044,71.381 426.778,73.232 428.619,112.966 466.532,124.98 458.049,163.839 491.536,185.282 473.216,220.591       " style="fill:#9DD2D8;"/><g id="_x32_4"><g><g><path d="M149.984,254.146v106.501c0,3.596,2.95,6.541,6.561,6.541h186.931       c3.591,0,6.541-2.945,6.541-6.541V254.146H149.984z" style="fill:#4D4D4D;"/><path d="M356.293,237.966c0,3.398-2.787,6.19-6.186,6.19H149.902c-3.397,0-6.195-2.792-6.195-6.19       V198.08c0-3.408,2.798-6.195,6.195-6.195h200.205c3.398,0,6.186,2.788,6.186,6.195V237.966z" style="fill:#4D4D4D;"/></g><rect height="113.042" style="fill:#FC6E51;" width="38.514" x="230.743" y="254.146"/><rect height="52.271" style="fill:#FC6E51;" width="38.514" x="230.743" y="191.884"/><g><g><g><g><g><path d="M316.487,152.191c5.819-0.509,10.671,0.681,14.507,2.93           c-3.652-6.755-11.19-11.684-22.024-10.748c-27.292,2.365-51.574,38.458-51.574,38.458s4.842,0.9,11.963,1.841           C277.588,174.321,296.214,153.936,316.487,152.191z" style="fill:#F4F8F8;"/><path d="M330.994,155.121c5.533,10.274,2.095,24.79-12.432,29.479           c-12.451,4.019-35.237,1.938-49.204,0.071c-2.849,3.586-2.849,3.586-2.849,3.586s27.069,9.517,51.941,7.121           C338.552,193.431,348.297,166.778,330.994,155.121z" style="fill:#F4F8F8;"/></g></g><g><g><path d="M183.512,152.191c-5.808-0.509-10.671,0.681-14.496,2.93           c3.652-6.755,11.189-11.684,22.023-10.748c27.283,2.365,51.585,38.458,51.585,38.458s-4.853,0.9-11.973,1.841           C222.412,174.321,203.796,153.936,183.512,152.191z" style="fill:#F4F8F8;"/><path d="M169.017,155.121c-5.534,10.274-2.106,24.79,12.431,29.479           c12.451,4.019,35.238,1.938,49.205,0.071c2.838,3.586,2.838,3.586,2.838,3.586s-27.059,9.517-51.941,7.121           C161.458,193.431,151.703,166.778,169.017,155.121z" style="fill:#F4F8F8;"/></g></g></g></g><g><path d="M255.157,177.694c0,0,6.186-37.161,40.345-44.881l-5.666,5.946l10.6,2.218        c0,0-26.388,5.737-36.52,36.499L255.157,177.694z" style="fill:#F4F8F8;"/><path d="M244.71,177.694c0,0-6.164-37.161-40.324-44.881l5.646,5.946l-10.59,2.218        c0,0,26.398,5.737,36.52,36.499L244.71,177.694z" style="fill:#F4F8F8;"/></g><g><g><path d="M272.593,180.98c0-3.998-3.265-7.273-7.263-7.273h-30.66c-3.987,0-7.263,3.275-7.263,7.273         v3.738c0,3.998,3.276,7.273,7.263,7.273h30.66c3.998,0,7.263-3.275,7.263-7.273V180.98z" style="fill:#F4F8F8;"/></g><g><g><path d="M263.285,167.241c0-2.339-1.923-4.267-4.272-4.267h-18.016c-2.339,0-4.273,1.928-4.273,4.267          v2.203c0,2.339,1.933,4.262,4.273,4.262h18.016c2.35,0,4.272-1.923,4.272-4.262V167.241z" style="fill:#F4F8F8;"/></g></g></g></g></g></g></g></g><g id="Layer_1"/></svg>