<?xml version="1.0" ?><!DOCTYPE svg  PUBLIC '-//W3C//DTD SVG 1.1//EN'  'http://www.w3.org/Graphics/SVG/1.1/DTD/svg11.dtd'><svg style="enable-background:new 0 0 500 500;" version="1.1" viewBox="0 0 500 500" xml:space="preserve" xmlns="http://www.w3.org/2000/svg" xmlns:xlink="http://www.w3.org/1999/xlink"><g id="exchange-dollar-euro-bitcoin-british-pound"><g><polygon points="500,250 473.216,279.409 491.536,314.718 458.049,336.172 466.532,375.03 428.619,387.055     426.778,426.778 387.044,428.619 375.02,466.543 336.161,458.049 314.707,491.547 279.409,473.226 250,500 220.581,473.226     185.282,491.547 163.818,458.049 124.959,466.543 112.945,428.619 73.222,426.778 71.371,387.044 33.458,375.021 41.941,336.172     8.453,314.718 26.774,279.409 0,250 26.774,220.591 8.453,185.282 41.941,163.829 33.458,124.97 71.371,112.956 73.222,73.222     112.956,71.381 124.97,33.468 163.829,41.952 185.282,8.463 220.581,26.784 250,0 279.409,26.784 314.718,8.463 336.172,41.962     375.03,33.468 387.044,71.381 426.778,73.232 428.619,112.966 466.532,124.98 458.049,163.839 491.536,185.282 473.216,220.591       " style="fill:#9DD2D8;"/><g id="_x33_1"><path d="M270.02,143.697c5.361-3.357,7.873-9.044,6.424-14.496c-1.831-6.856-9.119-11.312-19.013-11.607     v-8.118h-6.495v8.098h-8.362v-8.098h-6.643v8.098h-10.147v6.866h6.307v41.352h-6.307v6.866h10.147v8.098h6.643v-8.098h8.362     v8.098h6.495v-8.098c6.444-0.02,11.698-1.373,15.604-4.049c3.393-2.35,5.545-5.554,6.211-9.277     C280.426,152.751,276.556,146.19,270.02,143.697z M245.9,124.44c0.748,0,1.45,0,2.106,0c0.615,0,1.175,0,1.719,0     c3.58,0,5.655,0.102,7.873,0.661c5.585,1.414,7.121,5.524,6.734,8.616c-0.61,4.883-5.148,7.121-9.094,7.121H245.9V124.44z      M259.71,164.795c-1.704,0.427-3.77,0.661-6.129,0.661H245.9v-18.005h7.411c3.932,0,7.247,0.875,9.607,2.543     c2.015,1.444,3.296,3.469,3.591,5.707C267.034,159.882,264.246,163.625,259.71,164.795z" style="fill:#484B4D;"/><path d="M167.71,269.257l-27.99-0.234v-0.203c2.523-2.177,4.232-4.811,5.198-7.416     c0.758-2.4,1.088-4.903,1.007-7.426l13.001,0.102l0.086-10.895l-14.369-0.143c-0.61-2.614-1.002-5.025-0.977-7.751     c0.04-5.158,2.391-9.847,9.842-9.776c3.865,0.031,6.79,0.783,8.885,1.953l2.635-12.034c-2.309-1.282-6.602-2.573-12.273-2.614     c-14.15-0.122-23.758,8.504-23.88,21.596c-0.01,2.96,0.274,5.88,0.778,8.515l-8.397-0.082l-0.086,10.915l10.29,0.092     c0.188,1.352,0.163,2.727,0.163,4.191c-0.051,7.131-6.19,13.061-11.774,15.319l-0.056,8.504l47.801,0.387L167.71,269.257z" style="fill:#484B4D;"/><path d="M199.178,138.815c-23.265,11.352-42.455,29.805-54.748,52.5c2.258-0.285,4.552-0.478,6.876-0.478     c4.654,0,9.145,0.641,13.468,1.74c8.835-13.56,20.681-24.984,34.597-33.285c-0.737-3.682-1.129-7.487-1.099-11.373     C198.293,144.816,198.649,141.785,199.178,138.815z" style="fill:#FC6E51;"/><path d="M344.126,196.381c3.887-0.875,7.925-1.384,12.096-1.384c2.757,0,5.442,0.275,8.097,0.671     c-12.115-24.678-32.232-44.759-56.936-56.844c0.57,3.255,0.906,6.592,0.875,10.01c-0.03,3.571-0.432,7.07-1.119,10.458     C322.357,168.356,335.093,181.142,344.126,196.381z" style="fill:#FC6E51;"/><path d="M199.183,340.586c-16.301-9.775-29.78-23.813-38.833-40.578c-2.94,0.499-5.951,0.804-9.043,0.804     c-3.855,0-7.619-0.396-11.261-1.159c11.836,26.896,32.969,48.817,59.326,61.625c-0.722-3.551-1.104-7.223-1.104-10.986     C198.268,346.975,198.608,343.74,199.183,340.586z" style="fill:#FC6E51;"/><path d="M344.126,303.609c-9.002,15.178-21.657,27.913-36.783,36.977c0.569,3.154,0.905,6.389,0.905,9.705     c0,3.764-0.377,7.436-1.099,10.986c24.821-12.064,45.003-32.196,57.169-56.946c-2.654,0.397-5.351,0.661-8.097,0.661     C352.051,304.992,348.013,304.484,344.126,303.609z" style="fill:#FC6E51;"/><path d="M360.9,213.694c-8.076,0-14.826,2.116-20.232,6.337c-5.189,4.049-8.683,9.664-10.463,16.856     h-4.211l-1.653,8.229h0.27h4.379c-0.03,0.824-0.04,1.648-0.04,2.502c0,0.682,0.01,1.363,0.04,2.035     c0.011-0.01,0.021-0.021,0.021-0.031c0.025,0.499,0.025,1.027,0.071,1.537h-0.092h-1.312h-1.684l-1.653,8.229h0.27h5.783     c1.861,6.917,5.33,12.268,10.417,16.062c5.315,3.958,11.993,5.941,20.039,5.941c6.572,0,13.022-1.363,19.358-4.069v-13.204     v-1.353h-1.668c-5.412,4.323-10.396,6.47-14.959,6.47c-0.89,0-1.734-0.061-2.558-0.152c-0.265-0.031-0.504-0.102-0.784-0.133     c-0.519-0.092-1.048-0.183-1.546-0.295c-0.311-0.081-0.59-0.193-0.885-0.285c-0.428-0.142-0.875-0.264-1.292-0.436     c-0.285-0.133-0.569-0.285-0.855-0.428c-0.377-0.173-0.763-0.366-1.109-0.59c-0.284-0.173-0.559-0.366-0.823-0.539     c-0.326-0.255-0.661-0.488-0.987-0.753c-0.244-0.214-0.488-0.458-0.732-0.682c-0.289-0.285-0.585-0.58-0.864-0.896     c-0.229-0.264-0.447-0.539-0.672-0.823c-0.264-0.346-0.519-0.692-0.763-1.059c-0.193-0.305-0.387-0.62-0.58-0.935     c-0.335-0.59-0.682-1.19-0.971-1.841h17.608l1.348-6.888l0.265-1.342h-21.362c-0.097-0.855-0.138-1.72-0.152-2.615     c-0.02-0.285-0.02-0.58-0.02-0.885c0-0.854,0.03-1.688,0.076-2.543h22.735l1.612-8.229h-21.973h-0.58     c0.315-0.814,0.662-1.577,1.038-2.289c0.336-0.661,0.712-1.282,1.094-1.861c0.065-0.081,0.106-0.163,0.157-0.234     c0.402-0.57,0.814-1.109,1.252-1.597c0.061-0.071,0.116-0.122,0.173-0.173c0.457-0.509,0.945-0.977,1.454-1.404     c0.03-0.02,0.03-0.02,0.041-0.041c0.519-0.407,1.068-0.794,1.627-1.139c0.052-0.03,0.103-0.061,0.153-0.082     c0.56-0.335,1.134-0.61,1.739-0.865c0.102-0.04,0.184-0.081,0.285-0.122c0.595-0.234,1.221-0.427,1.841-0.59     c0.122-0.04,0.234-0.061,0.346-0.081c0.661-0.163,1.322-0.275,2.02-0.366c0.102-0.01,0.198-0.02,0.29-0.031     c0.753-0.082,1.516-0.122,2.304-0.122c0.534,0,1.073,0.031,1.623,0.091c0.183,0.021,0.376,0.051,0.539,0.082     c0.366,0.051,0.737,0.112,1.099,0.183c0.238,0.051,0.457,0.112,0.682,0.163c0.33,0.081,0.671,0.183,1.007,0.264     c0.239,0.092,0.483,0.173,0.722,0.254c2.981,1.027,6.073,2.828,9.339,5.401h1.668v-6.622v-6.571v-1.343     C373.83,215.058,367.411,213.694,360.9,213.694z" style="fill:#484B4D;"/><path d="M258.54,341.186c-8.917-3.215-12.568-5.493-12.568-8.84c0-2.899,2.177-5.9,8.932-5.9     c7.477,0,12.359,2.391,14.974,3.632l3.102-11.749c-3.632-1.658-8.311-3.204-15.177-3.408v-9.155H247.63v9.867     c-11.104,2.075-17.527,9.237-17.527,18.474c0,10.091,7.558,15.289,18.672,19.033c7.797,2.594,11.123,5.075,11.123,9.033     c0,4.038-4.059,6.438-10.091,6.438c-6.754,0-12.868-2.197-17.242-4.577l-3.108,12.156c3.952,2.177,10.707,4.16,17.665,4.466     v9.867h10.274v-10.701c11.952-1.974,18.392-9.868,18.392-19.104C275.787,351.268,270.91,345.551,258.54,341.186z" style="fill:#484B4D;"/></g></g></g><g id="Layer_1"/></svg>