<?xml version="1.0" ?><!DOCTYPE svg  PUBLIC '-//W3C//DTD SVG 1.1//EN'  'http://www.w3.org/Graphics/SVG/1.1/DTD/svg11.dtd'><svg style="enable-background:new 0 0 500 500;" version="1.1" viewBox="0 0 500 500" xml:space="preserve" xmlns="http://www.w3.org/2000/svg" xmlns:xlink="http://www.w3.org/1999/xlink"><g id="hand-coins-euro-dollar-bitcoin"><g><polygon points="500,250 473.216,279.409 491.536,314.718 458.049,336.172 466.532,375.03 428.619,387.055     426.778,426.778 387.044,428.619 375.02,466.543 336.161,458.049 314.707,491.547 279.409,473.226 250,500 220.581,473.226     185.282,491.547 163.818,458.049 124.959,466.543 112.945,428.619 73.222,426.778 71.371,387.044 33.458,375.021 41.941,336.172     8.453,314.718 26.774,279.409 0,250 26.774,220.591 8.453,185.282 41.941,163.829 33.458,124.97 71.371,112.956 73.222,73.222     112.956,71.381 124.97,33.468 163.829,41.952 185.282,8.463 220.581,26.784 250,0 279.409,26.784 314.718,8.463 336.172,41.962     375.03,33.468 387.044,71.381 426.778,73.232 428.619,112.966 466.532,124.98 458.049,163.839 491.536,185.282 473.216,220.591       " style="fill:#9DD2D8;"/><g id="_x32_6"><g><g id="_x39_"><g><path d="M341.685,259.39c-33.711,51.249-41.025,57.759-41.025,57.759        c-5.452,9.328-17.659,13.825-27.334,17.7c-27.801,11.18-53.329,27.96-63.604,45.359h-59.573        c-10.8-71.441,32.944-71.441,32.944-71.441c5.452-0.62,17.021-1.978,29.77-1.861c55.915-0.621,68.672-15.839,68.672-15.839        c13.356-15.828,16.388-21.434,40.11-53.101c14.638-19.597,18.728-12.456,24.343-9.593        C360.688,235.88,341.685,259.39,341.685,259.39z" style="fill:#484B4D;"/></g></g><g><path d="M288.198,144.959c-20.04,0-36.286,16.235-36.286,36.265s16.246,36.275,36.286,36.275       c20.029,0,36.265-16.246,36.265-36.275S308.227,144.959,288.198,144.959z" style="fill:#484B4D;"/><path d="M275.36,188.858c0.233,5.188,4.74,8.286,10.966,9.039v-15.447       c-10.966-1.983-15.941-4.43-15.941-11.256c0-7.049,6.999-11.836,15.941-12.243v-3.85h4.272v3.911       c8.397,0.758,13.29,4.832,15.31,11.541h-6.612c-1.002-3.789-4.038-6.114-8.697-6.76v14.333l4.659,0.941       c3.962,0.753,12.369,3.672,12.369,10.839c0,7.522-7.161,12.07-17.028,12.649v4.781h-4.272v-4.781       c-10.183-0.753-16.719-5.651-17.578-13.697H275.36z M286.326,163.615c-4.975,0.417-8.941,2.625-8.941,7.05       c0,4.14,3.728,5.427,8.941,6.597V163.615z M290.599,197.897c5.839-0.346,10.024-2.452,10.024-7.462       c0-4.44-4.353-5.946-10.024-7.171V197.897z" style="fill:#F4F8F8;"/></g><g><path d="M219.131,199.336c-24.038,0-43.526,19.49-43.526,43.533c0,24.027,19.488,43.518,43.526,43.518       c24.043,0,43.534-19.49,43.534-43.518C262.665,218.826,243.174,199.336,219.131,199.336z" style="fill:#FC6E51;"/><path d="M233.548,242.116v-0.112c4.992-1.526,8.006-4.761,8.006-9.054c0-3.962-2.793-6.851-6.337-8.433       c-2.345-1.068-6.276-1.363-10.071-1.434v-9.816h-4.059v9.776c-0.04,0-0.089,0-0.132,0h-8.378v-9.776h-4.064v9.776h-7.103v40.41       h7.103v9.003h4.064v-9.003h8.509v9.003h4.059v-9.003h2.294c10.719,0,16.378-5.666,16.378-11.601       C243.817,246.872,240.194,243.139,233.548,242.116z M222.773,228.21c5.569,0,10.325,0.712,10.325,5.758       c0,3.82-2.994,5.808-10.325,5.808h-12.907V228.21H222.773z M226.143,258.229h-16.159v-12.578h14.737       c5.435,0,10.521,1.322,10.521,6.067C235.242,255.676,231.715,258.229,226.143,258.229z" style="fill:#F4F8F8;"/></g></g><g><path d="M213.211,119.792c-17.324,0-31.367,14.038-31.367,31.362c0,17.324,14.043,31.362,31.367,31.362      c17.324,0,31.37-14.038,31.37-31.362C244.581,133.83,230.535,119.792,213.211,119.792z" style="fill:#484B4D;"/><path d="M226.041,139.75c-3.179-2.334-6.368-3.504-9.684-3.504c-3.382,0-6.164,1.073-8.397,3.255      c-1.829,1.775-3.046,4.003-3.79,6.8h19.165l-1.828,3.102h-17.817c-0.063,0.554-0.063,1.109-0.063,1.572      c0,0.407,0,0.763,0.063,1.063h16.866l-1.757,3.103h-14.766c1.488,7.273,5.76,10.925,12.869,10.925      c2.167,0,4.059-0.305,5.752-0.966c1.29-0.503,2.853-1.424,4.674-2.686v5.33c-3.052,1.475-6.569,2.228-10.427,2.228      c-11.04,0-17.548-4.918-19.44-14.832h-5.216l1.829-3.103h3.118c-0.066-0.346-0.066-0.707-0.066-1.012c0-0.61,0-1.17,0.066-1.623      h-4.946l1.757-3.102h3.662c1.081-4.105,3.115-7.416,6.162-9.857c3.385-2.742,7.718-4.11,13.074-4.11      c4.13,0,8.199,1.063,12.255,3.199L226.041,139.75z" style="fill:#F4F8F8;"/></g></g></g></g><g id="Layer_1"/></svg>