<?xml version="1.0" ?><!DOCTYPE svg  PUBLIC '-//W3C//DTD SVG 1.1//EN'  'http://www.w3.org/Graphics/SVG/1.1/DTD/svg11.dtd'><svg style="enable-background:new 0 0 500 500;" version="1.1" viewBox="0 0 500 500" xml:space="preserve" xmlns="http://www.w3.org/2000/svg" xmlns:xlink="http://www.w3.org/1999/xlink"><g id="hand-dollar-sign"><g><polygon points="500,250 473.216,279.409 491.536,314.718 458.049,336.172 466.532,375.03 428.619,387.055     426.778,426.778 387.044,428.619 375.02,466.543 336.161,458.049 314.707,491.547 279.409,473.226 250,500 220.581,473.226     185.282,491.547 163.818,458.049 124.959,466.543 112.945,428.619 73.222,426.778 71.371,387.044 33.458,375.021 41.941,336.172     8.453,314.718 26.774,279.409 0,250 26.774,220.591 8.453,185.282 41.941,163.829 33.458,124.97 71.371,112.956 73.222,73.222     112.956,71.381 124.97,33.468 163.829,41.952 185.282,8.463 220.581,26.784 250,0 279.409,26.784 314.718,8.463 336.172,41.962     375.03,33.468 387.044,71.381 426.778,73.232 428.619,112.966 466.532,124.98 458.049,163.839 491.536,185.282 473.216,220.591       " style="fill:#9DD2D8;"/><g id="_x33_2"><g><g><path d="M318.466,181.864c-15.085-9.303-32.796-14.765-51.823-14.765c-2.518,0-4.984,0.193-7.451,0.376       c2.39,6.327,3.656,12.517,3.656,18.397c0,24.887-20.971,36.494-21.855,36.972c-2.518,1.363-4.73,1.709-6.765,1.154       c-0.208-0.061-0.427-0.076-0.631-0.152c-3.896-1.475-5.58-6.043-7.7-11.831c-0.128-0.341-0.285-0.737-0.417-1.088       c0.097,0.865,0.265,1.704,0.265,2.594c0,8.591-4.629,16.067-11.48,20.248c8.011,3.973,13.55,11.846,13.55,21.007       c0,9.186-5.569,17.079-13.621,21.036c6.892,4.171,11.551,11.668,11.551,20.295c0,8.412-4.415,15.773-11.022,20.004       c6.983,3.581,11.82,10.773,11.82,19.14c0,6.953-3.362,13.082-8.479,17.034c14.358,8.112,30.909,12.797,48.579,12.797       c54.677,0,98.999-44.322,98.999-98.994C365.642,230.443,346.735,199.29,318.466,181.864z" style="fill:#FC6E51;"/><path d="M220.805,199.173l-6.841-16.79c-3.647,2.304-7.182,4.761-10.488,7.502       C210.551,190.343,216.746,193.858,220.805,199.173z" style="fill:#FC6E51;"/></g><g><path d="M244.105,135.05c1.922,1.638,3.504,3.845,4.664,6.699l9.796,23.997       c0.239,0.58,0.407,1.149,0.626,1.729c2.467-0.184,4.934-0.376,7.451-0.376c19.027,0,36.738,5.462,51.823,14.765       C304.748,155.589,276.865,137.08,244.105,135.05z" style="fill:#484B4D;"/><path d="M255.696,166.921l-9.791-24.002c-2.462-6.048-6.622-8.087-11.678-7.991       c-3.794,0.077-8.087,1.317-12.624,3.169c-8.54,3.474-15.233,7.751-15.233,14.836c0,1.699,0.387,3.55,1.216,5.595l7.639,18.743       c4.272-1.719,8.286-2.67,11.683-1.811c2.895,0.727,5.341,2.751,7.045,6.933l0.274,0.676l3.713,9.115       c3.011,7.396,1.271,15.325-3.713,19.852c-1.175,1.068-2.477,2.004-4.003,2.635c1.175,2.925,2.375,5.035,4.003,5.946       c1.353,0.752,2.996,0.752,5.29-0.488c0,0,20.239-10.925,20.239-34.256c0-5.386-1.125-11.455-3.779-18.178       C255.869,167.43,255.804,167.186,255.696,166.921z" style="fill:#484B4D;"/><path d="M210.79,235.56c-2.736,1.099-5.707,1.74-8.83,1.74h-30.019h-20.798       c-3.505,0-6.241-0.789-8.433-2.05c-6.765,2.757-8.352,10.406-8.352,19.526c0,9.144,1.597,16.82,8.423,19.552       c2.182-1.236,4.893-2.01,8.362-2.01h16.83h33.986c3.082,0,6.007,0.636,8.713,1.704c8.204-2.996,14.048-10.457,14.048-19.246       C224.721,246.023,218.938,238.581,210.79,235.56z M203.084,268.677h-8.662c-8.097,0-9.659-6.195-9.659-13.819       c0-7.635,1.561-13.824,9.659-13.824h8.662c8.092,0,14.659,6.189,14.659,13.824       C217.743,262.481,211.177,268.677,203.084,268.677z" style="fill:#484B4D;"/><path d="M159.531,313.665h20.314h25.116c2.111,0,4.115,0.401,6.043,0.966       c6.871-3.361,11.648-10.36,11.648-18.523c0-8.388-5.015-15.574-12.187-18.819c-0.794-0.361-1.638-0.616-2.482-0.875       c-1.775-0.544-3.622-0.91-5.569-0.951c-0.153-0.005-0.295-0.046-0.453-0.046h-33.829h-16.988c-0.158,0-0.27,0.041-0.422,0.046       c-2.141,0.046-3.906,0.478-5.427,1.149c-0.768,0.341-1.459,0.748-2.085,1.221c-4.537,3.453-5.691,10.295-5.691,18.275       c0,11.052,2.146,20.004,12.619,20.584C152.344,314.86,155.35,313.665,159.531,313.665z M216.263,296.189       c0,7.726-6.261,13.992-13.987,13.992h-8.25c-7.731,0-9.221-6.267-9.221-13.992c0-7.727,1.49-13.987,9.221-13.987h8.25       C210.001,282.201,216.263,288.462,216.263,296.189z" style="fill:#484B4D;"/><path d="M143.133,231.725c0.61,0.473,1.276,0.885,2.019,1.226c1.383,0.636,3.011,1.022,4.913,1.134       c0.376,0.02,0.682,0.117,1.079,0.117h21.86h28.956c0.341,0,0.656-0.081,0.992-0.102c1.79-0.087,3.504-0.417,5.152-0.931       c0.834-0.259,1.658-0.524,2.446-0.885c7.126-3.266,12.101-10.412,12.101-18.763c0-11.434-9.268-20.691-20.691-20.691h-1.724       h-49.092c-11.419,0-13.626,9.257-13.626,20.691C137.518,221.451,138.662,228.256,143.133,231.725z M193.395,199.677       c0.224-0.016,0.397-0.071,0.63-0.071h8.25c7.726,0,13.987,6.266,13.987,13.992c0,7.726-6.261,13.992-13.987,13.992h-8.25       c-7.731,0-9.221-6.266-9.221-13.992c0-1.165,0.051-2.279,0.137-3.362C185.395,204.361,187.368,199.981,193.395,199.677z" style="fill:#484B4D;"/><path d="M211.329,317.952c-0.829-0.305-1.668-0.604-2.548-0.788c-1.236-0.26-2.507-0.407-3.82-0.407       h-2.599h-20.64h-22.191c-0.137,0-0.239,0.036-0.376,0.041c-2.462,0.056-4.44,0.59-6.007,1.546       c-0.717,0.438-1.374,0.946-1.933,1.547c-3.093,3.316-3.871,8.951-3.871,15.36c0,10.208,1.974,18.488,12.187,18.488h45.43       c3.82,0,7.37-1.159,10.316-3.149c4.928-3.321,8.173-8.952,8.173-15.34C223.45,327.28,218.384,320.557,211.329,317.952z        M209.503,346.832c-1.343,0.499-2.777,0.809-4.293,0.809h-7.268c-6.806,0-8.118-5.518-8.118-12.323       c0-2.224,0.168-4.283,0.595-6.084c0.88-3.708,2.945-6.24,7.523-6.24h7.268c6.816,0,12.324,5.523,12.324,12.324       C217.534,340.606,214.188,345.083,209.503,346.832z" style="fill:#484B4D;"/></g><g><path d="M237.94,192.185l-3.713-9.115l-0.274-0.676c-1.704-4.181-4.15-6.206-7.045-6.933       c-3.397-0.86-7.411,0.091-11.683,1.811h-0.005l1.419,3.489l10.122,24.826c0.692,1.709,1.287,3.311,1.852,4.842       c0.417,1.149,0.798,2.162,1.185,3.174c0.132,0.341,0.275,0.753,0.407,1.079c0.005-0.005,0.016-0.01,0.02-0.01       c1.526-0.631,2.828-1.566,4.003-2.635C239.212,207.509,240.952,199.58,237.94,192.185z" style="fill:#F4F8F8;"/><path d="M203.084,241.033h-8.662c-8.097,0-9.659,6.189-9.659,13.824c0,7.624,1.561,13.819,9.659,13.819       h8.662c8.092,0,14.659-6.195,14.659-13.819C217.743,247.223,211.177,241.033,203.084,241.033z" style="fill:#F4F8F8;"/><path d="M202.275,310.181c7.726,0,13.987-6.267,13.987-13.992c0-7.727-6.261-13.987-13.987-13.987h-8.25       c-7.731,0-9.221,6.261-9.221,13.987c0,7.726,1.49,13.992,9.221,13.992H202.275z" style="fill:#F4F8F8;"/><path d="M194.025,227.59h8.25c7.726,0,13.987-6.266,13.987-13.992c0-7.726-6.261-13.992-13.987-13.992       h-8.25c-0.233,0-0.407,0.056-0.63,0.071c-6.027,0.305-8.001,4.684-8.454,10.559c-0.086,1.083-0.137,2.197-0.137,3.362       C184.804,221.324,186.294,227.59,194.025,227.59z" style="fill:#F4F8F8;"/><path d="M205.21,322.993h-7.268c-4.578,0-6.643,2.532-7.523,6.24c-0.427,1.801-0.595,3.86-0.595,6.084       c0,6.805,1.312,12.323,8.118,12.323h7.268c1.516,0,2.95-0.309,4.293-0.809c4.685-1.749,8.031-6.226,8.031-11.515       C217.534,328.517,212.026,322.993,205.21,322.993z" style="fill:#F4F8F8;"/></g></g><path d="M247.523,285.909c0.458,10.238,9.359,16.347,21.642,17.843v-30.508     c-21.642-3.911-31.459-8.743-31.459-22.207c0-13.921,13.809-23.361,31.459-24.175v-7.583h8.443v7.701     c16.571,1.5,26.234,9.552,30.228,22.787H294.79c-1.999-7.472-7.98-12.08-17.182-13.341v28.305l9.201,1.852     c7.822,1.49,24.403,7.248,24.403,21.403c0,14.842-14.124,23.824-33.604,24.974v9.439h-8.443v-9.439     c-20.106-1.495-32.995-11.165-34.683-27.049H247.523z M269.165,236.079c-9.816,0.804-17.649,5.172-17.649,13.921     c0,8.174,7.359,10.701,17.649,13.011V236.079z M277.608,303.752c11.51-0.692,19.79-4.843,19.79-14.74     c0-8.738-8.59-11.729-19.79-14.15V303.752z" style="fill:#F4F8F8;"/></g></g></g><g id="Layer_1"/></svg>