<?xml version="1.0" ?><!DOCTYPE svg  PUBLIC '-//W3C//DTD SVG 1.1//EN'  'http://www.w3.org/Graphics/SVG/1.1/DTD/svg11.dtd'><svg style="enable-background:new 0 0 500 500;" version="1.1" viewBox="0 0 500 500" xml:space="preserve" xmlns="http://www.w3.org/2000/svg" xmlns:xlink="http://www.w3.org/1999/xlink"><g id="calculator"><g><polygon points="500,250 473.216,279.409 491.536,314.718 458.049,336.172 466.532,375.03 428.619,387.055     426.778,426.778 387.044,428.619 375.02,466.543 336.161,458.049 314.707,491.547 279.409,473.226 250,500 220.581,473.226     185.282,491.547 163.818,458.049 124.959,466.543 112.945,428.619 73.222,426.778 71.371,387.044 33.458,375.021 41.941,336.172     8.453,314.718 26.774,279.409 0,250 26.774,220.591 8.453,185.282 41.941,163.829 33.458,124.97 71.371,112.956 73.222,73.222     112.956,71.381 124.97,33.468 163.829,41.952 185.282,8.463 220.581,26.784 250,0 279.409,26.784 314.718,8.463 336.172,41.962     375.03,33.468 387.044,71.381 426.778,73.232 428.619,112.966 466.532,124.98 458.049,163.839 491.536,185.282 473.216,220.591       " style="fill:#9DD2D8;"/><g id="_x32_2_1_"><path d="M338.038,153.646h-71.711c-4.934,0-8.968,4.028-8.968,8.962v71.716     c0,4.923,4.034,8.962,8.968,8.962h71.711c4.929,0,8.967-4.038,8.967-8.962v-71.716     C347.005,157.674,342.967,153.646,338.038,153.646z" style="fill:#484B4D;"/><path d="M320.236,204.478h-36.117c-3.805,0-6.923-2.706-6.923-6.012c0-3.316,3.118-6.012,6.923-6.012     h36.117c3.819,0,6.922,2.696,6.922,6.012C327.158,201.772,324.056,204.478,320.236,204.478z" style="fill:#F1F6F6;"/><path d="M233.676,153.646h-71.719c-4.932,0-8.965,4.028-8.965,8.962v71.716     c0,4.923,4.033,8.962,8.965,8.962h71.719c4.926,0,8.964-4.038,8.964-8.962v-71.716     C242.64,157.674,238.602,153.646,233.676,153.646z" style="fill:#484B4D;"/><path d="M215.876,204.468h-12.049v12.055c0,3.814-2.701,6.938-6.012,6.938     c-3.301,0-6.012-3.123-6.012-6.938v-12.055h-12.052c-3.812,0-6.92-2.696-6.92-6.002c0-3.316,3.108-6.012,6.92-6.012h12.052     v-12.055c0-3.814,2.711-6.927,6.012-6.927c3.311,0,6.012,3.113,6.012,6.927v12.055h12.049c3.815,0,6.92,2.696,6.92,6.012     C222.796,201.772,219.691,204.468,215.876,204.468z" style="fill:#F1F6F6;"/><path d="M233.676,256.704h-71.719c-4.932,0-8.965,4.038-8.965,8.962v71.716     c0,4.934,4.033,8.973,8.965,8.973h71.719c4.926,0,8.964-4.039,8.964-8.973v-71.716     C242.64,260.742,238.602,256.704,233.676,256.704z" style="fill:#484B4D;"/><g><path d="M197.82,276.316c3.835,0,6.938,3.103,6.938,6.917c0,3.846-3.103,6.948-6.938,6.948      c-3.84,0-6.943-3.103-6.943-6.948C190.877,279.419,193.98,276.316,197.82,276.316z" style="fill:#F1F6F6;"/><path d="M197.82,326.741c-3.84,0-6.943-3.112-6.943-6.947c0-3.835,3.103-6.938,6.943-6.938      c3.835,0,6.938,3.103,6.938,6.938C204.758,323.629,201.655,326.741,197.82,326.741z" style="fill:#F1F6F6;"/><path d="M215.876,307.536h-36.125c-3.812,0-6.92-2.706-6.92-6.013c0-3.315,3.108-6.012,6.92-6.012h36.125      c3.815,0,6.92,2.696,6.92,6.012C222.796,304.83,219.691,307.536,215.876,307.536z" style="fill:#F1F6F6;"/></g><path d="M338.038,256.704h-71.711c-4.934,0-8.968,4.038-8.968,8.962v71.716     c0,4.934,4.034,8.973,8.968,8.973h71.711c4.929,0,8.967-4.039,8.967-8.973v-71.716     C347.005,260.742,342.967,256.704,338.038,256.704z" style="fill:#FC6E51;"/><g><path d="M320.236,319.112h-36.112c-3.81,0-6.928-2.706-6.928-6.012c0-3.316,3.118-6.023,6.928-6.023      h36.112c3.819,0,6.928,2.706,6.928,6.023C327.164,316.406,324.056,319.112,320.236,319.112z" style="fill:#F1F6F6;"/><path d="M320.236,295.979h-36.112c-3.81,0-6.928-2.706-6.928-6.012c0-3.326,3.118-6.032,6.928-6.032      h36.112c3.819,0,6.928,2.706,6.928,6.032C327.164,293.273,324.056,295.979,320.236,295.979z" style="fill:#F1F6F6;"/></g></g></g></g><g id="Layer_1"/></svg>