<?xml version="1.0" ?><svg style="enable-background:new 0 0 512 512;" version="1.1" viewBox="0 0 512 512" xml:space="preserve" xmlns="http://www.w3.org/2000/svg" xmlns:xlink="http://www.w3.org/1999/xlink"><style type="text/css">
	.st0{fill:#685049;}
	.st1{fill:#7A5E59;}
	.st2{fill:#614530;}
	.st3{fill:#030505;}
</style><g id="Слой_1"/><g id="neck"/><g id="face"/><g id="jacket"/><g id="hair"><g><polyline class="st0" points="201,181.4 292.5,171.7 243.6,277 217.6,312.3 192.5,255.1 201,181.4   "/><path class="st1" d="M248.7,28.7l-35,9.5L192.5,84L182,120.3l1.6,55.3l26.5,8.8c0,0,7.5,10.1,20,9.8c12.4-0.3,42.5-9.8,48.4-16.4    s21.6-18,21.6-18l5.2-56.9L302,69l-24.9-25.2L248.7,28.7z"/><path class="st2" d="M315.3,228.2c0,0,57.9,8.3,64.8,19.1c6.9,10.8,30.9,34.8,28,91.7c-2.9,56.9-7.4,146.9-7.4,146.9l-299.2-1.4    c0,0,5.9-35.1,7.8-68.9s3.4-81,2-90.8s40.2-85.4,40.2-85.4l23.1-20.6l21.9,2.7l0.2,36.1c0,0,14.9,40.9,20.6,44.2    c0,0,43.7-38.8,50-55.4C273.6,229.7,315.3,228.2,315.3,228.2z"/><path class="st3" d="M103.8,331.6c13,9.5,53.6,23.9,64.1,3.9s4.6-31.1,9.5-50.7c4.9-19.6,24.2-26.5,33.7-46.8s1.2-51.2,1.2-51.2    s-14.6-11.6-15-26.6c-0.3-15-5.7-44.5-1.2-53c4.5-8.5,4-10.1,3.5-13.7c-0.5-3.6-1.8-4.9,1.1-9c2.9-4.1,9.8-44.5,27.1-44.3    c17.3,0.2,15.2,3.3,17.5,3.1c2.3-0.2,3.1-6.2,11.9-3.1s21.4,11.9,24.2,24.2s0,12.9,5.6,19.1c5.6,6.2,9,29.6,6.2,36.5    c-2.8,6.9-3.1,8.3-3.1,20.8s-10.2,35.5-10.2,35.5s3,8.2-4.5,18s-20,16.7-20.9,22.2c-1,5.6-3.9,2.3-9.2,21.9s-18.3,15.4-9.5,35.3    c8.8,20,2.6,35.3,19,40.2s25.8,15.7,50.4,9.2c24.5-6.5,57.9-29.4,53.3-48.1c-4.6-18.6-11.8-31.1-11.8-48.7s7.9-82.8,0-96.2    s-14.1-41.2-18.6-55.6s-23.6-52-38.3-52c-14.7,0-16.7,3.6-19.6,0s-11.1-12.1-31.4-8.2s-54,24.2-58.2,34.7s-4.9,23.9-7.5,34.7    s-21.6,56.3-20.6,64.1c1,7.9,6.5,35-3.6,54c-10.1,19-37.6,38.3-37.6,55s3.6,19.6,1,34.3c-2.6,14.7-2.3,21.9-8.5,22.2    c-6.2,0.3-18.6-2.6-18.6-2.6S98.2,327.5,103.8,331.6z"/></g></g></svg>