<?xml version="1.0" ?><svg style="enable-background:new 0 0 512 512;" version="1.1" viewBox="0 0 512 512" xml:space="preserve" xmlns="http://www.w3.org/2000/svg" xmlns:xlink="http://www.w3.org/1999/xlink"><style type="text/css">
	.st0{fill:#CEA494;}
	.st1{fill:#D4E1E8;}
	.st2{fill:#D8AD98;}
	.st3{fill:#121212;}
</style><g id="Слой_1"/><g id="neck"/><g id="shirt"/><g id="face"/><g id="hair"><g><path class="st0" d="M217.8,199.8c0,0,1.9,24.6-2.5,34s-7.6,14.5-7.6,14.5l7.4,50.4l48.5,99.9l23,12l25-56L327,292v-25.9    l-4.9-26.5l-7.3-12.5L217.8,199.8z"/><path class="st1" d="M215.3,248.8c0.1,10.3,4.7,33.9,11,38.4S266,339,271.5,358s8.5,26.7,8.5,26.7s11-63.7,27-88.7    s14-23.4,15-37.5c1-14.1-5.4-23.4-5.4-23.4s4-6.1,4.7-7.1c0.8-1,14.3,19.3,15.8,24.7s88.5,39.8,93.9,49.3s12.3,2.8,22,43.5    s25.3,90,29.7,108.7c4.3,18.7,4.3,38.6,4.3,38.6H22.7c0,0,9.3-19.6,11-30.9c1.7-11.3,3-11,5-30S58,344.7,67.3,327    s-2-12.8,16.3-21.9s81.4-41,95-49.1c26.3-15.8,39.1-38.3,39.3-37.4C219.5,226.4,215.1,240.1,215.3,248.8z"/><path class="st2" d="M213.3,152L203,132.3h-6.3c0,0-3.7-0.4-6.2,1.8s-3.7,2.2-5.7,6.6s-2.7,11.2-0.7,16.2s6.3,14.8,10,20.9    c3.5,5.8,7.2,8.5,12.4,8.5s6.6-1.8,6.6-1.8s1.3,18,3.5,21.8s39.8,46,62.3,45s24.5,0.8,30.8-6s6.3-10.8,10.8-16.3s8-12,10.8-24    s4.5-41.5,3-54.5s-2.5-38-2.5-38l-5.3-32l-10-16l-9.5-4.8l-17.5,6l-41-3l-25-0.3l-13,17.5l3,28.3l-3,27L213.3,152z"/><path class="st3" d="M214.7,157.8c3.7-7.2,3.7-18.4,2-23.5s-1.4-8.3,1-11.3s4.2-6.3,4.1-8.9s-7.4-24.1-5.1-29.6s1.5-13.5,12-14.1    s22.2,8,30.2,8.1s16.6,1.6,21.5-1.8s18.8-12.8,27-9.3s14.6,10.8,16,17c1.3,6.2,5.5,31.5,6.2,35.5s3.1,10.1,3.1,10.1    s1.3-23.3,2.2-29.8s2-2.2,0-11.7c-2-9.5-9.5-26-12.6-31c-3.2-5-12.5-12-11.8-15.7c0.7-3.7-4.2-5.5-7.2-7.3c-3-1.8-3.8-4.5-10.5-7    c-6.7-2.5-17.7-4-26-3.7c-8.3,0.3-12.2,1.1-19.5,0c-7.3-1.1-6.7-3.7-12.7,0s-14,6.4-15.5,10.2s-1.2,5-3.7,4.7    c-2.5-0.3-7.8,0.7-8.8,3.8c-1,3.2-6.2,2.7-10,10.7S184.7,74.5,185.2,78s3.7,5.2,1.5,8.2c-2.2,3-3.7,6.8-1.5,12.2    c2.2,5.3,8,37.3,8,37.3s6.3-0.5,9.3,1.9S213.2,160.7,214.7,157.8z"/></g></g></svg>