<?xml version="1.0" ?><svg style="enable-background:new 0 0 512 512;" version="1.1" viewBox="0 0 512 512" xml:space="preserve" xmlns="http://www.w3.org/2000/svg" xmlns:xlink="http://www.w3.org/1999/xlink"><style type="text/css">
	.st0{fill:#A29689;}
	.st1{fill:#262424;}
	.st2{fill:#8C6854;}
	.st3{fill:#D2CFD3;}
	.st4{fill:#97715C;}
	.st5{fill:#19120D;}
	.st6{fill:#352D2D;}
</style><g id="Слой_1"/><g id="Chiar"/><g id="neck"/><g id="shirt"/><g id="face"/><g id="hair"/><g id="table"><g><path class="st0" d="M39.8,452c0,0-8-305.2-4-322.5c10-43,317.5-61,343,4.5c8.5,21.8,3.5,333.5,3.5,333.5l-342.5,6V452"/><polygon class="st1" points="410.8,417.5 426.8,425.5 429.8,463.2 388.5,461.2   "/><polygon class="st2" points="192.3,124.3 182.6,205 187.5,272.7 239.2,346.7 293.3,305.4 293.3,234 280.3,188 280,148     269.3,135.3   "/><path class="st2" d="M375.3,415.7c0,0-32.7,37.7-33.7,40.3h57c0,0,0.6-6,6.3-12s11-14.3,11-14.3l-25.3-21.3L375.3,415.7z"/><path class="st3" d="M177,190.3c0,0,50,123,69.3,129.7c0,0,31-2.4,30-84.3l0-42c0,0,57.3,10.3,63.3,16.7    c6,6.3,92.7,139.3,107,153.3c14.3,14,11.7,39.7,16.7,44c5,4.3,5.3,18-11.3,24.7c-16.7,6.7-29.3,4-29.3,4l-12.3,4.7    c0,0,3-13.7-7-18.3c-10-4.7-22-8.3-31.7,0.3c-9.7,8.7-9.7,8.7-9.7,8.7s11.7-41.7,32.7-51c0,0-48.7-59.3-68.7-65    c0,0-13,24.3-15.3,33.3c-2.3,9-4,14-6,20s-3.7,30-9,48.3c-5.3,18.3-5.7,38.3-5.7,38.3L104,458c0,0,1.3-4.7,1.7-8.7    c0.3-4-3.7,3.3-4.3-6c-0.7-9.3,2.7-6.7,0-12.7c-2.7-6-7-7-5-14.3c2-7.3-34.3-183.7-7.3-201S177,190.3,177,190.3z"/><path class="st4" d="M264.1,168c-6.6,0.4-22.5-0.5-26.3-1.3s-13.8-7.5-16.8-8.8s-10-5-13.5-7s-12.5-21.8-12.5-32s-0.8-27.5,0-34    s9.8-27.5,15.3-31.8s12.8-7.3,13.3-12s19.8-10.3,25-9s28,12.3,30.8,35s0.1,22.7,2.4,26.3s2.6,18.3,1.1,27.3s-6.8,27.5-7.5,33    s-1.9,9.5-4.9,11.6S265.8,167.9,264.1,168z"/><path class="st5" d="M228.3,39.7c-2.9,3.4-2.3,12.7-10.3,14.7s-8,8.3-12,15.7s-10.8,38.3-10.1,48.7c0.7,10.3,2,35.4,7.3,41.4    S207,171,213.6,176c6.7,5,6.7,13,4.7,18c0,0-2.2-2.6-7.3-7.8c-4.7-4.7-8.8-3.1-7.8,9.1c1,12.3,3.5,30.7,3.5,30.7    c-5.6-11.3-12.3-11.4-12.3-11.4c-2.8,6.5,7.5,22.5,15.7,23.3c0,0-5.3,1.5-15.4,0.1c0,0,4.5,12.1,15.4,11.9c0.5,0-13.5,6-13.5,6    s14,17,20.3,5.7c0,0,5.6,26.8-22.3,32c-31.4,5.8-44.6-29-50.3-84.3l-1.8,28c0,0-18.7-95.7-6.3-120.3c12.3-24.7,13-23.7,13.7-41    s25-64,63-62.3s83,18.3,86.3,63.7c3.3,45.3,3.3,97.3,0,105c-3.3,7.7,15,8.3,15,8.3S307,204,299,197.3c-8-6.7,3.4,12.7,5.3,16.7    c30.5,63.5,5.9,93.5-7.8,91.3c0,0,6.8-12.4,5.3-26.8c-1.4-13.6-11.2-22.5-11.2-22.5s-38.3,32.3-45-2.3c0,0,33,7.5,29.3-7.5    c-3.7-15-6.3-16.8-6.3-16.8c-4.9,2.4-3.3,15-3.3,15s-10.3-8.3-10-22c0.3-13.7,8.7-35.1,6.7-44.7c-2-9.6-1.7-9.6-1.7-9.6    s10.8-1.8,12.2-7.8s14.5-52.1,11-59.4s-4-4.4-4-8.8c0-4.3-0.3-29-3.3-32.8S262,36.2,251,35.8C240,35.5,232,35.3,228.3,39.7z"/><rect class="st6" height="53.1" width="436.2" x="39.8" y="452"/></g></g></svg>