<?xml version="1.0" ?><svg style="enable-background:new 0 0 512 512;" version="1.1" viewBox="0 0 512 512" xml:space="preserve" xmlns="http://www.w3.org/2000/svg" xmlns:xlink="http://www.w3.org/1999/xlink"><style type="text/css">
	.st0{fill:#C1A18A;}
	.st1{fill:#CFE3F7;}
	.st2{fill:#555961;}
	.st3{fill:#4D535A;}
	.st4{fill:#A7AFB9;}
	.st5{fill:#43454E;}
	.st6{fill:#33363D;}
	.st7{fill:#D1B8A3;}
	.st8{fill:#534C4B;}
</style><g id="Слой_1"/><g id="neck"/><g id="shirt"/><g id="jacket"/><g id="face"/><g id="hair"><g><path class="st0" d="M192.3,208.5L194,243l34.5,22l63-40.3c0,0-4.5-20.5-5-30.3s0.3-37.3,0.3-37.3L192.3,208.5z"/><path class="st1" d="M221.4,255.8c0,0,3.4,2.6,6.6,2.6s6.9-2.6,6.9-2.6h13.3l29.8,33.5l-75.8,212.8h-12.3c0,0-31-147.8-25-165.1    s24.5-89.3,24.5-89.3l17,6.5L221.4,255.8z"/><path class="st2" d="M214.3,284c0,0-18,63.8-18.8,85.2c-0.8,21.3-5.6,132.9-5.6,132.9l31.1,0.3c0,0,12.4-128.7,12.2-138.9    c-0.3-10.2,1.5-77.7,1.5-77.7L214.3,284z"/><path class="st3" d="M221.3,256h13.5l14.6,8c0,0-4.8,19.4-9.9,24.4c-3,3-7.5,7.5-15.7,6.9c-6.7-0.5-10.7-7.2-12.7-10.3    c-3.3-5.1-8.6-17.1-8.6-17.1L221.3,256z"/><path class="st4" d="M193.2,228c0,0,9,19,17.8,23s10.3,5,10.3,5s-9.7,7.9-15.8,13.3c-5.2,4.6-24,24.5-24,24.5s5.8-52.5,7.3-57.8    S193.2,228,193.2,228z"/><path class="st4" d="M271.8,289.5c0,0-30.3-31.5-37-33.5c0,0,56.5-30.5,54.5-42.3c0,0,12.8,9.3,9.6,19.1S271.8,289.5,271.8,289.5z    "/><path class="st5" d="M298.3,224.5c0,0,21.4,22.5,25.7,23.8c4.3,1.3,94.3,31,101,37.7s17,40.3,16.3,60c-0.7,19.7,14,15.3,13,41.7    c-1,26.3,6.7,26.3,5.3,32.3c-1.3,6-6,5.7-5.7,10s5.7,37.7,3,50s5.7,22.3,5.7,22.3h-266c0,0,48-142,53.9-166.3    c9.1-38.3,47.9-97,47.8-105C298.3,224,298.3,224.5,298.3,224.5z"/><path class="st5" d="M188.8,236c0,0-6.6,20-9.9,21.3c-3.3,1.3-54.2,24.7-68.2,27.3c-14,2.7-17,0.3-22.7,5    c-5.7,4.7-15.3,29.3-17,38.3s-6.3,13-6.3,16.7c0,3.7,0,12.7-2.7,15.3c-2.7,2.7-1.3,10.3-4,17.3s-11.7,29.7-9.3,34    c2.3,4.3-2,13.3-4.7,20.7s-2.7,28.3-4,35.3s-8.1,35-8.1,35h164.8c0,0-18.3-121.3-16.3-145C188.7,258,188.8,236,188.8,236z"/><path class="st6" d="M298.3,224.5l25.7,23.8l-12.9,51L289,314.7l11.7,23.7l-104,164c0,0,54.3-185,63.7-204    C271.3,276,298.3,224.5,298.3,224.5z"/><path class="st6" d="M196.7,502.3c0,0-15.7-134.7-13.7-152.3s5.8-114,5.8-114s-6.9,16-11.4,20s-27.4,14-27.4,14v49.7l14.4,13.7    l-12,20L196.7,502.3z"/><path class="st7" d="M222.3,229.3c-11.5,0.7-33.9-9.3-40.3-21.3s-16-32.7-17.3-39c-1.3-6.3-2.4-11.9-2.8-14.4s-8.1-19.6-4.6-21.5    s5.3,1.5,5.3,1.5L154.8,96l2.3-35.8l15.3-13.8l26-3.3l50.5,1.5L273.5,69l6.3,30l2.3,25.8c0,0,8.8-18.3,15.5-13.5s9.8,14.5,9,21.3    s-2.1,13.4-2.8,16.8c-0.5,2.6-9.8,13.8-12.8,13.8s-3,0-3,0s-1,8.1-1.8,11.8c-0.6,3-5.9,22.8-12.9,28.9    C266.6,209.6,236.1,228.4,222.3,229.3z"/><path class="st8" d="M162.5,134.6c0,0-25-55-12-81s41-48.9,70.8-42.7S268,31.8,274,34.5s20.5,15.3,21.5,30.8l3.4,47.1    c0,0-1.4-3.4-5.9,1c-4.5,4.4-10.8,14.7-10.8,14.7s-15.6-24-16.3-36.3s4-13.8-2.3-20.9c-18.3-20.4-11.9-15.9-58-17.8    c-5.8-0.2-12.3-4.3-23.3-1.7c-11,2.7-19,8.8-22.3,17.7C157.3,76.2,162.5,134.6,162.5,134.6z"/></g></g></svg>