<?xml version="1.0" ?><svg style="enable-background:new 0 0 512 512;" version="1.1" viewBox="0 0 512 512" xml:space="preserve" xmlns="http://www.w3.org/2000/svg" xmlns:xlink="http://www.w3.org/1999/xlink"><style type="text/css">
	.st0{fill:#C9B291;}
	.st1{fill:#4E4F51;}
	.st2{fill:#B8D2DD;}
	.st3{fill:#7C4543;}
	.st4{fill:#101311;}
	.st5{fill:#2D302E;}
	.st6{fill:#B79F80;}
	.st7{fill:#683A3A;}
</style><g id="Слой_1"/><g id="face"/><g id="hair"/><g id="shirt"/><g id="jacket"/><g id="tf"><g><path class="st0" d="M262.7,264.3c-5,0-11.2,5.6-23.9-4.4c-9.5-7.5-30.5-31-32.9-42.7c-2.4-11.7-6-45.5-5.7-54.6    c0.3-9.1,0-73.2,0-73.2L211,66.2l14.5-16.5l17.6,9.3l37.6-11h33.1L344,92.7l-4.5,41.4l-0.3,64.1c0,0-50.9,64.5-59.5,66.2    C271.1,266.1,268.3,264.3,262.7,264.3z"/><path class="st1" d="M201.5,156.9c1.2-3.1-1.2-93.6,18.4-94.4c19.6-0.8,19,7.8,29.1,5.3c10.1-2.6,33.3-16.3,46.5-14.2    c13.2,2.1,33.6,18.4,30,27.7s-8.8,20.2-4.7,26.9s6,12.4,5.1,22c-0.9,9.6-5,20.4,0.2,23.8c5.3,3.4,13.2,6.2,13.2,6.2l13.6-25.6    c0,0,5.9-30.2,2.8-39.8c-3.1-9.6-18.9-55.8-60-60S237.2,37,237.2,37s-36.4,12.4-39.5,66.9S200.7,158.9,201.5,156.9z"/><path class="st2" d="M200.3,252.8c0,0,5.1,0.8,8.9-3.9c3.4-4.2,5.6-13.9,5.9-15c0,0,23.3,29.6,34.3,29.3c6-0.1,7.3-1.7,13.7-1    s14.1,1.5,17.2-0.6c3.1-2.1,25.6-23,25.6-23s11.7,6.9,14.3,7.6c2.6,0.7,9.2,2.5,9.2,2.5l-72,128.1l-46.7-18.1l-5.9-67.4    L200.3,252.8"/><path class="st3" d="M246.1,345.3c-27.9-4.1-42.8-92.8-42.8-92.8c-21.7,1.8-42.6,8.5-62.8,12.7s-51.2,9-54.8,8.8    c-3.6-0.3-8.5-2.6-12.1,3.6c-3.6,6.2-24.3,38.5-24.3,47.8s7.8,16.8,1.8,24.8c-5.9,8-17.6,7.5-17.9,14.4c-0.3,6.9-5.9,6.5-7.2,25.2    c-1.4,18.6-4.8,8.3-6.2,26.2s-4.1,10-4.5,20c-0.3,10,0,22,0,22h476.9c0,0,10.7-109.8,0-124.7c-10.7-14.8-16.5-24.1-23.1-34.1    c-6.5-10-2.4-7.6-18.6-12.8c-16.2-5.2-54.4-22.7-62.7-24.1c-8.3-1.4-38.3-7.9-38.3-7.9l-29.4-8.1    C320.1,246.2,277.5,350,246.1,345.3z"/><path class="st4" d="M296.9,237.8c0,0,9,15.2,19.6,18s26.6,2.5,28.7-7.1c2.1-9.6,8.3-45.7,8.3-45.7l16.3-34.9l7.2-27.1l-3.9-12.9    c0,0-27.1,0.5-30,7.2s-5.2,7.8-6.2,15.2c-1,7.5,0.3,20.6,0,25.6S325,197.5,325,197.5L296.9,237.8z"/><path class="st5" d="M361.7,178.8c0,0,9.7-25.3,10.6-35.4s-1.2-15.3,0.8-15.4s20.5,20.3,16,33.9c-4.5,13.6-15.2,41.9-15.2,41.9    l-19.6,31.8v-47.3L361.7,178.8z"/><path class="st6" d="M289.9,234.2c0,0-4.2,3.9-2.3,5.7c7.4,7.2,19.6-10,19.6-10s2.9,0.8,6.8-3.2c3.9-4,4.4-4.7,4.4-4.7    s-1.1,0.7,5.3,1.1c6.5,0.4,7.2,0.1,7.2,0.1s1.5,6.3,3.7,6.4s1.3,1.4,1.3,1.4s-2.3,3-3.9,9.7c-1.6,6.6-3.6,13.3-7.5,13.8    c-3.9,0.5-8,1.4-8,1.4s-4.6,6.6-1.5,18.5c3.1,11.9,3.1,9.6,6.5,12.9c3.4,3.4,10.1,15.8,11.9,24c1.8,8.3,1.6,19.1,1.6,19.1    l43.7-16.5c0,0-9.3-35.7-5.9-46.5c3.4-10.9,11-29.9,11.4-38.3c0.3-7.3,2.8-7.2,0-12.9s2.2-24.5-4.3-31.6    c-2.4-2.5-16.5-9.8-25.4-9.8c-10.3,0-33.6,20-36.4,21.8c-2.8,1.8-18.6,9.3-22,12.7c-3.4,3.4-4.4,9-6.7,12.1s-5.8,3.4-6.5,9.5    c-0.3,3,1.2,5.6,2.9,5C287.3,235.1,289.9,234.2,289.9,234.2z"/><path class="st7" d="M461.5,457.9c0,0-3.1-6.6-7.2-13.9c-4.1-7.2-14.2-11.9-14.5-17.8s5.4-2.6,0-10.1c-5.4-7.5-7.2-4.1-7.2-10.9    s-2.1-7-7.8-9.8c-5.7-2.8-3.4-4.7-4.7-13.4c-1.3-8.8-20.9-44.5-20.9-51.2c0-6.7-10.1-28.4-10.1-28.4s-34.7,18.5-49.5,22.8    c-3.3,1-5.6,1.2-6.3,0.4c0,0-3.6,10.1,0,25.1c3.6,15-3.1,35.7,5.4,49.4c8.5,13.7,17.6,19.1,20.2,32.3s5.7,25.5,5.7,25.5H461.5z"/></g></g></svg>