<?xml version="1.0" ?><svg style="enable-background:new 0 0 512 512;" version="1.1" viewBox="0 0 512 512" xml:space="preserve" xmlns="http://www.w3.org/2000/svg" xmlns:xlink="http://www.w3.org/1999/xlink"><style type="text/css">
	.st0{fill:#BE978A;}
	.st1{fill:#1D2E3E;}
	.st2{fill:#CCA393;}
	.st3{fill:#352114;}
</style><g id="Слой_1"/><g id="neck_and_hands"/><g id="dress"/><g id="face"/><g id="hair"><g><polygon class="st0" points="233.7,168.7 210.3,274 311.7,395.7 341.3,369.7 348.3,286.7 316,250.7 317.3,197 300.3,176.7   "/><path class="st0" d="M101,330c0,0-7.3,22.7-6,42s1.3,30.3-4.7,43.3S77,440.7,76.3,454c-0.7,13.3-5.7,35.7-5.7,35.7h60    c0,0,11-25.3,12.3-38.3s7.7-41.7,11.3-54C158,385,167,360,167,360l-35.7-49L101,330z"/><path class="st0" d="M423.3,317.3c0,0,13.7,27.7,14.3,43c0.7,15.3,8.3,42,12,56.3c3.7,14.3,7.5,73,7.5,73h-47.5    c0,0-11.7-52.5-12.3-67.8c-0.7-15.3-11.5-46-11.5-46l10.5-43.8L423.3,317.3z"/><path class="st1" d="M314.3,384.7c0,0,16.8-83.5,11.7-106c-5.1-22.5-7-24.7-7-24.7s66-0.4,77.3,13.7    c11.4,14.2,33.6,43.8,30.1,56.3c0,0-1.3-0.4-1.7,0.1c-2.7,3.4-11.1,15.2-17.7,29.6c-7.7,16.5-10,31.3-10,31.3l9.6,70.3l3,34.4    h-279c0,0,10.2-29.4,10.7-38.4s13-64.5,15.9-69.4c0,0-1.5-32.9-24.8-39.1s-36,5.1-36.6,10.1c-0.4,3.9-0.5,4.2-0.5,4.2    s-10.7-6.4-1.7-23.2c9-16.8,16.8-47.8,23.3-52.3s52.3-25.5,52.3-25.5l45.5,10L314.3,384.7z"/><path class="st2" d="M289.5,204.5c-14.2,1.1-41.3-0.8-54.3-17.8S208.5,144,208.5,144l6.5-88l39.8-18l36.3,4l32.8,19.3l17.5,67.8    l-14.8,62l-14.3,0.8C312.3,191.8,307.5,203.1,289.5,204.5z"/><path class="st3" d="M197.3,274.7c10,3.9,34.7,2.3,38.7-18.7s-0.3-47,0-53.7c0.3-6.7-0.3-14.3-3.3-26.7c-3-12.3-9.7-26.7-7-42    c2.7-15.3,6.7-47.3,5.7-55.3s0.4-13.1,3.8-16.3s11.6-9.4,20.3-8.8s7.3,3.4,12.5,1.1s10.9-9.1,17.1-7.5s21.3,7.5,23.1,16.3    s4.1,21.8,6.6,24.1s3.5,4.5,4.3,13.3c0.8,8.8-1.1,11.9,2.1,15.1c3.2,3.2,1.7,16.2-0.2,32.7c-2.1,18.3-16.2,35.1-14.3,48.8    c0.7,4.8-6.7,4.5-1.5,22c4.6,15.7-9.3,21.5-2.9,31c6.3,9.5,3,15.8,21.5,15.2c18.5-0.7,33,5.5,33.7-7.5c0.7-13,6.8-18.5,2.5-25.3    s-10.3-2.8-11.5-14.3s9.3-28.2,8.7-41c-0.7-12.8,1.8-5.8,2.5-18.5c0.7-12.7-5.2-59.7-13.5-79.2c-8.3-19.5-17.2-75-60.7-63.8    c0,0-6.3,2-10.6,1s-4.1-5.8-14.7-5.8s-38.4-4.3-58.4,14.3s-40.3,44.3-40.5,59.3s5.3,16.8,0,24.8S140.5,181,147.8,195    s11.3,12.8,9.8,30s-8,24.8,2.3,31s13,8.5,20,9.3S192.7,272.8,197.3,274.7z"/></g></g></svg>