<?xml version="1.0" ?><svg style="enable-background:new 0 0 512 512;" version="1.1" viewBox="0 0 512 512" xml:space="preserve" xmlns="http://www.w3.org/2000/svg" xmlns:xlink="http://www.w3.org/1999/xlink"><style type="text/css">
	.st0{fill:#C39F94;}
	.st1{fill:#87AEB1;}
	.st2{fill:#668687;}
	.st3{fill:#CCB3A6;}
	.st4{fill:#897D6D;}
</style><g id="Слой_1"/><g id="neck"/><g id="shirt"/><g id="face"><g><path class="st0" d="M199,231c0,0,16.7,16.6,14.7,29.5c-2,12.9-10.3,70.9-10.3,70.9l50,73.7l81-87v-7.1c0,0-9.7-4.3-10.7-12.3    s-5-52.3-5-52.3L199,231z"/><path class="st1" d="M205.6,315.4c0,0,40.8,73.1,47.7,77.6c0,0,79.1-79.2,79.4-83.1c0,0,26.3,17.5,32.9,17.5    c6.7,0,98.7,32.7,104.7,42.7s21.7,27.3,24,60.7c2.3,33.3,2.3,56.8,2.3,56.8h-486c0,0,28.3-91.1,46-101.1s26.3-18.7,36-23.3    s72.4-29.6,78.8-31.7C180.7,328.3,205.6,315.4,205.6,315.4z"/><path class="st2" d="M205.6,315.4c0,0,31.1,53,33.6,56.1s14.4,19.9,14.4,19.9s31.9-30.3,42.1-40.9c9.5-9.8,36.6-40.6,36.6-40.6    l12.5,7.6c0,0-21.2,28.4-41.1,48c-13.2,13-54.1,50.4-54.1,50.4s-23.5-36.2-30.8-48.5c-6.7-11.3-24.3-46.4-24.3-46.4L205.6,315.4z"/><path class="st3" d="M268.5,91h-53l-24,28.5L188,156l12.5,46.5c0,0-5.5-14-12.5-13.5s-10.3-0.1-12.3,3s-4.6,9.1-4.3,13.9    s4.9,16.6,10.4,22s4.1,8.4,10.3,9.6s7.9,2.5,9.9,1.6s3.8-2.4,3.8-2.4S221,268,251.5,273s38,8,46.5,4.5s23.5-11.5,27-21.5    s5.2-26.6,4.7-30.3c0,0,12.4-19.5,9.6-42c-1.8-14.6-8.8-8.4-8.8-8.4l-6-48.8l-11-35.5H268.5z"/><path class="st4" d="M200.5,202.5c0,0-3.4-8.3-9.5-10.8c-5.8-2.4-13.1-1.9-13.6-1.4s-22.6-45.1-12.6-77.4s48-45.5,52-53    s27-15.8,41.3-16s27,0.7,30.8-0.2c9.2-2,20.2,6.8,21.5,14.3c1.1,6.4,5.3,5.2,9,10.8c3.8,5.9,10,23.6,11,31.8s1.9,73.4,1.9,73.4    l-4,2c0,0-7-22.5-7-35.3s2.3-19.3-3.5-24.5s-12.3-19-25.8-17.8s-15.4,5.1-20.8,5.3c-7.9,0.2-19.2-9.3-30.9-6.5s-17,1-22.7,10    s-10.9,10.6-14.4,14.7c-3.5,4.1-10,11.6-5.5,19.4s4.5,17.3,3.5,24.5S200.5,202.5,200.5,202.5z"/></g></g><g id="hair"/></svg>