<?xml version="1.0" ?><svg style="enable-background:new 0 0 512 512;" version="1.1" viewBox="0 0 512 512" xml:space="preserve" xmlns="http://www.w3.org/2000/svg" xmlns:xlink="http://www.w3.org/1999/xlink"><style type="text/css">
	.st0{fill:#C3A090;}
	.st1{fill:#E9EFF4;}
	.st2{fill:#C5CBD2;}
	.st3{fill:#4F677C;}
	.st4{fill:#DDB9A6;}
	.st5{fill:#303433;}
</style><g id="Слой_1"/><g id="neck"/><g id="shirt"/><g id="jacket"/><g id="face"/><g id="hair"><g><path class="st0" d="M158.1,205.3l7.8,51.9c0,0,2.4,10.1,1.9,20.9c-0.5,10.8-1,12.5-1,12.5l-0.9,12.3l67.5,36.8l54-24.8l5-14.3    l5.8-28.2L158.1,205.3z"/><polygon class="st1" points="165.9,325.5 162.5,445.1 314.4,445.1 306.6,320.8 294.6,303.5 239.4,329.5 168.4,310.5   "/><path class="st2" d="M239.4,329.5c0,0-33.5-20.5-47.5-23.5s-22.9-9.7-24-12.5s-1.1-2.8-1.1-2.8s-5.2,27.1-4.2,34.3s1,21.3,3.3,28    c1.9,5.6,4.7,11.2,7.3,21c1.8,7,2.5,14,2.5,14s34.3-55.8,48-56.8S239.4,329.5,239.4,329.5z"/><path class="st2" d="M239.4,329.5l55.1-38.8c0,0,6.9,17.8,5.4,27.3s4,58.5,4,58.5s-22.5-20-26.3-26s-17-16.6-23.5-16.9    C247.6,333.2,239.4,329.5,239.4,329.5z"/><path class="st3" d="M165.6,333.4c-0.3-5-2.5-19.7-2.5-19.7s-2.9,3-5,6.7c-2.2,3.7-0.8,7.2-17.2,7.8c-16.3,0.7-69,11.2-87.7,18.5    c-18.7,7.3-29,9.7-37.3,22.3s-6.7,76.1-6.7,76.1h166C175.3,445.1,167.4,361.2,165.6,333.4z"/><path class="st3" d="M299.5,308.9c0,0,8.3,12.6,14.8,14.4s21-2.3,32,1s70.8,21.8,87.3,23.8s35,0.3,42.8,10.3s15.5,24,15,36    s3.8,14.3,7.3,27c3.5,12.9,4.3,23.8,4.3,23.8H288.6c0,0,10.9-116.1,11.1-125.1S299.5,308.9,299.5,308.9z"/><path class="st4" d="M253.6,306.6c-12.6,4-38-11.1-47-14.6s-29-23.5-32.5-43.5s-4.5-34-4.5-34s-25-8.5-27.5-19s-9.5-24-8.5-35    s1.5-15.5,9-15s20.5,3.5,20.5,3.5l15-46l17-33h52.5l50.5,6.5l18,18l12.5,49.5l-8,52c0,0-3.5,7.5-5.5,17.5s-12,60.5-15.5,69    s-12.3,17.9-18.5,20.1s-16.8,4.4-19.5,3.9S254.9,306.2,253.6,306.6z"/><path class="st5" d="M174.4,183.5c-6-7.5-14.3-32.8-20.6-35.6c-5-2.3-16-1.6-16-1.6s2.8-92.7,61.8-100.6s39.8-8.5,51.5-6.8    c11.7,1.8,24.2,7,29.2,8.5s13.8,12,24.8,17s14.8,15,18.3,24.5s10.8,14,9.5,24s-4,19.8-1.3,25.5s1.8,23-1,29s-7.8,24.3-8,29    s-2.5,8.5-4,8.8c-1.5,0.3-5.3,0.5-2.8-6.3s6-35.5,6-47s0.8-44-9.5-51.5s-9.5-16.3-31-13.8s-26.7,0.3-33.5-3s-15.8-6.8-28.5-4.3    s-17-0.3-20,8.8s-5.5,8.8-3.5,20s4,13.8-2.3,21.3s-10.5,1.5-11.5,12.8s2.8,18.8-0.5,27S176.9,186.6,174.4,183.5z"/><path class="st5" d="M141.3,192.4c0,0,0.1,1.2,0.5,3.2c1.8,12,9.2,54,24.1,61.7l-7.6-47.6c0,0-10.4-6.2-12.4-10.7    s-5.8-10.4-5.8-10.4"/></g></g></svg>