<?xml version="1.0" ?><svg style="enable-background:new 0 0 512 512;" version="1.1" viewBox="0 0 512 512" xml:space="preserve" xmlns="http://www.w3.org/2000/svg" xmlns:xlink="http://www.w3.org/1999/xlink"><style type="text/css">
	.st0{fill:#3A373C;}
	.st1{fill:#CEB49F;}
	.st2{fill:#DDE4ED;}
	.st3{fill:#BAC1CF;}
	.st4{fill:#5E616F;}
	.st5{fill:#3B3B40;}
</style><g id="Слой_1"/><g id="hair"/><g id="face"/><g id="shirt"/><g id="jacket"><g><path class="st0" d="M225.9,177.8v-18.2l8-21.8l9-36.1l4.8-14.1l1.5-16.2l10.7-3.4l29.6,1.5l42.9,3.9l7.5,16l3.9,24l-2.9,25.5    l-2.7,12.9l-0.7,5.3c0,0,8.7-7.8,8.5-14.3c-0.2-6.5-0.2-6.5,1.7-9.7c1.9-3.2,2.4-7.8,2.4-10.1c0-2.3-1.9-1.6,0-4.7    c1.9-3.2,4.1-3.2,4.1-9.9s1.5-12.4,0-17.5c0,0-2.4-4.1-2.4-8.2c0-4.1,2.7-3.6-0.2-8.7c-2.9-5.1-6.5-6.1-7-11.9    c-0.5-5.8-30.1-44.9-64.3-40.2s-53.3,24-57.2,32.5c-3.9,8.5-11.4,24.7-9.7,27.4c1.7,2.7,3.2,6.5,1.2,8c-1.9,1.5-4.4,5.1-3.6,8    s-0.1,8.2-0.1,8.2s2.1,36.6,3.8,43.9c0.7,3,1.2,10.9,3.4,16C221,173.2,225.9,177.8,225.9,177.8z"/><path class="st1" d="M223.9,217.1c0,0,3.4-33.9,2.4-38.1s-2.9-17.9-2.4-19.9c0.5-1.9,0.5-1.9,0.5-1.9s-15.2,3.3-14.4-37.3    c0-2,2.2-11,7.6-12.1c9.2-1.9,15.5,15.6,15.5,15.6s0.4-10.5,3.4-17.3c1.6-3.7,7.8-9.9,9-13.8c4.8-14.5-2-18.6,4.5-24.9    c12-11.5,64.8-5.3,72.3-1.6c5.6,2.8,13.6,5.5,16.5,11.2c4.2,8.4,5.1,24.8,4.8,34.2c-0.3,9.9,2.4,28.9-3.2,38.6    c-2.4,4.3-5.1,12.6-6.8,24.7c-1.5,11-2.9,18.9-7.5,25.5c-4.6,6.5-11.6,14.5-11.6,14.5v3.9l-7,29.8l-35,15.5l-36.8-18.9    L223.9,217.1z"/><polygon class="st2" points="224.7,208.7 212,243 210,408.6 210,481.6 331.9,481.6 328.7,267.9 326.7,233.4 314.6,214.4     316.4,241.1 274.3,270.9 232.6,251.8   "/><path class="st3" d="M224.7,208.7c0,0,10.5,42.7,35.9,45.4L226.8,289c0,0-12-49.1-8.4-60.1C222,217.8,224.7,208.7,224.7,208.7z"/><path class="st3" d="M286.3,254.9c0,0,23.3,14,26.2,20.8c0,0,12.9-26.9,9.4-47.8c-2.1-12.3-7.3-13.4-7.3-13.4s-1.1,15.7-8.6,25.4    C297.5,251,286.3,254.9,286.3,254.9z"/><path class="st4" d="M286.3,254.9c-0.9,0.3-26.4-0.8-26.4-0.8l-9.8,10.9l12.6,15.2c0,0-9.4,42-15.8,72.1s-14.2,129.3-14.2,129.3    h46.2c0,0-4.5-98.9,1.3-130.3c5.8-31.4,4.8-69.5,3.6-71.1l14.2-17.8c0,0-4.8-3.1-6.6-4.4C288.9,256.5,286.3,254.9,286.3,254.9z"/><path class="st5" d="M224.7,208.7c0,0-12.1,149.1-10.8,171.1s-0.1,101.8-0.1,101.8h-197c0,0,5.2-34.4,14.3-37.6    s10.9-28.6,10.3-37.7c-0.6-9.1-4.4-40,10.7-45.3c11.9-4.1,11.8-6.1,9.1-6.5c-2.5-0.3-7.1-4.2-3.6-9.4c3.6-5.1,7.4-3.9,7.1-11.9    c-0.3-8.1-2.3-13.9,2.9-18.1c5.2-4.2,7-3,7.4-5.2c1.2-5.8-10.3-11-2.9-23.6c0,0,3.1-11.1,9.9-13.3s107.2-32.7,117.1-39.8    C208.9,226.3,224.7,208.7,224.7,208.7z"/><path class="st5" d="M326.7,233.4l-4.2,139.2v109.1h174.9c0,0,5.8-58.2-5.3-70.8c-11.2-12.6-11.6-10.2-9.7-17.5s1.9-12.1-1.5-17    s-2.4-1.9-4.4-14.1s-3.9-13-7.3-17.2s-3.4,0.7-3.4-10c0-10.7,2.4-12.6-0.5-16c-2.9-3.4-3.9,2.9-3.9-10.7s2.4-13.9-1-19.6    s-3.9,0.6-3.4-8.1s2.9-11.2-1.9-13.1s-8.7-3.4-8.7-3.4s-43.2-10.3-69.8-15.5C363.9,246.3,326.7,233.4,326.7,233.4z"/></g></g></svg>