<?xml version="1.0" ?><svg style="enable-background:new 0 0 512 512;" version="1.1" viewBox="0 0 512 512" xml:space="preserve" xmlns="http://www.w3.org/2000/svg" xmlns:xlink="http://www.w3.org/1999/xlink"><style type="text/css">
	.st0{fill:#F5F6F7;}
	.st1{fill:#444149;}
	.st2{fill:#3D3A44;}
	.st3{fill:#CED3DF;}
	.st4{fill:#424346;}
	.st5{fill:#E5CECA;}
	.st6{fill:#998886;}
</style><g id="Слой_1"/><g id="shirt"/><g id="face"/><g id="hair"><g><polygon class="st0" points="209,270.6 325,274.3 310.7,460.4 237.7,460.4   "/><polygon class="st1" points="256,298.3 246.7,415.6 258.1,460.4 295.7,460.4 300.5,412.7 281.7,292.3   "/><path class="st2" d="M230,279l22.7-17h33l13.7,15.3l-15.3,30c0,0-2.7-7-13.7-5.3s-14.3,5.3-14.3,5.3L230,279z"/><path class="st3" d="M219,235.5c0,0-16.2,2.5-13.3,13s13.3,52,13.3,52s20.4-34.2,39.5-33.5S219,235.5,219,235.5z"/><path class="st3" d="M275.1,263.6c0,0,37.9,27.8,41.4,38.3c0.1,0.3,0.2,0.6,0.2,0.8c1.6,9.8,6.6-52.3-4.9-63.3    S275.1,263.6,275.1,263.6z"/><path class="st4" d="M215,237.4c0,0-11.7,8.4-13,13.3c-1.3,5-17,22.3-32.7,26.6c-15.7,4.3-63,19.7-76,23.2s-8.7,3.1-17,3.3    c-8.3,0.2-10,1.2-11.3,8.5c-1.3,7.3-3.3,27.3-10.3,36.7s-10,18.7-12.3,27.7c-2.3,9-1.3,12-5.7,14.7c-4.3,2.7-7,6.3-5,13.7    s5,9-0.7,14.7c-5.7,5.7-11.7,1.7-10.7,11.7s1.7,13.3-3.7,20c-5.3,6.7-3.3,9.1-3.3,9.1H259c0,0-49.5-188.7-48.7-204.4    C211.2,240.3,215,237.4,215,237.4z"/><path class="st4" d="M315.1,244.9c0,0,18.2,32.4,37.5,37.8c19.3,5.3,99.7,33.7,103,35.7c3.3,2,16.7,33.3,16.3,44.3    s4.3,11,7.3,20.3s3.7,15,6.7,19.7c3,4.7,8.3,13.3,7.7,18c-0.7,4.7-10,5-7.3,11c2.7,6,10.7,18,10.7,22.7c0,4.7,0,6.1,0,6.1H295.7    c0,0,9.3-103.7,17.3-133.1C321,298,315.1,244.9,315.1,244.9z"/><path class="st5" d="M258.5,267c-17.7-3.5-39.8-15.3-48-43.5c-9.3-31.9-5.5-32.5-5.5-32.5c-2.4,1.4-9.5-1-9.5-9.5    c0-13.5,0-16,0-24s0.5-10.5,3-14s2-8,5.5-6.5s5,10,5,10l4.5-42.5l5-23.5L233,70h20.5c0,0,51,9,53,8.5s27,3,27,3l6.5,30l-7,30.5    l1,16c0,0,0-3.5,6-3.5s11.5,9.3,8.8,21s-4,18.3-7.3,22.8s-6,9.5-9.3,9s-4.5-0.8-4.5-0.8s-3.3,20.3-10,28.5s-22.5,30.8-32.8,32    S265,268.3,258.5,267z"/><path class="st6" d="M208.3,153.3c0,0-8-64,3.7-78.7s31-42.7,63.3-39c32.3,3.7,37.3,2,43.7,11.3s17.7,14.7,22.3,23    c4.7,8.3,9,17.3,8.1,32s1.2,34.2-4.1,43.3c-5.3,9.2-14.7,29-14.7,29s-9-28-6.3-42.7c2.7-14.7,7.7-16.3,4.7-26.8    s-0.3-16.5-7.3-18.2c-7-1.7-20.3,5.3-39.3,1.3S250,74.3,241,75.3s-20.3,4.3-21.7,15.3C218,101.7,208.3,153.3,208.3,153.3z"/></g></g></svg>