<?xml version="1.0" ?><!DOCTYPE svg  PUBLIC '-//W3C//DTD SVG 1.1//EN'  'http://www.w3.org/Graphics/SVG/1.1/DTD/svg11.dtd'><svg style="enable-background:new 0 0 499.968 387.038;" version="1.1" viewBox="0 0 499.968 387.038" xml:space="preserve" xmlns="http://www.w3.org/2000/svg" xmlns:xlink="http://www.w3.org/1999/xlink"><g id="cloud-suitecase"><g id="cloud-suitecase_1_"><path d="M404.148,119.452c-4.312,0-8.528,0.365-12.669,0.923C387.811,53.289,332.257,0,264.261,0    c-55.531,0-97.795,40.418-115.279,89.932c-9.311-2.446-24.017-8.667-34.089-8.667C51.434,81.264,0,132.709,0,196.19    c0,61.506,48.345,111.557,109.09,114.603v24.435c0,15.897,8.709,30.4,22.086,38.102c4.355,8.195,12.604,13.708,22.033,13.708    h18.632c6.971,0,13.258-2.96,17.849-7.788h120.598c4.58,4.827,10.898,7.788,17.849,7.788h18.632c9.429,0,17.7-5.513,22.033-13.708    c13.376-7.724,22.086-22.204,22.086-38.102v-24.156c5.374,0,9.901,0,13.259,0c52.935,0,95.821-42.885,95.821-95.811    C499.968,162.337,457.083,119.452,404.148,119.452z M372.708,335.228c0,11.778-8.013,21.775-18.848,24.843    c0,0.043,0,0.065,0,0.108c0,4.784-3.163,8.668-7.09,8.668h-18.632c-3.668,0-6.661-3.412-7.025-7.788H178.867    c-0.376,4.376-3.358,7.788-7.025,7.788h-18.632c-3.905,0-7.09-3.884-7.09-8.668c0-0.043,0-0.065,0-0.108    c-10.845-3.068-18.848-13.044-18.848-24.843v-24.156V199.579c0-14.202,11.618-25.83,25.841-25.83h2.618    c-0.119-0.365-0.204-0.75-0.204-1.158c0-2.081,1.684-3.776,3.776-3.776h27.105c1.717-13.193,12.969-23.405,26.645-23.405h72.673    c13.666,0,24.939,10.212,26.645,23.405h28.329c2.059,0,3.743,1.695,3.743,3.776c0,0.408-0.075,0.793-0.193,1.158h2.617    c14.202,0,25.841,11.628,25.841,25.83v111.493V335.228z" style="fill:#484C4D;"/><path d="M335.968,313.926H164c-3.25,0-5.91,2.659-5.91,5.942c0,3.282,2.66,5.92,5.91,5.92h171.969    c3.261,0,5.943-2.638,5.943-5.92C341.912,316.585,339.23,313.926,335.968,313.926z" style="fill:#484C4D;"/><path d="M335.968,244.094H164c-3.25,0-5.91,2.66-5.91,5.943c0,3.26,2.66,5.92,5.91,5.92h171.969    c3.261,0,5.943-2.66,5.943-5.92C341.912,246.755,339.23,244.094,335.968,244.094z" style="fill:#484C4D;"/><path d="M335.968,279.02H164c-3.25,0-5.91,2.66-5.91,5.942c0,3.261,2.66,5.922,5.91,5.922h171.969    c3.261,0,5.943-2.66,5.943-5.922C341.912,281.681,339.23,279.02,335.968,279.02z" style="fill:#484C4D;"/><path d="M335.968,209.17H164c-3.25,0-5.91,2.659-5.91,5.942c0,3.282,2.66,5.942,5.91,5.942h171.969    c3.261,0,5.943-2.66,5.943-5.942C341.912,211.829,339.23,209.17,335.968,209.17z" style="fill:#484C4D;"/><path d="M206.66,172.591c0,0.408-0.097,0.793-0.193,1.158h87.046c-0.118-0.365-0.193-0.75-0.193-1.158    c0-2.081,1.695-3.776,3.765-3.776h2.167c-1.555-6.028-7.005-10.469-13.527-10.491h-72.673c-6.511,0.022-11.96,4.463-13.516,10.491    h3.358C204.986,168.815,206.66,170.51,206.66,172.591z" style="fill:#484C4D;"/></g></g><g id="Layer_1"/></svg>