<?xml version="1.0" ?><!DOCTYPE svg  PUBLIC '-//W3C//DTD SVG 1.1//EN'  'http://www.w3.org/Graphics/SVG/1.1/DTD/svg11.dtd'><svg style="enable-background:new 0 0 499.974 390.267;" version="1.1" viewBox="0 0 499.974 390.267" xml:space="preserve" xmlns="http://www.w3.org/2000/svg" xmlns:xlink="http://www.w3.org/1999/xlink"><g id="cloud-laptop"><g id="cloud-laptop_1_"><path d="M499.974,215.267c0-52.919-42.902-95.815-95.827-95.815c-4.311,0-8.521,0.38-12.673,0.938    C387.81,53.289,332.257,0,264.261,0c-55.521,0-97.8,40.418-115.268,89.938c-9.322-2.435-24.023-8.657-34.106-8.657    C51.428,81.281,0,132.72,0,196.184c0,55.886,39.892,102.391,92.747,112.721v37.393H72.243c-8.789,0-15.933,7.118-15.933,15.914    c0,13.6,9.842,28.055,28.076,28.055h333.877c18.236,0,28.066-14.455,28.066-28.055c0-8.796-7.118-15.914-15.908-15.914h-20.514    v-35.505C460.151,307.805,499.974,266.25,499.974,215.267z M108.65,174.983c0-5.347,4.376-9.707,9.719-9.707h265.908    c5.347,0,9.712,4.36,9.712,9.707v136.1v32.673c0,1.293-0.263,2.515-0.729,3.641H109.401c-0.478-1.126-0.751-2.348-0.751-3.641    v-32.985V174.983z M430.421,362.212c0,0,0,12.136-12.158,12.136c-12.121,0-321.734,0-333.877,0s-12.143-12.136-12.143-12.136    h37.158h283.858H430.421z" style="fill:#484C4D;"/><polygon points="378.634,311.083 378.634,180.631 124.016,180.631 124.016,311.083 124.016,333.254     378.634,333.254   " style="fill:#484C4D;"/></g></g><g id="Layer_1"/></svg>