<?xml version="1.0" ?><!DOCTYPE svg  PUBLIC '-//W3C//DTD SVG 1.1//EN'  'http://www.w3.org/Graphics/SVG/1.1/DTD/svg11.dtd'><svg style="enable-background:new 0 0 499.967 387.06;" version="1.1" viewBox="0 0 499.967 387.06" xml:space="preserve" xmlns="http://www.w3.org/2000/svg" xmlns:xlink="http://www.w3.org/1999/xlink"><g id="cloud-basket"><g id="cloud-basket_1_"><path d="M404.135,119.452c-4.301,0-8.517,0.387-12.668,0.945C387.81,53.29,332.246,0,264.261,0    c-55.532,0-97.816,40.418-115.28,89.954c-9.321-2.446-24.006-8.667-34.1-8.667C51.412,81.286,0,132.731,0,196.191    c0,63.458,51.412,114.881,114.881,114.881c2.007,0,4.162,0,6.448,0l7.647,38.595c1.555,8.26,4.677,15.447,9.397,21.432    c3.025,3.797,6.565,6.973,10.556,9.418c3.163,1.931,6.586,3.433,10.179,4.463c0,0,1.213,0.386,1.481,0.471    c1.234,0.322,2.07,0.472,2.531,0.558c0.515,0.108,1.267,0.214,1.782,0.279c1.083,0.15,1.92,0.236,2.274,0.236    c1.362,0.107,2.864,0.193,4.569,0.257c4.355,0.193,10.329,0.279,15.79,0.279c3.518,0,6.8-0.043,10.158-0.15l3.046-0.171    c0.226-0.021,0.869-0.086,1.159-0.129h92.496c0.869,0.065,1.738,0.086,3.068,0.108c3.133,0.064,8.378,0.086,13.752,0.086    c4.216,0,8.495-0.022,11.831-0.065l6.253-0.129c0.236-0.022,0.74-0.065,1.17-0.108c4.634-0.3,8.989-1.244,13.012-2.853    c3.883-1.545,7.498-3.733,10.791-6.5c4.322-3.626,7.842-8.174,10.555-13.581c1.963-3.989,3.432-8.345,4.569-13.622l7.724-38.874    c11.756,0,21.12,0,27.02,0c52.926,0,95.832-42.885,95.832-95.81C499.967,162.359,457.061,119.452,404.135,119.452z     M371.183,247.657l-12.593,63.415l-7.014,35.334l-0.011,0.087c-0.709,3.154-1.641,6.157-3.047,9.01    c-1.416,2.832-3.368,5.556-5.963,7.766c-1.738,1.438-3.733,2.66-5.857,3.497c-2.467,0.986-5.053,1.459-7.584,1.608    c-0.053,0-0.075,0-0.096,0c-0.461,0.065-0.677,0.065-0.891,0.087c-0.493,0.021-0.912,0.021-1.405,0.043    c-1.019,0.021-2.37,0.043-3.99,0.064c-3.176,0.043-7.391,0.065-11.52,0.065c-5.203,0-10.298-0.022-13.334-0.086    c-1.019-0.022-1.781-0.043-2.51-0.086c-0.108,0-0.225,0-0.376-0.022h-94.233c-0.558,0.086-0.923,0.108-1.33,0.171    c-0.976,0.065-1.963,0.108-3.175,0.15c-2.381,0.086-5.438,0.108-8.72,0.108c-5.213,0-10.909-0.087-15.038-0.236    c-1.395-0.065-2.606-0.129-3.702-0.215c-0.622-0.043-1.18-0.107-1.92-0.214c-0.365-0.064-0.793-0.108-1.555-0.322    c-0.246-0.086-0.547-0.171-0.932-0.3c-2.071-0.558-4.108-1.438-5.933-2.553c-2.274-1.395-4.248-3.218-5.857-5.235    c-3.143-4.011-4.815-8.646-5.706-13.494l-7.025-35.227l-12.647-63.63c-3.497-0.58-6.801-1.781-9.708-3.561    c-4.194-2.532-7.702-6.179-9.858-10.77c-1.437-3.047-2.252-6.479-2.252-10.041s0.815-7.014,2.252-10.061    c1.449-3.046,3.497-5.685,5.933-7.851c4.848-4.334,11.306-6.865,18.257-6.865h45.449l44.483-74.358v0.022    c0.997-1.695,2.231-3.154,3.583-4.355c1.383-1.244,2.864-2.21,4.387-2.96c3.068-1.524,6.296-2.232,9.611-2.253    c3.282,0.021,6.737,0.729,10.039,2.596c0.13,0.086,0.247,0.171,0.398,0.258c0.075-0.087,0.192-0.172,0.3-0.236h-0.011l0.033-0.022    c-0.022,0.022-0.022,0.022-0.022,0.022l0.043-0.022c3.272-1.866,6.747-2.618,10.115-2.638c3.218,0.021,6.393,0.729,9.44,2.21    c2.928,1.502,5.76,3.904,7.723,7.208l0,0l44.602,74.529h46.102c5.203,0,10.137,1.437,14.331,3.969    c4.162,2.532,7.659,6.199,9.815,10.748c1.459,3.047,2.285,6.5,2.285,10.061s-0.826,6.994-2.285,10.041    c-1.416,3.046-3.475,5.685-5.899,7.894C382.232,244.674,376.933,247.013,371.183,247.657z" style="fill:#484C4D;"/><path d="M333.49,366.829c0-0.021,0.043-0.043,0.064-0.043c-0.021,0-0.064,0.022-0.064,0.022V366.829z" style="fill:#484C4D;"/><path d="M336.247,364.384v-0.022c-0.043,0.043-0.065,0.065-0.076,0.086    C336.183,364.427,336.225,364.405,336.247,364.384z" style="fill:#484C4D;"/><polygon points="256.87,196.254 250.777,182.096 244.256,196.254   " style="fill:#484C4D;"/><path d="M359.792,211.079h-48.474l-44.322-74.035c-2.253-3.883-8.045-4.999-11.961-2.768    c-3.926,2.253-7.219,8.11-4.988,12.014l38.798,64.788h-79.077l38.316-63.973c2.274-3.926,0.333-10.577-3.572-12.829    c-3.915-2.252-10.019-0.965-12.282,2.961l-44.215,73.841h-47.851c-8.099,0-14.685,5.857-14.685,13.129    c0,7.23,6.586,13.086,14.685,13.086h3.926l14.642,73.778l5.106,25.616c1.244,6.843,4.547,11.241,9.9,12.335    c-0.268,0.729,29.499,0.902,29.316,0.236h89.353c-0.022,0.236,30.013,0.236,29.97,0c6.779-0.108,10.534-4.227,12.335-12.571    l5.107-25.616l14.674-73.778h5.299c8.098,0,14.664-5.857,14.664-13.086C374.456,216.935,367.89,211.079,359.792,211.079z     M185.206,339.562c-6.104,0-9.815-4.119-11.081-11.07l-1.405-6.93l23.63,0.043l2.8,17.957H185.206z M210.724,339.562    l-2.789-17.914l20.059,0.043l1.148,17.871H210.724z M260.485,339.562h-19.866l-1.148-17.828l21.614,0.065L260.485,339.562z     M290.745,339.562h-20.896l0.934-17.741l22.247,0.043L290.745,339.562z M324.404,328.493c-1.576,7.444-4.934,11.07-11.07,11.07    h-11.07l2.285-17.678l21.196,0.086L324.404,328.493z M311.522,268.08l25.154,0.064l-3.078,15.125l-24.028-0.065L311.522,268.08z     M308.09,294.639l23.18,0.065l-3.207,15.832l-22.032-0.064L308.09,294.639z M275.255,237.294h28.727l-2.521,19.33l-27.214-0.064    L275.255,237.294z M273.636,267.995l26.366,0.064l-1.953,15.103l-25.196-0.064L273.636,267.995z M272.241,294.532l24.318,0.064    l-2.049,15.832l-23.106-0.043L272.241,294.532z M263.949,237.294l-0.654,19.222l-28.115-0.064l-1.233-19.158H263.949z     M236.93,283.012l-0.976-15.125l26.967,0.086l-0.536,15.103L236.93,283.012z M262.008,294.532l-0.526,15.832l-22.783-0.065    l-1.029-15.853L262.008,294.532z M227.222,310.257l-21.067-0.043l-2.456-15.853l22.504,0.043L227.222,310.257z M225.43,282.968    l-23.534-0.043l-2.359-15.124l24.917,0.064L225.43,282.968z M222.47,237.294l1.243,19.116l-25.958-0.043l-2.971-19.073H222.47z     M194.581,310.171l-24.188-0.064l-3.197-15.854l24.918,0.065L194.581,310.171z M190.311,282.862l-25.443-0.043l-3.079-15.125    l26.184,0.065L190.311,282.862z M155.654,237.402c0-0.021,0.01-0.043,0.01-0.108l27.224-0.064    c1.33,7.251,3.315,19.094,3.315,19.094l-26.731-0.086L155.654,237.402z M342.908,237.402l-3.905,19.308l-26-0.064    c0,0,2.091-10.835,3.433-19.716l26.473,0.365C342.908,237.359,342.908,237.381,342.908,237.402z" style="fill:#484C4D;"/></g></g><g id="Layer_1"/></svg>