<?xml version="1.0" ?><!DOCTYPE svg  PUBLIC '-//W3C//DTD SVG 1.1//EN'  'http://www.w3.org/Graphics/SVG/1.1/DTD/svg11.dtd'><svg style="enable-background:new 0 0 499.973 391.393;" version="1.1" viewBox="0 0 499.973 391.393" xml:space="preserve" xmlns="http://www.w3.org/2000/svg" xmlns:xlink="http://www.w3.org/1999/xlink"><g id="cloud-telephone-speech-bubble"><g id="cloud-telephone-speech-bubble_1_"><path d="M404.152,119.452c-4.318,0-8.528,0.387-12.679,0.945C387.815,53.29,332.262,0,264.267,0    c-55.521,0-97.801,40.418-115.269,89.932c-9.327-2.424-24.028-8.646-34.106-8.646C51.434,81.286,0,132.731,0,196.191    c0,63.458,51.434,114.903,114.892,114.903c4.216,0,9.112,0,14.47,0c-4.72,5.085-9.101,11.263-11.445,18.729    c-1.561,4.462-2.354,9.117-2.354,13.859c0,0.365,0,23.534,0,23.534c0,13.323,10.85,24.177,24.183,24.177h204.235    c13.332,0,24.177-10.854,24.177-24.177c0,0,0-23.149,0-23.534c0-4.677-0.772-9.289-2.311-13.773    c-2.328-7.445-6.645-13.73-11.354-18.815c22.483,0,40.305,0,49.659,0c52.926,0,95.821-42.907,95.821-95.832    C499.973,162.359,457.078,119.452,404.152,119.452z M351.404,281.595c-27.767,0-50.265-15.574-50.265-34.796    c0-5.922,2.129-11.477,5.873-16.37l-5.54-17.098l17.639,6.779c8.737-5.064,19.994-8.13,32.293-8.13    c27.766,0,50.281,15.596,50.281,34.818S379.17,281.595,351.404,281.595z M206.804,196.833l0.011,0.022    c0,0-0.113,0.043-0.279,0.129c-0.177,0.086-0.279,0.15-0.279,0.15l-0.016-0.043c-5.492,2.424-48.666,21.989-40.519,40.246    c2.676,1.245,5.068,3.198,6.854,5.814c5.336,7.81,3.341,18.472-4.473,23.813l-23.132,15.79    c-7.798,5.342-18.471,3.325-23.797-4.484c-0.209-0.322-0.391-0.644-0.595-0.966c-0.338-0.515-17.034-25.293,2.526-56.25    c18-28.489,65.867-50.437,69.776-52.174c3.797-1.974,50.635-26.065,84.146-22.59c36.422,3.754,45.594,32.201,45.776,32.781    c0.138,0.365,0.278,0.707,0.397,1.072c2.837,9.01-2.178,18.643-11.194,21.475l-26.725,8.409    c-9.016,2.854-18.642-2.166-21.469-11.177c-0.955-3.046-1.007-6.114-0.337-9.01C254.172,172.163,212.087,194.002,206.804,196.833z     M326.631,312.145c0,0,17.774,9.503,21.931,23.427c0.906,2.532,1.416,5.256,1.416,8.11c0,0.665-0.027,1.308-0.086,1.952h0.086    v21.583c0,3.303-2.698,5.985-5.996,5.985H139.746c-3.304,0-6.002-2.682-6.002-5.985v-21.583h0.091    c-0.032-0.644-0.091-1.287-0.091-1.952c0-2.854,0.515-5.6,1.438-8.152c4.162-13.901,21.92-23.384,21.92-23.384    c0.515-0.365,0.96-0.708,1.459-1.051c34.755-24.865,38.879-43.572,39.163-53.268c0-0.043-0.004-0.065-0.004-0.108v-2.317    c-0.033-0.751-0.076-1.137-0.076-1.137h0.076v-9.547c0-6.929,5.599-12.528,12.512-12.528c6.908,0,12.519,5.6,12.519,12.528v1.76    c4.811,2.017,18.138,5.963,38.331-0.236v-1.523c0-6.929,5.605-12.528,12.519-12.528c6.908,0,12.497,5.6,12.497,12.528v13.001    c0,0.387-0.005,0.772-0.043,1.159c0.551,10.534,5.524,28.21,39.125,52.217C325.686,311.437,326.127,311.78,326.631,312.145z" style="fill:#484C4D;"/><path d="M219.005,334.8h-11.107c-1.625,0-2.955,1.33-2.955,2.96v11.092c0,1.63,1.33,2.982,2.955,2.982    h11.107c1.631,0,2.967-1.352,2.967-2.982V337.76C221.971,336.13,220.636,334.8,219.005,334.8z" style="fill:#484C4D;"/><path d="M247.521,334.8h-11.118c-1.63,0-2.96,1.33-2.96,2.96v11.092c0,1.63,1.33,2.982,2.96,2.982h11.118    c1.626,0,2.961-1.352,2.961-2.982V337.76C250.483,336.13,249.147,334.8,247.521,334.8z" style="fill:#484C4D;"/><path d="M275.819,334.8h-11.096c-1.637,0-2.956,1.33-2.956,2.96v11.092c0,1.63,1.319,2.982,2.956,2.982    h11.096c1.63,0,2.96-1.352,2.96-2.982V337.76C278.779,336.13,277.449,334.8,275.819,334.8z" style="fill:#484C4D;"/><path d="M275.819,282.968h-11.096c-1.637,0-2.956,1.33-2.956,2.961v11.113c0,1.609,1.319,2.96,2.956,2.96    h11.096c1.63,0,2.96-1.351,2.96-2.96v-11.113C278.779,284.298,277.449,282.968,275.819,282.968z" style="fill:#484C4D;"/><path d="M275.819,308.884h-11.096c-1.341,0-2.28,0.987-2.645,2.21c-0.08,0.257-0.311,0.45-0.311,0.729    v11.134c0,1.609,1.319,2.96,2.956,2.96h11.096c1.63,0,2.96-1.351,2.96-2.96v-11.134c0-0.279-0.225-0.472-0.3-0.729    C278.109,309.871,277.16,308.884,275.819,308.884z" style="fill:#484C4D;"/><path d="M219.005,308.884h-11.107c-1.336,0-2.279,0.987-2.644,2.21c-0.08,0.257-0.311,0.45-0.311,0.729    v11.134c0,1.609,1.33,2.96,2.955,2.96h11.107c1.631,0,2.967-1.351,2.967-2.96v-11.134c0-0.279-0.236-0.472-0.312-0.729    C221.295,309.871,220.34,308.884,219.005,308.884z" style="fill:#484C4D;"/><path d="M247.521,308.884h-11.118c-1.34,0-2.29,0.987-2.655,2.21c-0.08,0.257-0.305,0.45-0.305,0.729    v11.134c0,1.609,1.33,2.96,2.96,2.96h11.118c1.626,0,2.961-1.351,2.961-2.96v-11.134c0-0.279-0.231-0.472-0.312-0.729    C249.812,309.871,248.857,308.884,247.521,308.884z" style="fill:#484C4D;"/><path d="M247.521,282.968h-11.118c-1.63,0-2.96,1.33-2.96,2.961v11.113c0,1.609,1.33,2.96,2.96,2.96h11.118    c1.626,0,2.961-1.351,2.961-2.96v-11.113C250.483,284.298,249.147,282.968,247.521,282.968z" style="fill:#484C4D;"/><path d="M327.119,239.955c-3.775,0-6.822,3.068-6.822,6.844c0,3.775,3.047,6.843,6.822,6.843    c3.776,0,6.85-3.068,6.85-6.843C333.968,243.022,330.895,239.955,327.119,239.955z" style="fill:#484C4D;"/><path d="M219.005,282.968h-11.107c-1.625,0-2.955,1.33-2.955,2.961v11.113c0,1.609,1.33,2.96,2.955,2.96    h11.107c1.631,0,2.967-1.351,2.967-2.96v-11.113C221.971,284.298,220.636,282.968,219.005,282.968z" style="fill:#484C4D;"/><path d="M375.684,239.955c-3.775,0-6.833,3.068-6.833,6.844c0,3.775,3.058,6.843,6.833,6.843    c3.786,0,6.839-3.068,6.839-6.843C382.522,243.022,379.47,239.955,375.684,239.955z" style="fill:#484C4D;"/><path d="M351.404,239.955c-3.765,0-6.839,3.068-6.839,6.844c0,3.775,3.073,6.843,6.839,6.843    c3.781,0,6.849-3.068,6.849-6.843C358.253,243.022,355.185,239.955,351.404,239.955z" style="fill:#484C4D;"/></g></g><g id="Layer_1"/></svg>