<?xml version="1.0" ?><!DOCTYPE svg  PUBLIC '-//W3C//DTD SVG 1.1//EN'  'http://www.w3.org/Graphics/SVG/1.1/DTD/svg11.dtd'><svg style="enable-background:new 0 0 499.973 409.221;" version="1.1" viewBox="0 0 499.973 409.221" xml:space="preserve" xmlns="http://www.w3.org/2000/svg" xmlns:xlink="http://www.w3.org/1999/xlink"><g id="cloud-tools"><g id="cloud-tools_1_"><path d="M404.168,119.452c-4.318,0-8.523,0.387-12.695,0.944C387.832,53.29,332.278,0,264.267,0    c-55.506,0-97.805,40.418-115.269,89.954c-9.327-2.446-24.006-8.668-34.089-8.668C51.45,81.286,0,132.709,0,196.19    c0,63.459,51.45,114.904,114.909,114.904c15.323,0,38.814,0,66.007,0l-8.431,4.376l-39.844,64.553l29.155,29.198l64.005-39.495    l13.886-25.315l-0.885-0.88l4.205-4.205l48.736,48.742c8.737,8.731,20.37,13.559,32.722,13.559    c12.379,0,24.012-4.827,32.743-13.559c8.753-8.753,13.563-20.381,13.563-32.759c0-12.357-4.81-24.007-13.563-32.738    l-11.488-11.477c26.634,0,47.921,0,58.449,0c52.904,0,95.804-42.907,95.804-95.832    C499.973,162.359,457.072,119.452,404.168,119.452z M189.802,276.318c-27.932,0-50.571-22.655-50.571-50.587    c0-6.093,1.137-11.907,3.121-17.313c0.746,1.051,1.55,2.102,2.505,3.068l18.24,18.236c9.278,9.289,24.355,9.289,33.639,0    c9.311-9.311,9.311-24.371,0-33.661l-18.214-18.235c-0.408-0.387-0.852-0.644-1.265-1.008c4.017-1.03,8.205-1.631,12.545-1.631    c27.926,0,50.581,22.634,50.581,50.544C240.383,253.664,217.728,276.318,189.802,276.318z M311.844,185.957    c12.497-12.508,32.775-12.508,45.293,0c12.481,12.508,12.481,32.781,0,45.266l-79.865,79.871l-0.192,0.214l-0.215-0.214    l-45.079-45.073L311.844,185.957z M213.09,343.531l4.108,4.097l-5.031,9.161l-47.674,29.413l-8.818-8.861l29.648-48.055    l8.893-4.612l4.033,4.033l17.613-17.613l20.128-20.124l14.83,14.824l-5.293,5.3L213.09,343.531z M344.351,335.421    c10.99,10.984,10.99,28.79,0,39.774c-10.974,10.984-28.775,10.984-39.754,0L264.191,334.8l23.717-23.706l16.047-16.069    l16.058,16.069L344.351,335.421z" style="fill:#484C4D;"/><path d="M333.839,364.684c4.543-4.548,4.543-11.907,0-16.455c-4.527-4.547-11.911-4.547-16.454,0    c-4.543,4.549-4.543,11.907,0,16.455C321.927,369.231,329.312,369.231,333.839,364.684z" style="fill:#484C4D;"/><path d="M343.535,199.536c-1.496-1.502-3.888-1.502-5.379,0l-73.333,73.327l5.385,5.384l73.326-73.326    C345.021,203.441,345.021,201.017,343.535,199.536z" style="fill:#484C4D;"/><path d="M326.652,193.894c-1.496-1.48-3.904-1.48-5.401,0l-67.679,67.707l5.38,5.384l67.7-67.685    C328.138,197.821,328.138,195.375,326.652,193.894z" style="fill:#484C4D;"/><path d="M349.167,221.806c1.486-1.481,1.486-3.884,0-5.364c-1.496-1.502-3.893-1.502-5.384-0.022    l-67.701,67.707l5.406,5.384L349.167,221.806z" style="fill:#484C4D;"/></g></g><g id="Layer_1"/></svg>