<?xml version="1.0" ?><!DOCTYPE svg  PUBLIC '-//W3C//DTD SVG 1.1//EN'  'http://www.w3.org/Graphics/SVG/1.1/DTD/svg11.dtd'><svg style="enable-background:new 0 0 499.979 386.245;" version="1.1" viewBox="0 0 499.979 386.245" xml:space="preserve" xmlns="http://www.w3.org/2000/svg" xmlns:xlink="http://www.w3.org/1999/xlink"><g id="cloud-e-reader"><g id="cloud-e-reader_1_"><g><path d="M404.168,119.452c-4.301,0-8.517,0.365-12.694,0.923C387.843,53.268,332.279,0,264.267,0     c-55.505,0-97.789,40.396-115.268,89.932c-9.322-2.424-24.017-8.646-34.089-8.646C51.445,81.287,0,132.709,0,196.19     c0,63.459,51.445,114.882,114.91,114.882c9.096,0,21.137,0,35.075,0v57.002c0,10.039,8.152,18.171,18.182,18.171h163.635     c10.045,0,18.181-8.132,18.181-18.171v-57.002c24.639,0,44.215,0,54.185,0c52.92,0,95.811-42.885,95.811-95.81     C499.979,162.337,457.089,119.452,404.168,119.452z M331.802,368.074H168.167v-31.237v-14.975v-10.791v-83.774v-45.331v-59.339     h163.635v188.445V368.074z" style="fill:#484C4D;"/><path d="M254.49,344.26c-4.366,0-7.879,3.54-7.879,7.873c0,4.355,3.513,7.916,7.879,7.916     c4.355,0,7.884-3.561,7.884-7.916C262.374,347.801,258.845,344.26,254.49,344.26z" style="fill:#484C4D;"/><path d="M233.31,187.823l-14.433-10.362l-14.385,10.362v-51.359H182.01v174.608v26.109h135.96v-26.109     l0.021-174.608H233.31V187.823z M204.492,213.289h94.786v10.769h-94.786V213.289z M204.492,232.016h74.008v10.77h-74.008V232.016     z M204.492,251.003h90.259v10.812h-90.259V251.003z M204.492,269.989h58.315v10.791h-58.315V269.989z M204.492,289.19h42.076     v10.791h-42.076V289.19z M299.788,318.988h-99.597v-1.33c1.395,0.322,2.827,0.493,4.301,0.493h42.076     c5.846,0,11.001-2.789,14.32-7.079c13.151,0,26.249,0,38.9,0V318.988z" style="fill:#484C4D;"/></g></g></g><g id="Layer_1"/></svg>