<?xml version="1.0" ?><!DOCTYPE svg  PUBLIC '-//W3C//DTD SVG 1.1//EN'  'http://www.w3.org/Graphics/SVG/1.1/DTD/svg11.dtd'><svg style="enable-background:new 0 0 499.974 393.929;" version="1.1" viewBox="0 0 499.974 393.929" xml:space="preserve" xmlns="http://www.w3.org/2000/svg" xmlns:xlink="http://www.w3.org/1999/xlink"><g id="cloud-mobile-phone"><g id="cloud-mobile-phone_1_"><path d="M404.168,119.446c-4.312,0-8.523,0.386-12.695,0.938C387.837,53.284,332.279,0,264.261,0    c-55.516,0-97.794,40.412-115.269,89.942c-9.321-2.434-24.022-8.661-34.099-8.661C51.434,81.281,0,132.715,0,196.184    c0,63.464,51.434,114.899,114.893,114.899c11.219,0,26.843,0,45.094,0v36.861c0,25.352,20.632,45.985,46.001,45.985h87.995    c25.369,0,46.001-20.632,46.001-45.985v-36.861c29.311,0,52.888,0,64.183,0c52.909,0,95.805-42.896,95.805-95.827    C499.974,162.342,457.078,119.446,404.168,119.446z M319.97,347.944c0,14.288-11.698,25.985-25.986,25.985h-87.995    c-14.309,0-26.012-11.697-26.012-25.985v-36.861V149.942c0-14.294,11.704-26.001,26.012-26.001h87.995    c14.288,0,25.986,11.708,25.986,26.001v161.141V347.944z" style="fill:#484C4D;"/><path d="M262.325,355.936h-25.598c-1.76,0-3.224,1.448-3.224,3.207v1.593c0,1.759,1.464,3.191,3.224,3.191    h25.598c1.76,0,3.196-1.432,3.196-3.191v-1.593C265.521,357.384,264.084,355.936,262.325,355.936z" style="fill:#484C4D;"/><path d="M246.524,150.038c0,1.652,1.336,3.004,2.999,3.004c1.658,0,3.003-1.352,3.003-3.004    c0-1.662-1.346-3.009-3.003-3.009C247.86,147.029,246.524,148.376,246.524,150.038z" style="fill:#484C4D;"/><g><polygon points="299.182,297.632 299.182,159.033 200.77,159.033 200.77,297.632 200.77,322.946      299.182,322.946    " style="fill:#484C4D;"/></g><path d="M236.726,143.033h25.598c1.76,0,3.196-0.724,3.196-1.598v-0.799c0-0.874-1.437-1.604-3.196-1.604    h-25.598c-1.76,0-3.224,0.729-3.224,1.604v0.799C233.502,142.31,234.967,143.033,236.726,143.033z" style="fill:#484C4D;"/></g></g><g id="Layer_1"/></svg>