<?xml version="1.0" ?><!DOCTYPE svg  PUBLIC '-//W3C//DTD SVG 1.1//EN'  'http://www.w3.org/Graphics/SVG/1.1/DTD/svg11.dtd'><svg style="enable-background:new 0 0 499.979 382.64;" version="1.1" viewBox="0 0 499.979 382.64" xml:space="preserve" xmlns="http://www.w3.org/2000/svg" xmlns:xlink="http://www.w3.org/1999/xlink"><g id="cloud-joystick"><g id="cloud-joystick_1_"><path d="M499.979,215.261c0-52.925-42.874-95.81-95.789-95.81c-4.323,0-8.539,0.386-12.701,0.943    C387.843,53.289,332.29,0,264.272,0c-55.51,0-97.785,40.417-115.268,89.932c-9.311-2.424-24.007-8.646-34.079-8.646    C51.445,81.286,0,132.709,0,196.19c0,55.692,39.635,102.118,92.228,112.629c-4.956,5.192-8.024,12.186-8.024,19.909v24.993    c0,15.94,12.969,28.919,28.92,28.919h311.082c15.962,0,28.92-12.979,28.92-28.919v-24.993c0-10.32-5.482-19.33-13.624-24.457    C474.932,290.219,499.979,255.701,499.979,215.261z M318.002,269.56c0-5.557,4.516-10.061,10.061-10.061h35.248    c5.567,0,10.061,4.505,10.061,10.061v16.069h-55.371V269.56z M165.512,155.278c6.361-23.813,30.871-37.973,54.716-31.579    c23.824,6.415,37.973,30.893,31.59,54.727c-5.609,20.874-25.079,34.303-45.824,33.038L186,285.628h-20.005l21.464-79.485    C169.631,196.554,160.02,175.68,165.512,155.278z M243.785,269.56c0-5.557,4.516-10.061,10.061-10.061h35.248    c5.567,0,10.061,4.505,10.061,10.061v16.069h-55.371V269.56z M433.173,353.721c0,4.956-4,8.967-8.967,8.967H113.124    c-4.956,0-8.978-4.011-8.978-8.967v-24.993c0-4.956,4.022-8.967,8.978-8.967h21.978v-8.668v-10.555    c0-4.033,3.261-7.273,7.273-7.273h252.57c4.022,0,7.315,3.239,7.315,7.273v10.555v8.668h21.946c4.967,0,8.967,4.011,8.967,8.967    V353.721z" style="fill:#484C4D;"/><path d="M201.757,148.65c-0.901-6.05-6.543-10.212-12.593-9.311c-6.061,0.944-10.223,6.608-9.3,12.636    c0.912,6.071,6.576,10.212,12.636,9.289C198.539,160.341,202.69,154.698,201.757,148.65z" style="fill:#484C4D;"/></g></g><g id="Layer_1"/></svg>