<?xml version="1.0" ?><!DOCTYPE svg  PUBLIC '-//W3C//DTD SVG 1.1//EN'  'http://www.w3.org/Graphics/SVG/1.1/DTD/svg11.dtd'><svg style="enable-background:new 0 0 499.967 397.298;" version="1.1" viewBox="0 0 499.967 397.298" xml:space="preserve" xmlns="http://www.w3.org/2000/svg" xmlns:xlink="http://www.w3.org/1999/xlink"><g id="cloud-microphone"><g id="cloud-microphone_1_"><path d="M404.146,119.446c-4.312,0-8.506,0.38-12.668,0.933C387.821,53.278,332.268,0,264.261,0    c-55.516,0-97.796,40.402-115.269,89.936c-9.321-2.445-24.006-8.666-34.1-8.666C51.439,81.27,0,132.704,0,196.179    c0,63.464,51.439,114.893,114.892,114.893c16.444,0,42.333,0,72.088,0c9.89,6.983,20.987,12.426,33.006,15.832v10.399h-50.952    c-16.545,0-30.002,13.467-30.002,30.008c0,16.54,13.457,29.986,30.002,29.986h161.892c16.551,0,30.002-13.447,30.002-29.986    c0-16.541-13.451-30.008-30.002-30.008h-50.93v-10.399c12.024-3.406,23.126-8.85,33.006-15.832c41.479,0,76.587,0,91.144,0    c52.935,0,95.821-42.885,95.821-95.816C499.967,162.341,457.082,119.446,404.146,119.446z M310.836,191.749v17.827    c0,17.715-6.651,33.886-17.581,45.685c-10.887,11.773-26.248,19.259-43.25,19.259c0,0,0,0-0.016,0    c-17.007,0-32.361-7.476-43.271-19.259c-10.936-11.799-17.587-27.97-17.587-45.685v-17.849l-0.021-22.499v-17.94    c0.021-17.726,6.672-33.896,17.607-45.679c10.909-11.788,26.264-19.27,43.271-19.259c16.965-0.011,32.379,7.471,43.266,19.259    c10.93,11.784,17.581,27.953,17.581,45.679v20.193V191.749z M259.917,310.46v0.612v46.301h71.01c5.513,0,9.944,4.452,9.944,9.938    c0,5.492-4.431,9.933-9.944,9.933H169.035c-5.498,0-9.943-4.441-9.943-9.933c0-5.487,4.445-9.938,9.943-9.938h71.011v-46.301    v-0.612c-44.505-4.951-79.147-42.654-79.158-88.494v-29.129c0-4.859,3.561-8.72,8.163-9.579c0.601-0.118,1.153-0.359,1.781-0.359    c5.476,0,9.938,4.452,9.938,9.938v6.474v22.655c0,1.148,0.118,2.257,0.177,3.384c1.829,36.625,31.955,65.759,69.032,65.823    c0,0,0,0,0.01,0c0,0,0.005,0,0.016,0c36.535-0.075,66.301-28.35,68.951-64.21c0.118-1.647,0.235-3.308,0.257-4.998v-22.714v-4.189    c0-5.476,4.452-9.922,9.922-9.922c0.633,0,1.18,0.247,1.769,0.354c4.602,0.859,8.174,4.72,8.174,9.568v26.903    C339.079,267.806,304.453,305.51,259.917,310.46z" style="fill:#484C4D;"/><path d="M287.58,124.326c-0.493-0.837-1.019-1.62-1.576-2.413c-1.395-2.06-2.822-4.076-4.474-5.868    c-3.732-4.001-8.088-7.15-12.818-9.531c-2.627-1.341-5.384-2.376-8.254-3.132c-3.384-0.88-6.85-1.486-10.47-1.486    c-4.259,0-8.286,0.848-12.179,2.049c-2.323,0.724-4.58,1.561-6.737,2.671c-4.64,2.376-8.947,5.481-12.604,9.429    c-2.065,2.225-3.942,4.677-5.578,7.304c-0.113,0.167-0.177,0.359-0.274,0.515c-3.862,6.35-6.253,13.789-7.042,21.818    c-0.199,1.786-0.51,3.535-0.51,5.38v21.518v17.183v21.925c0,0.08,0.022,0.161,0.022,0.253h21.973h45.856h21.979    c0-0.091,0.033-0.172,0.033-0.253v-21.925v-17.864v-20.837c0-2.521-0.366-4.929-0.686-7.332    C293.255,136.63,291.002,130.049,287.58,124.326z M222.947,135.809c-0.38-0.826-0.627-1.749-0.627-2.724    c0-0.987,0.247-1.894,0.627-2.736c1.036-2.285,3.331-3.883,5.991-3.883c2.805,0,5.155,1.717,6.13,4.156    c0.301,0.762,0.489,1.583,0.489,2.463c0,3.593-2.854,6.484-6.426,6.592c-0.069,0-0.118,0.032-0.193,0.032    C226.278,139.708,223.983,138.105,222.947,135.809z M265.569,152.538c-1.051,2.274-3.325,3.866-5.985,3.866    c-2.682,0-4.962-1.609-6.007-3.899c-0.376-0.836-0.622-1.748-0.622-2.724c0-0.982,0.246-1.888,0.622-2.731    c0.263-0.59,0.649-1.104,1.068-1.587c1.217-1.384,2.949-2.306,4.94-2.306c2.006,0,3.721,0.922,4.945,2.317    c0.408,0.467,0.772,0.971,1.04,1.544c0.387,0.853,0.633,1.771,0.633,2.762C266.202,150.767,265.956,151.701,265.569,152.538z     M255.337,135.846c-1.041,2.269-3.298,3.862-5.964,3.862c-2.666,0-4.945-1.593-6.002-3.872c-0.397-0.837-0.638-1.765-0.638-2.752    c0-0.998,0.242-1.916,0.638-2.762c1.057-2.268,3.336-3.857,6.002-3.857c2.666,0,4.923,1.588,5.964,3.857    c0.391,0.847,0.648,1.764,0.648,2.762C255.985,134.071,255.728,135,255.337,135.846z M233.181,147.018    c0.263-0.573,0.627-1.078,1.035-1.555c1.217-1.384,2.95-2.306,4.951-2.306c1.979,0,3.712,0.922,4.934,2.317    c0.408,0.472,0.789,0.986,1.051,1.576c0.381,0.842,0.627,1.749,0.627,2.731c0,0.976-0.246,1.898-0.627,2.724    c-1.035,2.29-3.31,3.899-5.985,3.899c-2.677,0-4.94-1.593-5.985-3.866c-0.403-0.837-0.655-1.771-0.655-2.757    C232.526,148.789,232.778,147.872,233.181,147.018z M276.414,133.085c0,0.986-0.247,1.914-0.633,2.761    c-0.934,1.974-2.789,3.326-5.01,3.663c-0.343,0.048-0.644,0.199-0.975,0.199c-3.658,0-6.64-2.96-6.64-6.623    c0-1.191,0.408-2.247,0.966-3.213c1.115-2,3.196-3.406,5.674-3.406c2.67,0,4.923,1.588,5.985,3.857    C276.167,131.169,276.414,132.087,276.414,133.085z M280.018,156.404c-3.669,0-6.64-2.971-6.64-6.623    c0-3.658,2.971-6.623,6.64-6.623c2.66,0,4.934,1.598,5.975,3.872c0.386,0.842,0.633,1.76,0.633,2.751    c0,0.986-0.247,1.909-0.633,2.746C284.952,154.801,282.678,156.404,280.018,156.404z M265.569,116.523    c0.387,0.847,0.633,1.769,0.633,2.756c0,0.997-0.246,1.92-0.633,2.762c-0.268,0.573-0.633,1.083-1.04,1.55    c-1.224,1.399-2.939,2.317-4.945,2.317c-1.99,0-3.723-0.917-4.94-2.317c-1.019-1.159-1.689-2.644-1.689-4.312    c0-3.658,2.971-6.623,6.629-6.623C262.244,112.656,264.518,114.249,265.569,116.523z M245.778,119.279    c0,1.668-0.665,3.154-1.678,4.312c-1.222,1.399-2.955,2.317-4.934,2.317c-2,0-3.733-0.917-4.951-2.317    c-0.408-0.467-0.772-0.976-1.035-1.55c-0.392-0.842-0.655-1.765-0.655-2.762c0-0.986,0.252-1.909,0.655-2.756    c1.046-2.275,3.308-3.867,5.985-3.867C242.818,112.656,245.778,115.622,245.778,119.279z M212.74,147.018    c1.057-2.263,3.32-3.861,5.996-3.861c3.652,0,6.634,2.966,6.634,6.623c0,3.652-2.982,6.623-6.634,6.623    c-2.676,0-4.94-1.593-5.996-3.866c-0.391-0.837-0.633-1.771-0.633-2.757C212.108,148.789,212.349,147.872,212.74,147.018z" style="fill:#484C4D;"/></g></g><g id="Layer_1"/></svg>