<?xml version="1.0" ?><!DOCTYPE svg  PUBLIC '-//W3C//DTD SVG 1.1//EN'  'http://www.w3.org/Graphics/SVG/1.1/DTD/svg11.dtd'><svg style="enable-background:new 0 0 499.995 394.827;" version="1.1" viewBox="0 0 499.995 394.827" xml:space="preserve" xmlns="http://www.w3.org/2000/svg" xmlns:xlink="http://www.w3.org/1999/xlink"><g id="cloud-screen"><g id="cloud-screen_1_"><path d="M404.168,119.452c-4.312,0-8.523,0.381-12.673,0.934C387.832,53.29,332.284,0,264.278,0    c-55.516,0-97.811,40.408-115.28,89.943c-9.321-2.44-24.028-8.666-34.104-8.666C51.434,81.277,0,132.716,0,196.185    c0,55.075,38.755,101.034,90.457,112.233v28.173c0,14.889,11.687,27.004,26.05,27.004h74.674l-1.4,3.009    c-1.544,3.326-2.06,7.042-1.453,10.657c1.684,10.18,10.046,17.566,19.887,17.566h90.298c11.08,0,19.758-9.021,19.758-20.537    c0-2.655-0.584-5.282-1.7-7.686l-1.405-3.009h68.323c14.341,0,26.022-12.115,26.022-27.004v-25.782    c50.426-2.789,90.484-44.429,90.484-95.547C499.995,162.342,457.094,119.452,404.168,119.452z M298.512,376.645    c-1.561,0-88.72,0-90.298,0c-1.565,0-1.952-2.355-1.952-2.355l3.765-8.056h86.323l3.743,8.056    C300.093,374.29,300.093,376.645,298.512,376.645z M209.791,364.26v-15.135h86.376v15.135H209.791z M391.328,311.384v18.391    c0,4.848-3.528,8.822-7.84,8.822H116.507c-4.328,0-7.862-3.974-7.862-8.822v-18.391v-0.617v-3.078V150.426    c0-4.329,3.535-7.863,7.862-7.863h266.981c4.312,0,7.84,3.535,7.84,7.863v157.263v3.388V311.384z" style="fill:#484C4D;"/><polygon points="124.423,311.077 124.423,312.612 374.928,312.612 374.928,311.077 374.928,162.111     124.423,162.111   " style="fill:#484C4D;"/></g></g><g id="Layer_1"/></svg>