<?xml version="1.0" ?><!DOCTYPE svg  PUBLIC '-//W3C//DTD SVG 1.1//EN'  'http://www.w3.org/Graphics/SVG/1.1/DTD/svg11.dtd'><svg style="enable-background:new 0 0 499.978 396.156;" version="1.1" viewBox="0 0 499.978 396.156" xml:space="preserve" xmlns="http://www.w3.org/2000/svg" xmlns:xlink="http://www.w3.org/1999/xlink"><g id="cloud-chart"><g id="cloud-chart_1_"><path d="M404.168,119.452c-4.323,0-8.517,0.365-12.701,0.923C387.842,53.268,332.268,0,264.271,0    c-55.51,0-97.794,40.396-115.268,89.932c-9.311-2.424-24.028-8.668-34.1-8.668C51.445,81.264,0,132.709,0,196.19    c0,63.437,51.445,114.882,114.903,114.882c5.825,0,12.85,0,20.777,0c19.201,49.836,67.75,85.084,123.388,85.084    c11.349,0,22.913-1.566,34.379-4.655c3.271-0.88,6.136-2.703,8.42-5.127c0.934,0.129,1.823,0.279,2.778,0.279    c2.457,0,4.956-0.515,7.263-1.523c33.102-14.459,58.171-41.362,70.613-74.057c9.246,0,16.668,0,21.646,0    c52.915,0,95.81-42.885,95.81-95.81C499.978,162.359,457.083,119.452,404.168,119.452z M241.306,254.993h-95.863    c0.021-0.171,0.043-0.321,0.064-0.45c2.597-32.05,18.353-60.305,41.91-79.376c0.311-0.236,0.568-0.537,0.88-0.772l51.488,78.261    l1.222,1.887L241.306,254.993z M203.419,164.331c13.784-7.723,29.284-12.657,45.835-14.052c0.504-0.043,0.975-0.149,1.48-0.192    V236.2v2.102l-1.48-2.253L202.4,164.847C202.733,164.653,203.087,164.504,203.419,164.331z M267.436,254.993v-0.129v-9.76v-95.017    c0.504,0.043,0.966,0.129,1.481,0.192c55.307,4.699,99.275,48.786,103.748,104.263c0,0.13,0.043,0.279,0.054,0.45H267.436z     M259.069,377.985c-46.124,0-85.716-27.481-103.662-66.913c-5.33-11.713-8.806-24.478-9.901-37.908    c-0.021-0.171-0.043-0.3-0.064-0.45h99.178h7.563h0.182l13.762,38.359l22.601,62.879c-0.45,0.129-0.912,0.193-1.341,0.322    C278.323,376.612,268.873,377.985,259.069,377.985z M305.848,367.901c-0.408,0.193-0.794,0.387-1.202,0.58l-20.627-57.409    l-13.622-37.908l-0.15-0.45h1.427h101.045c-0.011,0.15-0.032,0.279-0.054,0.45c-1.094,13.43-4.495,26.195-9.804,37.908    C351.414,336.236,331.088,356.51,305.848,367.901z" style="fill:#484C4D;"/></g></g><g id="Layer_1"/></svg>