<?xml version="1.0" ?><!DOCTYPE svg  PUBLIC '-//W3C//DTD SVG 1.1//EN'  'http://www.w3.org/Graphics/SVG/1.1/DTD/svg11.dtd'><svg style="enable-background:new 0 0 499.978 394.52;" version="1.1" viewBox="0 0 499.978 394.52" xml:space="preserve" xmlns="http://www.w3.org/2000/svg" xmlns:xlink="http://www.w3.org/1999/xlink"><g id="cloud-mouse"><g id="cloud-mouse_1_"><path d="M404.147,119.446c-4.302,0-8.517,0.392-12.679,0.939C387.81,53.29,332.268,0,264.261,0    c-55.521,0-97.805,40.418-115.269,89.938c-9.321-2.43-24.017-8.662-34.1-8.662C51.423,81.275,0,132.715,0,196.18    c0,63.475,51.423,114.898,114.892,114.898c11.896,0,28.736,0,48.399,0c6.543,47.058,46.928,83.443,95.778,83.443    c48.827,0,89.234-36.385,95.789-83.443c22.312,0,40,0,49.289,0c52.914,0,95.831-42.891,95.831-95.815    C499.978,162.337,457.061,119.446,404.147,119.446z M265.72,219.51v-6.318v-82.295c0.986,0.08,1.931,0.268,2.885,0.376    c38.937,4.736,69.112,37.769,69.112,77.934v3.985v6.318h-69.112H265.72z M250.434,219.51h-2.886h-67.128v-6.318v-3.985    c0-39.484,29.198-72.104,67.128-77.698c0.955-0.134,1.909-0.344,2.886-0.45v82.133V219.51z M259.069,376.338    c-38.863,0-71.053-28.21-77.425-65.261c-0.729-4.355-1.224-8.817-1.224-13.386v-59.994v-6.335h71.633h12.057h73.606v6.335v59.994    c0,4.569-0.472,9.031-1.234,13.386C330.123,348.128,297.921,376.338,259.069,376.338z" style="fill:#484C4D;"/></g></g><g id="Layer_1"/></svg>