<?xml version="1.0" ?><!DOCTYPE svg  PUBLIC '-//W3C//DTD SVG 1.1//EN'  'http://www.w3.org/Graphics/SVG/1.1/DTD/svg11.dtd'><svg style="enable-background:new 0 0 499.978 396.027;" version="1.1" viewBox="0 0 499.978 396.027" xml:space="preserve" xmlns="http://www.w3.org/2000/svg" xmlns:xlink="http://www.w3.org/1999/xlink"><g id="cloud-music"><g id="cloud-music_1_"><path d="M404.169,119.452c-4.312,0-8.517,0.365-12.69,0.923C387.832,53.268,332.279,0,264.261,0    c-55.5,0-97.794,40.396-115.258,89.932c-9.321-2.446-24.006-8.668-34.1-8.668C51.456,81.264,0,132.709,0,196.19    c0,63.437,51.456,114.882,114.903,114.882c3.862,0,8.249,0,13.054,0c22.161,33.166,59.93,55.071,102.719,55.071    c3.422,0,6.897-0.151,10.383-0.429c4.033,12.571,14.374,22.483,28.426,27.203c6.136,2.08,12.776,3.111,19.736,3.111    c7.209,0,14.492-1.116,21.646-3.326c9.815-3.068,18.911-8.387,26.26-15.446c9.15-8.71,15.21-19.715,16.862-30.42    c0.258-1.202,0.398-2.446,0.418-3.691c0.108-1.63,0.108-3.239,0-4.806v-11.306c3.014,1.845,6.447,2.768,9.933,2.768    c3.443,0,6.897-0.902,9.987-2.811c1.04-0.644,6.64-4.226,13.064-11.091c1.416-1.503,2.703-3.197,4.033-4.828    c5.127,0,9.472,0,12.744,0c52.903,0,95.809-42.907,95.809-95.831C499.978,162.337,457.072,119.452,404.169,119.452z     M309.399,310.385v-1.652c0.417,0.022,0.847,0.086,1.265,0.129C310.246,309.377,309.816,309.892,309.399,310.385z     M252.055,335.442c-1.813,3.283-2.907,6.673-3.337,10.02c-5.867,1.029-11.885,1.587-18.041,1.587    c-31.473,0-59.619-13.966-78.734-35.977c-15.94-18.321-25.658-42.198-25.658-68.393c0-57.623,46.735-104.369,104.391-104.369    c32.073,0,60.766,14.502,79.891,37.265v19.436l-45.503,28.768c1.598,2.961,2.875,6.072,3.648,9.397l41.855-12.657v87.636    c-7.616-0.601-15.95,0.279-24.296,2.746c-0.171,0.043-0.333,0.129-0.504,0.171C270.429,315.749,257.835,324.802,252.055,335.442z     M382.651,290.369c-2.939,5.149-6.201,9.289-9.139,12.422c-5.064,5.406-9.183,7.937-9.183,7.937s2.307-4.462,4.227-11.349    c1.587-5.641,2.875-12.871,2.435-20.638c-0.429-7.787-2.628-16.089-8.078-23.77c-6.586-9.268-14.32-14.675-20.96-17.743    c-0.171-0.086-0.333-0.149-0.515-0.235c-2.209-0.966-4.258-1.695-6.114-2.232v76.31v28.039c0.118,1.224,0.086,2.489-0.054,3.819    c0.011-0.022,0.033-0.022,0.054-0.022c-0.021,0-0.043,0-0.054,0.022c-0.718,6.694-4.772,14.245-11.338,20.509    c-4.923,4.72-11.274,8.709-18.729,11.027c-10.63,3.304-21.217,3.196-29.605,0.365c-8.088-2.725-14.18-7.938-16.411-15.103    c-1.738-5.621-0.805-11.65,2.145-17.248c4.709-8.967,14.653-16.948,27.46-20.917c4.333-1.352,8.677-2.102,12.861-2.381    c3.057-0.193,6.071-0.108,8.913,0.236c0.268,0.043,0.526,0.043,0.794,0.086c2.231,0.3,4.355,0.793,6.361,1.394    c1.598,0.515,3.1,1.116,4.527,1.781c0.139-0.107,0.322-0.149,0.461-0.257v-11.349V170.596c0,0,4.655,0.88,11.563,3.433    c0.322-1.115,0.526,0.193,0.526,0.193c17.377,6.458,48.033,23.148,55.295,61.807C394.697,260.485,389.548,278.27,382.651,290.369z    " style="fill:#484C4D;"/><path d="M203.688,213.996c5.428-5.449,12.089-8.817,19.093-10.426l-12.249-47.326    c-15.179,3.69-29.574,11.349-41.448,23.191c-3.453,3.497-6.456,7.187-9.235,11.092l39.635,28.619    C200.749,217.343,202.068,215.605,203.688,213.996z" style="fill:#484C4D;"/><path d="M230.762,216.12c-14.396,0-26.087,11.671-26.087,26.087c0,14.417,11.691,26.087,26.087,26.087    c14.395,0,26.098-11.671,26.098-26.087C256.86,227.791,245.157,216.12,230.762,216.12z" style="fill:#484C4D;"/><path d="M194.571,256.989l-45.289,18.385c5.643,13.816,14.631,25.873,26.012,35.14    c9.6-11.284,21.12-25.379,31.182-37.864C201.306,268.509,197.112,263.188,194.571,256.989z" style="fill:#484C4D;"/></g></g><g id="Layer_1"/></svg>