<?xml version="1.0" ?><!DOCTYPE svg  PUBLIC '-//W3C//DTD SVG 1.1//EN'  'http://www.w3.org/Graphics/SVG/1.1/DTD/svg11.dtd'><svg style="enable-background:new 0 0 499.967 391.243;" version="1.1" viewBox="0 0 499.967 391.243" xml:space="preserve" xmlns="http://www.w3.org/2000/svg" xmlns:xlink="http://www.w3.org/1999/xlink"><g id="cloud-on-off"><g id="cloud-on-off_1_"><path d="M404.168,119.452c-4.312,0-8.534,0.387-12.695,0.945C387.821,53.268,332.272,0,264.261,0    c-55.506,0-97.796,40.397-115.263,89.932c-9.327-2.424-24.017-8.646-34.095-8.646C51.439,81.286,0,132.709,0,196.169    c0,63.48,51.439,114.903,114.903,114.903c7.894,0,18.015,0,29.648,0c17.174,46.704,61.973,80.171,114.539,80.171    c52.566,0,97.345-33.467,114.502-80.171c13.424,0,24.065,0,30.576,0c52.898,0,95.799-42.885,95.799-95.81    C499.967,162.337,457.067,119.452,404.168,119.452z M275.797,257.375c0,6.778-7.336,12.078-16.707,12.078    c-4.205,0-8.205-1.094-11.252-3.068c-3.491-2.253-5.487-5.535-5.487-9.01v-99.5c0-3.475,1.996-6.758,5.487-9.01    c3.047-1.974,7.047-3.068,11.252-3.068c9.37,0,16.707,5.32,16.707,12.078V257.375z M259.09,373.051    c-42.38,0-78.851-25.529-95.015-61.979c-5.696-12.85-8.92-27.01-8.92-41.94c0-46.811,31.532-88.045,76.685-100.294l1.421-0.365    v32.394c-28.26,10.705-47.214,37.994-47.214,68.265c0,15.617,4.978,30.078,13.356,41.94    c13.226,18.772,35.027,31.086,59.687,31.086c24.645,0,46.436-12.314,59.662-31.086c8.378-11.863,13.338-26.323,13.338-41.94    c0-30.271-18.953-57.56-47.196-68.265v-32.394l1.405,0.365c45.164,12.249,76.69,53.484,76.69,100.294    c0,14.931-3.223,29.09-8.919,41.94C337.915,347.521,301.455,373.051,259.09,373.051z" style="fill:#484C4D;"/></g></g><g id="Layer_1"/></svg>