<?xml version="1.0" ?><!DOCTYPE svg  PUBLIC '-//W3C//DTD SVG 1.1//EN'  'http://www.w3.org/Graphics/SVG/1.1/DTD/svg11.dtd'><svg style="enable-background:new 0 0 499.995 387.811;" version="1.1" viewBox="0 0 499.995 387.811" xml:space="preserve" xmlns="http://www.w3.org/2000/svg" xmlns:xlink="http://www.w3.org/1999/xlink"><g id="cloud-hand"><g id="cloud-hand_1_"><path d="M404.168,119.431c-4.318,0-8.528,0.386-12.673,0.944C387.826,53.268,332.278,0,264.271,0    c-55.51,0-97.789,40.397-115.257,89.932c-9.343-2.445-24.022-8.666-34.106-8.666C51.45,81.266,0,132.711,0,196.169    s51.45,114.903,114.909,114.903c7.38,0,16.701,0,27.423,0c-0.435,1.824-0.826,3.691-0.826,5.643v44.816    c-0.022,6.651,2.644,12.979,7.471,17.827c5.288,5.3,12.796,8.324,20.632,8.324l134.743,0.13c15.553,0,28.189-11.735,28.189-26.109    l0.054-44.773c0-1.995-0.301-3.947-0.762-5.857c33.081,0,60.027,0,72.336,0c52.924,0,95.826-42.906,95.826-95.832    C499.995,162.337,457.093,119.431,404.168,119.431z M177.949,296.463c-0.789-5.042-6.426-11.671-13.242-18.708    c-0.493-0.408-0.96-0.836-1.438-1.287c-0.761-0.75-1.496-1.522-2.166-2.359c-3.497-4.333-5.6-9.825-5.6-15.768v-14.396v-87.336    c3.191-3.068,7.503-4.955,12.26-4.955c3.642,0,7.01,1.137,9.836,3.046c0.762,0.515,1.47,1.073,2.124,1.695    c1.544,1.395,2.864,3.047,3.803,4.934c0.622-0.043,1.228-0.107,1.883-0.107h3.105c2.225-7.252,8.983-12.508,16.964-12.508    c3.669,0,7.053,1.159,9.879,3.046c1.845,1.244,3.449,2.789,4.703,4.591c1.041,1.481,1.851,3.111,2.409,4.87h4.145    c2.236-7.252,8.989-12.508,16.975-12.508c3.68,0,7.032,1.159,9.89,3.046c1.722,1.159,3.256,2.617,4.473,4.291    c1.142,1.544,2.022,3.303,2.612,5.17h2.269v-19.287v-0.751v-10.104v-0.343v-13.494v-0.409v-2.166    c0-9.826,7.943-17.763,17.752-17.763c3.663,0,7.053,1.116,9.879,3.003c4.312,2.875,7.241,7.637,7.739,13.086    c0.037,0.365,0.086,0.729,0.108,1.094c0.021,0.193,0.043,0.387,0.043,0.58v14.631v0.472v8.967v57.495    c0,0.149,0.005,0.343,0.005,0.514v12.229v9.59l16.004-15.511c6.104-5.922,15.393-6.565,22.167-2.039    c1.056,0.687,2.032,1.481,2.933,2.424c6.855,7.036,6.678,18.279-0.375,25.122l-39.893,38.702    c-0.649,3.111-1.271,6.264-1.861,9.353c-0.171,0.923-0.354,1.888-0.536,2.811c-1.438,7.873-2.5,14.802-2.5,18.342    c0,0.965,0,2.253,0,3.776c-0.155-0.022-116.244,0-116.244,0s0-2.811,0-3.905C178.056,297.278,178.024,296.849,177.949,296.463z     M314.413,316.843l-0.048,44.859c0,4.355-4.506,7.916-10.013,7.916l-134.722-0.107c-5.507,0-9.943-3.583-9.943-7.938v-44.859    c0-2.21,1.18-4.205,3.029-5.643c1.813-1.394,4.286-2.295,6.978-2.295h0.354l7.976,0.021l116.233,0.108h9.525h0.649    c2.612,0,4.956,0.858,6.731,2.166C313.137,312.532,314.413,314.569,314.413,316.843z" style="fill:#484C4D;"/><path d="M298.903,328.063c-1.518-1.502-3.326-2.488-5.235-3.046c-4.183-1.224-8.833-0.236-12.11,3.025    c-0.714,0.707-1.282,1.502-1.781,2.317c-0.499,0.794-0.859,1.587-1.142,2.424c-1.432,4.29-0.526,9.204,2.901,12.614    c4.774,4.806,12.55,4.806,17.345,0c4.259-4.226,4.725-10.812,1.432-15.617C299.917,329.2,299.444,328.599,298.903,328.063z" style="fill:#484C4D;"/><path d="M280.507,138.052c5.723,0,10.346-5.706,10.346-12.787c0-7.079-4.623-12.807-10.346-12.807    c-5.734,0-10.379,5.728-10.379,12.807C270.128,132.346,274.773,138.052,280.507,138.052z" style="fill:#484C4D;"/></g></g><g id="Layer_1"/></svg>