<?xml version="1.0" ?><!DOCTYPE svg  PUBLIC '-//W3C//DTD SVG 1.1//EN'  'http://www.w3.org/Graphics/SVG/1.1/DTD/svg11.dtd'><svg style="enable-background:new 0 0 499.968 399.417;" version="1.1" viewBox="0 0 499.968 399.417" xml:space="preserve" xmlns="http://www.w3.org/2000/svg" xmlns:xlink="http://www.w3.org/1999/xlink"><g id="cloud-calculator"><g id="cloud-calculator_1_"><path d="M404.137,119.452c-4.312,0-8.506,0.386-12.668,0.923C387.822,53.29,332.247,0,264.261,0    c-55.52,0-97.806,40.418-115.279,89.953c-9.31-2.445-24.017-8.666-34.1-8.666C51.424,81.286,0,132.709,0,196.19    c0,63.459,51.424,114.882,114.882,114.882c4.999,0,10.941,0,17.538,0v43.679c0.011,24.564,19.845,44.58,44.258,44.666H323.28    c0.011,0,0.032,0,0.064,0c24.349-0.086,44.194-20.102,44.205-44.666v-43.679c16.304,0,29.144,0,36.588,0    c52.937,0,95.832-42.885,95.832-95.811C499.968,162.337,457.073,119.452,404.137,119.452z M349.356,354.751    c-0.011,14.48-11.552,26.43-26.076,26.495H176.679c-14.524-0.065-26.076-12.014-26.076-26.495v-43.679V180.486    c0-14.523,11.552-26.473,26.076-26.516H323.28c14.524,0.043,26.065,11.992,26.076,26.516v130.586V354.751z" style="fill:#484C4D;"/><path d="M297.267,219.467c7.23,0,10.77-6.072,10.77-14.846c0-7.809-3.036-14.588-10.608-14.588    c-7.369,0-10.824,6.478-10.824,14.759C286.648,212.859,289.898,219.467,297.267,219.467z M297.343,195.075    c2.681,0,4.032,3.325,4.032,9.632c0,6.479-1.405,9.74-3.989,9.74c-2.532,0-4.109-3.132-4.109-9.654    C293.277,198.143,294.94,195.075,297.343,195.075z" style="fill:#484C4D;"/><path d="M323.28,168.536H176.679c-6.157,0.022-11.509,5.3-11.52,11.949v130.586v43.679    c0.011,6.629,5.364,11.885,11.52,11.906H323.28c6.147-0.021,11.499-5.277,11.509-11.906v-43.679V180.486    C334.779,173.836,329.426,168.558,323.28,168.536z M184.145,193.83c0-6.136,4.065-11.135,9.021-11.135h113.616    c4.967,0,9.032,4.999,9.032,11.135v22.997c0,6.115-4.065,11.135-9.032,11.135H193.166c-4.956,0-9.021-5.02-9.021-11.135V193.83z     M307.533,266.578h-13.537c-2.961,0-5.406-2.445-5.406-5.384v-13.537c0-2.982,2.445-5.406,5.406-5.406h13.537    c2.96,0,5.395,2.424,5.395,5.406v13.537C312.928,264.133,310.493,266.578,307.533,266.578z M312.928,276.296v13.537    c0,2.96-2.435,5.406-5.395,5.406h-13.537c-2.961,0-5.406-2.446-5.406-5.406v-13.537c0-2.982,2.445-5.406,5.406-5.406h13.537    C310.493,270.89,312.928,273.314,312.928,276.296z M279.075,289.833c0,2.96-2.414,5.406-5.406,5.406h-13.527    c-2.981,0-5.416-2.446-5.416-5.406v-13.537c0-2.982,2.435-5.406,5.416-5.406h13.527c2.992,0,5.406,2.424,5.406,5.406V289.833z     M279.075,261.193c0,2.939-2.414,5.384-5.406,5.384h-13.527c-2.981,0-5.416-2.445-5.416-5.384v-13.537    c0-2.982,2.435-5.406,5.416-5.406h13.527c2.992,0,5.406,2.424,5.406,5.406V261.193z M245.221,289.833    c0,2.96-2.424,5.406-5.395,5.406H226.3c-2.993,0-5.417-2.446-5.417-5.406v-13.537c0-2.982,2.424-5.406,5.417-5.406h13.526    c2.971,0,5.395,2.424,5.395,5.406V289.833z M245.221,261.193c0,2.939-2.424,5.384-5.395,5.384H226.3    c-2.993,0-5.417-2.445-5.417-5.384v-13.537c0-2.982,2.424-5.406,5.417-5.406h13.526c2.971,0,5.395,2.424,5.395,5.406V261.193z     M211.358,289.833c0,2.96-2.445,5.406-5.395,5.406h-13.548c-2.96,0-5.395-2.446-5.395-5.406v-13.537    c0-2.982,2.435-5.406,5.395-5.406h13.548c2.95,0,5.395,2.424,5.395,5.406V289.833z M211.358,261.193    c0,2.939-2.445,5.384-5.395,5.384h-13.548c-2.96,0-5.395-2.445-5.395-5.384v-13.537c0-2.982,2.435-5.406,5.395-5.406h13.548    c2.95,0,5.395,2.424,5.395,5.406V261.193z M211.358,347.135c0,2.982-2.445,5.427-5.395,5.427h-13.548    c-2.96,0-5.395-2.445-5.395-5.427v-13.516c0-2.981,2.435-5.406,5.395-5.406h13.548c2.95,0,5.395,2.425,5.395,5.406V347.135z     M211.358,318.495c0,2.982-2.445,5.406-5.395,5.406h-13.548c-2.96,0-5.395-2.424-5.395-5.406v-7.423v-6.114    c0-2.982,2.435-5.406,5.395-5.406h13.548c2.95,0,5.395,2.424,5.395,5.406v6.114V318.495z M245.221,347.135    c0,2.982-2.424,5.427-5.395,5.427H226.3c-2.993,0-5.417-2.445-5.417-5.427v-13.516c0-2.981,2.424-5.406,5.417-5.406h13.526    c2.971,0,5.395,2.425,5.395,5.406V347.135z M245.221,318.495c0,2.982-2.424,5.406-5.395,5.406H226.3    c-2.993,0-5.417-2.424-5.417-5.406v-7.423v-6.114c0-2.982,2.424-5.406,5.417-5.406h13.526c2.971,0,5.395,2.424,5.395,5.406v6.114    V318.495z M279.075,347.135c0,2.982-2.414,5.427-5.406,5.427h-13.527c-2.981,0-5.416-2.445-5.416-5.427v-13.516    c0-2.981,2.435-5.406,5.416-5.406h13.527c2.992,0,5.406,2.425,5.406,5.406V347.135z M279.075,318.495    c0,2.982-2.414,5.406-5.406,5.406h-13.527c-2.981,0-5.416-2.424-5.416-5.406v-7.423v-6.114c0-2.982,2.435-5.406,5.416-5.406    h13.527c2.992,0,5.406,2.424,5.406,5.406v6.114V318.495z M312.928,347.135c0,2.982-2.435,5.427-5.395,5.427h-13.537    c-2.961,0-5.406-2.445-5.406-5.427v-13.516c0-2.981,2.445-5.406,5.406-5.406h13.537c2.96,0,5.395,2.425,5.395,5.406V347.135z     M312.928,318.495c0,2.982-2.435,5.406-5.395,5.406h-13.537c-2.961,0-5.406-2.424-5.406-5.406v-7.423v-6.114    c0-2.982,2.445-5.406,5.406-5.406h13.537c2.96,0,5.395,2.424,5.395,5.406v6.114V318.495z" style="fill:#484C4D;"/></g></g><g id="Layer_1"/></svg>