<?xml version="1.0" ?><!DOCTYPE svg  PUBLIC '-//W3C//DTD SVG 1.1//EN'  'http://www.w3.org/Graphics/SVG/1.1/DTD/svg11.dtd'><svg style="enable-background:new 0 0 499.968 384.227;" version="1.1" viewBox="0 0 499.968 384.227" xml:space="preserve" xmlns="http://www.w3.org/2000/svg" xmlns:xlink="http://www.w3.org/1999/xlink"><g id="cloud-web-cam"><g id="cloud-web-cam_1_"><path d="M404.157,119.457c-4.311,0-8.527,0.365-12.689,0.927C387.821,53.285,332.268,0,264.261,0    c-55.51,0-97.806,40.407-115.279,89.943c-9.321-2.441-23.996-8.662-34.078-8.662C51.445,81.281,0,132.72,0,196.19    c0,63.459,51.445,114.893,114.904,114.893c15.403,0,39.152,0,66.569,0c4.538,3.749,9.321,7.219,14.439,10.292    c-5.857,9.632-9.44,20.638-10.309,32.309l0,0c-0.666,8.34,3.626,16.026,5.245,18.627c4.774,7.572,12.132,11.917,20.177,11.917    h93.902c8.023,0,15.382-4.328,20.134-11.868c1.662-2.591,5.974-10.32,5.299-18.686l0.011-0.005    c-0.88-11.665-4.474-22.66-10.331-32.287c5.118-3.068,9.901-6.543,14.459-10.297c31.837,0,57.677,0,69.659,0    c52.915,0,95.811-42.896,95.811-95.822C499.968,162.348,457.072,119.457,404.157,119.457z M296.838,311.083    c-3.25,1.378-6.553,2.644-9.965,3.673c13.451,8.77,22.634,23.454,23.92,40.403c0.429,0.879-2.22,9.439-5.867,9.439h-93.902    c-3.647,0-6.275-8.56-5.857-9.439c1.276-16.948,10.47-31.639,23.921-40.424c-3.423-1.019-6.694-2.279-9.944-3.652    c-35.869-15.151-61.088-50.593-61.11-91.992c0.022-55.199,44.741-99.919,99.951-99.941c55.21,0.022,99.93,44.741,99.93,99.941    C357.916,260.479,332.708,295.899,296.838,311.083z" style="fill:#484C4D;"/><path d="M257.986,165.693c-14.781,0.011-28.093,5.959-37.768,15.635c-9.665,9.68-15.64,22.992-15.64,37.763    c0,14.754,5.975,28.071,15.64,37.758c9.675,9.665,22.986,15.634,37.768,15.634c14.76,0,28.072-5.969,37.758-15.634    c9.654-9.687,15.629-23.004,15.629-37.758c0-14.771-5.975-28.083-15.629-37.763C286.058,171.652,272.746,165.704,257.986,165.693z     M288.086,241.596c-0.709,1.539-1.524,3.025-2.457,4.51c-1.319,2.184-4.226,2.87-6.478,1.577    c-0.161-0.091-0.301-0.182-0.461-0.273c-1.888-1.399-2.467-3.969-1.223-5.97c0.739-1.212,1.405-2.424,1.995-3.673    c1.094-2.29,3.916-3.278,6.296-2.227C288.149,236.613,289.2,239.294,288.086,241.596z M292.311,226.9    c-0.279,2.537-2.627,4.301-5.224,4.039c-0.89-0.102-1.716-0.419-2.337-0.906c-1.309-0.95-2.081-2.489-1.899-4.141    c1.47-13.081-3.98-26.484-15.682-35.001c-2.081-1.507-2.5-4.377-0.912-6.388c1.608-2,4.547-2.413,6.661-0.858    C287.345,194.178,294.177,210.789,292.311,226.9z" style="fill:#484C4D;"/><path d="M257.353,135.906c-45.17,0-81.811,36.626-81.811,81.813c0,45.175,36.642,81.817,81.811,81.817    c45.181,0,81.813-36.642,81.813-81.817C339.166,172.532,302.534,135.906,257.353,135.906z M257.353,285.896    c-37.596,0-68.178-30.582-68.178-68.178c0-37.592,30.582-68.179,68.178-68.179c37.597,0,68.168,30.587,68.168,68.179    C325.521,255.315,294.951,285.896,257.353,285.896z" style="fill:#484C4D;"/></g></g><g id="Layer_1"/></svg>