<?xml version="1.0" ?><!DOCTYPE svg  PUBLIC '-//W3C//DTD SVG 1.1//EN'  'http://www.w3.org/Graphics/SVG/1.1/DTD/svg11.dtd'><svg style="enable-background:new 0 0 499.968 392.574;" version="1.1" viewBox="0 0 499.968 392.574" xml:space="preserve" xmlns="http://www.w3.org/2000/svg" xmlns:xlink="http://www.w3.org/1999/xlink"><g id="cloud-dia-movie"><g id="cloud-dia-movie_1_"><path d="M404.168,119.452c-4.323,0-8.528,0.387-12.701,0.945C387.821,53.312,332.268,0,264.25,0    c-55.499,0-97.783,40.418-115.252,89.954c-9.327-2.446-24.017-8.668-34.1-8.668C51.439,81.286,0,132.731,0,196.191    c0,63.48,51.439,114.903,114.898,114.903c7.756,0,17.624,0,28.978,0v57.988c0,12.958,10.55,23.492,23.508,23.492h15.805    c13.478,0,23.722-9.955,24.098-23.277h103.56c0.3,13.323,10.577,23.277,24.124,23.277h15.79c12.958,0,23.501-10.534,23.501-23.492    v-57.988c13.097,0,23.492,0,29.906,0c52.893,0,95.8-42.885,95.8-95.832C499.968,162.359,457.061,119.452,404.168,119.452z     M356.081,369.082c0,2.939-2.392,5.321-5.321,5.321c0,0-12.025,0-15.79,0c-3.765,0-5.953-2.167-5.953-5.728    c0-3.54,0-12.229,0-12.229c0-2.939-2.392-5.321-5.321-5.321H194.441c-2.928,0-5.32,2.381-5.32,5.321c0,0,0,8.431,0,12.078    c0,3.669-2.221,5.879-5.932,5.879c-3.717,0-15.805,0-15.805,0c-2.918,0-5.326-2.381-5.326-5.321v-57.988V134.298    c0-2.939,2.408-5.342,5.326-5.342c0,0,13.816,0,16.835,0c2.998,0,4.902,2.038,4.902,4.72c0,2.659,0,8.795,0,8.795    c0,2.939,2.391,5.343,5.32,5.343h129.256c2.928,0,5.321-2.403,5.321-5.343c0,0,0-4.054,0-7.658c0-3.626,2.296-5.857,6.168-5.857    c3.883,0,15.575,0,15.575,0c2.928,0,5.321,2.402,5.321,5.342v176.796V369.082z" style="fill:#484C4D;"/><path d="M169.69,343.918c-0.274,0-0.51,0.214-0.51,0.515v11.691c0,0.279,0.236,0.515,0.51,0.515h12.373    c0.273,0,0.504-0.236,0.504-0.515v-11.691c0-0.301-0.231-0.515-0.504-0.515H169.69z" style="fill:#484C4D;"/><path d="M336.837,343.918c-0.29,0-0.515,0.214-0.515,0.515v11.691c0,0.279,0.225,0.515,0.515,0.515h12.357    c0.279,0,0.515-0.236,0.515-0.515v-11.691c0-0.301-0.236-0.515-0.515-0.515H336.837z" style="fill:#484C4D;"/><path d="M336.837,146.355c-0.29,0-0.515,0.235-0.515,0.514v11.693c0,0.279,0.225,0.515,0.515,0.515h12.357    c0.279,0,0.515-0.236,0.515-0.515v-11.693c0-0.279-0.236-0.514-0.515-0.514H336.837z" style="fill:#484C4D;"/><path d="M336.837,304.422c-0.29,0-0.515,0.214-0.515,0.493v6.179v5.514c0,0.278,0.225,0.493,0.515,0.493    h12.357c0.279,0,0.515-0.215,0.515-0.493v-5.514v-6.179c0-0.279-0.236-0.493-0.515-0.493H336.837z" style="fill:#484C4D;"/><path d="M169.69,304.422c-0.274,0-0.51,0.214-0.51,0.493v6.179v5.514c0,0.278,0.236,0.493,0.51,0.493    h12.373c0.273,0,0.504-0.215,0.504-0.493v-5.514v-6.179c0-0.279-0.231-0.493-0.504-0.493H169.69z" style="fill:#484C4D;"/><path d="M323.697,185.207H194.441c-2.928,0-5.32,2.381-5.32,5.32v120.568v1.76    c0,2.917,2.391,5.32,5.32,5.32h129.256c2.928,0,5.321-2.402,5.321-5.32v-1.76V190.526    C329.018,187.588,326.625,185.207,323.697,185.207z M243.521,231.052c0-1.481,1.089-2.145,2.392-1.502l41.656,20.487    c1.309,0.622,1.309,1.717,0.022,2.381l-41.689,21.196c-1.293,0.644-2.381,0-2.381-1.459V231.052z" style="fill:#484C4D;"/><path d="M336.837,185.871c-0.29,0-0.515,0.236-0.515,0.515v11.691c0,0.279,0.225,0.515,0.515,0.515h12.357    c0.279,0,0.515-0.236,0.515-0.515v-11.691c0-0.279-0.236-0.515-0.515-0.515H336.837z" style="fill:#484C4D;"/><path d="M169.69,264.884c-0.274,0-0.51,0.214-0.51,0.514v11.715c0,0.278,0.236,0.493,0.51,0.493h12.373    c0.273,0,0.504-0.215,0.504-0.493v-11.715c0-0.3-0.231-0.514-0.504-0.514H169.69z" style="fill:#484C4D;"/><path d="M169.69,225.389c-0.274,0-0.51,0.214-0.51,0.514v11.693c0,0.257,0.236,0.515,0.51,0.515h12.373    c0.273,0,0.504-0.258,0.504-0.515v-11.693c0-0.3-0.231-0.514-0.504-0.514H169.69z" style="fill:#484C4D;"/><path d="M169.69,185.871c-0.274,0-0.51,0.236-0.51,0.515v11.691c0,0.279,0.236,0.515,0.51,0.515h12.373    c0.273,0,0.504-0.236,0.504-0.515v-11.691c0-0.279-0.231-0.515-0.504-0.515H169.69z" style="fill:#484C4D;"/><path d="M336.837,225.389c-0.29,0-0.515,0.214-0.515,0.514v11.693c0,0.257,0.225,0.515,0.515,0.515h12.357    c0.279,0,0.515-0.258,0.515-0.515v-11.693c0-0.3-0.236-0.514-0.515-0.514H336.837z" style="fill:#484C4D;"/><path d="M336.837,264.884c-0.29,0-0.515,0.214-0.515,0.514v11.715c0,0.278,0.225,0.493,0.515,0.493h12.357    c0.279,0,0.515-0.215,0.515-0.493v-11.715c0-0.3-0.236-0.514-0.515-0.514H336.837z" style="fill:#484C4D;"/><path d="M169.69,146.355c-0.274,0-0.51,0.235-0.51,0.514v11.693c0,0.279,0.236,0.515,0.51,0.515h12.373    c0.273,0,0.504-0.236,0.504-0.515v-11.693c0-0.279-0.231-0.514-0.504-0.514H169.69z" style="fill:#484C4D;"/></g></g><g id="Layer_1"/></svg>