<?xml version="1.0" ?><!DOCTYPE svg  PUBLIC '-//W3C//DTD SVG 1.1//EN'  'http://www.w3.org/Graphics/SVG/1.1/DTD/svg11.dtd'><svg style="enable-background:new 0 0 499.974 404.909;" version="1.1" viewBox="0 0 499.974 404.909" xml:space="preserve" xmlns="http://www.w3.org/2000/svg" xmlns:xlink="http://www.w3.org/1999/xlink"><g id="cloud-magnifier"><g id="cloud-magnifier_1_"><path d="M499.974,215.262c0-52.926-42.896-95.811-95.821-95.811c-4.323,0-8.517,0.387-12.679,0.945    C387.826,53.268,332.262,0,264.267,0c-55.521,0-97.794,40.418-115.268,89.932c-9.322-2.445-24.022-8.646-34.1-8.646    C51.439,81.286,0,132.711,0,196.191c0,63.436,51.439,114.881,114.899,114.881c18.45,0,48.779,0,83.142,0    c18.712,17.464,43.737,28.233,71.279,28.233c17.248,0,33.477-4.249,47.83-11.671c1.79,3.561,3.989,6.886,6.886,9.782l6.018,6.028    c0.879,0.858,1.823,1.587,2.832,2.253c0.644,1.029,1.394,1.995,2.263,2.854l45.395,45.395c7.08,7.057,16.466,10.962,26.485,10.962    c9.997,0,19.404-3.905,26.452-10.941c7.068-7.079,10.973-16.476,10.973-26.495c0-9.997-3.905-19.393-10.962-26.452l-29.938-29.949    c0.182,0,0.418,0,0.601,0C457.078,311.072,499.974,268.187,499.974,215.262z M269.319,322.143    c-15.452,0-29.938-4.033-42.537-11.071c-26.8-14.953-44.945-43.55-44.961-76.416c0.016-48.312,39.175-87.486,87.498-87.486    c48.312,0,87.475,39.174,87.486,87.486c-0.011,14.095-3.422,27.374-9.343,39.174c-7.658,15.254-19.619,27.932-34.346,36.47    c-0.429,0.258-0.837,0.537-1.266,0.772C299.257,318.109,284.776,322.143,269.319,322.143z M330.257,311.072    c-0.021-5.213,1.942-10.447,5.922-14.437c5.61-5.6,13.654-7.144,20.692-4.806c2.456,0.815,4.763,2.102,6.822,3.883    c0.365,0.322,0.772,0.579,1.115,0.923l6.018,6.028l-8.4,8.409l-20.208,20.23l-6.039-6.049c-0.354-0.344-0.601-0.729-0.912-1.116    c-1.501-1.717-2.746-3.626-3.561-5.643C330.761,316.114,330.279,313.604,330.257,311.072z M421.326,353.185    c7.916,7.895,7.916,20.703,0,28.597c-7.894,7.916-20.713,7.916-28.618,0l-38.358-38.337l-7.047-7.058l25.336-25.315l3.304-3.303    l3.304,3.303l3.732,3.733L421.326,353.185z" style="fill:#484C4D;"/><path d="M311.453,276.79c1.148-1.158,2.242-2.38,3.304-3.647c8.796-10.383,14.127-23.77,14.138-38.487    c-0.011-16.454-6.672-31.322-17.442-42.134c-10.823-10.77-25.68-17.442-42.145-17.442c-16.465,0-31.322,6.672-42.124,17.442    c-10.796,10.812-17.451,25.68-17.451,42.134c0,16.476,6.655,31.343,17.451,42.134c10.802,10.77,25.659,17.464,42.124,17.464    c16.037,0,30.517-6.35,41.233-16.647C310.852,277.327,311.163,277.069,311.453,276.79z M269.126,200.202    c-2.543-1.073-3.754-3.991-2.649-6.543c1.062-2.553,3.99-3.734,6.554-2.66c19.265,8.152,33.874,25.122,38.776,45.888    c0.633,2.703-1.029,5.385-3.721,6.007c-0.387,0.108-0.751,0.15-1.138,0.15c-2.263,0-4.322-1.544-4.869-3.862    C297.937,221.569,285.483,207.132,269.126,200.202z M303.794,253.448c0-2.767,2.232-4.998,4.988-4.998    c2.779,0,5.01,2.231,5.01,4.998c0,2.768-2.231,4.999-5.01,4.999C306.026,258.447,303.794,256.216,303.794,253.448z" style="fill:#484C4D;"/></g></g><g id="Layer_1"/></svg>