<?xml version="1.0" ?><!DOCTYPE svg  PUBLIC '-//W3C//DTD SVG 1.1//EN'  'http://www.w3.org/Graphics/SVG/1.1/DTD/svg11.dtd'><svg style="enable-background:new 0 0 499.978 417.115;" version="1.1" viewBox="0 0 499.978 417.115" xml:space="preserve" xmlns="http://www.w3.org/2000/svg" xmlns:xlink="http://www.w3.org/1999/xlink"><g id="cloud-play"><g id="cloud-play_1_"><path d="M404.168,119.43c-4.312,0-8.534,0.408-12.695,0.965C387.821,53.268,332.268,0,264.26,0    c-55.52,0-97.794,40.396-115.268,89.932c-9.31-2.446-24.017-8.646-34.095-8.646C51.434,81.286,0,132.709,0,196.169    c0,63.48,51.434,114.903,114.898,114.903c4.393,0,9.531,0,15.173,0c11.483,57.559,60.524,101.924,120.347,106    c0.408,0.021,0.81,0.043,1.217,0.043c2.736,0,5.401-0.622,7.815-1.781c2.43,1.159,5.094,1.781,7.809,1.781    c0.413,0,0.842-0.021,1.239-0.043c59.843-4.076,108.897-48.441,120.39-106c6.297,0,11.505,0,15.281,0    c52.908,0,95.81-42.885,95.81-95.811C499.978,162.358,457.077,119.43,404.168,119.43z M267.259,171.604    c56.712,3.883,102.01,49.171,105.835,105.829h-51.043c-3.513-28.597-26.167-51.252-54.792-54.792V171.604z M251.635,171.604    v51.037c-28.597,3.54-51.257,26.195-54.813,54.792h-50.978C149.668,220.775,194.982,175.487,251.635,171.604z M251.635,398.923    c-50.489-3.433-91.9-39.817-103.028-87.851c-1.352-5.836-2.344-11.842-2.762-18h50.978c0.804,6.372,2.666,12.379,5.208,18    c8.861,19.694,27.358,34.089,49.605,36.814V398.923z M243.242,323.965v-12.893v-65.11l50.839,38.1l-34.416,27.01L243.242,323.965z     M267.259,398.923v-51.037c22.247-2.746,40.772-17.119,49.627-36.814c2.521-5.621,4.387-11.628,5.165-18h51.043    c-0.398,6.158-1.395,12.164-2.742,18C359.218,359.106,317.813,395.49,267.259,398.923z" style="fill:#484C4D;"/></g></g><g id="Layer_1"/></svg>