<?xml version="1.0" ?><!DOCTYPE svg  PUBLIC '-//W3C//DTD SVG 1.1//EN'  'http://www.w3.org/Graphics/SVG/1.1/DTD/svg11.dtd'><svg style="enable-background:new 0 0 499.973 397.099;" version="1.1" viewBox="0 0 499.973 397.099" xml:space="preserve" xmlns="http://www.w3.org/2000/svg" xmlns:xlink="http://www.w3.org/1999/xlink"><g id="cloud-thumb-up"><g id="cloud-thumb-up_1_"><path d="M404.168,119.452c-4.318,0-8.528,0.387-12.701,0.944C387.826,53.29,332.273,0,264.256,0    c-55.5,0-97.794,40.418-115.263,89.954c-9.327-2.446-24-8.667-34.089-8.667C51.45,81.286,0,132.731,0,196.19    c0,63.459,51.45,114.882,114.903,114.882c0.627,0,1.33,0,1.99,0v67.835c0,10.041,8.141,18.192,18.171,18.192h36.459    c11.628,0,22.033-5.362,28.902-13.687c0.751-0.192,1.475-0.428,2.204-0.707c0.07-0.043,7.627-2.681,16.906-2.681    c5.518,0,10.528,0.922,14.85,2.767c13.211,5.578,31.467,8.409,54.245,8.409c7.445,0,13.086-0.343,15.082-0.45h50.082    c18.563,0,33.682-16.004,33.682-35.633c0-3.561-0.499-7.058-1.459-10.383c4.152-5.943,6.554-13.302,6.554-21.153    c0-3.669-0.558-7.252-1.566-10.641c0.446-0.601,0.783-1.265,1.191-1.866c4.768,0,8.871,0,11.972,0    c52.904,0,95.804-42.885,95.804-95.81C499.973,162.358,457.072,119.452,404.168,119.452z M190.751,359.663    c0,10.599-8.668,19.244-19.228,19.244h-36.459v-67.835v-74.014h36.459c10.56,0,19.228,8.646,19.228,19.222v54.792V359.663z     M374.391,323.579c0,8.302-5.137,15.21-12.002,16.991c4.151,3.132,6.908,8.473,6.908,14.545c0,9.611-6.946,17.442-15.501,17.442    H303.07c0,0-38.976,3.046-61.592-6.522c-21.915-9.267-45.348-0.3-45.348-0.3v-54.663v-55.114c0,0,15.162,1.266,21.464-1.695    c6.324-2.938,23.17-18.084,30.738-27.353c7.578-9.267,15.628-17.849,17.308-38.874c1.667-21.045,18.069-34.368,33.649-17.935    c14.171,14.954,4.951,40.011-10.78,67.556h68.055c8.538,0,15.479,7.81,15.479,17.442c0,7.531-4.259,13.966-10.239,16.39h2.301    c9.053,0,16.407,8.259,16.407,18.471c0,9.376-6.201,17.099-14.234,18.279c1.239,0.772,2.37,1.738,3.39,2.832    C372.552,314.247,374.391,318.666,374.391,323.579z" style="fill:#484C4D;"/><path d="M159.58,341.793c-7.176,0-12.99,5.814-12.99,12.979c0,7.144,5.814,12.958,12.99,12.958    c7.144,0,12.958-5.814,12.958-12.958C172.538,347.607,166.724,341.793,159.58,341.793z" style="fill:#484C4D;"/></g></g><g id="Layer_1"/></svg>