<?xml version="1.0" ?><!DOCTYPE svg  PUBLIC '-//W3C//DTD SVG 1.1//EN'  'http://www.w3.org/Graphics/SVG/1.1/DTD/svg11.dtd'><svg style="enable-background:new 0 0 499.978 394.332;" version="1.1" viewBox="0 0 499.978 394.332" xml:space="preserve" xmlns="http://www.w3.org/2000/svg" xmlns:xlink="http://www.w3.org/1999/xlink"><g id="cloud-arrow-up"><g id="cloud-arrow-up_1_"><path d="M404.147,119.474c-4.312,0-8.517,0.365-12.668,0.901C387.81,53.312,332.257,0,264.261,0    c-55.521,0-97.796,40.418-115.269,89.954c-9.321-2.446-24.017-8.668-34.111-8.668C51.434,81.286,0,132.731,0,196.212    c0,63.437,51.434,114.882,114.881,114.882c20.595,0,55.972,0,95.264,0v24.307c0,2.359,0.482,4.591,1.276,6.629    c-0.794,2.081-1.276,4.27-1.276,6.629v27.482c0,10.039,8.141,18.192,18.182,18.192h60.809c10.05,0,18.182-8.152,18.182-18.192    v-27.482c0-2.359-0.472-4.547-1.287-6.629c0.815-2.038,1.287-4.27,1.287-6.629v-24.307c43.947,0,81.597,0,96.829,0    c52.925,0,95.831-42.906,95.831-95.832C499.978,162.359,457.072,119.474,404.147,119.474z M334.789,246.263h-45.513v43.442v1.953    h-60.348v-1.974v-43.421H184.67c0,0-14.171,0.365-7.702-12.894l72.115-95.874c0,0,11.135-15.575,23.545,0.536l69.594,96.797    C345.633,246.455,334.789,246.263,334.789,246.263z M289.136,376.14h-60.809v-22.548v-4.934h60.809v4.934V376.14z     M289.136,330.467v4.934h-60.809v-4.934v-19.373v-1.308v-1.91h60.809v1.974v1.245V330.467z" style="fill:#484C4D;"/></g></g><g id="Layer_1"/></svg>