<?xml version="1.0" ?><!DOCTYPE svg  PUBLIC '-//W3C//DTD SVG 1.1//EN'  'http://www.w3.org/Graphics/SVG/1.1/DTD/svg11.dtd'><svg style="enable-background:new 0 0 499.968 394.096;" version="1.1" viewBox="0 0 499.968 394.096" xml:space="preserve" xmlns="http://www.w3.org/2000/svg" xmlns:xlink="http://www.w3.org/1999/xlink"><g id="hard-disk-hdd"><g id="hard-disk-hdd_1_"><path d="M404.137,119.473c-4.312,0-8.506,0.365-12.668,0.923C387.822,53.289,332.247,0,264.261,0    c-55.52,0-97.795,40.417-115.279,89.953c-9.31-2.445-24.017-8.668-34.089-8.668C51.435,81.285,0,132.73,0,196.19    c0,63.458,51.435,114.903,114.893,114.903c6.361,0,14.213,0,23.105,0c1.019,14.503,9.246,27.053,21.207,33.896h-18.846    c-10.041,0-18.193,8.152-18.193,18.192v6.114c0,10.04,8.152,18.171,18.193,18.171h56.926c3.325,4.055,8.389,6.629,14.03,6.629    h82.198c5.654,0,10.705-2.574,14.031-6.629h56.947c10.051,0,18.171-8.131,18.171-18.171v-6.114    c0-10.04-8.119-18.192-18.171-18.192h-18.858c11.972-6.844,20.21-19.394,21.218-33.896c16.627,0,29.745,0,37.285,0    c52.937,0,95.832-42.906,95.832-95.832C499.968,162.358,457.073,119.473,404.137,119.473z M324.588,215.369H180.251    c-13.408,0-24.275-10.856-24.275-24.264c0-13.408,10.867-24.285,24.275-24.285h144.337c13.419,0,24.275,10.876,24.275,24.285    C348.863,204.513,338.007,215.369,324.588,215.369z M348.863,249.629c0,13.387-10.856,24.264-24.275,24.264H180.251    c-13.408,0-24.275-10.876-24.275-24.264c0-13.408,10.867-24.285,24.275-24.285h144.337    C338.007,225.345,348.863,236.221,348.863,249.629z M206.23,369.296h-65.871v-6.114h65.871V369.296z M293.513,375.903h-82.198    v-18.514h35.538v-19.158h11.135v19.158h35.526V375.903z M364.491,363.182v6.114h-65.882v-6.114H364.491z M324.588,332.418H180.251    c-12.389,0-22.515-9.332-23.974-21.325c-0.119-0.966-0.301-1.952-0.301-2.96c0-13.387,10.867-24.264,24.275-24.264h144.337    c13.419,0,24.275,10.876,24.275,24.264c0,1.008-0.182,1.995-0.301,2.96C347.103,323.085,336.988,332.418,324.588,332.418z" style="fill:#484C4D;"/><path d="M321.402,241.328c-4.58,0-8.303,3.712-8.303,8.302c0,4.569,3.723,8.303,8.303,8.303    s8.313-3.733,8.313-8.303C329.715,245.039,325.983,241.328,321.402,241.328z" style="fill:#484C4D;"/><path d="M321.402,182.802c-4.58,0-8.303,3.733-8.303,8.303c0,4.591,3.723,8.303,8.303,8.303    s8.313-3.712,8.313-8.303C329.715,186.536,325.983,182.802,321.402,182.802z" style="fill:#484C4D;"/><path d="M321.402,299.83c-4.58,0-8.303,3.733-8.303,8.303c0,1.051,0.236,2.038,0.601,2.96    c1.18,3.111,4.162,5.364,7.702,5.364c3.518,0,6.511-2.253,7.712-5.364c0.344-0.923,0.601-1.909,0.601-2.96    C329.715,303.563,325.983,299.83,321.402,299.83z" style="fill:#484C4D;"/></g></g><g id="Layer_1"/></svg>