<?xml version="1.0" ?><!DOCTYPE svg  PUBLIC '-//W3C//DTD SVG 1.1//EN'  'http://www.w3.org/Graphics/SVG/1.1/DTD/svg11.dtd'><svg style="enable-background:new 0 0 499.968 398.58;" version="1.1" viewBox="0 0 499.968 398.58" xml:space="preserve" xmlns="http://www.w3.org/2000/svg" xmlns:xlink="http://www.w3.org/1999/xlink"><g id="cloud-speech-bubble"><g id="cloud-speech-bubble_1_"><path d="M404.137,119.446c-4.301,0-8.517,0.376-12.669,0.934C387.81,53.285,332.257,0,264.25,0    c-55.51,0-97.784,40.407-115.257,89.938c-9.311-2.435-24.018-8.662-34.1-8.662C51.434,81.275,0,132.715,0,196.185    c0,63.464,51.434,114.887,114.893,114.887c6.414,0,14.352,0,23.319,0c20.757,21.862,50.189,37.007,83.593,41.045    c-4.173,4.785-8.839,8.775-11.992,10.947c-8.024,5.466-10.77,15.994-6.469,24.693c3.358,6.785,10.212,10.823,17.42,10.823    c2.059,0,4.162-0.327,6.211-1.008c67.116-22.536,101.184-59.838,117.821-86.499c27.053,0,48.688,0,59.34,0    c52.935,0,95.832-42.885,95.832-95.81C499.968,162.348,457.072,119.446,404.137,119.446z M334.896,289.007    c-2.876,5.857-7.326,13.538-13.741,22.065c-16.626,22.119-46.898,50.105-100.391,68.061c0,0,29.649-20.059,29.821-45.84    c-3.54,0.305-7.133,0.456-10.759,0.456c-27.514,0-52.743-8.517-72.405-22.676c-25.186-18.128-41.222-45.524-41.222-76.191    c0-54.593,50.876-98.862,113.627-98.862s113.627,44.269,113.627,98.862C353.453,254.875,346.61,273.454,334.896,289.007z" style="fill:#484C4D;"/><path d="M239.826,220.39c-8.013,0-14.492,6.484-14.492,14.491s6.479,14.497,14.492,14.497    c8.002,0,14.491-6.489,14.491-14.497S247.828,220.39,239.826,220.39z" style="fill:#484C4D;"/><path d="M178.469,220.39c-8.012,0-14.491,6.484-14.491,14.491s6.48,14.497,14.491,14.497    c8.003,0,14.513-6.489,14.513-14.497S186.472,220.39,178.469,220.39z" style="fill:#484C4D;"/><path d="M301.171,220.39c-8.012,0-14.512,6.484-14.512,14.491s6.5,14.497,14.512,14.497    c8.003,0,14.503-6.489,14.503-14.497S309.174,220.39,301.171,220.39z" style="fill:#484C4D;"/></g></g><g id="Layer_1"/></svg>