<?xml version="1.0" ?><!DOCTYPE svg  PUBLIC '-//W3C//DTD SVG 1.1//EN'  'http://www.w3.org/Graphics/SVG/1.1/DTD/svg11.dtd'><svg style="enable-background:new 0 0 499.973 375.233;" version="1.1" viewBox="0 0 499.973 375.233" xml:space="preserve" xmlns="http://www.w3.org/2000/svg" xmlns:xlink="http://www.w3.org/1999/xlink"><g id="cloud-envelope-open"><g id="cloud-envelope-open_1_"><path d="M404.152,119.452c-4.312,0-8.528,0.381-12.673,0.939C387.815,53.285,332.262,0,264.267,0    c-55.521,0-97.796,40.413-115.269,89.943c-9.327-2.446-24.022-8.662-34.106-8.662C51.439,81.281,0,132.715,0,196.189    c0,61.062,47.658,110.845,107.77,114.534v38.53c0,7.46,4.558,14.169,11.505,16.915c0.992,0.392,2.032,0.692,3.057,0.902    c3.319,5.036,8.984,8.162,15.162,8.162h228.552c7.208,0,13.73-4.259,16.642-10.854c0.515-1.196,0.912-2.441,1.174-3.68    c5.123-3.298,8.335-9.027,8.335-15.302v-34.314c4.779,0,8.872,0,11.955,0c52.931,0,95.821-42.885,95.821-95.815    C499.973,162.342,457.083,119.452,404.152,119.452z M252.617,89.235l86.977,82.317l24.022,22.724h-226.6l25.014-22.724    L252.617,89.235z M125.952,349.254v-38.171V198.422l79.774,65.54l-44.07,47.122L125.952,349.254z M137.494,357.047l42.997-45.964    l35.908-38.369l31.944,26.26l4.467,3.652l4.366-3.738l31.198-26.704l35.596,38.9l42.076,45.964H137.494z M374.026,345.397    l-31.412-34.314l-43.77-47.845l75.183-64.323v112.168V345.397z" style="fill:#484C4D;"/></g></g><g id="Layer_1"/></svg>