<?xml version="1.0" ?><!DOCTYPE svg  PUBLIC '-//W3C//DTD SVG 1.1//EN'  'http://www.w3.org/Graphics/SVG/1.1/DTD/svg11.dtd'><svg style="enable-background:new 0 0 499.984 375.233;" version="1.1" viewBox="0 0 499.984 375.233" xml:space="preserve" xmlns="http://www.w3.org/2000/svg" xmlns:xlink="http://www.w3.org/1999/xlink"><g id="cloud-envelope-closed"><g id="cloud-envelope-closed_1_"><path d="M404.157,119.446c-4.307,0-8.517,0.387-12.679,0.939C387.826,53.285,332.273,0,264.267,0    c-55.51,0-97.794,40.413-115.274,89.943c-9.316-2.446-24.022-8.662-34.1-8.662C51.439,81.281,0,132.715,0,196.189    c0,61.062,47.648,110.845,107.787,114.534v38.53c0,7.466,4.564,14.165,11.515,16.911c0.982,0.397,2.006,0.696,3.031,0.912    c3.319,5.031,8.994,8.157,15.172,8.157h228.557c7.209,0,13.72-4.259,16.632-10.86c0.526-1.196,0.917-2.43,1.17-3.68    c5.132-3.293,8.35-9.021,8.35-15.297v-34.314c4.774,0,8.855,0,11.944,0c52.926,0,95.826-42.89,95.826-95.82    C499.984,162.348,457.083,119.446,404.157,119.446z M363.627,189.728l-111.01,94.946l-115.59-94.946H363.627z M125.969,349.254    v-38.171V198.431l79.757,65.53l-44.07,47.122L125.969,349.254z M137.504,357.047l43.015-45.964l35.885-38.369l31.939,26.26    l4.473,3.652l4.376-3.743l31.194-26.699l35.602,38.9l42.074,45.964H137.504z M374.031,345.397l-31.397-34.314l-43.78-47.851    l75.177-64.323v112.174V345.397z" style="fill:#484C4D;"/></g></g><g id="Layer_1"/></svg>