<?xml version="1.0" ?><!DOCTYPE svg  PUBLIC '-//W3C//DTD SVG 1.1//EN'  'http://www.w3.org/Graphics/SVG/1.1/DTD/svg11.dtd'><svg style="enable-background:new 0 0 499.973 391.393;" version="1.1" viewBox="0 0 499.973 391.393" xml:space="preserve" xmlns="http://www.w3.org/2000/svg" xmlns:xlink="http://www.w3.org/1999/xlink"><g id="cloud-telephone"><g id="cloud-telephone_1_"><path d="M404.146,119.452c-4.318,0-8.528,0.387-12.679,0.923C387.804,53.29,332.251,0,264.256,0    c-55.521,0-97.794,40.418-115.263,89.932c-9.327-2.424-24.022-8.646-34.111-8.646C51.428,81.286,0,132.711,0,196.191    c0,63.458,51.428,114.881,114.881,114.881c4.206,0,9.112,0,14.47,0c-4.724,5.106-9.107,11.285-11.445,18.729    c-1.56,4.484-2.348,9.139-2.348,13.859c0,0.365,0,23.534,0,23.534c0,13.345,10.85,24.199,24.183,24.199h204.23    c13.343,0,24.188-10.854,24.188-24.199c0,0,0-23.127,0-23.534c0-4.655-0.782-9.289-2.333-13.773    c-2.311-7.423-6.64-13.708-11.338-18.815c22.483,0,40.31,0,49.659,0c52.926,0,95.826-42.885,95.826-95.81    C499.973,162.337,457.072,119.452,404.146,119.452z M253.067,222.191c-4.644-0.064-8.244,0.043-9.617,0.087v0.043    c0,0-0.129,0-0.305-0.022c-0.193,0.022-0.322,0.022-0.322,0.022v-0.043c-1.561-0.044-5.985-0.15-11.628,0.086    c-15.961,0.601-41.903,3.904-42.316,18.664c1.872,2.274,3.185,5.063,3.663,8.195c1.437,9.353-4.972,18.085-14.342,19.522    l-27.685,4.227c-9.332,1.437-18.085-4.999-19.496-14.331c-0.065-0.387-0.08-0.751-0.145-1.137    c-0.069-0.601-4.398-30.163,26.64-49.622c28.543-17.87,81.212-16.926,85.486-16.819c4.28-0.15,56.921-1.566,85.631,16.067    c31.215,19.158,27.166,48.764,27.058,49.365c-0.022,0.365-0.032,0.75-0.086,1.115c-1.347,9.354-10.03,15.876-19.389,14.524    l-27.728-3.968c-9.369-1.352-15.881-10.041-14.513-19.393c0.451-3.154,1.738-5.944,3.578-8.26    C296.993,225.13,268.75,222.492,253.067,222.191z M326.631,312.145c0,0,17.769,9.483,21.92,23.406    c0.906,2.553,1.427,5.256,1.427,8.108c0,0.666-0.037,1.33-0.091,1.974h0.091v21.561c0,3.304-2.703,6.007-6.007,6.007H139.74    c-3.303,0-6.006-2.703-6.006-6.007v-21.561h0.091c-0.027-0.644-0.091-1.308-0.091-1.974c0-2.853,0.52-5.578,1.442-8.13    c4.156-13.901,21.909-23.384,21.909-23.384c0.521-0.365,0.96-0.708,1.459-1.073c17.732-12.679,27.493-23.727,32.829-32.845    c3.486-2.06,6.571-4.827,9.032-8.195c4.869-6.629,6.854-14.738,5.626-22.869c-0.333-2.124-0.88-4.227-1.641-6.243    c2.724-1.373,7.82-2.96,15.574-3.991c1.717,2.145,2.784,4.827,2.784,7.788v1.738c4.806,2.039,18.123,5.985,38.326-0.214v-1.523    c0-3.174,1.202-6.007,3.127-8.216c8.999,0.944,14.861,2.618,17.86,4.076c-0.74,2.017-1.282,4.097-1.583,6.221    c-1.18,8.152,0.88,16.24,5.808,22.848c1.019,1.329,2.167,2.51,3.341,3.647c4.446,9.911,14.256,22.59,35.549,37.779    C325.676,311.437,326.11,311.78,326.631,312.145z" style="fill:#484C4D;"/><path d="M247.516,334.8h-11.118c-1.63,0-2.966,1.33-2.966,2.96v11.092c0,1.63,1.336,2.96,2.966,2.96h11.118    c1.626,0,2.967-1.33,2.967-2.96V337.76C250.483,336.13,249.142,334.8,247.516,334.8z" style="fill:#484C4D;"/><path d="M275.813,334.8h-11.096c-1.631,0-2.971,1.33-2.971,2.96v11.092c0,1.63,1.34,2.96,2.971,2.96h11.096    c1.626,0,2.966-1.33,2.966-2.96V337.76C278.779,336.13,277.439,334.8,275.813,334.8z" style="fill:#484C4D;"/><path d="M219,334.8h-11.114c-1.625,0-2.949,1.33-2.949,2.96v11.092c0,1.63,1.325,2.96,2.949,2.96H219    c1.63,0,2.966-1.33,2.966-2.96V337.76C221.966,336.13,220.63,334.8,219,334.8z" style="fill:#484C4D;"/><path d="M219,308.863h-11.114c-1.34,0-2.274,1.008-2.649,2.209c-0.064,0.258-0.3,0.472-0.3,0.751v11.134    c0,1.609,1.325,2.938,2.949,2.938H219c1.63,0,2.966-1.329,2.966-2.938v-11.134c0-0.279-0.236-0.493-0.322-0.751    C221.295,309.871,220.325,308.863,219,308.863z" style="fill:#484C4D;"/><path d="M275.813,308.863h-11.096c-1.347,0-2.29,1.008-2.645,2.209c-0.091,0.258-0.326,0.472-0.326,0.751    v11.134c0,1.609,1.34,2.938,2.971,2.938h11.096c1.626,0,2.966-1.329,2.966-2.938v-11.134c0-0.279-0.235-0.493-0.322-0.751    C278.109,309.871,277.149,308.863,275.813,308.863z" style="fill:#484C4D;"/><path d="M247.516,308.863h-11.118c-1.346,0-2.295,1.008-2.665,2.209c-0.07,0.258-0.301,0.472-0.301,0.751    v11.134c0,1.609,1.336,2.938,2.966,2.938h11.118c1.626,0,2.967-1.329,2.967-2.938v-11.134c0-0.279-0.236-0.493-0.322-0.751    C249.806,309.871,248.842,308.863,247.516,308.863z" style="fill:#484C4D;"/><path d="M247.516,282.947h-11.118c-1.63,0-2.966,1.351-2.966,2.96v11.113c0,1.631,1.336,2.982,2.966,2.982    h11.118c1.626,0,2.967-1.351,2.967-2.982v-11.113C250.483,284.298,249.142,282.947,247.516,282.947z" style="fill:#484C4D;"/><path d="M219,282.947h-11.114c-1.625,0-2.949,1.351-2.949,2.96v11.113c0,1.631,1.325,2.982,2.949,2.982H219    c1.63,0,2.966-1.351,2.966-2.982v-11.113C221.966,284.298,220.63,282.947,219,282.947z" style="fill:#484C4D;"/><path d="M275.813,282.947h-11.096c-1.631,0-2.971,1.351-2.971,2.96v11.113c0,1.631,1.34,2.982,2.971,2.982    h11.096c1.626,0,2.966-1.351,2.966-2.982v-11.113C278.779,284.298,277.439,282.947,275.813,282.947z" style="fill:#484C4D;"/></g></g><g id="Layer_1"/></svg>