<?xml version="1.0" ?><!DOCTYPE svg  PUBLIC '-//W3C//DTD SVG 1.1//EN'  'http://www.w3.org/Graphics/SVG/1.1/DTD/svg11.dtd'><svg style="enable-background:new 0 0 499.974 397.099;" version="1.1" viewBox="0 0 499.974 397.099" xml:space="preserve" xmlns="http://www.w3.org/2000/svg" xmlns:xlink="http://www.w3.org/1999/xlink"><g id="cloud-thumb-down"><g id="cloud-thumb-down_1_"><path d="M404.146,119.452c-4.307,0-8.521,0.387-12.673,0.944C387.815,53.29,332.262,0,264.256,0    c-55.516,0-97.789,40.418-115.263,89.954c-9.321-2.446-24.022-8.667-34.099-8.667C51.434,81.286,0,132.731,0,196.19    c0,63.459,51.434,114.904,114.893,114.904c1.008,0,2.161,0,3.245,0c2.622,6.822,9.198,11.691,16.937,11.691h36.448    c10.657,0,20.279-4.505,27.101-11.691c6.672,0,13.483,0,20.435,0c5.342,4.698,11.483,10.64,15.21,15.189l1.33,1.609    c6.484,7.873,10.785,13.044,11.918,27.181c1.935,24.37,17.661,42.026,37.408,42.026c6.924,0,17.324-2.252,27.536-13.022    c17.12-18.042,13.178-42.134,5.401-61.893h38.685c9.568,0,18.161-4.29,24.307-11.091c9.981,0,18.022,0,23.293,0    c52.931,0,95.827-42.907,95.827-95.811C499.974,162.358,457.078,119.452,404.146,119.452z M135.075,162.744h36.448    c10.566,0,19.211,8.646,19.211,19.244v103.383c0,10.577-8.646,19.222-19.211,19.222h-36.448V162.744z M299.267,371.57    c-15.57,16.412-31.949,3.111-33.622-17.935c-1.685-21.045-9.73-29.648-17.308-38.874c-0.945-1.158-2.011-2.38-3.196-3.668    c-8.368-9.161-22.001-21.132-27.541-23.706c-6.302-2.961-21.464-1.695-21.464-1.695V175.916c0,0,23.432,8.967,45.326-0.3    c22.623-9.568,61.609-6.522,61.609-6.522h50.727c8.554,0,15.5,7.81,15.5,17.442c0,6.072-2.757,11.413-6.924,14.524    c6.887,1.801,12.003,8.71,12.003,17.012c0,6.608-3.267,12.357-8.099,15.317c8.028,1.202,14.24,8.925,14.24,18.301    c0,10.211-7.348,18.471-16.422,18.471h-2.307c5.98,2.446,10.26,8.86,10.26,16.39c0,9.654-6.941,17.462-15.501,17.462h-68.033    c1.347,2.381,2.644,4.742,3.888,7.08C305.628,335.808,312.214,357.905,299.267,371.57z" style="fill:#484C4D;"/><path d="M159.559,173.922c-7.155,0-12.958,5.814-12.958,12.958c0,7.165,5.803,12.979,12.958,12.979    c7.176,0,12.979-5.814,12.979-12.979C172.538,179.736,166.735,173.922,159.559,173.922z" style="fill:#484C4D;"/></g></g><g id="Layer_1"/></svg>