<?xml version="1.0" ?><!DOCTYPE svg  PUBLIC '-//W3C//DTD SVG 1.1//EN'  'http://www.w3.org/Graphics/SVG/1.1/DTD/svg11.dtd'><svg style="enable-background:new 0 0 499.973 388.733;" version="1.1" viewBox="0 0 499.973 388.733" xml:space="preserve" xmlns="http://www.w3.org/2000/svg" xmlns:xlink="http://www.w3.org/1999/xlink"><g id="cloud-marked-done"><g id="cloud-marked-done_1_"><path d="M404.163,119.474c-4.312,0-8.517,0.365-12.684,0.944C387.837,53.311,332.283,0,264.267,0    c-55.506,0-97.785,40.439-115.269,89.954c-9.316-2.425-24.011-8.668-34.089-8.668C51.445,81.286,0,132.709,0,196.19    c0,63.459,51.445,114.904,114.909,114.904c4.865,0,10.614,0,16.986,0c3.883,2.767,8.49,4.441,13.397,4.441    c4.817,0,9.461-1.46,13.392-4.227l0.284-0.214c2.757,0,5.573,0,8.458,0l56.922,69.508c4.237,5.17,10.372,8.131,16.813,8.131    c7.782,0,15.028-4.398,18.879-11.456l36.266-66.183c48.581,0,91.359,0,107.857,0c52.93,0,95.81-42.885,95.81-95.811    S457.093,119.474,404.163,119.474z M275.567,311.094L244.1,368.545c-1.357,2.467-3.915,2.703-5.701,0.536l-47.487-57.988    l-20-24.435c-1.796-2.167-5.127-2.618-7.423-0.987l-15.269,10.77c-2.306,1.609-5.503,1.051-7.101-1.266l-13.633-19.608    c-1.598-2.317-1.083-5.6,1.153-7.315l61.501-46.768c2.247-1.695,5.546-1.33,7.354,0.836l40.31,48.377    c1.807,2.167,4.735,2.145,6.521-0.021l118.744-143.544c1.796-2.166,5.165-2.66,7.498-1.094l0.428,0.279    c2.329,1.587,3.138,4.87,1.792,7.337L275.567,311.094z" style="fill:#484C4D;"/></g></g><g id="Layer_1"/></svg>