<?xml version="1.0" ?><svg enable-background="new 0 0 24 24" id="Layer_1" version="1.1" viewBox="0 0 24 24" xml:space="preserve" xmlns="http://www.w3.org/2000/svg" xmlns:xlink="http://www.w3.org/1999/xlink"><g><circle cx="23" cy="4.0307617" fill="#DA1A32" r="1"/><path d="M16,3C7.1367188,3,0,9.5649414,0,15c0,2.9863281,2.4736328,6,8,6c8.8632812,0,16-6.5649414,16-12   C24,6.0136719,21.5263672,3,16,3z" fill="#DA1A32"/><path d="M7.944458,20.75c-3.3813472,0-5.6251483-1.0813885-6.8786902-2.6217861   c-0.1703371-0.2093163-0.3223894-0.4271088-0.4565265-0.6518135c0.1283637,0.2492371,0.2778202,0.491209,0.4488721,0.7238407   C2.2558103,19.829113,4.5122685,21,8,21c7.1551991,0,13.1912441-4.2932701,15.2499523-8.8025179   c0.051651-0.1131334,0.1007977-0.2264023,0.1473961-0.3397427c-0.0992622,0.2153759-0.2074814,0.4302483-0.3243542,0.6441841   C20.7159386,16.8165607,14.8398056,20.75,7.944458,20.75z" opacity="0.1"/><path d="M16,3.25c5.4329224,0,7.909729,2.9127197,7.9921265,5.8485718   C23.9926147,9.065979,24,9.0325317,24,9c0-2.9863281-2.4736328-6-8-6C7.1367188,3,0,9.5649414,0,15   c0,0.0504761,0.0064697,0.1008911,0.0078735,0.1514282C0.0925293,9.7357788,7.1896973,3.25,16,3.25z" fill="#FFFFFF" opacity="0.2"/><path d="M12.2763672,10.871582c0.3232422-0.2104492,0.9169922-0.2836914,1.4599609,0.0532227l0.5273438-0.8496094   c-0.7939453-0.4931641-1.8125-0.5107422-2.5341797-0.0410156c-0.5410156,0.3530273-0.8115234,0.9272461-0.7246094,1.5361328   c0.1064453,0.7485352,0.7167969,1.1513672,1.2080078,1.4750977c0.5615234,0.3701172,0.8056641,0.5703125,0.7880859,0.9301758   c-0.0185547,0.3720703-0.2880859,0.7631836-0.6289062,0.9101562c-0.3222656,0.1396484-0.6757812,0.0507812-1.0478516-0.2661133   l-0.6484375,0.7607422c0.5136719,0.4389648,0.9951172,0.5703125,1.3876953,0.5703125   c0.2929688,0,0.5361328-0.0737305,0.7050781-0.1469727c0.6884766-0.2973633,1.1943359-1.0288086,1.2304688-1.7792969   c0.0478516-0.9672852-0.6943359-1.456543-1.2353516-1.8139648c-0.4511843-0.2973633-0.7285156-0.4985352-0.7685547-0.78125   C11.9541016,11.1464844,12.125,10.9702148,12.2763672,10.871582z" fill="#FFFFFF"/><polygon fill="#FFFFFF" points="19.390625,9.8125 18.609375,9.1875 16.5455322,11.7677612 17.4931641,6.0820312    16.5068359,5.9179688 15.0068359,14.9179688 15.9931641,15.0820312 16.4873657,12.1169434 18.0712891,14.7573242    18.9287109,14.2426758 17.6074219,12.0410156  "/><path d="M7.9376221,7.5332642L4.0429688,16.296875l0.0059204,0.0026245l1.0979614-0.0233765l0.5838013-1.3134155   l2.6886597-0.3228149l0.081665,1.3894043l0.9980469-0.0585938l-0.4979248-8.460083L7.9376221,7.5332642z M6.2036743,13.8984375   l1.918396-4.315918l0.2384644,4.0570068L6.2036743,13.8984375z" fill="#FFFFFF"/><linearGradient gradientUnits="userSpaceOnUse" id="SVGID_1_" x1="8.045166" x2="18.0325127" y1="8.4665527" y2="18.4538994"><stop offset="0" style="stop-color:#000000;stop-opacity:0.1"/><stop offset="1" style="stop-color:#000000;stop-opacity:0"/></linearGradient><path d="M8.1220703,9.5825195l-1.918396,4.315918l2.1568604-0.2589111L8.1220703,9.5825195z    M17.4931641,6.0820312l-0.9476318,5.68573L18.609375,9.1875l0.78125,0.625l-1.7832031,2.2285156l1.3212891,2.2016602   l-0.8574219,0.5146484l-1.5839233-2.6403809l-0.4942017,2.9650879l-0.9863281-0.1640625l0.5856934-3.5139771l-1.3288574-1.3287964   l-0.5273438,0.8496094c-0.5429688-0.3369141-1.1367188-0.2636719-1.4599609-0.0532227   c-0.1513672,0.0986328-0.3222656,0.2749023-0.28125,0.5576172c0.0400391,0.2827148,0.3173704,0.4838867,0.7685547,0.78125   c0.5410156,0.3574219,1.2832031,0.8466797,1.2353516,1.8139648c-0.0361328,0.7504883-0.5419922,1.4819336-1.2304688,1.7792969   c-0.1689453,0.0732422-0.4121094,0.1469727-0.7050781,0.1469727c-0.3925781,0-0.8740234-0.1313477-1.3876953-0.5703125   l0.6484375-0.7607422c0.3720703,0.3168945,0.7255859,0.4057617,1.0478516,0.2661133   c0.3408203-0.1469727,0.6103516-0.5380859,0.6289062-0.9101562c0.0175781-0.3598633-0.2265625-0.5600586-0.7880859-0.9301758   c-0.4912109-0.3237305-1.1015625-0.7265625-1.2080078-1.4750977c-0.0801392-0.5614014,0.1548462-1.0853271,0.6143188-1.4415894   l-2.618103-2.618103l0.4979248,8.460083l-0.9980469,0.0585938l-0.081665-1.3894043l-2.6886597,0.3228149L5.1468506,16.276123   l-1.0979614,0.0233765L4.0429688,16.296875l4.6704712,4.6704712c6.9799805-0.2797241,12.7667847-4.5716553,14.6386719-9.0263672   L17.4931641,6.0820312z" fill="url(#SVGID_1_)"/><linearGradient gradientUnits="userSpaceOnUse" id="SVGID_2_" x1="3.0879705" x2="21.7225685" y1="6.78617" y2="15.475625"><stop offset="0" style="stop-color:#FFFFFF;stop-opacity:0.2"/><stop offset="1" style="stop-color:#FFFFFF;stop-opacity:0"/></linearGradient><path d="M23,5.0307617c0.5517578,0,1-0.4487305,1-1s-0.4482422-1-1-1s-1,0.4487305-1,1   S22.4482422,5.0307617,23,5.0307617z M16,3C7.1367188,3,0,9.5649414,0,15c0,2.9863281,2.4736328,6,8,6   c8.8632812,0,16-6.5649414,16-12C24,6.0136719,21.5263672,3,16,3z" fill="url(#SVGID_2_)"/></g><g/><g/><g/><g/><g/><g/><g/><g/><g/><g/><g/><g/><g/><g/><g/></svg>