<?xml version="1.0" ?><svg enable-background="new 0 0 24 24" id="Layer_1" version="1.1" viewBox="0 0 24 24" xml:space="preserve" xmlns="http://www.w3.org/2000/svg" xmlns:xlink="http://www.w3.org/1999/xlink"><g><path d="M22,24H2c-1.1045694,0-2-0.8954296-2-2V11c0-1.1045694,0.8954305-2,2-2h20c1.1045704,0,2,0.8954306,2,2v11   C24,23.1045704,23.1045704,24,22,24z" fill="#5796FF"/><path d="M18,22H6c-0.2761426,0-0.5-0.2238579-0.5-0.5V20c0-0.2761421,0.2238574-0.5,0.5-0.5h12   c0.2761421,0,0.5,0.2238579,0.5,0.5v1.5C18.5,21.7761421,18.2761421,22,18,22z" fill="#A1C4FF" id="XMLID_1553_"/><path d="M13,15h-2c-0.2761421,0-0.5,0.2238579-0.5,0.5v2c0,0.2761421,0.2238579,0.5,0.5,0.5h2   c0.2761421,0,0.5-0.2238579,0.5-0.5v-2C13.5,15.2238579,13.2761421,15,13,15z" fill="#A1C4FF" id="XMLID_1340_"/><path d="M4.5,15h-2C2.2238576,15,2,15.2238579,2,15.5v2C2,17.7761421,2.2238576,18,2.5,18h2   C4.7761426,18,5,17.7761421,5,17.5v-2C5,15.2238579,4.7761426,15,4.5,15z" fill="#A1C4FF" id="XMLID_1351_"/><path d="M8.75,15h-2c-0.2761426,0-0.5,0.2238579-0.5,0.5v2c0,0.2761421,0.2238574,0.5,0.5,0.5h2   c0.2761421,0,0.5-0.2238579,0.5-0.5v-2C9.25,15.2238579,9.0261421,15,8.75,15z" fill="#A1C4FF" id="XMLID_1348_"/><path d="M21.5,15h-2c-0.2761421,0-0.5,0.2238579-0.5,0.5v2c0,0.2761421,0.2238579,0.5,0.5,0.5h2   c0.2761421,0,0.5-0.2238579,0.5-0.5v-2C22,15.2238579,21.7761421,15,21.5,15z" fill="#A1C4FF" id="XMLID_1353_"/><path d="M20.5,11h-2c-0.2761421,0-0.5,0.2238579-0.5,0.5v2c0,0.2761421,0.2238579,0.5,0.5,0.5h2   c0.2761421,0,0.5-0.2238579,0.5-0.5v-2C21,11.2238579,20.7761421,11,20.5,11z" fill="#A1C4FF" id="XMLID_1350_"/><path d="M17.25,15h-2c-0.2761421,0-0.5,0.2238579-0.5,0.5v2c0,0.2761421,0.2238579,0.5,0.5,0.5h2   c0.2761421,0,0.5-0.2238579,0.5-0.5v-2C17.75,15.2238579,17.5261421,15,17.25,15z" fill="#A1C4FF" id="XMLID_1349_"/><path d="M16.5,11h-2c-0.2761421,0-0.5,0.2238579-0.5,0.5v2c0,0.2761421,0.2238579,0.5,0.5,0.5h2   c0.2761421,0,0.5-0.2238579,0.5-0.5v-2C17,11.2238579,16.7761421,11,16.5,11z" fill="#A1C4FF" id="XMLID_1352_"/><path d="M9.5,11h-2C7.2238574,11,7,11.2238579,7,11.5v2C7,13.7761421,7.2238574,14,7.5,14h2   c0.2761421,0,0.5-0.2238579,0.5-0.5v-2C10,11.2238579,9.7761421,11,9.5,11z" fill="#A1C4FF" id="XMLID_1355_"/><path d="M5.3217773,11H3.6782227C3.3036506,11,3,11.3036509,3,11.6782227v1.6435547   C3,13.6963491,3.3036506,14,3.6782227,14h1.6435547C5.6963491,14,6,13.6963491,6,13.3217773v-1.6435547   C6,11.3036509,5.6963491,11,5.3217773,11z" fill="#A1C4FF" id="XMLID_1334_"/><path d="M22,9H2c-1.1045532,0-2,0.8953857-2,2v0.25c0-1.1046143,0.8954468-2,2-2h20   c1.1045532,0,2,0.8953857,2,2V11C24,9.8953857,23.1045532,9,22,9z" fill="#FFFFFF" opacity="0.2"/><path d="M17,0H7C5.8954306,0,5,0.8954305,5,2v8.2684965c0,0.9313459,0.4325552,1.8098707,1.1707287,2.3777647   L12,17.1308594l5.8292713-4.4845982C18.5674458,12.0783672,19,11.1998425,19,10.2684965V2C19,0.8954305,18.1045704,0,17,0z" fill="#F2F2F2"/><path d="M22,23.75H2c-1.1045532,0-2-0.8954468-2-2V22c0,1.1045532,0.8954468,2,2,2h20c1.1045532,0,2-0.8954468,2-2   v-0.25C24,22.8545532,23.1045532,23.75,22,23.75z" opacity="0.1"/><path d="M17,0H7C5.8954468,0,5,0.8953857,5,2v0.25c0-1.1046143,0.8954468-2,2-2h10   c1.1045532,0,2,0.8953857,2,2V2C19,0.8953857,18.1045532,0,17,0z" fill="#FFFFFF" opacity="0.2"/><path d="M17.8292847,12.3777466L12,16.8623657l-5.8292847-4.4846191C5.4325562,11.8098755,5,10.9313354,5,10v0.25   c0,0.9313354,0.4325562,1.8098755,1.1707153,2.3777466L12,17.1123657l5.8292847-4.4846191   C18.5674438,12.0598755,19,11.1813354,19,10.25V10C19,10.9313354,18.5674438,11.8098755,17.8292847,12.3777466z" opacity="0.1"/><path d="M9,7c0-0.3630371,0.0744629-0.706543,0.192627-1.0286255L7.6040649,4.664856   C7.2312012,5.3648071,7,6.1515503,7,7c0,0.8615112,0.237854,1.659729,0.621521,2.3673706l1.5701904-1.3415527   C9.0742188,7.7044678,9,7.3619995,9,7z" fill="#FFC107"/><path d="M12,4c0.6122437,0,1.1802979,0.1853638,1.6549072,0.5001831l1.6270142-1.2449341   C14.4019775,2.4834595,13.2623901,2,12,2c-1.9129639,0-3.5551758,1.0866699-4.3959351,2.664856l1.588562,1.3065186   C9.6136475,4.8235474,10.7061768,4,12,4z" fill="#F44336"/><path d="M12,10c-1.2948608,0-2.3880005-0.8248901-2.8082886-1.9741821L7.621521,9.3673706   C8.4676514,10.9279175,10.1000977,12,12,12c1.2594604,0,2.3964233-0.4814453,3.2755737-1.25l-1.5975342-1.2629395   C13.1990967,9.8108521,12.6216431,10,12,10z" fill="#00B060"/><path d="M16.8934937,6H12v2h2.8070679c-0.2167358,0.6065674-0.604248,1.1323242-1.1290283,1.4870605   L15.2755737,10.75C16.3240356,9.8334961,17,8.5019531,17,7C17,6.656311,16.9606323,6.322937,16.8934937,6z" fill="#2196F3"/><linearGradient gradientUnits="userSpaceOnUse" id="SVGID_1_" x1="16.179018" x2="25.5932255" y1="11.820982" y2="21.2351894"><stop offset="0" style="stop-color:#000000;stop-opacity:0.1"/><stop offset="1" style="stop-color:#000000;stop-opacity:0"/></linearGradient><path d="M22,9h-3v1.2684937c0,0.9313354-0.4325562,1.8098755-1.1707153,2.3777466l-5.8188477,4.4765625   L18.8876953,24H22c1.1045532,0,2-0.8954468,2-2V11C24,9.8953857,23.1045532,9,22,9z" fill="url(#SVGID_1_)"/><linearGradient gradientUnits="userSpaceOnUse" id="SVGID_2_" x1="1.1434728" x2="25.4106903" y1="8.103282" y2="19.4192715"><stop offset="0" style="stop-color:#FFFFFF;stop-opacity:0.2"/><stop offset="1" style="stop-color:#FFFFFF;stop-opacity:0"/></linearGradient><path d="M22,9h-3V2c0-1.1046143-0.8954468-2-2-2H7C5.8954468,0,5,0.8953857,5,2v7H2   c-1.1045532,0-2,0.8953857-2,2v11c0,1.1045532,0.8954468,2,2,2h20c1.1045532,0,2-0.8954468,2-2V11C24,9.8953857,23.1045532,9,22,9z   " fill="url(#SVGID_2_)"/></g><g/><g/><g/><g/><g/><g/><g/><g/><g/><g/><g/><g/><g/><g/><g/></svg>