<?xml version="1.0" ?><svg enable-background="new 0 0 24 24" id="Layer_1" version="1.1" viewBox="0 0 24 24" xml:space="preserve" xmlns="http://www.w3.org/2000/svg" xmlns:xlink="http://www.w3.org/1999/xlink"><g><path d="M22.5,3h-9.0133667C10.1662598,8.9030762,10,12.5,10,12.5h4c0,0-0.5,2.208313-0.5,4.5   c0,1.5699463,0.2478638,2.9307861,0.5413818,4H22.5c0.2763672,0,0.5-0.2236328,0.5-0.5v-17C23,3.2236328,22.7763672,3,22.5,3z" fill="#F2F2F2"/><linearGradient gradientUnits="userSpaceOnUse" id="SVGID_1_" x1="7.467957" x2="7.530457" y1="3.2427547" y2="23.992754"><stop offset="0" style="stop-color:#15BEF0"/><stop offset="0.14514" style="stop-color:#17B7EB"/><stop offset="0.3533129" style="stop-color:#1CA4DE"/><stop offset="0.5995703" style="stop-color:#2585C7"/><stop offset="0.8727877" style="stop-color:#305AA9"/><stop offset="1" style="stop-color:#374499"/></linearGradient><path d="M14,12.5h-4c0,0,0.1662598-3.5969238,3.4866333-9.5H1.5C1.2236328,3,1,3.2236328,1,3.5v17   C1,20.7763672,1.2236328,21,1.5,21h12.5413818C13.7478638,19.9307861,13.5,18.5699463,13.5,17C13.5,14.708313,14,12.5,14,12.5z" fill="url(#SVGID_1_)"/><path d="M12,17.5c-2.6772461,0-5.2739258-0.6000977-7.7177734-1.7836914   c-0.2485352-0.1206055-0.3525391-0.4194336-0.2324219-0.6679688c0.1201172-0.2490234,0.421875-0.3515625,0.6679688-0.2324219   c4.6142578,2.2353516,9.9501953,2.2353516,14.5644531,0c0.2485352-0.1191406,0.5478516-0.015625,0.6679688,0.2324219   c0.1201172,0.2485352,0.0161133,0.5473633-0.2324219,0.6679688C17.2739258,16.8999023,14.6772461,17.5,12,17.5z" fill="#1A1A1A"/><path d="M6.5,9C6.2236328,9,6,8.7763672,6,8.5v-2C6,6.2236328,6.2236328,6,6.5,6S7,6.2236328,7,6.5v2   C7,8.7763672,6.7763672,9,6.5,9z" fill="#1A1A1A"/><path d="M16.5,9C16.2236328,9,16,8.7763672,16,8.5v-2C16,6.2236328,16.2236328,6,16.5,6S17,6.2236328,17,6.5v2   C17,8.7763672,16.7763672,9,16.5,9z" fill="#1A1A1A"/><path d="M22.5,3h-21C1.2236328,3,1,3.2236328,1,3.5v0.25c0-0.2763672,0.2236328-0.5,0.5-0.5h21   c0.2763672,0,0.5,0.2236328,0.5,0.5V3.5C23,3.2236328,22.7763672,3,22.5,3z" fill="#FFFFFF" opacity="0.2"/><path d="M22.5,20.75h-21c-0.2763672,0-0.5-0.2236328-0.5-0.5v0.25C1,20.7763672,1.2236328,21,1.5,21h21   c0.2763672,0,0.5-0.2236328,0.5-0.5v-0.25C23,20.5263672,22.7763672,20.75,22.5,20.75z" opacity="0.1"/><linearGradient gradientUnits="userSpaceOnUse" id="SVGID_2_" x1="-0.3336532" x2="24.3336525" y1="6.248723" y2="17.751276"><stop offset="0" style="stop-color:#FFFFFF;stop-opacity:0.2"/><stop offset="1" style="stop-color:#FFFFFF;stop-opacity:0"/></linearGradient><path d="M22.5,3h-21C1.2236328,3,1,3.2236328,1,3.5v17C1,20.7763672,1.2236328,21,1.5,21h21   c0.2763672,0,0.5-0.2236328,0.5-0.5v-17C23,3.2236328,22.7763672,3,22.5,3z" fill="url(#SVGID_2_)"/></g><g/><g/><g/><g/><g/><g/><g/><g/><g/><g/><g/><g/><g/><g/><g/></svg>