<?xml version="1.0" ?><svg enable-background="new 0 0 24 24" id="Layer_1" version="1.1" viewBox="0 0 24 24" xml:space="preserve" xmlns="http://www.w3.org/2000/svg" xmlns:xlink="http://www.w3.org/1999/xlink"><g><path d="M13.500246,9C11.2944021,9,9.5,10.7944021,9.5,13.000246C9.5,15.2055979,11.2944021,17,13.500246,17   C15.7055979,17,17.5,15.2055979,17.5,13.000246C17.5,10.7944021,15.7055979,9,13.500246,9z M14.5,13c0,0.5512695-0.4487305,1-1,1   s-1-0.4487305-1-1s0.4487305-1,1-1S14.5,12.4487305,14.5,13z" fill="#009ADA"/><rect fill="#009ADA" height="10" width="3" x="18" y="7"/><circle cx="23" cy="16" fill="#009ADA" r="1"/><path d="M3.8891602,7L0,17h3.0834961l0.5356445-1.5h3.2236328L7.378418,17h3.0834961L6.5727539,7H3.8891602z    M5.7714844,12.5H4.6904297l0.5405273-1.5131836L5.7714844,12.5z" fill="#009ADA"/><linearGradient gradientUnits="userSpaceOnUse" id="SVGID_1_" x1="3.1547861" x2="23.2057323" y1="8.5748701" y2="17.9247799"><stop offset="0" style="stop-color:#FFFFFF;stop-opacity:0.2"/><stop offset="1" style="stop-color:#FFFFFF;stop-opacity:0"/></linearGradient><path d="M13.5002441,9C11.2943726,9,9.5,10.7943726,9.5,13.0002441   C9.5,15.2055664,11.2943726,17,13.5002441,17C15.7056274,17,17.5,15.2055664,17.5,13.0002441   C17.5,10.7943726,15.7056274,9,13.5002441,9z M13.5,14c-0.5512695,0-1-0.4487305-1-1s0.4487305-1,1-1s1,0.4487305,1,1   S14.0512695,14,13.5,14z M18,17h3V7h-3V17z M23,15c-0.5512695,0-1,0.4487305-1,1s0.4487305,1,1,1s1-0.4487305,1-1   S23.5512695,15,23,15z M3.8891602,7L0,17h3.0834961l0.5356445-1.5h3.2236328L7.378418,17h3.0834961L6.5727539,7H3.8891602z    M4.6904297,12.5l0.5405273-1.5131836L5.7714844,12.5H4.6904297z" fill="url(#SVGID_1_)"/></g><g/><g/><g/><g/><g/><g/><g/><g/><g/><g/><g/><g/><g/><g/><g/></svg>