<?xml version="1.0" ?><!DOCTYPE svg  PUBLIC '-//W3C//DTD SVG 1.1//EN'  'http://www.w3.org/Graphics/SVG/1.1/DTD/svg11.dtd'><svg enable-background="new 0 0 91 91" height="91px" id="Layer_1" version="1.1" viewBox="0 0 91 91" width="91px" xml:space="preserve" xmlns="http://www.w3.org/2000/svg" xmlns:xlink="http://www.w3.org/1999/xlink"><g><rect fill="#E0F1F8" height="10.05" width="85.426" x="2.252" y="4.584"/><rect fill="#E0F1F8" height="10.05" width="85.426" x="2.252" y="29.709"/><rect fill="#E0F1F8" height="10.05" width="85.426" x="2.252" y="54.834"/><rect fill="#E0F1F8" height="10.05" width="53.601" x="2.252" y="79.959"/><path d="M54.735,82.007H3.09c-1.388,0-2.513-1.125-2.513-2.513s1.125-2.513,2.513-2.513h51.646   c1.388,0,2.513,1.125,2.513,2.513S56.123,82.007,54.735,82.007z" fill="#454B53"/><path d="M87.491,56.963H3.09c-1.388,0-2.513-1.125-2.513-2.513s1.125-2.513,2.513-2.513h84.401   c1.388,0,2.513,1.125,2.513,2.513S88.879,56.963,87.491,56.963z" fill="#454B53"/><path d="M87.491,31.918H3.09c-1.388,0-2.513-1.125-2.513-2.512c0-1.389,1.125-2.514,2.513-2.514h84.401   c1.388,0,2.513,1.125,2.513,2.514C90.004,30.793,88.879,31.918,87.491,31.918z" fill="#454B53"/><path d="M87.491,6.875H3.09c-1.388,0-2.513-1.125-2.513-2.514c0-1.387,1.125-2.512,2.513-2.512h84.401   c1.388,0,2.513,1.125,2.513,2.512C90.004,5.75,88.879,6.875,87.491,6.875z" fill="#454B53"/></g></svg>