<?xml version="1.0" ?><!DOCTYPE svg  PUBLIC '-//W3C//DTD SVG 1.1//EN'  'http://www.w3.org/Graphics/SVG/1.1/DTD/svg11.dtd'><svg enable-background="new 0 0 91 91" height="91px" id="Layer_1" version="1.1" viewBox="0 0 91 91" width="91px" xml:space="preserve" xmlns="http://www.w3.org/2000/svg" xmlns:xlink="http://www.w3.org/1999/xlink"><g><path d="M37.033,76.215c-7.057,7.056-18.494,7.056-25.551,0l-1.755-1.754c-7.056-7.055-7.056-18.496,0-25.551   l41.349-41.35c7.057-7.057,18.496-7.057,25.553,0l1.754,1.754c7.055,7.057,7.055,18.496,0,25.553L37.033,76.215z" fill="#E0F1F8"/><g><g><path d="M41.986,83.52c-0.643,0-1.285-0.246-1.776-0.736c-0.981-0.98-0.981-2.572,0.001-3.553l44.82-44.816     c0.98-0.98,2.571-0.98,3.553,0c0.98,0.981,0.98,2.572,0,3.554l-44.82,44.815C43.273,83.273,42.63,83.52,41.986,83.52z" fill="#454B53"/><path d="M10.638,52.172c-0.644,0-1.286-0.246-1.776-0.736c-0.981-0.981-0.981-2.572,0-3.553L52.187,4.557     c0.98-0.98,2.572-0.98,3.553,0c0.981,0.981,0.981,2.572,0,3.553L12.414,51.436C11.924,51.926,11.281,52.172,10.638,52.172z" fill="#454B53"/><path d="M31.74,74.766c-0.644,0-1.287-0.246-1.777-0.736c-0.98-0.981-0.98-2.572,0-3.554l44.07-44.068     c0.98-0.98,2.571-0.981,3.553,0.001c0.98,0.98,0.98,2.571,0,3.553l-44.07,44.068C33.025,74.52,32.383,74.766,31.74,74.766z" fill="#454B53"/><path d="M75.059,31.443c-0.644,0-1.287-0.245-1.777-0.736c-0.98-0.98-0.98-2.572,0-3.553     c2.445-2.444,3.792-5.693,3.792-9.148s-1.347-6.705-3.792-9.149C68.238,3.813,60.033,3.814,54.99,8.855     c-0.98,0.982-2.572,0.982-3.553,0c-0.98-0.98-0.98-2.571,0-3.553c7.001-7.001,18.395-7.002,25.396,0     c3.395,3.394,5.265,7.904,5.265,12.703c0,4.797-1.87,9.309-5.265,12.702C76.344,31.198,75.701,31.443,75.059,31.443z" fill="#454B53"/><path d="M25.525,90.402c-6.545,0-12.641-2.5-17.21-7.069c-9.622-9.622-9.376-25.525,0.548-35.45     c0.981-0.98,2.572-0.98,3.553,0c0.982,0.981,0.982,2.572,0.001,3.553c-7.966,7.967-8.211,20.682-0.548,28.345     c3.699,3.7,8.688,5.663,14.014,5.595c5.369-0.093,10.458-2.275,14.327-6.145c0.981-0.981,2.573-0.98,3.554,0s0.98,2.572,0,3.553     c-4.796,4.796-11.115,7.5-17.794,7.616C25.821,90.402,25.673,90.402,25.525,90.402z" fill="#454B53"/><path d="M19.795,62.813c-0.643,0-1.285-0.245-1.776-0.735c-0.981-0.981-0.981-2.572-0.001-3.554l38.836-38.843     c0.981-0.98,2.572-0.98,3.553,0c0.982,0.98,0.982,2.572,0.001,3.553L21.572,62.077C21.081,62.568,20.438,62.813,19.795,62.813z" fill="#454B53"/><path d="M25.765,77.232c-2.806,0-5.612-1.066-7.749-3.201c-2.074-2.072-3.215-4.826-3.215-7.754     c0-2.93,1.141-5.684,3.214-7.754c0.983-0.98,2.573-0.98,3.554,0.002c0.98,0.981,0.979,2.572-0.002,3.553     c-1.123,1.121-1.74,2.613-1.74,4.199s0.617,3.077,1.74,4.199c2.314,2.313,6.082,2.313,8.395,0     c0.982-0.98,2.573-0.979,3.554,0.002c0.98,0.98,0.979,2.572-0.001,3.553C31.377,76.166,28.571,77.232,25.765,77.232z" fill="#454B53"/></g></g></g></svg>