<?xml version="1.0" ?><!DOCTYPE svg  PUBLIC '-//W3C//DTD SVG 1.1//EN'  'http://www.w3.org/Graphics/SVG/1.1/DTD/svg11.dtd'><svg enable-background="new 0 0 91 91" height="91px" id="Layer_1" version="1.1" viewBox="0 0 91 91" width="91px" xml:space="preserve" xmlns="http://www.w3.org/2000/svg" xmlns:xlink="http://www.w3.org/1999/xlink"><g><circle cx="45.398" cy="44.656" fill="#B0E0D4" r="23.739"/><g><g><path d="M69.4,5.767H21.824c-1.388,0-2.513-1.125-2.513-2.513s1.125-2.513,2.513-2.513H69.4     c1.388,0,2.513,1.125,2.513,2.513S70.788,5.767,69.4,5.767z" fill="#454B53"/><path d="M23.191,90.671c-0.644,0-1.286-0.245-1.776-0.736c-0.981-0.981-0.981-2.572,0-3.553l11.319-11.317     c0.981-0.983,2.573-0.981,3.553,0c0.981,0.981,0.981,2.572,0,3.553L24.968,89.935C24.478,90.426,23.834,90.671,23.191,90.671z" fill="#454B53"/><path d="M68.027,90.671c-0.644,0-1.286-0.245-1.776-0.736L54.936,78.617c-0.981-0.981-0.981-2.572,0-3.553     c0.982-0.983,2.574-0.981,3.553,0l11.315,11.317c0.981,0.981,0.981,2.572,0,3.553C69.313,90.426,68.67,90.671,68.027,90.671z" fill="#454B53"/><path d="M45.398,79.896c-19.434,0-35.244-15.81-35.244-35.242c0-19.432,15.811-35.24,35.244-35.24     c19.432,0,35.241,15.809,35.241,35.24C80.64,64.087,64.83,79.896,45.398,79.896z M45.398,14.439     c-16.663,0-30.219,13.555-30.219,30.215c0,16.662,13.556,30.217,30.219,30.217c16.661,0,30.216-13.555,30.216-30.217     C75.614,27.994,62.06,14.439,45.398,14.439z" fill="#454B53"/><path d="M45.505,47.167c-1.388,0-2.513-1.125-2.513-2.513V21.439c0-1.388,1.125-2.513,2.513-2.513     s2.513,1.125,2.513,2.513v23.215C48.018,46.042,46.893,47.167,45.505,47.167z" fill="#454B53"/><path d="M45.51,47.17c-0.68,0-1.31-0.271-1.78-0.74c-0.479-0.47-0.739-1.11-0.739-1.78     c0-0.659,0.27-1.3,0.739-1.77c0.931-0.94,2.61-0.94,3.551,0c0.47,0.47,0.739,1.11,0.739,1.77c0,0.67-0.26,1.311-0.739,1.78     C46.81,46.899,46.18,47.17,45.51,47.17z" fill="#454B53"/><path d="M45.611,12.128c-1.388,0-2.513-1.125-2.513-2.513V3.979c0-1.388,1.125-2.513,2.513-2.513     s2.513,1.125,2.513,2.513v5.636C48.124,11.003,46.999,12.128,45.611,12.128z" fill="#454B53"/><path d="M25.973,47.232h-5.428c-1.388,0-2.513-1.125-2.513-2.513s1.125-2.513,2.513-2.513h5.428     c1.388,0,2.513,1.125,2.513,2.513S27.36,47.232,25.973,47.232z" fill="#454B53"/><path d="M70.249,47.232h-5.424c-1.388,0-2.513-1.125-2.513-2.513s1.125-2.513,2.513-2.513h5.424     c1.388,0,2.513,1.125,2.513,2.513S71.637,47.232,70.249,47.232z" fill="#454B53"/><path d="M31.078,34.063c-0.606,0-1.215-0.219-1.697-0.661l-4.001-3.668c-1.022-0.938-1.092-2.526-0.153-3.55     c0.938-1.022,2.526-1.092,3.55-0.153l4.001,3.668c1.022,0.938,1.092,2.526,0.153,3.55C32.436,33.789,31.758,34.063,31.078,34.063     z" fill="#454B53"/><path d="M63.761,63.935c-0.605,0-1.212-0.218-1.694-0.658l-4-3.657c-1.024-0.937-1.096-2.525-0.159-3.55     c0.938-1.024,2.525-1.096,3.55-0.159l4,3.657c1.024,0.937,1.096,2.525,0.159,3.55C65.12,63.659,64.441,63.935,63.761,63.935z" fill="#454B53"/><path d="M45.456,72.021c-1.386,0-2.511-1.122-2.513-2.509l-0.009-5.424c-0.002-1.388,1.121-2.514,2.509-2.517     c0.001,0,0.003,0,0.004,0c1.386,0,2.51,1.122,2.513,2.509l0.009,5.424c0.002,1.388-1.121,2.514-2.509,2.517     C45.459,72.021,45.457,72.021,45.456,72.021z" fill="#454B53"/><path d="M28.651,65.51c-0.605,0-1.212-0.218-1.694-0.658c-1.024-0.937-1.096-2.525-0.159-3.55l3.66-4.004     c0.936-1.023,2.524-1.097,3.55-0.159c1.024,0.937,1.096,2.525,0.159,3.55l-3.66,4.004C30.011,65.234,29.333,65.51,28.651,65.51z" fill="#454B53"/><path d="M58.526,32.825c-0.605,0-1.214-0.218-1.695-0.659c-1.023-0.938-1.094-2.526-0.157-3.55l3.664-4.002     c0.938-1.024,2.527-1.095,3.55-0.157c1.023,0.938,1.094,2.526,0.157,3.55l-3.664,4.002     C59.885,32.551,59.207,32.825,58.526,32.825z" fill="#454B53"/></g></g></g></svg>