<?xml version="1.0" ?><!DOCTYPE svg  PUBLIC '-//W3C//DTD SVG 1.1//EN'  'http://www.w3.org/Graphics/SVG/1.1/DTD/svg11.dtd'><svg enable-background="new 0 0 91 91" height="91px" id="Layer_1" version="1.1" viewBox="0 0 91 91" width="91px" xml:space="preserve" xmlns="http://www.w3.org/2000/svg" xmlns:xlink="http://www.w3.org/1999/xlink"><g><g><g><g><path d="M74.189,88.237l-28.9-24.487L16.385,88.237V10.847c0-4.603,3.729-8.334,8.33-8.334h41.142      c4.604,0,8.333,3.731,8.333,8.334V88.237z" fill="#F4767A"/><path d="M16.385,90.75c-0.358,0-0.719-0.076-1.057-0.232c-0.888-0.412-1.456-1.302-1.456-2.28V10.847      C13.872,4.865,18.736,0,24.715,0h41.142c5.98,0,10.846,4.865,10.846,10.847v77.391c0,0.979-0.568,1.868-1.456,2.28      c-0.889,0.41-1.934,0.27-2.681-0.363L45.289,67.043l-27.28,23.111C17.546,90.547,16.968,90.75,16.385,90.75z M24.715,5.025      c-3.208,0-5.817,2.611-5.817,5.821v71.97l24.768-20.983c0.938-0.794,2.311-0.794,3.248,0l24.764,20.982V10.847      c0-3.21-2.611-5.821-5.82-5.821H24.715z" fill="#454B53"/></g><path d="M35.487,55.484c-1.388,0-2.513-1.125-2.513-2.512V19.658c0-1.389,1.125-2.514,2.513-2.514     S38,18.27,38,19.658v33.314C38,54.359,36.875,55.484,35.487,55.484z" fill="#FFFFFF"/><path d="M55.572,55.484c-1.388,0-2.513-1.125-2.513-2.512V19.658c0-1.389,1.125-2.514,2.513-2.514     s2.513,1.125,2.513,2.514v33.314C58.085,54.359,56.96,55.484,55.572,55.484z" fill="#FFFFFF"/></g></g></g></svg>