<?xml version="1.0" ?><!DOCTYPE svg  PUBLIC '-//W3C//DTD SVG 1.1//EN'  'http://www.w3.org/Graphics/SVG/1.1/DTD/svg11.dtd'><svg enable-background="new 0 0 91 91" height="91px" id="Layer_1" version="1.1" viewBox="0 0 91 91" width="91px" xml:space="preserve" xmlns="http://www.w3.org/2000/svg" xmlns:xlink="http://www.w3.org/1999/xlink"><g><g><g><g><path d="M50.732,63.175c0-0.964-0.092-1.901-0.229-2.827l6.811-3.934l-7.062-12.228l-7.08,3.931      C41.707,46.944,40,45.992,38,45.287V39H23v6.287c-1,0.678-2.58,1.589-4.006,2.697l-6.405-4.009L5.572,56.124l6.853,4.006      c-0.155,0.991-0.219,2.008-0.219,3.045c0,0.965,0.113,1.905,0.249,2.831l-6.797,3.933l7.067,12.222l6.094-3.929      C20.288,79.402,22,80.356,23,81.062V89h15v-7.938c2-0.674,3.573-1.587,4.996-2.699l6.9,4.006l7.269-12.146l-6.732-4.004      C50.589,65.226,50.732,64.213,50.732,63.175z M31.494,71.751c-4.738,0-8.584-3.838-8.584-8.576c0-4.736,3.846-8.578,8.584-8.578      c4.735,0,8.578,3.842,8.578,8.578C40.072,67.913,36.229,71.751,31.494,71.751z" fill="#B0E0D4"/><path d="M38.397,90.5h-15c-1.381,0-2.5-1.119-2.5-2.5v-5.559c-0.076-0.045-0.153-0.091-0.231-0.138      c-0.529-0.314-1.131-0.672-1.738-1.068l-4.877,3.045c-0.575,0.36-1.272,0.469-1.929,0.306c-0.657-0.164-1.221-0.588-1.56-1.175      L3.497,71.189c-0.691-1.195-0.282-2.724,0.912-3.415l5.376-3.108c-0.04-0.475-0.066-0.977-0.066-1.491      c0-0.575,0.021-1.147,0.063-1.712L4.357,58.28c-1.188-0.696-1.589-2.223-0.896-3.413l7.066-12.148      c0.339-0.583,0.899-1.004,1.553-1.168c0.656-0.164,1.347-0.057,1.92,0.297l5.104,3.146c0.59-0.382,1.169-0.727,1.681-1.031      c0.038-0.022,0.075-0.045,0.112-0.066V38c0-1.381,1.119-2.5,2.5-2.5h15c1.381,0,2.5,1.119,2.5,2.5v5.609      c0.908,0.424,1.777,0.924,2.653,1.526l5.461-3.12c1.197-0.683,2.718-0.271,3.405,0.921l7.062,12.228      c0.69,1.195,0.281,2.725-0.915,3.415l-5.391,3.113c0.04,0.512,0.06,1.004,0.06,1.482c0,0.557-0.027,1.121-0.086,1.732      l5.342,3.165c0.571,0.338,0.984,0.89,1.148,1.532c0.164,0.644,0.065,1.325-0.273,1.896l-7.219,12.146      c-0.704,1.184-2.232,1.574-3.418,0.877l-5.38-3.169c-0.724,0.493-1.524,0.971-2.449,1.399V88      C40.897,89.381,39.778,90.5,38.397,90.5z M25.897,85.5h10v-4.438c0-1.073,0.685-2.026,1.702-2.369      c1.63-0.549,2.76-1.287,4.055-2.3c0.812-0.634,1.926-0.705,2.809-0.185l4.655,2.742l4.668-7.853l-4.604-2.729      c-0.882-0.521-1.355-1.529-1.195-2.541c0.17-1.073,0.246-1.892,0.246-2.653c0-0.75-0.064-1.531-0.202-2.459      c-0.151-1.016,0.334-2.02,1.223-2.533l4.646-2.683l-4.567-7.908l-4.72,2.696c-0.892,0.509-2.001,0.421-2.802-0.219      c-1.454-1.164-2.724-1.889-4.243-2.425c-1-0.353-1.669-1.297-1.669-2.357V40.5h-10v4.787c0,0.829-0.411,1.604-1.098,2.069      c-0.395,0.268-0.899,0.57-1.458,0.902c-0.856,0.51-1.826,1.087-2.615,1.7c-0.824,0.639-1.96,0.7-2.846,0.153l-4.321-2.663      l-4.524,7.779l4.68,2.745c0.887,0.52,1.364,1.528,1.205,2.543c-0.134,0.853-0.201,1.747-0.201,2.658      c0,0.873,0.109,1.737,0.217,2.469c0.148,1.013-0.336,2.014-1.222,2.526l-4.638,2.682l4.521,7.818l4.098-2.559      c0.899-0.563,2.053-0.495,2.883,0.165c0.778,0.621,1.77,1.21,2.644,1.729c0.597,0.354,1.159,0.689,1.617,1.013      c0.664,0.468,1.06,1.23,1.06,2.043V85.5z M31.494,74.251c-6.111,0-11.084-4.969-11.084-11.076      c0-6.108,4.973-11.078,11.084-11.078c6.108,0,11.078,4.97,11.078,11.078C42.572,69.282,37.603,74.251,31.494,74.251z       M31.494,57.097c-3.354,0-6.084,2.727-6.084,6.078c0,3.351,2.729,6.076,6.084,6.076c3.352,0,6.078-2.726,6.078-6.076      C37.572,59.823,34.846,57.097,31.494,57.097z" fill="#454B53"/></g><g><path d="M78.884,22.881c0-0.734-0.072-1.444-0.177-2.149l5.172-2.985L78.518,8.46l-5.484,2.98      C71.918,10.554,70,9.829,69,9.295V4H59v5.295c-2,0.512-2.551,1.203-3.633,2.048L50.202,8.3l-5.479,9.223l5.129,3.042      c-0.114,0.76-0.201,1.528-0.201,2.316c0,0.733,0.069,1.446,0.179,2.146l-5.182,2.988l5.361,9.291l5.22-2.985      C56.354,35.21,57,35.935,59,36.466V44h10v-7.534c1-0.514,2.824-1.202,3.896-2.048l5.3,3.044l5.544-9.227l-5.102-3.043      C78.767,24.435,78.884,23.671,78.884,22.881z M64.267,29.402c-3.596,0-6.521-2.924-6.521-6.521c0-3.6,2.925-6.519,6.521-6.519      c3.597,0,6.517,2.919,6.517,6.519C70.783,26.479,67.863,29.402,64.267,29.402z" fill="#E0F1F8"/><path d="M69.397,45.5h-10c-1.381,0-2.5-1.119-2.5-2.5v-4.761c-0.663-0.293-1.204-0.613-1.686-0.944l-3.993,2.201      c-1.193,0.659-2.692,0.24-3.372-0.94l-5.36-9.291c-0.332-0.574-0.422-1.257-0.249-1.897c0.172-0.641,0.591-1.187,1.166-1.518      l3.78-2.18c-0.013-0.263-0.02-0.525-0.02-0.789c0-0.341,0.015-0.674,0.039-1l-3.71-2.211c-0.57-0.34-0.981-0.894-1.145-1.537      c-0.162-0.644-0.061-1.326,0.28-1.896l5.528-9.223c0.702-1.173,2.214-1.563,3.396-0.879l3.828,2.213      c0.432-0.293,0.919-0.577,1.517-0.84V3c0-1.381,1.119-2.5,2.5-2.5h10c1.381,0,2.5,1.119,2.5,2.5v4.75      c0.461,0.229,0.953,0.482,1.438,0.763l3.955-2.23c1.193-0.674,2.706-0.261,3.393,0.928l5.361,9.286      c0.332,0.574,0.422,1.257,0.25,1.897s-0.591,1.187-1.165,1.518l-3.768,2.175c0.016,0.271,0.022,0.534,0.022,0.795      c0,0.324-0.013,0.653-0.038,0.997l3.721,2.208c0.57,0.338,0.983,0.89,1.146,1.533c0.164,0.644,0.064,1.325-0.274,1.896      l-5.494,9.227c-0.703,1.181-2.228,1.572-3.411,0.878l-3.866-2.263c-0.428,0.243-0.858,0.465-1.27,0.668V43      C71.897,44.381,70.778,45.5,69.397,45.5z M61.897,40.5h5v-4.034c0-0.938,0.524-1.796,1.357-2.224      c0.247-0.127,0.53-0.265,0.833-0.411c0.824-0.398,1.849-0.895,2.461-1.377c0.806-0.638,1.923-0.713,2.81-0.193l3.059,1.79      l2.944-4.943l-2.975-1.766c-0.889-0.527-1.36-1.547-1.188-2.565c0.128-0.762,0.186-1.346,0.186-1.896      c0-0.527-0.048-1.094-0.149-1.783c-0.15-1.015,0.334-2.019,1.223-2.531l3.007-1.735l-2.874-4.978l-3.13,1.765      c-0.884,0.498-1.985,0.412-2.783-0.221c-0.611-0.486-1.643-0.993-2.471-1.399c-0.365-0.18-0.702-0.347-0.986-0.498      c-0.814-0.435-1.322-1.282-1.322-2.205V5.5h-5v3.795c0,1.142-0.773,2.139-1.88,2.422c-1.316,0.337-1.784,0.706-2.633,1.376      l-0.281,0.221c-0.804,0.627-1.908,0.704-2.789,0.193l-3.134-1.812l-2.975,4.963l2.951,1.759c0.872,0.52,1.343,1.516,1.192,2.52      c-0.111,0.738-0.186,1.352-0.186,1.944c0,0.573,0.047,1.149,0.142,1.761c0.16,1.021-0.325,2.035-1.222,2.552l-3.018,1.739      l2.886,5.001l3.27-1.802c0.881-0.485,1.967-0.396,2.757,0.228l0.171,0.136c0.963,0.763,1.494,1.184,2.89,1.555      c1.096,0.291,1.858,1.282,1.858,2.416V40.5z M64.267,31.902c-4.974,0-9.021-4.047-9.021-9.021c0-4.973,4.047-9.019,9.021-9.019      c4.972,0,9.017,4.046,9.017,9.019C73.283,27.855,69.238,31.902,64.267,31.902z M64.267,18.862c-2.217,0-4.021,1.803-4.021,4.019      c0,2.218,1.804,4.021,4.021,4.021c2.215,0,4.017-1.804,4.017-4.021C68.283,20.665,66.481,18.862,64.267,18.862z" fill="#454B53"/></g></g></g></g></svg>