<?xml version="1.0" ?><!DOCTYPE svg  PUBLIC '-//W3C//DTD SVG 1.1//EN'  'http://www.w3.org/Graphics/SVG/1.1/DTD/svg11.dtd'><svg enable-background="new 0 0 91 91" height="91px" id="Layer_1" version="1.1" viewBox="0 0 91 91" width="91px" xml:space="preserve" xmlns="http://www.w3.org/2000/svg" xmlns:xlink="http://www.w3.org/1999/xlink"><g><rect fill="#FDE497" height="10.05" width="85.425" x="2.327" y="3.584"/><rect fill="#FDE497" height="10.05" width="65.325" x="12.377" y="28.709"/><rect fill="#FDE497" height="10.05" width="85.425" x="2.327" y="53.834"/><rect fill="#FDE497" height="10.05" width="52.395" x="19.077" y="78.959"/><path d="M70.247,81.504H19.986c-1.388,0-2.513-1.125-2.513-2.513s1.125-2.513,2.513-2.513h50.261   c1.388,0,2.513,1.125,2.513,2.513S71.635,81.504,70.247,81.504z" fill="#454B53"/><path d="M86.998,56.638H3.233c-1.388,0-2.513-1.125-2.513-2.513s1.125-2.513,2.513-2.513h83.765   c1.388,0,2.513,1.125,2.513,2.513S88.386,56.638,86.998,56.638z" fill="#454B53"/><path d="M76.943,31.769H13.287c-1.388,0-2.513-1.125-2.513-2.513s1.125-2.513,2.513-2.513h63.656   c1.388,0,2.513,1.125,2.513,2.513S78.331,31.769,76.943,31.769z" fill="#454B53"/><path d="M86.998,6.896H3.233c-1.388,0-2.513-1.125-2.513-2.513S1.846,1.87,3.233,1.87h83.765   c1.388,0,2.513,1.125,2.513,2.513S88.386,6.896,86.998,6.896z" fill="#454B53"/></g></svg>