<?xml version="1.0" ?><!DOCTYPE svg  PUBLIC '-//W3C//DTD SVG 1.1//EN'  'http://www.w3.org/Graphics/SVG/1.1/DTD/svg11.dtd'><svg enable-background="new 0 0 91 91" height="91px" id="Layer_1" version="1.1" viewBox="0 0 91 91" width="91px" xml:space="preserve" xmlns="http://www.w3.org/2000/svg" xmlns:xlink="http://www.w3.org/1999/xlink"><g><g><path d="M76.89,45.018c0-1.587-0.151-3.138-0.383-4.66l11.227-6.48L76.095,13.742l-11.616,6.47    C62.058,18.281,59,16.706,56,15.548V4H34v11.548c-4,1.112-5.649,2.617-8.005,4.448l-11.251-6.604L2.83,33.398l11.12,6.604    c-0.262,1.643-0.45,3.308-0.45,5.016c0,1.587,0.153,3.136,0.376,4.658L2.648,56.16l11.634,20.135l11.424-6.472    C28.137,71.756,30,73.329,34,74.488V87h22V74.488c3-1.115,5.839-2.618,8.19-4.449l11.348,6.604l11.96-20.006l-11.095-6.603    C76.661,48.394,76.89,46.73,76.89,45.018z M45.186,59.155c-7.799,0-14.138-6.332-14.138-14.138    c0-7.808,6.339-14.136,14.138-14.136c7.81,0,14.14,6.328,14.14,14.136C59.325,52.823,52.995,59.155,45.186,59.155z" fill="#FDE497"/><path d="M56.5,89h-22c-1.381,0-2.5-1.119-2.5-2.5V76.301c-2.612-0.955-4.464-2.126-6.274-3.49l-10.229,5.671    c-1.192,0.661-2.694,0.244-3.377-0.936L0.487,57.411c-0.331-0.574-0.422-1.257-0.25-1.897s0.591-1.188,1.165-1.519l9.794-5.654    c-0.121-1.164-0.181-2.262-0.181-3.323c0-1.317,0.112-2.592,0.254-3.721l-9.656-5.75c-0.57-0.34-0.982-0.893-1.145-1.537    c-0.163-0.644-0.063-1.326,0.279-1.896l11.977-20.006c0.702-1.173,2.218-1.564,3.399-0.878l9.927,5.762    c1.618-1.213,3.362-2.346,5.949-3.273V3.5C32,2.119,33.119,1,34.5,1h22C57.881,1,59,2.119,59,3.5v10.377    c2.124,0.938,4.104,2.059,5.919,3.35l9.939-5.657c1.19-0.677,2.713-0.269,3.4,0.922l11.639,20.135    c0.332,0.574,0.423,1.257,0.251,1.897s-0.591,1.188-1.165,1.519l-9.781,5.646c0.126,1.165,0.188,2.266,0.188,3.329    c0,1.327-0.108,2.597-0.246,3.717l9.692,5.752c0.571,0.339,0.983,0.891,1.147,1.533c0.163,0.644,0.065,1.325-0.274,1.896    L77.812,77.921c-0.703,1.183-2.234,1.573-3.416,0.876l-9.798-5.765c-1.782,1.25-3.634,2.29-5.598,3.144V86.5    C59,87.881,57.881,89,56.5,89z M37,84h17v-9.512c0-1.045,0.649-1.979,1.629-2.344c2.624-0.975,5.004-2.309,7.275-4.078    c0.809-0.629,1.921-0.702,2.804-0.182l9.078,5.341l9.347-15.716l-8.974-5.325c-0.88-0.522-1.354-1.528-1.194-2.538    c0.198-1.259,0.425-2.923,0.425-4.629c0-1.314-0.116-2.716-0.354-4.284c-0.154-1.018,0.33-2.026,1.222-2.541l9.061-5.23    l-9.145-15.818l-9.208,5.241c-0.888,0.505-1.995,0.42-2.795-0.219c-2.199-1.754-4.747-3.196-7.57-4.286    c-0.964-0.372-1.6-1.299-1.6-2.332V6H37v9.548c0,1.123-0.748,2.107-1.83,2.408c-3.47,0.965-5.073,2.212-7.293,3.938l-0.098,0.076    c-0.804,0.625-1.909,0.7-2.789,0.188l-9.243-5.365L6.324,32.532l8.937,5.321c0.879,0.524,1.351,1.531,1.189,2.542    c-0.202,1.27-0.435,2.943-0.435,4.622c0,1.318,0.112,2.724,0.342,4.297c0.148,1.013-0.337,2.015-1.224,2.526l-9.065,5.234    l9.151,15.842l9.525-5.28c0.883-0.49,1.976-0.4,2.768,0.229c2.384,1.896,4.207,3.214,7.684,4.221    C36.265,72.396,37,73.376,37,74.488V84z M45.186,61.655c-9.174,0-16.638-7.464-16.638-16.638c0-9.173,7.464-16.636,16.638-16.636    c9.175,0,16.64,7.463,16.64,16.636C61.825,54.191,54.36,61.655,45.186,61.655z M45.186,33.382c-6.417,0-11.638,5.22-11.638,11.636    c0,6.417,5.221,11.638,11.638,11.638c6.418,0,11.64-5.221,11.64-11.638C56.825,38.602,51.604,33.382,45.186,33.382z" fill="#454B53"/></g></g></svg>