<?xml version="1.0" ?><!DOCTYPE svg  PUBLIC '-//W3C//DTD SVG 1.1//EN'  'http://www.w3.org/Graphics/SVG/1.1/DTD/svg11.dtd'><svg enable-background="new 0 0 91 91" height="91px" id="Layer_1" version="1.1" viewBox="0 0 91 91" width="91px" xml:space="preserve" xmlns="http://www.w3.org/2000/svg" xmlns:xlink="http://www.w3.org/1999/xlink"><g><g><path d="M66.928,88.07H17.545V28.237L75,28.239v51.762C75,84.438,71.367,88.07,66.928,88.07z" fill="#E0F1F8"/><path d="M66.928,90.583H17.545c-1.387,0-2.512-1.125-2.512-2.513V28.237c0-0.666,0.265-1.306,0.736-1.777    c0.471-0.471,1.109-0.735,1.775-0.735l0,0L75,25.727c1.388,0.001,2.513,1.125,2.513,2.513v51.762    C77.513,85.835,72.764,90.583,66.928,90.583z M20.059,85.558h46.869c3.065,0,5.56-2.492,5.56-5.557v-49.25L20.059,30.75V85.558z" fill="#454B53"/></g><g><rect fill="#9ABFDA" height="13.49" width="64.78" x="13.88" y="14.747"/><path d="M78.66,30.75H13.88c-1.388,0-2.513-1.125-2.513-2.513v-13.49c0-1.389,1.125-2.514,2.513-2.514h64.78    c1.389,0,2.514,1.125,2.514,2.514v13.49C81.174,29.625,80.049,30.75,78.66,30.75z M16.393,25.725h59.756v-8.466H16.393V25.725z" fill="#454B53"/></g><path d="M56.946,17.262H35.59c-1.388,0-2.513-1.125-2.513-2.513V2.646c0-1.388,1.125-2.513,2.513-2.513h21.356   c1.388,0,2.513,1.125,2.513,2.513v12.103C59.459,16.137,58.334,17.262,56.946,17.262z M38.103,12.236h16.331V5.159H38.103V12.236z" fill="#454B53"/><path d="M32.033,78.481c-1.387,0-2.512-1.125-2.512-2.514V42.511c0-1.388,1.125-2.513,2.512-2.513   c1.389,0,2.514,1.125,2.514,2.513v33.457C34.547,77.356,33.422,78.481,32.033,78.481z" fill="#454B53"/><path d="M46.271,78.481c-1.388,0-2.513-1.125-2.513-2.514V42.511c0-1.388,1.125-2.513,2.513-2.513   s2.513,1.125,2.513,2.513v33.457C48.784,77.356,47.659,78.481,46.271,78.481z" fill="#454B53"/><path d="M60.509,78.481c-1.388,0-2.513-1.125-2.513-2.514V42.511c0-1.388,1.125-2.513,2.513-2.513   s2.513,1.125,2.513,2.513v33.457C63.021,77.356,61.896,78.481,60.509,78.481z" fill="#454B53"/></g></svg>