<?xml version="1.0" ?><!DOCTYPE svg  PUBLIC '-//W3C//DTD SVG 1.1//EN'  'http://www.w3.org/Graphics/SVG/1.1/DTD/svg11.dtd'><svg enable-background="new 0 0 91 91" height="91px" id="Layer_1" version="1.1" viewBox="0 0 91 91" width="91px" xml:space="preserve" xmlns="http://www.w3.org/2000/svg" xmlns:xlink="http://www.w3.org/1999/xlink"><g><g><g><g><path d="M83.629,79.354c0,4.561-3.697,8.256-8.255,8.256H6.614V21.214h77.015V79.354z" fill="#E0F1F8"/><path d="M75.374,90.122H6.614c-1.388,0-2.513-1.125-2.513-2.513V21.214c0-1.388,1.125-2.513,2.513-2.513h77.015      c1.388,0,2.513,1.125,2.513,2.513v58.14C86.142,85.291,81.312,90.122,75.374,90.122z M9.127,85.097h66.247      c3.166,0,5.742-2.576,5.742-5.743V23.727H9.127V85.097z" fill="#454B53"/></g><path d="M37.707,43.504H21.644c-1.388,0-2.513-1.125-2.513-2.514c0-1.387,1.125-2.512,2.513-2.512h16.063     c1.388,0,2.513,1.125,2.513,2.512C40.22,42.379,39.095,43.504,37.707,43.504z" fill="#454B53"/><path d="M29.672,51.537c-1.388,0-2.513-1.125-2.513-2.514V32.962c0-1.388,1.125-2.513,2.513-2.513     s2.513,1.125,2.513,2.513v16.062C32.185,50.412,31.06,51.537,29.672,51.537z" fill="#454B53"/><path d="M36.535,78.395c-0.644,0-1.286-0.245-1.777-0.736l-13.724-13.73c-0.98-0.98-0.98-2.572,0.001-3.553     c0.983-0.981,2.572-0.98,3.554,0l13.724,13.73c0.98,0.982,0.98,2.572-0.001,3.554C37.82,78.15,37.178,78.395,36.535,78.395z" fill="#454B53"/><path d="M22.812,78.393c-0.643,0-1.286-0.245-1.776-0.735c-0.981-0.981-0.981-2.571,0-3.554l13.724-13.727     c0.979-0.98,2.571-0.98,3.553,0s0.981,2.571,0,3.553L24.588,77.656C24.098,78.147,23.455,78.393,22.812,78.393z" fill="#454B53"/><path d="M69.254,43.504H53.188c-1.388,0-2.513-1.125-2.513-2.514c0-1.387,1.125-2.512,2.513-2.512h16.066     c1.388,0,2.513,1.125,2.513,2.512C71.767,42.379,70.642,43.504,69.254,43.504z" fill="#454B53"/><path d="M69.254,71.529H53.188c-1.388,0-2.513-1.125-2.513-2.514c0-1.387,1.125-2.512,2.513-2.512h16.066     c1.388,0,2.513,1.125,2.513,2.512C71.767,70.404,70.642,71.529,69.254,71.529z" fill="#454B53"/><path d="M62.103,64.33h-1.757c-1.388,0-2.513-1.125-2.513-2.512c0-1.389,1.125-2.514,2.513-2.514h1.757     c1.388,0,2.513,1.125,2.513,2.514C64.615,63.205,63.49,64.33,62.103,64.33z" fill="#454B53"/><path d="M62.103,78.709h-1.757c-1.388,0-2.513-1.125-2.513-2.512c0-1.389,1.125-2.514,2.513-2.514h1.757     c1.388,0,2.513,1.125,2.513,2.514C64.615,77.584,63.49,78.709,62.103,78.709z" fill="#454B53"/><g><rect fill="#B0E0D4" height="18.537" width="77.015" x="6.614" y="2.676"/><path d="M83.629,23.725H6.614c-1.388,0-2.513-1.125-2.513-2.512V2.676c0-1.387,1.125-2.512,2.513-2.512h77.015      c1.388,0,2.513,1.125,2.513,2.512v18.537C86.142,22.6,85.017,23.725,83.629,23.725z M9.127,18.699h71.989V5.189H9.127V18.699z" fill="#454B53"/></g></g></g></g></svg>