<?xml version="1.0" ?><!DOCTYPE svg  PUBLIC '-//W3C//DTD SVG 1.1//EN'  'http://www.w3.org/Graphics/SVG/1.1/DTD/svg11.dtd'><svg enable-background="new 0 0 91 91" height="91px" id="Layer_1" version="1.1" viewBox="0 0 91 91" width="91px" xml:space="preserve" xmlns="http://www.w3.org/2000/svg" xmlns:xlink="http://www.w3.org/1999/xlink"><g><rect fill="#B0E0D4" height="10.05" width="85.424" x="2.729" y="4.259"/><rect fill="#B0E0D4" height="10.05" width="65.324" x="2.729" y="29.384"/><rect fill="#B0E0D4" height="10.05" width="52.394" x="2.729" y="77.959"/><rect fill="#B0E0D4" height="10.05" width="85.424" x="2.729" y="54.509"/><path d="M53.598,80.711H3.565c-1.388,0-2.513-1.125-2.513-2.513s1.125-2.513,2.513-2.513h50.032   c1.388,0,2.513,1.125,2.513,2.513S54.985,80.711,53.598,80.711z" fill="#454B53"/><path d="M86.952,55.962H3.565c-1.388,0-2.513-1.125-2.513-2.513s1.125-2.513,2.513-2.513h83.387   c1.388,0,2.513,1.125,2.513,2.513S88.34,55.962,86.952,55.962z" fill="#454B53"/><path d="M66.934,31.216H3.565c-1.388,0-2.513-1.125-2.513-2.513s1.125-2.513,2.513-2.513h63.368   c1.388,0,2.513,1.125,2.513,2.513S68.321,31.216,66.934,31.216z" fill="#454B53"/><path d="M86.952,6.461H3.565c-1.388,0-2.513-1.125-2.513-2.512c0-1.389,1.125-2.514,2.513-2.514h83.387   c1.388,0,2.513,1.125,2.513,2.514C89.465,5.336,88.34,6.461,86.952,6.461z" fill="#454B53"/></g></svg>