<?xml version="1.0" ?><!DOCTYPE svg  PUBLIC '-//W3C//DTD SVG 1.1//EN'  'http://www.w3.org/Graphics/SVG/1.1/DTD/svg11.dtd'><svg enable-background="new 0 0 91 91" height="91px" id="Layer_1" version="1.1" viewBox="0 0 91 91" width="91px" xml:space="preserve" xmlns="http://www.w3.org/2000/svg" xmlns:xlink="http://www.w3.org/1999/xlink"><g><g><g><g><path d="M18.79,73.279H4.344V46.186l81.667,0.001v19.427c0,4.217-3.452,7.666-7.671,7.666h-6.801" fill="#9ABFDA"/><path d="M78.34,75.792h-6.801c-1.389,0-2.514-1.125-2.514-2.513s1.125-2.513,2.514-2.513h6.801      c2.844,0,5.158-2.312,5.158-5.153V48.699L6.856,48.697v22.069H18.79c1.388,0,2.513,1.125,2.513,2.513s-1.125,2.513-2.513,2.513      H4.344c-1.388,0-2.513-1.125-2.513-2.513V46.186c0-0.667,0.265-1.307,0.736-1.777s1.11-0.736,1.776-0.736l81.667,0.002      c1.388,0,2.513,1.125,2.513,2.513v19.427C88.523,71.226,83.955,75.792,78.34,75.792z" fill="#454B53"/></g><g><rect fill="#E0F1F8" height="36.893" width="52.773" x="18.793" y="9.293"/><path d="M71.566,48.697H18.793c-1.388,0-2.513-1.125-2.513-2.512V9.293c0-1.387,1.125-2.512,2.513-2.512h52.773      c1.388,0,2.513,1.125,2.513,2.512v36.893C74.079,47.572,72.954,48.697,71.566,48.697z M21.306,43.672h47.748V11.807H21.306      V43.672z" fill="#454B53"/></g><path d="M39.59,57.461h-4.964c-1.388,0-2.513-1.125-2.513-2.513s1.125-2.513,2.513-2.513h4.964     c1.388,0,2.513,1.125,2.513,2.513S40.978,57.461,39.59,57.461z" fill="#454B53"/><path d="M55.729,57.461h-4.963c-1.388,0-2.513-1.125-2.513-2.513s1.125-2.513,2.513-2.513h4.963     c1.389,0,2.514,1.125,2.514,2.513S57.117,57.461,55.729,57.461z" fill="#454B53"/><g><rect fill="#FFFFFF" height="16.456" width="52.773" x="18.793" y="63.725"/><path d="M71.566,82.693H18.793c-1.388,0-2.513-1.125-2.513-2.513V63.725c0-1.389,1.125-2.514,2.513-2.514h52.773      c1.388,0,2.513,1.125,2.513,2.514v16.456C74.079,81.568,72.954,82.693,71.566,82.693z M21.306,77.668h47.748V66.236H21.306      V77.668z" fill="#454B53"/></g></g></g></g></svg>