<?xml version="1.0" ?><!DOCTYPE svg  PUBLIC '-//W3C//DTD SVG 1.1//EN'  'http://www.w3.org/Graphics/SVG/1.1/DTD/svg11.dtd'><svg enable-background="new 0 0 91 91" height="91px" id="Layer_1" version="1.1" viewBox="0 0 91 91" width="91px" xml:space="preserve" xmlns="http://www.w3.org/2000/svg" xmlns:xlink="http://www.w3.org/1999/xlink"><g><g><g><g><rect fill="#F4767A" height="39.338" transform="matrix(0.7071 0.7071 -0.7071 0.7071 44.0331 -22.2384)" width="42.846" x="27.439" y="22.365"/><path d="M50.102,73.604c-0.666,0-1.305-0.265-1.776-0.736L18.027,42.571c-0.471-0.472-0.736-1.11-0.736-1.776      c0-0.667,0.266-1.307,0.736-1.777l27.818-27.815c0.471-0.471,1.109-0.735,1.775-0.735l0,0c0.667,0,1.307,0.265,1.777,0.736      L79.692,41.5c0.981,0.98,0.981,2.571,0,3.553L51.879,72.867C51.407,73.338,50.768,73.604,50.102,73.604z M23.357,40.795      l26.744,26.742l24.261-24.262L47.621,16.532L23.357,40.795z" fill="#454B53"/></g><g><polygon fill="#FDE9D0" points="78.078,43.114 47.781,12.82 53.635,2.836 88.063,37.268     "/><path d="M78.079,45.627c-0.65,0-1.294-0.252-1.777-0.736L46.005,14.598c-0.809-0.809-0.97-2.062-0.392-3.048      l5.854-9.985c0.395-0.671,1.076-1.122,1.848-1.221c0.779-0.098,1.547,0.166,2.098,0.715L89.84,35.492      c0.551,0.55,0.814,1.324,0.715,2.096c-0.1,0.772-0.551,1.455-1.223,1.848l-9.984,5.847      C78.952,45.514,78.514,45.627,78.079,45.627z M50.931,12.416l27.552,27.55l5.504-3.222L54.158,6.912L50.931,12.416z" fill="#454B53"/></g><g><polygon fill="#FDE9D0" points="43.976,81.354 9.547,46.926 19.529,41.072 49.826,71.37     "/><path d="M43.976,83.867c-0.662,0-1.302-0.262-1.776-0.736L7.77,48.701c-0.55-0.549-0.814-1.324-0.715-2.096      c0.099-0.771,0.55-1.454,1.221-1.848l9.983-5.853c0.985-0.579,2.237-0.419,3.048,0.392l30.297,30.297      c0.809,0.809,0.969,2.061,0.391,3.047l-5.852,9.984c-0.393,0.672-1.075,1.123-1.848,1.222      C44.188,83.86,44.082,83.867,43.976,83.867z M13.623,47.448l29.829,29.829l3.226-5.503L19.125,44.223L13.623,47.448z" fill="#454B53"/></g><path d="M3.557,89.857c-0.644,0-1.287-0.246-1.777-0.736c-0.98-0.98-0.98-2.572,0-3.553l23.205-23.205     c0.98-0.98,2.572-0.98,3.553,0c0.981,0.981,0.981,2.572,0,3.553L5.332,89.121C4.842,89.611,4.199,89.857,3.557,89.857z" fill="#454B53"/></g></g></g></svg>