<?xml version="1.0" ?><!DOCTYPE svg  PUBLIC '-//W3C//DTD SVG 1.1//EN'  'http://www.w3.org/Graphics/SVG/1.1/DTD/svg11.dtd'><svg enable-background="new 0 0 91 91" height="91px" id="Layer_1" version="1.1" viewBox="0 0 91 91" width="91px" xml:space="preserve" xmlns="http://www.w3.org/2000/svg" xmlns:xlink="http://www.w3.org/1999/xlink"><g><g><g><g><path d="M82.717,60.953c0,4.411-3.582,7.99-7.992,7.99H8.156V4.658h74.561V60.953z" fill="#E0F1F8"/><path d="M74.725,71.456H8.156c-1.388,0-2.513-1.125-2.513-2.513V4.658c0-1.387,1.125-2.512,2.513-2.512h74.561      c1.388,0,2.513,1.125,2.513,2.512v56.295C85.229,66.744,80.517,71.456,74.725,71.456z M10.669,66.431h64.056      c3.021,0,5.479-2.458,5.479-5.478V7.172H10.669V66.431z" fill="#454B53"/></g><path d="M87.696,7.172H3.318c-1.388,0-2.513-1.125-2.513-2.514c0-1.387,1.125-2.512,2.513-2.512h84.378     c1.388,0,2.513,1.125,2.513,2.512C90.209,6.047,89.084,7.172,87.696,7.172z" fill="#454B53"/><path d="M25.827,89.869c-0.506,0-1.016-0.151-1.459-0.468c-1.129-0.807-1.39-2.376-0.583-3.505L36.941,67.48     c0.807-1.13,2.374-1.391,3.505-0.584c1.129,0.807,1.39,2.377,0.583,3.506L27.873,88.817     C27.383,89.504,26.61,89.869,25.827,89.869z" fill="#454B53"/><path d="M65.05,89.869c-0.784,0-1.556-0.365-2.046-1.052L49.846,70.402c-0.807-1.129-0.546-2.699,0.583-3.506     c1.13-0.805,2.698-0.545,3.505,0.584l13.158,18.416c0.807,1.129,0.546,2.698-0.583,3.505     C66.065,89.717,65.556,89.869,65.05,89.869z" fill="#454B53"/><path d="M28.649,58.857c-1.388,0-2.513-1.125-2.513-2.513V41.778c0-1.388,1.125-2.513,2.513-2.513     s2.513,1.125,2.513,2.513v14.566C31.162,57.732,30.037,58.857,28.649,58.857z" fill="#454B53"/><path d="M44.612,58.855c-1.388,0-2.513-1.125-2.513-2.512V32.852c0-1.388,1.125-2.513,2.513-2.513     s2.513,1.125,2.513,2.513v23.492C47.125,57.73,46,58.855,44.612,58.855z" fill="#454B53"/><path d="M62.688,58.855c-1.388,0-2.513-1.125-2.513-2.512V39.898c0-1.387,1.125-2.512,2.513-2.512     s2.513,1.125,2.513,2.512v16.445C65.201,57.73,64.076,58.855,62.688,58.855z" fill="#454B53"/><path d="M19.361,36.776c-0.745,0-1.481-0.329-1.978-0.96c-0.857-1.092-0.668-2.671,0.423-3.528l19.735-15.511     c0.788-0.618,1.867-0.71,2.746-0.235l19.268,10.401l10.206-9.986c0.99-0.971,2.582-0.953,3.553,0.039s0.953,2.582-0.039,3.553     l-11.528,11.28c-0.786,0.769-1.98,0.938-2.95,0.415L39.352,21.746L20.912,36.239C20.452,36.601,19.904,36.776,19.361,36.776z" fill="#7BA7C9"/></g></g></g></svg>