<?xml version="1.0" ?><!DOCTYPE svg  PUBLIC '-//W3C//DTD SVG 1.1//EN'  'http://www.w3.org/Graphics/SVG/1.1/DTD/svg11.dtd'><svg enable-background="new 0 0 91 91" height="91px" id="Layer_1" version="1.1" viewBox="0 0 91 91" width="91px" xml:space="preserve" xmlns="http://www.w3.org/2000/svg" xmlns:xlink="http://www.w3.org/1999/xlink"><g><g><path d="M74.778,9.019l0.108,70.093c0,4.529-3.705,8.23-8.234,8.23H17.764V9.019H74.778z" fill="#B0E0D4"/><path d="M66.652,89.855H17.764c-1.388,0-2.513-1.125-2.513-2.514V9.019c0-1.388,1.125-2.513,2.513-2.513h57.015    c1.386,0,2.511,1.123,2.513,2.509l0.107,70.093C77.398,85.035,72.578,89.855,66.652,89.855z M20.276,84.83h46.376    c3.154,0,5.721-2.565,5.721-5.719l-0.104-67.58H20.276V84.83z" fill="#454B53"/></g><path d="M62.279,50.434H30.871c-1.387,0-2.512-1.125-2.512-2.512c0-1.389,1.125-2.514,2.512-2.514h31.408   c1.387,0,2.512,1.125,2.512,2.514C64.791,49.309,63.666,50.434,62.279,50.434z" fill="#454B53"/><path d="M62.279,36.094H30.871c-1.387,0-2.512-1.125-2.512-2.513s1.125-2.513,2.512-2.513h31.408   c1.387,0,2.512,1.125,2.512,2.513S63.666,36.094,62.279,36.094z" fill="#454B53"/><path d="M39.585,64.592h-8.714c-1.387,0-2.512-1.125-2.512-2.512c0-1.389,1.125-2.514,2.512-2.514h8.714   c1.388,0,2.513,1.125,2.513,2.514C42.098,63.467,40.973,64.592,39.585,64.592z" fill="#454B53"/><path d="M54.422,64.592h-3.687c-1.388,0-2.513-1.125-2.513-2.512c0-1.389,1.125-2.514,2.513-2.514h3.687   c1.389,0,2.514,1.125,2.514,2.514C56.936,63.467,55.811,64.592,54.422,64.592z" fill="#454B53"/><path d="M28.895,15.935c-1.389,0-2.514-1.125-2.514-2.513v-9.89c0-1.388,1.125-2.513,2.514-2.513   c1.387,0,2.512,1.125,2.512,2.513v9.89C31.406,14.81,30.281,15.935,28.895,15.935z" fill="#454B53"/><path d="M46.319,15.935c-1.388,0-2.513-1.125-2.513-2.513v-9.89c0-1.388,1.125-2.513,2.513-2.513   s2.513,1.125,2.513,2.513v9.89C48.832,14.81,47.707,15.935,46.319,15.935z" fill="#454B53"/><path d="M63.746,15.935c-1.388,0-2.513-1.125-2.513-2.513v-9.89c0-1.388,1.125-2.513,2.513-2.513   s2.513,1.125,2.513,2.513v9.89C66.259,14.81,65.134,15.935,63.746,15.935z" fill="#454B53"/></g></svg>