<?xml version="1.0" ?><!DOCTYPE svg  PUBLIC '-//W3C//DTD SVG 1.1//EN'  'http://www.w3.org/Graphics/SVG/1.1/DTD/svg11.dtd'><svg enable-background="new 0 0 91 91" height="91px" id="Layer_1" version="1.1" viewBox="0 0 91 91" width="91px" xml:space="preserve" xmlns="http://www.w3.org/2000/svg" xmlns:xlink="http://www.w3.org/1999/xlink"><g><g><g><g><path d="M88.102,51.465c0-26.392-21.396-47.789-47.787-47.789v47.789H88.102z" fill="#FDE497"/><path d="M88.102,53.977H40.314c-1.388,0-2.513-1.125-2.513-2.512V3.676c0-1.387,1.125-2.512,2.513-2.512      c27.735,0,50.3,22.564,50.3,50.301C90.614,52.852,89.489,53.977,88.102,53.977z M42.827,48.951h42.693      C84.259,25.982,65.797,7.52,42.827,6.258V48.951z" fill="#454B53"/></g><g><path d="M3.448,51.465c0,20.361,16.505,36.865,36.87,36.865c20.354,0,36.859-16.504,36.859-36.865H40.318V14.601      C19.953,14.601,3.448,31.105,3.448,51.465z" fill="#9ABFDA"/><path d="M40.318,90.844c-21.716,0-39.383-17.666-39.383-39.379s17.667-39.377,39.383-39.377      c1.388,0,2.513,1.125,2.513,2.513v34.351h34.347c1.388,0,2.513,1.125,2.513,2.514C79.69,73.178,62.028,90.844,40.318,90.844z       M37.806,17.204C20.03,18.495,5.961,33.368,5.961,51.465c0,18.942,15.412,34.354,34.357,34.354      c18.094,0,32.965-14.068,34.256-31.842H40.318c-1.388,0-2.513-1.125-2.513-2.512V17.204z" fill="#454B53"/></g></g></g></g></svg>