<?xml version="1.0" ?><!DOCTYPE svg  PUBLIC '-//W3C//DTD SVG 1.1//EN'  'http://www.w3.org/Graphics/SVG/1.1/DTD/svg11.dtd'><svg enable-background="new 0 0 91 91" height="91px" id="Layer_1" version="1.1" viewBox="0 0 91 91" width="91px" xml:space="preserve" xmlns="http://www.w3.org/2000/svg" xmlns:xlink="http://www.w3.org/1999/xlink"><g><g><g><g><path d="M80.203,83.916H2.836V18.801l85.387,0.002v57.094C88.223,80.307,84.613,83.916,80.203,83.916z" fill="#B0E0D4"/><path d="M80.203,86.429H2.836c-1.387,0-2.512-1.125-2.512-2.513V18.801c0-0.667,0.265-1.307,0.736-1.777      c0.471-0.471,1.109-0.736,1.775-0.736l0,0l85.387,0.002c1.387,0,2.512,1.125,2.512,2.514v57.094      C90.734,81.703,86.01,86.429,80.203,86.429z M5.35,81.403h74.854c3.036,0,5.506-2.471,5.506-5.507V21.314L5.35,21.313V81.403z" fill="#454B53"/></g><g><polygon fill="#E0F1F8" points="74.074,45.49 16.987,45.49 2.84,18.801 88.223,18.801     "/><path d="M74.074,48.004H16.987c-0.931,0-1.784-0.515-2.22-1.336L0.62,19.977      c-0.413-0.778-0.388-1.717,0.067-2.472c0.454-0.755,1.271-1.218,2.152-1.218h85.383c0.881,0,1.697,0.463,2.152,1.218      s0.48,1.693,0.066,2.472L76.295,46.668C75.859,47.489,75.005,48.004,74.074,48.004z M18.499,42.979h54.063l11.484-21.666H7.016      L18.499,42.979z" fill="#454B53"/></g><path d="M58.972,21.313h-26.88c-1.388,0-2.513-1.125-2.513-2.512V6.774c0-1.388,1.125-2.513,2.513-2.513h26.88     c1.388,0,2.513,1.125,2.513,2.513v12.026C61.484,20.188,60.359,21.313,58.972,21.313z M34.604,16.287h21.854v-7H34.604V16.287z" fill="#454B53"/><g><path d="M55.097,45.49c0,5.285-4.284,9.57-9.563,9.57c-5.287,0-9.568-4.285-9.568-9.57H55.097z" fill="#FFFFFF"/><path d="M45.533,57.572c-6.662,0-12.082-5.42-12.082-12.082c0-1.387,1.125-2.512,2.514-2.512h19.132      c1.388,0,2.513,1.125,2.513,2.512C57.609,52.152,52.191,57.572,45.533,57.572z M38.939,48.004      c1.014,2.654,3.587,4.543,6.594,4.543c3.004,0,5.575-1.889,6.59-4.543H38.939z" fill="#454B53"/></g></g></g></g></svg>