<?xml version="1.0" ?><!DOCTYPE svg  PUBLIC '-//W3C//DTD SVG 1.1//EN'  'http://www.w3.org/Graphics/SVG/1.1/DTD/svg11.dtd'><svg enable-background="new 0 0 91 91" height="91px" id="Layer_1" version="1.1" viewBox="0 0 91 91" width="91px" xml:space="preserve" xmlns="http://www.w3.org/2000/svg" xmlns:xlink="http://www.w3.org/1999/xlink"><g><g><polygon fill="#B0E0D4" points="18.609,87.373 45.811,4.565 73.019,87.373 3.225,37.692 88.399,37.692   "/><path d="M18.609,89.886c-0.524,0-1.047-0.163-1.49-0.489c-0.874-0.645-1.236-1.776-0.897-2.808l9.733-29.632    L1.768,39.739c-0.891-0.634-1.27-1.771-0.936-2.812c0.332-1.041,1.3-1.748,2.393-1.748h29.885L43.424,3.781    c0.338-1.031,1.301-1.729,2.387-1.729s2.049,0.697,2.387,1.729L58.514,35.18h29.886c1.093,0,2.061,0.707,2.394,1.748    c0.332,1.041-0.046,2.178-0.937,2.812L65.67,56.957l9.735,29.632c0.339,1.031-0.022,2.163-0.896,2.808    c-0.874,0.642-2.063,0.652-2.947,0.023L45.813,71.092L20.066,89.42C19.629,89.73,19.119,89.886,18.609,89.886z M30.242,60.009    l-6.859,20.882L41.48,68.008L30.242,60.009z M50.146,68.008l18.099,12.883l-6.861-20.882L50.146,68.008z M31.885,55.009    l13.928,9.915L59.74,55.01l-4.864-14.805H36.748L31.885,55.009z M60.165,40.205l3.862,11.753l16.51-11.753H60.165z M11.087,40.205    l16.511,11.753l3.861-11.753H11.087z M38.398,35.18h14.826l-7.414-22.564L38.398,35.18z" fill="#454B53"/></g></g></svg>