<?xml version="1.0" ?><!DOCTYPE svg  PUBLIC '-//W3C//DTD SVG 1.1//EN'  'http://www.w3.org/Graphics/SVG/1.1/DTD/svg11.dtd'><svg enable-background="new 0 0 91 91" height="91px" id="Layer_1" version="1.1" viewBox="0 0 91 91" width="91px" xml:space="preserve" xmlns="http://www.w3.org/2000/svg" xmlns:xlink="http://www.w3.org/1999/xlink"><g><g><path d="M85.992,20.759l-9.971,9.972c-3.627,3.626-10.061,3.07-14.369-1.238l-0.234-0.226    c-4.303-4.311-4.861-10.746-1.232-14.372l9.971-9.968c-8.209-3.424-17.244-2.425-23.059,3.384l-6.631,6.63    c-6.444,6.453-6.978,16.847-2.109,25.7c-0.851,0.319-1.643,0.78-2.297,1.446L4.948,73.197c-2.928,2.927-2.475,8.115,1.005,11.588    l0.173,0.187c3.481,3.471,8.667,3.922,11.592,0.997l31.115-31.109c0.66-0.663,1.121-1.449,1.443-2.299    c8.852,4.868,19.246,4.328,25.699-2.116l6.623-6.632C88.416,37.999,89.414,28.974,85.992,20.759z" fill="#B0E0D4"/><path d="M12.836,90.412c-3.059,0-6.151-1.335-8.484-3.661L4.11,86.493c-2.266-2.259-3.604-5.351-3.605-8.412    c-0.002-2.575,0.946-4.94,2.667-6.661l31.112-31.109c0.237-0.241,0.492-0.469,0.765-0.683c-4.26-9.519-2.907-19.906,3.641-26.463    l6.633-6.632c3.928-3.924,9.37-6.085,15.323-6.085c3.518,0,7.043,0.727,10.479,2.159c0.773,0.323,1.336,1.01,1.498,1.832    s-0.096,1.672-0.689,2.264l-9.969,9.968c-2.643,2.64-2.088,7.493,1.234,10.82l0.197,0.19c1.875,1.875,4.26,2.931,6.572,2.931    c1.195,0,2.906-0.288,4.277-1.658l9.973-9.972c0.592-0.593,1.441-0.853,2.264-0.688c0.822,0.163,1.51,0.725,1.832,1.499    c3.967,9.522,2.457,19.407-3.939,25.797l-6.619,6.63c-3.938,3.932-9.383,6.096-15.332,6.096c-0.002,0-0.002,0-0.002,0    c-3.732,0-7.537-0.841-11.135-2.448c-0.211,0.271-0.436,0.526-0.674,0.767L19.494,87.745    C17.775,89.465,15.411,90.412,12.836,90.412z M60.645,5.474c-4.611,0-8.793,1.639-11.771,4.614l-6.63,6.63    c-5.467,5.474-6.144,14.602-1.685,22.712c0.352,0.64,0.408,1.399,0.155,2.083s-0.791,1.224-1.474,1.48    c-0.584,0.219-1.038,0.499-1.388,0.854L6.724,74.974c-0.988,0.988-1.195,2.234-1.195,3.104c0.001,1.738,0.802,3.535,2.198,4.929    l0.241,0.257c1.33,1.323,3.13,2.123,4.868,2.123c0.871,0,2.117-0.207,3.104-1.194l31.114-31.109    c0.363-0.364,0.648-0.827,0.871-1.413c0.258-0.681,0.799-1.216,1.48-1.467c0.684-0.252,1.441-0.195,2.08,0.156    c3.486,1.917,7.268,2.931,10.934,2.932h0.002c4.609,0,8.791-1.643,11.777-4.624l6.619-6.63c4.131-4.126,5.568-10.259,4.063-16.612    l-7.084,7.082c-2.018,2.019-4.799,3.13-7.828,3.131c-3.639,0-7.316-1.593-10.092-4.369l-0.201-0.191    c-5.314-5.323-5.865-13.364-1.266-17.96l7.072-7.07C63.861,5.668,62.23,5.474,60.645,5.474z" fill="#454B53"/></g></g></svg>