<?xml version="1.0" ?><!DOCTYPE svg  PUBLIC '-//W3C//DTD SVG 1.1//EN'  'http://www.w3.org/Graphics/SVG/1.1/DTD/svg11.dtd'><svg enable-background="new 0 0 91 91" height="91px" id="Layer_1" version="1.1" viewBox="0 0 91 91" width="91px" xml:space="preserve" xmlns="http://www.w3.org/2000/svg" xmlns:xlink="http://www.w3.org/1999/xlink"><g><g><path d="M45.864,34.287c0,10.729-8.646,19.431-19.306,19.431S7.261,45.016,7.261,34.287    c0-10.727,8.637-19.426,19.297-19.426S45.864,23.561,45.864,34.287z" fill="#E0F1F8"/><path d="M26.558,56.23c-12.025,0-21.81-9.844-21.81-21.943c0-12.098,9.784-21.939,21.81-21.939    c12.03,0,21.819,9.842,21.819,21.939C48.377,46.387,38.588,56.23,26.558,56.23z M26.558,17.373    c-9.255,0-16.784,7.588-16.784,16.914c0,9.328,7.529,16.918,16.784,16.918c9.26,0,16.793-7.59,16.793-16.918    C43.351,24.961,35.818,17.373,26.558,17.373z" fill="#454B53"/></g><path d="M50.492,77.43c-1.387,0-2.512-1.125-2.512-2.513V59.611c0-4.73-2.517-7.941-7.92-10.104   c-1.288-0.516-1.915-1.979-1.399-3.267s1.976-1.917,3.267-1.399c9.157,3.664,11.079,10.055,11.079,14.77v15.306   C53.006,76.305,51.881,77.43,50.492,77.43z" fill="#454B53"/><g><path d="M88.191,27.512c0,9.168-7.43,16.594-16.6,16.594c-9.164,0-16.59-7.426-16.59-16.594    c0-9.166,7.426-16.596,16.59-16.596C80.762,10.916,88.191,18.346,88.191,27.512z" fill="#FDE497"/><path d="M71.592,46.619c-10.533,0-19.102-8.572-19.102-19.107c0-10.537,8.568-19.109,19.102-19.109    c10.539,0,19.113,8.572,19.113,19.109C90.705,38.047,82.131,46.619,71.592,46.619z M71.592,13.428    c-7.762,0-14.076,6.318-14.076,14.084c0,7.765,6.314,14.082,14.076,14.082c7.768,0,14.088-6.317,14.088-14.082    C85.68,19.746,79.359,13.428,71.592,13.428z" fill="#454B53"/></g><path d="M2.933,77.428c-1.388,0-2.513-1.125-2.513-2.513V59.611c0-4.702,1.865-11.079,10.748-14.758   c1.278-0.533,2.752,0.078,3.282,1.359c0.531,1.283-0.078,2.752-1.36,3.283c-5.144,2.131-7.645,5.439-7.645,10.115v15.304   C5.446,76.303,4.321,77.428,2.933,77.428z" fill="#454B53"/><g><polygon fill="#9ABFDA" points="33.493,76.313 26.713,81.733 19.932,76.313 24.234,55.352 26.701,55.352 29.128,55.352   "/><path d="M26.713,84.246c-0.555,0-1.11-0.184-1.568-0.55l-6.781-5.421c-0.738-0.59-1.083-1.543-0.893-2.468    l4.302-20.961c0.239-1.169,1.268-2.008,2.461-2.008h4.895c1.19,0,2.217,0.835,2.46,2.001l4.364,20.961    c0.192,0.927-0.151,1.883-0.891,2.474l-6.779,5.421C27.824,84.063,27.268,84.246,26.713,84.246z M22.703,75.311l4.011,3.206    l4.005-3.203l-3.633-17.449h-0.803L22.703,75.311z" fill="#454B53"/></g><path d="M79.359,30.191H63.426c-1.389,0-2.514-1.125-2.514-2.514c0-1.387,1.125-2.512,2.514-2.512h15.934   c1.387,0,2.512,1.125,2.512,2.512C81.871,29.066,80.746,30.191,79.359,30.191z" fill="#454B53"/></g></svg>