<?xml version="1.0" ?><svg id="Layer_1" style="enable-background:new 0 0 512 512;" version="1.1" viewBox="0 0 512 512" xml:space="preserve" xmlns="http://www.w3.org/2000/svg" xmlns:xlink="http://www.w3.org/1999/xlink"><style type="text/css">
	.st0{fill:#F16723;}
	.st1{fill:#FBD20A;}
	.st2{fill:#4E9BD4;}
	.st3{fill:#F05F88;}
</style><g><path class="st0" d="M69.3,238.5h-3.5V235c0-1.9-1.6-3.5-3.5-3.5s-3.5,1.6-3.5,3.5v3.5h-3.5c-1.9,0-3.5,1.6-3.5,3.5   s1.6,3.5,3.5,3.5h3.5v3.5c0,1.9,1.6,3.5,3.5,3.5s3.5-1.6,3.5-3.5v-3.5h3.5c1.9,0,3.5-1.6,3.5-3.5S71.2,238.5,69.3,238.5z"/><path class="st0" d="M460.8,297.4c-5.7,0-10.3-4.6-10.3-10.3s4.6-10.3,10.3-10.3s10.3,4.6,10.3,10.3S466.5,297.4,460.8,297.4z    M460.8,283.8c-1.8,0-3.3,1.5-3.3,3.3s1.5,3.3,3.3,3.3s3.3-1.5,3.3-3.3S462.6,283.8,460.8,283.8z"/><circle cx="127.1" cy="125.5" r="2.1"/><circle cx="324.3" cy="220.5" r="3.1"/><circle cx="108.8" cy="115.1" r="3.1"/><path class="st1" d="M326.9,121.7c-6.6,0-11.9-5.3-11.9-11.9s5.3-11.9,11.9-11.9s11.9,5.3,11.9,11.9S333.5,121.7,326.9,121.7z    M326.9,104.9c-2.7,0-4.9,2.2-4.9,4.9s2.2,4.9,4.9,4.9c2.7,0,4.9-2.2,4.9-4.9S329.6,104.9,326.9,104.9z"/><path class="st2" d="M161.9,270.3c-4.6,0-8.4-3.8-8.4-8.4s3.8-8.4,8.4-8.4s8.4,3.8,8.4,8.4S166.5,270.3,161.9,270.3z M161.9,260.5   c-0.8,0-1.4,0.6-1.4,1.4c0,0.8,0.6,1.4,1.4,1.4s1.4-0.6,1.4-1.4C163.3,261.1,162.7,260.5,161.9,260.5z"/><path d="M436.6,169.7H76.3c-3.3,0-6-2.7-6-6s2.7-6,6-6h360.3c3.3,0,6,2.7,6,6S439.9,169.7,436.6,169.7z"/><path d="M438.5,351.7c-3.3,0-6-2.7-6-6c0-19.3-3.1-38.4-9.3-56.7c-1.1-3.1,0.6-6.5,3.8-7.6c3.1-1.1,6.5,0.6,7.6,3.8   c6.6,19.5,9.9,39.9,9.9,60.5C444.5,349,441.8,351.7,438.5,351.7z"/><path d="M424.2,280.8c-2.3,0-4.6-1.4-5.5-3.7c-27.7-65.3-91.3-107.4-162.2-107.4c-48.9,0-96.1,20.7-129.4,56.7   c-2.2,2.4-6,2.6-8.5,0.3c-2.4-2.3-2.6-6-0.3-8.5c17.5-18.9,38.2-33.8,61.5-44.2c24.2-10.8,50-16.3,76.7-16.3   c75.7,0,143.7,45,173.2,114.8c1.3,3-0.1,6.6-3.2,7.9C425.8,280.6,425,280.8,424.2,280.8z"/><path d="M74.5,351.7c-3.3,0-6-2.7-6-6c0-41.7,13.4-81.2,38.7-114.3c2-2.6,5.8-3.1,8.4-1.1s3.1,5.8,1.1,8.4   c-23.7,31-36.3,68-36.3,107.1C80.5,349,77.8,351.7,74.5,351.7z"/><rect class="st2" height="31" width="31" x="423" y="331.8"/><path d="M454,368.8h-31c-3.3,0-6-2.7-6-6v-31c0-3.3,2.7-6,6-6h31c3.3,0,6,2.7,6,6v31C460,366.1,457.3,368.8,454,368.8z M429,356.8   h19v-19h-19V356.8z"/><rect class="st2" height="31" width="31" x="241" y="148.2"/><path d="M272,185.2h-31c-3.3,0-6-2.7-6-6v-31c0-3.3,2.7-6,6-6h31c3.3,0,6,2.7,6,6v31C278,182.5,275.3,185.2,272,185.2z M247,173.2   h19v-19h-19V173.2z"/><rect class="st2" height="31" transform="matrix(1.418463e-03 -1 1 1.418463e-03 -272.9029 421.3)" width="31" x="59" y="331.8"/><path d="M90,368.8H59c-3.3,0-6-2.7-6-6v-31c0-3.3,2.7-6,6-6h31c3.3,0,6,2.7,6,6v31C96,366.1,93.3,368.8,90,368.8z M65,356.8h19v-19   H65V356.8z"/><circle class="st3" cx="436.6" cy="163.7" r="14"/><path d="M436.6,183.7c-11,0-20-9-20-20s9-20,20-20s20,9,20,20S447.6,183.7,436.6,183.7z M436.6,155.7c-4.4,0-8,3.6-8,8s3.6,8,8,8   s8-3.6,8-8S441,155.7,436.6,155.7z"/><circle class="st3" cx="76.3" cy="163.7" r="14"/><path d="M76.3,183.7c-11,0-20-9-20-20s9-20,20-20s20,9,20,20S87.3,183.7,76.3,183.7z M76.3,155.7c-4.4,0-8,3.6-8,8s3.6,8,8,8   s8-3.6,8-8S80.7,155.7,76.3,155.7z"/></g></svg>