<?xml version="1.0" ?><svg id="Layer_1" style="enable-background:new 0 0 512 512;" version="1.1" viewBox="0 0 512 512" xml:space="preserve" xmlns="http://www.w3.org/2000/svg" xmlns:xlink="http://www.w3.org/1999/xlink"><style type="text/css">
	.st0{fill:#FFFFFF;}
	.st1{fill:#D0481F;}
	.st2{fill:#F16723;}
	.st3{fill:#F05225;}
	.st4{fill:#FFE4B8;}
	.st5{fill:#E7D0A9;}
	.st6{fill:#D99816;}
	.st7{fill:#FBD20A;}
	.st8{fill:#FAAF1A;}
	.st9{fill:#3769A5;}
	.st10{fill:#4E9BD4;}
	.st11{fill:#4077BB;}
</style><g><g><g><path class="st0" d="M320.9,450.7C319.5,451.8,321.6,452.4,320.9,450.7L320.9,450.7z"/><path class="st0" d="M387.4,373.6L387.4,373.6l46.3-184.9c7.5-29.8-10.6-60-40.4-67.4l0,0c-29.8-7.5-60,10.6-67.4,40.4     l-46.6,186.1l0.4,0.1c-0.8,0.7-1.1,1.9-0.6,3l41.8,99.8l18.6-22.4L387.4,373.6z"/></g><path class="st1" d="M408.9,380.2l-107.9-27l46.6-186.1c7.5-29.8,37.6-47.9,67.4-40.4l0,0c29.8,7.5,47.9,37.6,40.4,67.4    L408.9,380.2z"/><path class="st2" d="M402.2,121.3c-28.1-2.8-54.5,14.3-61.2,41.3l-46.6,186.1l95.8,24l46.6-186.1    C443.4,159.6,428.3,132.1,402.2,121.3z"/><path class="st3" d="M431,209.5l5.7-22.9c6.7-27-8.4-54.5-34.5-65.3c-28.1-2.8-54.5,14.3-61.2,41.3l-5.7,22.9L431,209.5z"/><path class="st4" d="M407,378.5l-113-28.3l24.3,72.8l5.9,28.5c0.7,1.7-1.4,1.1,0,0l83.9-68.3C409.8,381.8,409.1,379,407,378.5z"/><path class="st2" d="M307.3,420.3l12.7,30.2c0.7,1.7,2.8,2.2,4.2,1l25.4-20.7L307.3,420.3z"/><polygon class="st5" points="389.7,374.2 343.5,429.3 351.7,431.4 404.7,385.9 406.6,378.4   "/><path class="st0" d="M354.4,160.3c-0.3,0-0.6,0-0.9-0.1c-1.9-0.5-3-2.4-2.5-4.2c1.6-6.3,5.5-11.7,11.1-15    c5.6-3.4,12.1-4.3,18.5-2.7c1.9,0.5,3,2.4,2.5,4.2c-0.5,1.9-2.4,3-4.2,2.5c-4.5-1.1-9.2-0.4-13.1,2c-4,2.4-6.8,6.2-7.9,10.7    C357.4,159.2,356,160.3,354.4,160.3z"/><path d="M450.7,148.4c-10-16.6-25.8-28.3-44.6-33c-18.8-4.7-38.3-1.8-54.9,8.2c-16.6,10-28.3,25.8-33,44.6l-9.4,37.5    c-0.7,2.7,0.6,5.5,3,6.8c-2.7-0.1-5.2,1.8-5.9,4.5l-4.7,18.9c-0.6,2.6,0.5,5.2,2.7,6.6c-2.5,0.1-4.8,1.9-5.5,4.5l-24.2,96.6    c-1.7,6.8-1.2,14.1,1.5,20.5l35.4,85.7c1.7,4.1,5.1,7,9.4,8.1c1.1,0.3,2.2,0.4,3.3,0.4c3.1,0,6.2-1.1,8.7-3.1l71.6-58.9    c5.3-4.4,9-10.2,10.8-16.8c0.1-0.2,0.1-0.4,0.2-0.6c0-0.2,0.1-0.3,0.1-0.5l11.4-45.6c0.7-2.7-0.6-5.4-2.9-6.7    c2.6-0.1,5-1.9,5.7-4.5l29.6-118.2C463.5,184.5,460.6,165,450.7,148.4z M447.2,200.4l-29.6,118.2c-0.7,2.7,0.6,5.4,2.8,6.7    c-2.6,0.1-5,1.9-5.7,4.5l-10.1,40.3l-108.9-27.3c-3.2-0.8-6.5,1.1-7.3,4.4c-0.8,3.2,1.1,6.5,4.4,7.3l108,27.1    c-1.2,2.1-2.8,3.9-4.6,5.4l-71.6,58.9c-0.5,0.5-1.1,0.4-1.5,0.3c-0.3-0.1-0.9-0.3-1.2-1l-35.4-85.7c-1.7-4.1-2-8.7-0.9-13    l24.2-96.6c0.7-2.6-0.5-5.3-2.7-6.6c2.6-0.1,4.8-1.9,5.5-4.5l4.7-18.9c0.7-2.7-0.6-5.5-3-6.8c2.7,0.1,5.2-1.8,5.9-4.5l4.7-18.7    l109.1,27.3c0.5,0.1,1,0.2,1.5,0.2c2.7,0,5.1-1.8,5.8-4.5c0.8-3.2-1.1-6.5-4.4-7.3l-109.1-27.3l1.8-7.2    c3.9-15.7,13.7-28.9,27.6-37.2c13.9-8.3,30.1-10.7,45.9-6.8c15.7,3.9,28.9,13.7,37.2,27.6C448.7,168.4,451.1,184.7,447.2,200.4z"/><path class="st0" d="M350.6,175.4c-0.3,0-0.6,0-0.8-0.1c-1.9-0.5-3-2.4-2.6-4.2l1.1-4.5c0.5-1.9,2.4-3,4.2-2.6    c1.9,0.5,3,2.4,2.6,4.2l-1.1,4.5C353.6,174.3,352.2,175.4,350.6,175.4z"/><path class="st0" d="M310.2,337c-0.3,0-0.6,0-0.8-0.1c-1.9-0.5-3-2.4-2.6-4.2l6.7-27c0.5-1.9,2.4-3,4.2-2.6c1.9,0.5,3,2.4,2.6,4.2    l-6.7,27C313.2,335.9,311.8,337,310.2,337z"/></g><g><g><path class="st0" d="M189.2,451.3C188.5,453,190.5,452.4,189.2,451.3L189.2,451.3z"/><path class="st0" d="M211,351.8L211,351.8l-47.3-184.6c-7.6-29.7-37.9-47.7-67.7-40l0,0c-29.7,7.6-47.7,37.9-40,67.7l47.6,185.8     l0.4-0.1c-0.3,1-0.1,2.2,0.9,2.9l84.3,67.8l5.7-28.5L211,351.8z"/></g><path class="st6" d="M233,347.4L125.3,375L77.7,189.3c-7.6-29.7,10.3-60,40-67.7l0,0c29.7-7.6,60,10.3,67.7,40L233,347.4z"/><path class="st7" d="M103.8,122.9c-26.1,10.9-41.1,38.5-34.2,65.5l47.6,185.8l95.6-24.5l-47.6-185.8    C158.4,136.9,131.9,119.9,103.8,122.9z"/><path class="st8" d="M171.1,186.7l-5.9-22.9c-6.9-26.9-33.4-43.9-61.5-41c-26.1,10.9-41.1,38.5-34.2,65.5l5.9,22.9L171.1,186.7z"/><path class="st4" d="M230.5,346.8l-112.9,28.9l56,52.5l18.7,22.3c1.4,1.1-0.7,1.7,0,0l41.3-100    C234.5,348.4,232.7,346.3,230.5,346.8z"/><path class="st7" d="M162.7,431l25.5,20.5c1.4,1.1,3.5,0.6,4.2-1.1l12.5-30.3L162.7,431z"/><polygon class="st5" points="213.3,351.2 198.9,421.8 207.1,419.6 232,354.4 230.1,346.9   "/><path class="st0" d="M78.7,180.4c-1.6,0-3-1-3.4-2.6c-3.4-13,4.5-26.3,17.5-29.7c1.9-0.5,3.8,0.6,4.3,2.5c0.5,1.9-0.6,3.8-2.5,4.3    c-9.3,2.4-14.9,11.9-12.5,21.1c0.5,1.9-0.6,3.8-2.5,4.3C79.3,180.4,79,180.4,78.7,180.4z"/><path d="M237.8,344.4c0-0.4-0.1-0.8-0.2-1.1c-0.1-0.3-0.2-0.6-0.3-0.8l-11.5-45.2c-0.7-2.7-3-4.4-5.6-4.5c2.3-1.3,3.5-4,2.8-6.7    l-30.2-117.9c-4.8-18.8-16.6-34.6-33.3-44.4c-16.7-9.9-36.2-12.7-55-7.9c-38.8,9.9-62.2,49.5-52.3,88.3l9.6,37.5    c0.7,2.7,3,4.4,5.6,4.5c-2.3,1.3-3.5,4-2.8,6.7l4.9,18.8c0.7,2.6,2.9,4.3,5.5,4.5c-2.2,1.3-3.4,4-2.7,6.6L97,379.3    c1.7,6.8,5.7,13,11.1,17.4l71.9,58.5c2.5,2,5.5,3.1,8.6,3.1c1.1,0,2.3-0.1,3.4-0.4c4.2-1.1,7.7-4.1,9.3-8.1l34.9-85.9    C238.7,357.7,239.2,350.8,237.8,344.4z M225,359.2l-34.9,86c-0.3,0.7-0.8,0.9-1.1,1c-0.3,0.1-0.9,0.1-1.4-0.3l-71.9-58.5    c-3.5-2.8-5.9-6.7-7-11l-24.7-96.5c-0.7-2.6-2.9-4.4-5.5-4.5c2.2-1.3,3.3-4,2.7-6.6l-4.9-18.8c-0.7-2.6-3-4.4-5.6-4.5    c2.3-1.3,3.5-4,2.8-6.7L68.6,220l109-28c3.2-0.8,5.1-4.1,4.3-7.3c-0.8-3.2-4.1-5.1-7.3-4.3l-109,28l-1.8-7.2    c-4-15.7-1.7-32,6.6-45.9c8.3-13.9,21.4-23.8,37.1-27.8c15.7-4,32-1.7,45.9,6.6c13.9,8.3,23.8,21.4,27.8,37.1l30.2,117.9    c0.7,2.7,3,4.4,5.7,4.5c-2.3,1.3-3.5,4-2.9,6.7l10.3,40.2l-108.6,27.9c-3.2,0.8-5.1,4.1-4.3,7.3c0.7,2.7,3.1,4.5,5.8,4.5    c0.5,0,1-0.1,1.5-0.2l107.8-27.7C226.5,354.7,226,357,225,359.2z"/><path class="st0" d="M82.6,195.5c-1.5,0-3-1-3.4-2.6l-1.2-4.5c-0.5-1.9,0.6-3.8,2.5-4.3c1.9-0.5,3.8,0.6,4.3,2.5l1.2,4.5    c0.5,1.9-0.6,3.8-2.5,4.3C83.2,195.5,82.9,195.5,82.6,195.5z"/><path class="st0" d="M123.9,356.8c-1.6,0-3-1.1-3.4-2.6l-6.8-26.9c-0.5-1.9,0.7-3.8,2.5-4.3c1.9-0.5,3.8,0.7,4.3,2.5l6.8,26.9    c0.5,1.9-0.7,3.8-2.5,4.3C124.5,356.8,124.2,356.8,123.9,356.8z"/></g><g><g><path class="st0" d="M254,456C252.7,457.7,255.3,457.7,254,456L254,456z"/><path class="st0" d="M308.1,348.6L308.1,348.6V123.7c0-36.2-29.4-65.6-65.6-65.6l0,0c-36.2,0-65.6,29.4-65.6,65.6v226.4h0.5     c-0.7,1-0.7,2.5,0.1,3.6L254,456l14.9-30.9L308.1,348.6z"/></g><path class="st9" d="M334.6,350.1H203.3V123.7c0-36.2,29.4-65.6,65.6-65.6l0,0c36.2,0,65.6,29.4,65.6,65.6v226.4H334.6z"/><path class="st10" d="M252.7,55.5c-33,4.9-58.3,32-58.3,64.8v226.4h116.5V120.3C310.9,87.5,285.7,60.3,252.7,55.5z"/><path class="st11" d="M310.9,148.2v-27.9c0-32.8-25.3-60-58.3-64.8c-33,4.9-58.3,32-58.3,64.8v27.9H310.9z"/><path class="st4" d="M331.9,348.6H194.4l48.7,76.4l14.9,31c1.3,1.7-1.3,1.7,0,0l76.5-102.3C336.1,351.6,334.6,348.6,331.9,348.6z"/><path class="st11" d="M229.8,425.1l23.1,30.9c1.3,1.7,3.8,1.7,5.1,0l23.1-30.9H229.8z"/><polygon class="st5" points="310.9,348.6 273.8,425.1 283.8,425.1 331.4,357.7 331.4,348.6   "/><path class="st0" d="M208.2,113.3c-1.9,0-3.5-1.6-3.5-3.5c0-15.5,12.6-28.1,28.1-28.1c1.9,0,3.5,1.6,3.5,3.5s-1.6,3.5-3.5,3.5    c-11.6,0-21.1,9.5-21.1,21.1C211.7,111.7,210.1,113.3,208.2,113.3z"/><g><path d="M176.9,186.6c-3.3,0-6,2.7-6,6v23c0,3.3,2.7,6,6,6s6-2.7,6-6v-23C182.9,189.3,180.2,186.6,176.9,186.6z"/><path d="M176.8,185c3.3,0,6-2.7,6-6v-23.9h134c3.3,0,6-2.7,6-6s-2.7-6-6-6h-134v-9.8c0-40,32.6-72.6,72.6-72.6     S328,93.3,328,133.3V277c0,3.3,2.7,6,6,6s6-2.7,6-6V133.3c0-46.6-38-84.6-84.6-84.6c-46.6,0-84.6,38-84.6,84.6V179     C170.8,182.3,173.5,185,176.8,185z"/><path d="M334.1,284.7c-3.3,0-6,2.7-6,6v50H194.4c-3.3,0-6,2.7-6,6s2.7,6,6,6h133c-0.8,3.3-2.2,6.5-4.3,9.3L258,450     c-0.9,1.1-2,1.3-2.6,1.3c-0.6,0-1.6-0.2-2.4-1.2l-65.1-88c-3.3-4.5-5.1-9.9-5.1-15.4V229.1c0-3.3-2.7-6-6-6s-6,2.7-6,6v117.6     c0,8.1,2.5,15.8,7.4,22.5l65.1,88c2.8,3.9,7.2,6.1,12,6.1c0,0,0.1,0,0.1,0c4.8,0,9.2-2.2,12.2-6.1l65.1-88     c4.8-6.6,7.3-14.4,7.3-22.4v-56C340.1,287.4,337.4,284.7,334.1,284.7z"/></g><path class="st0" d="M208.2,131.8c-1.9,0-3.5-1.6-3.5-3.5v-5.5c0-1.9,1.6-3.5,3.5-3.5s3.5,1.6,3.5,3.5v5.5    C211.7,130.2,210.1,131.8,208.2,131.8z"/><path class="st0" d="M208.2,328.3c-1.9,0-3.5-1.6-3.5-3.5v-32.7c0-1.9,1.6-3.5,3.5-3.5s3.5,1.6,3.5,3.5v32.7    C211.7,326.7,210.1,328.3,208.2,328.3z"/></g><path class="st7" d="M371.7,68.2h-3.5v-3.5c0-1.9-1.6-3.5-3.5-3.5s-3.5,1.6-3.5,3.5v3.5h-3.5c-1.9,0-3.5,1.6-3.5,3.5   s1.6,3.5,3.5,3.5h3.5v3.5c0,1.9,1.6,3.5,3.5,3.5s3.5-1.6,3.5-3.5v-3.5h3.5c1.9,0,3.5-1.6,3.5-3.5S373.6,68.2,371.7,68.2z"/><path class="st2" d="M62.9,316.6h-3.5v-3.5c0-1.9-1.6-3.5-3.5-3.5s-3.5,1.6-3.5,3.5v3.5h-3.5c-1.9,0-3.5,1.6-3.5,3.5   s1.6,3.5,3.5,3.5h3.5v3.5c0,1.9,1.6,3.5,3.5,3.5s3.5-1.6,3.5-3.5v-3.5h3.5c1.9,0,3.5-1.6,3.5-3.5S64.8,316.6,62.9,316.6z"/><path class="st10" d="M432,411.2h-3.5v-3.5c0-1.9-1.6-3.5-3.5-3.5s-3.5,1.6-3.5,3.5v3.5H418c-1.9,0-3.5,1.6-3.5,3.5   s1.6,3.5,3.5,3.5h3.5v3.5c0,1.9,1.6,3.5,3.5,3.5s3.5-1.6,3.5-3.5v-3.5h3.5c1.9,0,3.5-1.6,3.5-3.5S433.9,411.2,432,411.2z"/><path class="st2" d="M452.7,298.5c-5.7,0-10.3-4.6-10.3-10.3s4.6-10.3,10.3-10.3s10.3,4.6,10.3,10.3S458.4,298.5,452.7,298.5z    M452.7,284.9c-1.8,0-3.3,1.5-3.3,3.3c0,1.8,1.5,3.3,3.3,3.3s3.3-1.5,3.3-3.3C456,286.4,454.5,284.9,452.7,284.9z"/><circle cx="447.9" cy="317.8" r="2.1"/><circle cx="391.7" cy="71.7" r="2.1"/><circle cx="132.6" cy="61.3" r="2.1"/><circle cx="68" cy="359.5" r="2.1"/><circle cx="116" cy="60.3" r="3.1"/><path class="st7" d="M144.9,97.4c-6.6,0-11.9-5.3-11.9-11.9c0-6.6,5.3-11.9,11.9-11.9s11.9,5.3,11.9,11.9   C156.8,92.1,151.5,97.4,144.9,97.4z M144.9,80.6c-2.7,0-4.9,2.2-4.9,4.9c0,2.7,2.2,4.9,4.9,4.9s4.9-2.2,4.9-4.9   C149.8,82.8,147.6,80.6,144.9,80.6z"/><path class="st10" d="M93.7,408.4c-4.6,0-8.4,3.8-8.4,8.4s3.8,8.4,8.4,8.4s8.4-3.8,8.4-8.4S98.3,408.4,93.7,408.4z M93.7,418.2   c-0.8,0-1.4-0.6-1.4-1.4s0.6-1.4,1.4-1.4s1.4,0.6,1.4,1.4S94.5,418.2,93.7,418.2z"/></g></svg>