<?xml version="1.0" ?><svg id="Layer_1" style="enable-background:new 0 0 512 512;" version="1.1" viewBox="0 0 512 512" xml:space="preserve" xmlns="http://www.w3.org/2000/svg" xmlns:xlink="http://www.w3.org/1999/xlink"><style type="text/css">
	.st0{fill:#F16723;}
	.st1{fill:#FBD20A;}
	.st2{fill:#4E9BD4;}
	.st3{fill:#FBFEFF;}
	.st4{fill:#3769A5;}
	.st5{fill:#FFFFFF;}
</style><g><path class="st0" d="M491.6,363.9c-5.7,0-10.3-4.6-10.3-10.3s4.6-10.3,10.3-10.3s10.3,4.6,10.3,10.3S497.3,363.9,491.6,363.9z    M491.6,350.3c-1.8,0-3.3,1.5-3.3,3.3s1.5,3.3,3.3,3.3c1.8,0,3.3-1.5,3.3-3.3S493.4,350.3,491.6,350.3z"/><circle cx="302" cy="60.6" r="2.1"/><circle cx="25.2" cy="329.9" r="2.1"/><circle cx="484.7" cy="269.8" r="2.1"/><circle cx="20.3" cy="414.7" r="2.1"/><path class="st1" d="M126.2,107.2c-6.6,0-11.9-5.3-11.9-11.9s5.3-11.9,11.9-11.9c6.6,0,11.9,5.3,11.9,11.9S132.8,107.2,126.2,107.2   z M126.2,90.4c-2.7,0-4.9,2.2-4.9,4.9s2.2,4.9,4.9,4.9c2.7,0,4.9-2.2,4.9-4.9S128.9,90.4,126.2,90.4z"/><g><path class="st0" d="M27.3,275h-14c-1.9,0-3.5-1.6-3.5-3.5s1.6-3.5,3.5-3.5h14c1.9,0,3.5,1.6,3.5,3.5S29.2,275,27.3,275z"/><path class="st0" d="M20.3,282c-1.9,0-3.5-1.6-3.5-3.5v-14c0-1.9,1.6-3.5,3.5-3.5s3.5,1.6,3.5,3.5v14    C23.8,280.4,22.2,282,20.3,282z"/></g><circle cx="69.5" cy="92.2" r="3.1"/><circle cx="407.4" cy="140.9" r="3.1"/><path class="st2" d="M62.3,126.4h-3.5v-3.5c0-1.9-1.6-3.5-3.5-3.5s-3.5,1.6-3.5,3.5v3.5h-3.5c-1.9,0-3.5,1.6-3.5,3.5   s1.6,3.5,3.5,3.5h3.5v3.5c0,1.9,1.6,3.5,3.5,3.5s3.5-1.6,3.5-3.5v-3.5h3.5c1.9,0,3.5-1.6,3.5-3.5S64.2,126.4,62.3,126.4z"/><path class="st1" d="M429.4,105.2h-3.5v-3.5c0-1.9-1.6-3.5-3.5-3.5s-3.5,1.6-3.5,3.5v3.5h-3.5c-1.9,0-3.5,1.6-3.5,3.5   s1.6,3.5,3.5,3.5h3.5v3.5c0,1.9,1.6,3.5,3.5,3.5s3.5-1.6,3.5-3.5v-3.5h3.5c1.9,0,3.5-1.6,3.5-3.5S431.3,105.2,429.4,105.2z"/><g><g><path class="st3" d="M314.6,87.5H197.4c-28.4,0-51.4,23-51.4,51.4v33.4h37.2v-22.1c0-17.3,14-31.3,31.3-31.3h83.1     c17.3,0,31.3,14,31.3,31.3v22.1H366v-33.4C366,110.5,343,87.5,314.6,87.5z"/></g></g><g><g><path class="st2" d="M314.6,88.9L215,87.5c-28.4,0-51.4,23-51.4,51.4v26.4h19.6v-15.1c0-17.3,14-31.3,31.3-31.3h83.1     c17.3,0,31.3,14,31.3,31.3v15.4l37.2,0.1v-25.4C366,111.9,343,88.9,314.6,88.9z"/></g></g><g><g><path d="M366,178.3h-37.1c-3.3,0-6-2.7-6-6v-22.1c0-14-11.3-25.3-25.3-25.3h-83.1c-14,0-25.3,11.3-25.3,25.3v22.1     c0,3.3-2.7,6-6,6H146c-3.3,0-6-2.7-6-6v-33.4c0-31.7,25.7-57.4,57.4-57.4h117.2c31.7,0,57.4,25.7,57.4,57.4v33.4     C372,175.6,369.3,178.3,366,178.3z M334.9,166.3H360v-27.4c0-25-20.4-45.4-45.4-45.4H197.4c-25,0-45.4,20.4-45.4,45.4v27.4h25.2     v-16.1c0-20.6,16.7-37.3,37.3-37.3h83.1c20.6,0,37.3,16.7,37.3,37.3V166.3z"/></g></g><path class="st4" d="M447.8,424.5h-25.4V165.3h25.4c8.8,0,15.9,7.1,15.9,15.9v227.4C463.7,417.4,456.6,424.5,447.8,424.5z"/><path class="st3" d="M87,424.5H64.2c-8.8,0-15.9-7.1-15.9-15.9V181.2c0-8.8,7.1-15.9,15.9-15.9H87V424.5z"/><path class="st2" d="M425.9,424.5H81.8c-8.8,0-15.9-7.1-15.9-15.9V181.2c0-8.8,7.1-15.9,15.9-15.9h344.1c8.8,0,15.9,7.1,15.9,15.9   v227.4C441.8,417.4,434.7,424.5,425.9,424.5z"/><g><g><path d="M290.2,279.7c-1.9,0-3.8-0.9-4.9-2.6c-1.9-2.7-1.2-6.5,1.5-8.3l157.6-108.4c2.7-1.9,6.5-1.2,8.3,1.5     c1.9,2.7,1.2,6.5-1.5,8.3L293.6,278.6C292.6,279.4,291.4,279.7,290.2,279.7z"/></g><path d="M221.8,280.1c-1.2,0-2.4-0.3-3.4-1.1L60.8,170.5c-2.7-1.9-3.4-5.6-1.5-8.3c1.9-2.7,5.6-3.4,8.3-1.5l157.6,108.5    c2.7,1.9,3.4,5.6,1.5,8.3C225.6,279.2,223.7,280.1,221.8,280.1z"/></g><path d="M447.8,430.5H64.2c-12.1,0-21.9-9.8-21.9-21.9V181.2c0-12.1,9.8-21.9,21.9-21.9h383.6c12.1,0,21.9,9.8,21.9,21.9v227.4   C469.7,420.7,459.9,430.5,447.8,430.5z M64.2,171.3c-5.5,0-9.9,4.4-9.9,9.9v227.4c0,5.5,4.4,9.9,9.9,9.9h383.6   c5.5,0,9.9-4.4,9.9-9.9V181.2c0-5.5-4.4-9.9-9.9-9.9H64.2z"/><path class="st4" d="M271,329.9h-30c-9.7,0-17.6-7.9-17.6-17.6v-51c0-9.7,7.9-17.6,17.6-17.6h30c9.7,0,17.6,7.9,17.6,17.6v51   C288.7,322,280.8,329.9,271,329.9z"/><path class="st3" d="M255.2,329.9H241c-9.7,0-17.6-7.9-17.6-17.6v-51c0-9.7,7.9-17.6,17.6-17.6h14.2c0.5,0,0.8,0.4,0.8,0.8v84.6   C256,329.5,255.6,329.9,255.2,329.9z"/><path class="st2" d="M253.8,329.9L253.8,329.9c-7.1,0-12.9-5.8-12.9-12.9v-60.4c0-7.1,5.8-12.9,12.9-12.9l0,0   c7.1,0,12.9,5.8,12.9,12.9V317C266.7,324.1,260.9,329.9,253.8,329.9z"/><path d="M271,335.9h-30c-13,0-23.6-10.6-23.6-23.6v-51c0-13,10.6-23.6,23.6-23.6h30c13,0,23.6,10.6,23.6,23.6v51   c0.1,6.2-2.3,12.1-6.8,16.6C283.4,333.4,277.4,335.9,271,335.9z M241,249.7c-6.4,0-11.6,5.2-11.6,11.6v51c0,6.4,5.2,11.6,11.6,11.6   h30c3.2,0,6.1-1.2,8.3-3.4c2.2-2.2,3.3-5,3.3-8.1v-51.1c0-6.4-5.2-11.6-11.6-11.6H241z"/><path class="st5" d="M78.7,400.2c-1.9,0-3.5-1.6-3.5-3.5v-32.8c0-1.9,1.6-3.5,3.5-3.5s3.5,1.6,3.5,3.5v32.8   C82.2,398.6,80.6,400.2,78.7,400.2z"/><path class="st5" d="M78.7,217.2c-1.9,0-3.5-1.6-3.5-3.5c0-15.5,12.6-28.1,28.1-28.1c1.9,0,3.5,1.6,3.5,3.5s-1.6,3.5-3.5,3.5   c-11.6,0-21.1,9.5-21.1,21.1C82.2,215.6,80.6,217.2,78.7,217.2z"/><path class="st5" d="M78.7,235.6c-1.9,0-3.5-1.6-3.5-3.5v-5.5c0-1.9,1.6-3.5,3.5-3.5s3.5,1.6,3.5,3.5v5.5   C82.2,234,80.6,235.6,78.7,235.6z"/></g></svg>