<?xml version="1.0" ?><svg id="Layer_1" style="enable-background:new 0 0 512 512;" version="1.1" viewBox="0 0 512 512" xml:space="preserve" xmlns="http://www.w3.org/2000/svg" xmlns:xlink="http://www.w3.org/1999/xlink"><style type="text/css">
	.st0{fill:#E7D0A9;}
	.st1{fill:#FFFFFF;}
	.st2{fill:#FFE4B8;}
	.st3{fill:#F16723;}
	.st4{fill:#FBD20A;}
	.st5{fill:#4EA33E;}
	.st6{fill:#7FC344;}
</style><g><path class="st0" d="M386.3,475.9H125.7c-10.4,0-18.8-8.4-18.8-18.8V102c0-10.4,8.4-18.8,18.8-18.8h260.6   c10.4,0,18.8,8.4,18.8,18.8v355C405.1,467.4,396.7,475.9,386.3,475.9z"/><path class="st1" d="M133.7,475.9h-8.9c-10.4,0-18.8-8.4-18.8-18.8V102c0-10.4,8.4-18.8,18.8-18.8h8.9V475.9z"/><path class="st2" d="M361.8,475.9H142.3c-10.4,0-18.8-8.4-18.8-18.8V102c0-10.4,8.4-18.8,18.8-18.8h219.5   c10.4,0,18.8,8.4,18.8,18.8v355C380.6,467.4,372.2,475.9,361.8,475.9z"/><rect class="st1" height="341" width="242.7" x="133.7" y="107.5"/><path class="st3" d="M431.3,342.1c-5.7,0-10.3-4.6-10.3-10.3s4.6-10.3,10.3-10.3s10.3,4.6,10.3,10.3S437,342.1,431.3,342.1z    M431.3,328.5c-1.8,0-3.3,1.5-3.3,3.3s1.5,3.3,3.3,3.3s3.3-1.5,3.3-3.3S433.1,328.5,431.3,328.5z"/><circle cx="405.1" cy="39.2" r="2.1"/><circle cx="454.1" cy="441.6" r="2.1"/><circle cx="426.6" cy="238" r="2.1"/><circle cx="46.1" cy="287.1" r="2.1"/><circle cx="123.5" cy="55.7" r="2.1"/><path class="st3" d="M79.6,405.3h-3.5v-3.5c0-1.9-1.6-3.5-3.5-3.5s-3.5,1.6-3.5,3.5v3.5h-3.5c-1.9,0-3.5,1.6-3.5,3.5   s1.6,3.5,3.5,3.5h3.5v3.5c0,1.9,1.6,3.5,3.5,3.5s3.5-1.6,3.5-3.5v-3.5h3.5c1.9,0,3.5-1.6,3.5-3.5S81.5,405.3,79.6,405.3z"/><circle cx="380.6" cy="57.8" r="3.1"/><circle cx="73.3" cy="267.8" r="3.1"/><circle cx="442.9" cy="222.2" r="3.1"/><circle cx="424.5" cy="380.8" r="3.1"/><path class="st4" d="M68,107.1c-6.6,0-11.9-5.3-11.9-11.9S61.4,83.3,68,83.3s11.9,5.3,11.9,11.9S74.6,107.1,68,107.1z M68,90.3   c-2.7,0-4.9,2.2-4.9,4.9s2.2,4.9,4.9,4.9s4.9-2.2,4.9-4.9S70.7,90.3,68,90.3z"/><path d="M106,348.2c-3.3,0-6-2.7-6-6V265c0-3.3,2.7-6,6-6s6,2.7,6,6v77.2C112,345.5,109.3,348.2,106,348.2z"/><path d="M385.4,481.9H124.8c-13.7,0-24.8-11.1-24.8-24.8v-99.8c0-3.3,2.7-6,6-6c3.3,0,6,2.7,6,6v99.8c0,7.1,5.7,12.8,12.8,12.8   h260.6c7.1,0,12.8-5.7,12.8-12.8V234.3c0-3.3,2.7-6,6-6s6,2.7,6,6v222.8C410.2,470.8,399.1,481.9,385.4,481.9z"/><path d="M404.2,225.2c-3.3,0-6-2.7-6-6v-16.8c0-3.3,2.7-6,6-6s6,2.7,6,6v16.8C410.2,222.5,407.5,225.2,404.2,225.2z"/><path d="M106,256.7c-3.3,0-6-2.7-6-6V102c0-13.7,11.1-24.8,24.8-24.8h260.6c13.7,0,24.8,11.1,24.8,24.8v85.1c0,3.3-2.7,6-6,6   s-6-2.7-6-6V102c0-7.1-5.7-12.8-12.8-12.8H124.8c-7.1,0-12.8,5.7-12.8,12.8v148.7C112,254,109.3,256.7,106,256.7z"/><path d="M376.4,454.5H133.7c-3.3,0-6-2.7-6-6v-341c0-3.3,2.7-6,6-6h242.7c3.3,0,6,2.7,6,6v341C382.4,451.8,379.7,454.5,376.4,454.5   z M139.7,442.5h230.7v-329H139.7V442.5z"/><path d="M341.1,217h-172c-3.3,0-6-2.7-6-6s2.7-6,6-6h172c3.3,0,6,2.7,6,6S344.4,217,341.1,217z"/><path d="M285.4,173.1H169.1c-3.3,0-6-2.7-6-6s2.7-6,6-6h116.3c3.3,0,6,2.7,6,6S288.7,173.1,285.4,173.1z"/><path d="M341.1,244h-172c-3.3,0-6-2.7-6-6s2.7-6,6-6h172c3.3,0,6,2.7,6,6S344.4,244,341.1,244z"/><path d="M341.1,271h-172c-3.3,0-6-2.7-6-6s2.7-6,6-6h172c3.3,0,6,2.7,6,6S344.4,271,341.1,271z"/><path d="M341.1,298h-172c-3.3,0-6-2.7-6-6s2.7-6,6-6h172c3.3,0,6,2.7,6,6S344.4,298,341.1,298z"/><path d="M341.1,325h-172c-3.3,0-6-2.7-6-6s2.7-6,6-6h172c3.3,0,6,2.7,6,6S344.4,325,341.1,325z"/><path d="M341.1,352h-172c-3.3,0-6-2.7-6-6s2.7-6,6-6h172c3.3,0,6,2.7,6,6S344.4,352,341.1,352z"/><path d="M341.1,379.1h-172c-3.3,0-6-2.7-6-6s2.7-6,6-6h172c3.3,0,6,2.7,6,6S344.4,379.1,341.1,379.1z"/><path d="M285.4,406.1H169.1c-3.3,0-6-2.7-6-6s2.7-6,6-6h116.3c3.3,0,6,2.7,6,6S288.7,406.1,285.4,406.1z"/><path class="st5" d="M306.5,62.1h-28.4v-8.8c0-12.7-10.3-23-23-23l0,0c-12.7,0-23,10.3-23,23v8.8h-28.4c-18,0-32.6,14.6-32.6,32.6   v8c0,7.1,5.7,12.8,12.8,12.8h142.4c7.1,0,12.8-5.7,12.8-12.8v-8C339.1,76.7,324.5,62.1,306.5,62.1z"/><path class="st1" d="M285.7,62.1h-24v-8.8c0-12.7-8.7-23-19.5-23l0,0c-10.8,0-19.5,10.3-19.5,23v8.8h-24   c-15.3,0-27.6,14.6-27.6,32.6v8c0,7.1,4.8,12.8,10.8,12.8h120.6c6,0,10.8-5.7,10.8-12.8v-8C313.3,76.7,300.9,62.1,285.7,62.1z"/><path class="st6" d="M291,61.8h-11V53c0-12.7-15.3-23-24.9-23l0,0c-9.6,0-23,10.3-23,23v8.8h-18.8c-13.6,0-24.7,14.6-24.7,32.6v8   c0,7.1,4.3,12.8,9.7,12.8h107.6c5.3,0,9.7-5.7,9.7-12.8v-8C315.6,76.4,304.6,61.8,291,61.8z"/><path d="M326.3,121.5H183.9c-10.4,0-18.8-8.4-18.8-18.8v-8c0-21.3,17.3-38.6,38.6-38.6h22.4v-2.8c0-16,13-29,29-29s29,13,29,29v2.8   h22.4c21.3,0,38.6,17.3,38.6,38.6v8C345.1,113.1,336.7,121.5,326.3,121.5z M203.7,68.1c-14.7,0-26.6,11.9-26.6,26.6v8   c0,3.8,3,6.8,6.8,6.8h142.4c3.8,0,6.8-3,6.8-6.8v-8c0-14.7-11.9-26.6-26.6-26.6h-28.4c-3.3,0-6-2.7-6-6v-8.8c0-9.4-7.6-17-17-17   c-9.4,0-17,7.6-17,17v8.8c0,3.3-2.7,6-6,6H203.7z"/><path class="st1" d="M193.7,104.1c-1.9,0-3.5-1.6-3.5-3.5c0-15.5,12.6-28.1,28.1-28.1c1.9,0,3.5,1.6,3.5,3.5s-1.6,3.5-3.5,3.5   c-11.6,0-21.1,9.5-21.1,21.1C197.2,102.5,195.6,104.1,193.7,104.1z"/><path class="st4" d="M213,35.7h-3.5v-3.5c0-1.9-1.6-3.5-3.5-3.5s-3.5,1.6-3.5,3.5v3.5H199c-1.9,0-3.5,1.6-3.5,3.5s1.6,3.5,3.5,3.5   h3.5v3.5c0,1.9,1.6,3.5,3.5,3.5s3.5-1.6,3.5-3.5v-3.5h3.5c1.9,0,3.5-1.6,3.5-3.5S214.9,35.7,213,35.7z"/></g></svg>