<?xml version="1.0" ?><!DOCTYPE svg  PUBLIC '-//W3C//DTD SVG 1.1//EN'  'http://www.w3.org/Graphics/SVG/1.1/DTD/svg11.dtd'><svg style="enable-background:new 0 0 500 500;" version="1.1" viewBox="0 0 500 500" xml:space="preserve" xmlns="http://www.w3.org/2000/svg" xmlns:xlink="http://www.w3.org/1999/xlink"><g id="sale-pointer"><g><polygon points="500,250 473.216,279.409 491.536,314.718 458.049,336.172 466.532,375.03 428.619,387.055     426.778,426.778 387.044,428.619 375.02,466.543 336.161,458.049 314.707,491.547 279.409,473.226 250,500 220.581,473.226     185.282,491.547 163.818,458.049 124.959,466.543 112.945,428.619 73.222,426.778 71.371,387.044 33.458,375.021 41.941,336.172     8.453,314.718 26.774,279.409 0,250 26.774,220.591 8.453,185.282 41.941,163.829 33.458,124.97 71.371,112.956 73.222,73.222     112.956,71.381 124.97,33.468 163.829,41.952 185.282,8.463 220.581,26.779 250,0 279.409,26.779 314.718,8.463 336.172,41.957     375.03,33.468 387.044,71.381 426.778,73.232 428.619,112.961 466.532,124.98 458.049,163.839 491.536,185.282 473.216,220.591       " style="fill:#9DD2D8;"/><g id="_x39__1_"><path d="M248.647,118.881c-58.675,0-106.237,49.26-106.237,109.939c0,31.982,13.199,60.781,34.256,80.876     c0.382,0.341,57.592,59.077,64.891,66.411c6.572,6.603,7.141,6.75,14.043,0.036c5.758-5.62,64.703-66.147,64.86-66.284     c21.164-20.101,34.408-48.986,34.408-81.04C354.868,168.142,307.307,118.881,248.647,118.881z" style="fill:#484B4D;"/><path d="M248.647,310.13c-46.097,0-83.496-37.379-83.496-83.481c0-46.158,37.399-83.501,83.496-83.501     c46.117,0,83.516,37.343,83.516,83.501C332.163,272.751,294.764,310.13,248.647,310.13z" style="fill:#FC6E51;"/><path d="M150.38,294.424c-2.564,0-5.076-0.315-7.477-0.932l-8.133-2.085l7.981-15.895l4.735,0.595     c0.59,0.076,1.191,0.112,1.801,0.112c0.859,0,1.734-0.071,2.614-0.203c-1.933-4.558-2.462-9.669-1.419-14.745     c2.212-10.682,10.788-19.465,23.534-24.109c3.865-1.404,7.782-2.116,11.642-2.116c1.002,0,1.999,0.046,2.976,0.143l6.8-10.203     c-2.335-9.624-5.203-29.215,15.269-36.667c2.548-0.926,5.025-1.393,7.365-1.393c5.376,0,9.745,2.441,12.009,6.704     c1.643,3.108,3.413,9.781-3.235,19.552l-7.146,10.763c0.849,2.762,1.953,5.991,3.382,9.903     c8.718,23.966-1.622,45.959-25.736,54.733c-6.297,2.294-12.39,3.459-18.087,3.459c-4.257,0-8.219-0.641-11.81-1.907     C161.773,292.948,155.924,294.424,150.38,294.424L150.38,294.424z M188.894,270.061c0.504-0.158,1.012-0.331,1.521-0.514     c0.676-0.25,1.333-0.514,1.948-0.799l-2.146-0.677L188.894,270.061z M234.665,265.487c2.37,0,4.898-0.482,7.512-1.434     c4.41-1.607,8.362-4.716,11.545-7.925c1.45,0.463,3.027,0.702,4.705,0.702c2.375,0,4.919-0.483,7.538-1.44     c8.972-3.261,17.177-12.08,25.838-27.751l2.879-5.218l-4.811-3.51c-2.614-1.912-6.286-2.599-9.155-2.599     c-0.021,0-3.845,0.147-3.845,0.147l-1.135,2.015l5.926-19.028l-14.176,5.167c-2.843-2.273-6.785-3.626-11.169-3.626     c-2.513,0-5.03,0.453-7.472,1.343c-8.342,3.037-16.113,11.276-18.901,20.035l-7.858,24.674c-1.572,5.035-1.007,9.761,1.592,13.29     C226.13,263.656,230.026,265.487,234.665,265.487L234.665,265.487z M287.125,246.389c2.37,0,4.893-0.478,7.507-1.429     c8.967-3.265,17.177-12.08,25.839-27.751l2.884-5.219l-4.817-3.515c-2.609-1.912-6.286-2.599-9.155-2.599     c-0.021,0-3.845,0.147-3.845,0.147l-0.972,1.729l15.574-49.515l-26.57,9.679l-19.023,60.023     c-1.576,5.04-1.007,9.766,1.587,13.295C278.585,244.558,282.491,246.389,287.125,246.389L287.125,246.389z M321.055,233.546     c3.276,0,6.766-0.666,10.387-1.983c15.858-5.778,26.179-21.027,30.919-29.602l2.869-5.208l-4.797-3.515     c-2.06-1.511-4.78-2.258-7.003-2.513l0.116-0.381c2.345-7.253,0.071-11.943-1.495-14.094c-2.635-3.616-6.948-5.61-12.136-5.61     c-2.645,0-5.417,0.519-8.22,1.536c-10.238,3.729-17.558,11.068-20.614,20.646l-5.88,18.275     c-1.974,6.053-1.353,11.724,1.729,15.971C309.967,231.247,314.977,233.546,321.055,233.546L321.055,233.546z" style="fill:#42494A;"/><g><path d="M146.647,282.816c4.949,0.621,10.518-0.544,15.702-3.377      c-10.173-9.598-7.167-28.224,13.982-35.92c5.697-2.075,11.083-2.136,15.457-0.874l10.956-16.424      c-4.257-15.808-2.94-26.738,10.274-31.55c10.066-3.662,16.032,3.234,8.23,14.709l-8.921,13.438      c1.058,3.845,2.563,8.311,4.395,13.347c6.719,18.453,0.575,37.954-21.688,46.056c-11.897,4.333-21.469,3.667-27.949,0.417      c-7.304,4.298-15.259,6.159-22.502,4.303L146.647,282.816z M169.8,273.967c1.943-1.923,3.814-4.069,5.468-6.485l12.944-19.475      c-2.96-0.565-6.449-0.33-9.908,0.925C164.378,254.003,162.501,267.207,169.8,273.967z M174.652,276.86      c4.44,1.755,10.544,1.775,18.071-0.961c16.169-5.885,20.03-20.589,14.338-36.225l-2.136-5.87l-7.568,11.475      c5.814,4.272,7.716,11.704,2.177,18.641l-5.595-1.765c3.382-4.949,2.706-9.018-0.188-11.592l-11.836,17.781      C179.743,271.551,177.332,274.414,174.652,276.86z M210.378,214.635l3.133-4.685c5.041-7.36,3.123-9.771,0.076-8.662      C210.226,202.51,209.086,206.64,210.378,214.635z" style="fill:#F4F8F8;"/><path d="M280.914,223.068c1.592-0.061,3.871,0.498,4.97,1.302c-5.972,10.809-13.478,21.484-22.228,24.664      c-5.391,1.963-9.42,1.017-11.037-1.846c-3.947,4.98-8.483,8.957-12.756,10.508c-8.54,3.113-13.662-1.149-11.322-8.646      l7.854-24.628c2.354-7.42,9.068-13.661,14.766-15.736c6.912-2.518,13.173,0.473,13.992,3.972l5.996-2.182l-8.916,28.636      c-1.307,4.018,0.458,4.75,2.798,3.896c4.679-1.699,10.188-9.659,15.401-19.068L280.914,223.068z M238.439,247.773      c-1.297,4.013,0.463,4.745,2.802,3.895c4.369-1.592,9.364-7.466,13.031-17.344l4.293-13.825      c2.573-9.059-9.41-6.856-12.411,2.615L238.439,247.773z" style="fill:#F4F8F8;"/><path d="M309.58,212.636c1.598-0.061,3.871,0.494,4.97,1.302c-5.972,10.808-13.479,21.484-22.228,24.663      c-8.539,3.113-13.661-1.15-11.326-8.651l18.01-56.819l10.569-3.845l-18.677,59.392c-1.302,4.013,0.463,4.751,2.803,3.896      c4.674-1.699,10.188-9.664,15.396-19.068L309.58,212.636z" style="fill:#F4F8F8;"/><path d="M322.093,209.986l-0.519,1.739c-2.554,8.189,2.421,9.822,8.926,7.457      c7.421-2.701,15.27-11.516,20.482-20.925l0.488-0.87c1.592-0.061,3.866,0.499,4.965,1.302      c-5.972,10.813-15.31,22.15-27.308,26.52c-12.507,4.552-21.031-1.155-17.502-12.019l5.89-18.295      c2.37-7.426,7.96-13.26,16.495-16.368c8.646-3.143,16.134,0.341,13.107,9.74l-0.804,2.538      C342.122,203.99,329.676,209.635,322.093,209.986z M323.726,204.986c4.349-0.376,11.22-2.701,13.941-11.037l0.804-2.538      c3.306-10.528-7.939-7.904-11.18,2.177L323.726,204.986z" style="fill:#F4F8F8;"/></g></g></g></g><g id="Layer_1"/></svg>