<?xml version="1.0" ?><!DOCTYPE svg  PUBLIC '-//W3C//DTD SVG 1.1//EN'  'http://www.w3.org/Graphics/SVG/1.1/DTD/svg11.dtd'><svg style="enable-background:new 0 0 500 500;" version="1.1" viewBox="0 0 500 500" xml:space="preserve" xmlns="http://www.w3.org/2000/svg" xmlns:xlink="http://www.w3.org/1999/xlink"><g id="blank-check-cheque"><g><polygon points="500,250 473.216,279.409 491.536,314.718 458.049,336.172 466.532,375.03 428.619,387.055     426.778,426.778 387.044,428.619 375.02,466.543 336.161,458.049 314.707,491.547 279.409,473.226 250,500 220.581,473.226     185.282,491.547 163.818,458.049 124.959,466.543 112.945,428.619 73.222,426.778 71.371,387.044 33.458,375.021 41.941,336.172     8.453,314.718 26.774,279.409 0,250 26.774,220.591 8.453,185.282 41.941,163.829 33.458,124.97 71.371,112.956 73.222,73.222     112.956,71.381 124.97,33.468 163.829,41.952 185.282,8.463 220.581,26.784 250,0 279.409,26.784 314.718,8.463 336.172,41.962     375.03,33.468 387.044,71.381 426.778,73.232 428.619,112.966 466.532,124.98 458.049,163.839 491.536,185.282 473.216,220.591       " style="fill:#9DD2D8;"/><g id="_x32_7"><g><path d="M354.432,173.421c14.241,0,25.776,11.536,25.776,25.767v101.613      c0,14.241-11.535,25.777-25.776,25.777H145.569c-14.231,0-25.777-11.536-25.777-25.777V199.189      c0-14.232,11.546-25.767,25.777-25.767H354.432z" style="fill:#484B4D;"/></g><rect height="9.013" style="fill:#FC6E51;" width="110.159" x="142.202" y="220.032"/><rect height="8.311" style="fill:#FC6E51;" width="110.159" x="142.202" y="240.407"/><rect height="28.127" style="fill:#F4F8F8;" width="93.72" x="264.598" y="219.92"/><rect height="27.832" style="fill:#F4F8F8;" width="215.983" x="142.334" y="260.956"/><path d="M148.977,190.755c-1.943,0-3.469,0.691-4.588,2.075c-1.119,1.383-1.668,3.275-1.668,5.696     c0,2.553,0.529,4.466,1.597,5.768c1.079,1.302,2.625,1.953,4.659,1.953c0.885,0,1.73-0.081,2.543-0.254     c0.835-0.173,1.679-0.407,2.563-0.671v2.889c-1.617,0.621-3.458,0.925-5.523,0.925c-3.021,0-5.351-0.915-6.968-2.756     c-1.638-1.831-2.441-4.456-2.441-7.874c0-2.157,0.397-4.038,1.18-5.646c0.793-1.617,1.933-2.858,3.418-3.713     c1.495-0.865,3.245-1.292,5.259-1.292c2.105,0,4.069,0.448,5.859,1.333l-1.21,2.818c-0.702-0.335-1.445-0.621-2.218-0.874     C150.655,190.888,149.831,190.755,148.977,190.755z M174.876,208.862h-3.398v-9.338h-9.552v9.338h-3.378v-20.711h3.378v8.474     h9.552v-8.474h3.398V208.862z M192.037,208.862h-11.709v-20.711h11.709v2.869h-8.321v5.626h7.792v2.838h-7.792v6.5h8.321V208.862     z M214.884,198.476c0,2.513-0.478,4.628-1.434,6.337c-0.956,1.719-2.35,2.94-4.181,3.632l4.954,5.34h-4.557l-3.906-4.649h-0.56     c-3.123,0-5.514-0.925-7.192-2.777c-1.679-1.862-2.513-4.496-2.513-7.914c0-3.408,0.834-6.042,2.523-7.873     c1.688-1.831,4.089-2.747,7.212-2.747c3.083,0,5.463,0.925,7.142,2.787C214.05,192.484,214.884,195.099,214.884,198.476z      M199.086,198.476c0,2.543,0.519,4.486,1.546,5.798c1.027,1.312,2.553,1.974,4.567,1.974c2.014,0,3.54-0.651,4.557-1.953     c1.028-1.302,1.536-3.235,1.536-5.819c0-2.533-0.508-4.466-1.526-5.778c-1.007-1.312-2.533-1.963-4.537-1.963     c-2.024,0-3.56,0.651-4.587,1.963C199.605,194.01,199.086,195.943,199.086,198.476z M235.565,188.151v13.397     c0,1.526-0.326,2.869-0.987,4.018c-0.651,1.149-1.597,2.024-2.838,2.645c-1.241,0.621-2.736,0.925-4.455,0.925     c-2.574,0-4.567-0.671-6.002-2.034c-1.414-1.363-2.126-3.225-2.126-5.605v-13.347h3.398v13.092c0,1.719,0.396,2.98,1.19,3.784     c0.783,0.824,2.004,1.221,3.652,1.221c3.184,0,4.781-1.668,4.781-5.025v-13.072H235.565z M252.573,208.862h-11.708v-20.711     h11.708v2.869h-8.331v5.626h7.803v2.838h-7.803v6.5h8.331V208.862z" style="fill:#F4F8F8;"/><rect height="7.141" style="fill:#FC6E51;" width="109.212" x="248.291" y="307.465"/></g></g></g><g id="Layer_1"/></svg>