<?xml version="1.0" ?><!DOCTYPE svg  PUBLIC '-//W3C//DTD SVG 1.1//EN'  'http://www.w3.org/Graphics/SVG/1.1/DTD/svg11.dtd'><svg style="enable-background:new 0 0 500 500;" version="1.1" viewBox="0 0 500 500" xml:space="preserve" xmlns="http://www.w3.org/2000/svg" xmlns:xlink="http://www.w3.org/1999/xlink"><g id="lava-lamps"><g><polygon points="500,250 473.216,279.409 491.536,314.718 458.049,336.172 466.532,375.03 428.619,387.055     426.778,426.778 387.044,428.619 375.02,466.543 336.161,458.049 314.707,491.547 279.409,473.226 250,500 220.581,473.226     185.282,491.547 163.818,458.049 124.959,466.543 112.945,428.619 73.222,426.778 71.371,387.044 33.458,375.021 41.941,336.172     8.453,314.718 26.774,279.409 0,250 26.774,220.591 8.453,185.282 41.941,163.829 33.458,124.97 71.371,112.956 73.222,73.222     112.956,71.381 124.97,33.468 163.829,41.952 185.282,8.459 220.581,26.779 250,0 279.409,26.779 314.718,8.459 336.172,41.957     375.03,33.468 387.044,71.381 426.778,73.232 428.619,112.961 466.532,124.98 458.049,163.839 491.536,185.282 473.216,220.591       " style="fill:#9DD2D8;"/><g id="_x31_0"><g><path d="M226.413,131.602l-47.819-0.041c0,0-19.328,64.646-19.729,87.499      c-0.377,20.894,14,81.064,14,81.064h61.818c0,0,12.538-60.216,12.024-81.064c-0.546-22.893-18.186-87.921-18.186-87.921" style="fill:#F4F8F8;"/><g><polyline points="229.919,135.585 220.581,98.038 186.485,98.038 177.16,135.585 229.919,135.585             " style="fill:#484B4D;"/><polyline points="190.094,369.201 217.628,369.201 236.204,298.482 170.965,298.482 190.094,369.201             " style="fill:#484B4D;"/><polyline points="246.012,401.968 215.8,376.302 191.027,376.302 160.164,401.968 246.012,401.968             " style="fill:#484B4D;"/></g><path d="M212.359,233.261c0,2.472-1.48,4.567-4.436,6.296c-2.96,1.791-6.554,2.62-10.806,2.62      c-4.168,0-7.673-0.829-10.727-2.62c-2.955-1.729-4.435-3.825-4.435-6.296c0-2.401,1.48-4.497,4.435-6.297      c3.054-1.643,6.559-2.538,10.727-2.538c4.252,0,7.846,0.895,10.806,2.538C210.879,228.765,212.359,230.86,212.359,233.261z       M205.427,181.498c3.42-2.69,5.084-6.068,5.084-10.04c0-3.891-1.663-7.263-5.084-10.04c-3.512-2.843-7.668-4.196-12.477-4.196      c-4.895,0-8.962,1.352-12.469,4.196c-3.321,2.777-5.091,6.149-5.091,10.04c0,3.972,1.77,7.35,5.091,10.04      c3.507,2.777,7.574,4.196,12.469,4.196C197.759,185.694,201.915,184.275,205.427,181.498z M220.675,290.497      c-0.476-0.977-1.015-2.096-1.658-3.204c0-0.011,0-0.011,0-0.011c-0.188-2.034-1.577-3.906-4.069-5.477      c-2.495-1.49-5.358-2.473-8.594-2.543c-3.334-0.225-6.009,0.371-8.135,1.8c-1.111,0.667-1.913,1.48-2.403,2.391      c-1.091,1.084-1.409,2.335-1.765,3.103c-0.316,0.768-0.624,1.267-0.86,1.592c-0.633,0.631-1.742,1.267-3.232,1.897      c-4.728,1.913-7.873,4.258-9.46,6.861h47.267C224.62,295.761,222.257,293.6,220.675,290.497z M191.569,144.338      c1.203,0.758,2.035,1.353,2.487,2.035c0.28,0.219,0.468,0.819,0.747,1.566c0.389,1.079,1.656,2.106,3.774,3.072      c0.333,0.595,0.786,1.149,1.406,1.648c1.467,1.2,3.321,1.719,5.63,1.571c2.215-0.152,4.155-0.9,5.918-2.243      c1.719-1.394,2.629-2.864,2.84-4.674c0.816-1.043,1.478-2.177,1.958-3.428c1.297-3.291,3.146-5.462,5.735-6.658h-38.167      C185.099,139.918,187.69,142.314,191.569,144.338z" style="fill:#FC6E51;"/></g><g><path d="M325.918,173.864l-35.863-0.031c0,0-14.496,48.482-14.796,65.623      c-0.285,15.676,10.498,60.807,10.498,60.807h46.366c0,0,9.4-45.166,9.013-60.807c-0.407-17.166-13.637-65.938-13.637-65.938" style="fill:#FC6E51;"/><g><polyline points="328.547,176.85 321.543,148.692 295.97,148.692 288.977,176.85 328.547,176.85             " style="fill:#484B4D;"/><polyline points="298.676,352.066 319.326,352.066 333.262,299.022 284.332,299.022 298.676,352.066             " style="fill:#484B4D;"/><polyline points="340.617,376.638 317.957,357.392 299.377,357.392 276.229,376.638 340.617,376.638             " style="fill:#484B4D;"/></g><path d="M315.379,250.107c0,1.856-1.109,3.428-3.326,4.725c-2.223,1.343-4.919,1.969-8.107,1.969      c-3.123,0-5.753-0.626-8.042-1.969c-2.218-1.297-3.331-2.869-3.331-4.725c0-1.795,1.113-3.367,3.331-4.72      c2.289-1.231,4.919-1.902,8.042-1.902c3.189,0,5.885,0.671,8.107,1.902C314.27,246.74,315.379,248.312,315.379,250.107z       M310.181,211.289c2.563-2.02,3.805-4.552,3.805-7.528c0-2.919-1.241-5.452-3.805-7.533c-2.635-2.131-5.753-3.148-9.358-3.148      c-3.673,0-6.725,1.017-9.354,3.148c-2.492,2.081-3.82,4.613-3.82,7.533c0,2.976,1.328,5.508,3.82,7.528      c2.629,2.08,5.681,3.143,9.354,3.143C304.428,214.432,307.546,213.369,310.181,211.289z M321.614,293.035      c-0.355-0.728-0.763-1.572-1.241-2.406v-0.01c-0.142-1.516-1.184-2.92-3.057-4.1c-1.866-1.119-4.018-1.856-6.444-1.912      c-2.497-0.163-4.506,0.284-6.099,1.353c-0.834,0.498-1.434,1.114-1.805,1.79c-0.814,0.815-1.059,1.76-1.323,2.33      c-0.233,0.579-0.468,0.951-0.645,1.189c-0.473,0.478-1.308,0.957-2.426,1.425c-3.54,1.435-5.9,3.199-7.091,5.147h35.451      C324.575,296.987,322.8,295.359,321.614,293.035z M299.784,183.416c0.9,0.569,1.526,1.012,1.867,1.525      c0.208,0.168,0.351,0.616,0.56,1.175c0.289,0.809,1.24,1.577,2.833,2.309c0.244,0.442,0.59,0.859,1.048,1.231      c1.108,0.9,2.492,1.292,4.227,1.18c1.663-0.117,3.117-0.671,4.439-1.683c1.287-1.043,1.974-2.146,2.127-3.505      c0.615-0.783,1.108-1.633,1.475-2.573c0.967-2.462,2.355-4.09,4.293-4.99h-28.615      C294.932,180.105,296.875,181.9,299.784,183.416z" style="fill:#F4F8F8;"/></g></g></g></g><g id="Layer_1"/></svg>