<?xml version="1.0" ?><!DOCTYPE svg  PUBLIC '-//W3C//DTD SVG 1.1//EN'  'http://www.w3.org/Graphics/SVG/1.1/DTD/svg11.dtd'><svg style="enable-background:new 0 0 500 500;" version="1.1" viewBox="0 0 500 500" xml:space="preserve" xmlns="http://www.w3.org/2000/svg" xmlns:xlink="http://www.w3.org/1999/xlink"><g id="shopping-basket"><g><polygon points="500,250 473.216,279.409 491.536,314.718 458.049,336.172 466.532,375.03 428.619,387.055     426.778,426.778 387.044,428.619 375.02,466.543 336.161,458.049 314.707,491.547 279.409,473.226 250,500 220.581,473.226     185.282,491.547 163.818,458.049 124.959,466.543 112.945,428.619 73.222,426.778 71.371,387.044 33.458,375.021 41.941,336.172     8.453,314.718 26.774,279.409 0,250 26.774,220.591 8.453,185.282 41.941,163.829 33.458,124.97 71.371,112.956 73.222,73.222     112.956,71.381 124.97,33.468 163.829,41.952 185.282,8.463 220.581,26.784 250,0 279.409,26.784 314.718,8.463 336.172,41.962     375.03,33.468 387.044,71.381 426.778,73.232 428.619,112.966 466.532,124.98 458.049,163.839 491.536,185.282 473.216,220.591       " style="fill:#9DD2D8;"/><g id="_x32_1_1_"><g><path d="M139.857,232.096c-0.127,1.328-0.066,2.742,0.239,4.217l22.298,107.356      c1.516,7.288,8.103,13.244,14.659,13.244h145.904c6.552,0,13.148-5.956,14.659-13.244l22.293-107.356      c0.305-1.475,0.371-2.889,0.244-4.217H139.857z M196.493,331.508c0,4.709-3.561,8.534-7.94,8.534      c-4.395,0-7.944-3.825-7.944-8.534V270.98c0-4.72,3.55-8.545,7.944-8.545c4.379,0,7.94,3.825,7.94,8.545V331.508z       M227.422,331.502c0,4.715-3.555,8.54-7.939,8.54c-4.39,0-7.945-3.825-7.945-8.54v-60.516c0-4.721,3.555-8.551,7.945-8.551      c4.384,0,7.939,3.83,7.939,8.551V331.502z M258.361,331.508c0,4.709-3.56,8.545-7.944,8.545c-4.39,0-7.94-3.836-7.94-8.545      v-60.522c0-4.726,3.55-8.545,7.94-8.545c4.385,0,7.944,3.819,7.944,8.545V331.508z M289.297,331.508      c0,4.709-3.551,8.539-7.941,8.539c-4.395,0-7.939-3.83-7.939-8.539V270.98c0-4.715,3.545-8.545,7.939-8.545      c4.39,0,7.941,3.83,7.941,8.545V331.508z M320.221,331.497c0,4.72-3.55,8.545-7.939,8.545c-4.395,0-7.935-3.825-7.935-8.545      V270.98c0-4.72,3.54-8.539,7.935-8.539c4.39,0,7.939,3.819,7.939,8.539V331.497z" style="fill:#484B4D;"/></g><line style="fill:#484B4D;" x1="136.917" x2="363.098" y1="232.844" y2="232.844"/><g><path d="M293.92,209.335l-25.823-47.231c1.939-2.024,3.144-4.751,3.144-7.772      c0-6.215-5.035-11.251-11.246-11.251c-6.21,0-11.245,5.036-11.245,11.251c0,6.215,5.035,11.25,11.245,11.25      c0.311,0,0.596-0.071,0.896-0.091l26.057,47.653L293.92,209.335z" style="fill:#F4F8F8;"/><path d="M240.016,143.082c-6.21,0-11.246,5.036-11.246,11.251c0,3.021,1.2,5.748,3.143,7.772      l-25.823,47.231l6.968,3.81l26.057-47.653c0.3,0.02,0.59,0.091,0.9,0.091c6.21,0,11.246-5.035,11.246-11.25      C251.262,148.117,246.226,143.082,240.016,143.082z" style="fill:#F4F8F8;"/></g><path d="M375.504,210.704c-2.971-3.495-7.411-5.916-12.406-5.9H136.912     c-4.995-0.016-9.445,2.405-12.405,5.9c-2.991,3.489-4.71,8.113-4.715,13.107c0.005,4.985,1.724,9.608,4.71,13.113     c2.965,3.484,7.406,5.905,12.411,5.9h226.186c0,0,0.006,0,0.011,0c4.995,0,9.44-2.416,12.395-5.9     c2.985-3.504,4.704-8.113,4.704-13.113C380.208,218.816,378.489,214.193,375.504,210.704z" style="fill:#484B4D;"/><path d="M366.674,229.365c-1.129,1.297-2.34,1.836-3.576,1.841H136.912     c-1.241-0.005-2.452-0.544-3.586-1.841c-1.099-1.282-1.918-3.255-1.912-5.555c-0.005-2.299,0.813-4.277,1.912-5.559     c1.134-1.282,2.34-1.826,3.586-1.831h226.186c1.236,0.005,2.452,0.549,3.581,1.841c1.104,1.271,1.923,3.255,1.913,5.549     C368.602,226.11,367.782,228.083,366.674,229.365z" style="fill:#FC6E51;"/></g></g></g><g id="Layer_1"/></svg>