<?xml version="1.0" ?><!DOCTYPE svg  PUBLIC '-//W3C//DTD SVG 1.1//EN'  'http://www.w3.org/Graphics/SVG/1.1/DTD/svg11.dtd'><svg style="enable-background:new 0 0 500 500;" version="1.1" viewBox="0 0 500 500" xml:space="preserve" xmlns="http://www.w3.org/2000/svg" xmlns:xlink="http://www.w3.org/1999/xlink"><g id="bitcoin-coin"><g><polygon points="500,250 473.216,279.409 491.536,314.718 458.049,336.172 466.532,375.03 428.619,387.055     426.778,426.778 387.044,428.619 375.02,466.543 336.161,458.049 314.707,491.547 279.409,473.226 250,500 220.581,473.226     185.282,491.547 163.818,458.049 124.959,466.543 112.945,428.619 73.222,426.778 71.371,387.044 33.458,375.021 41.941,336.172     8.453,314.718 26.774,279.409 0,250 26.774,220.591 8.453,185.282 41.941,163.829 33.458,124.97 71.371,112.956 73.222,73.222     112.956,71.381 124.97,33.468 163.829,41.952 185.282,8.463 220.581,26.784 250,0 279.409,26.784 314.718,8.463 336.172,41.962     375.03,33.468 387.044,71.381 426.778,73.232 428.619,112.966 466.532,124.98 458.049,163.839 491.536,185.282 473.216,220.591       " style="fill:#9DD2D8;"/><g id="_x33_0"><g><path d="M250,372.386c-67.495,0-122.396-54.901-122.396-122.381c0-67.489,54.901-122.391,122.396-122.391      c67.489,0,122.395,54.901,122.395,122.391C372.395,317.484,317.489,372.386,250,372.386L250,372.386z" style="fill:#484B4D;"/><path d="M250,138.031c-61.747,0-111.979,50.227-111.979,111.974c0,61.737,50.232,111.959,111.979,111.959      s111.979-50.222,111.979-111.959C361.979,188.258,311.747,138.031,250,138.031L250,138.031z" style="fill:#F4F8F8;"/><path d="M250,148.01c-56.33,0-101.995,45.675-101.995,101.995c0,56.32,45.665,101.979,101.995,101.979      s101.995-45.659,101.995-101.979C351.995,193.685,306.33,148.01,250,148.01z" style="fill:#484B4D;"/></g><path d="M288.005,248.047v-0.305c13.147-4.018,21.103-12.542,21.103-23.87     c0-10.447-7.359-18.046-16.698-22.237c-6.195-2.797-16.556-3.566-26.556-3.784v-25.879h-10.701v25.787c-0.122,0-0.239,0-0.346,0     h-22.09v-25.787h-10.711v25.787h-18.723v106.517h18.723v23.748h10.711v-23.748h22.436v23.748h10.701v-23.748h6.043     c28.265,0,43.172-14.918,43.172-30.584C315.068,260.565,305.517,250.732,288.005,248.047z M259.593,211.39     c14.689,0,27.217,1.877,27.217,15.172c0,10.061-7.889,15.31-27.217,15.31h-34.022V211.39H259.593z M268.478,290.512h-42.598     V257.35h38.854c14.318,0,27.741,3.489,27.741,15.991C292.476,283.793,283.173,290.512,268.478,290.512z" style="fill:#FC6E51;"/></g></g></g><g id="Layer_1"/></svg>