<?xml version="1.0" ?><!DOCTYPE svg  PUBLIC '-//W3C//DTD SVG 1.1//EN'  'http://www.w3.org/Graphics/SVG/1.1/DTD/svg11.dtd'><svg style="enable-background:new 0 0 500 500;" version="1.1" viewBox="0 0 500 500" xml:space="preserve" xmlns="http://www.w3.org/2000/svg" xmlns:xlink="http://www.w3.org/1999/xlink"><g id="coupon-cut-discount"><g><polygon points="500,250 473.221,279.409 491.536,314.718 458.049,336.172 466.532,375.03 428.619,387.049     426.778,426.778 387.044,428.619 375.02,466.537 336.166,458.043 314.713,491.541 279.409,473.221 250,500 220.586,473.221     185.282,491.541 163.823,458.043 124.964,466.537 112.951,428.619 73.222,426.773 71.376,387.039 33.458,375.021 41.946,336.166     8.453,314.718 26.774,279.409 0,250 26.774,220.591 8.458,185.282 41.946,163.829 33.462,124.97 71.376,112.956 73.222,73.222     112.956,71.381 124.975,33.462 163.829,41.952 185.282,8.459 220.586,26.779 250,0 279.409,26.779 314.718,8.459 336.172,41.957     375.03,33.462 387.044,71.381 426.778,73.227 428.619,112.961 466.537,124.98 458.049,163.834 491.536,185.282 473.221,220.591       " style="fill:#9DD2D8;"/><g id="_x34_"><path d="M395.273,168.101h-12.73c-1.058,0-1.912,0.859-1.912,1.918c0,1.053,0.854,1.902,1.912,1.902h12.73     c1.048,0,1.902-0.85,1.902-1.902C397.176,168.96,396.321,168.101,395.273,168.101L395.273,168.101z M372.991,168.101H360.26     c-1.053,0-1.907,0.859-1.907,1.918c0,1.053,0.855,1.902,1.907,1.902h12.731c1.053,0,1.907-0.85,1.907-1.902     C374.898,168.96,374.044,168.101,372.991,168.101L372.991,168.101z M350.713,168.101h-12.73c-1.053,0-1.907,0.859-1.907,1.918     c0,1.053,0.854,1.902,1.907,1.902h12.73c1.053,0,1.907-0.85,1.907-1.902C352.62,168.96,351.766,168.101,350.713,168.101     L350.713,168.101z M328.435,168.101h-12.736c-1.048,0-1.907,0.859-1.907,1.918c0,1.053,0.859,1.902,1.907,1.902h12.736     c1.053,0,1.907-0.85,1.907-1.902C330.343,168.96,329.488,168.101,328.435,168.101L328.435,168.101z M306.157,168.101h-12.735     c-1.054,0-1.908,0.859-1.908,1.918c0,1.053,0.854,1.902,1.908,1.902h12.735c1.053,0,1.902-0.85,1.902-1.902     C308.06,168.96,307.21,168.101,306.157,168.101L306.157,168.101z M283.88,168.101h-12.736c-1.053,0-1.907,0.859-1.907,1.918     c0,1.053,0.854,1.902,1.907,1.902h12.736c1.048,0,1.902-0.85,1.902-1.902C285.782,168.96,284.928,168.101,283.88,168.101     L283.88,168.101z M261.592,168.101h-12.726c-1.053,0-1.907,0.859-1.907,1.918c0,1.053,0.855,1.902,1.907,1.902h12.726     c1.058,0,1.912-0.85,1.912-1.902C263.504,168.96,262.649,168.101,261.592,168.101L261.592,168.101z M239.313,168.101h-12.726     c-1.053,0-1.912,0.859-1.912,1.918c0,1.053,0.859,1.902,1.912,1.902h12.726c1.058,0,1.913-0.85,1.913-1.902     C241.226,168.96,240.372,168.101,239.313,168.101L239.313,168.101z M217.036,168.101h-12.731c-1.048,0-1.908,0.859-1.908,1.918     c0,1.053,0.86,1.902,1.908,1.902h12.731c1.058,0,1.912-0.85,1.912-1.902C218.948,168.96,218.094,168.101,217.036,168.101     L217.036,168.101z M194.758,168.101h-12.73c-1.053,0-1.907,0.859-1.907,1.918c0,1.053,0.854,1.902,1.907,1.902h12.73     c1.058,0,1.908-0.85,1.908-1.902C196.665,168.96,195.816,168.101,194.758,168.101L194.758,168.101z M172.48,168.101h-12.731     c-1.058,0-1.913,0.859-1.913,1.918c0,1.053,0.854,1.902,1.913,1.902h12.731c1.053,0,1.907-0.85,1.907-1.902     C174.388,168.96,173.533,168.101,172.48,168.101L172.48,168.101z M133.189,199.463c-1.063,0-1.913,0.855-1.913,1.913v12.731     c0,1.053,0.85,1.907,1.913,1.907c1.053,0,1.902-0.854,1.902-1.907v-12.731C135.091,200.317,134.242,199.463,133.189,199.463     L133.189,199.463z M133.189,221.741c-1.063,0-1.913,0.86-1.913,1.907v12.736c0,1.058,0.85,1.902,1.913,1.902     c1.053,0,1.902-0.844,1.902-1.902v-12.736C135.091,222.601,134.242,221.741,133.189,221.741L133.189,221.741z M133.189,244.029     c-1.063,0-1.913,0.849-1.913,1.907v12.721c0,1.058,0.85,1.912,1.913,1.912c1.053,0,1.902-0.854,1.902-1.912v-12.721     C135.091,244.878,134.242,244.029,133.189,244.029L133.189,244.029z M133.189,266.302c-1.063,0-1.913,0.854-1.913,1.912v12.726     c0,1.053,0.85,1.918,1.913,1.918c1.053,0,1.902-0.865,1.902-1.918v-12.726C135.091,267.156,134.242,266.302,133.189,266.302     L133.189,266.302z M133.189,288.584c-1.063,0-1.913,0.845-1.913,1.908v12.73c0,1.058,0.85,1.907,1.913,1.907     c1.053,0,1.902-0.85,1.902-1.907v-12.73C135.091,289.429,134.242,288.584,133.189,288.584L133.189,288.584z M133.189,310.857     c-1.063,0-1.913,0.855-1.913,1.907v12.741c0,1.048,0.85,1.907,1.913,1.907c1.053,0,1.902-0.859,1.902-1.907v-12.741     C135.091,311.712,134.242,310.857,133.189,310.857L133.189,310.857z M133.189,333.14c-1.063,0-1.913,0.86-1.913,1.913v12.726     c0,1.058,0.85,1.907,1.913,1.907c1.053,0,1.902-0.85,1.902-1.907v-12.726C135.091,334,134.242,333.14,133.189,333.14     L133.189,333.14z M150.421,354.727h-12.726c-1.058,0-1.913,0.864-1.913,1.912c0,1.048,0.854,1.912,1.913,1.912h12.726     c1.058,0,1.913-0.864,1.913-1.912C152.333,355.591,151.479,354.727,150.421,354.727L150.421,354.727z M172.704,354.727h-12.731     c-1.058,0-1.913,0.864-1.913,1.912c0,1.048,0.854,1.912,1.913,1.912h12.731c1.053,0,1.907-0.864,1.907-1.912     C174.611,355.591,173.757,354.727,172.704,354.727L172.704,354.727z M194.982,354.727h-12.731c-1.053,0-1.907,0.864-1.907,1.912     c0,1.048,0.854,1.912,1.907,1.912h12.731c1.058,0,1.907-0.864,1.907-1.912C196.889,355.591,196.04,354.727,194.982,354.727     L194.982,354.727z M217.26,354.727h-12.731c-1.048,0-1.907,0.864-1.907,1.912c0,1.048,0.859,1.912,1.907,1.912h12.731     c1.058,0,1.912-0.864,1.912-1.912C219.172,355.591,218.317,354.727,217.26,354.727L217.26,354.727z M239.538,354.727h-12.726     c-1.053,0-1.912,0.864-1.912,1.912c0,1.048,0.859,1.912,1.912,1.912h12.726c1.058,0,1.913-0.864,1.913-1.912     C241.45,355.591,240.596,354.727,239.538,354.727L239.538,354.727z M261.815,354.727H249.09c-1.053,0-1.908,0.864-1.908,1.912     c0,1.048,0.854,1.912,1.908,1.912h12.726c1.058,0,1.912-0.864,1.912-1.912C263.728,355.591,262.873,354.727,261.815,354.727     L261.815,354.727z M284.103,354.727h-12.736c-1.053,0-1.907,0.864-1.907,1.912c0,1.048,0.854,1.912,1.907,1.912h12.736     c1.048,0,1.902-0.864,1.902-1.912C286.006,355.591,285.151,354.727,284.103,354.727L284.103,354.727z M306.381,354.727h-12.735     c-1.053,0-1.907,0.864-1.907,1.912c0,1.048,0.855,1.912,1.907,1.912h12.735c1.053,0,1.902-0.864,1.902-1.912     C308.283,355.591,307.434,354.727,306.381,354.727L306.381,354.727z M328.659,354.727h-12.736c-1.048,0-1.907,0.864-1.907,1.912     c0,1.048,0.859,1.912,1.907,1.912h12.736c1.053,0,1.907-0.864,1.907-1.912C330.566,355.591,329.712,354.727,328.659,354.727     L328.659,354.727z M350.936,354.727h-12.73c-1.053,0-1.907,0.864-1.907,1.912c0,1.048,0.854,1.912,1.907,1.912h12.73     c1.054,0,1.907-0.864,1.907-1.912C352.844,355.591,351.99,354.727,350.936,354.727L350.936,354.727z M373.215,354.727h-12.731     c-1.053,0-1.907,0.864-1.907,1.912c0,1.048,0.854,1.912,1.907,1.912h12.731c1.053,0,1.907-0.864,1.907-1.912     C375.122,355.591,374.268,354.727,373.215,354.727L373.215,354.727z M397.176,352.595c-1.053,0-1.902,0.855-1.902,1.907v0.225     l0,0l0,0h-12.507c-1.058,0-1.912,0.864-1.912,1.912c0,1.048,0.855,1.912,1.912,1.912h12.507c2.107,0,3.816-1.709,3.816-3.824     v-0.225C399.089,353.449,398.239,352.595,397.176,352.595L397.176,352.595z M397.176,330.322c-1.053,0-1.902,0.845-1.902,1.902     v12.736c0,1.047,0.85,1.907,1.902,1.907c1.064,0,1.913-0.86,1.913-1.907v-12.736     C399.089,331.167,398.239,330.322,397.176,330.322L397.176,330.322z M397.176,308.039c-1.053,0-1.902,0.855-1.902,1.913v12.721     c0,1.058,0.85,1.907,1.902,1.907c1.064,0,1.913-0.85,1.913-1.907v-12.721C399.089,308.894,398.239,308.039,397.176,308.039     L397.176,308.039z M397.176,285.767c-1.053,0-1.902,0.85-1.902,1.902v12.726c0,1.059,0.85,1.912,1.902,1.912     c1.064,0,1.913-0.854,1.913-1.912v-12.726C399.089,286.616,398.239,285.767,397.176,285.767L397.176,285.767z M397.176,263.479     c-1.053,0-1.902,0.859-1.902,1.907v12.732c0,1.062,0.85,1.907,1.902,1.907c1.064,0,1.913-0.845,1.913-1.907v-12.732     C399.089,264.338,398.239,263.479,397.176,263.479L397.176,263.479z M397.176,241.196c-1.053,0-1.902,0.859-1.902,1.907v12.741     c0,1.053,0.85,1.908,1.902,1.908c1.064,0,1.913-0.855,1.913-1.908v-12.741C399.089,242.055,398.239,241.196,397.176,241.196     L397.176,241.196z M397.176,218.923c-1.053,0-1.902,0.85-1.902,1.907v12.731c0,1.053,0.85,1.908,1.902,1.908     c1.064,0,1.913-0.854,1.913-1.908V220.83C399.089,219.773,398.239,218.923,397.176,218.923L397.176,218.923z M397.176,196.64     c-1.053,0-1.902,0.859-1.902,1.913v12.73c0,1.048,0.85,1.913,1.902,1.913c1.064,0,1.913-0.865,1.913-1.913v-12.73     C399.089,197.5,398.239,196.64,397.176,196.64L397.176,196.64z M397.176,174.367c-1.053,0-1.902,0.85-1.902,1.907v12.726     c0,1.058,0.85,1.907,1.902,1.907c1.064,0,1.913-0.849,1.913-1.907v-12.726C399.089,175.217,398.239,174.367,397.176,174.367     L397.176,174.367z" style="fill:#F4F8F8;"/><g><path d="M169.012,147.512c-0.723-1.022-2.314-2.513-3.596-3.25c-2.828-1.612-5.666-1.262-7.899,0.569      c-9.745,7.996-11.129,9.089-25.645,20.701c-2.854-2.101-6.038-4.506-8.387-6.271c0.936-1.719,1.48-3.693,1.48-5.778      c0-6.627-5.402-12.029-12.044-12.029c-6.622,0-12.014,5.401-12.014,12.029c0,6.633,5.392,12.029,12.014,12.029      c1.938,0,3.764-0.468,5.396-1.287c1.714,1.369,5.041,4.039,7.589,6.083c-1.78,1.424-5.111,4.018-7.686,6.053      c-1.602-0.784-3.397-1.241-5.3-1.241c-6.622,0-12.014,5.396-12.014,12.029c0,6.628,5.392,12.034,12.014,12.034      c6.643,0,12.044-5.407,12.044-12.034c0-2.116-0.554-4.099-1.511-5.829c1.74-1.287,5.208-3.855,8.418-6.216      c9.181,7.37,21.052,16.938,25.645,20.701c2.233,1.836,5.071,2.197,7.899,0.565c1.282-0.738,2.874-2.228,3.596-3.235      c-0.071-0.229-17.263-12.955-30.64-22.817C151.438,160.68,168.935,147.751,169.012,147.512z M106.685,153.493      c0-3.443,2.808-6.251,6.246-6.251c3.443,0,6.246,2.808,6.246,6.251c0,3.443-2.803,6.241-6.246,6.241      C109.492,159.734,106.685,156.937,106.685,153.493z M112.93,193.39c-3.438,0-6.246-2.797-6.246-6.225      c0-3.453,2.808-6.266,6.246-6.266c3.443,0,6.246,2.813,6.246,6.266C119.176,190.592,116.373,193.39,112.93,193.39z       M131.76,172.603c-1.191,0-2.162-0.977-2.162-2.177c0-1.2,0.971-2.167,2.162-2.167c1.195,0,2.167,0.966,2.167,2.167      C133.926,171.626,132.955,172.603,131.76,172.603z" style="fill:#484B4D;"/></g><g><g><polygon points="251.089,286.107 238.5,294.887 235.814,279.78 220.83,283.065 224.111,268.076        209.005,265.391 217.784,252.803 204.864,244.527 217.784,236.252 209.005,223.663 224.111,220.978 220.83,205.988        235.814,209.274 238.5,194.163 251.089,202.947 259.363,190.033 267.639,202.947 280.227,194.168 282.913,209.279        297.897,205.988 294.617,220.978 309.723,223.663 300.944,236.252 313.863,244.527 300.944,252.803 309.723,265.391        294.606,268.076 297.897,283.065 282.913,279.78 280.227,294.892 267.639,286.107 259.363,299.022      " style="fill:#FC6E51;"/><path d="M259.363,192.444l7.91,12.344l12.028-8.387l2.568,14.44l14.323-3.143l-3.139,14.323       l14.436,2.568l-8.388,12.029l12.345,7.909l-12.345,7.909l8.388,12.028l-14.44,2.569l3.144,14.322l-14.323-3.138l-2.568,14.439       l-12.028-8.393l-7.91,12.345l-7.908-12.345l-12.029,8.388l-2.569-14.435l-14.323,3.138l3.138-14.322l-14.44-2.569l8.393-12.028       l-12.345-7.909l12.345-7.909l-8.388-12.029l14.435-2.568l-3.138-14.323l14.323,3.139l2.569-14.44l12.029,8.392L259.363,192.444        M259.363,187.617l-2.191,3.423l-6.45,10.061l-9.806-6.841l-3.342-2.33l-0.712,4.008l-2.091,11.775l-11.678-2.559l-3.967-0.87       l0.865,3.967l2.558,11.678l-11.764,2.095l-4.013,0.712l2.33,3.341l6.841,9.807l-10.065,6.449l-3.423,2.192l3.423,2.192       l10.065,6.45l-6.846,9.806l-2.33,3.342l4.013,0.713l11.77,2.095l-2.558,11.679l-0.865,3.967l3.967-0.869l11.678-2.559       l2.091,11.77l0.712,4.008l3.342-2.329l9.806-6.836l6.45,10.061l2.191,3.423l2.192-3.423l6.45-10.061l9.806,6.841l3.342,2.329       l0.712-4.008l2.091-11.774l11.678,2.559l3.973,0.869l-0.87-3.973l-2.563-11.673l11.77-2.095l4.014-0.713l-2.33-3.342       l-6.841-9.806l10.065-6.45l3.424-2.192l-3.424-2.192l-10.065-6.449l6.841-9.807l2.33-3.341l-4.014-0.712l-11.765-2.095       l2.559-11.678l0.865-3.967l-3.968,0.87l-11.678,2.563l-2.091-11.774l-0.712-4.008l-3.342,2.329l-9.806,6.836l-6.45-10.061       L259.363,187.617L259.363,187.617z" style="fill:#484B4D;"/></g><g><path d="M236.593,255.244v-4.079h4.593v4.079v4.598h-13.072v-16.444c0-1.638,1.328-3.062,3.067-3.062       h5.412v-11.643h-3.881v5.926h-4.598v-7.513c0-1.739,1.328-3.006,3.067-3.006h6.948c1.831,0,3.057,1.267,3.057,3.057v14.765       c0,1.526-1.271,3.011-3.057,3.011h-5.417v10.31H236.593z" style="fill:#F4F8F8;"/><path d="M250.122,249.064v6.18h3.881v-11.541h-8.479l0.056-19.603h13.071v4.593h-8.529v10.412h5.412       c1.739,0,3.066,1.429,3.066,3.067v14.659c0,1.633-1.378,3.011-3.066,3.011h-6.943c-1.632,0-3.067-1.378-3.067-3.011v-7.767       H250.122z" style="fill:#F4F8F8;"/><path d="M262.532,227.158c0-1.627,1.425-3.057,3.062-3.057h5.107c1.734,0,3.061,1.43,3.061,3.057v12.665       c0,1.638-1.378,3.011-3.061,3.011h-5.107c-1.638,0-3.062-1.374-3.062-3.011V227.158z M288.015,224.101l-17.822,35.741h-4.853       l17.67-35.741H288.015z M269.165,228.693h-2.034v9.547h2.034V228.693z M279.378,244.166c0-1.633,1.435-3.067,3.067-3.067h5.107       c1.734,0,3.061,1.434,3.061,3.067v12.665c0,1.633-1.378,3.011-3.061,3.011h-5.107c-1.633,0-3.067-1.378-3.067-3.011V244.166z        M286.021,245.702h-2.044v9.542h2.044V245.702z" style="fill:#F4F8F8;"/></g><g><path d="M179.26,300.502h13.723c2.385,0,4.207,1.663,4.207,3.565v26.814       c0,1.897-1.892,3.499-4.207,3.499H179.26V300.502z M190.882,305.848h-5.32v23.188h5.32V305.848z" style="fill:#484B4D;"/><path d="M203.135,300.502h6.307v33.879h-6.307V300.502z" style="fill:#484B4D;"/><path d="M221.695,325.409v3.626h5.32v-9.272h-7.421c-2.452,0-4.201-1.729-4.201-3.51v-12.186       c0-2.081,1.678-3.565,4.201-3.565h9.521c2.38,0,4.201,1.484,4.201,3.509v5.168h-6.302v-3.331h-5.32v8.564h7.421       c2.38,0,4.201,1.664,4.201,3.561v12.909c0,1.897-1.892,3.499-4.201,3.499h-9.521c-2.243,0-4.201-1.602-4.201-3.499v-5.473       H221.695z" style="fill:#484B4D;"/><path d="M250.89,310.607v-4.76h-5.32v23.188h5.32v-4.816h6.302v6.663c0,1.897-1.888,3.499-4.202,3.499       h-9.521c-2.243,0-4.201-1.602-4.201-3.499v-26.814c0-1.902,1.958-3.565,4.201-3.565h9.521c2.381,0,4.202,1.663,4.202,3.565       v6.54H250.89z" style="fill:#484B4D;"/><path d="M263.143,304.067c0-1.902,1.964-3.565,4.201-3.565h9.527c2.375,0,4.201,1.663,4.201,3.565       v26.814c0,1.897-1.893,3.499-4.201,3.499h-9.527c-2.237,0-4.201-1.602-4.201-3.499V304.067z M274.771,305.848h-5.32v23.188       h5.32V305.848z" style="fill:#484B4D;"/><path d="M293.325,300.502v28.533h5.319v-28.533h6.303v30.38c0,1.897-1.888,3.499-4.201,3.499h-9.522       c-2.243,0-4.207-1.602-4.207-3.499v-30.38H293.325z" style="fill:#484B4D;"/><path d="M318.603,300.502l6.018,15.93v-15.93h6.302v33.879h-6.511l-7.213-19.373v19.373h-6.302v-33.879       H318.603z" style="fill:#484B4D;"/><path d="M340.378,305.848h-5.605v-5.346h17.507v5.346h-5.6v28.533h-6.302V305.848z" style="fill:#484B4D;"/></g></g></g></g></g><g id="Layer_1"/></svg>