<?xml version="1.0" ?><!DOCTYPE svg  PUBLIC '-//W3C//DTD SVG 1.1//EN'  'http://www.w3.org/Graphics/SVG/1.1/DTD/svg11.dtd'><svg style="enable-background:new 0 0 500 500;" version="1.1" viewBox="0 0 500 500" xml:space="preserve" xmlns="http://www.w3.org/2000/svg" xmlns:xlink="http://www.w3.org/1999/xlink"><g id="new-pointer"><g><polygon points="500,250 473.216,279.409 491.536,314.718 458.049,336.172 466.532,375.03 428.619,387.055     426.778,426.778 387.044,428.619 375.02,466.543 336.161,458.049 314.707,491.547 279.409,473.226 250,500 220.581,473.226     185.282,491.547 163.818,458.049 124.959,466.543 112.945,428.619 73.222,426.778 71.371,387.044 33.458,375.021 41.941,336.172     8.453,314.718 26.774,279.409 0,250 26.774,220.591 8.453,185.282 41.941,163.829 33.458,124.97 71.371,112.956 73.222,73.222     112.956,71.381 124.97,33.468 163.829,41.952 185.282,8.463 220.581,26.784 250,0 279.409,26.784 314.718,8.463 336.172,41.962     375.03,33.468 387.044,71.381 426.778,73.232 428.619,112.966 466.532,124.98 458.049,163.839 491.536,185.282 473.216,220.591       " style="fill:#9DD2D8;"/><g id="_x31_5"><path d="M259.781,119.792c-58.264,0-105.5,48.92-105.5,109.172c0,31.763,13.112,60.359,34.012,80.317     c0.387,0.341,57.2,58.665,64.448,65.954c6.526,6.551,7.091,6.698,13.941,0.03c5.723-5.585,64.255-65.685,64.413-65.821     c21.016-19.964,34.164-48.641,34.164-80.48C365.26,168.711,318.034,119.792,259.781,119.792z" style="fill:#484B4D;"/><path d="M259.786,309.713c-45.787,0-82.927-37.12-82.927-82.906c0-45.827,37.14-82.916,82.927-82.916     c45.792,0,82.927,37.089,82.927,82.916C342.713,272.593,305.578,309.713,259.786,309.713z" style="fill:#FC6E51;"/><path d="M366.872,189.361c-2.605-1.897-6.246-2.579-9.094-2.579c-0.016,0-1.709,0.061-1.709,0.061     c0.793-4.542,1.373-9.399,1.749-14.552l0.748-10.34l-14.144,5.142l-49.887,18.163l-4.455,13.941     c-0.301-0.56-0.601-1.063-0.886-1.454c-2.619-3.596-6.896-5.569-12.054-5.569c-2.324,0-4.751,0.463-7.202,1.256l5.864-5.361     l-4.014-4.918c-2.889-3.535-7.99-5.641-13.651-5.641c-9.542,0-21.647,5.94-26.987,22.618l-3.769,11.841l-2.996-20.055     l-21.342,7.772l-11.078,35.192l-2.502-2.37c-4.669-4.41-11.012-6.745-18.351-6.745c-15.401,0-35.522,11.108-41.168,29.059     c-2.879,9.175-1.709,17.98,3.291,24.795c5.376,7.319,14.511,11.52,25.061,11.52c15.991-0.005,37.72-10.549,50.344-39.424     l3.138,20.828l21.423-7.787l8.469-26.733c-0.204,3.82,0.651,7.339,2.721,10.188c3.017,4.151,7.991,6.434,14.023,6.434     c3.25,0,6.724-0.661,10.314-1.968c7.456-2.716,13.642-7.559,18.626-12.793c2.106,1.272,4.588,2.02,7.396,2.02     c2.37,0,4.893-0.483,7.492-1.429c4.44-1.612,8.418-4.817,11.449-7.854c1.439,0.458,3.001,0.692,4.648,0.692     c2.381,0,4.913-0.483,7.538-1.439c7.527-2.742,13.824-7.66,18.748-14.643c0.61-0.204,1.221-0.428,1.861-0.656     c7.432-2.706,17.787-10.147,22.339-18.611l2.767-5.152L366.872,189.361z" style="fill:#42494A;"/><g><path d="M217.193,263.428l-6.067-40.243l-5.061,16.25c-19.801,62.78-80.358,51.29-69.712,17.4      c6.15-19.561,35.594-31.652,48.492-19.45l-6.322,5.559c-8.723-7.634-27.827,0.519-31.931,13.423      c-8.55,26.784,36.204,30.044,49.881-13.438l11.983-38.066l10.503-3.825l6.053,40.507l12.538-39.378      c6.531-20.386,24.5-20.325,29.037-14.771l-5.915,5.412c-4.908-4.054-11.47-0.717-14.572,8.982l-18.3,57.78L217.193,263.428z" style="fill:#F4F8F8;"/><path d="M259.44,231.247l-0.514,1.73c-2.528,8.127,2.405,9.75,8.87,7.4      c7.37-2.686,15.162-11.434,20.335-20.777l0.488-0.86c1.577-0.061,3.84,0.488,4.929,1.292      c-5.926,10.732-15.203,21.993-27.12,26.332c-12.421,4.521-20.884-1.145-17.38-11.938l5.85-18.168      c2.35-7.37,7.903-13.163,16.388-16.251c8.58-3.122,16.017,0.341,13.006,9.669l-0.799,2.522      C279.338,225.291,266.977,230.901,259.44,231.247z M261.062,226.283c4.323-0.371,11.145-2.685,13.85-10.961l0.799-2.518      c3.286-10.462-7.889-7.848-11.108,2.157L261.062,226.283z" style="fill:#F4F8F8;"/><path d="M335.256,202.362c0.905-0.331,1.771-0.468,2.686-0.458c3.011-7.446,5.401-16.892,6.414-27.634      l6.765-2.462c-0.799,11.012-2.792,23.738-7.66,34.256c5.35-1.943,10.625-6.007,14.038-11.708l0.483-0.865      c1.577-0.061,3.835,0.493,4.929,1.292c-3.616,6.724-12.462,13.199-18.723,15.477c-1.312,0.479-2.522,0.921-3.789,1.206      c-3.982,6.343-9.45,11.414-16.82,14.099c-5.356,1.948-9.359,1.007-11.037-1.729c-3.846,4.832-8.454,8.819-12.594,10.325      c-8.479,3.093-13.667-1.108-11.246-8.59l11.226-35.131l10.401-3.784l-11.795,37.648c-1.292,3.988,0.458,4.72,2.782,3.875      c4.44-1.617,9.45-7.645,13.103-17.715l9.135-28.62l10.401-3.79l-11.795,37.654c-1.298,3.988,0.457,4.715,2.782,3.866      c2.421-0.88,5.305-3.632,7.995-7.874c-0.986-0.503-1.744-1.337-2.131-2.4C329.869,206.731,331.822,203.613,335.256,202.362z" style="fill:#F4F8F8;"/></g></g></g></g><g id="Layer_1"/></svg>