<?xml version="1.0" ?><!DOCTYPE svg  PUBLIC '-//W3C//DTD SVG 1.1//EN'  'http://www.w3.org/Graphics/SVG/1.1/DTD/svg11.dtd'><svg style="enable-background:new 0 0 500 500;" version="1.1" viewBox="0 0 500 500" xml:space="preserve" xmlns="http://www.w3.org/2000/svg" xmlns:xlink="http://www.w3.org/1999/xlink"><g id="sunglasses"><g><polygon points="500,250 473.221,279.409 491.536,314.718 458.049,336.172 466.532,375.03 428.619,387.055     426.778,426.778 387.044,428.619 375.02,466.543 336.166,458.049 314.713,491.547 279.409,473.226 250,500 220.586,473.226     185.282,491.547 163.823,458.049 124.964,466.543 112.951,428.619 73.222,426.778 71.376,387.044 33.458,375.021 41.946,336.172     8.453,314.718 26.774,279.409 0,250 26.774,220.591 8.458,185.282 41.946,163.829 33.462,124.97 71.376,112.956 73.222,73.222     112.956,71.381 124.975,33.468 163.829,41.952 185.282,8.461 220.586,26.779 250,0 279.409,26.779 314.718,8.461 336.172,41.957     375.03,33.468 387.044,71.381 426.778,73.232 428.619,112.961 466.537,124.98 458.049,163.839 491.536,185.282 473.221,220.591       " style="fill:#9DD2D8;"/><g id="_x36_"><g><path d="M254.972,176.572c-1.099,0.183-2.998,0.485-4.532,0.729c-1.554-0.18-3.464-0.417-4.56-0.552      c-12.637-17.86-130.546-37.742-130.157-18.587c0.274,13.908,33.246,51.058,71.83,55.72c41.087,4.967,51.514-23.17,63.11-25.538      c11.675,1.902,23.221,29.597,64.084,22.987c38.355-6.203,69.815-44.634,69.529-58.548      C383.901,133.621,266.876,158.221,254.972,176.572z" style="fill:#484B4D;"/><g><path d="M233.754,184.263c-0.211-10.226-28.211-18.102-51.191-20.887       c-22.984-2.777-50.051-5.231-58.568-0.943c6.935,19.208,35.232,41.812,63.146,45.194       C215.047,210.986,234.039,198.588,233.754,184.263z" style="fill:#FC6E51;"/></g><g><path d="M267.385,183.589c-0.198-10.226,27.466-19.216,50.313-22.917       c22.858-3.692,49.805-7.232,58.482-3.296c-6.164,19.478-33.523,43.198-61.279,47.686       C287.15,209.541,267.675,197.917,267.385,183.589z" style="fill:#FC6E51;"/></g></g><g><path d="M118.571,286.103l4.954,3.062c1.719,1.19,3.077,3.103,3.194,5.214      c2.505,45.975,13.952,57.489,49.993,59.647c35.917,2.136,55.944-20.487,59.865-41.489c1.656-8.794,7.932-13.035,14.653-13.035      c6.714,0,13.011,4.241,14.634,13.035c3.932,21.002,23.9,43.625,59.799,41.489c36.067-2.157,47.384-13.672,49.897-59.647      c0.122-2.111,1.241-4.023,2.98-5.214l4.15-3.062c1.103-0.748,1.587-2.015,1.587-3.357v-10.814c0-1.841-1.099-3.443-2.92-3.733      c-20.573-3.361-36.112-4.308-57.749-3.672c-8.342,0.239-24.821,2.624-34.205,6.083c-11.164,4.15-28.396,10.656-38.162,10.656      c-9.723,0-27.064-6.506-38.195-10.656c-9.39-3.459-25.973-5.844-34.299-6.083c-21.645-0.636-38.284,0.311-58.846,3.672      c-1.836,0.29-4.181,1.893-4.181,3.733v10.814C115.72,284.088,117.47,285.354,118.571,286.103z M372.752,274.628      c1.17,0,2.116,1.852,2.116,4.165c0,2.284-0.946,4.15-2.116,4.15c-1.17,0-2.126-1.866-2.126-4.15      C370.626,276.479,371.582,274.628,372.752,274.628z M129.761,274.628c1.178,0,2.131,1.852,2.131,4.165      c0,2.284-0.953,4.15-2.131,4.15c-1.152,0-2.108-1.866-2.108-4.15C127.652,276.479,128.608,274.628,129.761,274.628z" style="fill:#484B4D;"/><path d="M275.472,293.696c2.686-17.019,71.595-24.694,82.148-11.826      c13.662,16.582,5.193,49.592-4.146,56.845c-9.073,7.06-42.485,11.078-56.834,2.289      C280.029,330.831,272.527,312.24,275.472,293.696z" style="fill:#F4F8F8;"/><path d="M144.89,281.87c10.574-12.868,79.465-5.192,82.164,11.826      c2.938,18.544-4.555,37.135-21.167,47.308c-14.356,8.789-47.788,4.771-56.859-2.289      C139.697,331.462,131.243,298.452,144.89,281.87z" style="fill:#F4F8F8;"/></g></g></g></g><g id="Layer_1"/></svg>