<?xml version="1.0" ?><!DOCTYPE svg  PUBLIC '-//W3C//DTD SVG 1.1//EN'  'http://www.w3.org/Graphics/SVG/1.1/DTD/svg11.dtd'><svg style="enable-background:new 0 0 500 500;" version="1.1" viewBox="0 0 500 500" xml:space="preserve" xmlns="http://www.w3.org/2000/svg" xmlns:xlink="http://www.w3.org/1999/xlink"><g id="percentage-sign"><g><polygon points="500,250 473.216,279.409 491.536,314.718 458.049,336.172 466.532,375.03 428.619,387.055     426.778,426.778 387.044,428.619 375.02,466.543 336.161,458.049 314.707,491.547 279.409,473.226 250,500 220.581,473.226     185.282,491.547 163.818,458.049 124.959,466.543 112.945,428.619 73.222,426.778 71.371,387.044 33.458,375.021 41.941,336.172     8.453,314.718 26.774,279.409 0,250 26.774,220.591 8.453,185.282 41.941,163.829 33.458,124.97 71.371,112.956 73.222,73.222     112.956,71.381 124.97,33.468 163.829,41.952 185.282,8.463 220.581,26.784 250,0 279.409,26.784 314.718,8.463 336.172,41.962     375.03,33.468 387.044,71.381 426.778,73.232 428.619,112.966 466.532,124.98 458.049,163.839 491.536,185.282 473.216,220.591       " style="fill:#9DD2D8;"/><g id="_x33_3_1_"><g><path d="M378.275,212.819l3.774,4.039l-1.404,5.32l5.311-2.106c1.698,1.018,3.184,2.126,4.71,3.255      c0.04-1.963-0.122-3.927-0.366-5.839l4.374-3.794l-5.656-1.251l-2.218-5.412l-2.838,5.148L378.275,212.819z" style="fill:#F4F8F8;"/><path d="M373.846,192.81c-0.168,1.872-0.138,3.631-0.463,5.524l4.903-3.103l5.116,2.35      c-0.447-1.892-0.671-3.896-1.332-5.727l3.58-4.527l-5.809-0.163l-3.225-4.862l-1.806,5.564l-5.477,1.709L373.846,192.81z" style="fill:#F4F8F8;"/><path d="M361.867,176.239l4.252-3.937l5.483,1.333l-2.289-5.422l2.686-5.106l-5.747,0.926l-4.1-4.13      l-0.738,5.788l-5.07,2.696l5.025,2.309C361.648,172.506,361.837,174.347,361.867,176.239z" style="fill:#F4F8F8;"/><path d="M352.442,147.4l1.755-5.554l-5.504,1.983l-4.796-3.296l0.35,5.819l-4.526,3.611l5.412,1.312      c0.62,1.689,0.981,3.602,1.424,5.412l3.459-4.69l5.676,0.275L352.442,147.4z" style="fill:#F4F8F8;"/><polygon points="332.087,130.076 332.865,124.217 327.795,127.218 322.489,124.908 323.873,130.534       320.078,134.928 325.643,135.162 327.982,140.269 330.566,135.04 336.191,134.237     " style="fill:#F4F8F8;"/><polygon points="308.955,116.842 308.68,110.901 304.26,114.756 298.584,113.546 300.995,118.754       298.055,123.8 303.559,123.006 306.804,127.594 308.359,121.989 313.762,120.117     " style="fill:#F4F8F8;"/><path d="M283.814,108.144l-1.363-5.747l-3.601,4.486l-5.819-0.071l3.327,4.649l-1.959,5.504      c1.745-0.692,3.489-1.292,5.234-1.709l4.038,3.855l0.509-5.789l4.979-2.899L283.814,108.144z" style="fill:#F4F8F8;"/><path d="M263.204,105.459l-5.646-1.149l-2.401-5.351l-2.733,5.106c-1.913,0.102-3.828,0.478-5.725,0.875      c1.416,1.333,2.779,2.503,4.115,3.957l-0.957,5.707l4.865-2.472l4.661,2.96l-0.554-5.778L263.204,105.459z" style="fill:#F4F8F8;"/><path d="M236.801,105.459c-1.936-0.285-3.828-0.061-5.773-0.102l-3.306-4.792l-1.778,5.565      c-1.841,0.6-3.688,1.078-5.485,1.77c1.612,0.977,3.227,2.207,4.778,3.316l0.102,5.788l4.313-3.418l5.109,1.963l-1.582-5.564      C234.347,108.439,235.54,106.812,236.801,105.459z" style="fill:#F4F8F8;"/><path d="M210.841,110.423c-1.91,0.203-3.85,0.366-5.72,0.844l-4.099-4.039l-0.72,5.819l-5.089,2.797      l5.315,2.35l1.16,5.687l3.596-4.212l5.361,0.916l-2.569-5.178L210.841,110.423z" style="fill:#F4F8F8;"/><path d="M184.42,125.529l1.821-5.412c-1.816,0.621-3.716,1.119-5.503,1.852l-4.766-3.194l0.369,5.88      l-4.448,3.733l5.621,1.292l2.182,5.381l2.741-4.862c1.829-0.061,3.596-0.163,5.476,0L184.42,125.529z" style="fill:#F4F8F8;"/><path d="M163.017,139.933l0.804-5.696l-5.096,2.818l-5.27-2.269l1.439,5.747l-3.683,4.527l5.75,0.214      l3.118,4.873l1.785-5.31c1.742-0.468,3.588-0.753,5.44-0.987L163.017,139.933z" style="fill:#F4F8F8;"/><path d="M144.587,158.03l-0.27-5.758l-4.468,3.754l-5.639-1.292l2.454,5.381l-2.774,5.137l5.671-0.875      l3.955,4.231l0.775-5.585c1.623-0.773,3.489-1.292,5.204-1.913L144.587,158.03z" style="fill:#F4F8F8;"/><polygon points="120.529,188.344 125.9,186.412 130.567,189.83 130.267,184.184 135.106,181.346       129.73,179.26 128.408,173.635 124.715,178.162 118.851,177.887 122.271,182.739     " style="fill:#F4F8F8;"/><path d="M111.567,213.531l4.88-2.919l5.231,2.493c-0.433-1.78-1.033-3.683-1.249-5.473l4.196-3.692      l-5.663-1.058l-2.365-5.3l-2.739,5.167l-5.783,0.834l4.128,4.089L111.567,213.531z" style="fill:#F4F8F8;"/><path d="M107.343,239.95l4.196-3.784l5.598,1.475c-0.885-1.709-1.409-3.398-2.078-5.127l3.373-4.436      l-5.73,0.02l-3.352-4.771l-1.676,5.605l-5.506,1.933l4.723,3.215C106.883,236.033,107.201,238.017,107.343,239.95z" style="fill:#F4F8F8;"/><path d="M107.856,266.744c1.068-1.547,2.302-3.042,3.609-4.527l5.682,0.438l-2.899-4.689l2.424-4.984      l-5.615,1.089L106.839,250l-0.541,5.818l-5.025,2.92l5.282,2.289C106.956,262.949,107.211,264.862,107.856,266.744z" style="fill:#F4F8F8;"/><path d="M121.737,287.17l-3.767-4.018l1.394-5.341l-5.31,2.105c-1.691-0.996-3.174-2.105-4.705-3.245      c-0.043,1.984,0.122,3.917,0.374,5.859l-4.372,3.765l5.638,1.272l2.233,5.401l2.836-5.147L121.737,287.17z" style="fill:#F4F8F8;"/><path d="M126.178,307.21c0.165-1.882,0.122-3.651,0.46-5.533l-4.913,3.112l-5.127-2.359      c0.463,1.901,0.691,3.895,1.34,5.717l-3.578,4.517l5.809,0.193l3.225,4.852l1.806-5.584l5.488-1.689L126.178,307.21z" style="fill:#F4F8F8;"/><path d="M138.145,323.751l-4.255,3.967l-5.483-1.343l2.287,5.422l-2.691,5.087l5.763-0.916l4.092,4.15      l0.743-5.798l5.086-2.717l-5.045-2.288C138.361,327.505,138.179,325.653,138.145,323.751z" style="fill:#F4F8F8;"/><path d="M154.895,348.745c-0.638-1.709-1.01-3.611-1.439-5.423l-3.464,4.67l-5.674-0.275l3.261,4.883      l-1.77,5.564l5.511-2.004l4.794,3.296l-0.349-5.818l4.524-3.601L154.895,348.745z" style="fill:#F4F8F8;"/><polygon points="174.372,364.838 172.02,359.731 169.459,364.96 163.821,365.773 167.92,369.914       167.15,375.773 172.213,372.803 177.536,375.092 176.137,369.486 179.929,365.082     " style="fill:#F4F8F8;"/><polygon points="196.459,376.983 193.225,372.396 191.661,378.031 186.241,379.883 191.058,383.179       191.34,389.119 195.76,385.264 201.434,386.465 199.025,381.235 201.953,376.211     " style="fill:#F4F8F8;"/><path d="M225.616,383.047c-1.731,0.691-3.484,1.271-5.244,1.689l-4.034-3.855l-0.501,5.818l-4.997,2.9      l5.354,2.248l1.363,5.778l3.622-4.486l5.803,0.041l-3.326-4.619L225.616,383.047z" style="fill:#F4F8F8;"/><path d="M250.147,385.406l-4.855,2.483l-4.669-2.96l0.557,5.768l-4.379,3.865l5.663,1.119l2.383,5.361      l2.757-5.087c1.897-0.111,3.807-0.498,5.712-0.895c-1.424-1.322-2.788-2.482-4.112-3.938L250.147,385.406z" style="fill:#F4F8F8;"/><path d="M274.674,383.006l-4.318,3.397l-5.102-1.933l1.582,5.534c-1.17,1.576-2.365,3.174-3.632,4.557      c1.953,0.265,3.845,0.041,5.778,0.102l3.311,4.771l1.765-5.564c1.852-0.61,3.698-1.068,5.493-1.771      c-1.597-0.977-3.214-2.207-4.766-3.296L274.674,383.006z" style="fill:#F4F8F8;"/><path d="M298.319,376.108l-3.591,4.232l-5.355-0.936l2.573,5.209l-2.787,4.984      c1.917-0.214,3.86-0.377,5.732-0.855l4.109,4.038l0.723-5.828l5.076-2.798l-5.32-2.36L298.319,376.108z" style="fill:#F4F8F8;"/><path d="M322.494,370.311l-2.172-5.371l-2.746,4.852c-1.831,0.061-3.591,0.193-5.473,0.03l3.499,4.669      l-1.841,5.392c1.831-0.601,3.733-1.108,5.519-1.831l4.755,3.184l-0.371-5.9l4.466-3.724L322.494,370.311z" style="fill:#F4F8F8;"/><path d="M343.053,354.746l-3.117-4.893l-1.791,5.33c-1.749,0.458-3.591,0.732-5.436,0.977l4.287,3.927      l-0.804,5.686l5.097-2.817l5.27,2.258l-1.435-5.737l3.673-4.517L343.053,354.746z" style="fill:#F4F8F8;"/><path d="M360.458,335.612l-3.972-4.232l-0.764,5.585c-1.617,0.794-3.499,1.312-5.197,1.943l4.893,3.061      l0.274,5.747l4.471-3.723l5.641,1.292l-2.462-5.401l2.777-5.147L360.458,335.612z" style="fill:#F4F8F8;"/><polygon points="379.496,311.666 374.115,313.608 369.456,310.171 369.746,315.816 364.904,318.645       370.29,320.75 371.602,326.375 375.295,321.838 381.154,322.103 377.746,317.271     " style="fill:#F4F8F8;"/><path d="M388.433,286.469l-4.867,2.939l-5.219-2.502c0.417,1.79,1.018,3.662,1.236,5.473l-4.196,3.692      l5.661,1.068l2.354,5.29l2.747-5.168l5.798-0.855l-4.14-4.079L388.433,286.469z" style="fill:#F4F8F8;"/><path d="M392.675,260.051l-4.201,3.794l-5.59-1.485c0.885,1.709,1.403,3.397,2.075,5.127l-3.377,4.456      l5.727-0.051l3.357,4.78l1.668-5.604l5.509-1.912l-4.735-3.245C393.127,263.967,392.822,261.983,392.675,260.051z" style="fill:#F4F8F8;"/><path d="M388.957,245.931l4.211,4.069l0.559-5.809l5-2.899l-5.274-2.309      c-0.387-1.923-0.651-3.836-1.303-5.717c-1.067,1.546-2.299,3.041-3.591,4.527l-5.696-0.438l2.899,4.689l-2.416,4.975      L388.957,245.931z" style="fill:#F4F8F8;"/></g><g><polygon points="301.504,174.642 222.02,320.027 200.292,320.027 279.755,174.642     " style="fill:#FC6E51;"/><path d="M232.666,236.43c13.929-14.129,13.929-37.048,0-51.178c-13.939-14.13-36.529-14.13-50.453,0      c-13.952,14.129-13.952,37.048,0,51.178C196.137,250.57,218.727,250.57,232.666,236.43z M190.954,194.122      c9.089-9.247,23.86-9.247,32.966,0c9.107,9.237,9.107,24.211,0,33.447c-9.106,9.237-23.877,9.237-32.966,0      C181.844,218.333,181.844,203.359,190.954,194.122z" style="fill:#484B4D;"/><path d="M268.656,259.064c-13.937,14.13-13.937,37.049,0,51.168c13.916,14.13,36.52,14.13,50.461,0      c13.911-14.119,13.911-37.038,0-51.168C305.176,244.924,282.572,244.924,268.656,259.064z M310.374,301.371      c-9.104,9.236-23.875,9.236-32.97,0c-9.104-9.236-9.104-24.2,0-33.447c9.095-9.236,23.865-9.236,32.97,0      C319.468,277.171,319.468,292.135,310.374,301.371z" style="fill:#484B4D;"/></g></g></g></g><g id="Layer_1"/></svg>