<?xml version="1.0" ?><!DOCTYPE svg  PUBLIC '-//W3C//DTD SVG 1.1//EN'  'http://www.w3.org/Graphics/SVG/1.1/DTD/svg11.dtd'><svg style="enable-background:new 0 0 500 500;" version="1.1" viewBox="0 0 500 500" xml:space="preserve" xmlns="http://www.w3.org/2000/svg" xmlns:xlink="http://www.w3.org/1999/xlink"><g id="customer-support"><g><polygon points="500,250 473.221,279.409 491.536,314.718 458.049,336.172 466.532,375.03 428.619,387.049     426.778,426.778 387.044,428.619 375.02,466.537 336.166,458.043 314.713,491.541 279.409,473.221 250,500 220.586,473.221     185.282,491.541 163.823,458.043 124.964,466.537 112.951,428.619 73.222,426.773 71.376,387.039 33.458,375.021 41.946,336.166     8.453,314.718 26.774,279.409 0,250 26.774,220.591 8.458,185.282 41.946,163.829 33.462,124.97 71.376,112.956 73.222,73.222     112.956,71.381 124.975,33.462 163.829,41.952 185.282,8.459 220.586,26.779 250,0 279.409,26.779 314.718,8.459 336.172,41.957     375.03,33.462 387.044,71.381 426.778,73.227 428.619,112.961 466.537,124.98 458.049,163.834 491.536,185.282 473.221,220.591       " style="fill:#9DD2D8;"/><g id="_x32_"><g><path d="M292.48,299.647c-1.643-2.151-3.255-4.639-4.791-7.355c-4.547,2.833-9.471,4.98-14.781,6.287      c1.684-0.417,5.209-3.789,9.644-9.186c0.712-0.869,1.435-1.779,2.197-2.746c-2.522-5.284-4.725-11.17-6.368-17.329      c-3,2.839-6.017,5.341-8.972,7.436c-6.495,4.613-12.675,7.278-17.603,7.278c-0.27,0-0.529-0.005-0.794-0.025      c-3.738-0.219-8.422-1.983-13.529-4.964c-4.73-2.768-9.809-6.577-14.839-11.216c-0.364,2.676-0.859,5.387-1.503,8.077      c0.804,1.546,1.607,3.047,2.395,4.491c5.453,9.969,10.394,17.293,13.066,18.184c-6.77-2.259-13.31-5.972-19.495-10.778      c-1.043,2.238-2.236,4.375-3.624,6.333c-3.812,5.417-8.606,9.063-14.265,10.95c-1.358,0.458-2.749,0.845-4.214,1.089      c-1.063,0.178-2.424,0.27-3.812,0.336c11.139,6.668,47.518,25.161,63.021,27.72c0.308,0.051,0.605,0.106,0.893,0.143      c2.554-0.361,5.198-0.926,7.889-1.628c21.026-5.442,45.069-19.969,53.411-26.138c-3.703-0.209-7.527-0.555-11.058-1.181      C299.683,304.423,294.8,302.704,292.48,299.647z" style="fill:#F4F8F8;"/><path d="M321.574,192.805c-0.499-1.337-1.099-2.421-1.796-3.26c-1.693-1.165-3.911-2.157-6.108-1.882      c-1.038,0.249-1.953,0.666-2.614,1.028c-1.811,1.281-3.439,3.85-4.517,8.453h-28.214h-80.162c0,0,0.153,18.605,1.068,24.022      c1.03,6.073,4.346,15.717,8.649,26.174c0.893,1.292,1.818,2.553,2.754,3.8c3.212,4.241,6.648,8.184,10.163,11.724      c0.364,0.371,0.737,0.737,1.104,1.099c0.361,0.351,0.715,0.702,1.073,1.043c5.707,5.442,11.518,9.791,16.77,12.675      c4.295,2.35,8.217,3.733,11.409,3.921c4.936,0.29,11.431-2.67,18.277-7.843c2.721-2.055,5.488-4.466,8.25-7.161      c0.325-0.32,0.661-0.642,0.986-0.972c0.346-0.346,0.682-0.702,1.027-1.058c10.753-11.129,20.925-26.48,25.94-42.313l0.417-1.322      l1.246,0.595c0.61,0.29,1.145,0.483,1.725,0.636c5.208,1.343,9.939-8.55,11.24-12.232      C322.754,202.418,322.53,195.389,321.574,192.805z M310.984,219.035c-1.475,0-2.676-1.195-2.676-2.67      c0-1.475,1.201-2.67,2.676-2.67s2.676,1.195,2.676,2.67C313.66,217.84,312.459,219.035,310.984,219.035z" style="fill:#F4F8F8;"/></g><path d="M270.477,253.434c-0.407-0.295-1.063-0.352-1.582-0.667c-3.296-2.049-5.503-4.593-9.409-5.696     c-2.233-0.631-3.566,0.152-5.664,0.58c-0.908,0.173-1.719-0.306-2.556-0.56c-0.786-0.234-1.554-0.295-2.357-0.265     c-2.434,0.102-5.094,1.185-6.775,2.889c-1.698,1.719-3.588,3.576-5.895,4.405c0.704,0.071,1.355,0.29,2.027,0.463     c0.193,0.554,0.379,1.104,0.689,1.627c0,0,3.789,5.845,10.664,6.867c0,0,3.571,0.997,8.184,0.076     c5.188-1.043,8.331-3.611,11.093-7.559c0.94-0.203,2.655-0.961,2.294-1.882C271.128,253.586,270.609,253.535,270.477,253.434z" style="fill:#FC6E51;"/><path d="M339.772,307.007c0.143,0.168,0.219,0.387,0.346,0.569c-0.127-0.188-0.214-0.401-0.355-0.574     C339.763,307.002,339.763,307.007,339.772,307.007c-0.02-0.021-0.03-0.036-0.041-0.056c-0.615-0.234-1.251-0.442-1.892-0.651     c-0.3-0.097-0.6-0.198-0.91-0.295c-0.748-0.224-1.501-0.442-2.273-0.636c-5.972-1.521-12.711-2.034-20.305-1.302     c-7.029-0.494-16.857-1.796-19.959-5.875c-1.607-2.121-3.184-4.567-4.699-7.237c31.061-21.311,42.979-75.959,34.465-118.902     c-6.562-33.07-19.531-61.436-74.011-52.871c-27.112-6.429-47.381,1.755-61.294,16.983     c-36.242,39.647-13.122,117.539,26.327,150.086c-1.053,2.299-2.253,4.491-3.665,6.495c-4.346,6.175-10.035,9.888-16.901,11.047     c-0.725,0.122-1.646,0.193-2.622,0.255c-37.778-3.54-58.838,23.341-65.025,54.275c0.211-0.254,0.519-0.402,0.778-0.615     c-0.26,0.213-0.567,0.366-0.778,0.62v-0.005c-0.01,0.01-0.01,0.021-0.021,0.025c-0.331,1.638-0.603,3.285-0.844,4.933     c-0.01,0.016-0.01,0.021-0.01,0.025c-0.717,4.913-1.091,9.893-1.091,14.832v4.888h250v-4.888     C375,348.216,365.835,316.961,339.772,307.007z M130.9,356.445c-0.794,0-1.548,0.188-2.22,0.519     C129.352,356.634,130.097,356.445,130.9,356.445z M210.635,251.14c-0.936-1.246-1.861-2.508-2.754-3.8     c-4.303-10.457-7.619-20.101-8.649-26.174c-0.916-5.417-1.068-24.022-1.068-24.022h80.162h28.214     c1.078-4.603,2.706-7.172,4.517-8.453c0.661-0.361,1.576-0.778,2.614-1.028c2.197-0.274,4.415,0.717,6.108,1.882     c0.697,0.839,1.297,1.922,1.796,3.26c0.956,2.584,1.18,9.613-1.312,17.126c-1.068,3.031-4.481,10.183-8.555,11.896     c0.314-1.241,0.609-2.391,0.853-3.362c0.651-0.488,1.1-1.226,1.1-2.101c0-0.417-0.123-0.803-0.285-1.159     c0.081-0.361,0.137-0.585,0.137-0.585l-0.646-0.147c-0.483-0.479-1.149-0.778-1.882-0.778c-0.285,0-0.55,0.081-0.814,0.168     l-0.438-0.102c0,0-0.036,0.158-0.092,0.351c-0.783,0.463-1.333,1.282-1.333,2.253c0,0.499,0.179,0.936,0.417,1.333     c-0.295,1.139-0.65,2.477-1.048,3.972c-0.121-0.056-0.244-0.081-0.381-0.142l-1.246-0.595l-0.417,1.322     c-4.68,14.755-13.835,29.047-23.764,39.943c-4.445,1.316-9.064,2.614-12.451,3.555c-0.813-3.098-4.475-5.427-8.875-5.427     c-4.989,0-9.046,3.006-9.046,6.719c0,3.708,4.057,6.714,9.046,6.714c3.494,0,6.49-1.485,8.001-3.637     c1.912-0.458,4.455-1.078,7.253-1.79c-2.132,1.983-4.263,3.835-6.368,5.427c-6.847,5.173-13.342,8.133-18.277,7.843     c-3.192-0.188-7.113-1.571-11.409-3.921c-5.252-2.884-11.063-7.232-16.77-12.675c-0.358-0.341-0.712-0.692-1.073-1.043     c-0.366-0.361-0.74-0.728-1.104-1.099C217.283,259.323,213.847,255.381,210.635,251.14z M262.995,332.743     c-2.69,0.702-5.335,1.267-7.889,1.628c-0.287-0.036-0.585-0.092-0.893-0.143c-15.503-2.559-51.882-21.052-63.021-27.72     c1.389-0.066,2.749-0.158,3.812-0.336c1.465-0.244,2.856-0.631,4.214-1.089c5.658-1.887,10.452-5.533,14.265-10.95     c1.388-1.958,2.581-4.095,3.624-6.333c6.185,4.807,12.726,8.52,19.495,10.778c-2.673-0.891-7.614-8.215-13.066-18.184     c-0.788-1.444-1.592-2.945-2.395-4.491c0.644-2.69,1.139-5.401,1.503-8.077c5.03,4.639,10.109,8.448,14.839,11.216     c5.107,2.98,9.792,4.745,13.529,4.964c0.265,0.021,0.524,0.025,0.794,0.025c4.929,0,11.108-2.665,17.603-7.278     c2.955-2.096,5.972-4.598,8.972-7.436c1.643,6.159,3.846,12.045,6.368,17.329c-0.763,0.967-1.485,1.877-2.197,2.746     c-4.435,5.397-7.96,8.77-9.644,9.186c5.311-1.308,10.234-3.454,14.781-6.287c1.536,2.716,3.148,5.203,4.791,7.355     c2.319,3.058,7.202,4.776,12.868,5.778c3.53,0.626,7.354,0.972,11.058,1.181C308.064,312.774,284.021,327.301,262.995,332.743z      M340.678,308.513c0.224,0.56,0.346,1.17,0.346,1.811C341.023,309.683,340.901,309.072,340.678,308.513z" style="fill:#484B4D;"/></g></g></g><g id="Layer_1"/></svg>