<?xml version="1.0" ?><!DOCTYPE svg  PUBLIC '-//W3C//DTD SVG 1.1//EN'  'http://www.w3.org/Graphics/SVG/1.1/DTD/svg11.dtd'><svg style="enable-background:new 0 0 500 500;" version="1.1" viewBox="0 0 500 500" xml:space="preserve" xmlns="http://www.w3.org/2000/svg" xmlns:xlink="http://www.w3.org/1999/xlink"><g id="shirt-star"><g><polygon points="500,250 473.216,279.409 491.536,314.718 458.049,336.172 466.532,375.03 428.619,387.055     426.778,426.778 387.044,428.619 375.02,466.543 336.161,458.049 314.707,491.547 279.409,473.226 250,500 220.581,473.226     185.282,491.547 163.818,458.049 124.959,466.543 112.945,428.619 73.222,426.778 71.371,387.044 33.458,375.021 41.941,336.172     8.453,314.718 26.774,279.409 0,250 26.774,220.591 8.453,185.282 41.941,163.829 33.458,124.97 71.371,112.956 73.222,73.222     112.956,71.381 124.97,33.468 163.829,41.952 185.282,8.463 220.581,26.784 250,0 279.409,26.784 314.718,8.463 336.172,41.962     375.03,33.468 387.044,71.381 426.778,73.232 428.619,112.966 466.532,124.98 458.049,163.839 491.536,185.282 473.216,220.591       " style="fill:#9DD2D8;"/><g id="_x31_7"><path d="M384.705,206.95c-23.138-42.765-59.505-57.627-77.378-62.49c-0.27-0.102-0.539-0.158-0.818-0.219     c-0.442-0.117-0.936-0.249-1.353-0.361c-1.617-0.407-3.301-0.132-4.694,0.778c-0.763,0.494-1.358,1.16-1.821,1.928     c-19.429,9.435-37.323,12.619-52.622,12.619c-15.371,0.005-28.152-3.138-37.044-6.292c-4.445-1.577-7.914-3.128-10.244-4.283     c-0.122-0.066-0.208-0.102-0.331-0.163c-0.473-1.139-1.16-2.166-2.208-2.823c-1.429-0.905-3.189-1.154-4.807-0.697     c-21.179,6.012-39.825,19.811-53.4,32.003c-13.55,12.212-21.983,22.918-22.126,23.102c-1.836,2.33-1.673,5.656,0.381,7.797     l33.595,35.192c2.127,2.223,5.595,2.467,8.016,0.56l8.759-6.938v113.687c0,1.567,0.641,3.104,1.754,4.212     c1.104,1.108,2.645,1.75,4.217,1.75h148.239c1.582,0,3.112-0.642,4.222-1.75c1.113-1.108,1.749-2.645,1.749-4.212v-112.65     l9.964,9.761c2.224,2.182,5.732,2.289,8.088,0.249l38.528-33.427C385.477,212.463,386.027,209.401,384.705,206.95z" style="fill:#484B4D;"/><path d="M341.182,235.097l-16.18-15.859c-1.714-1.679-4.282-2.167-6.48-1.241     c-2.213,0.926-3.657,3.103-3.657,5.503v120.88H178.548l-0.005-120.036c0-2.284-1.312-4.379-3.367-5.366     c-0.819-0.392-1.709-0.595-2.594-0.595c-1.317,0-2.625,0.433-3.698,1.292l-14.17,11.2l-26.179-27.41     c8.52-9.811,32.816-35.06,60.023-45.08c1.541,5.941,4.069,12.797,8.291,19.378c5.895,9.212,15.503,17.822,29.739,21.357     c8.331,2.08,16.307,3.128,23.855,3.128c13.499,0.021,25.711-3.428,35.553-10.493c11.043-7.899,18.402-19.811,22.186-34.612     c16.378,5.219,44.281,18.453,63.68,51.331L341.182,235.097z" style="fill:#F4F8F8;"/><path d="M246.018,171.143c0.015,0,0.036,0,0.046,0c14.317,0,30.68-2.579,48.151-9.557     c-3.453,8.921-8.504,15.681-15.172,20.472c-7.538,5.402-17.07,8.271-28.601,8.275c-6.429,0-13.453-0.92-20.961-2.782     c-11.068-2.818-17.873-8.992-22.608-16.261c-1.658-2.553-2.919-5.244-4.023-7.924     C212.819,167.114,227.697,171.127,246.018,171.143z" style="fill:#F4F8F8;"/><polygon points="264.018,245.748 250.005,217.356 235.987,245.748 204.656,250.295 227.331,272.405      221.979,303.609 250.005,288.874 278.025,303.609 272.68,272.405 295.354,250.295    " style="fill:#FC6E51;"/></g></g></g><g id="Layer_1"/></svg>