<?xml version="1.0" ?><!DOCTYPE svg  PUBLIC '-//W3C//DTD SVG 1.1//EN'  'http://www.w3.org/Graphics/SVG/1.1/DTD/svg11.dtd'><svg style="enable-background:new 0 0 500 500;" version="1.1" viewBox="0 0 500 500" xml:space="preserve" xmlns="http://www.w3.org/2000/svg" xmlns:xlink="http://www.w3.org/1999/xlink"><g id="transport-delivery"><g><polygon points="500,250 473.216,279.409 491.536,314.718 458.049,336.172 466.532,375.03 428.619,387.055     426.778,426.778 387.044,428.619 375.02,466.543 336.161,458.049 314.707,491.547 279.409,473.226 250,500 220.581,473.226     185.282,491.547 163.818,458.049 124.959,466.543 112.945,428.619 73.222,426.778 71.371,387.044 33.458,375.021 41.941,336.172     8.453,314.718 26.774,279.409 0,250 26.774,220.591 8.453,185.282 41.941,163.829 33.458,124.97 71.371,112.956 73.222,73.222     112.956,71.381 124.97,33.468 163.829,41.952 185.282,8.463 220.581,26.784 250,0 279.409,26.784 314.718,8.463 336.172,41.962     375.03,33.468 387.044,71.381 426.778,73.232 428.619,112.966 466.532,124.98 458.049,163.839 491.536,185.282 473.216,220.591       " style="fill:#9DD2D8;"/><g id="_x33_5"><g id="_x33_3"><path d="M118.169,277.97h130.117c3.683,0,6.703,3.011,6.703,6.693v22.186c0,3.677-3.02,6.693-6.703,6.693      h-66.335c-2.991-11.398-13.347-19.821-25.686-19.821c-12.339,0-22.705,8.423-25.686,19.821h-12.411      c-3.692,0-6.714-3.017-6.714-6.693v-22.186C111.455,280.98,114.477,277.97,118.169,277.97z" style="fill:#484B4D;"/><path d="M301.661,313.67c-0.438,1.739-0.702,3.561-0.702,5.442c0,12.166,9.867,22.033,22.034,22.033      c12.156,0,22.023-9.867,22.023-22.033c0-1.882-0.265-3.703-0.712-5.442c0-0.041-0.021-0.081-0.031-0.127      c-2.472-9.461-11.047-16.449-21.28-16.449s-18.819,6.988-21.291,16.449C301.691,313.589,301.682,313.629,301.661,313.67z" style="fill:#484B4D;"/><path d="M305.71,319.112c0-1.704,0.244-3.347,0.712-4.898c0-0.035,0.01-0.076,0.02-0.117      c2.156-7.1,8.738-12.278,16.551-12.278s14.393,5.179,16.56,12.278c0,0.041,0.011,0.082,0.021,0.117      c0.458,1.552,0.723,3.194,0.723,4.898c0,9.552-7.752,17.304-17.304,17.304C313.441,336.416,305.71,328.664,305.71,319.112z" style="fill:#F4F8F8;"/><path d="M312.017,313.543c2.034-4.014,6.154-6.79,10.977-6.79c4.811,0,8.932,2.776,10.976,6.79      c0.031,0.046,0.051,0.086,0.071,0.127c0.814,1.643,1.312,3.479,1.312,5.442c0,6.836-5.544,12.364-12.359,12.364      c-6.826,0-12.37-5.528-12.37-12.364c0-1.964,0.509-3.8,1.322-5.442C311.966,313.629,311.986,313.589,312.017,313.543z" style="fill:#484B4D;"/><path d="M134.862,313.543c-0.468,1.78-0.753,3.647-0.753,5.569c0,12.166,9.867,22.033,22.044,22.033      c12.156,0,22.014-9.867,22.014-22.033c0-1.923-0.275-3.789-0.732-5.569c-2.482-9.461-11.048-16.449-21.281-16.449      C145.899,297.094,137.324,304.082,134.862,313.543z" style="fill:#484B4D;"/><path d="M138.86,319.112c0-1.739,0.254-3.423,0.742-5.016c2.136-7.1,8.738-12.278,16.551-12.278      c7.802,0,14.394,5.179,16.541,12.278c0.478,1.593,0.743,3.276,0.743,5.016c0,9.552-7.741,17.304-17.283,17.304      C146.591,336.416,138.86,328.664,138.86,319.112z" style="fill:#F4F8F8;"/><path d="M156.143,306.753c4.801,0,8.932,2.776,10.976,6.79c0.855,1.684,1.384,3.555,1.384,5.569      c0,6.836-5.534,12.364-12.36,12.364s-12.359-5.528-12.359-12.364c0-2.015,0.529-3.886,1.373-5.569      C147.212,309.529,151.331,306.753,156.143,306.753z" style="fill:#484B4D;"/><rect height="113.353" style="fill:#484B4D;" width="141.062" x="112.696" y="158.854"/><path d="M259.252,185.517v116.292c0,11.734,8.962,11.734,8.962,11.734h28.767      c2.991-11.398,13.337-19.821,25.687-19.821c12.349,0,22.684,8.423,25.685,19.821h31.066c9.775,0,9.125-9.781,9.125-9.781      v-54.586c-20.864-59.153-75.175-74.742-75.175-74.742s-30.64,0-43.691,0C257.95,174.434,259.252,185.517,259.252,185.517z       M278.834,191.457c7.172,0,35.767,0,35.767,0s33.966,11.23,48.106,49.53h-89.62V197.55      C273.087,197.55,272.364,191.457,278.834,191.457z" style="fill:#484B4D;"/></g><g><path d="M218.369,248.861c0.752,0.753,0.457,1.516-0.662,1.688l-23.264,3.687      c-1.109,0.179-1.882-0.59-1.699-1.703l3.682-23.265c0.183-1.114,0.936-1.414,1.689-0.661l6.012,6.007      c10.224-13.642,9.145-33.076-3.255-45.487c-13.601-13.601-35.655-13.601-49.246,0c-0.071,0.071-0.142,0.153-0.213,0.224      l-0.01-0.005c-14.608,14.847-16.042,40.222-1.292,54.977c16.826,16.826,34.342,14.125,40.263,12.543      c-14.445,4.293-30.742,0.763-42.145-10.65c-16.591-16.581-16.591-43.467,0-60.048c16.693-16.704,43.783-16.704,60.486,0      c15.442,15.442,16.591,39.744,3.489,56.529L218.369,248.861z M190.374,256.866c1.353-0.36,2.095-0.661,2.095-0.661      C191.777,256.449,191.076,256.658,190.374,256.866z" style="fill:#FC6E51;"/><path d="M158.564,214.63c0.742-1.343,1.119-2.721,1.119-4.14c0-1.77-0.549-3.194-1.648-4.292      c-1.088-1.119-2.503-1.679-4.222-1.679c-1.79,0-3.255,0.56-4.404,1.694c-1.14,1.124-1.709,2.599-1.709,4.44l0.02,0.661h4.801      c-0.01-0.143-0.01-0.275-0.02-0.387c0-0.112,0-0.213,0-0.285c0-1.501,0.397-2.248,1.21-2.248c0.356,0,0.651,0.148,0.854,0.438      c0.214,0.29,0.315,0.691,0.315,1.185c0,0.911-0.214,1.796-0.651,2.65c-0.224,0.458-0.529,0.986-0.925,1.581      c-0.387,0.595-0.865,1.272-1.445,2.03l-5.035,6.663h12.624v-4.414c-0.783,0-1.546,0.04-2.299,0.127      c-0.743,0.082-1.496,0.219-2.228,0.412c0.855-0.814,1.577-1.587,2.177-2.33C157.71,216.003,158.188,215.296,158.564,214.63z       M168.076,222.941v-3.733h-6.704v-3.891l5.564-10.798h6.104v10.809h1.566v3.881h-1.566v3.733H168.076z M168.238,215.327v-3.449      c0-0.158,0.01-0.412,0.03-0.758c0.02-0.356,0.051-0.804,0.092-1.353l-0.743,1.577c-0.366,0.768-0.732,1.485-1.099,2.152      c-0.366,0.666-0.732,1.276-1.099,1.831H168.238z M177.963,228.699l13.194-24.618l-2.605-1.383l-13.184,24.536L177.963,228.699z       M197.118,213.19l-4.436,9.75h5.351l8.29-18.422h-13.072v4.415h6.246c-0.478,0.722-0.905,1.424-1.302,2.126      C197.81,211.762,197.454,212.474,197.118,213.19z" style="fill:#F4F8F8;"/></g></g></g></g><g id="Layer_1"/></svg>