<?xml version="1.0" ?><!DOCTYPE svg  PUBLIC '-//W3C//DTD SVG 1.1//EN'  'http://www.w3.org/Graphics/SVG/1.1/DTD/svg11.dtd'><svg style="enable-background:new 0 0 500 500;" version="1.1" viewBox="0 0 500 500" xml:space="preserve" xmlns="http://www.w3.org/2000/svg" xmlns:xlink="http://www.w3.org/1999/xlink"><g id="store-building"><g><polygon points="500,250 473.226,279.409 491.536,314.718 458.049,336.172 466.532,375.03 428.619,387.049     426.778,426.778 387.044,428.619 375.02,466.537 336.172,458.043 314.718,491.541 279.409,473.221 250,500 220.591,473.221     185.282,491.541 163.829,458.043 124.97,466.537 112.956,428.619 73.222,426.773 71.381,387.039 33.458,375.021 41.952,336.166     8.453,314.718 26.774,279.409 0,250 26.774,220.591 8.463,185.282 41.952,163.829 33.468,124.97 71.381,112.956 73.222,73.222     112.956,71.381 124.979,33.462 163.829,41.952 185.282,8.459 220.591,26.779 250,0 279.409,26.779 314.718,8.459 336.172,41.957     375.03,33.462 387.044,71.381 426.778,73.227 428.619,112.961 466.543,124.98 458.049,163.834 491.536,185.282 473.226,220.591       " style="fill:#9DD2D8;"/><g id="_x33_"><g><rect height="122.233" style="fill:#484B4D;" width="6.917" x="213.969" y="128.214"/><rect height="122.233" style="fill:#484B4D;" width="6.917" x="345.429" y="128.214"/><g><rect height="106.699" style="fill:#484B4D;" width="292.348" x="103.749" y="265.081"/><rect height="71.681" style="fill:#F4F8F8;" width="259.42" x="116.607" y="299.153"/><rect height="37.293" style="fill:#484B4D;" width="51.88" x="128.184" y="217.341"/><rect height="61.747" style="fill:#484B4D;" width="4.69" x="163.482" y="309.626"/><rect height="60.405" style="fill:#484B4D;" width="2.35" x="272.878" y="309.626"/><rect height="17.852" style="fill:#484B4D;" width="214.111" x="165.049" y="353.521"/><polygon points="121.816,285.995 371.856,285.995 394.785,306.401 95.764,306.401      " style="fill:#FC6E51;"/><polygon points="114.797,306.265 104.747,306.265 128.927,286.128 137.309,286.128      " style="fill:#F4F8F8;"/><polygon points="137.268,306.265 127.227,306.265 147.675,286.128 156.067,286.128      " style="fill:#F4F8F8;"/><polygon points="159.749,306.265 149.699,306.265 166.422,286.128 174.805,286.128      " style="fill:#F4F8F8;"/><polygon points="182.221,306.265 172.17,306.265 185.17,286.128 193.553,286.128      " style="fill:#F4F8F8;"/><polygon points="204.691,306.265 194.641,306.265 203.918,286.128 212.311,286.128      " style="fill:#F4F8F8;"/><polygon points="227.163,306.265 217.112,306.265 222.666,286.128 231.059,286.128      " style="fill:#F4F8F8;"/><polygon points="249.634,306.265 239.594,306.265 241.425,286.128 249.807,286.128      " style="fill:#F4F8F8;"/><polygon points="272.104,306.265 262.064,306.265 260.173,286.128 268.555,286.128      " style="fill:#F4F8F8;"/><polygon points="294.576,306.265 284.536,306.265 278.921,286.128 287.303,286.128      " style="fill:#F4F8F8;"/><polygon points="317.058,306.265 307.007,306.265 297.679,286.128 306.06,286.128      " style="fill:#F4F8F8;"/><polygon points="339.519,306.265 329.477,306.265 316.416,286.128 324.799,286.128      " style="fill:#F4F8F8;"/><polygon points="362.01,306.265 351.949,306.265 335.175,286.128 343.557,286.128      " style="fill:#F4F8F8;"/><polygon points="384.471,306.265 374.431,306.265 353.923,286.128 362.305,286.128      " style="fill:#F4F8F8;"/><rect height="4.558" style="fill:#FC6E51;" width="299.55" x="95.235" y="306.137"/></g><rect height="14.989" style="fill:#484B4D;" width="312.5" x="93.75" y="250.448"/><rect height="96.863" style="fill:#484B4D;" width="159.14" x="204.742" y="137.441"/><rect height="85.337" style="fill:#F4F8F8;" width="146.444" x="210.51" y="143.204"/><rect height="1.729" style="fill:#484B4D;" width="157.399" x="204.742" y="130.523"/><rect height="1.724" style="fill:#484B4D;" width="157.399" x="204.742" y="238.342"/><rect height="10.284" style="fill:#F4F8F8;" width="101.48" x="169.088" y="358.297"/><rect height="10.285" style="fill:#F4F8F8;" width="99.7" x="276.602" y="357.625"/></g><g><path d="M256.988,196.024c-1.831,1.836-3.875,2.899-6.124,3.189c-2.34,0.376-4.333,0.376-6.002,0      c-0.499-0.128-0.997,0.061-1.495,0.564c-3.876,4.039-8.565,6.058-14.069,6.058c-0.915,0-1.831-0.061-2.747-0.188      c-0.916-0.122-1.861-0.29-2.818-0.498c-3.001-0.667-5.229-1.872-6.683-3.627c-1.414-1.541-2.004-3.184-1.75-4.934      c0.376-3.041,2.268-4.71,5.686-5c1.709-0.168,5.005,0.31,9.877,1.434l8.25,2.066c0.743,0.122,1.292-0.128,1.628-0.753      c1.119-2.04,1.678-3.83,1.678-5.371c0-3.001-2.411-5.625-7.243-7.879c-4.669-2.167-7.009-5.35-7.009-9.562      c0-1.663,0.447-3.372,1.312-5.127c1.343-2.706,3.449-4.873,6.317-6.495c2.747-1.5,5.666-2.253,8.748-2.253      c0.336,0,0.651,0.016,0.936,0.031c0.295,0.025,0.61,0.056,0.946,0.097c2.746,0.335,4.812,1.206,6.185,2.624      c1.078,1.17,1.628,2.416,1.628,3.749c0,0.585-0.092,1.042-0.255,1.378c-0.62,1.455-1.525,2.04-2.686,1.75      c-0.295-0.086-0.488-0.3-0.6-0.656c-0.102-0.357-0.214-0.743-0.336-1.16c-0.549-1.292-1.882-2.248-4.008-2.874      c-0.743-0.208-1.577-0.31-2.492-0.31c-4.425,0-7.456,1.684-9.125,5.061c-0.499,1.083-0.753,2.045-0.753,2.874      c0,1.958,1.333,3.708,3.998,5.249l6.378,3.566c2.747,2.126,4.12,4.75,4.12,7.873c0,2.335-0.478,4.751-1.435,7.248      c-0.295,0.631-0.438,1.002-0.438,1.129c0,0.168,0.163,0.29,0.499,0.372c0.916,0.295,1.923,0.442,3.001,0.442      c0.793,0,1.811-0.376,3.062-1.129c0.712-0.417,1.353-0.865,1.943-1.343c0.579-0.478,1.078-1.007,1.495-1.592      c0.214-0.25,0.376-0.188,0.498,0.188c0.295,0.707,0.397,1.521,0.315,2.437C257.345,195.358,257.192,195.816,256.988,196.024z       M236.674,198.776c0-0.29-0.478-0.545-1.434-0.753c-1.75-0.412-3.683-0.85-5.788-1.312c-2.096-0.458-4.446-0.915-7.029-1.373      c-0.753-0.04-1.353,0.148-1.811,0.564c-0.458,0.417-0.681,0.936-0.681,1.562c0,0.748,0.305,1.373,0.936,1.872      c1.75,1.5,4.059,2.253,6.938,2.253c2.665,0,5.29-0.666,7.874-1.999C236.338,199.295,236.674,199.025,236.674,198.776z" style="fill:#484B4D;"/><path d="M274.424,196.024c-1.749,1.75-3.794,2.813-6.123,3.189c-1.17,0.208-2.228,0.31-3.185,0.31      c-2.462,0-4.353-0.412-5.696-1.246c-2.035-1.332-2.95-3.398-2.747-6.19c0.041-0.956,0.58-3.21,1.628-6.749      c0.498-1.749,0.875-3.083,1.119-3.998c0.254-0.921,0.397-1.419,0.447-1.501c0.041-0.29-0.152-0.503-0.569-0.625      c-0.336,0-0.692-0.01-1.089-0.03c-0.397-0.025-0.844-0.056-1.343-0.097c-0.376-0.081-0.458-0.376-0.254-0.875      c0.081-0.249,0.183-0.539,0.284-0.874c0.103-0.331,0.234-0.727,0.407-1.186c0.285-0.417,0.723-0.625,1.312-0.625h0.997      c0.295,0.041,0.498,0.061,0.62,0.061c0.173,0,0.295,0,0.377,0c0.213,0,0.457-0.208,0.752-0.626      c0.499-1.79,1.038-3.657,1.628-5.595c0.58-1.933,1.2-3.987,1.872-6.154c0.162-0.417,0.6-0.727,1.311-0.936      c1.547-0.417,3.103-0.417,4.69,0c0.62,0.208,0.854,0.829,0.681,1.872c-0.579,1.749-1.159,3.53-1.749,5.346      c-0.58,1.811-1.16,3.677-1.75,5.595c-0.081,0.372,0.092,0.621,0.499,0.748c0.508,0,1.067,0.011,1.689,0.031      c0.631,0.021,1.292,0.051,2.004,0.097c0.254,0.041,0.417,0.31,0.498,0.809c0.082,0.585-0.061,1.292-0.438,2.127      c-0.122,0.335-0.396,0.523-0.813,0.564c0.173-0.041-1.251-0.066-4.252-0.066c-0.326,0-0.58,0.188-0.743,0.564      c-0.457,1.668-0.966,3.459-1.536,5.376c-0.559,1.917-1.169,3.957-1.841,6.124c-0.417,1.373-0.274,2.416,0.438,3.128      c0.997,0.997,2.329,1.501,3.998,1.501c0.793,0,1.811-0.376,3.062-1.129c0.712-0.417,1.353-0.865,1.943-1.343      c0.58-0.478,1.078-1.007,1.495-1.592c0.214-0.25,0.376-0.188,0.498,0.188c0.296,0.707,0.397,1.521,0.315,2.437      C274.78,195.358,274.638,195.816,274.424,196.024z" style="fill:#484B4D;"/><path d="M296.295,181.778c0,2.996-0.895,6.312-2.685,9.934c-2.706,5.462-6.521,8.189-11.434,8.189      c-1.414,0-2.767-0.249-4.059-0.753c-2.92-1.246-4.385-3.581-4.385-6.999c0-1.872,0.438-4.165,1.312-6.872      c1.088-3.209,3.001-5.854,5.758-7.939c2.41-1.831,4.679-2.792,6.815-2.874c1.037,0,1.698,0.208,1.993,0.625      c0.418,0.54,0.255,1.018-0.498,1.435c-0.631,0.335-1.628,1.378-3.001,3.128c-1.831,2.208-3.204,4.334-4.13,6.373      c-1.373,3.083-2.055,5.483-2.055,7.187c0,1.251,0.376,2.085,1.119,2.502c0.539,0.29,1.108,0.438,1.688,0.438      c1.709,0,3.255-0.977,4.628-2.94c0.753-1.038,1.496-2.727,2.248-5.061c0.662-1.876,0.997-3.103,0.997-3.688      c0-0.544-0.224-0.977-0.682-1.312c-0.915-0.667-1.373-1.709-1.373-3.128c0-2.665,1.14-3.998,3.429-3.998      c0.752,0,1.546,0.229,2.38,0.687C295.654,177.465,296.295,179.153,296.295,181.778z" style="fill:#484B4D;"/><path d="M326.05,196.024c-1.841,1.836-3.876,2.899-6.124,3.189c-3.794,0.625-6.602,0.518-8.412-0.316      c-1.812-0.829-2.717-2.081-2.717-3.749c0-0.417,0.061-0.915,0.184-1.5c0.214-0.956,0.478-1.959,0.783-2.996      c0.315-1.042,0.702-2.167,1.159-3.377c0.661-1.877,1.17-3.083,1.496-3.627c0.295-0.498,0.295-1.062,0-1.689      c-0.285-0.58-1.119-1.251-2.492-1.999c-0.336-0.208-0.61-0.02-0.814,0.565c-1.048,2.584-1.841,4.532-2.38,5.844      c-0.539,1.312-0.834,2.009-0.875,2.09c-1.75,3.458-3.936,6.271-6.561,8.438c-1.628,1.251-3.347,2.024-5.188,2.314      c-0.244,0.081-0.438-0.041-0.56-0.377c-0.295-0.625-0.438-1.312-0.438-2.06c0-0.376,0.081-0.585,0.244-0.625      c1.506-0.336,2.716-0.834,3.632-1.5c0.661-0.504,1.606-1.439,2.808-2.812c0.834-1.043,1.882-2.834,3.123-5.377      c1.383-2.792,2.441-5.539,3.193-8.25c0.041-0.163,0.071-0.28,0.092-0.341c0.021-0.066,0.03-0.117,0.03-0.158      c-0.04-0.249-0.183-0.626-0.438-1.124c-0.244-0.503-0.376-1.022-0.376-1.562c0-0.168,0.01-0.356,0.03-0.564      c0.021-0.209,0.051-0.417,0.102-0.626c0.458-2.376,1.638-3.54,3.561-3.499c1.618,0.041,2.523,1.063,2.686,3.062      c0.041,0.376-0.061,0.915-0.315,1.627c-0.081,0.249-0.081,0.433,0,0.56c0.082,0.122,0.275,0.26,0.56,0.407      c0.295,0.148,0.692,0.33,1.19,0.564c0.498,0.229,1.129,0.549,1.882,0.966c1.495,0.834,2.492,1.46,2.991,1.872      c0.834,0.712,1.17,1.607,1.007,2.691c-0.122,0.666-0.855,2.624-2.188,5.874c-0.671,1.582-1.18,2.863-1.536,3.845      c-0.355,0.977-0.569,1.658-0.65,2.029c-0.255,1.211,0.224,1.938,1.434,2.187c0.499,0.127,1.506,0.147,3.001,0.066      c0.794-0.046,1.812-0.417,3.062-1.129c1.495-0.829,2.645-1.811,3.438-2.935c0.203-0.25,0.376-0.188,0.498,0.188      c0.295,0.707,0.396,1.521,0.315,2.437C326.406,195.358,326.253,195.816,326.05,196.024z" style="fill:#484B4D;"/><path d="M350.169,196.024c-1.75,1.75-3.794,2.833-6.124,3.25c-1.831,0.377-3.897,0.565-6.185,0.565      c-4.792,0-8.169-0.793-10.122-2.375c-2.258-1.877-3.377-4.461-3.377-7.752c0-2.873,0.834-5.956,2.502-9.247      c1.201-2.38,2.89-4.15,5.056-5.315c1.791-1.002,3.643-1.5,5.565-1.5c1.079,0,1.933,0.148,2.564,0.437      c2.411,1.043,3.622,3.062,3.622,6.063c0,0.666-0.061,1.373-0.184,2.126c-0.336,1.999-1.831,4.436-4.506,7.314      c-0.824,0.916-1.648,1.74-2.462,2.467c-0.814,0.728-1.617,1.384-2.411,1.968c-0.203,0.209-0.315,0.331-0.315,0.377      c0,0.163,0.254,0.376,0.753,0.62c1.841,1.043,4.73,1.378,8.688,1.002c2.584-0.249,4.771-1.582,6.562-3.998      c0.213-0.25,0.376-0.188,0.508,0.188c0.285,0.707,0.387,1.521,0.306,2.437C350.525,195.358,350.383,195.816,350.169,196.024z       M335.145,179.683c-1.028,0.773-1.832,1.78-2.411,3.031c-1.333,2.792-1.994,5.122-1.994,6.998c0,1.333,0.407,1.709,1.241,1.124      c2.797-1.749,4.924-3.871,6.378-6.373c0.916-1.541,1.373-2.812,1.373-3.814c0-1.414-0.6-2.126-1.81-2.126      C337.087,178.523,336.161,178.909,335.145,179.683z" style="fill:#484B4D;"/></g></g></g></g><g id="Layer_1"/></svg>