<?xml version="1.0" ?><!DOCTYPE svg  PUBLIC '-//W3C//DTD SVG 1.1//EN'  'http://www.w3.org/Graphics/SVG/1.1/DTD/svg11.dtd'><svg style="enable-background:new 0 0 500 500;" version="1.1" viewBox="0 0 500 500" xml:space="preserve" xmlns="http://www.w3.org/2000/svg" xmlns:xlink="http://www.w3.org/1999/xlink"><g id="discount-coupon"><g><polygon points="500,250 473.221,279.409 491.536,314.718 458.049,336.172 466.532,375.03 428.619,387.055     426.778,426.778 387.044,428.619 375.02,466.543 336.166,458.049 314.713,491.547 279.409,473.226 250,500 220.586,473.226     185.282,491.547 163.823,458.049 124.964,466.543 112.951,428.619 73.222,426.778 71.376,387.044 33.458,375.021 41.946,336.172     8.453,314.718 26.774,279.409 0,250 26.774,220.591 8.458,185.282 41.946,163.829 33.462,124.97 71.376,112.956 73.222,73.222     112.956,71.381 124.975,33.468 163.829,41.952 185.282,8.461 220.586,26.779 250,0 279.409,26.779 314.718,8.461 336.172,41.957     375.03,33.468 387.044,71.381 426.778,73.232 428.619,112.961 466.537,124.98 458.049,163.839 491.536,185.282 473.221,220.591       " style="fill:#9DD2D8;"/><g id="_x35_"><path d="M367.188,335.744c0,5.035-4.109,9.15-9.14,9.15H146.739c-5.036,0-9.15-4.115-9.15-9.15V167.814     c0-5.033,4.115-9.148,9.15-9.148h211.309c5.03,0,9.14,4.115,9.14,9.148V335.744z" style="fill:#484B4D;"/><polygon points="229.965,155.106 132.868,252.192 132.812,208.839 186.513,155.134    " style="fill:#FC6E51;"/><g><path d="M161.331,211.469l-11.734-2.713l7.223,7.228l-1.811,1.808l-10.36-10.355l1.892-1.897      l11.745,2.708l-7.217-7.212l1.836-1.826l10.34,10.346L161.331,211.469z" style="fill:#F4F8F8;"/><path d="M167.363,205.434l-10.34-10.343l7.401-7.401l1.709,1.707l-5.59,5.592l2.441,2.437l5.34-5.341      l1.714,1.709l-5.341,5.338l2.803,2.808l5.686-5.687l1.689,1.681L167.363,205.434z" style="fill:#F4F8F8;"/><path d="M187.357,185.44l-1.851,1.856l-8.779-5.208l5.208,8.776l-1.841,1.844l-13.056-7.637l1.852-1.852      l8.799,5.254l-5.218-8.84l1.811-1.795l8.845,5.224l-5.239-8.84l1.841-1.844L187.357,185.44z" style="fill:#F4F8F8;"/></g><g><path d="M216.512,200.864v8.748h-16.418v11.157l0.961-0.074h0.778c3.164,0,6.027,0.687,8.601,2.058      c2.574,1.371,4.578,3.293,6.022,5.763c1.45,2.472,2.172,5.254,2.172,8.341c0,4.87-1.638,8.83-4.913,11.879      c-3.276,3.054-7.579,4.58-12.919,4.58c-4.746,0-8.947-0.977-12.604-2.93v-8.675c3.855,2.373,7.548,3.561,11.083,3.561      c2.767,0,5.082-0.774,6.933-2.317c1.856-1.544,2.782-3.504,2.782-5.878c0-2.667-1.063-4.748-3.189-6.246      c-2.126-1.493-5.02-2.243-8.672-2.243c-1.729,0-3.647,0.224-5.747,0.669v-28.394H216.512z" style="fill:#F4F8F8;"/><path d="M244.436,200.195c5.239,0,9.395,2.362,12.472,7.08c3.077,4.723,4.618,11.172,4.618,19.351      c0,8.255-1.521,14.768-4.562,19.537c-3.036,4.768-7.192,7.154-12.456,7.154c-5.335,0-9.557-2.368-12.655-7.101      c-3.103-4.73-4.654-11.213-4.654-19.442c0-8.204,1.541-14.684,4.634-19.442C234.924,202.576,239.121,200.195,244.436,200.195z       M236.837,227.071c0,11.838,2.533,17.756,7.599,17.756c4.944,0,7.416-6.228,7.416-18.684c0-11.638-2.503-17.459-7.492-17.459      C239.344,208.685,236.837,214.816,236.837,227.071z" style="fill:#F4F8F8;"/><path d="M279.139,200.195c2.102,0,4.074,0.534,5.916,1.595c1.836,1.063,3.296,2.528,4.374,4.392      c1.073,1.869,1.612,3.863,1.612,5.987c0,2.128-0.534,4.11-1.597,5.951c-1.059,1.841-2.519,3.299-4.374,4.375      c-1.852,1.073-3.83,1.612-5.932,1.612c-2.146,0-4.155-0.532-6.022-1.595c-1.867-1.06-3.332-2.52-4.395-4.374      c-1.059-1.854-1.592-3.84-1.592-5.969c0-2.149,0.544-4.156,1.633-6.022c1.088-1.867,2.558-3.324,4.43-4.375      C275.06,200.722,277.044,200.195,279.139,200.195z M312.689,200.195l-35.289,53.121h-6.23l35.288-53.121H312.689z       M273.433,212.169c0,1.61,0.554,2.986,1.668,4.135c1.114,1.146,2.462,1.722,4.038,1.722c1.557,0,2.879-0.56,3.968-1.686      c1.089-1.124,1.633-2.512,1.633-4.17c0-1.63-0.539-3.021-1.612-4.169c-1.078-1.149-2.406-1.724-3.988-1.724      c-1.556,0-2.894,0.58-4.018,1.742C273.992,209.18,273.433,210.564,273.433,212.169z M304.794,229.406      c2.096,0,4.079,0.544,5.946,1.63c1.866,1.091,3.321,2.553,4.374,4.395c1.053,1.841,1.577,3.835,1.577,5.986      c0,2.126-0.534,4.102-1.592,5.931c-1.063,1.831-2.518,3.28-4.359,4.356c-1.836,1.073-3.82,1.612-5.946,1.612      c-2.151,0-4.155-0.526-6.007-1.577c-1.852-1.05-3.316-2.502-4.395-4.356c-1.073-1.852-1.612-3.84-1.612-5.966      c0-2.126,0.545-4.12,1.633-5.986c1.089-1.867,2.574-3.337,4.445-4.413C300.735,229.942,302.714,229.406,304.794,229.406z       M299.082,241.417c0,1.681,0.57,3.077,1.704,4.188c1.14,1.111,2.472,1.668,4.008,1.668c1.531,0,2.854-0.549,3.963-1.651      c1.113-1.099,1.668-2.502,1.668-4.206c0-1.557-0.55-2.935-1.648-4.133c-1.1-1.198-2.427-1.798-3.983-1.798      c-1.581,0-2.93,0.593-4.043,1.778C299.642,238.452,299.082,239.835,299.082,241.417z" style="fill:#F4F8F8;"/><path d="M169.611,280.08c1.648,0,3.27,0.189,4.857,0.564c1.582,0.371,3.296,1.013,5.127,1.918v5.3      c-1.79-1.032-3.448-1.775-4.969-2.238c-1.526-0.458-3.113-0.682-4.766-0.682c-2.075,0-3.942,0.423-5.61,1.282      c-1.669,0.854-2.966,2.055-3.886,3.611c-0.926,1.562-1.389,3.291-1.389,5.198c0,1.942,0.463,3.688,1.378,5.228      c0.916,1.546,2.208,2.736,3.876,3.58c1.668,0.84,3.545,1.262,5.63,1.262c1.597,0,3.123-0.233,4.578-0.691      c1.455-0.458,3.281-1.282,5.493-2.482v5.3c-1.892,0.987-3.626,1.688-5.213,2.105c-1.582,0.418-3.433,0.621-5.544,0.621      c-3.072,0-5.819-0.61-8.235-1.831c-2.421-1.221-4.323-2.98-5.707-5.29c-1.384-2.299-2.075-4.816-2.075-7.558      c0-2.93,0.712-5.564,2.136-7.899c1.429-2.335,3.387-4.135,5.879-5.397C163.671,280.711,166.479,280.08,169.611,280.08z" style="fill:#F4F8F8;"/><path d="M200.719,280.08c3.016,0,5.732,0.621,8.138,1.867c2.416,1.246,4.333,3.036,5.768,5.376      c1.429,2.35,2.146,4.913,2.146,7.711c0,2.721-0.697,5.249-2.09,7.578c-1.404,2.329-3.322,4.135-5.758,5.422      c-2.441,1.282-5.188,1.923-8.25,1.923c-3.016,0-5.757-0.651-8.224-1.953c-2.467-1.312-4.385-3.103-5.768-5.392      c-1.368-2.289-2.06-4.811-2.06-7.578c0-2.671,0.692-5.179,2.06-7.528c1.383-2.35,3.275-4.171,5.697-5.473      C194.794,280.731,197.576,280.08,200.719,280.08z M190.435,295.034c0,1.933,0.443,3.667,1.317,5.208      c0.875,1.546,2.096,2.741,3.662,3.591c1.562,0.845,3.331,1.271,5.305,1.271c2.986,0,5.442-0.94,7.37-2.817      c1.922-1.877,2.889-4.293,2.889-7.253c0-1.934-0.437-3.673-1.302-5.224c-0.875-1.552-2.096-2.752-3.672-3.597      c-1.582-0.854-3.352-1.271-5.331-1.271c-1.973,0-3.749,0.423-5.325,1.282c-1.577,0.854-2.792,2.05-3.637,3.586      C190.862,291.346,190.435,293.086,190.435,295.034z" style="fill:#F4F8F8;"/><path d="M228.439,280.457v16.952c0,1.734,0.259,3.118,0.783,4.146c0.519,1.032,1.373,1.882,2.553,2.548      c1.18,0.666,2.559,1.002,4.13,1.002c1.724,0,3.189-0.315,4.384-0.946c1.206-0.636,2.086-1.495,2.64-2.589      c0.554-1.093,0.834-2.603,0.834-4.536v-16.576h5.636v17.303c0,3.927-1.18,6.938-3.53,9.044c-2.35,2.105-5.671,3.153-9.964,3.153      c-2.696,0-5.041-0.478-7.014-1.435c-1.984-0.956-3.495-2.35-4.537-4.16c-1.042-1.816-1.562-3.947-1.562-6.389v-17.517H228.439z" style="fill:#F4F8F8;"/><path d="M268.244,280.457c2.722,0,4.94,0.793,6.638,2.364c1.704,1.582,2.559,3.611,2.559,6.099      c0,2.518-0.864,4.558-2.584,6.114c-1.729,1.556-4.003,2.329-6.82,2.329h-5.422v12.223h-5.631v-29.129H268.244z M266.846,292.969      c1.506,0,2.67-0.346,3.515-1.032c0.839-0.692,1.262-1.704,1.262-3.058c0-2.685-1.725-4.022-5.173-4.022h-3.835v8.112H266.846z" style="fill:#F4F8F8;"/><path d="M297.76,280.08c3.017,0,5.732,0.621,8.139,1.867c2.416,1.246,4.333,3.036,5.768,5.376      c1.429,2.35,2.147,4.913,2.147,7.711c0,2.721-0.697,5.249-2.096,7.578s-3.316,4.135-5.753,5.422      c-2.441,1.282-5.188,1.923-8.25,1.923c-3.016,0-5.757-0.651-8.224-1.953c-2.467-1.312-4.385-3.103-5.769-5.392      c-1.368-2.289-2.06-4.811-2.06-7.578c0-2.671,0.691-5.179,2.06-7.528c1.384-2.35,3.275-4.171,5.697-5.473      C291.834,280.731,294.617,280.08,297.76,280.08z M287.476,295.034c0,1.933,0.442,3.667,1.317,5.208      c0.875,1.546,2.096,2.741,3.662,3.591c1.562,0.845,3.331,1.271,5.305,1.271c2.986,0,5.442-0.94,7.37-2.817      c1.923-1.877,2.89-4.293,2.89-7.253c0-1.934-0.438-3.673-1.303-5.224c-0.875-1.552-2.096-2.752-3.672-3.597      c-1.582-0.854-3.353-1.271-5.331-1.271c-1.974,0-3.748,0.423-5.325,1.282c-1.576,0.854-2.792,2.05-3.637,3.586      C287.902,291.346,287.476,293.086,287.476,295.034z" style="fill:#F4F8F8;"/><path d="M325.14,280.457l17.298,20.329v-20.329h5.509v29.129h-4.837l-17.41-20.666v20.666h-5.504v-29.129      H325.14z" style="fill:#F4F8F8;"/></g></g></g></g><g id="Layer_1"/></svg>