<?xml version="1.0" ?><!DOCTYPE svg  PUBLIC '-//W3C//DTD SVG 1.1//EN'  'http://www.w3.org/Graphics/SVG/1.1/DTD/svg11.dtd'><svg style="enable-background:new 0 0 500 500;" version="1.1" viewBox="0 0 500 500" xml:space="preserve" xmlns="http://www.w3.org/2000/svg" xmlns:xlink="http://www.w3.org/1999/xlink"><g id="help-support-headset-bubble"><g><polygon points="500,250 473.216,279.409 491.536,314.718 458.049,336.172 466.532,375.03 428.619,387.055     426.778,426.778 387.044,428.619 375.02,466.543 336.161,458.049 314.707,491.547 279.409,473.226 250,500 220.581,473.226     185.282,491.547 163.818,458.049 124.959,466.543 112.945,428.619 73.222,426.778 71.371,387.044 33.458,375.021 41.941,336.172     8.453,314.718 26.774,279.409 0,250 26.774,220.591 8.453,185.282 41.941,163.829 33.458,124.97 71.371,112.956 73.222,73.222     112.956,71.381 124.97,33.468 163.829,41.952 185.282,8.463 220.581,26.784 250,0 279.409,26.784 314.718,8.463 336.172,41.962     375.03,33.468 387.044,71.381 426.778,73.232 428.619,112.966 466.532,124.98 458.049,163.839 491.536,185.282 473.216,220.591       " style="fill:#9DD2D8;"/><g id="_x33_6"><path d="M360.819,119.792h-33.65h-12.4h-29.744c-7.091,0-12.889,5.804-12.889,12.894v46.092     c0,7.095,5.798,12.888,12.889,12.888h4.923v25.904l21.749-25.904h3.072h12.4h33.65c7.091,0,12.899-5.793,12.899-12.888v-46.092     C373.719,125.595,367.91,119.792,360.819,119.792z" style="fill:#FC6E51;"/><path d="M321.177,201.965c13.987,17.588,22.38,39.81,22.38,63.964c0,29.322-12.35,55.792-32.084,74.57     c-0.61,0.585-1.211,1.18-1.831,1.75c-18.29,16.57-42.522,26.667-69.082,26.667c-20.895,0-40.344-6.276-56.6-17.019     c-4.384-2.899-8.555-6.109-12.451-9.623c-20.823-18.855-33.925-46.102-33.925-76.346c0-56.777,46.193-102.981,102.977-102.981     c7.293,0,14.415,0.768,21.281,2.228v-11.495c-6.897-1.308-13.997-2.02-21.281-2.02c-63.009,0-114.268,51.259-114.268,114.268     c0,37.435,18.087,70.715,45.99,91.578c3.723,2.783,7.629,5.32,11.678,7.641c3.662,2.085,7.436,3.997,11.342,5.696     c3.123,1.348,6.317,2.553,9.593,3.626c11.23,3.698,23.204,5.737,35.665,5.737c12.461,0,24.445-2.039,35.664-5.737     c3.275-1.073,6.48-2.278,9.593-3.626c8.138-3.525,15.788-7.955,22.807-13.174c1.17-0.875,2.279-1.795,3.418-2.706     c26.062-20.955,42.796-53.06,42.796-89.035c0-23.681-7.253-45.705-19.633-63.964H321.177z" style="fill:#484B4D;"/><path d="M303.599,261.663v37.75c0,1.81-1.475,3.291-3.285,3.291h-18.626c-1.801,0-3.275-1.48-3.275-3.291     v-37.75c0-1.812,1.475-3.291,3.275-3.291h3.51v-8.199c-0.041-20.686-16.774-37.425-37.466-37.45h-18.483     c-20.691,0.025-37.415,16.765-37.455,37.45v8.199h3.855c1.811,0,3.286,1.479,3.286,3.291v37.75c0,1.81-1.475,3.291-3.286,3.291     h-4.059c3.306,10.289,12.939,17.74,24.332,17.761h5.92v-1.403c0-1.45,1.18-2.747,2.624-2.879l12.512-1.155     c1.455-0.132,3.998,1.328,3.998,7.243s-2.544,7.029-3.998,6.897l-12.512-1.165c-1.444-0.122-2.624-1.424-2.624-2.874v-1.389     h-5.92c-13.224,0-24.373-8.905-27.781-21.036h-11.108c-1.8,0-3.286-1.48-3.286-3.291v-37.75c0-1.812,1.485-3.291,3.286-3.291     h9.827v-8.199c0-23.402,18.981-42.379,42.389-42.379h18.483c23.417,0,42.389,18.977,42.389,42.379v8.199h10.193     C302.124,258.372,303.599,259.852,303.599,261.663z" style="fill:#F4F8F8;"/><path d="M264.181,265.691h-4.15c-1.302,0-2.35,1.048-2.35,2.34v9.638c0,1.298,1.048,2.345,2.35,2.345h4.15     c1.302,0,2.35-1.047,2.35-2.345v-9.638C266.53,266.739,265.482,265.691,264.181,265.691z" style="fill:#484B4D;"/><path d="M211.792,265.691c-1.292,0-2.34,1.048-2.34,2.34v9.638c0,1.298,1.048,2.345,2.34,2.345h4.171     c1.292,0,2.339-1.047,2.339-2.345v-9.638c0-1.292-1.047-2.34-2.339-2.34H211.792z" style="fill:#484B4D;"/><g><rect height="7.003" style="fill-rule:evenodd;clip-rule:evenodd;fill:#F4F8F8;" width="76.822" x="285.024" y="164.546"/><rect height="7.003" style="fill-rule:evenodd;clip-rule:evenodd;fill:#F4F8F8;" width="76.822" x="285.024" y="137.568"/><g><rect height="7.009" style="fill-rule:evenodd;clip-rule:evenodd;fill:#F4F8F8;" width="18.758" x="285.024" y="151.25"/><rect height="7.009" style="fill-rule:evenodd;clip-rule:evenodd;fill:#F4F8F8;" width="45.399" x="316.447" y="150.854"/></g></g></g></g></g><g id="Layer_1"/></svg>