<?xml version="1.0" ?><!DOCTYPE svg  PUBLIC '-//W3C//DTD SVG 1.1//EN'  'http://www.w3.org/Graphics/SVG/1.1/DTD/svg11.dtd'><svg style="enable-background:new 0 0 500 500;" version="1.1" viewBox="0 0 500 500" xml:space="preserve" xmlns="http://www.w3.org/2000/svg" xmlns:xlink="http://www.w3.org/1999/xlink"><g id="female-swimsuits"><g><polygon points="500,250 473.216,279.409 491.536,314.718 458.049,336.172 466.532,375.03 428.619,387.055     426.778,426.778 387.044,428.619 375.02,466.543 336.161,458.049 314.707,491.547 279.409,473.226 250,500 220.581,473.226     185.282,491.547 163.818,458.049 124.959,466.543 112.945,428.619 73.222,426.778 71.371,387.044 33.458,375.021 41.941,336.172     8.453,314.718 26.774,279.409 0,250 26.774,220.591 8.453,185.282 41.941,163.829 33.458,124.97 71.371,112.956 73.222,73.222     112.956,71.381 124.97,33.468 163.829,41.952 185.282,8.461 220.581,26.779 250,0 279.409,26.779 314.718,8.461 336.172,41.957     375.03,33.468 387.044,71.381 426.778,73.232 428.619,112.961 466.532,124.98 458.049,163.839 491.536,185.282 473.216,220.591       " style="fill:#9DD2D8;"/><g id="_x38_"><g><path d="M195.826,122.79c0,0,10.564,4.316,9.115,22.914c0,0-2.121,3.449-3.047,8.148      c-0.798,4.013-0.274,9.097-2.019,12.121c0,0-2.66,4.524-4.939,7.851c-2.452,3.558-4.644,5.78-8.352,1.355      c0,0,2.065,17.575,10.656,17.779c0,0,11.841-2.179,16.342,18.697l-1.516,11.543c0,0,4.095,12.85-1.352,18.943      c0,0-24.526,13.054-1.033,52.699c0,0,2.716,17.843,1.917,25.624c0,0-9.745,57.078-16.337,60.537c0,0-1.974,3.621-28.173-0.108      c0,0-33.02-79.849-4.028-104.965c0,0,4.99-26.227-6.907-39.052l-10.224,27.343c1.918,5.442,19.552,24.811,10.239,34.893      c0,0-25.848-21.159-23.163-41.393l12.807-53.993c0,0,0-12.477,21.495-11.711c0,0,5.539-6.91,4.374-16.985      c0,0-15.04,3.972-19.378-4.268c0,0,8.138-3.105,5.422-21.711c0,0-0.077-11.238,1.938-15.525      c5.102-10.816,14.068-15.396,27.725-13.68L195.826,122.79z" style="fill:#484B4D;"/><path d="M161.987,274.684c1.892-1.893,1.974-11.876,1.933-15.508c0-0.011-0.62-8.146-3.479-13.586      l-2.716-4.644l-1.943-3.1l10.096-7.582c8.55-6.62-6.033-37.623-6.033-37.623l3.225,0.112l8.224,21.055      c14.807-0.852,24.302,11.994,24.302,11.994l3.22,0.114l5.951-11.327c1.821-13.969-5.208-21.899-5.208-21.899l3.22,0.577      c5.427,2.966,6.093,22.848,6.093,22.848c2.09,6.081,8.224,15.088,8.224,15.088c0.641,7.864-6.637,14.008-6.637,14.008      c-3.296,4.491-6.134,13.343-6.434,13.578c-2.386,16.551,0.717,14.862,1.78,22.491c1.434,2.436,4.399,12.614,3.876,16.668      c0,0-11.515,35.08-21.098,31.972c0,0-6.048-37.002-30.085-42.826l-5.422,6.19C153.453,286.306,161.987,274.684,161.987,274.684z      " style="fill:#FC6E51;"/></g><g><path d="M309.133,122.322c0,0-10.712,3.929-9.948,22.593c0,0,1.988,3.523,2.757,8.26      c0.641,4.046-0.057,9.107,1.571,12.194c0,0,2.492,4.619,4.653,8.034c2.32,3.652,4.446,5.956,8.311,1.656      c0,0-2.706,17.522-11.307,17.4c0,0-11.77-2.622-17.019,18.115l1.094,11.597c0,0-4.568,12.706,0.661,19      c0,0,19.658,19.348-5.29,58.156c0,0-1.847,19.862,1.566,20.152c0,0,7.676,57.459,14.145,61.146c0,0,1.847,3.698,28.179,0.926      c0,0,33.259-64.672,7.858-104.858c0,0-4.049-26.42,8.311-38.811l9.242,27.723c0,0-18.026,45.726-9.705,63.741      c0,0,24.81-49.439,22.862-69.773l-10.854-54.479c0,0,0.463-12.482-21.077-12.489c0,0-7.543-10.452-3.906-20.658      c0,0,2.237,1.111,6.887-6.981c0,0,9.221-9.298,9.043-13.758c0,0,7.101-8.54,0-15.335c-2.066-1.979-2.462,2.383-4.318-1.966      c-4.725-11.009-11.444-15.432-25.167-14.216L309.133,122.322z" style="fill:#484B4D;"/><path d="M343.75,193.54c0,0-15.706,30.487-7.385,37.417l8.311,6.925l-2.31,3.698l-8.31,0.465      c0,0-9.705,13.86-24.49-4.163c0,0-6.465-5.076-7.391,0.455c0,0-1.378,8.792-11.088,4.171c0,0-6.928-4.626-6.002-12.472      c0,0,6.47-8.786,8.774-14.783c0,0,1.383-19.872,6.938-22.641l3.229-0.46c0,0-8.784,7.393-6.002,21.703l5.534,11.554h3.234      c0,0,8.321-9.232,23.102-7.856l10.621-24.012H343.75z" style="fill:#F4F8F8;"/><path d="M342.829,291.006c0,0-20.324,18.483-48.502,0.468c0,0-3.24,4.618-2.772,9.704      c0,0,8.773,31.408,18.474,28.626c0,0,15.706-26.784,31.412-30.02C341.44,299.784,346.521,299.784,342.829,291.006z" style="fill:#F4F8F8;"/></g><g><polygon points="255.452,382.578 245.809,382.578 245.809,117.421 255.452,117.421 255.452,382.578           " style="fill:#484B4D;"/></g></g></g></g><g id="Layer_1"/></svg>