<?xml version="1.0" ?><!DOCTYPE svg  PUBLIC '-//W3C//DTD SVG 1.1//EN'  'http://www.w3.org/Graphics/SVG/1.1/DTD/svg11.dtd'><svg style="enable-background:new 0 0 500 500;" version="1.1" viewBox="0 0 500 500" xml:space="preserve" xmlns="http://www.w3.org/2000/svg" xmlns:xlink="http://www.w3.org/1999/xlink"><g id="dollar-bills"><g><polygon points="500,250 473.216,279.409 491.536,314.718 458.049,336.172 466.532,375.03 428.619,387.055     426.778,426.778 387.044,428.619 375.02,466.543 336.161,458.049 314.707,491.547 279.409,473.226 250,500 220.581,473.226     185.282,491.547 163.818,458.049 124.959,466.543 112.945,428.619 73.222,426.778 71.371,387.044 33.458,375.021 41.941,336.172     8.453,314.718 26.774,279.409 0,250 26.774,220.591 8.453,185.282 41.941,163.829 33.458,124.97 71.371,112.956 73.222,73.222     112.956,71.381 124.97,33.468 163.829,41.952 185.282,8.463 220.581,26.784 250,0 279.409,26.784 314.718,8.463 336.172,41.962     375.03,33.468 387.044,71.381 426.778,73.232 428.619,112.966 466.532,124.98 458.049,163.839 491.536,185.282 473.216,220.591       " style="fill:#9DD2D8;"/><g id="_x32_3"><g><polygon points="114.583,227.305 160.858,354.432 385.417,272.695 339.152,145.579     " style="fill:#484B4D;"/><polygon points="375.885,268.25 165.304,344.89 124.125,231.761 334.707,155.121     " style="fill:#F4F8F8;"/><polygon points="328.359,168.731 137.756,238.108 137.939,238.597 150.35,272.715 158.956,296.366       171.376,330.475 171.661,331.269 362.264,261.902     " style="fill:#FC6E51;"/><path d="M325.511,260.569l-57.638,20.976l-1.587-4.353c8.453-3.205,12.797-12.603,9.694-21.118      l-1.698-4.669c-3.113-8.576-12.614-13.001-21.189-9.878l-6.226,2.258c-4.384,1.587-7.253,0.264-8.85-4.12l-0.417-1.18      c-1.597-4.384-0.254-7.233,4.12-8.83l0.081-0.02c4.395-1.607,7.243-0.285,8.84,4.1l1.14,3.153l14.476-5.27l-0.977-2.675      c-3.012-8.28-11.933-12.655-20.254-10.172l-1.607-4.415l57.739-21.017c6.582,7.436,15.972,11.871,25.89,12.227l10.427,28.656      C330.037,240.937,325.684,250.509,325.511,260.569z" style="fill:#F4F8F8;"/><path d="M162.394,265.411c7.273-6.632,11.546-16.001,11.8-25.858l57.943-21.087l1.587,4.364      c-8.443,3.194-12.787,12.594-9.684,21.128l1.424,3.916c3.123,8.586,12.614,13.011,21.2,9.878l6.215-2.249      c4.395-1.597,7.263-0.264,8.85,4.11l0.692,1.902c1.607,4.395,0.274,7.253-4.13,8.85l-0.448,0.163      c-4.374,1.597-7.253,0.274-8.85-4.13l-1.414-3.876l-14.811,5.401l1.241,3.429c3.103,8.514,12.461,12.919,20.996,9.948      l1.587,4.353l-57.831,21.047c-6.551-7.537-15.93-12.074-25.879-12.491L162.394,265.411z" style="fill:#F4F8F8;"/></g><g><rect height="135.285" style="fill:#484B4D;" width="238.974" x="130.523" y="182.363"/><rect height="120.392" style="fill:#F4F8F8;" width="224.081" x="137.97" y="189.809"/><polygon points="351.431,200.44 148.6,200.44 148.6,200.958 148.6,237.264 148.6,262.431 148.6,298.727       148.6,299.581 351.431,299.581     " style="fill:#FC6E51;"/><path d="M317.342,285.757h-61.33v-4.629c9.044-0.132,16.327-7.467,16.327-16.54v-4.965      c0-9.124-7.405-16.53-16.53-16.53l-6.623-0.01c-4.659,0-6.897-2.228-6.897-6.897v-1.241c0-4.68,2.238-6.887,6.897-6.887h0.082      c4.68,0,6.896,2.208,6.896,6.887v3.347h15.401v-2.848c0-8.81-6.887-15.981-15.554-16.5v-4.689h61.442      c3.642,9.247,10.945,16.622,20.142,20.345v30.497C328.309,268.859,320.943,276.367,317.342,285.757z" style="fill:#F4F8F8;"/><path d="M162.415,234.518c9.104-3.744,16.317-11.088,19.928-20.264h61.655v4.648      c-9.023,0.112-16.327,7.467-16.327,16.541v4.17c0,9.135,7.406,16.531,16.541,16.531l6.612,0.01c4.689,0,6.917,2.238,6.917,6.887      v2.024c0,4.69-2.227,6.907-6.917,6.907h-0.468c-4.669,0-6.907-2.218-6.907-6.907v-4.12h-15.777v3.643      c0,9.073,7.304,16.408,16.327,16.54v4.629h-61.533c-3.581-9.318-10.844-16.795-20.05-20.59V234.518z" style="fill:#F4F8F8;"/></g></g></g></g><g id="Layer_1"/></svg>