<?xml version="1.0" ?><!DOCTYPE svg  PUBLIC '-//W3C//DTD SVG 1.1//EN'  'http://www.w3.org/Graphics/SVG/1.1/DTD/svg11.dtd'><svg style="enable-background:new 0 0 500 500;" version="1.1" viewBox="0 0 500 500" xml:space="preserve" xmlns="http://www.w3.org/2000/svg" xmlns:xlink="http://www.w3.org/1999/xlink"><g id="bag-shoe"><g><polygon points="500,250 473.216,279.409 491.536,314.718 458.049,336.172 466.532,375.03 428.619,387.055     426.778,426.778 387.044,428.619 375.02,466.543 336.161,458.049 314.707,491.547 279.409,473.226 250,500 220.581,473.226     185.282,491.547 163.818,458.049 124.959,466.543 112.945,428.619 73.222,426.778 71.371,387.044 33.458,375.021 41.941,336.172     8.453,314.718 26.774,279.409 0,250 26.774,220.591 8.453,185.282 41.941,163.829 33.458,124.97 71.371,112.956 73.222,73.222     112.956,71.381 124.97,33.468 163.829,41.952 185.282,8.461 220.581,26.779 250,0 279.409,26.779 314.718,8.461 336.172,41.957     375.03,33.468 387.044,71.381 426.778,73.232 428.619,112.961 466.532,124.98 458.049,163.839 491.536,185.282 473.216,220.591       " style="fill:#9DD2D8;"/><g id="_x37__1_"><path d="M375.315,234.345c0,0-31.606,22.293-56.143,80.286c0,0-28.991,11.145-42.378,20.061h46.834     c0,0,20.467-42.354,47.23-53.522v53.405h7.345c0,0-4.598-43.172,14.954-66.782C393.158,267.792,395.386,249.947,375.315,234.345z     " style="fill:#FC6E51;"/><g><path d="M257.202,203.117c0.01-0.534,0.071-1.05,0.071-1.566c0-22.443-18.25-40.7-40.7-40.7      c-22.441,0-40.7,18.257-40.7,40.7c0,0.516,0.061,1.032,0.081,1.566h-35.258l-15.035,60.28      c91.543,2.329,140.961-37.354,161.713-60.28H257.202z M191.732,201.849c0-13.692,11.149-24.847,24.841-24.847      c13.702,0,24.852,11.154,24.852,24.847c0,0.43-0.102,0.841-0.132,1.269h-49.428C191.844,202.69,191.732,202.278,191.732,201.849      z" style="fill:#484B4D;"/><path d="M299.744,234.965l-6.561-24.256c-22.99,24.798-75.277,65.129-169.861,62.098l-4.761,19.073      C214.427,297.831,272.848,259.338,299.744,234.965z" style="fill:#F4F8F8;"/><g><path d="M271.556,326.844c11.311-7.538,32.146-16.216,40.568-19.598       c1.484-3.383,3.001-6.674,4.526-9.832l-14.16-52.322c-29.917,25.773-90.261,62.535-186.249,56.106l-9.47,37.954h161.825       c-0.295-0.55-0.651-1.089-0.845-1.709C266.56,333.455,268.097,329.143,271.556,326.844z" style="fill:#484B4D;"/></g></g><path d="M349.355,190.188c0,0-1.048,16.752-15.707,23.043c0,0,13.611,4.191,15.707,24.078     c0,0,4.181-18.854,17.802-24.078C367.157,213.231,354.584,207.993,349.355,190.188z" style="fill:#F4F8F8;"/></g></g></g><g id="Layer_1"/></svg>