<?xml version="1.0" ?><!DOCTYPE svg  PUBLIC '-//W3C//DTD SVG 1.1//EN'  'http://www.w3.org/Graphics/SVG/1.1/DTD/svg11.dtd'><svg style="enable-background:new 0 0 500 500;" version="1.1" viewBox="0 0 500 500" xml:space="preserve" xmlns="http://www.w3.org/2000/svg" xmlns:xlink="http://www.w3.org/1999/xlink"><g id="atm-machine"><g><polygon points="500,250 473.216,279.409 491.536,314.718 458.049,336.172 466.532,375.03 428.619,387.055     426.778,426.778 387.044,428.619 375.02,466.543 336.161,458.049 314.707,491.547 279.409,473.226 250,500 220.581,473.226     185.282,491.547 163.818,458.049 124.959,466.543 112.945,428.619 73.222,426.778 71.371,387.044 33.458,375.021 41.941,336.172     8.453,314.718 26.774,279.409 0,250 26.774,220.591 8.453,185.282 41.941,163.829 33.458,124.97 71.371,112.956 73.222,73.222     112.956,71.381 124.97,33.468 163.829,41.952 185.282,8.463 220.581,26.784 250,0 279.409,26.784 314.718,8.463 336.172,41.962     375.03,33.468 387.044,71.381 426.778,73.232 428.619,112.966 466.532,124.98 458.049,163.839 491.536,185.282 473.216,220.591       " style="fill:#9DD2D8;"/><g id="_x32_8"><g><path d="M344.574,228.668h-34.211v113.826h34.211c7.364,0,13.387-6.033,13.387-13.397V242.05      C357.961,234.68,351.938,228.668,344.574,228.668z" style="fill:#484B4D;"/><path d="M336.039,320.918c0,4.231-1.942,7.69-4.323,7.69c-2.38,0-4.323-3.459-4.323-7.69v-69.214      c0-4.227,1.943-7.69,4.323-7.69c2.381,0,4.323,3.463,4.323,7.69V320.918z" style="fill:#F4F8F8;"/></g><path d="M289.378,140.625h-13.794H170.125h-13.784c-7.854,0-14.292,7.289-14.292,16.205v186.346     c0,8.905,6.439,16.199,14.292,16.199h133.036c7.863,0,14.303-7.294,14.303-16.199v-0.682V228.668V156.83     C303.681,147.914,297.241,140.625,289.378,140.625z" style="fill:#484B4D;"/><g><path d="M192.983,321.863h-20.416c-1.384,0-2.523,1.13-2.523,2.528v14.277      c0,1.384,1.139,2.518,2.523,2.518h20.416c1.404,0,2.544-1.134,2.544-2.518v-14.277      C195.526,322.993,194.387,321.863,192.983,321.863z" style="fill:#F4F8F8;"/><path d="M192.983,293.386h-20.416c-1.384,0-2.523,1.14-2.523,2.528v14.267      c0,1.394,1.139,2.538,2.523,2.538h20.416c1.404,0,2.544-1.145,2.544-2.538v-14.267      C195.526,294.525,194.387,293.386,192.983,293.386z" style="fill:#F4F8F8;"/><path d="M192.983,264.908h-20.416c-1.384,0-2.523,1.139-2.523,2.538v14.271      c0,1.399,1.139,2.528,2.523,2.528h20.416c1.404,0,2.544-1.129,2.544-2.528v-14.271      C195.526,266.047,194.387,264.908,192.983,264.908z" style="fill:#F4F8F8;"/><path d="M192.983,235.301h-20.416c-1.384,0-2.523,1.145-2.523,2.533v14.272      c0,1.389,1.139,2.528,2.523,2.528h20.416c1.404,0,2.544-1.14,2.544-2.528v-14.272      C195.526,236.445,194.387,235.301,192.983,235.301z" style="fill:#F4F8F8;"/><path d="M233.062,321.863h-20.406c-1.393,0-2.533,1.13-2.533,2.528v14.277      c0,1.384,1.14,2.518,2.533,2.518h20.406c1.404,0,2.533-1.134,2.533-2.518v-14.277      C235.596,322.993,234.467,321.863,233.062,321.863z" style="fill:#F4F8F8;"/><path d="M233.062,293.386h-20.406c-1.393,0-2.533,1.14-2.533,2.528v14.267      c0,1.394,1.14,2.538,2.533,2.538h20.406c1.404,0,2.533-1.145,2.533-2.538v-14.267      C235.596,294.525,234.467,293.386,233.062,293.386z" style="fill:#F4F8F8;"/><path d="M233.062,264.908h-20.406c-1.393,0-2.533,1.139-2.533,2.538v14.271      c0,1.399,1.14,2.528,2.533,2.528h20.406c1.404,0,2.533-1.129,2.533-2.528v-14.271      C235.596,266.047,234.467,264.908,233.062,264.908z" style="fill:#F4F8F8;"/><path d="M233.062,235.301h-20.406c-1.393,0-2.533,1.145-2.533,2.533v14.272      c0,1.389,1.14,2.528,2.533,2.528h20.406c1.404,0,2.533-1.14,2.533-2.528v-14.272      C235.596,236.445,234.467,235.301,233.062,235.301z" style="fill:#F4F8F8;"/><path d="M273.133,321.863h-20.406c-1.374,0-2.523,1.13-2.523,2.528v14.277      c0,1.384,1.149,2.518,2.523,2.518h20.406c1.403,0,2.543-1.134,2.543-2.518v-14.277      C275.676,322.993,274.536,321.863,273.133,321.863z" style="fill:#F4F8F8;"/><path d="M273.133,293.386h-20.406c-1.374,0-2.523,1.14-2.523,2.528v14.267      c0,1.394,1.149,2.538,2.523,2.538h20.406c1.403,0,2.543-1.145,2.543-2.538v-14.267      C275.676,294.525,274.536,293.386,273.133,293.386z" style="fill:#F4F8F8;"/><path d="M273.133,264.908h-20.406c-1.374,0-2.523,1.139-2.523,2.538v14.271      c0,1.399,1.149,2.528,2.523,2.528h20.406c1.403,0,2.543-1.129,2.543-2.528v-14.271      C275.676,266.047,274.536,264.908,273.133,264.908z" style="fill:#F4F8F8;"/><path d="M273.133,235.301h-20.406c-1.374,0-2.523,1.145-2.523,2.533v14.272      c0,1.389,1.149,2.528,2.523,2.528h20.406c1.403,0,2.543-1.14,2.543-2.528v-14.272      C275.676,236.445,274.536,235.301,273.133,235.301z" style="fill:#F4F8F8;"/></g><path d="M276.581,201.284c0,2.258-2.604,4.125-5.788,4.125h-95.866c-3.184,0-5.798-1.857-5.798-4.125     v-40.868c0-2.268,2.604-4.125,5.798-4.125h95.866c3.184,0,5.788,1.857,5.788,4.125V201.284z" style="fill:#F4F8F8;"/><g><path d="M240.733,182.231c0,3.703-3.021,6.699-6.714,6.699c-3.703,0-6.704-2.996-6.704-6.699      c0-3.692,3.001-6.698,6.704-6.698C237.711,175.532,240.733,178.538,240.733,182.231z" style="fill:#FC6E51;"/><path d="M263.031,182.231c0,3.703-2.991,6.699-6.693,6.699c-3.693,0-6.694-2.996-6.694-6.699      c0-3.692,3.001-6.698,6.694-6.698C260.04,175.532,263.031,178.538,263.031,182.231z" style="fill:#FC6E51;"/><path d="M218.394,182.231c0,3.703-3.001,6.699-6.704,6.699c-3.683,0-6.684-2.996-6.684-6.699      c0-3.692,3.001-6.698,6.684-6.698C215.393,175.532,218.394,178.538,218.394,182.231z" style="fill:#FC6E51;"/><path d="M196.075,182.231c0,3.703-3.001,6.699-6.693,6.699c-3.692,0-6.693-2.996-6.693-6.699      c0-3.692,3.001-6.698,6.693-6.698C193.075,175.532,196.075,178.538,196.075,182.231z" style="fill:#FC6E51;"/></g></g></g></g><g id="Layer_1"/></svg>