<?xml version="1.0" ?><svg id="Layer_1" style="enable-background:new 0 0 128 128;" version="1.1" viewBox="0 0 128 128" xml:space="preserve" xmlns="http://www.w3.org/2000/svg" xmlns:xlink="http://www.w3.org/1999/xlink"><style type="text/css">
	.st0{opacity:0.2;fill:#FFFFFF;}
	.st1{fill:#FFFFFF;}
	.st2{fill:none;stroke:#242C88;stroke-width:2;stroke-linecap:round;stroke-linejoin:round;stroke-miterlimit:10;}
	.st3{fill:#5E61A3;}
	.st4{opacity:0.5;fill:#242C88;}
	.st5{fill:#39C89A;}
	.st6{fill:#CAEAFB;}
	.st7{fill:#589FFF;}
	.st8{fill:#FF5751;}
	.st9{fill:#BC8D66;}
	.st10{opacity:0.7;fill:#FFFFFF;}
	.st11{fill:#F1C92A;}
	.st12{opacity:0.4;fill:none;stroke:#FFFFFF;stroke-width:2;stroke-linecap:round;stroke-linejoin:round;stroke-miterlimit:10;}
	.st13{fill:#F3877E;}
	.st14{fill:#83D689;}
	.st15{opacity:0.4;fill:#242C88;}
	.st16{opacity:0.2;fill:#242C88;}
	
		.st17{fill:none;stroke:#FFFFFF;stroke-width:3;stroke-linecap:round;stroke-linejoin:round;stroke-miterlimit:10;stroke-dasharray:0.1,6;}
	.st18{fill:#FFC408;}
	
		.st19{opacity:0.4;fill:none;stroke:#FFFFFF;stroke-width:3;stroke-linecap:round;stroke-linejoin:round;stroke-miterlimit:10;stroke-dasharray:0.1,6;}
	.st20{fill:none;stroke:#CAEAFB;stroke-width:12;stroke-linecap:round;stroke-miterlimit:10;}
	.st21{fill:none;stroke:#CAEAFB;stroke-width:7;stroke-linecap:round;stroke-miterlimit:10;}
	.st22{opacity:0.4;fill:none;stroke:#242C88;stroke-width:2;stroke-linecap:round;stroke-linejoin:round;stroke-miterlimit:10;}
	.st23{opacity:0.5;}
	.st24{fill:#242C88;}
	
		.st25{fill:none;stroke:#242C88;stroke-width:3;stroke-linecap:round;stroke-linejoin:round;stroke-miterlimit:10;stroke-dasharray:0.1,6;}
	.st26{opacity:0.5;fill:#FFFFFF;}
	.st27{fill:none;stroke:#FFFFFF;stroke-width:3;stroke-linecap:round;stroke-linejoin:round;stroke-miterlimit:10;}
	.st28{fill:none;stroke:#FFFFFF;stroke-width:2;stroke-linecap:round;stroke-linejoin:round;stroke-miterlimit:10;}
	.st29{fill:#E5BD9E;}
	.st30{fill:#A06D47;}
	
		.st31{opacity:0.3;fill:none;stroke:#FFFFFF;stroke-width:3;stroke-linecap:round;stroke-linejoin:round;stroke-miterlimit:10;stroke-dasharray:0.1,6;}
	.st32{opacity:0.1;fill:#242C88;}
	.st33{opacity:0.5;fill:#FF5751;}
	.st34{opacity:0.2;fill:none;stroke:#242C88;stroke-width:2;stroke-linecap:round;stroke-linejoin:round;stroke-miterlimit:10;}
	.st35{opacity:0.3;clip-path:url(#SVGID_2_);}
	
		.st36{fill:none;stroke:#FFFFFF;stroke-width:3;stroke-linecap:round;stroke-linejoin:round;stroke-miterlimit:10;stroke-dasharray:0,6;}
	
		.st37{opacity:0.3;fill:none;stroke:#FFFFFF;stroke-width:3;stroke-linecap:round;stroke-linejoin:round;stroke-miterlimit:10;stroke-dasharray:0,6;}
	.st38{clip-path:url(#SVGID_4_);}
	.st39{opacity:0.2;fill:none;stroke:#242C88;stroke-width:9;stroke-linecap:round;stroke-linejoin:round;stroke-miterlimit:10;}
	.st40{opacity:0.3;}
	.st41{opacity:0.4;fill:#FFFFFF;}
	.st42{opacity:0.5;fill:#CAEAFB;}
	.st43{opacity:0.6;fill:#242C88;}
	.st44{opacity:0.5;fill:none;stroke:#242C88;stroke-width:2;stroke-linecap:round;stroke-linejoin:round;stroke-miterlimit:10;}
	.st45{opacity:0.3;fill:#242C88;}
	.st46{opacity:0.2;}
	
		.st47{clip-path:url(#SVGID_6_);fill:none;stroke:#242C88;stroke-width:2;stroke-linecap:round;stroke-linejoin:round;stroke-miterlimit:10;}
	.st48{opacity:0.2;fill:none;stroke:#FFFFFF;stroke-width:8;stroke-linecap:round;stroke-linejoin:round;stroke-miterlimit:10;}
	.st49{clip-path:url(#SVGID_8_);fill:#FFFFFF;}
	
		.st50{clip-path:url(#SVGID_8_);fill:none;stroke:#242C88;stroke-width:2;stroke-linecap:round;stroke-linejoin:round;stroke-miterlimit:10;}
	.st51{opacity:0.2;clip-path:url(#SVGID_8_);fill:#242C88;}
	
		.st52{opacity:0.2;clip-path:url(#SVGID_8_);fill:none;stroke:#242C88;stroke-width:2;stroke-linecap:round;stroke-linejoin:round;stroke-miterlimit:10;}
	.st53{fill:none;stroke:#242C88;stroke-width:1.848;stroke-linecap:round;stroke-linejoin:round;stroke-miterlimit:10;}
	.st54{opacity:0.4;fill:none;stroke:#FFFFFF;stroke-width:7;stroke-linecap:round;stroke-linejoin:round;stroke-miterlimit:10;}
	.st55{opacity:0.2;fill:none;stroke:#242C88;stroke-width:7;stroke-linecap:round;stroke-linejoin:round;stroke-miterlimit:10;}
	.st56{opacity:7.000000e-02;fill:#242C88;}
	.st57{fill:none;stroke:#FFFFFF;stroke-width:4;stroke-linecap:round;stroke-linejoin:round;stroke-miterlimit:10;}
	.st58{opacity:0.4;fill:none;stroke:#FFFFFF;stroke-width:8;stroke-linecap:round;stroke-linejoin:round;stroke-miterlimit:10;}
	.st59{opacity:0.2;fill:none;stroke:#242C88;stroke-width:8;stroke-linecap:round;stroke-linejoin:round;stroke-miterlimit:10;}
	.st60{fill:none;stroke:#FF5751;stroke-width:4;stroke-linecap:round;stroke-linejoin:round;stroke-miterlimit:10;}
	.st61{fill:none;stroke:#242C88;stroke-width:4;stroke-linecap:round;stroke-linejoin:round;stroke-miterlimit:10;}
</style><path class="st7" d="M90.3,78H36.7L23,85.4V78h-9.3c-2.1,0-3.7-1.7-3.7-3.7V17.7c0-2.1,1.7-3.7,3.7-3.7h76.6c2.1,0,3.7,1.7,3.7,3.7  v56.6C94,76.3,92.3,78,90.3,78z"/><line class="st2" x1="26.8" x2="78" y1="31" y2="31"/><line class="st2" x1="26.8" x2="78" y1="50.3" y2="50.3"/><line class="st2" x1="26.8" x2="52.4" y1="60" y2="60"/><line class="st2" x1="26.8" x2="78" y1="40.7" y2="40.7"/><path class="st2" d="M90.3,78H36.7L23,85.4V78h-9.3c-2.1,0-3.7-1.7-3.7-3.7V17.7c0-2.1,1.7-3.7,3.7-3.7h76.6c2.1,0,3.7,1.7,3.7,3.7  v56.6C94,76.3,92.3,78,90.3,78z"/><path class="st45" d="M37.7,40c-4.8,0-8.7,3.9-8.7,8.7v33.5l7.7-4.2h53.6c2.1,0,3.7-1.7,3.7-3.7V40H37.7z"/><path class="st1" d="M37.7,109h53.6l13.7,7.4V109h9.3c2.1,0,3.7-1.7,3.7-3.7V48.7c0-2.1-1.7-3.7-3.7-3.7H37.7  c-2.1,0-3.7,1.7-3.7,3.7v56.6C34,107.3,35.7,109,37.7,109z"/><path class="st2" d="M37.7,109h53.6l13.7,7.4V109h9.3c2.1,0,3.7-1.7,3.7-3.7V48.7c0-2.1-1.7-3.7-3.7-3.7H37.7  c-2.1,0-3.7,1.7-3.7,3.7v56.6C34,107.3,35.7,109,37.7,109z"/><g><polygon class="st16" points="93,45 93,78.2 102.5,97.8 112,78.2 112,45  "/><polygon class="st1" points="106,40 106,77.6 96.5,97.2 87,77.6 87,40  "/><rect class="st18" height="19" transform="matrix(6.123234e-17 -1 1 6.123234e-17 37.5 155.5)" width="38" x="77.5" y="49.5"/><rect class="st16" height="38" width="6" x="100" y="40"/><polygon class="st3" points="91.7,89 95.7,97.3 99.7,89  "/><polygon class="st2" points="106,40 106,77.6 96.5,97.2 87,77.6 87,40  "/><path class="st13" d="M106,40v-8.6c0-2.4-2-4.4-4.4-4.4H91.4C89,27,87,29,87,31.4V40H106z"/><path class="st2" d="M106,40v-8.6c0-2.4-2-4.4-4.4-4.4H91.4C89,27,87,29,87,31.4V40H106z"/><line class="st2" x1="100" x2="100" y1="62" y2="41"/><line class="st2" x1="100" x2="100" y1="78" y2="69"/><rect class="st1" height="19" transform="matrix(6.123234e-17 -1 1 6.123234e-17 55.5 137.5)" width="8" x="92.5" y="31.5"/><rect class="st16" height="19" transform="matrix(6.123234e-17 -1 1 6.123234e-17 55.5 137.5)" width="8" x="92.5" y="31.5"/><rect class="st2" height="19" transform="matrix(6.123234e-17 -1 1 6.123234e-17 55.5 137.5)" width="8" x="92.5" y="31.5"/></g><path class="st34" d="M49.1,88.7l3.5-2.9c0.3-0.2,0.6,0,0.6,0.4v2.6c0,0.4,0.3,0.6,0.6,0.4l4.6-3.8c0.3-0.2,0.6,0,0.6,0.4v2.9  c0,0,0.2,0.6,0.5,0.4l4.4-3.6c0.3-0.2,0.1,0.4,0.1,0.4v3c0,0.4,0.3,0.6,0.6,0.4l4.6-3.8c0.3-0.2,0.6,0,0.6,0.4v2.7  c0,0.4,0.3,0.6,0.6,0.4l3.8-3.1c0.3-0.2,0.6,0,0.6,0.4v2.5c0,0.4,0.3,0.6,0.6,0.4l3.7-3"/><line class="st34" x1="49.8" x2="78" y1="59" y2="59"/><line class="st34" x1="49.8" x2="78" y1="71" y2="71"/><line class="st34" x1="49.8" x2="63.9" y1="77" y2="77"/><line class="st34" x1="49.8" x2="78" y1="65" y2="65"/></svg>