<?xml version="1.0" ?><svg style="enable-background:new 0 0 48 48;" version="1.1" viewBox="0 0 48 48" xml:space="preserve" xmlns="http://www.w3.org/2000/svg" xmlns:xlink="http://www.w3.org/1999/xlink"><g id="Padding__x26__Artboard"/><g id="Icons"><g><circle cx="20.09631" cy="23.99829" r="3.12805" style="fill:#303030;"/><path d="M37.22778,18.34277h-2.20215c-0.25537,0-0.48779,0.08203-0.68457,0.24023l-3.78369,2.88867    v-3.33496c0-1.30078-1.05811-2.3584-2.35889-2.3584H11.98218c-1.29395,0-2.34668,1.05762-2.34668,2.3584v11.72656    c0,1.30078,1.05273,2.3584,2.34668,2.3584h16.21631c1.30078,0,2.35889-1.05762,2.35889-2.3584v-3.31445l3.78076,2.8623    c0.20947,0.16406,0.43408,0.24316,0.6875,0.24316h2.20215c0.62695,0,1.13672-0.50879,1.13672-1.13574v-2.00879V21.5v-2.02148    C38.3645,18.85156,37.85474,18.34277,37.22778,18.34277z M20.82056,18.11133h-5.77197c-0.19336,0-0.3501-0.15625-0.3501-0.34961    s0.15674-0.34961,0.3501-0.34961h5.77197c0.19336,0,0.3501,0.15625,0.3501,0.34961S21.01392,18.11133,20.82056,18.11133z     M23.92407,23.99805c0,2.11133-1.71729,3.82812-3.82764,3.82812c-2.11084,0-3.82812-1.7168-3.82812-3.82812    c0-2.11035,1.71729-3.82715,3.82812-3.82715C22.20679,20.1709,23.92407,21.8877,23.92407,23.99805z M24.17163,18.11133h-1.396    c-0.19336,0-0.3501-0.15625-0.3501-0.34961s0.15674-0.34961,0.3501-0.34961h1.396c0.19336,0,0.3501,0.15625,0.3501,0.34961    S24.36499,18.11133,24.17163,18.11133z" style="fill:#303030;"/></g></g></svg>