<?xml version="1.0" ?><svg style="enable-background:new 0 0 48 48;" version="1.1" viewBox="0 0 48 48" xml:space="preserve" xmlns="http://www.w3.org/2000/svg" xmlns:xlink="http://www.w3.org/1999/xlink"><g id="Padding__x26__Artboard"/><g id="Icons"><g><circle cx="23.9978" cy="22.74457" r="2.98657" style="fill:#303030;"/><path d="M35.96509,14.07538l-8.979-0.00586l-2.44775-2.10742    c-0.21533-0.20703-0.70508-0.22363-0.90967-0.03418l-2.52734,2.14648h-9.06641c-0.96484,0-1.75,0.78516-1.75,1.75v18.55566    c0,1.00586,0.81885,1.82422,1.82471,1.82422h23.78076c1.00586,0,1.82471-0.81836,1.82471-1.82422V15.8244    C37.71509,14.85956,36.92993,14.07538,35.96509,14.07538z M13.24634,18.03925v7.85156c0,0.19336-0.15674,0.34961-0.3501,0.34961    s-0.3501-0.15625-0.3501-0.34961v-7.85156c0-0.19336,0.15674-0.34961,0.3501-0.34961S13.24634,17.84589,13.24634,18.03925z     M12.54614,27.60956c0-0.19336,0.15674-0.34961,0.3501-0.34961s0.3501,0.15625,0.3501,0.34961v0.75    c0,0.19336-0.15674,0.34961-0.3501,0.34961s-0.3501-0.15625-0.3501-0.34961V27.60956z M29.71997,30.88593    c-0.19336,0-0.3501-0.15625-0.3501-0.34961c0-1.59863-1.2998-2.89941-2.89795-2.89941h-4.94824    c-1.59814,0-2.89844,1.30078-2.89844,2.89941c0,0.19336-0.15674,0.34961-0.3501,0.34961s-0.3501-0.15625-0.3501-0.34961    c0-1.98438,1.61426-3.59863,3.59863-3.59863h4.94824c1.98389,0,3.59814,1.61426,3.59814,3.59863    C30.07007,30.72968,29.91333,30.88593,29.71997,30.88593z M20.31128,22.74432c0-2.03223,1.65381-3.68555,3.68652-3.68555    s3.68652,1.65332,3.68652,3.68555c0,2.0332-1.65381,3.68652-3.68652,3.68652S20.31128,24.77753,20.31128,22.74432z" style="fill:#303030;"/></g></g></svg>