<?xml version="1.0" ?><svg style="enable-background:new 0 0 48 48;" version="1.1" viewBox="0 0 48 48" xml:space="preserve" xmlns="http://www.w3.org/2000/svg" xmlns:xlink="http://www.w3.org/1999/xlink"><g id="Padding__x26__Artboard"/><g id="Icons"><g><path d="M23.99976,11.21631c-7.04932,0-12.78418,5.73438-12.78418,12.78418    c0,7.04883,5.73486,12.7832,12.78418,12.7832s12.78467-5.73438,12.78467-12.7832    C36.78442,16.95068,31.04907,11.21631,23.99976,11.21631z M27.85278,24.3501h-3.50293v3.50293    c0,0.19336-0.15674,0.34961-0.3501,0.34961s-0.3501-0.15625-0.3501-0.34961V24.3501h-3.50244    c-0.19336,0-0.3501-0.15625-0.3501-0.34961s0.15674-0.34961,0.3501-0.34961h3.50244v-3.50293    c0-0.19336,0.15674-0.34961,0.3501-0.34961s0.3501,0.15625,0.3501,0.34961v3.50293h3.50293    c0.19336,0,0.3501,0.15625,0.3501,0.34961S28.04614,24.3501,27.85278,24.3501z" style="fill:#303030;"/></g></g></svg>