<?xml version="1.0" ?><svg style="enable-background:new 0 0 48 48;" version="1.1" viewBox="0 0 48 48" xml:space="preserve" xmlns="http://www.w3.org/2000/svg" xmlns:xlink="http://www.w3.org/1999/xlink"><g id="Padding__x26__Artboard"/><g id="Icons"><g><path d="M20.24878,16.53223c-2.45068,0-4.44434,1.99414-4.44434,4.44434    c0,2.45117,1.99365,4.44531,4.44434,4.44531c0.7959,0,1.57764-0.21387,2.26074-0.61816    c0.01202-0.00714,0.02557-0.00775,0.03809-0.01331c0.02484-0.01105,0.04895-0.02167,0.07623-0.02673    c0.02338-0.00439,0.04608-0.00323,0.06952-0.00281c0.01697,0.00024,0.03271-0.00476,0.05005-0.00208l1.27734,0.20605    l-0.14355-1.27051c-0.00928-0.08069,0.01471-0.1554,0.05444-0.21973c0.00293-0.00488-0.00006-0.01086,0.00317-0.01562    c0.49609-0.73438,0.7583-1.59277,0.7583-2.48242C24.69312,18.52637,22.69946,16.53223,20.24878,16.53223z M19.97144,17.77441    c-1.36914,0-2.71289,1.20801-2.71289,2.43848c0,0.19336-0.15674,0.34961-0.3501,0.34961s-0.3501-0.15625-0.3501-0.34961    c0-1.61328,1.65869-3.1377,3.41309-3.1377c0.19336,0,0.3501,0.15625,0.3501,0.34961S20.16479,17.77441,19.97144,17.77441z" style="fill:#303030;"/><path d="M39.28003,10.71289H8.71997c-0.83252,0-1.51025,0.67676-1.51025,1.50879v19.07031    c0,0.83301,0.67773,1.50977,1.51025,1.50977h11.65234l3.07959,4.25293c0.1123,0.14648,0.31006,0.23242,0.5332,0.23242    c0.00928,0,0.01855,0,0.02783,0c0.23877-0.00781,0.43848-0.10645,0.53906-0.25781l3.10449-4.22754h11.62354    c0.83252,0,1.51025-0.67676,1.51025-1.50977V12.22168C40.79028,11.38965,40.11255,10.71289,39.28003,10.71289z M32.54559,24.87488    h-1.01953v-6.81201h-0.02393l-1.35547,0.73145l-0.20361-0.80371l1.70264-0.91162h0.8999V24.87488z M24.76782,25.34473    c0.01221,0.1084-0.02686,0.2168-0.10596,0.29199c-0.06592,0.0625-0.15234,0.09668-0.2417,0.09668    c-0.01855,0-0.03711-0.00098-0.05566-0.00391l-1.62256-0.2616c-0.76178,0.42371-1.61884,0.6532-2.49316,0.6532    c-2.83643,0-5.14453-2.30762-5.14453-5.14453c0-2.83594,2.30811-5.14355,5.14453-5.14355s5.14453,2.30762,5.14453,5.14355    c0,0.98254-0.284,1.92841-0.80811,2.75214L24.76782,25.34473z" style="fill:#303030;"/></g></g></svg>