<?xml version="1.0" ?><svg style="enable-background:new 0 0 48 48;" version="1.1" viewBox="0 0 48 48" xml:space="preserve" xmlns="http://www.w3.org/2000/svg" xmlns:xlink="http://www.w3.org/1999/xlink"><g id="Padding__x26__Artboard"/><g id="Icons"><g><circle cx="23.96815" cy="37.56822" r="0.64536" style="fill:none;"/><path d="M20.72009,11.17114h3.72314c0.19336,0,0.3501-0.15674,0.3501-0.3501s-0.15674-0.3501-0.3501-0.3501    h-3.72314c-0.19336,0-0.3501,0.15674-0.3501,0.3501S20.52673,11.17114,20.72009,11.17114z" style="fill:none;"/><path d="M20.70935,13.97437c-0.12988-0.14453-0.35059-0.15576-0.49414-0.02637l-2.87012,2.58203    c-0.14404,0.12939-0.15576,0.35059-0.02637,0.49414c0.06934,0.07715,0.16455,0.11621,0.26025,0.11621    c0.0835,0,0.16699-0.02979,0.23389-0.08984l2.87012-2.58203C20.82703,14.33911,20.83875,14.11792,20.70935,13.97437z" style="fill:none;"/><ellipse cx="26.851" cy="10.82112" rx="0.36533" ry="0.3287" style="fill:none;"/><path d="M21.21326,15.75952c0.14404-0.12939,0.15576-0.35059,0.02637-0.49414    c-0.12988-0.14404-0.35059-0.15527-0.49414-0.02637l-1.78857,1.60938c-0.14404,0.12939-0.15576,0.35059-0.02637,0.49414    c0.06934,0.07715,0.16455,0.11621,0.26025,0.11621c0.0835,0,0.16699-0.02979,0.23389-0.08984L21.21326,15.75952z" style="fill:none;"/><polygon points="32.94714,12.6828 32.94714,12.74121 33.01086,12.70813   " style="fill:none;"/><path d="M32.24695,12.40454h0.7002v-1.34131c0-1.35938-1.10645-2.46582-2.46582-2.46582H17.45496    c-1.35938,0-2.46582,1.10645-2.46582,2.46582v1.34131h0.7002H32.24695z M26.85101,10.49243    c0.20178,0,0.3653,0.14716,0.3653,0.32867c0,0.18158-0.16351,0.32874-0.3653,0.32874s-0.36536-0.14716-0.36536-0.32874    C26.48566,10.63959,26.64923,10.49243,26.85101,10.49243z M20.72009,10.47095h3.72314c0.19336,0,0.3501,0.15674,0.3501,0.3501    s-0.15674,0.3501-0.3501,0.3501h-3.72314c-0.19336,0-0.3501-0.15674-0.3501-0.3501S20.52673,10.47095,20.72009,10.47095z" style="fill:#303030;"/><path d="M15.68933,36.52466h-0.7002v0.41211c0,1.35938,1.10645,2.46582,2.46582,2.46582h13.02637    c1.35938,0,2.46582-1.10645,2.46582-2.46582v-0.41211h-0.7002H15.68933z M23.96814,38.21356    c-0.35638,0-0.64532-0.28894-0.64532-0.64532c0-0.35645,0.28894-0.64539,0.64532-0.64539    c0.35645,0,0.64539,0.28894,0.64539,0.64539C24.61353,37.92462,24.32458,38.21356,23.96814,38.21356z" style="fill:#303030;"/><path d="M15.68933,13.10474h-0.7002v22.71973h0.7002h16.55762h0.7002V13.10474h-0.7002H15.68933z     M17.57898,17.14038c-0.0957,0-0.19092-0.03906-0.26025-0.11621c-0.12939-0.14355-0.11768-0.36475,0.02637-0.49414    l2.87012-2.58203c0.14355-0.12939,0.36426-0.11816,0.49414,0.02637c0.12939,0.14355,0.11768,0.36475-0.02637,0.49414    l-2.87012,2.58203C17.74597,17.1106,17.66248,17.14038,17.57898,17.14038z M18.93054,17.34253    c-0.12939-0.14355-0.11768-0.36475,0.02637-0.49414l1.78857-1.60938c0.14355-0.12891,0.36426-0.11768,0.49414,0.02637    c0.12939,0.14355,0.11768,0.36475-0.02637,0.49414l-1.78857,1.60938c-0.06689,0.06006-0.15039,0.08984-0.23389,0.08984    C19.09509,17.45874,18.99988,17.41968,18.93054,17.34253z M28.65173,26.51245c0,1.45312-1.18213,2.63477-2.63525,2.63477h-4.09717    c-1.45312,0-2.63525-1.18164-2.63525-2.63477v-4.09668c0-1.45312,1.18213-2.63477,2.63525-2.63477h4.09717    c1.45312,0,2.63525,1.18164,2.63525,2.63477V26.51245z" style="fill:#303030;"/><path d="M26.01648,20.48022h-4.09717c-1.06689,0-1.93506,0.86816-1.93506,1.93555v4.09668    c0,1.06738,0.86816,1.93555,1.93506,1.93555h4.09717c1.06689,0,1.93506-0.86816,1.93506-1.93555v-4.09668    C27.95154,21.34839,27.08337,20.48022,26.01648,20.48022z M23.96814,26.87378c-1.3291,0-2.41016-1.08008-2.41016-2.40918    s1.08105-2.41016,2.41016-2.41016s2.41016,1.08105,2.41016,2.41016S25.29724,26.87378,23.96814,26.87378z M26.68939,22.12781    c-0.16351,0-0.29602-0.13251-0.29602-0.29602s0.13251-0.29608,0.29602-0.29608s0.29602,0.13257,0.29602,0.29608    S26.85291,22.12781,26.68939,22.12781z" style="fill:#303030;"/></g></g></svg>