<?xml version="1.0" ?><svg style="enable-background:new 0 0 48 48;" version="1.1" viewBox="0 0 48 48" xml:space="preserve" xmlns="http://www.w3.org/2000/svg" xmlns:xlink="http://www.w3.org/1999/xlink"><g id="Padding__x26__Artboard"/><g id="Icons"><g><path d="M27.6402,18.0498h-6.39551c-1.77393,0-3.2168,1.44287-3.2168,3.2168v6.39502    c0,1.77441,1.44287,3.21777,3.2168,3.21777h6.39551c1.77393,0,3.2168-1.44336,3.2168-3.21777V21.2666    C30.85699,19.49268,29.41412,18.0498,27.6402,18.0498z M24.44244,28.02979c-1.96582,0-3.56543-1.59912-3.56543-3.56543    c0-1.96582,1.59961-3.56543,3.56543-3.56543s3.56543,1.59961,3.56543,3.56543    C28.00787,26.43066,26.40826,28.02979,24.44244,28.02979z M28.69031,20.81738c-0.25525,0-0.46216-0.20691-0.46216-0.4621    c0-0.25525,0.20691-0.4621,0.46216-0.4621c0.25519,0,0.4621,0.20685,0.4621,0.4621    C29.1524,20.61047,28.94549,20.81738,28.69031,20.81738z" style="fill:#303030;"/><path d="M24.44244,8.77051c-8.65332,0-15.69385,7.04053-15.69385,15.69385    s7.04053,15.69336,15.69385,15.69336s15.69385-7.04004,15.69385-15.69336S33.09576,8.77051,24.44244,8.77051z M31.55719,27.66162    c0,2.16016-1.75732,3.91699-3.91699,3.91699h-6.39551c-2.15967,0-3.91699-1.75684-3.91699-3.91699V21.2666    c0-2.15967,1.75732-3.91699,3.91699-3.91699h6.39551c2.15967,0,3.91699,1.75732,3.91699,3.91699V27.66162z M24.06598,11.7417    c0.00977,0.19336-0.13916,0.35742-0.33203,0.36719c-0.51758,0.02588-1.0459,0.08594-1.56982,0.1792    c-0.02051,0.00342-0.04102,0.00537-0.06152,0.00537c-0.1665,0-0.31396-0.11914-0.34424-0.28906    c-0.03369-0.19043,0.09326-0.37207,0.28369-0.40576c0.55273-0.09814,1.10986-0.16162,1.65674-0.18896    C23.89068,11.40186,24.0567,11.54883,24.06598,11.7417z M15.44977,14.86719c1.16504-1.00342,3.01953-2.33057,5.23877-2.95703    c0.18848-0.04932,0.37988,0.05615,0.43213,0.2417c0.05225,0.18604-0.05566,0.37939-0.2417,0.43213    c-2.09619,0.59131-3.86084,1.85645-4.97217,2.81348c-0.06641,0.05713-0.14746,0.08496-0.22852,0.08496    c-0.09814,0-0.1958-0.0415-0.26514-0.12158C15.28717,15.21436,15.30328,14.99316,15.44977,14.86719z" style="fill:#303030;"/></g></g></svg>