<?xml version="1.0" ?><svg style="enable-background:new 0 0 48 48;" version="1.1" viewBox="0 0 48 48" xml:space="preserve" xmlns="http://www.w3.org/2000/svg" xmlns:xlink="http://www.w3.org/1999/xlink"><g id="Padding__x26__Artboard"/><g id="Icons"><g><g><path d="M22.45077,35.99244c0.06548-0.31005,0.12929-0.35105,0.4203-0.30219     c0.04566,0.00767,0.09163,0.01554,0.13605,0.02824c0.27758,0.07931,0.30915,0.12296,0.30471,0.40939     c-0.0111,0.71594-0.02979,1.43192-0.02788,2.14783c0.00058,0.21846,0.04992,0.43843,0.09293,0.65453     c0.0248,0.12461,0.09788,0.23106,0.23717,0.25784c0.14879,0.0286,0.26337-0.03991,0.34696-0.15502     c0.13929-0.19181,0.22527-0.39867,0.19649-0.64729c-0.07258-0.62694-0.02477-1.24495,0.18046-1.84471     c0.09585-0.2801,0.2387-0.53293,0.4565-0.74292c0.38228-0.36858,1.10512-0.3665,1.42702,0.121     c0.01262,0.01912,0.0348,0.03192,0.04378,0.0399c0.04356-0.08861,0.06482-0.21487,0.12843-0.24208     c0.09936-0.04249,0.2275-0.02201,0.34329-0.01978c0.05012,0.00097,0.10103,0.01942,0.14952,0.03598     c0.23308,0.07956,0.25602,0.11126,0.25256,0.3538c-0.0113,0.79335-0.02355,1.58669-0.03528,2.38003     c-0.00074,0.04986-0.0001,0.09974-0.0001,0.16828c0.03511-0.01802,0.05738-0.02203,0.0664-0.03515     c0.39635-0.5767,0.7169-1.18927,0.89335-1.87161c0.02483-0.096,0.01568-0.15589-0.06189-0.22792     c-0.18492-0.1717-0.21537-0.47333-0.09266-0.73242c0.10609-0.224,0.33541-0.34622,0.59951-0.31952     c0.20949,0.02118,0.31393,0.12891,0.32474,0.34095c0.00443,0.08689,0.00073,0.1742,0.00073,0.29074     c0.097-0.01415,0.20022-0.02703,0.30263-0.04462c0.18224-0.03129,0.3635-0.06842,0.54603-0.09775     c0.41307-0.06636,0.62171,0.14837,0.54206,0.56049c-0.06344,0.32823-0.14105,0.65384-0.19921,0.98294     c-0.07044,0.39859-0.08322,0.80011,0.01414,1.1967c0.02901,0.11816,0.07425,0.23759,0.13727,0.34108     c0.13708,0.22514,0.38408,0.24576,0.55495,0.04586c0.15534-0.18173,0.22528-0.38606,0.18421-0.63997     c-0.1292-0.79868-0.05702-1.57467,0.36526-2.28418c0.2126-0.35721,0.51584-0.59754,0.96262-0.59824     c0.28836-0.00045,0.51759,0.11359,0.70337,0.32752c0.02897,0.03335,0.05991,0.06499,0.09668,0.10469     c0.0352-0.27075,0.11679-0.33055,0.37861-0.2911c0.03564,0.00537,0.07109,0.01225,0.10641,0.01949     c0.34156,0.07002,0.37656,0.13182,0.37119,0.47758c-0.01214,0.78251-0.01499,1.56527-0.01022,2.34785     c0.00089,0.14591,0.03802,0.29765,0.08814,0.43593c0.09989,0.27556,0.35538,0.31536,0.53674,0.08316     c0.22043-0.28224,0.3554-0.60825,0.36378-0.96709c0.01743-0.74681,0.01645-1.49405,0.02309-2.24111     c0.00198-0.22289,0.03622-0.25084,0.2595-0.20883c0.10618,0.01998,0.21241,0.04016,0.31776,0.06404     c0.19431,0.04405,0.222,0.08035,0.22163,0.28645c-0.00072,0.39673-0.00257,0.79346-0.00355,1.19019     c-0.00006,0.02412,0.00349,0.04825,0.03726,0.08312c0.02065-0.05209,0.04241-0.10377,0.06179-0.15633     c0.14777-0.4006,0.28335-0.80621,0.44635-1.2005c0.1235-0.29876,0.23353-0.33602,0.54747-0.25121     c0.05943,0.01605,0.11735,0.03909,0.17415,0.06319c0.21081,0.08944,0.3133,0.242,0.3208,0.47879     c0.01693,0.53502,0.05061,1.06951,0.0788,1.60415c0.00169,0.03196,0.01495,0.0633,0.05632,0.09661     c0.01644-0.08672,0.02504-0.17581,0.05057-0.25976c0.17638-0.57996,0.34698-1.16195,0.53905-1.73674     c0.09266-0.27731,0.21909-0.3232,0.50546-0.24802c0.04972,0.01305,0.09871,0.02949,0.14702,0.04717     c0.42149,0.15426,0.47484,0.24734,0.46675,0.69427c-0.01154,0.63825-0.02165,1.27712-0.0046,1.91498     c0.00575,0.21513,0.0852,0.43147,0.15185,0.6406c0.03986,0.12506,0.13358,0.23018,0.28151,0.23019     c0.14941,0.00002,0.23384-0.11258,0.28048-0.23344c0.07003-0.18151,0.11544-0.37247,0.17297-0.55891     c0.015-0.04861,0.02586-0.10439,0.05753-0.14012c0.02537-0.02861,0.08395-0.04996,0.11932-0.04102     c0.03257,0.00822,0.07481,0.05987,0.07688,0.09453c0.02155,0.36231-0.03889,0.7108-0.22693,1.02489     c-0.23008,0.38435-0.76363,0.47875-1.12166,0.20721c-0.3479-0.26385-0.48259-0.64441-0.5106-1.05204     c-0.04089-0.59499-0.03922-1.19291-0.05587-1.78957c-0.00093-0.03335-0.00343-0.06666-0.00747-0.14286     c-0.04173,0.05787-0.06423,0.08043-0.07669,0.1076c-0.36016,0.78553-0.5784,1.60589-0.58956,2.47376     c-0.00183,0.14194-0.0602,0.20343-0.18838,0.23457c-0.28868,0.07013-0.57575-0.06792-0.6574-0.36617     c-0.07824-0.28576-0.12572-0.58308-0.15463-0.87846c-0.04362-0.44566-0.059-0.89408-0.0875-1.34125     c-0.0031-0.04863-0.01353-0.09679-0.02056-0.14517c-0.01333-0.00518-0.02666-0.01035-0.03999-0.01553     c-0.03722,0.04788-0.08318,0.09128-0.11032,0.14432c-0.31358,0.61293-0.49564,1.263-0.53616,1.95084     c-0.01423,0.24157-0.01738,0.48377-0.02716,0.72562c-0.00699,0.17294-0.05635,0.24178-0.23125,0.24242     c-0.18262,0.00067-0.36648-0.03001-0.54766-0.05991c-0.11654-0.01923-0.17197-0.09995-0.16381-0.22382     c0.00615-0.0933,0.00122-0.18734-0.02454-0.29319c-0.19076,0.38861-0.45063,0.64766-0.90753,0.58314     c-0.43457-0.06137-0.6555-0.35025-0.76783-0.79067c-0.25295,0.41467-0.5507,0.72886-1.02889,0.7906     c-0.49075,0.06336-0.84792-0.13865-1.08702-0.59339c-0.05221,0.08344-0.08787,0.14328-0.12625,0.20133     c-0.31572,0.4775-0.91783,0.54185-1.33339,0.14803c-0.24685-0.23394-0.37543-0.52369-0.4299-0.85233     c-0.10053-0.60651-0.01243-1.20136,0.11455-1.79329c0.04735-0.22073,0.0379-0.21016-0.17931-0.23281     c-0.3333-0.03475-0.49984,0.07953-0.61878,0.41096c-0.29617,0.82524-0.76244,1.56069-1.32426,2.23518     c-0.05032,0.06041-0.08378,0.15401-0.08516,0.23289c-0.00828,0.47324,0.01412,0.94774-0.0124,1.41965     c-0.01629,0.28999-0.07843,0.58285-0.16048,0.86253c-0.16642,0.56723-0.67779,0.9442-1.23658,0.94556     c-0.87511,0.00214-1.35461-0.80005-0.916-1.55667c0.13497-0.23281,0.31448-0.44662,0.50374-0.63958     c0.29543-0.30121,0.60568-0.59042,0.93098-0.85885c0.18875-0.15575,0.13278-0.32457,0.12697-0.53211     c-0.64418,0.86324-1.58634,0.81613-2.02531-0.02737c-0.21124,0.35234-0.4394,0.68453-0.91519,0.63138     c-0.45012-0.05028-0.67831-0.34503-0.7835-0.80066c-0.30283,0.50771-0.67942,0.84457-1.27699,0.80503     c-0.63692-0.04214-0.84704-0.52031-1.03796-1.06873c-0.03507,0.08329-0.05383,0.13181-0.07562,0.17892     c-0.13106,0.28341-0.29232,0.54493-0.5459,0.7374c-0.32456,0.24633-0.73774,0.21104-1.01467-0.08934     c-0.28037-0.30411-0.35947-0.68611-0.40837-1.0787c-0.00379-0.03045-0.00492-0.06128-0.00994-0.09149     c-0.00138-0.00834-0.01233-0.01509-0.03443-0.04029c-0.02112,0.03758-0.04053,0.0673-0.05531,0.09917     c-0.19112,0.41201-0.43149,0.78924-0.8111,1.0523c-0.59148,0.40988-1.23195,0.4193-1.88822,0.18996     c-0.13166-0.04601-0.29072-0.11924-0.2901-0.28721c0.00076-0.20696,0.11809-0.37633,0.29487-0.47832     c0.05923-0.03417,0.17117-0.00909,0.24499,0.0221c0.09781,0.04133,0.18015,0.118,0.27212,0.17464     c0.33717,0.2077,0.65394,0.06153,0.72118-0.33121c0.0393-0.22955-0.03128-0.43883-0.17199-0.60659     c-0.21336-0.25436-0.45409-0.48576-0.7029-0.74765c-0.0564,0.08494-0.09068,0.13326-0.1216,0.18365     c-0.30155,0.49149-0.58798,0.99315-0.91024,1.47065c-0.14688,0.21763-0.35424,0.39908-0.55404,0.57428     c-0.09119,0.07996-0.22632,0.12424-0.34887,0.15091c-0.22979,0.05001-0.45399-0.05493-0.52359-0.28027     c-0.08244-0.2669-0.1542-0.55024-0.1549-0.82666c-0.00179-0.70499,0.0392-1.41006,0.0605-2.11518     c0.00157-0.05206-0.01739-0.10474-0.0268-0.15714c-0.0483,0.03089-0.10803,0.0522-0.14316,0.09412     c-0.44534,0.5314-0.71538,1.15361-0.89883,1.81273c-0.11835,0.42522-0.19404,0.86217-0.29817,1.2916     c-0.01556,0.06416-0.07076,0.14745-0.12734,0.16824c-0.37285,0.13706-0.65488-0.04142-0.69989-0.43357     c-0.01289-0.1123-0.01939-0.22605-0.01867-0.33907c0.00651-1.02531,0.01504-2.05061,0.02359-3.0759     c0.00158-0.18922,0.02649-0.21185,0.219-0.20117c0.0511,0.00283,0.10269,0.00931,0.15248,0.02089     c0.38655,0.08987,0.40466,0.11039,0.40001,0.50111c-0.00583,0.48938-0.01608,0.9787-0.02366,1.46806     c-0.00044,0.02822,0.00594,0.05654,0.04291,0.09326c0.01759-0.04828,0.03649-0.09613,0.05257-0.14491     c0.15984-0.48487,0.32308-0.97069,0.61663-1.39323c0.11771-0.16944,0.27205-0.32504,0.43959-0.44532     c0.21084-0.15137,0.45504-0.14811,0.68728-0.01854c0.08087,0.04512,0.15798,0.09697,0.23701,0.14541     c0.15031,0.09212,0.21646,0.22647,0.20917,0.40194c-0.02138,0.51463-0.04736,1.0292-0.05815,1.54407     c-0.00581,0.27744,0.01481,0.55548,0.02598,0.83316c0.00183,0.04552,0.01138,0.09228,0.02614,0.13546     c0.05202,0.15216,0.13558,0.18393,0.24938,0.07409c0.11371-0.10976,0.22131-0.23323,0.30216-0.36831     c0.26703-0.44612,0.5231-0.8989,0.77577-1.35335c0.02393-0.04304,0.01525-0.12983-0.01357-0.17249     c-0.21078-0.31211-0.21706-0.66126-0.0063-0.98336c0.20428-0.31219,0.57832-0.47485,0.91901-0.39966     c0.1783,0.03935,0.24875,0.1299,0.25498,0.31353c0.00939,0.27654-0.13755,0.48968-0.27989,0.70467     c-0.04784,0.07226-0.10312,0.13958-0.16646,0.22451c0.20068,0.15188,0.3981,0.29747,0.59117,0.44862     c0.15386,0.12045,0.31389,0.23627,0.45084,0.37434c0.25577,0.25786,0.38833,0.56696,0.32149,0.93985     c-0.00251,0.01403,0.00175,0.02951,0.00435,0.04405c0.00068,0.0038,0.00694,0.0066,0.02923,0.02623     c0.06509-0.07301,0.13361-0.14487,0.19657-0.22132c0.31438-0.38178,0.50177-0.80476,0.48401-1.31541     c-0.01772-0.50946-0.00587-1.02011,0.00076-1.53013c0.00158-0.12197-0.03734-0.16135-0.15818-0.16018     c-0.22652,0.00221-0.45327-0.01749-0.67977-0.01475c-0.1469,0.00178-0.19446-0.06493-0.18144-0.19806     c0.00401-0.04099,0.00673-0.08233,0.01442-0.12268c0.0496-0.26015,0.09169-0.29405,0.35377-0.28851     c0.18543,0.00392,0.37155-0.00042,0.55605,0.01486c0.12179,0.01009,0.15082-0.03898,0.15293-0.14681     c0.00574-0.29352,0.01412-0.58712,0.02949-0.88027c0.01251-0.23859,0.0781-0.29477,0.31345-0.24967     c0.17087,0.03275,0.34039,0.08426,0.50143,0.14973c0.05121,0.02082,0.10349,0.11347,0.10346,0.17323     c-0.00014,0.28309-0.01281,0.56656-0.03255,0.84908c-0.00784,0.11218,0.03187,0.14487,0.13585,0.14914     c0.30878,0.0127,0.61725,0.03261,0.92589,0.04866c0.11224,0.00584,0.20498,0.02528,0.20037,0.17245     c-0.00619,0.19774-0.09413,0.34681-0.2248,0.35056c-0.30385,0.00872-0.60784,0.01677-0.91177,0.01675     c-0.11395,0-0.14797,0.04103-0.15122,0.15363c-0.02202,0.76196-0.06102,1.52357-0.07216,2.28563     c-0.00402,0.27502,0.04797,0.5517,0.08624,0.82598c0.01166,0.08357,0.05423,0.16664,0.09767,0.24118     c0.09321,0.15991,0.20982,0.18727,0.36005,0.07692c0.08562-0.0629,0.16432-0.14268,0.22622-0.22912     c0.23559-0.32899,0.38199-0.68996,0.388-1.10326c0.0078-0.53662,0.09537-1.0559,0.37314-1.5281     c0.29052-0.49387,0.77945-0.73471,1.2714-0.58667c0.16264,0.04894,0.29974,0.1857,0.44495,0.2874     C22.39065,35.89557,22.41099,35.94027,22.45077,35.99244z M33.1063,37.45406c-0.01118-0.00226-0.02237-0.00451-0.03355-0.00677     c-0.00684-0.14402,0.00372-0.29159-0.02471-0.43121c-0.03963-0.19466-0.08009-0.39821-0.1708-0.57145     c-0.1731-0.33059-0.55422-0.36147-0.79118-0.07233c-0.0955,0.11653-0.16833,0.26081-0.21796,0.40407     c-0.16663,0.48103-0.19165,0.98188-0.12551,1.48047c0.0324,0.24426,0.10701,0.49476,0.21894,0.71357     c0.13454,0.26302,0.39982,0.29718,0.6019,0.08009c0.14957-0.16068,0.28371-0.36344,0.34624-0.57108     C33.00949,38.14795,33.04411,37.79685,33.1063,37.45406z M22.46414,37.363c-0.00351-0.06985,0.00672-0.20718-0.02087-0.33644     c-0.04253-0.19925-0.08149-0.4085-0.17482-0.58566c-0.1714-0.32533-0.53892-0.35276-0.78224-0.07704     c-0.06679,0.07569-0.12111,0.16749-0.16165,0.26041c-0.22502,0.51569-0.25221,1.06119-0.18991,1.60738     c0.02846,0.24948,0.10419,0.50624,0.21703,0.7302c0.13915,0.27618,0.40829,0.30135,0.62499,0.07767     c0.11877-0.12259,0.2152-0.27722,0.2863-0.43351C22.43248,38.23333,22.45828,37.83068,22.46414,37.363z M24.95901,37.94606     c0.00339,0.06866,0.00275,0.18755,0.01633,0.30478c0.03159,0.27264,0.08451,0.54014,0.25994,0.76382     c0.16653,0.21234,0.40025,0.24471,0.58367,0.04926c0.12636-0.13465,0.23614-0.30231,0.29997-0.47494     c0.19416-0.52505,0.22624-1.07458,0.16359-1.62719c-0.01939-0.17102-0.06141-0.34762-0.1336-0.5028     c-0.1491-0.32049-0.50737-0.375-0.74899-0.11663c-0.09916,0.10603-0.17581,0.2419-0.23288,0.37681     C25.00847,37.09401,24.96834,37.49319,24.95901,37.94606z M26.39992,40.0787c-0.04229,0.01754-0.06009,0.01941-0.06867,0.02928     c-0.27589,0.31764-0.5735,0.61987-0.81734,0.96056c-0.14109,0.19714-0.21994,0.45011-0.28151,0.68959     c-0.05742,0.22331,0.06897,0.41855,0.26181,0.50502c0.18196,0.08159,0.40225,0.0385,0.54521-0.13081     c0.08108-0.09601,0.1493-0.21135,0.19271-0.32925C26.43546,41.25085,26.40166,40.67469,26.39992,40.0787z" style="fill:#303030;"/><path d="M10.25343,36.41276c0,0.81357,0.0149,1.62751-0.00544,2.44057     c-0.01274,0.50904-0.14697,0.99217-0.542,1.35392c-0.10295,0.09428-0.23398,0.1678-0.36453,0.21947     c-0.15675,0.06205-0.21019,0.0021-0.17098-0.16538c0.05849-0.24986,0.12582-0.49782,0.17737-0.74905     c0.02355-0.11479,0.02444-0.23542,0.02536-0.35348c0.01276-1.62756,0.02373-3.25513,0.03514-4.88269     c0.00014-0.0206,0.00462-0.04241-0.00059-0.06158c-0.01393-0.05127-0.03204-0.1014-0.04849-0.15198     c-0.04312,0.02367-0.09331,0.03975-0.12823,0.07224c-0.27054,0.25176-0.43912,0.56895-0.56293,0.91084     c-0.15652,0.43224-0.23777,0.87892-0.13692,1.33331c0.04458,0.20087,0.15877,0.38577,0.23464,0.58053     c0.02399,0.06159,0.0262,0.13167,0.03837,0.19786c-0.06675,0.00852-0.13903,0.0381-0.19938,0.02226     c-0.53959-0.14164-0.94423-0.77002-0.86334-1.35935c0.13372-0.97433,0.66282-1.69067,1.48886-2.19536     c0.30917-0.18889,0.67715-0.14899,0.94821,0.09014c0.06159,0.05433,0.09741,0.16898,0.09819,0.25629     c0.00728,0.81376,0.00431,1.6276,0.00431,2.44142C10.27185,36.41273,10.26264,36.41275,10.25343,36.41276z" style="fill:#303030;"/></g><g><path d="M28.89623,5.33637h-11.1388c-3.59397,0-6.51767,2.92413-6.51767,6.5181v11.1388     c0,3.5944,2.9237,6.51767,6.51767,6.51767h11.1388c3.5944,0,6.51853-2.92327,6.51853-6.51767v-11.1388     C35.41476,8.2605,32.49063,5.33637,28.89623,5.33637z M23.32726,23.32926c-3.25628,0-5.90582-2.64911-5.90582-5.90539     c0-3.2567,2.64954-5.90624,5.90582-5.90624s5.90582,2.64954,5.90582,5.90624     C29.23308,20.68015,26.58354,23.32926,23.32726,23.32926z M13.24035,20.23159v-1.18278     c0-0.16885,0.13687-0.30572,0.30572-0.30572s0.30572,0.13687,0.30572,0.30572v1.18278c0,0.16885-0.13687,0.30572-0.30572,0.30572     S13.24035,20.40044,13.24035,20.23159z M13.85178,13.48368v3.94019c0,0.16885-0.13687,0.30572-0.30572,0.30572     s-0.30572-0.13687-0.30572-0.30572v-3.94019c0-0.16885,0.13687-0.30572,0.30572-0.30572S13.85178,13.31483,13.85178,13.48368z      M30.72547,11.0719c-0.44445,0-0.8048-0.36029-0.8048-0.8048s0.36035-0.80485,0.8048-0.80485     c0.4445,0,0.80485,0.36035,0.80485,0.80485S31.16997,11.0719,30.72547,11.0719z" style="fill:#303030;"/></g></g></g></svg>