<?xml version="1.0" ?><svg style="enable-background:new 0 0 48 48;" version="1.1" viewBox="0 0 48 48" xml:space="preserve" xmlns="http://www.w3.org/2000/svg" xmlns:xlink="http://www.w3.org/1999/xlink"><g id="Padding__x26__Artboard"/><g id="Icons"><g><path d="M30.1311,12.55273H17.8689c-2.93164,0-5.31689,2.38477-5.31689,5.31641v12.26172    c0,2.93164,2.38525,5.31641,5.31689,5.31641H30.1311c2.93164,0,5.31689-2.38477,5.31689-5.31641V17.86914    C35.448,14.9375,33.06274,12.55273,30.1311,12.55273z M27.85278,24.34961h-3.50244v3.50293    c0,0.19336-0.15674,0.34961-0.3501,0.34961s-0.3501-0.15625-0.3501-0.34961v-3.50293h-3.50293    c-0.19336,0-0.3501-0.15625-0.3501-0.34961s0.15674-0.34961,0.3501-0.34961h3.50293v-3.50293    c0-0.19336,0.15674-0.34961,0.3501-0.34961s0.3501,0.15625,0.3501,0.34961v3.50293h3.50244    c0.19336,0,0.3501,0.15625,0.3501,0.34961S28.04614,24.34961,27.85278,24.34961z" style="fill:#303030;"/></g></g></svg>