<?xml version="1.0" ?><svg style="enable-background:new 0 0 48 48;" version="1.1" viewBox="0 0 48 48" xml:space="preserve" xmlns="http://www.w3.org/2000/svg" xmlns:xlink="http://www.w3.org/1999/xlink"><g id="Padding__x26__Artboard"/><g id="Icons"><g><path d="M20.93359,18.20264l-0.33008,0.33398c-0.06592,0.06641-0.15137,0.08887-0.24902,0.10352    c-0.09277,0-0.18213-0.03613-0.24756-0.10254l-0.33545-0.33594c-1.16113-1.16016-3.05078-1.16016-4.21191,0    c-0.56055,0.55859-0.86914,1.30664-0.86914,2.1084s0.30811,1.55078,0.86816,2.10742l0.33301,0.33301l4.46289,4.46191    l4.45947-4.46191c0.00098-0.00098,0.00195-0.00195,0.00293-0.00293l0.33398-0.33105    c0.55713-0.55664,0.86426-1.30566,0.86426-2.10645c0-0.7998-0.30762-1.54883-0.86572-2.1084    C23.98926,17.0415,22.09766,17.04248,20.93359,18.20264z M18.61475,23.85791c-0.06836,0.06934-0.1582,0.10352-0.24854,0.10352    c-0.08887,0-0.17822-0.0332-0.24609-0.10059l-1.64404-1.62793c-0.1377-0.13672-0.13867-0.3584-0.00244-0.49512    c0.13525-0.1377,0.35742-0.13867,0.49463-0.00293l1.64404,1.62793C18.75,23.49951,18.75098,23.72119,18.61475,23.85791z     M19.58496,24.80322c-0.06885,0.07227-0.16113,0.1084-0.25391,0.1084c-0.08643,0-0.17334-0.03125-0.24121-0.0957l-0.20264-0.19238    c-0.14014-0.13281-0.14551-0.35449-0.0127-0.49512c0.1333-0.13965,0.35449-0.14551,0.49512-0.0127l0.20264,0.19238    C19.7124,24.44092,19.71777,24.6626,19.58496,24.80322z" style="fill:#303030;"/><path d="M39.28027,10.7124H8.72021c-0.83252,0-1.51025,0.67676-1.51025,1.50977V31.2915    c0,0.83301,0.67773,1.50977,1.51025,1.50977h11.65234l3.07959,4.25391c0.1123,0.14648,0.30957,0.23242,0.53271,0.23242    c0.00977,0,0.01953,0,0.0293,0c0.23486-0.00781,0.43994-0.11035,0.53809-0.25879l3.10449-4.22754h11.62354    c0.83252,0,1.50977-0.67676,1.50977-1.50977V12.22217C40.79004,11.38916,40.11279,10.7124,39.28027,10.7124z M33.66418,26.0517    h-1.01953v-6.81201h-0.02393l-1.35547,0.73145l-0.20361-0.80371l1.70264-0.91162h0.8999V26.0517z M25.64453,22.9126    l-4.87158,4.87109c-0.11133,0.1123-0.25977,0.17383-0.41846,0.17383s-0.30713-0.06152-0.41895-0.17383l-4.87109-4.87109    c-0.69238-0.6875-1.07422-1.6123-1.07422-2.60254c0-0.98926,0.38184-1.91406,1.07471-2.60352    c1.43359-1.43359,3.76709-1.43457,5.20166,0.00098l0.08643,0.08594l0.08446-0.08496    c1.43897-1.43359,3.77296-1.43555,5.20704-0.00098c0.69043,0.69141,1.0708,1.61523,1.0708,2.60254    C26.71533,21.29834,26.33496,22.22217,25.64453,22.9126z" style="fill:#303030;"/></g></g></svg>