<?xml version="1.0" ?><svg style="enable-background:new 0 0 48 48;" version="1.1" viewBox="0 0 48 48" xml:space="preserve" xmlns="http://www.w3.org/2000/svg" xmlns:xlink="http://www.w3.org/1999/xlink"><g id="Padding__x26__Artboard"/><g id="Icons"><g><path d="M24,8.30664C15.34668,8.30664,8.30615,15.34668,8.30615,24S15.34668,39.69336,24,39.69336    S39.69385,32.65332,39.69385,24S32.65332,8.30664,24,8.30664z M31.12793,17.35254l-5.125,8.53027    c-0.0293,0.04883-0.07031,0.08984-0.11963,0.11914l-8.53076,5.125c-0.05566,0.03418-0.11816,0.0498-0.18018,0.0498    c-0.09033,0-0.18018-0.03418-0.24756-0.10254c-0.11377-0.11328-0.13525-0.29004-0.05225-0.42773l5.12793-8.52734    C22.02979,22.07031,22.0708,22.0293,22.12012,22l8.52783-5.12793c0.13672-0.08398,0.31348-0.0625,0.42773,0.05273    C31.18945,17.03809,31.21094,17.21484,31.12793,17.35254z M23.64355,11.30176c0.00928,0.19336-0.13916,0.35742-0.33252,0.36719    c-0.51221,0.02539-1.04053,0.08496-1.56934,0.17871c-0.021,0.00391-0.04102,0.00488-0.06152,0.00488    c-0.1665,0-0.31445-0.11914-0.34424-0.28906c-0.03369-0.19043,0.09375-0.37207,0.28369-0.40527    c0.55811-0.09863,1.11572-0.16211,1.65723-0.18848C23.4707,10.96973,23.63379,11.10938,23.64355,11.30176z M15.02734,14.42676    c1.16504-1.00293,3.01953-2.33105,5.23877-2.95703c0.18945-0.0498,0.38037,0.05664,0.43213,0.24219    c0.05225,0.18555-0.05566,0.37891-0.2417,0.43164C18.36035,12.73438,16.5957,14,15.48438,14.95801    c-0.06641,0.05664-0.14746,0.08398-0.22852,0.08398c-0.09814,0-0.1958-0.04102-0.26514-0.12109    C14.86475,14.77441,14.88086,14.55371,15.02734,14.42676z" style="fill:#303030;"/></g></g></svg>