<?xml version="1.0" ?><svg style="enable-background:new 0 0 48 48;" version="1.1" viewBox="0 0 48 48" xml:space="preserve" xmlns="http://www.w3.org/2000/svg" xmlns:xlink="http://www.w3.org/1999/xlink"><g id="Padding__x26__Artboard"/><g id="Icons"><g><path d="M27.198,17.58594h-6.39551c-1.77393,0-3.2168,1.44287-3.2168,3.2168v6.39551    c0,1.77393,1.44287,3.21729,3.2168,3.21729H27.198c1.77393,0,3.2168-1.44336,3.2168-3.21729v-6.39551    C30.41479,19.02881,28.97192,17.58594,27.198,17.58594z M24.00024,27.56592c-1.96582,0-3.56543-1.59961-3.56543-3.56543    c0-1.96631,1.59961-3.56592,3.56543-3.56592s3.56543,1.59961,3.56543,3.56592    C27.56567,25.96631,25.96606,27.56592,24.00024,27.56592z M28.24799,20.35333c-0.25519,0-0.4621-0.20691-0.4621-0.4621    c0-0.25525,0.20691-0.4621,0.4621-0.4621c0.25525,0,0.4621,0.20685,0.4621,0.4621    C28.71008,20.14642,28.50323,20.35333,28.24799,20.35333z" style="fill:#303030;"/><path d="M34.95239,10.17334H13.04761c-1.58496,0-2.87451,1.28955-2.87451,2.87451v21.90479    c0,1.58496,1.28955,2.87402,2.87451,2.87402h21.90479c1.58496,0,2.87451-1.28906,2.87451-2.87402V13.04785    C37.8269,11.46289,36.53735,10.17334,34.95239,10.17334z M12.90063,30.1665v-1.59375c0-0.19336,0.15674-0.3501,0.3501-0.3501    s0.3501,0.15674,0.3501,0.3501v1.59375c0,0.19336-0.15674,0.34961-0.3501,0.34961S12.90063,30.35986,12.90063,30.1665z     M13.25073,15.46045c0.19336,0,0.3501,0.15674,0.3501,0.3501v9.80469c0,0.19336-0.15674,0.3501-0.3501,0.3501    s-0.3501-0.15674-0.3501-0.3501v-9.80469C12.90063,15.61719,13.05737,15.46045,13.25073,15.46045z M31.11499,27.19824    c0,2.15967-1.75732,3.9165-3.91699,3.9165h-6.39551c-2.15967,0-3.91699-1.75684-3.91699-3.9165v-6.39551    c0-2.15967,1.75732-3.91699,3.91699-3.91699H27.198c2.15967,0,3.91699,1.75732,3.91699,3.91699V27.19824z" style="fill:#303030;"/></g></g></svg>