<?xml version="1.0" ?><svg style="enable-background:new 0 0 48 48;" version="1.1" viewBox="0 0 48 48" xml:space="preserve" xmlns="http://www.w3.org/2000/svg" xmlns:xlink="http://www.w3.org/1999/xlink"><g id="Padding__x26__Artboard"/><g id="Icons"><g><path d="M24,8.30664c-8.65332,0-15.69385,7.04053-15.69385,15.69385    c0,8.65283,7.04053,15.69287,15.69385,15.69287s15.69385-7.04004,15.69385-15.69287    C39.69385,15.34717,32.65332,8.30664,24,8.30664z M31.34717,31.9082H16.65283c-0.19336,0-0.3501-0.15625-0.3501-0.34961    c0-4.24463,3.45312-7.69775,7.69727-7.69775s7.69727,3.45312,7.69727,7.69775    C31.69727,31.75195,31.54053,31.9082,31.34717,31.9082z M23.99854,16.09229c2.13086,0,3.86475,1.73389,3.86475,3.86475    s-1.73389,3.86426-3.86475,3.86426s-3.86475-1.7334-3.86475-3.86426S21.86768,16.09229,23.99854,16.09229z M21.50439,11.56006    c-0.03369-0.19043,0.09326-0.37207,0.28369-0.40576c0.55273-0.09814,1.10986-0.16162,1.65674-0.18896    c0.19434-0.0127,0.35742,0.13916,0.36719,0.33203c0.00977,0.19336-0.13916,0.35742-0.33203,0.36719    c-0.51758,0.02588-1.0459,0.08594-1.56982,0.1792c-0.02051,0.00342-0.04102,0.00537-0.06152,0.00537    C21.68213,11.84912,21.53467,11.72998,21.50439,11.56006z M15.1958,14.42285c1.16504-1.00342,3.01953-2.33057,5.23877-2.95752    c0.1875-0.0498,0.38037,0.05566,0.43213,0.2417c0.05225,0.18604-0.05566,0.37939-0.2417,0.43213    c-2.09619,0.5918-3.86084,1.85693-4.97217,2.81396c-0.06641,0.05713-0.14746,0.08496-0.22852,0.08496    c-0.09814,0-0.1958-0.0415-0.26514-0.12158C15.0332,14.77002,15.04932,14.54883,15.1958,14.42285z" style="fill:#303030;"/></g></g></svg>