<?xml version="1.0" ?><svg style="enable-background:new 0 0 48 48;" version="1.1" viewBox="0 0 48 48" xml:space="preserve" xmlns="http://www.w3.org/2000/svg" xmlns:xlink="http://www.w3.org/1999/xlink"><g id="Padding__x26__Artboard"/><g id="Icons"><g><path d="M21.73633,19.66992c0-1.51172-1.22998-2.74219-2.74219-2.74219s-2.74268,1.23047-2.74268,2.74219    c0,1.5127,1.23047,2.74316,2.74268,2.74316S21.73633,21.18262,21.73633,19.66992z M18.56689,18.18652    c-0.0752,0.02734-0.77344,0.30176-0.93359,1.04492c-0.03564,0.16504-0.18066,0.27637-0.3418,0.27637    c-0.02441,0-0.04932-0.00195-0.07422-0.00781c-0.18896-0.04004-0.30908-0.22656-0.26855-0.41504    c0.24951-1.1582,1.34863-1.5918,1.5542-1.5918c0.19336,0,0.3501,0.15625,0.3501,0.34961    C18.85303,18.01465,18.72998,18.15723,18.56689,18.18652z" style="fill:#303030;"/><path d="M39.27979,10.71289H8.71973c-0.83252,0-1.50977,0.67676-1.50977,1.50879v19.07031    c0,0.83301,0.67725,1.50977,1.50977,1.50977h11.65283l3.0791,4.25195c0.11182,0.14746,0.31006,0.2334,0.53369,0.2334    c0.00879,0,0.01758,0,0.02686,0c0.23535-0.00781,0.44092-0.1084,0.54004-0.25781l3.10449-4.22754h11.62305    c0.83252,0,1.51025-0.67676,1.51025-1.50977V12.22168C40.79004,11.38965,40.1123,10.71289,39.27979,10.71289z M32.15674,26.0675    h-1.01953v-6.81201h-0.02393l-1.35547,0.73145l-0.20361-0.80371l1.70264-0.91162h0.8999V26.0675z M24.29834,27.24219    c-0.19336,0-0.3501-0.15625-0.3501-0.34961c0-1.46777-1.19385-2.66211-2.66113-2.66211h-4.58643    c-1.46729,0-2.66064,1.19434-2.66064,2.66211c0,0.19336-0.15674,0.34961-0.3501,0.34961s-0.3501-0.15625-0.3501-0.34961    c0-1.85352,1.50781-3.36133,3.36084-3.36133h4.58643c1.85352,0,3.36133,1.50781,3.36133,3.36133    C24.64844,27.08594,24.4917,27.24219,24.29834,27.24219z M15.55127,19.66992c0-1.89746,1.54443-3.44141,3.44287-3.44141    c1.89795,0,3.44238,1.54395,3.44238,3.44141c0,1.89844-1.54443,3.44238-3.44238,3.44238    C17.0957,23.1123,15.55127,21.56836,15.55127,19.66992z" style="fill:#303030;"/></g></g></svg>