<?xml version="1.0" ?><svg style="enable-background:new 0 0 48 48;" version="1.1" viewBox="0 0 48 48" xml:space="preserve" xmlns="http://www.w3.org/2000/svg" xmlns:xlink="http://www.w3.org/1999/xlink"><g id="Padding__x26__Artboard"/><g id="Icons"><g><path d="M19.86523,20.1377c-2.12842,0-3.86035,1.73242-3.86035,3.86035    c0,2.12891,1.73193,3.86133,3.86035,3.86133s3.86035-1.73242,3.86035-3.86133    C23.72559,21.87012,21.99365,20.1377,19.86523,20.1377z M19.86523,26.75c-1.51758,0-2.75244-1.23438-2.75244-2.75195    s1.23486-2.75195,2.75244-2.75195s2.75244,1.23438,2.75244,2.75195S21.38281,26.75,19.86523,26.75z" style="fill:#303030;"/><path d="M28.44678,15.3125H11.28223c-1.36211,0-2.47656,1.11445-2.47656,2.47656v12.43311    c0,1.36156,1.10377,2.46533,2.46533,2.46533h17.17578h0c0.98187,0,1.77783-0.79596,1.77783-1.77783v-0.69971V26.0752v-0.11719    V25.9541c0-0.00098,0-0.00165,0-0.00293v-3.88086v-4.97998C30.22461,16.10846,29.42865,15.3125,28.44678,15.3125L28.44678,15.3125    z M21.07568,17.76465h-5.77197c-0.19336,0-0.3501-0.15625-0.3501-0.34961s0.15674-0.34961,0.3501-0.34961h5.77197    c0.19336,0,0.3501,0.15625,0.3501,0.34961S21.26904,17.76465,21.07568,17.76465z M24.42578,23.99805    c0,2.51465-2.0459,4.56055-4.56055,4.56055s-4.56055-2.0459-4.56055-4.56055s2.0459-4.55957,4.56055-4.55957    S24.42578,21.4834,24.42578,23.99805z M24.42676,17.76465h-1.396c-0.19336,0-0.3501-0.15625-0.3501-0.34961    s0.15674-0.34961,0.3501-0.34961h1.396c0.19336,0,0.3501,0.15625,0.3501,0.34961S24.62012,17.76465,24.42676,17.76465z" style="fill:#303030;"/><path d="M38.01123,18.02832h-2.33301c-0.26465,0-0.45459,0.0625-0.68604,0.22852l-4.06738,3.10565v0.88068    v3.53809v0.87738l4.0415,3.05914c0.24072,0.18359,0.43359,0.25098,0.71191,0.25098h2.33301    c0.65234,0,1.18311-0.53027,1.18311-1.18262V26.6582v-5.30664v-2.14062C39.19434,18.55859,38.66357,18.02832,38.01123,18.02832z" style="fill:#303030;"/></g></g></svg>