<?xml version="1.0" ?><svg data-name="Layer 2" id="Layer_2" viewBox="0 0 64 64" xmlns="http://www.w3.org/2000/svg"><defs><style>.cls-1{fill:#ffe94f;}.cls-2{fill:#45d4d9;}.cls-3{fill:#2d95b5;}.cls-4{fill:#f74b50;}.cls-5{fill:#2c2a3d;}</style></defs><title/><polygon class="cls-1" points="61 8 3 27.81 20.61 36.37 25.45 50.92 40.33 45.96 40.33 45.96 61 56 61 8"/><polygon class="cls-2" points="61 8 20.61 36.37 25.45 50.92 61 8"/><polygon class="cls-3" points="20.61 36.37 22.32 41.52 61 8 20.61 36.37"/><polygon class="cls-4" points="61 8 25.45 50.92 40.33 45.96 61 8"/><path class="cls-5" d="M62,7.93a.2.2,0,0,0,0-.07v0s0,0,0,0a.09.09,0,0,0,0,0s0,0,0-.05a.58.58,0,0,0,0-.14h0a.18.18,0,0,0-.05-.07.06.06,0,0,0,0,0l0,0,0,0-.11-.1,0,0h0l0,0,0,0,0,0s0,0,0,0h0l-.13-.06h-.06l0,0h-.3l-.07,0h-.08l0,0h0l-58,19.82a1,1,0,0,0-.12,1.84l17.23,8.37L24.5,51.24a.43.43,0,0,1,0,.07.86.86,0,0,0,.1.16,1,1,0,0,0,.12.16l0,.06.12.07.07.06h.06a.86.86,0,0,0,.23.06l.12,0h0l.13,0a1.25,1.25,0,0,0,.19,0L40.26,47l20.3,9.87A1,1,0,0,0,61,57a1,1,0,0,0,1-1V8S62,8,62,7.93ZM39.64,45.13,28.45,48.87,55.18,16.59ZM21.79,36.76,55.48,13.1,25.83,48.9ZM54.68,11.21l-34.17,24L5.62,28Zm-13,34.3L60,11.93V54.4Z"/></svg>