<?xml version="1.0" ?><svg data-name="Layer 2" id="Layer_2" viewBox="0 0 64 64" xmlns="http://www.w3.org/2000/svg"><defs><style>.cls-1{fill:#45d4d9;}.cls-2{fill:#2d95b5;}.cls-3{fill:#f74b50;}.cls-4{fill:#5c3b51;}.cls-5{fill:#8bd94f;}.cls-6{fill:#5fbf39;}.cls-7{fill:#2c2a3d;}</style></defs><title/><circle class="cls-1" cx="30" cy="27.86" r="21"/><path class="cls-2" d="M30,9.86a21,21,0,0,1,20.92,19.5c0-.49.08-1,.08-1.5a21,21,0,0,0-42,0c0,.51,0,1,.08,1.5A21,21,0,0,1,30,9.86Z"/><path class="cls-3" d="M17.19,57h26a2,2,0,0,1,2,2v2a0,0,0,0,1,0,0h-30a0,0,0,0,1,0,0V59A2,2,0,0,1,17.19,57Z"/><path class="cls-4" d="M33.57,52.46V57H26.8V52.54a27.15,27.15,0,0,0,3.14.19A24.24,24.24,0,0,0,33.57,52.46Z"/><path class="cls-5" d="M35.88,32.32l3.53,3.62-3.52,4.59-4.44,3.72-1.59,4.54-1.95,0-.17-4.49.65-2.45L29,35.67l-1.06-3.75,1.15-2.16L28,28.6l-5.62-6.15V15.76l.78-1.15.5-1.9-.76-1,0-.61-.07-2.91A18.09,18.09,0,0,1,30,6.86,17.28,17.28,0,0,1,36.89,8l-1.31,2-.85.35-2.43,1-.59,2.34L34,15.08l3-2,.63,1.4,2,1.61.23,2.48-3.12.17-.37.95-2.46.18L31,22.35l-2.69-.3-.14,1.29,1,2.11,3.11,2L34.51,30Z"/><path class="cls-6" d="M36.89,8l-1.31,2-.85.35A20.48,20.48,0,0,0,30,9.86a20.74,20.74,0,0,0-7.16,1.26l-.07-2.91A18.09,18.09,0,0,1,30,6.86,17.28,17.28,0,0,1,36.89,8Z"/><path class="cls-7" d="M56,27.86A26,26,0,0,0,30,2a25.65,25.65,0,0,0-3.22.2,1,1,0,0,0-.86,1.12A1,1,0,0,0,27,4.18,23.42,23.42,0,0,1,30,4a24.49,24.49,0,0,1,3.11.21L32.77,6A25.11,25.11,0,0,0,30,5.86c-.36,0-.7,0-1,0h-.22l-1,.08h0a20,20,0,0,0-3.09.55,22,22,0,0,0,.88,42.88l-.31,1.85a23.82,23.82,0,0,1-6.74-2.41,1,1,0,1,0-1,1.76,25.78,25.78,0,0,0,8.28,2.77V56H17.19a3,3,0,0,0-3,3v2a1,1,0,0,0,1,1h30a1,1,0,0,0,1-1V59a3,3,0,0,0-3-3H34.57V53.29A26,26,0,0,0,56,27.86Zm-6,0A20,20,0,0,1,31.27,47.8l1-3,4.23-3.55a.71.71,0,0,0,.15-.15l3.52-4.59a1,1,0,0,0-.08-1.31l-3.44-3.53-1.3-2.23a1.58,1.58,0,0,0-.12-.15L33,26.78a.91.91,0,0,0-.21-.18L30,24.77l-.75-1.6h0l1.7.19a1,1,0,0,0,.76-.24l2.62-2.24,2.14-.16a1,1,0,0,0,.86-.64l.13-.35,2.47-.13a1,1,0,0,0,.71-.34,1.07,1.07,0,0,0,.24-.75L40.61,16a1,1,0,0,0-.36-.68l-1.77-1.46-.54-1.19a1,1,0,0,0-1.46-.43L34,13.91l-1.12-.66.28-1.11L36,11a1,1,0,0,0,.46-.39l.87-1.34A20,20,0,0,1,50,27.86ZM34.91,9.26l-3,1.21a1,1,0,0,0-.6.69l-.58,2.33a1,1,0,0,0,.46,1.11L33.52,16a1,1,0,0,0,1,0l2-1.34.15.34a1.07,1.07,0,0,0,.27.36l1.64,1.34.09,1-2.08.11a1,1,0,0,0-.88.64l-.14.36-1.83.14a1,1,0,0,0-.58.23L30.7,21.31l-2.26-.25a1,1,0,0,0-.74.21,1,1,0,0,0-.37.68l-.13,1.29a1.08,1.08,0,0,0,.08.53l1,2.11a1,1,0,0,0,.36.42l3,1.91,2.07,2.36L35,32.83a.9.9,0,0,0,.15.19l2.93,3-2.93,3.81-4.35,3.65a1,1,0,0,0-.31.44l-1.35,3.86h-.28l-.13-3.4.62-2.3,0-.17L30,35.77a1.16,1.16,0,0,0,0-.37L29,32l1-1.81a1,1,0,0,0-.16-1.16l-6.44-7v-6l.61-.89a1,1,0,0,0,.14-.3L24.58,13a1,1,0,0,0-.17-.86l-.56-.72-.06-2.5.64-.21c.48-.14,1-.27,1.45-.37l.15,0C26.66,8.14,27.3,8,28,8h0a19.23,19.23,0,0,1,2-.11,20,20,0,0,1,5.33.75ZM10,27.86A20,20,0,0,1,21.81,9.64l.05,2.11a1,1,0,0,0,.21.59l.45.59L22.2,14.2l-.68,1a1,1,0,0,0-.18.56v6.69a1,1,0,0,0,.26.67l5.63,6.17.6.63L27,31.45a1,1,0,0,0-.07.74l1,3.58-.56,5.87L26.77,44a.7.7,0,0,0,0,.29l.12,3.29A20,20,0,0,1,10,27.86Zm17.89,21.9h0a20.8,20.8,0,0,0,2.1.1A22,22,0,0,0,37.22,7.09a13.49,13.49,0,0,0-2.48-.75l.31-1.8A23.86,23.86,0,0,1,27.8,51.62l-.6,0,.31-1.85ZM44.19,59v1h-28V59a1,1,0,0,1,1-1h26A1,1,0,0,1,44.19,59ZM27.8,56V53.64H28c.67.05,1.32.08,2,.08h.16l.6,0q.8,0,1.56-.09a3,3,0,0,0,.31,0V56Z"/></svg>