<?xml version="1.0" ?><svg data-name="Layer 2" id="Layer_2" viewBox="0 0 64 64" xmlns="http://www.w3.org/2000/svg"><defs><style>.cls-1{fill:#5c3b51;}.cls-2{fill:#4a2e42;}.cls-3{fill:#45d4d9;}.cls-4{fill:#2d95b5;}.cls-5{fill:#ffe94f;}.cls-6{fill:#deb142;}.cls-7{fill:#f74b50;}.cls-8{fill:#d13f44;}.cls-9{fill:#2c2a3d;}</style></defs><title/><rect class="cls-1" height="58" rx="2" ry="2" width="44" x="10" y="3"/><path class="cls-2" d="M12,3H52a2,2,0,0,1,2,2V6a0,0,0,0,1,0,0H10a0,0,0,0,1,0,0V5A2,2,0,0,1,12,3Z"/><rect class="cls-3" height="36" transform="translate(44 -20) rotate(90)" width="10" x="27" y="-6"/><rect class="cls-4" height="36" transform="translate(40.5 -23.5) rotate(90)" width="3" x="30.5" y="-9.5"/><rect class="cls-5" height="8" transform="translate(71 35) rotate(90)" width="8" x="14" y="49"/><rect class="cls-6" height="8" transform="translate(68.5 32.5) rotate(90)" width="3" x="16.5" y="46.5"/><rect class="cls-5" height="8" transform="translate(85 21) rotate(90)" width="8" x="28" y="49"/><rect class="cls-6" height="8" transform="translate(82.5 18.5) rotate(90)" width="3" x="30.5" y="46.5"/><rect class="cls-5" height="8" transform="translate(57 21) rotate(90)" width="8" x="14" y="35"/><rect class="cls-6" height="8" transform="translate(54.5 18.5) rotate(90)" width="3" x="16.5" y="32.5"/><rect class="cls-7" height="22" width="8" x="42" y="35"/><rect class="cls-8" height="8" transform="translate(82.5 -9.5) rotate(90)" width="3" x="44.5" y="32.5"/><rect class="cls-5" height="8" transform="translate(71 7) rotate(90)" width="8" x="28" y="35"/><rect class="cls-6" height="8" transform="translate(68.5 4.5) rotate(90)" width="3" x="30.5" y="32.5"/><rect class="cls-5" height="8" transform="translate(43 7) rotate(90)" width="8" x="14" y="21"/><rect class="cls-6" height="8" transform="translate(40.5 4.5) rotate(90)" width="3" x="16.5" y="18.5"/><rect class="cls-5" height="8" transform="translate(71 -21) rotate(90)" width="8" x="42" y="21"/><rect class="cls-6" height="8" transform="translate(68.5 -23.5) rotate(90)" width="3" x="44.5" y="18.5"/><rect class="cls-5" height="8" transform="translate(57 -7) rotate(90)" width="8" x="28" y="21"/><rect class="cls-6" height="8" transform="translate(54.5 -9.5) rotate(90)" width="3" x="30.5" y="18.5"/><path class="cls-9" d="M52,2H12A3,3,0,0,0,9,5V59a3,3,0,0,0,3,3H52a3,3,0,0,0,3-3V5A3,3,0,0,0,52,2Zm1,57a1,1,0,0,1-1,1H12a1,1,0,0,1-1-1V5a1,1,0,0,1,1-1H52a1,1,0,0,1,1,1Z"/><path class="cls-9" d="M50,6H14a1,1,0,0,0-1,1V17a1,1,0,0,0,1,1H50a1,1,0,0,0,1-1V7A1,1,0,0,0,50,6ZM49,16H15V8H49Z"/><path class="cls-9" d="M22,48H14a1,1,0,0,0-1,1v8a1,1,0,0,0,1,1h8a1,1,0,0,0,1-1V49A1,1,0,0,0,22,48Zm-1,8H15V50h6Z"/><path class="cls-9" d="M36,48H28a1,1,0,0,0-1,1v8a1,1,0,0,0,1,1h8a1,1,0,0,0,1-1V49A1,1,0,0,0,36,48Zm-1,8H29V50h6Z"/><path class="cls-9" d="M22,34H14a1,1,0,0,0-1,1v8a1,1,0,0,0,1,1h8a1,1,0,0,0,1-1V35A1,1,0,0,0,22,34Zm-1,8H15V36h6Z"/><path class="cls-9" d="M50,34H42a1,1,0,0,0-1,1V57a1,1,0,0,0,1,1h8a1,1,0,0,0,1-1V35A1,1,0,0,0,50,34ZM49,56H43V36h6Z"/><path class="cls-9" d="M36,34H28a1,1,0,0,0-1,1v8a1,1,0,0,0,1,1h8a1,1,0,0,0,1-1V35A1,1,0,0,0,36,34Zm-1,8H29V36h6Z"/><path class="cls-9" d="M22,20H14a1,1,0,0,0-1,1v8a1,1,0,0,0,1,1h8a1,1,0,0,0,1-1V21A1,1,0,0,0,22,20Zm-1,8H15V22h6Z"/><path class="cls-9" d="M50,20H42a1,1,0,0,0-1,1v8a1,1,0,0,0,1,1h8a1,1,0,0,0,1-1V21A1,1,0,0,0,50,20Zm-1,8H43V22h6Z"/><path class="cls-9" d="M36,20H28a1,1,0,0,0-1,1v8a1,1,0,0,0,1,1h8a1,1,0,0,0,1-1V21A1,1,0,0,0,36,20Zm-1,8H29V22h6Z"/></svg>