<?xml version="1.0" ?><svg data-name="Layer 2" id="Layer_2" viewBox="0 0 64 64" xmlns="http://www.w3.org/2000/svg"><defs><style>.cls-1{fill:#45d4d9;}.cls-2{fill:#e8464b;}.cls-3{fill:#d13f44;}.cls-4{fill:#f74b50;}.cls-5{fill:#ffe94f;}.cls-6{fill:#deb142;}.cls-7{fill:#5c3b51;}.cls-8{fill:#2c2a3d;}</style></defs><title/><path class="cls-1" d="M41,7v4H23V7a4,4,0,0,1,4-4H37A4,4,0,0,1,41,7Z"/><rect class="cls-2" height="34" width="6" x="29" y="15"/><rect class="cls-3" height="34" width="6" x="35" y="15"/><rect class="cls-4" height="34" width="6" x="23" y="15"/><rect class="cls-5" height="4" width="18" x="23" y="11"/><polygon class="cls-5" points="23 49 32 61 41 49 23 49"/><polygon class="cls-6" points="38.85 52 25.35 52 23 49 41 49 38.85 52"/><polygon class="cls-7" points="35.75 56 28.25 56 32 61 35.75 56"/><path class="cls-8" d="M37,2H27a5,5,0,0,0-5,5V49a.8.8,0,0,0,.07.34s0,0,0,.06a.56.56,0,0,0,.09.17l5.25,7,3.75,5a1,1,0,0,0,1.6,0l3.75-5,5.25-7a.56.56,0,0,0,.09-.17s0,0,0-.06A.8.8,0,0,0,42,49V7A5,5,0,0,0,37,2ZM30,48V16h4V48Zm-6,0V16h4V48ZM40,14H24V12H40Zm-4,2h4V48H36ZM24,7a3,3,0,0,1,3-3H37a3,3,0,0,1,3,3v3H24Zm6.25,50h3.5L32,59.33Zm5-2h-6.5L25,50H39Z"/><circle class="cls-8" cx="28.26" cy="7" r="1"/></svg>