<?xml version="1.0" ?><svg data-name="Layer 2" id="Layer_2" viewBox="0 0 64 64" xmlns="http://www.w3.org/2000/svg"><defs><style>.cls-1{fill:#f74b50;}.cls-2{fill:#45d4d9;}.cls-3{fill:#ffe94f;}.cls-4{fill:#5c3b51;}.cls-5{fill:#4a2e42;}.cls-6{fill:#2d95b5;}.cls-7{fill:#2c2a3d;}</style></defs><title/><path class="cls-1" d="M20.27,57H41.73A1.27,1.27,0,0,1,43,58.27V61a0,0,0,0,1,0,0H19a0,0,0,0,1,0,0V58.27A1.27,1.27,0,0,1,20.27,57Z"/><rect class="cls-2" height="30" width="8" x="27" y="7"/><rect class="cls-3" height="4" width="6" x="27.98" y="3"/><rect class="cls-3" height="4" width="4" x="29" y="37"/><rect class="cls-4" height="9" width="6" x="28" y="48"/><rect class="cls-5" height="3" width="6" x="28" y="48"/><rect class="cls-6" height="3" width="8" x="27" y="29"/><rect class="cls-6" height="3" width="8" x="27" y="7"/><rect class="cls-1" height="4" rx="2" ry="2" width="40" x="11" y="44"/><circle class="cls-7" cx="31" cy="12" r="1"/><path class="cls-7" d="M49.88,43.15A21.93,21.93,0,0,0,36,8.78V7a1,1,0,0,0-1-1h0V3a1,1,0,0,0-1-1H28a1,1,0,0,0-1,1V6a1,1,0,0,0-1,1V37a1,1,0,0,0,1,1h1v3a1,1,0,0,0,1,1h4a1,1,0,0,0,1-1V38h1a1,1,0,0,0,1-1V10.82A19.91,19.91,0,0,1,47.46,43H13a3,3,0,0,0,0,6H27v7H20.27A2.27,2.27,0,0,0,18,58.27V61a1,1,0,0,0,1,1H43a1,1,0,0,0,1-1V58.27A2.27,2.27,0,0,0,41.73,56H35V49H49a3,3,0,0,0,.88-5.85ZM28,8h6V28.1H28Zm1-4h4V6H29Zm3,36H30V38h2Zm1-4H28V30.1h6V36Zm9,22.27V60H20V58.27a.27.27,0,0,1,.27-.27H41.73A.27.27,0,0,1,42,58.27ZM33,56H29V49h4Zm16-9H13a1,1,0,0,1,0-2H49a1,1,0,0,1,0,2Z"/></svg>