<?xml version="1.0" ?><svg data-name="Layer 2" id="Layer_2" viewBox="0 0 64 64" xmlns="http://www.w3.org/2000/svg"><defs><style>.cls-1{fill:#45d4d9;}.cls-2{fill:#2d95b5;}.cls-3{fill:#f74b50;}.cls-4{fill:#d13f44;}.cls-5{fill:#2c2a3d;}</style></defs><title/><rect class="cls-1" height="9.67" transform="translate(-13.9 31.73) rotate(-45)" width="55.97" x="3.37" y="27.82"/><rect class="cls-2" height="9.67" transform="translate(4.47 39.34) rotate(-45)" width="3.99" x="47.74" y="9.44"/><path class="cls-3" d="M3,3V61H61Zm9.67,23.34,25,25h-25Z"/><polygon class="cls-4" points="57 61 3 7 3 3 61 61 57 61"/><path class="cls-5" d="M29.3,41.55h0l-6.83-6.83h0l-9.08-9.08a1,1,0,0,0-1.7.71v25a1,1,0,0,0,1,1h25a1,1,0,0,0,.71-1.7L29.3,41.56Zm-9-6.13-6.67,6.66V28.75Zm-6.67,9.49,8.08-8.08,5.42,5.43-8.08,8.07H13.67Zm8.25,5.42,6.67-6.66,6.66,6.66Z"/><path class="cls-5" d="M61.71,60.29,36.83,35.42,55.27,17a1,1,0,0,0,0-1.42L48.43,8.73a1,1,0,0,0-1.42,0L28.58,27.17,3.71,2.29a1,1,0,0,0-1.09-.21A1,1,0,0,0,2,3V61a1,1,0,0,0,1,1H61a1,1,0,0,0,.92-.62A1,1,0,0,0,61.71,60.29Zm-14-49.44,5.43,5.43-3.07,3.07-1.42-1.42a1,1,0,1,0-1.41,1.41l1.41,1.42L44.42,25,43,23.59a1,1,0,0,0-1.42,0,1,1,0,0,0,0,1.41L43,26.42l-4.24,4.24-1.42-1.42a1,1,0,0,0-1.42,1.42l1.42,1.41L35.42,34,30,28.58ZM46,60V58a1,1,0,0,0-2,0v2H38V58a1,1,0,0,0-2,0v2H30V58a1,1,0,0,0-2,0v2H22V58a1,1,0,0,0-2,0v2H14V58a1,1,0,0,0-2,0v2H4V51H6a1,1,0,0,0,0-2H4V43H6a1,1,0,0,0,0-2H4V35H6a1,1,0,0,0,0-2H4V27H6a1,1,0,0,0,0-2H4V19H6a1,1,0,0,0,0-2H4V5.41L58.59,60Z"/></svg>