<?xml version="1.0" ?><svg data-name="Layer 2" id="Layer_2" viewBox="0 0 64 64" xmlns="http://www.w3.org/2000/svg"><defs><style>.cls-1{fill:#45d4d9;}.cls-2{fill:#2d95b5;}.cls-3{fill:#f74b50;}.cls-4{fill:#5c3b51;}.cls-5{fill:#4a2e42;}.cls-6{fill:#2c2a3d;}</style></defs><title/><rect class="cls-1" height="36" width="58" x="3" y="8"/><rect class="cls-2" height="3" width="58" x="3" y="8"/><rect class="cls-3" height="4" width="58" x="3" y="40"/><polygon class="cls-4" points="24.51 44 21.5 61 17.12 61 20 44 24.51 44"/><polygon class="cls-4" points="44.72 44 47.6 61 43.22 61 40.21 44 44.72 44"/><polygon class="cls-4" points="27 8 28.2 3 35.8 3 37 8 27 8"/><polygon class="cls-5" points="36.52 6 35.8 3 28.2 3 27.48 6 36.52 6"/><path class="cls-6" d="M61,7H37.79l-1-4.23a1,1,0,0,0-1-.77H28.2a1,1,0,0,0-1,.77L26.21,7H3A1,1,0,0,0,2,8V44a1,1,0,0,0,1,1H18.81L16.13,60.83a1,1,0,0,0,.23.82,1,1,0,0,0,.76.35H21.5a1,1,0,0,0,1-.83L25.35,45h14l2.86,16.17a1,1,0,0,0,1,.83H47.6a1,1,0,0,0,1-1.17L45.9,45H61a1,1,0,0,0,1-1V8A1,1,0,0,0,61,7ZM20.66,60H18.3l2.54-15h2.48Zm23.4,0L41.4,45h2.48l2.53,15ZM29,4h6l.71,3H28.27ZM27,9H60V39H4V9ZM60,43H4V41H60Z"/><path class="cls-6" d="M44,34h8a1,1,0,0,0,0-2H45V29a3,3,0,0,1,3-3,5,5,0,1,0-5-5,1,1,0,0,0,2,0,3,3,0,1,1,3,3,5,5,0,0,0-5,5v4A1,1,0,0,0,44,34Z"/><path class="cls-6" d="M12,26h7v7a1,1,0,0,0,2,0V17a1,1,0,0,0-2,0v7H13V17a1,1,0,0,0-2,0v8A1,1,0,0,0,12,26Z"/><path class="cls-6" d="M27,26h4v4a1,1,0,0,0,2,0V26h4a1,1,0,0,0,0-2H33V20a1,1,0,0,0-2,0v4H27a1,1,0,0,0,0,2Z"/></svg>