<?xml version="1.0" ?><svg data-name="Layer 2" id="Layer_2" viewBox="0 0 64 64" xmlns="http://www.w3.org/2000/svg"><defs><style>.cls-1{fill:#ffe94f;}.cls-2{fill:#deb142;}.cls-3{fill:#f74b50;}.cls-4{fill:#d13f44;}.cls-5{fill:#45d4d9;}.cls-6{fill:#2d95b5;}.cls-7{fill:#2c2a3d;}</style></defs><title/><rect class="cls-1" height="58" rx="2" ry="2" width="42" x="11" y="3"/><path class="cls-2" d="M13,3H51a2,2,0,0,1,2,2V6a0,0,0,0,1,0,0H11a0,0,0,0,1,0,0V5A2,2,0,0,1,13,3Z"/><rect class="cls-3" height="12" width="20" x="25" y="12.92"/><rect class="cls-4" height="3" width="20" x="25" y="13"/><path class="cls-5" d="M13,3h4a0,0,0,0,1,0,0V61a0,0,0,0,1,0,0H13a2,2,0,0,1-2-2V5a2,2,0,0,1,2-2Z"/><path class="cls-6" d="M13,3h4a0,0,0,0,1,0,0V6a0,0,0,0,1,0,0H11a0,0,0,0,1,0,0V5A2,2,0,0,1,13,3Z"/><path class="cls-7" d="M51,2H13a3,3,0,0,0-3,3V59a3,3,0,0,0,3,3H51a3,3,0,0,0,3-3V5A3,3,0,0,0,51,2ZM13,60a1,1,0,0,1-1-1V5a1,1,0,0,1,1-1h3V60Zm39-1a1,1,0,0,1-1,1H18V4H51a1,1,0,0,1,1,1Z"/><path class="cls-7" d="M45,12H25a1,1,0,0,0-1,1V25a1,1,0,0,0,1,1H45a1,1,0,0,0,1-1V13A1,1,0,0,0,45,12ZM44,24H26V14H44Z"/><path class="cls-7" d="M45,31H25a1,1,0,0,0,0,2H45a1,1,0,0,0,0-2Z"/><path class="cls-7" d="M45,36H25a1,1,0,0,0,0,2H45a1,1,0,0,0,0-2Z"/><circle class="cls-7" cx="29" cy="17" r="1"/></svg>