<?xml version="1.0" ?><svg data-name="Layer 2" id="Layer_2" viewBox="0 0 64 64" xmlns="http://www.w3.org/2000/svg"><defs><style>.cls-1{fill:#ffe94f;}.cls-2{fill:#5c3b51;}.cls-3{fill:#4a2e42;}.cls-4{fill:#8bd94f;}.cls-5{fill:#5fbf39;}.cls-6{fill:#2c2a3d;}</style></defs><title/><path class="cls-1" d="M30.88,10.29c-.62-2-2.68-6.18-9.1-6.79a.85.85,0,0,0-.86,1c.21,2.27,1.53,7.44,9.24,7A.9.9,0,0,0,30.88,10.29Z"/><path class="cls-2" d="M29.55,13a13.19,13.19,0,0,0,0-8.66A1,1,0,0,1,30.47,3h3.09a1,1,0,0,1,1,.69A14.89,14.89,0,0,1,33.85,13Z"/><path class="cls-3" d="M30,6.19A38.68,38.68,0,0,1,34.94,6a12.43,12.43,0,0,0-.42-2.26,1,1,0,0,0-1-.69H30.47a1,1,0,0,0-.93,1.34A13.65,13.65,0,0,1,30,6.19Z"/><path class="cls-4" d="M58,34.41C58,48.62,47.45,63,32,60.77,17.3,63,6,48.62,6,34.41S8.26,8,32,11.68C54.23,8,58,20.21,58,34.41Z"/><path class="cls-5" d="M32,14.74c21.24-3.56,25.62,7.47,26,20.85,0-.39,0-.79,0-1.18C58,20.21,54.23,8,32,11.68,8.26,8,6,20.21,6,34.41c0,.31,0,.61,0,.91C6.29,22.06,9.47,11.2,32,14.74Z"/><circle class="cls-5" cx="46.83" cy="17.69" r="3.03"/><path class="cls-6" d="M52.42,14c-3.84-3.25-9.33-4.51-16.71-3.82a14.44,14.44,0,0,0-.23-6.77A2,2,0,0,0,33.56,2H30.47a2,2,0,0,0-1.62.83,2.05,2.05,0,0,0-.26,1.83c.07.2.13.41.18.61a11.84,11.84,0,0,0-6.89-2.76,1.69,1.69,0,0,0-1.39.5,1.94,1.94,0,0,0-.57,1.56,9,9,0,0,0,2.43,5.48c-4.84.25-8.58,1.54-11.31,3.87C6,18.21,5,25.21,5,34.41A29.92,29.92,0,0,0,15,56.6a21.18,21.18,0,0,0,17,5.18,22.87,22.87,0,0,0,3.18.22,21.22,21.22,0,0,0,14.11-5.36c6-5.19,9.71-13.7,9.71-22.23C59,27.5,58.25,18.93,52.42,14ZM33.56,4a13.11,13.11,0,0,1,.06,6.45L32,10.66l-.85-.12a16.55,16.55,0,0,0,.13-1.75A14.33,14.33,0,0,0,30.47,4Zm-11.67.55C26.19,5,28.26,7.17,29.26,9c0,.43-.05.85-.1,1.26-1-.11-2.05-.19-3-.23A6.28,6.28,0,0,1,21.89,4.52ZM48,55.12a19.31,19.31,0,0,1-15.84,4.66h-.29a19.09,19.09,0,0,1-15.56-4.69A27.91,27.91,0,0,1,7,34.41c0-8.64.91-15.18,5.34-19C15,13.14,18.93,12,24.14,12c.59,0,1.19,0,1.8,0h0q1.82.09,3.84.33h.11l1.94.27a.91.91,0,0,0,.33,0c.81-.13,1.59-.24,2.36-.34h0c7.5-.92,13,.13,16.58,3.2C55.19,19,57,24.79,57,34.41,57,42.37,53.54,50.31,48,55.12Z"/><path class="cls-6" d="M13.58,19.57C12,21,10.79,24.44,11,26.89a1,1,0,0,0,1,.91h.09A1,1,0,0,0,13,26.71c-.16-1.78.82-4.68,1.91-5.64a1,1,0,0,0-1.33-1.5Z"/><circle class="cls-6" cx="17" cy="18" r="1"/></svg>