<?xml version="1.0" ?><svg data-name="Layer 2" id="Layer_2" viewBox="0 0 64 64" xmlns="http://www.w3.org/2000/svg"><defs><style>.cls-1{fill:#5c3b51;}.cls-2{fill:#ffe94f;}.cls-3{fill:#deb142;}.cls-4{fill:#f74b50;}.cls-5{fill:#2d95b5;}.cls-6{fill:#45d4d9;}.cls-7{fill:#2c2a3d;}</style></defs><title/><path class="cls-1" d="M5,48H15a0,0,0,0,1,0,0v8a2,2,0,0,1-2,2H7a2,2,0,0,1-2-2V48A0,0,0,0,1,5,48Z"/><path class="cls-1" d="M49,48H59a0,0,0,0,1,0,0v8a2,2,0,0,1-2,2H51a2,2,0,0,1-2-2V48A0,0,0,0,1,49,48Z"/><rect class="cls-2" height="6" width="58" x="3" y="42"/><rect class="cls-3" height="3" width="58" x="3" y="42"/><rect class="cls-4" height="6" width="14.5" x="24.75" y="42"/><path class="cls-2" d="M7,24H57a2,2,0,0,1,2,2V42a0,0,0,0,1,0,0H5a0,0,0,0,1,0,0V26A2,2,0,0,1,7,24Z"/><path class="cls-3" d="M7,24H57a2,2,0,0,1,2,2v1a0,0,0,0,1,0,0H5a0,0,0,0,1,0,0V26A2,2,0,0,1,7,24Z"/><circle class="cls-4" cx="12.05" cy="32.26" r="2.9"/><circle class="cls-4" cx="52.05" cy="32.26" r="3"/><rect class="cls-5" height="4" width="34" x="15.05" y="48"/><rect class="cls-6" height="14" width="48" x="8.05" y="10"/><rect class="cls-5" height="3" width="48" x="8.05" y="10"/><path class="cls-2" d="M9,6H55a2,2,0,0,1,2,2v2a0,0,0,0,1,0,0H7a0,0,0,0,1,0,0V8A2,2,0,0,1,9,6Z"/><path class="cls-7" d="M61,41H60V26a3,3,0,0,0-3-3V11a1,1,0,0,0,1-1V8a3,3,0,0,0-3-3H9A3,3,0,0,0,6,8v2a1,1,0,0,0,1,1h0V23H7a3,3,0,0,0-3,3V41H3a1,1,0,0,0-1,1v6a1,1,0,0,0,1,1h1v7a3,3,0,0,0,3,3h6a3,3,0,0,0,3-3V53h32v3a3,3,0,0,0,3,3h6a3,3,0,0,0,3-3V49h1a1,1,0,0,0,1-1V42A1,1,0,0,0,61,41Zm-12,6h-8.8V43H60v4h-11Zm-23.3-4h12.5v4H25.75Zm29.3-32V23h-22V11ZM8,8A1,1,0,0,1,9,7H55a1,1,0,0,1,1,1V9H8Zm1.05,3h22V23h-22ZM6,26a1,1,0,0,1,1-1H57a1,1,0,0,1,1,1V41H6ZM4,43H23.75v4H4ZM14.05,56a1,1,0,0,1-1,1h-6a1,1,0,0,1-1-1V49h8v7Zm2-5V49h32v2Zm42,5a1,1,0,0,1-1,1h-6a1,1,0,0,1-1-1V49h8Z"/><path class="cls-7" d="M12.05,28.36a3.9,3.9,0,1,0,3.9,3.9A3.91,3.91,0,0,0,12.05,28.36Zm0,5.8a1.9,1.9,0,1,1,1.9-1.9A1.9,1.9,0,0,1,12.05,34.16Z"/><path class="cls-7" d="M52.05,36.26a4,4,0,1,0-4-4A4,4,0,0,0,52.05,36.26Zm0-6a2,2,0,1,1-2,2A2,2,0,0,1,52.05,30.26Z"/><path class="cls-7" d="M23.24,28a1,1,0,0,0-1,1v9a1,1,0,0,0,2,0V29A1,1,0,0,0,23.24,28Z"/><path class="cls-7" d="M29.24,39a1,1,0,0,0,1-1V29a1,1,0,0,0-2,0v9A1,1,0,0,0,29.24,39Z"/><path class="cls-7" d="M35.24,39a1,1,0,0,0,1-1V29a1,1,0,0,0-2,0v9A1,1,0,0,0,35.24,39Z"/><path class="cls-7" d="M41.24,39a1,1,0,0,0,1-1V29a1,1,0,0,0-2,0v9A1,1,0,0,0,41.24,39Z"/></svg>