<?xml version="1.0" ?><svg data-name="Layer 2" id="Layer_2" viewBox="0 0 64 64" xmlns="http://www.w3.org/2000/svg"><defs><style>.cls-1{fill:#f74b50;}.cls-2{fill:#45d4d9;}.cls-3{fill:#2d95b5;}.cls-4{fill:#8bd94f;}.cls-5{fill:#5fbf39;}.cls-6{fill:#2c2a3d;}</style></defs><title/><rect class="cls-1" height="6" rx="1" ry="1" width="15.34" x="24.33" y="3"/><path class="cls-2" d="M47.3,61H16.7a4.93,4.93,0,0,1-4.21-7.12L26,31.55A11,11,0,0,0,27,27V9H37V27a11,11,0,0,0,1,4.59L51.51,53.88A4.93,4.93,0,0,1,47.3,61Z"/><rect class="cls-3" height="3" width="9.99" x="27.01" y="9"/><path class="cls-4" d="M47.3,61H16.7a4.94,4.94,0,0,1-4.22-7.12l9-14.88h21l9,14.88A4.94,4.94,0,0,1,47.3,61Z"/><polygon class="cls-5" points="45 43.12 19 43.12 21.49 39 42.51 39 45 43.12"/><circle class="cls-6" cx="31" cy="35" r="1"/><circle class="cls-6" cx="33" cy="30" r="1"/><circle class="cls-6" cx="31" cy="25" r="1"/><path class="cls-6" d="M52.2,59.06c.07-.13.15-.26.21-.39a3.69,3.69,0,0,0,.17-.42c0-.1.09-.19.12-.29s.07-.28.11-.41.06-.22.08-.33,0-.19,0-.28,0-.32.06-.48v-.05a6.22,6.22,0,0,0-.56-2.95s0-.07,0-.1l-9-14.88h0l-4.47-7.4A9.86,9.86,0,0,1,38,27V10h.68a2,2,0,0,0,2-2V4a2,2,0,0,0-2-2H25.33a2,2,0,0,0-2,2V8a2,2,0,0,0,2,2H26V27a9.86,9.86,0,0,1-.9,4.12l-4.47,7.4h0l-9,14.88,0,.1A6.22,6.22,0,0,0,11,56.41v.05c0,.16,0,.32.06.48s0,.18,0,.28.06.22.08.33.07.27.11.41.08.19.12.29a3.69,3.69,0,0,0,.17.42c.06.13.14.26.21.39l.16.29h0a4.71,4.71,0,0,0,.33.45l.09.13c.14.17.29.32.44.47l.05.06A5.58,5.58,0,0,0,16.7,62H47.3a5.58,5.58,0,0,0,3.82-1.53l.05-.06c.15-.15.3-.3.44-.47l.09-.13a4.71,4.71,0,0,0,.33-.45h0ZM25.33,4H38.67V8H25.33Zm1.52,28.07a.41.41,0,0,0,0-.09A11.9,11.9,0,0,0,28,27V10h8V27a11.9,11.9,0,0,0,1.11,5,.41.41,0,0,0,0,.09L40.74,38H23.26ZM16.7,60a3.52,3.52,0,0,1-2.46-1l0,0a4,4,0,0,1-.28-.3,1,1,0,0,0-.08-.11c-.07-.1-.14-.18-.2-.28l-.12-.21c0-.08-.09-.16-.13-.25a1.86,1.86,0,0,1-.1-.25,2,2,0,0,1-.09-.22,1.52,1.52,0,0,1-.06-.2c0-.1-.05-.2-.07-.3a0,0,0,0,1,0,0,4.14,4.14,0,0,1,.3-2.47L22.05,40H42l8.68,14.35a4.14,4.14,0,0,1,.3,2.47,0,0,0,0,1,0,0c0,.1-.05.2-.07.3a1.52,1.52,0,0,1-.06.2,2,2,0,0,1-.09.22,1.86,1.86,0,0,1-.1.25c0,.09-.09.17-.13.25l-.12.21c-.06.1-.13.18-.2.28a1,1,0,0,0-.08.11,4,4,0,0,1-.28.3l0,0a3.52,3.52,0,0,1-2.46,1Z"/></svg>