<?xml version="1.0" ?><!DOCTYPE svg  PUBLIC '-//W3C//DTD SVG 1.1//EN'  'http://www.w3.org/Graphics/SVG/1.1/DTD/svg11.dtd'><svg enable-background="new 0 0 64 64" id="Layer_1" version="1.1" viewBox="0 0 64 64" xml:space="preserve" xmlns="http://www.w3.org/2000/svg" xmlns:xlink="http://www.w3.org/1999/xlink"><path d="M10,55c0,0,11.3-0.7,15-3s20.3-25.3,22.5-29c2.4-3.7-11.8-9.6-11.8-9.6s-3.3-2.1-5.3-1.1s0.1,4.3,1.6,6.3  c1.5,2,0,4.9-3.2,4.4c-1.4-0.2-7-0.9-7-0.9s0.1,3.8-0.8,8.9c-0.9,5.4-1.2,9.4-3.8,12.8S8.7,48.3,8,51S10,55,10,55z" fill="#EA685E"/><path d="M38.9,14.9l-0.3,0.3c-2.1,3.8-1,8.6,2.5,11l3.2,1.5c1.6-2.2,2.7-3.9,3.2-4.7C49.1,20.5,43,16.9,38.9,14.9z" fill="#E64C3C"/><path d="M46,19.3c0,0-7.9,12-9.8,14.8c-1.9,2.8-11,14.5-14,15.9c-3,1.4-14,3.3-14,3.3C8.8,54.4,10,55,10,55  s11.3-0.7,15-3c3.7-2.3,20.3-25.3,22.5-29C48.2,21.9,47.4,20.6,46,19.3z" fill="#F8B319"/><path d="  M10,55c0,0,11.3-0.7,15-3s20.3-25.3,22.5-29c2.4-3.7-11.8-9.6-11.8-9.6s-3.3-2.1-5.3-1.1s0.1,4.3,1.6,6.3c1.5,2,0,4.9-3.2,4.4  c-1.4-0.2-7-0.9-7-0.9s0.1,3.8-0.8,8.9c-0.9,5.4-1.2,9.4-3.8,12.8S8.7,48.3,8,51S10,55,10,55z" fill="none" stroke="#2C3E50" stroke-linecap="round" stroke-linejoin="round" stroke-miterlimit="10" stroke-width="2"/><polyline fill="#8C623B" points="28.4,55 39.2,42.2 42.6,55 52.4,42.2 56,55 "/><polyline fill="none" points="  28.4,55 39.2,42.2 42.6,55 52.4,42.2 56,55 " stroke="#2C3E50" stroke-linecap="round" stroke-linejoin="round" stroke-miterlimit="10" stroke-width="2"/><path d="  M8.2,53.3c0,0,11-1.9,14-3.3s12.1-13.1,14-15.9S46,19.3,46,19.3" fill="none" stroke="#2C3E50" stroke-linecap="round" stroke-linejoin="round" stroke-miterlimit="10" stroke-width="2"/><line fill="none" stroke="#2C3E50" stroke-linecap="round" stroke-linejoin="round" stroke-miterlimit="10" stroke-width="2" x1="21.2" x2="31.9" y1="29.3" y2="34.2"/><line fill="none" stroke="#2C3E50" stroke-linecap="round" stroke-linejoin="round" stroke-miterlimit="10" stroke-width="2" x1="20.7" x2="29.9" y1="32.8" y2="37.1"/><line fill="none" stroke="#2C3E50" stroke-linecap="round" stroke-linejoin="round" stroke-miterlimit="10" stroke-width="2" x1="20.1" x2="27.8" y1="36.3" y2="40"/><path d="  M41.1,26.3c-3.5-2.5-4.6-7.2-2.5-11" fill="none" stroke="#2C3E50" stroke-dasharray="0,3" stroke-linecap="round" stroke-linejoin="round" stroke-miterlimit="10" stroke-width="2"/></svg>