<?xml version="1.0" ?><!DOCTYPE svg  PUBLIC '-//W3C//DTD SVG 1.1//EN'  'http://www.w3.org/Graphics/SVG/1.1/DTD/svg11.dtd'><svg enable-background="new 0 0 64 64" id="Layer_1" version="1.1" viewBox="0 0 64 64" xml:space="preserve" xmlns="http://www.w3.org/2000/svg" xmlns:xlink="http://www.w3.org/1999/xlink"><path d="M21.6,45.8l-9.8,2.5c-0.5,0.1-0.9-0.3-0.8-0.8l2.5-9.9l2.8-2.3l7.7,7.6L21.6,45.8z" fill="#FFD766"/><polyline fill="#7ABE90" points="23.5,43.3 47.2,19.7 46.1,15.7 43.6,13.2 39.6,12 15.9,35.7 "/><polygon fill="#00A388" points="23.5,43.3 47.2,19.7 46.1,15.7 44.9,14.5 19.7,39.4 "/><polyline fill="none" points="  23.5,43.3 47.2,19.7 46.1,15.7 43.6,13.2 39.6,12 15.9,35.7 " stroke="#2C3E50" stroke-linecap="round" stroke-linejoin="round" stroke-miterlimit="10" stroke-width="2"/><line fill="none" stroke="#2C3E50" stroke-linecap="round" stroke-linejoin="round" stroke-miterlimit="10" stroke-width="2" x1="42.2" x2="19.7" y1="17.1" y2="39.5"/><path d="  M20.8,46.1l-9,2.3c-0.5,0.1-0.9-0.3-0.8-0.8l2.3-9" fill="none" stroke="#2C3E50" stroke-linecap="round" stroke-linejoin="round" stroke-miterlimit="10" stroke-width="2"/><line fill="none" stroke="#2C3E50" stroke-linecap="round" stroke-linejoin="round" stroke-miterlimit="10" stroke-width="2" x1="53" x2="12" y1="52" y2="52"/><line fill="none" stroke="#2C3E50" stroke-linecap="round" stroke-linejoin="round" stroke-miterlimit="10" stroke-width="2" x1="11.7" x2="14.2" y1="45" y2="47.6"/></svg>