<?xml version="1.0" ?><!DOCTYPE svg  PUBLIC '-//W3C//DTD SVG 1.1//EN'  'http://www.w3.org/Graphics/SVG/1.1/DTD/svg11.dtd'><svg enable-background="new 0 0 64 64" id="Layer_1" version="1.1" viewBox="0 0 64 64" xml:space="preserve" xmlns="http://www.w3.org/2000/svg" xmlns:xlink="http://www.w3.org/1999/xlink"><path d="M43.4,24.2c-1.6-2.6-3.1-3.7-5-4c-4.1-0.7-8.8,2.5-11.8,2.2c1.9,2.2,5,5.5,8.6,5.7c2.2,0.1,4.6-1,8.2-3.1  C43.8,24.7,43.6,24.6,43.4,24.2z" fill="#7ABE90"/><path d="M53.4,7c-1.4,2.5-6.4,4.4-8.2,7.9c-0.8,1.6-0.8,3.3,0.3,6c0.2,0.4,0.2,0.7,0.6,0.5c3.6-1.6,5.7-2.9,6.9-4.6  C54.9,13.9,54.1,9.7,53.4,7z" fill="#7ABE90"/><path d="  M43.4,24.2c-1.6-2.6-3.1-3.7-5-4c-4.1-0.7-8.8,2.5-11.8,2.2c1.9,2.2,5,5.5,8.6,5.7c2.2,0.1,4.6-1,8.2-3.1  C43.8,24.7,43.6,24.6,43.4,24.2z" fill="none" stroke="#2C3E50" stroke-linecap="round" stroke-linejoin="round" stroke-miterlimit="10" stroke-width="2"/><path d="  M53.4,7c-1.4,2.5-6.4,4.4-8.2,7.9c-0.8,1.6-0.8,3.3,0.3,6c0.2,0.4,0.2,0.7,0.6,0.5c3.6-1.6,5.7-2.9,6.9-4.6  C54.9,13.9,54.1,9.7,53.4,7z" fill="none" stroke="#2C3E50" stroke-linecap="round" stroke-linejoin="round" stroke-miterlimit="10" stroke-width="2"/><path d="  M46.9,32.7c0.8-2.7,0.8-5.7-0.2-8.2" fill="none" stroke="#2C3E50" stroke-linecap="round" stroke-linejoin="round" stroke-miterlimit="10" stroke-width="2"/><rect fill="#B7B7B7" height="3" width="38" x="13" y="55"/><line fill="none" stroke="#2C3E50" stroke-linecap="round" stroke-linejoin="round" stroke-miterlimit="10" stroke-width="2" x1="13" x2="51" y1="55" y2="55"/><line fill="none" stroke="#2C3E50" stroke-linecap="round" stroke-linejoin="round" stroke-miterlimit="10" stroke-width="2" x1="20" x2="44" y1="58" y2="58"/><path d="M20.2,51h23.6c5.8-3.8,9.7-10.4,9.7-18h-43C10.5,40.6,14.4,47.2,20.2,51z" fill="#8C623B"/><path d="M52.1,34c-1.1,5.8-5.4,10.7-10,13.8c-0.2,0.1-0.4,0.2-0.7,0.2H18.6c-0.2,0-0.5-0.1-0.7-0.2  c-1.8-1.2-3.4-2.7-4.8-4.4c1.6,3,4,5.5,6.8,7.4c0.2,0.1,0.4,0.2,0.7,0.2h22.8c0.2,0,0.5-0.1,0.7-0.2c5.4-3.6,9-9.6,9.4-16.6  c0-0.7-0.5-1.2-1.2-1.2" fill="#724521"/><path d="  M20.2,51h23.6c5.8-3.8,9.7-10.4,9.7-18h-43C10.5,40.6,14.4,47.2,20.2,51z" fill="none" stroke="#2C3E50" stroke-linecap="round" stroke-linejoin="round" stroke-miterlimit="10" stroke-width="2"/></svg>