<?xml version="1.0" ?><!DOCTYPE svg  PUBLIC '-//W3C//DTD SVG 1.1//EN'  'http://www.w3.org/Graphics/SVG/1.1/DTD/svg11.dtd'><svg enable-background="new 0 0 64 64" id="Layer_1" version="1.1" viewBox="0 0 64 64" xml:space="preserve" xmlns="http://www.w3.org/2000/svg" xmlns:xlink="http://www.w3.org/1999/xlink"><circle cx="28" cy="26" fill="#E5E5E5" r="20.2"/><circle cx="28" cy="26" fill="#FFFFFF" r="14.7"/><circle cx="28" cy="26" fill="#00A388" r="2.5"/><circle cx="28" cy="26" fill="none" r="2.5" stroke="#2C3E50" stroke-linecap="round" stroke-linejoin="round" stroke-miterlimit="10" stroke-width="2"/><line fill="none" stroke="#2C3E50" stroke-linecap="round" stroke-linejoin="round" stroke-miterlimit="10" stroke-width="2" x1="29" x2="29" y1="18" y2="9"/><path d="M32,5.5c0,1.7-1.3,3-3,3s-3-1.3-3-3" fill="#3B97D3"/><path d="M25,45c0-1.7,1.3-3,3-3s3,1.3,3,3" fill="#3B97D3"/><path d="M21.2,8.5c0.8,1.4,0.3,3.3-1.1,4.1c-1.4,0.8-3.3,0.3-4.1-1.1" fill="#3B97D3"/><path d="M34.8,44c-0.8-1.4-0.3-3.3,1.1-4.1c1.4-0.8,3.3-0.3,4.1,1.1" fill="#3B97D3"/><path d="M13.3,14.3c1.4,0.8,1.9,2.7,1.1,4.1c-0.8,1.4-2.7,1.9-4.1,1.1" fill="#3B97D3"/><path d="M42.7,38.2c-1.4-0.8-1.9-2.7-1.1-4.1c0.8-1.4,2.7-1.9,4.1-1.1" fill="#3B97D3"/><path d="M9.3,23.2c1.7,0,3,1.3,3,3c0,1.7-1.3,3-3,3" fill="#3B97D3"/><path d="M46.8,29.2c-1.7,0-3-1.3-3-3c0-1.7,1.3-3,3-3" fill="#3B97D3"/><path d="M10.3,33c1.4-0.8,3.3-0.3,4.1,1.1c0.8,1.4,0.3,3.3-1.1,4.1" fill="#3B97D3"/><path d="M56.7,9.5c-1.4,0.8-3.3,0.3-4.1-1.1s-0.3-3.3,1.1-4.1" fill="#3B97D3"/><path d="M44,6.5c-0.8,1.4-2.7,1.9-4.1,1.1c-1.4-0.8-1.9-2.7-1.1-4.1" fill="#3B97D3"/><path d="  M32,5.5c0,1.7-1.3,3-3,3s-3-1.3-3-3" fill="none" stroke="#2C3E50" stroke-linecap="round" stroke-linejoin="round" stroke-miterlimit="10" stroke-width="2"/><circle cx="29" cy="5.5" fill="#2C3E50" r="1"/><line fill="none" stroke="#2C3E50" stroke-linecap="round" stroke-linejoin="round" stroke-miterlimit="10" stroke-width="2" x1="28" x2="28" y1="32" y2="41"/><path d="  M25,45c0-1.7,1.3-3,3-3s3,1.3,3,3" fill="none" stroke="#2C3E50" stroke-linecap="round" stroke-linejoin="round" stroke-miterlimit="10" stroke-width="2"/><circle cx="28" cy="45" fill="#2C3E50" r="1"/><line fill="none" stroke="#2C3E50" stroke-linecap="round" stroke-linejoin="round" stroke-miterlimit="10" stroke-width="2" x1="24.9" x2="20.4" y1="20.8" y2="13"/><path d="  M21.2,8.5c0.8,1.4,0.3,3.3-1.1,4.1c-1.4,0.8-3.3,0.3-4.1-1.1" fill="none" stroke="#2C3E50" stroke-linecap="round" stroke-linejoin="round" stroke-miterlimit="10" stroke-width="2"/><circle cx="18.6" cy="10" fill="#2C3E50" r="1"/><line fill="none" stroke="#2C3E50" stroke-linecap="round" stroke-linejoin="round" stroke-miterlimit="10" stroke-width="2" x1="30.9" x2="35.4" y1="31.2" y2="39"/><path d="  M34.8,44c-0.8-1.4-0.3-3.3,1.1-4.1c1.4-0.8,3.3-0.3,4.1,1.1" fill="none" stroke="#2C3E50" stroke-linecap="round" stroke-linejoin="round" stroke-miterlimit="10" stroke-width="2"/><circle cx="37.4" cy="42.5" fill="#2C3E50" r="1"/><line fill="none" stroke="#2C3E50" stroke-linecap="round" stroke-linejoin="round" stroke-miterlimit="10" stroke-width="2" x1="22.6" x2="14.8" y1="23.1" y2="18.6"/><path d="  M13.3,14.3c1.4,0.8,1.9,2.7,1.1,4.1c-0.8,1.4-2.7,1.9-4.1,1.1" fill="none" stroke="#2C3E50" stroke-linecap="round" stroke-linejoin="round" stroke-miterlimit="10" stroke-width="2"/><circle cx="11.8" cy="16.9" fill="#2C3E50" r="1"/><line fill="none" stroke="#2C3E50" stroke-linecap="round" stroke-linejoin="round" stroke-miterlimit="10" stroke-width="2" x1="33" x2="40.8" y1="29.1" y2="33.6"/><path d="  M42.7,38.2c-1.4-0.8-1.9-2.7-1.1-4.1c0.8-1.4,2.7-1.9,4.1-1.1" fill="none" stroke="#2C3E50" stroke-linecap="round" stroke-linejoin="round" stroke-miterlimit="10" stroke-width="2"/><circle cx="44.2" cy="35.6" fill="#2C3E50" r="1"/><line fill="none" stroke="#2C3E50" stroke-linecap="round" stroke-linejoin="round" stroke-miterlimit="10" stroke-width="2" x1="22" x2="13" y1="26" y2="26"/><path d="  M9.3,23.2c1.7,0,3,1.3,3,3c0,1.7-1.3,3-3,3" fill="none" stroke="#2C3E50" stroke-linecap="round" stroke-linejoin="round" stroke-miterlimit="10" stroke-width="2"/><circle cx="9.2" cy="26.2" fill="#2C3E50" r="1"/><line fill="none" stroke="#2C3E50" stroke-linecap="round" stroke-linejoin="round" stroke-miterlimit="10" stroke-width="2" x1="34" x2="43" y1="26" y2="26"/><path d="  M46.8,29.2c-1.7,0-3-1.3-3-3c0-1.7,1.3-3,3-3" fill="none" stroke="#2C3E50" stroke-linecap="round" stroke-linejoin="round" stroke-miterlimit="10" stroke-width="2"/><circle cx="46.8" cy="26.2" fill="#2C3E50" r="1"/><line fill="none" stroke="#2C3E50" stroke-linecap="round" stroke-linejoin="round" stroke-miterlimit="10" stroke-width="2" x1="22.7" x2="14.9" y1="29" y2="33.5"/><path d="  M10.3,33c1.4-0.8,3.3-0.3,4.1,1.1c0.8,1.4,0.3,3.3-1.1,4.1" fill="none" stroke="#2C3E50" stroke-linecap="round" stroke-linejoin="round" stroke-miterlimit="10" stroke-width="2"/><circle cx="11.8" cy="35.6" fill="#2C3E50" r="1"/><line fill="none" stroke="#2C3E50" stroke-linecap="round" stroke-linejoin="round" stroke-miterlimit="10" stroke-width="2" x1="44.1" x2="51.9" y1="13" y2="8.5"/><path d="  M56.7,9.5c-1.4,0.8-3.3,0.3-4.1-1.1s-0.3-3.3,1.1-4.1" fill="none" stroke="#2C3E50" stroke-linecap="round" stroke-linejoin="round" stroke-miterlimit="10" stroke-width="2"/><circle cx="55.2" cy="6.9" fill="#2C3E50" r="1"/><line fill="none" stroke="#2C3E50" stroke-linecap="round" stroke-linejoin="round" stroke-miterlimit="10" stroke-width="2" x1="34.8" x2="39.3" y1="15.9" y2="8.1"/><path d="  M44,6.5c-0.8,1.4-2.7,1.9-4.1,1.1c-1.4-0.8-1.9-2.7-1.1-4.1" fill="none" stroke="#2C3E50" stroke-linecap="round" stroke-linejoin="round" stroke-miterlimit="10" stroke-width="2"/><circle cx="41.4" cy="5" fill="#2C3E50" r="1"/><path d="  M24.1,32c0,0-9.4,9.2-9.4,28.3" fill="none" stroke="#2C3E50" stroke-linecap="round" stroke-linejoin="round" stroke-miterlimit="10" stroke-width="2"/></svg>