<?xml version="1.0" ?><!DOCTYPE svg  PUBLIC '-//W3C//DTD SVG 1.1//EN'  'http://www.w3.org/Graphics/SVG/1.1/DTD/svg11.dtd'><svg enable-background="new 0 0 64 64" id="Layer_1" version="1.1" viewBox="0 0 64 64" xml:space="preserve" xmlns="http://www.w3.org/2000/svg" xmlns:xlink="http://www.w3.org/1999/xlink"><path d="M60.4,53.7L39.3,21.8c-0.7-1.1-2.4-1.1-3.1,0l-4.7,7.3l-5.1-7.3c-0.7-1.1-2.4-1.1-3.1,0L3.6,53.7H60.4z" fill="#8C623B"/><path d="M36.2,21.8l-9.7,15.2l-0.1,0.3l7.1-0.7l2.1,4.6l4.1-5.5l11.8,17.9h8.9L39.3,21.8  C38.5,20.7,36.9,20.7,36.2,21.8z" fill="#FFFFFF"/><polyline fill="none" points="  26.5,37.3 33.5,36.6 35.7,41.2 39.8,35.7 51.6,53.7 " stroke="#2C3E50" stroke-linecap="round" stroke-linejoin="round" stroke-miterlimit="10" stroke-width="2"/><path d="M23.4,21.8l-4.8,7.8l4.1-2.3l2.1,4.6l6.6-2.7l-4.9-7.4C25.8,20.7,24.1,20.7,23.4,21.8z" fill="#FFFFFF"/><polyline fill="none" points="  18.6,29.6 22.7,27.3 24.8,31.9 31.4,29.2 " stroke="#2C3E50" stroke-linecap="round" stroke-linejoin="round" stroke-miterlimit="10" stroke-width="2"/><line fill="none" stroke="#2C3E50" stroke-linecap="round" stroke-linejoin="round" stroke-miterlimit="10" stroke-width="2" x1="44" x2="55.8" y1="35.7" y2="53.7"/><path d="  M16,53.7l20.2-31.9c0.7-1.1,2.4-1.2,3.1,0l21.2,31.9" fill="none" stroke="#2C3E50" stroke-linecap="round" stroke-linejoin="round" stroke-miterlimit="10" stroke-width="2"/><path d="  M3.6,53.7l19.8-31.9c0.7-1.1,2.4-1.2,3.1,0l4.9,7.4" fill="none" stroke="#2C3E50" stroke-linecap="round" stroke-linejoin="round" stroke-miterlimit="10" stroke-width="2"/><polyline fill="#EA685E" points="25,10 35,10 33,13.3 35,16 25,16 "/><line fill="none" stroke="#2C3E50" stroke-linecap="round" stroke-linejoin="round" stroke-miterlimit="10" stroke-width="2" x1="25" x2="25" y1="20" y2="10"/><polyline fill="none" points="  28,10 35,10 33,13.3 35,16 28,16 " stroke="#2C3E50" stroke-linecap="round" stroke-linejoin="round" stroke-miterlimit="10" stroke-width="2"/></svg>