<?xml version="1.0" ?><!DOCTYPE svg  PUBLIC '-//W3C//DTD SVG 1.1//EN'  'http://www.w3.org/Graphics/SVG/1.1/DTD/svg11.dtd'><svg enable-background="new 0 0 64 64" id="Layer_1" version="1.1" viewBox="0 0 64 64" xml:space="preserve" xmlns="http://www.w3.org/2000/svg" xmlns:xlink="http://www.w3.org/1999/xlink"><rect fill="#4B687F" height="42" width="42" x="11" y="11"/><rect fill="#FFFFFF" height="34" width="34" x="15" y="15"/><rect fill="none" height="34" stroke="#2C3E50" stroke-linecap="round" stroke-linejoin="round" stroke-miterlimit="10" stroke-width="2" width="34" x="15" y="15"/><rect fill="none" height="42" stroke="#2C3E50" stroke-linecap="round" stroke-linejoin="round" stroke-miterlimit="10" stroke-width="2" width="42" x="11" y="11"/><path d="  M30,27c-4.9,0-7.6,5.3-7.6,8.7" fill="none" stroke="#2C3E50" stroke-linecap="round" stroke-linejoin="round" stroke-miterlimit="10" stroke-width="2"/><line fill="none" stroke="#2C3E50" stroke-linecap="round" stroke-linejoin="round" stroke-miterlimit="10" stroke-width="2" x1="30" x2="23" y1="27" y2="27"/><rect fill="#EA685E" height="4" width="4" x="20" y="36"/><rect fill="#EA685E" height="4" width="4" x="40" y="36"/><rect fill="none" height="4" stroke="#2C3E50" stroke-linecap="round" stroke-linejoin="round" stroke-miterlimit="10" stroke-width="2" width="4" x="20" y="36"/><rect fill="#E64C3C" height="4" width="4" x="30" y="25"/><rect fill="none" height="4" stroke="#2C3E50" stroke-linecap="round" stroke-linejoin="round" stroke-miterlimit="10" stroke-width="2" width="4" x="30" y="25"/><circle cx="20.9" cy="26.6" fill="#3B97D3" r="1.9"/><circle cx="43.5" cy="26.6" fill="#3B97D3" r="1.9"/><circle cx="20.9" cy="26.6" fill="none" r="1.9" stroke="#2C3E50" stroke-linecap="round" stroke-linejoin="round" stroke-miterlimit="10" stroke-width="2"/><path d="  M34.4,27c4.9,0,7.6,5.3,7.6,8.7" fill="none" stroke="#2C3E50" stroke-linecap="round" stroke-linejoin="round" stroke-miterlimit="10" stroke-width="2"/><line fill="none" stroke="#2C3E50" stroke-linecap="round" stroke-linejoin="round" stroke-miterlimit="10" stroke-width="2" x1="35" x2="41" y1="27" y2="27"/><rect fill="none" height="4" stroke="#2C3E50" stroke-linecap="round" stroke-linejoin="round" stroke-miterlimit="10" stroke-width="2" width="4" x="40" y="36"/><circle cx="43.5" cy="26.6" fill="none" r="1.9" stroke="#2C3E50" stroke-linecap="round" stroke-linejoin="round" stroke-miterlimit="10" stroke-width="2"/></svg>