<?xml version="1.0" ?><!DOCTYPE svg  PUBLIC '-//W3C//DTD SVG 1.1//EN'  'http://www.w3.org/Graphics/SVG/1.1/DTD/svg11.dtd'><svg enable-background="new 0 0 64 64" id="Layer_1" version="1.1" viewBox="0 0 64 64" xml:space="preserve" xmlns="http://www.w3.org/2000/svg" xmlns:xlink="http://www.w3.org/1999/xlink"><path d="M40,57v-8.2c0,0,9.3-5,12.4-18.3C54.7,21.1,52,14.3,46,10C43,8,39.2,7.4,35.8,7.4c-2.6,0-5.1,0.4-6.9,0.9  c-5.6,1.6-10,6.6-13.7,17.8c-1.2,3.7-5.2,6.4-4.1,7.5c1.1,1.1,2.7,1.3,2.7,1.3s1.5,2.7-1.5,8.8c-1.6,3.3,9.6,6,9.6,6V57" fill="#D4C8BC"/><path d="  M40,57v-8.2c0,0,9.3-5,12.4-18.3C54.7,21.1,52,14.3,46,10C43,8,39.2,7.4,35.8,7.4c-2.6,0-5.1,0.4-6.9,0.9c-5.6,1.6-10,6.6-13.7,17.8  c-1.2,3.7-5.2,6.4-4.1,7.5c1.1,1.1,2.7,1.3,2.7,1.3s1.5,2.7-1.5,8.8c-1.6,3.3,9.6,6,9.6,6V57" fill="none" stroke="#2C3E50" stroke-linecap="round" stroke-linejoin="round" stroke-miterlimit="10" stroke-width="2"/><rect fill="#4B687F" height="2.9" width="5.1" x="33" y="36.1"/><path d="M38.6,35.4c0,0,0-1,0-1c0.3-1,0.9-2.4,2.2-3.7c2.9-2.9,2.9-7.1,0-10.1c-1.3-1.4-3.2-2.2-5.1-2.2l0,0  c-1.9,0-3.7,0.8-5.1,2.2c-2.9,3-2.9,7.2,0,10.1c1.3,1.3,1.9,3.7,2.2,4.7" fill="#FFD766"/><path d="  M38.6,34.4C38.6,34.4,38.6,34.4,38.6,34.4c0.3-1,0.8-2.4,2.1-3.7c2.9-2.9,2.9-7.1,0-10.1c-1.3-1.4-3.2-2.2-5.1-2.2l0,0  c-1.9,0-3.7,0.8-5.1,2.2c-2.9,3-2.9,7.2,0,10.1c1.3,1.3,1.9,2.7,2.2,3.7" fill="none" stroke="#2C3E50" stroke-linecap="round" stroke-linejoin="round" stroke-miterlimit="10" stroke-width="2"/><line fill="none" stroke="#2C3E50" stroke-linecap="round" stroke-linejoin="round" stroke-miterlimit="10" stroke-width="2" x1="32" x2="39" y1="36" y2="36"/><line fill="none" stroke="#2C3E50" stroke-linecap="round" stroke-linejoin="round" stroke-miterlimit="10" stroke-width="2" x1="33" x2="38" y1="39" y2="39"/><line fill="none" stroke="#2C3E50" stroke-linecap="round" stroke-linejoin="round" stroke-miterlimit="10" stroke-width="2" x1="34" x2="37" y1="41" y2="41"/><line fill="none" stroke="#2C3E50" stroke-linecap="round" stroke-linejoin="round" stroke-miterlimit="10" stroke-width="2" x1="35" x2="35" y1="16" y2="12"/><line fill="none" stroke="#2C3E50" stroke-linecap="round" stroke-linejoin="round" stroke-miterlimit="10" stroke-width="2" x1="46" x2="50" y1="26" y2="26"/><line fill="none" stroke="#2C3E50" stroke-linecap="round" stroke-linejoin="round" stroke-miterlimit="10" stroke-width="2" x1="22" x2="26" y1="26" y2="26"/><line fill="none" stroke="#2C3E50" stroke-linecap="round" stroke-linejoin="round" stroke-miterlimit="10" stroke-width="2" x1="43.7" x2="46.7" y1="18.7" y2="15.7"/><line fill="none" stroke="#2C3E50" stroke-linecap="round" stroke-linejoin="round" stroke-miterlimit="10" stroke-width="2" x1="27.9" x2="24.9" y1="18.7" y2="15.7"/><polyline fill="none" points="  35.7,25.3 34.1,28.2 37.4,28.2 35.7,31.1 " stroke="#2C3E50" stroke-linecap="round" stroke-linejoin="round" stroke-miterlimit="10" stroke-width="2"/></svg>