<?xml version="1.0" ?><!DOCTYPE svg  PUBLIC '-//W3C//DTD SVG 1.1//EN'  'http://www.w3.org/Graphics/SVG/1.1/DTD/svg11.dtd'><svg enable-background="new 0 0 64 64" id="Layer_1" version="1.1" viewBox="0 0 64 64" xml:space="preserve" xmlns="http://www.w3.org/2000/svg" xmlns:xlink="http://www.w3.org/1999/xlink"><path d="M9,48V20c0-2.2,1.8-4,4-4h42v32" fill="#4B687F"/><path d="M40,46c0,1.1-0.9,2-2,2H27c-1.1,0-2-0.9-2-2H6v2c0,2.2,1.8,4,4,4h44c2.2,0,4-1.8,4-4v-2H40z" fill="#B7B7B7"/><path d="M25,46c0,0.7,0.4,1.4,1,1.7l1.6,0.3h8.5c0.2-3,0.4-8.5-0.6-8.8c-1.2-0.4-5.2-1.7-5.2-1.7l0,0l-3.7,3.3  l-3.2-3.6c0,0-4.4,0.8-5.6,1.1S15.9,44,15.8,46l0.3,0H25z" fill="#EA685E"/><path d="  M40,46c0,1.1-0.9,2-2,2H27c-1.1,0-2-0.9-2-2H6v2c0,2.2,1.8,4,4,4h44c2.2,0,4-1.8,4-4v-2H40z" fill="none" stroke="#2C3E50" stroke-linecap="round" stroke-linejoin="round" stroke-miterlimit="10" stroke-width="2"/><path d="  M31,16H13c-2.2,0-4,1.8-4,4v26" fill="none" stroke="#2C3E50" stroke-linecap="round" stroke-linejoin="round" stroke-miterlimit="10" stroke-width="2"/><line fill="none" stroke="#2C3E50" stroke-linecap="round" stroke-linejoin="round" stroke-miterlimit="10" stroke-width="2" x1="55" x2="55" y1="46" y2="30"/><path d="  M36.6,43.8c0-2-0.1-4.8-1.3-5.1S30,37.3,30,37.3v0l-3.5,3.5l-3.4-3.5c0,0-4.3,1.1-5.6,1.4C16.3,39,16,41.8,16,43.8" fill="none" stroke="#2C3E50" stroke-linecap="round" stroke-linejoin="round" stroke-miterlimit="10" stroke-width="2"/><path d="M30.6,25.9c-0.6-2.7-3.1-3.1-4.3-3.1c-1.5,0-3.9,0.3-4.3,3.5c-0.3,2.4,0.8,5.6,1.6,6.6  c0.9,1.2,1.7,1.8,2.9,1.8c1.1,0,1.8-0.5,2.8-1.9C30.1,31.4,31.1,28.1,30.6,25.9z" fill="#D4C8BC"/><path d="  M30.6,25.9c-0.6-2.7-3.1-3.1-4.3-3.1c-1.5,0-3.9,0.3-4.3,3.5c-0.3,2.4,0.8,5.6,1.6,6.6c0.9,1.2,1.7,1.8,2.9,1.8  c1.1,0,1.8-0.5,2.8-1.9C30.1,31.4,31.1,28.1,30.6,25.9z" fill="none" stroke="#2C3E50" stroke-linecap="round" stroke-linejoin="round" stroke-miterlimit="10" stroke-width="2"/><path d="M55,24V14c0-1.1-0.9-2-2-2H37c-1.1,0-2,0.9-2,2v10c0,1.1,0.9,2,2,2h3v3.7l4.6-3.7H53C54.1,26,55,25.1,55,24z  " fill="#FFD766"/><path d="  M55,24V14c0-1.1-0.9-2-2-2H37c-1.1,0-2,0.9-2,2v10c0,1.1,0.9,2,2,2h3v3.7l4.6-3.7H53C54.1,26,55,25.1,55,24z" fill="none" stroke="#2C3E50" stroke-linecap="round" stroke-linejoin="round" stroke-miterlimit="10" stroke-width="2"/></svg>