<?xml version="1.0" ?><!DOCTYPE svg  PUBLIC '-//W3C//DTD SVG 1.1//EN'  'http://www.w3.org/Graphics/SVG/1.1/DTD/svg11.dtd'><svg enable-background="new 0 0 64 64" id="Layer_1" version="1.1" viewBox="0 0 64 64" xml:space="preserve" xmlns="http://www.w3.org/2000/svg" xmlns:xlink="http://www.w3.org/1999/xlink"><polygon fill="#3B97D3" points="53,32.2 42,48.8 6.5,48.8 6.5,51.2 43.8,51.2 53,37 "/><polyline fill="none" points="  6.5,48.8 42,48.8 53,32.2 " stroke="#2C3E50" stroke-linecap="round" stroke-linejoin="round" stroke-miterlimit="10" stroke-width="2"/><line fill="none" stroke="#2C3E50" stroke-linecap="round" stroke-linejoin="round" stroke-miterlimit="10" stroke-width="2" x1="37.5" x2="42" y1="48.8" y2="55"/><line fill="none" stroke="#2C3E50" stroke-linecap="round" stroke-linejoin="round" stroke-miterlimit="10" stroke-width="2" x1="14" x2="9.5" y1="48.8" y2="55"/><line fill="none" stroke="#2C3E50" stroke-linecap="round" stroke-linejoin="round" stroke-miterlimit="10" stroke-width="2" x1="33.7" x2="33.7" y1="7.9" y2="4.5"/><path d="  M34,45.4V26.9" fill="none" stroke="#2C3E50" stroke-linecap="round" stroke-linejoin="round" stroke-miterlimit="10" stroke-width="2"/><path d="M61,19.6c0,2.5-3.1,4.8-6.9,4.8c-3.3,0-6.1-1.6-6.8-3.6c-0.7,2.1-3.4,3.6-6.8,3.6s-6.1-1.6-6.8-3.6  c-0.7,2.1-3.4,3.6-6.8,3.6s-6.1-1.6-6.8-3.6c-0.7,2.1-3.4,3.6-6.8,3.6c-3.8,0-6.9-2.3-6.9-4.8L33.7,7.9L61,19.6z" fill="#FFD766"/><path d="  M61,19.6c0,2.5-3.1,4.8-6.9,4.8c-3.3,0-6.1-1.6-6.8-3.6c-0.7,2.1-3.4,3.6-6.8,3.6s-6.1-1.6-6.8-3.6c-0.7,2.1-3.4,3.6-6.8,3.6  s-6.1-1.6-6.8-3.6c-0.7,2.1-3.4,3.6-6.8,3.6c-3.8,0-6.9-2.3-6.9-4.8L33.7,7.9L61,19.6z" fill="none" stroke="#2C3E50" stroke-linecap="round" stroke-linejoin="round" stroke-miterlimit="10" stroke-width="2"/><line fill="none" stroke="#2C3E50" stroke-dasharray="0,3" stroke-linecap="round" stroke-linejoin="round" stroke-miterlimit="10" stroke-width="2" x1="21.6" x2="33" y1="18.6" y2="10.1"/><line fill="none" stroke="#2C3E50" stroke-dasharray="0,3" stroke-linecap="round" stroke-linejoin="round" stroke-miterlimit="10" stroke-width="2" x1="46" x2="34.6" y1="18.6" y2="10.1"/><line fill="none" stroke="#2C3E50" stroke-dasharray="0,3" stroke-linecap="round" stroke-linejoin="round" stroke-miterlimit="10" stroke-width="2" x1="33.7" x2="33.7" y1="18.1" y2="11.9"/></svg>