<?xml version="1.0" ?><!DOCTYPE svg  PUBLIC '-//W3C//DTD SVG 1.1//EN'  'http://www.w3.org/Graphics/SVG/1.1/DTD/svg11.dtd'><svg enable-background="new 0 0 64 64" id="Layer_1" version="1.1" viewBox="0 0 64 64" xml:space="preserve" xmlns="http://www.w3.org/2000/svg" xmlns:xlink="http://www.w3.org/1999/xlink"><path d="M51,49V28c0-1.4,1.1-2.5,2.5-2.5S56,26.6,56,28v21.8c0,2.5-2.7,5.2-5.1,5.2H13.6C11.1,55,9,52.3,9,49.8V12.3  C9,10,10.9,8,13.1,8h27.7c2.5,0,5.2,1.8,5.2,4.3v37.2c0,0-0.2,5.5,4.9,5.5" fill="#E5E5E5"/><g><path d="M51,28c0-1.4,1.1-2.5,2.5-2.5H46v24c0,0-0.2,5.5,4.9,5.5l0.1-6V28z" fill="#B7B7B7"/><path d="M53.5,55" fill="#E5E5E5"/></g><path d="  M29,14.7v4.1V23c0,0,4.4,0.6,4.4-1.6c0-2.8-2.8-2.1-3.5-2.4c0.7-0.2,2.8-0.2,2.8-2.1C32.7,14.4,29,14.7,29,14.7z" fill="none" stroke="#2C3E50" stroke-linecap="round" stroke-linejoin="round" stroke-miterlimit="10" stroke-width="2"/><path d="  M26,20.5c0,1.4-1.1,2.5-2.5,2.5S21,21.9,21,20.5v-3.3c0-1.4,1.1-2.5,2.5-2.5s2.5,1.1,2.5,2.5V20.5z" fill="none" stroke="#2C3E50" stroke-linecap="round" stroke-linejoin="round" stroke-miterlimit="10" stroke-width="2"/><path d="  M13.6,21.5c0.4,0.9,1.1,1.6,2.1,1.6c1.4,0,2.3-1.1,2.3-2.5V15h-2" fill="none" stroke="#2C3E50" stroke-linecap="round" stroke-linejoin="round" stroke-miterlimit="10" stroke-width="2"/><path d="  M51,49V28c0-1.4,1.1-2.5,2.5-2.5S56,26.6,56,28v21.8c0,2.5-2.7,5.2-5.1,5.2H13.6C11.1,55,9,52.3,9,49.8V12.3C9,10,10.9,8,13.1,8  h27.7c2.5,0,5.2,1.8,5.2,4.3v37.2c0,0-0.2,5.5,4.9,5.5" fill="none" stroke="#2C3E50" stroke-linecap="round" stroke-linejoin="round" stroke-miterlimit="10" stroke-width="2"/><path d="  M40.8,17.2c0-1.4-1.1-2.5-2.4-2.5c-1.4,0-2.4,1.1-2.4,2.5c0,0.9,4.9,2,4.9,3.3c0,1.4-1.1,2.5-2.4,2.5c-1.4,0-2.4-1.1-2.4-2.5" fill="none" stroke="#2C3E50" stroke-linecap="round" stroke-linejoin="round" stroke-miterlimit="10" stroke-width="2"/><line fill="none" stroke="#2C3E50" stroke-linecap="round" stroke-linejoin="round" stroke-miterlimit="10" stroke-width="2" x1="15" x2="21" y1="28" y2="28"/><line fill="none" stroke="#2C3E50" stroke-linecap="round" stroke-linejoin="round" stroke-miterlimit="10" stroke-width="2" x1="15" x2="25" y1="31" y2="31"/><line fill="none" stroke="#2C3E50" stroke-linecap="round" stroke-linejoin="round" stroke-miterlimit="10" stroke-width="2" x1="15" x2="24" y1="34" y2="34"/><line fill="none" stroke="#2C3E50" stroke-linecap="round" stroke-linejoin="round" stroke-miterlimit="10" stroke-width="2" x1="30" x2="36" y1="43" y2="43"/><line fill="none" stroke="#2C3E50" stroke-linecap="round" stroke-linejoin="round" stroke-miterlimit="10" stroke-width="2" x1="30" x2="40" y1="46" y2="46"/><line fill="none" stroke="#2C3E50" stroke-linecap="round" stroke-linejoin="round" stroke-miterlimit="10" stroke-width="2" x1="30" x2="39" y1="49" y2="49"/><line fill="none" stroke="#2C3E50" stroke-linecap="round" stroke-linejoin="round" stroke-miterlimit="10" stroke-width="2" x1="30" x2="37" y1="28" y2="28"/><line fill="none" stroke="#2C3E50" stroke-linecap="round" stroke-linejoin="round" stroke-miterlimit="10" stroke-width="2" x1="30" x2="40" y1="31" y2="31"/><line fill="none" stroke="#2C3E50" stroke-linecap="round" stroke-linejoin="round" stroke-miterlimit="10" stroke-width="2" x1="30" x2="40" y1="37" y2="37"/><line fill="none" stroke="#2C3E50" stroke-linecap="round" stroke-linejoin="round" stroke-miterlimit="10" stroke-width="2" x1="30" x2="39" y1="34" y2="34"/><line fill="none" stroke="#2C3E50" stroke-linecap="round" stroke-linejoin="round" stroke-miterlimit="10" stroke-width="2" x1="15" x2="22" y1="40" y2="40"/><line fill="none" stroke="#2C3E50" stroke-linecap="round" stroke-linejoin="round" stroke-miterlimit="10" stroke-width="2" x1="15" x2="25" y1="43" y2="43"/><line fill="none" stroke="#2C3E50" stroke-linecap="round" stroke-linejoin="round" stroke-miterlimit="10" stroke-width="2" x1="15" x2="25" y1="49" y2="49"/><line fill="none" stroke="#2C3E50" stroke-linecap="round" stroke-linejoin="round" stroke-miterlimit="10" stroke-width="2" x1="15" x2="24" y1="46" y2="46"/></svg>