<?xml version="1.0" ?><!DOCTYPE svg  PUBLIC '-//W3C//DTD SVG 1.1//EN'  'http://www.w3.org/Graphics/SVG/1.1/DTD/svg11.dtd'><svg enable-background="new 0 0 64 64" id="Layer_1" version="1.1" viewBox="0 0 64 64" xml:space="preserve" xmlns="http://www.w3.org/2000/svg" xmlns:xlink="http://www.w3.org/1999/xlink"><path d="M29,52H13c-1.1,0-2,0.9-2,2v2c0,1.1,0.9,2,2,2h16c1.1,0,2-0.9,2-2v-2C31,52.9,30.1,52,29,52z" fill="#3B97D3"/><path d="M29,46H13c-1.1,0-2,0.9-2,2v2c0,1.1,0.9,2,2,2h16c1.1,0,2-0.9,2-2v-2C31,46.9,30.1,46,29,46z" fill="#3B97D3"/><path d="M29,40H13c-1.1,0-2,0.9-2,2v2c0,1.1,0.9,2,2,2h16c1.1,0,2-0.9,2-2v-2C31,40.9,30.1,40,29,40z" fill="#3B97D3"/><path d="M29,34H13c-1.1,0-2,0.9-2,2v2c0,1.1,0.9,2,2,2h16c1.1,0,2-0.9,2-2v-2C31,34.9,30.1,34,29,34z" fill="#3B97D3"/><path d="M29,28H13c-1.1,0-2,0.9-2,2v2c0,1.1,0.9,2,2,2h16c1.1,0,2-0.9,2-2v-2C31,28.9,30.1,28,29,28z" fill="#3B97D3"/><path d="  M29,52H13c-1.1,0-2,0.9-2,2v2c0,1.1,0.9,2,2,2h16c1.1,0,2-0.9,2-2v-2C31,52.9,30.1,52,29,52z" fill="none" stroke="#2C3E50" stroke-linecap="round" stroke-linejoin="round" stroke-miterlimit="10" stroke-width="2"/><path d="  M29,46H13c-1.1,0-2,0.9-2,2v2c0,1.1,0.9,2,2,2h16c1.1,0,2-0.9,2-2v-2C31,46.9,30.1,46,29,46z" fill="none" stroke="#2C3E50" stroke-linecap="round" stroke-linejoin="round" stroke-miterlimit="10" stroke-width="2"/><path d="  M29,40H13c-1.1,0-2,0.9-2,2v2c0,1.1,0.9,2,2,2h16c1.1,0,2-0.9,2-2v-2C31,40.9,30.1,40,29,40z" fill="none" stroke="#2C3E50" stroke-linecap="round" stroke-linejoin="round" stroke-miterlimit="10" stroke-width="2"/><path d="  M29,34H13c-1.1,0-2,0.9-2,2v2c0,1.1,0.9,2,2,2h16c1.1,0,2-0.9,2-2v-2C31,34.9,30.1,34,29,34z" fill="none" stroke="#2C3E50" stroke-linecap="round" stroke-linejoin="round" stroke-miterlimit="10" stroke-width="2"/><path d="  M29,28H13c-1.1,0-2,0.9-2,2v2c0,1.1,0.9,2,2,2h16c1.1,0,2-0.9,2-2v-2C31,28.9,30.1,28,29,28z" fill="none" stroke="#2C3E50" stroke-linecap="round" stroke-linejoin="round" stroke-miterlimit="10" stroke-width="2"/><path d="M17,12c-1.1,0-6,10.9-6,12v2c0,1.1,0.9,2,2,2h16c1.1,0,2-0.9,2-2v-2c0-1.1-4.9-12-6-12" fill="#E5E5E5"/><path d="  M17,12c-1.1,0-6,10.9-6,12v2c0,1.1,0.9,2,2,2h16c1.1,0,2-0.9,2-2v-2c0-1.1-4.9-12-6-12" fill="none" stroke="#2C3E50" stroke-linecap="round" stroke-linejoin="round" stroke-miterlimit="10" stroke-width="2"/><line fill="none" stroke="#2C3E50" stroke-linecap="round" stroke-linejoin="round" stroke-miterlimit="10" stroke-width="2" x1="13" x2="29" y1="12" y2="12"/><rect fill="#E64C3C" height="4" width="10" x="16" y="5"/><rect fill="none" height="4" stroke="#2C3E50" stroke-linecap="round" stroke-linejoin="round" stroke-miterlimit="10" stroke-width="2" width="10" x="16" y="5"/><path d="M40,58h12l1.2-13.7L53,44.2c-1.5-0.1-6.2-3.1-8.6-3.1S39.5,43,39.5,43l-0.8,0.6L40,58z" fill="#3B97D3"/><polyline fill="none" points="  38,35 40,58 52,58 54,35 " stroke="#2C3E50" stroke-linecap="round" stroke-linejoin="round" stroke-miterlimit="10" stroke-width="2"/><path d="  M39.5,43c0,0,2.5-1.9,4.9-1.9s7.1,3,8.6,3.1" fill="none" stroke="#2C3E50" stroke-linecap="round" stroke-linejoin="round" stroke-miterlimit="10" stroke-width="2"/><path d="M51,32.9c0,1.4-1.1,2.5-2.5,2.5c-1.4,0-2.5-1.1-2.5-2.5c0-2.6,2.5-4.6,2.5-4.6S51,30.1,51,32.9z" fill="#3B97D3"/><path d="M45,26.9c0,1.4-1.1,2.5-2.5,2.5c-1.4,0-2.5-1.1-2.5-2.5c0-2.6,2.5-4.6,2.5-4.6S45,24.1,45,26.9z" fill="#3B97D3"/><path d="  M51,32.9c0,1.4-1.1,2.5-2.5,2.5c-1.4,0-2.5-1.1-2.5-2.5c0-2.6,2.5-4.6,2.5-4.6S51,30.1,51,32.9z" fill="none" stroke="#2C3E50" stroke-linecap="round" stroke-linejoin="round" stroke-miterlimit="10" stroke-width="2"/><path d="  M45,26.9c0,1.4-1.1,2.5-2.5,2.5c-1.4,0-2.5-1.1-2.5-2.5c0-2.6,2.5-4.6,2.5-4.6S45,24.1,45,26.9z" fill="none" stroke="#2C3E50" stroke-linecap="round" stroke-linejoin="round" stroke-miterlimit="10" stroke-width="2"/></svg>