<?xml version="1.0" ?><!DOCTYPE svg  PUBLIC '-//W3C//DTD SVG 1.1//EN'  'http://www.w3.org/Graphics/SVG/1.1/DTD/svg11.dtd'><svg enable-background="new 0 0 64 64" id="Layer_1" version="1.1" viewBox="0 0 64 64" xml:space="preserve" xmlns="http://www.w3.org/2000/svg" xmlns:xlink="http://www.w3.org/1999/xlink"><path d="M44.9,13c-3.6-3-8.1-4.6-12.9-4.6c-4.7,0-9.3,1.7-12.9,4.6H14c-1.7,0-3,1.3-3,3v36c0,1.7,1.3,3,3,3h36  c1.7,0,3-1.3,3-3V16c0-1.7-1.3-3-3-3H44.9z" fill="#2980BA"/><path d="M31.6,8.4c-4.6,0.1-9,1.7-12.5,4.6H14c-1.7,0-3,1.3-3,3v36c0,1.7,1.3,3,3,3h17.6V8.4z" fill="#3B97D3"/><path d="  M44.9,13c-3.6-3-8.1-4.6-12.9-4.6c-4.7,0-9.3,1.7-12.9,4.6H14c-1.7,0-3,1.3-3,3v36c0,1.7,1.3,3,3,3h36c1.7,0,3-1.3,3-3V16  c0-1.7-1.3-3-3-3H44.9z" fill="none" stroke="#2C3E50" stroke-linecap="round" stroke-linejoin="round" stroke-miterlimit="10" stroke-width="2"/><path d="M31.9,13.4c-5.4,0-10.3,2.7-13.2,6.8l6.5,5.1l13.4-0.2l6.4-5.2C42,16,37.3,13.4,31.9,13.4z" fill="#E5E5E5"/><path d="  M31.9,13.4c-5.4,0-10.3,2.7-13.2,6.8l6.5,5.1l13.4-0.2l6.4-5.2C42,16,37.3,13.4,31.9,13.4z" fill="none" stroke="#2C3E50" stroke-linecap="round" stroke-linejoin="round" stroke-miterlimit="10" stroke-width="2"/><line fill="none" stroke="#2C3E50" stroke-linecap="round" stroke-linejoin="round" stroke-miterlimit="10" stroke-width="2" x1="32" x2="32" y1="22" y2="17"/><line fill="none" stroke="#2C3E50" stroke-dasharray="0,3" stroke-linecap="round" stroke-linejoin="round" stroke-miterlimit="10" stroke-width="2" x1="32" x2="32" y1="55" y2="31"/><circle cx="32" cy="24" fill="none" r="1" stroke="#2C3E50" stroke-linecap="round" stroke-linejoin="round" stroke-miterlimit="10" stroke-width="2"/><circle cx="15" cy="51" fill="#2C3E50" r="1"/><circle cx="49" cy="51" fill="#2C3E50" r="1"/></svg>