<?xml version="1.0" ?><!DOCTYPE svg  PUBLIC '-//W3C//DTD SVG 1.1//EN'  'http://www.w3.org/Graphics/SVG/1.1/DTD/svg11.dtd'><svg enable-background="new 0 0 64 64" id="Layer_1" version="1.1" viewBox="0 0 64 64" xml:space="preserve" xmlns="http://www.w3.org/2000/svg" xmlns:xlink="http://www.w3.org/1999/xlink"><path d="M36,21H7c-2.2,0-4,1.8-4,4v18c0,2.2,1.8,4,4,4h4v6l8-6h13.3c2.2,0,4.5-2.3,4.5-4.5" fill="#3B97D3"/><path d="M26,35V17c0-2.2,1.8-4,4-4h27c2.2,0,4,1.8,4,4v18c0,2.2-1.8,4-4,4h-5v6l-8.7-6H30C27.8,39,26,37.2,26,35z" fill="#FFD766"/><path d="  M26,35V17c0-2.2,1.8-4,4-4h27c2.2,0,4,1.8,4,4v18c0,2.2-1.8,4-4,4h-5v6l-8.7-6H30C27.8,39,26,37.2,26,35z" fill="none" stroke="#2C3E50" stroke-linecap="round" stroke-linejoin="round" stroke-miterlimit="10" stroke-width="2"/><path d="  M22,21H7c-2.2,0-4,1.8-4,4v18c0,2.2,1.8,4,4,4h4v6l8-6h13.3c2.2,0,4.5-2.3,4.5-4.5" fill="none" stroke="#2C3E50" stroke-linecap="round" stroke-linejoin="round" stroke-miterlimit="10" stroke-width="2"/><path d="  M34,22h8.1c0,0-2.5,6.5-7.8,8" fill="none" stroke="#2C3E50" stroke-linecap="round" stroke-linejoin="round" stroke-miterlimit="10" stroke-width="2"/><polyline fill="none" points="  38,34 38,28.2 41.5,29.2 " stroke="#2C3E50" stroke-linecap="round" stroke-linejoin="round" stroke-miterlimit="10" stroke-width="2"/><line fill="none" stroke="#2C3E50" stroke-linecap="round" stroke-linejoin="round" stroke-miterlimit="10" stroke-width="2" x1="38" x2="38" y1="22" y2="19"/><rect fill="none" height="6" stroke="#2C3E50" stroke-linecap="round" stroke-linejoin="round" stroke-miterlimit="10" stroke-width="2" width="8" x="45" y="22"/><line fill="none" stroke="#2C3E50" stroke-linecap="round" stroke-linejoin="round" stroke-miterlimit="10" stroke-width="2" x1="45" x2="53" y1="25" y2="25"/><line fill="none" stroke="#2C3E50" stroke-linecap="round" stroke-linejoin="round" stroke-miterlimit="10" stroke-width="2" x1="46" x2="52" y1="32" y2="32"/><line fill="none" stroke="#2C3E50" stroke-linecap="round" stroke-linejoin="round" stroke-miterlimit="10" stroke-width="2" x1="44.6" x2="46.7" y1="19" y2="22"/><polyline fill="none" points="  48,19 49,22 49,34 " stroke="#2C3E50" stroke-linecap="round" stroke-linejoin="round" stroke-miterlimit="10" stroke-width="2"/><line fill="none" stroke="#2C3E50" stroke-linecap="round" stroke-linejoin="round" stroke-miterlimit="10" stroke-width="2" x1="53" x2="51.3" y1="19" y2="22"/><polyline fill="none" points="  9.9,38.1 12.3,30 14.7,38.1 " stroke="#2C3E50" stroke-linecap="round" stroke-linejoin="round" stroke-miterlimit="10" stroke-width="2"/><line fill="none" stroke="#2C3E50" stroke-linecap="round" stroke-linejoin="round" stroke-miterlimit="10" stroke-width="2" x1="10.6" x2="13.9" y1="35.7" y2="35.7"/><path d="  M18,38v-8c0,0,1.4,0,2,0s1.9,0.1,1.9,1.3S21.1,33,20.1,33c-1,0-2.1,0-2.1,0h2.4c0,0,2.4-0.1,2.4,2.7c0,2.1-1,2.3-2.4,2.3  C19,38,18,38,18,38z" fill="none" stroke="#2C3E50" stroke-linecap="round" stroke-linejoin="round" stroke-miterlimit="10" stroke-width="2"/></svg>