<?xml version="1.0" ?><!DOCTYPE svg  PUBLIC '-//W3C//DTD SVG 1.1//EN'  'http://www.w3.org/Graphics/SVG/1.1/DTD/svg11.dtd'><svg enable-background="new 0 0 64 64" id="Layer_1" version="1.1" viewBox="0 0 64 64" xml:space="preserve" xmlns="http://www.w3.org/2000/svg" xmlns:xlink="http://www.w3.org/1999/xlink"><path d="M51.5,29.2c0-11-9-20-20-20s-20,9-20,20c0,7.6,5.2,13.8,10.4,17.5c6.6,4.7,20,9.1,20,9.1v-9.5l0,0  C47.6,42.9,51.5,36.5,51.5,29.2z" fill="#3B97D3"/><path d="  M51.5,29.2c0-11-9-20-20-20s-20,9-20,20c0,7.6,5.2,13.8,10.4,17.5c6.6,4.7,20,9.1,20,9.1v-9.5l0,0C47.6,42.9,51.5,36.5,51.5,29.2z" fill="none" stroke="#2C3E50" stroke-linecap="round" stroke-linejoin="round" stroke-miterlimit="10" stroke-width="2"/><circle cx="29.1" cy="26.8" fill="#2980BA" r="8.6"/><circle cx="34.3" cy="19.8" fill="#EA685E" r="3"/><circle cx="34.3" cy="33.7" fill="#EA685E" r="3"/><circle cx="21.3" cy="26.8" fill="#EA685E" r="3"/><circle cx="34.3" cy="19.8" fill="none" r="3" stroke="#2C3E50" stroke-linecap="round" stroke-linejoin="round" stroke-miterlimit="10" stroke-width="2"/><circle cx="34.3" cy="33.7" fill="none" r="3" stroke="#2C3E50" stroke-linecap="round" stroke-linejoin="round" stroke-miterlimit="10" stroke-width="2"/><circle cx="21.3" cy="26.8" fill="none" r="3" stroke="#2C3E50" stroke-linecap="round" stroke-linejoin="round" stroke-miterlimit="10" stroke-width="2"/><line fill="none" stroke="#2C3E50" stroke-linecap="round" stroke-linejoin="round" stroke-miterlimit="10" stroke-width="2" x1="24.2" x2="31.7" y1="25.2" y2="21.2"/><line fill="none" stroke="#2C3E50" stroke-linecap="round" stroke-linejoin="round" stroke-miterlimit="10" stroke-width="2" x1="23.9" x2="31.7" y1="28.1" y2="32.3"/></svg>