<?xml version="1.0" ?><svg id="Слой_1" style="enable-background:new 0 0 512 512;" version="1.1" viewBox="0 0 512 512" xml:space="preserve" xmlns="http://www.w3.org/2000/svg" xmlns:xlink="http://www.w3.org/1999/xlink"><style type="text/css">
	.st0{fill:#E5E3E2;stroke:#2C3E50;stroke-width:11;stroke-linecap:round;stroke-linejoin:round;stroke-miterlimit:10;}
	.st1{fill:#F8B41E;stroke:#2C3E50;stroke-width:11;stroke-linecap:round;stroke-linejoin:round;stroke-miterlimit:10;}
	.st2{fill:#009E83;stroke:#2C3E50;stroke-width:11;stroke-linecap:round;stroke-linejoin:round;stroke-miterlimit:10;}
</style><g><path class="st0" d="M369.5,135.9c0,67.1-50.8,161.3-113.5,161.3S142.5,203,142.5,135.9S193.3,14.3,256,14.3   S369.5,68.7,369.5,135.9z"/><path class="st1" d="M193.2,188.5h125.5c0,0-8.6,61.1-62.7,62C201.8,251.3,193.2,188.5,193.2,188.5z"/><path class="st2" d="M464.1,365.8c-19-18-131.7-51.2-131.7-51.2l-76.3,85.3l0,0l0,0l-76.3-85.3c0,0-112.7,33.2-131.7,51.2   c-29.3,27.7-31.6,132-31.6,132h479.2C495.6,497.7,493.4,393.5,464.1,365.8z"/></g></svg>