<?xml version="1.0" ?><svg id="Слой_1" style="enable-background:new 0 0 512 512;" version="1.1" viewBox="0 0 512 512" xml:space="preserve" xmlns="http://www.w3.org/2000/svg" xmlns:xlink="http://www.w3.org/1999/xlink"><style type="text/css">
	.st0{fill:#E5E3E2;stroke:#2C3E50;stroke-width:11;stroke-linecap:round;stroke-linejoin:round;stroke-miterlimit:10;}
	.st1{fill:#EA675C;stroke:#2C3E50;stroke-width:11;stroke-linecap:round;stroke-linejoin:round;stroke-miterlimit:10;}
	.st2{fill:#009E83;stroke:#2C3E50;stroke-width:11;stroke-linecap:round;stroke-linejoin:round;stroke-miterlimit:10;}
	.st3{fill:#3D95D2;stroke:#2C3E50;stroke-width:11;stroke-linecap:round;stroke-linejoin:round;stroke-miterlimit:10;}
	.st4{fill:#F8B41E;stroke:#2C3E50;stroke-width:11;stroke-linecap:round;stroke-linejoin:round;stroke-miterlimit:10;}
	.st5{fill:none;stroke:#2C3E50;stroke-width:11;stroke-linecap:round;stroke-linejoin:round;stroke-miterlimit:10;}
</style><g><path class="st0" d="M287.3,89.1c0,18.5-14,44.5-31.3,44.5s-31.3-26-31.3-44.5s14-33.5,31.3-33.5S287.3,70.6,287.3,89.1z"/><path class="st1" d="M313.4,157.5c-5.2-5-36.3-14.1-36.3-14.1L256,166.9l0,0l0,0l-21.1-23.5c0,0-31.1,9.1-36.3,14.1   c-8.1,7.6-8.7,36.4-8.7,36.4h132.2C322.1,193.9,321.5,165.2,313.4,157.5z"/><path class="st0" d="M110.7,326.7c0,18.5-14,44.5-31.3,44.5s-31.3-26-31.3-44.5c0-18.5,14-33.5,31.3-33.5S110.7,308.1,110.7,326.7z   "/><path class="st2" d="M136.8,395.1c-5.2-5-36.3-14.1-36.3-14.1l-21.1,23.5l0,0l0,0L58.4,381c0,0-31.1,9.1-36.3,14.1   c-8.1,7.6-8.7,36.4-8.7,36.4h132.2C145.5,431.5,144.9,402.7,136.8,395.1z"/><path class="st0" d="M287.3,326.7c0,18.5-14,44.5-31.3,44.5s-31.3-26-31.3-44.5c0-18.5,14-33.5,31.3-33.5S287.3,308.1,287.3,326.7z   "/><path class="st3" d="M313.4,395.1c-5.2-5-36.3-14.1-36.3-14.1L256,404.5l0,0l0,0L234.9,381c0,0-31.1,9.1-36.3,14.1   c-8.1,7.6-8.7,36.4-8.7,36.4h132.2C322.1,431.5,321.5,402.7,313.4,395.1z"/><path class="st0" d="M463.9,326.7c0,18.5-14,44.5-31.3,44.5s-31.3-26-31.3-44.5c0-18.5,14-33.5,31.3-33.5S463.9,308.1,463.9,326.7z   "/><path class="st4" d="M489.9,395.1c-5.2-5-36.3-14.1-36.3-14.1l-21.1,23.5l0,0l0,0L411.5,381c0,0-31.1,9.1-36.3,14.1   c-8.1,7.6-8.7,36.4-8.7,36.4h132.2C498.7,431.5,498,402.7,489.9,395.1z"/><polyline class="st5" points="256,219.3 256,243.3 79.4,243.3 79.4,265.3  "/><polyline class="st5" points="256,265.3 256,243.3 432.6,243.3 432.5,265.3  "/></g></svg>