<?xml version="1.0" ?><svg id="Слой_1" style="enable-background:new 0 0 512 512;" version="1.1" viewBox="0 0 512 512" xml:space="preserve" xmlns="http://www.w3.org/2000/svg" xmlns:xlink="http://www.w3.org/1999/xlink"><style type="text/css">
	.st0{fill:#E84A3C;stroke:#2C3E50;stroke-width:11;stroke-linecap:round;stroke-linejoin:round;stroke-miterlimit:10;}
	.st1{fill:#009E83;stroke:#2C3E50;stroke-width:11;stroke-linecap:round;stroke-linejoin:round;stroke-miterlimit:10;}
	.st2{fill:#F8B41E;stroke:#2C3E50;stroke-width:11;stroke-linecap:round;stroke-linejoin:round;stroke-miterlimit:10;}
	.st3{fill:#3D95D2;stroke:#2C3E50;stroke-width:11;stroke-linecap:round;stroke-linejoin:round;stroke-miterlimit:10;}
</style><path class="st0" d="M452.5,301.2l-40.6-17.8c-11.3,64.8-62.1,116-126.6,128.1L265,452.9l19.5,38.6c108.5-13,194.5-99.2,207.2-207.8  L452.5,301.2z"/><path class="st1" d="M276.3,19.6L295.2,60l-18.5,39.1c70.5,9.2,126.4,64.9,136,135.2l39.7,17.6l39.8-17.6  C482,120.1,390.7,29.3,276.3,19.6z"/><path class="st2" d="M59.6,224l38.9,18.4c6.1-71.3,59.5-129.2,128.8-141.9L246,60.1l-18.7-39.6C114,34.1,25.4,127.6,19.1,242.9  L59.6,224z"/><path class="st3" d="M102.1,292.6l-42.5-19.4l-38.2,18.3C37.6,399.1,125.9,483,235.5,492.4l-19.7-39.4l19.9-40.1  C170.1,404.4,117.1,355.9,102.1,292.6z"/></svg>