<?xml version="1.0" ?><svg id="Слой_1" style="enable-background:new 0 0 512 512;" version="1.1" viewBox="0 0 512 512" xml:space="preserve" xmlns="http://www.w3.org/2000/svg" xmlns:xlink="http://www.w3.org/1999/xlink"><style type="text/css">
	.st0{fill:#4D6A7F;stroke:#2C3E50;stroke-width:11;stroke-linecap:round;stroke-linejoin:round;stroke-miterlimit:10;}
	.st1{fill:#D4C8BC;stroke:#2C3E50;stroke-width:11;stroke-linecap:round;stroke-linejoin:round;stroke-miterlimit:10;}
</style><g><rect class="st0" height="242.2" width="143.8" x="20.5" y="235.9"/><path class="st1" d="M164.2,262.5c0,0,26.6,9.8,40.9-3.8c14.3-13.6,42.3-78.5,69.4-95.8s61.9-77.7,67.2-102.6s12.8-29.4,24.1-24.9   s46,17.4,33.2,80.7c-12.8,63.4-57.4,77-40.8,88.3c16.6,11.3,88.1,3.5,110.2,14.3c18.9,9.2,28.8,21.8,22.8,40.4   c-7.9,24.9-26,31.1-26,31.1s31,4.6,27.8,33.4c-3.6,31.3-30,27.7-30,27.7s26.2,10.9,20.9,35.1c-4.5,20.9-32.8,27.2-32.8,27.2   s17.6,10.1,18.1,26.6c0.6,18.1-10.6,32.1-35.5,31.3c-24.9-0.8-221.1,6.8-233.9,0c-12.8-6.8-35.7-21.9-35.7-21.9V262.5z"/></g></svg>