<?xml version="1.0" ?><svg id="Слой_1" style="enable-background:new 0 0 512 512;" version="1.1" viewBox="0 0 512 512" xml:space="preserve" xmlns="http://www.w3.org/2000/svg" xmlns:xlink="http://www.w3.org/1999/xlink"><style type="text/css">
	.st0{fill:#E5E3E2;stroke:#2C3E50;stroke-width:11;stroke-linecap:round;stroke-linejoin:round;stroke-miterlimit:10;}
	.st1{fill:#3D95D2;stroke:#2C3E50;stroke-width:11;stroke-linecap:round;stroke-linejoin:round;stroke-miterlimit:10;}
	.st2{fill:none;stroke:#2C3E50;stroke-width:11;stroke-linecap:round;stroke-linejoin:round;stroke-miterlimit:10;}
	.st3{fill:#009E83;stroke:#2C3E50;stroke-width:11;stroke-linecap:round;stroke-linejoin:round;stroke-miterlimit:10;}
</style><g><path class="st0" d="M309.2,73.7c0,31.5-23.8,75.6-53.2,75.6s-53.2-44.1-53.2-75.6s23.8-57,53.2-57S309.2,42.2,309.2,73.7z"/><path class="st1" d="M353.5,190c-8.9-8.4-61.7-24-61.7-24L256,206l0,0l0,0l-35.8-40c0,0-52.8,15.6-61.7,24   c-13.7,13-14.8,61.9-14.8,61.9h224.7C368.3,251.9,367.3,203,353.5,190z"/><path class="st2" d="M85.8,268.5h36.5c23.7,50.8,75.2,86.1,135,86.1c57.7,0,107.8-38,132.5-86.1h35.9"/><line class="st2" x1="257.2" x2="257.2" y1="384.7" y2="354.6"/><circle class="st3" cx="52.1" cy="268.5" r="33.6"/><circle class="st3" cx="257.2" cy="445" r="56.5"/><circle class="st3" cx="459.9" cy="268.5" r="33.6"/></g></svg>