<?xml version="1.0" ?><!DOCTYPE svg  PUBLIC '-//W3C//DTD SVG 1.1//EN'  'http://www.w3.org/Graphics/SVG/1.1/DTD/svg11.dtd'><svg enable-background="new 0 0 512 512" height="512px" version="1.1" viewBox="0 0 512 512" width="512px" xml:space="preserve" xmlns="http://www.w3.org/2000/svg" xmlns:xlink="http://www.w3.org/1999/xlink"><g id="guides"/><g id="icon"><g><polygon fill="#231F20" points="424,112.733 396.845,72 115.155,72 88,112.733 88,424 424,424   "/><g><rect fill="#A4373A" height="280" width="288" x="112" y="120"/><polygon fill="#932C34" points="384,96 128,96 112,120 400,120    "/><polygon fill="#BC575E" points="117.333,112 112,120 400,120 394.666,112    "/></g></g><path d="M280,296c-2.718,0-5.386-0.076-8-0.213v20c2.614,0.137,5.282,0.213,8,0.213c30.929,0,56-5.373,56-12v-20   C336,290.627,310.929,296,280,296z" fill="#FFFFFF"/><path d="M280,264c-2.718,0-5.386-0.076-8-0.213v24c2.614,0.137,5.282,0.213,8,0.213c30.929,0,56-5.373,56-12v-16v-8   C336,258.627,310.929,264,280,264z" fill="#FFFFFF"/><path d="M280,232c-2.718,0-5.386-0.076-8-0.212v24c2.614,0.136,5.282,0.212,8,0.212c30.929,0,56-5.373,56-12v-16v-8   C336,226.627,310.929,232,280,232z" fill="#FFFFFF"/><path d="M280,200c-2.718,0-5.386,0.044-8,0.124v23.752c2.614,0.08,5.282,0.124,8,0.124c30.929,0,56-5.373,56-12   S310.929,200,280,200z" fill="#FFFFFF"/><polygon fill="#FFFFFF" points="264,352 160,320 160,200 264,168  "/><g><g><path d="M199.556,270.166l6.484-23.833l6.694,24.198L199.556,270.166 M214.702,229.151l-16.926,1.795     l-17.406,60.208l13.334,1.414l2.386-8.626l20.522,1.548l2.781,9.804l17.506,1.856L214.702,229.151" fill="#A4373A"/></g></g></g></svg>