<?xml version="1.0" ?><!DOCTYPE svg  PUBLIC '-//W3C//DTD SVG 1.1//EN'  'http://www.w3.org/Graphics/SVG/1.1/DTD/svg11.dtd'><svg enable-background="new 0 0 512 512" height="512px" version="1.1" viewBox="0 0 512 512" width="512px" xml:space="preserve" xmlns="http://www.w3.org/2000/svg" xmlns:xlink="http://www.w3.org/1999/xlink"><g id="guides"/><g id="icon"><polygon fill="#231F20" points="424,112.734 396.845,72 115.155,72 88,112.734 88,424 424,424  "/><rect fill="#ED1C2E" height="280" width="288" x="112" y="120"/><rect fill="#231414" height="248" width="256" x="128" y="136"/><polygon fill="#231414" points="384,96 128,96 112,120 400,120  "/><polygon fill="#FC3850" points="117.333,112 112,120 400,120 394.666,112  "/><linearGradient gradientTransform="matrix(4.1667 0 0 -4.1667 972.1641 3002.4102)" gradientUnits="userSpaceOnUse" id="SVGID_1_" x1="-192.998" x2="-150.7583" y1="658.1738" y2="658.1738"><stop offset="0.14" style="stop-color:#FFFFFF"/><stop offset="1" style="stop-color:#EBEDEB"/></linearGradient><path d="M341.198,284.736c-5.049-5.324-15.641-8.137-30.622-8.137c-8.344,0-17.879,0.858-28.358,2.557   c-6.06-5.54-11.938-12.173-17.482-19.735c-3.994-5.439-7.612-11.035-10.833-16.722c5.306-16.124,9.003-31.595,9.003-43.358   c0-8.833-2.873-23.34-16.238-23.34c-3.482,0-7.16,2.118-9.045,5.3c-5.629,9.497-3.077,31.023,7.145,53.005   c-3.559,10.519-7.588,21.133-12.658,33.127c-4.207,9.949-9.226,20.12-14.537,29.456c-28.992,11.294-47.438,24.09-49.387,34.28   c-0.654,3.423,0.419,6.695,3.228,9.278c1.672,1.535,5.244,3.553,10.457,3.553c16.667,0,35.222-23.946,49.146-48.484   c7.739-2.629,15.814-5.067,24.198-7.245c9.032-2.35,17.759-4.24,25.953-5.619c20.167,17.896,37.971,20.588,46.838,20.588   c11.071,0,14.223-4.503,15.324-7.373C344.924,291.71,343.463,287.12,341.198,284.736z M240.502,182.948   c1.351-2.281,3.588-3.681,6.004-3.681c4.953,0,7.678,4.305,7.701,12.153c0.027,8.463-2.75,22.347-7.894,38.194   C236.638,207.407,236.514,189.674,240.502,182.948z M171.46,331.772c1.63-8.515,18.124-19.959,43.432-30.282   c-14.108,23.672-27.983,38.187-36.672,38.187c-1.703,0-3.31-0.498-4.543-1.634C171.697,336.218,171.016,334.098,171.46,331.772z    M278.066,279.864c-7.543,1.351-15.503,3.107-23.707,5.24c-7.221,1.876-14.216,3.949-20.979,6.163   c3.931-7.245,7.354-14.383,10.048-20.771c3.233-7.667,6.333-15.682,9.079-23.65c2.9,4.918,6.057,9.766,9.523,14.491   c5.113,6.968,10.509,13.176,16.077,18.497l-0.063,0.01L278.066,279.864z M285.423,281.974c16.981-3.033,31.879-2.483,38.276-1.172   c6.521,1.335,10.038,5.197,8.916,10.919c-1.141,5.827-8.218,8.618-16.066,6.779C303.971,295.555,293.692,288.943,285.423,281.974z" fill="url(#SVGID_1_)"/></g></svg>