<?xml version="1.0" ?><!DOCTYPE svg  PUBLIC '-//W3C//DTD SVG 1.1//EN'  'http://www.w3.org/Graphics/SVG/1.1/DTD/svg11.dtd'><svg enable-background="new 0 0 512 512" height="512px" version="1.1" viewBox="0 0 512 512" width="512px" xml:space="preserve" xmlns="http://www.w3.org/2000/svg" xmlns:xlink="http://www.w3.org/1999/xlink"><g id="guides"/><g id="icon"><polygon fill="#231F20" points="424,112.733 396.845,72 115.155,72 88,112.733 88,424 424,424  "/><rect fill="#9C5017" height="280" width="288" x="112" y="120"/><polygon fill="#874213" points="384,96 128,96 112,120 400,120  "/><rect fill="#274151" height="280" width="112" x="112" y="120"/><polygon fill="#1C323D" points="224,96 128,96 112,120 224,120  "/><polygon fill="#B26029" points="117.333,112 112,120 400,120 394.666,112  "/><polygon fill="#345160" points="117.333,112 112,120 224,120 224,112  "/><path d="M224,238.709C239.267,217.684,264.029,204,292,204c5.803,0,11.469,0.589,16.94,1.709   C297.551,197.107,283.373,192,268,192c-16.785,0-32.139,6.094-44,16.174C212.139,198.094,196.785,192,180,192   c-15.373,0-29.55,5.107-40.94,13.709c5.472-1.12,11.137-1.709,16.94-1.709C183.971,204,208.733,217.684,224,238.709z" fill="#FFFFFF"/><path d="M268,168c11.471-10.869,26.95-17.549,44-17.549c5.496,0,10.83,0.695,15.921,1.998   c-9.058-6.297-20.054-9.998-31.921-9.998c-10.203,0-19.761,2.743-28,7.51c-8.238-4.768-17.796-7.51-28-7.51   c-11.866,0-22.863,3.701-31.92,9.998c5.09-1.303,10.424-1.998,15.92-1.998C241.049,150.451,256.529,157.131,268,168z" fill="#FFFFFF"/><path d="M354.749,239.676C343.199,234.726,328.017,232,312,232s-31.199,2.726-42.749,7.676   C250.761,247.601,248,258.317,248,264v80c0,5.683,2.761,16.399,21.251,24.324C280.801,373.273,295.983,376,312,376   s31.199-2.727,42.749-7.676C373.239,360.399,376,349.683,376,344v-80C376,258.317,373.239,247.601,354.749,239.676z M312,248   c29.776,0,48,10.359,48,16s-18.224,16-48,16s-48-10.359-48-16S282.224,248,312,248z M312,360c-29.776,0-48-10.359-48-16v-58.225   c1.594,0.874,3.333,1.727,5.251,2.549C280.801,293.273,295.983,296,312,296s31.199-2.727,42.749-7.676   c1.918-0.822,3.657-1.675,5.251-2.549V344C360,349.641,341.776,360,312,360z" fill="#FFFFFF"/></g></svg>