<?xml version="1.0" ?><!DOCTYPE svg  PUBLIC '-//W3C//DTD SVG 1.1//EN'  'http://www.w3.org/Graphics/SVG/1.1/DTD/svg11.dtd'><svg enable-background="new 0 0 512 512" height="512px" version="1.1" viewBox="0 0 512 512" width="512px" xml:space="preserve" xmlns="http://www.w3.org/2000/svg" xmlns:xlink="http://www.w3.org/1999/xlink"><g id="guides"/><g id="icon"><polygon fill="#231F20" points="424,112.734 396.845,72 115.155,72 88,112.734 88,424 424,424  "/><rect fill="#ED1C2E" height="280" width="288" x="112" y="120"/><polygon fill="#D42027" points="384,96 128,96 112,120 400,120  "/><polygon fill="#F9354C" points="117.333,112 112,120 400,120 394.666,112  "/><path d="M286,166c-26.836,0-50.924,11.75-67.414,30.381C216.091,196.13,213.561,196,211,196   c-41.422,0-75,33.578-75,75c0,41.419,33.578,75,75,75h75c49.705,0,90-40.295,90-90C376,206.294,335.705,166,286,166z" fill="#FFFFFF"/><path d="M333.73,208.271C320.98,195.521,304.029,188.5,286,188.5c-15.607,0-30.395,5.279-42.359,14.962   c4.882,2.363,9.469,5.239,13.689,8.56c8.453-5.538,18.33-8.521,28.67-8.522c14.023,0,27.207,5.46,37.123,15.377   c9.916,9.916,15.377,23.1,15.377,37.124c0.001,14.022-5.46,27.207-15.377,37.123c-9.915,9.916-23.1,15.377-37.123,15.377   s-27.208-5.461-37.123-15.377l-33.75-33.75c-2.929-2.929-7.678-2.929-10.606,0c-2.929,2.93-2.929,7.678,0,10.607l33.75,33.75   C251.019,316.479,267.97,323.5,286,323.5s34.98-7.021,47.73-19.77c12.749-12.751,19.771-29.702,19.77-47.73   C353.5,237.97,346.479,221.019,333.73,208.271z" fill="#ED1C2E"/><path d="M212.896,308.5H211c-10.017,0-19.434-3.9-26.517-10.983C177.4,290.434,173.5,281.017,173.5,271   c0-10.016,3.9-19.434,10.983-26.517S200.984,233.5,211,233.5s19.434,3.9,26.517,10.983l18.75,18.75c2.928,2.93,7.678,2.93,10.606,0   c2.93-2.929,2.93-7.677,0-10.606l-18.75-18.75c-9.916-9.916-23.1-15.377-37.123-15.377s-27.207,5.461-37.123,15.377   S158.5,256.977,158.5,271c0,14.023,5.461,27.208,15.377,37.123c9.916,9.916,23.1,15.377,37.123,15.377h15.479   C221.411,319.028,216.852,313.997,212.896,308.5z" fill="#ED1C2E"/></g></svg>