<?xml version="1.0" ?><!DOCTYPE svg  PUBLIC '-//W3C//DTD SVG 1.1//EN'  'http://www.w3.org/Graphics/SVG/1.1/DTD/svg11.dtd'><svg enable-background="new 0 0 512 512" height="512px" version="1.1" viewBox="0 0 512 512" width="512px" xml:space="preserve" xmlns="http://www.w3.org/2000/svg" xmlns:xlink="http://www.w3.org/1999/xlink"><g id="guides"/><g id="icon"><polygon fill="#231F20" points="424,112.733 396.845,72 115.155,72 88,112.733 88,424 424,424  "/><rect fill="#6AD2EA" height="280" width="288" x="112" y="120"/><rect fill="#163D60" height="232" width="240" x="136" y="144"/><polygon fill="#41ADBF" points="384,96 128,96 112,120 400,120  "/><polygon fill="#97E5F2" points="117.333,112 112,120 400,120 394.666,112  "/><g><path d="M178.721,312V205.278h49.921c23.201,0,35.84,15.681,35.84,34.401c0,18.561-12.8,34.241-35.84,34.241    h-27.201V312H178.721z M241.282,239.679c0-8.96-6.88-14.4-15.84-14.4h-24v28.641h24    C234.402,253.919,241.282,248.479,241.282,239.679z" fill="#6AD2EA"/><path d="M271.521,301.92l8.8-14.721c5.761,5.441,17.121,10.721,26.721,10.721c8.801,0,12.961-3.359,12.961-8.16    c0-12.641-45.762-2.24-45.762-32.641c0-12.96,11.201-24.32,31.682-24.32c12.96,0,23.36,4.48,31.041,10.56l-8.16,14.401    c-4.641-4.801-13.441-8.961-22.881-8.961c-7.36,0-12.16,3.2-12.16,7.521c0,11.36,45.92,1.76,45.92,32.96    c0,14.24-12.16,24.641-33.6,24.641C292.641,313.92,279.682,309.441,271.521,301.92z" fill="#6AD2EA"/></g></g></svg>