<?xml version="1.0" ?><!DOCTYPE svg  PUBLIC '-//W3C//DTD SVG 1.1//EN'  'http://www.w3.org/Graphics/SVG/1.1/DTD/svg11.dtd'><svg enable-background="new 0 0 512 512" height="512px" version="1.1" viewBox="0 0 512 512" width="512px" xml:space="preserve" xmlns="http://www.w3.org/2000/svg" xmlns:xlink="http://www.w3.org/1999/xlink"><g id="guides"/><g id="icon"><polygon fill="#231F20" points="424,112.733 396.845,72 115.155,72 88,112.733 88,424 424,424  "/><rect fill="#FF9903" height="280" width="288" x="112" y="120"/><polygon fill="#E58A13" points="384,96 128,96 112,120 400,120  "/><polygon fill="#FFC033" points="117.333,112 112,120 400,120 394.666,112  "/><rect fill="#FFFFFF" height="8" width="232" x="168" y="328"/><g><path d="M203.833,265.109c-2.188,2.188-5.28,6.148-6.871,8.802l-16.199,26.996l6.364,6.364l26.997-16.198    c2.653-1.592,6.614-4.684,8.801-6.871l34.208-34.207l-19.093-19.093L203.833,265.109z" fill="#FFFFFF"/><path d="M277.351,256.358v-7.104c0-2.796,1.672-6.83,3.647-8.807l23.867-23.865c2.63-2.632,2.63-6.914,0-9.546    l-2.387-2.386l5.568-5.568c5.271-5.272,5.271-13.821,0-19.093c-5.273-5.272-13.821-5.272-19.093,0l-44.549,44.549l19.092,19.092    l37.389-37.39l2.389,2.387c1.754,1.755,1.754,4.61,0,6.364l-23.867,23.866c-2.415,2.415-4.307,6.982-4.307,10.397v7.104    c0,0.311,0.127,0.592,0.329,0.796c0.204,0.204,0.485,0.329,0.796,0.329C276.847,257.483,277.351,256.98,277.351,256.358z" fill="#FFFFFF"/><polygon fill="#FFFFFF" points="168.035,320 179.967,312.84 175.196,308.068   "/></g></g></svg>