<?xml version="1.0" ?><!DOCTYPE svg  PUBLIC '-//W3C//DTD SVG 1.1//EN'  'http://www.w3.org/Graphics/SVG/1.1/DTD/svg11.dtd'><svg enable-background="new 0 0 512 512" height="512px" version="1.1" viewBox="0 0 512 512" width="512px" xml:space="preserve" xmlns="http://www.w3.org/2000/svg" xmlns:xlink="http://www.w3.org/1999/xlink"><g id="guides"/><g id="icon"><g><polygon fill="#231F20" points="424,112.733 396.845,72 115.155,72 88,112.733 88,424 424,424   "/><g><rect fill="#80397B" height="280" width="288" x="112" y="120"/><polygon fill="#6D2C6B" points="384,96 128,96 112,120 400,120    "/><polygon fill="#A556A3" points="117.333,112 112,120 400,120 394.666,112    "/></g></g><polygon fill="#FFFFFF" points="264,352 160,320 160,200 264,168  "/><g><polyline fill="#80397B" points="232.273,229.407 217.072,230.924 217.072,265.17 195.98,233.029 183.637,234.261     183.637,289.826 195.617,291.022 195.617,257.482 217.659,293.223 232.273,294.681 232.273,229.407   "/></g><polygon fill="#FFFFFF" points="328,216 328,200 272,200 272,216 312,216 312,224 272,224 272,236 312,236 312,244 272,244    272,256 312,256 312,264 272,264 272,276 312,276 312,284 272,284 272,296 312,296 312,304 272,304 272,320 328,320 328,240    344,240 344,216  "/><rect fill="#FFFFFF" height="24" width="8" x="336" y="248"/><rect fill="#FFFFFF" height="24" width="8" x="336" y="280"/></g></svg>