<?xml version="1.0" ?><!DOCTYPE svg  PUBLIC '-//W3C//DTD SVG 1.1//EN'  'http://www.w3.org/Graphics/SVG/1.1/DTD/svg11.dtd'><svg enable-background="new 0 0 512 512" height="512px" id="Layer_1" version="1.1" viewBox="0 0 512 512" width="512px" xml:space="preserve" xmlns="http://www.w3.org/2000/svg" xmlns:xlink="http://www.w3.org/1999/xlink"><g id="guides"/><g id="icon"><polygon fill="#231F20" points="424,112.733 396.845,72 115.155,72 88,112.733 88,424 424,424  "/><rect fill="#D757FF" height="280" width="288" x="112" y="120"/><rect fill="#3A2641" height="232" width="240" x="136" y="144"/><polygon fill="#BE4DE8" points="384,96 128,96 112,120 400,120  "/><polygon fill="#DD80FF" points="117.333,112 112,120 400,120 394.666,112  "/><g enable-background="new    "><path d="M188.081,312V205.277h49.921c23.201,0,35.841,15.681,35.841,34.401c0,18.56-12.801,34.24-35.841,34.24    h-27.201V312H188.081z M250.643,239.679c0-8.961-6.88-14.4-15.84-14.4h-24v28.641h24    C243.763,253.919,250.643,248.479,250.643,239.679z" fill="#D757FF"/><path d="M287.602,312v-77.282h20.32v10.4c5.6-6.72,15.04-12.32,24.641-12.32v19.841    c-1.44-0.32-3.2-0.48-5.601-0.48c-6.72,0-15.681,3.841-19.04,8.801V312H287.602z" fill="#D757FF"/></g></g></svg>