<?xml version="1.0" ?><!DOCTYPE svg  PUBLIC '-//W3C//DTD SVG 1.1//EN'  'http://www.w3.org/Graphics/SVG/1.1/DTD/svg11.dtd'><svg enable-background="new 0 0 512 512" height="512px" version="1.1" viewBox="0 0 512 512" width="512px" xml:space="preserve" xmlns="http://www.w3.org/2000/svg" xmlns:xlink="http://www.w3.org/1999/xlink"><g id="guides"/><g id="icon"><polygon fill="#231F20" points="424,112.733 396.845,72 115.155,72 88,112.733 88,424 424,424  "/><rect fill="#C88FFF" height="280" width="288" x="112" y="120"/><rect fill="#312963" height="232" width="240" x="136" y="144"/><polygon fill="#A26FDD" points="384,96 128,96 112,120 400,120  "/><polygon fill="#DABBFF" points="117.333,112 112,120 400,120 394.666,112  "/><g><g><path d="M241.683,312l-6.72-18.08h-45.761l-6.72,18.08h-25.761l41.121-106.722h28.48L267.443,312H241.683z      M212.082,227.999l-16.64,45.921h33.281L212.082,227.999z" fill="#C88FFF"/><path d="M271.92,273.279c0-22.4,16.641-40.48,40-40.48c23.201,0,38.721,17.28,38.721,42.4V280h-57.441     c1.441,9.439,9.121,17.279,22.241,17.279c6.56,0,15.521-2.719,20.48-7.52l9.12,13.441c-7.68,7.039-19.84,10.719-31.841,10.719     C289.68,313.92,271.92,298.08,271.92,273.279z M311.92,249.439c-12.64,0-18.08,8.8-18.88,16.481h38.081     C330.48,258.559,325.361,249.439,311.92,249.439z" fill="#C88FFF"/></g></g></g></svg>