<?xml version="1.0" ?><!DOCTYPE svg  PUBLIC '-//W3C//DTD SVG 1.1//EN'  'http://www.w3.org/Graphics/SVG/1.1/DTD/svg11.dtd'><svg enable-background="new 0 0 512 512" height="512px" version="1.1" viewBox="0 0 512 512" width="512px" xml:space="preserve" xmlns="http://www.w3.org/2000/svg" xmlns:xlink="http://www.w3.org/1999/xlink"><g id="guides"/><g id="icon"><polygon fill="#231F20" points="424,112.733 396.845,72 115.155,72 88,112.733 88,424 424,424  "/><rect fill="#1C378C" height="280" width="288" x="112" y="120"/><polygon fill="#0D2481" points="384,96 128,96 112,120 400,120  "/><polygon fill="#203FA0" points="117.333,112 112,120 400,120 394.666,112  "/><path d="M256,209.231l-55,35.03l55,35.03l-55,35.03l-55-35.03l55-35.03l-55-35.03l55-35.02L256,209.231z    M200.833,325.945l55-35.03l55.005,35.03l-55.005,35.03L200.833,325.945z M256,279.292l55-35.03l-55-35.03l55-35.02l55,35.02   l-55,35.03l55,35.03l-55,35.03L256,279.292z" fill="#D9F8FF"/></g></svg>