<?xml version="1.0" ?><!DOCTYPE svg  PUBLIC '-//W3C//DTD SVG 1.1//EN'  'http://www.w3.org/Graphics/SVG/1.1/DTD/svg11.dtd'><svg enable-background="new 0 0 512 512" height="512px" version="1.1" viewBox="0 0 512 512" width="512px" xml:space="preserve" xmlns="http://www.w3.org/2000/svg" xmlns:xlink="http://www.w3.org/1999/xlink"><g id="guides"/><g id="icon"><g><polygon fill="#231F20" points="424,112.733 396.845,72 115.155,72 88,112.733 88,424 424,424   "/><g><rect fill="#077568" height="280" width="288" x="112" y="120"/><polygon fill="#016052" points="384,96 128,96 112,120 400,120    "/><polygon fill="#1A8E7D" points="117.333,112 112,120 400,120 394.666,112    "/></g></g><polygon fill="#FFFFFF" points="264,352 160,320 160,200 264,168  "/><polygon fill="#FFFFFF" points="272,208 272,224 304,224 304,232 272,232 272,248 304,248 304,256 272,256 272,272 304,272    304,280 272,280 272,296 304,296 304,304 272,304 272,320 320,320 320,208  "/><g><path d="M198.805,258.296v-13.41l11.115-0.612c0.978-0.053,1.912,0.055,2.765,0.316    c0.856,0.266,1.632,0.685,2.286,1.256c0.656,0.573,1.188,1.296,1.557,2.162c0.37,0.867,0.573,1.877,0.573,3.018    c0,1.117-0.203,2.121-0.573,3c-0.369,0.876-0.901,1.626-1.557,2.238c-0.654,0.607-1.43,1.079-2.286,1.399    c-0.853,0.317-1.787,0.487-2.765,0.5L198.805,258.296 M212.136,229.488l-26.344,2.629v59.949l13.014,1.301v-21.005l13.331,0.437    c3.25,0.107,6.186-0.427,8.77-1.486c2.624-1.074,4.873-2.689,6.71-4.713c1.856-2.049,3.285-4.506,4.248-7.237    c0.971-2.747,1.469-5.754,1.469-8.877c0-3.15-0.498-6.144-1.469-8.839c-0.963-2.681-2.392-5.053-4.248-6.982    c-1.837-1.909-4.086-3.375-6.71-4.276C218.321,229.5,215.386,229.164,212.136,229.488" fill="#077568"/></g><polygon fill="#FFFFFF" points="288,192 288,194.286 328,200 328,304 336,304 336,192  "/></g></svg>