<?xml version="1.0" ?><!DOCTYPE svg  PUBLIC '-//W3C//DTD SVG 1.1//EN'  'http://www.w3.org/Graphics/SVG/1.1/DTD/svg11.dtd'><svg enable-background="new 0 0 512 512" height="512px" id="Layer_1" version="1.1" viewBox="0 0 512 512" width="512px" xml:space="preserve" xmlns="http://www.w3.org/2000/svg" xmlns:xlink="http://www.w3.org/1999/xlink"><g id="guides"/><g id="icon"><polygon fill="#231F20" points="424,112.733 396.845,72 115.155,72 88,112.733 88,424 424,424  "/><rect fill="#FF761A" height="280" width="288" x="112" y="120"/><rect fill="#3A2C23" height="232" width="240" x="136" y="144"/><polygon fill="#D8610F" points="384,96 128,96 112,120 400,120  "/><polygon fill="#FFAD4A" points="117.333,112 112,120 400,120 394.666,112  "/><g enable-background="new    "><path d="M265.684,312l-6.721-18.08h-45.761l-6.72,18.08h-25.761l41.121-106.723h28.48L291.443,312H265.684z     M236.083,227.998l-16.64,45.921h33.281L236.083,227.998z" fill="#FF7519"/><path d="M298.96,214.237c0-6.72,5.44-12,12.001-12c6.72,0,12.16,5.28,12.16,12c0,6.721-5.44,12.161-12.16,12.161    C304.4,226.398,298.96,220.958,298.96,214.237z M300.88,312v-77.282h20.321V312H300.88z" fill="#FF7519"/></g></g></svg>