<?xml version="1.0" ?><!DOCTYPE svg  PUBLIC '-//W3C//DTD SVG 1.1//EN'  'http://www.w3.org/Graphics/SVG/1.1/DTD/svg11.dtd'><svg enable-background="new 0 0 512 512" height="512px" version="1.1" viewBox="0 0 512 512" width="512px" xml:space="preserve" xmlns="http://www.w3.org/2000/svg" xmlns:xlink="http://www.w3.org/1999/xlink"><g id="guides"/><g id="icon"><polygon fill="#231F20" points="424,112.733 396.845,72 115.155,72 88,112.733 88,424 424,424  "/><rect fill="#FF58A0" height="280" width="288" x="112" y="120"/><rect fill="#320212" height="232" width="240" x="136" y="144"/><polygon fill="#C1387A" points="384,96 128,96 112,120 400,120  "/><polygon fill="#FF8DC4" points="117.333,112 112,120 400,120 394.666,112  "/><g><path d="M205.042,312V205.278h22.721V312H205.042z" fill="#FF58A0"/><path d="M243.439,273.279c0-23.68,17.28-40.48,40.961-40.48c15.84,0,25.44,6.88,30.561,13.92l-13.28,12.48    c-3.681-5.44-9.28-8.32-16.32-8.32c-12.32,0-20.96,8.961-20.96,22.4c0,13.441,8.64,22.561,20.96,22.561    c7.04,0,12.64-3.199,16.32-8.48l13.28,12.48c-5.12,7.041-14.721,14.08-30.561,14.08    C260.72,313.92,243.439,297.121,243.439,273.279z" fill="#FF58A0"/></g></g></svg>