<?xml version="1.0" ?><!DOCTYPE svg  PUBLIC '-//W3C//DTD SVG 1.1//EN'  'http://www.w3.org/Graphics/SVG/1.1/DTD/svg11.dtd'><svg enable-background="new 0 0 512 512" height="512px" version="1.1" viewBox="0 0 512 512" width="512px" xml:space="preserve" xmlns="http://www.w3.org/2000/svg" xmlns:xlink="http://www.w3.org/1999/xlink"><g id="guides"/><g id="icon"><g><polygon fill="#231F20" points="424,112.733 396.845,72 115.155,72 88,112.733 88,424 424,424   "/><g><rect fill="#0078D6" height="280" width="288" x="112" y="120"/><polygon fill="#0071AF" points="384,96 128,96 112,120 400,120    "/><polygon fill="#2094E2" points="117.333,112 112,120 400,120 394.666,112    "/></g></g><polygon fill="#FFFFFF" points="264,352 160,320 160,200 264,168  "/><polygon fill="#FFFFFF" points="272,208 272,254 288,264 352,224 352,208  "/><polygon fill="#FFFFFF" points="272,264 272,312 352,312 352,234 288,274  "/><g><g><path d="M206.995,280.457c-2.129-0.13-4.047-0.746-5.724-1.746c-1.658-0.988-3.083-2.361-4.245-4.015     c-1.152-1.644-2.049-3.574-2.656-5.704c-0.605-2.121-0.925-4.45-0.925-6.903c0-2.476,0.32-4.817,0.925-6.943     c0.607-2.135,1.503-4.062,2.656-5.698c1.162-1.651,2.587-3.012,4.245-3.994c1.676-0.994,3.595-1.604,5.724-1.734     c2.159-0.132,4.154,0.253,5.938,1.076c1.804,0.834,3.386,2.114,4.697,3.756c1.322,1.655,2.363,3.674,3.075,5.96     c0.715,2.296,1.096,4.857,1.096,7.577c0,2.696-0.38,5.241-1.096,7.535c-0.712,2.28-1.753,4.303-3.075,5.965     c-1.311,1.647-2.893,2.938-4.697,3.777C211.149,280.199,209.154,280.589,206.995,280.457 M206.995,229.254     c-3.924,0.429-7.511,1.644-10.666,3.492c-3.088,1.81-5.778,4.235-7.981,7.147c-2.169,2.867-3.881,6.224-5.046,9.96     c-1.155,3.706-1.781,7.813-1.781,12.235s0.626,8.528,1.781,12.235c1.165,3.737,2.876,7.094,5.046,9.961     c2.204,2.912,4.894,5.337,7.981,7.146c3.155,1.85,6.742,3.064,10.666,3.493c4.029,0.438,7.9-0.005,11.467-1.254     c3.65-1.278,6.963-3.395,9.775-6.247c2.862-2.903,5.187-6.551,6.804-10.814c1.633-4.303,2.529-9.197,2.529-14.52     c0-5.321-0.896-10.215-2.529-14.52c-1.617-4.263-3.941-7.91-6.804-10.813c-2.813-2.854-6.125-4.97-9.775-6.248     C214.896,229.258,211.024,228.814,206.995,229.254" fill="#0078D6"/></g></g></g></svg>