<?xml version="1.0" ?><!DOCTYPE svg  PUBLIC '-//W3C//DTD SVG 1.1//EN'  'http://www.w3.org/Graphics/SVG/1.1/DTD/svg11.dtd'><svg enable-background="new 0 0 512 512" height="512px" version="1.1" viewBox="0 0 512 512" width="512px" xml:space="preserve" xmlns="http://www.w3.org/2000/svg" xmlns:xlink="http://www.w3.org/1999/xlink"><g id="guides"/><g id="icon"><g><polygon fill="#231F20" points="424,112.733 396.845,72 115.155,72 88,112.733 88,424 424,424   "/><g><rect fill="#D24625" height="280" width="288" x="112" y="120"/><polygon fill="#BA3319" points="384,96 128,96 112,120 400,120    "/><polygon fill="#E26147" points="117.333,112 112,120 400,120 394.666,112    "/></g></g><polygon fill="#FFFFFF" points="264,352 160,320 160,200 264,168  "/><path d="M199.526,258.501v-12.51l10.371-0.57c0.911-0.05,1.782,0.05,2.578,0.295c0.8,0.247,1.523,0.639,2.133,1.171   c0.612,0.534,1.108,1.209,1.452,2.017c0.345,0.81,0.535,1.751,0.535,2.815c0,1.042-0.19,1.979-0.535,2.798   c-0.344,0.818-0.84,1.517-1.452,2.087c-0.61,0.567-1.333,1.005-2.133,1.304c-0.796,0.297-1.667,0.455-2.578,0.467L199.526,258.501    M211.964,231.627l-24.578,2.453v55.928l12.141,1.212v-19.596l12.438,0.407c3.032,0.1,5.771-0.397,8.181-1.386   c2.448-1.003,4.546-2.509,6.26-4.398c1.733-1.91,3.064-4.203,3.964-6.751c0.905-2.562,1.37-5.368,1.37-8.282   c0-2.938-0.465-5.73-1.37-8.246c-0.9-2.501-2.231-4.714-3.964-6.514c-1.714-1.781-3.812-3.148-6.26-3.989   C217.734,231.638,214.996,231.324,211.964,231.627" fill="#D24625"/><rect fill="#FFFFFF" height="104" width="80" x="272" y="208"/><g><rect fill="#D24625" height="8" width="8" x="288" y="288"/><rect fill="#D24625" height="8" width="32" x="304" y="288"/></g><g><rect fill="#D24625" height="8" width="8" x="288" y="272"/><rect fill="#D24625" height="8" width="32" x="304" y="272"/></g><path d="M332,244c0,11.046-8.954,20-20,20s-20-8.954-20-20s8.954-20,20-20v20H332z" fill="#D24625"/></g></svg>