<?xml version="1.0" ?><!DOCTYPE svg  PUBLIC '-//W3C//DTD SVG 1.1//EN'  'http://www.w3.org/Graphics/SVG/1.1/DTD/svg11.dtd'><svg enable-background="new 0 0 512 512" height="512px" version="1.1" viewBox="0 0 512 512" width="512px" xml:space="preserve" xmlns="http://www.w3.org/2000/svg" xmlns:xlink="http://www.w3.org/1999/xlink"><g id="guides"/><g id="icon"><polygon fill="#231F20" points="424,112.733 396.845,72 115.155,72 88,112.733 88,424 424,424  "/><rect fill="#B0D5EC" height="280" width="288" x="112" y="120"/><rect fill="#0E2431" height="232" width="240" x="136" y="144"/><polygon fill="#86B6CE" points="384,96 128,96 112,120 400,120  "/><polygon fill="#C9E6F4" points="117.333,112 112,120 400,120 394.666,112  "/><g><g><path d="M195.921,312V205.278h22.881V292h45.12v20H195.921z" fill="#B0D5EC"/><path d="M278.801,312v-77.281h20.32v10.4c5.601-6.72,15.041-12.32,24.641-12.32v19.84     c-1.439-0.32-3.199-0.48-5.6-0.48c-6.721,0-15.681,3.84-19.041,8.8V312H278.801z" fill="#B0D5EC"/></g></g></g></svg>