<?xml version="1.0" ?><!DOCTYPE svg  PUBLIC '-//W3C//DTD SVG 1.1//EN'  'http://www.w3.org/Graphics/SVG/1.1/DTD/svg11.dtd'><svg enable-background="new 0 0 512 512" height="512px" version="1.1" viewBox="0 0 512 512" width="512px" xml:space="preserve" xmlns="http://www.w3.org/2000/svg" xmlns:xlink="http://www.w3.org/1999/xlink"><g id="guides"/><g id="icon"><g><polygon fill="#231F20" points="424,112.733 396.845,72 115.155,72 88,112.733 88,424 424,424   "/><g><rect fill="#2B569A" height="280" width="288" x="112" y="120"/><polygon fill="#1B4077" points="384,96 128,96 112,120 400,120    "/><polygon fill="#426DAD" points="117.333,112 112,120 400,120 394.666,112    "/></g></g><polygon fill="#FFFFFF" points="264,352 160,320 160,200 264,168  "/><polygon fill="#FFFFFF" points="272,200 272,216 336,216 336,224 272,224 272,236 336,236 336,244 272,244 272,256 336,256    336,264 272,264 272,276 336,276 336,284 272,284 272,296 336,296 336,304 272,304 272,320 352,320 352,200  "/><polyline fill="#2B569A" points="248.119,227.825 229.532,229.68 220.717,272.57 211.234,231.506 200.943,232.534 192.597,271.632    185.586,234.066 173.099,235.313 185.451,290.008 198.33,291.293 206.001,254.439 214.084,292.865 229.804,294.435    248.119,227.825  "/></g></svg>