<?xml version="1.0" ?><!DOCTYPE svg  PUBLIC '-//W3C//DTD SVG 1.1//EN'  'http://www.w3.org/Graphics/SVG/1.1/DTD/svg11.dtd'><svg enable-background="new 0 0 512 512" height="512px" version="1.1" viewBox="0 0 512 512" width="512px" xml:space="preserve" xmlns="http://www.w3.org/2000/svg" xmlns:xlink="http://www.w3.org/1999/xlink"><g id="guides"/><g id="icon"><polygon fill="#231F20" points="424,112.733 396.845,72 115.155,72 88,112.733 88,424 424,424  "/><rect fill="#C1CAD1" height="280" width="288" x="112" y="120"/><polygon fill="#A3ACB2" points="384,96 128,96 112,120 400,120  "/><polygon fill="#CED6DB" points="117.333,112 112,120 400,120 394.666,112  "/><g><path d="M336,256H168c-8.836,0-16,7.163-16,16s7.164,16,16,16h40c4.418,0,8,3.582,8,8s-3.582,8-8,8s-8,3.582-8,8    s3.582,8,8,8h32c4.418,0,8,3.582,8,8s-3.582,8-8,8c-8.836,0-16,7.164-16,16s7.164,16,16,16h40c4.418,0,8-3.582,8-8s-3.582-8-8-8    s-8-3.582-8-8s3.582-8,8-8h24c4.418,0,8-3.582,8-8s-3.582-8-8-8s-8-3.582-8-8s3.582-8,8-8h32c13.254,0,24-10.745,24-24    S349.254,256,336,256z M240,304c-4.418,0-8-3.582-8-8s3.582-8,8-8h24c4.418,0,8,3.582,8,8s-3.582,8-8,8H240z" fill="#231F20"/><path d="M357.385,269.093c-0.607-1.191-1.32-2.342-2.14-3.438c-0.685-0.915-77.401-101.715-77.401-101.715    c-6.07-7.953-14.16-11.939-22.27-11.939c-7.94,0-15.9,3.821-22.002,11.483c0,0-77.676,98.039-78.031,98.478    c-0.42,0.52-0.803,1.059-1.148,1.615c-1.063,1.714-1.771,3.584-2.125,5.507c-0.178,0.964-0.266,1.94-0.265,2.916    c0.003,2.767,0.722,5.532,2.149,8.001H360C360,276.254,359.128,272.508,357.385,269.093z M288,208l-8-8v8h-8l-16-16l-16,16h-8v-8    l-8,8h-10.546l29.503-37.041c3.575-4.488,8.056-6.959,12.617-6.959c4.655,0,9.177,2.564,12.731,7.22L296.382,208H288z" fill="#231F20"/></g><circle cx="336" cy="328" fill="#231F20" r="8"/><circle cx="320" cy="344" fill="#231F20" r="4"/><circle cx="208" cy="344" fill="#231F20" r="4"/></g></svg>