<?xml version="1.0" ?><!DOCTYPE svg  PUBLIC '-//W3C//DTD SVG 1.1//EN'  'http://www.w3.org/Graphics/SVG/1.1/DTD/svg11.dtd'><svg enable-background="new 0 0 512 512" height="512px" version="1.1" viewBox="0 0 512 512" width="512px" xml:space="preserve" xmlns="http://www.w3.org/2000/svg" xmlns:xlink="http://www.w3.org/1999/xlink"><g id="guides"/><g id="icon"><polygon fill="#231F20" points="424,112.734 396.845,72 115.155,72 88,112.734 88,424 424,424  "/><rect fill="#F5F5F5" height="280" width="288" x="112" y="120"/><polygon fill="#ED1C2E" points="384,96 128,96 112,120 400,120  "/><polygon fill="#FFFFFF" points="117.333,112 112,120 400,120 394.666,112  "/><g><path clip-rule="evenodd" d="M184.812,323.89c-24.248,17.449-40.932,42.237-34.349,46.108l0,0    l-5.753-2.79l0,0C141.382,363.288,148.944,342.269,184.812,323.89L184.812,323.89L184.812,323.89L184.812,323.89z" fill="#FFFFFF" fill-rule="evenodd"/><path clip-rule="evenodd" d="M366.967,304.325c12.419-25.466-89.738-21.646-164.381,11.745    C260.685,294.499,368.208,285.211,366.967,304.325L366.967,304.325L366.967,304.325L366.967,304.325z" fill="#FFFFFF" fill-rule="evenodd"/><path clip-rule="evenodd" d="M251.403,168.684c2.789-14.148-4.385-13.648-6.396-13.648l0,0    L240.477,155l0,0c-2.498,0-4.742,1.932-5.831,5.859c-7.081,25.459,5.768,90.087,41.816,119.982    c31.829,26.396,87.245,38.475,89.476,25.714c-11.517,5.328-54.773-8.082-83.856-30.399    c-34.365-27.188-49.061-94.238-41.66-115.205c0.735-2.089,2.526-4.532,3.319-5.079    C246.829,157.362,250.563,161.021,251.403,168.684L251.403,168.684L251.403,168.684L251.403,168.684z" fill="#FFFFFF" fill-rule="evenodd"/><path clip-rule="evenodd" d="M250.801,172.766c-3.164,15.012-4.537,50.479-34.583,108.783    c-32.271,62.621-55.828,91.822-71.508,85.659l0,0l5.605,2.77l0,0c12.284,6.046,34.896-13.839,72.422-83.506    C251.64,232.817,250.077,205.2,250.801,172.766L250.801,172.766L250.801,172.766L250.801,172.766z" fill="#FFFFFF" fill-rule="evenodd"/></g><g><path clip-rule="evenodd" d="M184.812,320.89c-24.248,17.449-40.932,42.237-34.349,46.108l0,0    l-5.753-2.79l0,0C141.382,360.288,148.944,339.269,184.812,320.89L184.812,320.89L184.812,320.89L184.812,320.89z" fill="#ED1C2E" fill-rule="evenodd"/><path clip-rule="evenodd" d="M366.967,301.325c12.419-25.466-89.738-21.646-164.381,11.745    C260.685,291.499,368.208,282.211,366.967,301.325L366.967,301.325L366.967,301.325L366.967,301.325z" fill="#ED1C2E" fill-rule="evenodd"/><path clip-rule="evenodd" d="M251.403,165.684c2.789-14.148-4.385-13.648-6.396-13.648l0,0    L240.477,152l0,0c-2.498,0-4.742,1.932-5.831,5.859c-7.081,25.459,5.768,90.087,41.816,119.982    c31.829,26.396,87.245,38.475,89.476,25.714c-11.517,5.328-54.773-8.082-83.856-30.399    c-34.365-27.188-49.061-94.238-41.66-115.205c0.735-2.089,2.526-4.532,3.319-5.079    C246.829,154.362,250.563,158.021,251.403,165.684L251.403,165.684L251.403,165.684L251.403,165.684z" fill="#ED1C2E" fill-rule="evenodd"/><path clip-rule="evenodd" d="M250.801,169.766c-3.164,15.012-4.537,50.479-34.583,108.783    c-32.271,62.621-55.828,91.822-71.508,85.659l0,0l5.605,2.77l0,0c12.284,6.046,34.896-13.839,72.422-83.506    C251.64,229.817,250.077,202.2,250.801,169.766L250.801,169.766L250.801,169.766L250.801,169.766z" fill="#ED1C2E" fill-rule="evenodd"/></g></g></svg>