<?xml version="1.0" ?><!DOCTYPE svg  PUBLIC '-//W3C//DTD SVG 1.1//EN'  'http://www.w3.org/Graphics/SVG/1.1/DTD/svg11.dtd'><svg enable-background="new 0 0 512 512" height="512px" version="1.1" viewBox="0 0 512 512" width="512px" xml:space="preserve" xmlns="http://www.w3.org/2000/svg" xmlns:xlink="http://www.w3.org/1999/xlink"><g id="guides"/><g id="icon"><g><polygon fill="#231F20" points="424,112.733 396.845,72 115.155,72 88,112.733 88,424 424,424   "/><g><rect fill="#107B10" height="280" width="288" x="112" y="120"/><polygon fill="#066306" points="384,96 128,96 112,120 400,120    "/><polygon fill="#229922" points="117.333,112 112,120 400,120 394.666,112    "/></g></g><polygon fill="#FFFFFF" points="264,352 160,320 160,200 264,168  "/><path d="M272,200v16h24v8h-24v12h24v8h-24v12h24v8h-24v12h24v8h-24v12h24v8h-24v16h80V200H272z M336,304h-32v-8h32   V304z M336,284h-32v-8h32V284z M336,264h-32v-8h32V264z M336,244h-32v-8h32V244z M336,224h-32v-8h32V224z" fill="#FFFFFF"/><polyline fill="#107B10" points="234.408,229.194 216.403,230.991 206.001,250.839 196.199,233.007 182.108,234.414    197.224,261.302 181.121,289.575 195.109,290.972 206.001,271.899 217.744,293.23 235.813,295.034 215.322,261.163    234.408,229.194  "/></g></svg>