<?xml version="1.0" ?><!DOCTYPE svg  PUBLIC '-//W3C//DTD SVG 1.1//EN'  'http://www.w3.org/Graphics/SVG/1.1/DTD/svg11.dtd'><svg enable-background="new 0 0 512 512" height="512px" version="1.1" viewBox="0 0 512 512" width="512px" xml:space="preserve" xmlns="http://www.w3.org/2000/svg" xmlns:xlink="http://www.w3.org/1999/xlink"><g id="guides"/><g id="icon"><g><polygon fill="#231F20" points="424,112.734 396.845,72 115.155,72 88,112.734 88,424 424,424   "/><g><rect fill="#D42027" height="280" width="288" x="112" y="120"/><polygon fill="#A6B4BA" points="384,96 128,96 112,120 400,120    "/><polygon fill="#C4D1D6" points="117.333,112 112,120 400,120 394.666,112    "/></g></g><path clip-rule="evenodd" d="M315.564,213.37c4.837-1.55,10.235-2.411,16.563-2.411V176   c-27.173,0-48.95,9.471-65.517,28.587c-5.771,6.716-11.539,15.153-16.381,25.487l-12.283,27.727   c-4.283,11.195-8.007,19.462-10.982,24.97c-3.909,7.924-7.631,14.122-11.354,18.599c-4.654,5.341-9.495,8.955-14.893,11.369   c-5.956,2.582-12.845,3.96-20.847,3.96V352c27.177,0,48.952-9.643,65.518-28.587c4.656-5.684,9.124-12.227,13.404-19.978   l10.425-22.042h43.737v-35.131h-28.851c2.795-5.855,5.587-10.85,8.566-15.154c3.158-4.479,6.513-8.267,10.048-10.852   C306.63,217.16,310.722,214.92,315.564,213.37L315.564,213.37z" fill="#FFFFFF" fill-rule="evenodd"/></g></svg>