<?xml version="1.0" ?><!DOCTYPE svg  PUBLIC '-//W3C//DTD SVG 1.1//EN'  'http://www.w3.org/Graphics/SVG/1.1/DTD/svg11.dtd'><svg enable-background="new 0 0 512 512" height="512px" version="1.1" viewBox="0 0 512 512" width="512px" xml:space="preserve" xmlns="http://www.w3.org/2000/svg" xmlns:xlink="http://www.w3.org/1999/xlink"><g id="guides"/><g id="icon_1_"><circle cx="256" cy="256" fill="#231F20" r="192"/><g><path d="M401.795,172.472C372.814,121.997,318.378,88,256,88c-57.366,0-108.007,28.759-138.317,72.639V351.36    C147.993,395.24,198.634,424,256,424c62.378,0,116.814-33.997,145.795-84.473V172.472z" fill="#D84039"/><path d="M117.683,160.639C98.97,187.731,88,220.582,88,256s10.97,68.269,29.683,95.36V160.639z" fill="#439143"/><path d="M401.795,339.527C415.921,314.924,424,286.405,424,256c0-30.406-8.079-58.924-22.205-83.528V339.527z" fill="#E0B80E"/></g><g><path d="M172,268c0-43.078,37.608-78,84-78c12.642,0,24.623,2.61,35.377,7.255h110.849    c-27.468-48.442-78.304-81.887-137.191-85.008c-0.461-0.022-0.921-0.049-1.384-0.068c-0.863-0.039-1.729-0.069-2.597-0.095    c-1.644-0.045-3.289-0.081-4.944-0.082c-0.037,0-0.073-0.001-0.11-0.001c-0.061,0-0.122,0.002-0.183,0.002    c-1.49,0.002-2.974,0.029-4.456,0.066c-0.996,0.027-1.99,0.064-2.981,0.108c-0.325,0.014-0.649,0.028-0.974,0.043    c-53.686,2.706-100.717,30.615-129.52,72.132l54.312,88.742C172.081,271.407,172,269.713,172,268z" fill="#FB4F41"/><path d="M256,346c-44.547,0-80.974-32.206-83.802-72.906l-54.312-88.742    c-16.695,24.064-27.27,52.696-29.455,83.648c5.826,82.529,71.258,148.591,153.509,155.408l60.316-90.307    C288.989,341.246,273.096,346,256,346z" fill="#51B054"/><path d="M423.568,268c-1.807-25.591-9.35-49.595-21.343-70.746H291.377C320.087,209.655,340,236.661,340,268    c0,27.204-15.008,51.143-37.743,65.102l-60.316,90.307c3.113,0.258,6.249,0.438,9.407,0.523c0.23,0.006,0.459,0.016,0.689,0.021    c1.317,0.03,2.638,0.048,3.963,0.048C344.748,424,417.414,355.182,423.568,268z" fill="#F9D209"/></g><g><ellipse cx="256" cy="268.001" fill="#FFFFFF" rx="84" ry="78"/><ellipse cx="256" cy="268.001" fill="#4798C7" rx="58.8" ry="54.6"/></g><g><path d="M256,346l-14.06,77.408l60.316-90.307C288.989,341.246,273.096,346,256,346z" fill="#50A550"/><path d="M291.377,197.254c15.018,6.486,27.628,16.968,36.241,29.977l74.607-29.977H291.377z" fill="#EFC40F"/><path d="M184.377,227.227l-66.491-42.875l54.312,88.742C172.081,271.407,172,269.713,172,268    C172,253.055,176.527,239.091,184.377,227.227z" fill="#D84039"/></g><g><path d="M423.806,264C419.629,174.932,346.101,104,256,104c-90.102,0-163.629,70.932-167.806,160    c0.063,1.338,0.143,2.672,0.237,4.001C94.584,180.818,167.251,112,256,112c88.748,0,161.416,68.818,167.568,156.001    C423.662,266.672,423.743,265.338,423.806,264z" fill="#F9655D"/><path d="M401.795,188.5v7.984c12.246,21.335,19.945,45.613,21.773,71.513c0-0.007,0.001-0.014,0.002-0.021    c0.055-0.777,0.094-1.561,0.139-2.341c0.033-0.592,0.061-1.185,0.088-1.778C422.492,236.515,414.645,210.89,401.795,188.5z" fill="#FFE255"/><path d="M117.683,176.642c-17.292,25.038-27.97,54.995-29.488,87.351c0.001,0.024,0.002,0.048,0.003,0.071    c0.062,1.316,0.141,2.629,0.233,3.937c2.176-30.826,12.675-59.35,29.252-83.354V176.642z" fill="#77C677"/></g></g></svg>