<?xml version="1.0" ?><!DOCTYPE svg  PUBLIC '-//W3C//DTD SVG 1.1//EN'  'http://www.w3.org/Graphics/SVG/1.1/DTD/svg11.dtd'><svg style="enable-background:new 0 0 499.996 500.007;" version="1.1" viewBox="0 0 499.996 500.007" xml:space="preserve" xmlns="http://www.w3.org/2000/svg" xmlns:xlink="http://www.w3.org/1999/xlink"><g id="atm-cash-machine"><g><path d="M249.998,500.007C111.935,500.007,0,388.076,0,250C0,111.931,111.935,0,249.998,0    c138.067,0,249.998,111.931,249.998,250C499.996,388.076,388.065,500.007,249.998,500.007z" style="fill:#A8B6C0;"/><g id="_x31_"><path d="M363.783,144.982H136.23c-9.641,0-17.513,7.267-17.513,16.158v177.729     c0,8.891,7.872,16.158,17.513,16.158h227.554c9.624,0,17.495-7.267,17.495-16.158V161.139     C381.279,152.249,373.407,144.982,363.783,144.982z" style="fill:#59616A;"/><path d="M251.075,331.395c0,1.994-2.705,3.619-6.013,3.619h-99.999c-3.299,0-6.017-1.626-6.017-3.619     v-10.889c0-1.989,2.718-3.613,6.017-3.613h99.999c3.307,0,6.013,1.624,6.013,3.613V331.395z" style="fill:#FF9554;"/><linearGradient gradientUnits="userSpaceOnUse" id="SVGID_1_" x1="145.5595" x2="244.5681" y1="163.6349" y2="262.6435"><stop offset="0.5" style="stop-color:#FFFFFF"/><stop offset="0.5" style="stop-color:#EBEBEB"/></linearGradient><path d="M251.075,252.524c0,4.82-3.931,8.748-8.752,8.748h-94.52c-4.808,0-8.756-3.927-8.756-8.748     v-78.769c0-4.821,3.949-8.748,8.756-8.748h94.52c4.821,0,8.752,3.928,8.752,8.748V252.524z" style="fill:url(#SVGID_1_);"/><path d="M279.019,237.782h14.62c1.932,0,3.508,1.583,3.508,3.504v14.634c0,1.923-1.577,3.504-3.508,3.504     h-14.62c-1.932,0-3.5-1.581-3.5-3.504v-14.634C275.519,239.365,277.087,237.782,279.019,237.782z" style="fill:#B5B9BD;"/><path d="M275.519,224.056v-14.65c0-1.936,1.568-3.504,3.5-3.504h14.62c1.932,0,3.508,1.568,3.508,3.504     v14.65c0,1.932-1.577,3.502-3.508,3.502h-14.62C277.087,227.558,275.519,225.987,275.519,224.056z" style="fill:#B5B9BD;"/><path d="M279.019,269.651h14.62c1.932,0,3.508,1.583,3.508,3.504v14.622c0,1.934-1.577,3.498-3.508,3.498     h-14.62c-1.932,0-3.5-1.564-3.5-3.498v-14.622C275.519,271.235,277.087,269.651,279.019,269.651z" style="fill:#B5B9BD;"/><path d="M328.967,287.777c0,1.934-1.577,3.498-3.5,3.498H310.86c-1.932,0-3.508-1.564-3.508-3.498v-14.622     c0-1.921,1.577-3.504,3.508-3.504h14.607c1.923,0,3.5,1.583,3.5,3.504V287.777z" style="fill:#B5B9BD;"/><path d="M328.967,255.921c0,1.923-1.577,3.504-3.5,3.504H310.86c-1.932,0-3.508-1.581-3.508-3.504v-14.634     c0-1.921,1.577-3.504,3.508-3.504h14.607c1.923,0,3.5,1.583,3.5,3.504V255.921z" style="fill:#B5B9BD;"/><path d="M328.967,224.056c0,1.932-1.577,3.502-3.5,3.502H310.86c-1.932,0-3.508-1.57-3.508-3.502v-14.65     c0-1.936,1.577-3.504,3.508-3.504h14.607c1.923,0,3.5,1.568,3.5,3.504V224.056z" style="fill:#B5B9BD;"/><path d="M360.775,287.777c0,1.934-1.573,3.498-3.5,3.498h-14.598c-1.923,0-3.5-1.564-3.5-3.498v-14.622     c0-1.921,1.577-3.504,3.5-3.504h14.598c1.927,0,3.5,1.583,3.5,3.504V287.777z" style="fill:#B5B9BD;"/><path d="M360.775,255.921c0,1.923-1.573,3.504-3.5,3.504h-14.598c-1.923,0-3.5-1.581-3.5-3.504v-14.634     c0-1.921,1.577-3.504,3.5-3.504h14.598c1.927,0,3.5,1.583,3.5,3.504V255.921z" style="fill:#B5B9BD;"/><path d="M360.775,224.056c0,1.932-1.573,3.502-3.5,3.502h-14.598c-1.923,0-3.5-1.57-3.5-3.502v-14.65     c0-1.936,1.577-3.504,3.5-3.504h14.598c1.927,0,3.5,1.568,3.5,3.504V224.056z" style="fill:#B5B9BD;"/><path d="M360.95,179.503c0,1.989-2.064,3.615-4.59,3.615h-76.427c-2.53,0-4.59-1.626-4.59-3.615v-10.889     c0-1.993,2.06-3.607,4.59-3.607h76.427c2.525,0,4.59,1.614,4.59,3.607V179.503z" style="fill:#5FD4AF;"/><g><path d="M281.78,308.702l-10.248,26.312h5.632l2.167-5.981h10.521l2.299,5.981h5.782l-10.543-26.312      H281.78z M280.976,324.598l3.543-9.759l3.636,9.759H280.976z" style="fill:#FFFFFF;"/><polygon points="301.647,313.155 309.454,313.155 309.454,335.014 314.771,335.014 314.771,313.155       322.565,313.155 322.565,308.702 301.647,308.702     " style="fill:#FFFFFF;"/><polygon points="348.873,308.702 344.155,326.649 339.386,308.702 331.429,308.702 331.429,335.014       336.369,335.014 336.369,314.299 341.574,335.014 346.685,335.014 351.907,314.299 351.907,335.014 356.843,335.014       356.843,308.702     " style="fill:#FFFFFF;"/></g></g></g></g><g id="Layer_1"/></svg>