<?xml version="1.0" ?><!DOCTYPE svg  PUBLIC '-//W3C//DTD SVG 1.1//EN'  'http://www.w3.org/Graphics/SVG/1.1/DTD/svg11.dtd'><svg style="enable-background:new 0 0 499.987 500.004;" version="1.1" viewBox="0 0 499.987 500.004" xml:space="preserve" xmlns="http://www.w3.org/2000/svg" xmlns:xlink="http://www.w3.org/1999/xlink"><g id="dollar-exchange"><g><path d="M249.989,500.004C111.922,500.004,0,388.073,0,250.007C0,111.931,111.922,0,249.989,0    c138.076,0,249.998,111.931,249.998,250.007C499.987,388.073,388.065,500.004,249.989,500.004z" style="fill:#59616A;"/><g id="_x32_0"><path d="M144.328,240.288l-27.06-3.393c6.564-67.615,63.564-120.418,132.879-120.307     c45.119,0.068,84.888,22.615,108.957,56.965l15.359-10.718c3.009-2.094,5.47-0.581,5.47,3.351l-0.008,57.487     c0,3.94-3.026,6.051-6.726,4.692l-53.949-19.846c-3.701-1.35-4.273-4.188-1.248-6.282l18.743-13.085     c-19.137-27.307-50.76-45.23-86.649-45.282C194.721,143.777,149.208,186.161,144.328,240.288z" style="fill:#FF9554;"/><path d="M355.66,259.545c-4.812,54.205-50.35,96.674-105.777,96.581     c-35.889-0.06-67.504-17.975-86.64-45.274l18.735-13.085c3.017-2.103,2.453-4.931-1.248-6.291l-53.956-19.837     c-3.692-1.359-6.718,0.752-6.718,4.692l-0.017,57.478c0.017,3.94,2.462,5.453,5.47,3.342l15.359-10.701     c24.068,34.342,63.854,56.897,108.965,56.965c69.35,0.102,126.366-52.743,132.887-120.392L355.66,259.545z" style="fill:#5FD4AF;"/><linearGradient gradientUnits="userSpaceOnUse" id="_x24__2_" x1="189.8486" x2="309.5487" y1="245.8182" y2="245.8182"><stop offset="0.5" style="stop-color:#FFFFFF"/><stop offset="0.5" style="stop-color:#EBEBEB"/></linearGradient><path d="M249.523,185.981c-33.042,0.094-59.769,26.957-59.675,60.008     c0.094,33.051,26.966,59.76,60.008,59.666c33.06-0.085,59.777-26.948,59.692-59.999     C309.455,212.605,282.566,185.887,249.523,185.981z M277.84,263.553c-0.453,4.778-2.282,8.88-5.488,12.316     c-3.213,3.427-7.889,5.607-14.034,6.521v6.675l-12.658-0.102v-6.573c-7.136-1.308-12.179-4.41-15.154-9.324     c-2.974-4.898-4.461-9.838-4.461-14.812h12.752c0,3.077,0.632,5.53,1.906,7.359c1.282,1.837,2.923,3.213,4.957,4.128v-19.436     c-0.923-0.325-1.846-0.666-2.795-1.026c-0.957-0.359-1.846-0.701-2.701-1.034c-4.317-1.701-7.624-4.154-9.906-7.35     c-2.282-3.205-3.273-7.196-2.949-11.974c0.196-3.855,1.769-7.667,4.718-11.427c2.94-3.77,7.487-6.231,13.632-7.41v-6.273h12.658     v6.376c6.812,1.504,11.419,4.787,13.829,9.855c2.427,5.077,3.504,9.086,3.248,12.017h-11.975c0-2.094-0.376-4-1.128-5.726     c-0.752-1.735-2.077-3.137-3.974-4.18v19.23c1.308,0.385,2.598,0.838,3.872,1.325c1.282,0.487,2.539,1.026,3.778,1.615     c3.991,1.837,7.102,4.419,9.324,7.752S278.369,259.237,277.84,263.553z M264.002,258.109c0.863,1.607,1.129,3.487,0.786,5.641     c-0.128,1.445-0.735,2.684-1.82,3.726c-1.06,1.052-2.615,1.923-4.65,2.65v-16.188c0.393,0.196,0.632,0.316,0.735,0.351     c0.094,0.034,0.214,0.077,0.342,0.145C261.617,255.28,263.156,256.511,264.002,258.109z M245.66,221.562v16.188     c-1.769-0.915-3.196-1.923-4.316-3.034c-1.102-1.119-1.667-2.684-1.667-4.709c0-1.837,0.479-3.453,1.419-4.854     C242.045,223.733,243.566,222.545,245.66,221.562z" id="_x24__1_" style="fill:url(#_x24__2_);"/></g></g></g><g id="Layer_1"/></svg>