<?xml version="1.0" ?><!DOCTYPE svg  PUBLIC '-//W3C//DTD SVG 1.1//EN'  'http://www.w3.org/Graphics/SVG/1.1/DTD/svg11.dtd'><svg style="enable-background:new 0 0 499.987 500.006;" version="1.1" viewBox="0 0 499.987 500.006" xml:space="preserve" xmlns="http://www.w3.org/2000/svg" xmlns:xlink="http://www.w3.org/1999/xlink"><g id="money-pig"><g><path d="M249.989,500.006C111.922,500.006,0,388.084,0,250.004C0,111.928,111.922,0,249.989,0    c138.076,0,249.998,111.928,249.998,250.004C499.987,388.084,388.065,500.006,249.989,500.006z" style="fill:#A8B6C0;"/><g id="_x31_5"><path d="M249.989,170.582c3,0,5.461-2.525,5.461-5.603v-40.653c0-3.077-2.462-5.603-5.461-5.603     c-3.009,0-5.462,2.526-5.462,5.603v40.653C244.528,168.056,246.981,170.582,249.989,170.582z" style="fill:#FFFFFF;"/><path d="M182.323,200.71c0-0.282-0.085-0.568-0.06-0.833l3.538-33.684c0.359-3.556,3.103-5.017,6.12-3.257     l27.444,16.03C205.417,183.466,192.862,190.992,182.323,200.71z" style="fill:#FFFFFF;"/><path d="M317.724,199.876l-3.53-33.684c-0.359-3.556-3.111-5.017-6.128-3.257l-27.444,16.03     c13.949,4.5,26.521,12.034,37.051,21.744C317.673,200.436,317.75,200.141,317.724,199.876z" style="fill:#FFFFFF;"/><path d="M191.332,374.285c0,3.85,3.145,7,7,7h23.889c3.846,0,6.983-3.149,6.983-7v-2.239     c-13.923-2.957-26.735-8.876-37.871-16.979V374.285z" style="fill:#FFFFFF;"/><path d="M270.784,374.285c0,3.85,3.154,7,7,7h23.888c3.838,0,6.992-3.149,6.992-7v-19.218     c-11.145,8.103-23.957,14.021-37.88,16.979V374.285z" style="fill:#FFFFFF;"/><linearGradient gradientUnits="userSpaceOnUse" id="SVGID_1_" x1="154.8708" x2="345.1169" y1="274.1898" y2="274.1898"><stop offset="0.5" style="stop-color:#FFFFFF"/><stop offset="0.5" style="stop-color:#EBEBEB"/></linearGradient><path d="M345.117,274.2c0,30.303-14.299,57.286-36.453,74.713     c-10.966,8.615-23.829,14.889-37.88,18.038c-6.701,1.496-13.649,2.359-20.795,2.359c-7.145,0-14.086-0.863-20.786-2.359     c-14.051-3.149-26.914-9.414-37.871-18.038c-22.154-17.428-36.461-44.401-36.461-74.713c0-26.734,11.128-50.893,28.94-68.196     c11.017-10.692,24.581-18.713,39.701-23.106c8.419-2.458,17.282-3.829,26.478-3.829c9.197,0,18.068,1.371,26.487,3.829     c15.12,4.393,28.701,12.423,39.701,23.115C333.997,223.308,345.117,247.466,345.117,274.2z" style="fill:url(#SVGID_1_);"/><path d="M209.896,234.145c4.342,4.342,11.521,4.222,16.607,0c0.342-0.282,0.709-0.534,1.034-0.859     c5.111-5.102,5.487-13,0.855-17.641c-1.581-1.577-3.564-2.534-5.658-2.949c-4.06-0.821-8.624,0.44-11.992,3.799     c-1.47,1.479-2.504,3.197-3.188,4.996C205.887,225.91,206.597,230.85,209.896,234.145z" style="fill:#A8B6C0;"/><path d="M282.87,285.111c0-18.158-14.718-32.889-32.88-32.889c-18.145,0-32.871,14.731-32.871,32.889     c0,18.154,14.726,32.876,32.871,32.876C268.152,317.986,282.87,303.264,282.87,285.111z" style="fill:#FFFFFF;"/><path d="M292.425,221.491c-0.265-0.735-0.624-1.453-1.043-2.145c0-0.009,0-0.009,0-0.017     c-0.598-0.992-1.273-1.966-2.146-2.833c-3.359-3.359-7.923-4.62-11.965-3.808c-2.111,0.423-4.085,1.38-5.667,2.957     c-0.692,0.692-1.239,1.474-1.709,2.295c-0.119,0.214-0.214,0.444-0.316,0.662c-0.333,0.671-0.59,1.368-0.786,2.086     c-0.043,0.188-0.103,0.376-0.137,0.568c-0.846,4.068,0.419,8.662,3.795,12.03c5.111,5.111,13.009,5.491,17.649,0.859     C293.399,230.85,294.109,225.919,292.425,221.491z" style="fill:#A8B6C0;"/><g><path d="M277.947,285.111c0,15.432-12.522,27.944-27.957,27.944c-15.419,0-27.957-12.512-27.957-27.944      c0-15.444,12.539-27.957,27.957-27.957C265.425,257.153,277.947,269.666,277.947,285.111z" style="fill:#FF9554;"/><path d="M245.476,285.106c0-4.308-3.479-7.795-7.786-7.795c-4.316,0-7.812,3.487-7.812,7.795      c0,4.308,3.496,7.799,7.812,7.799C241.998,292.905,245.476,289.414,245.476,285.106z" style="fill:#59616A;"/><path d="M270.109,285.106c0-4.308-3.487-7.795-7.804-7.795c-4.299,0-7.786,3.487-7.786,7.795      c0,4.308,3.487,7.799,7.786,7.799C266.622,292.905,270.109,289.414,270.109,285.106z" style="fill:#59616A;"/></g><g><path d="M222.502,214.85c-2.555-1.162-5.803-0.632-8.085,1.645c-2.256,2.256-2.812,5.461-1.701,8.009      c0.299,0.697,0.675,1.368,1.231,1.919c2.607,2.611,7.042,2.397,9.914-0.474c2.872-2.872,3.086-7.321,0.479-9.923      C223.81,215.487,223.16,215.15,222.502,214.85z" style="fill:#586373;"/><path d="M287.673,220.79c-0.239-1.538-0.88-3.064-2.102-4.295c-2.282-2.269-5.513-2.808-8.077-1.645      c-0.667,0.299-1.316,0.637-1.846,1.175c-2.376,2.38-2.299,6.248-0.094,9.094c0.205,0.269,0.325,0.586,0.573,0.829      c2.872,2.872,7.316,3.085,9.923,0.474c0.556-0.551,0.915-1.222,1.214-1.911C287.767,223.355,287.878,222.081,287.673,220.79z" style="fill:#586373;"/></g></g></g></g><g id="Layer_1"/></svg>