<?xml version="1.0" ?><!DOCTYPE svg  PUBLIC '-//W3C//DTD SVG 1.1//EN'  'http://www.w3.org/Graphics/SVG/1.1/DTD/svg11.dtd'><svg style="enable-background:new 0 0 500 500.004;" version="1.1" viewBox="0 0 500 500.004" xml:space="preserve" xmlns="http://www.w3.org/2000/svg" xmlns:xlink="http://www.w3.org/1999/xlink"><g id="bitcoin-dollar-exchange"><g><path d="M250.002,500.004C111.935,500.004,0,388.074,0,249.998C0,111.931,111.935,0,250.002,0    C388.069,0,500,111.931,500,249.998C500,388.074,388.069,500.004,250.002,500.004z" style="fill:#59616A;"/><g id="_x31_8"><g><path d="M358.634,276.716v95.965c0,3.547-2.872,6.419-6.414,6.419H185.348      c-3.538,0-6.419-2.872-6.419-6.419v-95.965c0-3.556,2.88-6.428,6.419-6.428h166.871      C355.762,270.288,358.634,273.16,358.634,276.716z" style="fill:#5FD4AF;"/><rect height="83.136" style="fill:#FFFFFF;" width="154.037" x="191.767" y="283.134"/><path d="M196.973,351.176c-0.431-0.376-0.735-0.906-0.735-1.47v-50.025c0-0.555,0.256-1.094,0.675-1.461      c0.432-0.376,1-0.522,1.556-0.453c0.436,0.052,0.761,0.111,1.094,0.111c4.243,0,7.683-3.436,7.683-7.675      c0-0.051-0.055-0.479-0.055-0.521c-0.038-0.53,0.149-1.06,0.512-1.462c0.372-0.393,0.885-0.624,1.427-0.624h119.311      c0.543,0,1.056,0.231,1.419,0.624c0.371,0.402,0.555,0.932,0.521,1.462c0,0.042-0.034,0.359-0.047,0.402      c-0.017,4.359,3.432,7.795,7.675,7.795c0.333,0,0.654-0.06,0.978-0.102c0.556-0.068,1.188,0.085,1.611,0.453      c0.431,0.368,0.726,0.898,0.726,1.453v50.025c0,0.564-0.248,1.102-0.675,1.47c-0.423,0.368-0.992,0.539-1.547,0.453      c-0.44-0.068-0.761-0.119-1.094-0.119c-4.243,0-7.692,3.444-7.692,7.683c0.008,0.035,0.064,0.47,0.064,0.513      c0.034,0.539-0.15,1.077-0.521,1.47c-0.363,0.393-0.876,0.615-1.419,0.615H209.13c-0.543,0-1.056-0.222-1.427-0.615      c-0.363-0.393-0.551-0.932-0.512-1.47c0-0.042,0.034-0.35,0.038-0.393c0.017-4.359-3.423-7.803-7.666-7.803      c-0.333,0-0.658,0.051-0.987,0.102C198.015,351.689,197.391,351.535,196.973,351.176z" style="fill:#5FD4AF;"/><path d="M302.544,324.698c0,6.376,5.192,11.573,11.564,11.573c6.389,0,11.572-5.197,11.572-11.573      c0-6.384-5.184-11.564-11.572-11.564C307.736,313.134,302.544,318.314,302.544,324.698z" style="fill:#FFFFFF;"/><path d="M240.972,324.698c0,15.376,12.453,27.812,27.816,27.812c15.363,0,27.812-12.436,27.812-27.812      c0-15.359-12.449-27.811-27.812-27.811C253.425,296.887,240.972,309.339,240.972,324.698z" style="fill:#FFFFFF;"/><path d="M211.887,324.698c0,6.376,5.188,11.573,11.568,11.573c6.381,0,11.573-5.197,11.573-11.573      c0-6.384-5.192-11.564-11.573-11.564C217.075,313.134,211.887,318.314,211.887,324.698z" style="fill:#FFFFFF;"/><path d="M267.365,335.057c-3.419,0-6.517-1.111-8.722-2.325l-1.577,6.162      c1.996,1.102,5.414,2.094,8.931,2.248v5.009h5.201v-5.419c6.047-1,9.312-4.991,9.312-9.667c0-4.786-2.47-7.675-8.735-9.889      c-4.504-1.624-6.35-2.777-6.35-4.47c0-1.47,1.098-2.991,4.517-2.991c3.782,0,6.248,1.213,7.577,1.837l1.568-5.94      c-1.842-0.838-4.205-1.624-7.671-1.727v-4.632h-5.154v4.992c-5.62,1.051-8.876,4.675-8.876,9.35      c0,5.111,3.833,7.743,9.457,9.624c3.94,1.316,5.624,2.573,5.624,4.581C272.467,333.843,270.416,335.057,267.365,335.057z" style="fill:#5FD4AF;"/></g><g><path d="M317.433,127.341v95.965c0,3.538-2.872,6.419-6.414,6.419h-166.87      c-3.538,0-6.419-2.88-6.419-6.419v-95.965c0-3.556,2.88-6.427,6.419-6.427h166.87      C314.561,120.914,317.433,123.785,317.433,127.341z" style="fill:#FF9554;"/><rect height="83.128" style="fill:#FFFFFF;" width="154.037" x="150.567" y="133.759"/><path d="M155.772,201.802c-0.432-0.376-0.735-0.906-0.735-1.47v-50.025c0-0.556,0.256-1.094,0.675-1.462      c0.431-0.376,1-0.522,1.551-0.453c0.44,0.051,0.765,0.111,1.098,0.111c4.244,0,7.684-3.436,7.684-7.675      c0-0.052-0.06-0.479-0.06-0.522c-0.034-0.538,0.154-1.06,0.517-1.462c0.368-0.393,0.88-0.624,1.427-0.624h119.311      c0.543,0,1.056,0.231,1.419,0.624c0.372,0.402,0.556,0.923,0.522,1.462c0,0.043-0.034,0.359-0.047,0.402      c-0.017,4.359,3.432,7.795,7.675,7.795c0.333,0,0.654-0.06,0.979-0.103c0.555-0.068,1.184,0.086,1.611,0.453      c0.432,0.368,0.727,0.898,0.727,1.453v50.025c0,0.564-0.248,1.103-0.675,1.47c-0.423,0.367-0.992,0.538-1.547,0.453      c-0.44-0.069-0.761-0.12-1.094-0.12c-4.243,0-7.692,3.444-7.692,7.684c0.009,0.034,0.064,0.47,0.064,0.513      c0.034,0.538-0.15,1.077-0.522,1.47c-0.363,0.393-0.876,0.615-1.419,0.615H167.93c-0.547,0-1.06-0.222-1.427-0.615      c-0.363-0.393-0.551-0.932-0.517-1.47c0-0.043,0.039-0.351,0.043-0.393c0.017-4.359-3.423-7.803-7.667-7.803      c-0.333,0-0.658,0.051-0.987,0.103C156.811,202.314,156.187,202.161,155.772,201.802z" style="fill:#FF9554;"/><path d="M261.34,175.323c0,6.376,5.197,11.572,11.568,11.572c6.385,0,11.573-5.197,11.573-11.572      c0-6.385-5.188-11.564-11.573-11.564C266.536,163.759,261.34,168.939,261.34,175.323z" style="fill:#FFFFFF;"/><path d="M199.768,175.323c0,15.376,12.457,27.811,27.82,27.811c15.363,0,27.812-12.436,27.812-27.811      c0-15.359-12.449-27.812-27.812-27.812C212.224,147.512,199.768,159.964,199.768,175.323z" style="fill:#FFFFFF;"/><path d="M170.687,175.323c0,6.376,5.188,11.572,11.568,11.572c6.376,0,11.572-5.197,11.572-11.572      c0-6.385-5.197-11.564-11.572-11.564C175.874,163.759,170.687,168.939,170.687,175.323z" style="fill:#FFFFFF;"/><path d="M238.477,174.819c2.97-1.863,4.367-5.008,3.564-8.043c-1.017-3.803-5.056-6.265-10.538-6.436      v-4.504H227.9v4.496h-4.641v-4.496h-3.684v4.496h-5.624v3.812h3.491v22.931h-3.491v3.804h5.624v4.495h3.684v-4.495h4.641v4.495      h3.602v-4.495c3.568,0,6.483-0.769,8.65-2.248c1.88-1.299,3.072-3.077,3.436-5.137      C244.245,179.836,242.1,176.203,238.477,174.819z M225.1,164.144c0.415,0,0.808,0,1.171,0c0.333,0,0.654,0,0.953,0      c1.983,0,3.137,0.051,4.363,0.368c3.103,0.778,3.949,3.06,3.739,4.769c-0.346,2.718-2.859,3.949-5.043,3.949H225.1V164.144z       M232.758,186.511c-0.94,0.248-2.09,0.376-3.397,0.376H225.1v-9.991h4.111c2.184,0,4.021,0.487,5.325,1.419      c1.124,0.795,1.833,1.923,1.995,3.162C236.822,183.793,235.275,185.87,232.758,186.511z" style="fill:#FF9554;"/></g><path d="M367.817,226.374c0.795,0.017,1.081,0.555,0.641,1.222l-18.995,28.367     c-0.449,0.666-1.171,0.666-1.616,0l-18.94-28.41c-0.44-0.666-0.145-1.213,0.645-1.205l9.166,0.009     c0.795,0,1.431-0.65,1.402-1.453c0,0,3.41-34.17-14.517-39.658c-0.786-0.231-1.073-0.547-0.295-0.461     c30.906,3.53,32.316,40.154,32.316,40.154c0.111,0.786,0.859,1.436,1.658,1.436H367.817z" style="fill:#FFFFFF;"/><path d="M132.178,273.972c-0.795-0.008-1.081-0.547-0.641-1.205l18.995-28.375     c0.449-0.658,1.171-0.658,1.615,0l18.94,28.41c0.44,0.667,0.145,1.214-0.645,1.205l-9.166-0.009     c-0.795,0-1.432,0.658-1.402,1.453c0,0-3.41,34.171,14.517,39.658c0.786,0.231,1.073,0.556,0.295,0.462     c-30.906-3.53-32.316-40.154-32.316-40.154c-0.111-0.786-0.859-1.436-1.659-1.436L132.178,273.972z" style="fill:#FFFFFF;"/></g></g></g><g id="Layer_1"/></svg>