<?xml version="1.0" ?><!DOCTYPE svg  PUBLIC '-//W3C//DTD SVG 1.1//EN'  'http://www.w3.org/Graphics/SVG/1.1/DTD/svg11.dtd'><svg style="enable-background:new 0 0 500 500.004;" version="1.1" viewBox="0 0 500 500.004" xml:space="preserve" xmlns="http://www.w3.org/2000/svg" xmlns:xlink="http://www.w3.org/1999/xlink"><g id="folder-dollar-coin"><g><path d="M249.998,500.004C388.065,500.004,500,388.074,500,249.998C500,111.931,388.065,0,249.998,0    S0,111.931,0,249.998C0,388.074,111.931,500.004,249.998,500.004z" style="fill:#FF9554;"/><g id="_x33_5"><path d="M367.523,311.245l-53.602-68.05c-1.547-1.966-4.854-3.573-7.359-3.573H135.456     c-2.496,0-3.12,1.466-1.376,3.257l66.824,68.683c1.743,1.791,5.218,3.256,7.726,3.256c-2.508,0-6.064,1.389-7.902,3.077     l-51.568,47.367c-1.833,1.688-1.299,3.077,1.201,3.077h171.105c2.504,0,5.855-1.577,7.449-3.504l38.521-46.512     c1.594-1.927,0.855-3.504-1.645-3.504C368.292,314.818,369.07,313.211,367.523,311.245z" style="fill:#59616A;"/><path d="M357.758,311.694H211.998c-2.256,0-5.397-1.321-6.966-2.945l-60.358-62.029     c-1.577-1.62-1.017-2.949,1.243-2.949h158.345c2.256,0,5.248,1.457,6.649,3.231l48.414,61.465     C360.724,310.245,360.018,311.694,357.758,311.694z" style="fill:#FFFFFF;"/><polygon points="191.422,171.221 183.529,171.221 187.225,186.063    " style="fill:#59616A;"/><polygon points="169.14,171.221 161.17,171.221 165.375,186.123    " style="fill:#59616A;"/><path d="M365.792,192.199h-134.08c-3.735,15.385-14.012,28.444-27.632,35.949v5.79h102.482     c4.812,0.235,8.658,2.107,11.825,5.739l51.953,65.957V196.746C370.339,194.246,368.292,192.199,365.792,192.199z" style="fill:#59616A;"/><g><path d="M189.657,177.661c-0.979-0.462-1.966-0.889-2.979-1.278c-1.004-0.38-2.021-0.735-3.051-1.043      v-15.158c1.496,0.825,2.539,1.923,3.132,3.295c0.594,1.359,0.889,2.863,0.889,4.513h9.44c0.201-2.307-0.649-5.466-2.56-9.47      c-1.897-3.995-5.534-6.581-10.902-7.769v-5.026h-9.974v4.949c-4.85,0.927-8.431,2.867-10.748,5.838      c-2.325,2.966-3.564,5.97-3.718,9.008c-0.256,3.765,0.521,6.91,2.32,9.436c1.799,2.521,4.406,4.457,7.808,5.799      c0.675,0.256,1.376,0.53,2.132,0.812c0.748,0.287,1.474,0.556,2.205,0.812v15.316c-1.607-0.722-2.902-1.808-3.91-3.252      c-1.004-1.44-1.504-3.376-1.504-5.799h-10.051c0,3.923,1.171,7.816,3.517,11.675c2.346,3.868,6.32,6.316,11.948,7.35v5.179      l9.974,0.077v-5.257c4.842-0.722,8.53-2.44,11.06-5.145c2.53-2.705,3.97-5.94,4.329-9.705c0.415-3.406-0.256-6.419-2.009-9.047      C195.255,181.14,192.802,179.105,189.657,177.661z M173.652,172.477c-1.397-0.722-2.525-1.517-3.406-2.389      c-0.872-0.884-1.316-2.115-1.316-3.714c0-1.449,0.376-2.722,1.12-3.829c0.748-1.115,1.949-2.056,3.602-2.829V172.477z       M188.725,192.973c-0.098,1.137-0.581,2.115-1.432,2.936c-0.838,0.829-2.064,1.521-3.667,2.094v-12.761      c0.308,0.154,0.496,0.248,0.581,0.274c0.073,0.021,0.167,0.064,0.27,0.116c1.752,0.666,2.966,1.632,3.628,2.897      C188.785,189.793,188.994,191.272,188.725,192.973z" style="fill:#59616A;"/><linearGradient gradientUnits="userSpaceOnUse" id="SVGID_1_" x1="129.6294" x2="224.0408" y1="166.097" y2="166.097"><stop offset="0.5" style="stop-color:#FFFFFF"/><stop offset="0.5" style="stop-color:#EBEBEB"/></linearGradient><path d="M170.05,162.546c-0.743,1.107-1.12,2.38-1.12,3.829c0,1.598,0.445,2.829,1.316,3.714      c0.88,0.872,2.009,1.667,3.406,2.389v-12.76C171.999,160.49,170.798,161.43,170.05,162.546z" style="fill:url(#SVGID_1_);"/><linearGradient gradientUnits="userSpaceOnUse" id="SVGID_2_" x1="129.6568" x2="224.0109" y1="178.8383" y2="178.8383"><stop offset="0.5" style="stop-color:#FFFFFF"/><stop offset="0.5" style="stop-color:#EBEBEB"/></linearGradient><path d="M176.695,131.67c-26.047,0.077-47.111,21.252-47.038,47.303      c0.068,26.055,21.256,47.106,47.299,47.034c26.06-0.064,47.124-21.243,47.055-47.299      C223.938,152.661,202.742,131.597,176.695,131.67z M199.015,192.819c-0.359,3.765-1.799,7-4.329,9.705      c-2.53,2.705-6.218,4.423-11.06,5.145v5.257l-9.974-0.077v-5.179c-5.628-1.034-9.602-3.483-11.948-7.35      c-2.346-3.859-3.517-7.752-3.517-11.675h10.051c0,2.423,0.5,4.359,1.504,5.799c1.008,1.445,2.303,2.53,3.91,3.252v-15.316      c-0.731-0.256-1.457-0.526-2.205-0.812c-0.756-0.282-1.457-0.555-2.132-0.812c-3.401-1.342-6.008-3.278-7.808-5.799      c-1.799-2.525-2.577-5.671-2.32-9.436c0.154-3.039,1.393-6.043,3.718-9.008c2.316-2.97,5.897-4.91,10.748-5.838v-4.949h9.974      v5.026c5.368,1.188,9.004,3.773,10.902,7.769c1.911,4.005,2.761,7.163,2.56,9.47h-9.44c0-1.649-0.295-3.154-0.889-4.513      c-0.594-1.372-1.637-2.47-3.132-3.295v15.158c1.03,0.308,2.047,0.663,3.051,1.043c1.013,0.389,2,0.816,2.979,1.278      c3.145,1.444,5.598,3.479,7.35,6.111C198.759,186.4,199.43,189.413,199.015,192.819z" style="fill:url(#SVGID_2_);"/><linearGradient gradientUnits="userSpaceOnUse" id="SVGID_3_" x1="129.695" x2="223.9788" y1="191.6224" y2="191.6224"><stop offset="0.5" style="stop-color:#FFFFFF"/><stop offset="0.5" style="stop-color:#EBEBEB"/></linearGradient><path d="M184.477,185.631c-0.103-0.052-0.197-0.094-0.27-0.116      c-0.085-0.026-0.273-0.12-0.581-0.274v12.761c1.603-0.573,2.829-1.265,3.667-2.094c0.851-0.821,1.333-1.799,1.432-2.936      c0.269-1.701,0.06-3.18-0.62-4.444C187.443,187.263,186.229,186.298,184.477,185.631z" style="fill:url(#SVGID_3_);"/></g></g></g></g><g id="Layer_1"/></svg>