<?xml version="1.0" ?><!DOCTYPE svg  PUBLIC '-//W3C//DTD SVG 1.1//EN'  'http://www.w3.org/Graphics/SVG/1.1/DTD/svg11.dtd'><svg style="enable-background:new 0 0 499.991 500.006;" version="1.1" viewBox="0 0 499.991 500.006" xml:space="preserve" xmlns="http://www.w3.org/2000/svg" xmlns:xlink="http://www.w3.org/1999/xlink"><g id="finance-hammer"><g><ellipse cx="249.998" cy="250.003" rx="249.998" ry="250.003" style="fill:#5FD4AF;"/><g id="_x31_4"><g><path d="M227.425,281.243c3.44,3.795,9.363,4.085,13.153,0.649l9.769-8.867      c3.794-3.44,4.089-9.355,0.641-13.15l-45.35-50.017c-3.44-3.795-9.359-4.081-13.154-0.641l-9.769,8.863      c-3.795,3.444-4.09,9.35-0.645,13.145L227.425,281.243z" style="fill:#FF9554;"/><path d="M312.506,204.09c3.444,3.795,9.359,4.085,13.158,0.65l9.773-8.872      c3.791-3.427,4.081-9.35,0.637-13.154l-45.35-50.012c-3.44-3.791-9.359-4.082-13.153-0.645l-9.77,8.868      c-3.795,3.44-4.085,9.363-0.645,13.158L312.506,204.09z" style="fill:#59616A;"/><path d="M370.325,308.281l-66.67-73.516c-1.722-1.897-4.684-2.043-6.577-0.32l-1.15,1.042l-9.483-10.466      l21.261-19.29l-42.649-47.034l-54.615,49.521l42.654,47.038l21.269-19.286l9.492,10.47l-1.15,1.038      c-1.902,1.722-2.043,4.679-0.321,6.581l66.675,73.512c1.714,1.897,4.675,2.047,6.572,0.325l14.367-13.034      C371.898,313.14,372.044,310.183,370.325,308.281z" style="fill:#59616A;"/><path d="M281.621,341.443H142.918c-7.979,0-14.449,6.466-14.449,14.449      c0,7.983,6.47,14.449,14.449,14.449h138.704c7.979,0,14.449-6.466,14.449-14.449C296.07,347.909,289.6,341.443,281.621,341.443z      " style="fill:#59616A;"/></g><g><polygon points="133.717,217.188 154.294,209.094 131.255,189.97 161.345,194.628 155.815,156.171       180.003,180.167 188.003,157.466 193.656,188.569 190.904,189.705 187.772,173.556 182.139,189.513 163.063,170.586       167.456,201.098 146.516,196.833 165.605,211.184 152.524,214.949 164.819,215.859 164.828,215.859 165.045,219.261     " style="fill:#FFFFFF;"/></g></g></g></g><g id="Layer_1"/></svg>