<?xml version="1.0" ?><!DOCTYPE svg  PUBLIC '-//W3C//DTD SVG 1.1//EN'  'http://www.w3.org/Graphics/SVG/1.1/DTD/svg11.dtd'><svg style="enable-background:new 0 0 499.987 500.004;" version="1.1" viewBox="0 0 499.987 500.004" xml:space="preserve" xmlns="http://www.w3.org/2000/svg" xmlns:xlink="http://www.w3.org/1999/xlink"><g id="diamond"><g><path d="M249.998,500.004c138.067,0,249.989-111.931,249.989-250.007C499.987,111.931,388.065,0,249.998,0    C111.922,0,0,111.931,0,249.998C0,388.074,111.922,500.004,249.998,500.004z" style="fill:#59616A;"/><g id="_x33_1"><g><polygon points="370.138,260.716 370.133,260.716 331.732,197.439 331.728,197.439 250.617,197.439       168.067,197.439 168.067,197.439 129.653,260.716 129.653,260.716 251.494,395.275 370.014,261.07 370.334,261.07     " style="fill:#A8B6C0;"/><polygon points="190.909,260.716 129.653,260.716 129.653,260.716 251.494,395.275 190.909,260.716           " style="fill:#9DADB8;"/><polygon points="370.138,260.716 370.133,260.716 310.369,260.716 310.369,260.716 251.494,395.275       370.014,261.07 370.334,261.07     " style="fill:#9DADB8;"/><polygon points="310.369,260.716 370.133,260.716 331.732,197.439 331.728,197.439 310.369,260.716           " style="fill:#B3BFC8;"/><polygon points="310.369,260.716 250.617,197.439 190.909,260.716     " style="fill:#E4E8EB;"/><polygon points="190.909,260.716 168.067,197.439 168.067,197.439 129.653,260.716 190.909,260.716           " style="fill:#B3BFC8;"/><polygon points="190.909,260.716 251.494,395.275 310.369,260.716     " style="fill:#BEC8D0;"/><polygon points="250.617,197.439 168.067,197.439 190.909,260.716     " style="fill:#C8D1D7;"/><polygon points="331.728,197.439 250.617,197.439 310.369,260.716     " style="fill:#C8D1D7;"/></g><g><path d="M323.536,148.4c-2.585-2.602-4.35-7.346-4.842-9.478c-0.401,2.158-1.961,6.975-4.427,9.675      c-3.081,3.38-6.572,5.436-8.748,5.359c2.333,0.483,5.79,3.03,8.88,6.761c2.94,3.534,4.739,6.799,4.927,9.166      c0.098-2.376,1.765-5.713,4.543-9.38c2.914-3.833,6.252-6.526,8.56-7.115C330.249,153.499,326.711,151.593,323.536,148.4z" style="fill:#FFFFFF;"/><path d="M277.006,115.657c-2.662-3.098-4.231-8.521-4.611-10.936c-0.616,2.367-2.739,7.594-5.718,10.393      c-3.654,3.453-7.658,5.453-10.081,5.252c2.547,0.739,6.175,3.85,9.291,8.226c2.974,4.183,4.718,7.961,4.722,10.615      c0.303-2.637,2.44-6.21,5.824-10.056c3.577-4.034,7.522-6.761,10.133-7.213C284.143,121.948,280.314,119.525,277.006,115.657z" style="fill:#FFFFFF;"/></g></g></g></g><g id="Layer_1"/></svg>