<?xml version="1.0" ?><!DOCTYPE svg  PUBLIC '-//W3C//DTD SVG 1.1//EN'  'http://www.w3.org/Graphics/SVG/1.1/DTD/svg11.dtd'><svg style="enable-background:new 0 0 499.987 500.007;" version="1.1" viewBox="0 0 499.987 500.007" xml:space="preserve" xmlns="http://www.w3.org/2000/svg" xmlns:xlink="http://www.w3.org/1999/xlink"><g id="bank-building"><g><path d="M249.998,500.007C111.931,500.007,0,388.076,0,250C0,111.931,111.931,0,249.998,0    s249.989,111.931,249.989,250C499.987,388.076,388.065,500.007,249.998,500.007z" style="fill:#59616A;"/><g id="_x34_"><g><path d="M373.659,206.979c3.188,2.34,2.564,4.259-1.389,4.259H127.725c-3.962,0-4.586-1.919-1.389-4.259      l117.85-86.499c3.205-2.344,8.414-2.344,11.615,0L373.659,206.979z" style="fill:#FFFFFF;"/></g><g><path d="M325.54,207.079c2.854,2.103,2.29,3.816-1.252,3.816H175.712c-3.547,0-4.111-1.714-1.248-3.816      l70.346-51.628c2.863-2.098,7.526-2.098,10.38,0" style="fill:#B5B9BD;"/></g><g><path d="M333.617,226.53c0-3.953-3.24-7.196-7.205-7.196H173.588c-3.957,0-7.209,3.243-7.209,7.196      v115.807c0,3.966,3.252,7.207,7.209,7.207h152.824c3.966,0,7.205-3.242,7.205-7.207V226.53z" style="fill:#59616A;"/></g><g><linearGradient gradientUnits="userSpaceOnUse" id="SVGID_1_" x1="155.7547" x2="181.2932" y1="271.331" y2="271.331"><stop offset="0.5" style="stop-color:#FFFFFF"/><stop offset="0.5" style="stop-color:#EBEBEB"/></linearGradient><path d="M181.293,312.367c0,3.957-3.24,7.188-7.205,7.188h-11.124c-3.957,0-7.21-3.231-7.21-7.188      v-82.061c0-3.959,3.252-7.199,7.21-7.199h11.124c3.966,0,7.205,3.239,7.205,7.199V312.367z" style="fill:url(#SVGID_1_);"/></g><g><linearGradient gradientUnits="userSpaceOnUse" id="SVGID_2_" x1="318.6979" x2="344.236" y1="271.331" y2="271.331"><stop offset="0.5" style="stop-color:#FFFFFF"/><stop offset="0.5" style="stop-color:#EBEBEB"/></linearGradient><path d="M344.236,312.367c0,3.957-3.252,7.188-7.209,7.188h-11.133      c-3.961,0-7.196-3.231-7.196-7.188v-82.061c0-3.959,3.235-7.199,7.196-7.199h11.133c3.957,0,7.209,3.239,7.209,7.199V312.367z" style="fill:url(#SVGID_2_);"/></g><g><linearGradient gradientUnits="userSpaceOnUse" id="SVGID_3_" x1="264.3949" x2="289.9159" y1="271.331" y2="271.331"><stop offset="0.5" style="stop-color:#FFFFFF"/><stop offset="0.5" style="stop-color:#EBEBEB"/></linearGradient><path d="M289.916,312.367c0,3.957-3.239,7.188-7.196,7.188h-11.137      c-3.962,0-7.188-3.231-7.188-7.188v-82.061c0-3.959,3.226-7.199,7.188-7.199h11.137c3.957,0,7.196,3.239,7.196,7.199V312.367z" style="fill:url(#SVGID_3_);"/></g><g><linearGradient gradientUnits="userSpaceOnUse" id="SVGID_4_" x1="210.0792" x2="235.6002" y1="271.331" y2="271.331"><stop offset="0.5" style="stop-color:#FFFFFF"/><stop offset="0.5" style="stop-color:#EBEBEB"/></linearGradient><path d="M235.6,312.367c0,3.957-3.235,7.188-7.188,7.188h-11.145      c-3.949,0-7.188-3.231-7.188-7.188v-82.061c0-3.959,3.239-7.199,7.188-7.199h11.145c3.953,0,7.188,3.239,7.188,7.199V312.367z" style="fill:url(#SVGID_4_);"/></g><g><linearGradient gradientUnits="userSpaceOnUse" id="SVGID_5_" x1="249.9934" x2="249.9934" y1="376.9071" y2="349.5442"><stop offset="0.5" style="stop-color:#EBEBEB"/><stop offset="0.5" style="stop-color:#FFFFFF"/></linearGradient><path d="M370.322,369.715c0,3.959-3.235,7.192-7.197,7.192H136.862      c-3.953,0-7.197-3.233-7.197-7.192v-12.978c0-3.959,3.244-7.192,7.197-7.192h226.263c3.962,0,7.197,3.233,7.197,7.192V369.715z" style="fill:url(#SVGID_5_);"/></g><g><linearGradient gradientUnits="userSpaceOnUse" id="SVGID_6_" x1="249.9956" x2="249.9956" y1="349.5442" y2="329.9842"><stop offset="0.5" style="stop-color:#EBEBEB"/><stop offset="0.5" style="stop-color:#FFFFFF"/></linearGradient><path d="M362.92,337.189c0-3.957-3.24-7.205-7.197-7.205H144.259      c-3.957,0-7.188,3.248-7.188,7.205v5.147c0,3.966,3.231,7.207,7.188,7.207h211.464c3.957,0,7.197-3.242,7.197-7.207V337.189z" style="fill:url(#SVGID_6_);"/></g><g><linearGradient gradientUnits="userSpaceOnUse" id="SVGID_7_" x1="168.5327" x2="168.5327" y1="239.4275" y2="226.387"><stop offset="0.5" style="stop-color:#FFFFFF"/><stop offset="0.5" style="stop-color:#EBEBEB"/></linearGradient><path d="M186.768,232.908c0,3.579-3.24,6.519-7.197,6.519h-22.077c-3.97,0-7.196-2.94-7.196-6.519      c0-3.587,3.226-6.521,7.196-6.521h22.077C183.528,226.387,186.768,229.321,186.768,232.908z" style="fill:url(#SVGID_7_);"/></g><g><linearGradient gradientUnits="userSpaceOnUse" id="SVGID_8_" x1="331.4714" x2="331.4714" y1="239.4275" y2="226.387"><stop offset="0.5" style="stop-color:#FFFFFF"/><stop offset="0.5" style="stop-color:#EBEBEB"/></linearGradient><path d="M349.71,232.908c0,3.579-3.244,6.519-7.192,6.519h-22.094      c-3.961,0-7.192-2.94-7.192-6.519c0-3.587,3.231-6.521,7.192-6.521h22.094C346.467,226.387,349.71,229.321,349.71,232.908z" style="fill:url(#SVGID_8_);"/></g><g><linearGradient gradientUnits="userSpaceOnUse" id="SVGID_9_" x1="277.1491" x2="277.1491" y1="239.4275" y2="226.387"><stop offset="0.5" style="stop-color:#FFFFFF"/><stop offset="0.5" style="stop-color:#EBEBEB"/></linearGradient><path d="M295.39,232.908c0,3.579-3.244,6.519-7.201,6.519h-22.081      c-3.957,0-7.201-2.94-7.201-6.519c0-3.587,3.244-6.521,7.201-6.521h22.081C292.147,226.387,295.39,229.321,295.39,232.908z" style="fill:url(#SVGID_9_);"/></g><g><linearGradient gradientUnits="userSpaceOnUse" id="SVGID_10_" x1="222.8421" x2="222.8421" y1="239.4275" y2="226.387"><stop offset="0.5" style="stop-color:#FFFFFF"/><stop offset="0.5" style="stop-color:#EBEBEB"/></linearGradient><path d="M241.083,232.908c0,3.579-3.248,6.519-7.201,6.519h-22.085      c-3.957,0-7.196-2.94-7.196-6.519c0-3.587,3.239-6.521,7.196-6.521h22.085C237.835,226.387,241.083,229.321,241.083,232.908z" style="fill:url(#SVGID_10_);"/></g><g><linearGradient gradientUnits="userSpaceOnUse" id="SVGID_11_" x1="168.5262" x2="168.5262" y1="246.0515" y2="239.5321"><stop offset="0.5" style="stop-color:#FFFFFF"/><stop offset="0.5" style="stop-color:#EBEBEB"/></linearGradient><path d="M184.037,243.173c0,1.584-1.299,2.879-2.876,2.879h-25.256      c-1.585,0-2.889-1.295-2.889-2.879v-0.746c0-1.596,1.303-2.895,2.889-2.895h25.256c1.577,0,2.876,1.299,2.876,2.895V243.173z" style="fill:url(#SVGID_11_);"/></g><g><linearGradient gradientUnits="userSpaceOnUse" id="SVGID_12_" x1="331.4648" x2="331.4648" y1="246.0515" y2="239.5321"><stop offset="0.5" style="stop-color:#FFFFFF"/><stop offset="0.5" style="stop-color:#EBEBEB"/></linearGradient><path d="M346.975,243.173c0,1.584-1.295,2.879-2.885,2.879h-25.256      c-1.585,0-2.88-1.295-2.88-2.879v-0.746c0-1.596,1.295-2.895,2.88-2.895h25.256c1.59,0,2.885,1.299,2.885,2.895V243.173z" style="fill:url(#SVGID_12_);"/></g><g><linearGradient gradientUnits="userSpaceOnUse" id="SVGID_13_" x1="277.1491" x2="277.1491" y1="246.0515" y2="239.5321"><stop offset="0.5" style="stop-color:#FFFFFF"/><stop offset="0.5" style="stop-color:#EBEBEB"/></linearGradient><path d="M292.655,243.173c0,1.584-1.295,2.879-2.876,2.879h-25.252      c-1.598,0-2.885-1.295-2.885-2.879v-0.746c0-1.596,1.287-2.895,2.885-2.895h25.252c1.581,0,2.876,1.299,2.876,2.895V243.173z" style="fill:url(#SVGID_13_);"/></g><g><linearGradient gradientUnits="userSpaceOnUse" id="SVGID_14_" x1="222.8441" x2="222.8441" y1="246.0515" y2="239.5321"><stop offset="0.5" style="stop-color:#FFFFFF"/><stop offset="0.5" style="stop-color:#EBEBEB"/></linearGradient><path d="M238.352,243.173c0,1.584-1.312,2.879-2.884,2.879h-25.252      c-1.59,0-2.88-1.295-2.88-2.879v-0.746c0-1.596,1.29-2.895,2.88-2.895h25.252c1.572,0,2.884,1.299,2.884,2.895V243.173z" style="fill:url(#SVGID_14_);"/></g><g><linearGradient gradientUnits="userSpaceOnUse" id="SVGID_15_" x1="168.5262" x2="168.5262" y1="316.9673" y2="310.4483"><stop offset="0.5" style="stop-color:#FFFFFF"/><stop offset="0.5" style="stop-color:#EBEBEB"/></linearGradient><path d="M184.037,314.091c0,1.588-1.299,2.876-2.876,2.876h-25.256      c-1.585,0-2.889-1.288-2.889-2.876v-0.767c0-1.575,1.303-2.876,2.889-2.876h25.256c1.577,0,2.876,1.301,2.876,2.876V314.091z" style="fill:url(#SVGID_15_);"/></g><g><linearGradient gradientUnits="userSpaceOnUse" id="SVGID_16_" x1="331.4648" x2="331.4648" y1="316.9673" y2="310.4483"><stop offset="0.5" style="stop-color:#FFFFFF"/><stop offset="0.5" style="stop-color:#EBEBEB"/></linearGradient><path d="M346.975,314.091c0,1.588-1.295,2.876-2.885,2.876h-25.256      c-1.585,0-2.88-1.288-2.88-2.876v-0.767c0-1.575,1.295-2.876,2.88-2.876h25.256c1.59,0,2.885,1.301,2.885,2.876V314.091z" style="fill:url(#SVGID_16_);"/></g><g><linearGradient gradientUnits="userSpaceOnUse" id="SVGID_17_" x1="277.1491" x2="277.1491" y1="316.9673" y2="310.4483"><stop offset="0.5" style="stop-color:#FFFFFF"/><stop offset="0.5" style="stop-color:#EBEBEB"/></linearGradient><path d="M292.655,314.091c0,1.588-1.295,2.876-2.876,2.876h-25.252      c-1.598,0-2.885-1.288-2.885-2.876v-0.767c0-1.575,1.287-2.876,2.885-2.876h25.252c1.581,0,2.876,1.301,2.876,2.876V314.091z" style="fill:url(#SVGID_17_);"/></g><g><linearGradient gradientUnits="userSpaceOnUse" id="SVGID_18_" x1="222.8441" x2="222.8441" y1="316.9673" y2="310.4483"><stop offset="0.5" style="stop-color:#FFFFFF"/><stop offset="0.5" style="stop-color:#EBEBEB"/></linearGradient><path d="M238.352,314.091c0,1.588-1.312,2.876-2.884,2.876h-25.252      c-1.59,0-2.88-1.288-2.88-2.876v-0.767c0-1.575,1.29-2.876,2.88-2.876h25.252c1.572,0,2.884,1.301,2.884,2.876V314.091z" style="fill:url(#SVGID_18_);"/></g><g><linearGradient gradientUnits="userSpaceOnUse" id="SVGID_19_" x1="168.5327" x2="168.5327" y1="329.9842" y2="316.9568"><stop offset="0.5" style="stop-color:#FFFFFF"/><stop offset="0.5" style="stop-color:#EBEBEB"/></linearGradient><path d="M186.768,323.467c0,3.59-3.24,6.517-7.197,6.517h-22.077      c-3.97,0-7.196-2.927-7.196-6.517c0-3.586,3.226-6.511,7.196-6.511h22.077C183.528,316.957,186.768,319.882,186.768,323.467z" style="fill:url(#SVGID_19_);"/></g><g><linearGradient gradientUnits="userSpaceOnUse" id="SVGID_20_" x1="331.4714" x2="331.4714" y1="329.9842" y2="316.9568"><stop offset="0.5" style="stop-color:#FFFFFF"/><stop offset="0.5" style="stop-color:#EBEBEB"/></linearGradient><path d="M349.71,323.467c0,3.59-3.244,6.517-7.192,6.517h-22.094      c-3.961,0-7.192-2.927-7.192-6.517c0-3.586,3.231-6.511,7.192-6.511h22.094C346.467,316.957,349.71,319.882,349.71,323.467z" style="fill:url(#SVGID_20_);"/></g><g><linearGradient gradientUnits="userSpaceOnUse" id="SVGID_21_" x1="277.1491" x2="277.1491" y1="329.9842" y2="316.9568"><stop offset="0.5" style="stop-color:#FFFFFF"/><stop offset="0.5" style="stop-color:#EBEBEB"/></linearGradient><path d="M295.39,323.467c0,3.59-3.244,6.517-7.201,6.517h-22.081      c-3.957,0-7.201-2.927-7.201-6.517c0-3.586,3.244-6.511,7.201-6.511h22.081C292.147,316.957,295.39,319.882,295.39,323.467z" style="fill:url(#SVGID_21_);"/></g><g><linearGradient gradientUnits="userSpaceOnUse" id="SVGID_22_" x1="222.8421" x2="222.8421" y1="329.9842" y2="316.9568"><stop offset="0.5" style="stop-color:#FFFFFF"/><stop offset="0.5" style="stop-color:#EBEBEB"/></linearGradient><path d="M241.083,323.467c0,3.59-3.248,6.517-7.201,6.517h-22.085      c-3.957,0-7.196-2.927-7.196-6.517c0-3.586,3.239-6.511,7.196-6.511h22.085C237.835,316.957,241.083,319.882,241.083,323.467z" style="fill:url(#SVGID_22_);"/></g><g><linearGradient gradientUnits="userSpaceOnUse" id="SVGID_23_" x1="249.9956" x2="249.9956" y1="226.3633" y2="206.806"><stop offset="0.5" style="stop-color:#FFFFFF"/><stop offset="0.5" style="stop-color:#EBEBEB"/></linearGradient><path d="M362.92,214.013c0-3.957-3.24-7.207-7.197-7.207H144.259      c-3.957,0-7.188,3.25-7.188,7.207v5.149c0,3.957,3.231,7.201,7.188,7.201h211.464c3.957,0,7.197-3.243,7.197-7.201V214.013z" style="fill:url(#SVGID_23_);"/></g></g></g></g><g id="Layer_1"/></svg>