<?xml version="1.0" ?><!DOCTYPE svg  PUBLIC '-//W3C//DTD SVG 1.1//EN'  'http://www.w3.org/Graphics/SVG/1.1/DTD/svg11.dtd'><svg style="enable-background:new 0 0 499.996 500.004;" version="1.1" viewBox="0 0 499.996 500.004" xml:space="preserve" xmlns="http://www.w3.org/2000/svg" xmlns:xlink="http://www.w3.org/1999/xlink"><g id="atm-money-machine"><g><path d="M249.998,500.004C111.931,500.004,0,388.073,0,249.998C0,111.931,111.931,0,249.998,0    c138.063,0,249.998,111.931,249.998,249.998C499.996,388.073,388.061,500.004,249.998,500.004z" style="fill:#FF9554;"/><g id="_x32_8"><g><path d="M353.745,226.596h-37.534v124.871h37.534c8.077,0,14.679-6.615,14.679-14.692V241.28      C368.424,233.195,361.822,226.596,353.745,226.596z" style="fill:#FFFFFF;"/><path d="M344.382,327.801c0,4.641-2.137,8.436-4.748,8.436c-2.611,0-4.744-3.795-4.744-8.436v-75.931      c0-4.632,2.132-8.436,4.744-8.436c2.611,0,4.748,3.803,4.748,8.436V327.801z" style="fill:#C8CACD;"/></g><linearGradient gradientUnits="userSpaceOnUse" id="SVGID_1_" x1="220.2246" x2="220.2246" y1="369.9881" y2="130.0158"><stop offset="0.6258" style="stop-color:#FFFFFF"/><stop offset="0.6258" style="stop-color:#EBEBEB"/></linearGradient><path d="M293.194,130.016h-15.132H162.375h-15.124c-8.615,0-15.679,7.992-15.679,17.778v204.426     c0,9.769,7.064,17.769,15.679,17.769h145.943c8.62,0,15.684-8,15.684-17.769v-0.752V226.596v-78.803     C308.878,138.007,301.814,130.016,293.194,130.016z" style="fill:url(#SVGID_1_);"/><g><path d="M187.452,328.835H165.05c-1.521,0-2.769,1.239-2.769,2.778v15.658      c0,1.522,1.248,2.769,2.769,2.769h22.402c1.534,0,2.782-1.248,2.782-2.769v-15.658      C190.233,330.074,188.985,328.835,187.452,328.835z" style="fill:#B5B9BD;"/><path d="M187.452,297.595H165.05c-1.521,0-2.769,1.248-2.769,2.778v15.65c0,1.53,1.248,2.786,2.769,2.786      h22.402c1.534,0,2.782-1.256,2.782-2.786v-15.65C190.233,298.843,188.985,297.595,187.452,297.595z" style="fill:#B5B9BD;"/><path d="M187.452,266.357H165.05c-1.521,0-2.769,1.248-2.769,2.786v15.65      c0,1.538,1.248,2.777,2.769,2.777h22.402c1.534,0,2.782-1.239,2.782-2.777v-15.65      C190.233,267.604,188.985,266.357,187.452,266.357z" style="fill:#B5B9BD;"/><path d="M187.452,233.878H165.05c-1.521,0-2.769,1.256-2.769,2.778v15.658      c0,1.521,1.248,2.769,2.769,2.769h22.402c1.534,0,2.782-1.248,2.782-2.769v-15.658      C190.233,235.135,188.985,233.878,187.452,233.878z" style="fill:#B5B9BD;"/><path d="M231.417,328.835h-22.393c-1.53,0-2.773,1.239-2.773,2.778v15.658      c0,1.522,1.243,2.769,2.773,2.769h22.393c1.53,0,2.778-1.248,2.778-2.769v-15.658      C234.195,330.074,232.947,328.835,231.417,328.835z" style="fill:#B5B9BD;"/><path d="M231.417,297.595h-22.393c-1.53,0-2.773,1.248-2.773,2.778v15.65c0,1.53,1.243,2.786,2.773,2.786      h22.393c1.53,0,2.778-1.256,2.778-2.786v-15.65C234.195,298.843,232.947,297.595,231.417,297.595z" style="fill:#B5B9BD;"/><path d="M231.417,266.357h-22.393c-1.53,0-2.773,1.248-2.773,2.786v15.65      c0,1.538,1.243,2.777,2.773,2.777h22.393c1.53,0,2.778-1.239,2.778-2.777v-15.65      C234.195,267.604,232.947,266.357,231.417,266.357z" style="fill:#B5B9BD;"/><path d="M231.417,233.878h-22.393c-1.53,0-2.773,1.256-2.773,2.778v15.658      c0,1.521,1.243,2.769,2.773,2.769h22.393c1.53,0,2.778-1.248,2.778-2.769v-15.658      C234.195,235.135,232.947,233.878,231.417,233.878z" style="fill:#B5B9BD;"/><path d="M275.374,328.835h-22.385c-1.513,0-2.774,1.239-2.774,2.778v15.658      c0,1.522,1.261,2.769,2.774,2.769h22.385c1.534,0,2.786-1.248,2.786-2.769v-15.658      C278.16,330.074,276.908,328.835,275.374,328.835z" style="fill:#B5B9BD;"/><path d="M275.374,297.595h-22.385c-1.513,0-2.774,1.248-2.774,2.778v15.65      c0,1.53,1.261,2.786,2.774,2.786h22.385c1.534,0,2.786-1.256,2.786-2.786v-15.65      C278.16,298.843,276.908,297.595,275.374,297.595z" style="fill:#B5B9BD;"/><path d="M275.374,266.357h-22.385c-1.513,0-2.774,1.248-2.774,2.786v15.65      c0,1.538,1.261,2.777,2.774,2.777h22.385c1.534,0,2.786-1.239,2.786-2.777v-15.65      C278.16,267.604,276.908,266.357,275.374,266.357z" style="fill:#B5B9BD;"/><path d="M275.374,233.878h-22.385c-1.513,0-2.774,1.256-2.774,2.778v15.658      c0,1.521,1.261,2.769,2.774,2.769h22.385c1.534,0,2.786-1.248,2.786-2.769v-15.658      C278.16,235.135,276.908,233.878,275.374,233.878z" style="fill:#B5B9BD;"/></g><path d="M279.156,196.563c0,2.479-2.863,4.521-6.354,4.521H167.64c-3.491,0-6.363-2.034-6.363-4.521     v-44.837c0-2.487,2.859-4.521,6.363-4.521h105.162c3.491,0,6.354,2.034,6.354,4.521V196.563z" style="fill:#59616A;"/><g><path d="M239.823,175.656c0,4.06-3.307,7.35-7.359,7.35c-4.06,0-7.35-3.291-7.35-7.35      c0-4.051,3.291-7.35,7.35-7.35C236.515,168.306,239.823,171.605,239.823,175.656z" style="fill:#5FD4AF;"/><path d="M264.289,175.656c0,4.06-3.282,7.35-7.338,7.35c-4.051,0-7.35-3.291-7.35-7.35      c0-4.051,3.299-7.35,7.35-7.35C261.007,168.306,264.289,171.605,264.289,175.656z" style="fill:#5FD4AF;"/><path d="M215.323,175.656c0,4.06-3.295,7.35-7.35,7.35c-4.051,0-7.337-3.291-7.337-7.35      c0-4.051,3.286-7.35,7.337-7.35C212.028,168.306,215.323,171.605,215.323,175.656z" style="fill:#5FD4AF;"/><path d="M190.84,175.656c0,4.06-3.291,7.35-7.342,7.35c-4.06,0-7.35-3.291-7.35-7.35      c0-4.051,3.29-7.35,7.35-7.35C187.55,168.306,190.84,171.605,190.84,175.656z" style="fill:#5FD4AF;"/></g></g></g></g><g id="Layer_1"/></svg>