<?xml version="1.0" ?><!DOCTYPE svg  PUBLIC '-//W3C//DTD SVG 1.1//EN'  'http://www.w3.org/Graphics/SVG/1.1/DTD/svg11.dtd'><svg style="enable-background:new 0 0 499.991 500.009;" version="1.1" viewBox="0 0 499.991 500.009" xml:space="preserve" xmlns="http://www.w3.org/2000/svg" xmlns:xlink="http://www.w3.org/1999/xlink"><g id="hand-coins"><g><path d="M249.993,500.009C111.926,500.009,0,388.076,0,250C0,111.931,111.926,0,249.993,0    c138.072,0,249.998,111.931,249.998,250C499.991,388.076,388.065,500.009,249.993,500.009z" style="fill:#FF9554;"/><g id="_x39_"><g><path d="M358.852,237.844c-40.025,60.846-48.705,68.587-48.705,68.587      c-6.479,11.066-20.974,16.402-32.453,21.008c-33.012,13.278-63.32,33.198-75.521,53.846h-70.726      c-12.829-84.813,39.111-84.813,39.111-84.813c6.478-0.731,20.205-2.353,35.35-2.212c66.38-0.737,81.529-18.803,81.529-18.803      c15.854-18.795,19.461-25.448,47.615-63.057c17.385-23.258,22.243-14.786,28.906-11.382      C381.411,209.93,358.852,237.844,358.852,237.844z" style="fill:#59616A;"/></g><linearGradient gradientUnits="userSpaceOnUse" id="_x24__1_" x1="186.9171" x2="298.7281" y1="220.9875" y2="220.9875"><stop offset="0.5" style="stop-color:#FFFFFF"/><stop offset="0.5" style="stop-color:#EBEBEB"/></linearGradient><path d="M242.66,165.093c-30.867,0.09-55.832,25.186-55.743,56.053     c0.09,30.878,25.188,55.828,56.055,55.737c30.88-0.077,55.837-25.173,55.756-56.046     C298.643,189.964,273.528,165.01,242.66,165.093z M269.113,237.556c-0.427,4.461-2.132,8.295-5.128,11.502     c-3.004,3.205-7.367,5.239-13.111,6.096v6.231l-11.821-0.09v-6.141c-6.666-1.227-11.376-4.124-14.154-8.71     c-2.782-4.577-4.171-9.192-4.171-13.837h11.915c0,2.872,0.589,5.169,1.778,6.872c1.201,1.714,2.735,3,4.632,3.855v-18.15     c-0.863-0.303-1.726-0.624-2.611-0.957c-0.897-0.338-1.726-0.66-2.525-0.968c-4.03-1.588-7.12-3.878-9.252-6.866     c-2.132-3-3.06-6.724-2.756-11.183c0.188-3.605,1.658-7.167,4.41-10.68c2.748-3.517,6.996-5.82,12.735-6.916v-5.867h11.821v5.959     c6.363,1.408,10.667,4.472,12.918,9.205c2.269,4.741,3.274,8.485,3.034,11.226h-11.184c0-1.955-0.354-3.742-1.051-5.352     c-0.705-1.622-1.94-2.925-3.718-3.902v17.968c1.222,0.359,2.427,0.778,3.619,1.231c1.197,0.457,2.372,0.961,3.526,1.513     c3.731,1.714,6.637,4.124,8.709,7.239C268.809,229.951,269.605,233.522,269.113,237.556z M256.186,232.473     c0.803,1.5,1.051,3.252,0.735,5.267c-0.119,1.346-0.688,2.506-1.701,3.481c-0.987,0.981-2.444,1.801-4.346,2.476v-15.124     c0.368,0.186,0.594,0.297,0.692,0.327c0.081,0.032,0.192,0.074,0.316,0.141C253.955,229.831,255.395,230.975,256.186,232.473z      M239.053,198.332v15.122c-1.654-0.853-2.987-1.799-4.034-2.838c-1.03-1.041-1.555-2.506-1.555-4.398     c0-1.714,0.444-3.228,1.325-4.536C235.677,200.364,237.096,199.246,239.053,198.332z" id="_x24__2_" style="fill:url(#_x24__1_);"/><linearGradient gradientUnits="userSpaceOnUse" id="_x24__4_" x1="289.3819" x2="350.6978" y1="149.376" y2="149.376"><stop offset="0.5" style="stop-color:#FFFFFF"/><stop offset="0.5" style="stop-color:#EBEBEB"/></linearGradient><path d="M319.946,118.723c-16.923,0.049-30.611,13.812-30.564,30.739     c0.047,16.932,13.812,30.617,30.735,30.566c16.94-0.043,30.628-13.803,30.581-30.735     C350.651,132.364,336.877,118.677,319.946,118.723z M334.454,158.463c-0.235,2.446-1.171,4.549-2.812,6.308     c-1.645,1.756-4.038,2.872-7.188,3.341v3.417l-6.487-0.047v-3.37c-3.654-0.671-6.235-2.261-7.76-4.775     c-1.525-2.511-2.282-5.043-2.282-7.588h6.53c0,1.573,0.32,2.836,0.978,3.767c0.654,0.942,1.496,1.645,2.534,2.113v-9.953     c-0.47-0.165-0.944-0.34-1.427-0.523c-0.491-0.184-0.949-0.362-1.381-0.532c-2.218-0.87-3.91-2.126-5.077-3.765     c-1.167-1.645-1.68-3.688-1.513-6.133c0.098-1.976,0.906-3.929,2.414-5.856c1.513-1.929,3.838-3.192,6.983-3.791v-3.22h6.487     v3.269c3.487,0.771,5.846,2.451,7.086,5.045c1.239,2.602,1.791,4.656,1.658,6.16h-6.128c0-1.075-0.192-2.051-0.577-2.938     c-0.385-0.889-1.064-1.603-2.039-2.137v9.85c0.671,0.199,1.333,0.428,1.988,0.675c0.649,0.25,1.299,0.53,1.932,0.831     c2.043,0.938,3.636,2.261,4.773,3.972C334.288,154.291,334.723,156.251,334.454,158.463z M327.365,155.674     c0.44,0.821,0.577,1.786,0.406,2.889c-0.069,0.74-0.381,1.374-0.936,1.91c-0.539,0.536-1.338,0.985-2.381,1.357v-8.293     c0.205,0.102,0.321,0.16,0.372,0.177c0.056,0.017,0.111,0.041,0.179,0.079C326.142,154.225,326.933,154.852,327.365,155.674z      M317.967,136.95v8.295c-0.901-0.468-1.632-0.987-2.209-1.556c-0.564-0.573-0.85-1.376-0.85-2.41c0-0.94,0.239-1.771,0.726-2.489     C316.117,138.065,316.899,137.452,317.967,136.95z" id="_x24__3_" style="fill:url(#_x24__4_);"/></g></g></g><g id="Layer_1"/></svg>