<?xml version="1.0" ?><!DOCTYPE svg  PUBLIC '-//W3C//DTD SVG 1.1//EN'  'http://www.w3.org/Graphics/SVG/1.1/DTD/svg11.dtd'><svg style="enable-background:new 0 0 499.991 500.004;" version="1.1" viewBox="0 0 499.991 500.004" xml:space="preserve" xmlns="http://www.w3.org/2000/svg" xmlns:xlink="http://www.w3.org/1999/xlink"><g id="dollar-bills"><g><path d="M249.998,500.004C111.931,500.004,0,388.074,0,249.998C0,111.931,111.931,0,249.998,0    c138.071,0,249.993,111.931,249.993,249.998C499.991,388.074,388.069,500.004,249.998,500.004z" style="fill:#59616A;"/><g id="_x32_4"><path d="M381.274,170.824v121.73c0,3.367-2.735,6.111-6.107,6.111c-3.372,0-6.111-2.744-6.111-6.111     V176.918H163.494c-3.372,0-6.111-2.727-6.111-6.094c0-3.38,2.739-6.111,6.111-6.111h211.673     C378.539,164.712,381.274,167.443,381.274,170.824z" style="fill:#5FD4AF;"/><path d="M357.531,180.99H145.849c-3.363,0-6.111,2.744-6.111,6.111s2.748,6.102,6.111,6.102H351.42     v115.623c0,3.376,2.739,6.111,6.111,6.111c3.363,0,6.111-2.735,6.111-6.111V187.101     C363.642,183.734,360.894,180.99,357.531,180.99z" style="fill:#5FD4AF;"/><g><path d="M346.668,205.417v121.734c0,4.496-3.641,8.145-8.137,8.145H126.858      c-4.491,0-8.145-3.65-8.145-8.145V205.417c0-4.504,3.654-8.145,8.145-8.145h211.673      C343.027,197.272,346.668,200.913,346.668,205.417z" style="fill:#5FD4AF;"/><rect height="105.452" style="fill:#FFFFFF;" width="195.4" x="134.994" y="213.563"/><path d="M141.601,299.869c-0.547-0.47-0.932-1.145-0.932-1.863v-63.453c0-0.709,0.32-1.389,0.85-1.859      c0.551-0.47,1.269-0.662,1.974-0.568c0.555,0.068,0.966,0.145,1.389,0.145c5.38,0,9.743-4.368,9.743-9.744      c0-0.06-0.068-0.603-0.068-0.658c-0.043-0.68,0.193-1.35,0.654-1.855c0.466-0.505,1.12-0.786,1.808-0.786h151.349      c0.688,0,1.342,0.282,1.804,0.786c0.466,0.504,0.701,1.175,0.658,1.855c0,0.056-0.042,0.453-0.06,0.504      c-0.017,5.53,4.355,9.898,9.735,9.898c0.423,0,0.833-0.077,1.239-0.133c0.705-0.09,1.504,0.098,2.043,0.568      c0.551,0.47,0.923,1.136,0.923,1.846v63.453c0,0.718-0.312,1.397-0.85,1.867c-0.539,0.466-1.261,0.679-1.966,0.577      c-0.556-0.085-0.966-0.154-1.389-0.154c-5.38,0-9.752,4.376-9.752,9.752c0.008,0.043,0.077,0.594,0.077,0.645      c0.043,0.688-0.192,1.359-0.658,1.859c-0.462,0.5-1.115,0.786-1.804,0.786H157.02c-0.688,0-1.342-0.286-1.808-0.786      c-0.461-0.5-0.697-1.171-0.654-1.859c0-0.051,0.043-0.44,0.051-0.5c0.017-5.521-4.346-9.897-9.726-9.897      c-0.423,0-0.834,0.068-1.248,0.133C142.922,300.527,142.131,300.331,141.601,299.869z" style="fill:#5FD4AF;"/><path d="M275.51,266.284c0,8.09,6.589,14.679,14.675,14.679c8.098,0,14.679-6.59,14.679-14.679      s-6.581-14.671-14.679-14.671C282.1,251.613,275.51,258.195,275.51,266.284z" style="fill:#FFFFFF;"/><path d="M197.408,266.284c0,19.504,15.803,35.277,35.29,35.277c19.483,0,35.277-15.773,35.277-35.277      c0-19.478-15.795-35.278-35.277-35.278C213.212,231.007,197.408,246.806,197.408,266.284z" style="fill:#FFFFFF;"/><path d="M160.52,266.284c0,8.09,6.581,14.679,14.671,14.679c8.094,0,14.683-6.59,14.683-14.679      s-6.589-14.671-14.683-14.671C167.101,251.613,160.52,258.195,160.52,266.284z" style="fill:#FFFFFF;"/><path d="M230.891,279.425c-4.338,0-8.269-1.41-11.068-2.949l-1.996,7.816      c2.526,1.397,6.863,2.662,11.333,2.859v6.342h6.594v-6.872c7.666-1.269,11.812-6.333,11.812-12.265      c0-6.064-3.137-9.735-11.081-12.53c-5.718-2.068-8.055-3.534-8.055-5.675c0-1.868,1.389-3.795,5.726-3.795      c4.799,0,7.927,1.539,9.615,2.333l1.992-7.538c-2.342-1.069-5.337-2.06-9.735-2.192v-5.876h-6.538v6.333      c-7.129,1.337-11.257,5.931-11.257,11.863c0,6.474,4.859,9.812,11.996,12.214c4.996,1.662,7.137,3.256,7.137,5.803      C237.365,277.887,234.759,279.425,230.891,279.425z" style="fill:#5FD4AF;"/></g></g></g></g><g id="Layer_1"/></svg>