<?xml version="1.0" ?><!DOCTYPE svg  PUBLIC '-//W3C//DTD SVG 1.1//EN'  'http://www.w3.org/Graphics/SVG/1.1/DTD/svg11.dtd'><svg style="enable-background:new 0 0 500 500.009;" version="1.1" viewBox="0 0 500 500.009" xml:space="preserve" xmlns="http://www.w3.org/2000/svg" xmlns:xlink="http://www.w3.org/1999/xlink"><g id="mobile-graphs"><g><path d="M250.002,500.009C111.939,500.009,0,388.074,0,249.998C0,111.931,111.939,0,250.002,0    C388.069,0,500,111.931,500,249.998C500,388.074,388.069,500.009,250.002,500.009z" style="fill:#FF9554;"/><g id="_x36_"><g><path d="M313.865,118.721H186.148c-14.453,0.03-26.132,11.705-26.184,26.166V355.1      c0.051,14.461,11.731,26.141,26.184,26.184h127.717c14.461-0.043,26.145-11.722,26.171-26.184v-0.38v-1.539V144.888      C340.01,130.426,328.326,118.751,313.865,118.721z" style="fill:#59616A;"/><path d="M237.712,125.858h24.589c1.53,0,2.778,1.243,2.778,2.769c0,1.538-1.248,2.782-2.778,2.782      h-24.589c-1.539,0-2.778-1.244-2.778-2.782C234.934,127.101,236.173,125.858,237.712,125.858z" style="fill:#59616A;"/><path d="M250.002,372.552c-6.564,0-11.889-5.32-11.889-11.898c0-6.564,5.325-11.897,11.889-11.897      c6.581,0,11.906,5.333,11.906,11.897C261.908,367.232,256.583,372.552,250.002,372.552z" style="fill:#59616A;"/><linearGradient gradientUnits="userSpaceOnUse" id="SVGID_1_" x1="157.5533" x2="342.4431" y1="175.7394" y2="305.2007"><stop offset="0.5" style="stop-color:#FFFFFF"/><stop offset="0.5" style="stop-color:#EBEBEB"/></linearGradient><path d="M320.946,334.091c-0.218,3.675-3.355,6.722-7.081,6.722H186.148      c-3.855,0-7.128-3.265-7.137-7.133V147.264c0.009-3.855,3.282-7.12,7.137-7.137h127.717c3.859,0.017,7.128,3.282,7.141,7.137      v186.883L320.946,334.091z" style="fill:url(#SVGID_1_);"/></g><g><path d="M226.737,252.258v66.726c0,2.547-2.098,4.645-4.663,4.645h-21.722      c-2.564,0-4.658-2.098-4.658-4.645v-66.726c0-2.564,2.094-4.658,4.658-4.658h21.722      C224.639,247.601,226.737,249.695,226.737,252.258z" style="fill:#5FD4AF;"/><path d="M265.532,228.977v90.008c0,2.547-2.103,4.645-4.658,4.645h-21.727      c-2.564,0-4.662-2.098-4.662-4.645v-90.008c0-2.564,2.098-4.658,4.662-4.658h21.727      C263.429,224.319,265.532,226.413,265.532,228.977z" style="fill:#A8B6C0;"/><path d="M304.318,205.695v113.29c0,2.547-2.094,4.645-4.658,4.645h-21.718      c-2.564,0-4.658-2.098-4.658-4.645v-113.29c0-2.551,2.094-4.645,4.658-4.645h21.718      C302.224,201.05,304.318,203.144,304.318,205.695z" style="fill:#FF9554;"/><path d="M287.673,193.255l-15.064-6.872c-17.359,36.132-60.264,31.735-60.264,31.735      c32.367-5.389,45.974-26.752,50.495-36.188l-14.098-6.431l28.346-10.594L287.673,193.255z" style="fill:#4F5A69;"/></g></g></g></g><g id="Layer_1"/></svg>