<?xml version="1.0" ?><!DOCTYPE svg  PUBLIC '-//W3C//DTD SVG 1.1//EN'  'http://www.w3.org/Graphics/SVG/1.1/DTD/svg11.dtd'><svg style="enable-background:new 0 0 499.996 500.004;" version="1.1" viewBox="0 0 499.996 500.004" xml:space="preserve" xmlns="http://www.w3.org/2000/svg" xmlns:xlink="http://www.w3.org/1999/xlink"><g id="money-euro-coin"><g><path d="M249.998,500.004c138.067,0,249.998-111.931,249.998-250.007C499.996,111.931,388.065,0,249.998,0    S0,111.931,0,249.998C0,388.074,111.931,500.004,249.998,500.004z" style="fill:#59616A;"/><g><path d="M378.484,261.622c-3.222-0.137-5.684-2.846-5.564-6.051c0.077-1.834,0.128-3.684,0.128-5.551     c0-3.205,2.59-5.803,5.803-5.803c0.88,0,1.683,0.218,2.427,0.572c-0.137-3.329-0.385-6.671-0.761-9.931     c-0.675,0.444-1.436,0.778-2.282,0.923c-0.308,0.034-0.633,0.068-0.923,0.068c-2.803,0-5.265-2.025-5.726-4.902     c-0.291-1.833-0.624-3.658-0.974-5.457c-0.65-3.15,1.385-6.201,4.521-6.851c0.855-0.162,1.684-0.102,2.47,0.077     c-1.043-4.308-2.299-8.513-3.778-12.628c-0.555,0.581-1.222,1.094-2.034,1.423c-0.701,0.274-1.436,0.402-2.145,0.402     c-2.308,0-4.487-1.393-5.402-3.663c-0.667-1.697-1.402-3.384-2.162-5.072c-1.325-2.906-0.035-6.346,2.88-7.684     c0.769-0.351,1.589-0.5,2.393-0.5c-1.966-3.91-4.137-7.705-6.478-11.363c-0.41,0.671-0.949,1.273-1.641,1.778     c-1.009,0.697-2.171,1.026-3.308,1.026c-1.837,0-3.65-0.868-4.769-2.474c-1.069-1.539-2.146-3.043-3.265-4.504     c-1.949-2.564-1.453-6.188,1.094-8.124c0.675-0.538,1.436-0.867,2.222-1.03c-2.795-3.372-5.761-6.585-8.872-9.662     c-0.248,0.752-0.624,1.478-1.205,2.094c-1.145,1.265-2.718,1.906-4.29,1.906c-1.393,0-2.795-0.491-3.906-1.517     c-1.367-1.243-2.786-2.448-4.197-3.658c-2.462-2.051-2.795-5.714-0.726-8.184c0.53-0.641,1.196-1.12,1.897-1.462     c-3.453-2.654-7.043-5.162-10.769-7.479c-0.069,0.812-0.291,1.599-0.71,2.359c-1.068,1.872-3.026,2.919-5.051,2.919     c-0.974,0-1.957-0.239-2.854-0.752c-1.607-0.91-3.239-1.778-4.88-2.619c-2.863-1.449-4.017-4.936-2.556-7.799     c0.385-0.752,0.932-1.368,1.547-1.867c-3.957-1.825-8.034-3.453-12.188-4.867c0.111,0.786,0.077,1.594-0.154,2.414     c-0.752,2.53-3.068,4.162-5.573,4.162c-0.547,0-1.102-0.056-1.658-0.227c-1.752-0.526-3.538-1.03-5.342-1.461     c-3.12-0.774-5.017-3.919-4.239-7.034c0.205-0.842,0.615-1.594,1.145-2.235c-4.282-0.876-8.65-1.547-13.068-2.004     c0.308,0.765,0.487,1.585,0.427,2.487c-0.205,3.077-2.743,5.436-5.778,5.436c-0.137,0-0.256,0-0.376,0     c-1.837-0.124-3.684-0.184-5.538-0.218c-3.205-0.056-5.761-2.714-5.709-5.914c0.017-0.88,0.256-1.688,0.615-2.419     c-4.436,0.094-8.82,0.402-13.145,0.936c0.453,0.671,0.812,1.423,0.932,2.29c0.513,3.158-1.633,6.133-4.795,6.658     c-1.837,0.295-3.65,0.637-5.453,1.013c-0.393,0.068-0.795,0.128-1.188,0.128c-2.692,0-5.102-1.894-5.684-4.641     c-0.171-0.833-0.12-1.675,0.068-2.462c-4.299,1.06-8.504,2.338-12.615,3.842c0.59,0.568,1.102,1.231,1.427,2.03     c1.213,2.962-0.222,6.372-3.197,7.568c-1.701,0.705-3.384,1.436-5.043,2.188c-0.786,0.363-1.624,0.547-2.444,0.547     c-2.188,0-4.291-1.252-5.265-3.363c-0.368-0.774-0.504-1.573-0.513-2.381c-3.897,1.992-7.683,4.192-11.342,6.551     c0.684,0.389,1.299,0.915,1.786,1.632c1.846,2.62,1.222,6.222-1.402,8.069c-1.513,1.06-3.009,2.167-4.47,3.295     c-1.051,0.833-2.307,1.21-3.538,1.21c-1.735,0-3.462-0.765-4.607-2.248c-0.513-0.684-0.846-1.423-1.026-2.197     c-3.342,2.816-6.555,5.791-9.598,8.915c0.752,0.239,1.47,0.624,2.094,1.196c2.385,2.141,2.581,5.812,0.436,8.184     c-1.231,1.389-2.444,2.791-3.633,4.205c-1.136,1.415-2.803,2.12-4.478,2.12c-1.299,0-2.607-0.419-3.684-1.308     c-0.666-0.539-1.145-1.21-1.504-1.927c-2.641,3.474-5.12,7.09-7.41,10.816c0.803,0.081,1.598,0.273,2.367,0.697     c2.786,1.573,3.786,5.128,2.222,7.91c-0.897,1.607-1.76,3.24-2.59,4.902c-1.017,2.043-3.068,3.213-5.197,3.213     c-0.872,0-1.76-0.205-2.59-0.603c-0.761-0.389-1.385-0.936-1.889-1.538c-1.795,3.953-3.402,8.034-4.795,12.218     c0.778-0.124,1.598-0.103,2.419,0.115c3.094,0.902,4.872,4.116,3.991,7.192c-0.513,1.778-0.991,3.568-1.427,5.368     c-0.65,2.671-3.017,4.449-5.641,4.449c-0.453,0-0.915-0.035-1.368-0.15c-0.855-0.218-1.581-0.615-2.222-1.128     c-0.855,4.265-1.505,8.607-1.94,12.974c0.778-0.286,1.599-0.457,2.479-0.346c3.205,0.184,5.649,2.91,5.462,6.137     c-0.103,1.834-0.162,3.658-0.188,5.526c-0.034,3.18-2.633,5.735-5.803,5.735c-0.017,0-0.042,0-0.068,0     c-0.872-0.021-1.675-0.239-2.41-0.594c0.111,4.436,0.462,8.812,1.009,13.132c0.666-0.457,1.419-0.786,2.256-0.936     c3.231-0.534,6.171,1.577,6.709,4.722c0.316,1.846,0.667,3.658,1.06,5.47c0.667,3.158-1.325,6.235-4.461,6.906     c-0.41,0.094-0.829,0.128-1.231,0.128c-0.453,0-0.863-0.128-1.29-0.218c1.111,4.299,2.444,8.517,3.974,12.632     c0.556-0.607,1.214-1.128,2.026-1.462c2.974-1.21,6.368,0.196,7.581,3.145c0.709,1.722,1.445,3.389,2.231,5.051     c1.368,2.906,0.119,6.372-2.795,7.731c-0.761,0.363-1.581,0.521-2.376,0.521c2.026,3.889,4.239,7.675,6.624,11.32     c0.41-0.697,0.94-1.32,1.641-1.833c2.616-1.846,6.239-1.222,8.094,1.389c1.069,1.504,2.163,2.987,3.308,4.423     c1.974,2.521,1.53,6.179-0.983,8.162c-0.684,0.526-1.453,0.82-2.231,1.004c2.829,3.35,5.838,6.543,8.991,9.573     c0.239-0.752,0.615-1.483,1.179-2.12c2.137-2.38,5.812-2.585,8.197-0.457c1.385,1.222,2.794,2.431,4.222,3.581     c2.487,2.038,2.872,5.701,0.838,8.175c-0.53,0.671-1.213,1.171-1.932,1.513c3.496,2.632,7.145,5.098,10.906,7.363     c0.06-0.808,0.265-1.615,0.684-2.38c1.547-2.804,5.085-3.829,7.889-2.291c1.615,0.91,3.256,1.757,4.914,2.585     c2.88,1.427,4.068,4.902,2.641,7.774c-0.376,0.757-0.94,1.38-1.564,1.893c4.008,1.769,8.111,3.35,12.316,4.722     c-0.128-0.812-0.128-1.632,0.128-2.474c0.872-3.09,4.12-4.867,7.179-3.991c1.752,0.513,3.538,0.97,5.334,1.393     c3.119,0.727,5.06,3.864,4.333,6.975c-0.205,0.855-0.632,1.594-1.145,2.235c4.29,0.82,8.658,1.449,13.094,1.846     c-0.308-0.752-0.479-1.573-0.445-2.427c0.154-3.226,3.043-5.701,6.085-5.53c1.829,0.09,3.684,0.137,5.547,0.158     c3.205,0,5.795,2.637,5.778,5.838c-0.008,0.88-0.239,1.666-0.581,2.419c4.453-0.15,8.837-0.526,13.162-1.094     c-0.462-0.675-0.846-1.414-1-2.269c-0.564-3.171,1.556-6.166,4.71-6.726c1.829-0.329,3.641-0.696,5.453-1.073     c3.102-0.718,6.231,1.256,6.914,4.415c0.188,0.842,0.154,1.675-0.017,2.483c4.274-1.15,8.47-2.483,12.573-4.047     c-0.607-0.547-1.145-1.175-1.47-1.97c-1.265-2.953,0.12-6.372,3.077-7.607c1.701-0.726,3.376-1.504,5.043-2.29     c2.88-1.368,6.359-0.137,7.743,2.748c0.376,0.778,0.53,1.573,0.539,2.384c3.906-2.051,7.666-4.299,11.333-6.714     c-0.701-0.41-1.367-0.901-1.872-1.598c-1.889-2.577-1.299-6.222,1.291-8.094c1.504-1.094,2.983-2.209,4.427-3.35     c2.521-2.004,6.171-1.573,8.154,0.936c0.539,0.684,0.863,1.415,1.069,2.175c3.307-2.851,6.478-5.867,9.513-9.026     c-0.769-0.231-1.505-0.581-2.128-1.154c-2.419-2.098-2.676-5.765-0.556-8.184c1.222-1.402,2.41-2.816,3.581-4.265     c2.009-2.504,5.667-2.893,8.171-0.898c0.666,0.556,1.154,1.205,1.521,1.928c2.607-3.513,5.026-7.184,7.265-10.944     c-0.795-0.06-1.599-0.231-2.35-0.649c-2.821-1.53-3.872-5.051-2.342-7.868c0.872-1.628,1.726-3.282,2.53-4.944     c1.402-2.876,4.872-4.081,7.752-2.692c0.786,0.389,1.419,0.91,1.932,1.538c1.752-4.021,3.316-8.149,4.667-12.38     c-0.308,0.06-0.615,0.171-0.94,0.171c-0.513,0-1.052-0.077-1.564-0.227c-3.086-0.855-4.889-4.06-4.026-7.149     c0.496-1.778,0.94-3.556,1.35-5.342c0.718-3.137,3.846-5.099,6.949-4.38c0.846,0.184,1.59,0.581,2.239,1.073     c0.786-4.265,1.376-8.594,1.752-13.009c-0.666,0.273-1.41,0.41-2.179,0.41C378.646,261.622,378.569,261.622,378.484,261.622z      M250.023,352.476c-56.487,0-102.443-45.974-102.443-102.456c0-56.495,45.957-102.443,102.443-102.443     s102.452,45.948,102.452,102.443C352.475,306.502,306.51,352.476,250.023,352.476z" style="fill:#5FD4AF;"/><path d="M250.023,157.277c-51.145,0-92.751,41.593-92.751,92.743c0,51.137,41.606,92.756,92.751,92.756     s92.751-41.619,92.751-92.756C342.774,198.87,301.168,157.277,250.023,157.277z M287.049,201.357v10.932v10.987h-2.752     c-5.419-4.286-10.573-7.273-15.504-8.991c-0.402-0.128-0.812-0.252-1.205-0.389c-0.564-0.158-1.12-0.32-1.684-0.457     c-0.376-0.09-0.752-0.179-1.128-0.273c-0.598-0.124-1.205-0.214-1.812-0.308c-0.299-0.034-0.616-0.09-0.923-0.124     c-0.906-0.09-1.795-0.15-2.684-0.15c-1.325,0-2.59,0.069-3.82,0.205c-0.162,0.013-0.316,0.034-0.479,0.034     c-1.154,0.15-2.282,0.342-3.367,0.607c-0.188,0.056-0.368,0.09-0.547,0.145c-1.077,0.273-2.103,0.607-3.086,0.983     c-0.162,0.056-0.316,0.137-0.47,0.205c-1,0.419-1.974,0.876-2.889,1.423c-0.085,0.034-0.162,0.09-0.248,0.15     c-0.94,0.568-1.846,1.209-2.709,1.901c-0.026,0.026-0.043,0.034-0.06,0.06c-0.855,0.692-1.658,1.479-2.436,2.325     c-0.094,0.09-0.179,0.179-0.265,0.274c-0.735,0.82-1.419,1.722-2.086,2.666c-0.085,0.137-0.171,0.261-0.265,0.389     c-0.65,0.966-1.265,1.992-1.82,3.098c-0.616,1.188-1.197,2.453-1.718,3.786h0.957h36.496l-2.684,13.679h-37.743     c-0.102,1.423-0.154,2.816-0.154,4.226c0,0.491,0.026,0.992,0.035,1.483c0.042,1.457,0.119,2.906,0.265,4.32h35.487l-0.445,2.244     l-2.23,11.436H233.81c0.504,1.094,1.059,2.085,1.624,3.055c0.316,0.522,0.65,1.06,0.975,1.547     c0.41,0.607,0.829,1.201,1.256,1.769c0.368,0.466,0.735,0.923,1.12,1.347c0.453,0.534,0.94,1.025,1.427,1.504     c0.411,0.389,0.812,0.774,1.248,1.141c0.521,0.432,1.068,0.842,1.624,1.239c0.436,0.308,0.88,0.628,1.35,0.915     c0.59,0.351,1.222,0.684,1.846,0.966c0.478,0.239,0.949,0.505,1.436,0.697c0.684,0.295,1.41,0.513,2.128,0.752     c0.496,0.15,0.966,0.333,1.47,0.457c0.838,0.205,1.709,0.354,2.589,0.5c0.436,0.06,0.855,0.162,1.299,0.218     c1.367,0.158,2.769,0.253,4.222,0.253c7.598,0,15.88-3.569,24.872-10.739h2.752v2.235v21.944     c-10.521,4.5-21.231,6.756-32.145,6.756c-13.367,0-24.462-3.295-33.308-9.872c-8.436-6.312-14.196-15.192-17.299-26.683h-9.59     h-0.453l2.743-13.679h2.804h2.179h0.137c-0.069-0.842-0.06-1.697-0.094-2.543c-0.017,0.013-0.034,0.035-0.051,0.056     c-0.052-1.136-0.069-2.256-0.069-3.393c0-1.402,0.017-2.782,0.069-4.15h-7.265h-0.453l2.743-13.679h7     c2.957-11.936,8.769-21.261,17.384-27.995c8.974-7.013,20.179-10.547,33.607-10.547c10.795,0,21.487,2.291,32.06,6.829V201.357z" style="fill:#5FD4AF;"/><linearGradient gradientUnits="userSpaceOnUse" id="SVGID_1_" x1="147.5799" x2="352.4752" y1="250.0258" y2="250.0258"><stop offset="0.5" style="stop-color:#FFFFFF"/><stop offset="0.5" style="stop-color:#EBEBEB"/></linearGradient><path d="M250.023,147.576c-56.487,0-102.443,45.948-102.443,102.443     c0,56.483,45.957,102.456,102.443,102.456s102.452-45.974,102.452-102.456C352.475,193.524,306.51,147.576,250.023,147.576z      M250.023,342.775c-51.145,0-92.751-41.619-92.751-92.756c0-51.149,41.606-92.743,92.751-92.743s92.751,41.593,92.751,92.743     C342.774,301.156,301.168,342.775,250.023,342.775z M254.989,192.293c10.795,0,21.487,2.291,32.06,6.829v2.235v10.932v10.987     h-2.752c-5.419-4.286-10.573-7.273-15.504-8.991c-0.402-0.128-0.812-0.252-1.205-0.389c-0.564-0.158-1.12-0.32-1.684-0.457     c-0.376-0.09-0.752-0.179-1.128-0.273c-0.598-0.124-1.205-0.214-1.812-0.308c-0.299-0.034-0.616-0.09-0.923-0.124     c-0.906-0.09-1.795-0.15-2.684-0.15c-1.325,0-2.59,0.069-3.82,0.205c-0.162,0.013-0.316,0.034-0.479,0.034     c-1.154,0.15-2.282,0.342-3.367,0.607c-0.188,0.056-0.368,0.09-0.547,0.145c-1.077,0.273-2.103,0.607-3.086,0.983     c-0.162,0.056-0.316,0.137-0.47,0.205c-1,0.419-1.974,0.876-2.889,1.423c-0.085,0.034-0.162,0.09-0.248,0.15     c-0.94,0.568-1.846,1.209-2.709,1.901c-0.026,0.026-0.043,0.034-0.06,0.06c-0.855,0.692-1.658,1.479-2.436,2.325     c-0.094,0.09-0.179,0.179-0.265,0.274c-0.735,0.82-1.419,1.722-2.086,2.666c-0.085,0.137-0.171,0.261-0.265,0.389     c-0.65,0.966-1.265,1.992-1.82,3.098c-0.616,1.188-1.197,2.453-1.718,3.786h0.957h36.496l-2.684,13.679h-37.743     c-0.102,1.423-0.154,2.816-0.154,4.226c0,0.491,0.026,0.992,0.035,1.483c0.042,1.457,0.119,2.906,0.265,4.32h35.487l-0.445,2.244     l-2.23,11.436H233.81c0.504,1.094,1.059,2.085,1.624,3.055c0.316,0.522,0.65,1.06,0.975,1.547     c0.41,0.607,0.829,1.201,1.256,1.769c0.368,0.466,0.735,0.923,1.12,1.347c0.453,0.534,0.94,1.025,1.427,1.504     c0.411,0.389,0.812,0.774,1.248,1.141c0.521,0.432,1.068,0.842,1.624,1.239c0.436,0.308,0.88,0.628,1.35,0.915     c0.59,0.351,1.222,0.684,1.846,0.966c0.478,0.239,0.949,0.505,1.436,0.697c0.684,0.295,1.41,0.513,2.128,0.752     c0.496,0.15,0.966,0.333,1.47,0.457c0.838,0.205,1.709,0.354,2.589,0.5c0.436,0.06,0.855,0.162,1.299,0.218     c1.367,0.158,2.769,0.253,4.222,0.253c7.598,0,15.88-3.569,24.872-10.739h2.752v2.235v21.944     c-10.521,4.5-21.231,6.756-32.145,6.756c-13.367,0-24.462-3.295-33.308-9.872c-8.436-6.312-14.196-15.192-17.299-26.683h-9.59     h-0.453l2.743-13.679h2.804h2.179h0.137c-0.069-0.842-0.06-1.697-0.094-2.543c-0.017,0.013-0.034,0.035-0.051,0.056     c-0.052-1.136-0.069-2.256-0.069-3.393c0-1.402,0.017-2.782,0.069-4.15h-7.265h-0.453l2.743-13.679h7     c2.957-11.936,8.769-21.261,17.384-27.995C230.357,195.827,241.562,192.293,254.989,192.293z" style="fill:url(#SVGID_1_);"/></g></g></g><g id="Layer_1"/></svg>