<?xml version="1.0" ?><!DOCTYPE svg  PUBLIC '-//W3C//DTD SVG 1.1//EN'  'http://www.w3.org/Graphics/SVG/1.1/DTD/svg11.dtd'><svg style="enable-background:new 0 0 500 500;" version="1.1" viewBox="0 0 500 500" xml:space="preserve" xmlns="http://www.w3.org/2000/svg" xmlns:xlink="http://www.w3.org/1999/xlink"><g id="money-icon-dollar"><g><path d="M250.002,500C111.939,500,0,388.069,0,249.998C0,111.931,111.939,0,250.002,0    C388.069,0,500,111.931,500,249.998C500,388.069,388.069,500,250.002,500z" style="fill:#59616A;"/><g><path d="M378.471,261.631c-3.209-0.145-5.688-2.855-5.551-6.06c0.069-1.829,0.133-3.675,0.133-5.547     c0-3.201,2.585-5.803,5.799-5.803c0.88,0,1.68,0.222,2.427,0.568c-0.145-3.329-0.389-6.662-0.774-9.923     c-0.666,0.44-1.427,0.769-2.282,0.915c-0.295,0.039-0.616,0.073-0.91,0.073c-2.812,0-5.274-2.034-5.735-4.906     c-0.291-1.829-0.615-3.658-0.978-5.453c-0.641-3.154,1.393-6.205,4.534-6.85c0.85-0.167,1.684-0.107,2.474,0.073     c-1.047-4.299-2.316-8.508-3.782-12.632c-0.56,0.59-1.227,1.102-2.043,1.427c-0.697,0.282-1.423,0.406-2.141,0.406     c-2.303,0-4.487-1.389-5.401-3.658c-0.667-1.705-1.406-3.389-2.158-5.073c-1.333-2.914-0.039-6.359,2.885-7.692     c0.765-0.342,1.581-0.496,2.38-0.496c-1.966-3.914-4.132-7.701-6.474-11.367c-0.414,0.675-0.957,1.282-1.641,1.778     c-1.008,0.697-2.162,1.026-3.316,1.026c-1.825,0-3.633-0.863-4.761-2.474c-1.064-1.539-2.145-3.039-3.273-4.5     c-1.94-2.564-1.453-6.192,1.098-8.128c0.675-0.53,1.44-0.863,2.231-1.025c-2.795-3.368-5.765-6.59-8.876-9.667     c-0.244,0.752-0.632,1.483-1.21,2.102c-1.141,1.265-2.718,1.906-4.278,1.906c-1.406,0-2.795-0.491-3.914-1.517     c-1.368-1.252-2.778-2.457-4.205-3.667c-2.453-2.047-2.791-5.714-0.718-8.175c0.534-0.649,1.184-1.119,1.901-1.47     c-3.461-2.654-7.047-5.162-10.769-7.47c-0.077,0.803-0.295,1.59-0.705,2.359c-1.073,1.872-3.034,2.915-5.056,2.915     c-0.975,0-1.953-0.239-2.868-0.752c-1.594-0.915-3.226-1.774-4.88-2.616c-2.851-1.453-4.004-4.94-2.551-7.799     c0.389-0.752,0.932-1.372,1.547-1.868c-3.953-1.829-8.026-3.461-12.179-4.871c0.111,0.79,0.068,1.594-0.158,2.419     c-0.752,2.525-3.064,4.154-5.577,4.154c-0.534,0-1.094-0.056-1.641-0.222c-1.76-0.53-3.547-1.025-5.346-1.462     c-3.124-0.769-5.017-3.914-4.252-7.03c0.214-0.842,0.624-1.594,1.154-2.235c-4.282-0.876-8.649-1.556-13.064-2.009     c0.291,0.769,0.474,1.59,0.423,2.487c-0.197,3.077-2.748,5.436-5.786,5.436c-0.119,0-0.248,0-0.372,0     c-1.833-0.128-3.684-0.184-5.534-0.222c-3.214-0.051-5.765-2.7-5.705-5.914c0.017-0.876,0.248-1.68,0.615-2.419     c-4.449,0.094-8.829,0.411-13.15,0.94c0.462,0.675,0.803,1.427,0.936,2.29c0.508,3.163-1.641,6.128-4.807,6.663     c-1.825,0.286-3.637,0.637-5.449,1.009c-0.393,0.068-0.795,0.124-1.188,0.124c-2.688,0-5.103-1.885-5.671-4.632     c-0.184-0.838-0.133-1.684,0.056-2.47c-4.286,1.064-8.504,2.346-12.616,3.846c0.594,0.564,1.098,1.231,1.432,2.034     c1.21,2.961-0.231,6.368-3.192,7.56c-1.709,0.714-3.384,1.445-5.047,2.197c-0.786,0.363-1.624,0.543-2.444,0.543     c-2.188,0-4.295-1.256-5.265-3.367c-0.363-0.769-0.508-1.573-0.517-2.376c-3.893,2-7.675,4.192-11.333,6.555     c0.679,0.385,1.29,0.915,1.778,1.633c1.855,2.615,1.218,6.222-1.397,8.068c-1.509,1.06-3.009,2.163-4.474,3.295     c-1.051,0.824-2.304,1.209-3.534,1.209c-1.743,0-3.466-0.769-4.607-2.252c-0.513-0.68-0.842-1.423-1.026-2.192     c-3.35,2.812-6.556,5.782-9.607,8.914c0.756,0.235,1.474,0.615,2.102,1.188c2.385,2.145,2.581,5.821,0.428,8.188     c-1.231,1.385-2.44,2.795-3.611,4.205c-1.154,1.41-2.816,2.124-4.495,2.124c-1.295,0-2.603-0.423-3.68-1.321     c-0.662-0.526-1.141-1.205-1.504-1.923c-2.645,3.483-5.12,7.094-7.41,10.82c0.803,0.077,1.607,0.278,2.363,0.697     c2.795,1.577,3.791,5.124,2.218,7.91c-0.889,1.611-1.748,3.24-2.577,4.906c-1.017,2.034-3.064,3.205-5.209,3.205     c-0.863,0-1.743-0.205-2.573-0.602c-0.773-0.389-1.389-0.936-1.893-1.539c-1.799,3.953-3.406,8.038-4.799,12.226     c0.782-0.128,1.603-0.111,2.419,0.111c3.09,0.898,4.872,4.116,3.996,7.197c-0.513,1.778-1,3.564-1.431,5.359     c-0.645,2.675-3.021,4.453-5.646,4.453c-0.444,0-0.906-0.038-1.354-0.149c-0.863-0.218-1.585-0.62-2.235-1.133     c-0.85,4.265-1.5,8.607-1.927,12.974c0.765-0.286,1.598-0.453,2.47-0.342c3.205,0.179,5.654,2.91,5.461,6.128     c-0.102,1.837-0.162,3.667-0.184,5.53c-0.043,3.188-2.637,5.735-5.812,5.735c-0.021,0-0.043,0-0.068,0     c-0.868-0.017-1.667-0.239-2.415-0.59c0.124,4.428,0.466,8.808,1.021,13.128c0.666-0.457,1.41-0.786,2.256-0.932     c3.231-0.534,6.171,1.573,6.709,4.722c0.308,1.846,0.671,3.658,1.052,5.47c0.671,3.15-1.329,6.231-4.462,6.902     c-0.41,0.094-0.821,0.133-1.222,0.133c-0.453,0-0.872-0.133-1.299-0.222c1.119,4.303,2.448,8.517,3.966,12.637     c0.56-0.607,1.227-1.137,2.043-1.466c2.974-1.209,6.359,0.201,7.581,3.146c0.701,1.722,1.449,3.384,2.222,5.055     c1.368,2.906,0.128,6.372-2.782,7.727c-0.774,0.359-1.585,0.526-2.38,0.526c2.025,3.885,4.231,7.671,6.624,11.316     c0.41-0.697,0.932-1.32,1.641-1.833c2.611-1.846,6.231-1.222,8.09,1.393c1.059,1.504,2.162,2.988,3.307,4.419     c1.974,2.521,1.534,6.179-0.991,8.162c-0.671,0.53-1.445,0.82-2.227,1.004c2.837,3.355,5.846,6.539,8.991,9.577     c0.239-0.752,0.615-1.483,1.179-2.128c2.132-2.376,5.812-2.581,8.196-0.453c1.385,1.222,2.791,2.436,4.222,3.581     c2.496,2.034,2.868,5.692,0.855,8.171c-0.547,0.675-1.222,1.171-1.957,1.522c3.504,2.632,7.162,5.085,10.923,7.359     c0.06-0.803,0.252-1.615,0.675-2.384c1.551-2.795,5.094-3.821,7.889-2.282c1.62,0.906,3.256,1.752,4.919,2.581     c2.872,1.419,4.064,4.906,2.649,7.778c-0.38,0.752-0.944,1.376-1.577,1.889c4,1.769,8.111,3.351,12.316,4.718     c-0.128-0.803-0.119-1.624,0.124-2.47c0.884-3.094,4.128-4.872,7.179-3.991c1.765,0.513,3.547,0.974,5.342,1.393     c3.128,0.726,5.056,3.854,4.325,6.974c-0.201,0.855-0.628,1.59-1.141,2.231c4.295,0.829,8.658,1.444,13.086,1.855     c-0.299-0.752-0.474-1.573-0.432-2.436c0.158-3.231,3.043-5.692,6.073-5.53c1.838,0.094,3.688,0.145,5.556,0.162     c3.213,0,5.786,2.641,5.778,5.838c0,0.88-0.231,1.666-0.577,2.419c4.445-0.145,8.833-0.53,13.158-1.102     c-0.462-0.667-0.846-1.402-0.992-2.265c-0.568-3.171,1.547-6.171,4.705-6.718c1.829-0.333,3.641-0.701,5.444-1.077     c3.107-0.718,6.235,1.256,6.919,4.41c0.188,0.838,0.158,1.684-0.013,2.487c4.273-1.154,8.465-2.487,12.564-4.043     c-0.607-0.556-1.128-1.18-1.462-1.983c-1.265-2.94,0.115-6.367,3.077-7.598c1.697-0.726,3.376-1.504,5.042-2.29     c2.881-1.368,6.355-0.137,7.744,2.752c0.376,0.769,0.517,1.573,0.538,2.384c3.898-2.06,7.662-4.308,11.32-6.726     c-0.696-0.402-1.363-0.898-1.863-1.59c-1.885-2.581-1.308-6.231,1.29-8.094c1.508-1.094,2.983-2.213,4.427-3.35     c2.517-2.009,6.171-1.573,8.158,0.94c0.526,0.675,0.859,1.402,1.064,2.171c3.308-2.854,6.479-5.872,9.504-9.026     c-0.761-0.231-1.5-0.581-2.12-1.15c-2.414-2.102-2.671-5.765-0.56-8.184c1.227-1.41,2.419-2.82,3.59-4.265     c2.009-2.504,5.671-2.893,8.162-0.898c0.671,0.551,1.154,1.205,1.526,1.923c2.602-3.513,5.021-7.179,7.265-10.949     c-0.799-0.056-1.603-0.222-2.355-0.641c-2.82-1.534-3.871-5.051-2.342-7.872c0.876-1.632,1.735-3.278,2.534-4.94     c1.397-2.872,4.872-4.081,7.76-2.692c0.774,0.385,1.402,0.91,1.915,1.534c1.757-4.022,3.329-8.146,4.675-12.372     c-0.312,0.051-0.611,0.162-0.936,0.162c-0.513,0-1.06-0.073-1.573-0.222c-3.081-0.863-4.88-4.064-4.026-7.153     c0.491-1.778,0.944-3.556,1.355-5.346c0.718-3.132,3.846-5.09,6.949-4.376c0.842,0.184,1.585,0.586,2.235,1.077     c0.786-4.265,1.385-8.602,1.761-13.013c-0.671,0.273-1.415,0.419-2.184,0.419C378.642,261.631,378.556,261.631,378.471,261.631z      M250.019,352.467c-56.487,0-102.439-45.965-102.439-102.444c0-56.495,45.953-102.448,102.439-102.448     c56.491,0,102.448,45.953,102.448,102.448C352.467,306.502,306.51,352.467,250.019,352.467z" style="fill:#A8B6C0;"/><path d="M250.019,157.281c-51.14,0-92.739,41.589-92.739,92.743c0,51.128,41.598,92.747,92.739,92.747     c51.145,0,92.743-41.619,92.743-92.747C342.762,198.87,301.164,157.281,250.019,157.281z" style="fill:#A8B6C0;"/><linearGradient gradientUnits="userSpaceOnUse" id="SVGID_1_" x1="147.5799" x2="352.4669" y1="250.0217" y2="250.0217"><stop offset="0.5" style="stop-color:#FFFFFF"/><stop offset="0.5" style="stop-color:#EBEBEB"/></linearGradient><path d="M250.019,147.576c-56.487,0-102.439,45.953-102.439,102.448     c0,56.478,45.953,102.444,102.439,102.444c56.491,0,102.448-45.965,102.448-102.444     C352.467,193.529,306.51,147.576,250.019,147.576z M250.019,342.771c-51.14,0-92.739-41.619-92.739-92.747     c0-51.153,41.598-92.743,92.739-92.743c51.145,0,92.743,41.589,92.743,92.743C342.762,301.151,301.164,342.771,250.019,342.771z      M287.899,249.964c3.521,4.145,5.299,9.667,5.299,16.487c0,0.299-0.004,0.581-0.021,0.863c0-0.103-0.009-0.205-0.017-0.308     c-0.15,9.504-4.188,17.209-12.192,23.051c-1.812,1.308-3.761,2.487-5.846,3.513v20.346h-20.88V298.75     c-2.055,0.154-4.175,0.231-6.376,0.231c-0.573,0-1.128-0.008-1.692-0.008v14.944h-20.889v-17.5     c-5.483-1.372-10.611-3.064-15.367-5.051v-21.667v-1.726h2.389c5.222,4.171,11.017,7.402,17.325,9.65     c6.312,2.239,12.431,3.359,18.385,3.359c1.504,0,3.474-0.145,5.927-0.436c2.453-0.316,4.432-0.816,5.923-1.483     c1.842-0.723,3.376-1.765,4.645-3.128c0.299-0.312,0.547-0.663,0.774-1.009c0.068-0.132,0.137-0.269,0.205-0.389     c0.133-0.256,0.261-0.505,0.355-0.769c0.064-0.162,0.124-0.346,0.167-0.53c0.081-0.248,0.15-0.496,0.205-0.761     c0.038-0.197,0.068-0.419,0.09-0.611c0.051-0.414,0.09-0.816,0.09-1.269c0-2.444-1.03-4.444-3.081-5.983     c-2.051-1.556-4.53-2.667-7.372-3.401c-3.551-0.876-7.35-1.701-11.402-2.5c-4.047-0.791-7.833-1.744-11.333-2.91     c-4.18-1.376-7.739-3.009-10.705-4.897h-0.009c-0.363-0.235-0.692-0.47-1.038-0.709c-0.273-0.205-0.568-0.385-0.833-0.586     c-0.376-0.278-0.726-0.577-1.085-0.859c-0.248-0.205-0.5-0.402-0.731-0.594c-0.402-0.355-0.752-0.714-1.124-1.077     c-0.158-0.167-0.333-0.312-0.474-0.462c-0.504-0.534-0.97-1.081-1.406-1.645c-3.376-4.367-5.12-9.795-5.244-16.286     c0,0.034-0.004,0.081-0.004,0.133c-0.004-0.303-0.021-0.598-0.021-0.898c0-9.196,4.141-16.675,12.427-22.384     c0.765-0.53,1.539-1.021,2.325-1.505v-16.794v-1.718h20.889v1.718v10.137c2.508-0.265,5.107-0.393,7.795-0.393h0.274v-9.743     v-1.718h20.88v1.718v12.059c5.12,1.124,9.756,2.556,13.932,4.299v1.71v4.902v15.863h-2.329     c-3.872-3.128-8.611-5.782-14.192-7.936c-1.196-0.445-2.402-0.842-3.611-1.205c-0.457-0.133-0.923-0.269-1.402-0.393     c-0.872-0.235-1.757-0.436-2.645-0.616c-0.466-0.102-0.949-0.201-1.427-0.286c-0.931-0.158-1.867-0.295-2.82-0.397     c-0.414-0.051-0.825-0.116-1.248-0.145c-1.346-0.111-2.714-0.196-4.094-0.196c-2.265,0-4.329,0.162-6.179,0.461     c-1.816,0.291-3.722,0.906-5.739,1.803c-1.633,0.697-3.047,1.722-4.231,3.128c-1.205,1.376-1.799,2.923-1.799,4.654     c0,0.5,0.06,0.961,0.145,1.427c0.038,0.197,0.068,0.406,0.115,0.607c0.086,0.338,0.201,0.645,0.316,0.944     c0.081,0.184,0.145,0.376,0.231,0.547c0.167,0.316,0.363,0.611,0.568,0.889c0.102,0.154,0.179,0.286,0.282,0.436     c0.354,0.402,0.743,0.778,1.196,1.128c0.299,0.231,0.68,0.479,1.077,0.705c0.102,0.073,0.222,0.141,0.337,0.205     c0.41,0.209,0.846,0.423,1.333,0.645c2.034,0.88,4.769,1.693,8.209,2.432c3.517,0.778,6.897,1.496,10.149,2.192     c3.252,0.701,6.74,1.666,10.415,2.906C278.972,242.477,284.357,245.785,287.899,249.964z" style="fill:url(#SVGID_1_);"/></g></g></g><g id="Layer_1"/></svg>