<?xml version="1.0" ?><!DOCTYPE svg  PUBLIC '-//W3C//DTD SVG 1.1//EN'  'http://www.w3.org/Graphics/SVG/1.1/DTD/svg11.dtd'><svg style="enable-background:new 0 0 499.996 500.004;" version="1.1" viewBox="0 0 499.996 500.004" xml:space="preserve" xmlns="http://www.w3.org/2000/svg" xmlns:xlink="http://www.w3.org/1999/xlink"><g id="document-dollar"><g><path d="M249.998,500.004C111.931,500.004,0,388.073,0,250.002C0,111.926,111.931,0,249.998,0    c138.072,0,249.998,111.926,249.998,250.002C499.996,388.073,388.069,500.004,249.998,500.004z" style="fill:#A8B6C0;"/><g id="_x31_2"><g><linearGradient gradientUnits="userSpaceOnUse" id="SVGID_1_" x1="223.5022" x2="223.5022" y1="134.191" y2="333.1379"><stop offset="0.5" style="stop-color:#E0E0E0"/><stop offset="0.5" style="stop-color:#FFFFFF"/></linearGradient><path d="M310.672,134.191h-144.4l0.004,19.256c-0.03,13-10.534,23.495-23.53,23.521h-12.833      v149.751c0,3.479,2.945,6.41,6.414,6.419H248.4c-2.098-6.692-3.231-13.82-3.231-21.222c0-19.632,7.949-37.337,20.799-50.213      c12.872-12.863,30.585-20.795,50.226-20.795c0.303,0,0.594,0.043,0.897,0.043V140.618      C317.083,137.148,314.142,134.2,310.672,134.191z" style="fill:url(#SVGID_1_);"/><path d="M149.165,153.447v-4.53l-9.303,10.949h2.885C146.221,159.857,149.148,156.917,149.165,153.447z" style="fill:#FFFFFF;"/><g><path d="M366.398,261.703c-8.786-8.778-19.85-15.175-32.205-18.41V140.618       c-0.021-13.009-10.525-23.496-23.521-23.547H157.721v0.034c-2.462,0-4.863,1.043-6.521,2.991l-36.363,42.777       c-1.342,1.581-2.03,3.547-2.03,5.538h-0.008v158.306c0.03,13.009,10.534,23.495,23.529,23.538h120.144       c2.756,4.282,5.91,8.282,9.496,11.872c12.872,12.867,30.585,20.803,50.226,20.803c19.628,0,37.328-7.936,50.204-20.803       c12.872-12.872,20.799-30.577,20.799-50.213C387.197,292.284,379.27,274.579,366.398,261.703z M149.165,148.917v4.53       c-0.017,3.47-2.944,6.41-6.419,6.419h-2.885L149.165,148.917z M252.459,280.728h-98.482c-3.547,0-6.419,2.88-6.419,6.427       c0,3.538,2.872,6.41,6.419,6.41h93.67c-1.564,5.855-2.479,11.987-2.479,18.35c0,7.402,1.133,14.53,3.231,21.222H136.328       c-3.47-0.009-6.414-2.94-6.414-6.419V176.968h12.833c12.995-0.026,23.5-10.521,23.53-23.521l-0.004-19.256h144.4       c3.47,0.009,6.41,2.957,6.419,6.428v100.332c-0.303,0-0.594-0.043-0.897-0.043c-12.445,0-24.107,3.205-34.265,8.812H153.977       c-3.547,0-6.419,2.863-6.419,6.41c0,3.547,2.872,6.419,6.419,6.419h111.226C260.049,267.878,255.758,274.01,252.459,280.728z" style="fill:#59616A;"/><path d="M153.977,200.507h139.046c3.547,0,6.419-2.872,6.419-6.41c0-3.538-2.872-6.419-6.419-6.419       H153.977c-3.547,0-6.419,2.88-6.419,6.419C147.558,197.635,150.43,200.507,153.977,200.507z" style="fill:#59616A;"/><path d="M153.977,231.532h139.046c3.547,0,6.419-2.872,6.419-6.418c0-3.538-2.872-6.419-6.419-6.419       H153.977c-3.547,0-6.419,2.88-6.419,6.419C147.558,228.66,150.43,231.532,153.977,231.532z" style="fill:#59616A;"/></g></g><path d="M321.967,344.437v11.547h-11.094v-10.628c-7.517-0.355-14.786-2.483-19.051-4.833l3.35-13.119     c4.714,2.607,11.338,4.944,18.611,4.944c6.496,0,10.893-2.568,10.893-6.949c0-4.273-3.607-6.961-12.017-9.76     c-11.996-4.025-20.179-9.641-20.179-20.517c0-9.97,6.949-17.722,18.949-19.953v-10.632h10.996v9.859     c7.406,0.231,12.431,1.915,16.359,3.692l-3.355,12.675c-2.825-1.338-8.094-3.927-16.133-3.927c-7.299,0-9.671,3.24-9.671,6.389     c0,3.585,3.948,6.047,13.572,9.53c13.342,4.709,18.598,10.884,18.598,21.068C341.796,333.804,334.856,342.318,321.967,344.437z" style="fill:#5FD4AF;"/></g></g></g><g id="Layer_1"/></svg>