<?xml version="1.0" ?><!DOCTYPE svg  PUBLIC '-//W3C//DTD SVG 1.1//EN'  'http://www.w3.org/Graphics/SVG/1.1/DTD/svg11.dtd'><svg style="enable-background:new 0 0 499.992 500.004;" version="1.1" viewBox="0 0 499.992 500.004" xml:space="preserve" xmlns="http://www.w3.org/2000/svg" xmlns:xlink="http://www.w3.org/1999/xlink"><g id="calculator-pencil"><g><circle cx="249.994" cy="250.002" r="250.002" style="fill:#A8B6C0;"/><g id="_x38_"><linearGradient gradientUnits="userSpaceOnUse" id="SVGID_1_" x1="125.3194" x2="329.8477" y1="250.8922" y2="250.8922"><stop offset="0.5" style="stop-color:#586373"/><stop offset="0.5" style="stop-color:#474F59"/></linearGradient><path d="M125.319,145.841v210.111c0.009,8.009,6.449,14.378,13.88,14.393l0,0h176.768     c7.432-0.015,13.863-6.385,13.88-14.393l0,0V145.841c-0.017-8.019-6.449-14.387-13.88-14.402l0,0H139.2     C131.768,131.454,125.328,137.822,125.319,145.841L125.319,145.841z" style="fill:url(#SVGID_1_);"/><g><g><g><path d="M306.963,184.855c0,5.979-4.893,10.876-10.88,10.876H159.084        c-5.979,0-10.872-4.898-10.872-10.876v-22.472c0-5.983,4.893-10.872,10.872-10.872h136.999c5.987,0,10.88,4.889,10.88,10.872        V184.855z" style="fill:#AFE9D7;"/></g></g><g><g><path d="M233.315,227.844c0-3.592,2.94-6.523,6.526-6.523h16.316c3.59,0,6.526,2.932,6.526,6.523        v16.312c0,3.585-2.936,6.521-6.526,6.521H239.84c-3.586,0-6.526-2.936-6.526-6.521V227.844z" style="fill:#5FD4AF;"/></g><g><g><path d="M274.139,227.844c0-3.592,2.94-6.523,6.529-6.523h16.316c3.59,0,6.521,2.932,6.521,6.523         v16.312c0,3.585-2.932,6.521-6.521,6.521h-16.316c-3.59,0-6.529-2.936-6.529-6.521V227.844z" style="fill:#FF9554;"/></g></g></g><g><path d="M174.507,221.321h-16.316c-3.59,0-6.53,2.932-6.53,6.523v16.312c0,3.585,2.94,6.521,6.53,6.521       h16.316c3.59,0,6.521-2.936,6.521-6.521v-16.312C181.028,224.252,178.097,221.321,174.507,221.321z" style="fill:#FFFFFF;"/><path d="M215.332,221.321h-16.316c-3.59,0-6.522,2.932-6.522,6.523v16.312       c0,3.585,2.932,6.521,6.522,6.521h16.316c3.59,0,6.521-2.936,6.521-6.521v-16.312       C221.853,224.252,218.921,221.321,215.332,221.321z" style="fill:#FFFFFF;"/><path d="M174.507,255.876h-16.316c-3.59,0-6.53,2.934-6.53,6.517v16.316c0,3.583,2.94,6.523,6.53,6.523       h16.316c3.59,0,6.521-2.94,6.521-6.523v-16.316C181.028,258.81,178.097,255.876,174.507,255.876z" style="fill:#FFFFFF;"/><path d="M215.332,255.876h-16.316c-3.59,0-6.522,2.934-6.522,6.517v16.316       c0,3.583,2.932,6.523,6.522,6.523h16.316c3.59,0,6.521-2.94,6.521-6.523v-16.316       C221.853,258.81,218.921,255.876,215.332,255.876z" style="fill:#FFFFFF;"/><path d="M256.156,255.876H239.84c-3.586,0-6.526,2.934-6.526,6.517v16.316       c0,3.583,2.94,6.523,6.526,6.523h16.316c3.59,0,6.526-2.94,6.526-6.523v-16.316       C262.682,258.81,259.746,255.876,256.156,255.876z" style="fill:#FFFFFF;"/><path d="M296.985,255.876h-16.316c-3.59,0-6.529,2.934-6.529,6.517v16.316       c0,3.583,2.94,6.523,6.529,6.523h16.316c3.59,0,6.521-2.94,6.521-6.523v-16.316       C303.506,258.81,300.575,255.876,296.985,255.876z" style="fill:#FFFFFF;"/><path d="M174.507,290.425h-16.316c-3.59,0-6.53,2.934-6.53,6.522v16.314c0,3.585,2.94,6.521,6.53,6.521       h16.316c3.59,0,6.521-2.936,6.521-6.521v-16.314C181.028,293.359,178.097,290.425,174.507,290.425z" style="fill:#FFFFFF;"/><path d="M215.332,290.425h-16.316c-3.59,0-6.522,2.934-6.522,6.522v16.314       c0,3.585,2.932,6.521,6.522,6.521h16.316c3.59,0,6.521-2.936,6.521-6.521v-16.314       C221.853,293.359,218.921,290.425,215.332,290.425z" style="fill:#FFFFFF;"/><path d="M256.156,290.425H239.84c-3.586,0-6.526,2.934-6.526,6.522v16.314       c0,3.585,2.94,6.521,6.526,6.521h16.316c3.59,0,6.526-2.936,6.526-6.521v-16.314       C262.682,293.359,259.746,290.425,256.156,290.425z" style="fill:#FFFFFF;"/><path d="M296.985,290.425h-16.316c-3.59,0-6.529,2.934-6.529,6.522v16.314       c0,3.585,2.94,6.521,6.529,6.521h16.316c3.59,0,6.521-2.936,6.521-6.521v-16.314       C303.506,293.359,300.575,290.425,296.985,290.425z" style="fill:#FFFFFF;"/><path d="M174.507,324.976h-16.316c-3.59,0-6.53,2.934-6.53,6.526v16.312c0,3.587,2.94,6.521,6.53,6.521       h16.316c3.59,0,6.521-2.934,6.521-6.521v-16.312C181.028,327.909,178.097,324.976,174.507,324.976z" style="fill:#FFFFFF;"/><path d="M215.332,324.976h-16.316c-3.59,0-6.522,2.934-6.522,6.526v16.312       c0,3.587,2.932,6.521,6.522,6.521h16.316c3.59,0,6.521-2.934,6.521-6.521v-16.312       C221.853,327.909,218.921,324.976,215.332,324.976z" style="fill:#FFFFFF;"/><path d="M256.156,324.976H239.84c-3.586,0-6.526,2.934-6.526,6.526v16.312       c0,3.587,2.94,6.521,6.526,6.521h16.316c3.59,0,6.526-2.934,6.526-6.521v-16.312       C262.682,327.909,259.746,324.976,256.156,324.976z" style="fill:#FFFFFF;"/><path d="M296.985,324.976h-16.316c-3.59,0-6.529,2.934-6.529,6.526v16.312       c0,3.587,2.94,6.521,6.529,6.521h16.316c3.59,0,6.521-2.934,6.521-6.521v-16.312       C303.506,327.909,300.575,324.976,296.985,324.976z" style="fill:#FFFFFF;"/></g><g><path d="M291.258,166.104h4.261v12.784h-4.261v4.261h-12.782v-4.261h-4.265v-12.784h4.265v-4.263h12.782       V166.104z M291.258,166.17h-12.782v12.613h12.782V166.17z" style="fill:#59616A;"/></g></g><g><path d="M369.476,167.892h-18.718c0.056-8.487,0.098-13.549,0.116-13.626      c0.15-0.543,0.261-0.962,0.244-0.962c0,0,0-0.028,0.017-0.077c0,0,0.09-0.205,0.102-0.273      c0.051-0.077,8.316-21.408,8.316-21.408c1.004-2.57,2.449-2.502,3.214,0.154l6.513,22.46c-0.017-0.015,0.214,1.098,0.235,1.54      C369.522,155.76,369.51,160.336,369.476,167.892z" style="fill:#59616A;"/><linearGradient gradientUnits="userSpaceOnUse" id="SVGID_2_" x1="349.7323" x2="374.6766" y1="270.3879" y2="270.3879"><stop offset="0.5" style="stop-color:#FFFFFF"/><stop offset="0.5" style="stop-color:#EBEBEB"/></linearGradient><path d="M369.685,319.931h-0.786c0,0,0.427-106.074,0.572-147.723h-18.735      c-0.316,50.662-1.004,191.302-1.004,191.302c0,2.78,2.256,5.034,5.03,5.034l8.914,0.024c2.752,0.006,5.017-2.25,5.017-5.002      l0.021-0.489h0.671c2.777,0.017,5.025-2.218,5.06-4.985l0.231-33.106C374.689,322.218,372.45,319.953,369.685,319.931z" style="fill:url(#SVGID_2_);"/></g></g></g></g><g id="Layer_1"/></svg>