<?xml version="1.0" ?><!DOCTYPE svg  PUBLIC '-//W3C//DTD SVG 1.1//EN'  'http://www.w3.org/Graphics/SVG/1.1/DTD/svg11.dtd'><svg style="enable-background:new 0 0 499.996 500.004;" version="1.1" viewBox="0 0 499.996 500.004" xml:space="preserve" xmlns="http://www.w3.org/2000/svg" xmlns:xlink="http://www.w3.org/1999/xlink"><g id="chart-pie"><g><path d="M249.998,500.004C111.931,500.004,0,388.073,0,249.998C0,111.931,111.931,0,249.998,0    s249.998,111.931,249.998,249.998C499.996,388.073,388.065,500.004,249.998,500.004z" style="fill:#59616A;"/><g id="_x32_7"><path d="M370.334,188.814c-11.44-26.47-32.679-47.709-59.153-59.153L266.25,233.746L370.334,188.814z" style="fill:#A8B6C0;"/><g><path d="M243.015,256.985l44.927-104.089c-13.774-5.948-28.957-9.269-44.927-9.269      c-62.602,0-113.354,50.756-113.354,113.358c0,62.602,50.751,113.358,113.354,113.358c26.602,0,51.051-9.192,70.392-24.539      L243.015,256.985z" style="fill:#FFFFFF;"/><path d="M356.369,256.985c0-15.97-3.312-31.154-9.265-44.931l-104.089,44.931l70.392,88.819      C339.574,325.036,356.369,292.98,356.369,256.985z" style="fill:#FF9554;"/></g></g></g></g><g id="Layer_1"/></svg>