<?xml version="1.0" ?><!DOCTYPE svg  PUBLIC '-//W3C//DTD SVG 1.1//EN'  'http://www.w3.org/Graphics/SVG/1.1/DTD/svg11.dtd'><svg style="enable-background:new 0 0 499.991 500.004;" version="1.1" viewBox="0 0 499.991 500.004" xml:space="preserve" xmlns="http://www.w3.org/2000/svg" xmlns:xlink="http://www.w3.org/1999/xlink"><g id="credit-bank-card"><g><path d="M249.993,500.004c138.067,0,249.998-111.931,249.998-250.007C499.991,111.931,388.061,0,249.993,0    C111.922,0,0,111.931,0,249.998C0,388.074,111.922,500.004,249.993,500.004z" style="fill:#5FD4AF;"/><g><linearGradient gradientUnits="userSpaceOnUse" id="SVGID_1_" x1="118.7125" x2="381.2756" y1="250.0038" y2="250.0038"><stop offset="0.5" style="stop-color:#FFFFFF"/><stop offset="0.5" style="stop-color:#EBEBEB"/></linearGradient><path d="M134.691,164.952h230.584c0,0,15.264,0.996,15.987,15.978v138.132     c0,0,0.991,14.696-13.705,15.41l-232.865,0.568c0,0-15.979,1.146-15.979-15.978l0.56-138.132     C119.272,180.93,117.713,167.661,134.691,164.952z" style="fill:url(#SVGID_1_);"/><path d="M181.344,193.793c0.748-1,2.201-0.56,1.466-3.192c-0.616,0.077-1.227,0.167-1.846,0.252     c-1.214,1.299,0.692,0.308-0.975,0.975C179.926,193.178,180.823,192.652,181.344,193.793z M180.844,196.003     c0.479,0.269-0.149,1.688,1.718,0.487C181.862,195.174,181.323,196.272,180.844,196.003z M174.584,190.225     c1.867-0.021,3.009-0.932,4.91-0.483c-2.077-2.854-3.145-2.402-6.128-0.978C172.28,191.157,174.075,189.127,174.584,190.225z      M177.041,186.182c0.406-1.752-0.675,0.064-1.479-0.611C176.011,185.964,174.408,187.644,177.041,186.182z M202.635,219.909     c1.624,0.534,2.688,0.876,3.243,0.914c0.825-3.278-0.466-3.004-1.901-3.436C203.562,218.673,202.485,218.114,202.635,219.909z      M181.344,185.199c-0.731,1.06,1.722,0.551,1.837,0.491c-1.128-1.004-1.303-1.239-2.709-1.966     C179.362,184.811,181.092,185.541,181.344,185.199z M181.46,188.024c0.017-0.282-2.304,0.316,1.837,0.987     C183.823,186.169,182.203,188.558,181.46,188.024z M184.9,188.644C185.289,189.374,185.716,190.165,184.9,188.644L184.9,188.644z      M184.4,185.328c0.791-0.226,1.094,1.714,1.718-0.376C184.639,182.999,184.981,185.152,184.4,185.328z M185.263,182.498     C183.575,183.234,184.002,183.05,185.263,182.498L185.263,182.498z M157.956,217.738c0.312,1.269,1.286,0.803,1.692,1.124     C158.793,218.199,159.067,217.08,157.956,217.738z M203.362,304.549c-0.543,1.09-1.432-0.098-1.338,1.778     C204.596,305.937,203.156,304.98,203.362,304.549z M161.139,196.52c0.004,0,0.004,0,0.004,0c0.427-0.226,0.833-0.478,1.222-0.803     C161.952,195.99,161.541,196.255,161.139,196.52z M207.443,262.229c0.611-0.081,0.478-1.128,0.214-1.385     c-0.269,0.325-1.697,1.034-2.18,1.474c4.24-6.701-14.192-15.812-17.277-7.983c-4.679-0.449-7.859-7.504-6.867-11.047     c-9.692,8.064-8.132-11.235-0.859-6.444c2.5-2.235,5.184,0.188,6.188,4.077c-1.991-7.598,6.607-17.41,12.893-20.025     c-0.141,0.32-1.641,2.765-1.585,2.692c1.184-0.56,2.316-1.508,3.487-2.145c-1.517-1.064-1.803-2.261-2.205-2.701     c-1.35-0.034-1.701,0.141-3.192,0.555c3.423-2.397,8.692-1.213,9.081-5.526c-0.799,0.235-1.752,0.406-2.504,0.295     c0.094-0.098,1.974-0.611,1.65-1.402c-1.726-1.009-2.756-2.722-3.628-5.521c-4.013,4.577-3.564-5.825-8.402-0.312     c-1.282,1.453-2.851,16.162-3.991,5.709c-13.12-3.098-0.295-7.992-2.509-12.034c3.222,0.589,5.688-0.607,5.457-4.043     c-1.047,0.757-2.594,1.227-3.624,2.637c-0.214-0.979,0.325-1.316-0.368-2.273c-0.265,0.329-0.526,0.649-0.799,0.987     c-0.667-1.589-1.069-2.534-1.769-3.876c-0.013,0.047-1.752,1.577-1.974,1.667c2.837,6.111-18.342-0.295-21.534,0.914     c-6.068,3.175-15.59-2.927-22.778,1.65c1.192,0.573,2.15,1.359,3.436,1.85c-2.556-0.102-3.303,0.829-5.282,1.103     c1.355,0.346,2.051,0.983,3.932,1.227c-2.786,1.491-6.175,4.047-2.816,4.551c0.671,0.68-0.748,1.496-0.252,2.325     c0.898,0.051,1.483-0.479,2.338-0.372c-1.244,1.06-3.752,3.859-5.663,4.79c5.5-0.658,8.577-5.214,12.103-7.295     c-0.919,1.09-1.543,1.239-2.03,2.141c7.431-5.979,13.914,4.966,16.085,11.726c-0.526-0.09-0.573-0.731-1.35-0.808     c-1.115,8.312,0.235,16.79,7.303,22.782c-1.329-2.427-2.192-5.282-3.312-7.611c5.628,7.914,7.85,10.359,16.91,15.18     c9.081,4.812,4.607,6.478,5.979,14.517c-1.316,1.069,6.927,13.684,7.119,17.992c0.368,7.889-4.107,19.846,3.141,25.897     c2.295-4.94,1.966-8.722,2.325-13.282c2.637-0.594,5.107-2.325,4.201-5.496c3.513-1.013,1.68,0.196,3.842-3.65     c0.709,0.47,0.098,0.342,0.179,1.098c3.064-7.795,10.919-13.128,10.838-21.944C214.143,262.934,211.178,261.058,207.443,262.229z      M183.567,225.9c-1.021-3.889-0.41-3.889,1.103-3.744C184.409,223.126,183.797,224.917,183.567,225.9z M182.293,219.408     c1.842-0.291,3.812,0.333,5.658,3.291c-0.398,0.453-0.568,0.286-0.987,1.419c-0.308-0.795-0.774-0.419-1.295-0.304     c-0.637-3.662-1.945-3.816-4.79-2.953C180.99,220.19,181.571,219.742,182.293,219.408z M179.229,217.246     c-2.278-0.321-1.346-1.611-1.837-3.569C177.631,214.413,178.597,216.131,179.229,217.246z M187.468,201.892     c-0.44-0.235,0.41,1.803,0.624,1.961c0.586-0.449,1.59-0.919,2.081-1.346C189.178,200.648,188.477,202.422,187.468,201.892z      M198.246,307.288c-0.158,0.445-1.483-0.893-1.658,0.915C200.024,309.732,197.943,308.134,198.246,307.288z M142.05,210.456     C143.409,211.062,142.204,210.524,142.05,210.456L142.05,210.456z M172.131,187.293c1.282,1.304,1.201-1.004,1.103-1.359     c-1.705,0.782-3.086,1.543-4.171,2.338C170.99,189.007,170.751,187.704,172.131,187.293z M185.015,192.319     c0.137-0.227,1.923-0.761,2.337-1.466C183.592,191.233,184.956,192.614,185.015,192.319z M172.255,191.708     c-3.71-3.504-7.03-0.953-5.282,2.701C168.768,193.857,170.61,192.567,172.255,191.708z M170.041,195.626     c3.53,2.06,10.914,1.983,8.466-1.346c-0.505-0.927-0.928-1.308-0.355-2.325c-1.786,0.423-1.034-0.637-1.85,1.35     c-2.086-1.786-4.428-1.154-6.5,0.974c0.859,0.171,1.718,0.325,2.568,0.491C171.819,195.191,170.315,194.785,170.041,195.626z      M175.075,184.952c0.812,0,1.726-0.5,2.453-0.491C176.503,184.451,176.165,182.917,175.075,184.952z M276.622,194.255     c-2.479-3.628,2.188-6.128,6.073-6.996c-4.68-0.41-10.944,2.201-8.286,7.491C274.647,194.387,276.104,195.191,276.622,194.255z      M295.891,182.781c0.38-1.316,2.256,0.368,1.837-1.962C294.138,180.349,296.181,181.781,295.891,182.781z M297.053,182.905     c0.303,0.043,1.457,1.432,3.017,0.987C299.403,181.533,298.583,183.122,297.053,182.905z M277.412,194.815     C277.878,196.336,277.562,195.293,277.412,194.815L277.412,194.815z M250.382,184.156c0.368,1.406,0.915,1.693,1.483,2.94     c-0.119,0.043,1.055-2.137,1.227-2.329c1.944,1.248,0.726,1.06,2.829,0.491c-3.415-3.35-6.953-3.624-7.743-0.739     C248.724,185.012,250.023,184.315,250.382,184.156z M271.895,196.96C271.677,196.285,271.459,195.618,271.895,196.96     L271.895,196.96z M255.297,183.546c0.568-0.666,1.786-0.718,2.462-1.607c-1.5-0.158-3.06-0.227-4.551-0.116     C253.288,183.768,254.6,182.473,255.297,183.546z M330.48,188.404c0.017,0.205,0.094,0.911,0.081,0.889     C330.527,188.772,330.488,188.512,330.48,188.404z M192.015,189.614c0.88-0.025,1.987,1.295,1.718-0.179     c-0.278-1.564-6.825-2.107-7.735-2.026C187.541,190.208,189.143,189.866,192.015,189.614z M353.399,194.319     c-0.53-0.299,0.051-1.885-1.59-0.551C351.42,195.426,352.586,193.853,353.399,194.319z M325.664,189.529     c0.893-0.385,1.568-0.196,2.513-0.663c-2.213-0.923-2.227-1.004-4.598-0.983C323.527,189.866,324.762,188.674,325.664,189.529z      M301.852,185.05c-0.051-0.709,2.013-0.991-0.244-2.013C299.352,184.738,301.809,184.451,301.852,185.05z M236.143,193.973     C236.216,194.759,236.323,196.028,236.143,193.973L236.143,193.973z M236.818,209.507     C237.913,208.473,237.122,209.225,236.818,209.507L236.818,209.507z M253.327,196.306     C253.292,195.515,253.305,195.785,253.327,196.306L253.327,196.306z M199.994,194.9c-2.504-2.252-4.876-3.137-7.367-1.846     c0.124-0.735,0.244-1.47,0.38-2.201c-1.863,0.56-2.307,0.872-3.568,1.714c0.167-0.62,0.329-1.231,0.487-1.846     c-7.231,6.436,15.043,6.128,2.825,11.171c2.09,0.893,4.368,2.102,7,3.072c-0.287-0.654-0.568-1.316-0.863-1.966     c0.577,0.368,1.145,0.731,1.722,1.094c-0.534-1.671-0.363-2.833-0.983-4.41c1.038,0.402,1.594,0.893,2.577,1.846     C202.366,199.123,201.511,197.148,199.994,194.9z M187.605,183.362C193.391,185.943,187.819,178.17,187.605,183.362     L187.605,183.362z M196.195,181.029c0.017-0.013-1.645,1.62-1.992,2.12c-0.812,0.141-1.457-0.551-2.055-0.53     c-1.355,1.791-1.043,2.256-3.201,3.808c6.073,3.979,11.598-5.184,17.312-7.244c-4.474-1.141-15.124-1.32-14.974,2.342     C193.122,181.404,194.229,182.204,196.195,181.029z M251.921,196.37C252.186,196.379,253.327,196.408,251.921,196.37     L251.921,196.37z M238.049,210.357c0.445,1.227-0.376,1.945,1.902,2.714c-1.602,2.222-0.615,1.073-0.491,2.568     c-0.145,0.308-1.12,1.325-1.41,1.726C246.164,216.46,239.412,207.246,238.049,210.357z M250.382,196.734     C251.297,196.405,251.429,196.362,250.382,196.734L250.382,196.734z M240.869,207.118     C240.118,205.404,240.758,206.857,240.869,207.118L240.869,207.118z M240.199,207.913     C239.664,208.079,239.613,208.092,240.199,207.913L240.199,207.913z M234.797,214.725     C239.164,214.844,236.994,209.99,234.797,214.725L234.797,214.725z M339.082,222.391c-0.97-0.342-1.487-0.722-1.658-1.833     c-0.133,0.961-0.812,2.564-0.863,3.556c0.363,0.102,2.389-0.137,2.389,0.735C338.95,225.067,339.283,221.425,339.082,222.391z      M338.117,261.472c-0.214-0.021-0.428-1.273-1.466-0.119C336.817,262.75,337.369,261.391,338.117,261.472z M335.36,212.985     c0.692,3.223,1.252,3.773,2.637,5.034c-0.594-1.722-0.902-2.077-1.129-3.145C335.783,214.033,336.719,213.46,335.36,212.985z      M333.98,232.772C332.924,232.968,333.04,232.955,333.98,232.772L333.98,232.772z M338.916,267.053     c3.248-0.799,6.201-0.402,9.188,1.256c-1.423-2.29-3.355-4.401-5.042-5.526c-2.876-1.068-4.252-1.842-6.91,0.218     C338.561,265.071,338.048,265.383,338.916,267.053z M332.51,231.289c3.009,0.884,8.773-0.757,4.915-6.004     c-0.295,2.97-1.402,2.846-2.205,4.846C334.39,230.721,333.411,230.045,332.51,231.289z M325.963,268.404     C327.339,267.494,326.57,268.002,325.963,268.404L325.963,268.404z M332.142,234.485c0.863-0.91-0.145-1.654,0.06-2.568     C331.894,233.31,330.518,233.058,332.142,234.485z M326.146,264.476c1.004,0.27,0.624-0.91,1.359-1.41     c0.867,0.547-0.423,1.56,1.282,1.538c-0.765-1.923-0.154-2.004-0.056-3.564c-1.59-0.577-0.556-0.047-1.581-1.393     C325.95,260.472,325.39,262.319,326.146,264.476z M329.095,268.468C329.442,266.976,329.048,268.707,329.095,268.468     L329.095,268.468z M333.634,262.814c0.013,0,0.013,0,0.013,0C333.903,263.075,333.818,262.989,333.634,262.814z M328.236,267.177     C326.531,267.224,326.219,267.237,328.236,267.177L328.236,267.177z M330.138,259.506c-1.081-0.496-2.086-0.423-2.851,0.043     C328.399,260.041,329.001,259.468,330.138,259.506z M248.177,224.114C247.75,225.306,247.6,225.733,248.177,224.114     L248.177,224.114z M251.506,229.054C251.865,228.203,251.707,228.601,251.506,229.054L251.506,229.054z M247.416,226.037     C247.81,226.695,248.664,228.088,247.416,226.037L247.416,226.037z M247.686,209.02     C249.34,209.639,247.34,208.892,247.686,209.02L247.686,209.02z M351.373,195.678c-4.167-1.03-6.295,0.748-10.18,0.243     c-3.517-0.461-7.966-3.564-11.478-3.748c-3.85-0.201-5.718,1.752-10.684,0.666c-0.077-2.021-8.603-3.158-13.137-1.15     c7.735-4.53-2.974-6.978-3.863-4.235c-3.633,0.103-7.995,0.12-8.043,3.312c-3.086,1.145-4.243,0.222-1.658,3.808     c-0.743-0.265-2.701-1.611-3.192-1.974c-0.898-0.214,0.184,1.641,0.064,1.654c-1.274-0.983-1.333-1.235-2.214-2.513     c-0.556,3.257,1.269,4.983,3.748,6.692c-3.252-0.449-2.496-0.842-5.641,0.983c5.795-6.218-6.385-11.376-1.047-2.153     c-3.372-1.645-3.432-1.124-5.098-0.12c-2.453-0.692-5.102,0.06-8.342,1.966c-0.786-1.675-0.675-1.098-2.094-1.846     c0.12,0.786,0.586,2.184,0.859,2.884c-2.961,0.821-1.286-0.154-2.581,1.966c-0.12,0.06-1.457-0.701-2.086-0.799     c0.402-0.004,0.479,1.227,0.38,1.47c-1.252-1.137-1.513-2.013-2.162-3.492c1.799,0.09,2.808-0.607,4.004-0.731     c-2.222-1.286-3.667-2.158-5.824-2.29c-0.898-2.65-3.932-1.479-5.62-1.923c-0.098,0.491-0.436,0.752-0.978,0.727     c-1.466,4.53-11.526,7.589-8.97,13.884c3.513,0.098,3.744-0.38,5.411,2.748c1.876-2.115,1.649-3.038,1.462-4.355     c0.543-2.389,1.966-7.683,5.53-5.825c-3.59,1.731-3.628,5.158,1.111,4.675c0.235,0.372,0.47,0.735,0.723,1.103     c-3.915,0.889-1.205,0.731-2.483,2.295c-0.684,0.205-1.111-0.06-1.299-0.795c-0.898,4.73-7.974,6.632-7.812,0.701     c-0.68,2.513-1.265,3.949-2.795,6.902c-2.526-0.175-4.338,0.957-6.731,2.235c0.004,0.171-0.008,0.338-0.034,0.496     c5.342,4.919-2.055,3.252-2.833,5.581c-1.213,3.568-0.137,5.325,2.825,4.979c4.983-0.598,8.88-13.393,13.744-1.41     c0.47-0.303,1.936-1.372,2.021-1.474c-2.551-1.748-3.141-3.821-3.91-5.812c2.56,2.35,4.355,4.564,6.214,6.923     c0.069,0.261-0.812,0.034-0.821,0.368c0.436,0.03,0.577,0.248,0.428,0.675c-0.017,0.081,1.808-0.637,1.902-0.68     c-0.239-0.932-0.987-0.97-1.197-1.684c1.004-0.137,1.851-0.705,3.175-1.098c-0.414-0.505-0.919-0.624-1.479-0.385     c1.5-1.65,2.304-2.846,3.517-5.017c0.735-0.094,4.167-0.188,5.457-0.06c-0.043,1.051,1.539,5.615,1.021,5.632     c-2.577,0.111-5.709-2.175-8.299-0.124c-3.363,2.65,2.483,4.979,5.624,4.359c0.175,1.239-0.086,4.372-0.556,5.586     c-2.568-1.547-3.654-0.915-6.598-1.098c0.009,0.795-0.025,1.62-0.06,2.444c-0.239-3.214-1.025-5.342-3.713-1.795     c-7.346-1.098-7.312-9.748-16.816-4.145c-5.914,3.487-6.209,10.833-9.115,17.329c1.111,2.291,3.175,5.026,5.513,7.769     c2.658,3.107,9.487-2.261,13.602,1.513c0.056,0.051,2,8.265,2.081,9.171c0.461,4.991-0.782,10.419,1.547,16.107     c4.132,10.107,13.919,4.094,14.295-5.428c0.098-2.649,3.568-2.487,3.962-4.384c0.649-3.163-1.474-6.235-0.714-8.684     c1.649-5.201,9.235-8.145,7.555-13.872c-7.132,4.662-11.209-9.897-13.192-14.803c5.915,3.718,4.885,17.042,14.167,12.218     c10.923-5.654-0.833-6.414-3.735-12.338c0.372,0.282,1.436-0.098,1.654-0.295c2.218,2.932,14.662,7.213,16.021,6.679     c0.526,4.162,2.206,8.163,3.987,11.85c2.521-5.286,5.102-9.269,9.154-13.073c0.898,2.291,2.184,3.547,2.76,6.261     c0.582-0.077,1.27-0.769,1.59-0.799c0.953,4.188,2.192,10.495,6.03,12.641c-0.359-3.624-2.239-5.722-2.837-9.017     c1.192,1.927,2.244,1.5,3.068,3.744c5.645-3.607-0.346-7.064,1.778-11.235c10.03,4.256,6.261-10.949,7.859-13.872     c-2.752-1.282-3.662,0.603-1.038-2.581c0.171,0.543,0.248,1.094,0.248,1.658c1-0.368,1.645-1.124,2.683-0.739     c0.201,1.786,1.599,3.244,2.218,5.154c0.214-2.581,0.825-1.769-1.107-5.03c1.88-2.65,4.183-2.611,5.859-6.098     c2.304-4.769-2.184-7.654-2.179-7.765c0.449-4.885,10.307-8.201,14.372-8.47c-1.829,3.089-3.945,7.508-0.432,11.042     c3.35-3.722-0.731-10.692,5.709-8.525c0.564-2.598,1.739-1.637,3.372-3.073c0.077,0.372,1.65-0.457-0.919-2.15     c0.5-1.068,1.538-1.658,1.842-2.517c1.376,1.722,2.615,1.624,4.355,3.128c0.354-0.556,1.222-2.129,1.419-3.068     C357.197,199.276,356.116,196.84,351.373,195.678z M333.634,262.814C333.215,262.434,332.232,261.54,333.634,262.814     L333.634,262.814z M348.352,263.575c-0.346,0.91-2.363,0.889-0.5,1.474C349.587,264.126,348.356,263.566,348.352,263.575z      M331.493,259.194c0.615,1.915,1.449,0.393,1.162,0.188C331.942,258.891,332.801,256.883,331.493,259.194z M357.373,276.899     C357.574,277.233,358.967,279.494,357.373,276.899L357.373,276.899z M349.232,262.327c0.436-0.115,0.778,1.876,0.863-0.239     C348.296,260.767,349.155,262.348,349.232,262.327z M320.262,262.887c4.991,1.923,6.128-5.829,4.436-7.885     C323.51,256.032,314.677,260.724,320.262,262.887z M271.557,279.079c1.889,6.808,5.419-6.294,5.099-8.987     C274.967,271.429,270.557,275.451,271.557,279.079z M232.583,199.75c-2.71-0.218-4.603-0.03-6.256,0.975     c0.863,1.094,0.346,0.782,0.983,1.961c1.525-0.607,1.517,0.214,2.577,0.748C231.669,202.255,232.87,202.212,232.583,199.75z      M327.01,259.447c0.064,0.073,0.098,0.124,0.141,0.201c0.047-0.034,0.081-0.081,0.137-0.098     C327.185,259.506,327.117,259.506,327.01,259.447z M308.544,255.947c2.615,2.577,5.346,9.427,7.974,7.616     C315.365,260.429,312.258,256.801,308.544,255.947z M225.169,194.532c1.641-0.214,0.611-0.675,3.06,0.12     c-0.346-0.637-0.859-2.5-1.346-3.316c3.269-0.039,4.017-2.419,4.051-4.667c-1.175-1.18-0.5-0.449-2.213-1.342     c0.427-1.431,1.303-1.445,2.213-2.462c-0.419-0.201-0.824-0.406-1.231-0.611c1.791-0.522,3.239-1.445,4.91-2.086     c-2.833,0.522-4.103,0.021-6.872,1.355c0.363-0.658,0.74-1.308,1.103-1.974c-3.086,0.419-2.508-0.214-6.385,0.124     c2.098-0.419,4.145-1.081,6.261-1.474c-2.188-0.081-3.821-0.419-6.261-0.119c0.774-0.325,1.556-0.654,2.342-0.987     c-3.363,0.496-5.953,0.722-8.718,0.735c0.098,0.739-0.03,1.431-0.376,2.094c-5.59-0.799-9.658,0.547-16.201,5.769     c0.376,0.158,2.88,0.577,3.06,0.611c-0.709,0.209-1.453,0.325-2.205,0.368c6.786,0.705,7.098,4.474,9.756,7.829     c-0.423,0.154-0.846,0.295-1.252,0.44c0.141,0.278,0.209,0.757,0.26,1.355c0.282,3.282-0.252,10.372,4.987,10.389     c0.141,0,3.226-6.025,5.393-6.504c2.551-0.568,5.59-3.38,8.355-5.034C226.942,194.913,226.096,194.644,225.169,194.532z      M317.373,262.327C316.091,261.118,316.001,261.041,317.373,262.327L317.373,262.327z M209.126,196.293     C207.793,196.315,207.964,196.315,209.126,196.293L209.126,196.293z M322.899,266.442c-1.838-1-4.026-1.838-6.62-0.859     C318.429,266.891,320.86,266.951,322.899,266.442z M191.088,246.118c1.073-0.376,2.56,0.026,3.534-0.376     C191.451,243.844,191.473,245.122,191.088,246.118z M195.143,245.904C196.443,245.955,196.532,245.955,195.143,245.904     L195.143,245.904z M183.135,242.776c3.154,0.555,5.098,1.013,7.239,1.658C187.785,242.699,186.028,241.412,183.135,242.776z      M187.344,245.998C188.913,245.861,189.409,245.814,187.344,245.998L187.344,245.998z M299.083,255.271     c0.419-1.607-0.718-1.705-0.923-2.769C298.433,253.981,296.536,255.225,299.083,255.271z M327.783,251.241     C328.818,251.092,328.83,251.092,327.783,251.241L327.783,251.241z M328.095,249.002     C329.245,249.733,329.989,250.203,328.095,249.002L328.095,249.002z M328.578,253.511     C329.014,253.511,326.309,253.541,328.578,253.511L328.578,253.511z M318.42,245.848c1.201-1.825-0.192-1.431-0.248-1.598     C318.403,244.955,316.792,245.635,318.42,245.848z M327.484,250.075C326.604,247.46,327.779,250.985,327.484,250.075     L327.484,250.075z M330.42,250.934C329.296,250.545,329.967,250.78,330.42,250.934L330.42,250.934z M328.83,253.699     c0.282,0.043,1.214,1.637,1.47,1.902C332.159,251.878,330.318,253.964,328.83,253.699z M325.044,266.814     C325.732,267.01,325.963,267.079,325.044,266.814L325.044,266.814z M204.588,216.716     C204.977,216.759,204.686,216.729,204.588,216.716L204.588,216.716z M327.971,248.293c-0.128-0.376-0.423-1.714-0.124-2.15     C326.689,246.558,324.424,246.28,327.971,248.293z M342.335,268.558c-0.073,5.996-4.44,6.795-3.987,1.346     c-1.136-0.534-2.854-0.598-4.051-0.923c-0.06,0.359,0.957,0.838,0.611,1.171c-2.833,1.504-4.996,2.384-7.248,3.376     c-1.235,2.577-7.124,4.056-6.961,6.051c0.162,2.06,0.718,3.496,0.863,6.803c0.333,7.867,9.713-4.675,13.043,2.726     c0.188-0.166,1.833-1.709,1.957-1.773c-0.231,0.731,0.077,1.158-0.615,1.837c0.428,0.615,0.812-0.436,0.923-0.68     c1.564,9.59,14.556-1.312,10.739-8.773C345.036,276.66,343.621,272.327,342.335,268.558z" style="fill:#DEE4E7;"/><g><path d="M151.503,323.006c1.85,0,3.431-0.688,4.726-2.085c1.278-1.381,2.163-2.949,2.624-4.684      c0.474-1.722,0.688-3.167,0.688-4.359c0-2.735-0.577-4.774-1.778-6.124c-1.167-1.325-2.615-2.009-4.329-2.009      c-2.573,0-4.59,1.192-6.051,3.59c-1.449,2.376-2.175,4.927-2.175,7.662c0,2.175,0.521,4.043,1.556,5.611      C147.823,322.19,149.383,323.006,151.503,323.006z M149.58,309.587c0.774-2.213,1.992-3.35,3.594-3.35      c1.017,0,1.825,0.363,2.38,1.137c0.59,0.752,0.889,1.833,0.889,3.265c0,1.995-0.406,4.132-1.188,6.406      c-0.782,2.291-2.017,3.453-3.727,3.453c-0.978,0-1.752-0.397-2.316-1.184c-0.564-0.782-0.821-1.859-0.821-3.291      C148.392,313.98,148.772,311.822,149.58,309.587z M163.456,307.335c-1.445,2.376-2.171,4.927-2.171,7.662      c0,2.175,0.505,4.043,1.556,5.611c1.055,1.581,2.619,2.397,4.739,2.397c1.837,0,3.419-0.688,4.718-2.085      c1.273-1.381,2.171-2.949,2.616-4.684c0.483-1.722,0.697-3.167,0.697-4.359c0-2.735-0.586-4.774-1.782-6.124      c-1.162-1.325-2.611-2.009-4.32-2.009C166.926,303.746,164.913,304.938,163.456,307.335z M169.25,306.237      c1.013,0,1.812,0.363,2.381,1.137c0.581,0.752,0.88,1.833,0.88,3.265c0,1.995-0.406,4.132-1.188,6.406      c-0.774,2.291-2.017,3.453-3.727,3.453c-0.97,0-1.752-0.397-2.312-1.184c-0.568-0.782-0.829-1.859-0.829-3.291      c0-2.043,0.393-4.201,1.184-6.436C166.43,307.374,167.64,306.237,169.25,306.237z M185.592,303.746      c-2.577,0-4.585,1.192-6.056,3.59c-1.457,2.376-2.188,4.927-2.188,7.662c0,2.175,0.508,4.043,1.577,5.611      c1.042,1.581,2.624,2.397,4.744,2.397c1.841,0,3.419-0.688,4.696-2.085c1.299-1.381,2.196-2.949,2.641-4.684      c0.483-1.722,0.701-3.167,0.701-4.359c0-2.735-0.59-4.774-1.778-6.124C188.733,304.429,187.31,303.746,185.592,303.746z       M187.417,317.044c-0.774,2.291-2.009,3.453-3.727,3.453c-0.991,0-1.752-0.397-2.312-1.184      c-0.568-0.782-0.855-1.859-0.855-3.291c0-2.043,0.414-4.201,1.192-6.436c0.812-2.213,2-3.35,3.602-3.35      c1.017,0,1.812,0.363,2.406,1.137c0.581,0.752,0.863,1.833,0.863,3.265C188.588,312.634,188.191,314.771,187.417,317.044z       M201.669,303.746c-2.581,0-4.585,1.192-6.047,3.59c-1.449,2.376-2.188,4.927-2.188,7.662c0,2.175,0.526,4.043,1.564,5.611      c1.055,1.581,2.616,2.397,4.744,2.397c1.833,0,3.423-0.688,4.722-2.085c1.269-1.381,2.158-2.949,2.619-4.684      c0.479-1.722,0.697-3.167,0.697-4.359c0-2.735-0.589-4.774-1.778-6.124C204.836,304.429,203.379,303.746,201.669,303.746z       M203.489,317.044c-0.782,2.291-2.025,3.453-3.726,3.453c-0.978,0-1.757-0.397-2.325-1.184c-0.551-0.782-0.82-1.859-0.82-3.291      c0-2.043,0.398-4.201,1.197-6.436c0.773-2.213,1.995-3.35,3.59-3.35c1.026,0,1.82,0.363,2.389,1.137      c0.581,0.752,0.889,1.833,0.889,3.265C204.682,312.634,204.263,314.771,203.489,317.044z M218.536,307.335      c-1.448,2.376-2.158,4.927-2.158,7.662c0,2.175,0.517,4.043,1.555,5.611c1.035,1.581,2.616,2.397,4.739,2.397      c1.851,0,3.406-0.688,4.709-2.085c1.29-1.381,2.154-2.949,2.637-4.684c0.453-1.722,0.693-3.167,0.693-4.359      c0-2.735-0.582-4.774-1.778-6.124c-1.192-1.325-2.641-2.009-4.329-2.009C222.032,303.746,219.99,304.938,218.536,307.335z       M224.318,306.237c1.021,0,1.825,0.363,2.406,1.137c0.59,0.752,0.872,1.833,0.872,3.265c0,1.995-0.389,4.132-1.179,6.406      c-0.774,2.291-2.004,3.453-3.722,3.453c-0.991,0-1.778-0.397-2.312-1.184c-0.573-0.782-0.838-1.859-0.838-3.291      c0-2.043,0.38-4.201,1.179-6.436C221.528,307.374,222.716,306.237,224.318,306.237z M238.75,323.006      c1.85,0,3.393-0.688,4.692-2.085c1.304-1.381,2.175-2.949,2.654-4.684c0.453-1.722,0.692-3.167,0.692-4.359      c0-2.735-0.586-4.774-1.778-6.124c-1.192-1.325-2.649-2.009-4.329-2.009c-2.59,0-4.624,1.192-6.068,3.59      c-1.458,2.376-2.167,4.927-2.167,7.662c0,2.175,0.513,4.043,1.564,5.611C235.049,322.19,236.635,323.006,238.75,323.006z       M236.805,309.587c0.791-2.213,1.979-3.35,3.59-3.35c1.013,0,1.812,0.363,2.41,1.137c0.577,0.752,0.859,1.833,0.859,3.265      c0,1.995-0.389,4.132-1.167,6.406c-0.786,2.291-2.009,3.453-3.731,3.453c-0.987,0-1.778-0.397-2.312-1.184      c-0.565-0.782-0.855-1.859-0.855-3.291C235.6,313.98,236.002,311.822,236.805,309.587z M254.818,323.006      c1.838,0,3.398-0.688,4.701-2.085c1.299-1.381,2.162-2.949,2.641-4.684c0.461-1.722,0.697-3.167,0.697-4.359      c0-2.735-0.594-4.774-1.778-6.124c-1.188-1.325-2.645-2.009-4.342-2.009c-2.573,0-4.607,1.192-6.059,3.59      c-1.445,2.376-2.167,4.927-2.167,7.662c0,2.175,0.526,4.043,1.56,5.611C251.113,322.19,252.69,323.006,254.818,323.006z       M252.869,309.587c0.812-2.213,2-3.35,3.603-3.35c1.017,0,1.812,0.363,2.402,1.137c0.577,0.752,0.867,1.833,0.867,3.265      c0,1.995-0.402,4.132-1.171,6.406c-0.774,2.291-2.017,3.453-3.727,3.453c-1,0-1.778-0.397-2.321-1.184      c-0.56-0.782-0.85-1.859-0.85-3.291C251.673,313.98,252.066,311.822,252.869,309.587z M272.814,303.746      c-2.568,0-4.577,1.192-6.042,3.59c-1.462,2.376-2.184,4.927-2.184,7.662c0,2.175,0.521,4.043,1.56,5.611      c1.03,1.581,2.62,2.397,4.748,2.397c1.837,0,3.423-0.688,4.692-2.085c1.299-1.381,2.188-2.949,2.65-4.684      c0.474-1.722,0.684-3.167,0.684-4.359c0-2.735-0.577-4.774-1.765-6.124C275.963,304.429,274.532,303.746,272.814,303.746z       M274.643,317.044c-0.782,2.291-2.026,3.453-3.722,3.453c-1.004,0-1.769-0.397-2.329-1.184      c-0.556-0.782-0.838-1.859-0.838-3.291c0-2.043,0.406-4.201,1.184-6.436c0.803-2.213,1.992-3.35,3.602-3.35      c1.013,0,1.821,0.363,2.41,1.137c0.577,0.752,0.851,1.833,0.851,3.265C275.801,312.634,275.42,314.771,274.643,317.044z       M295.728,303.746c-2.568,0-4.586,1.192-6.047,3.59c-1.448,2.376-2.179,4.927-2.179,7.662c0,2.175,0.517,4.043,1.577,5.611      c1.047,1.581,2.624,2.397,4.722,2.397c1.868,0,3.423-0.688,4.727-2.085c1.308-1.381,2.167-2.949,2.645-4.684      c0.453-1.722,0.692-3.167,0.692-4.359c0-2.735-0.611-4.774-1.778-6.124C298.895,304.429,297.446,303.746,295.728,303.746z       M297.574,317.044c-0.782,2.291-2.03,3.453-3.731,3.453c-0.987,0-1.769-0.397-2.329-1.184c-0.543-0.782-0.825-1.859-0.825-3.291      c0-2.043,0.389-4.201,1.192-6.436c0.769-2.213,1.987-3.35,3.59-3.35c1.021,0,1.825,0.363,2.402,1.137      c0.573,0.752,0.872,1.833,0.872,3.265C298.745,312.634,298.36,314.771,297.574,317.044z M311.822,303.746      c-2.568,0-4.603,1.192-6.06,3.59c-1.453,2.376-2.162,4.927-2.162,7.662c0,2.175,0.513,4.043,1.556,5.611      c1.043,1.581,2.619,2.397,4.739,2.397c1.837,0,3.397-0.688,4.692-2.085c1.299-1.381,2.18-2.949,2.65-4.684      c0.462-1.722,0.701-3.167,0.701-4.359c0-2.735-0.599-4.774-1.782-6.124C314.963,304.429,313.51,303.746,311.822,303.746z       M313.638,317.044c-0.765,2.291-2,3.453-3.718,3.453c-0.991,0-1.778-0.397-2.312-1.184c-0.568-0.782-0.859-1.859-0.859-3.291      c0-2.043,0.402-4.201,1.197-6.436c0.799-2.213,2-3.35,3.602-3.35c1.009,0,1.812,0.363,2.398,1.137      c0.589,0.752,0.863,1.833,0.863,3.265C314.809,312.634,314.424,314.771,313.638,317.044z M327.89,303.746      c-2.568,0-4.607,1.192-6.064,3.59c-1.448,2.376-2.158,4.927-2.158,7.662c0,2.175,0.513,4.043,1.56,5.611      c1.034,1.581,2.607,2.397,4.739,2.397c1.842,0,3.406-0.688,4.697-2.085c1.299-1.381,2.171-2.949,2.641-4.684      c0.453-1.722,0.697-3.167,0.697-4.359c0-2.735-0.577-4.774-1.778-6.124C331.031,304.429,329.591,303.746,327.89,303.746z       M329.715,317.044c-0.774,2.291-2.017,3.453-3.718,3.453c-1.013,0-1.786-0.397-2.325-1.184      c-0.564-0.782-0.842-1.859-0.842-3.291c0-2.043,0.385-4.201,1.192-6.436c0.799-2.213,1.992-3.35,3.594-3.35      c1.013,0,1.812,0.363,2.41,1.137c0.568,0.752,0.85,1.833,0.85,3.265C330.877,312.634,330.488,314.771,329.715,317.044z       M343.959,303.746c-2.573,0-4.607,1.192-6.052,3.59c-1.453,2.376-2.175,4.927-2.175,7.662c0,2.175,0.517,4.043,1.568,5.611      c1.03,1.581,2.611,2.397,4.748,2.397c1.825,0,3.398-0.688,4.684-2.085c1.299-1.381,2.171-2.949,2.645-4.684      c0.457-1.722,0.701-3.167,0.701-4.359c0-2.735-0.586-4.774-1.774-6.124C347.108,304.429,345.655,303.746,343.959,303.746z       M345.783,317.044c-0.773,2.291-2.008,3.453-3.722,3.453c-1,0-1.778-0.397-2.325-1.184c-0.56-0.782-0.842-1.859-0.842-3.291      c0-2.043,0.402-4.201,1.192-6.436c0.803-2.213,1.995-3.35,3.598-3.35c1.017,0,1.816,0.363,2.406,1.137      c0.581,0.752,0.863,1.833,0.863,3.265C346.954,312.634,346.569,314.771,345.783,317.044z" style="fill:#7E848B;"/></g></g></g></g><g id="Layer_1"/></svg>