<?xml version="1.0" ?><!DOCTYPE svg  PUBLIC '-//W3C//DTD SVG 1.1//EN'  'http://www.w3.org/Graphics/SVG/1.1/DTD/svg11.dtd'><svg style="enable-background:new 0 0 500 500.004;" version="1.1" viewBox="0 0 500 500.004" xml:space="preserve" xmlns="http://www.w3.org/2000/svg" xmlns:xlink="http://www.w3.org/1999/xlink"><g id="credit-card"><g><path d="M250.002,500.004C111.939,500.004,0,388.073,0,249.998C0,111.931,111.939,0,250.002,0    C388.069,0,500,111.931,500,249.998C500,388.073,388.069,500.004,250.002,500.004z" style="fill:#A8B6C0;"/><g id="_x32_1"><polygon points="306.164,263.861 287.925,263.861 118.721,263.861 118.721,303.245 287.925,303.245      306.164,303.245 381.283,303.245 381.283,263.861    " style="fill:#FFFFFF;"/><path d="M323.48,299.681H167.772h-49.051v21.769c0,11.496,9.406,20.906,20.901,20.906h28.107h155.794     h36.858c11.496,0,20.902-9.41,20.902-20.906v-21.769H323.48z" style="fill:#59616A;"/><path d="M360.381,157.657H139.622c-11.495,0-20.901,9.41-20.901,20.897v90.768h262.562v-90.768     C381.283,167.067,371.877,157.657,360.381,157.657z" style="fill:#59616A;"/><g><rect height="16.615" style="fill:#B5B9BD;" width="17.675" x="211.827" y="205.408"/><path d="M148.02,236.194v-4.06h21.684v13.308h-12.427C152.174,245.442,148.02,241.288,148.02,236.194z" style="fill:#B5B9BD;"/><path d="M220.246,245.442h-40.44v-65.64h21.914v20.547v26.734c0,2.778,2.261,5.051,5.06,5.051h22.722      v4.06C229.502,241.288,225.34,245.442,220.246,245.442z" style="fill:#B5B9BD;"/><path d="M229.502,195.289h-17.675v-15.487h8.419c5.094,0,9.256,4.137,9.256,9.196V195.289z" style="fill:#B5B9BD;"/><rect height="16.615" style="fill:#B5B9BD;" width="21.684" x="148.02" y="205.408"/><path d="M169.704,195.289H148.02v-6.291c0-5.06,4.154-9.196,9.256-9.196h12.427V195.289z" style="fill:#B5B9BD;"/></g><g><path d="M255.203,205.69c0-17.239,13.995-31.273,31.282-31.273c9.376,0,17.696,4.231,23.423,10.744      c-4.846,5.495-7.867,12.624-7.867,20.53c0,7.923,3.021,15.06,7.867,20.547c-5.726,6.564-14.047,10.744-23.423,10.744      C269.198,236.981,255.203,222.972,255.203,205.69z" style="fill:#FF9554;"/><path d="M317.771,205.69c0-7.906-3.026-15.034-7.863-20.53c5.731-6.513,14.038-10.744,23.423-10.744      c17.26,0,31.273,14.034,31.273,31.273c0,17.282-14.013,31.29-31.273,31.29c-9.385,0-17.692-4.18-23.423-10.744      C314.745,220.75,317.771,213.613,317.771,205.69z" style="fill:#5FD4AF;"/></g></g></g></g><g id="Layer_1"/></svg>