<?xml version="1.0" ?><!DOCTYPE svg  PUBLIC '-//W3C//DTD SVG 1.1//EN'  'http://www.w3.org/Graphics/SVG/1.1/DTD/svg11.dtd'><svg style="enable-background:new 0 0 500 500.004;" version="1.1" viewBox="0 0 500 500.004" xml:space="preserve" xmlns="http://www.w3.org/2000/svg" xmlns:xlink="http://www.w3.org/1999/xlink"><g id="magnifier-dollar-coin"><g><path d="M250.002,500.004C111.939,500.004,0,388.073,0,249.998C0,111.931,111.939,0,250.002,0    C388.069,0,500,111.931,500,249.998C500,388.073,388.069,500.004,250.002,500.004z" style="fill:#FF9554;"/><g id="_x32_6"><path d="M149.347,215.135c0.004,19.795,8.004,37.662,20.974,50.641l0,0     c12.983,12.966,30.846,20.966,50.641,20.97l0,0c19.784-0.004,37.653-8.004,50.63-20.97l0,0     c12.961-12.979,20.97-30.846,20.97-50.641l0,0c0-19.795-8.009-37.658-20.97-50.641l0,0     c-12.977-12.966-30.846-20.966-50.63-20.966l0,0c-19.795,0-37.658,8-50.641,20.966l0,0     C157.351,177.477,149.351,195.34,149.347,215.135L149.347,215.135L149.347,215.135z" style="fill:#A8B6C0;"/><path d="M218.804,234.203c-6.977,0-13.297-2.265-17.797-4.739l-3.216,12.568     c4.073,2.248,11.047,4.273,18.222,4.59v10.218h10.609v-11.06c12.337-2.034,18.998-10.179,18.998-19.722     c0-9.761-5.038-15.654-17.818-20.171c-9.19-3.312-12.957-5.671-12.957-9.12c0-3.004,2.239-6.102,9.214-6.102     c7.716,0,12.75,2.474,15.457,3.748l3.203-12.119c-3.759-1.705-8.579-3.312-15.649-3.521v-9.453h-10.515v10.183     c-11.466,2.15-18.109,9.538-18.109,19.081c0,10.427,7.821,15.799,19.293,19.632c8.041,2.679,11.474,5.243,11.474,9.342     C229.212,231.729,225.028,234.203,218.804,234.203z" style="fill:#91959B;"/><path d="M127.349,215.135c0-51.701,41.901-93.602,93.614-93.606l0,0     c51.705,0.004,93.602,41.905,93.602,93.606l0,0c0,51.696-41.897,93.61-93.602,93.615l0,0     C169.251,308.745,127.349,266.831,127.349,215.135L127.349,215.135z M141.392,215.135c0.004,21.991,8.893,41.846,23.303,56.264     l0,0c14.427,14.41,34.273,23.299,56.269,23.303l0,0c21.983-0.004,41.837-8.893,56.256-23.303l0,0     c14.402-14.419,23.299-34.273,23.299-56.264l0,0c0-21.996-8.897-41.841-23.299-56.269l0,0     c-14.419-14.402-34.273-23.291-56.256-23.291l0,0c-21.995,0-41.841,8.889-56.269,23.291l0,0     C150.285,173.293,141.396,193.139,141.392,215.135L141.392,215.135L141.392,215.135z" style="fill:#FFFFFF;"/><g><path d="M383.565,374.591c-8.453,8.453-22.171,8.453-30.632-0.009l-48.559-48.551l30.628-30.637      l48.564,48.555C392.027,352.407,392.027,366.129,383.565,374.591z" style="fill:#59616A;"/><path d="M329.536,289.929l-30.628,30.637l-6.432-6.449c-8.483-8.461-8.483-22.175-0.021-30.641      c8.461-8.453,22.188-8.453,30.641,0L329.536,289.929z" style="fill:#59616A;"/></g><path d="M241.323,168.883c-2.359-0.996-3.458-3.71-2.47-6.069c1-2.371,3.735-3.47,6.094-2.47     c17.898,7.573,31.474,23.337,36.017,42.606c0.594,2.492-0.953,5-3.436,5.594c-0.372,0.086-0.722,0.107-1.077,0.107     c-2.115,0-4.004-1.423-4.521-3.564C268.079,188.733,256.523,175.319,241.323,168.883z M278.177,222.977     c-2.569,0-4.654-2.081-4.654-4.645c0-2.556,2.085-4.629,4.654-4.629c2.555,0,4.628,2.073,4.628,4.629     C282.805,220.895,280.732,222.977,278.177,222.977z" style="fill:#FFFFFF;"/></g></g></g><g id="Layer_1"/></svg>