<?xml version="1.0" ?><!DOCTYPE svg  PUBLIC '-//W3C//DTD SVG 1.1//EN'  'http://www.w3.org/Graphics/SVG/1.1/DTD/svg11.dtd'><svg style="enable-background:new 0 0 499.996 500.004;" version="1.1" viewBox="0 0 499.996 500.004" xml:space="preserve" xmlns="http://www.w3.org/2000/svg" xmlns:xlink="http://www.w3.org/1999/xlink"><g id="coins-euro"><g><path d="M249.998,500.004c138.067,0,249.998-111.931,249.998-250.007C499.996,111.931,388.065,0,249.998,0    C111.935,0,0,111.931,0,249.998C0,388.074,111.935,500.004,249.998,500.004z" style="fill:#A8B6C0;"/><g id="_x33_3"><g><linearGradient gradientUnits="userSpaceOnUse" id="SVGID_1_" x1="215.5195" x2="284.4765" y1="361.6935" y2="361.6935"><stop offset="0.4908" style="stop-color:#FFFFFF"/><stop offset="0.4969" style="stop-color:#EBEBEB"/></linearGradient><path d="M284.477,361.698c0,4.778-3.859,8.641-8.633,8.641h-51.679      c-4.769,0-8.645-3.863-8.645-8.641c0-4.778,3.876-8.649,8.645-8.649h51.679C280.617,353.048,284.477,356.92,284.477,361.698z" style="fill:url(#SVGID_1_);"/><linearGradient gradientUnits="userSpaceOnUse" id="SVGID_2_" x1="215.5195" x2="284.4765" y1="337.1381" y2="337.1381"><stop offset="0.4908" style="stop-color:#FFFFFF"/><stop offset="0.4969" style="stop-color:#EBEBEB"/></linearGradient><path d="M275.844,328.493h-51.679c-4.769,0-8.645,3.872-8.645,8.641      c0,4.777,3.876,8.649,8.645,8.649h51.679c4.773,0,8.633-3.872,8.633-8.649C284.477,332.365,280.617,328.493,275.844,328.493z" style="fill:url(#SVGID_2_);"/><linearGradient gradientUnits="userSpaceOnUse" id="SVGID_3_" x1="215.5195" x2="284.4765" y1="312.5787" y2="312.5787"><stop offset="0.4908" style="stop-color:#FFFFFF"/><stop offset="0.4969" style="stop-color:#EBEBEB"/></linearGradient><path d="M275.844,303.929h-51.679c-4.769,0-8.645,3.88-8.645,8.632      c0,4.786,3.876,8.667,8.645,8.667h51.679c4.773,0,8.633-3.88,8.633-8.667C284.477,307.81,280.617,303.929,275.844,303.929z" style="fill:url(#SVGID_3_);"/><linearGradient gradientUnits="userSpaceOnUse" id="SVGID_4_" x1="215.5195" x2="284.4765" y1="288.0063" y2="288.0063"><stop offset="0.4908" style="stop-color:#FFFFFF"/><stop offset="0.4969" style="stop-color:#EBEBEB"/></linearGradient><path d="M275.844,279.357h-51.679c-4.769,0-8.645,3.88-8.645,8.658      c0,4.769,3.876,8.641,8.645,8.641h51.679c4.773,0,8.633-3.872,8.633-8.641C284.477,283.237,280.617,279.357,275.844,279.357z" style="fill:url(#SVGID_4_);"/><linearGradient gradientUnits="userSpaceOnUse" id="SVGID_5_" x1="215.5195" x2="284.4765" y1="263.4467" y2="263.4467"><stop offset="0.4908" style="stop-color:#FFFFFF"/><stop offset="0.4969" style="stop-color:#EBEBEB"/></linearGradient><path d="M275.844,254.801h-51.679c-4.769,0-8.645,3.872-8.645,8.65      c0,4.769,3.876,8.641,8.645,8.641h51.679c4.773,0,8.633-3.872,8.633-8.641C284.477,258.673,280.617,254.801,275.844,254.801z" style="fill:url(#SVGID_5_);"/><linearGradient gradientUnits="userSpaceOnUse" id="SVGID_6_" x1="215.5195" x2="284.4765" y1="238.8827" y2="238.8827"><stop offset="0.4908" style="stop-color:#FFFFFF"/><stop offset="0.4969" style="stop-color:#EBEBEB"/></linearGradient><path d="M275.844,230.246h-51.679c-4.769,0-8.645,3.854-8.645,8.641      c0,4.778,3.876,8.632,8.645,8.632h51.679c4.773,0,8.633-3.854,8.633-8.632C284.477,234.101,280.617,230.246,275.844,230.246z" style="fill:url(#SVGID_6_);"/><linearGradient gradientUnits="userSpaceOnUse" id="SVGID_7_" x1="215.5195" x2="284.4765" y1="211.9898" y2="211.9898"><stop offset="0.4908" style="stop-color:#FFFFFF"/><stop offset="0.4969" style="stop-color:#EBEBEB"/></linearGradient><path d="M275.844,203.349h-51.679c-4.769,0-8.645,3.863-8.645,8.649      c0,4.769,3.876,8.633,8.645,8.633h51.679c4.773,0,8.633-3.863,8.633-8.633C284.477,207.212,280.617,203.349,275.844,203.349z" style="fill:url(#SVGID_7_);"/><linearGradient gradientUnits="userSpaceOnUse" id="SVGID_8_" x1="215.5195" x2="284.4765" y1="187.4346" y2="187.4346"><stop offset="0.4908" style="stop-color:#FFFFFF"/><stop offset="0.4969" style="stop-color:#EBEBEB"/></linearGradient><path d="M275.844,178.794h-51.679c-4.769,0-8.645,3.863-8.645,8.641s3.876,8.641,8.645,8.641      h51.679c4.773,0,8.633-3.863,8.633-8.641S280.617,178.794,275.844,178.794z" style="fill:url(#SVGID_8_);"/><linearGradient gradientUnits="userSpaceOnUse" id="SVGID_9_" x1="215.5195" x2="284.4765" y1="162.8706" y2="162.8706"><stop offset="0.4908" style="stop-color:#FFFFFF"/><stop offset="0.4969" style="stop-color:#EBEBEB"/></linearGradient><path d="M275.844,154.23h-51.679c-4.769,0-8.645,3.871-8.645,8.649      c0,4.769,3.876,8.633,8.645,8.633h51.679c4.773,0,8.633-3.863,8.633-8.633C284.477,158.101,280.617,154.23,275.844,154.23z" style="fill:url(#SVGID_9_);"/><linearGradient gradientUnits="userSpaceOnUse" id="SVGID_10_" x1="215.5195" x2="284.4765" y1="138.3066" y2="138.3066"><stop offset="0.4908" style="stop-color:#FFFFFF"/><stop offset="0.4969" style="stop-color:#EBEBEB"/></linearGradient><path d="M275.844,129.657h-51.679c-4.769,0-8.645,3.881-8.645,8.65s3.876,8.65,8.645,8.65h51.679      c4.773,0,8.633-3.881,8.633-8.65S280.617,129.657,275.844,129.657z" style="fill:url(#SVGID_10_);"/></g><g><linearGradient gradientUnits="userSpaceOnUse" id="SVGID_11_" x1="135.2898" x2="204.2678" y1="361.6935" y2="361.6935"><stop offset="0.4908" style="stop-color:#FFFFFF"/><stop offset="0.4969" style="stop-color:#EBEBEB"/></linearGradient><path d="M195.618,353.048h-51.679c-4.773,0-8.649,3.871-8.649,8.649      c0,4.778,3.876,8.641,8.649,8.641h51.679c4.769,0,8.65-3.863,8.65-8.641C204.268,356.92,200.387,353.048,195.618,353.048z" style="fill:url(#SVGID_11_);"/><linearGradient gradientUnits="userSpaceOnUse" id="SVGID_12_" x1="135.2898" x2="204.2678" y1="337.1381" y2="337.1381"><stop offset="0.4908" style="stop-color:#FFFFFF"/><stop offset="0.4969" style="stop-color:#EBEBEB"/></linearGradient><path d="M195.618,328.493h-51.679c-4.773,0-8.649,3.872-8.649,8.641      c0,4.777,3.876,8.649,8.649,8.649h51.679c4.769,0,8.65-3.872,8.65-8.649C204.268,332.365,200.387,328.493,195.618,328.493z" style="fill:url(#SVGID_12_);"/><linearGradient gradientUnits="userSpaceOnUse" id="SVGID_13_" x1="135.2898" x2="204.2678" y1="312.5787" y2="312.5787"><stop offset="0.4908" style="stop-color:#FFFFFF"/><stop offset="0.4969" style="stop-color:#EBEBEB"/></linearGradient><path d="M195.618,303.929h-51.679c-4.773,0-8.649,3.88-8.649,8.632      c0,4.786,3.876,8.667,8.649,8.667h51.679c4.769,0,8.65-3.88,8.65-8.667C204.268,307.81,200.387,303.929,195.618,303.929z" style="fill:url(#SVGID_13_);"/><linearGradient gradientUnits="userSpaceOnUse" id="SVGID_14_" x1="135.2898" x2="204.2678" y1="288.0063" y2="288.0063"><stop offset="0.4908" style="stop-color:#FFFFFF"/><stop offset="0.4969" style="stop-color:#EBEBEB"/></linearGradient><path d="M195.618,279.357h-51.679c-4.773,0-8.649,3.88-8.649,8.658      c0,4.769,3.876,8.641,8.649,8.641h51.679c4.769,0,8.65-3.872,8.65-8.641C204.268,283.237,200.387,279.357,195.618,279.357z" style="fill:url(#SVGID_14_);"/><linearGradient gradientUnits="userSpaceOnUse" id="SVGID_15_" x1="135.2898" x2="204.2678" y1="263.4467" y2="263.4467"><stop offset="0.4908" style="stop-color:#FFFFFF"/><stop offset="0.4969" style="stop-color:#EBEBEB"/></linearGradient><path d="M195.618,254.801h-51.679c-4.773,0-8.649,3.872-8.649,8.65      c0,4.769,3.876,8.641,8.649,8.641h51.679c4.769,0,8.65-3.872,8.65-8.641C204.268,258.673,200.387,254.801,195.618,254.801z" style="fill:url(#SVGID_15_);"/><linearGradient gradientUnits="userSpaceOnUse" id="SVGID_16_" x1="135.2898" x2="204.2678" y1="238.8827" y2="238.8827"><stop offset="0.4908" style="stop-color:#FFFFFF"/><stop offset="0.4969" style="stop-color:#EBEBEB"/></linearGradient><path d="M195.618,230.246h-51.679c-4.773,0-8.649,3.854-8.649,8.641      c0,4.778,3.876,8.632,8.649,8.632h51.679c4.769,0,8.65-3.854,8.65-8.632C204.268,234.101,200.387,230.246,195.618,230.246z" style="fill:url(#SVGID_16_);"/></g><g><linearGradient gradientUnits="userSpaceOnUse" id="SVGID_17_" x1="295.7452" x2="364.7062" y1="361.6935" y2="361.6935"><stop offset="0.4908" style="stop-color:#FFFFFF"/><stop offset="0.4969" style="stop-color:#EBEBEB"/></linearGradient><path d="M356.057,353.048h-51.679c-4.769,0-8.633,3.871-8.633,8.649      c0,4.778,3.864,8.641,8.633,8.641h51.679c4.773,0,8.649-3.863,8.649-8.641C364.706,356.92,360.83,353.048,356.057,353.048z" style="fill:url(#SVGID_17_);"/><linearGradient gradientUnits="userSpaceOnUse" id="SVGID_18_" x1="295.7452" x2="364.7062" y1="337.1381" y2="337.1381"><stop offset="0.4908" style="stop-color:#FFFFFF"/><stop offset="0.4969" style="stop-color:#EBEBEB"/></linearGradient><path d="M356.057,328.493h-51.679c-4.769,0-8.633,3.872-8.633,8.641      c0,4.777,3.864,8.649,8.633,8.649h51.679c4.773,0,8.649-3.872,8.649-8.649C364.706,332.365,360.83,328.493,356.057,328.493z" style="fill:url(#SVGID_18_);"/><linearGradient gradientUnits="userSpaceOnUse" id="SVGID_19_" x1="295.7452" x2="364.7062" y1="312.5787" y2="312.5787"><stop offset="0.4908" style="stop-color:#FFFFFF"/><stop offset="0.4969" style="stop-color:#EBEBEB"/></linearGradient><path d="M356.057,303.929h-51.679c-4.769,0-8.633,3.88-8.633,8.632      c0,4.786,3.864,8.667,8.633,8.667h51.679c4.773,0,8.649-3.88,8.649-8.667C364.706,307.81,360.83,303.929,356.057,303.929z" style="fill:url(#SVGID_19_);"/><linearGradient gradientUnits="userSpaceOnUse" id="SVGID_20_" x1="295.7452" x2="364.7062" y1="288.0063" y2="288.0063"><stop offset="0.4908" style="stop-color:#FFFFFF"/><stop offset="0.4969" style="stop-color:#EBEBEB"/></linearGradient><path d="M304.378,296.656h51.679c4.773,0,8.649-3.872,8.649-8.641      c0-4.778-3.876-8.658-8.649-8.658h-51.679c-4.769,0-8.633,3.88-8.633,8.658C295.745,292.784,299.609,296.656,304.378,296.656z" style="fill:url(#SVGID_20_);"/></g><linearGradient gradientUnits="userSpaceOnUse" id="SVGID_21_" x1="296.8222" x2="362.4626" y1="229.7118" y2="229.7118"><stop offset="0.4908" style="stop-color:#FFFFFF"/><stop offset="0.4969" style="stop-color:#EBEBEB"/></linearGradient><path d="M352.848,206.503c-5.953-5.94-14.128-9.607-23.205-9.607     c-9.077,0-17.26,3.667-23.209,9.607c-5.936,5.957-9.607,14.128-9.611,23.205c0.004,9.077,3.675,17.256,9.611,23.205     c5.949,5.948,14.132,9.615,23.209,9.615c9.077,0,17.252-3.667,23.205-9.615c5.949-5.949,9.611-14.128,9.615-23.205     C362.459,220.631,358.796,212.46,352.848,206.503z M333.339,251.195c-6.329,0-12.017-2.564-15.594-7.29     c-1.726-2.18-3.004-4.923-3.581-8.308h-4.149v-4.538h3.513c0-0.325,0-0.709,0-1.085c0-0.641,0.064-1.282,0.064-1.923h-3.577     v-4.53h4.278c0.769-3.453,2.367-6.393,4.41-8.693c3.577-4.162,8.693-6.589,14.765-6.589c3.837,0,7.286,0.898,9.594,1.915     l-1.795,7.29c-1.662-0.701-4.346-1.539-7.158-1.539c-3.005,0-5.817,1.094-7.804,3.453c-0.953,1.026-1.594,2.496-2.042,4.162     h15.918v4.53h-16.876c-0.064,0.641-0.064,1.282-0.064,1.983c0,0.385,0,0.701,0,1.026h16.94v4.538h-16.046     c0.449,1.915,1.154,3.385,2.115,4.47c2.042,2.299,5.047,3.257,8.243,3.257c2.94,0,5.94-0.957,7.282-1.659l1.534,7.094     C341.138,249.972,337.433,251.195,333.339,251.195z" style="fill:url(#SVGID_21_);"/></g></g></g><g id="Layer_1"/></svg>