<?xml version="1.0" ?><!DOCTYPE svg  PUBLIC '-//W3C//DTD SVG 1.1//EN'  'http://www.w3.org/Graphics/SVG/1.1/DTD/svg11.dtd'><svg style="enable-background:new 0 0 499.987 500.004;" version="1.1" viewBox="0 0 499.987 500.004" xml:space="preserve" xmlns="http://www.w3.org/2000/svg" xmlns:xlink="http://www.w3.org/1999/xlink"><g id="neck-tie"><g><path d="M249.989,500.004C111.922,500.004,0,388.074,0,249.998C0,111.931,111.922,0,249.989,0    c138.076,0,249.998,111.931,249.998,249.998C499.987,388.074,388.065,500.004,249.989,500.004z" style="fill:#FF9554;"/><g id="_x32_5"><path d="M292.754,345.001L271.506,220.02h-0.658c0.355-0.466,0.735-0.923,1-1.432l4.526-8.902     c1.897-3.731,1.325-9.29-1.235-12.333L254.665,172.9c-2.569-3.047-6.769-3.047-9.342,0l-20.466,24.453     c-2.568,3.043-3.128,8.602-1.235,12.333l4.517,8.902c0.256,0.508,0.641,0.966,0.992,1.432h-0.641l-21.252,124.982     c-0.722,3.97,0.855,9.53,3.448,12.346l34.534,37.119c1.312,1.423,3.043,2.132,4.777,2.132c1.727,0,3.466-0.709,4.769-2.132     l34.517-37.119C291.904,354.531,293.472,348.971,292.754,345.001z" style="fill:#59616A;"/><g><polygon points="263.857,220.144 264.498,223.913 229.554,258.865 236.143,220.144     " style="fill:#FFFFFF;"/><polygon points="226.981,273.972 266.318,234.63 268.852,249.468 223.421,294.895     " style="fill:#5FD4AF;"/><polygon points="220.853,310.006 270.669,260.182 273.194,275.028 217.293,330.925     " style="fill:#FFFFFF;"/><path d="M216.233,352.232c-0.919-1.004-1.884-4.15-1.568-5.88l0.051-0.316l60.299-60.299l2.526,14.846      l-56.662,56.649L216.233,352.232z" style="fill:#5FD4AF;"/><polygon points="226.921,363.728 279.365,311.284 281.882,326.134 235.289,372.728     " style="fill:#FFFFFF;"/><path d="M283.754,352.219l-33.765,36.32l-8.658-9.324l42.371-42.372l1.628,9.504      C285.647,348.083,284.681,351.219,283.754,352.219z" style="fill:#5FD4AF;"/></g><path d="M269.002,207.024l-3.261,6.41c-0.201,0.402-0.5,0.756-0.774,1.124h-29.94     c-0.273-0.368-0.581-0.722-0.782-1.124l-3.261-6.41c-1.359-2.697-0.953-6.692,0.885-8.897l14.76-17.619     c1.855-2.197,4.876-2.197,6.726,0l14.761,17.619C269.963,200.332,270.37,204.327,269.002,207.024z" style="fill:#5FD4AF;"/><path d="M337.125,129.64l-11.688-15.324c-0.842-1.107-2.055-1.791-3.359-2.038v-0.12H178.973     c-1.675,0-3.342,0.752-4.423,2.158l-11.679,15.324c-1.769,2.325-1.949,6.239-0.397,8.718l43.158,68.863     c0.829,1.316,1.992,1.983,3.196,1.983c1.064,0,2.132-0.517,3.013-1.568l35.149-42.44c1.859-2.252,1.419-5.453-0.957-7.132     l-55.312-38.867h118.555l-55.316,38.867c-2.38,1.679-2.816,4.88-0.953,7.132l35.15,42.44c0.872,1.051,1.949,1.568,3.013,1.568     c1.205,0,2.367-0.667,3.196-1.983l43.158-68.863C339.07,135.879,338.895,131.965,337.125,129.64z" style="fill:#59616A;"/><path d="M209.306,187.977c3.282,0,5.949,2.662,5.949,5.949c0,3.282-2.667,5.944-5.949,5.944     c-3.278,0-5.949-2.662-5.949-5.944C203.357,190.64,206.028,187.977,209.306,187.977z" style="fill:#FFFFFF;"/><path d="M290.681,199.87c-3.282,0-5.949-2.662-5.949-5.944c0-3.286,2.667-5.949,5.949-5.949     c3.278,0,5.949,2.662,5.949,5.949C296.63,197.208,293.959,199.87,290.681,199.87z" style="fill:#FFFFFF;"/></g></g></g><g id="Layer_1"/></svg>