<?xml version="1.0" ?><!DOCTYPE svg  PUBLIC '-//W3C//DTD SVG 1.1//EN'  'http://www.w3.org/Graphics/SVG/1.1/DTD/svg11.dtd'><svg style="enable-background:new 0 0 499.991 500.004;" version="1.1" viewBox="0 0 499.991 500.004" xml:space="preserve" xmlns="http://www.w3.org/2000/svg" xmlns:xlink="http://www.w3.org/1999/xlink"><g id="magnifier-cheque"><g><path d="M249.998,0c138.063,0,249.993,111.929,249.993,250.002c0,138.072-111.931,250.002-249.993,250.002    S0,388.074,0,250.002C0,111.929,111.935,0,249.998,0z" style="fill:#59616A;"/><g id="_x37_"><g><path d="M337.916,159.533c13.966,0,25.278,11.318,25.278,25.273v99.666      c0,13.972-11.312,25.286-25.278,25.286H133.063c-13.961,0-25.286-11.314-25.286-25.286v-99.666      c0-13.955,11.325-25.273,25.286-25.273H337.916z" style="fill:#5FD4AF;"/></g><rect height="8.846" style="fill:#59616A;" width="108.042" x="129.759" y="205.251"/><rect height="8.154" style="fill:#59616A;" width="108.042" x="129.759" y="225.235"/><rect height="27.583" style="fill:#FFFFFF;" width="91.922" x="249.801" y="205.148"/><rect height="27.305" style="fill:#FFFFFF;" width="211.84" x="129.884" y="245.393"/><path d="M136.396,176.546c-1.901,0-3.401,0.673-4.5,2.028c-1.09,1.352-1.632,3.218-1.632,5.594     c0,2.493,0.521,4.378,1.573,5.656c1.051,1.278,2.572,1.917,4.559,1.917c0.868,0,1.701-0.088,2.5-0.259     c0.812-0.171,1.65-0.389,2.517-0.658v2.844c-1.59,0.605-3.397,0.906-5.419,0.906c-2.97,0-5.252-0.901-6.841-2.703     c-1.599-1.801-2.389-4.376-2.389-7.726c0-2.111,0.385-3.959,1.158-5.543c0.774-1.583,1.889-2.799,3.35-3.639     c1.466-0.842,3.18-1.263,5.158-1.263c2.068,0,3.987,0.434,5.744,1.301l-1.188,2.767c-0.688-0.327-1.415-0.607-2.175-0.855     C138.046,176.667,137.242,176.546,136.396,176.546z M161.802,194.295h-3.333v-9.152h-9.363v9.152h-3.316V173.99h3.316v8.305     h9.363v-8.305h3.333V194.295z M178.635,194.295h-11.483V173.99h11.483v2.805h-8.167v5.528h7.649v2.778h-7.649v6.376h8.167     V194.295z M201.045,184.112c0,2.464-0.466,4.541-1.406,6.222c-0.94,1.686-2.307,2.874-4.103,3.556l4.859,5.239h-4.47     l-3.833-4.555h-0.547c-3.06,0-5.414-0.91-7.055-2.731c-1.645-1.818-2.466-4.404-2.466-7.754c0-3.352,0.825-5.927,2.474-7.722     c1.658-1.797,4.013-2.699,7.081-2.699c3.017,0,5.351,0.912,7,2.739C200.225,178.231,201.045,180.8,201.045,184.112z      M185.545,184.112c0,2.5,0.508,4.397,1.517,5.69c1.008,1.29,2.504,1.938,4.483,1.938c1.978,0,3.466-0.639,4.47-1.917     s1.508-3.18,1.508-5.712c0-2.487-0.5-4.376-1.496-5.667c-0.996-1.284-2.483-1.928-4.449-1.928c-1.992,0-3.496,0.643-4.509,1.928     C186.054,179.736,185.545,181.624,185.545,184.112z M221.323,173.99v13.139c0,1.5-0.321,2.812-0.962,3.936     c-0.645,1.126-1.572,1.991-2.79,2.598c-1.218,0.609-2.676,0.91-4.368,0.91c-2.521,0-4.478-0.666-5.88-2     c-1.393-1.333-2.094-3.167-2.094-5.5V173.99h3.334v12.844c0,1.679,0.389,2.912,1.167,3.711c0.778,0.797,1.974,1.195,3.585,1.195     c3.128,0,4.692-1.643,4.692-4.93v-12.82H221.323z M238.007,194.295h-11.483V173.99h11.483v2.805h-8.167v5.528h7.649v2.778h-7.649     v6.376h8.167V194.295z" style="fill:#FFFFFF;"/><rect height="6.998" style="fill:#59616A;" width="107.114" x="233.81" y="291.01"/><g><g><polygon points="364.689,301.028 354.732,309.857 337.45,290.42 347.399,281.583      " style="fill:#FFFFFF;"/><rect height="9.48" style="fill:#D1D3D4;" transform="matrix(0.7475 -0.6643 0.6643 0.7475 -105.075 302.6882)" width="13.31" x="338.917" y="284.804"/></g><path d="M350.83,207.073c-21.457-24.16-58.44-26.35-82.602-4.889      c-24.166,21.455-26.354,58.44-4.897,82.598c21.461,24.162,58.444,26.352,82.606,4.895      C370.091,268.218,372.283,231.237,350.83,207.073z M336.621,279.194c-18.367,16.31-46.487,14.647-62.807-3.726      c-16.308-18.372-14.645-46.491,3.727-62.805c18.371-16.312,46.491-14.645,62.807,3.727      C356.659,234.759,354.993,262.876,336.621,279.194z" style="fill:#FF9554;"/><path d="M390.676,319.884c2.235,2.519,2.013,6.393-0.517,8.639l-11.718,10.397      c-2.526,2.248-6.397,2.019-8.637-0.505l-22.598-25.444c-2.239-2.524-2.009-6.393,0.517-8.635l11.722-10.412      c2.521-2.239,6.389-2.013,8.633,0.515L390.676,319.884z" style="fill:#A8B6C0;"/></g></g></g></g><g id="Layer_1"/></svg>