<?xml version="1.0" ?><!DOCTYPE svg  PUBLIC '-//W3C//DTD SVG 1.1//EN'  'http://www.w3.org/Graphics/SVG/1.1/DTD/svg11.dtd'><svg style="enable-background:new 0 0 499.987 500.004;" version="1.1" viewBox="0 0 499.987 500.004" xml:space="preserve" xmlns="http://www.w3.org/2000/svg" xmlns:xlink="http://www.w3.org/1999/xlink"><g id="money-coin-british-pound"><g><path d="M249.989,500.004C111.922,500.004,0,388.073,0,249.998C0,111.931,111.922,0,249.989,0    c138.076,0,249.998,111.931,249.998,249.998C499.987,388.073,388.065,500.004,249.989,500.004z" style="fill:#A8B6C0;"/><g id="_x33_0"><path d="M378.467,261.63c-3.209-0.145-5.688-2.854-5.551-6.06c0.068-1.829,0.133-3.675,0.133-5.547     c0-3.197,2.585-5.803,5.799-5.803c0.88,0,1.68,0.222,2.427,0.572c-0.145-3.333-0.389-6.666-0.774-9.923     c-0.666,0.436-1.427,0.769-2.282,0.914c-0.295,0.035-0.615,0.069-0.91,0.069c-2.812,0-5.274-2.034-5.735-4.906     c-0.291-1.829-0.616-3.658-0.979-5.453c-0.641-3.154,1.393-6.205,4.534-6.846c0.85-0.171,1.683-0.111,2.474,0.069     c-1.047-4.299-2.316-8.504-3.782-12.633c-0.56,0.59-1.226,1.103-2.043,1.427c-0.696,0.282-1.423,0.41-2.141,0.41     c-2.304,0-4.487-1.393-5.402-3.658c-0.666-1.709-1.406-3.393-2.158-5.077c-1.333-2.914-0.039-6.359,2.884-7.692     c0.765-0.342,1.582-0.496,2.381-0.496c-1.966-3.915-4.133-7.701-6.474-11.368c-0.414,0.675-0.958,1.282-1.641,1.778     c-1.009,0.701-2.163,1.025-3.316,1.025c-1.825,0-3.633-0.863-4.761-2.47c-1.064-1.539-2.146-3.043-3.274-4.504     c-1.94-2.564-1.453-6.188,1.098-8.128c0.675-0.53,1.44-0.863,2.231-1.026c-2.795-3.367-5.765-6.59-8.876-9.667     c-0.244,0.752-0.633,1.487-1.21,2.103c-1.141,1.265-2.718,1.906-4.278,1.906c-1.406,0-2.795-0.487-3.915-1.513     c-1.368-1.256-2.777-2.462-4.205-3.667c-2.453-2.051-2.791-5.718-0.718-8.179c0.534-0.649,1.184-1.12,1.902-1.47     c-3.461-2.65-7.047-5.162-10.769-7.47c-0.077,0.803-0.295,1.59-0.705,2.359c-1.073,1.872-3.034,2.914-5.056,2.914     c-0.974,0-1.953-0.239-2.867-0.752c-1.594-0.915-3.226-1.769-4.881-2.615c-2.85-1.453-4.004-4.94-2.551-7.795     c0.389-0.752,0.932-1.376,1.547-1.872c-3.953-1.829-8.025-3.461-12.179-4.872c0.111,0.795,0.069,1.598-0.158,2.419     c-0.752,2.53-3.064,4.154-5.577,4.154c-0.534,0-1.094-0.052-1.641-0.222c-1.76-0.53-3.547-1.026-5.346-1.462     c-3.124-0.769-5.017-3.914-4.252-7.026c0.214-0.846,0.624-1.598,1.154-2.239c-4.282-0.872-8.65-1.556-13.064-2.009     c0.291,0.769,0.474,1.59,0.423,2.487c-0.197,3.077-2.748,5.436-5.786,5.436c-0.12,0-0.248,0-0.372,0     c-1.833-0.128-3.684-0.179-5.534-0.222c-3.214-0.051-5.765-2.701-5.705-5.915c0.017-0.872,0.248-1.675,0.615-2.419     c-4.449,0.094-8.829,0.41-13.15,0.94c0.462,0.675,0.803,1.427,0.936,2.291c0.508,3.162-1.641,6.128-4.808,6.666     c-1.825,0.282-3.636,0.632-5.449,1.009c-0.393,0.068-0.795,0.119-1.188,0.119c-2.688,0-5.102-1.88-5.671-4.632     c-0.184-0.838-0.132-1.683,0.056-2.47c-4.286,1.068-8.504,2.35-12.615,3.846c0.594,0.564,1.098,1.231,1.432,2.034     c1.209,2.966-0.231,6.368-3.192,7.564c-1.71,0.709-3.385,1.445-5.047,2.197c-0.786,0.359-1.624,0.538-2.444,0.538     c-2.188,0-4.295-1.256-5.265-3.367c-0.363-0.769-0.508-1.573-0.517-2.376c-3.893,2-7.675,4.197-11.333,6.556     c0.68,0.385,1.29,0.915,1.778,1.632c1.855,2.616,1.218,6.222-1.398,8.069c-1.508,1.06-3.009,2.162-4.474,3.299     c-1.052,0.821-2.304,1.205-3.534,1.205c-1.744,0-3.466-0.769-4.607-2.248c-0.513-0.684-0.842-1.427-1.026-2.196     c-3.35,2.812-6.555,5.786-9.607,8.914c0.757,0.239,1.474,0.615,2.103,1.188c2.385,2.146,2.581,5.821,0.428,8.188     c-1.231,1.385-2.441,2.795-3.611,4.205c-1.154,1.41-2.816,2.128-4.496,2.128c-1.295,0-2.602-0.427-3.679-1.325     c-0.663-0.522-1.141-1.205-1.504-1.923c-2.645,3.487-5.12,7.094-7.41,10.821c0.803,0.077,1.607,0.282,2.363,0.701     c2.795,1.573,3.791,5.12,2.218,7.906c-0.889,1.615-1.748,3.239-2.577,4.906c-1.017,2.034-3.064,3.205-5.209,3.205     c-0.863,0-1.744-0.205-2.573-0.598c-0.774-0.393-1.389-0.94-1.893-1.539c-1.799,3.949-3.406,8.034-4.799,12.222     c0.782-0.128,1.603-0.111,2.419,0.111c3.09,0.897,4.872,4.12,3.996,7.196c-0.513,1.778-1,3.564-1.431,5.359     c-0.645,2.675-3.022,4.453-5.646,4.453c-0.444,0-0.906-0.034-1.355-0.145c-0.863-0.222-1.585-0.624-2.235-1.137     c-0.85,4.265-1.5,8.607-1.927,12.974c0.765-0.282,1.598-0.453,2.47-0.342c3.205,0.18,5.654,2.915,5.462,6.128     c-0.103,1.837-0.162,3.667-0.184,5.53c-0.043,3.188-2.637,5.735-5.812,5.735c-0.021,0-0.043,0-0.069,0     c-0.867-0.017-1.666-0.239-2.414-0.589c0.124,4.427,0.466,8.812,1.021,13.128c0.666-0.453,1.41-0.786,2.256-0.932     c3.231-0.53,6.171,1.573,6.709,4.727c0.308,1.846,0.671,3.658,1.051,5.47c0.671,3.145-1.329,6.231-4.461,6.897     c-0.41,0.094-0.821,0.137-1.222,0.137c-0.453,0-0.872-0.137-1.299-0.222c1.12,4.299,2.449,8.513,3.966,12.632     c0.56-0.607,1.227-1.136,2.043-1.462c2.974-1.213,6.359,0.197,7.581,3.145c0.701,1.718,1.449,3.384,2.222,5.051     c1.368,2.906,0.128,6.376-2.782,7.726c-0.774,0.359-1.585,0.53-2.381,0.53c2.026,3.88,4.231,7.667,6.624,11.316     c0.41-0.701,0.932-1.325,1.641-1.837c2.611-1.846,6.231-1.222,8.09,1.393c1.06,1.504,2.163,2.991,3.308,4.418     c1.974,2.521,1.534,6.18-0.992,8.163c-0.671,0.53-1.445,0.82-2.227,1.009c2.838,3.35,5.846,6.538,8.991,9.573     c0.239-0.752,0.615-1.479,1.18-2.129c2.132-2.376,5.812-2.581,8.196-0.453c1.385,1.222,2.791,2.436,4.222,3.581     c2.496,2.034,2.868,5.692,0.855,8.171c-0.547,0.675-1.222,1.171-1.957,1.521c3.504,2.633,7.162,5.085,10.923,7.359     c0.06-0.803,0.252-1.616,0.675-2.385c1.551-2.795,5.094-3.82,7.889-2.282c1.62,0.906,3.257,1.752,4.919,2.581     c2.872,1.419,4.064,4.906,2.65,7.778c-0.38,0.752-0.944,1.376-1.577,1.889c4,1.769,8.111,3.35,12.316,4.718     c-0.128-0.803-0.119-1.624,0.124-2.47c0.885-3.094,4.128-4.871,7.18-3.991c1.765,0.513,3.547,0.975,5.342,1.393     c3.128,0.726,5.055,3.855,4.324,6.974c-0.201,0.855-0.628,1.59-1.141,2.231c4.295,0.829,8.658,1.445,13.085,1.855     c-0.299-0.752-0.474-1.572-0.431-2.436c0.158-3.231,3.043-5.692,6.073-5.53c1.838,0.094,3.688,0.145,5.555,0.162     c3.214,0,5.786,2.641,5.778,5.838c0,0.88-0.231,1.667-0.577,2.419c4.444-0.145,8.833-0.53,13.158-1.103     c-0.461-0.666-0.846-1.402-0.991-2.265c-0.568-3.171,1.547-6.171,4.705-6.718c1.829-0.333,3.641-0.701,5.444-1.077     c3.107-0.718,6.235,1.256,6.919,4.41c0.188,0.838,0.158,1.684-0.013,2.487c4.274-1.154,8.466-2.487,12.564-4.043     c-0.607-0.555-1.128-1.179-1.462-1.983c-1.265-2.94,0.116-6.368,3.077-7.598c1.697-0.727,3.376-1.504,5.043-2.291     c2.88-1.367,6.355-0.137,7.743,2.752c0.376,0.769,0.517,1.573,0.539,2.385c3.897-2.06,7.662-4.308,11.32-6.727     c-0.697-0.402-1.363-0.897-1.863-1.589c-1.884-2.581-1.308-6.231,1.29-8.094c1.509-1.094,2.983-2.214,4.428-3.351     c2.517-2.009,6.171-1.572,8.158,0.94c0.526,0.675,0.859,1.402,1.064,2.171c3.307-2.855,6.479-5.872,9.504-9.026     c-0.761-0.231-1.5-0.581-2.12-1.146c-2.415-2.102-2.671-5.769-0.56-8.188c1.226-1.41,2.419-2.821,3.59-4.265     c2.009-2.504,5.671-2.889,8.162-0.897c0.671,0.555,1.154,1.205,1.525,1.923c2.603-3.513,5.021-7.179,7.265-10.948     c-0.799-0.052-1.603-0.222-2.355-0.641c-2.82-1.53-3.872-5.051-2.342-7.872c0.876-1.633,1.735-3.274,2.534-4.941     c1.397-2.872,4.871-4.077,7.76-2.692c0.773,0.385,1.402,0.915,1.914,1.539c1.757-4.026,3.329-8.146,4.675-12.376     c-0.312,0.051-0.611,0.162-0.936,0.162c-0.513,0-1.06-0.069-1.573-0.222c-3.081-0.863-4.88-4.06-4.026-7.154     c0.491-1.778,0.944-3.556,1.355-5.342c0.718-3.137,3.846-5.094,6.948-4.376c0.842,0.179,1.586,0.581,2.235,1.077     c0.786-4.265,1.385-8.607,1.76-13.017c-0.671,0.273-1.414,0.419-2.184,0.419C378.638,261.63,378.552,261.63,378.467,261.63z      M250.015,352.467c-56.487,0-102.439-45.965-102.439-102.443c0-56.495,45.953-102.444,102.439-102.444     c56.491,0,102.448,45.948,102.448,102.444C352.463,306.502,306.506,352.467,250.015,352.467z" style="fill:#59616A;"/><path d="M250.015,157.281c-51.141,0-92.739,41.589-92.739,92.743c0,51.127,41.598,92.751,92.739,92.751     c51.145,0,92.742-41.624,92.742-92.751C342.758,198.87,301.16,157.281,250.015,157.281z" style="fill:#59616A;"/><linearGradient gradientUnits="userSpaceOnUse" id="SVGID_1_" x1="147.5759" x2="352.463" y1="250.0234" y2="250.0234"><stop offset="0.5" style="stop-color:#FFFFFF"/><stop offset="0.5" style="stop-color:#EBEBEB"/></linearGradient><path d="M250.015,147.58c-56.487,0-102.439,45.948-102.439,102.444     c0,56.478,45.953,102.443,102.439,102.443c56.491,0,102.448-45.965,102.448-102.443     C352.463,193.528,306.506,147.58,250.015,147.58z M250.015,342.775c-51.141,0-92.739-41.624-92.739-92.751     c0-51.154,41.598-92.743,92.739-92.743c51.145,0,92.742,41.589,92.742,92.743C342.758,301.151,301.16,342.775,250.015,342.775z      M235.814,282.433h50.231v20.248h-78.333v-19.957c5.29-1.539,8.987-4.154,11.111-7.82c2.103-3.667,3.171-8.914,3.171-15.667     h-11.948v-7.786v-7.564h8.102h3.846v-3.086v-16.025c0-9.359,3.316-16.948,9.974-22.769c6.658-5.838,15.171-8.726,25.542-8.726     c6.047,0,11.099,0.41,15.124,1.231c4.043,0.803,7.115,1.547,9.235,2.239v18.556v3.487h-2.53     c-1.133-0.889-2.367-1.701-3.696-2.419c-1.333-0.726-2.778-1.368-4.325-1.94c-3.107-1.136-6.243-1.692-9.401-1.692     c-4.342,0-7.837,1.427-10.586,4.274c-0.607,0.658-1.115,1.376-1.594,2.137c-0.145,0.231-0.282,0.495-0.41,0.752     c-0.299,0.564-0.577,1.154-0.803,1.761c-0.115,0.299-0.231,0.607-0.329,0.906c-0.235,0.735-0.414,1.53-0.543,2.35     c-0.034,0.196-0.098,0.376-0.133,0.573c-0.149,1.119-0.248,2.282-0.248,3.53v14.863h26.893v15.35h-26.893     c0,1.863-0.295,4.077-0.855,6.675c-0.594,2.547-1.282,4.684-2.09,6.359c-0.966,1.923-2.136,3.718-3.564,5.359     c-1.427,1.676-3.09,3.009-4.949,4.009V282.433z" style="fill:url(#SVGID_1_);"/></g></g></g><g id="Layer_1"/></svg>